<svg width="42" height="42" viewBox="0 0 42 42" fill="none" xmlns="http://www.w3.org/2000/svg">
<g clip-path="url(#clip0)">
<path d="M54.0381 22.1719C52.9296 22.1711 51.8211 22.1698 50.7126 22.1707C48.6179 22.1719 47.3848 20.7132 47.3848 20.7132C47.3848 20.7132 46.1694 22.169 44.0242 22.1703C41.9545 22.1719 40.7145 20.7132 40.7145 20.7132C40.7145 20.7132 39.4809 22.169 37.3862 22.1703C35.2916 22.1715 34.0548 20.7132 34.0548 20.7132C34.0548 20.7132 32.818 22.169 30.6978 22.1703C28.5776 22.1715 27.3408 20.6719 27.3408 20.6719C27.3408 20.6719 26.1165 22.169 24.0311 22.1703C21.9457 22.1715 20.7034 20.7128 20.7034 20.7128C20.7034 20.7128 19.4879 22.1686 17.3427 22.1698C15.273 22.1715 14.033 20.7128 14.033 20.7128C14.033 20.7128 12.7994 22.1686 10.7047 22.1698C8.61007 22.1711 7.37327 20.7128 7.37327 20.7128C7.37327 20.7128 6.13647 22.1686 4.01631 22.1698C1.89615 22.1711 0.658429 20.6723 0.658429 20.6723C0.658429 20.6723 -0.559377 22.1367 -2.65128 22.15C-4.74318 22.1634 -5.96191 22.1707 -5.96191 22.1707" stroke="#00A881" stroke-miterlimit="10"/>
<path d="M54.0381 12.5723C52.9296 12.5715 51.8211 12.5702 50.7126 12.5711C48.6179 12.5723 47.3848 11.1136 47.3848 11.1136C47.3848 11.1136 46.1694 12.5694 44.0242 12.5706C41.9545 12.5723 40.7145 11.1136 40.7145 11.1136C40.7145 11.1136 39.4809 12.5694 37.3862 12.5706C35.2916 12.5719 34.0548 11.1136 34.0548 11.1136C34.0548 11.1136 32.818 12.5694 30.6978 12.5706C28.5776 12.5719 27.3408 11.0723 27.3408 11.0723C27.3408 11.0723 26.1165 12.5694 24.0311 12.5706C21.9457 12.5719 20.7034 11.1131 20.7034 11.1131C20.7034 11.1131 19.4879 12.569 17.3427 12.5702C15.273 12.5719 14.033 11.1131 14.033 11.1131C14.033 11.1131 12.7994 12.569 10.7047 12.5702C8.61007 12.5715 7.37327 11.1131 7.37327 11.1131C7.37327 11.1131 6.13647 12.569 4.01631 12.5702C1.89615 12.5715 0.658429 11.0727 0.658429 11.0727C0.658429 11.0727 -0.559377 12.5371 -2.65128 12.5504C-4.74318 12.5638 -5.96191 12.5711 -5.96191 12.5711" stroke="#00A881" stroke-miterlimit="10"/>
<path d="M54.0381 31.7734C52.9296 31.7726 51.8211 31.7714 50.7126 31.7722C48.6179 31.7734 47.3849 30.3147 47.3849 30.3147C47.3849 30.3147 46.1694 31.7706 44.0242 31.7718C41.9545 31.7734 40.7145 30.3147 40.7145 30.3147C40.7145 30.3147 39.4809 31.7706 37.3862 31.7718C35.2916 31.773 34.0548 30.3147 34.0548 30.3147C34.0548 30.3147 32.818 31.7706 30.6978 31.7718C28.5776 31.773 27.3408 30.2734 27.3408 30.2734C27.3408 30.2734 26.1166 31.7706 24.0311 31.7718C21.9457 31.773 20.7034 30.3143 20.7034 30.3143C20.7034 30.3143 19.4879 31.7702 17.3427 31.7714C15.273 31.773 14.033 30.3143 14.033 30.3143C14.033 30.3143 12.7994 31.7702 10.7048 31.7714C8.61007 31.7726 7.37327 30.3143 7.37327 30.3143C7.37327 30.3143 6.13648 31.7702 4.01632 31.7714C1.89616 31.7726 0.658431 30.2738 0.658431 30.2738C0.658431 30.2738 -0.559375 31.7382 -2.65128 31.7516C-4.74318 31.7649 -5.96191 31.7722 -5.96191 31.7722" stroke="#00A881" stroke-miterlimit="10"/>
<path d="M26.5 -0.259766C17.681 -0.259766 10.5311 9.23496 10.5311 20.9498C10.5311 32.6646 17.681 42.1576 26.5 42.1576" stroke="#00A881" stroke-miterlimit="10"/>
<path d="M15.2002 -0.259766C24.0192 -0.259766 31.1691 9.23497 31.1691 20.9498C31.1691 32.6646 24.0192 42.1576 15.2002 42.1576" stroke="#00A881" stroke-miterlimit="10"/>
</g>
<rect x="0.5" y="0.5" width="41" height="41" rx="20.5" stroke="#00A881"/>
<defs>
<clipPath id="clip0">
    <rect x="0.5" y="0.5" width="41" height="41" rx="20.5" stroke="#00A881"/>
</clipPath>
</defs>
</svg>
