<svg width="327" height="184" viewBox="0 0 327 184" fill="none" xmlns="http://www.w3.org/2000/svg">
<path d="M12.2 23.5L11.45 26.5H18.3L17.55 23.5C17.1167 21.8667 16.6667 20.15 16.2 18.35C15.7333 16.5167 15.3167 14.7333 14.95 13H14.75C14.35 14.7333 13.9333 16.5167 13.5 18.35C13.0667 20.15 12.6333 21.8667 12.2 23.5ZM0.45 40L10.6 7.4H19.4L29.55 40H21.75L19.8 32.25H9.95L7.95 40H0.45ZM46.2805 40V13.6H36.5305V7.4H63.4305V13.6H53.6805V40H46.2805ZM75.3109 40V7.4H82.6609V33.8H97.1609V40H75.3109ZM117.141 23.5L116.391 26.5H123.241L122.491 23.5C122.058 21.8667 121.608 20.15 121.141 18.35C120.675 16.5167 120.258 14.7333 119.891 13H119.691C119.291 14.7333 118.875 16.5167 118.441 18.35C118.008 20.15 117.575 21.8667 117.141 23.5ZM105.391 40L115.541 7.4H124.341L134.491 40H126.691L124.741 32.25H114.891L112.891 40H105.391ZM154.822 40.6C152.622 40.6 150.439 40.2167 148.272 39.45C146.139 38.65 144.189 37.4667 142.422 35.9L146.672 30.85C147.905 31.85 149.255 32.6667 150.722 33.3C152.189 33.9333 153.722 34.25 155.322 34.25C156.922 34.25 158.089 33.9833 158.822 33.45C159.555 32.9167 159.922 32.2333 159.922 31.4C159.922 30.8333 159.805 30.3667 159.572 30C159.339 29.6 159.005 29.25 158.572 28.95C158.139 28.65 157.605 28.3667 156.972 28.1C156.339 27.8333 155.639 27.5333 154.872 27.2L150.672 25.4C149.772 25.0667 148.889 24.6333 148.022 24.1C147.189 23.5667 146.455 22.95 145.822 22.25C145.189 21.5167 144.672 20.6833 144.272 19.75C143.905 18.7833 143.722 17.7 143.722 16.5C143.722 15.1667 144.005 13.9167 144.572 12.75C145.172 11.55 145.989 10.5167 147.022 9.65C148.089 8.75 149.355 8.05 150.822 7.55C152.289 7.05 153.905 6.8 155.672 6.8C157.672 6.8 159.605 7.16667 161.472 7.9C163.339 8.63333 165.022 9.7 166.522 11.1L162.772 15.75C161.639 14.9167 160.505 14.2833 159.372 13.85C158.239 13.3833 156.872 13.15 155.272 13.15C154.039 13.15 153.039 13.4 152.272 13.9C151.539 14.4 151.172 15.1333 151.172 16.1C151.172 17.0667 151.655 17.8167 152.622 18.35C153.622 18.85 154.922 19.3833 156.522 19.95L160.472 21.65C162.639 22.45 164.339 23.55 165.572 24.95C166.839 26.35 167.472 28.2 167.472 30.5C167.472 31.8667 167.189 33.1667 166.622 34.4C166.055 35.6 165.239 36.6667 164.172 37.6C163.105 38.5 161.789 39.2333 160.222 39.8C158.655 40.3333 156.855 40.6 154.822 40.6ZM259.863 40.6C257.93 40.6 256.147 40.2333 254.513 39.5C252.913 38.7667 251.53 37.6833 250.363 36.25C249.23 34.8167 248.347 33.05 247.713 30.95C247.08 28.8167 246.763 26.35 246.763 23.55C246.763 20.8167 247.08 18.4167 247.713 16.35C248.347 14.25 249.23 12.5 250.363 11.1C251.53 9.66666 252.913 8.6 254.513 7.9C256.147 7.16667 257.93 6.8 259.863 6.8C261.797 6.8 263.563 7.16667 265.163 7.9C266.797 8.6 268.18 9.66666 269.313 11.1C270.48 12.5 271.38 14.25 272.013 16.35C272.647 18.4167 272.963 20.8167 272.963 23.55C272.963 26.35 272.647 28.8167 272.013 30.95C271.38 33.05 270.48 34.8167 269.313 36.25C268.18 37.6833 266.797 38.7667 265.163 39.5C263.563 40.2333 261.797 40.6 259.863 40.6ZM259.863 34.25C261.563 34.25 262.913 33.35 263.913 31.55C264.913 29.75 265.413 27.0833 265.413 23.55C265.413 20.15 264.913 17.5667 263.913 15.8C262.913 14.0333 261.563 13.15 259.863 13.15C258.163 13.15 256.813 14.0333 255.813 15.8C254.813 17.5667 254.313 20.15 254.313 23.55C254.313 27.0833 254.813 29.75 255.813 31.55C256.813 33.35 258.163 34.25 259.863 34.25ZM285.094 40V7.4H306.744V13.6H292.444V21.15H304.644V27.35H292.444V40H285.094ZM2.9 85V52.4H10.6L13.8 63.95L14.9 68.45H15.1L16.2 63.95L19.4 52.4H27.1V85H20.9V74.9C20.9 74 20.9333 72.8667 21 71.5C21.0667 70.1333 21.15 68.7333 21.25 67.3C21.35 65.8667 21.45 64.4833 21.55 63.15C21.6833 61.7833 21.7833 60.6667 21.85 59.8H21.7L19.2 68.5L16.7 76.35H13.1L10.55 68.5L8.2 59.8H8.05C8.15 60.6667 8.25 61.7833 8.35 63.15C8.45 64.4833 8.55 65.8667 8.65 67.3C8.75 68.7333 8.83333 70.1333 8.9 71.5C8.96667 72.8667 9 74 9 74.9V85H2.9ZM39.5805 85V52.4H61.1805V58.6H46.9805V65.15H59.0305V71.3H46.9805V78.8H61.6805V85H39.5805ZM73.4609 85V52.4H82.4609C84.8276 52.4 86.9776 52.7167 88.9109 53.35C90.8443 53.9833 92.4943 54.9667 93.8609 56.3C95.2276 57.6 96.2776 59.2667 97.0109 61.3C97.7776 63.3333 98.1609 65.75 98.1609 68.55C98.1609 71.35 97.7943 73.7833 97.0609 75.85C96.3276 77.9167 95.2776 79.6333 93.9109 81C92.5776 82.3333 90.9776 83.3333 89.1109 84C87.2443 84.6667 85.1776 85 82.9109 85H73.4609ZM80.8609 79.05H82.0609C83.3276 79.05 84.4776 78.8667 85.5109 78.5C86.5776 78.1333 87.4776 77.55 88.2109 76.75C88.9776 75.9167 89.5609 74.8333 89.9609 73.5C90.3943 72.1667 90.6109 70.5167 90.6109 68.55C90.6109 66.6167 90.3943 65 89.9609 63.7C89.5609 62.3667 88.9776 61.3167 88.2109 60.55C87.4776 59.75 86.5776 59.1833 85.5109 58.85C84.4776 58.5167 83.3276 58.35 82.0609 58.35H80.8609V79.05ZM108.641 85V78.8H116.241V58.6H108.641V52.4H131.241V58.6H123.641V78.8H131.241V85H108.641ZM151.222 85V58.6H141.472V52.4H168.372V58.6H158.622V85H151.222ZM179.502 85V52.4H201.102V58.6H186.902V65.15H198.952V71.3H186.902V78.8H201.602V85H179.502ZM213.383 85V52.4H224.933C226.666 52.4 228.283 52.5667 229.783 52.9C231.316 53.2333 232.649 53.8 233.783 54.6C234.949 55.3667 235.866 56.4 236.533 57.7C237.199 59 237.533 60.6167 237.533 62.55C237.533 64.95 236.999 66.9333 235.933 68.5C234.866 70.0333 233.466 71.1833 231.733 71.95L239.083 85H230.833L224.583 73.25H220.733V85H213.383ZM220.733 67.4H224.333C228.299 67.4 230.283 65.7833 230.283 62.55C230.283 60.95 229.783 59.8333 228.783 59.2C227.783 58.5667 226.299 58.25 224.333 58.25H220.733V67.4ZM248.363 85V52.4H259.913C261.647 52.4 263.263 52.5667 264.763 52.9C266.297 53.2333 267.63 53.8 268.763 54.6C269.93 55.3667 270.847 56.4 271.513 57.7C272.18 59 272.513 60.6167 272.513 62.55C272.513 64.95 271.98 66.9333 270.913 68.5C269.847 70.0333 268.447 71.1833 266.713 71.95L274.063 85H265.813L259.563 73.25H255.713V85H248.363ZM255.713 67.4H259.313C263.28 67.4 265.263 65.7833 265.263 62.55C265.263 60.95 264.763 59.8333 263.763 59.2C262.763 58.5667 261.28 58.25 259.313 58.25H255.713V67.4ZM292.044 68.5L291.294 71.5H298.144L297.394 68.5C296.96 66.8667 296.51 65.15 296.044 63.35C295.577 61.5167 295.16 59.7333 294.794 58H294.594C294.194 59.7333 293.777 61.5167 293.344 63.35C292.91 65.15 292.477 66.8667 292.044 68.5ZM280.294 85L290.444 52.4H299.244L309.394 85H301.594L299.644 77.25H289.794L287.794 85H280.294ZM3.3 130V97.4H10.85L17.7 113.6L20.5 120.8H20.7C20.5333 119.067 20.3167 117.15 20.05 115.05C19.7833 112.917 19.65 110.883 19.65 108.95V97.4H26.7V130H19.15L12.3 113.75L9.5 106.65H9.3C9.46667 108.45 9.68333 110.383 9.95 112.45C10.2167 114.517 10.35 116.517 10.35 118.45V130H3.3ZM39.5805 130V97.4H61.1805V103.6H46.9805V110.15H59.0305V116.3H46.9805V123.8H61.6805V130H39.5805ZM82.1609 113.5L81.4109 116.5H88.2609L87.5109 113.5C87.0776 111.867 86.6276 110.15 86.1609 108.35C85.6943 106.517 85.2776 104.733 84.9109 103H84.7109C84.3109 104.733 83.8943 106.517 83.4609 108.35C83.0276 110.15 82.5943 111.867 82.1609 113.5ZM70.4109 130L80.5609 97.4H89.3609L99.5109 130H91.7109L89.7609 122.25H79.9109L77.9109 130H70.4109ZM108.241 130V97.4H115.791L122.641 113.6L125.441 120.8H125.641C125.475 119.067 125.258 117.15 124.991 115.05C124.725 112.917 124.591 110.883 124.591 108.95V97.4H131.641V130H124.091L117.241 113.75L114.441 106.65H114.241C114.408 108.45 114.625 110.383 114.891 112.45C115.158 114.517 115.291 116.517 115.291 118.45V130H108.241ZM5.35 175V142.4H12.7V168.8H27.2V175H5.35ZM38.6805 175V168.8H46.2805V148.6H38.6805V142.4H61.2805V148.6H53.6805V168.8H61.2805V175H38.6805ZM84.9609 169.6C86.6609 169.6 88.0109 168.717 89.0109 166.95C90.0109 165.15 90.5109 162.35 90.5109 158.55C90.5109 155.15 90.0109 152.567 89.0109 150.8C88.0109 149.033 86.6609 148.15 84.9609 148.15C83.2609 148.15 81.9109 149.033 80.9109 150.8C79.9109 152.567 79.4109 155.15 79.4109 158.55C79.4109 162.35 79.9109 165.15 80.9109 166.95C81.9109 168.717 83.2609 169.6 84.9609 169.6ZM94.3109 183.9C92.7109 183.9 91.2443 183.683 89.9109 183.25C88.5776 182.817 87.3776 182.217 86.3109 181.45C85.2443 180.683 84.3109 179.767 83.5109 178.7C82.7109 177.633 82.0609 176.467 81.5609 175.2C78.6276 174.433 76.2776 172.667 74.5109 169.9C72.7776 167.1 71.9109 163.317 71.9109 158.55C71.9109 155.817 72.2276 153.417 72.8609 151.35C73.4943 149.25 74.3776 147.5 75.5109 146.1C76.6776 144.667 78.0609 143.6 79.6609 142.9C81.2609 142.167 83.0276 141.8 84.9609 141.8C86.8943 141.8 88.6609 142.167 90.2609 142.9C91.8609 143.6 93.2276 144.667 94.3609 146.1C95.5276 147.5 96.4276 149.25 97.0609 151.35C97.6943 153.417 98.0109 155.817 98.0109 158.55C98.0109 163.05 97.2109 166.683 95.6109 169.45C94.0443 172.183 91.9109 174 89.2109 174.9C89.8109 176.067 90.6609 176.867 91.7609 177.3C92.8943 177.767 94.0443 178 95.2109 178C95.7109 178 96.1776 177.933 96.6109 177.8C97.0776 177.667 97.4776 177.517 97.8109 177.35L99.1109 182.85C98.5443 183.15 97.8609 183.4 97.0609 183.6C96.2943 183.8 95.3776 183.9 94.3109 183.9ZM120.041 175.6C116.041 175.6 113.058 174.483 111.091 172.25C109.125 169.983 108.141 166.717 108.141 162.45V142.4H115.491V163.2C115.491 165.167 115.858 166.667 116.591 167.7C117.325 168.733 118.475 169.25 120.041 169.25C121.608 169.25 122.758 168.733 123.491 167.7C124.258 166.667 124.641 165.167 124.641 163.2V142.4H131.741V162.45C131.741 166.717 130.775 169.983 128.841 172.25C126.941 174.483 124.008 175.6 120.041 175.6ZM143.622 175V168.8H151.222V148.6H143.622V142.4H166.222V148.6H158.622V168.8H166.222V175H143.622ZM178.402 175V142.4H187.402C189.769 142.4 191.919 142.717 193.852 143.35C195.786 143.983 197.436 144.967 198.802 146.3C200.169 147.6 201.219 149.267 201.952 151.3C202.719 153.333 203.102 155.75 203.102 158.55C203.102 161.35 202.736 163.783 202.002 165.85C201.269 167.917 200.219 169.633 198.852 171C197.519 172.333 195.919 173.333 194.052 174C192.186 174.667 190.119 175 187.852 175H178.402ZM185.802 169.05H187.002C188.269 169.05 189.419 168.867 190.452 168.5C191.519 168.133 192.419 167.55 193.152 166.75C193.919 165.917 194.502 164.833 194.902 163.5C195.336 162.167 195.552 160.517 195.552 158.55C195.552 156.617 195.336 155 194.902 153.7C194.502 152.367 193.919 151.317 193.152 150.55C192.419 149.75 191.519 149.183 190.452 148.85C189.419 148.517 188.269 148.35 187.002 148.35H185.802V169.05ZM213.583 175V168.8H221.183V148.6H213.583V142.4H236.183V148.6H228.583V168.8H236.183V175H213.583ZM256.163 175V148.6H246.413V142.4H273.313V148.6H263.563V175H256.163ZM291.144 175V164L280.644 142.4H288.544L291.844 150.25C292.31 151.517 292.794 152.75 293.294 153.95C293.794 155.15 294.294 156.4 294.794 157.7H294.994C295.527 156.4 296.044 155.15 296.544 153.95C297.044 152.75 297.544 151.517 298.044 150.25L301.344 142.4H309.044L298.544 164V175H291.144Z" fill="#00A881"/>
<path d="M153.279 118.23L154.819 118.241L155.901 116.701L158.882 116.722L158.811 118.269L160.351 118.28L160.725 110.852L158.492 110.836L153.279 118.23ZM156.817 115.397L159.097 112.156L158.946 115.411L156.817 115.397ZM162.107 118.292L165.616 118.317C166.426 118.323 167.106 118.119 167.655 117.707C168.208 117.291 168.61 116.752 168.86 116.09C168.994 115.733 169.024 115.405 168.95 115.105C168.88 114.802 168.688 114.577 168.371 114.43C168.657 114.298 168.911 114.111 169.135 113.868C169.359 113.625 169.534 113.336 169.661 113C169.784 112.674 169.824 112.351 169.783 112.03C169.742 111.71 169.587 111.444 169.318 111.232C169.05 111.017 168.633 110.908 168.068 110.904L164.901 110.881L162.107 118.292ZM165.328 113.784L165.926 112.199L167.554 112.211C167.84 112.213 168.029 112.291 168.121 112.447C168.213 112.602 168.216 112.793 168.131 113.02C168.029 113.291 167.87 113.489 167.653 113.615C167.442 113.737 167.209 113.798 166.956 113.796L165.328 113.784ZM164.122 116.986L164.836 115.092L166.673 115.105C167.021 115.107 167.248 115.196 167.355 115.373C167.466 115.545 167.472 115.764 167.372 116.028C167.26 116.327 167.071 116.564 166.806 116.741C166.545 116.915 166.263 117.001 165.959 116.999L164.122 116.986ZM173.222 118.525C174.014 118.531 174.756 118.374 175.45 118.056C176.147 117.738 176.759 117.289 177.286 116.712C177.816 116.134 178.226 115.461 178.515 114.692C178.805 113.924 178.903 113.249 178.81 112.667C178.721 112.085 178.449 111.63 177.995 111.304C177.545 110.977 176.923 110.811 176.131 110.806C175.339 110.8 174.595 110.956 173.898 111.275C173.204 111.593 172.592 112.041 172.062 112.619C171.535 113.197 171.127 113.87 170.838 114.638C170.548 115.407 170.448 116.082 170.537 116.664C170.63 117.246 170.902 117.701 171.352 118.027C171.807 118.354 172.43 118.52 173.222 118.525ZM173.718 117.208C172.97 117.192 172.494 116.955 172.288 116.496C172.086 116.037 172.131 115.422 172.422 114.65C172.713 113.878 173.133 113.26 173.683 112.796C174.236 112.332 174.887 112.107 175.635 112.123C176.386 112.139 176.863 112.376 177.065 112.835C177.267 113.294 177.222 113.909 176.931 114.681C176.64 115.453 176.22 116.071 175.67 116.535C175.12 116.999 174.47 117.223 173.718 117.208ZM182.151 118.588C182.789 118.593 183.396 118.476 183.97 118.24C184.546 118 185.052 117.661 185.489 117.224C185.926 116.786 186.256 116.271 186.48 115.677L188.226 111.045L186.708 111.035L184.966 115.656C184.846 115.975 184.664 116.256 184.422 116.499C184.18 116.741 183.904 116.932 183.594 117.071C183.286 117.206 182.971 117.273 182.648 117.271C182.333 117.268 182.07 117.199 181.86 117.064C181.655 116.925 181.522 116.733 181.459 116.488C181.401 116.244 181.433 115.958 181.556 115.632L183.298 111.011L181.776 111.01L180.034 115.632C179.81 116.226 179.751 116.743 179.857 117.184C179.963 117.625 180.212 117.969 180.604 118.216C180.998 118.46 181.513 118.584 182.151 118.588ZM189.575 118.486L191.071 118.496L193.371 112.392L195.868 112.41L196.361 111.103L189.871 111.057L189.378 112.364L191.875 112.382L189.575 118.486ZM205.628 111.168L207.124 111.178L202.219 118.574L200.723 118.564L205.628 111.168ZM215.818 118.825C216.727 118.831 217.57 118.626 218.345 118.208C219.123 117.79 219.775 117.222 220.3 116.503L218.94 116.102C218.625 116.547 218.246 116.893 217.804 117.141C217.361 117.389 216.865 117.511 216.315 117.507C215.563 117.502 215.083 117.268 214.875 116.806C214.672 116.34 214.716 115.721 215.007 114.949C215.298 114.177 215.719 113.562 216.27 113.105C216.826 112.645 217.48 112.417 218.231 112.423C218.781 112.426 219.183 112.555 219.437 112.808C219.692 113.057 219.809 113.407 219.786 113.858L221.44 113.477C221.459 112.755 221.238 112.181 220.777 111.754C220.32 111.328 219.637 111.111 218.728 111.105C217.936 111.099 217.191 111.256 216.494 111.574C215.8 111.893 215.189 112.341 214.658 112.919C214.132 113.496 213.724 114.169 213.434 114.938C213.144 115.706 213.044 116.382 213.134 116.964C213.227 117.546 213.498 118 213.949 118.327C214.403 118.653 215.026 118.819 215.818 118.825ZM224.795 118.888C225.587 118.894 226.33 118.737 227.023 118.419C227.72 118.1 228.332 117.652 228.859 117.074C229.389 116.497 229.799 115.824 230.089 115.055C230.378 114.286 230.477 113.611 230.384 113.029C230.294 112.447 230.022 111.993 229.568 111.666C229.118 111.34 228.497 111.174 227.705 111.168C226.913 111.163 226.168 111.319 225.471 111.637C224.777 111.956 224.165 112.404 223.635 112.982C223.109 113.559 222.701 114.232 222.411 115.001C222.121 115.77 222.021 116.445 222.11 117.027C222.204 117.609 222.475 118.063 222.926 118.39C223.38 118.716 224.003 118.882 224.795 118.888ZM225.291 117.57C224.544 117.555 224.067 117.318 223.861 116.859C223.659 116.4 223.704 115.784 223.995 115.012C224.286 114.24 224.706 113.622 225.256 113.158C225.81 112.694 226.46 112.47 227.208 112.486C227.959 112.501 228.436 112.739 228.638 113.197C228.84 113.656 228.796 114.272 228.505 115.044C228.214 115.816 227.793 116.434 227.243 116.898C226.694 117.362 226.043 117.586 225.291 117.57ZM230.67 118.774L235.576 118.809L236.068 117.502L232.659 117.478L234.959 111.374L233.463 111.363L230.67 118.774ZM237.391 118.822L242.297 118.856L242.789 117.549L239.38 117.525L241.68 111.421L240.184 111.411L237.391 118.822ZM243.452 118.864L244.992 118.875L246.074 117.335L249.055 117.356L248.985 118.903L250.525 118.914L250.898 111.486L248.665 111.47L243.452 118.864ZM246.99 116.03L249.271 112.79L249.119 116.045L246.99 116.03ZM252.28 118.926L255.789 118.951C256.6 118.957 257.279 118.753 257.828 118.341C258.382 117.925 258.783 117.386 259.033 116.724C259.168 116.367 259.198 116.039 259.123 115.739C259.054 115.436 258.861 115.211 258.545 115.064C258.83 114.932 259.084 114.745 259.308 114.502C259.532 114.259 259.707 113.97 259.834 113.634C259.957 113.308 259.998 112.984 259.957 112.664C259.916 112.344 259.76 112.078 259.491 111.866C259.223 111.651 258.806 111.542 258.242 111.538L255.074 111.515L252.28 118.926ZM255.502 114.418L256.099 112.833L257.727 112.845C258.013 112.847 258.202 112.925 258.294 113.081C258.386 113.236 258.39 113.427 258.304 113.654C258.202 113.925 258.043 114.123 257.826 114.249C257.615 114.371 257.383 114.432 257.13 114.43L255.502 114.418ZM254.295 117.62L255.009 115.726L256.846 115.739C257.194 115.741 257.421 115.83 257.528 116.006C257.639 116.179 257.645 116.398 257.545 116.662C257.433 116.96 257.244 117.198 256.979 117.375C256.719 117.549 256.436 117.635 256.132 117.632L254.295 117.62ZM263.395 119.159C264.187 119.165 264.93 119.008 265.623 118.69C266.32 118.371 266.932 117.923 267.459 117.346C267.989 116.768 268.399 116.095 268.689 115.326C268.978 114.558 269.077 113.883 268.984 113.301C268.894 112.719 268.622 112.264 268.168 111.938C267.718 111.611 267.097 111.445 266.305 111.439C265.513 111.434 264.768 111.59 264.071 111.909C263.377 112.227 262.765 112.675 262.235 113.253C261.709 113.831 261.301 114.504 261.011 115.272C260.721 116.041 260.621 116.716 260.71 117.298C260.804 117.88 261.075 118.335 261.526 118.661C261.98 118.988 262.603 119.154 263.395 119.159ZM263.891 117.842C263.144 117.826 262.667 117.589 262.461 117.13C262.259 116.671 262.304 116.056 262.595 115.284C262.886 114.512 263.306 113.894 263.856 113.43C264.41 112.966 265.06 112.741 265.808 112.757C266.559 112.773 267.036 113.01 267.238 113.469C267.44 113.928 267.396 114.543 267.105 115.315C266.814 116.087 266.393 116.705 265.843 117.169C265.294 117.633 264.643 117.857 263.891 117.842ZM269.16 119.045L270.656 119.056L271.602 116.544L273.269 116.556L273.626 119.076L275.32 119.088L274.926 116.33C275.449 116.141 275.89 115.853 276.249 115.467C276.613 115.078 276.89 114.631 277.08 114.126C277.315 113.502 277.352 112.969 277.192 112.527C277.031 112.086 276.614 111.811 275.942 111.703C275.845 111.685 275.732 111.674 275.601 111.67C275.476 111.662 275.374 111.658 275.297 111.658L271.953 111.634L269.16 119.045ZM272.095 115.237L272.956 112.952L274.738 112.964C274.815 112.965 274.898 112.969 274.988 112.976C275.077 112.984 275.156 112.998 275.225 113.019C275.407 113.072 275.53 113.161 275.594 113.285C275.658 113.406 275.682 113.542 275.666 113.693C275.654 113.841 275.623 113.982 275.573 114.116C275.522 114.25 275.447 114.392 275.346 114.542C275.25 114.69 275.124 114.825 274.967 114.947C274.812 115.067 274.624 115.151 274.403 115.201C274.318 115.221 274.228 115.235 274.134 115.241C274.04 115.247 273.954 115.25 273.877 115.249L272.095 115.237ZM276.749 119.098L278.289 119.109L279.371 117.569L282.352 117.59L282.282 119.137L283.822 119.148L284.195 111.72L281.962 111.704L276.749 119.098ZM280.287 116.265L282.567 113.024L282.416 116.279L280.287 116.265ZM286.759 119.169L288.255 119.179L290.556 113.075L293.053 113.093L293.545 111.786L287.056 111.74L286.563 113.047L289.06 113.065L286.759 119.169ZM292.516 119.209L294.012 119.22L296.805 111.809L295.309 111.798L292.516 119.209ZM299.771 119.415C300.563 119.421 301.306 119.264 302 118.946C302.697 118.627 303.309 118.179 303.835 117.601C304.365 117.024 304.775 116.351 305.065 115.582C305.355 114.814 305.453 114.138 305.36 113.556C305.271 112.974 304.999 112.52 304.545 112.193C304.094 111.867 303.473 111.701 302.681 111.695C301.889 111.69 301.145 111.846 300.447 112.165C299.754 112.483 299.142 112.931 298.612 113.509C298.085 114.086 297.677 114.76 297.387 115.528C297.098 116.297 296.997 116.972 297.087 117.554C297.18 118.136 297.452 118.59 297.902 118.917C298.356 119.243 298.979 119.409 299.771 119.415ZM300.268 118.098C299.52 118.082 299.043 117.845 298.838 117.386C298.636 116.927 298.68 116.311 298.971 115.539C299.262 114.767 299.683 114.149 300.233 113.685C300.786 113.221 301.437 112.997 302.184 113.013C302.936 113.028 303.413 113.266 303.615 113.725C303.817 114.184 303.772 114.799 303.481 115.571C303.19 116.343 302.77 116.961 302.22 117.425C301.67 117.889 301.019 118.113 300.268 118.098ZM305.536 119.301L307.054 119.311L308.917 114.371L310.497 119.336L312.015 119.346L314.809 111.935L313.291 111.925L311.428 116.865L309.848 111.9L308.33 111.89L305.536 119.301Z" fill="#00A881"/>
</svg>
