<svg width="700" height="261" viewBox="0 0 700 261" fill="none" xmlns="http://www.w3.org/2000/svg">
<path d="M18.9645 39.0349L17.7987 43.6983H28.4468L27.2809 39.0349C26.6073 36.4959 25.9078 33.8274 25.1824 31.0294C24.457 28.1795 23.8093 25.4074 23.2393 22.713H22.9284C22.3066 25.4074 21.6589 28.1795 20.9853 31.0294C20.3117 33.8274 19.6381 36.4959 18.9645 39.0349ZM0.699511 64.6836L16.4774 14.0079H30.1567L45.9345 64.6836H33.8097L30.7785 52.6365H15.467L12.358 64.6836H0.699511ZM73.496 64.6836V23.6456H58.3399V14.0079H100.155V23.6456H84.999V64.6836H73.496ZM120.177 64.6836V14.0079H131.603V55.0459H154.142V64.6836H120.177ZM186.756 39.0349L185.59 43.6983H196.238L195.072 39.0349C194.399 36.4959 193.699 33.8274 192.974 31.0294C192.248 28.1795 191.601 25.4074 191.031 22.713H190.72C190.098 25.4074 189.45 28.1795 188.777 31.0294C188.103 33.8274 187.43 36.4959 186.756 39.0349ZM168.491 64.6836L184.269 14.0079H197.948L213.726 64.6836H201.601L198.57 52.6365H183.258L180.149 64.6836H168.491ZM246.883 65.6163C243.464 65.6163 240.07 65.0204 236.702 63.8286C233.386 62.5851 230.354 60.7456 227.608 58.3103L234.215 50.4602C236.132 52.0147 238.23 53.2842 240.51 54.2687C242.79 55.2532 245.174 55.7454 247.661 55.7454C250.148 55.7454 251.961 55.3309 253.101 54.5018C254.241 53.6728 254.811 52.6106 254.811 51.3152C254.811 50.4343 254.63 49.7089 254.267 49.1389C253.905 48.5171 253.386 47.9731 252.713 47.5067C252.039 47.0404 251.21 46.6 250.226 46.1854C249.241 45.7709 248.153 45.3046 246.961 44.7864L240.432 41.9884C239.033 41.4702 237.66 40.7966 236.313 39.9676C235.018 39.1385 233.878 38.1799 232.893 37.0918C231.909 35.9518 231.106 34.6565 230.484 33.2056C229.914 31.703 229.629 30.019 229.629 28.1536C229.629 26.081 230.069 24.1379 230.95 22.3243C231.883 20.459 233.152 18.8527 234.759 17.5055C236.417 16.1065 238.386 15.0183 240.666 14.2411C242.946 13.4639 245.459 13.0753 248.205 13.0753C251.314 13.0753 254.319 13.6452 257.221 14.7852C260.122 15.9251 262.739 17.5832 265.071 19.7595L259.242 26.9877C257.48 25.6924 255.718 24.7079 253.956 24.0343C252.195 23.3088 250.07 22.9461 247.583 22.9461C245.666 22.9461 244.111 23.3348 242.92 24.112C241.78 24.8892 241.21 26.0292 241.21 27.5318C241.21 29.0345 241.961 30.2003 243.464 31.0294C245.018 31.8066 247.039 32.6356 249.526 33.5165L255.666 36.1591C259.034 37.4027 261.677 39.1126 263.594 41.2889C265.563 43.4651 266.548 46.3409 266.548 49.9161C266.548 52.0406 266.107 54.0614 265.226 55.9786C264.345 57.8439 263.076 59.502 261.418 60.9529C259.76 62.3519 257.713 63.4918 255.278 64.3727C252.842 65.2017 250.044 65.6163 246.883 65.6163ZM591.219 65.6163C588.214 65.6163 585.442 65.0463 582.903 63.9064C580.416 62.7664 578.266 61.0824 576.452 58.8543C574.69 56.6263 573.317 53.88 572.333 50.6157C571.348 47.2995 570.856 43.4651 570.856 39.1126C570.856 34.8637 571.348 31.133 572.333 27.9204C573.317 24.656 574.69 21.9357 576.452 19.7595C578.266 17.5314 580.416 15.8733 582.903 14.7852C585.442 13.6452 588.214 13.0753 591.219 13.0753C594.225 13.0753 596.971 13.6452 599.458 14.7852C601.997 15.8733 604.147 17.5314 605.909 19.7595C607.723 21.9357 609.122 24.656 610.106 27.9204C611.091 31.133 611.583 34.8637 611.583 39.1126C611.583 43.4651 611.091 47.2995 610.106 50.6157C609.122 53.88 607.723 56.6263 605.909 58.8543C604.147 61.0824 601.997 62.7664 599.458 63.9064C596.971 65.0463 594.225 65.6163 591.219 65.6163ZM591.219 55.7454C593.862 55.7454 595.961 54.3464 597.515 51.5483C599.07 48.7503 599.847 44.6051 599.847 39.1126C599.847 33.8274 599.07 29.8117 597.515 27.0655C595.961 24.3192 593.862 22.9461 591.219 22.9461C588.577 22.9461 586.478 24.3192 584.924 27.0655C583.369 29.8117 582.592 33.8274 582.592 39.1126C582.592 44.6051 583.369 48.7503 584.924 51.5483C586.478 54.3464 588.577 55.7454 591.219 55.7454ZM631.994 64.6836V14.0079H665.648V23.6456H643.419V35.3819H662.384V45.0196H643.419V64.6836H631.994ZM4.50796 137.684V87.0079H16.4774L21.4517 104.962L23.1616 111.957H23.4725L25.1824 104.962L30.1567 87.0079H42.1261V137.684H32.4884V121.983C32.4884 120.584 32.5402 118.823 32.6438 116.698C32.7475 114.574 32.877 112.398 33.0324 110.17C33.1879 107.941 33.3433 105.791 33.4988 103.718C33.706 101.594 33.8615 99.8582 33.9651 98.511H33.732L29.8458 112.035L25.9596 124.237H20.3635L16.3996 112.035L12.7466 98.511H12.5135C12.6689 99.8582 12.8244 101.594 12.9798 103.718C13.1353 105.791 13.2907 107.941 13.4461 110.17C13.6016 112.398 13.7311 114.574 13.8348 116.698C13.9384 118.823 13.9902 120.584 13.9902 121.983V137.684H4.50796ZM64.4801 137.684V87.0079H98.0566V96.6456H75.9831V106.827H94.7145V116.387H75.9831V128.046H98.8338V137.684H64.4801ZM120.1 137.684V87.0079H134.09C137.769 87.0079 141.111 87.5002 144.116 88.4847C147.121 89.4692 149.686 90.9977 151.811 93.0704C153.935 95.0912 155.567 97.682 156.707 100.843C157.899 104.003 158.495 107.76 158.495 112.113C158.495 116.465 157.925 120.248 156.785 123.46C155.645 126.673 154.013 129.341 151.889 131.466C149.816 133.538 147.329 135.093 144.427 136.129C141.525 137.165 138.313 137.684 134.789 137.684H120.1ZM131.603 128.435H133.468C135.437 128.435 137.225 128.15 138.831 127.58C140.489 127.01 141.888 126.103 143.028 124.859C144.22 123.564 145.127 121.88 145.748 119.807C146.422 117.735 146.759 115.17 146.759 112.113C146.759 109.107 146.422 106.594 145.748 104.573C145.127 102.501 144.22 100.869 143.028 99.6769C141.888 98.4333 140.489 97.5524 138.831 97.0343C137.225 96.5161 135.437 96.257 133.468 96.257H131.603V128.435ZM177.74 137.684V128.046H189.554V96.6456H177.74V87.0079H212.871V96.6456H201.057V128.046H212.871V137.684H177.74ZM246.883 137.684V96.6456H231.727V87.0079H273.543V96.6456H258.387V137.684H246.883ZM293.798 137.684V87.0079H327.375V96.6456H305.301V106.827H324.032V116.387H305.301V128.046H328.152V137.684H293.798ZM349.418 137.684V87.0079H367.372C370.066 87.0079 372.579 87.267 374.911 87.7852C377.294 88.3033 379.367 89.1842 381.129 90.4278C382.942 91.6195 384.367 93.2258 385.404 95.2466C386.44 97.2674 386.958 99.7805 386.958 102.786C386.958 106.517 386.129 109.6 384.471 112.035C382.813 114.418 380.637 116.206 377.942 117.398L389.367 137.684H376.543L366.828 119.419H360.843V137.684H349.418ZM360.843 110.325H366.439C372.605 110.325 375.688 107.812 375.688 102.786C375.688 100.299 374.911 98.5628 373.356 97.5783C371.802 96.5938 369.496 96.1016 366.439 96.1016H360.843V110.325ZM406.747 137.684V87.0079H424.701C427.396 87.0079 429.909 87.267 432.24 87.7852C434.624 88.3033 436.697 89.1842 438.458 90.4278C440.272 91.6195 441.697 93.2258 442.733 95.2466C443.769 97.2674 444.288 99.7805 444.288 102.786C444.288 106.517 443.458 109.6 441.8 112.035C440.142 114.418 437.966 116.206 435.272 117.398L446.697 137.684H433.873L424.157 119.419H418.172V137.684H406.747ZM418.172 110.325H423.769C429.935 110.325 433.018 107.812 433.018 102.786C433.018 100.299 432.24 98.5628 430.686 97.5783C429.131 96.5938 426.826 96.1016 423.769 96.1016H418.172V110.325ZM477.6 112.035L476.435 116.698H487.083L485.917 112.035C485.243 109.496 484.544 106.827 483.818 104.029C483.093 101.18 482.445 98.4074 481.875 95.713H481.564C480.943 98.4074 480.295 101.18 479.621 104.029C478.948 106.827 478.274 109.496 477.6 112.035ZM459.335 137.684L475.113 87.0079H488.793L504.571 137.684H492.446L489.414 125.636H474.103L470.994 137.684H459.335ZM521.095 137.684V87.0079H532.831L543.48 112.19L547.832 123.382H548.143C547.884 120.688 547.547 117.709 547.133 114.444C546.718 111.128 546.511 107.967 546.511 104.962V87.0079H557.47V137.684H545.734L535.085 112.423L530.733 101.387H530.422C530.681 104.185 531.018 107.19 531.432 110.403C531.847 113.615 532.054 116.724 532.054 119.729V137.684H521.095ZM580.446 137.684V87.0079H614.022V96.6456H591.949V106.827H610.68V116.387H591.949V128.046H614.799V137.684H580.446ZM649.589 112.035L648.423 116.698H659.071L657.905 112.035C657.232 109.496 656.532 106.827 655.807 104.029C655.081 101.18 654.434 98.4074 653.864 95.713H653.553C652.931 98.4074 652.283 101.18 651.61 104.029C650.936 106.827 650.263 109.496 649.589 112.035ZM631.324 137.684L647.102 87.0079H660.781L676.559 137.684H664.434L661.403 125.636H646.091L642.983 137.684H631.324ZM5.12974 211.684V161.008H16.866L27.5141 186.19L31.8666 197.382H32.1775C31.9184 194.688 31.5816 191.709 31.1671 188.444C30.7526 185.128 30.5453 181.967 30.5453 178.962V161.008H41.5043V211.684H29.7681L19.12 186.423L14.7674 175.387H14.4566C14.7156 178.185 15.0524 181.19 15.467 184.403C15.8815 187.615 16.0887 190.724 16.0887 193.729V211.684H5.12974ZM121.576 211.684V161.008H133.002V202.046H155.542V211.684H121.576ZM183.492 211.684V202.046H195.306V170.646H183.492V161.008H218.623V170.646H206.809V202.046H218.623V211.684H183.492ZM265.537 203.289C268.18 203.289 270.278 201.916 271.833 199.17C273.387 196.372 274.164 192.02 274.164 186.113C274.164 180.827 273.387 176.812 271.833 174.065C270.278 171.319 268.18 169.946 265.537 169.946C262.894 169.946 260.796 171.319 259.242 174.065C257.687 176.812 256.91 180.827 256.91 186.113C256.91 192.02 257.687 196.372 259.242 199.17C260.796 201.916 262.894 203.289 265.537 203.289ZM280.071 225.518C277.584 225.518 275.304 225.182 273.232 224.508C271.159 223.834 269.294 222.902 267.636 221.71C265.978 220.518 264.527 219.093 263.283 217.435C262.04 215.777 261.029 213.963 260.252 211.994C255.692 210.803 252.039 208.057 249.293 203.756C246.598 199.403 245.251 193.522 245.251 186.113C245.251 181.864 245.744 178.133 246.728 174.92C247.713 171.656 249.086 168.936 250.847 166.759C252.661 164.531 254.811 162.873 257.298 161.785C259.786 160.645 262.532 160.075 265.537 160.075C268.542 160.075 271.289 160.645 273.776 161.785C276.263 162.873 278.387 164.531 280.149 166.759C281.963 168.936 283.362 171.656 284.346 174.92C285.331 178.133 285.823 181.864 285.823 186.113C285.823 193.108 284.579 198.756 282.092 203.056C279.657 207.305 276.341 210.129 272.144 211.528C273.076 213.342 274.398 214.585 276.107 215.259C277.869 215.984 279.657 216.347 281.47 216.347C282.248 216.347 282.973 216.243 283.647 216.036C284.372 215.829 284.994 215.596 285.512 215.337L287.533 223.886C286.652 224.353 285.59 224.741 284.346 225.052C283.154 225.363 281.729 225.518 280.071 225.518ZM330.173 212.616C323.955 212.616 319.317 210.88 316.26 207.409C313.203 203.885 311.674 198.807 311.674 192.175V161.008H323.1V193.341C323.1 196.398 323.67 198.73 324.81 200.336C325.95 201.942 327.737 202.745 330.173 202.745C332.608 202.745 334.396 201.942 335.536 200.336C336.727 198.73 337.323 196.398 337.323 193.341V161.008H348.36V192.175C348.36 198.807 346.857 203.885 343.852 207.409C340.898 210.88 336.339 212.616 330.173 212.616ZM376.932 211.684V202.046H388.746V170.646H376.932V161.008H412.063V170.646H400.249V202.046H412.063V211.684H376.932ZM441.101 211.684V161.008H455.091C458.77 161.008 462.112 161.5 465.117 162.485C468.123 163.469 470.688 164.998 472.812 167.07C474.936 169.091 476.569 171.682 477.709 174.843C478.9 178.003 479.496 181.76 479.496 186.113C479.496 190.465 478.926 194.248 477.786 197.46C476.646 200.673 475.014 203.341 472.89 205.466C470.817 207.538 468.33 209.093 465.428 210.129C462.527 211.165 459.314 211.684 455.791 211.684H441.101ZM452.604 202.435H454.469C456.438 202.435 458.226 202.15 459.832 201.58C461.49 201.01 462.889 200.103 464.029 198.859C465.221 197.564 466.128 195.88 466.75 193.807C467.423 191.735 467.76 189.17 467.76 186.113C467.76 183.107 467.423 180.594 466.75 178.573C466.128 176.501 465.221 174.869 464.029 173.677C462.889 172.433 461.49 171.552 459.832 171.034C458.226 170.516 456.438 170.257 454.469 170.257H452.604V202.435ZM505.892 211.684V202.046H517.706V170.646H505.892V161.008H541.023V170.646H529.209V202.046H541.023V211.684H505.892ZM582.186 211.684V170.646H567.03V161.008H608.845V170.646H593.689V211.684H582.186ZM646.666 211.684V194.584L630.344 161.008H642.624L647.754 173.211C648.479 175.18 649.231 177.097 650.008 178.962C650.785 180.827 651.562 182.77 652.34 184.791H652.651C653.48 182.77 654.283 180.827 655.06 178.962C655.837 177.097 656.614 175.18 657.392 173.211L662.521 161.008H674.491L658.169 194.584V211.684H646.666Z" fill="#00A881"/>
<g clip-path="url(#clip0)">
<path d="M39.3052 186.235C40.7339 186.236 42.1625 186.237 43.5912 186.236C46.2909 186.235 47.8801 188.115 47.8801 188.115C47.8801 188.115 49.4466 186.238 52.2114 186.237C54.8788 186.235 56.477 188.115 56.477 188.115C56.477 188.115 58.0669 186.238 60.7666 186.237C63.4662 186.235 65.0603 188.115 65.0603 188.115C65.0603 188.115 66.6543 186.238 69.3868 186.237C72.1193 186.235 73.7133 188.168 73.7133 188.168C73.7133 188.168 75.2912 186.238 77.979 186.237C80.6667 186.235 82.2679 188.115 82.2679 188.115C82.2679 188.115 83.8344 186.239 86.5992 186.237C89.2666 186.235 90.8648 188.115 90.8648 188.115C90.8648 188.115 92.4547 186.239 95.1543 186.237C97.854 186.236 99.448 188.115 99.448 188.115C99.448 188.115 101.042 186.239 103.775 186.237C106.507 186.236 108.102 188.167 108.102 188.167C108.102 188.167 109.672 186.28 112.368 186.263C115.064 186.246 116.635 186.236 116.635 186.236" stroke="#00A881" stroke-width="0.919842" stroke-miterlimit="10"/>
<path d="M39.3052 198.608C40.7339 198.609 42.1625 198.61 43.5912 198.609C46.2909 198.608 47.8801 200.488 47.8801 200.488C47.8801 200.488 49.4466 198.611 52.2114 198.61C54.8788 198.608 56.477 200.488 56.477 200.488C56.477 200.488 58.0669 198.611 60.7666 198.61C63.4662 198.608 65.0603 200.488 65.0603 200.488C65.0603 200.488 66.6543 198.611 69.3868 198.61C72.1193 198.608 73.7133 200.541 73.7133 200.541C73.7133 200.541 75.2912 198.611 77.979 198.61C80.6667 198.608 82.2679 200.488 82.2679 200.488C82.2679 200.488 83.8344 198.612 86.5992 198.61C89.2666 198.608 90.8648 200.488 90.8648 200.488C90.8648 200.488 92.4547 198.612 95.1543 198.61C97.854 198.609 99.448 200.488 99.448 200.488C99.448 200.488 101.042 198.612 103.775 198.61C106.507 198.609 108.102 200.54 108.102 200.54C108.102 200.54 109.672 198.653 112.368 198.636C115.064 198.619 116.635 198.609 116.635 198.609" stroke="#00A881" stroke-width="0.919842" stroke-miterlimit="10"/>
<path d="M39.3052 173.864C40.7339 173.865 42.1625 173.866 43.5912 173.865C46.2909 173.864 47.8801 175.744 47.8801 175.744C47.8801 175.744 49.4466 173.867 52.2114 173.866C54.8788 173.864 56.477 175.744 56.477 175.744C56.477 175.744 58.0669 173.867 60.7666 173.866C63.4662 173.864 65.0602 175.744 65.0602 175.744C65.0602 175.744 66.6543 173.867 69.3868 173.866C72.1193 173.864 73.7133 175.797 73.7133 175.797C73.7133 175.797 75.2912 173.867 77.979 173.866C80.6667 173.864 82.2679 175.744 82.2679 175.744C82.2679 175.744 83.8344 173.868 86.5992 173.866C89.2666 173.864 90.8648 175.744 90.8648 175.744C90.8648 175.744 92.4547 173.868 95.1543 173.866C97.854 173.865 99.448 175.744 99.448 175.744C99.448 175.744 101.042 173.868 103.775 173.866C106.507 173.865 108.102 175.796 108.102 175.796C108.102 175.796 109.672 173.909 112.368 173.892C115.064 173.875 116.635 173.865 116.635 173.865" stroke="#00A881" stroke-width="0.919842" stroke-miterlimit="10"/>
<path d="M74.7979 215.146C86.164 215.146 95.379 202.909 95.379 187.811C95.379 172.713 86.164 160.478 74.7979 160.478" stroke="#00A881" stroke-width="0.919842" stroke-miterlimit="10"/>
<path d="M89.3613 215.146C77.9952 215.146 68.7802 202.909 68.7802 187.811C68.7802 172.713 77.9952 160.478 89.3613 160.478" stroke="#00A881" stroke-width="0.919842" stroke-miterlimit="10"/>
</g>
<rect x="108.123" y="213.983" width="52.4729" height="52.4729" rx="26.2364" transform="rotate(-180 108.123 213.983)" stroke="#00A881" stroke-width="0.919842"/>
<path d="M319.752 25.7427L321.572 25.7555L322.851 23.935L326.374 23.9598L326.291 25.7887L328.111 25.8015L328.552 17.0229L325.913 17.0044L319.752 25.7427ZM323.934 22.3936L326.628 18.5645L326.449 22.4113L323.934 22.3936ZM330.186 25.8161L334.332 25.8452C335.29 25.852 336.093 25.6117 336.742 25.1243C337.396 24.6329 337.871 23.9959 338.166 23.2133C338.325 22.7916 338.36 22.4036 338.272 22.0493C338.19 21.6909 337.962 21.425 337.589 21.2517C337.926 21.0955 338.227 20.874 338.491 20.5872C338.756 20.3004 338.963 19.9583 339.113 19.5609C339.258 19.1757 339.306 18.7939 339.258 18.4154C339.209 18.037 339.026 17.7227 338.707 17.4724C338.39 17.2181 337.898 17.0886 337.231 17.0839L333.487 17.0576L330.186 25.8161ZM333.992 20.4885L334.699 18.6151L336.622 18.6286C336.96 18.631 337.184 18.7241 337.293 18.9078C337.402 19.0915 337.406 19.3172 337.305 19.5848C337.184 19.9051 336.996 20.1396 336.74 20.2882C336.49 20.4328 336.215 20.5041 335.916 20.502L333.992 20.4885ZM332.566 24.2716L333.41 22.0334L335.581 22.0486C335.993 22.0515 336.261 22.1571 336.387 22.3653C336.519 22.5695 336.526 22.8277 336.408 23.14C336.275 23.4927 336.052 23.7737 335.738 23.9829C335.431 24.1881 335.097 24.2894 334.737 24.2869L332.566 24.2716ZM343.321 26.0914C344.257 26.098 345.135 25.9131 345.954 25.5367C346.778 25.1603 347.501 24.6307 348.124 23.948C348.75 23.2653 349.235 22.4699 349.577 21.5616C349.92 20.6533 350.036 19.8552 349.926 19.1674C349.82 18.4795 349.499 17.9426 348.962 17.5567C348.43 17.1708 347.696 16.9746 346.76 16.968C345.824 16.9614 344.944 17.1463 344.12 17.5227C343.3 17.8991 342.577 18.4286 341.95 19.1113C341.328 19.794 340.846 20.5895 340.503 21.4978C340.161 22.4061 340.043 23.2041 340.148 23.892C340.258 24.5798 340.58 25.1167 341.112 25.5026C341.649 25.8885 342.385 26.0848 343.321 26.0914ZM343.908 24.5343C343.024 24.5159 342.461 24.2355 342.218 23.6931C341.979 23.1507 342.031 22.4233 342.375 21.5109C342.719 20.5986 343.216 19.8683 343.866 19.3199C344.52 18.7716 345.289 18.5066 346.173 18.525C347.061 18.5435 347.624 18.8239 347.863 19.3663C348.102 19.9087 348.049 20.6361 347.705 21.5484C347.361 22.4608 346.864 23.1911 346.215 23.7395C345.565 24.2878 344.796 24.5528 343.908 24.5343ZM353.874 26.1656C354.628 26.1709 355.345 26.0336 356.024 25.7538C356.704 25.4699 357.302 25.0696 357.819 24.5528C358.335 24.0361 358.725 23.4269 358.99 22.7255L361.053 17.2514L359.259 17.2388L357.2 22.7007C357.058 23.0778 356.844 23.4097 356.558 23.6963C356.272 23.9829 355.946 24.2083 355.58 24.3724C355.215 24.5325 354.842 24.6112 354.461 24.6085C354.088 24.6059 353.778 24.5244 353.53 24.3641C353.288 24.1998 353.13 23.9731 353.056 23.6839C352.987 23.3947 353.025 23.0576 353.171 22.6724L355.229 17.2105L353.431 17.21L351.372 22.6719C351.108 23.3734 351.038 23.9848 351.163 24.5061C351.288 25.0273 351.582 25.4339 352.046 25.7258C352.511 26.0137 353.12 26.1603 353.874 26.1656ZM362.647 26.0443L364.415 26.0567L367.134 18.8432L370.085 18.8639L370.668 17.319L362.998 17.2651L362.415 18.81L365.366 18.8307L362.647 26.0443ZM381.619 17.396L383.387 17.4084L377.59 26.1494L375.822 26.1369L381.619 17.396ZM393.662 26.4453C394.737 26.4529 395.732 26.2098 396.648 25.7162C397.568 25.2226 398.338 24.5511 398.958 23.7017L397.352 23.2269C396.98 23.7528 396.532 24.1623 396.009 24.4554C395.486 24.7485 394.899 24.8928 394.249 24.8882C393.361 24.882 392.794 24.6056 392.548 24.0591C392.308 23.5085 392.36 22.7771 392.704 21.8648C393.047 20.9524 393.545 20.2261 394.196 19.6859C394.853 19.1417 395.626 18.8727 396.514 18.8789C397.164 18.8835 397.639 19.0352 397.939 19.3341C398.241 19.629 398.378 20.0426 398.351 20.575L400.306 20.1253C400.328 19.2717 400.067 18.5929 399.523 18.089C398.983 17.5851 398.176 17.3294 397.101 17.3219C396.165 17.3153 395.285 17.5002 394.461 17.8766C393.641 18.253 392.918 18.7825 392.292 19.4652C391.669 20.1479 391.187 20.9434 390.845 21.8517C390.502 22.76 390.384 23.558 390.49 24.2459C390.6 24.9337 390.921 25.4706 391.453 25.8565C391.99 26.2425 392.726 26.4387 393.662 26.4453ZM404.271 26.5199C405.207 26.5265 406.085 26.3415 406.904 25.9651C407.728 25.5888 408.452 25.0592 409.074 24.3765C409.701 23.6938 410.185 22.8984 410.527 21.9901C410.87 21.0818 410.986 20.2837 410.876 19.5958C410.77 18.908 410.449 18.3711 409.912 17.9852C409.38 17.5993 408.646 17.403 407.71 17.3965C406.774 17.3899 405.894 17.5748 405.07 17.9512C404.25 18.3276 403.527 18.8571 402.901 19.5398C402.278 20.2225 401.796 21.018 401.454 21.9263C401.111 22.8346 400.993 23.6326 401.099 24.3205C401.209 25.0083 401.53 25.5452 402.062 25.9311C402.599 26.317 403.335 26.5133 404.271 26.5199ZM404.858 24.9628C403.974 24.9444 403.411 24.664 403.168 24.1216C402.929 23.5792 402.982 22.8518 403.326 21.9394C403.669 21.0271 404.166 20.2967 404.816 19.7484C405.47 19.2001 406.239 18.9351 407.123 18.9535C408.011 18.972 408.574 19.2524 408.813 19.7948C409.052 20.3372 408.999 21.0646 408.655 21.9769C408.312 22.8892 407.815 23.6196 407.165 24.1679C406.515 24.7163 405.746 24.9813 404.858 24.9628ZM411.214 26.3857L417.012 26.4265L417.594 24.8816L413.564 24.8533L416.283 17.6397L414.516 17.6273L411.214 26.3857ZM419.157 26.4416L424.955 26.4823L425.537 24.9374L421.507 24.9091L424.226 17.6955L422.459 17.6831L419.157 26.4416ZM426.32 26.4919L428.14 26.5047L429.419 24.6842L432.942 24.709L432.859 26.5379L434.679 26.5507L435.12 17.7721L432.481 17.7536L426.32 26.4919ZM430.502 23.1428L433.197 19.3137L433.018 23.1605L430.502 23.1428ZM436.754 26.5653L440.901 26.5944C441.859 26.6012 442.662 26.3609 443.31 25.8735C443.965 25.3821 444.439 24.7451 444.734 23.9625C444.893 23.5408 444.929 23.1528 444.841 22.7984C444.759 22.4401 444.531 22.1742 444.157 22.0009C444.494 21.8447 444.795 21.6232 445.06 21.3364C445.324 21.0496 445.531 20.7075 445.681 20.3101C445.826 19.9249 445.874 19.5431 445.826 19.1646C445.777 18.7862 445.594 18.4719 445.276 18.2216C444.959 17.9673 444.467 17.8378 443.799 17.8331L440.055 17.8068L436.754 26.5653ZM440.561 21.2377L441.267 19.3643L443.191 19.3778C443.529 19.3802 443.752 19.4733 443.861 19.657C443.97 19.8407 443.974 20.0664 443.873 20.334C443.753 20.6543 443.564 20.8888 443.308 21.0374C443.058 21.182 442.784 21.2533 442.485 21.2512L440.561 21.2377ZM439.135 25.0208L439.979 22.7826L442.149 22.7978C442.561 22.8007 442.83 22.9063 442.956 23.1145C443.087 23.3187 443.094 23.5769 442.976 23.8892C442.843 24.2419 442.62 24.5229 442.307 24.7321C441.999 24.9373 441.665 25.0386 441.306 25.0361L439.135 25.0208ZM449.889 26.8406C450.825 26.8472 451.703 26.6623 452.523 26.2859C453.347 25.9095 454.07 25.3799 454.692 24.6972C455.319 24.0145 455.803 23.2191 456.146 22.3108C456.488 21.4025 456.604 20.6044 456.494 19.9166C456.388 19.2287 456.067 18.6918 455.531 18.3059C454.998 17.92 454.264 17.7238 453.328 17.7172C452.392 17.7106 451.512 17.8955 450.688 18.2719C449.869 18.6483 449.145 19.1778 448.519 19.8605C447.896 20.5432 447.414 21.3387 447.072 22.247C446.729 23.1553 446.611 23.9533 446.717 24.6412C446.827 25.329 447.148 25.8659 447.68 26.2518C448.217 26.6377 448.953 26.834 449.889 26.8406ZM450.476 25.2835C449.592 25.2651 449.029 24.9847 448.786 24.4423C448.547 23.8999 448.6 23.1725 448.944 22.2601C449.288 21.3478 449.785 20.6175 450.434 20.0691C451.089 19.5208 451.857 19.2558 452.741 19.2742C453.629 19.2927 454.193 19.5731 454.431 20.1155C454.67 20.6579 454.618 21.3853 454.274 22.2976C453.93 23.21 453.433 23.9403 452.783 24.4887C452.133 25.037 451.364 25.302 450.476 25.2835ZM456.702 26.7055L458.47 26.718L459.589 23.7498L461.559 23.7637L461.98 26.7426L463.982 26.7567L463.517 23.4969C464.135 23.2736 464.656 22.9337 465.08 22.4773C465.51 22.0168 465.838 21.4885 466.062 20.8925C466.34 20.1545 466.385 19.5246 466.195 19.0029C466.004 18.4812 465.512 18.1565 464.717 18.029C464.604 18.0079 464.47 17.9947 464.315 17.9896C464.166 17.9804 464.047 17.9755 463.956 17.9748L460.004 17.9471L456.702 26.7055ZM460.171 22.2049L461.189 19.5044L463.295 19.5192C463.386 19.5198 463.484 19.5246 463.59 19.5335C463.695 19.5423 463.789 19.5592 463.87 19.5842C464.086 19.6467 464.231 19.7514 464.306 19.8983C464.382 20.0411 464.411 20.2019 464.391 20.3807C464.378 20.5554 464.341 20.7218 464.281 20.88C464.222 21.0381 464.132 21.2062 464.013 21.3842C463.9 21.5583 463.75 21.7178 463.565 21.8629C463.382 22.0039 463.16 22.104 462.898 22.1631C462.798 22.1868 462.692 22.2023 462.581 22.2097C462.47 22.217 462.368 22.2204 462.277 22.2197L460.171 22.2049ZM465.671 26.7686L467.491 26.7814L468.77 24.9609L472.293 24.9856L472.21 26.8146L474.03 26.8273L474.471 18.0488L471.832 18.0302L465.671 26.7686ZM469.853 23.4195L472.548 19.5903L472.369 23.4372L469.853 23.4195ZM477.502 26.8518L479.269 26.8642L481.988 19.6506L484.939 19.6713L485.522 18.1264L477.852 18.0725L477.27 19.6174L480.22 19.6382L477.502 26.8518ZM484.305 26.8996L486.073 26.912L489.374 18.1535L487.606 18.1411L484.305 26.8996ZM492.88 27.1428C493.816 27.1494 494.693 26.9645 495.513 26.5881C496.337 26.2117 497.06 25.6822 497.682 24.9995C498.309 24.3168 498.794 23.5213 499.136 22.613C499.478 21.7047 499.594 20.9066 499.484 20.2188C499.379 19.531 499.058 18.9941 498.521 18.6081C497.989 18.2222 497.254 18.026 496.318 18.0194C495.382 18.0128 494.503 18.1977 493.679 18.5741C492.859 18.9505 492.136 19.48 491.509 20.1627C490.887 20.8454 490.405 21.6409 490.062 22.5492C489.72 23.4575 489.601 24.2556 489.707 24.9434C489.817 25.6312 490.138 26.1681 490.671 26.554C491.207 26.94 491.944 27.1362 492.88 27.1428ZM493.467 25.5858C492.583 25.5673 492.019 25.2869 491.776 24.7445C491.538 24.2021 491.59 23.4747 491.934 22.5624C492.278 21.65 492.775 20.9197 493.425 20.3713C494.079 19.823 494.848 19.5581 495.732 19.5765C496.62 19.5949 497.183 19.8753 497.422 20.4177C497.66 20.9601 497.608 21.6875 497.264 22.5998C496.92 23.5122 496.423 24.2425 495.773 24.7909C495.124 25.3392 494.355 25.6042 493.467 25.5858ZM499.693 27.0078L501.487 27.0204L503.688 21.1814L505.556 27.049L507.35 27.0616L510.651 18.3031L508.857 18.2905L506.656 24.1295L504.788 18.2619L502.994 18.2493L499.693 27.0078ZM513.54 27.2881C514.017 27.2914 514.5 27.2379 514.989 27.1275C515.482 27.0171 515.95 26.8497 516.391 26.6251C516.833 26.3965 517.224 26.1085 517.563 25.7613C517.909 25.41 518.17 24.9992 518.347 24.5288C518.514 24.0868 518.563 23.7213 518.493 23.4321C518.429 23.143 518.293 22.9103 518.085 22.734C517.884 22.5537 517.654 22.4139 517.396 22.3145C517.14 22.211 516.902 22.1281 516.682 22.0655L515.213 21.6405C515.032 21.5905 514.86 21.5283 514.697 21.4539C514.534 21.3796 514.411 21.2832 514.33 21.1647C514.25 21.0422 514.246 20.8856 514.318 20.6951C514.396 20.4883 514.539 20.3104 514.747 20.1614C514.96 20.0125 515.202 19.9004 515.474 19.825C515.751 19.7457 516.027 19.711 516.301 19.7211C516.721 19.7362 517.067 19.8566 517.338 20.0821C517.61 20.3076 517.717 20.6336 517.661 21.0601L519.686 20.7694C519.771 19.9447 519.571 19.3111 519.086 18.8686C518.601 18.4261 517.876 18.1953 516.91 18.1764C516.27 18.1678 515.65 18.2569 515.049 18.4438C514.449 18.6307 513.917 18.9176 513.454 19.3047C512.991 19.6917 512.649 20.1792 512.427 20.7672C512.27 21.1848 512.212 21.532 512.256 21.8088C512.305 22.0815 512.411 22.3018 512.574 22.4696C512.736 22.6375 512.92 22.7668 513.125 22.8577C513.334 22.9486 513.52 23.019 513.684 23.069L515.863 23.7551C516.188 23.8591 516.383 23.9885 516.446 24.1434C516.511 24.2943 516.51 24.459 516.442 24.6374C516.351 24.8807 516.185 25.0848 515.944 25.2498C515.708 25.4148 515.438 25.539 515.133 25.6222C514.828 25.7054 514.53 25.746 514.24 25.744C513.72 25.7403 513.307 25.6012 513.002 25.3267C512.697 25.0522 512.575 24.663 512.634 24.1593L510.692 24.4018C510.564 24.9945 510.597 25.507 510.79 25.9393C510.989 26.3676 511.323 26.6992 511.79 26.9343C512.264 27.1653 512.847 27.2832 513.54 27.2881Z" fill="#00A881"/>
<defs>
<clipPath id="clip0">
    <rect x="108.123" y="213.983" width="52.4729" height="52.4729" rx="26.2364" transform="rotate(-180 108.123 213.983)" stroke="#00A881" stroke-width="0.919842"/>
</clipPath>
</defs>
</svg>
