<svg width="501" height="501" viewBox="0 0 501 501" fill="none" xmlns="http://www.w3.org/2000/svg"><path fill-rule="evenodd" clip-rule="evenodd" d="M375.624 243.441C375.504 243.34 375.314 243.191 375.149 243.099C374.974 243 374.779 242.906 374.569 242.814C371.619 241.508 366.549 240.576 365.574 239.598C363.954 237.972 363.869 236.068 364.229 234.094C364.484 232.719 365.029 231.319 364.839 230.061C364.734 229.338 364.259 228.731 363.214 228.205C360.319 226.744 356.429 227.553 353.149 227.017C352.114 226.848 351.134 226.568 350.229 226.114C349.869 225.932 348.864 225.414 348.284 224.952C347.934 224.673 347.699 224.377 347.584 224.14C346.479 221.916 347.284 219.809 348.479 217.76C349.294 216.354 350.394 215.021 350.229 213.584C350.134 212.705 349.474 211.874 348.064 210.929C343.774 208.053 337.634 209.773 332.249 208.752C329.729 208.274 327.364 207.283 325.334 205.242C321.064 200.947 301.984 185.87 284.674 173.478C278.504 169.063 272.549 165.007 267.584 161.864C261.946 158.295 257.644 155.891 255.7 155.82C255.297 155.811 254.976 155.477 254.985 155.073C254.993 154.669 255.328 154.349 255.731 154.357C258.836 154.39 268.009 159.615 278.769 166.847C297.854 179.678 322.134 198.623 327.059 203.515C328.719 205.162 330.659 205.931 332.704 206.306C338.434 207.357 344.919 205.747 349.499 208.778C351.809 210.31 352.659 211.85 352.829 213.285C353.059 215.237 351.869 217.169 350.769 219.085C350.069 220.301 349.344 221.508 349.919 222.812C350.129 222.94 351.174 223.575 351.434 223.705C354.314 225.134 358.214 224.286 361.534 224.824C362.564 224.991 363.549 225.271 364.459 225.721C366.594 226.781 367.384 228.167 367.609 229.64C367.849 231.18 367.304 232.912 367.004 234.597C366.809 235.662 366.699 236.723 367.574 237.597C368.224 238.242 371.039 238.647 373.429 239.376C375.664 240.058 377.579 241.011 378.199 242.059C378.939 243.315 378.704 245.413 374.684 247.286C374.044 247.606 373.264 247.346 372.944 246.705C372.624 246.065 372.884 245.285 373.524 244.965C374.589 244.383 375.269 243.89 375.624 243.441ZM375.689 243.359C375.724 243.32 375.754 243.279 375.724 243.269C375.684 243.255 375.679 243.301 375.689 243.359Z" fill="#00006E"/><path fill-rule="evenodd" clip-rule="evenodd" d="M193.433 154.737C193.147 154.978 192.72 154.965 192.449 154.698C191.704 153.945 192.062 153.323 192.277 153.165C192.406 153.071 192.662 152.95 193.058 153.022C193.396 153.083 194.033 153.328 194.892 153.706C199.817 155.872 212.734 162.769 215.351 164.344C222.117 168.471 229.173 172.47 236.317 176.328C243.449 180.18 250.668 183.89 257.786 187.422C268.75 192.879 292.805 202.889 311.285 212.58C320.67 217.5 328.625 222.355 332.8 226.506C333.57 227.267 334.105 228.097 334.495 228.964C335.25 230.66 335.395 232.513 335.6 234.268C335.765 235.709 335.94 237.085 336.955 238.091C337.86 238.983 339.075 239.35 340.405 239.535C344.1 240.047 348.57 239.25 351.595 240.437C354.595 241.615 355.905 242.954 356.545 244.31C357.095 245.47 357.145 246.709 357.15 248.072C357.155 249.259 357.13 250.577 357.87 252.065C358.205 252.73 359.05 252.826 359.96 253.019C361.79 253.408 363.985 253.632 365.71 254.625C367.065 255.405 368.18 256.585 368.735 258.478C368.965 259.17 368.59 259.919 367.895 260.15C367.205 260.38 366.455 260.006 366.225 259.314C365.82 258.238 365.105 257.63 364.295 257.209C362.45 256.248 360.085 256.204 358.335 255.705C356.875 255.288 355.77 254.575 355.185 253.408C354.19 251.418 354.135 249.667 354.135 248.078C354.135 247.173 354.2 246.34 353.845 245.566C353.435 244.671 352.475 243.935 350.515 243.136C347.69 241.985 343.47 242.796 340.01 242.272C338.07 241.979 336.34 241.326 335.04 240.008C334.255 239.216 333.77 238.3 333.46 237.294C332.615 234.552 333.575 230.943 330.985 228.323C326.955 224.271 319.24 219.544 310.155 214.725C291.735 204.956 267.735 194.882 256.802 189.388C249.684 185.803 242.461 182.045 235.334 178.132C228.187 174.208 221.137 170.128 214.375 165.929C211.815 164.319 199.208 157.13 194.328 154.992C194.029 154.861 193.705 154.793 193.433 154.737Z" fill="#00006E"/><path fill-rule="evenodd" clip-rule="evenodd" d="M303.638 241.372C303.533 241.644 303.273 241.838 302.963 241.841C299.398 241.746 300.433 240.641 302.313 240.215C303.513 239.943 306.903 239.466 307.903 239.641C310.723 240.111 312.313 240.897 313.353 241.915C315.093 243.613 315.178 246.104 316.953 249.515C317.823 251.217 318.898 252.315 320.118 253.031C322.393 254.367 325.153 254.416 328.043 254.606C332.338 254.889 336.873 255.414 340.848 259.337C341.598 260.075 341.923 261.193 341.913 262.472C341.898 264.223 340.158 267.306 341.163 267.345C341.433 267.356 340.978 266.939 340.878 266.84C342.008 267.966 343.468 267.806 344.908 267.872C346.273 267.935 347.638 268.09 348.873 268.742C349.998 269.336 351.058 270.312 351.873 272.091C352.153 272.65 351.923 273.331 351.363 273.61C350.808 273.89 350.123 273.663 349.848 273.104C349.233 271.976 348.528 271.356 347.768 271.013C346.553 270.468 345.218 270.631 343.923 270.594C342.103 270.541 340.378 270.214 338.943 268.774C338.643 268.473 338.348 267.839 338.458 266.9C338.568 265.946 339.088 264.305 339.203 262.82C339.258 262.189 339.323 261.578 338.968 261.22C335.563 257.769 331.588 257.387 327.863 257.085C324.583 256.819 321.468 256.605 318.913 255.04C317.378 254.101 316.023 252.697 314.958 250.511C313.408 247.284 313.488 244.943 311.948 243.286C311.138 242.414 309.858 241.754 307.583 241.223C306.913 241.072 304.983 241.192 303.638 241.372Z" fill="#00006E"/><path fill-rule="evenodd" clip-rule="evenodd" d="M334.577 298.148C334.477 298.092 334.382 297.74 334.147 297.476C333.812 297.106 333.282 296.729 332.722 296.223C331.187 294.841 329.072 292.932 326.707 291.797C324.702 290.832 322.552 290.362 320.662 291.334C318.767 292.31 317.942 294.51 316.557 295.956C315.757 296.795 314.812 297.429 313.577 297.691C309.412 298.542 305.477 296.902 301.662 294.822C298.207 292.941 294.867 290.688 291.457 290.128C289.837 289.862 288.207 290.012 286.547 290.851C283.962 292.156 280.962 295.144 277.712 296.295C276.042 296.884 274.317 297.035 272.547 296.454C268.897 295.252 266.905 292.252 263.76 290.51C263.135 290.163 262.454 289.877 261.685 289.688C260.305 289.348 259.028 289.265 257.811 289.345C252.014 289.727 247.433 293.355 240.625 292.527C217.214 289.644 193.894 286.662 170.504 283.992C154.954 282.217 139.378 280.534 123.69 279.348C122.986 279.3 122.455 278.689 122.503 277.986C122.552 277.283 123.162 276.751 123.866 276.8C139.608 277.781 155.259 279.13 170.857 280.835C194.273 283.394 217.573 286.658 240.987 289.627C247.577 290.473 252.018 286.876 257.636 286.543C259.121 286.455 260.679 286.566 262.359 286.992C263.378 287.25 264.281 287.633 265.108 288.099C268.097 289.783 269.917 292.739 273.397 293.913C274.997 294.455 276.547 294.033 278.032 293.299C280.722 291.966 283.212 289.649 285.402 288.566C287.597 287.479 289.747 287.287 291.877 287.655C295.527 288.285 299.137 290.657 302.827 292.706C306.127 294.538 309.497 296.123 313.122 295.413C313.877 295.272 314.447 294.876 314.947 294.378C316.517 292.809 317.592 290.486 319.722 289.451C322.742 287.985 326.227 289.075 329.217 291.012C331.282 292.351 333.187 293.982 334.327 295.365C334.762 295.893 335.012 296.415 335.287 296.766C335.582 297.151 335.817 297.391 335.902 297.517C336.432 298.317 335.602 298.589 335.257 298.644C334.942 298.64 334.672 298.434 334.577 298.148ZM334.962 297.248C335.057 297.204 335.162 297.18 335.277 297.181C335.152 297.158 335.052 297.193 334.962 297.248Z" fill="#00006E"/><path fill-rule="evenodd" clip-rule="evenodd" d="M330.511 325.44C330.541 322.259 328.871 319.901 326.401 318.172C323.186 315.918 318.556 314.795 314.886 314.141C313.131 313.829 311.571 314.024 310.101 314.513C307.906 315.243 305.936 316.672 303.861 318.038C301.366 319.678 298.696 321.235 295.001 320.805C293.946 320.685 292.941 320.468 291.971 320.192C287.646 318.963 283.921 316.652 279.306 315.982C277.896 315.778 276.516 315.768 275.146 315.883C270.031 316.312 265.186 318.642 260.124 318.003C249.291 316.637 238.303 316.024 227.191 315.79C210.972 315.448 194.488 315.908 177.837 315.91C171.183 315.944 164.535 315.802 157.889 315.573C147.902 315.227 137.922 314.678 127.939 314.155C127.369 314.122 126.879 314.557 126.846 315.127C126.812 315.696 127.247 316.186 127.817 316.22C137.807 316.872 147.794 317.565 157.79 318.027C164.467 318.335 171.148 318.537 177.837 318.571C194.47 318.573 210.935 318.135 227.136 318.46C238.157 318.682 249.055 319.253 259.801 320.585C265.046 321.233 270.071 318.897 275.366 318.434C276.541 318.331 277.731 318.329 278.946 318.499C283.451 319.132 287.076 321.402 291.296 322.581C292.396 322.888 293.531 323.127 294.731 323.257C296.476 323.447 298.036 323.286 299.461 322.889C302.476 322.05 304.886 320.159 307.296 318.534C309.486 317.057 311.671 315.789 314.541 316.234C317.971 316.767 322.291 317.72 325.366 319.711C327.436 321.052 328.941 322.864 329.051 325.464C329.056 325.868 329.386 326.19 329.791 326.183C330.196 326.176 330.516 325.843 330.511 325.44Z" fill="#00006E"/><path fill-rule="evenodd" clip-rule="evenodd" d="M318.831 340.911C318.646 340.715 318.301 340.443 318.036 340.18C316.686 338.826 314.196 336.858 311.586 336.389C309.821 336.072 308.021 336.503 306.616 338.422C304.071 341.887 301.631 343.498 299.271 344.125C296.366 344.896 293.546 344.149 290.656 343.335C287.246 342.375 283.711 341.291 279.681 343.603C276.361 345.506 263.505 346.638 247.742 347.199C218.831 348.229 180.007 347.628 173.779 347.961C173.084 347.998 172.491 347.464 172.455 346.769C172.418 346.075 172.952 345.482 173.646 345.445C179.879 345.122 218.727 345.773 247.659 344.802C262.882 344.292 275.321 343.42 278.531 341.591C282.436 339.369 285.931 339.739 289.276 340.594C292.486 341.416 295.526 342.772 298.716 341.969C300.716 341.464 302.761 340.082 304.976 337.191C307.491 333.919 310.786 333.867 313.736 335.076C316.716 336.3 319.311 338.823 320.066 340.095C320.796 341.317 320.161 342.002 319.481 341.946C319.076 341.939 318.756 341.605 318.766 341.201C318.766 341.098 318.791 340.999 318.831 340.911ZM318.896 340.986C318.841 341.099 318.811 341.211 318.906 341.169C318.976 341.139 318.961 341.074 318.896 340.986Z" fill="#00006E"/></svg>