<svg width="501" height="501" viewBox="0 0 501 501" fill="none" xmlns="http://www.w3.org/2000/svg"><path fill-rule="evenodd" clip-rule="evenodd" d="M9.60947 263.206C9.5627 263.042 9.85477 262.611 10.1146 262.089C11.3323 259.645 14.4962 254.527 17.6975 250.391C22.1279 244.787 26.3577 239.158 30.3651 233.367C34.3563 227.599 38.1262 221.67 41.6606 215.45C41.8165 215.174 46.9038 207.028 49.2861 204.884C50.9694 203.368 52.2375 204.011 52.6433 205.248C53.7633 208.661 53.348 213.218 52.1766 218.17C49.9103 227.755 44.7803 238.925 43.9083 245.422C43.6739 247.192 42.212 253.652 40.7371 258.048C40.324 259.278 39.9659 260.376 39.5252 261.098C38.9411 262.055 38.4666 262.523 38.2254 262.656C37.0748 263.288 36.4543 263.352 36.1648 262.653C36.0911 262.476 35.6633 262.17 35.8811 261.544C35.8811 261.293 35.9575 261.059 36.0885 260.864C36.0651 260.701 36.0147 260.255 36.0781 259.84C36.1991 259.052 36.5266 258.024 36.8612 256.847C38.0721 252.588 39.9794 246.568 40.2507 244.885C41.2984 238.321 46.7744 227.12 49.2804 217.452C50.2174 213.839 50.747 210.458 50.3582 207.681C47.9401 210.35 44.0549 216.515 43.9213 216.745C40.3053 223.006 36.4512 228.968 32.3784 234.77C28.3039 240.575 24.0118 246.22 19.5138 251.836C16.2647 255.81 13.3965 260.987 11.774 263.121C11.2881 263.76 10.878 264.101 10.7112 264.251C10.2705 264.645 9.88959 264.534 9.74148 264.452C9.58141 264.364 9.33663 264.184 9.34391 263.76C9.34547 263.536 9.44785 263.336 9.60947 263.206ZM10.7933 263.627L10.7975 263.657L10.7965 263.639L10.7933 263.627ZM10.7549 263.496L10.7741 263.55L10.7684 263.527L10.7549 263.496ZM10.7237 263.428L10.7388 263.459L10.7268 263.432L10.7237 263.428Z" fill="#00006E"/><path fill-rule="evenodd" clip-rule="evenodd" d="M49.4826 234.026C49.6037 233.938 49.7544 233.888 49.916 233.89C54.4347 233.618 53.7612 235.479 48.4385 236.179C44.072 236.753 35.6738 237.503 27.5171 238.037C17.5099 238.693 7.87579 238.949 6.68829 239.095C5.87081 239.202 5.11985 238.625 5.01279 237.807C4.90573 236.989 5.48259 236.238 6.30059 236.131C7.49797 235.964 17.2064 235.186 27.3326 234.72C35.4757 234.345 43.8756 234.055 48.267 234.011C48.7181 234.006 49.1245 234.014 49.4826 234.026Z" fill="#00006E"/><path fill-rule="evenodd" clip-rule="evenodd" d="M82.4216 235.394C86.6363 235.601 87.7111 228.399 84.5602 225.416C82.6056 223.567 78.9693 223.108 73.7037 227.664L68.6616 232.78C65.2701 235.68 62.7465 238.695 60.8969 242.136C59.0925 245.494 57.9383 249.265 57.2814 253.757C56.5133 259.089 58.6674 261.371 61.718 262.105C64.4163 262.754 68.2714 261.95 71.8515 260.542C75.5731 259.077 78.9854 257.039 80.4286 256.094C81.1821 255.621 81.4093 254.624 80.9358 253.87C80.4624 253.116 79.4656 252.889 78.712 253.363C76.5511 254.694 69.646 258.373 64.6179 258.802C63.1784 258.924 61.9015 258.872 61.1661 258C60.5258 257.241 60.3694 256.012 60.6017 254.21C61.1193 250.118 62.0854 246.669 63.6637 243.588C65.2821 240.428 67.5334 237.653 70.5611 234.956L75.478 229.641C79.1429 226.228 81.5678 225.852 83.039 227.109C84.305 228.19 84.7441 230.227 84.3876 231.806C84.1449 232.882 83.5499 233.789 82.4471 233.81C82.0105 233.803 81.6499 234.152 81.6431 234.589C81.6358 235.026 81.9851 235.386 82.4216 235.394Z" fill="#00006E"/><path fill-rule="evenodd" clip-rule="evenodd" d="M119.842 231.617C119.886 231.522 119.925 231.328 119.982 231.198C120.212 230.673 120.401 229.919 120.34 229.195C120.312 228.857 120.197 228.537 120.003 228.262C119.66 227.775 118.977 227.591 117.879 227.643C113.885 227.735 110.394 230.065 107.408 233.298C103.113 237.949 99.9085 244.554 98.2325 250.046C97.4654 252.543 97.4592 254.281 98.2174 255.412C98.7891 256.264 99.8019 256.621 100.964 256.763C102.796 256.986 104.982 256.564 107.123 255.859C110.4 254.782 113.621 253.01 115.072 250.862C115.559 250.097 116.574 249.872 117.337 250.358C118.101 250.845 118.326 251.859 117.84 252.623C116.178 255.398 112.426 258.083 108.37 259.516C105.654 260.474 102.816 260.835 100.479 260.516C98.14 260.197 96.2457 259.184 95.1257 257.443C93.9616 255.634 93.5536 252.889 94.8456 248.968C96.7924 243.094 100.382 236.019 105.183 231.17C108.836 227.481 113.167 225.071 117.879 225.179C120.8 225.327 121.936 226.706 122.218 228.253C122.48 229.691 121.977 231.365 121.337 232.229C120.863 232.87 120.318 233.136 119.999 233.089C119.596 233.082 119.274 232.747 119.282 232.344C119.288 232.029 119.493 231.764 119.775 231.667L119.767 231.662C119.73 231.621 119.777 231.615 119.842 231.617L119.824 231.652L119.809 231.656L119.775 231.667C119.793 231.682 119.809 231.675 119.824 231.652C119.889 231.634 119.957 231.625 120.027 231.627C119.99 231.631 119.907 231.62 119.842 231.617Z" fill="#00006E"/><path fill-rule="evenodd" clip-rule="evenodd" d="M132.862 242.147C131.979 243.79 131.276 245.449 130.83 247.037C130.147 249.469 130.051 251.71 131.203 253.342C132.603 255.326 135.638 256.208 140.845 255.866C143.155 255.753 144.141 256.041 145.057 255.736C145.584 255.562 146.051 255.138 146.875 254.313C147.513 253.644 148.575 253.62 149.245 254.258C149.913 254.897 149.938 255.959 149.299 256.628C147.973 258.081 147.104 258.694 146.229 259.027C145.126 259.447 143.918 259.29 141.102 259.546C133.996 260.071 130.002 258.238 128.102 255.52C126.374 253.048 126.226 249.668 127.325 246.018C129.673 238.217 137.708 229.026 143.473 226.345C146.864 224.767 149.595 225.24 150.876 227.997C152.891 232.337 150.732 235.982 146.94 238.519C143.096 241.092 137.621 242.54 134.542 242.42C133.889 242.395 133.327 242.3 132.862 242.147ZM134.143 239.955C134.275 239.982 134.411 240 134.547 239.995C137.258 239.899 142.022 238.559 145.348 236.206C147.817 234.458 149.54 232.149 148.143 229.302C147.559 228.11 146.299 228.474 144.833 229.192C142.492 230.34 139.755 232.73 137.294 235.658C137.388 235.778 137.442 235.93 137.443 236.093C137.445 236.497 137.119 236.827 136.715 236.828C136.566 236.836 136.418 236.868 136.273 236.922C135.518 237.896 134.801 238.915 134.143 239.955Z" fill="#00006E"/><path fill-rule="evenodd" clip-rule="evenodd" d="M176.536 238.546C180.161 238.758 180.521 233.404 178.731 230.967C177.456 229.229 175.269 228.568 172.605 231.802C171.129 233.7 169.98 235.195 169.015 236.792C168.016 238.442 167.218 240.201 166.465 242.591C164.514 248.894 164.552 262.592 160.454 269.422C158.136 273.285 154.259 273.99 147.075 269.007C146.19 268.388 144.97 268.605 144.352 269.49C143.734 270.376 143.951 271.595 144.836 272.214C155.041 279.386 160.675 277.023 163.919 271.474C168.092 264.338 167.713 250.094 169.548 243.497C170.132 241.359 170.776 239.778 171.599 238.283C172.449 236.738 173.475 235.28 174.791 233.426C175.476 232.404 175.936 231.868 176.478 232.023C176.937 232.155 177.294 232.608 177.543 233.153C178.237 234.679 178.357 237.015 176.55 237.083C176.146 237.079 175.815 237.404 175.812 237.807C175.808 238.211 176.132 238.542 176.536 238.546Z" fill="#00006E"/><path fill-rule="evenodd" clip-rule="evenodd" d="M203.868 239.884C204.821 240.026 205.703 239.346 206.268 238.21C207.085 236.566 206.904 233.91 205.811 232.455C204.633 230.888 202.12 230.149 197.96 233.652C197.06 234.419 196.04 235.48 195.089 236.586C194.13 237.702 193.249 238.866 192.614 239.782C191.594 241.261 190.239 250.789 188.121 260.357C186.488 267.737 184.419 275.16 181.26 278.161C180.195 279.173 178.962 279.35 177.475 278.368C175.67 277.177 173.643 274.827 171.309 271.014C170.799 270.14 169.674 269.845 168.8 270.356C167.925 270.866 167.631 271.991 168.141 272.866C170.712 277.479 173.076 280.3 175.172 281.762C178.639 284.18 181.632 283.593 184.143 281.178C187.675 277.781 190.131 269.457 191.754 261.112C193.522 252.023 194.285 242.939 195.207 241.516C195.867 240.488 196.846 239.139 197.862 237.898C198.527 237.084 199.199 236.312 199.82 235.725C202.064 233.578 203.254 233.073 203.981 233.923C204.709 234.775 204.692 236.376 204.367 237.459C204.233 237.907 204.233 238.375 203.881 238.421C203.478 238.417 203.147 238.742 203.143 239.146C203.14 239.55 203.465 239.88 203.868 239.884Z" fill="#00006E"/><path fill-rule="evenodd" clip-rule="evenodd" d="M252.475 231.666C252.467 231.739 252.444 231.818 252.404 231.905C251.979 232.833 251.027 234.907 250.15 236.461C248.957 238.419 239.242 253.254 235.664 264.014C234.907 266.289 234.427 268.362 234.424 270.06C234.42 271.675 234.926 272.858 236.515 273.067C238.152 273.327 239.339 273.137 240.381 272.58C241.624 271.915 242.69 270.853 243.977 269.622C244.624 268.974 245.676 268.974 246.324 269.622C246.971 270.269 246.971 271.321 246.324 271.969C244.468 273.905 242.937 275.439 240.951 276.237C239.59 276.784 238.014 276.993 235.991 276.736C232.899 276.259 231.344 274.426 230.958 271.65C230.643 269.382 231.234 266.309 232.498 262.901C236.526 252.035 247.066 237.276 248.363 235.323C249.375 233.904 250.462 231.954 251.021 231.127C251.232 230.815 251.393 230.62 251.467 230.563C251.946 230.192 252.313 230.342 252.481 230.519C252.575 230.618 252.771 230.767 252.746 231.079C252.753 231.316 252.647 231.529 252.475 231.666Z" fill="#00006E"/><path fill-rule="evenodd" clip-rule="evenodd" d="M267.886 252.674C267.797 252.554 267.746 252.406 267.746 252.246C267.746 251.843 268.074 251.515 268.478 251.515C273.235 251.404 272.942 252.968 270.686 253.816C269.591 254.228 267.584 254.907 264.929 255.564C262.034 256.281 258.394 257.009 254.515 257.753C245.685 259.446 235.643 261.311 230.209 262.175C228.368 262.467 227.113 262.496 226.776 262.637C225.952 263.049 224.948 262.714 224.536 261.89C224.124 261.066 224.458 260.062 225.283 259.65C225.71 259.404 227.398 258.816 229.986 258.278C234.137 257.416 240.772 256.567 247.489 255.586C252.925 254.791 258.414 253.907 262.755 253.313C264.758 253.039 266.51 252.863 267.886 252.674Z" fill="#00006E"/><path fill-rule="evenodd" clip-rule="evenodd" d="M282.24 260.787C283.527 261.045 284.359 261.987 284.637 263.417C284.984 265.203 284.142 268.336 282.334 270.951C279.427 275.153 274.485 277.934 269.811 273.179C266.479 269.698 267.618 266.043 270.772 263.162C273.657 260.526 278.233 258.627 281.001 258.35C281.347 258.315 281.669 258.274 281.957 258.312C283.496 258.515 284.305 259.245 284.105 260.29C284.117 260.693 283.799 261.031 283.395 261.042C282.992 261.054 282.655 260.736 282.643 260.332C282.681 260.496 282.468 260.698 282.24 260.787ZM281.803 260.734C281.778 260.703 281.761 260.662 281.752 260.611C281.728 260.477 281.473 260.649 281.323 260.676C278.988 261.089 275.24 262.994 272.912 265.376C271.311 267.012 270.396 268.943 272.261 270.729C274.36 272.786 276.47 271.983 278.037 270.422C279.5 268.964 280.585 266.901 280.93 265.26C280.986 264.99 281.103 264.602 281.127 264.345L281.118 264.339L281.072 264.299L281.088 264.294L281.133 264.282C281.139 264.137 281.105 264.05 280.993 264.084C280.907 264.111 280.969 264.212 281.072 264.299C280.683 264.42 280.04 264.772 279.471 265.102C278.72 265.602 277.704 265.399 277.204 264.648C276.703 263.897 276.907 262.882 277.657 262.381C279.4 261.056 280.815 260.683 281.803 260.734ZM281.127 264.345C281.252 264.438 281.402 264.496 281.423 264.399C281.454 264.251 281.337 264.227 281.133 264.282V264.294L281.127 264.345Z" fill="#00006E"/><path fill-rule="evenodd" clip-rule="evenodd" d="M338.476 227.668C338.454 227.601 338.441 227.529 338.44 227.454C338.275 224.409 339.589 225.244 339.973 227.219C340.048 227.602 340.071 228.874 339.229 230.594C338.819 231.438 337.306 234.909 335.251 239.509C332.539 245.58 328.911 253.614 326.397 260.448C325.101 263.969 324.084 267.151 323.626 269.538C323.465 270.371 323.371 271.093 323.38 271.681C323.383 271.92 323.327 272.117 323.416 272.23C323.681 272.566 324.069 272.514 324.487 272.389C325.552 272.069 326.734 271.21 327.938 270.164C331.411 267.149 334.866 262.486 335.614 261.359C336.167 260.528 336.643 258.611 337.125 257.481C337.555 256.475 338.151 255.866 338.562 255.656C339.438 255.208 340.602 255.064 341.452 256.757C342.322 258.493 342.285 260.564 341.882 262.752C341.465 265.01 340.609 267.417 340.855 269.54C340.985 270.658 341.533 271.649 342.832 272.426C344.108 273.191 345.694 272.401 347.563 271.107C350.961 268.755 354.83 264.337 358.622 259.238C364.616 251.179 370.315 241.378 373.481 234.856C374.192 233.391 374.749 232.086 375.209 231.033C375.657 230.009 376.059 229.293 376.104 228.818C376.104 228.057 376.722 227.44 377.483 227.44C378.244 227.44 378.861 228.057 378.861 228.818C378.927 229.617 378.688 231.114 378.002 233.083C377.237 235.278 375.864 238.103 374.192 241.288C370.078 249.125 363.801 259.034 357.76 266.236C354.297 270.365 350.863 273.598 347.911 275.16C345.251 276.568 342.865 276.692 340.959 275.548C338.47 274.051 337.494 272.099 337.25 269.954C337.053 268.212 337.418 266.301 337.836 264.404C336.077 266.769 332.09 271.684 328.504 274.19C325.381 276.371 322.441 276.633 320.681 274.375C320.105 273.637 319.767 272.274 319.993 270.387C320.308 267.762 321.577 263.766 323.353 259.284C326.066 252.441 329.861 244.37 332.955 238.402C335.294 233.889 337.235 230.594 337.718 229.78C338.228 228.915 338.414 228.058 338.476 227.668Z" fill="#00006E"/><path fill-rule="evenodd" clip-rule="evenodd" d="M383.966 258.647C384.465 258.107 385.024 257.58 385.646 257.065C385.95 256.811 387.325 256.302 388.357 256.412C389.234 256.505 389.871 256.956 390.186 257.535C390.973 258.979 390.854 260.754 389.867 262.608C388.806 264.602 386.693 266.767 384.232 268.55C384.301 268.78 384.384 269.007 384.48 269.229C385.759 272.193 389.172 274.204 393.542 274.114C395.182 274.164 396.248 274.067 397.247 273.811C398.404 273.515 399.478 273.06 401.121 272.475C401.996 272.125 402.99 272.551 403.34 273.426C403.69 274.301 403.264 275.295 402.389 275.645C400.226 276.606 398.981 277.268 397.337 277.674C396.316 277.927 395.146 278.065 393.542 278.112C387.43 277.987 382.956 274.75 381.282 270.557L381.236 270.434C378.821 271.741 376.376 272.564 374.527 272.585C372.286 272.611 370.721 271.665 370.249 269.618C369.257 265.204 370.345 262.435 372.239 260.709C374.35 258.784 377.583 258.108 380.253 258.149C381.707 258.172 382.962 258.398 383.734 258.587L383.966 258.647ZM382.737 260.155C382.076 260.139 381.238 260.168 380.319 260.241C378.182 260.41 375.571 260.874 373.954 262.5C372.67 263.791 372.181 265.822 373.035 268.921C373.16 269.385 373.552 269.537 374.022 269.575C374.711 269.632 375.535 269.446 376.437 269.15C377.737 268.724 379.161 268.023 380.548 267.16C380.445 264.876 381.102 262.455 382.737 260.155ZM387.444 259.843C385.861 261.266 384.842 262.796 384.334 264.313C385.479 263.26 386.422 262.151 386.985 261.082C387.215 260.645 387.4 260.229 387.444 259.843Z" fill="#00006E"/><path fill-rule="evenodd" clip-rule="evenodd" d="M430.473 223.983L430.418 223.934C430.132 223.65 430.13 223.186 430.414 222.9C431.026 222.245 431.561 222.156 431.797 222.198C432.15 222.261 432.62 222.649 432.509 223.59C432.401 224.508 431.795 226.555 430.68 229.349C426.355 240.184 415.101 262.873 409.296 277.261C407.658 281.321 406.43 284.688 405.946 286.902C405.789 287.621 405.418 288.579 405.757 288.498C405.763 288.497 405.767 288.494 405.769 288.49L405.713 288.385C405.727 288.413 405.78 288.468 405.769 288.49C407.036 290.892 409.393 290.47 411.799 289.363C416.322 287.281 421.171 282.554 422.272 280.897C422.661 280.283 423.475 280.099 424.09 280.487C424.704 280.876 424.888 281.69 424.5 282.305C423.152 284.541 416.345 291.805 410.672 293.308C407.412 294.171 404.49 293.394 402.734 289.874C402.399 289.2 402.307 287.815 402.776 285.874C403.4 283.292 404.871 279.348 406.878 274.674C413.318 259.676 424.937 236.808 429.342 227.194C429.922 225.927 430.213 224.728 430.473 223.983Z" fill="#00006E"/><path fill-rule="evenodd" clip-rule="evenodd" d="M435.466 245.699C435.408 245.585 435.377 245.455 435.377 245.318C435.377 244.843 435.763 244.457 436.239 244.457C437.643 244.408 438.376 244.671 438.59 244.853C439.053 245.248 439.28 246.033 438.197 246.729C437.812 246.976 437.085 247.306 436.069 247.661C431.051 249.415 418.552 252.36 409.108 254.406C402.968 255.736 398.135 256.615 397.705 256.783C397.045 257.047 396.294 256.725 396.03 256.065C395.766 255.405 396.088 254.654 396.748 254.39C397.191 254.208 402.148 253.035 408.525 251.684C417.903 249.696 430.381 247.187 435.443 245.707L435.466 245.699Z" fill="#00006E"/><path fill-rule="evenodd" clip-rule="evenodd" d="M444.284 260.239C445.801 258.792 447.422 257.608 448.993 256.855C452.593 255.13 455.936 255.47 457.794 259.164C461.459 266.511 455.092 269.863 448.956 269.434C446.38 269.254 443.943 268.357 442.45 266.958C441.213 269.06 440.397 271.267 440.306 273.215C440.22 275.068 440.951 276.611 442.936 277.403C445.041 278.242 448.255 278.396 452.936 277.548C453.69 277.398 454.424 277.887 454.575 278.641C454.726 279.395 454.236 280.129 453.483 280.28C440.803 282.926 436.914 278.388 437.22 273.043C437.381 270.226 438.861 266.968 440.961 264.058C440.852 262.516 441.598 260.632 443.857 258.587C444.113 258.33 444.53 258.328 444.788 258.584C445.046 258.841 445.047 259.258 444.791 259.516C444.6 259.762 444.438 260.005 444.284 260.239ZM443.664 265.105C444.71 266.32 446.865 266.92 449.084 266.998C453.27 267.145 458.021 265.314 455.469 260.34C454.35 258.14 452.286 258.172 450.153 259.231C447.881 260.359 445.51 262.562 443.664 265.105Z" fill="#00006E"/><path fill-rule="evenodd" clip-rule="evenodd" d="M473.797 260.807C473.583 260.499 473.611 260.072 473.883 259.795C474.326 259.323 474.632 259.072 474.788 258.983C475.344 258.666 475.709 258.947 475.892 259.143C476.016 259.276 476.185 259.556 476.076 260.015C475.997 260.355 475.507 261.319 474.707 262.731C472.209 267.142 466.766 276.479 463.574 285.17C462.248 288.778 461.235 292.251 461.186 295.265C461.186 295.887 460.681 296.392 460.059 296.392C459.437 296.392 458.932 295.887 458.932 295.265C458.866 293.223 459.116 290.95 459.715 288.585C460.472 285.593 461.762 282.46 463.201 279.382C466.912 271.448 471.902 263.945 473.797 260.807ZM475.327 260.568C475.562 260.647 475.733 260.648 475.573 260.42C475.526 260.354 475.439 260.438 475.327 260.568Z" fill="#00006E"/><path fill-rule="evenodd" clip-rule="evenodd" d="M473.734 263.052C474.05 263.131 474.459 263.246 474.909 263.234C475.294 263.225 475.613 263.531 475.622 263.916C475.631 264.3 475.326 264.62 474.941 264.629C472.916 264.691 472.048 264.131 471.863 263.693C471.68 263.261 471.85 262.58 472.631 261.871C473.442 261.134 474.995 260.182 476.881 259.311C480.771 257.512 486.021 256.032 488.271 256.129C489.606 256.187 490.256 256.855 490.406 257.562C491.506 262.852 484.581 270.157 477.456 274.49C478.076 281.411 477.851 288.494 481.076 292.06C481.861 292.925 482.901 293.493 484.251 293.788C486.611 294.303 489.816 293.999 494.261 292.592C495.071 292.322 495.946 292.761 496.216 293.571C496.486 294.381 496.046 295.258 495.241 295.529C490.076 297.336 486.286 297.742 483.521 297.141C481.386 296.677 479.796 295.64 478.601 294.237C475.335 290.41 475.392 283.163 474.887 275.921C471.804 277.482 468.914 278.376 466.958 278.316C464.381 278.237 462.914 276.941 463.338 274.028C463.63 272.024 467.122 268.953 470.447 267.711C473.623 266.524 476.391 267.091 476.861 269.895C476.966 270.462 477.056 271.036 477.136 271.614C477.621 271.304 478.111 270.981 478.591 270.648C483.696 267.12 488.456 262.48 488.216 258.573C487.926 258.573 487.451 258.414 486.981 258.474C484.401 258.804 480.271 260.21 477.131 261.479C475.703 262.057 474.472 262.566 473.734 263.052ZM474.651 273.075C474.559 272.147 474.449 271.226 474.312 270.32C474.211 269.711 473.67 269.64 473.062 269.695C472.193 269.774 471.182 270.142 470.191 270.643C468.166 271.667 466.106 273.181 465.935 274.399C465.767 275.596 466.673 275.776 467.897 275.618C469.729 275.382 472.134 274.443 474.651 273.075Z" fill="#00006E"/></svg>