<svg width="500" height="501" viewBox="0 0 500 501" fill="none" xmlns="http://www.w3.org/2000/svg"><path fill-rule="evenodd" clip-rule="evenodd" d="M315.272 131.285C317.904 131.501 320.366 132.607 322.029 134.014C323.879 135.274 324.46 136.593 324.174 137.77C324.12 139.013 323.162 140.128 320.946 140.776C318.943 141.602 316.286 141.906 313.733 141.32L313.21 141.291C312.691 141.197 312.213 141.048 311.74 140.83L311.689 140.804C310.261 140.437 308.53 140.006 308.116 139.974C306.318 139.86 304.586 140.024 302.906 140.502C299.873 141.366 297.006 142.826 294.189 144.13C291.383 145.508 287.856 147.768 284.472 150.761C280.149 154.585 276.016 159.513 273.398 164.614C270.541 170.169 269.511 176.022 273.266 180.81C273.99 181.726 275.124 182.05 276.364 182.174C278.663 182.406 281.333 181.752 283.861 180.719C286.453 179.659 288.881 178.128 290.6 176.452C291.519 175.554 292.312 174.715 292.324 173.821C292.325 173.737 292.163 173.808 292.083 173.74C291.902 173.587 291.672 173.463 291.424 173.328C290.676 172.924 289.729 172.599 288.572 172.339C286.969 172.462 285.599 172.394 285.497 171.828L285.115 171.78C278.577 171.042 283.086 163.58 283.68 163.335C283.821 163.274 284.5 163.029 285.629 163.022C286.591 163.017 289.997 163.184 291.331 162.862C295.024 161.97 298.328 160.994 301.593 159.831C304.818 158.683 307.99 157.332 311.453 155.689C312.574 155.158 315.315 153.791 316.084 153.534C318.405 152.762 319.957 153.753 320.473 154.057C322.321 155.151 323.155 156.857 322.818 159.252C322.754 159.687 322.569 161.17 320.664 162.698C320.153 163.086 319.593 163.364 319.014 163.535C318.571 164.045 316.299 164.524 315.542 164.841C311.687 166.461 308.156 167.771 304.584 168.866C302.945 169.366 301.307 169.826 299.623 170.251C299.971 170.925 300.191 171.599 300.31 172.253C300.783 174.882 299.936 177.845 297.611 180.548C294.169 184.555 287.371 188.278 281.072 189.247C275.523 190.102 270.447 188.865 267.66 185.084C262.407 177.997 263.369 169.575 267.66 161.597C270.717 155.911 275.483 150.522 280.242 146.098C284.027 142.583 287.785 139.66 290.895 137.897C293.88 136.109 296.946 134.236 300.202 132.852C302.679 131.797 305.273 131.124 308.042 130.902C308.625 130.849 311.342 131.016 313.286 131.147C313.768 131.078 314.27 131.079 314.777 131.158L315.272 131.285Z" fill="#00006E"/><path fill-rule="evenodd" clip-rule="evenodd" d="M280.775 202.618C281.832 201.79 283.213 201.377 284.649 201.579C286.127 201.982 286.957 202.19 287.241 202.348C289.418 203.56 290.116 204.922 290.227 205.709C290.438 207.289 290.586 208.896 289.234 210.155C288.784 210.571 288.153 211.565 286.667 211.768C286.325 211.815 285.295 211.97 283.713 211.788L283.252 211.732L283.218 211.733L283.112 211.715C280.009 211.338 274.314 210.494 268.665 209.82C266.066 209.51 263.49 209.285 261.214 209.099C259.996 208.999 258.859 208.917 257.849 208.847C257.509 211.077 256.845 212.823 255.989 214.426C254.77 216.706 253.042 218.635 251.048 221.443C249.415 223.764 244.412 230.872 240.753 237.482C239.641 239.484 238.669 241.437 237.976 243.174C243.437 242.361 252.112 240.719 259.539 241.475C262.341 241.852 264.313 244.436 263.936 247.24C263.558 250.045 260.972 252.014 258.17 251.637C250.091 250.28 240.177 252.116 235.716 252.242C233.98 252.292 232.688 252.117 231.944 251.825C230.216 251.151 229.311 250.047 228.941 248.84C228.616 247.78 228.461 246.444 228.75 244.879C229.16 242.682 230.426 239.68 232.261 236.446C236.454 229.053 243.415 220.021 245.496 217.34C247.394 214.877 249.06 213.229 250.233 211.213C250.727 210.366 251.126 209.447 251.396 208.326C251.096 208.022 250.982 207.114 250.876 206.842C250.629 206.224 250.579 205.683 250.609 205.276C250.676 204.303 251.077 203.559 251.723 203.008C252.224 202.579 253.032 202.03 254.419 202.229C255.971 202.414 262.425 202.996 269.052 203.035C273.33 203.06 277.64 202.847 280.775 202.618Z" fill="#00006E"/><path fill-rule="evenodd" clip-rule="evenodd" d="M270.157 218.972C271.252 218.053 272.722 217.596 274.247 217.836C274.645 218.061 275.024 218.285 275.378 218.508C278.463 218.174 282.036 221.203 280.352 224.084C280.783 227.144 276.681 228.812 273.932 227.674C273.529 227.776 273.102 227.873 272.651 227.964C271.088 227.718 269.804 226.789 269.048 225.527C268.954 225.496 268.877 225.476 268.824 225.467C267.228 225.574 265.396 225.501 263.419 225.51C259.79 225.525 255.669 225.616 251.831 226.132C248.665 226.556 245.82 227.449 243.962 229.17C241.716 230.887 238.493 230.453 236.781 228.203C235.064 225.953 235.498 222.733 237.749 221.018C240.608 219.247 244.193 218.238 248.269 218.082C252.944 217.903 258.155 218.613 262.786 218.975C264.854 219.136 266.779 219.143 268.417 219.057C268.682 218.991 269.332 218.991 270.157 218.972Z" fill="#00006E"/><path d="M221.398 259.924C219.688 261.208 219.004 263.359 219.509 265.314C219.068 266.249 218.607 267.109 218.34 267.698C217.035 269.528 215.909 271.485 214.718 273.414C212.078 277.684 209.536 282.037 206.732 286.178C205.126 288.553 203.346 290.722 201.387 292.759C199.621 294.97 199.979 298.201 202.19 299.967C204.4 301.733 207.632 301.37 209.397 299.164C214.103 292.25 216.55 283.918 220.516 276.382C221.428 274.662 222.522 273.051 223.646 271.473C224.383 270.828 225.87 269.447 226.99 268.371C228.015 267.385 228.931 266.469 229.3 266.036C230.243 264.922 229.683 263.811 229.807 263.222C230.028 262.205 229.108 261.644 228.872 260.874C228.56 259.864 227.377 259.829 226.496 259.127C226.247 258.928 225.888 259.065 225.576 258.9C225.115 258.66 224.566 259.04 223.851 258.937C223.378 258.868 222.791 259.495 221.398 259.924Z" fill="#00006E"/><path fill-rule="evenodd" clip-rule="evenodd" d="M223.759 270.388L223.753 270.511C223.448 273.322 220.917 275.361 218.1 275.056C216.438 274.521 215.391 274.282 214.884 273.805C213.471 272.481 212.487 271.521 212.509 270.292C212.532 269.32 212.239 268.275 212.885 267.352C213.215 266.879 213.397 266.189 214.044 265.739C214.805 265.206 216.181 264.283 217.88 263.926C220.463 263.218 223.783 262.636 227.243 262.152C230.623 261.678 234.071 261.283 237.155 261.758C242.373 262.562 246.557 265.333 248.129 271.621C249.17 275.673 247.238 278.68 243.389 280.915C238.943 283.489 230.773 284.631 224.476 285.734C222.201 286.127 219.766 288.075 219.165 287.122C216.937 288.556 213.944 288.065 212.311 285.923C210.594 283.672 211.028 280.449 213.278 278.737C214.489 277.91 216.789 277.037 219.9 276.688C224.727 276.15 232.182 276.218 237.46 274.894C238.5 274.635 239.444 274.358 240.2 273.938C240.641 273.697 241.213 273.621 241.127 273.132C240.38 269.124 237.201 267.858 233.699 267.845C231.572 267.839 229.313 268.22 227.237 268.891C225.985 269.299 224.824 269.832 223.759 270.388Z" fill="#00006E"/><path fill-rule="evenodd" clip-rule="evenodd" d="M227.991 280.443C228.282 281.462 228.529 282.23 228.785 283.254C229.015 284.177 229.188 285.013 229.273 285.956C229.383 287.119 229.324 288.288 229.261 289.448C229.082 292.793 228.659 296.077 228.231 299.365C227.822 302.551 227.173 305.612 226.38 308.683C226.002 311.49 227.975 314.071 230.777 314.449C233.583 314.827 236.164 312.859 236.542 310.052C236.598 306.562 236.366 303.131 236.127 299.6C235.9 296.308 235.52 293.02 235.594 289.69C235.62 288.585 235.677 287.469 235.921 286.388C236.115 285.528 236.444 284.803 236.808 284.005C237.206 283.137 237.676 282.57 238.162 281.748C238.52 278.939 236.536 276.371 233.732 276.008C230.923 275.649 228.349 277.638 227.991 280.443Z" fill="#00006E"/><path fill-rule="evenodd" clip-rule="evenodd" d="M195.523 322.529C194.292 320.114 194.94 317.09 197.18 315.41C198.195 315.093 198.674 314.454 199.228 314.474C199.902 314.499 200.384 314.078 200.865 314.236C202.176 314.674 203.431 314.319 204.105 315.229C204.716 316.043 205.924 316.353 206.039 317.531C206.067 317.808 206.336 318.002 206.322 318.306C206.295 318.87 206.818 319.486 206.506 320.263C206.294 320.786 206.37 321.681 205.622 322.694C204.661 323.994 202.701 326.138 200.641 329.076C199.308 330.987 198.257 333.357 197.015 335.488C195.018 339.368 193.081 343.332 191.353 347.407C189.621 351.475 188.169 355.603 186.784 359.729C185.529 362.601 182.175 363.913 179.304 362.658C176.432 361.403 175.12 358.049 176.375 355.178C178.14 351.965 180.007 348.805 181.932 345.619C184.783 340.904 187.679 336.223 190.77 331.759C192.028 329.712 193.494 327.66 194.443 325.599C194.937 324.53 195.263 323.487 195.523 322.529Z" fill="#00006E"/><path fill-rule="evenodd" clip-rule="evenodd" d="M191.615 311.071C194.419 311.006 198.021 310.973 201.773 311.041C206.336 311.126 211.065 311.359 214.959 312.604C219.727 314.131 223.321 316.952 224.715 321.676C227.212 329.813 224.966 336.553 220.385 342.438C212.008 353.199 194.125 360.612 185.146 367.978C182.652 369.875 179.081 369.394 177.184 366.906C175.281 364.412 175.762 360.841 178.256 358.944C186.166 353.354 200.522 348.377 210.048 340.8C215.619 336.364 219.468 331.008 217.632 323.642C216.786 320.4 213.588 319.134 209.988 318.589C207.57 318.22 204.945 318.216 202.399 318.468C197.681 318.93 193.326 320.254 190.558 320.902C189.822 321.103 186.6 321.395 185.316 321.277C184.329 321.188 183.694 320.633 183.168 320.365C181.615 319.578 181.311 318.063 180.891 316.843C180.441 315.527 180.938 313.984 182.297 311.999C182.63 311.509 183.65 310.828 185.664 309.74C187.804 308.969 190.109 309.563 191.615 311.071Z" fill="#00006E"/></svg>