<svg width="510" height="510" viewBox="0 0 510 510" fill="none" xmlns="http://www.w3.org/2000/svg"><path fill-rule="evenodd" clip-rule="evenodd" d="M363.81 295.666C364.496 295.089 365.462 294.882 366.368 295.202C367.288 295.668 367.837 295.94 368.069 296.109C370.249 297.71 369.309 299.463 368.806 299.917C368.571 300.127 367.956 300.943 366.679 300.723C366.455 300.684 366.092 300.623 365.617 300.487C364.693 300.219 363.211 299.719 361.371 299.159C360.513 298.898 359.578 298.631 358.586 298.377C356.512 297.854 354.225 297.368 352.019 296.878C347.759 295.93 343.79 295.086 342.037 294.593C340.675 294.128 339.941 292.641 340.407 291.274C340.873 289.907 342.364 289.179 343.726 289.644C345.139 290.221 348.099 291.31 351.492 292.41C354.096 293.245 356.918 294.151 359.493 294.808C360.466 295.056 361.41 295.252 362.286 295.414C362.821 295.512 363.334 295.598 363.81 295.666Z" fill="#00006E"/><path fill-rule="evenodd" clip-rule="evenodd" d="M365.489 287.522C366.004 286.229 367.448 285.559 368.774 286.022C370.892 287.003 372.135 287.632 372.703 288.02C373.5 288.566 373.854 289.04 373.953 289.321C374.293 290.284 374.242 291.066 373.644 291.678C373.388 291.933 373.047 292.332 372.394 292.441C372.036 292.503 371.155 292.523 369.883 292.273C368.902 292.081 367.595 291.761 366.059 291.421C364.914 291.167 363.64 290.906 362.298 290.643C355.76 289.37 347.68 287.818 344.653 286.927C343.291 286.462 342.556 284.975 343.023 283.608C343.489 282.241 344.98 281.513 346.342 281.978C349.196 283.083 356.815 285.478 363.093 286.988C363.92 287.186 364.722 287.365 365.489 287.522Z" fill="#00006E"/><path fill-rule="evenodd" clip-rule="evenodd" d="M366.409 275.544C367.622 275.195 370.436 276.697 373.292 279.709C373.744 280.095 374.223 280.511 374.724 280.955C375.057 281.29 375.284 281.688 375.401 282.118C377.392 284.455 380.519 288.2 383.311 291.863C385.711 295.008 387.877 298.084 388.811 300.328C389.548 302.116 389.523 303.576 389.033 304.504C387.518 307.433 383.493 309.049 378.397 309.594C369.734 310.522 357.844 308.68 354.028 308.573C352.584 308.501 351.473 307.269 351.548 305.832C351.62 304.388 352.851 303.277 354.289 303.352C357.554 303.592 366.774 305.486 374.754 305.588C377.591 305.62 380.261 305.442 382.383 304.823C383.816 304.402 384.998 303.837 385.622 302.871C385.478 302.801 385.602 302.407 385.509 302.138C385.272 301.415 384.846 300.565 384.278 299.639C383.043 297.629 381.234 295.296 379.294 293.055C376.605 289.954 373.682 287.03 371.787 285.184C371.518 285.061 371.256 284.887 371.033 284.663C370.583 284.162 370.167 283.684 369.784 283.232C365.86 279.22 364.399 275.527 366.409 275.544Z" fill="#00006E"/><path fill-rule="evenodd" clip-rule="evenodd" d="M352.443 277.073C352.427 276.952 352.42 276.833 352.421 276.707C352.434 275.265 353.614 274.104 355.057 274.118C357.054 274.326 357.959 275.066 358.275 275.637C358.709 276.432 358.986 277.285 358.532 278.214C358.201 278.89 357.129 280.119 355.257 280.748C352.797 281.667 350.076 282.143 347.409 282.665C343.343 283.461 339.382 284.183 336.802 285.513C336.015 285.923 335.406 286.41 335.125 287.082C334.903 287.622 335.025 288.269 335.273 289.069C335.624 290.199 336.369 291.501 337.482 293.081C338.256 294.297 337.894 295.915 336.677 296.69C335.464 297.47 333.845 297.107 333.071 295.891C329.774 290.177 329.954 286.644 331.616 284.38C332.385 283.327 333.488 282.456 334.926 281.804C337.228 280.764 340.457 280.229 343.925 279.581C345.113 279.355 346.337 279.115 347.544 278.801C349.237 278.357 350.893 277.775 352.443 277.073Z" fill="#00006E"/><path fill-rule="evenodd" clip-rule="evenodd" d="M144.492 221.502C144.482 222.472 141.647 222.142 139.493 222.812C134.475 224.378 127.889 226.251 123.462 225.114C119.847 224.186 117.175 221.685 117.314 215.928C117.408 211.071 118.894 207.347 121.11 204.509C123.698 201.198 127.324 199.114 131.104 197.921C135.965 196.385 141.065 196.383 144.437 197.265C146.064 197.694 147.317 198.369 148.141 199.103C149.415 200.243 149.776 201.65 149.476 203.132C149.192 204.503 147.934 206.231 144.943 207.889C143.647 208.526 142.08 207.997 141.437 206.704C140.799 205.412 141.33 203.841 142.621 203.203C143.185 202.953 143.626 202.509 143.991 202.197C143.569 201.874 143.073 201.431 142.477 201.28C138.816 200.336 133.094 200.526 128.495 203.04C124.407 205.271 121.316 209.41 121.33 215.956C121.349 217.936 121.786 219.275 122.683 220.086C123.718 221.018 125.252 221.147 126.945 221.045C131.457 220.775 136.974 218.411 140.583 217.179C141.987 216.706 143.162 216.391 143.974 216.294C144.74 216.209 145.347 216.311 145.798 216.454C147.165 216.92 147.895 218.406 147.429 219.773C147.006 221.013 145.741 221.728 144.492 221.502Z" fill="#00006E"/><path fill-rule="evenodd" clip-rule="evenodd" d="M151.902 218.624C153.194 216.055 155.142 214.219 157.328 213.44C160.321 212.382 163.939 212.974 167.128 216.783C168.787 218.739 169.185 220.564 168.863 222.154C168.416 224.343 166.429 226.312 163.566 227.545C159.372 229.351 153.485 229.699 150.534 228.277C148.808 227.445 147.845 226.117 147.851 224.356C147.84 222.879 148.765 221.248 150.36 219.813C150.822 219.397 151.342 219.001 151.902 218.624ZM160.36 224.541C160.214 224.044 160.212 223.496 160.392 222.968C160.665 222.293 160.867 221.73 160.899 221.236C160.918 220.979 161.041 220.758 160.908 220.623C160.317 220.027 159.182 220.145 157.996 220.382C157.505 220.478 157.007 220.613 156.508 220.78C156.266 221.35 156.074 221.973 155.932 222.636C155.595 224.041 154.179 224.905 152.778 224.569C152.35 224.465 151.972 224.263 151.666 223.99C151.602 224.115 151.566 224.25 151.564 224.381C151.56 224.838 152.059 224.95 152.576 225.116C154.457 225.71 157.355 225.452 159.917 224.684C160.07 224.637 160.217 224.592 160.36 224.541Z" fill="#00006E"/><path fill-rule="evenodd" clip-rule="evenodd" d="M181.684 230.574C178.791 231.449 174.398 233.513 170.071 235.599C169.296 235.987 168.739 235.771 168.52 235.686C167.708 235.382 167.155 234.767 167.347 233.602C167.374 233.447 167.462 233.067 167.84 232.607C168.041 232.37 168.589 231.831 169.383 231.076C170.981 229.553 173.716 227.076 176.594 224.469C179.123 222.18 181.748 219.792 183.925 217.945C185.068 217.062 186.711 217.275 187.595 218.419C188.473 219.561 188.265 221.205 187.123 222.084C185.138 223.474 182.766 225.196 180.453 226.964C181.545 226.601 182.481 226.357 183.213 226.264C184.947 226.04 186.027 226.667 186.544 227.375C186.991 227.991 187.246 228.925 186.764 230.244C186.448 231.11 185.645 232.383 184.179 234.104C183.186 235.27 182.556 236.16 182.29 236.88C182.564 236.926 182.97 237.201 183.344 237.229C183.656 237.256 183.985 237.263 184.332 237.266C187.595 237.264 192.025 236.371 194.959 236.056C196.663 235.874 198.009 235.955 198.73 236.185C200.097 236.651 200.827 238.137 200.36 239.504C199.905 240.838 198.478 241.567 197.137 241.162C197.045 241.509 196.215 241.089 195.534 241.125C193.91 241.213 191.789 241.458 189.654 241.639C185.703 241.975 181.72 241.926 179.865 240.825C177.657 239.508 176.334 236.521 181.069 231.358C181.31 231.099 181.512 230.831 181.684 230.574Z" fill="#00006E"/><path fill-rule="evenodd" clip-rule="evenodd" d="M222.064 235.455C221.845 235.249 221.589 234.919 221.26 234.802C218.943 233.99 215.288 233.938 212.036 235.017C208.888 236.069 206.104 238.198 205.484 241.601C205.373 242.237 205.841 242.623 206.39 242.989C207.217 243.54 208.337 243.927 209.568 244.253C214.168 245.47 220.163 245.637 221.974 246.191C223.34 246.658 224.069 248.148 223.604 249.51C223.137 250.877 221.652 251.607 220.285 251.141C218.25 250.378 210.674 249.756 206.145 247.7C202.76 246.161 200.844 243.849 201.519 240.822C202.586 235.798 206.766 232.772 211.463 231.328C213.356 230.747 215.318 230.412 217.161 230.299C220.36 230.101 223.194 230.694 224.85 231.717C225.849 232.337 226.459 233.171 226.816 234.051C227.421 235.531 227.151 237.465 225.143 239.711C225.265 239.568 225.43 239.361 225.43 239.361C225.43 239.361 224.291 240.757 223.345 240.97C223.024 241.045 222.517 241.035 221.642 240.795C220.283 240.32 219.561 238.827 220.041 237.465C220.336 236.618 221.023 236.021 221.824 235.805C221.914 235.678 221.991 235.546 222.064 235.455ZM223.055 235.773C223.164 235.794 223.269 235.824 223.373 235.86C223.258 235.81 223.151 235.784 223.055 235.773Z" fill="#00006E"/><path fill-rule="evenodd" clip-rule="evenodd" d="M234.636 243.895C233.749 244.487 232.941 245.143 232.256 245.856C231.088 247.073 230.311 248.471 230.329 250.008C230.333 250.473 230.671 250.825 231.065 251.196C231.882 251.948 233.09 252.571 234.488 253.148C240.305 255.565 249.047 256.932 252.252 258.568C253.523 259.254 254.003 260.839 253.317 262.11C252.63 263.38 251.043 263.854 249.775 263.174C246.212 261.154 235.411 259.189 230.138 255.842C227.555 254.203 226.111 252.19 226.166 249.977C226.217 247.637 227.227 245.466 228.931 243.601C231.89 240.358 236.999 238.033 241.597 237.187C246.139 236.353 250.129 237.183 251.739 239.343C252.685 240.613 253.05 242.363 252.306 244.714C251.528 247.211 249.345 248.719 246.642 249.47C243.391 250.376 239.353 250.056 236.941 249.338C235.916 249.041 235.266 248.278 234.843 247.359C234.731 247.116 234.645 246.782 234.587 246.457C234.267 245.853 234.189 245.126 234.418 244.425C234.525 244.157 234.589 243.984 234.636 243.895ZM239.627 244.966C241.018 245.346 242.795 245.584 244.475 245.442C246.221 245.29 247.972 244.909 248.526 243.424C248.816 242.634 248.951 242.023 248.64 241.579C248.039 240.717 246.663 240.526 245.064 240.538C243.356 240.545 241.404 240.915 239.479 241.558C238.771 241.801 238.066 242.076 237.376 242.388C237.725 242.428 238.053 242.545 238.362 242.751C238.619 242.923 239.633 243.484 239.621 244.938L239.627 244.966Z" fill="#00006E"/><path fill-rule="evenodd" clip-rule="evenodd" d="M253.609 264.778C253.883 265.934 253.331 267.167 252.218 267.713C250.922 268.35 249.352 267.814 248.716 266.518C248.381 265.725 248.222 264.25 248.945 262.392C250.18 259.219 253.769 253.913 256.787 249.791C258.439 247.539 259.897 245.626 260.94 244.683C261.808 243.895 262.643 243.669 263.185 243.623C263.623 243.588 264.004 243.739 264.365 243.883C265.043 244.162 265.652 244.891 265.85 246.379C265.948 247.17 265.779 248.56 265.294 250.768C264.829 252.13 263.342 252.864 261.975 252.398C261.282 252.162 260.756 251.666 260.46 251.055C260.035 251.62 259.61 252.233 259.185 252.877C257.243 255.809 255.388 259.349 254.288 262.079C253.825 263.22 254.086 264.615 253.609 264.778Z" fill="#00006E"/><path fill-rule="evenodd" clip-rule="evenodd" d="M259.228 248.474C259.224 248.162 259.275 247.858 259.357 247.587C259.559 246.903 260.068 245.966 261.265 245.296C262.343 244.696 264.187 244.072 266.236 243.682C269.337 243.093 272.85 242.96 274.659 243.673C276.051 244.221 276.838 245.137 276.994 246.285C277.097 247.03 276.982 248.001 276.218 249.114C274.987 251.01 271.707 252.695 268.318 253.76C268.654 255.874 268.948 258.206 269.401 260.318C269.629 261.375 269.92 262.358 270.302 263.183C270.576 263.766 270.875 264.263 271.375 264.464C271.979 264.713 272.709 264.378 273.748 263.832C275.044 263.196 276.613 263.731 277.25 265.027C277.887 266.323 277.351 267.893 276.055 268.53C272.079 270.357 269.476 269.642 267.702 267.9C266.558 266.768 265.711 265.053 265.198 262.978C264.592 260.482 264.397 257.416 264.118 254.747C263.591 254.825 263.082 254.883 262.603 254.914C261.037 255.017 259.75 254.841 258.965 254.489C258.284 254.188 257.835 253.729 257.555 253.239C257.046 252.339 256.931 250.795 258.755 248.934C258.916 248.773 259.073 248.621 259.228 248.474ZM272.521 247.595C272.074 247.5 271.527 247.345 270.99 247.393C269.661 247.508 268.177 247.833 266.848 248.243C267.148 248.751 267.393 249.408 267.603 250.179C269.611 249.554 271.485 248.657 272.521 247.595Z" fill="#00006E"/><path fill-rule="evenodd" clip-rule="evenodd" d="M293.596 272.367C293.651 272.406 293.712 272.443 293.778 272.466C294.678 272.773 295.983 272.928 297.783 272.99C298.923 273.026 299.908 273.084 300.912 273.011C301.727 272.952 302.55 272.775 303.512 272.409C306.235 271.369 306.616 270.852 308.024 270.259C308.602 270.014 309.332 269.758 310.386 269.46C311.781 269.089 313.213 269.919 313.584 271.314C313.951 272.708 313.118 274.145 311.725 274.511C310.931 274.709 310.376 274.872 309.935 275.037C308.462 275.592 308.039 276.106 305.194 277.071C304.021 277.471 302.989 277.687 301.995 277.78C300.532 277.917 299.166 277.804 297.548 277.688C294.41 277.475 292.395 276.935 291.201 276.254C289.382 275.217 288.768 273.855 288.835 272.347C288.891 271.135 289.533 269.67 290.685 268.158C292.076 266.333 294.203 264.28 295.838 262.28C296.561 261.396 297.189 260.542 297.522 259.719C297.718 259.238 297.849 258.778 297.485 258.396C297.087 257.986 296.526 258.121 295.891 258.331C294.991 258.624 294.005 259.171 292.984 259.88C287.62 263.602 281.422 270.986 279.376 271.998C277.285 273.084 276.373 271.5 276.176 270.937C276.055 270.596 275.974 269.985 276.345 269.222C276.796 268.286 279.718 265.152 280.778 263.772C282.696 261.222 286.525 253.609 287.551 252.453C288.148 251.784 288.788 251.634 289.133 251.562C290.197 251.33 291.005 251.753 291.653 252.522C291.912 252.826 292.189 253.357 292.227 254.202C292.244 254.492 292.166 255.076 291.92 255.997L291.888 256.091C292.351 255.797 292.81 255.532 293.254 255.31C296.086 253.887 298.554 253.951 300.262 255.654C302.325 257.69 302.016 260.337 300.227 263.173C298.95 265.205 296.865 267.383 295.2 269.393C294.358 270.411 294.18 271.95 293.596 272.367Z" fill="#00006E"/></svg>