<svg width="500" height="501" viewBox="0 0 500 501" fill="none" xmlns="http://www.w3.org/2000/svg"><path fill-rule="evenodd" clip-rule="evenodd" d="M223.301 130.809C223.092 130.237 223.02 129.607 223.111 128.962C223.414 126.861 225.365 125.401 227.462 125.702C228.474 126.164 229.645 126.176 230.041 127.262C230.139 127.525 230.422 127.691 230.468 128.008C230.532 128.445 230.963 128.938 230.785 129.641C230.663 130.109 230.523 131.149 229.692 132.451C229.074 133.419 228.244 134.643 227.335 136.119C226.868 136.881 226.404 137.69 225.988 138.548C223.834 142.948 221.973 147.806 221.95 147.861C220.624 151.747 218.776 156.612 217.415 161.416C216.549 164.484 215.939 167.508 215.743 170.168C215.46 172.271 213.522 173.749 211.422 173.466C209.317 173.183 207.839 171.245 208.122 169.142C208.59 166.8 209.367 164.252 210.35 161.632C212.395 156.178 215.205 150.429 217.242 145.986C217.264 145.93 219.958 141.329 221.801 136.68C222.239 135.584 222.555 134.48 222.818 133.442C223.064 132.457 223.198 131.572 223.301 130.809ZM225.998 133.242C226.115 133.292 226.237 133.335 226.368 133.315C226.242 133.296 226.118 133.272 225.998 133.242ZM224.631 132.602C224.903 132.888 225.196 133.091 225.601 133.122C225.249 132.994 224.922 132.818 224.631 132.602ZM223.371 129.922C223.287 130.111 223.209 130.285 223.248 130.36C223.283 130.43 223.308 130.5 223.328 130.571L223.378 130.167C223.388 130.088 223.385 130.005 223.371 129.922Z" fill="#00006E"/><path fill-rule="evenodd" clip-rule="evenodd" d="M227.441 147.382C227.763 147.155 228.08 146.919 228.394 146.676C232.204 143.736 235.803 139.948 236.328 137.555C236.529 136.569 236.48 135.766 236.107 135.172C235.701 134.525 234.937 134.237 234.139 134.089C232.62 133.809 230.869 134.408 229.568 135.363C229.136 135.678 228.927 136.17 228.698 136.627C228.57 136.876 228.723 137.169 228.722 137.469C228.424 139.57 226.478 141.035 224.375 140.737C222.277 140.44 220.81 138.493 221.107 136.392C222.438 131.338 227.619 128.359 232.704 128.829C235.239 129.063 237.574 129.912 239.09 131.565C240.546 133.155 241.46 135.372 240.821 138.467C240.175 141.951 234.864 148.236 229.462 152.209C230.141 154.66 230.566 157.211 230.988 158.687C231.467 160.365 232.057 161.909 232.79 163.381C233.491 164.796 234.373 166.118 235.438 167.424C236.723 169.112 236.398 171.526 234.712 172.814C233.026 174.101 230.612 173.776 229.322 172.088C228.009 170.237 226.959 168.379 226.139 166.414C225.347 164.508 224.727 162.525 224.262 160.379C224.009 159.222 223.826 157.362 223.504 155.439C219.886 156.545 216.883 155.688 215.42 153.016C214.633 151.579 214.769 150.053 215.511 148.605C216.503 146.654 219.139 144.974 220.603 144.566C223.569 143.721 225.798 144.952 227.441 147.382Z" fill="#00006E"/><path fill-rule="evenodd" clip-rule="evenodd" d="M254.281 138.241C253.968 137.568 253.845 136.798 253.975 136.012C254.312 133.917 256.287 132.492 258.385 132.831C260.958 133.736 262.028 134.678 262.29 135.549C262.636 136.711 263.17 138.086 262.003 139.471C261.71 139.824 261.354 140.306 260.758 140.778C260.003 141.37 258.896 142.13 257.732 143.313C256.302 145 254.846 146.63 253.563 148.401C250.536 152.581 248.028 157.048 245.533 161.488C240.155 171.06 235.522 180.948 230.713 191.044C229.726 192.924 227.401 193.65 225.519 192.665C223.641 191.681 222.915 189.355 223.897 187.475C228.587 179.322 233.244 171.379 238.113 163.543C241.541 158.022 245.132 152.615 248.862 147.197C249.658 146.048 250.467 144.906 251.218 143.721C251.974 142.533 252.646 141.308 253.381 140.097C253.709 139.49 254.003 138.842 254.281 138.241Z" fill="#00006E"/><path fill-rule="evenodd" clip-rule="evenodd" d="M256.833 144.168C255.915 144.586 254.833 144.642 253.823 144.238C251.85 143.45 250.89 141.211 251.678 139.24C252.304 138.323 252.55 137.816 252.941 137.434C253.248 137.128 253.524 136.91 254.073 136.381C255.601 134.809 256.616 133.965 257.379 133.748C258.931 133.309 260.088 133.355 260.907 134.297C261.389 134.85 262.041 135.789 262.055 137.371C262.067 138.416 261.952 139.889 261.742 141.702C261.457 144.187 261.064 147.361 260.538 150.827C258.647 163.183 255.419 179.323 255.345 180.163C255.062 182.267 253.124 183.744 251.019 183.46C248.914 183.177 247.44 181.24 247.724 179.137C247.877 178.293 252.911 162.316 255.675 149.914C256.133 147.866 256.543 145.921 256.833 144.168Z" fill="#00006E"/><path fill-rule="evenodd" clip-rule="evenodd" d="M254.095 165.17C252.577 165.068 250.719 165.255 249.065 165.423C246.963 165.634 245.216 166.165 244.652 166.402C242.593 166.913 240.506 165.654 239.995 163.594C239.484 161.534 240.741 159.447 242.8 158.937C244.069 158.803 249.204 159.236 253.461 160.149C255.261 160.536 256.835 161.067 258.024 161.427C259.098 161.752 259.735 162.254 260.364 162.671C260.825 162.978 260.835 163.49 261.156 163.889C261.307 164.08 261.215 164.325 261.35 164.534C261.471 164.728 261.337 164.921 261.446 165.133C261.536 165.309 261.388 165.459 261.46 165.653C261.518 165.81 261.384 165.922 261.431 166.091C261.67 166.944 260.868 167.38 260.604 168.752C259.136 170.284 256.7 170.336 255.164 168.867C254.139 167.882 253.778 166.461 254.095 165.17ZM255.756 165.457C255.842 165.553 255.911 165.659 255.924 165.783C255.935 165.885 256.181 165.889 256.311 165.909C256.298 165.826 256.297 165.688 256.218 165.649C256.08 165.576 255.926 165.513 255.756 165.457ZM255.037 163.444L255.049 163.431C255.039 163.434 255.033 163.438 255.037 163.444Z" fill="#00006E"/><path fill-rule="evenodd" clip-rule="evenodd" d="M272.428 145.456C271.365 144.647 270.748 143.3 270.94 141.877C271.228 139.775 273.166 138.298 275.266 138.581C276.593 139.194 277.745 139.377 278.184 140.399C278.316 140.701 278.601 140.886 278.67 141.216C278.77 141.722 279.106 142.155 279.051 142.743C278.913 144.134 278.19 146.245 276.627 148.489C276.254 149.02 275.907 149.59 275.568 150.17C274.242 152.403 272.99 154.679 272.675 155.443C271.878 157.517 271.252 159.604 270.722 161.711C269.384 167.002 268.575 172.312 266.891 177.536C266.103 179.508 263.865 180.471 261.896 179.686C259.923 178.901 258.958 176.663 259.746 174.692C262.358 169.193 263.972 163.466 266.287 157.842C266.888 156.38 267.503 154.918 268.224 153.479C268.603 152.677 270.358 150.474 271.563 147.965C271.966 147.135 272.245 146.267 272.428 145.456ZM274.004 146.163C274.072 146.2 274.149 146.218 274.24 146.203C274.157 146.192 274.08 146.179 274.004 146.163ZM272.361 143.692C272.31 143.737 272.269 143.788 272.284 143.822C272.391 144.051 272.235 144.332 272.386 144.494C272.459 144.573 272.521 144.661 272.572 144.754L272.609 144.558C272.658 144.265 272.379 143.883 272.361 143.692Z" fill="#00006E"/><path fill-rule="evenodd" clip-rule="evenodd" d="M273.571 148.773C272.538 147.952 271.959 146.622 272.157 145.225C272.454 143.123 274.405 141.66 276.503 141.958C277.944 142.418 278.774 142.73 279.195 143.262C279.83 144.07 280.516 144.761 280.473 145.883C280.463 146.249 280.326 146.755 280.244 147.586C280.181 148.345 279.967 149.711 279.74 151.548C279.541 153.133 279.29 155.035 279.19 157.13C278.981 161.57 279.218 166.762 279.602 170.898C279.672 171.619 279.866 172.337 280.101 173.012C280.485 171.987 280.908 170.749 281.372 169.277L283.708 161.081C284.566 158.332 285.522 155.327 286.692 152.459C287.537 150.395 288.512 148.423 289.624 146.64C290.816 144.885 293.213 144.43 294.964 145.624C296.719 146.818 297.175 149.212 295.983 150.967C294.977 152.325 294.068 153.846 293.261 155.447C291.962 158.033 290.86 160.767 289.863 163.267L286.958 171.229C285.096 176.091 283.579 178.79 282.463 179.944C280.879 181.576 279.392 181.642 278.252 181.178C277.299 180.79 276.126 179.693 275.55 177.573C274.578 173.996 274.681 166.278 274.552 159.45C274.517 157.807 274.434 156.224 274.315 154.769C274.103 152.175 273.788 150.052 273.571 148.773ZM275.347 149.56C275.37 149.569 275.394 149.573 275.424 149.573L275.347 149.56Z" fill="#00006E"/><path fill-rule="evenodd" clip-rule="evenodd" d="M300.522 153.01L300.513 153.005C298.775 151.792 298.349 149.394 299.559 147.652C301.043 146.399 301.791 145.641 302.313 145.421C303.671 144.847 304.49 144.512 305.075 144.78C305.812 145.12 306.659 145.196 307.003 145.974C307.128 146.251 307.421 146.454 307.466 146.815C307.508 147.166 307.768 147.572 307.653 148.138C307.491 148.897 306.584 150.844 305.241 153.607C304.799 154.512 304.42 155.566 303.985 156.674C301.777 162.275 298.958 169.676 297.1 174.509C296.521 176.099 295.509 178.27 294.747 180.419C294.351 181.53 294.075 182.63 294.012 183.567C293.729 185.67 291.791 187.148 289.686 186.864C287.586 186.581 286.108 184.643 286.391 182.54C286.63 181.353 287.055 180.02 287.685 178.673C288.801 176.279 290.391 173.765 291.311 171.979C293.586 167.348 297.336 160.389 299.732 154.891C300.017 154.241 300.284 153.612 300.522 153.01Z" fill="#00006E"/><path fill-rule="evenodd" clip-rule="evenodd" d="M292.91 175.017C294.266 174.893 295.991 174.819 297.434 174.204C303.847 171.468 311.721 166.562 313.346 161.706C315.319 155.542 314.4 152.308 311.713 151.405C310.563 151.018 309.227 151.134 307.971 151.499C307.114 151.749 306.336 152.219 305.618 152.725C304.904 153.23 304.44 153.937 304.039 154.611C303.835 154.953 303.994 155.348 304.003 155.715C303.71 157.817 301.763 159.284 299.665 158.991C297.561 158.697 296.094 156.752 296.387 154.65C297.55 150.478 302.29 146.997 307.585 146.571C309.547 146.413 311.482 146.497 313.212 147.116C317.512 148.658 321.046 153.112 318.248 163.171C316.171 171.091 301.678 180.588 293.872 182.798C291.572 183.449 289.676 183.404 288.446 183.063C287.292 182.743 286.487 182.063 285.87 181.302C284.834 180.029 284.246 177.773 285.951 174.446C286.993 172.598 289.342 171.946 291.192 172.99C292.016 173.457 292.607 174.187 292.91 175.017Z" fill="#00006E"/><path fill-rule="evenodd" clip-rule="evenodd" d="M189.696 202.78C188.828 201.792 188.493 200.386 188.932 199.049C189.589 197.031 191.766 195.931 193.78 196.591C195.338 197.605 196.546 198.271 196.665 199.65C196.697 200.003 196.895 200.315 196.84 200.688C196.729 201.505 196.763 202.485 196.089 203.484C195.268 204.701 193.84 206.176 192.364 207.782C191.224 209.025 190.237 210.423 189.611 211.45C188.682 213.147 187.835 214.88 187.082 216.658C183.885 224.177 181.834 232.144 178.106 239.325C177.023 241.151 174.662 241.756 172.834 240.675C171.011 239.595 170.404 237.234 171.488 235.408C173.1 233.039 174.542 230.575 175.852 228.007C179.075 221.7 181.722 215.052 185.626 209.092C186.299 207.926 187.563 206.488 188.58 204.902C189.033 204.201 189.398 203.474 189.696 202.78ZM191.147 203.81C191.213 203.861 191.29 203.894 191.39 203.9C191.306 203.873 191.224 203.843 191.147 203.81ZM190.064 200.961C190.025 200.974 189.946 201 189.947 201.031C189.964 201.177 189.807 201.295 189.851 201.419C189.919 201.619 189.959 201.829 189.994 202.034C190.118 201.688 190.088 201.36 190.134 201.07C190.139 201.033 190.073 200.982 190.064 200.961Z" fill="#00006E"/><path fill-rule="evenodd" clip-rule="evenodd" d="M198.845 196.442C201.04 196.06 202.794 195.768 203.736 195.646C207.006 195.222 207.08 198.363 206.8 199.092C206.696 199.354 206.253 199.821 205.312 200.484C204.843 200.817 204.004 201.231 202.768 202.069C202.074 202.538 201.407 203.062 200.457 203.749C198.757 204.302 196.945 203.6 196.026 202.155C189.555 204.033 181.663 206.773 180.696 207.626C179.01 208.913 176.595 208.588 175.31 206.901C174.02 205.213 174.345 202.798 176.036 201.511C176.511 201.205 177.769 200.601 179.676 200.126C183.54 199.167 190.753 197.881 196.397 196.875L197.502 196.68C197.683 196.583 197.881 196.501 198.083 196.434L198.845 196.442Z" fill="#00006E"/><path fill-rule="evenodd" clip-rule="evenodd" d="M205.152 210.361C204.89 210.258 204.642 210.124 204.403 209.96C202.653 208.754 202.213 206.358 203.418 204.611C205.659 202.787 206.756 201.923 207.41 201.901C208.657 201.859 209.603 201.636 210.209 202.33C210.483 202.643 210.93 202.798 211.091 203.248C211.282 203.766 211.833 204.576 211.502 205.831C211.289 206.642 210.808 207.869 210.208 209.508C209.859 210.458 209.56 211.578 209.196 212.784C208.062 216.555 206.612 221.283 205.224 225.667C203.165 232.171 201.326 237.889 200.994 238.707C200.057 240.613 197.754 241.402 195.845 240.468C193.941 239.534 193.152 237.229 194.084 235.323C194.507 234.596 197.1 229.503 199.754 223.584C201.605 219.466 203.527 215.001 204.806 211.354C204.926 211.015 205.039 210.684 205.152 210.361Z" fill="#00006E"/><path fill-rule="evenodd" clip-rule="evenodd" d="M221.21 208.072C220.659 207.737 220.182 207.258 219.85 206.653C218.824 204.796 219.494 202.454 221.352 201.427C221.515 201.386 221.68 201.442 221.836 201.38C222.831 200.981 223.665 200.382 224.722 200.287C226.01 200.162 226.803 200.092 227.173 200.346C227.889 200.843 228.684 201.122 228.851 201.97C228.912 202.285 229.153 202.583 229.099 202.984C229.057 203.295 229.187 204.082 228.395 205.176C227.965 205.769 227.1 206.742 226.019 208.657C225.244 210.025 224.495 211.923 223.468 214.318C221.795 218.58 220.527 223.095 219.635 227.708C218.734 232.347 218.258 237.049 217.915 241.648C217.632 243.751 215.693 245.229 213.593 244.946C211.488 244.663 210.01 242.725 210.293 240.622C211.403 234.909 212.851 229.092 214.725 223.444C215.987 219.637 217.396 215.911 219.125 212.397C219.902 210.689 220.629 209.277 221.21 208.072ZM223.272 202.677C223.202 202.762 223.132 202.843 223.14 202.891L223.153 203.048L223.272 202.677Z" fill="#00006E"/><path fill-rule="evenodd" clip-rule="evenodd" d="M217.628 229.088C215.401 229.164 213.253 229.677 211.071 229.924C207.684 230.309 204.367 230.687 200.879 230.973C198.756 230.9 197.094 229.119 197.167 226.999C197.236 224.877 199.017 223.214 201.141 223.287C205.452 223.909 209.548 224.626 213.811 224.693C214.882 224.71 215.971 224.785 217.034 224.572C217.763 224.426 218.382 224.075 219.084 223.804C219.519 223.535 219.733 223.304 219.967 223.141C220.609 222.688 221.158 223.181 221.666 223.071C221.838 223.033 221.937 223.219 222.106 223.204C222.929 223.13 223.039 224.102 223.809 224.538C224.166 224.74 223.994 225.248 224.346 225.634C224.685 226.003 224.348 226.608 224.741 227.676C224.433 229.775 222.483 231.235 220.385 230.933C219.187 230.76 218.198 230.053 217.628 229.088ZM218.764 229.139C219.063 229.265 219.482 229.263 219.764 229.548C219.907 229.691 220.133 229.515 220.313 229.641C220.457 229.741 220.624 229.561 220.815 229.573C220.571 229.552 220.205 229.384 219.881 229.3C219.497 229.259 219.132 229.189 218.764 229.139ZM220.923 229.571C220.903 229.572 220.884 229.574 220.864 229.576L220.825 229.574C220.849 229.575 220.878 229.582 220.901 229.592C220.92 229.6 220.941 229.584 220.965 229.558L220.923 229.571Z" fill="#00006E"/><path fill-rule="evenodd" clip-rule="evenodd" d="M235.656 212.685C234.964 211.858 234.626 210.746 234.815 209.601C235.161 207.507 237.14 206.087 239.232 206.432C239.572 206.616 239.938 206.534 240.185 206.75C241.063 207.511 242.123 207.797 242.278 208.839C242.366 209.467 242.838 210.056 242.605 210.797C242.397 211.471 242.127 212.302 241.816 212.85C241.331 213.893 240.786 214.835 240.353 215.927C239.945 216.942 239.649 218.007 239.347 219.077C238.182 223.228 237.135 227.527 235.938 231.769C234.73 236.055 233.574 240.283 232.447 244.333C231.73 246.33 229.526 247.369 227.529 246.651C225.531 245.933 224.493 243.729 225.21 241.732C226.707 238.375 228.324 234.927 229.845 231.355C231.32 227.904 232.775 224.414 233.955 220.882C234.567 219.045 235.241 217.225 235.532 215.361C235.674 214.451 235.664 213.57 235.656 212.685ZM237.411 213.88C237.574 213.987 237.757 214.057 237.984 214.02C237.786 213.988 237.595 213.941 237.411 213.88ZM235.494 211.031C235.429 211.183 235.379 211.334 235.432 211.42C235.516 211.566 235.588 211.721 235.646 211.876L235.649 211.491C235.639 211.378 235.56 211.201 235.494 211.031Z" fill="#00006E"/><path fill-rule="evenodd" clip-rule="evenodd" d="M253.779 216.399C256.434 215.597 258.728 215.684 259.885 215.912C260.686 216.069 261.207 216.482 261.601 216.891C262.72 217.393 263.646 218.091 264.397 218.917C267.447 222.281 267.774 228.523 265.195 233.877C262.971 238.507 258.938 242.329 254.011 242.699C251.233 242.908 248.104 242.143 244.871 239.59C243.534 238.542 242.65 237.276 242.137 235.859C241.458 233.987 241.394 231.859 241.718 229.784C242.238 226.147 243.756 223.545 245.506 221.523C247.588 219.129 250.184 217.705 252.601 216.803C252.862 216.662 253.143 216.549 253.444 216.469L253.779 216.399ZM251.601 222.798C251.138 222.982 250.683 223.214 250.25 223.503C248.313 224.791 246.829 227.067 246.369 230.41C246.248 231.491 246.247 232.592 246.526 233.592C246.739 234.356 247.171 235.028 247.895 235.543C252.197 238.57 255.826 237.084 258.008 234.162C259.596 232.031 260.424 229.209 260.364 226.769C260.332 225.651 260.092 224.614 259.421 223.967C258.349 224.313 257.236 224.165 256.33 223.647C256.035 223.719 255.727 223.808 255.403 223.907C253.979 224.281 252.535 223.807 251.601 222.798Z" fill="#00006E"/><path fill-rule="evenodd" clip-rule="evenodd" d="M277.546 219.832C277.675 220.48 277.966 221.139 277.918 222.04C277.851 223.198 277.712 224.486 277.261 225.862C276.503 228.157 275.111 230.556 273.773 233.066C270.46 239.265 266.536 245.721 264.698 250.289C264.042 252.307 265.149 254.478 267.17 255.133C269.185 255.787 271.359 254.681 272.015 252.662C272.728 249.712 274.065 245.861 275.662 241.832C277.144 238.109 278.761 234.258 280.169 230.788C280.58 229.788 280.948 228.81 281.365 227.909C281.677 227.239 281.998 226.615 282.329 226.022C282.718 225.325 283.058 224.702 283.43 224.103C284.253 222.781 284.737 221.714 285.189 220.698C285.429 218.59 283.907 216.683 281.801 216.444C279.69 216.205 277.785 217.724 277.546 219.832Z" fill="#00006E"/><path fill-rule="evenodd" clip-rule="evenodd" d="M277.596 222.172C277.763 221.996 277.92 221.815 278.058 221.634C279.161 220.176 280.22 218.717 281.241 218.268C282.149 217.781 283.577 217.306 285.167 216.952C287.244 216.491 289.569 216.241 291.402 216.719C293.52 217.271 295.042 218.625 295.575 220.961C297.106 227.334 292.119 234.587 286.533 238.675C282.833 241.382 278.809 242.393 276.071 241.802C273.658 241.28 271.909 239.629 271.015 236.756C270.499 234.698 271.747 232.606 273.807 232.088C275.724 231.606 277.667 232.656 278.345 234.464C278.902 234.316 279.978 234.701 280.805 234.377C282.906 233.558 285.197 232.095 287.043 230.202C289.381 227.806 291.212 224.857 290.752 221.906C290.665 221.383 290.194 221.219 289.694 221.131C289.006 221.009 288.232 221.008 287.482 221.131C286.026 221.367 284.651 221.995 283.906 222.513C283.862 222.547 283.984 222.631 283.951 222.694C283.848 222.867 283.79 223.077 283.707 223.293C283.403 224.054 283.183 224.92 283.009 225.693C283.014 225.807 283.008 225.922 282.993 226.036C283 226.057 282.997 226.078 282.989 226.101L282.993 226.036C282.988 226.002 282.972 225.973 282.956 225.946C282.797 226.683 282.683 227.312 282.584 227.648C282.247 228.793 281.341 229.084 281.076 229.333C280.811 229.576 280.463 229.562 280.208 229.703C279.289 230.201 278.428 229.674 277.545 229.469C276.766 229.289 276.268 228.414 275.532 227.037C275.398 226.787 275.463 226.229 275.342 225.26C275.497 223.856 276.39 222.711 277.596 222.172Z" fill="#00006E"/><path fill-rule="evenodd" clip-rule="evenodd" d="M300.41 225.878C299.518 224.6 299.463 222.849 300.4 221.492C304.405 218.312 310.488 219.235 306.422 225.905C306.481 225.867 306.572 225.85 306.609 225.765C306.623 225.728 306.71 225.928 306.729 225.861C306.484 226.211 306.198 226.509 305.875 226.75L305.863 226.765C305.355 227.5 304.786 228.362 304.228 229.432C303.795 230.266 303.434 231.229 303.032 232.234C301.652 235.679 300.123 239.786 298.71 243.583C296.736 248.878 295.127 253.546 294.671 254.919C293.855 256.879 291.606 257.808 289.647 256.992C287.687 256.177 286.754 253.923 287.575 251.964C288.239 250.654 290.7 246.282 293.365 241.199C295.24 237.632 297.249 233.762 298.79 230.409C299.235 229.44 299.679 228.528 299.96 227.646C300.163 227.017 300.306 226.427 300.41 225.878ZM300.553 223.607C300.5 223.746 300.469 223.864 300.501 223.923C300.573 224.049 300.604 224.178 300.632 224.302C300.626 224.053 300.594 223.817 300.553 223.607Z" fill="#00006E"/><path fill-rule="evenodd" clip-rule="evenodd" d="M317.434 227.95C317.887 227.773 318.379 227.588 318.902 227.401C322.257 226.198 326.212 225.326 328.508 227.083C329.035 227.487 329.538 227.963 329.938 228.613C331.093 230.463 331.15 232.598 330.488 234.92C329.59 238.075 327.101 241.701 325.22 245.169C324.21 247.037 323.341 248.805 323.545 250.362C323.84 252.454 325.105 253.635 326.64 254.012C328.329 254.426 330.259 253.741 331.765 252.467C333.456 251.18 335.871 251.505 337.156 253.193C338.446 254.881 338.121 257.295 336.43 258.582C332.82 261.062 328.35 261.806 324.704 260.527C320.973 259.218 317.849 256.18 317.608 250.911C317.51 249.082 318.015 247.084 319.048 245.047C320.599 241.982 323.291 238.712 325.002 235.628C325.96 233.898 326.807 232.323 326.03 230.962C325.687 230.436 325.025 230.776 324.4 230.989C323.068 231.441 321.827 232.461 320.873 233.362C320.632 233.912 320.254 234.411 319.752 234.81L319.082 235.136C307.913 246.145 303.582 246.37 307.499 239.202C299.791 240.389 300.796 235.159 314.747 229.061L314.977 228.779C315.657 228.27 316.408 227.994 317.257 227.951L317.434 227.95Z" fill="#00006E"/><path fill-rule="evenodd" clip-rule="evenodd" d="M323.626 247.112C325.659 247.453 327.073 249.355 326.795 251.416C325.563 257.746 319.229 261.688 313.196 262.362C310.41 262.674 307.804 262.415 306.021 261.57C303.525 260.386 302.131 258.438 302.616 255.756C303.128 252.61 306.976 248.7 310.93 245.678C311.836 244.987 312.718 244.33 313.532 243.697C315.496 242.176 317.282 241.243 318.549 240.801C319.971 240.303 321.036 240.914 321.931 241.222C322.374 241.373 322.588 241.792 322.956 242.061C323.861 242.731 323.925 243.974 324.108 245.723C324.035 246.228 323.869 246.697 323.626 247.112ZM317.297 247.568C316.605 247.767 315.863 248.044 315.111 248.436C314.411 248.806 313.713 249.266 313.044 249.775C310.415 251.769 307.967 254.365 307.745 256.447C307.758 256.318 308.018 256.583 308.068 256.464C308.235 256.066 308.957 256.666 309.49 256.696C310.107 256.73 310.77 256.667 311.464 256.562C312.898 256.34 314.403 255.779 315.773 255.009C317.559 254.004 319.018 252.459 319.174 250.389C319.244 249.871 319.412 249.39 319.661 248.965C318.693 248.802 317.866 248.286 317.297 247.568ZM319.136 247.449C318.933 247.384 318.651 247.248 318.423 247.293L318.408 247.296C318.571 247.366 318.733 247.44 318.9 247.523C318.95 247.55 319.045 247.503 319.136 247.449ZM316.46 245.042C316.464 244.904 316.477 244.766 316.496 244.627C316.437 244.776 316.433 244.913 316.46 245.042Z" fill="#00006E"/><path fill-rule="evenodd" clip-rule="evenodd" d="M349.523 236.554C349.511 235.509 349.476 234.528 349.828 233.851C350.347 232.85 350.835 231.829 352.184 231.612C354.167 231.27 355.084 231.881 355.448 232.912C355.597 233.342 355.866 233.945 355.657 234.723C355.608 234.905 355.523 235.134 355.415 235.385C355.531 235.66 355.601 236.06 355.727 236.327C356.081 237.064 356.131 237.79 356.271 238.47C356.605 240.053 355.538 241.059 354.57 242.323C353.666 242.996 352.558 243.21 351.531 243.005L349.715 246.582C348.352 249.489 347.164 252.462 346.273 255.528C345.404 258.504 344.895 261.549 344.687 264.668C344.404 266.771 342.466 268.249 340.366 267.966C338.26 267.682 336.782 265.745 337.066 263.642C337.795 260.091 338.898 256.692 340.314 253.39C341.69 250.193 343.28 247.093 345.102 244.105L348.54 238.363C348.694 237.695 349.026 237.066 349.523 236.554ZM349.743 236.308C349.725 236.332 349.707 236.356 349.685 236.38L349.659 236.422L349.687 236.397L349.743 236.346L349.794 236.262L349.743 236.308Z" fill="#00006E"/><path fill-rule="evenodd" clip-rule="evenodd" d="M369.292 235.354C369.244 235.018 369.242 234.67 369.289 234.317C369.572 232.214 371.511 230.737 373.611 231.019C375.592 231.38 376.728 232.345 377.282 233.651C377.711 234.669 377.996 236.141 377.27 237.905C376.64 239.439 375.102 241.676 373.084 244.001C369.217 248.461 363.742 253.593 362.982 254.481L358.618 260.172C358.193 260.736 357.449 261.869 356.927 262.197C356.298 262.586 355.686 262.738 355.118 262.675C354.434 262.599 353.691 262.372 353.111 261.559C351.192 258.942 350.925 252.214 350.616 245.877C350.554 244.546 350.438 243.245 350.279 242.016C350.023 240.039 349.633 238.323 349.238 237.014C348.054 236.219 347.36 234.792 347.572 233.285C347.865 231.184 349.812 229.716 351.915 230.011C352.583 230.246 353.316 230.291 353.838 230.842C354.558 231.605 355.766 233.064 355.742 235.66C355.725 237.573 355.425 240.277 355.239 243.341C355.175 244.437 355.17 245.574 355.198 246.717C355.261 249.614 355.406 252.561 355.844 254.873L358.472 250.941C359.328 249.749 365.165 236.297 369.292 235.354ZM350.181 237.472C350.389 237.579 350.602 237.64 350.845 237.627C350.613 237.594 350.394 237.543 350.181 237.472ZM348.877 236.291C348.895 236.416 348.919 236.533 348.977 236.576L349.146 236.707L349.125 236.644C349.088 236.517 348.981 236.396 348.877 236.291ZM372.205 238.57C372.323 238.605 372.448 238.629 372.584 238.641C372.454 238.623 372.329 238.6 372.205 238.57Z" fill="#00006E"/><path fill-rule="evenodd" clip-rule="evenodd" d="M144.789 277.214C144.831 276.575 144.98 275.867 145.273 275.082C146.449 271.837 149.76 269.278 153.247 267.531C155.708 266.301 158.226 265.534 160.221 265.314C162.302 265.085 163.854 265.782 164.936 266.559C165.642 267.063 165.941 267.844 166.31 268.649C166.908 269.954 166.63 271.837 165.349 274.65C164.143 276.397 161.748 276.841 159.999 275.638C158.429 274.559 157.911 272.518 158.693 270.846C157.496 270.921 156.11 271.256 154.8 271.842C152.959 272.668 151.256 273.973 150.324 275.55C150.885 275.443 151.439 275.357 151.979 275.296C155.433 274.896 158.234 275.68 159.205 276.849C159.96 277.755 160.255 278.785 159.632 279.967C159.46 280.293 158.956 281.111 157.732 281.599C156.421 282.12 153.309 282.875 150.686 282.701C150.003 282.656 149.352 282.55 148.749 282.383C148.282 282.626 147.86 282.98 147.478 283.333C148.452 283.816 149.726 284.489 151.294 284.777C153.363 285.249 154.657 287.312 154.186 289.381C153.716 291.451 151.649 292.746 149.579 292.274C145.27 291.092 142.649 289.808 141.232 288.591C138.423 286.182 138.232 283.756 139.389 281.564C140.057 280.299 141.368 278.949 143.278 277.932C143.75 277.681 144.256 277.44 144.789 277.214ZM160.87 271.073C160.87 271.109 160.855 271.147 160.82 271.189C160.796 271.22 160.926 271.093 160.884 271.077L160.87 271.073Z" fill="#00006E"/><path fill-rule="evenodd" clip-rule="evenodd" d="M173.787 270.556C173.892 269.776 173.948 269.108 174.007 268.599C174.181 267.012 175.345 266.67 175.54 266.394C175.721 266.146 176.047 266.251 176.233 266.079C176.38 265.941 176.591 266.051 176.743 265.947C177.358 265.519 177.944 266.139 178.594 266.07C179.219 266.002 179.444 266.75 180.099 267.005C180.282 267.075 180.273 267.321 180.456 267.425C180.694 267.561 180.622 267.915 180.868 268.137C181.136 268.377 180.903 268.863 181.196 269.395C181.315 269.608 181.097 269.913 181.245 270.386C181.013 272.034 179.765 273.291 178.223 273.614C178.103 273.779 177.981 273.952 177.863 274.135C177.677 274.414 177.52 274.707 177.38 275.01C176.56 276.785 176.02 278.562 175.805 278.985C174.797 281.169 173.203 284.147 172.085 287.146C171.446 288.855 171.089 290.551 171.052 291.998C170.769 294.101 168.831 295.579 166.73 295.296C164.625 295.012 163.147 293.075 163.43 290.972C163.831 289.355 164.522 287.588 165.511 285.801C167.359 282.474 169.909 279.014 171.57 276.592C171.785 276.239 172.577 274.822 173.195 273.232C173.321 272.917 173.433 272.597 173.503 272.267C173.602 271.788 173.678 271.331 173.736 270.902C173.619 270.491 173.569 270.053 173.6 269.605C173.568 269.517 173.561 269.42 173.629 269.315C173.611 269.412 173.603 269.509 173.6 269.605C173.642 269.731 173.726 269.838 173.695 269.921C173.597 270.176 173.688 270.377 173.787 270.556ZM180.255 271.701C180.206 271.696 180.138 271.689 180.099 271.722C179.822 271.952 179.481 272.138 179.106 272.547C178.939 272.729 178.77 272.919 178.61 273.123C178.788 273.007 178.98 272.861 179.25 272.835C179.564 272.805 179.638 272.293 180.153 272.051C180.217 272.02 180.227 271.797 180.255 271.701Z" fill="#00006E"/><path fill-rule="evenodd" clip-rule="evenodd" d="M181.988 283.427L182.171 283.096C182.872 281.763 183.491 280.388 184.198 279.058L189.878 269.369C191.075 267.614 193.466 267.159 195.222 268.353C196.973 269.546 197.429 271.941 196.237 273.695L189.496 282.263C188.497 283.721 187.605 285.252 186.584 286.692C186.091 287.388 185.59 288.072 185.021 288.71C183.772 290.122 182.803 290.586 182.044 290.62C181.246 290.656 180.227 290.539 179.14 289.358C178.206 288.354 177.572 286.948 177.342 285.222C177.037 282.986 177.492 280.157 177.609 277.571C177.633 277.025 177.635 276.496 177.614 275.996C176.713 275.81 175.884 275.306 175.296 274.511C174.038 272.802 174.407 270.393 176.114 269.135C178.675 268.187 180.07 267.894 180.976 268.592C181.297 268.841 181.725 268.887 181.97 269.226C182.177 269.518 182.535 269.675 182.667 270.044C182.961 270.827 183.509 271.914 183.17 273.518C182.984 274.385 182.74 275.432 182.463 276.648C182.294 277.391 182.152 278.188 182.051 279.011C181.875 280.499 181.843 282.058 181.988 283.427ZM177.199 273.367C177.192 273.569 177.139 273.853 177.241 273.934C177.308 273.988 177.369 274.043 177.431 274.101C177.403 273.906 177.368 273.722 177.333 273.548C177.317 273.481 177.261 273.42 177.199 273.367Z" fill="#00006E"/><path fill-rule="evenodd" clip-rule="evenodd" d="M345.964 303.441C345.933 302.976 345.961 302.472 346.05 301.924C346.597 298.153 349.135 295.699 351.997 294.014C353.999 292.837 356.159 292.126 357.999 291.743C360.396 291.244 362.264 291.868 363.302 292.428C363.834 292.716 364.076 293.228 364.411 293.628C364.726 293.999 364.749 294.486 364.92 294.937C365.362 296.118 364.846 297.823 362.666 300.217C360.96 301.477 358.55 301.113 357.287 299.404C356.833 298.787 356.594 298.08 356.547 297.367C356.051 297.423 355.539 297.533 355.037 297.712C353.392 298.295 351.84 299.466 351.132 301.208C351.315 301.164 351.493 301.126 351.675 301.093C354.237 300.619 356.47 301.008 357.698 302.063C358.736 302.953 359.036 303.946 358.879 304.926C358.776 305.547 358.525 306.272 357.86 306.891C357.022 307.663 354.965 308.601 352.761 308.682C352.019 308.71 351.272 308.654 350.563 308.507C350.052 309.047 349.567 309.573 349.088 309.873C349.941 310.197 351.044 310.422 352.416 310.627C353.116 310.733 353.874 310.808 354.707 310.879C356.807 311.162 358.285 313.1 358.002 315.203C357.719 317.306 355.781 318.784 353.681 318.501C341.093 316.192 340.255 310.562 342.137 307.16C342.872 305.838 344.281 304.521 345.964 303.441ZM359.176 297.53L359.436 297.753C359.472 297.781 359.57 297.749 359.603 297.757C359.608 297.721 359.611 297.659 359.578 297.649C359.456 297.606 359.318 297.566 359.176 297.53Z" fill="#00006E"/><path fill-rule="evenodd" clip-rule="evenodd" d="M228.382 277.234C228.71 276.01 228.91 274.959 229.08 274.465C229.381 273.583 230.187 273.597 230.472 273.275C230.774 272.933 231.226 273.162 231.543 272.972C231.811 272.807 232.088 273.056 232.367 272.964C233.192 272.69 233.602 273.629 234.47 273.916C234.815 274.028 234.791 274.494 235.143 274.738C235.512 274.994 235.285 275.618 235.695 276.307C235.847 276.566 235.623 276.953 235.811 277.571C235.541 279.429 233.979 280.783 232.171 280.858C231.467 281.871 230.974 283.012 230.532 283.62C228.871 286.516 227.143 289.285 226.023 292.302C225.36 294.079 225.075 295.932 225.023 297.929C224.74 300.032 222.802 301.51 220.702 301.227C218.597 300.943 217.118 299.006 217.402 296.903C218.063 294.221 219.077 291.852 220.429 289.607C222.232 286.607 224.427 283.845 226.696 281.009C227.009 280.552 227.548 279.845 227.85 278.991C227.994 278.58 228.123 278.168 228.236 277.768C228.153 277.362 228.136 276.936 228.195 276.503C228.191 276.491 228.188 276.476 228.2 276.462L228.195 276.503C228.212 276.557 228.325 276.597 228.299 276.64C228.224 276.796 228.404 276.924 228.364 277.042C228.339 277.113 228.355 277.175 228.382 277.234ZM232.775 280.103C232.954 280.018 233.137 279.864 233.388 279.868C233.673 279.872 233.778 279.461 234.171 279.354C234.315 279.314 234.287 279.047 234.492 278.946C234.535 278.925 234.33 278.761 234.371 278.823C234.502 279.02 233.937 279.012 233.69 279.235C233.393 279.499 233.075 279.775 232.775 280.103Z" fill="#00006E"/><path fill-rule="evenodd" clip-rule="evenodd" d="M242.745 296.21C242.729 295.635 242.783 294.906 242.579 294.329C241.516 291.361 239.879 288.005 239.53 285.659C239.325 284.29 239.442 283.13 239.904 282.255C241.086 279.956 243.393 278.378 245.787 277.282C246.695 276.866 247.612 276.534 248.467 276.219C250.728 275.386 252.712 275.363 253.75 275.514C254.867 275.676 255.324 276.521 255.826 277.041C256.699 277.946 256.407 279.164 255.821 280.883C255.582 281.594 254.634 282.38 252.946 283.793C251.033 284.717 248.732 283.915 247.806 282.005C247.726 281.831 247.657 281.653 247.597 281.473C246.223 282.018 244.933 282.963 244.268 284.246L244.273 284.246C244.36 284.255 244.297 284.429 244.313 284.534C244.363 284.854 244.484 285.198 244.621 285.571C245.047 286.761 245.773 288.105 246.48 289.474C247.457 291.368 248.385 293.292 248.875 294.921C249.306 296.369 249.312 297.677 249.075 298.745C248.594 300.924 246.959 302.674 242.865 302.816C241.741 302.858 240.741 302.818 239.803 302.764C237.613 302.637 235.801 302.295 233.391 302.12C231.286 301.837 229.812 299.9 230.096 297.797C230.379 295.693 232.312 294.215 234.417 294.499C236.759 294.962 238.487 295.521 240.618 295.905C241.272 296.024 241.966 296.138 242.745 296.21Z" fill="#00006E"/><path fill-rule="evenodd" clip-rule="evenodd" d="M268.551 281.163C279.435 280.641 278.91 283.943 275.47 285.089C274.523 285.404 274.72 288.832 268.136 288.081L266.534 288.342C265.827 288.214 265.21 287.934 264.65 287.485L264.636 287.474C264.305 287.484 263.965 287.516 263.646 287.62C263.017 287.824 262.435 288.196 262.128 288.796C262.521 288.803 262.479 289.734 262.801 290.306C263.536 291.618 264.545 293.093 265.36 294.539C267.097 297.624 267.344 300.693 266.018 302.782C264.844 304.625 261.636 306.275 254.291 305.866C252.186 305.582 250.707 303.645 250.991 301.542C251.274 299.439 253.212 297.961 255.317 298.244C257.357 298.687 258.888 298.951 260.057 298.901C260.369 298.888 260.707 298.725 260.912 298.735C260.515 296.456 258.634 293.557 257.879 291.445C257.305 289.849 257.183 288.488 257.557 287.538C258.326 285.379 260.109 284.138 262.086 283.286C262.594 283.069 263.11 282.893 263.606 282.687L263.798 282.611C264.574 281.281 266.109 280.493 267.715 280.743L268.551 281.163Z" fill="#00006E"/><path fill-rule="evenodd" clip-rule="evenodd" d="M267.087 303.265C267.617 302.51 268.261 301.569 268.867 300.653C269.608 299.541 270.198 298.489 270.657 297.976C271.375 297.031 272.33 295.792 273.296 294.329C275.196 291.454 277.317 287.922 279.673 285.246C281.721 282.919 283.957 281.239 286.126 280.61C287.27 280.276 288.428 280.566 289.345 281.95C289.643 282.404 289.989 283.64 290.089 285.463C290.351 290.173 289.642 300.812 288.735 305.573C288.423 307.198 287.921 308.324 287.585 308.879C286.388 310.634 283.996 311.089 282.241 309.895C280.575 308.761 280.08 306.548 281.056 304.826C280.569 304.526 281.671 303.225 281.978 301.93C282.921 297.929 283.904 291.879 284.273 287.78C283.497 288.461 282.731 289.278 281.978 290.15C280.033 292.412 278.159 295.023 276.781 297.317C275.976 298.644 275.381 299.885 274.831 300.817C274.351 301.858 273.736 304.747 273.356 306.466C273.354 306.556 273.347 306.647 273.334 306.737C273.32 306.775 273.3 306.812 273.27 306.847L273.215 307.111C272.146 311.76 268.144 309.166 266.46 307.112C266.077 306.846 265.824 306.493 265.782 306.037C265.738 305.929 265.712 305.83 265.708 305.745C265.84 304.733 266.351 303.863 267.087 303.265Z" fill="#00006E"/><path fill-rule="evenodd" clip-rule="evenodd" d="M191.848 290.135C192.379 289.38 193.023 288.438 193.629 287.523C194.37 286.41 194.96 285.359 195.418 284.845C196.137 283.9 197.092 282.662 198.058 281.199C199.957 278.324 202.079 274.791 204.435 272.116C206.482 269.788 208.719 268.109 210.888 267.479C212.031 267.145 213.189 267.436 214.107 268.82C214.405 269.273 214.751 270.51 214.85 272.333C215.113 277.043 214.404 287.681 213.497 292.442C213.184 294.067 212.683 295.193 212.347 295.749C211.15 297.503 208.758 297.958 207.002 296.764C205.337 295.631 204.842 293.417 205.818 291.695C205.331 291.396 206.433 290.094 206.74 288.799C207.683 284.798 208.665 278.748 209.035 274.65C208.258 275.33 207.493 276.147 206.74 277.02C204.795 279.281 202.921 281.893 201.543 284.187C200.738 285.514 200.142 286.754 199.593 287.686C199.113 288.727 198.497 291.616 198.118 293.335C198.116 293.426 198.108 293.516 198.096 293.607C198.081 293.644 198.061 293.681 198.032 293.717L197.977 293.981C196.907 298.63 192.906 296.035 191.222 293.982C190.839 293.716 190.586 293.362 190.544 292.907C190.499 292.798 190.473 292.699 190.47 292.614C190.601 291.602 191.113 290.733 191.848 290.135Z" fill="#00006E"/><path fill-rule="evenodd" clip-rule="evenodd" d="M288.513 294.443C288.631 294.446 288.744 294.442 288.855 294.428C289.411 294.359 289.788 294.192 290.187 294.013C291.147 293.579 291.477 293.431 291.796 293.261C292.056 293.123 292.183 293.347 292.314 293.286C292.776 293.076 292.878 293.639 293.128 293.578C293.367 293.521 293.357 293.852 293.547 293.828C293.707 293.809 293.677 294.036 293.815 294.031C294.261 294.016 294.083 294.601 294.424 294.668C294.549 294.693 294.467 294.862 294.581 294.894C294.971 295 294.645 295.484 294.962 295.651C295.224 295.79 294.912 296.098 295.135 296.269C295.273 296.375 295.065 296.533 295.187 296.65C295.563 297.003 294.862 297.34 295.117 297.79C295.216 297.968 294.911 298.042 294.993 298.237C295.112 298.522 294.629 298.563 294.698 298.888C294.773 299.246 294.182 299.172 294.174 299.6C294.173 299.718 293.997 299.668 293.985 299.793C293.97 299.982 293.679 299.871 293.636 300.083C292.454 300.953 290.934 301.045 289.699 300.454C289.825 300.468 290.021 300.4 290.142 300.598C290.202 300.702 290.38 300.517 290.507 300.67C290.52 300.685 290.55 300.676 290.582 300.661C290.441 300.612 290.319 300.014 289.749 299.64C289.396 299.41 289.067 299.18 288.544 299.042C288.42 299.009 288.295 298.989 288.158 298.977C288.168 299.016 288.172 299.06 288.165 299.109L288.167 299.128L288.221 299.206C288.271 299.238 288.337 299.262 288.331 299.34L288.334 299.357L288.38 299.419L288.444 299.492C288.531 299.536 288.645 299.567 288.652 299.701L288.659 299.723L288.781 299.841L288.839 299.888C288.99 299.935 289.19 299.953 289.252 300.183L289.268 300.212L289.34 300.259C289.422 300.277 289.538 300.257 289.581 300.373L289.597 300.403L289.699 300.454C289.655 300.451 289.617 300.437 289.597 300.403C289.509 300.358 289.422 300.31 289.34 300.259L289.312 300.251C289.298 300.243 289.285 300.234 289.276 300.227L289.268 300.212C289.118 300.116 288.97 300.007 288.839 299.888C288.744 299.861 288.67 299.823 288.659 299.723C288.585 299.65 288.512 299.573 288.444 299.492C288.383 299.464 288.334 299.43 288.334 299.357L288.263 299.264L288.221 299.206C288.189 299.187 288.167 299.166 288.167 299.128L288.146 299.101L288.066 298.97C287.817 298.952 287.555 298.958 287.289 298.958C285.713 298.953 283.916 299.125 282.227 299.301C280.028 299.53 278.187 299.92 277.465 300.086C275.344 300.183 273.54 298.54 273.446 296.421C273.347 294.301 274.989 292.5 277.111 292.403C277.943 292.515 280.035 292.968 282.497 293.457C284.186 293.793 285.985 294.155 287.575 294.349C287.885 294.386 288.189 294.433 288.473 294.442L288.502 294.409L288.532 294.376C288.589 294.208 288.646 294.037 288.882 294.043L288.882 294.043L288.926 294.009L288.975 293.97C288.996 293.927 289.017 293.882 289.08 293.888L288.975 293.97L288.944 294.019C288.934 294.025 288.928 294.031 288.917 294.037L288.776 294.136C288.73 294.181 288.68 294.225 288.635 294.27L288.532 294.376L288.513 294.443ZM287.753 298.324C287.704 298.472 287.786 298.559 287.892 298.646C287.838 298.54 287.793 298.433 287.753 298.324ZM287.584 297.715C287.526 297.817 287.58 297.894 287.643 297.972L287.616 297.879L287.584 297.715ZM287.53 296.621C287.366 296.777 287.433 296.935 287.514 297.103L287.514 296.957C287.517 296.896 287.516 296.834 287.519 296.773L287.53 296.621ZM287.565 296.355C287.531 296.389 287.536 296.429 287.55 296.471L287.559 296.406L287.565 296.355ZM287.635 296.019C287.581 296.059 287.588 296.114 287.6 296.17L287.632 296.044L287.635 296.019ZM287.814 295.5C287.703 295.553 287.71 295.647 287.722 295.745C287.747 295.662 287.778 295.58 287.814 295.5ZM288.273 294.687C288.05 294.736 288.031 294.909 288.017 295.088C288.095 294.95 288.177 294.816 288.273 294.687Z" fill="#00006E"/><path fill-rule="evenodd" clip-rule="evenodd" d="M213.274 281.313C213.392 281.316 213.506 281.311 213.616 281.297C214.173 281.228 214.55 281.061 214.948 280.882C215.908 280.449 216.239 280.301 216.557 280.13C216.817 279.993 216.945 280.217 217.076 280.155C217.538 279.945 217.64 280.509 217.889 280.447C218.129 280.39 218.118 280.721 218.309 280.698C218.469 280.678 218.438 280.906 218.577 280.901C219.023 280.885 218.845 281.47 219.186 281.538C219.311 281.563 219.229 281.731 219.343 281.763C219.732 281.87 219.406 282.353 219.724 282.521C219.986 282.66 219.673 282.968 219.897 283.138C220.035 283.245 219.826 283.403 219.949 283.519C220.325 283.872 219.624 284.21 219.879 284.66C219.978 284.837 219.673 284.912 219.755 285.106C219.874 285.391 219.391 285.432 219.46 285.758C219.535 286.116 218.944 286.042 218.936 286.469C218.934 286.587 218.759 286.537 218.747 286.662C218.731 286.852 218.441 286.741 218.397 286.953C217.216 287.822 215.696 287.914 214.46 287.323C214.586 287.337 214.783 287.269 214.904 287.468C214.964 287.571 215.141 287.387 215.269 287.539C215.282 287.554 215.312 287.546 215.344 287.53C215.203 287.482 215.081 286.884 214.511 286.51C214.157 286.279 213.829 286.05 213.305 285.911C213.182 285.878 213.056 285.859 212.92 285.847C212.929 285.886 212.933 285.929 212.927 285.978L212.929 285.998L212.983 286.075C213.033 286.108 213.098 286.131 213.093 286.209L213.095 286.227L213.141 286.289L213.205 286.361C213.293 286.405 213.407 286.437 213.414 286.57L213.421 286.592L213.543 286.71L213.6 286.758C213.752 286.804 213.951 286.822 214.014 287.052L214.03 287.082L214.102 287.128C214.184 287.146 214.3 287.127 214.343 287.242L214.359 287.272L214.46 287.323C214.416 287.32 214.379 287.307 214.359 287.272C214.271 287.227 214.184 287.18 214.102 287.128L214.074 287.12C214.06 287.112 214.046 287.104 214.038 287.096L214.03 287.082C213.88 286.985 213.732 286.877 213.6 286.758C213.506 286.73 213.432 286.692 213.421 286.592C213.347 286.519 213.273 286.442 213.205 286.361C213.145 286.333 213.095 286.299 213.095 286.227L213.024 286.133L212.983 286.075C212.951 286.057 212.929 286.035 212.929 285.998L212.908 285.971L212.827 285.839C212.578 285.822 212.316 285.828 212.051 285.827C210.475 285.823 208.678 285.994 206.989 286.171C204.79 286.4 202.949 286.789 202.227 286.955C200.105 287.052 198.302 285.41 198.208 283.291C198.109 281.17 199.751 279.37 201.872 279.273C202.705 279.384 204.797 279.838 207.258 280.327C208.947 280.663 210.746 281.025 212.336 281.218C212.647 281.255 212.951 281.303 213.235 281.311L213.264 281.279L213.293 281.245C213.35 281.077 213.408 280.906 213.644 280.913L213.644 280.912L213.688 280.879L213.737 280.84C213.758 280.796 213.779 280.751 213.842 280.757L213.737 280.84L213.706 280.889C213.695 280.894 213.69 280.901 213.679 280.907L213.537 281.006C213.492 281.05 213.442 281.095 213.396 281.14L213.293 281.245L213.274 281.313ZM212.515 285.194C212.466 285.341 212.548 285.429 212.654 285.516C212.599 285.41 212.555 285.303 212.515 285.194ZM212.346 284.584C212.288 284.686 212.342 284.764 212.405 284.841L212.378 284.748L212.346 284.584ZM212.291 283.49C212.127 283.647 212.195 283.805 212.276 283.972L212.276 283.827C212.279 283.766 212.277 283.704 212.281 283.642L212.291 283.49ZM212.327 283.224C212.293 283.259 212.297 283.299 212.312 283.341L212.32 283.275L212.327 283.224ZM212.397 282.889C212.342 282.929 212.35 282.984 212.362 283.04L212.394 282.914L212.397 282.889ZM212.575 282.37C212.465 282.423 212.472 282.517 212.483 282.614C212.509 282.532 212.54 282.45 212.575 282.37ZM213.035 281.557C212.811 281.605 212.793 281.779 212.779 281.957C212.856 281.82 212.938 281.685 213.035 281.557Z" fill="#00006E"/><path fill-rule="evenodd" clip-rule="evenodd" d="M304.114 289.937C304.367 288.677 304.473 287.634 304.589 287.106C304.673 286.737 304.977 286.636 305.056 286.417C305.312 285.719 306.054 285.848 306.352 285.534C306.701 285.175 307.183 285.476 307.553 285.289C307.743 285.193 307.925 285.378 308.121 285.315C308.734 285.115 309.083 285.82 309.738 285.929C309.96 285.966 309.995 286.249 310.226 286.33C310.494 286.424 310.474 286.796 310.75 286.973C311.055 287.164 310.902 287.64 311.228 288.032C311.364 288.193 311.222 288.443 311.371 288.696C311.51 288.938 311.304 289.298 311.492 289.883C311.251 291.666 309.816 292.995 308.106 293.183C307.456 294.274 307.053 295.51 306.681 296.186C305.606 298.65 304.594 301.041 303.782 303.518C303 305.926 302.499 308.364 302.112 310.946C301.569 312.998 299.463 314.223 297.413 313.681C295.362 313.14 294.133 311.033 294.676 308.982C295.535 306.77 296.487 304.714 297.545 302.671C299.076 299.722 300.701 296.873 302.548 293.988C302.882 293.338 303.549 292.262 303.849 291.095L304.003 290.469C303.856 289.985 303.803 289.464 303.865 288.932C303.854 288.903 303.853 288.872 303.873 288.837L303.865 288.932C303.902 289.018 304.046 289.083 304.019 289.142C303.912 289.389 304.174 289.563 304.131 289.737C304.116 289.809 304.112 289.876 304.114 289.937ZM310.312 291.028C310.271 291.004 310.211 290.977 310.178 291.005C309.975 291.16 309.731 291.246 309.475 291.503C309.229 291.756 308.966 292.023 308.714 292.326L308.773 292.326C309.074 292.362 309.221 291.96 309.614 291.901C309.84 291.867 309.863 291.511 310.176 291.386C310.254 291.353 310.27 291.087 310.312 291.028Z" fill="#00006E"/><path fill-rule="evenodd" clip-rule="evenodd" d="M309.926 298.865C311.763 295.947 314.795 291.325 317.317 288.655C318.604 287.293 319.916 286.447 320.934 286.02C321.821 285.649 322.669 285.646 323.416 285.699C325.521 285.983 326.999 287.92 326.716 290.024C326.464 291.892 324.905 293.266 323.09 293.351C319.668 295.566 314.221 302.974 313.058 304.443C312.431 305.252 311.939 307.148 311.396 308.221C310.716 309.577 309.799 310.314 309.093 310.5C308.097 310.764 306.838 310.821 305.789 309.319C305.516 308.929 305.161 308.2 305.063 307.103C304.887 305.188 305.397 301.216 305.438 297.403C305.452 295.947 305.33 294.546 305.179 293.292C305.111 292.695 305.006 292.161 304.898 291.68C304.776 291.56 304.666 291.429 304.562 291.289C303.288 289.59 303.637 287.178 305.336 285.907C305.715 285.764 305.925 285.444 306.25 285.408C307.386 285.28 308.314 284.826 309.115 285.395C309.559 285.714 310.215 285.782 310.546 286.361C310.83 286.855 311.886 288.266 311.393 290.644C311.115 291.979 310.631 293.819 310.253 295.963C310.089 296.89 309.997 297.862 309.931 298.835L309.926 298.865ZM307.351 292.818L307.283 292.813L307.312 292.817L307.351 292.818ZM309.224 292.487C309.489 292.423 309.748 292.323 309.941 292.064C309.716 292.234 309.475 292.375 309.224 292.487ZM304.476 290.348C304.451 290.504 304.424 290.661 304.471 290.716C304.607 290.876 304.703 291.045 304.785 291.202L304.665 290.703C304.637 290.58 304.555 290.457 304.476 290.348Z" fill="#00006E"/><path d="M326.846 314.944C326.76 314.666 325.707 314.103 325.51 313.859C324.877 313.074 324.867 313.45 324.045 312.638C322.288 310.901 320.348 310.197 320.348 306.535C320.348 300.92 324.702 297.327 326.243 296.309C328.365 293.842 330.788 293.175 333.575 291.869C336.473 290.508 339.619 289.866 340.888 289.884C342.269 289.903 342.881 290.848 343.359 291.288C344.314 292.171 344.054 293.371 343.625 294.907C343.47 295.474 342.423 296.484 339.79 298.069C338.009 298.674 336.089 297.895 335.204 296.309C334.563 295.974 334.001 296.281 332.834 297.502C332.762 297.854 331.296 299.246 330.882 299.699C328.704 302.078 326.44 306.153 327.588 307.137C329.182 308.509 330.814 309.894 331.911 311.222C332.813 312.313 336.202 310.162 336.741 312.638C337.276 315.097 339.532 316.105 333.695 318.21C333.677 318.223 333.637 318.237 333.575 318.254C333.615 318.239 333.655 318.225 333.695 318.21C333.969 318.017 329.535 318.058 326.846 314.944Z" fill="#00006E"/><path fill-rule="evenodd" clip-rule="evenodd" d="M128.003 319.32C127.42 318.987 126.922 318.477 126.607 317.825C125.777 316.109 126.497 314.042 128.215 313.214C128.874 313.048 130.141 312.575 131.275 312.01C131.679 311.807 132.064 311.603 132.419 311.415C133.179 311.012 133.802 310.681 134.181 310.597C135.609 310.28 136.495 310.66 136.888 311.192C136.914 311.227 136.942 311.264 136.971 311.303C137.311 311.757 137.839 312.463 137.425 313.548C138.57 314.157 139.583 315.249 140.132 317.078C140.468 318.198 140.728 319.613 140.644 321.388C140.593 324.466 139.437 327.964 138.127 331.562C138.133 331.562 138.139 331.562 138.145 331.562C138.725 331.572 139.273 331.581 139.774 331.521L139.832 331.516C140.303 331.075 140.897 330.766 141.577 330.645L141.601 330.651C141.765 330.694 141.927 330.737 141.91 330.836C141.882 331.009 141.717 331.053 141.628 331.059C141.499 331.059 141.422 331.137 141.35 331.216C141.524 331.173 141.685 331.128 141.841 331.087C142.375 330.94 142.773 330.894 143.074 330.859C143.21 330.843 143.326 330.829 143.426 330.81C143.597 330.775 143.727 330.829 143.841 330.876C143.918 330.908 143.988 330.938 144.06 330.935C144.368 330.922 144.544 331.097 144.701 331.254C144.798 331.35 144.888 331.439 144.996 331.472C145.269 331.556 145.369 331.775 145.465 331.987C145.531 332.131 145.595 332.272 145.712 332.365C145.8 332.436 145.818 332.535 145.835 332.635C145.851 332.721 145.866 332.807 145.926 332.876C146.18 333.166 146.108 333.49 146.031 333.844C145.978 334.085 145.922 334.34 145.963 334.607C145.979 334.715 145.923 334.8 145.865 334.889C145.812 334.969 145.757 335.053 145.751 335.162C145.743 335.365 145.595 335.493 145.422 335.643C145.268 335.777 145.094 335.928 144.979 336.164C144.926 336.269 144.815 336.317 144.686 336.373C144.552 336.431 144.397 336.498 144.268 336.648C144.183 336.75 144.035 336.81 143.827 336.895C143.572 336.999 143.227 337.14 142.794 337.44C141.276 337.713 139.808 336.945 139.125 335.645C138.801 335.645 138.459 335.666 138.108 335.687C138.028 335.692 137.947 335.697 137.866 335.701C137.451 335.725 137.022 335.756 136.582 335.793C135.912 337.683 135.301 339.566 134.883 341.397C134.317 343.892 134.175 346.266 135.075 348.316C135.164 348.509 135.284 348.64 135.412 348.737C135.492 348.8 135.58 348.75 135.676 348.694C135.735 348.661 135.797 348.625 135.863 348.612C136.521 348.488 137.179 348.099 137.831 347.696C139.258 346.822 140.516 345.594 141.127 344.835C142.386 343.408 144.568 343.268 146 344.527C147.431 345.786 147.567 347.968 146.308 349.4C144.449 351.343 139.234 355.012 135.415 354.763C133.016 354.604 130.818 353.551 129.723 350.444C128.599 347.293 128.847 343.778 129.921 340.105C130.276 338.894 130.722 337.663 131.215 336.425C130.844 336.478 130.476 336.531 130.111 336.586C126.882 337.071 124.061 337.722 123.051 338.121C122.614 338.242 122.174 338.273 121.749 338.226C120.715 340.528 119.207 344.045 118.446 346.099C118.511 346.993 118.233 347.911 117.596 348.635C116.079 350.173 114.685 350.012 114.205 349.899C113.334 349.698 112.563 349.346 112.042 348.581L112.012 348.538C111.698 348.076 111.185 347.321 111.35 346.13C111.391 345.826 111.519 345.14 111.927 344.248C113.176 341.541 117.224 334.379 117.982 333.251C119.778 330.525 121.687 327.88 123.614 325.233C125.062 323.251 126.527 321.279 128.003 319.32ZM125.496 331.28C127.232 331.279 129.284 331.319 131.387 331.382C131.899 331.398 132.412 331.415 132.923 331.431C133.06 331.436 133.198 331.44 133.335 331.445C134.893 327.855 136.331 324.345 136.539 321.22C136.558 319.403 136.275 318.188 135.583 317.679C135.554 317.658 135.531 317.69 135.507 317.724C135.487 317.753 135.466 317.782 135.44 317.785C135.331 317.795 135.303 317.908 135.271 318.038C135.248 318.133 135.222 318.237 135.161 318.317C135.054 318.461 135.022 318.647 134.988 318.847C134.969 318.961 134.949 319.079 134.914 319.198C134.815 319.535 134.843 319.905 134.874 320.313C134.887 320.48 134.9 320.653 134.906 320.833C134.638 322.72 132.886 324.034 130.999 323.762C130.785 323.732 130.578 323.682 130.38 323.616C129.861 324.377 129.347 325.143 128.84 325.915C127.683 327.679 126.57 329.469 125.496 331.28ZM112.882 343.629C112.725 343.736 112.565 343.874 112.411 344.07C112.556 343.908 112.713 343.761 112.882 343.629ZM140.867 335.92L140.853 335.887C141.152 335.971 141.422 336.065 141.667 336.151C141.822 336.205 141.955 336.334 142.062 336.437C142.115 336.488 142.161 336.534 142.201 336.56C142.144 336.587 142.083 336.614 142.059 336.593C141.989 336.533 141.906 336.527 141.832 336.521C141.764 336.515 141.703 336.511 141.665 336.465C141.526 336.301 141.353 336.23 141.202 336.168C141.049 336.105 140.918 336.051 140.867 335.92Z" fill="#00006E"/><path fill-rule="evenodd" clip-rule="evenodd" d="M160.373 318.755C160.327 318.993 160.275 319.281 160.221 319.617C160.219 319.613 160.215 319.61 160.211 319.606C160.206 319.603 160.201 319.601 160.197 319.599C160.155 319.584 160.107 319.642 160.077 319.702C160.032 320.005 160.027 320.306 160.062 320.598C160.036 320.754 160.009 320.917 159.982 321.086C159.942 321.327 159.901 321.58 159.855 321.845C159.702 322.716 159.529 323.67 159.246 324.656C158.875 325.949 158.362 327.255 157.891 328.452C157.684 328.978 157.486 329.482 157.311 329.956C156.119 332.896 155.134 335.94 154.215 339.019C152.843 343.621 151.714 348.291 150.789 352.923C150.535 354.813 151.862 356.553 153.752 356.808C155.638 357.062 157.378 355.735 157.633 353.844C157.893 350.075 158.221 346.261 158.825 342.467C159.429 338.7 160.275 334.987 161.361 331.386C161.517 330.926 161.671 330.428 161.83 329.907C161.997 331.572 162.177 333.298 162.373 334.957C162.879 339.184 163.743 342.888 165.139 344.213C165.611 344.684 166.191 344.912 166.888 344.896C167.549 344.878 168.841 344.252 170.239 342.715C171.344 341.502 172.788 339.636 174.419 337.527C176.365 335.013 178.578 332.153 180.803 329.644C179.499 333.641 177.939 338.62 176.67 343.413C174.922 350.021 173.865 356.324 174.409 359.703C174.767 361.578 176.575 362.808 178.45 362.454C180.321 362.096 181.55 360.288 181.197 358.414C180.726 356.262 181.146 352.58 181.886 348.437C183.369 340.117 186.232 330.163 187.551 325.588L187.629 325.317C187.922 324.301 188.132 323.569 188.222 323.2C188.592 321.727 187.94 320.889 187.849 320.772L187.846 320.769C187.256 320.027 186.395 319.556 185.263 319.716C184.465 319.826 183.214 320.575 182.912 320.816C179.169 323.767 174.895 329.608 171.437 334.334C169.832 336.528 168.402 338.481 167.283 339.795C166.585 337.352 166.713 332.989 166.934 329.214C167.035 327.466 167.248 325.852 167.423 324.524C167.479 324.096 167.532 323.697 167.575 323.334C167.704 322.245 167.766 321.458 167.782 321.077C167.809 320.518 167.653 320.131 167.555 319.889C167.528 319.821 167.505 319.764 167.492 319.718C167.294 319.063 166.951 318.642 166.561 318.359C166.52 318.22 166.475 318.125 166.42 318.067C166.305 317.943 166.228 317.804 166.156 317.673C166.061 317.502 165.975 317.346 165.821 317.26C165.597 317.134 165.387 316.994 165.185 316.859C164.559 316.44 164.005 316.07 163.303 316.311C163.152 316.363 162.979 316.381 162.799 316.401C162.423 316.441 162.012 316.486 161.691 316.849C161.649 316.897 161.578 316.952 161.49 317.021C161.152 317.285 160.561 317.746 160.373 318.755Z" fill="#00006E"/><path fill-rule="evenodd" clip-rule="evenodd" d="M185.684 355.373C185.582 355.286 185.708 354.864 185.717 354.722C185.782 354.238 186.228 353.894 186.717 353.96C187.205 354.026 187.549 354.476 187.484 354.96C187.432 355.2 187.376 355.793 187.316 355.913C187.124 356.277 186.86 356.409 186.641 356.423C186.452 356.437 185.986 356.493 185.748 355.924C185.658 355.744 185.64 355.554 185.684 355.373ZM187.135 355.022C186.852 354.639 186.542 354.636 186.301 354.742C186.606 354.67 186.937 354.778 187.135 355.022Z" fill="#00006E"/></svg>