<svg width="501" height="500" viewBox="0 0 501 500" fill="none" xmlns="http://www.w3.org/2000/svg"><path fill-rule="evenodd" clip-rule="evenodd" d="M108.098 184.132C110.053 183.59 112.489 183.44 115.175 183.592C122.37 183.991 131.483 186.465 135.852 187.068L148.463 188.798C150.126 189.004 151.789 189.227 153.45 189.478L153.633 189.504C155.117 189.713 156.51 189.945 157.793 190.198C164.612 191.451 167.163 192.628 166.717 193.371C167.087 194.23 164.47 194.661 157.627 193.953C156.338 193.837 154.942 193.673 153.458 193.448L153.275 193.425C143.494 192.086 133.695 191.606 123.868 190.607L123.031 190.519C125.979 191.507 128.906 192.516 131.822 193.544C140.948 196.758 149.977 200.135 159.28 203.503C182.243 211.886 204.913 221.037 227.379 230.663C260.947 245.041 294.08 260.389 327.465 274.869C331.504 276.619 367.612 291.87 387.075 302.754C392.384 305.723 396.505 308.432 398.678 310.49C400.685 312.392 401.374 314.12 401.314 315.378C401.227 317.12 399.409 318.274 397.262 317.958C395.348 317.68 393.811 316.321 393.56 314.797C393.235 314.484 392.137 313.427 391.114 312.692C386.503 309.376 378.245 305.004 369.124 300.54C350.26 291.315 327.74 281.806 324.619 280.454C291.239 265.978 258.029 250.801 224.553 236.255C202.294 226.582 179.934 217.153 157.217 208.596C147.995 205.098 139.051 201.583 130.001 198.243C124.893 196.357 119.753 194.526 114.509 192.781C117.216 195.38 119.917 197.776 120.185 198.028C123.156 200.737 126.29 203.131 129.609 205.286C132.232 206.985 134.941 208.524 137.643 210.117C140.437 211.765 143.192 213.399 145.903 215.248C147.536 216.575 147.72 218.602 146.314 219.772C144.914 220.938 142.451 220.806 140.822 219.479C138.704 217.417 136.549 215.49 134.247 213.639C132.012 211.838 129.744 210.109 127.453 208.356C125.373 206.763 123.293 205.17 121.252 203.481C119.908 202.368 118.554 201.246 117.264 200.037C116.853 199.651 110.928 194.408 107.541 190.752C105.997 190.316 104.363 189.791 103.154 189.211C101.58 188.448 100.537 187.508 100.092 186.641C99.698 185.879 99.2229 183.794 102.144 183.584C102.424 183.56 103.06 183.571 103.948 183.654C104.974 183.749 106.479 183.924 108.098 184.132Z" fill="#00006E"/></svg>