<svg width="500" height="501" viewBox="0 0 500 501" fill="none" xmlns="http://www.w3.org/2000/svg"><path fill-rule="evenodd" clip-rule="evenodd" d="M146.831 179.464C147.998 178.59 149.663 178.706 150.697 179.785C151.618 180.747 151.775 181.817 151.314 182.968C151.152 183.372 150.721 184.195 149.526 184.738C147.365 185.721 134.046 188.254 130.928 188.946C130.791 188.977 130.631 189.01 130.454 189.044C130.394 190.09 130.249 191.113 130.064 191.759C128.409 197.545 125.403 202.927 122.487 208.341C119.81 213.311 117.204 218.306 116.109 223.778L115.851 224.979C116.188 224.995 116.534 225.004 116.859 224.997C119.692 224.943 123.43 224.499 126.715 223.783C128.452 223.404 130.058 222.954 131.306 222.431C131.826 222.214 132.509 221.79 132.654 221.699C133.432 220.395 135.099 219.893 136.478 220.583C137.924 221.307 138.511 223.068 137.787 224.515C137.456 225.175 136.899 225.855 136.072 226.469C134.945 227.305 133.126 228.111 130.918 228.76C126.45 230.074 120.254 230.878 116.175 230.862C113.917 230.853 112.181 230.514 111.318 230.083C110.658 229.754 109.977 229.149 109.685 228.036C109.562 227.566 109.517 226.695 109.677 225.687C109.867 224.494 110.306 222.915 110.363 222.628C111.573 216.589 114.375 211.047 117.328 205.562C120.043 200.522 122.89 195.534 124.431 190.148C124.521 189.831 124.562 189.194 124.578 188.599C123.949 188.053 123.655 187.364 123.583 186.622C123.521 185.995 123.562 185.018 124.568 184.013C125.536 183.047 126.502 182.92 127.229 182.976C127.708 183.014 128.171 183.148 128.6 183.403C129.027 183.341 129.439 183.275 129.659 183.226C132.343 182.63 144.834 179.9 146.831 179.464ZM145.664 181.558C145.552 182.324 145.764 183.047 146.354 183.715C145.827 183.099 145.597 182.318 145.664 181.558Z" fill="#00006E"/><path fill-rule="evenodd" clip-rule="evenodd" d="M141.974 200.034C142.441 199.73 143 199.556 143.598 199.563C145.602 199.583 146.48 200.281 146.612 200.402C147.624 201.326 147.741 202.367 147.465 203.363C147.333 203.838 147.063 204.431 146.388 204.936C146.231 205.054 145.58 205.457 144.387 205.635C140.597 206.2 122.021 207.615 117.598 208.958C116.051 209.429 114.414 208.554 113.943 207.007C113.473 205.46 114.348 203.822 115.895 203.352C120.013 202.101 136.02 200.721 141.974 200.034Z" fill="#00006E"/><path fill-rule="evenodd" clip-rule="evenodd" d="M174.157 203.845C172.089 205.035 169.913 205.893 167.921 206.249C165.247 206.727 162.848 206.318 161.093 205.078C159.281 203.799 157.935 201.59 157.935 197.981C157.935 191.715 161.364 187.385 165.777 184.874C170.032 182.452 175.209 181.826 178.853 182.712C182.187 183.523 184.353 185.566 184.839 188.236C185.145 189.914 184.767 192.122 183.014 194.678C182.795 196.199 182.477 197.758 182.028 198.824C181.115 200.991 178.675 208.895 175.913 217.885C177.608 217.315 178.982 216.794 179.847 216.362C181.294 215.639 183.054 216.227 183.777 217.673C184.5 219.12 183.912 220.881 182.465 221.603C180.878 222.396 177.639 223.487 173.832 224.644C171.393 232.558 168.935 240.426 167.211 245.335C166.253 248.064 165.456 249.968 165.002 250.69C164.368 251.698 163.611 252.048 163.197 252.186C162.63 252.374 161.79 252.514 160.797 251.942C160.654 251.86 160.051 251.444 159.413 250.473C157.683 247.841 151.15 236.518 148.834 231.58C148.205 230.239 147.867 229.221 147.794 228.737C147.668 227.901 147.852 227.298 148.019 226.921C148.157 226.611 148.434 226.054 149.186 225.597C149.295 225.53 149.776 225.295 150.616 225.052C153.13 224.325 161.757 222.119 169.156 219.97C170.987 214.032 172.759 208.248 174.157 203.845ZM167.105 226.605C162.305 227.959 157.555 229.225 154.579 230.034C156.251 233.438 159.432 239.086 161.786 243.095C163.217 238.995 165.125 232.978 167.105 226.605ZM177.897 188.526C177.76 188.481 177.616 188.441 177.468 188.405C175.013 187.808 171.542 188.335 168.674 189.967C165.964 191.509 163.794 194.132 163.794 197.981C163.794 199.1 163.911 199.895 164.473 200.292C165.087 200.726 165.955 200.648 166.891 200.481C169.627 199.992 172.798 198.127 175.063 195.869C175.324 195.608 175.575 195.344 175.81 195.075C175.849 194.39 176.128 193.716 176.648 193.189C176.946 192.887 177.217 192.594 177.461 192.309C177.596 190.861 177.619 189.678 177.619 189.678C177.633 189.266 177.731 188.877 177.897 188.526Z" fill="#00006E"/><path fill-rule="evenodd" clip-rule="evenodd" d="M194.415 189.172C194.355 191.941 195.14 195.158 196.306 198.439C197.853 202.792 200.063 207.292 201.253 210.858C201.765 212.392 203.426 213.222 204.959 212.71C206.493 212.198 207.323 210.537 206.811 209.003C205.801 205.977 204.077 202.288 202.617 198.578C201.332 195.312 200.214 192.044 200.273 189.3C200.308 187.683 199.024 186.342 197.408 186.307C195.791 186.272 194.45 187.556 194.415 189.172Z" fill="#00006E"/><path fill-rule="evenodd" clip-rule="evenodd" d="M215.832 189.167C215.967 188.897 216.146 188.643 216.37 188.417C217.11 187.668 217.601 187.439 217.692 187.399C219.408 186.642 220.471 187.504 220.996 188.053C221.177 188.242 222.647 189.914 221.192 191.896C220.694 192.575 216.695 197.104 215.281 198.951C204.758 212.696 194.073 225.948 184.99 240.691C184.142 242.068 182.336 242.497 180.959 241.648C179.583 240.8 179.154 238.994 180.002 237.617C189.189 222.705 199.984 209.293 210.629 195.388C211.697 193.993 214.553 190.654 215.832 189.167Z" fill="#00006E"/><path fill-rule="evenodd" clip-rule="evenodd" d="M229.646 187.328C229.38 202.489 220.705 222.19 215.774 236.965C215.262 238.499 216.092 240.159 217.626 240.671C219.16 241.183 220.82 240.353 221.332 238.819C226.432 223.538 235.229 203.113 235.505 187.432C235.533 185.815 234.244 184.479 232.627 184.451C231.01 184.422 229.675 185.712 229.646 187.328Z" fill="#00006E"/><path fill-rule="evenodd" clip-rule="evenodd" d="M233.481 195.873C234.121 196.398 234.537 197.19 234.554 198.081C234.586 199.698 233.299 201.036 231.682 201.068C228.94 201.121 227.635 199.893 227.055 198.707C226.712 198.005 226.56 197.174 226.706 196.222C226.865 195.188 227.498 193.811 228.671 192.36C232 188.242 240.09 182.735 245.975 182.13C249.484 181.769 252.348 182.895 254.002 185.786C259.287 195.025 255.425 203.324 248.104 208.936C241.32 214.137 231.517 216.823 224.433 215.644C222.838 215.378 221.759 213.868 222.025 212.273C222.29 210.678 223.8 209.599 225.395 209.864C231.137 210.82 239.041 208.501 244.539 204.286C249.502 200.482 252.499 194.958 248.916 188.696C248.335 187.681 247.136 187.818 245.854 188.067C242.31 188.756 238.06 191.455 235.185 194.03C234.581 194.571 233.969 195.27 233.481 195.873Z" fill="#00006E"/><path fill-rule="evenodd" clip-rule="evenodd" d="M284.446 183.517C284.987 182.943 285.755 182.587 286.605 182.595C289.175 182.617 289.663 184.452 289.778 185.015C289.927 185.745 289.917 186.785 288.929 187.759C288.718 187.967 288.254 188.324 287.538 188.636C286.475 189.1 284.221 189.807 283.22 190.14C276.025 192.535 268.966 194.363 261.497 195.719C259.906 196.008 258.379 194.951 258.091 193.36C257.802 191.769 258.859 190.243 260.449 189.954C267.643 188.648 274.44 186.887 281.369 184.581C281.984 184.376 283.49 183.851 284.446 183.517ZM286.336 188.444L286.359 188.445L286.31 188.441L286.336 188.444Z" fill="#00006E"/><path fill-rule="evenodd" clip-rule="evenodd" d="M273.259 184.975C273.173 198.113 265.022 214.856 262.343 228.235C262.025 229.821 263.054 231.366 264.64 231.683C266.225 232.001 267.77 230.971 268.088 229.386C270.833 215.675 279.03 198.477 279.118 185.013C279.129 183.397 277.825 182.075 276.208 182.064C274.591 182.054 273.27 183.358 273.259 184.975Z" fill="#00006E"/><path fill-rule="evenodd" clip-rule="evenodd" d="M29.0734 152.377C28.3279 151.69 27.6309 151.015 27.4387 150.731C26.2855 149.023 27.1253 147.656 27.5562 147.127C27.8495 146.767 29.1188 145.291 31.4113 146.435C32.3522 146.905 33.731 148.125 35.4396 149.983C36.5314 150.35 37.8065 151.021 39.192 151.967C42.2033 154.023 45.981 157.523 49.7676 160.999C53.0491 163.197 56.3746 165.28 59.6307 167.232C60.3491 167.662 61.6331 167.982 62.7586 168.363C63.9612 168.769 65.0418 169.233 65.7112 169.705C66.7157 170.413 67.2062 171.29 67.3753 172.101C67.5854 173.108 67.4657 174.291 66.2871 175.468C64.5919 177.162 61.6059 177.401 57.9688 175.266C55.4925 173.813 52.4385 171.236 49.2571 168.385C67.9713 195.757 95.2213 240.869 101.339 249.599C111.701 264.384 122.223 279.038 132.349 293.976C133.381 293.941 134.401 294.454 134.967 295.403C135.85 296.884 138.18 301.332 138.684 302.8C139.411 304.916 138.165 306.201 137.782 306.499C137.366 306.823 136.879 307.036 136.308 307.104C135.845 307.159 135.182 307.152 134.412 306.697C134.095 306.51 133.018 305.485 131.227 302.802C119.988 285.964 108.163 269.546 96.5409 252.962C89.617 243.082 55.6024 186.549 37.5853 161.991C36.4063 160.384 35.299 158.918 34.274 157.617C34.4266 160.57 35.1325 162.82 35.9759 165.937C37.2844 170.77 36.8919 170.353 38.4015 175.632C38.8461 177.187 37.9453 178.81 36.3907 179.254C34.8361 179.699 33.2129 178.798 32.7683 177.244C31.2458 171.921 31.6392 172.341 30.32 167.468C29.1495 163.143 28.2865 160.238 28.3915 155.682C28.4236 154.302 28.6804 153.22 29.0734 152.377Z" fill="#00006E"/><path fill-rule="evenodd" clip-rule="evenodd" d="M240.292 258.61C239.83 257.871 239.394 257.135 238.989 256.404C235.911 250.847 234.621 245.493 236.054 241.199C236.923 238.593 238.509 237.051 240.321 236.254C242.09 235.477 244.153 235.42 246.188 236.044C251.546 237.685 256.567 244.19 253.729 251.143C252.619 253.862 250.502 256.662 247.895 259.395C249.922 262.181 252.209 264.948 254.505 267.572C260.871 263.057 266.578 258.432 270.033 257.051C271.534 256.452 273.24 257.183 273.84 258.685C274.44 260.187 273.708 261.893 272.207 262.493C269.069 263.746 264.056 267.76 258.383 271.881C262.141 275.964 265.519 279.429 267.315 281.671C268.502 283.153 273.098 287.002 275.118 289.02C276.009 289.912 276.531 290.671 276.693 291.036C277.047 291.831 277.004 292.497 276.902 292.965C276.711 293.842 276.224 294.506 275.426 294.947C275.082 295.137 273.754 295.71 271.628 294.622C270.693 294.143 270.125 293.229 270.044 292.253C267.705 290.039 263.84 286.705 262.741 285.334C260.898 283.033 257.431 279.46 253.579 275.252C251.43 276.694 249.236 278.053 247.057 279.206C239.252 283.336 231.592 284.706 226.051 280.325C223.168 278.046 223.403 274.322 227.336 270.11C230.359 266.871 235.618 262.869 240.292 258.61ZM243.641 263.477C239.237 267.414 234.434 271.093 231.619 274.109C231.029 274.739 230.458 275.589 230.154 276.068C231.777 277.141 233.669 277.379 235.693 277.126C238.417 276.787 241.343 275.6 244.317 274.027C246.096 273.086 247.886 272.012 249.655 270.869C247.583 268.49 245.519 265.996 243.641 263.477ZM244.579 254.382C246.224 252.569 247.563 250.745 248.304 248.929C249.688 245.539 247.085 242.446 244.473 241.646C243.851 241.456 243.22 241.381 242.68 241.618C242.183 241.837 241.85 242.34 241.612 243.054C240.989 244.921 241.346 247.07 242.173 249.375C242.755 250.997 243.581 252.677 244.579 254.382Z" fill="#00006E"/><path fill-rule="evenodd" clip-rule="evenodd" d="M326.285 234.36C326.504 234.312 326.731 234.289 326.965 234.294C334.305 234.436 330.268 240.104 327.471 240.171C326.934 240.183 324.484 240.217 322.156 240.47C320.933 240.603 319.738 240.742 319.075 241.073C316.825 242.197 312.444 243.734 308.971 245.793C307.298 246.784 305.762 247.778 305.316 249.115C305.232 249.364 305.44 249.532 305.623 249.728C306.105 250.244 306.787 250.706 307.575 251.166C310.166 252.681 313.755 254.017 317.006 255.518C319.706 256.764 322.186 258.135 323.917 259.7C325.431 261.069 326.429 262.614 326.823 264.302C327.433 266.919 326.695 270.183 322.883 273.991C316.921 279.945 307.84 280.932 299.491 280.932C296.462 280.932 293.364 280.425 292.771 280.323C292.028 280.318 291.286 280.033 290.72 279.467C290.046 278.794 289.898 278.097 289.863 277.588C289.807 276.764 290.048 276.01 290.672 275.358C290.877 275.145 291.568 274.367 293.028 274.457C293.473 274.484 296.299 275.073 299.491 275.073C306.317 275.073 313.868 274.713 318.742 269.845C320.504 268.084 321.399 266.843 321.116 265.633C320.922 264.802 320.207 264.171 319.358 263.528C318.045 262.534 316.349 261.668 314.551 260.838C310.348 258.898 305.649 257.149 302.882 255.088C299.924 252.884 298.758 250.254 299.758 247.26C300.571 244.822 302.934 242.56 305.983 240.753C309.587 238.616 314.122 236.997 316.457 235.831C318.403 234.859 323.958 234.479 326.285 234.36ZM295.303 278.899L295.295 278.912L295.299 278.906L295.303 278.899ZM295.712 277.594C295.682 278.033 295.554 278.468 295.326 278.861C295.563 278.466 295.687 278.042 295.712 277.594ZM294.965 275.431C295.333 275.838 295.566 276.324 295.665 276.831C295.591 276.412 295.411 275.918 294.965 275.431Z" fill="#00006E"/><path fill-rule="evenodd" clip-rule="evenodd" d="M348.878 271.241C348.197 272.237 347.522 273.186 346.865 274.068C344.543 277.189 342.368 279.496 340.914 280.404C339.765 281.122 337.844 282.345 336.546 282.516C334.785 282.747 333.416 282.121 332.594 280.479C332.495 280.28 332.307 279.879 332.277 279.234C332.26 278.869 332.385 277.386 332.659 275.206C333.52 268.362 335.693 253.693 336.934 247.596C337.228 246.152 337.499 245.12 337.684 244.643C337.872 244.157 338.09 243.839 338.243 243.649C339.228 242.433 340.375 242.417 341.196 242.593C341.856 242.734 342.679 243.088 343.229 244.162C343.357 244.413 343.619 245.078 343.634 246.272C343.644 247.105 343.305 247.862 342.751 248.402C341.612 253.807 339.56 267.544 338.619 274.792C339.422 274.048 340.378 272.896 341.446 271.517C344.037 268.172 347.043 263.529 349.54 259.068C349.803 257.347 350.121 255.66 350.475 254.086C351.22 250.777 352.121 247.958 352.939 246.301C353.543 245.078 354.23 244.301 354.77 243.911C355.497 243.386 356.231 243.214 356.902 243.23C357.7 243.25 358.499 243.521 359.215 244.237C359.774 244.795 360.216 245.582 360.361 246.655C360.501 247.696 360.302 249.301 359.657 251.263C358.805 253.856 357.163 257.328 355.171 260.968C354.77 263.786 354.542 266.649 354.608 269.133C354.655 270.941 355.284 273.192 355.485 273.869C355.817 273.721 356.416 273.43 356.878 273.081C357.429 272.664 358.024 272.135 358.67 271.488C359.549 270.607 360.509 269.52 361.559 268.209C362.57 266.947 364.415 266.743 365.677 267.754C366.94 268.764 367.143 270.61 366.133 271.872C363.292 275.418 360.948 277.547 359.1 278.642C357.238 279.746 355.643 279.975 354.355 279.764C352.042 279.387 350.159 277.498 349.328 274.144C349.116 273.285 348.968 272.307 348.878 271.241Z" fill="#00006E"/><path fill-rule="evenodd" clip-rule="evenodd" d="M372.135 277.897C372.662 278.245 373.079 278.766 373.294 279.412C373.805 280.946 372.974 282.606 371.44 283.117C368.866 283.973 366.136 282.57 366.212 277.672C366.334 269.804 373.344 247.429 374.929 242.591C375.132 241.97 375.259 241.603 375.284 241.54C376.676 237.962 380.597 241.168 380.722 241.467C380.747 241.525 381.182 242.219 380.824 243.442C380.78 243.589 380.528 244.377 380.003 245.96L379.957 246.086C378.085 251.935 373.632 266.399 372.377 274.676C372.205 275.809 372.151 277.086 372.135 277.897Z" fill="#00006E"/><path fill-rule="evenodd" clip-rule="evenodd" d="M375.416 253.629C375.043 252.901 375.378 251.964 375.8 250.97C376.471 249.389 377.662 247.764 379.085 246.382C380.35 245.154 381.801 244.112 383.283 243.514C384.373 243.074 385.464 242.846 386.443 243.199C387.903 243.727 388.815 245.397 389.425 248.271C390.141 251.657 389.242 255.805 387.622 259.917C385.036 266.477 380.506 272.938 376.417 276.281C375.474 277.052 374.575 277.647 373.736 277.969C373.407 278.095 373.125 278.246 372.871 278.154C372.781 278.122 372.767 278.003 372.709 277.895C372.601 277.694 372.514 277.458 372.436 277.191C372.186 276.325 372.07 275.212 372.07 273.829C372.07 272.212 370.758 270.899 369.141 270.899C367.524 270.899 366.211 272.212 366.211 273.829C366.211 279.227 367.948 282.034 369.889 283.195C371.516 284.168 373.552 284.316 375.835 283.44C380.036 281.827 385.699 275.96 389.821 268.784C393.929 261.634 396.47 253.282 395.157 247.058C393.964 241.425 391.294 238.721 388.432 237.688C384.289 236.193 378.952 238.344 375.004 242.178C372.562 244.549 370.673 247.471 369.885 250.123C369.202 252.422 369.318 254.576 370.2 256.298C370.936 257.737 372.703 258.308 374.142 257.571C375.582 256.835 376.152 255.069 375.416 253.629Z" fill="#00006E"/><path fill-rule="evenodd" clip-rule="evenodd" d="M397.63 280.271C397.884 280.719 398.022 281.24 398.008 281.792C397.951 283.856 396.638 284.473 396.322 284.63C395.485 285.041 394.595 285.087 393.66 284.602C393.317 284.423 392.708 284.05 392.298 283.152C392.138 282.812 391.84 281.747 391.724 280.357C391.573 278.606 391.671 276.276 392.334 274.58C393.811 270.776 402.237 248.833 407.448 240.204C408.588 238.317 409.665 236.985 410.488 236.328C411.423 235.588 412.331 235.354 413.065 235.354C414.004 235.354 414.903 235.676 415.704 236.434C416.425 237.116 417.177 238.47 417.636 240.451C419.323 247.765 418.49 266.634 417.44 272.507C417.293 273.323 414.325 280.128 413.176 282.837C413.132 283.112 413.043 283.385 412.914 283.647C412.175 285.122 411.32 285.46 411.249 285.492C410.141 286.002 409.242 285.764 408.556 285.365C407.982 285.035 407.15 284.386 407.097 282.939C407.092 282.843 407.07 282.286 407.408 281.453C408.022 279.925 411.525 272.303 411.672 271.476C412.531 266.675 413.256 252.576 412.366 244.549C412.34 244.285 412.299 244.015 412.255 243.745C411.676 244.677 411.044 245.746 410.51 246.798C405.503 256.609 399.059 273.451 397.79 276.706C397.421 277.654 397.532 279.344 397.63 280.271ZM392.16 281.452V281.46L392.165 281.436L392.16 281.452Z" fill="#00006E"/><path fill-rule="evenodd" clip-rule="evenodd" d="M415.184 267.534C414.454 267.526 413.475 267.55 412.683 267.692C409.02 268.347 404.538 270.004 403.025 271.514C401.881 272.657 400.025 272.656 398.881 271.512C397.737 270.368 397.742 268.511 398.885 267.369C400.332 265.925 403.674 264.183 407.297 263.023C410.933 261.859 414.81 261.295 417.173 261.768C419.118 262.158 420.387 263.177 421.01 264.485C421.575 265.663 421.748 267.336 420.654 269.526C419.928 270.973 418.166 271.559 416.724 270.836C415.482 270.215 414.872 268.829 415.184 267.534Z" fill="#00006E"/><path fill-rule="evenodd" clip-rule="evenodd" d="M436.346 244.985C435.986 244.502 435.772 243.904 435.768 243.256C435.763 241.968 435.844 241.244 435.91 240.956C436.106 240.101 436.511 239.659 436.743 239.429C437.735 238.444 438.812 238.355 439.885 238.767C440.21 238.892 441.407 239.43 441.807 241.16C442.195 242.837 442.729 249.921 442.163 252.416C441.825 253.916 437.624 266.316 435.18 274.948C434.891 275.985 434.62 277.061 434.393 278.047C435.554 278.941 435.888 280.589 435.118 281.877C433.903 283.9 432.875 284.781 432.381 285.039C431.38 285.561 430.516 285.473 429.831 285.223C429.03 284.931 427.801 284.117 427.721 282.08C427.672 280.794 428.384 277.447 429.546 273.353C431.954 264.835 436.115 252.604 436.449 251.124C436.707 249.977 436.529 247.106 436.346 244.985Z" fill="#00006E"/><path fill-rule="evenodd" clip-rule="evenodd" d="M445.411 275.215C447.254 274.709 448.878 273.492 450.378 271.876C452.461 269.63 454.259 266.627 455.87 263.296C461.122 252.438 464.349 238.253 467.184 232.587C467.909 231.142 469.667 230.555 471.114 231.279C472.56 232.003 473.148 233.764 472.422 235.21C469.596 240.862 466.383 255.016 461.144 265.847C457.152 274.101 451.816 280.348 445.211 281.222C443.756 281.415 442.42 280.946 441.294 279.68C440.151 278.389 439.167 275.591 438.655 271.889C438.001 267.145 437.881 260.699 437.93 254.961C436.706 254.611 435.811 253.486 435.807 252.153C435.798 248.669 436.55 246.171 437.872 243.088C438.112 242.521 438.295 240.926 438.37 240.708C439.051 238.751 440.711 238.704 441.201 238.711C441.459 238.714 444.103 238.878 444.103 241.809C444.103 244.474 443.128 261.417 444.459 271.09C444.641 272.392 444.859 273.55 445.14 274.494C445.211 274.726 445.313 274.988 445.411 275.215Z" fill="#00006E"/><path fill-rule="evenodd" clip-rule="evenodd" d="M172.941 295.614C172.887 301.094 169.192 306.751 165.979 312.51C162.342 319.029 159.305 325.661 160.922 332.122C161.564 334.685 163.69 335.749 166.637 335.391C169.43 335.051 173.114 333.274 175.801 331.265C177.81 329.764 179.235 328.082 179.656 326.82C179.997 325.797 179.445 324.69 178.422 324.349C177.399 324.007 176.292 324.561 175.951 325.583C175.741 326.211 174.984 326.913 174.06 327.669C172.322 329.091 169.896 330.479 167.724 331.159C166.901 331.416 166.125 331.576 165.46 331.547C165.119 331.532 164.794 331.505 164.712 331.174C163.322 325.622 166.266 320.014 169.391 314.413C172.94 308.05 176.787 301.707 176.847 295.653C176.858 294.575 175.992 293.691 174.914 293.681C173.836 293.67 172.952 294.536 172.941 295.614Z" fill="#00006E"/><path fill-rule="evenodd" clip-rule="evenodd" d="M177.279 316.56C176.599 316.943 175.749 317.407 174.91 317.826C168.949 320.803 162.997 323.402 156.733 325.677C155.72 326.045 154.599 325.521 154.231 324.507C153.863 323.494 154.387 322.373 155.4 322.005C161.521 319.782 167.339 317.241 173.165 314.331C175.193 313.319 176.722 312.335 177.158 312.153C177.585 311.975 177.914 311.968 178.097 311.976C178.823 312.008 179.27 312.353 179.563 312.726C179.858 313.1 180.095 313.619 179.944 314.35C179.911 314.505 179.697 315.127 178.826 315.997C178.402 316.42 177.832 316.608 177.279 316.56Z" fill="#00006E"/><path fill-rule="evenodd" clip-rule="evenodd" d="M194.312 303.264C194.017 304.087 193.685 305.055 193.372 306.039C191.224 312.818 187.809 324.172 183.264 333.25C182.782 334.215 181.607 334.605 180.644 334.123C179.679 333.64 179.289 332.466 179.771 331.502C184.22 322.616 187.546 311.495 189.648 304.859C190.641 301.728 191.431 299.521 191.914 298.783C192.527 297.849 193.3 297.673 193.759 297.659C194.308 297.642 194.845 297.809 195.314 298.294C195.514 298.5 195.758 298.833 195.906 299.373C196.005 299.732 196.089 300.355 196.108 301.277C196.129 302.316 195.334 303.183 194.312 303.264Z" fill="#00006E"/><path fill-rule="evenodd" clip-rule="evenodd" d="M189.85 319.157C189.785 319.553 189.599 319.932 189.291 320.234C188.449 321.061 187.626 320.831 187.25 320.7C186.947 320.594 185.511 319.861 186.046 318.146C186.268 317.436 187.757 314.363 189.833 312.39C191.611 310.702 193.779 309.867 195.921 310.723C197.007 311.157 197.687 311.829 198.1 312.629C198.477 313.362 198.628 314.237 198.523 315.234C198.383 316.572 197.728 318.233 196.834 319.997C195.507 322.613 193.625 325.533 192.972 327.871C192.877 328.209 192.812 328.528 192.797 328.826C192.783 329.095 192.79 329.344 193.013 329.492C193.37 329.73 193.839 329.769 194.366 329.746C195.185 329.71 196.108 329.478 197.096 329.123C198.123 328.752 199.206 328.25 200.306 327.652C198.978 323.93 200.593 318.908 208.27 314.262C209.113 313.752 211.057 312.974 212.696 312.959C214.398 312.943 215.79 313.642 216.429 315.186C216.778 316.029 216.771 317.198 216.144 318.552C215.279 320.42 213.059 322.992 210.201 325.462C208.908 326.579 207.486 327.679 206.017 328.691C207.08 329.373 208.439 329.836 209.947 330.054C214.024 330.641 219.176 329.356 223.465 325.203C224.24 324.453 225.477 324.473 226.227 325.247C226.977 326.022 226.957 327.259 226.183 328.009C220.865 333.157 214.444 334.648 209.391 333.92C206.575 333.515 204.173 332.41 202.502 330.883C200.377 332.068 198.285 332.966 196.459 333.379C194.18 333.894 192.231 333.665 190.848 332.744C189.186 331.637 188.631 329.941 188.986 327.814C189.332 325.735 190.728 323.087 192.135 320.509C193.13 318.687 194.125 316.905 194.519 315.436C194.576 315.223 194.618 315.02 194.638 314.828C194.66 314.624 194.675 314.432 194.472 314.35C193.747 314.061 193.124 314.651 192.523 315.222C191.251 316.431 190.141 318.571 189.85 319.157ZM212.587 316.881C212.499 316.883 212.412 316.888 212.341 316.897C211.532 317.014 210.694 317.361 210.293 317.604C207.002 319.595 205.045 321.558 204.209 323.431C203.889 324.148 203.764 324.837 203.813 325.478C205.158 324.545 206.461 323.531 207.647 322.506C209.696 320.735 211.397 318.941 212.292 317.477C212.401 317.298 212.505 317.076 212.587 316.881ZM188.048 316.891C187.641 316.84 187.101 316.909 186.555 317.446C186.967 317.042 187.513 316.857 188.048 316.891Z" fill="#00006E"/><path fill-rule="evenodd" clip-rule="evenodd" d="M256.518 314.814C256.609 314.727 256.699 314.642 256.79 314.558C259.913 311.684 263.105 310.879 265.438 312.627C265.87 312.95 266.508 313.868 266.306 315.44C266.023 317.636 264.252 322.845 263.08 327.222C262.781 328.339 262.523 329.397 262.352 330.321L262.401 330.273C263.164 329.511 264.401 329.512 265.163 330.274C265.925 331.037 265.924 332.275 265.162 333.037C263.672 334.524 262.535 335.209 261.793 335.42C260.967 335.655 260.304 335.531 259.777 335.262C258.974 334.853 258.216 333.819 258.232 332.048C258.252 329.936 259.309 326.051 260.411 322.353C261.114 319.993 261.861 317.075 262.225 315.621C262.028 315.671 261.822 315.759 261.61 315.86C260.905 316.196 260.179 316.748 259.436 317.432C257.368 319.336 255.26 322.2 253.49 325.043C252.652 327.116 251.879 329.031 251.509 329.955C251.089 331.004 250.144 333.326 249.523 334.402C249.183 334.991 248.821 335.357 248.596 335.518C247.603 336.228 246.748 335.983 246.104 335.457C245.839 335.239 245.314 334.727 245.314 333.595C245.314 332.885 245.824 331.173 246.849 329.014C247.619 327.393 248.665 325.458 249.875 323.485C251.221 320.097 252.742 316.302 253.178 315.424C254.003 313.763 255.662 314.245 255.84 314.324C256.072 314.427 256.313 314.578 256.518 314.814ZM253.901 317.703C253.424 317.357 253.109 316.799 253.096 316.164C253.114 317.013 253.498 317.466 253.891 317.715L253.9 317.705L253.901 317.703Z" fill="#00006E"/><path fill-rule="evenodd" clip-rule="evenodd" d="M272.128 320.103C273.454 317.52 275.639 314.965 277.985 313.193C279.748 311.861 281.609 310.976 283.268 310.729C285.401 310.41 287.274 311.023 288.598 312.796C290.409 315.22 289.77 317.877 287.489 320.223C284.97 322.813 280.261 325.001 276.901 325.651C276.114 325.804 275.387 325.866 274.748 325.852C274.786 325.986 274.835 326.116 274.898 326.242C275.256 326.967 276.05 327.432 277.263 327.72C279.014 328.135 281.462 328.113 284.77 327.562C285.833 327.385 286.84 328.105 287.017 329.168C287.194 330.231 286.474 331.238 285.411 331.415C280.555 332.224 277.214 331.952 275.043 331.117C273.192 330.405 272.044 329.284 271.396 327.973C270.651 326.466 270.582 324.626 271.106 322.691C271.122 322.318 271.205 321.908 271.379 321.461C271.529 321.073 271.772 320.619 272.128 320.103ZM275.648 321.902L275.651 321.901C276.52 321.781 277.54 321.504 278.598 321.117C280.749 320.329 283.056 319.091 284.533 317.654C285.385 316.826 286.114 315.998 285.468 315.133C285.072 314.602 284.483 314.497 283.845 314.592C282.734 314.758 281.52 315.418 280.339 316.31C279.265 317.122 278.227 318.134 277.336 319.239C277.351 319.758 277.16 320.282 276.764 320.677C276.31 321.129 275.939 321.535 275.648 321.902Z" fill="#00006E"/><path fill-rule="evenodd" clip-rule="evenodd" d="M299.34 316.782C299.241 316.558 299.184 316.31 299.177 316.049C299.168 315.652 299.412 314.72 299.906 313.761C300.507 312.596 301.417 311.359 301.767 311.09C302.32 310.666 302.843 310.629 303.183 310.654C303.678 310.691 304.096 310.886 304.441 311.23C304.798 311.587 305.095 312.112 305.114 312.868C305.127 313.36 304.965 314.154 304.562 315.129C303.055 318.778 297.828 326.689 297.085 328.421C297.005 328.606 296.526 329.66 296.179 330.707C296.103 330.934 296.027 331.227 295.97 331.462C296.161 331.763 296.272 332.12 296.272 332.503C296.272 333.581 295.396 334.456 294.318 334.456C293.671 334.456 293.176 334.228 292.786 333.88C292.39 333.528 292.057 332.985 291.988 332.213C291.941 331.694 292.042 330.93 292.275 330.111C292.664 328.742 293.388 327.129 293.495 326.881C294.007 325.687 296.593 321.613 298.701 317.95C298.915 317.579 299.131 317.183 299.34 316.782ZM294.405 330.552C294.376 330.55 294.348 330.549 294.318 330.549L294.405 330.552Z" fill="#00006E"/><path fill-rule="evenodd" clip-rule="evenodd" d="M319.856 326.042C318.701 326.794 317.47 327.446 316.224 327.836C313.792 328.598 311.301 328.466 309.012 326.69C308.657 326.415 308.355 326.02 308.15 325.535C307.932 325.016 307.84 324.339 307.788 323.952C307.275 320.146 309.143 317.689 311.722 316.279C314.031 315.016 316.964 314.686 318.999 315.002C320.047 315.165 320.892 315.511 321.444 315.918C322.158 316.443 322.532 317.11 322.638 317.812C322.655 317.926 322.666 318.042 322.669 318.161C322.905 317.732 323.087 317.365 323.142 317.262C323.993 315.674 328.678 314.931 326.527 319.229C323.868 324.539 321.972 333.851 318.621 341.412C316.159 346.968 312.885 351.581 308.289 353.549C304.841 355.025 302.375 354.669 300.803 353.586C299.134 352.435 298.236 350.302 298.349 347.661C298.531 343.429 301.361 337.767 306.246 334.657C307.155 334.078 308.364 334.347 308.942 335.256C309.521 336.165 309.253 337.373 308.344 337.952C304.618 340.324 302.39 344.6 302.252 347.828C302.205 348.922 302.329 349.893 303.02 350.37C303.808 350.913 305.023 350.698 306.751 349.958C310.527 348.342 313.027 344.394 315.05 339.829C316.991 335.448 318.454 330.485 319.856 326.042ZM317.114 318.898C316.47 318.889 315.776 318.93 315.199 319.082C313.261 319.593 311.311 320.847 311.659 323.43C311.67 323.511 311.698 323.684 311.721 323.823C313.144 324.721 314.703 324.362 316.162 323.669C316.981 323.28 317.775 322.782 318.522 322.246C317.792 322.261 317.084 321.864 316.735 321.17C316.344 320.392 316.523 319.476 317.114 318.898Z" fill="#00006E"/><path fill-rule="evenodd" clip-rule="evenodd" d="M338.009 303.624C337.957 303.549 337.91 303.47 337.869 303.386C337.389 302.421 337.783 301.247 338.748 300.767C338.987 300.649 339.197 300.336 339.414 300.056C339.936 299.382 340.33 298.667 340.33 298.667C340.819 297.781 341.905 297.415 342.83 297.825C343.757 298.234 344.216 299.284 343.889 300.242C343.889 300.242 343.25 302.087 342.797 302.947C339.344 309.5 335.636 315.944 332.063 322.421C334.25 320.48 336.132 318.085 338.739 316.784C339.437 316.435 340.034 316.545 340.518 316.796C340.868 316.976 341.236 317.278 341.45 317.841C341.499 317.968 341.664 318.497 341.475 319.329C341.177 320.64 339.784 325.319 339.601 328.953C339.56 329.761 339.576 330.506 339.713 331.119C339.751 331.292 339.855 331.534 339.902 331.636C341.208 331.761 342.174 331.271 343.105 330.627C343.971 330.029 344.804 329.302 345.726 328.611C346.589 327.965 347.814 328.14 348.46 329.003C349.107 329.866 348.931 331.091 348.068 331.737C345.294 333.816 343.082 335.923 339.395 335.511C337.28 335.275 335.967 333.562 335.724 330.793C335.543 328.731 335.962 325.967 336.463 323.544C335.683 324.342 334.908 325.149 334.061 325.854C331.768 327.763 329.555 329.767 327.261 331.675C326.436 332.363 325.744 332.276 325.448 332.224C324.922 332.132 324.516 331.873 324.21 331.476C323.997 331.199 323.79 330.798 323.791 330.226C323.791 329.998 323.854 329.563 324.081 329.028C324.436 328.19 325.356 326.589 325.746 325.858C329.716 318.425 333.996 311.085 338.009 303.624Z" fill="#00006E"/><path fill-rule="evenodd" clip-rule="evenodd" d="M362.326 300.786C362.071 300.45 361.923 300.029 361.932 299.575C361.951 298.498 362.842 297.638 363.919 297.658C365.309 297.683 365.957 298.161 366.249 298.493C366.648 298.948 366.876 299.513 366.762 300.286C366.713 300.62 366.496 301.16 366.101 301.949C365.171 303.807 361.559 312.027 358.745 319.706C359.029 319.523 359.313 319.359 359.597 319.217C363.852 317.092 366.596 316.453 368.127 316.597C369.416 316.719 370.228 317.279 370.732 317.993C371.206 318.666 371.439 319.568 371.286 320.671C371.084 322.117 370.08 324.16 368.527 326.271C365.676 330.145 361.029 334.346 357.606 335.633C355.379 336.47 353.51 336.179 352.289 334.96C351.907 334.578 351.58 334.012 351.439 333.22C351.28 332.327 351.369 330.924 351.731 329.176C351.818 328.759 351.919 328.317 352.035 327.855C351.504 327.046 351.645 325.948 352.399 325.303C352.552 325.171 352.709 325.033 352.867 324.889C355.448 316.446 360.669 304.298 362.326 300.786ZM367.292 320.517C367.116 320.529 366.922 320.55 366.75 320.586C365.47 320.849 363.705 321.532 361.342 322.712C359.607 323.578 357.882 325.431 356.318 326.978C355.744 329.042 355.427 331.361 355.324 332.206C355.439 332.197 355.559 332.176 355.685 332.147C356.206 332.024 356.776 331.768 357.379 331.432C360.099 329.911 363.284 326.806 365.38 323.956C366.051 323.045 366.608 322.163 366.987 321.367C367.109 321.11 367.215 320.786 367.292 320.517Z" fill="#00006E"/><path fill-rule="evenodd" clip-rule="evenodd" d="M376.797 320.813C376.868 320.699 376.953 320.592 377.052 320.493C378.993 318.556 379.724 317.771 380.973 317.368C381.786 317.106 382.857 317.011 384.749 317.011C387.747 317.011 389.628 317.919 390.717 319.149C391.846 320.42 392.261 322.132 391.966 324.092C391.629 326.359 390.277 329.038 388.354 331.458C385.639 334.868 381.8 337.725 378.468 338.389C375.689 338.943 373.174 338.194 371.455 335.555C369.826 333.056 370.295 329.801 372.059 326.67C373.262 324.534 375.037 322.462 376.797 320.813ZM385.267 320.927C385.302 322.74 384.167 324.325 382.307 324.309C381.378 324.302 380.608 323.648 380.416 322.779C378.667 324.242 376.704 326.384 375.462 328.587C374.494 330.306 373.834 332.05 374.728 333.422C375.693 334.902 377.261 334.845 378.872 334.203C381.143 333.297 383.503 331.279 385.295 329.026C386.53 327.476 387.499 325.812 387.932 324.288C388.219 323.284 388.347 322.362 387.797 321.741C387.318 321.203 386.48 320.974 385.267 320.927Z" fill="#00006E"/><path fill-rule="evenodd" clip-rule="evenodd" d="M399.249 324.493C399.32 324.169 399.973 321.19 400.398 319.516C400.686 318.366 401.019 317.478 401.204 317.197C402.006 315.967 403.077 316.146 403.681 316.398C404.021 316.541 404.433 316.801 404.713 317.378C404.806 317.566 404.972 318.026 404.976 318.858C405.487 318.458 405.998 318.101 406.502 317.802C409.22 316.184 411.764 316.122 413.631 317.986C414.745 319.1 415.078 320.22 415.025 321.228C414.975 322.223 414.518 323.189 413.702 324.031C412.854 324.91 411.551 325.655 410.27 326.2C410.49 327.253 410.724 328.517 411.001 329.811C411.377 331.568 411.828 333.394 412.509 334.655C412.676 334.96 412.999 335.327 413.095 335.429C413.162 335.403 413.304 335.344 413.4 335.284C413.783 335.041 414.191 334.649 414.649 334.111C415.348 333.29 416.579 333.191 417.403 333.89C418.222 334.588 418.322 335.822 417.623 336.643C415.486 339.155 413.584 339.585 412.19 339.25C411.218 339.017 410.327 338.385 409.6 337.362C408.865 336.331 408.262 334.828 407.797 333.17C407.279 331.324 406.743 328.839 406.402 327.177C405.345 327.107 404.724 326.536 404.522 326.233C404.28 325.865 404.131 325.438 404.177 324.946C403.5 325.689 402.847 326.46 402.244 327.215C400.515 330.371 397.29 334.622 397.29 334.622C396.658 335.449 395.487 335.636 394.632 335.047C393.773 334.458 393.528 333.299 394.071 332.413C394.071 332.413 395.04 330.842 395.498 330.041C396.051 329.074 397.308 327.202 398.919 325.164L399.029 324.954C399.075 324.859 399.121 324.764 399.167 324.669L399.249 324.493ZM411.097 321.038C411.047 320.965 410.955 320.835 410.87 320.75C410.455 320.334 409.905 320.495 409.319 320.739C408.542 321.062 407.729 321.623 406.91 322.304L406.878 322.331C407.435 322.162 408.13 322.18 408.741 322.638C409.312 322.397 409.891 322.096 410.377 321.749C410.653 321.552 410.991 321.165 411.097 321.038Z" fill="#00006E"/><path fill-rule="evenodd" clip-rule="evenodd" d="M424.521 326.109C428.293 328.17 429.244 331.321 428.403 333.773C427.392 336.707 423.311 339.497 416.721 338.733C415.65 338.609 414.883 337.638 415.007 336.568C415.132 335.497 416.1 334.728 417.172 334.853C419.432 335.114 421.299 334.879 422.683 334.291C423.712 333.853 424.45 333.252 424.709 332.503C424.908 331.925 424.712 331.307 424.226 330.737C423.417 329.792 421.969 329.023 419.872 328.5C419.042 328.292 418.662 327.793 418.46 327.357C418.219 326.846 418.119 326.183 418.556 325.428C418.737 325.116 419.308 324.524 420.284 323.935C422.598 322.539 427.92 320.143 430.096 319.294C431.064 318.916 431.746 318.855 431.891 318.869C432.494 318.924 432.863 319.196 433.094 319.424C433.509 319.829 433.715 320.331 433.679 320.946C433.662 321.227 433.598 321.72 433.101 322.222C432.98 322.346 432.349 322.791 430.944 323.498C430.582 323.68 430.191 323.739 429.815 323.69C428.282 324.358 426.217 325.279 424.521 326.109Z" fill="#00006E"/></svg>