<svg width="512" height="512" viewBox="0 0 512 512" fill="none" xmlns="http://www.w3.org/2000/svg"><path fill-rule="evenodd" clip-rule="evenodd" d="M385.352 406.233L385.254 406.285C384.402 406.77 382.621 407.777 380.206 409.187C375.317 412.04 367.786 416.338 360.065 420.994C356.029 423.427 351.972 425.984 348.165 428.367C339.78 433.61 332.636 438.101 329.911 439.303C311.774 447.319 293.27 452.329 274.476 454.621C255.574 456.923 236.367 456.476 216.925 453.469C141.839 441.923 106.075 402.022 97.9385 352.452C93.7179 326.739 96.9451 298.321 106.247 269.787C114.448 244.635 127.4 219.416 143.85 195.834C151.32 185.132 160.012 175.248 169.45 166.048C183.452 152.401 199.088 140.255 214.78 129.152C227.166 120.388 240.619 112.947 254.582 106.37C275.236 96.6364 297.003 88.7962 318.005 81.3061C325.801 78.5243 338.95 76.8666 349.55 73.7566C354.015 72.4459 358.005 70.9138 360.686 68.7624C362.383 67.4037 364.864 67.6772 366.225 69.3731C367.58 71.0687 367.307 73.5484 365.615 74.9083C362.256 77.596 357.35 79.6757 351.766 81.313C341.314 84.3797 328.339 85.9802 320.649 88.7228C299.885 96.129 278.364 103.871 257.936 113.494C244.399 119.873 231.345 127.08 219.328 135.581C206.512 144.651 193.723 154.425 181.877 165.176C170.118 175.844 159.289 187.473 150.306 200.343C134.283 223.261 121.755 247.804 113.648 272.221C104.589 299.516 101.067 326.674 104.852 351.355C112.115 398.714 146.252 436.574 217.733 448.401C236.701 451.526 255.456 452.18 273.942 450.084C292.335 447.995 310.449 443.185 328.228 435.469C331.322 434.11 340.396 428.658 350.055 422.199C355.926 418.273 361.981 413.962 367.195 410.159C371.872 406.748 375.796 403.689 378.375 401.736C379.745 400.7 380.717 399.963 381.188 399.613C382.804 398.402 384.147 398.775 384.182 398.775C386.337 399.065 387.846 401.049 387.556 403.205C387.372 404.567 386.506 405.677 385.352 406.233Z" fill="#00006E"/></svg>