<svg width="510" height="510" viewBox="0 0 510 510" fill="none" xmlns="http://www.w3.org/2000/svg"><path fill-rule="evenodd" clip-rule="evenodd" d="M224.483 222.547C223.597 221.882 223.201 220.699 223.587 219.594C224.063 218.236 225.557 217.514 226.918 217.994C228.796 218.798 229.702 219.939 229.888 221.307C230.055 222.522 229.707 224.151 228.366 225.903C227.059 227.615 224.827 229.69 222.088 232.007C220.761 233.128 219.312 234.317 217.824 235.578C209.04 243.016 197.753 251.952 196.139 257.085C195.674 258.447 194.186 259.181 192.82 258.715C191.454 258.249 190.725 256.758 191.19 255.396C192.083 253.028 194.728 249.957 198.379 246.672C202.731 242.757 208.509 238.409 213.655 234.234C215.041 233.107 216.375 231.994 217.608 230.894C219.747 228.982 221.593 227.144 222.982 225.513C223.852 224.495 224.1 223.206 224.483 222.547Z" fill="#00006E"/><path fill-rule="evenodd" clip-rule="evenodd" d="M241.079 228.084C240.91 227.547 240.911 226.958 241.12 226.392C241.619 225.037 243.123 224.345 244.474 224.843C245.76 225.408 246.267 225.912 246.442 226.277C246.65 226.701 247.258 227.666 246.198 229.368C245.038 231.319 240.192 235.727 234.774 240.978C231.109 244.532 227.255 248.563 223.971 252.158C222.719 253.525 221.567 254.837 220.562 256.052C221.794 255.446 222.79 255.644 223.046 255.72C224.412 256.187 225.142 257.672 224.675 259.039C224.394 259.864 223.739 260.456 222.962 260.697C222.917 260.723 222.798 260.73 222.727 260.769C221.089 261.589 217.384 263.729 215.782 263.983C214.666 264.165 213.846 263.89 213.35 263.495C212.812 263.074 212.385 262.518 212.296 261.693C212.24 261.158 212.279 260.482 212.58 259.717C212.941 258.798 213.71 257.56 214.856 256.125C217.432 252.9 222.009 248.383 226.703 243.76C228.432 242.055 230.175 240.345 231.82 238.654C233.816 236.599 235.669 234.594 237.26 232.801C238.938 230.905 240.275 229.267 241.079 228.084Z" fill="#00006E"/><path fill-rule="evenodd" clip-rule="evenodd" d="M230.315 245.701C229.871 245.581 229.404 245.469 228.914 245.365C227.783 245.116 226.548 244.905 225.264 244.725C217.414 243.604 207.897 243.014 207.376 242.857C206.011 242.391 205.28 240.905 205.746 239.538C206.212 238.171 207.7 237.442 209.065 237.908C209.546 238.099 218.465 239.642 225.874 241.034C227.182 241.28 228.447 241.507 229.62 241.707C231.074 241.95 232.384 242.15 233.458 242.364C235.385 242.748 236.65 243.358 237.146 243.786C237.907 244.44 237.957 245.251 237.931 245.943C237.908 246.535 237.557 247.131 236.857 247.765C236.396 248.176 235.239 248.666 233.13 249.188C231.7 249.384 230.378 248.385 230.181 246.955C230.12 246.519 230.172 246.089 230.315 245.701Z" fill="#00006E"/><path fill-rule="evenodd" clip-rule="evenodd" d="M245.169 253.241C246.827 252.192 248.627 251.39 250.397 250.952C255.252 249.756 259.894 251.004 261.813 256.421C262.794 259.161 262.073 261.688 260.154 263.796C258.27 265.863 255.138 267.515 251.722 268.444C245.418 270.155 238.388 269.135 236.334 264.946C235.105 262.563 235.111 260.571 235.696 258.95C236.624 256.383 239.365 254.644 242.494 253.77C243.373 253.523 244.28 253.348 245.169 253.241ZM242.556 265.232C242.715 265.276 242.877 265.31 243.043 265.346C245.305 265.812 248.107 265.542 250.705 264.792C253.322 264.033 255.747 262.771 257.151 261.14C257.975 260.19 258.362 259.085 257.892 257.888C256.99 255.596 255.195 254.873 253.182 255.05C253.519 255.543 253.674 256.091 253.73 256.636C253.832 257.65 253.259 259.391 250.451 260.927C249.155 261.564 247.585 261.028 246.953 259.734C246.667 259.152 246.615 258.518 246.767 257.934C244.547 259.691 242.867 262.007 242.798 264.262C242.779 264.609 242.694 264.937 242.556 265.232Z" fill="#00006E"/><path fill-rule="evenodd" clip-rule="evenodd" d="M271.587 260.479C282.383 252.207 284.859 256.378 274.492 264.165C274.449 264.245 274.406 264.325 274.357 264.408C274.223 264.631 273.832 265.097 273.16 265.879C272.573 266.457 271.779 266.702 271.021 266.611C269.862 267.416 268.425 268.452 266.849 269.677C265.259 270.913 263.532 272.334 261.801 273.843C255.768 279.094 249.526 285.205 247.774 287.27C247.634 287.433 247.552 287.936 247.397 288.283C247.5 288.734 247.481 289.222 247.32 289.694C246.854 291.061 245.368 291.79 244.001 291.324C242.483 290.732 241.762 289.665 241.882 288.159C241.927 287.611 242.084 286.933 242.445 286.262C242.924 285.383 243.675 284.429 244.12 283.976C246.054 281.962 253.068 276.32 259.382 271.018C261.152 269.532 262.846 268.053 264.361 266.697C266.403 264.862 268.099 263.252 269.268 262.203C270.019 261.528 270.57 261.069 270.865 260.854C271.124 260.663 271.369 260.547 271.587 260.479ZM245.976 286.493C245.888 286.442 245.795 286.405 245.69 286.375C245.789 286.408 245.882 286.445 245.976 286.493Z" fill="#00006E"/><path fill-rule="evenodd" clip-rule="evenodd" d="M276.77 267.091C276.788 267.161 276.552 267.175 276.359 267.246C275.211 267.68 272.518 268.587 271.397 268.541C269.551 268.459 268.744 267.431 268.636 266.268C268.513 264.916 268.931 263.553 270.05 262.388C271.922 260.432 276.008 258.853 279.98 258.762C283.019 258.693 285.915 259.445 287.743 261.242C289.043 262.522 289.89 264.296 289.857 266.752C289.839 275.534 282.863 279.663 276.027 280.757C272.115 281.38 268.277 280.938 265.874 279.897C264.581 279.34 263.654 278.556 263.08 277.739C261.602 275.64 261.832 272.019 268.053 268.763C269.349 268.127 270.919 268.662 271.555 269.959C272.192 271.255 271.656 272.824 270.36 273.461C269.137 274.022 268.234 274.54 267.647 275.072L267.606 275.115C267.956 275.34 268.387 275.85 268.907 276.007C271.48 276.795 275.291 276.869 278.702 275.771C282.573 274.529 285.965 271.76 286.128 266.685C286.156 265.71 285.963 264.918 285.537 264.315C284.806 263.282 283.506 262.833 282.093 262.672C280.703 262.518 279.187 262.675 277.777 263.046C278.314 263.708 278.512 264.623 278.232 265.49C277.992 266.24 277.441 266.805 276.77 267.091Z" fill="#00006E"/><path fill-rule="evenodd" clip-rule="evenodd" d="M307.576 273.09C310.833 272.628 313.832 272.967 315.825 274.284C316.264 274.571 316.698 275.056 316.918 275.583C317.158 276.16 317.187 276.77 316.997 277.31C315.323 282.386 306.506 284.613 300.708 283.808C299.144 283.595 297.816 283.153 296.828 282.579C296.66 282.764 296.5 282.956 296.35 283.147C295.748 283.926 295.35 284.706 295.516 285.483C295.653 286.13 296.226 286.657 297.095 287.211C298.26 287.961 299.933 288.595 302.176 289.145C303.109 289.374 304.181 289.408 305.272 289.402C307.205 289.382 309.196 289.178 310.84 289.155C312.283 289.168 313.445 290.343 313.436 291.788C313.427 293.232 312.246 294.397 310.803 294.383C308.863 294.332 306.43 294.507 304.193 294.354C303.038 294.27 301.927 294.117 300.929 293.835C294.263 291.918 291.631 288.989 291.162 286.339C290.815 284.395 291.443 282.352 292.997 280.466C293.447 279.92 293.977 279.385 294.574 278.868C294.608 277.364 295.623 275.347 298.615 273.148C299.991 272.123 301.283 271.559 302.327 271.231C303.008 270.468 304.102 270.147 305.129 270.498C306.174 270.907 306.642 271.245 306.752 271.356C307.335 271.961 307.551 272.561 307.576 273.09ZM313 277.025C311.788 276.585 310.233 276.591 308.573 276.83C305.951 277.204 303.066 278.24 300.65 279.631C300.755 279.677 300.865 279.71 300.972 279.735C302.469 280.052 304.305 280.147 306.129 279.937C308.895 279.618 311.744 278.78 313 277.025Z" fill="#00006E"/></svg>