<svg width="80" height="194" viewBox="0 0 80 194" fill="none" xmlns="http://www.w3.org/2000/svg"><path fill-rule="evenodd" clip-rule="evenodd" d="M25.6199 171.096C23.862 170.214 22.0973 169.834 21.5475 168.381C20.19 164.635 20.7262 160.08 22.5113 155.635C26.4344 145.847 34.3011 136.555 39.3984 131.879C46.0841 126.394 53.5638 121.697 60.2087 116.071C63.4368 113.391 66.4193 110.429 69.1206 107.22C80.6593 93.4548 81.4398 77.355 76.6954 61.7914C70.2609 40.6689 52.2606 20.6799 36.8056 10.0372C34.1189 8.35319 30.8733 7.80541 27.7827 8.51441C24.6921 9.22342 22.0097 11.1311 20.3257 13.8178C18.6417 16.5045 18.0939 19.7502 18.8029 22.8408C19.5119 25.9313 21.4196 28.6137 24.1063 30.2977C36.9074 37.5806 52.566 51.8478 58.8987 67.9816C62.7133 77.6944 63.2427 88.0588 56.496 97.3848C53.8729 100.877 50.8525 104.052 47.4958 106.846C41.8215 111.679 35.5771 115.901 29.991 120.747C26.1893 124.009 22.6258 127.538 19.328 131.308C11.0812 140.424 3.38427 152.506 1.38198 163.494C-0.498145 173.832 2.82769 183.022 12.4387 191.079C13.7484 191.976 15.2237 192.604 16.7785 192.925C18.3333 193.247 19.9366 193.255 21.4948 192.951C23.053 192.646 24.5349 192.034 25.8541 191.151C27.1733 190.267 28.3034 189.13 29.1785 187.805C30.0536 186.48 30.6561 184.994 30.951 183.434C31.2458 181.874 31.227 180.271 30.8958 178.718C30.5645 177.166 29.9275 175.694 29.0216 174.39C28.1158 173.086 26.9594 171.976 25.6199 171.123V171.096Z" fill="#005000"/><path fill-rule="evenodd" clip-rule="evenodd" d="M30.763 27.0195C31.7084 30.9461 32.3483 34.94 32.6771 38.9654C33.1183 44.9383 32.9757 50.6669 31.4418 55.486C31.321 56.0894 31.0826 56.6631 30.74 57.1744C30.3975 57.6857 29.9577 58.1245 29.4456 58.4658C28.9335 58.8071 28.3592 59.0442 27.7555 59.1636C27.1517 59.2829 26.5304 59.2822 25.927 59.1614C25.3235 59.0406 24.7498 58.8022 24.2385 58.4596C23.7273 58.1171 23.2885 57.6773 22.9472 57.1652C22.6059 56.6531 22.3687 56.0788 22.2494 55.4751C22.1301 54.8713 22.1308 54.25 22.2516 53.6466C22.5842 49.832 21.5728 45.6102 20.2832 41.2663C18.247 34.601 14.8533 28.1258 11.7921 23.1981C11.3781 22.5194 7.95048 17.0419 6.6948 14.741C2.40514 6.86077 10.6858 1.46475 11.4935 1.03714C11.8804 0.826731 15.2673 -0.164224 20.1882 1.2815C22.9711 2.08921 29.6906 4.36299 30.7223 4.5191C33.5255 5.0621 36.4509 4.91956 39.4102 4.81775C45.1185 4.61413 50.9489 3.94896 56.4128 3.79963C58.0069 3.76165 59.5924 4.04281 61.0762 4.62658C62.56 5.21036 63.9121 6.08496 65.0529 7.19895C66.1938 8.31293 67.1004 9.6438 67.7193 11.1133C68.3383 12.5828 68.6572 14.1612 68.6572 15.7557C68.6572 17.3502 68.3383 18.9286 67.7193 20.3981C67.1004 21.8676 66.1938 23.1985 65.0529 24.3125C63.9121 25.4264 62.56 26.301 61.0762 26.8848C59.5924 27.4686 58.0069 27.7498 56.4128 27.7118C49.8629 27.5353 42.8379 28.2073 36.0505 27.6643C34.2925 27.5149 32.5142 27.3113 30.763 27.0195Z" fill="#005000"/></svg>