<svg width="255" height="155" viewBox="0 0 255 155" fill="none" xmlns="http://www.w3.org/2000/svg"><path d="M178.177 17.9596H177.872C177.92 17.9803 177.972 17.991 178.024 17.991C178.077 17.991 178.129 17.9803 178.177 17.9596ZM98.3703 88.1281C101.364 85.6711 103.427 82.3588 102.945 79.3044C102.565 76.7931 100.569 75.6528 97.5151 75.9922C94.8001 76.2976 91.0263 78.0759 87.8498 80.499H87.6529C87.2552 80.4079 86.8417 80.4114 86.4456 80.5092C86.0495 80.607 85.6819 80.7965 85.3724 81.0624C85.0649 81.3106 84.807 81.6145 84.6121 81.9583C84.2325 82.7185 83.9759 83.5341 83.852 84.3746C83.303 85.0595 82.8254 85.7987 82.4266 86.5806C81.9459 87.4656 81.6451 88.437 81.5414 89.4388C81.4377 90.4406 81.5333 91.453 81.8225 92.4178C82.6642 95.0241 85.4199 97.6305 91.5964 99.117C92.4919 99.3359 93.3981 99.5081 94.3114 99.6328C95.5671 99.8025 96.7481 99.8704 98.2278 99.9994C98.9613 100.042 99.6816 99.7908 100.23 99.302C100.779 98.8132 101.111 98.1265 101.153 97.393C101.195 96.6594 100.945 95.9391 100.456 95.3905C99.967 94.8419 99.2803 94.5099 98.5468 94.4676C97.1893 94.4268 96.0694 94.4268 94.8951 94.325C94.1436 94.2668 93.3958 94.1671 92.6553 94.0264C90.9958 93.7696 89.3904 93.2398 87.9041 92.4585C87.1994 92.1243 86.6279 91.5624 86.2819 90.8634C86.263 90.8147 86.2471 90.7648 86.2344 90.7141C87.1203 91.2962 88.1425 91.6377 89.2005 91.7051C91.8543 91.9698 95.4992 90.4833 98.3703 88.1281ZM84.456 83.6755C84.4425 83.581 84.4425 83.485 84.456 83.3905C84.456 83.4787 84.456 83.5669 84.456 83.6552V83.6755ZM88.7321 86.2344C88.7841 85.9229 88.9124 85.6291 89.1054 85.3792C89.4291 85.0776 89.6758 84.7029 89.8249 84.2864C91.7413 82.5524 93.9589 81.1837 96.368 80.2479C97.1276 79.937 97.9368 79.7646 98.7572 79.7388C99.0083 79.7388 99.273 79.6913 99.3137 79.9289C99.6463 81.8429 98.0784 83.8384 96.144 85.3588C94.2096 86.8792 91.5896 87.8973 89.8181 87.5851C89.446 87.5174 89.1017 87.3429 88.8272 87.0829C88.6032 86.8385 88.7253 86.5127 88.7321 86.2683V86.2344ZM161.426 25.5411C158.31 31.7788 156.403 38.9328 153.844 45.5844C152.839 48.2333 151.63 50.7999 150.226 53.261C149.733 54.2511 149.653 55.3966 150.005 56.4454C150.356 57.4943 151.11 58.3606 152.1 58.8539C153.09 59.3471 154.235 59.4268 155.284 59.0755C156.333 58.7242 157.199 57.9706 157.693 56.9806C158.534 54.9841 159.27 52.9451 159.898 50.8719C162.206 43.3174 163.496 35.0232 166.34 27.7199C167.093 26.1859 167.697 24.8149 168.335 23.6474C169.358 21.8574 170.471 20.1199 171.668 18.4415C172.824 18.288 173.968 18.0613 175.096 17.7627C175.489 17.7288 176.195 17.722 176.955 17.7152C177.262 17.8231 177.581 17.8937 177.906 17.9256C177.79 17.8781 177.702 17.8034 177.62 17.817C177.457 17.8412 177.291 17.805 177.152 17.7152C178.136 17.7152 179.188 17.7152 179.65 17.7152C180.111 17.7152 180.288 17.4369 180.505 17.3962C181.116 17.2876 181.252 16.7175 181.564 16.5546C182.182 16.2152 182.08 15.4957 182.392 15.0953C182.555 14.8849 182.44 14.6134 182.555 14.4165C182.969 13.6224 182.256 12.9301 182.154 12.0341C182.154 11.7491 181.801 11.6201 181.7 11.3147C181.537 10.8328 180.858 10.7649 180.342 10.2083C180.139 9.99111 179.731 10.0929 179.317 9.835C179.134 9.71961 178.829 9.835 178.428 9.67889C177.689 9.66173 176.96 9.84124 176.313 10.199C175.667 10.5568 175.127 11.0801 174.749 11.7151C174.071 12.0273 173.521 12.2581 173.202 12.455C172.883 12.6518 172.523 12.7129 172.157 12.8283C171.919 12.516 171.559 12.3192 171.301 12.0341C170.677 11.3215 169.672 11.3961 168.532 11.24C168.172 11.1925 167.799 11.4436 167.31 11.5251C166.964 11.5794 166.543 12.0273 165.776 12.516C165.446 12.8473 165.175 13.233 164.975 13.6563C162.244 13.7071 159.521 13.9704 156.83 14.4437C154.843 14.8495 152.981 15.7245 151.401 16.9958C150.993 17.3763 150.667 17.8348 150.44 18.3442C150.214 18.8535 150.093 19.4032 150.083 19.9605C150.074 20.5178 150.176 21.0713 150.385 21.588C150.594 22.1048 150.905 22.5742 151.299 22.9683C151.693 23.3624 152.163 23.6732 152.679 23.8821C153.196 24.091 153.75 24.1938 154.307 24.1843C154.864 24.1749 155.414 24.0533 155.923 23.827C156.433 23.6007 156.891 23.2741 157.272 22.8669C158.236 21.6994 160.258 20.98 162.525 20.403L163.604 20.1315C163.585 20.1803 163.57 20.2302 163.557 20.2809C162.987 21.7334 162.227 23.4506 161.426 25.5411ZM176.473 10.3644C176.491 10.3582 176.51 10.3582 176.528 10.3644C176.183 10.7352 175.801 11.0695 175.387 11.3622L176.473 10.3644ZM171.485 18.489H171.539C171.373 18.6927 171.155 18.8475 170.908 18.937C171.107 18.8027 171.293 18.6504 171.464 18.4822L171.485 18.489ZM182.344 23.4031C183.188 24.1102 184.277 24.4544 185.374 24.3602C186.47 24.2661 187.485 23.7413 188.195 22.9008C188.338 22.6904 191.121 18.1021 193.829 13.7038C194.684 12.3463 195.465 10.9481 196.286 9.81464C196.643 9.31766 197.028 8.84174 197.44 8.38927C197.564 8.3141 197.684 8.23254 197.799 8.14492C197.838 8.08154 197.859 8.00886 197.861 7.93451C198.363 7.39831 198.75 6.96391 199.089 6.61775C199.364 6.26644 199.592 5.88085 199.768 5.47068C200.019 5.11095 199.849 4.73764 199.958 4.45257C200.277 3.6245 199.564 3.09507 199.456 2.47062C199.456 2.28058 199.204 2.20592 199.143 2.02944C198.899 1.28961 198.017 1.30998 197.338 0.794136C197.039 0.570151 196.618 0.794129 196.184 0.617656C195.75 0.441183 194.827 1.01133 192.743 1.55433C191.928 2.18179 191.375 3.08873 191.189 4.10022C191.004 5.1117 191.199 6.15604 191.738 7.03178C190.909 8.11631 190.023 9.15625 189.084 10.1472C185.765 13.8328 182.019 17.3826 181.842 17.5523C181.135 18.3927 180.788 19.4788 180.879 20.5736C180.969 21.6684 181.489 22.6831 182.324 23.3963L182.344 23.4031ZM253.911 77.1053C253.779 76.7522 253.581 76.4274 253.328 76.1483C252.852 75.4695 252.038 75.232 250.986 75.0894C250.251 75.0894 249.547 75.3812 249.028 75.9005C248.508 76.4199 248.217 77.1242 248.217 77.8587C248.213 78.4331 248.391 78.9939 248.726 79.4605C248.413 80.647 248.007 81.8068 247.511 82.9289C247.103 83.8859 246.628 84.8769 246.153 85.8475C245.678 86.8181 245.142 87.748 244.64 88.61C243.962 87.5082 243.224 86.4454 242.427 85.4267C241.812 84.7336 241.335 83.9296 241.022 83.0579C240.931 82.2382 240.944 81.4103 241.063 80.5941C241.273 79.2366 241.558 77.9877 241.633 77.2003C241.687 76.6709 241.388 76.3587 241.334 76.0125C241.28 75.6664 240.974 75.6053 240.873 75.3338C240.771 75.0623 240.56 75.1369 240.459 74.9808C240.106 74.4582 239.454 74.7026 238.891 74.4582C238.297 74.4523 237.716 74.6377 237.236 74.9869C236.755 75.3361 236.399 75.8307 236.221 76.3975C236.043 76.9643 236.052 77.5734 236.247 78.1348C236.442 78.6961 236.812 79.18 237.302 79.5148C237.381 79.8173 237.431 80.1263 237.452 80.4379C237.526 81.8429 237.262 83.2004 237.309 83.5737C237.404 85.61 238.857 87.877 239.712 89.9811C239.892 90.4094 239.965 90.8757 239.922 91.3386C239.922 91.882 240.083 92.4134 240.383 92.8661C240.684 93.3189 241.112 93.6729 241.612 93.8839C239.949 97.2776 238.443 100.671 237.004 104.106C234.682 109.638 232.565 115.196 230.454 120.877C230.331 121.224 230.279 121.592 230.3 121.959C230.321 122.327 230.415 122.686 230.577 123.017C230.738 123.347 230.964 123.642 231.241 123.884C231.518 124.127 231.84 124.311 232.189 124.428C232.538 124.544 232.907 124.59 233.274 124.562C233.64 124.534 233.998 124.434 234.326 124.266C234.653 124.099 234.944 123.868 235.181 123.586C235.418 123.305 235.597 122.98 235.707 122.629C237.411 116.893 239.101 111.253 241.049 105.66C242.339 101.981 243.764 98.3228 245.318 94.6712C245.569 94.1078 246.479 92.4789 247.64 90.5309C248.176 89.6281 248.76 88.6643 249.377 87.7073C251.23 84.8158 253.09 81.8701 253.796 80.0986C254.166 79.1381 254.2 78.0805 253.891 77.0985L253.911 77.1053ZM236.902 79.0058C236.746 78.9243 236.82 78.6732 236.664 78.5307C236.63 78.5307 236.664 78.4017 236.664 78.327C236.739 78.4085 236.943 78.5103 236.99 78.6528C237.038 78.7954 237.146 79.1483 237.221 79.413C237.106 79.3044 237.058 79.094 236.882 78.999L236.902 79.0058ZM238.32 79.9357C238.474 79.9683 238.631 79.9842 238.789 79.9832C238.709 80.0155 238.623 80.0275 238.538 80.018C238.452 80.0085 238.371 79.9779 238.3 79.9289L238.32 79.9357ZM250.355 80.5533C250.559 80.6027 250.769 80.6278 250.979 80.628C250.761 80.662 250.537 80.6338 250.334 80.5465L250.355 80.5533ZM194.345 95.3635C194.418 96.3949 194.825 97.3744 195.505 98.1532C196.32 99.083 197.603 99.7075 199.578 99.626C201.553 99.5446 204.424 98.6215 208.788 96.3477C209.404 95.9791 209.853 95.3859 210.04 94.6931C210.227 94.0003 210.137 93.262 209.791 92.6337C209.444 92.0054 208.867 91.5362 208.181 91.325C207.495 91.1138 206.754 91.1771 206.114 91.5015C202.802 93.4291 200.684 94.4472 199.327 94.5287C199.345 93.8027 199.432 93.0801 199.585 92.3703C200.48 88.8272 202.632 84.2253 203.657 81.0556C204.127 79.8105 204.337 78.4823 204.275 77.1528C204.239 76.7473 204.085 76.3613 203.831 76.0427C203.578 75.7241 203.236 75.4871 202.849 75.3609C202.079 75.1777 201.269 75.2639 200.555 75.6053C199.198 76.4246 197.968 77.4375 196.904 78.6121C195.986 79.5933 195.131 80.6316 194.345 81.7208C195.134 80.2043 195.736 78.5974 196.137 76.9356C196.214 76.3898 196.158 75.8332 195.972 75.314C195.787 74.7948 195.477 74.3287 195.071 73.9559C194.392 73.2772 193.211 72.8835 191.358 73.5962C191.032 73.7554 190.74 73.9775 190.499 74.2499C190.259 74.5222 190.075 74.8394 189.958 75.1832C189.84 75.527 189.792 75.8906 189.816 76.2531C189.84 76.6155 189.935 76.9698 190.096 77.2954V77.3496C189.526 78.7614 189.492 81.8701 188.643 83.9403C187.544 86.6213 186.41 88.8951 186.288 89.1869C185.892 89.9678 185.563 90.7807 185.304 91.6169C185.208 92.0113 185.222 92.4244 185.345 92.8115C185.425 93.0732 185.564 93.3132 185.751 93.5132C185.938 93.7132 186.168 93.8678 186.424 93.9653C186.687 94.0745 186.972 94.1221 187.257 94.1044C187.541 94.0868 187.818 94.0044 188.066 93.8635C189.473 93.1129 190.741 92.1256 191.813 90.9449C194.026 88.644 195.987 85.4538 198.241 82.8475L197.141 85.3317C195.526 89.0919 194.127 92.9947 194.345 95.3635ZM192.987 24.5027C191.799 28.0118 192.512 32.22 193.829 36.6725C195.261 41.5391 197.447 46.7655 197.501 51.4488C197.542 55.4534 195.397 58.691 188.935 60.8019C188.475 60.9921 187.969 61.0371 187.483 60.9308C187.204 60.8494 187.225 60.4964 187.123 60.2114C186.89 59.3582 186.837 58.4661 186.967 57.5914C187.107 56.1937 187.572 54.848 188.324 53.6615C188.704 53.0778 189.132 52.5348 189.777 52.5551C190.878 52.5551 191.935 52.1175 192.714 51.3385C193.493 50.5595 193.931 49.5029 193.931 48.4012C193.931 47.2995 193.493 46.243 192.714 45.464C191.935 44.685 190.878 44.2473 189.777 44.2473C188.481 44.2787 187.207 44.5833 186.037 45.1413C184.868 45.6992 183.829 46.4978 182.989 47.4849C180.24 50.6275 178.801 55.9828 179.507 60.2453C179.989 63.1775 181.34 65.6006 183.417 66.9038C185.324 68.0984 187.897 68.6685 191.25 67.3789C198.383 64.6639 201.689 60.8969 202.972 56.7634C204.567 51.5913 202.781 45.5437 200.657 39.6115C198.913 34.7449 196.856 29.9937 198.085 26.1995C198.899 23.98 199.829 22.4664 200.867 21.5501C202.388 20.1926 203.582 21.8827 204.682 22.9076C204.576 23.2692 204.521 23.6439 204.519 24.0207C204.515 24.5659 204.618 25.1066 204.822 25.6119C205.027 26.1172 205.329 26.5772 205.712 26.9656C206.095 27.3539 206.55 27.663 207.052 27.8751C207.555 28.0872 208.094 28.1983 208.639 28.2018C211.144 27.9642 212.589 27.0208 213.234 25.6565C213.689 24.8911 213.924 24.0151 213.913 23.1248C213.86 21.9579 213.497 20.8262 212.861 19.8465C211.274 17.5129 208.948 15.7818 206.257 14.9324C203.691 14.2536 200.881 14.2536 198.288 16.1134C196.381 17.5387 194.345 20.0297 192.987 24.5027ZM233.108 91.2503C232.973 90.9126 232.773 90.6047 232.52 90.3443C232.266 90.084 231.963 89.8763 231.629 89.7331C231.295 89.59 230.936 89.5142 230.572 89.5102C230.208 89.5061 229.848 89.5739 229.51 89.7096C223.802 92.2413 218.874 92.4992 216.248 90.7005C213.451 88.7797 214.497 85.0466 219.777 80.4312C221.019 79.5013 222.2 79.5081 222.791 80.1189C222.838 80.1732 222.791 80.2615 222.791 80.3361C222.791 80.4108 222.641 80.0714 222.546 80.1529C222.302 80.3565 221.868 80.309 221.406 80.404C220.722 80.6459 220.16 81.1468 219.841 81.7989C219.522 82.451 219.472 83.2021 219.702 83.8907C219.931 84.5793 220.422 85.1502 221.068 85.4806C221.715 85.8111 222.465 85.8746 223.157 85.6575C226.11 84.2389 227.23 82.447 227.23 80.7977C227.28 80.118 227.176 79.4357 226.924 78.8022C226.401 77.7227 225.526 76.8535 224.443 76.3378C223.359 75.8221 222.133 75.6907 220.965 75.965C219.703 76.231 218.533 76.8231 217.571 77.6822C208.972 84.4697 209.555 90.9313 213.73 94.1961C217.123 96.8296 223.707 97.6645 231.621 94.8273C232.295 94.5503 232.832 94.0183 233.116 93.347C233.399 92.6758 233.406 91.9198 233.135 91.2435L233.108 91.2503ZM179.487 99.0084C180.208 98.9595 180.881 98.6309 181.363 98.0925C181.845 97.554 182.098 96.8486 182.067 96.1266C182.036 95.4047 181.724 94.7234 181.197 94.2283C180.671 93.7332 179.972 93.4634 179.249 93.4766C174.831 93.7888 171.783 93.4766 169.828 92.5739C168.179 91.8205 167.555 90.6259 167.704 89.2548C167.704 89.058 167.758 88.8611 167.799 88.6575C169.899 88.6105 171.981 88.2631 173.982 87.6258C176.385 86.8724 178.625 85.8 179.935 84.4765C180.436 84.0159 180.83 83.452 181.092 82.8238C181.353 82.1957 181.475 81.5182 181.449 80.8384C181.387 79.5624 180.702 78.0895 178.89 76.5895C177.342 75.3066 174.532 75.5238 171.634 77.2682C170.232 78.1462 168.947 79.2 167.813 80.404C167.28 80.0111 166.625 79.8218 165.965 79.8703C165.305 79.9189 164.684 80.2021 164.215 80.6687C162.383 82.9018 162.118 84.5919 162.532 85.7254C162.741 86.3175 163.079 86.8555 163.523 87.3C163.389 87.7194 163.287 88.1482 163.217 88.5829C162.376 93.7345 165.546 99.212 179.487 99.0016V99.0084ZM173.752 80.6416C174.418 80.141 175.177 79.7766 175.985 79.5692C176.209 79.5216 176.412 79.413 176.555 79.5284C177.315 80.1189 177.804 80.5737 177.844 81.0963C177.885 81.619 177.39 82.0534 176.806 82.4538C175.089 83.6416 172.258 84.3136 169.862 84.4086C170.942 82.9453 172.256 81.6703 173.752 80.6348V80.6416ZM53.994 123.864C53.2596 123.864 52.5552 124.156 52.0358 124.675C51.5165 125.194 51.2248 125.899 51.2248 126.633C51.2723 128.262 49.8333 130.38 48.184 132.613C45.3468 136.448 41.6137 140.33 39.9915 142.529C39.6182 143.038 39.2178 143.704 38.7834 144.308C38.731 144.381 38.6743 144.451 38.6137 144.518C38.2508 143.924 37.9678 143.285 37.772 142.618C37.1896 139.685 36.8558 136.708 36.7743 133.719C36.7336 132.457 36.7743 131.235 36.7743 130.108C37.3769 129.955 37.9109 129.605 38.2911 129.113C38.6712 128.62 38.8756 128.015 38.8716 127.393C38.5322 125.697 38.1929 124.719 37.772 124.271C37.582 124.088 37.3987 123.925 37.2155 123.769C37.1226 123.35 36.9242 122.962 36.6391 122.641C36.354 122.32 35.9917 122.078 35.5865 121.936C35.282 121.828 34.959 121.781 34.6362 121.798C34.3134 121.816 33.9973 121.897 33.7064 122.038C33.3959 122.178 33.1201 122.384 32.8987 122.642C32.6239 122.924 32.4334 123.276 32.3489 123.66C32.2828 123.922 32.2576 124.192 32.2742 124.461V124.651C32.0299 124.651 32.1113 125.235 32.0977 126.009C31.7719 126.579 31.419 127.231 31.0661 127.964C30.8353 128.432 30.5774 128.927 30.2991 129.436C29.376 131.154 28.3036 133.136 27.2447 135.192C24.2107 141.118 21.2107 147.552 20.6881 149.011C20.5109 149.702 20.6072 150.435 20.9569 151.057C21.3067 151.679 21.8829 152.142 22.5655 152.349C23.248 152.556 23.9843 152.492 24.6208 152.17C25.2574 151.848 25.7451 151.293 25.9823 150.62C27.3694 145.948 28.9914 141.35 30.8421 136.842C31.5208 135.145 32.2335 133.489 32.953 132.029C33.0412 133.007 33.1294 134.025 33.2109 135.063C33.5367 139.176 33.8896 143.425 34.7041 145.828C35.3082 147.654 36.3535 148.625 37.2562 148.903C37.8012 149.067 38.3776 149.098 38.9373 148.994C39.4969 148.891 40.0236 148.654 40.4734 148.306C41.5391 147.572 42.5097 146.086 43.2902 145.115C45.3265 142.665 50.3152 138.104 53.4714 133.896C55.4533 131.262 56.6479 128.649 56.709 126.613C56.7038 125.891 56.4172 125.2 55.9101 124.687C55.403 124.173 54.7155 123.878 53.994 123.864ZM39.6657 54.3199C44.7156 58.7792 54.3198 59.0711 62.648 54.157C63.5427 53.5554 64.1684 52.6295 64.393 51.575C64.6176 50.5205 64.4233 49.4201 63.8514 48.5061C63.2794 47.5922 62.3745 46.9365 61.3279 46.6775C60.2814 46.4186 59.1751 46.5767 58.243 47.1184C54.1705 49.8334 49.5483 50.804 46.1545 49.623C43.0391 48.5438 41.6341 45.3876 43.1409 40.4939C43.832 38.2425 44.9882 36.1613 46.5346 34.3852C47.6796 33.0482 49.0599 31.9325 50.6071 31.0933C50.8155 31.3835 51.0422 31.66 51.2858 31.9213C51.8638 32.5695 52.5762 33.0838 53.3733 33.4284C54.1705 33.7731 55.0331 33.9397 55.9013 33.9168C57.5344 33.7841 59.0581 33.0428 60.1706 31.8399C60.5578 31.4909 60.8605 31.0583 61.0557 30.575C61.2509 30.0917 61.3335 29.5702 61.2973 29.0502C61.2374 28.393 61.0058 27.763 60.6258 27.2234C60.2458 26.6838 59.7307 26.2534 59.1321 25.9755C57.8493 25.2968 55.3176 24.7809 53.3696 24.618C52.6569 22.4596 52.3447 20.0705 52.9284 18.7876C53.9187 16.8106 55.1822 14.9827 56.6818 13.3577C57.9022 11.9222 59.5088 10.8668 61.3109 10.3169C61.4789 10.2829 61.652 10.2829 61.8199 10.3169C61.7447 10.6144 61.7037 10.9196 61.6978 11.2264C61.6814 12.3253 62.1005 13.3861 62.8635 14.1771C63.6265 14.9681 64.6714 15.425 65.7702 15.4482C68.811 15.2174 70.4468 13.7989 70.8947 11.8305C71.114 11.0558 71.1669 10.2434 71.0499 9.44676C70.9329 8.65013 70.6487 7.88727 70.216 7.20826C69.0881 5.50268 67.4001 4.24446 65.4433 3.65088C63.4866 3.05729 61.384 3.16559 59.4986 3.95707C57.137 4.87576 55.0387 6.36322 53.3899 8.28746C51.1785 10.7561 49.3732 13.5603 48.0414 16.5953C47.1387 18.5569 47.2609 22.1813 48.1432 25.5615C45.7771 26.6686 43.6421 28.214 41.8513 30.1159C39.5847 32.4941 37.8433 35.3223 36.7403 38.4169C34.0797 45.8356 36.0412 51.123 39.6657 54.3199ZM80.7433 27.0955C82.4017 26.8083 84.0048 26.2632 85.4945 25.48C84.713 26.1793 84.2275 27.1502 84.137 28.195C84.0045 29.3307 83.4956 30.3892 82.6913 31.2019C81.5047 32.4852 80.1851 33.6388 78.7546 34.6431C75.1369 37.3581 71.1051 39.9034 68.6413 42.9645C66.7294 45.153 65.6735 47.9591 65.6684 50.8651C65.7838 56.9263 69.2658 60.0824 72.9785 60.5643C76.3722 61.0055 80.5125 59.2951 82.8949 54.3335C83.8384 52.3583 86.2411 44.7632 88.5489 36.7472L88.6642 36.625C90.7543 34.537 92.0751 31.8022 92.4109 28.867C92.5038 27.8125 92.1825 26.7632 91.515 25.9416C91.9969 24.0886 92.4245 22.351 92.7774 20.8171C93.4939 20.5146 94.111 20.017 94.5586 19.381C95.0061 18.7451 95.2662 17.9962 95.3092 17.2197C96.4494 17.2197 95.9879 14.4437 95.8861 13.0998C95.8609 12.1928 95.6287 11.3036 95.2073 10.5002C94.7453 9.61525 94.0854 8.84874 93.2791 8.26017C92.4728 7.6716 91.5416 7.27681 90.5579 7.10645C88.2299 6.71956 85.0941 7.39152 82.1958 9.23092C77.3021 12.3328 73.1414 18.1428 74.6889 23.4845C75.4966 26.3488 77.7161 27.4891 80.7433 27.0955ZM77.0374 51.4081C76.1957 53.0167 75.1097 53.9805 74.0034 53.7972C73.0464 53.6411 72.8224 52.4398 72.8563 50.8786C72.9475 49.6806 73.471 48.5566 74.3292 47.7157C75.5091 46.4554 76.8379 45.3431 78.2863 44.4034C78.9039 43.9758 79.5352 43.5482 80.1732 43.1206C79.2681 45.9341 78.2215 48.7001 77.0374 51.4081ZM82.542 16.9414C83.3305 16.2156 84.2114 15.5971 85.1619 15.102C85.894 14.8096 86.6845 14.6934 87.4697 14.7627V14.8645C87.2198 15.5811 87.0824 16.3321 87.0624 17.0908C87.0624 17.2537 87.076 17.4166 87.1031 17.5795L87.0217 17.722C86.8028 18.1102 86.5532 18.4802 86.2751 18.8284C85.8407 19.351 83.9945 20.4573 82.1483 21.1768C81.5103 21.4279 80.6008 21.2447 80.0714 21.3601C80.0578 19.7514 81.2049 18.2107 82.542 16.9414ZM127.407 15.102C127.297 16.3737 127.116 17.6381 126.864 18.8894C126.613 20.0569 126.294 21.204 125.941 22.351C125.588 23.4981 125.147 24.6588 124.773 25.8194C122.737 31.4869 119.567 38.383 117.606 45.0482C117.124 46.6761 116.725 48.3276 116.411 49.9963C115.954 50.3707 115.582 50.839 115.321 51.3694C115.06 51.8998 114.915 52.48 114.898 53.071C115.122 53.4443 115.576 53.6479 115.828 54.4285C115.824 54.46 115.824 54.4919 115.828 54.5235C115.833 54.9315 115.9 55.3364 116.024 55.7249C116.024 55.8335 116.024 55.9421 116.024 56.0507C115.921 56.7983 115.732 57.5316 115.461 58.2362C115.054 59.4958 114.565 60.727 113.995 61.9218L113.832 62.0779C113.056 62.8577 112.62 63.9132 112.62 65.0135C112.62 66.1138 113.056 67.1693 113.832 67.9491C114.782 68.5599 120.667 70.2704 121.02 64.9829C121.108 63.6255 121.108 61.4263 121.156 59.1729C121.156 58.9218 121.156 58.6706 121.156 58.4263C122.011 58.1688 122.761 57.6432 123.295 56.9271C123.829 56.2109 124.119 55.3422 124.122 54.4488C124.051 53.1481 124.072 51.844 124.183 50.5461C127.565 50.1833 130.763 48.825 133.373 46.6433C138.701 42.4011 143.378 35.1046 145.21 28.0321C146.493 23.1044 146.364 18.394 144.532 14.7084C143.925 13.5117 143.148 12.4096 142.224 11.4368C140.845 10.0119 139.189 8.88457 137.357 8.12456C136.795 7.86708 136.184 7.73065 135.565 7.72411C134.832 3.92314 130.665 5.25348 128.398 8.95942C127.645 9.21735 127.142 9.87573 127.115 11.111C126.821 11.7402 126.693 12.4341 126.743 13.1266C126.793 13.8192 127.019 14.4876 127.4 15.0681L127.407 15.102ZM113.785 62.4648C113.789 62.3752 113.822 62.2895 113.88 62.2205H113.914L113.785 62.4648ZM116.608 60.8969C116.921 60.8338 117.245 60.8573 117.545 60.9648C117.236 60.9051 116.922 60.8823 116.608 60.8969ZM118.644 61.3381C119.078 61.466 119.454 61.7392 119.71 62.1119C119.403 61.8046 119.054 61.5439 118.672 61.3381H118.644ZM129.932 27.4009C130.393 25.8737 130.841 24.3398 131.384 22.8465C131.717 21.9166 132.063 21.0071 132.47 20.1315C133.068 18.7062 133.692 17.3487 134.255 15.9098C134.292 15.8281 134.324 15.7442 134.35 15.6586C134.595 15.4889 134.832 15.3125 135.077 15.1156C135.321 14.9188 135.694 14.8441 135.586 14.6405C135.564 14.5692 135.526 14.5036 135.475 14.4485C135.425 14.3933 135.363 14.35 135.294 14.3215C136.223 14.4755 137.118 14.795 137.934 15.265C138.693 15.7476 139.324 16.4066 139.774 17.1858C141.131 19.6971 140.765 23.0637 139.672 26.4099C137.947 31.3445 134.944 35.7335 130.97 39.1296C129.465 40.5005 127.672 41.5184 125.724 42.1093C127.047 36.9508 128.812 31.8127 129.959 27.428L129.932 27.4009ZM111.538 112.013C112.063 111.299 112.714 110.687 113.459 110.208C113.784 110.045 114.074 109.82 114.313 109.545C114.551 109.27 114.733 108.951 114.848 108.606C114.963 108.261 115.009 107.897 114.983 107.534C114.957 107.171 114.86 106.817 114.697 106.492C114.535 106.166 114.31 105.876 114.035 105.638C113.76 105.399 113.441 105.218 113.096 105.103C112.751 104.988 112.387 104.942 112.024 104.967C111.661 104.993 111.307 105.09 110.981 105.253C109.142 106.196 106.488 109.325 103.888 113.398C99.6667 120.049 95.1123 129.246 93.205 133L90.4222 138.701C91.2978 134.473 92.4584 130.007 93.1372 126.742C93.6259 124.19 93.7005 122.215 93.3747 121.264C93.2596 120.815 93.0324 120.401 92.7143 120.063C92.3962 119.725 91.9976 119.473 91.5557 119.33C90.7412 119.086 89.5195 119.262 88.4199 120.497C87.0624 122.031 85.2366 125.988 83.9606 127.638C82.2026 129.912 80.5125 132.226 78.8496 134.568C76.345 138.104 73.9152 141.688 71.4717 145.244C71.6957 143.941 71.8993 142.631 72.0961 141.328C72.7749 136.998 73.2907 132.688 74.1324 128.432C74.6783 125.666 75.4246 122.944 76.3654 120.287C76.7116 119.35 79.2229 114.715 80.1392 111.606C80.5472 110.401 80.62 109.109 80.3496 107.866C80.0306 106.78 79.1686 105.911 77.4582 106.081C76.7064 106.245 76.0069 106.592 75.422 107.092C74.4661 107.874 73.7275 108.888 73.2771 110.038C73.0704 110.608 72.9801 111.213 73.0116 111.818C73.043 112.423 73.1957 113.016 73.4604 113.561C73.5981 113.836 73.7817 114.086 74.0034 114.3C73.1889 116.411 72.3337 118.312 72.164 118.882C71.3045 121.775 70.6445 124.723 70.1888 127.706C69.5101 132.029 69.0825 136.4 68.5191 140.792C68.268 142.631 68.0033 144.471 67.6775 146.296C67.4603 147.496 67.2137 148.695 66.9377 149.894C66.7816 150.573 66.0349 151.699 65.9399 152.297C65.8497 152.808 65.9511 153.335 66.225 153.776C66.4074 154.08 66.6694 154.329 66.9828 154.495C67.2962 154.662 67.6491 154.739 68.0033 154.72C68.4187 154.724 68.8273 154.613 69.1843 154.401C69.6901 154.014 70.1183 153.535 70.4468 152.989C74.3088 147.647 78.0148 142.129 81.9379 136.753C83.594 134.48 85.2909 132.233 87.0421 130.034C87.6685 129.186 88.2376 128.297 88.7457 127.373C87.6529 132.124 85.7796 138.545 85.1348 143.493C84.7818 146.174 84.8226 148.468 85.3316 150.03C85.4263 150.381 85.597 150.707 85.8316 150.985C86.0661 151.263 86.3589 151.486 86.6891 151.638C87.0068 151.791 87.3547 151.87 87.7072 151.87C88.0597 151.87 88.4077 151.791 88.7253 151.638C89.2183 151.391 89.6338 151.013 89.9267 150.545C90.4358 149.778 91.1145 147.871 91.5285 147.029L97.5558 135.274C99.2391 132.104 102.986 124.943 106.705 118.896C108.153 116.491 109.768 114.192 111.538 112.013ZM23.1723 132.219C23.1172 130.163 22.443 128.171 21.2378 126.504C21.1066 126.35 20.9777 126.208 20.851 126.077C20.5581 125.356 20.0511 124.742 19.3984 124.319C18.8586 123.963 18.2448 123.736 17.6038 123.654C16.9628 123.571 16.3114 123.636 15.6993 123.844C13.5273 124.556 10.3576 127.312 7.52043 130.998C6.29642 132.581 5.16335 134.233 4.12671 135.946C2.30089 138.966 0.929823 142.054 0.624388 144.634C0.237504 147.905 1.35743 150.437 4.41856 151.645C5.63304 152.063 6.93265 152.17 8.19917 151.957C9.82369 151.704 11.3991 151.2 12.8689 150.464C21.0614 146.33 23.5456 137.9 23.1723 132.219ZM10.9074 146.806C10.0308 147.29 9.09553 147.66 8.12452 147.905C7.35993 148.169 6.5365 148.211 5.74892 148.027C5.25258 147.849 4.83159 147.508 4.55525 147.059C4.27891 146.61 4.16367 146.08 4.22852 145.557C4.22852 143.581 5.19234 141.118 6.59055 138.701C7.57417 137.017 8.71017 135.427 9.98427 133.95C10.2761 133.611 10.5748 133.271 10.8802 132.959C11.0262 133.518 11.3433 134.017 11.7871 134.387C12.2309 134.756 12.7791 134.978 13.3551 135.021C13.9311 135.063 14.506 134.925 14.9993 134.625C15.4927 134.324 15.8798 133.877 16.1065 133.346C16.4082 132.538 16.783 131.758 17.2265 131.018C17.4499 131.156 17.6923 131.261 17.9459 131.33C17.9981 131.433 18.0369 131.543 18.0613 131.656C18.5844 134.611 18.177 137.656 16.8956 140.369C15.6141 143.083 13.5217 145.332 10.9074 146.806ZM73.8473 94.264C78.0012 91.2232 80.7433 85.929 78.7003 80.9742C78.3058 79.8131 77.4692 78.8546 76.3722 78.3067C74.5667 77.4786 72.0893 78.3949 69.7341 80.1054C69.7212 80.1204 69.7049 80.132 69.6866 80.1393C69.6045 79.9063 69.467 79.6967 69.2861 79.5284C69.0546 79.281 68.7625 79.0983 68.4387 78.9983C68.1149 78.8983 67.7707 78.8845 67.4399 78.9583C66.927 79.037 66.466 79.3151 66.1571 79.732C65.7314 80.3682 65.3806 81.0515 65.1118 81.7683L64.9897 82.0126C64.9422 82.1144 64.8946 82.223 64.8539 82.3249L64.7996 82.447C64.4399 83.2344 64.0666 84.0421 63.6458 84.8633C63.1503 85.8272 62.6073 86.7978 62.0507 87.7955L61.6299 88.5557C61.1146 88.5213 60.6 88.632 60.1444 88.8753C59.6889 89.1186 59.3107 89.4847 59.0527 89.9321C58.7947 90.3795 58.6673 90.8903 58.6849 91.4064C58.7026 91.9226 58.8646 92.4234 59.1525 92.8522L59.2407 92.954C58.9964 93.4087 58.7656 93.8635 58.528 94.3115C58.4813 94.0953 58.4084 93.8855 58.3108 93.687C58.1486 93.3617 57.9238 93.0717 57.6492 92.8334C57.3747 92.5952 57.0558 92.4135 56.7109 92.2987C56.366 92.184 56.0018 92.1384 55.6392 92.1647C55.2767 92.1909 54.9229 92.2885 54.5981 92.4517C53.3433 93.1551 52.0442 93.7763 50.7089 94.3115C49.8914 94.6292 49.0461 94.8701 48.184 95.0309C44.5052 95.7097 41.8445 95.7097 40.039 95.1735C38.573 94.7323 37.7924 93.9314 37.6838 92.8182C37.6252 91.9562 37.7478 91.0915 38.0435 90.2797C38.5638 90.5393 39.1234 90.7113 39.6997 90.7888C41.48 90.9447 43.2739 90.8025 45.0075 90.368C49.5483 89.3091 53.9261 86.4856 53.546 82.9018C53.4128 81.7755 52.9686 80.7084 52.2632 79.8203C50.227 77.0714 47.0301 76.8745 43.6567 78.4628C40.2834 80.0511 36.6385 83.6416 34.7381 87.3272C33.7643 89.1069 33.2685 91.1087 33.2991 93.1372C33.5299 97.5287 37.3716 101.601 48.9849 100.101C50.1695 99.9429 51.3372 99.6771 52.4736 99.307C54.0245 98.7795 55.541 98.1562 57.0144 97.4405C56.295 98.9609 55.623 100.495 55.0461 102.029C53.7563 105.231 52.9775 108.616 52.7383 112.061C52.7383 112.795 53.0301 113.499 53.5494 114.019C54.0688 114.538 54.7732 114.83 55.5076 114.83C56.2421 114.83 56.9464 114.538 57.4658 114.019C57.9851 113.499 58.2769 112.795 58.2769 112.061C58.1276 108.484 59.0371 104.533 60.4353 100.59C61.0258 98.9405 61.691 97.2979 62.3833 95.669C65.9399 97.6237 70.3314 96.8432 73.8473 94.264ZM45.2586 81.809C46.8333 81.0149 48.4012 80.6823 49.3853 81.9651C49.7611 82.3656 49.9678 82.8956 49.9623 83.4448C49.8938 83.6974 49.7742 83.9332 49.6107 84.1375C49.4472 84.3418 49.2434 84.5104 49.012 84.6326C47.322 85.8272 43.9825 85.0398 41.9667 85.162C41.8965 84.9467 41.8032 84.7396 41.6884 84.5443C42.7216 83.4443 43.9275 82.5203 45.2586 81.809ZM65.2612 89.4992C65.8387 89.8196 66.4767 90.0161 67.1345 90.0761C67.8678 90.0618 68.5655 89.7572 69.0745 89.2292C69.5835 88.7011 69.8622 87.9926 69.8495 87.2593C69.843 86.985 69.7973 86.713 69.7137 86.4516C70.0668 85.6874 70.5088 84.9675 71.0305 84.3068C71.7179 83.385 72.5608 82.5903 73.5215 81.9583C73.8918 81.6671 74.354 81.5179 74.8247 81.5375C75.069 81.5918 75.1369 81.8905 75.2726 82.2638C76.3858 85.5489 74.1595 88.7797 71.3291 90.5444C69.1639 91.9019 66.449 92.377 64.6299 90.782L65.2612 89.4992ZM218.264 146.249C211.904 146.337 208.714 145.326 207.214 143.093C205.571 140.643 205.856 137.262 205.707 133.821C205.707 133.305 205.653 132.796 205.612 132.28C206.413 131.785 207.207 131.249 207.987 130.692C212.528 127.421 216.485 123.226 218.325 119.364C219.58 116.696 219.879 114.124 219.003 111.898C217.802 108.721 215.318 107.147 212.406 106.508C208.646 105.694 204.044 106.665 200.833 107.941C200.596 108.036 200.365 108.131 200.155 108.232C199.7 107.869 199.147 107.651 198.566 107.608C197.866 107.602 197.186 107.842 196.646 108.287C195.735 109.042 194.909 109.893 194.182 110.825C193.948 111.179 193.799 111.581 193.746 112.001C193.693 112.421 193.738 112.848 193.876 113.248C193.512 113.807 193.198 114.398 192.94 115.013C192.59 115.479 192.4 116.046 192.397 116.629C192.471 118.434 192.56 120.022 192.661 121.38C192.349 122.108 192.03 122.835 191.704 123.559L191.317 123.85C188.833 125.778 186.763 128.255 186.166 130.169C185.965 130.722 185.885 131.311 185.933 131.897C185.981 132.483 186.156 133.051 186.444 133.563C186.553 133.733 186.675 133.882 186.79 134.038C185.616 136.448 184.795 138.111 184.707 138.335C183.695 140.934 183.2 143.996 182.324 146.826C182.026 147.84 181.623 148.82 181.123 149.751C180.794 150.408 180.74 151.169 180.972 151.866C181.205 152.563 181.704 153.139 182.361 153.467C183.018 153.796 183.779 153.85 184.476 153.618C185.173 153.385 185.749 152.886 186.078 152.229C186.666 150.932 187.12 149.579 187.435 148.19C188.073 145.414 188.331 142.434 189.132 139.869C189.193 139.665 189.695 138.396 190.489 136.475C191.585 136.758 192.721 136.854 193.849 136.76C196.314 136.504 198.716 135.832 200.956 134.771V136.088C200.996 139.747 201.281 143.167 202.992 145.855C205.028 149.113 209.243 151.618 218.338 151.747C219.073 151.747 219.777 151.455 220.296 150.936C220.816 150.416 221.108 149.712 221.108 148.978C221.108 148.243 220.816 147.539 220.296 147.019C219.777 146.5 219.073 146.208 218.338 146.208L218.264 146.249ZM193.537 132.803C193.006 132.834 192.473 132.804 191.949 132.715C192.553 131.208 193.218 129.572 193.897 127.882L194.019 127.583C194.297 127.624 194.616 127.298 194.983 126.586C195.86 126.003 196.815 125.546 197.82 125.228C198.166 125.133 198.614 125.33 198.784 125.188C199.891 126.818 200.557 128.707 200.718 130.672C198.483 131.836 196.045 132.56 193.537 132.803ZM202.225 122.187C201.685 121.54 200.976 121.055 200.176 120.789C199.376 120.523 198.518 120.485 197.698 120.681C197.437 120.722 197.178 120.779 196.924 120.85C197.046 120.402 197.175 119.927 197.304 119.432C197.772 118.312 198.234 117.246 198.661 116.289C198.96 115.61 199.225 115.013 199.469 114.436C200.384 113.484 201.465 112.706 202.659 112.142C205.116 110.968 208.673 109.848 211.659 110.337C212.521 110.424 213.343 110.741 214.041 111.252C214.739 111.764 215.288 112.453 215.63 113.248C216.377 115.074 215.63 117.253 214.205 119.466C212.338 122.384 209.243 125.289 205.836 127.658C205.564 127.848 205.3 128.031 205.028 128.208C204.561 126.015 203.603 123.956 202.225 122.187ZM8.64035 98.988C11.6608 99.4971 14.3622 98.479 16.7853 96.5988C17.3696 96.1405 17.9229 95.644 18.4414 95.1124C18.7498 96.2828 19.3104 97.3716 20.084 98.3025C21.5433 100.06 23.8782 101.248 27.4551 101.316C28.1896 101.316 28.894 101.024 29.4133 100.505C29.9327 99.9857 30.2244 99.2813 30.2244 98.5468C30.2244 97.8124 29.9327 97.108 29.4133 96.5887C28.894 96.0693 28.1896 95.7776 27.4551 95.7776C26.0501 95.7776 25.0049 95.6214 24.3125 95.0309C23.0772 93.9789 23.0162 92.1056 23.2605 90.0286C23.3352 89.4313 23.437 88.8136 23.5727 88.1824C24.8895 86.0036 26.0026 83.8995 26.8986 82.3656C27.6655 81.0488 28.5615 79.6845 29.342 78.2931C29.9193 77.2784 30.4076 76.2156 30.8013 75.1166C31.0974 74.2814 31.3244 73.4233 31.4801 72.5509C31.521 72.196 31.4933 71.8366 31.3986 71.4921C31.3054 71.118 31.1121 70.7764 30.8395 70.5037C30.5668 70.2311 30.2252 70.0378 29.8511 69.9446C29.4483 69.8191 29.0178 69.8132 28.6118 69.9276C28.2057 70.0421 27.8416 70.272 27.5637 70.5894C25.4528 72.6256 22.317 77.4447 20.2401 82.5421C19.8417 82.189 19.3528 81.954 18.8283 81.8633C16.4459 81.4086 13.6495 82.3384 11.1992 84.2728C8.13131 86.7027 5.55207 90.3815 5.14482 92.9065C4.8019 94.3645 5.01996 95.8982 5.75569 97.2029C6.07996 97.6903 6.50551 98.1021 7.00331 98.4101C7.50112 98.7182 8.05948 98.9153 8.64035 98.988ZM18.1971 83.886C17.9497 83.8861 17.7033 83.9181 17.464 83.981C17.6992 83.8991 17.9488 83.8667 18.1971 83.886ZM8.78288 93.6259C9.14262 92.1191 10.7648 90.144 12.6653 88.6372C13.4939 87.9406 14.4289 87.3814 15.4346 86.981V87.0625C15.5405 87.7111 15.8699 88.3022 16.3657 88.7336C16.8615 89.1649 17.4925 89.4093 18.1496 89.4245H18.2242V89.5806C17.5735 90.5363 16.8544 91.4437 16.0726 92.2956C14.145 94.3861 11.9051 95.8929 9.23085 95.4585C8.95936 95.411 8.7829 95.3092 8.71502 95.1192C8.60139 94.6245 8.62484 94.1082 8.78288 93.6259ZM158.161 114.382L160.136 114.063C160.77 113.977 161.389 113.803 161.975 113.547C162.307 113.359 162.582 113.085 162.769 112.753C162.893 112.543 162.978 112.314 163.021 112.074C163.245 111.395 163.021 110.432 161.378 109.563C160.227 109.144 159.041 108.826 157.835 108.613C157.262 108.61 156.701 108.787 156.233 109.118C155.765 109.449 155.411 109.917 155.222 110.459H155.025C154.534 110.555 154.07 110.759 153.668 111.056C153.498 111.158 153.131 111.3 152.792 111.477C148.177 111.843 142.923 111.945 141.369 111.619C141.009 111.568 140.642 111.588 140.29 111.679C139.937 111.769 139.606 111.928 139.315 112.147C139.025 112.365 138.78 112.639 138.594 112.952C138.409 113.265 138.288 113.611 138.236 113.971C138.185 114.331 138.205 114.698 138.296 115.05C138.386 115.403 138.545 115.734 138.763 116.025C138.982 116.315 139.255 116.56 139.568 116.746C139.882 116.931 140.228 117.052 140.588 117.104C142.149 117.226 146.887 116.534 151.448 115.712C151.505 115.818 151.568 115.92 151.638 116.018C151.802 116.247 152.004 116.447 152.235 116.608C151.984 117.287 151.679 118.034 151.312 118.801C150.253 121.047 148.815 123.599 147.362 126.267C144.287 131.927 141.009 138.07 139.502 142.713C139.205 142.327 138.811 142.027 138.361 141.843C137.91 141.66 137.418 141.599 136.937 141.667C134.717 142.041 133.692 142.21 132.633 142.455C131.574 142.699 130.597 142.984 128.439 143.581C126.683 144.149 124.854 144.46 123.009 144.505C122.608 144.548 122.203 144.478 121.841 144.301C121.719 144.199 121.733 144.029 121.739 143.846C121.745 143.447 121.799 143.051 121.902 142.665C122.452 140.773 123.22 138.951 124.19 137.235C124.963 135.776 125.825 134.242 126.708 132.674C127.997 132.328 129.267 131.921 130.556 131.479C131.303 131.222 132.036 130.97 132.81 130.726C133.977 130.36 135.077 130 136.292 129.491C136.587 129.279 136.837 129.011 137.029 128.703C137.22 128.394 137.349 128.051 137.408 127.693C137.467 127.335 137.455 126.968 137.372 126.615C137.29 126.261 137.138 125.927 136.926 125.632C136.715 125.337 136.447 125.087 136.138 124.895C135.83 124.704 135.487 124.575 135.128 124.516C134.77 124.457 134.404 124.469 134.05 124.552C133.697 124.634 133.363 124.786 133.068 124.997C132.669 125.529 132.231 126.031 131.758 126.497C131.272 126.948 130.739 127.346 130.169 127.685C129.877 127.851 129.575 128 129.267 128.133C132.47 122.337 135.199 116.669 134.31 113.262C134.094 112.045 133.486 110.932 132.579 110.092C131.714 109.354 130.607 108.96 129.47 108.986C129.022 108.456 128.269 108.246 127.19 108.246C126.384 108.372 125.61 108.651 124.909 109.067C124.603 109.28 124.342 109.553 124.144 109.869C123.946 110.185 123.813 110.538 123.755 110.907C122.798 111.485 121.89 112.141 121.04 112.868C120.414 113.481 119.86 114.164 119.391 114.905C119.076 115.46 118.921 116.092 118.943 116.73C118.968 117.355 119.208 117.952 119.622 118.42C119.828 118.718 120.112 118.953 120.443 119.099L120.362 119.208C118.78 121.393 116.914 123.742 115.027 126.145L112.719 129.029C112.326 129.213 111.981 129.486 111.713 129.827C111.444 130.167 111.259 130.566 111.171 130.991C107.628 135.511 104.384 139.774 102.538 142.686C101.772 143.835 101.191 145.097 100.814 146.425C100.673 146.968 100.679 147.538 100.83 148.078C100.981 148.618 101.272 149.109 101.674 149.499C102.076 149.89 102.574 150.168 103.118 150.304C103.662 150.44 104.232 150.43 104.771 150.274C106.224 149.866 107.6 149.221 108.843 148.367C109.295 148.065 109.649 147.636 109.859 147.135C110.069 146.634 110.127 146.082 110.026 145.548C109.925 145.013 109.668 144.521 109.289 144.132C108.91 143.742 108.424 143.473 107.893 143.357C108.361 142.577 108.898 141.722 109.481 140.819C110.771 138.83 112.271 136.604 113.866 134.296H113.914C116.561 134.106 119.086 133.93 121.536 133.618C119.812 136.482 118.353 139.143 117.687 141.294C116.907 143.833 117.205 145.876 118.285 147.253C119.065 148.258 120.355 149.011 122.357 149.29C124.047 149.5 126.43 149.29 129.721 148.563C131.758 148.102 132.755 147.885 133.719 147.695C134.683 147.505 135.674 147.416 137.744 147.172C138.245 147.097 138.716 146.883 139.102 146.554C139.343 147.099 139.753 147.551 140.272 147.844C140.792 148.136 141.391 148.252 141.982 148.176C142.573 148.1 143.123 147.835 143.551 147.42C143.978 147.005 144.26 146.464 144.355 145.876C144.667 143.337 145.767 139.971 147.206 136.373C148.455 133.265 149.921 130 151.353 126.952C152.412 124.699 153.423 122.554 154.367 120.694C154.862 119.717 155.344 118.821 155.785 118.02C156.426 116.898 156.99 115.735 157.475 114.538L158.161 114.382ZM122.927 114.11C122.565 113.948 122.171 113.867 121.773 113.873C122.172 113.818 122.578 113.897 122.927 114.097V114.11ZM117.545 129.043C119.086 126.891 120.633 124.767 122.092 122.812C123.104 121.454 124.129 120.192 125.011 119.045C126.178 117.586 127.224 116.33 128.052 115.285C128.65 114.539 129.199 113.754 129.694 112.936C129.862 112.922 130.029 112.97 130.163 113.072C130.48 113.352 130.697 113.729 130.78 114.144C131.391 116.629 129.423 120.402 127.088 124.482C126.199 126.022 125.228 127.597 124.264 129.158C122.024 129.277 119.779 129.234 117.545 129.029V129.043ZM136.441 88.42C136.206 88.8597 135.998 89.313 135.817 89.7775C135.428 89.3416 134.91 89.0408 134.339 88.9187C133.768 88.7967 133.173 88.8597 132.64 89.0987C130.974 89.9491 129.219 90.6115 127.407 91.0739C126.677 91.2658 125.921 91.3391 125.167 91.2911C124.841 91.2571 124.488 91.2911 124.325 90.9924C124.163 90.6938 124.258 90.3544 124.4 90.0082C124.634 89.4576 124.916 88.9284 125.242 88.4268C126.362 86.6688 127.746 84.8633 128.33 83.1869C128.63 82.4634 128.762 81.6814 128.716 80.8996C128.67 80.1178 128.448 79.3566 128.065 78.6732C127.709 78.0028 127.159 77.4552 126.487 77.1017C125.815 76.7482 125.053 76.6052 124.298 76.6913C122.977 76.8657 121.716 77.3519 120.62 78.1099C120.009 76.9696 116.547 73.7184 115.359 77.3972C115.291 77.6076 115.156 78.0352 114.979 78.6393C114.585 79.9968 113.968 82.1755 113.316 84.3407C113.011 85.3385 112.705 86.3159 112.42 87.205C110.873 89.8725 109.855 92.635 109.882 94.9223C109.842 95.4448 110.005 95.9626 110.337 96.3681C110.569 96.6963 110.913 96.9281 111.305 97.0194C111.696 97.1107 112.108 97.0553 112.461 96.8635C112.872 96.6704 113.206 96.3455 113.411 95.9405C113.778 95.2617 114.64 92.4042 115.081 91.2775C115.441 90.4426 116.065 88.9358 116.791 87.2729C118.773 84.6054 121.278 82.2705 123.334 81.2592C123.667 81.1101 124.015 81.0008 124.373 80.9334C124.377 81.1844 124.316 81.4323 124.197 81.6529C123.886 82.3364 123.497 82.9811 123.036 83.5737C121.78 85.3249 120.321 87.1371 119.737 88.8544C119.441 89.6178 119.322 90.4389 119.39 91.2551C119.458 92.0713 119.712 92.8612 120.131 93.5648C121.19 95.3975 123.07 96.2798 125.337 96.4088C128.731 96.6328 133.224 94.8612 134.934 94.135C135.095 94.0641 135.248 93.9753 135.389 93.8703C135.438 94.0376 135.499 94.2009 135.572 94.359C136.156 95.5332 137.337 96.5106 139.57 96.6938C142.47 96.9366 145.356 96.0923 147.667 94.325C148.073 95.5981 148.806 96.7425 149.792 97.6441C151.231 98.9677 153.382 99.8772 156.511 99.9994C156.884 100.025 157.258 99.9741 157.611 99.8509C157.964 99.7277 158.288 99.5344 158.564 99.2826C158.84 99.0308 159.063 98.7257 159.218 98.3857C159.373 98.0458 159.458 97.6779 159.467 97.3043C159.476 96.9307 159.409 96.5592 159.271 96.212C159.133 95.8648 158.926 95.5492 158.662 95.2841C158.399 95.0191 158.085 94.8101 157.738 94.6698C157.392 94.5295 157.021 94.4607 156.647 94.4676C155.066 94.4676 153.932 94.2164 153.254 93.5241C152.31 92.5739 152.222 91.1214 152.459 89.4517C155.772 84.9787 158.181 79.2705 159.763 75.5306C160.387 74.0442 163.917 66.259 164.704 63.0689C164.879 62.5364 164.932 61.9715 164.859 61.4158C164.786 60.8601 164.589 60.3278 164.283 59.8584C164.067 59.607 163.798 59.4063 163.495 59.2702C163.192 59.1342 162.864 59.0662 162.532 59.0711C162.039 59.1303 161.568 59.309 161.16 59.5917C160.752 59.8745 160.419 60.2526 160.19 60.6933C159.308 62.1526 157.672 65.9875 157.231 66.802C156.213 68.655 154.02 72.2319 151.964 76.2162H151.876C150.674 75.9311 148.787 76.2161 146.731 77.5261C143.188 79.6845 138.532 84.4629 136.441 88.3928V88.42ZM115.176 78.4628C115.188 79.0781 115.402 79.6723 115.787 80.1529C115.565 79.9291 115.396 79.6592 115.29 79.3624C115.184 79.0656 115.145 78.7492 115.176 78.4356V78.4628ZM117.07 81.0963C116.685 80.9536 116.341 80.7208 116.065 80.4176C116.359 80.6987 116.715 80.9078 117.104 81.0285L117.07 81.0963ZM148.292 81.9719C148.421 81.8972 148.563 81.8158 148.706 81.7479C148.489 82.3535 148.489 83.0157 148.706 83.6213C147.95 85.6824 147.458 87.8306 147.24 90.015C145.204 92.0512 142.774 93.4087 139.916 93.1644C139.414 93.1169 139.047 93.0694 138.857 92.8386C138.667 92.6078 138.857 92.3771 138.912 92.0648C139.372 90.7246 140.089 89.4866 141.023 88.42C143.07 85.8733 145.526 83.6851 148.292 81.9448V81.9719ZM91.3521 60.0077C90.2161 62.2184 88.7361 64.2345 86.9674 65.9807C86.2319 66.7679 85.8311 67.81 85.8493 68.8871C85.8676 69.9642 86.3037 70.9921 87.0654 71.7538C87.8271 72.5156 88.855 72.9516 89.9321 72.9699C91.0093 72.9882 92.0514 72.5873 92.8385 71.8518C95.067 69.3528 96.8859 66.5167 98.2278 63.449C101.078 57.2317 102.945 49.7791 105.531 44.4442C108.264 38.9447 111.355 33.6301 114.782 28.5344C116.513 25.9416 118.271 23.3692 120.158 20.8782C120.402 20.5592 120.647 20.2334 120.898 19.9144C121.856 19.5315 122.638 18.8056 123.09 17.8781C123.226 17.4844 123.891 16.8125 123.64 16.4799L124.122 15.8826C124.219 15.7997 124.312 15.7113 124.4 15.6179C124.963 15.0002 125.88 13.7038 125.88 13.7038L125.71 13.8939L126.049 13.4595C126.142 13.3476 126.224 13.2271 126.294 13.0998C126.476 12.8106 126.596 12.4872 126.647 12.1495C126.781 11.6754 126.797 11.1754 126.693 10.6937C126.589 10.212 126.368 9.76327 126.049 9.38703C125.683 8.76258 123.721 6.89604 120.979 8.87797C120.918 8.91869 120.782 9.08838 120.545 9.32594C120.457 9.41418 120.151 9.66532 119.907 9.86894C119.153 10.2242 118.465 10.7038 117.871 11.2875C116.992 12.1583 116.23 13.1393 115.604 14.2061C115.329 14.7612 115.183 15.3708 115.176 15.99C115.169 16.6091 115.301 17.2219 115.563 17.7831C115.244 18.2854 114.884 18.7876 114.579 19.2831C113.113 21.4755 111.572 23.6135 110.058 25.7719L108.999 27.2787C108.938 27.0344 108.877 26.79 108.823 26.5389C108.246 23.6271 108.042 20.6406 107.594 17.7831C107.517 17.1615 107.474 16.5361 107.465 15.9098C107.467 15.5005 107.501 15.092 107.567 14.688C107.601 14.4572 107.649 14.2265 107.696 14.0093C108.417 13.2048 108.796 12.1517 108.754 11.0725C108.713 9.99336 108.253 8.97274 107.472 8.22638C106.956 8.04991 106.794 7.54763 106.413 7.50012C106.033 7.45261 105.931 7.17432 105.653 7.22183C105.375 7.26934 105.185 7.01143 104.941 7.09966C104.262 7.33722 103.583 6.8621 103.088 7.36437C102.884 7.57478 102.531 7.47297 102.355 7.73768C102.069 8.16529 101.33 8.18565 101.187 8.85761C101.153 9.03408 100.929 9.10875 100.909 9.31916C100.909 9.67889 100.142 10.4934 100.644 11.8509C100.936 12.6382 101.323 13.826 101.764 15.136C101.893 15.5354 101.993 15.9438 102.063 16.3577C102.158 16.9486 102.217 17.5447 102.239 18.1428C102.151 21.6384 101.832 25.2628 101.947 28.8398C102.007 30.5767 102.218 32.305 102.578 34.0051C102.763 34.553 103.059 35.0569 103.447 35.4847C102.205 37.4327 100.997 39.4147 99.8567 41.4509C96.9585 46.6093 94.6236 53.9534 91.3521 59.9806V60.0077ZM123.45 16.3577L123.402 16.4052C123.349 16.4219 123.298 16.4471 123.253 16.4799L123.45 16.3577ZM119.893 9.8893L119.554 10.1676C119.659 10.0677 119.773 9.9769 119.893 9.89608V9.8893ZM105.361 15.3193C105.246 15.3793 105.12 15.4157 104.991 15.4261C104.861 15.4366 104.731 15.4211 104.608 15.3803C104.86 15.3873 105.112 15.3736 105.361 15.3396V15.3193ZM101.778 14.2333L101.974 14.4097C101.891 14.3848 101.821 14.3289 101.778 14.2536V14.2333ZM102.164 14.5591C102.346 14.6955 102.539 14.8159 102.741 14.9188C102.626 14.9081 102.515 14.8721 102.415 14.8135C102.315 14.7548 102.23 14.6749 102.164 14.5794V14.5591ZM103.332 15.1699L103.603 15.2514C103.509 15.2578 103.415 15.2365 103.332 15.1903V15.1699ZM181.028 124.156C180.788 123.752 180.437 123.426 180.017 123.217C179.597 123.007 179.125 122.923 178.659 122.975C177.478 122.975 174.586 123.837 168.939 125.846L168.261 126.09C168.117 125.996 168.009 125.857 167.955 125.694C167.901 125.532 167.903 125.355 167.962 125.194C168.423 123.626 169.808 122.215 171.471 120.966C173.762 119.369 176.206 118.005 178.768 116.893C178.995 117.353 179.346 117.741 179.781 118.013C180.216 118.285 180.718 118.431 181.231 118.434L183.851 118.21C185.209 117.762 185.84 117.009 186.037 116.174C186.195 115.621 186.197 115.036 186.042 114.482C185.888 113.929 185.583 113.429 185.161 113.038C184.175 112.167 182.937 111.632 181.627 111.51C180.317 111.388 179.002 111.686 177.872 112.359C175.197 113.92 170.819 116.432 167.84 119.296C166.329 120.619 165.19 122.312 164.534 124.21C164.325 124.788 164.244 125.404 164.298 126.016C164.352 126.628 164.539 127.221 164.846 127.753C161.988 129.394 159.588 131.728 157.869 134.541C156.369 137.174 156.138 139.814 157.021 141.925C158.276 144.912 162.328 147.45 170.718 146.453C171.083 146.408 171.436 146.292 171.755 146.109C172.075 145.927 172.355 145.683 172.579 145.392C172.804 145.1 172.968 144.767 173.062 144.411C173.156 144.055 173.178 143.684 173.127 143.32C173.076 142.955 172.953 142.605 172.765 142.289C172.577 141.972 172.328 141.697 172.032 141.478C171.736 141.259 171.4 141.101 171.043 141.014C170.685 140.926 170.314 140.911 169.951 140.968C167.181 141.416 165.07 141.443 163.53 141.043C162.854 140.935 162.233 140.606 161.765 140.106C161.61 139.866 161.508 139.595 161.464 139.312C161.421 139.029 161.438 138.74 161.514 138.464C162.091 135.552 165.267 132.213 169.618 130.237L170.175 130.305C173.175 130.577 176.833 129.844 178.937 128.602C179.9 128.076 180.663 127.249 181.109 126.246C181.257 125.915 181.327 125.554 181.313 125.192C181.298 124.829 181.201 124.475 181.028 124.156Z" fill="#005000"/></svg>