<svg width="290" height="258" viewBox="0 0 290 258" fill="none" xmlns="http://www.w3.org/2000/svg"><path fill-rule="evenodd" clip-rule="evenodd" d="M13.9487 253.003C13.4708 253.252 12.9764 253.467 12.469 253.648C12.0264 253.805 11.548 253.832 11.0908 253.725C10.6335 253.618 10.2166 253.381 9.88979 253.044C9.26534 252.42 8.72913 251.055 8.5323 249.263C8.50155 249.023 8.51853 248.778 8.58222 248.544C8.6459 248.31 8.75506 248.091 8.90349 247.899C9.05192 247.707 9.23669 247.546 9.44726 247.426C9.65784 247.305 9.89011 247.227 10.1308 247.197C10.3714 247.166 10.6158 247.183 10.8499 247.247C11.084 247.31 11.3033 247.419 11.4952 247.568C11.6871 247.716 11.8479 247.901 11.9684 248.112C12.0889 248.322 12.1668 248.554 12.1975 248.795C12.236 249.083 12.2904 249.368 12.3604 249.65C12.5589 249.557 12.7629 249.475 12.9713 249.406C13.4991 249.23 14.0654 249.204 14.6071 249.331C15.0618 249.447 15.5234 249.576 15.9985 249.718C16.4571 249.867 16.8392 250.19 17.0632 250.617C17.2871 251.044 17.335 251.542 17.1967 252.004C17.0584 252.466 16.7448 252.855 16.323 253.089C15.9012 253.323 15.4047 253.382 14.9396 253.254L13.9487 253.003ZM8.51875 234.27C8.51875 235.872 8.51875 237.478 8.51875 239.089C8.51875 239.612 8.47803 240.514 8.43731 241.6C8.41619 241.85 8.44594 242.101 8.52476 242.338C8.60358 242.575 8.72982 242.794 8.89582 242.981C9.06182 243.169 9.26412 243.32 9.49043 243.427C9.71674 243.533 9.96235 243.593 10.2123 243.601C10.4623 243.61 10.7115 243.568 10.9447 243.477C11.1779 243.387 11.3903 243.25 11.569 243.075C11.7476 242.9 11.8888 242.69 11.9841 242.459C12.0793 242.228 12.1265 241.979 12.1229 241.729C12.1636 240.589 12.2043 239.639 12.2043 239.089C12.2043 237.494 12.2043 235.899 12.2043 234.304C12.2043 233.814 12.0098 233.345 11.6636 232.998C11.3173 232.652 10.8478 232.458 10.3581 232.458C9.86848 232.458 9.39893 232.652 9.05271 232.998C8.70648 233.345 8.51196 233.814 8.51196 234.304L8.51875 234.27ZM8.79702 219.48C8.73593 221.944 8.68164 224.401 8.63413 226.865C8.62423 227.355 8.80922 227.828 9.14845 228.181C9.48767 228.534 9.95333 228.738 10.443 228.748C10.9326 228.758 11.4061 228.573 11.7594 228.234C12.1126 227.895 12.3166 227.429 12.3265 226.94C12.3763 224.482 12.4283 222.025 12.4826 219.568C12.4676 219.097 12.2726 218.649 11.9377 218.316C11.6027 217.984 11.1532 217.793 10.6815 217.781C10.2098 217.77 9.7517 217.94 9.40123 218.256C9.05077 218.572 8.83457 219.01 8.79702 219.48ZM9.06174 204.745C9.06174 207.202 9.00063 209.659 8.95312 212.109C8.94866 212.351 8.99201 212.592 9.08067 212.818C9.16933 213.044 9.3016 213.25 9.46988 213.424C9.63816 213.599 9.83918 213.739 10.0615 213.836C10.2837 213.932 10.5229 213.985 10.7654 213.989C11.0078 213.994 11.2488 213.95 11.4745 213.862C11.7002 213.773 11.9062 213.641 12.0808 213.472C12.2554 213.304 12.3951 213.103 12.492 212.881C12.5889 212.659 12.641 212.419 12.6455 212.177C12.693 209.713 12.7337 207.249 12.7541 204.779C12.7541 204.289 12.5596 203.819 12.2134 203.473C11.8671 203.127 11.3975 202.932 10.9079 202.932C10.4183 202.932 9.94871 203.127 9.60249 203.473C9.25626 203.819 9.06174 204.289 9.06174 204.779V204.745ZM8.98709 190.029C9.02781 192.487 9.06175 194.937 9.07533 197.394C9.07533 197.883 9.26981 198.353 9.61603 198.699C9.96226 199.046 10.4319 199.24 10.9215 199.24C11.4111 199.24 11.8807 199.046 12.2269 198.699C12.5732 198.353 12.7677 197.883 12.7677 197.394C12.7677 194.93 12.7202 192.459 12.6795 189.996C12.6714 189.506 12.4691 189.04 12.1171 188.699C11.7652 188.359 11.2924 188.172 10.8027 188.18C10.3131 188.188 9.84671 188.39 9.50621 188.742C9.16571 189.094 8.97899 189.567 8.98709 190.057V190.029ZM8.61374 175.294C8.68841 177.751 8.76311 180.208 8.82419 182.665C8.81689 182.916 8.86078 183.166 8.95324 183.399C9.0457 183.632 9.18479 183.844 9.36196 184.022C9.53913 184.2 9.75065 184.34 9.98366 184.433C10.2167 184.526 10.4663 184.571 10.7172 184.564C10.9681 184.558 11.215 184.5 11.4429 184.395C11.6708 184.29 11.8749 184.14 12.0426 183.953C12.2104 183.766 12.3384 183.547 12.4187 183.31C12.499 183.072 12.53 182.82 12.5098 182.57C12.4487 180.106 12.3808 177.649 12.3061 175.185C12.2917 174.696 12.0834 174.232 11.727 173.896C11.3706 173.56 10.8953 173.379 10.4056 173.393C9.916 173.408 9.45213 173.616 9.11609 173.973C8.78005 174.329 8.59934 174.804 8.61374 175.294ZM8.12507 160.558C8.19294 163.015 8.2676 165.479 8.33548 167.943C8.34261 168.186 8.39743 168.424 8.49679 168.645C8.59616 168.867 8.73811 169.066 8.91459 169.233C9.271 169.569 9.74631 169.749 10.236 169.735C10.4784 169.728 10.7171 169.673 10.9384 169.574C11.1596 169.474 11.3591 169.332 11.5255 169.156C11.6919 168.979 11.8219 168.772 11.9081 168.545C11.9943 168.318 12.035 168.077 12.0278 167.835C11.9554 165.373 11.8853 162.914 11.8174 160.457C11.8108 160.214 11.7564 159.975 11.6574 159.754C11.5584 159.533 11.4168 159.333 11.2407 159.166C11.0645 158.999 10.8573 158.869 10.6307 158.782C10.4042 158.696 10.1628 158.655 9.92036 158.661C9.43072 158.675 8.9665 158.882 8.62982 159.238C8.46311 159.414 8.33272 159.621 8.24612 159.848C8.15952 160.075 8.11838 160.316 8.12507 160.558ZM7.86714 145.755C7.86714 148.226 7.91466 150.689 7.96218 153.16C7.95228 153.411 7.99378 153.662 8.08418 153.896C8.17458 154.131 8.31198 154.345 8.48789 154.524C8.6638 154.704 8.87452 154.846 9.10718 154.941C9.33985 155.036 9.58952 155.083 9.8409 155.079C10.0923 155.074 10.3401 155.018 10.5691 154.914C10.7981 154.81 11.0035 154.661 11.1727 154.475C11.3418 154.289 11.4712 154.07 11.5529 153.833C11.6346 153.595 11.6669 153.343 11.6478 153.092C11.607 150.642 11.5731 148.185 11.5527 145.735C11.568 145.483 11.5317 145.231 11.446 144.994C11.3603 144.758 11.227 144.541 11.0543 144.357C10.8817 144.174 10.6734 144.028 10.4422 143.928C10.211 143.828 9.96182 143.777 9.70995 143.777C9.45808 143.777 9.20885 143.828 8.97764 143.928C8.74643 144.028 8.53813 144.174 8.36551 144.357C8.1929 144.541 8.05965 144.758 7.97394 144.994C7.88824 145.231 7.85188 145.483 7.86714 145.735V145.755ZM8.26083 130.904C8.13865 133.443 8.0097 135.934 7.92825 138.302C7.91205 138.792 8.09102 139.268 8.42579 139.626C8.76056 139.983 9.22371 140.193 9.71335 140.21C10.203 140.226 10.679 140.047 11.0367 139.712C11.3943 139.377 11.6044 138.914 11.6206 138.425C11.6953 136.076 11.831 133.599 11.9532 131.081C11.9648 130.838 11.9285 130.596 11.8464 130.367C11.7644 130.139 11.6381 129.929 11.4748 129.749C11.3116 129.57 11.1146 129.424 10.895 129.32C10.6755 129.217 10.4377 129.158 10.1952 129.146C9.95278 129.135 9.71044 129.171 9.48202 129.253C9.25359 129.335 9.04359 129.461 8.86396 129.624C8.68434 129.788 8.53859 129.985 8.43511 130.204C8.33162 130.424 8.27241 130.662 8.26083 130.904ZM8.43051 116.338C8.56626 118.687 8.57981 121.123 8.5323 123.58C8.5233 124.07 8.7092 124.543 9.04906 124.896C9.38892 125.248 9.85494 125.452 10.3446 125.461C10.8342 125.47 11.3073 125.284 11.6599 124.944C12.0125 124.604 12.2157 124.138 12.2247 123.648C12.2722 121.096 12.2247 118.564 12.1161 116.128C12.1071 115.882 12.0493 115.641 11.9459 115.418C11.8426 115.195 11.6958 114.995 11.5142 114.83C11.3326 114.665 11.1197 114.537 10.8882 114.455C10.6567 114.373 10.4111 114.338 10.1659 114.352C9.92065 114.366 9.68065 114.429 9.45998 114.537C9.23931 114.644 9.0424 114.795 8.88078 114.98C8.71917 115.165 8.59607 115.381 8.51875 115.614C8.44143 115.847 8.41145 116.093 8.43051 116.338ZM6.8151 101.481C6.62124 103.791 6.79072 106.118 7.31736 108.377C7.39881 108.682 7.46669 108.994 7.53456 109.306C7.63807 109.785 7.92755 110.203 8.33933 110.469C8.75111 110.734 9.25145 110.825 9.73029 110.722C10.2091 110.618 10.6273 110.329 10.8927 109.917C11.1581 109.505 11.249 109.005 11.1455 108.526C11.0708 108.173 10.9894 107.847 10.9011 107.481C10.4692 105.595 10.334 103.653 10.5007 101.725C10.5167 101.483 10.485 101.24 10.4072 101.01C10.3294 100.781 10.2071 100.568 10.0473 100.386C9.88756 100.204 9.69341 100.054 9.47597 99.9469C9.25853 99.8395 9.02207 99.7759 8.78007 99.7599C8.29134 99.7275 7.80973 99.8906 7.44123 100.213C7.07273 100.536 6.8475 100.992 6.8151 101.481ZM8.62733 86.9554C8.5607 89.3161 8.30421 91.6676 7.86035 93.9872C7.80865 94.2308 7.80679 94.4824 7.85488 94.7268C7.90297 94.9712 8.00002 95.2034 8.14019 95.4093C8.28035 95.6152 8.46072 95.7906 8.67046 95.9249C8.8802 96.0593 9.11499 96.1498 9.36064 96.1911C9.60628 96.2323 9.8577 96.2234 10.0998 96.1649C10.3419 96.1065 10.5697 95.9996 10.7695 95.8508C10.9692 95.7019 11.1367 95.5142 11.262 95.2989C11.3873 95.0836 11.4677 94.8452 11.4984 94.598C11.9768 92.0812 12.2515 89.5299 12.3197 86.969C12.3197 86.4793 12.1252 86.0097 11.779 85.6635C11.4327 85.3173 10.9632 85.1228 10.4735 85.1228C9.9839 85.1228 9.51431 85.3173 9.16808 85.6635C8.82186 86.0097 8.62733 86.4793 8.62733 86.969V86.9554ZM8.26083 72.2334C8.26083 74.6769 8.13863 77.195 8.159 79.6182C8.14373 79.8696 8.18009 80.1214 8.2658 80.3583C8.3515 80.5951 8.48475 80.8119 8.65737 80.9953C8.82998 81.1787 9.03829 81.3249 9.2695 81.4248C9.5007 81.5247 9.74994 81.5762 10.0018 81.5762C10.2537 81.5762 10.5029 81.5247 10.7341 81.4248C10.9653 81.3249 11.1736 81.1787 11.3462 80.9953C11.5188 80.8119 11.6521 80.5951 11.7378 80.3583C11.8235 80.1214 11.8598 79.8696 11.8446 79.6182C11.8446 77.2018 11.96 74.6837 11.9532 72.2402C11.9532 71.7506 11.7587 71.281 11.4124 70.9348C11.0662 70.5885 10.5966 70.394 10.107 70.394C9.61735 70.394 9.14776 70.5885 8.80153 70.9348C8.45531 71.281 8.26083 71.7506 8.26083 72.2402V72.2334ZM3.37386 59.5952C3.97098 60.8593 4.81039 61.9939 5.8445 62.9346C6.50798 63.4906 7.04095 64.1858 7.4056 64.9709C7.4599 65.1202 7.50064 65.2695 7.54815 65.4256C7.6904 65.8901 8.00995 66.2798 8.4376 66.5103C8.86524 66.7407 9.36649 66.7933 9.83266 66.6567C10.2988 66.5201 10.6924 66.2052 10.928 65.7803C11.1635 65.3555 11.2222 64.8549 11.0912 64.3871C11.0369 64.1903 10.9758 63.9935 10.9079 63.8034C10.4891 62.7165 9.84087 61.7326 9.00743 60.9188C8.19972 60.0568 7.20198 59.283 6.8151 58.2852C6.72596 58.0593 6.59317 57.8531 6.42436 57.6785C6.25554 57.5038 6.054 57.3641 5.8312 57.2674C5.6084 57.1706 5.36872 57.1187 5.12586 57.1146C4.883 57.1105 4.64167 57.1542 4.41571 57.2434C4.18976 57.3325 3.98357 57.4653 3.80893 57.6341C3.63428 57.8029 3.49463 58.0045 3.39789 58.2273C3.30114 58.4501 3.24922 58.6897 3.2451 58.9326C3.24098 59.1755 3.28473 59.4168 3.37386 59.6427V59.5952ZM1.8331 46.1561C2.6951 47.2081 3.5775 48.1923 3.81506 49.4344C3.93039 50.0877 3.93039 50.7562 3.81506 51.4096C3.79365 51.8657 3.94205 52.3136 4.23161 52.6667C4.52117 53.0199 4.93132 53.2531 5.38283 53.3215C5.83435 53.3899 6.29516 53.2885 6.67627 53.0369C7.05739 52.7853 7.33175 52.4014 7.44632 51.9593C7.62997 50.8925 7.62997 49.8021 7.44632 48.7353C7.08659 46.9638 5.9531 45.3891 4.69742 43.8416C4.3869 43.4626 3.93856 43.2226 3.45104 43.1742C2.96352 43.1258 2.47675 43.2731 2.09782 43.5836C1.71889 43.8942 1.47884 44.3425 1.43047 44.83C1.3821 45.3175 1.52937 45.8043 1.83989 46.1832L1.8331 46.1561ZM3.86933 31.2237C2.62723 33.5857 1.35798 35.9749 0.47561 37.8347C0.362586 38.0534 0.294438 38.2925 0.275185 38.5379C0.255932 38.7833 0.28597 39.0301 0.363508 39.2638C0.441046 39.4974 0.564535 39.7132 0.726701 39.8984C0.888866 40.0836 1.08645 40.2346 1.3078 40.3423C1.52915 40.45 1.76981 40.5124 2.01563 40.5258C2.26144 40.5391 2.50744 40.5032 2.73915 40.42C2.97087 40.3369 3.18364 40.2083 3.36491 40.0417C3.54618 39.8751 3.6923 39.674 3.79468 39.4501C4.67705 37.6378 5.92593 35.269 7.1884 32.9409C7.41612 32.5071 7.46215 32.0006 7.31641 31.5328C7.17066 31.065 6.84506 30.6743 6.41122 30.4466C5.97739 30.2188 5.4709 30.1728 5.00311 30.3185C4.53532 30.4643 4.14457 30.7899 3.91685 31.2237H3.86933ZM7.01192 19.2439C7.69066 20.6489 8.19293 22.0742 7.69066 23.52C7.58885 23.8118 7.41237 24.1987 7.17481 24.7349C7.06146 24.956 6.99394 25.1978 6.97625 25.4456C6.95855 25.6935 6.99108 25.9423 7.07186 26.1773C7.15265 26.4123 7.28001 26.6285 7.44637 26.8131C7.61272 26.9977 7.81462 27.1468 8.03998 27.2515C8.26533 27.3561 8.50952 27.4142 8.75787 27.4223C9.00622 27.4304 9.25362 27.3882 9.48529 27.2984C9.71696 27.2085 9.9281 27.0728 10.1061 26.8994C10.2841 26.726 10.4252 26.5185 10.5211 26.2892C10.7796 25.7696 11.0063 25.2346 11.1998 24.6874C11.9871 22.3254 11.4306 19.9362 10.3378 17.6624C10.2409 17.4328 10.0985 17.2251 9.91916 17.052C9.73985 16.8789 9.52733 16.7439 9.29444 16.6551C9.06154 16.5663 8.81308 16.5256 8.56403 16.5355C8.31498 16.5453 8.07053 16.6054 7.84535 16.7123C7.62018 16.8192 7.41896 16.9705 7.25385 17.1572C7.08874 17.3439 6.96316 17.5621 6.88465 17.7987C6.80614 18.0352 6.77633 18.2852 6.79703 18.5336C6.81774 18.782 6.88852 19.0236 7.00512 19.2439H7.01192ZM7.12054 9.78899C7.01152 10.3103 7.04196 10.8511 7.20878 11.3569C7.27251 11.5909 7.28953 11.8351 7.25887 12.0757C7.22821 12.3162 7.15044 12.5484 7.03006 12.7589C6.90968 12.9694 6.74903 13.1541 6.55725 13.3025C6.36548 13.451 6.14633 13.5602 5.91236 13.6239C5.67838 13.6876 5.43415 13.7046 5.19359 13.674C4.95304 13.6433 4.72089 13.5656 4.51038 13.4452C4.29986 13.3248 4.1151 13.1642 3.96668 12.9724C3.81827 12.7806 3.70911 12.5615 3.64537 12.3275C3.16361 10.7931 3.28498 9.13285 3.98475 7.68488C4.17062 7.35526 4.41981 7.06564 4.71801 6.83268C5.01621 6.59971 5.35753 6.42799 5.72233 6.32739C6.50967 6.06268 7.75854 5.95408 8.84453 5.64864C9.07854 5.57262 9.32538 5.54414 9.57055 5.56488C9.81572 5.58562 10.0543 5.65516 10.2722 5.7694C10.4901 5.88365 10.683 6.04031 10.8395 6.23016C10.996 6.42001 11.113 6.63923 11.1836 6.87494C11.2541 7.11064 11.2769 7.35808 11.2505 7.6027C11.224 7.84733 11.149 8.0842 11.0297 8.29941C10.9105 8.51461 10.7494 8.70381 10.556 8.85588C10.3625 9.00794 10.1407 9.11981 9.90337 9.1849C9.04816 9.38174 7.68387 9.64645 7.09336 9.75505L7.12054 9.78899ZM18.503 5.64864C18.7221 5.83331 18.8961 6.06543 19.0121 6.32739C19.2146 6.77394 19.232 7.28256 19.0602 7.74183C18.8885 8.20111 18.5417 8.57358 18.0958 8.77765C16.3243 9.58536 14.77 8.95413 13.5075 7.46089C12.4622 6.22558 11.6817 4.2165 11.0844 3.38843C10.9325 3.1908 10.8222 2.96447 10.7602 2.72307C10.6981 2.48167 10.6856 2.23021 10.7233 1.98383C10.761 1.73746 10.8483 1.50128 10.9798 1.28953C11.1113 1.07779 11.2843 0.894855 11.4883 0.751767C11.6924 0.608679 11.9234 0.508396 12.1672 0.456965C12.4111 0.405535 12.6629 0.404023 12.9074 0.452517C13.1519 0.501011 13.384 0.598507 13.5898 0.739132C13.7956 0.879756 13.9708 1.0606 14.1048 1.27075C14.4713 1.79338 14.9057 2.76398 15.4623 3.72101C15.6367 3.34214 15.9342 3.03348 16.3065 2.84531C16.6787 2.65714 17.1037 2.60056 17.5122 2.68477C17.9206 2.76899 18.2885 2.98905 18.556 3.30909C18.8234 3.62914 18.9747 4.03031 18.985 4.44727C18.9621 4.88519 18.7813 5.29997 18.4759 5.61471L18.503 5.64864Z" fill="#005000"/><path fill-rule="evenodd" clip-rule="evenodd" d="M272.2 244.417C274.154 245.774 276.374 247.261 278.356 248.571C278.559 248.704 278.786 248.797 279.024 248.843C279.263 248.889 279.508 248.887 279.746 248.838C279.984 248.789 280.21 248.694 280.411 248.558C280.612 248.422 280.784 248.247 280.918 248.045C281.052 247.842 281.144 247.615 281.19 247.376C281.236 247.138 281.235 246.892 281.186 246.654C281.137 246.417 281.042 246.191 280.905 245.989C280.769 245.788 280.595 245.616 280.392 245.482C278.424 244.193 276.231 242.713 274.283 241.41C273.881 241.158 273.397 241.072 272.932 241.168C272.467 241.264 272.057 241.536 271.787 241.926C271.517 242.317 271.408 242.796 271.482 243.265C271.556 243.734 271.809 244.156 272.186 244.444L272.2 244.417ZM264.693 232.6C264.916 232.821 265.116 233.064 265.29 233.326C265.747 234.103 265.933 235.011 265.819 235.905C265.751 236.813 265.799 237.725 265.962 238.62C266.006 238.866 266.099 239.1 266.236 239.309C266.373 239.518 266.551 239.697 266.759 239.835C266.967 239.973 267.2 240.067 267.446 240.112C267.692 240.157 267.944 240.152 268.187 240.097C268.431 240.042 268.66 239.938 268.863 239.792C269.065 239.645 269.235 239.459 269.363 239.245C269.492 239.031 269.575 238.793 269.609 238.545C269.642 238.298 269.626 238.046 269.559 237.806C269.465 236.999 269.449 236.185 269.512 235.376C269.556 233.932 269.153 232.51 268.358 231.303C268.043 230.828 267.679 230.386 267.272 229.987C266.919 229.66 266.452 229.484 265.971 229.496C265.491 229.508 265.033 229.707 264.697 230.051C264.361 230.396 264.173 230.857 264.172 231.338C264.171 231.819 264.358 232.282 264.693 232.627V232.6ZM250.955 228.263C253.276 230.53 256.113 230.944 258.944 231.12C259.432 231.152 259.914 230.988 260.282 230.664C260.649 230.341 260.874 229.885 260.905 229.396C260.937 228.907 260.773 228.426 260.45 228.058C260.126 227.69 259.67 227.466 259.181 227.434C257.199 227.312 255.15 227.204 253.534 225.622C253.362 225.445 253.157 225.304 252.93 225.208C252.703 225.112 252.459 225.062 252.212 225.061C251.966 225.061 251.721 225.11 251.494 225.206C251.267 225.301 251.061 225.441 250.888 225.618C250.716 225.794 250.581 226.003 250.49 226.233C250.4 226.462 250.357 226.708 250.363 226.954C250.37 227.201 250.425 227.443 250.527 227.668C250.628 227.893 250.774 228.095 250.955 228.263ZM251.315 214.443C251.66 215.138 251.79 215.921 251.688 216.69C251.484 217.518 250.588 218.434 249.903 219.405C249.762 219.604 249.662 219.829 249.608 220.067C249.555 220.305 249.549 220.551 249.592 220.792C249.634 221.032 249.723 221.261 249.855 221.467C249.986 221.672 250.157 221.85 250.358 221.989C250.558 222.128 250.784 222.225 251.023 222.277C251.261 222.328 251.507 222.331 251.747 222.287C251.987 222.242 252.216 222.15 252.42 222.017C252.624 221.883 252.8 221.711 252.937 221.509C253.901 220.111 254.973 218.726 255.272 217.566C255.559 216.061 255.379 214.505 254.756 213.106C254.669 212.88 254.539 212.674 254.373 212.498C254.207 212.322 254.007 212.181 253.786 212.082C253.565 211.984 253.327 211.93 253.085 211.923C252.844 211.916 252.603 211.958 252.377 212.044C252.151 212.13 251.944 212.261 251.769 212.427C251.593 212.593 251.452 212.793 251.353 213.013C251.254 213.234 251.2 213.473 251.194 213.714C251.187 213.956 251.228 214.197 251.315 214.423V214.443ZM252.244 207.228C252.168 207.703 251.909 208.129 251.523 208.415C251.137 208.702 250.654 208.826 250.178 208.763C249.701 208.699 249.268 208.452 248.971 208.074C248.674 207.697 248.536 207.218 248.586 206.74C248.79 204.961 250.12 203.163 254.695 203.163C254.919 203.163 255.889 203.224 256.962 203.237C257.451 203.244 257.918 203.444 258.26 203.795C258.602 204.145 258.79 204.618 258.784 205.107C258.778 205.597 258.577 206.064 258.227 206.406C257.876 206.747 257.404 206.936 256.914 206.93C255.869 206.93 254.919 206.855 254.695 206.855C254.076 206.841 253.457 206.893 252.849 207.011C252.635 207.059 252.428 207.132 252.231 207.228H252.244ZM250.514 199.036C252.475 200.359 254.756 201.262 256.588 202.83C256.961 203.149 257.445 203.306 257.934 203.268C258.423 203.23 258.876 202.999 259.195 202.626C259.513 202.254 259.671 201.77 259.633 201.281C259.595 200.792 259.364 200.339 258.991 200.02C257.05 198.364 254.654 197.373 252.577 195.948C252.172 195.729 251.7 195.67 251.254 195.782C250.808 195.893 250.419 196.167 250.164 196.55C249.909 196.933 249.807 197.398 249.876 197.852C249.946 198.307 250.183 198.72 250.541 199.009L250.514 199.036ZM241.69 186.208C242.776 188.434 243.937 190.647 245.253 192.852C245.506 193.27 245.913 193.572 246.387 193.69C246.861 193.808 247.362 193.734 247.781 193.483C248.2 193.233 248.503 192.827 248.623 192.354C248.744 191.881 248.672 191.379 248.423 190.959C247.161 188.848 246.041 186.723 245.029 184.592C244.808 184.164 244.428 183.839 243.971 183.688C243.513 183.536 243.015 183.569 242.581 183.78C242.148 183.991 241.814 184.363 241.652 184.816C241.489 185.27 241.51 185.769 241.71 186.208H241.69ZM235.547 172.775C236.606 175.029 237.584 177.255 238.581 179.468C238.781 179.918 239.152 180.27 239.611 180.447C240.071 180.624 240.582 180.611 241.032 180.411C241.482 180.211 241.834 179.841 242.011 179.381C242.188 178.922 242.175 178.411 241.975 177.961C240.984 175.728 239.986 173.474 238.907 171.173C238.813 170.94 238.673 170.728 238.494 170.551C238.315 170.374 238.102 170.235 237.868 170.143C237.634 170.052 237.383 170.009 237.132 170.017C236.88 170.026 236.633 170.086 236.406 170.193C236.178 170.301 235.975 170.453 235.809 170.642C235.642 170.831 235.516 171.052 235.439 171.291C235.361 171.531 235.333 171.783 235.356 172.034C235.379 172.284 235.454 172.527 235.575 172.748L235.547 172.775ZM226.921 160.952C227.097 161.474 227.28 162.004 227.457 162.553C228.19 164.753 229.988 166.185 231.808 167.59C232.195 167.888 232.686 168.021 233.172 167.958C233.657 167.895 234.098 167.642 234.397 167.254C234.696 166.866 234.828 166.375 234.765 165.889C234.702 165.404 234.449 164.963 234.061 164.664C232.826 163.714 231.461 162.879 230.959 161.386C230.776 160.829 230.593 160.28 230.409 159.743C230.244 159.287 229.906 158.914 229.468 158.705C229.03 158.496 228.528 158.468 228.069 158.627C227.611 158.786 227.233 159.119 227.018 159.554C226.803 159.989 226.768 160.491 226.921 160.952ZM221.423 147.478C222.4 149.515 223.371 151.7 224.362 154.13C224.432 154.381 224.555 154.614 224.722 154.814C224.888 155.014 225.096 155.176 225.33 155.29C225.564 155.404 225.819 155.468 226.079 155.476C226.339 155.484 226.599 155.438 226.839 155.339C227.08 155.24 227.298 155.092 227.477 154.903C227.656 154.714 227.794 154.49 227.88 154.244C227.967 153.999 228 153.738 227.979 153.478C227.957 153.219 227.881 152.967 227.755 152.739C226.737 150.241 225.719 147.988 224.735 145.89C224.524 145.447 224.146 145.106 223.684 144.942C223.222 144.778 222.714 144.804 222.271 145.015C221.828 145.225 221.487 145.603 221.323 146.065C221.159 146.527 221.185 147.036 221.396 147.478H221.423ZM214.88 134.243C215.993 136.605 217.086 138.763 218.165 140.901C218.274 141.118 218.425 141.311 218.609 141.469C218.792 141.628 219.005 141.748 219.236 141.824C219.466 141.9 219.709 141.93 219.951 141.912C220.193 141.894 220.429 141.829 220.646 141.719C220.862 141.61 221.055 141.459 221.213 141.276C221.372 141.092 221.492 140.879 221.568 140.648C221.644 140.418 221.674 140.175 221.656 139.933C221.638 139.691 221.573 139.455 221.463 139.239C220.398 137.128 219.319 134.99 218.212 132.661C217.99 132.241 217.614 131.923 217.162 131.773C216.711 131.623 216.219 131.653 215.789 131.857C215.359 132.061 215.025 132.423 214.855 132.868C214.686 133.312 214.695 133.805 214.88 134.243ZM209.633 119.989C209.966 121.918 210.465 123.814 211.126 125.657C211.362 126.254 211.588 126.838 211.805 127.408C212.021 127.813 212.38 128.124 212.812 128.278C213.245 128.433 213.719 128.421 214.144 128.245C214.568 128.068 214.911 127.74 215.106 127.324C215.301 126.909 215.334 126.435 215.199 125.996C214.975 125.44 214.737 124.87 214.52 124.286C213.942 122.665 213.51 120.995 213.23 119.297C213.14 118.815 212.863 118.389 212.459 118.113C212.054 117.836 211.557 117.731 211.075 117.821C210.594 117.911 210.168 118.188 209.891 118.593C209.614 118.997 209.509 119.494 209.599 119.976L209.633 119.989ZM207.305 105.376C207.705 107.711 208.072 110.202 208.438 112.632C208.536 113.093 208.805 113.499 209.192 113.767C209.579 114.036 210.054 114.146 210.52 114.076C210.986 114.006 211.407 113.76 211.698 113.389C211.988 113.019 212.126 112.551 212.083 112.082C211.717 109.632 211.35 107.114 210.943 104.752C210.85 104.279 210.576 103.861 210.179 103.588C209.782 103.314 209.294 103.207 208.819 103.289C208.344 103.37 207.92 103.634 207.637 104.024C207.354 104.414 207.235 104.899 207.305 105.376ZM202.357 92.8599C203.181 93.7414 203.94 94.6804 204.631 95.67C205.135 96.5186 205.52 97.432 205.778 98.3849C205.932 98.8399 206.257 99.217 206.684 99.4362C207.111 99.6554 207.607 99.6994 208.066 99.559C208.526 99.4186 208.912 99.1047 209.144 98.684C209.375 98.2633 209.434 97.7689 209.307 97.3057C208.949 96.0058 208.41 94.7628 207.705 93.6134C206.914 92.48 206.048 91.4006 205.113 90.3825C204.951 90.2016 204.755 90.0543 204.536 89.949C204.318 89.8438 204.08 89.7826 203.838 89.7691C203.596 89.7555 203.353 89.7898 203.124 89.8701C202.895 89.9503 202.684 90.0748 202.503 90.2366C202.322 90.3984 202.175 90.5942 202.069 90.8129C201.964 91.0316 201.903 91.2689 201.889 91.5113C201.876 91.7536 201.91 91.9962 201.99 92.2253C202.07 92.4544 202.195 92.6654 202.357 92.8464V92.8599ZM192.067 82.4005C193.805 84.1449 195.61 85.9164 197.307 87.6133C197.657 87.9423 198.121 88.122 198.601 88.1144C199.081 88.1067 199.54 87.9122 199.879 87.5722C200.218 87.2321 200.411 86.7733 200.418 86.2931C200.424 85.8129 200.243 85.3491 199.913 85.0001C198.216 83.3032 196.425 81.5385 194.687 79.7941C194.516 79.6221 194.313 79.4855 194.089 79.392C193.865 79.2986 193.624 79.2502 193.382 79.2495C193.139 79.2489 192.899 79.2961 192.674 79.3884C192.45 79.4806 192.246 79.6162 192.074 79.7873C191.902 79.9585 191.765 80.1618 191.672 80.3858C191.578 80.6097 191.53 80.8499 191.529 81.0925C191.529 81.3352 191.576 81.5756 191.668 81.8C191.76 82.0244 191.896 82.2285 192.067 82.4005ZM182.239 70.5293C182.918 72.199 184.642 74.4728 186.902 76.9977C187.055 77.2071 187.25 77.382 187.475 77.511C187.7 77.64 187.949 77.7202 188.207 77.7464C188.465 77.7725 188.725 77.7441 188.972 77.6629C189.218 77.5817 189.444 77.4495 189.636 77.2751C189.828 77.1006 189.98 76.8877 190.084 76.6502C190.188 76.4128 190.241 76.1561 190.239 75.8968C190.238 75.6376 190.181 75.3816 190.074 75.1456C189.967 74.9096 189.811 74.6989 189.617 74.5271C187.716 72.4026 186.223 70.5293 185.619 69.0971C185.541 68.8532 185.414 68.6281 185.244 68.4361C185.075 68.2442 184.867 68.0895 184.635 67.9821C184.403 67.8746 184.15 67.8166 183.894 67.8119C183.638 67.8071 183.384 67.8556 183.148 67.9544C182.912 68.0531 182.699 68.1999 182.522 68.3854C182.346 68.5709 182.21 68.7911 182.123 69.032C182.036 69.2729 182.001 69.5292 182.018 69.7846C182.036 70.04 182.106 70.289 182.225 70.5157L182.239 70.5293ZM180.807 55.1557C180.807 57.7961 180.807 60.3346 180.97 62.6626C181 63.1514 181.224 63.6079 181.591 63.9319C181.958 64.2558 182.439 64.4206 182.928 64.39C183.416 64.3594 183.873 64.1359 184.197 63.7687C184.521 63.4015 184.686 62.9206 184.655 62.4319C184.513 60.1784 184.479 57.735 184.499 55.1829C184.499 54.6932 184.305 54.2237 183.958 53.8774C183.612 53.5312 183.143 53.3367 182.653 53.3367C182.163 53.3367 181.694 53.5312 181.347 53.8774C181.001 54.2237 180.807 54.6932 180.807 55.1829V55.1557ZM181.187 40.3659C181.126 42.7822 181.037 45.2664 180.963 47.7303C180.955 47.9727 180.995 48.2143 181.081 48.4412C181.167 48.6681 181.297 48.8758 181.463 49.0526C181.629 49.2294 181.828 49.3718 182.049 49.4715C182.27 49.5713 182.509 49.6266 182.751 49.6342C182.994 49.6417 183.235 49.6015 183.462 49.5157C183.689 49.4299 183.897 49.3003 184.074 49.1342C184.25 48.9681 184.393 48.7689 184.493 48.5478C184.592 48.3267 184.648 48.0881 184.655 47.8457C184.73 45.3682 184.818 42.8773 184.872 40.4541C184.892 40.2038 184.861 39.9521 184.78 39.7143C184.7 39.4765 184.571 39.2576 184.403 39.0711C184.235 38.8846 184.031 38.7344 183.803 38.6296C183.574 38.5247 183.327 38.4676 183.076 38.4616C182.825 38.4556 182.576 38.5008 182.343 38.5946C182.11 38.6884 181.898 38.8287 181.721 39.0069C181.545 39.1852 181.406 39.3976 181.314 39.6313C181.222 39.865 181.179 40.1149 181.187 40.3659ZM180.759 25.9222C181.06 28.2885 181.219 30.6706 181.234 33.0558C181.242 33.5455 181.445 34.0118 181.797 34.3523C182.149 34.6928 182.621 34.8796 183.111 34.8715C183.601 34.8634 184.067 34.6611 184.408 34.3091C184.748 33.9572 184.935 33.4844 184.927 32.9947C184.909 30.4572 184.737 27.923 184.411 25.4064C184.388 25.1573 184.315 24.9155 184.196 24.6956C184.077 24.4756 183.914 24.2822 183.718 24.1269C183.522 23.9717 183.297 23.8579 183.055 23.7925C182.814 23.7271 182.562 23.7114 182.314 23.7464C182.066 23.7813 181.828 23.8663 181.615 23.996C181.401 24.1257 181.216 24.2975 181.07 24.501C180.925 24.7045 180.822 24.9354 180.769 25.1797C180.715 25.424 180.712 25.6766 180.759 25.9222ZM178.764 20.0986C179.103 20.4442 179.565 20.6425 180.05 20.6506C180.534 20.6587 181.002 20.476 181.353 20.142C181.704 19.8079 181.91 19.3493 181.926 18.865C181.942 18.3807 181.766 17.9096 181.438 17.5533C181.272 17.3733 181.072 17.228 180.849 17.1261C180.626 17.0241 180.386 16.9675 180.141 16.9595C179.896 16.9515 179.652 16.9923 179.423 17.0795C179.194 17.1667 178.985 17.2985 178.808 17.4674C178.63 17.6362 178.488 17.8387 178.39 18.063C178.292 18.2873 178.239 18.5289 178.235 18.7738C178.231 19.0187 178.275 19.2619 178.366 19.4894C178.457 19.7168 178.592 19.9239 178.764 20.0986Z" fill="#005000"/><path fill-rule="evenodd" clip-rule="evenodd" d="M265.562 253.078C263.173 253.234 260.743 253.309 258.286 253.336C258.034 253.323 257.783 253.363 257.548 253.451C257.312 253.54 257.097 253.675 256.916 253.85C256.734 254.025 256.591 254.234 256.493 254.467C256.396 254.699 256.347 254.948 256.35 255.2C256.353 255.452 256.407 255.7 256.509 255.93C256.612 256.16 256.76 256.367 256.945 256.537C257.13 256.708 257.348 256.839 257.586 256.922C257.823 257.005 258.076 257.039 258.327 257.021C260.845 257.021 263.343 256.919 265.793 256.763C266.282 256.732 266.738 256.507 267.061 256.14C267.384 255.772 267.548 255.291 267.517 254.802C267.485 254.313 267.261 253.857 266.893 253.534C266.525 253.21 266.044 253.046 265.555 253.078H265.562ZM250.969 253.268C248.512 253.214 246.062 253.119 243.625 253.017C243.377 252.995 243.127 253.024 242.89 253.102C242.653 253.18 242.435 253.305 242.248 253.47C242.061 253.634 241.909 253.835 241.801 254.06C241.694 254.285 241.633 254.529 241.622 254.778C241.612 255.027 241.652 255.275 241.74 255.509C241.828 255.742 241.962 255.955 242.135 256.134C242.307 256.314 242.514 256.457 242.744 256.555C242.973 256.652 243.22 256.703 243.469 256.702C245.926 256.804 248.403 256.899 250.881 256.96C251.123 256.966 251.364 256.924 251.591 256.837C251.817 256.749 252.024 256.618 252.199 256.451C252.375 256.283 252.516 256.083 252.614 255.861C252.712 255.64 252.765 255.401 252.771 255.158C252.777 254.916 252.735 254.674 252.647 254.448C252.56 254.222 252.429 254.015 252.262 253.84C252.094 253.664 251.894 253.523 251.672 253.425C251.45 253.327 251.211 253.274 250.969 253.268ZM236.254 252.684C233.742 252.569 231.265 252.467 228.849 252.392C228.359 252.377 227.883 252.557 227.526 252.892C227.169 253.228 226.96 253.691 226.945 254.181C226.93 254.67 227.109 255.146 227.445 255.503C227.78 255.86 228.244 256.069 228.733 256.085C231.136 256.152 233.593 256.261 236.084 256.37C236.561 256.373 237.021 256.191 237.367 255.863C237.713 255.534 237.918 255.085 237.94 254.608C237.962 254.132 237.799 253.665 237.485 253.307C237.17 252.948 236.729 252.725 236.254 252.684ZM280.101 250.974C279.761 251.003 279.423 251.055 279.089 251.13C277.003 251.644 274.892 252.052 272.764 252.352C272.516 252.376 272.275 252.451 272.057 252.57C271.838 252.69 271.646 252.853 271.492 253.049C271.339 253.246 271.226 253.471 271.162 253.712C271.097 253.952 271.082 254.204 271.118 254.45C271.153 254.697 271.238 254.934 271.367 255.147C271.496 255.36 271.668 255.545 271.87 255.69C272.073 255.835 272.303 255.937 272.546 255.991C272.789 256.045 273.041 256.049 273.286 256.003C275.54 255.689 277.777 255.257 279.985 254.707C280.087 254.707 280.25 254.666 280.454 254.646C280.925 254.58 281.353 254.334 281.647 253.961C281.942 253.587 282.081 253.114 282.036 252.641C281.99 252.167 281.763 251.729 281.403 251.419C281.042 251.108 280.576 250.949 280.101 250.974ZM221.41 252.284H214.039C213.549 252.284 213.079 252.478 212.733 252.824C212.387 253.171 212.192 253.64 212.192 254.13C212.192 254.619 212.387 255.089 212.733 255.435C213.079 255.782 213.549 255.976 214.039 255.976H221.43C221.92 255.976 222.389 255.782 222.736 255.435C223.082 255.089 223.276 254.619 223.276 254.13C223.276 253.64 223.082 253.171 222.736 252.824C222.389 252.478 221.92 252.284 221.43 252.284H221.41ZM206.661 252.216L199.289 252.134C198.8 252.128 198.328 252.316 197.977 252.658C197.626 253 197.426 253.467 197.42 253.957C197.413 254.446 197.602 254.918 197.943 255.269C198.285 255.62 198.752 255.82 199.242 255.827L206.633 255.908C207.123 255.908 207.593 255.714 207.939 255.367C208.285 255.021 208.48 254.552 208.48 254.062C208.48 253.572 208.285 253.103 207.939 252.757C207.593 252.41 207.123 252.216 206.633 252.216H206.661ZM191.912 252.033L184.54 251.904C184.298 251.899 184.057 251.942 183.831 252.031C183.606 252.12 183.4 252.252 183.225 252.42C183.05 252.589 182.911 252.79 182.814 253.012C182.717 253.234 182.665 253.473 182.66 253.716C182.656 253.958 182.699 254.199 182.788 254.425C182.876 254.651 183.009 254.857 183.177 255.031C183.345 255.206 183.546 255.346 183.769 255.442C183.991 255.539 184.23 255.591 184.472 255.596L191.857 255.725C192.347 255.732 192.819 255.544 193.171 255.203C193.522 254.862 193.723 254.395 193.731 253.906C193.738 253.416 193.55 252.944 193.209 252.592C192.868 252.241 192.401 252.04 191.912 252.033ZM177.162 251.761L169.784 251.591C169.542 251.586 169.301 251.628 169.075 251.716C168.849 251.804 168.642 251.936 168.467 252.103C168.292 252.271 168.151 252.471 168.054 252.693C167.956 252.915 167.903 253.154 167.898 253.397C167.892 253.639 167.935 253.88 168.023 254.106C168.11 254.332 168.242 254.539 168.409 254.714C168.577 254.889 168.778 255.03 169 255.128C169.222 255.225 169.461 255.278 169.703 255.284C172.16 255.345 174.624 255.399 177.081 255.447C177.331 255.466 177.583 255.435 177.821 255.354C178.059 255.273 178.278 255.144 178.464 254.976C178.65 254.807 178.8 254.602 178.905 254.374C179.009 254.145 179.066 253.898 179.072 253.647C179.077 253.396 179.031 253.146 178.937 252.913C178.843 252.68 178.702 252.469 178.523 252.293C178.345 252.116 178.132 251.978 177.898 251.886C177.664 251.795 177.413 251.752 177.162 251.761ZM285.599 253.587C285.581 253.097 285.76 252.621 286.094 252.263C286.428 251.904 286.891 251.693 287.38 251.676C287.87 251.659 288.346 251.837 288.705 252.171C289.063 252.505 289.274 252.968 289.291 253.458C289.308 253.948 289.13 254.424 288.796 254.782C288.462 255.141 287.999 255.351 287.509 255.369C287.02 255.386 286.543 255.208 286.185 254.873C285.827 254.539 285.616 254.076 285.599 253.587ZM162.413 251.415L155.035 251.218C154.793 251.211 154.552 251.252 154.325 251.339C154.098 251.426 153.891 251.556 153.715 251.723C153.539 251.889 153.397 252.089 153.298 252.311C153.199 252.532 153.145 252.771 153.138 253.013C153.132 253.256 153.173 253.497 153.259 253.724C153.346 253.95 153.476 254.158 153.643 254.334C153.81 254.51 154.009 254.651 154.231 254.75C154.452 254.849 154.691 254.904 154.934 254.91L162.311 255.1C162.784 255.088 163.233 254.895 163.567 254.561C163.902 254.227 164.095 253.778 164.108 253.306C164.121 252.834 163.953 252.374 163.638 252.023C163.322 251.671 162.884 251.453 162.413 251.415ZM147.657 251.014L140.279 250.831C139.79 250.816 139.314 250.996 138.957 251.331C138.6 251.666 138.391 252.13 138.376 252.62C138.36 253.109 138.54 253.585 138.876 253.942C139.211 254.299 139.674 254.508 140.164 254.524L147.549 254.741C148.038 254.755 148.514 254.574 148.87 254.238C149.227 253.902 149.435 253.438 149.449 252.949C149.464 252.459 149.283 251.984 148.947 251.627C148.611 251.271 148.147 251.063 147.657 251.048V251.014ZM132.902 250.58L125.544 250.356C125.071 250.366 124.62 250.557 124.284 250.889C123.947 251.222 123.752 251.671 123.737 252.144C123.722 252.617 123.889 253.077 124.204 253.43C124.519 253.783 124.957 254.002 125.429 254.042L132.806 254.272C133.296 254.288 133.772 254.108 134.129 253.772C134.486 253.437 134.695 252.974 134.71 252.484C134.726 251.994 134.546 251.519 134.21 251.162C133.875 250.804 133.412 250.595 132.922 250.58H132.902ZM118.146 250.152L110.768 249.928C110.525 249.921 110.284 249.961 110.057 250.047C109.83 250.133 109.622 250.262 109.445 250.428C109.269 250.594 109.126 250.794 109.026 251.015C108.927 251.236 108.871 251.474 108.864 251.717C108.856 251.959 108.896 252.201 108.982 252.428C109.068 252.655 109.198 252.862 109.364 253.039C109.53 253.216 109.729 253.358 109.95 253.458C110.171 253.558 110.41 253.613 110.652 253.621L118.03 253.845C118.52 253.86 118.996 253.68 119.353 253.345C119.71 253.009 119.919 252.546 119.934 252.056C119.949 251.567 119.77 251.091 119.434 250.734C119.099 250.377 118.635 250.168 118.146 250.152ZM103.383 249.677L96.005 249.474C95.7551 249.453 95.5037 249.483 95.266 249.563C95.0284 249.643 94.8094 249.77 94.6225 249.937C94.4356 250.104 94.2847 250.308 94.179 250.535C94.0733 250.762 94.0149 251.009 94.0075 251.259C94.0001 251.51 94.0439 251.759 94.136 251.992C94.2282 252.225 94.3669 252.437 94.5436 252.615C94.7203 252.793 94.9314 252.933 95.164 253.026C95.3966 253.12 95.6458 253.165 95.8964 253.159L103.274 253.383C103.517 253.39 103.758 253.35 103.985 253.263C104.212 253.177 104.419 253.047 104.596 252.881C104.772 252.714 104.914 252.515 105.013 252.294C105.113 252.072 105.168 251.834 105.175 251.591C105.182 251.349 105.141 251.107 105.055 250.881C104.969 250.654 104.839 250.446 104.672 250.27C104.506 250.094 104.307 249.952 104.085 249.852C103.864 249.753 103.625 249.698 103.383 249.691V249.677ZM88.6202 249.25C86.1632 249.175 83.6994 249.107 81.2423 249.046C80.9923 249.026 80.7408 249.056 80.503 249.136C80.2653 249.216 80.0464 249.344 79.8596 249.511C79.6728 249.679 79.5221 249.882 79.4166 250.11C79.3112 250.338 79.2533 250.584 79.2463 250.835C79.2394 251.086 79.2836 251.335 79.3763 251.568C79.469 251.802 79.6083 252.013 79.7855 252.191C79.9628 252.368 80.1744 252.508 80.4073 252.601C80.6403 252.694 80.8898 252.738 81.1405 252.732L88.5185 252.935C88.7685 252.956 89.02 252.925 89.2577 252.845C89.4955 252.765 89.7144 252.637 89.9012 252.47C90.088 252.303 90.2387 252.099 90.3441 251.871C90.4495 251.644 90.5075 251.397 90.5144 251.146C90.5213 250.895 90.4771 250.646 90.3844 250.413C90.2917 250.18 90.1525 249.968 89.9752 249.791C89.7979 249.613 89.5864 249.474 89.3534 249.381C89.1205 249.288 88.871 249.243 88.6202 249.25ZM73.8576 248.856L66.4932 248.68C66.2428 248.66 65.9909 248.691 65.7531 248.772C65.5153 248.853 65.2966 248.982 65.1102 249.151C64.9238 249.319 64.7738 249.524 64.6693 249.752C64.5648 249.981 64.5081 250.228 64.5025 250.479C64.497 250.73 64.5428 250.98 64.6371 251.213C64.7313 251.446 64.8721 251.657 65.0509 251.833C65.2296 252.01 65.4425 252.148 65.6765 252.24C65.9105 252.331 66.1607 252.374 66.4118 252.365L73.7829 252.542C74.0331 252.562 74.2847 252.531 74.5225 252.45C74.7603 252.37 74.9792 252.242 75.1658 252.074C75.3525 251.907 75.503 251.703 75.6081 251.475C75.7132 251.247 75.7708 251 75.7773 250.749C75.7837 250.498 75.739 250.249 75.6457 250.015C75.5525 249.782 75.4127 249.571 75.235 249.394C75.0572 249.217 74.8452 249.078 74.6119 248.985C74.3785 248.893 74.1288 248.849 73.8779 248.856H73.8576ZM59.0881 248.517L51.7034 248.374C51.2138 248.365 50.7406 248.551 50.388 248.891C50.0354 249.231 49.8323 249.697 49.8233 250.186C49.8143 250.676 50.0001 251.149 50.34 251.502C50.6798 251.854 51.1459 252.057 51.6355 252.066C54.0925 252.107 56.5564 252.155 59.0134 252.209C59.5031 252.219 59.9766 252.034 60.3298 251.695C60.6831 251.355 60.8871 250.89 60.897 250.4C60.9069 249.91 60.7218 249.437 60.3826 249.084C60.0434 248.731 59.5778 248.527 59.0881 248.517ZM44.3187 248.259C41.8548 248.218 39.391 248.191 36.9271 248.164C36.676 248.146 36.424 248.18 36.1864 248.263C35.9488 248.346 35.7308 248.477 35.5457 248.648C35.3606 248.818 35.2123 249.025 35.11 249.255C35.0077 249.485 34.9534 249.733 34.9507 249.985C34.9479 250.237 34.9966 250.486 35.0938 250.718C35.1911 250.951 35.3347 251.16 35.516 251.335C35.6973 251.51 35.9124 251.645 36.1481 251.734C36.3837 251.822 36.635 251.861 36.8864 251.849L44.2643 251.944C44.5152 251.963 44.7673 251.93 45.005 251.847C45.2427 251.765 45.461 251.635 45.6466 251.465C45.8322 251.295 45.9811 251.089 46.0842 250.859C46.1872 250.63 46.2423 250.382 46.246 250.13C46.2497 249.879 46.202 249.629 46.1057 249.397C46.0094 249.164 45.8667 248.954 45.6862 248.779C45.5057 248.603 45.2913 248.467 45.0561 248.377C44.8209 248.288 44.57 248.248 44.3187 248.259ZM29.5424 248.116L22.1509 248.075C21.6612 248.075 21.1916 248.27 20.8454 248.616C20.4992 248.962 20.3047 249.432 20.3047 249.922C20.3047 250.411 20.4992 250.881 20.8454 251.227C21.1916 251.573 21.6612 251.768 22.1509 251.768L29.522 251.809C30.0117 251.809 30.4812 251.614 30.8275 251.268C31.1737 250.922 31.3682 250.452 31.3682 249.962C31.3682 249.473 31.1737 249.003 30.8275 248.657C30.4812 248.311 30.0117 248.116 29.522 248.116H29.5424Z" fill="#005000"/><path fill-rule="evenodd" clip-rule="evenodd" d="M183.437 24.6531C183.275 25.0845 182.983 25.4548 182.601 25.7127C182.22 25.9705 181.767 26.1031 181.306 26.092C180.817 26.092 180.347 26.2865 180.001 26.6328C179.655 26.979 179.46 27.4486 179.46 27.9382C179.46 28.4279 179.655 28.8974 180.001 29.2437C180.347 29.5899 180.817 29.7844 181.306 29.7844C182.492 29.8218 183.66 29.4898 184.648 28.8344C185.637 28.179 186.397 27.2325 186.824 26.126C187.016 25.6756 187.022 25.168 186.841 24.7131C186.661 24.2583 186.309 23.8928 185.861 23.6961C185.639 23.5994 185.4 23.5475 185.158 23.5433C184.916 23.5391 184.675 23.5828 184.45 23.6717C184.225 23.7606 184.02 23.893 183.846 24.0614C183.672 24.2298 183.533 24.4309 183.437 24.6531ZM102.097 25.7187C104.628 25.5469 107.146 25.2228 109.638 24.7481C109.876 24.7036 110.103 24.6125 110.307 24.48C110.51 24.3476 110.685 24.1765 110.822 23.9764C110.959 23.7762 111.055 23.5511 111.106 23.3138C111.156 23.0764 111.158 22.8315 111.114 22.5931C111.069 22.3547 110.978 22.1274 110.846 21.9241C110.713 21.7209 110.542 21.5457 110.342 21.4087C110.142 21.2716 109.917 21.1752 109.68 21.1252C109.442 21.0751 109.197 21.0723 108.959 21.1168C106.615 21.5669 104.247 21.8751 101.866 22.0399C101.397 22.0968 100.968 22.3312 100.667 22.6949C100.365 23.0585 100.215 23.5238 100.246 23.995C100.278 24.4662 100.488 24.9075 100.835 25.2282C101.182 25.5488 101.638 25.7243 102.11 25.7187H102.097ZM86.859 22.773C88.3829 23.5836 89.9722 24.2647 91.6102 24.8092C92.4955 25.108 93.4034 25.335 94.3252 25.488C94.5693 25.5366 94.8207 25.5354 95.0643 25.4844C95.3079 25.4334 95.5387 25.3337 95.7428 25.1912C95.9469 25.0487 96.1201 24.8664 96.2519 24.6553C96.3838 24.4442 96.4716 24.2086 96.51 23.9627C96.5485 23.7168 96.5368 23.4656 96.4758 23.2243C96.4147 22.983 96.3055 22.7566 96.1546 22.5586C96.0038 22.3606 95.8145 22.1952 95.5981 22.0722C95.3816 21.9492 95.1426 21.8713 94.8953 21.8431C94.1657 21.7308 93.4462 21.5605 92.7437 21.334C91.3046 20.849 89.9084 20.2451 88.5694 19.5286C88.3546 19.3813 88.1111 19.2812 87.8548 19.2347C87.5985 19.1883 87.3354 19.1966 87.0825 19.2591C86.8297 19.3216 86.5929 19.4369 86.3878 19.5974C86.1827 19.7579 86.0139 19.96 85.8924 20.1904C85.771 20.4207 85.6996 20.6742 85.6831 20.9341C85.6666 21.194 85.7052 21.4545 85.7965 21.6984C85.8878 21.9423 86.0296 22.1642 86.2128 22.3494C86.3959 22.5346 86.6161 22.6789 86.859 22.773ZM117.036 22.868C118.557 22.3861 120.04 21.7941 121.475 21.0965C122.517 20.5559 123.451 19.829 124.231 18.9517C124.563 18.5916 124.738 18.1144 124.718 17.625C124.699 17.1355 124.485 16.674 124.125 16.3419C123.765 16.0098 123.288 15.8343 122.799 15.854C122.309 15.8737 121.848 16.0871 121.516 16.4471C121.04 16.9991 120.467 17.4592 119.826 17.8046C118.545 18.4222 117.223 18.9484 115.868 19.3793C115.411 19.5375 115.034 19.8692 114.818 20.3029C114.603 20.7365 114.567 21.2374 114.717 21.6977C114.868 22.1579 115.193 22.5406 115.623 22.7633C116.053 22.986 116.553 23.0309 117.016 22.8884L117.036 22.868ZM178.435 18.7005C179.43 18.4726 180.439 18.3117 181.456 18.2186C181.695 18.1908 181.936 18.1908 182.175 18.2186C182.27 18.2186 182.365 18.2186 182.426 18.2865C182.659 18.5337 182.86 18.8097 183.023 19.1078C183.281 19.4875 183.671 19.7575 184.118 19.8651C184.564 19.9727 185.034 19.9103 185.437 19.6898C185.84 19.4694 186.146 19.1069 186.296 18.673C186.445 18.2391 186.428 17.7649 186.247 17.343C185.921 16.7418 185.512 16.1889 185.032 15.7005C184.214 14.9353 183.132 14.5148 182.012 14.5262C180.564 14.5574 179.124 14.744 177.716 15.0828C177.469 15.1203 177.232 15.2074 177.02 15.3389C176.808 15.4703 176.625 15.6434 176.482 15.8477C176.338 16.0519 176.238 16.2831 176.187 16.5272C176.135 16.7714 176.134 17.0234 176.182 17.2681C176.231 17.5128 176.329 17.7452 176.47 17.951C176.611 18.1569 176.792 18.3321 177.002 18.4659C177.213 18.5998 177.449 18.6896 177.695 18.7299C177.941 18.7703 178.193 18.7603 178.435 18.7005ZM76.3452 15.171C76.4366 15.1234 76.5414 15.1082 76.6425 15.128C76.7436 15.1477 76.8351 15.2012 76.9018 15.2796C78.0196 16.3991 79.1931 17.4615 80.4177 18.463C80.6044 18.6185 80.82 18.7357 81.052 18.808C81.2841 18.8802 81.5281 18.906 81.7701 18.884C82.0121 18.8619 82.2474 18.7924 82.4626 18.6794C82.6778 18.5664 82.8685 18.4121 83.0241 18.2254C83.1796 18.0387 83.2969 17.8231 83.3691 17.5911C83.4413 17.359 83.4671 17.115 83.4451 16.873C83.423 16.631 83.3535 16.3957 83.2405 16.1805C83.1275 15.9654 82.9733 15.7746 82.7865 15.619C81.6327 14.6688 80.5466 13.6778 79.5489 12.6868C78.9961 12.0393 78.2406 11.5978 77.4052 11.4339C76.5698 11.27 75.7035 11.3934 74.947 11.7841C74.5299 11.9952 74.2084 12.3568 74.0474 12.7957C73.8864 13.2347 73.898 13.7184 74.0798 14.1491C74.2616 14.5799 74.6 14.9256 75.0268 15.1166C75.4536 15.3075 75.9369 15.3294 76.3792 15.1778L76.3452 15.171ZM173.406 15.8973C173.295 16.3574 173.011 16.7573 172.614 17.0145C172.217 17.2717 171.736 17.3665 171.271 17.2794C170.806 17.1923 170.392 16.9299 170.115 16.5464C169.837 16.1629 169.718 15.6876 169.781 15.2186C169.978 14.4096 170.351 13.6541 170.874 13.0059C171.79 11.723 173.358 10.0058 174.037 8.59402C174.139 8.37027 174.284 8.16912 174.465 8.00236C174.645 7.83559 174.857 7.70658 175.089 7.62288C175.32 7.53918 175.565 7.50249 175.811 7.51495C176.056 7.52741 176.297 7.58877 176.518 7.69544C176.74 7.80211 176.938 7.95193 177.101 8.13613C177.263 8.32032 177.388 8.53517 177.466 8.76807C177.545 9.00097 177.576 9.24724 177.559 9.49242C177.541 9.7376 177.474 9.97675 177.363 10.1959C176.465 11.7657 175.424 13.2494 174.254 14.628C173.881 15.0964 173.433 15.8159 173.372 15.9109L173.406 15.8973ZM61.5554 13.1552C63.8384 13.4056 66.0751 13.9744 68.2003 14.8452C68.4258 14.9344 68.6667 14.9782 68.9091 14.9743C69.1516 14.9703 69.3909 14.9187 69.6134 14.8222C69.8358 14.7258 70.0372 14.5865 70.2058 14.4123C70.3745 14.238 70.5071 14.0323 70.5963 13.8068C70.6854 13.5813 70.7293 13.3404 70.7253 13.0979C70.7214 12.8555 70.6697 12.6162 70.5733 12.3937C70.4768 12.1712 70.3375 11.9699 70.1633 11.8013C69.989 11.6326 69.7833 11.4999 69.5578 11.4108C67.12 10.4141 64.5541 9.76525 61.9355 9.48317C61.454 9.44306 60.9759 9.59337 60.6039 9.90181C60.2319 10.2102 59.9957 10.6522 59.9459 11.1329C59.8961 11.6136 60.0368 12.0946 60.3378 12.4727C60.6387 12.8508 61.0758 13.0958 61.5554 13.1552ZM128.663 13.0534C129.032 12.6263 129.476 12.2698 129.973 12.0013C131.234 11.4799 132.607 11.2861 133.964 11.438C134.21 11.4582 134.458 11.4289 134.692 11.3518C134.927 11.2746 135.143 11.1512 135.329 10.9889C135.515 10.8265 135.667 10.6284 135.775 10.4064C135.883 10.1845 135.946 9.94304 135.959 9.69646C135.972 9.44989 135.936 9.20318 135.852 8.97093C135.768 8.73869 135.638 8.52563 135.471 8.34436C135.303 8.16309 135.101 8.01731 134.876 7.91562C134.651 7.81394 134.407 7.75843 134.161 7.75238C132.166 7.56831 130.158 7.8929 128.323 8.69583C127.429 9.16903 126.627 9.79893 125.955 10.5556C125.79 10.7339 125.662 10.9428 125.579 11.1704C125.495 11.398 125.457 11.6399 125.467 11.8823C125.476 12.1246 125.534 12.3626 125.636 12.5828C125.737 12.803 125.882 13.0009 126.06 13.1654C126.238 13.3298 126.447 13.4575 126.675 13.5413C126.902 13.625 127.144 13.663 127.386 13.6533C127.629 13.6435 127.867 13.5861 128.087 13.4843C128.307 13.3826 128.505 13.2384 128.67 13.0602L128.663 13.0534ZM46.6909 12.6325C49.242 13.0806 51.8343 13.249 54.4218 13.1348C54.8926 13.0963 55.3308 12.8788 55.6461 12.527C55.9614 12.1752 56.1298 11.716 56.1168 11.2438C56.1037 10.7716 55.9102 10.3223 55.5759 9.98852C55.2417 9.6547 54.7922 9.46169 54.32 9.44923C51.9848 9.54959 49.6457 9.39941 47.3425 9.00126C46.861 8.91125 46.3634 9.01623 45.9593 9.29308C45.5551 9.56993 45.2775 9.99599 45.1875 10.4775C45.0975 10.9591 45.2024 11.4566 45.4793 11.8608C45.7562 12.2649 46.1822 12.5425 46.6638 12.6325H46.6909ZM141.267 12.395C142.171 12.4896 143.084 12.3542 143.921 12.0013C145.448 11.2343 147.043 9.65964 148.672 8.0103C149 7.65962 149.179 7.19483 149.17 6.71458C149.161 6.23434 148.966 5.77645 148.625 5.43814C148.284 5.09982 147.824 4.90771 147.344 4.90259C146.864 4.89747 146.4 5.07974 146.052 5.41071C144.695 6.76819 143.5 8.08496 142.265 8.69583C142.008 8.75575 141.741 8.75575 141.484 8.69583C140.996 8.66613 140.515 8.83179 140.148 9.15638C139.782 9.48096 139.559 9.93789 139.529 10.4266C139.5 10.9154 139.665 11.3959 139.99 11.7625C140.315 12.1291 140.772 12.3517 141.26 12.3814L141.267 12.395ZM164.073 11.3972C166.58 10.8597 169.04 10.1244 171.43 9.1981C171.876 9.02391 172.237 8.68359 172.436 8.24882C172.636 7.81405 172.659 7.3188 172.5 6.8674C172.342 6.416 172.014 6.0437 171.587 5.82895C171.16 5.61419 170.665 5.57375 170.209 5.71614C168.018 6.58366 165.762 7.27811 163.462 7.7931C163.215 7.82381 162.976 7.90423 162.761 8.02951C162.546 8.15479 162.358 8.32233 162.209 8.52206C162.06 8.72179 161.954 8.94957 161.895 9.19169C161.837 9.43381 161.828 9.68526 161.869 9.9309C161.91 10.1765 162.001 10.4113 162.135 10.621C162.269 10.8308 162.445 11.0112 162.651 11.1513C162.857 11.2915 163.089 11.3885 163.333 11.4366C163.578 11.4847 163.829 11.4829 164.073 11.4312V11.3972ZM16.3918 8.51935C16.3846 8.02972 16.1832 7.56299 15.8319 7.22186C15.4805 6.88072 15.0081 6.69312 14.5184 6.70032C14.0288 6.70752 13.5621 6.90893 13.2209 7.26025C12.8798 7.61157 12.6922 8.08402 12.6994 8.57366C12.703 8.8161 12.7543 9.05546 12.8503 9.27809C12.9464 9.50071 13.0854 9.70224 13.2593 9.87115C13.4333 10.0401 13.6388 10.1731 13.8642 10.2625C14.0895 10.352 14.3303 10.3963 14.5728 10.3927C14.8152 10.3891 15.0546 10.3378 15.2772 10.2418C15.4998 10.1457 15.7013 10.0067 15.8703 9.83275C16.0392 9.6588 16.1722 9.45328 16.2617 9.22793C16.3511 9.00257 16.3954 8.7618 16.3918 8.51935ZM32.512 7.65735C34.9962 8.52614 37.3582 9.46281 39.3333 10.2502C39.5625 10.3822 39.8175 10.4634 40.0808 10.4884C40.3442 10.5133 40.6099 10.4813 40.8598 10.3947C41.1097 10.308 41.3381 10.1686 41.5295 9.98595C41.7209 9.80331 41.8708 9.58167 41.969 9.33606C42.0673 9.09044 42.1115 8.82657 42.0989 8.56234C42.0863 8.2981 42.017 8.03966 41.8958 7.80452C41.7746 7.56938 41.6043 7.36304 41.3964 7.19946C41.1885 7.03589 40.9479 6.9189 40.6908 6.85643C38.6546 6.04873 36.2451 5.0917 33.7065 4.20933C33.252 4.07559 32.7634 4.12172 32.342 4.33818C31.9205 4.55464 31.5984 4.92485 31.4423 5.37221C31.2862 5.81957 31.3081 6.30982 31.5034 6.74149C31.6987 7.17317 32.0525 7.51322 32.4916 7.69129L32.512 7.65735ZM153.722 4.19575C154.22 4.04327 154.752 4.04327 155.249 4.19575C155.74 4.40136 156.185 4.703 156.558 5.08297C156.931 5.46294 157.225 5.91359 157.421 6.40846C157.637 6.81382 157.996 7.12416 158.429 7.27887C158.861 7.43359 159.336 7.42157 159.76 7.24517C160.184 7.06877 160.527 6.74065 160.722 6.32488C160.917 5.90911 160.95 5.43555 160.815 4.99667C160.404 4.01994 159.802 3.13571 159.042 2.39648C158.283 1.65724 157.384 1.0781 156.396 0.693438C155.223 0.29834 153.959 0.262885 152.765 0.591625C152.303 0.726214 151.912 1.03571 151.675 1.45425C151.438 1.87279 151.374 2.36731 151.496 2.83257C151.618 3.29783 151.917 3.69707 152.329 3.94533C152.741 4.19359 153.233 4.27127 153.702 4.16182L153.722 4.19575ZM19.0592 5.12563C20.8647 4.78626 23.1724 5.06455 25.6431 5.60754C25.8889 5.69429 26.1503 5.72801 26.4101 5.70647C26.6698 5.68493 26.9221 5.60863 27.1502 5.48258C27.3784 5.35654 27.5773 5.18361 27.7338 4.97517C27.8903 4.76673 28.0009 4.5275 28.0583 4.27324C28.1157 4.01898 28.1187 3.75544 28.0669 3.49997C28.0151 3.2445 27.9099 3.00289 27.758 2.79103C27.6062 2.57917 27.4111 2.40187 27.1858 2.2708C26.9605 2.13973 26.71 2.05785 26.4508 2.03056C23.4304 1.35182 20.6068 1.11426 18.3941 1.52151C17.9126 1.61151 17.4865 1.88912 17.2096 2.29326C16.9328 2.69741 16.8278 3.19498 16.9178 3.67652C17.0078 4.15805 17.2854 4.58411 17.6896 4.86097C18.0937 5.13782 18.5913 5.24279 19.0728 5.15279L19.0592 5.12563Z" fill="#005000"/></svg>