<svg width="333" height="164" viewBox="0 0 333 164" fill="none" xmlns="http://www.w3.org/2000/svg"><path fill-rule="evenodd" clip-rule="evenodd" d="M32.9384 77.1656C36.4815 69.7469 44.0359 50.7353 49.907 33.5088C54.3596 20.4633 57.8958 8.49027 57.8347 3.64404C57.8347 2.90959 58.1265 2.2052 58.6458 1.68586C59.1652 1.16652 59.8696 0.874756 60.604 0.874756C61.3385 0.874756 62.0429 1.16652 62.5622 1.68586C63.0816 2.2052 63.3733 2.90959 63.3733 3.64404C63.3122 8.76856 59.4094 21.3864 54.3732 35.0835C47.8369 52.8733 39.5154 72.5501 35.9317 79.4597C35.9317 79.5073 34.1669 83.5797 33.0674 84.8897C32.8448 85.1843 32.5607 85.4268 32.2348 85.6003C31.9089 85.7738 31.5491 85.8741 31.1805 85.8942C30.9437 85.8942 30.7093 85.8475 30.4906 85.7566C30.2719 85.6658 30.0733 85.5327 29.9062 85.365C29.7391 85.1973 29.6067 84.9982 29.5168 84.7792C29.4268 84.5602 29.3809 84.3256 29.3818 84.0888L29.4293 77.9801C29.4293 73.2289 29.3071 67.9482 29.4293 62.7762C29.4705 59.3259 29.7357 55.882 30.2234 52.4661C30.2658 52.2117 30.3317 51.9617 30.4203 51.7195C30.6451 51.3053 30.8314 50.8713 30.9768 50.4231C31.4248 47.328 31.2891 37.1536 30.9361 27.6851C30.7121 21.6172 30.366 15.8411 30.1624 12.3523L30.0538 10.5401C29.9907 10.3191 29.9565 10.091 29.9519 9.86132C29.9519 9.59661 29.9519 9.33872 29.9519 9.08758C29.8787 7.74071 30.0348 6.39118 30.4135 5.09656C30.8682 3.27074 31.5945 2.4834 32.3479 2.46303C33.1692 2.24584 34.038 2.92457 34.6692 4.87257C35.1514 6.14569 35.3997 7.49542 35.4023 8.85679C35.4023 9.1215 35.4498 9.39977 35.4701 9.68484C35.4777 9.94076 35.4503 10.1966 35.3887 10.4451V12.2098C35.3547 16.4519 35.2733 24.0539 35.1783 31.4657C35.0629 39.9704 34.9136 48.2171 34.4249 50.966C34.3778 51.2208 34.3074 51.4708 34.2145 51.7127C33.9798 52.1256 33.7844 52.5597 33.6307 53.0091C33.1179 56.2612 32.8344 59.5454 32.7823 62.8373C32.6873 67.6903 32.8841 72.6316 32.9384 77.1656Z" fill="#005000"/><path fill-rule="evenodd" clip-rule="evenodd" d="M59.2879 77.206C61.1205 78.387 62.8445 77.8847 64.4395 76.5272C66.2 74.8004 67.6449 72.779 68.7089 70.5543C74.7701 59.0157 78.6592 39.0402 79.6298 35.3886C80.4375 32.3274 81.7 29.5785 82.5417 26.626C82.8685 25.4757 83.0956 24.2994 83.2204 23.1101C83.4037 21.3114 84.0009 16.886 84.2996 15.705C84.924 13.2276 87.4354 14.0353 87.8087 14.3475C88.0941 14.6129 88.3156 14.9394 88.4567 15.3027C88.5978 15.6659 88.6547 16.0564 88.6232 16.4448C88.6232 18.5693 88.6232 20.5987 88.535 22.6417C88.4576 24.0692 88.2922 25.4905 88.0395 26.8975L85.0394 41.3547C84.639 43.676 84.3132 46.0516 84.0349 48.434C83.7566 50.8164 83.5259 53.2463 83.3562 55.6083C82.8607 61.4388 82.1208 67.371 81.6389 73.2964C81.3199 77.1788 81.1095 81.0545 81.1503 84.8826C81.1503 85.617 80.8585 86.3214 80.3392 86.8408C79.8198 87.3601 79.1154 87.6519 78.381 87.6519C77.6465 87.6519 76.9421 87.3601 76.4228 86.8408C75.9035 86.3214 75.6117 85.617 75.6117 84.8826C75.6524 80.8916 75.951 76.853 76.3651 72.8077C76.9692 66.889 77.8176 60.9636 78.4013 55.1604V55.0382C76.5687 61.0383 74.3289 67.3506 71.7089 72.1968C67.684 79.7173 62.5866 83.5726 57.306 80.0431C56.315 79.3644 55.5548 77.7015 55.5141 75.0544C55.4055 68.2669 59.0436 53.6468 62.5119 40.676C64.9554 31.5604 67.2631 23.273 68.2337 19.3159C68.0992 18.9654 68.0387 18.5908 68.0562 18.2158C68.0738 17.8408 68.1689 17.4735 68.3356 17.1371C68.5956 16.5758 68.9413 16.0583 69.3604 15.6032C69.6219 15.3434 69.9326 15.1384 70.2743 15.0002C70.616 14.862 70.9818 14.7935 71.3504 14.7985C71.7189 14.8036 72.0828 14.8822 72.4206 15.0297C72.7584 15.1772 73.0633 15.3906 73.3175 15.6575C73.6416 15.997 73.8769 16.4113 74.0024 16.8636C74.128 17.316 74.1398 17.7923 74.037 18.2503C73.908 18.9765 73.3583 20.8566 72.4895 23.5309C70.6772 29.1916 67.4803 38.6873 64.6771 48.2779C61.8739 57.8686 59.4779 67.3981 59.0096 73.2421C58.9063 74.2735 58.9063 75.3126 59.0096 76.344C59.0811 76.6377 59.1741 76.9259 59.2879 77.206Z" fill="#005000"/><path fill-rule="evenodd" clip-rule="evenodd" d="M107.405 17.3004C107.321 17.2382 107.242 17.1702 107.168 17.0968C106.652 16.5757 106.362 15.872 106.362 15.1386C106.362 14.4052 106.652 13.7015 107.168 13.1804C108.783 11.8229 110.093 11.8976 110.847 12.2709C111.462 12.5153 111.974 12.9633 112.299 13.5402C112.546 13.9717 112.699 14.4505 112.747 14.9452C112.73 16.5094 112.502 18.0643 112.068 19.5674C111.457 21.9906 110.46 25.2349 109.353 28.9409C108.485 31.8052 107.534 34.9477 106.638 38.165C103.306 49.8326 99.9323 62.4029 99.4029 65.7763C99.016 68.3691 99.4911 70.351 100.428 71.7899C101.683 73.7312 104.602 73.1882 105.484 74.0502C105.787 73.522 106.255 73.1082 106.817 72.8729C107.378 72.6376 108.001 72.5938 108.59 72.7484C109.179 72.9029 109.701 73.2471 110.074 73.7278C110.448 74.2085 110.652 74.7989 110.656 75.4077C110.665 76.1478 110.472 76.8764 110.098 77.515C109.723 78.1536 109.182 78.6781 108.532 79.0322C106.686 80.0842 102.926 80.125 99.7083 77.9733C96.4911 75.8217 93.5996 71.6542 94.9911 64.9754C95.6698 61.5817 99.9866 49.0656 103.367 37.2148C104.276 34.0179 105.084 30.8617 105.742 27.9567C106.564 24.3051 107.1 21.0742 107.426 18.6715C107.471 18.2152 107.465 17.7551 107.405 17.3004ZM110.989 17.1715C111.024 17.1457 111.056 17.1161 111.084 17.0832L110.989 17.1715Z" fill="#005000"/><path fill-rule="evenodd" clip-rule="evenodd" d="M127.086 18.7801C126.69 18.2979 126.472 17.6938 126.469 17.0696C126.482 16.6119 126.544 16.157 126.652 15.7121C126.764 15.3199 126.961 14.9569 127.229 14.6486C127.496 14.3403 127.827 14.094 128.199 13.927C129.095 13.6284 130.1 13.418 131.003 14.2936C131.496 14.672 131.84 15.213 131.973 15.8207C132.251 17.2921 132.334 18.7939 132.218 20.2869C131.98 22.3231 131.668 24.3593 131.383 26.5517C131.098 28.744 130.833 30.7056 130.589 32.7825C130.256 35.6604 129.998 38.4908 129.686 41.0904L125.688 77.0638C125.636 77.4239 125.514 77.7703 125.329 78.0832C125.143 78.3961 124.898 78.6694 124.607 78.8874C124.315 79.1055 123.984 79.2641 123.632 79.3542C123.279 79.4442 122.912 79.4639 122.552 79.4122C122.192 79.3605 121.846 79.2384 121.533 79.0529C121.22 78.8673 120.947 78.6219 120.729 78.3307C120.511 78.0395 120.352 77.7082 120.262 77.3558C120.172 77.0033 120.152 76.6366 120.204 76.2765C121.453 69.1564 122.797 62.0228 124.018 54.9164C124.826 50.1652 125.559 45.414 126.251 40.6627C126.618 37.4591 127.059 33.9228 127.304 30.3526C127.426 28.6218 127.487 26.891 127.521 25.1874C127.555 23.4837 127.521 21.6851 127.487 20.029C127.414 19.5955 127.28 19.1748 127.086 18.7801Z" fill="#005000"/><path fill-rule="evenodd" clip-rule="evenodd" d="M139.562 81.3536C140.044 79.8536 140.567 77.763 141.144 75.0141C141.932 71.3897 142.937 67.8155 144.15 64.3104C145.888 59.118 147.917 53.9867 149.689 48.9165C151.23 44.4978 152.696 40.0928 154.128 35.6266C156.286 28.941 158.37 22.235 160.495 15.5358C160.736 14.8515 161.237 14.2895 161.889 13.9708C162.541 13.652 163.293 13.602 163.981 13.8316C164.67 14.0611 165.241 14.5518 165.571 15.198C165.902 15.8442 165.965 16.5944 165.748 17.287C163.433 23.9319 161.153 30.5768 158.798 37.2081C157.223 41.6403 155.621 46.0657 153.951 50.464C152.065 55.4799 149.879 60.5365 148.04 65.6679C146.8 68.9975 145.758 72.3971 144.917 75.849C143.458 82.1206 142.121 85.2903 141.184 86.2134C140.741 86.6799 140.137 86.9592 139.494 86.994C139.131 87.0097 138.77 86.9413 138.438 86.7941C138.106 86.6469 137.812 86.425 137.58 86.1455C136.949 85.4261 136.27 83.5188 135.822 80.6613C135.191 76.5888 134.757 70.3444 134.295 63.3262C134.051 59.6406 133.786 55.7446 133.501 51.8486C133.216 47.9527 132.904 44.0974 132.53 40.4254C131.852 33.7262 131.037 27.7193 130.046 23.6604C129.659 22.0518 128.281 20.7011 128.532 20.0766C127.987 19.7789 127.557 19.3064 127.313 18.735C127.069 18.1637 127.023 17.5267 127.185 16.9266C127.346 16.3265 127.705 15.7981 128.203 15.4264C128.701 15.0548 129.309 14.8614 129.931 14.8774C130.533 14.9045 131.12 15.0721 131.646 15.3667C132.171 15.6613 132.621 16.0749 132.958 16.5743C133.637 17.5721 134.356 19.4182 134.831 22.0042C135.91 27.7736 136.386 37.7511 136.867 48.1427C137.112 53.3758 137.39 58.7039 137.702 63.6316C137.94 67.3647 138.225 70.8535 138.53 73.8942C138.836 76.935 139.168 79.5074 139.562 81.3536Z" fill="#005000"/><path fill-rule="evenodd" clip-rule="evenodd" d="M174.56 47.4775C173.02 42.3258 172.266 35.4162 173.318 30.5089C174.778 22.5404 178.993 18.2915 182.631 16.4046C184.633 15.2654 186.987 14.9121 189.235 15.4136C190.117 15.678 190.899 16.2004 191.482 16.9136C192.696 18.3594 193.015 20.9182 190.199 24.0404C189.945 24.314 189.638 24.5334 189.297 24.6854C188.956 24.8374 188.588 24.9189 188.215 24.925C187.841 24.9311 187.471 24.8617 187.125 24.7209C186.779 24.5801 186.466 24.3709 186.203 24.1058C185.94 23.8407 185.733 23.5252 185.596 23.1782C185.458 22.8313 185.392 22.46 185.401 22.0868C185.41 21.7136 185.495 21.3462 185.65 21.0066C185.805 20.6669 186.027 20.3622 186.303 20.1105C186.349 20.0686 186.392 20.0232 186.432 19.9748H186.33C184.274 20.3378 182.399 21.3769 181.002 22.9273C178.891 25.2834 177.438 28.1532 176.787 31.2487C175.979 35.0157 176.332 40.0724 177.323 44.362C178.151 43.488 179.06 42.6949 180.038 41.9932C182.895 40.0249 185.128 40.5814 186.031 42.3869C186.54 43.405 186.71 45.5227 185.651 48.9775C185.221 50.6919 184.46 52.3059 183.411 53.7287C183.044 54.2189 182.559 54.6089 182.002 54.8628C181.444 55.1166 180.832 55.2261 180.221 55.1812C179.094 55.059 177.859 54.2649 176.827 52.6902C176.719 52.5273 176.617 52.3576 176.515 52.1812C173.841 56.2536 171.554 61.2152 171.343 65.2673C171.177 66.5998 171.516 67.946 172.293 69.0411C173.339 70.324 175.273 70.8195 178.226 70.7652C178.6 70.7466 178.975 70.8044 179.327 70.935C179.678 71.0656 180 71.2663 180.272 71.525C180.544 71.7837 180.76 72.0949 180.908 72.4397C181.056 72.7845 181.132 73.1558 181.132 73.531C181.132 73.9062 181.056 74.2775 180.908 74.6224C180.76 74.9672 180.544 75.2784 180.272 75.5371C180 75.7958 179.678 75.9965 179.327 76.1271C178.975 76.2577 178.6 76.3155 178.226 76.2969C172.253 76.1815 169.002 74.0096 167.461 71.0638C165.92 68.1181 166.103 63.903 167.624 59.5795C169.289 55.2076 171.63 51.124 174.56 47.4775ZM182.393 45.9842C181.254 46.6217 180.215 47.4246 179.312 48.3666L178.809 48.9843L178.979 49.3644C179.261 49.9841 179.616 50.5676 180.038 51.102C180.167 51.2493 180.31 51.3835 180.465 51.5024C180.627 51.3158 180.772 51.116 180.9 50.9051C181.399 49.9591 181.775 48.9532 182.02 47.9118C182.19 47.2789 182.314 46.6348 182.393 45.9842Z" fill="#005000"/><path fill-rule="evenodd" clip-rule="evenodd" d="M201.188 18.8885C201.428 21.8079 201.403 24.743 201.114 27.6578C200.77 30.6188 200.195 33.5485 199.397 36.4204C198.22 40.4856 196.819 44.4827 195.202 48.3935C191.435 57.8959 187.125 67.2218 184.905 76.8057C184.834 77.1622 184.834 77.5293 184.904 77.886C184.975 78.2427 185.115 78.582 185.317 78.8845C185.518 79.187 185.778 79.4469 186.08 79.6492C186.382 79.8515 186.721 79.9923 187.077 80.0636C187.434 80.1349 187.801 80.1354 188.158 80.0648C188.514 79.9942 188.854 79.8541 189.156 79.6524C189.459 79.4507 189.718 79.1914 189.921 78.8893C190.123 78.5872 190.264 78.2482 190.335 77.8917C192.168 67.0929 196.485 56.389 200.068 45.6242C200.856 43.2757 201.596 40.9273 202.322 38.5856C203.048 36.2439 203.754 33.8344 204.358 31.4181C204.779 29.7891 205.159 28.1669 205.512 26.5311C206.061 24.0363 206.465 21.5117 206.72 18.9699C206.726 18.2355 206.441 17.5286 205.926 17.0048C205.411 16.481 204.709 16.1832 203.975 16.1769C203.24 16.1706 202.533 16.4563 202.009 16.9712C201.486 17.4861 201.188 18.188 201.182 18.9224L201.188 18.8885Z" fill="#005000"/><path fill-rule="evenodd" clip-rule="evenodd" d="M214.612 16.9745C214.352 17.0238 214.098 17.1059 213.859 17.2188C212.122 18.4312 210.607 19.9327 209.379 21.6578C207.893 23.6262 206.63 25.7303 206.718 27.0131C206.706 27.7272 206.419 28.4091 205.917 28.9164C205.414 29.4238 204.735 29.7173 204.021 29.7357C203.307 29.7541 202.613 29.4959 202.085 29.0152C201.557 28.5344 201.235 27.8682 201.187 27.1556C201.266 25.7971 201.659 24.4753 202.334 23.2936C204.402 19.7301 207.217 16.6573 210.587 14.2867C213.031 12.6848 215.338 12.359 216.641 13.1735C217.145 13.4874 217.568 13.9148 217.877 14.4217C218.186 14.9285 218.372 15.5006 218.42 16.0921C219.01 20.0017 217.205 26.9113 214.347 33.4815C212.821 37.0757 210.941 40.509 208.734 43.7306C207.918 44.8963 207.01 45.9948 206.019 47.0157C206.352 48.6311 206.603 50.2669 206.786 51.9162C207.465 57.7738 207.261 63.7739 207.669 69.6518C207.926 73.3781 208.171 75.713 209.304 77.084C209.77 77.5802 210.389 77.9053 211.062 78.0071C212.659 78.3075 214.286 78.4124 215.908 78.3194C216.283 78.3008 216.658 78.3586 217.01 78.4892C217.361 78.6198 217.683 78.8205 217.955 79.0792C218.226 79.3378 218.443 79.649 218.591 79.9939C218.739 80.3387 218.815 80.71 218.815 81.0852C218.815 81.4604 218.739 81.8317 218.591 82.1766C218.443 82.5214 218.226 82.8326 217.955 83.0913C217.683 83.3499 217.361 83.5507 217.01 83.6813C216.658 83.8119 216.283 83.8697 215.908 83.8511C210.18 83.7493 207.085 82.7108 205.225 80.3149C203.718 78.3329 202.985 75.1428 202.802 69.9097C202.619 64.8938 202.877 59.7964 202.666 54.7669C202.592 53.0633 202.469 51.3732 202.245 49.6967C201.265 50.1422 200.17 50.2672 199.114 50.0539C198.059 49.8407 197.098 49.3 196.367 48.5089C196.112 48.1365 195.953 47.7063 195.906 47.2571C195.858 46.8079 195.924 46.354 196.096 45.9365C196.598 44.5381 197.283 43.2121 198.132 41.993C198.63 41.2784 199.287 40.6902 200.053 40.2757C201.492 39.597 203.569 39.597 204.92 42.9907C206.902 40.5318 208.588 37.8482 209.942 34.9951C213.058 28.5471 215.209 21.0402 214.612 16.9745ZM201.18 44.579C200.82 45.1016 200.358 45.8007 200.026 46.3844C200.563 46.4113 201.095 46.2689 201.546 45.9772C201.485 45.7193 201.424 45.4613 201.356 45.1966C201.288 44.9319 201.261 44.7623 201.18 44.579Z" fill="#005000"/><path fill-rule="evenodd" clip-rule="evenodd" d="M232.182 20.6332C231.965 20.1253 231.904 19.5643 232.006 19.0216C232.109 18.4788 232.371 17.979 232.759 17.5856C233.825 16.7236 234.714 16.5946 235.318 16.7779C235.692 16.8365 236.049 16.9747 236.365 17.1831C236.681 17.3915 236.949 17.6653 237.15 17.9861C237.349 18.282 237.487 18.6141 237.558 18.9635C237.598 20.0207 237.455 21.0768 237.137 22.0857C236.458 24.407 235.236 28.2758 234.069 32.0564C233.655 33.4139 233.275 34.7714 232.922 36.0067C232.141 38.8167 231.564 41.1313 231.34 41.9661C230.779 44.2829 230.313 46.6155 229.942 48.964C228.415 58.6904 228.143 68.5457 226.094 77.987C226.009 78.3447 225.855 78.682 225.639 78.9793C225.423 79.2766 225.15 79.5279 224.836 79.7187C224.522 79.9094 224.173 80.0358 223.81 80.0904C223.446 80.145 223.076 80.1267 222.719 80.0366C222.363 79.9465 222.028 79.7865 221.735 79.5657C221.441 79.345 221.194 79.068 221.008 78.7509C220.823 78.4338 220.702 78.083 220.653 77.7187C220.605 77.3545 220.629 76.9843 220.725 76.6295C221.372 74.3671 221.933 72.0729 222.408 69.7471C224.356 60.299 225.266 50.5047 228.028 41.0702C228.245 40.2353 228.904 37.9479 229.596 35.1176C229.901 33.8619 230.22 32.5044 230.505 31.1198C231.272 27.3527 231.904 23.4432 232.148 21.1151C232.168 20.9658 232.175 20.7961 232.182 20.6332ZM235.949 21.9906C236.241 21.8845 236.497 21.6988 236.689 21.4545C236.477 21.6858 236.227 21.8787 235.949 22.0246V21.9906Z" fill="#005000"/><path fill-rule="evenodd" clip-rule="evenodd" d="M229.029 25.7097C230.164 23.4649 231.486 21.3193 232.98 19.2956C234.751 17.1168 236.862 15.5557 239.088 15.6575C241.437 15.7458 242.869 17.1915 243.432 19.6214C244.064 22.3364 243.541 26.4835 243.297 29.1238C242.855 36.1149 240.656 43.486 239.658 50.7418C239.221 53.6843 239.103 56.6654 239.306 59.6333C239.665 63.8076 243.168 66.8552 246.704 68.0226C248.815 68.7014 251.007 68.776 252.317 67.5068C253.036 66.828 253.308 65.6742 253.267 64.1606C253.267 63.4261 253.559 62.7218 254.078 62.2024C254.598 61.6831 255.302 61.3913 256.037 61.3913C256.771 61.3913 257.475 61.6831 257.995 62.2024C258.514 62.7218 258.806 63.4261 258.806 64.1606C258.724 67.5543 257.577 69.862 255.894 71.3553C254.875 72.2093 253.686 72.8358 252.405 73.1928C251.124 73.5498 249.782 73.6292 248.469 73.4254C242.407 72.6992 235.396 67.3167 235.097 59.8981C235.017 56.6241 235.279 53.3506 235.878 50.1309C237.072 42.9973 239.346 35.7484 239.95 28.8455C240.15 26.7953 240.229 24.7352 240.188 22.6757C240.171 21.8174 240.008 20.9682 239.706 20.1644C239.591 19.8861 239.448 19.6621 239.143 19.6757C238.22 19.7164 237.595 20.6395 236.943 21.5694C235.586 23.5445 234.663 26.212 234.086 27.6781C233.87 28.2703 233.585 28.8352 233.238 29.3614C232.979 29.7219 232.634 30.012 232.234 30.2052C231.835 30.3984 231.393 30.4887 230.95 30.4677C230.404 30.4572 229.873 30.2854 229.425 29.9741C228.976 29.6627 228.63 29.2257 228.429 28.7179C228.228 28.2101 228.181 27.6543 228.296 27.1202C228.41 26.5862 228.679 26.0978 229.07 25.7165L229.029 25.7097Z" fill="#005000"/><path fill-rule="evenodd" clip-rule="evenodd" d="M247.523 44.9323C246.951 45.5877 246.326 46.196 245.656 46.7514C244.968 47.3029 244.229 47.7892 243.451 48.2038C242.824 48.5412 242.173 48.8294 241.503 49.0659C240.478 49.4132 239.424 49.6676 238.353 49.826C232.923 50.6541 227.283 49.7854 221.527 49.4324C220.793 49.4324 220.088 49.7241 219.569 50.2435C219.05 50.7628 218.758 51.4672 218.758 52.2017C218.758 52.9361 219.05 53.6405 219.569 54.1598C220.088 54.6792 220.793 54.9709 221.527 54.9709C225.036 54.7334 228.498 54.5841 231.905 54.2922C234.281 54.0782 236.642 53.7269 238.978 53.2401C240.159 52.989 241.333 52.6971 242.507 52.3849C243.294 52.1677 244.082 51.9505 244.869 51.7062C245.656 51.4618 246.43 51.1836 247.231 50.9053C248.454 50.4777 249.65 49.9791 250.815 49.412C251.109 49.1981 251.358 48.9284 251.548 48.6182C251.738 48.308 251.865 47.9634 251.922 47.6041C251.978 47.2449 251.964 46.878 251.879 46.5243C251.794 46.1707 251.64 45.8373 251.426 45.5432C251.212 45.249 250.942 44.9999 250.632 44.81C250.322 44.6201 249.977 44.4932 249.618 44.4365C249.259 44.3798 248.892 44.3943 248.538 44.4794C248.184 44.5645 247.851 44.7184 247.557 44.9323H247.523Z" fill="#005000"/><path fill-rule="evenodd" clip-rule="evenodd" d="M265.887 24.278C265.568 25.4522 265.208 26.9455 264.855 28.4726C264.298 30.9501 263.823 33.4953 263.443 34.9818C263.07 36.6583 262.629 38.3755 262.208 40.1131C261.787 41.8507 261.427 43.5068 261.027 45.224C259.88 50.2264 258.706 55.4052 257.803 60.4958C256.728 66.0359 256.23 71.6723 256.316 77.315C256.335 77.6898 256.277 78.0644 256.147 78.4161C256.016 78.7679 255.815 79.0894 255.557 79.3612C255.298 79.633 254.987 79.8494 254.642 79.9973C254.297 80.1451 253.926 80.2213 253.551 80.2213C253.175 80.2213 252.804 80.1451 252.459 79.9973C252.114 79.8494 251.803 79.633 251.544 79.3612C251.286 79.0894 251.085 78.7679 250.954 78.4161C250.824 78.0644 250.766 77.6898 250.785 77.315C250.996 72.8084 251.593 68.3281 252.57 63.9234C254.009 56.9934 256.187 49.9277 257.966 43.1131C258.753 40.0995 259.405 37.1198 260.002 34.2894C260.199 33.0813 260.457 31.174 260.681 29.1649C260.993 25.8866 261.224 22.3775 261.434 21.0743C261.957 17.762 265.412 18.8141 265.948 19.1874C266.151 19.3299 266.83 20.1105 267.054 22.0313C267.052 22.4715 266.944 22.9049 266.741 23.2955C266.538 23.6861 266.245 24.0229 265.887 24.278ZM266.45 22.3707L266.518 22.2282C266.495 22.2628 266.474 22.2991 266.457 22.3368L266.45 22.3707Z" fill="#005000"/><path fill-rule="evenodd" clip-rule="evenodd" d="M268.03 40.9608C269.067 41.1519 270.072 41.4854 271.017 41.9518C272.372 42.6448 273.455 43.7731 274.091 45.1555C275.143 47.4021 275.557 50.4022 275.503 53.5244C275.43 57.6509 274.611 61.7301 273.087 65.5653C270.843 70.7915 267.01 75.1779 262.132 78.1017C258.588 80.2014 254.38 80.8804 250.356 80.0022C249.654 79.8127 249.055 79.355 248.688 78.7279C248.321 78.1007 248.215 77.3545 248.393 76.65C248.571 75.9454 249.019 75.3392 249.64 74.9619C250.261 74.5847 251.006 74.4666 251.713 74.6333C255.236 75.5904 258.697 74.5179 261.657 72.4817C264.824 70.2342 267.371 67.2222 269.062 63.7259C270.26 61.01 271.032 58.1252 271.349 55.1737C271.709 52.0719 271.641 48.9361 270.67 46.6894C269.822 44.7211 267.616 44.4971 266.238 44.2188C264.86 43.9405 263.89 43.4926 263.523 43.0446C263.261 42.7458 263.094 42.3753 263.045 41.9809C262.995 41.5865 263.065 41.1863 263.245 40.8319C263.69 40.0509 264.314 39.3859 265.064 38.8907C266.136 38.0626 267.202 37.3363 268.179 36.4947C268.78 35.9925 269.328 35.4308 269.815 34.8182C270.346 34.1064 270.778 33.3255 271.098 32.4969C271.449 31.5923 271.746 30.6676 271.987 29.7276C272.292 28.6008 272.454 27.4401 272.469 26.2728C272.469 25.1246 272.307 23.9821 271.987 22.8791C271.661 21.7524 271.186 21.0397 270.548 20.7479C269.91 20.456 269.13 20.8157 268.417 21.2569C267.572 21.8019 266.883 22.5569 266.418 23.4481C265.953 24.3393 265.727 25.336 265.763 26.3407C265.789 26.7132 265.739 27.087 265.616 27.4396C265.493 27.7923 265.301 28.1164 265.05 28.3927C264.799 28.669 264.494 28.8917 264.155 29.0474C263.816 29.203 263.448 29.2885 263.075 29.2985C262.702 29.3086 262.33 29.2431 261.983 29.106C261.636 28.9689 261.32 28.763 261.054 28.5006C260.789 28.2383 260.579 27.9249 260.437 27.5794C260.296 27.2339 260.226 26.8633 260.231 26.49C260.367 21.7388 264.501 17.198 268.458 16.5125C269.353 16.3126 270.283 16.3317 271.169 16.568C272.055 16.8043 272.872 17.251 273.548 17.87C274.668 18.9741 275.422 20.3958 275.707 21.9425C276.034 23.3889 276.159 24.8735 276.08 26.3543C276.011 27.813 275.755 29.2568 275.32 30.6507C274.971 31.9413 274.517 33.2011 273.962 34.4177C273.559 35.2865 273.058 36.1064 272.469 36.8612C271.862 37.6514 271.18 38.381 270.433 39.04C269.632 39.7459 268.838 40.3364 268.03 40.9608Z" fill="#005000"/><path fill-rule="evenodd" clip-rule="evenodd" d="M293.933 22.6692V22.7439C293.838 25.0109 293.621 29.6264 293.329 30.6716C292.969 32.097 291.605 36.0133 290.186 41.1921C289.602 43.3438 289.025 45.7126 288.482 48.2035C286.575 57.0272 285.089 67.3713 285.964 74.566C286.351 77.695 287.091 80.1792 288.903 81.1973C290.458 82.0797 292.596 81.5028 295.65 79.8398C295.977 79.6586 296.337 79.5454 296.708 79.5069C297.08 79.4684 297.455 79.5055 297.812 79.6159C298.169 79.7263 298.5 79.9077 298.784 80.1493C299.069 80.3909 299.302 80.6876 299.47 81.0216C299.637 81.3556 299.735 81.72 299.758 82.0928C299.78 82.4656 299.727 82.8392 299.602 83.1911C299.477 83.5429 299.281 83.8658 299.028 84.1402C298.774 84.4146 298.468 84.6349 298.127 84.7879C292.731 87.2992 288.917 87.1024 286.331 85.4666C283.541 83.6883 281.892 79.9891 281.512 74.9936C280.935 67.412 283.012 56.6675 285.157 47.4434C285.74 44.932 286.324 42.5293 286.826 40.3301C288.014 35.1785 288.903 31.201 289.154 29.7689C289.283 28.8594 288.897 25.0652 288.673 23.029C288.564 22.7439 288.55 22.5199 288.673 20.314C288.795 18.1081 293.478 16.4383 293.933 22.6692Z" fill="#005000"/><path fill-rule="evenodd" clip-rule="evenodd" d="M27.0138 107.444C26.5376 107.229 26.1319 106.884 25.8437 106.448C25.5555 106.012 25.3966 105.503 25.3852 104.981C25.3739 104.458 25.5106 103.943 25.7795 103.495C26.0485 103.047 26.4388 102.684 26.9052 102.449C28.7718 101.77 30.0071 101.926 30.7673 102.51C31.2335 102.808 31.6146 103.222 31.8736 103.711C32.3548 105.056 32.3548 106.527 31.8736 107.872C31.4528 109.304 30.713 111.164 29.8374 113.302C29.1587 114.877 28.446 116.614 27.7197 118.46C26.7491 120.924 25.7921 123.571 24.9233 126.184C23.5183 130.427 22.412 134.601 22.1201 137.798C21.9776 139.332 21.9708 140.574 22.5002 141.307C22.6472 141.471 22.8285 141.602 23.0315 141.689C23.2344 141.775 23.4539 141.817 23.6744 141.809C24.4299 141.834 25.1819 141.698 25.8803 141.409C27.455 140.859 28.9754 139.827 29.4302 138.823C29.7587 138.166 30.3348 137.666 31.0317 137.434C31.7286 137.201 32.4892 137.255 33.1463 137.584C33.8033 137.913 34.303 138.489 34.5353 139.185C34.7676 139.882 34.7135 140.643 34.385 141.3C33.1768 143.506 29.403 146.051 25.7582 146.56C22.8599 146.934 20.1721 146.201 18.7128 143.845C18.1013 142.802 17.7671 141.62 17.7422 140.411C17.743 138.288 18.0376 136.175 18.6178 134.133C19.7581 129.632 21.964 124.162 23.8577 119.037C24.4889 117.334 25.0591 115.644 25.5613 114.096C26.1383 112.27 26.5998 110.587 26.9188 109.134C27.025 108.578 27.057 108.009 27.0138 107.444Z" fill="#005000"/><path fill-rule="evenodd" clip-rule="evenodd" d="M33.1283 121.82C32.5714 121.577 31.9916 121.391 31.3976 121.263C30.2641 121.067 28.8523 120.849 27.1825 120.714C25.8929 120.605 24.4676 120.557 22.9268 120.557C20.4969 120.557 17.8091 120.686 14.9652 120.815C11.1506 120.992 7.09175 121.277 3.01929 121.494C2.28483 121.494 1.58044 121.202 1.0611 120.683C0.541764 120.164 0.25 119.459 0.25 118.725C0.25 117.99 0.541764 117.286 1.0611 116.767C1.58044 116.247 2.28483 115.956 3.01929 115.956C7.09175 116.207 11.1642 116.505 14.9855 116.723C17.8362 116.879 20.5309 117.062 22.9676 117.109C24.5151 117.143 25.954 117.143 27.2504 117.109C28.9609 117.035 30.4066 116.892 31.574 116.784C33.2912 116.621 34.4112 116.56 34.8727 116.573C35.2604 116.596 35.6365 116.714 35.967 116.918C36.2976 117.122 36.5723 117.404 36.7664 117.741C37.2076 118.182 37.1533 118.772 37.2483 119.281C37.3773 119.926 36.9497 120.53 36.3727 121.318C36.2166 121.542 35.8162 121.677 35.2664 121.996C34.9167 122.114 34.5468 122.159 34.1792 122.128C33.8116 122.098 33.4541 121.993 33.1283 121.82ZM33.1623 116.899C33.2905 116.838 33.4219 116.783 33.556 116.736C33.4129 116.755 33.2772 116.812 33.1623 116.899Z" fill="#005000"/><path fill-rule="evenodd" clip-rule="evenodd" d="M41.3231 135.327C40.7963 135.128 40.3425 134.774 40.0224 134.311C39.7022 133.847 39.5309 133.298 39.5313 132.734C39.5923 131.16 40.8887 127.943 42.6535 125.492C44.0992 123.517 45.8436 122.058 47.235 121.759C52.2034 120.7 56.2894 123.286 57.8234 126.714C58.3086 127.72 58.5481 128.826 58.5221 129.942C58.4962 131.059 58.2055 132.153 57.6741 133.135C56.62 134.909 54.9584 136.24 52.9975 136.882C50.5609 137.771 47.9389 138.031 45.3752 137.635C43.7786 137.414 42.328 136.588 41.3231 135.327ZM51.5925 126.375C51.5247 126.476 51.45 126.571 51.3685 126.673C50.9346 127.186 50.4374 127.642 49.8889 128.031C48.7554 128.838 47.011 129.884 45.6332 131.051L45.3888 131.262C45.1942 131.727 45.0861 132.224 45.0698 132.728C45.07 133.116 44.9866 133.501 44.8255 133.854C45.4696 134.214 46.1921 134.409 46.9296 134.424C48.5546 134.496 50.1757 134.213 51.6808 133.596C52.8049 133.195 53.747 132.402 54.3347 131.363C54.5392 130.905 54.6305 130.405 54.601 129.904C54.5715 129.403 54.4219 128.916 54.165 128.485C53.6109 127.477 52.6896 126.721 51.5925 126.375ZM48.3753 127.318C48.4248 127.325 48.4751 127.325 48.5246 127.318H48.3753Z" fill="#005000"/><path fill-rule="evenodd" clip-rule="evenodd" d="M308.01 46.0451C307.875 45.7871 307.752 45.5292 307.63 45.2645C305.897 41.3308 305.305 36.9892 305.92 32.7349C306.502 28.5423 308.009 24.5316 310.332 20.9927C310.885 20.0228 311.648 19.1879 312.563 18.5482C313.479 17.9085 314.525 17.48 315.626 17.2935C318.477 16.8319 321.599 18.2641 324.11 20.4972C326.622 22.7302 328.407 25.8185 328.773 28.1805C328.978 29.4331 328.738 30.7179 328.094 31.8118C327.307 33.1693 325.793 34.1535 323.207 34.2417C322.497 34.201 321.83 33.8887 321.345 33.3696C320.859 32.8505 320.591 32.1643 320.597 31.4532C320.603 30.7422 320.883 30.0607 321.377 29.55C321.872 29.0393 322.544 28.7385 323.255 28.71C323.359 28.717 323.463 28.717 323.567 28.71C323.601 28.5533 323.601 28.3915 323.567 28.2348C323.482 27.888 323.366 27.5496 323.221 27.2235C322.375 25.3248 321.04 23.685 319.352 22.4723C318.435 21.7329 317.286 21.3411 316.108 21.366C315.567 21.4496 315.05 21.6518 314.596 21.9581C314.142 22.2643 313.761 22.667 313.481 23.1375C309.246 29.3344 308.431 35.5924 309.504 40.459C309.706 41.3848 309.983 42.2928 310.332 43.174C310.609 42.9171 310.898 42.6747 311.2 42.4477C313.698 40.6016 316.725 40.011 320.431 42.536C321.435 43.1713 322.194 44.1285 322.583 45.2509C322.844 46.1758 322.737 47.1658 322.284 48.0134C320.567 51.3529 318.13 52.561 315.721 52.3846C313.658 52.1122 311.766 51.096 310.4 49.527C309.449 51.2646 308.703 53.0904 308.065 54.4072C304.793 61.1946 306.897 70.0794 311.289 75.5569C313.596 78.4348 316.563 80.3759 319.793 80.118C322.508 79.9076 325.223 78.0818 327.87 74.4301C328.085 74.1301 328.357 73.8759 328.671 73.6825C328.985 73.4892 329.335 73.3604 329.699 73.304C330.064 73.2475 330.436 73.2644 330.794 73.3537C331.152 73.443 331.488 73.6029 331.783 73.824C332.078 74.0451 332.326 74.3229 332.513 74.6412C332.699 74.9594 332.82 75.3117 332.869 75.6773C332.917 76.043 332.892 76.4146 332.795 76.7704C332.697 77.1262 332.53 77.459 332.303 77.7492C328.508 82.6565 324.497 84.8353 320.764 85.2154C317.452 85.509 314.152 84.5391 311.526 82.5004C303.741 76.7718 299.2 62.5861 304.393 52.5542C305.47 50.3156 306.678 48.1421 308.01 46.0451ZM312.375 46.6424C314.56 49.3573 317.363 49.9275 319.115 46.3709C319.136 46.328 319.144 46.2795 319.137 46.232C319.129 46.1846 319.107 46.1406 319.074 46.1062C318.904 45.8902 318.694 45.7083 318.456 45.57C316.467 44.2736 314.879 44.4772 313.583 45.4817C313.143 45.8276 312.738 46.2164 312.375 46.6424Z" fill="#005000"/><path fill-rule="evenodd" clip-rule="evenodd" d="M88.7445 103.453C88.2515 103.12 87.8795 102.636 87.6839 102.074C87.4882 101.511 87.4794 100.901 87.6587 100.334C87.8379 99.7659 88.1958 99.2714 88.6789 98.9236C89.1619 98.5759 89.7444 98.3934 90.3395 98.4035C90.8914 98.4137 91.4342 98.5455 91.9293 98.7896C92.4244 99.0336 92.8596 99.3838 93.2038 99.8153C93.5878 100.308 93.8672 100.874 94.0251 101.478C94.2732 102.849 94.2732 104.254 94.0251 105.625C93.5037 108.56 92.824 111.465 91.9889 114.327C91.507 116.092 90.9979 117.972 90.4888 119.906C89.9459 121.942 89.4165 124.067 88.9074 126.178C87.6871 130.983 86.7354 135.853 86.0567 140.764C85.8302 142.38 85.7824 144.017 85.9141 145.644C85.9684 145.994 86.0571 146.337 86.1788 146.669H86.2671C86.6674 146.514 87.0497 146.316 87.4074 146.078C88.9413 145.121 90.8757 143.363 93.3735 140.689C93.8929 140.17 94.5972 139.878 95.3317 139.878C96.0662 139.878 96.7705 140.17 97.2899 140.689C97.8092 141.209 98.101 141.913 98.101 142.647C98.101 143.382 97.8092 144.086 97.2899 144.606C92.9663 148.678 89.8712 150.68 87.7875 151.264C85.5476 151.943 83.9865 151.4 82.9277 150.26C81.8688 149.119 81.1561 146.526 81.4955 143.065C81.9978 137.818 84.2919 129.938 86.3349 122.322C86.8236 120.497 87.292 118.684 87.6924 116.892C88.3712 113.94 88.8667 111.157 89.1585 108.748C89.4436 106.582 88.4594 104.383 88.7445 103.453Z" fill="#005000"/><path fill-rule="evenodd" clip-rule="evenodd" d="M102.263 119.248C101.29 118.631 100.185 118.251 99.0385 118.142C98.0543 118.067 96.9412 118.033 95.6787 118.053C94.7149 118.053 93.6832 118.053 92.604 118.053C90.7917 118.053 88.8709 117.999 87.0111 118.006C83.7124 118.006 80.6784 118.006 78.9884 117.87C78.6136 117.852 78.239 117.909 77.8873 118.04C77.5355 118.171 77.214 118.371 76.9422 118.63C76.6704 118.889 76.454 119.2 76.3062 119.545C76.1583 119.889 76.082 120.261 76.082 120.636C76.082 121.011 76.1583 121.382 76.3062 121.727C76.454 122.072 76.6704 122.383 76.9422 122.642C77.214 122.901 77.5355 123.101 77.8873 123.232C78.239 123.363 78.6136 123.42 78.9884 123.402C81.1671 123.219 85.4093 122.207 89.6922 121.712C91.152 121.517 92.6249 121.438 94.0972 121.474C94.7068 121.508 95.3128 121.589 95.9095 121.719C96.4678 121.845 97.0114 122.029 97.5316 122.268C97.8919 122.459 98.214 122.715 98.4819 123.022C98.543 123.083 98.414 123.191 98.4819 123.259C99.0194 123.737 99.7218 123.987 100.44 123.957C101.159 123.926 101.837 123.617 102.332 123.095C102.827 122.573 103.099 121.878 103.091 121.159C103.083 120.44 102.796 119.752 102.29 119.241L102.263 119.248Z" fill="#005000"/><path fill-rule="evenodd" clip-rule="evenodd" d="M109.681 101.532C109.523 101.112 109.469 100.659 109.524 100.213C109.58 99.7669 109.743 99.3409 109.999 98.9717C110.255 98.6025 110.598 98.3011 110.996 98.0934C111.395 97.8856 111.838 97.7778 112.287 97.7791C113.163 97.9148 113.937 98.0573 114.412 98.7021C114.687 98.9772 114.9 99.3082 115.036 99.6727C115.234 100.208 115.31 100.781 115.26 101.349C114.975 103.385 112.633 108.51 112.138 109.82C111.67 111.368 111.14 112.915 110.685 114.49C109.654 118.101 108.744 121.793 107.855 125.485C106.585 130.66 105.615 135.904 104.95 141.191C104.765 141.848 104.344 142.413 103.767 142.778C103.191 143.144 102.5 143.283 101.827 143.17C101.155 143.058 100.547 142.701 100.121 142.168C99.6954 141.635 99.4814 140.963 99.5201 140.282C100.199 137.078 101.088 133.881 102.038 130.657C103.545 125.56 105.371 120.476 106.912 115.42C107.59 113.234 108.106 111.028 108.656 108.863C108.785 108.184 109.335 106.494 109.674 104.723C109.864 103.657 109.477 102.157 109.681 101.532ZM111.602 103.229C111.816 103.321 112.051 103.349 112.281 103.311C112.052 103.314 111.823 103.286 111.602 103.229Z" fill="#005000"/><path fill-rule="evenodd" clip-rule="evenodd" d="M114.489 146.2C114.762 146.221 115.036 146.221 115.31 146.2C115.902 146.052 116.483 145.862 117.047 145.63C117.74 145.413 118.49 145.477 119.136 145.807C119.783 146.137 120.273 146.708 120.503 147.397C120.732 148.085 120.682 148.837 120.364 149.489C120.045 150.141 119.483 150.642 118.799 150.884C117.692 151.196 114.835 151.908 112.961 151.359C112.195 151.197 111.492 150.816 110.939 150.261C110.386 149.707 110.006 149.003 109.846 148.236C109.099 144.639 109.649 141.001 110.694 137.377C112.052 132.673 114.265 127.983 114.366 123.456C114.412 121.664 113.999 119.89 113.165 118.304C113.017 118.021 112.778 117.796 112.486 117.666C112.072 117.503 111.679 117.869 111.271 118.155C110.573 118.696 110.101 119.477 109.948 120.347C109.948 120.428 110.029 120.483 110.036 120.551C110.062 120.923 110.012 121.297 109.889 121.649C109.766 122.002 109.574 122.326 109.323 122.603C109.071 122.879 108.767 123.102 108.428 123.257C108.088 123.413 107.721 123.498 107.348 123.508C106.975 123.518 106.603 123.453 106.256 123.316C105.909 123.179 105.593 122.973 105.327 122.71C105.062 122.448 104.852 122.135 104.71 121.789C104.569 121.444 104.499 121.073 104.504 120.7C104.542 119.912 104.736 119.139 105.074 118.426C106.12 116.39 108.298 114.354 110.586 113.838C111.779 113.513 113.05 113.638 114.156 114.191C115.167 114.745 115.962 115.625 116.409 116.688C117.385 118.814 117.85 121.139 117.767 123.476C117.685 130.793 112.9 138.822 114.489 146.2Z" fill="#005000"/><path fill-rule="evenodd" clip-rule="evenodd" d="M129.695 118.053C128.337 115.949 127.489 113.349 127.482 111.849C127.313 106.711 130.53 100.311 133.462 97.9282C134.105 97.336 134.899 96.9327 135.756 96.7626C136.614 96.5926 137.501 96.6624 138.322 96.9643C139.883 97.582 141.566 99.7947 142.055 104.851C142.066 105.215 142.006 105.577 141.878 105.918C141.749 106.258 141.555 106.57 141.306 106.835C141.057 107.101 140.758 107.314 140.427 107.464C140.095 107.614 139.738 107.697 139.374 107.709C139.01 107.72 138.648 107.66 138.307 107.532C137.967 107.403 137.655 107.209 137.39 106.96C137.124 106.711 136.911 106.412 136.761 106.081C136.611 105.749 136.528 105.391 136.516 105.028C136.616 103.925 136.554 102.814 136.333 101.729C135.719 101.975 135.152 102.324 134.657 102.761C132.743 105.021 131.052 108.707 130.957 111.849C131.11 113.468 131.68 115.018 132.614 116.349C133.412 116.155 134.225 116.024 135.043 115.956C136.086 115.841 137.14 115.948 138.139 116.268C138.524 116.413 138.856 116.672 139.091 117.01C139.326 117.348 139.453 117.75 139.455 118.162C139.451 118.512 139.372 118.858 139.225 119.176C139.077 119.494 138.865 119.778 138.6 120.008C137.689 120.994 136.432 121.59 135.091 121.671C134.077 121.684 133.083 121.383 132.247 120.809C130.858 122.01 129.825 123.569 129.261 125.315C128.452 127.874 128.109 130.557 128.249 133.236C128.263 135.503 128.754 137.742 129.688 139.807C130.146 140.916 130.954 141.846 131.989 142.454C132.409 142.62 132.865 142.677 133.313 142.617C133.761 142.558 134.186 142.385 134.548 142.114C135.905 141.313 137.338 139.739 138.844 137.363C139.261 136.774 139.89 136.371 140.599 136.239C141.308 136.106 142.04 136.256 142.641 136.656C143.241 137.055 143.662 137.673 143.814 138.378C143.965 139.084 143.836 139.82 143.453 140.431C138.213 147.897 133.163 148.732 129.715 146.825C126.267 144.918 123.77 139.535 123.912 133.25C124 129.178 124.706 125.248 126.396 122.146C127.215 120.577 128.336 119.187 129.695 118.053Z" fill="#005000"/><path fill-rule="evenodd" clip-rule="evenodd" d="M239.904 116.947C238.207 114.409 237.134 111.157 237.128 109.318C236.958 103.209 240.704 95.6685 244.146 92.845C246.012 91.3042 247.947 91.0667 249.576 91.7454C251.327 92.4852 253.159 95.0712 253.648 100.854C253.659 101.218 253.599 101.58 253.47 101.92C253.341 102.261 253.146 102.572 252.897 102.837C252.394 103.372 251.698 103.686 250.964 103.708C250.229 103.731 249.516 103.461 248.981 102.957C248.445 102.454 248.132 101.758 248.11 101.024C248.208 99.6272 248.105 98.2237 247.804 96.8564C247.744 96.622 247.66 96.3945 247.553 96.1776C247.528 96.1452 247.51 96.1083 247.499 96.069C247.23 96.1479 246.974 96.2644 246.739 96.4152C246.103 96.8882 245.531 97.4401 245.035 98.0577C242.734 100.875 240.704 105.449 240.609 109.338C240.609 110.757 241.458 113.316 242.802 115.223C243.996 114.91 245.22 114.721 246.453 114.66C247.462 114.565 248.478 114.69 249.433 115.026C249.836 115.181 250.181 115.455 250.424 115.812C250.667 116.168 250.794 116.591 250.791 117.022C250.775 117.386 250.687 117.742 250.53 118.071C250.374 118.4 250.153 118.694 249.881 118.936C248.854 120.075 247.421 120.765 245.89 120.857C244.665 120.862 243.473 120.463 242.496 119.723C240.68 121.246 239.333 123.254 238.614 125.513C237.628 128.647 237.194 131.929 237.331 135.212C237.34 138.016 237.925 140.788 239.048 143.357C239.62 144.81 240.649 146.037 241.981 146.853C243.005 147.382 244.186 147.233 245.483 146.479C247.187 145.488 248.944 143.54 250.818 140.554C251.233 139.97 251.858 139.569 252.562 139.436C253.266 139.303 253.995 139.448 254.594 139.841C255.193 140.234 255.617 140.844 255.776 141.542C255.935 142.241 255.817 142.974 255.447 143.588C249.42 152.412 243.616 153.436 239.632 151.176C235.648 148.916 232.845 142.583 232.994 135.219C233.075 130.346 233.89 125.717 235.852 122.004C236.838 120.056 238.217 118.334 239.904 116.947Z" fill="#005000"/><path fill-rule="evenodd" clip-rule="evenodd" d="M172.885 97.501C172.444 97.3425 172.051 97.0752 171.741 96.7237C171.431 96.3722 171.216 95.948 171.114 95.4907C171.012 95.0334 171.028 94.5578 171.16 94.1082C171.291 93.6586 171.535 93.2497 171.867 92.9194C173.7 91.3923 175.071 91.2226 175.777 91.4262C176.28 91.5189 176.75 91.7456 177.135 92.0824C177.521 92.4192 177.809 92.8537 177.969 93.3403C178.24 94.4296 178.226 95.5702 177.928 96.6525C177.317 99.191 175.668 103.345 174.188 107.044C173.055 109.908 172.064 112.474 171.657 113.648C170.822 116.2 169.926 119.017 169.091 122.01C167.347 128.228 165.738 135.158 164.55 141.87C163.328 148.78 162.609 155.445 162.765 160.828C162.765 161.562 162.473 162.267 161.954 162.786C161.435 163.305 160.73 163.597 159.996 163.597C159.261 163.597 158.557 163.305 158.038 162.786C157.518 162.267 157.227 161.562 157.227 160.828C157.389 155.154 158.584 148.19 160.213 140.988C161.761 134.235 163.77 127.284 165.718 121.013C166.654 118.006 167.55 115.148 168.433 112.569C168.826 111.293 169.933 108.327 170.944 105.062C171.731 102.497 172.458 99.7612 172.878 97.596L172.885 97.501Z" fill="#005000"/><path fill-rule="evenodd" clip-rule="evenodd" d="M181.677 138.972C183.577 132.279 185.593 125.648 187.412 119.044C188.423 115.392 189.367 111.747 190.215 108.109C192 100.392 193.209 95.7291 193.86 93.8558C194.063 93.1903 194.385 92.5671 194.81 92.0164C195.268 91.5 195.9 91.1692 196.585 91.0867C197.27 91.0041 197.962 91.1755 198.53 91.5684C198.949 91.8811 199.284 92.2927 199.506 92.7664C199.727 93.2401 199.828 93.7612 199.799 94.2834C199.799 94.7013 199.704 95.1139 199.522 95.49C199.34 95.8662 199.075 96.1962 198.747 96.4554C198.007 98.607 196.792 102.836 195.055 109.351C194.071 113.023 192.985 116.695 191.844 120.374C189.251 128.743 186.374 137.16 183.801 145.691C183.596 146.475 183.458 147.274 183.387 148.081C183.184 150.049 183.163 152.072 183.163 152.072C183.161 152.509 183.001 152.932 182.714 153.262C182.427 153.593 182.031 153.81 181.598 153.874C181.165 153.938 180.724 153.845 180.353 153.611C179.983 153.378 179.708 153.019 179.579 152.601C179.579 152.601 179.002 150.646 178.643 148.685C178.444 147.733 178.335 146.765 178.317 145.793C178.317 139.827 178.127 133.576 177.604 127.365C177.082 121.155 176.247 114.951 175.466 108.978C175.011 106.039 174.611 99.8016 173.83 96.7608C173.56 96.6266 173.312 96.4502 173.097 96.2382C172.58 95.7179 172.289 95.0139 172.289 94.28C172.289 93.5461 172.58 92.842 173.097 92.3218C173.449 91.9517 173.886 91.6725 174.369 91.5082C174.853 91.3438 175.369 91.2993 175.873 91.3784C176.53 91.5246 177.133 91.8521 177.613 92.3236C178.093 92.7951 178.431 93.3918 178.588 94.0458C179.41 96.7608 179.383 104.906 179.634 108.489C179.885 112.073 180.211 115.881 180.482 119.648C180.754 123.415 181.018 127.114 181.242 130.813C181.426 133.549 181.575 136.277 181.677 138.972ZM176.505 96.625C176.697 96.5233 176.87 96.3876 177.014 96.2246C176.861 96.3788 176.69 96.5134 176.505 96.625Z" fill="#005000"/><path fill-rule="evenodd" clip-rule="evenodd" d="M209.709 96.8765C209.411 96.3485 209.295 95.7376 209.377 95.1371C209.459 94.5365 209.735 93.9794 210.164 93.5507C212.078 92.0032 213.524 92.4782 214.236 93.0891C214.652 93.3998 214.979 93.8139 215.185 94.2902C215.391 94.7665 215.469 95.2884 215.41 95.8041C215.075 97.5701 214.57 99.2998 213.904 100.969C213.225 102.829 212.356 105.096 211.426 107.682C210.693 109.718 209.919 112.013 209.152 114.395C208.175 117.429 207.238 120.653 206.315 123.897C203.892 132.354 201.768 140.812 201.184 146.045C201.028 147.511 201.734 148.909 201.245 149.242C201.627 149.813 201.784 150.505 201.683 151.185C201.583 151.865 201.234 152.484 200.703 152.92C200.173 153.357 199.499 153.581 198.812 153.548C198.126 153.516 197.476 153.229 196.989 152.744C196.384 152.102 195.985 151.293 195.842 150.423C195.64 148.715 195.723 146.986 196.087 145.305C197.037 139.95 199.847 131.397 202.765 122.784C203.845 119.608 204.958 116.424 205.935 113.384C206.695 111.008 207.381 108.721 207.971 106.596C208.65 103.997 209.22 101.668 209.614 99.7612C209.745 98.8054 209.776 97.8388 209.709 96.8765ZM214.012 97.5553C214.038 97.5388 214.061 97.5182 214.08 97.4942L214.012 97.5553Z" fill="#005000"/><path fill-rule="evenodd" clip-rule="evenodd" d="M230.451 96.1906C229.84 98.3829 228.971 102.116 228.638 103.026C227.281 107.186 226.005 111.469 224.878 115.84C224.097 118.867 223.412 121.949 222.706 124.99C221.03 132.334 219.407 139.644 217.276 146.431C216.55 148.8 216.72 150.653 217.609 151.943C218.301 152.846 219.314 153.449 220.439 153.626C223.256 154.23 226.84 153.008 229.629 150.076C230.149 149.558 230.854 149.267 231.589 149.268C232.323 149.27 233.027 149.563 233.546 150.083C234.064 150.603 234.355 151.308 234.353 152.042C234.352 152.777 234.059 153.481 233.539 153.999C229.107 158.201 223.514 159.49 219.285 158.377C217.859 158.058 216.534 157.39 215.428 156.435C214.321 155.479 213.469 154.265 212.946 152.9C212.192 150.863 212.091 148.21 213.217 145.081C215.138 139.651 216.821 133.942 218.328 128.112C219.441 123.788 220.527 119.424 221.511 115.066C222.516 110.6 223.392 106.155 224.464 101.865C224.715 100.704 225.251 95.2132 225.577 93.5842C225.71 92.8852 226.067 92.2487 226.595 91.7719C227.026 91.3983 227.567 91.1765 228.136 91.1407C228.629 91.0859 229.126 91.1708 229.573 91.3856C230.019 91.6005 230.396 91.9367 230.661 92.3557C231 92.9281 231.187 93.5776 231.204 94.2426C231.219 94.9657 230.948 95.6657 230.451 96.1906ZM225.699 94.3919V94.3172C225.696 94.342 225.696 94.3672 225.699 94.3919Z" fill="#005000"/></svg>