<svg width="192" height="263" viewBox="0 0 192 263" fill="none" xmlns="http://www.w3.org/2000/svg"><path fill-rule="evenodd" clip-rule="evenodd" d="M70.1091 24.4698C71.9417 24.6123 73.6318 24.2865 74.8603 25.1485C77.6586 27.1936 79.7243 30.0851 80.7518 33.3953C82.5233 38.8591 83.2699 45.1375 83.4668 51.2055C83.7654 58.9092 83.2971 66.2872 83.9419 71.8054C85.632 93.4844 93.9194 110.107 106.51 121.965C119.352 134.06 137.142 140.895 159.045 142.137C160.638 142.182 162.225 141.908 163.711 141.331C165.196 140.754 166.552 139.885 167.698 138.777C168.843 137.669 169.756 136.342 170.381 134.876C171.007 133.41 171.333 131.834 171.341 130.24C171.349 128.646 171.038 127.066 170.426 125.594C169.815 124.122 168.915 122.787 167.78 121.668C166.645 120.548 165.298 119.667 163.818 119.076C162.338 118.485 160.754 118.195 159.16 118.225C142.87 118.985 129.031 115.835 118.728 107.758C108.173 99.4778 101.325 86.7174 98.7182 70.0746C98.148 65.3234 98.1276 59.0518 98.3177 52.4272C98.6231 41.7777 98.4806 30.5852 95.6027 21.5037C92.5687 11.8451 86.1682 5.1595 75.315 1.10061C73.7837 0.753879 72.1991 0.712146 70.6517 0.977819C69.1042 1.24349 67.6243 1.81136 66.2963 2.64899C64.9683 3.48663 63.8183 4.57762 62.912 5.85969C62.0056 7.14176 61.3607 8.58978 61.0139 10.1211C60.6672 11.6524 60.6255 13.237 60.8911 14.7845C61.1568 16.3319 61.7247 17.8119 62.5623 19.1399C63.4 20.4679 64.491 21.6179 65.773 22.5242C67.0551 23.4306 68.5031 24.0755 70.0344 24.4222L70.1091 24.4698Z" fill="#005000"/><path fill-rule="evenodd" clip-rule="evenodd" d="M151.327 129.05C150.051 128.283 148.755 127.455 147.486 126.566C144.69 124.558 142.125 122.248 139.836 119.677C136.241 115.83 133.878 110.996 133.049 105.796C132.812 104.206 132.898 102.584 133.302 101.027C133.706 99.471 134.42 98.0121 135.401 96.7379C136.382 95.4636 137.61 94.4003 139.011 93.6115C140.412 92.8226 141.958 92.3246 143.556 92.1469C145.155 91.9693 146.772 92.1158 148.313 92.5776C149.853 93.0395 151.284 93.8073 152.521 94.8351C153.758 95.8628 154.775 97.1294 155.511 98.5592C156.247 99.9889 156.687 101.552 156.805 103.156C156.805 103.027 156.771 102.749 156.642 102.796C154.891 103.441 158.821 106.19 160.422 107.826C163.816 111.301 167.495 114.613 170.156 116.867C169.921 116.697 169.671 116.549 169.409 116.426C169.409 116.426 172.687 118.774 173.298 120.172C174.35 122.582 175.463 124.923 174.452 127.638C173.604 129.919 172.565 132.593 169.986 134.738C167.108 137.127 162.649 139.625 157.769 142.354C153.072 144.98 147.811 147.41 145.748 152.066C145.42 153.265 144.63 154.285 143.55 154.901C142.471 155.517 141.191 155.679 139.992 155.352C138.793 155.024 137.774 154.233 137.158 153.154C136.542 152.075 136.379 150.795 136.707 149.596C137.216 145.204 139.49 141.363 142.212 137.541C144.289 134.657 148.124 131.677 151.327 129.05ZM154.945 125.928C156.839 124.082 157.66 122.602 156.133 121.74C155.583 121.428 155.271 122.616 155.223 123.098C155.075 124.035 154.982 124.98 154.945 125.928Z" fill="#005000"/><path fill-rule="evenodd" clip-rule="evenodd" d="M182.783 121.238C179.851 120.6 176.817 119.786 173.641 119.27C171.539 118.918 169.421 118.673 167.294 118.537C159.082 118.025 150.84 118.197 142.656 119.053C141.425 118.879 140.175 119.202 139.181 119.949C138.188 120.697 137.532 121.809 137.358 123.04C137.185 124.272 137.507 125.522 138.255 126.515C139.003 127.509 140.115 128.164 141.346 128.338C149.315 131.426 156.903 136.415 165.38 140.236C168.998 141.872 172.724 142.951 176.159 144.221C177.668 144.654 179.248 144.785 180.807 144.608C182.367 144.431 183.877 143.948 185.25 143.187C186.624 142.427 187.834 141.403 188.812 140.175C189.789 138.946 190.515 137.537 190.949 136.028C191.382 134.519 191.514 132.94 191.336 131.38C191.159 129.82 190.676 128.31 189.916 126.937C189.155 125.563 188.131 124.353 186.903 123.375C185.674 122.398 184.265 121.672 182.756 121.238H182.783Z" fill="#005000"/><path fill-rule="evenodd" clip-rule="evenodd" d="M49.2593 48.0965C53.3792 60.5582 57.1055 75.925 55.2254 89.6084C54.1666 97.3054 51.3701 104.541 44.8406 109.631C37.3066 115.74 22.6389 120.084 13.4351 127.781C7.44182 132.797 3.09107 138.79 2.02545 146.44C0.443974 157.917 2.89425 168.275 7.72012 177.879C13.9781 190.348 24.071 201.452 30.9874 212.604C33.8281 217.187 36.2563 222.014 38.2432 227.027C40.2794 232.111 42.0102 237.337 43.6732 242.842C43.8274 243.437 44.0973 243.996 44.4677 244.487C44.838 244.978 45.3014 245.392 45.8314 245.704C46.3615 246.016 46.9478 246.22 47.5569 246.306C48.166 246.391 48.786 246.356 49.3814 246.201C49.9768 246.047 50.536 245.777 51.0271 245.407C51.5182 245.037 51.9315 244.573 52.2435 244.043C52.5555 243.513 52.76 242.927 52.8454 242.318C52.9308 241.709 52.8954 241.089 52.7412 240.493C51.3275 233.562 49.5145 226.718 47.3112 219.995C45.749 215.389 43.8549 210.902 41.6437 206.57C35.9016 195.309 27.0236 183.886 21.9941 171.417C19.2316 164.569 17.9216 157.374 19.6321 149.603C20.5687 145.299 24.519 143.032 28.5915 140.779C38.3993 135.349 50.7729 131.955 57.8725 126.967C69.608 118.469 75.6216 106.441 77.8615 93.0768C80.7326 76.02 76.8502 56.5536 72.0107 40.8136C71.5947 39.2467 70.8645 37.7808 69.8644 36.5049C68.8643 35.229 67.6152 34.1698 66.1931 33.3915C64.771 32.6133 63.2055 32.1323 61.5918 31.9778C59.978 31.8233 58.3497 31.9984 56.8058 32.4927C55.2618 32.9869 53.8344 33.7898 52.6104 34.8528C51.3863 35.9157 50.3912 37.2164 49.6854 38.6758C48.9795 40.1352 48.5778 41.7229 48.5046 43.3424C48.4313 44.9618 48.6881 46.5793 49.2593 48.0965Z" fill="#005000"/><path fill-rule="evenodd" clip-rule="evenodd" d="M39.1646 222.819C39.3818 220.654 39.6873 218.495 40.0878 216.385C41.6828 207.988 45.0154 200.366 49.9431 194.481C52.0205 192.083 54.9656 190.608 58.1307 190.38C61.2957 190.153 64.4214 191.193 66.8201 193.27C69.2188 195.347 70.694 198.292 70.9212 201.457C71.1484 204.622 70.109 207.748 68.0316 210.147C64.6379 213.927 63.07 219.405 62.0722 225.079C60.9157 231.859 60.4112 238.735 60.5655 245.611C60.5655 245.978 60.6944 249.107 60.7555 250.362C61.2035 259.186 52.7328 262.173 52.7328 262.173C50.5879 262.464 46.6241 262.912 43.2304 259.417C41.7168 257.856 38.8999 253.227 38.4045 252.426C32.1057 241.98 25.5898 230.319 18.1847 219.588C13.3045 212.516 8.21393 205.884 2.43103 200.441C1.53509 199.641 0.980823 198.527 0.882813 197.33C0.784802 196.133 1.15057 194.944 1.90445 194.008C2.65833 193.073 3.74272 192.463 4.93344 192.305C6.12417 192.147 7.33018 192.452 8.30218 193.158C15.5037 198.031 22.2232 204.269 28.7052 211.097C32.3297 214.871 35.7981 218.828 39.1646 222.819Z" fill="#005000"/></svg>