<svg width="246" height="336" viewBox="0 0 246 336" fill="none" xmlns="http://www.w3.org/2000/svg"><path fill-rule="evenodd" clip-rule="evenodd" d="M180.626 178.181C181.15 178.198 181.658 178.365 182.091 178.66C182.524 178.956 182.864 179.368 183.071 179.85C183.279 180.331 183.345 180.862 183.262 181.379C183.179 181.897 182.951 182.38 182.604 182.773C181.981 183.288 181.337 183.877 180.382 183.741C179.912 183.728 179.45 183.615 179.028 183.41C178.488 183.076 177.972 182.704 177.483 182.299C176.003 181.107 174.594 179.829 173.264 178.472C172.668 177.896 172.045 177.361 171.428 176.806C170.02 175.539 168.543 174.341 167.236 172.979C166.416 172.126 165.651 171.239 164.92 170.338C163.788 168.943 162.827 167.527 161.702 166.274C161.424 166.036 161.252 165.697 161.223 165.332C161.194 164.967 161.312 164.605 161.55 164.327C161.788 164.049 162.127 163.876 162.492 163.847C162.857 163.819 163.219 163.937 163.497 164.175C165.08 165.181 166.594 166.292 168.028 167.5C168.618 168.001 169.193 168.53 169.742 169.098C171.482 170.92 172.952 173.054 174.815 174.767C175.591 175.479 176.428 176.122 177.314 176.691C178.179 177.23 179.085 177.701 180.023 178.1C180.222 178.14 180.423 178.167 180.626 178.181V178.181ZM179.109 178.574C178.849 178.686 178.627 178.872 178.472 179.109C178.655 178.898 178.87 178.717 179.109 178.574V178.574Z" fill="#005000"/><path fill-rule="evenodd" clip-rule="evenodd" d="M170.08 174.862C171.787 172.227 173.426 172.417 174.273 173.704C175.966 174.083 176.731 175.736 174.273 178.33C174.239 178.397 174.205 178.465 174.164 178.533C173.973 178.771 173.744 178.977 173.487 179.143C172.81 179.82 171.78 180.775 170.873 181.709C169.965 182.644 169.315 183.416 168.929 183.809C167.732 185.518 166.67 187.319 165.752 189.193C165.299 190.033 164.858 190.88 164.344 191.659C163.119 193.532 161.663 195.244 160.009 196.752C159.771 197.03 159.432 197.203 159.067 197.231C158.702 197.26 158.34 197.142 158.062 196.904C157.783 196.666 157.611 196.328 157.582 195.962C157.554 195.597 157.671 195.236 157.909 194.957C158.647 193.645 159.3 192.288 159.867 190.893C160.294 189.959 160.727 189.011 161.221 188.083C162.543 185.635 164.163 183.36 166.044 181.31C166.348 180.89 166.972 180.05 167.595 179.082C168.218 178.113 168.895 176.914 169.356 176.095C169.453 175.685 169.643 175.302 169.911 174.977L170.08 174.862Z" fill="#005000"/><path fill-rule="evenodd" clip-rule="evenodd" d="M169.629 204.568C169.388 204.861 169.087 205.099 168.748 205.269C168.408 205.438 168.037 205.534 167.658 205.55C167.234 205.576 166.808 205.513 166.409 205.368C166.009 205.222 165.644 204.996 165.335 204.704C165.024 204.407 164.788 204.04 164.646 203.634C164.505 203.227 164.463 202.793 164.522 202.367C164.585 201.94 164.733 201.53 164.959 201.162C165.185 200.794 165.484 200.476 165.836 200.227C166.595 199.678 168.363 198.73 169.954 197.795C170.661 197.431 171.327 196.99 171.939 196.481C173.293 195.018 175.467 192.932 177.784 190.887C179.179 189.654 180.615 188.442 182.01 187.426C184.204 185.834 186.331 184.771 188.018 184.636C188.438 184.592 188.863 184.655 189.253 184.82C189.642 184.984 189.984 185.245 190.246 185.577C190.618 186.069 190.852 186.651 190.923 187.263C191.002 188.003 190.984 188.75 190.869 189.485C190.557 191.387 189.917 193.22 188.979 194.903C188.227 196.34 187.39 197.731 186.473 199.069C185.044 201.155 183.5 203.071 182.538 204.67C181.685 206.024 180.066 207.948 178.976 209.716C178.73 210.081 178.504 210.458 178.298 210.847C178.353 210.976 178.387 211.113 178.4 211.253C178.449 211.479 178.452 211.712 178.41 211.938C178.368 212.165 178.282 212.382 178.156 212.575C178.03 212.768 177.867 212.935 177.676 213.065C177.486 213.195 177.271 213.286 177.045 213.332C176.429 213.475 175.081 213.163 175.156 211.26C175.268 210.182 175.581 209.135 176.077 208.171C176.944 206.289 178.346 204.216 179.043 202.753C179.91 201.006 181.272 198.825 182.687 196.59C183.493 195.316 184.333 194.043 185.037 192.783C185.742 191.637 186.28 190.396 186.636 189.099C185.243 189.76 183.943 190.6 182.769 191.598C181.65 192.504 180.587 193.477 179.585 194.51C178.075 196.071 176.652 197.715 175.325 199.434C174.37 200.708 170.984 204.738 169.629 204.568ZM168.017 200.071C167.809 200.018 167.593 200.005 167.381 200.03C167.587 200.018 167.794 200.032 167.997 200.071H168.017Z" fill="#005000"/><path fill-rule="evenodd" clip-rule="evenodd" d="M184.689 199.102C184.257 198.98 183.832 198.833 183.416 198.662C183.004 198.48 182.614 198.253 182.251 197.985C182.018 197.782 181.807 197.555 181.621 197.308C181.154 196.739 180.836 196.082 180.348 195.52C180.178 195.313 179.985 195.126 179.772 194.964C178.97 194.451 178.111 194.033 177.212 193.718C176.934 193.48 176.572 193.362 176.207 193.391C175.842 193.42 175.503 193.592 175.265 193.87C175.027 194.149 174.909 194.51 174.938 194.876C174.966 195.241 175.139 195.58 175.417 195.818C175.763 196.42 175.946 196.969 176.291 197.565C176.413 197.806 176.56 198.033 176.731 198.242C177.409 199.014 178.384 199.489 179.129 200.206C179.322 200.389 179.499 200.588 179.657 200.802C180.233 201.649 180.599 202.441 181.147 203.302C181.712 203.749 182.429 203.958 183.146 203.884C183.862 203.811 184.522 203.46 184.984 202.907C185.446 202.354 185.673 201.643 185.618 200.925C185.563 200.206 185.23 199.538 184.689 199.062V199.102Z" fill="#005000"/><path fill-rule="evenodd" clip-rule="evenodd" d="M196.082 193.813L196.285 193.583C196.622 193.199 197.051 192.908 197.532 192.736C197.917 192.596 198.333 192.558 198.737 192.628C199.326 192.693 199.875 192.961 200.288 193.386C200.742 193.732 201.446 194.741 200.803 196.563C200.649 196.849 200.477 197.125 200.288 197.389C199.919 197.838 199.416 198.156 198.852 198.296C197.423 199.428 195.263 201.229 194.579 201.879C193.786 202.78 193.021 203.688 192.323 204.643C190.623 206.986 189.296 209.553 187.535 211.829C186.869 212.665 186.157 213.463 185.401 214.22C183.952 215.574 182.279 217.342 181.527 218.161C181.439 218.257 181.344 218.345 181.243 218.425C181.199 218.515 181.142 218.597 181.073 218.669C181.019 218.749 180.95 218.818 180.87 218.872C180.735 219.007 180.567 219.105 180.384 219.156C180.2 219.207 180.006 219.209 179.82 219.164C179.265 219.164 178.466 218.771 178.669 217.416C178.722 217.277 178.783 217.142 178.852 217.01L179.17 216.448C179.739 215.432 181.06 213.237 182.232 211.51C182.773 210.833 183.254 210.061 183.769 209.343C184.121 208.862 184.487 208.388 184.853 207.914C186.397 205.882 187.995 203.986 189.594 201.981C190.271 201.107 190.948 200.206 191.626 199.339C192.303 198.351 194.863 195.276 196.021 193.921L196.062 193.881L196.082 193.813ZM199.773 197.592L199.956 197.484C199.915 197.499 199.876 197.519 199.841 197.545L199.773 197.592Z" fill="#005000"/><path fill-rule="evenodd" clip-rule="evenodd" d="M204.394 205.279C203.069 205.26 201.745 205.399 200.452 205.692C198.339 206.227 196.064 207.338 193.835 207.833C193.28 207.951 192.716 208.028 192.149 208.063C190.768 208.198 189.378 208.198 187.997 208.063C187.632 208.084 187.272 207.96 186.999 207.717C186.725 207.473 186.559 207.131 186.538 206.766C186.516 206.4 186.641 206.041 186.884 205.767C187.127 205.494 187.469 205.328 187.835 205.306C188.349 205.171 188.898 204.927 189.555 204.69C190.381 204.385 191.255 204.013 192.264 203.66C192.894 203.457 193.558 203.301 194.228 203.146C195.813 202.78 197.472 202.597 198.969 202.211C199.599 202.042 200.188 201.839 200.744 201.629C201.814 201.229 202.721 200.843 203.453 200.558C204.314 200.221 205.239 200.076 206.162 200.132C206.663 200.204 207.133 200.418 207.517 200.748C208.034 201.189 208.372 201.805 208.464 202.478C208.556 203.152 208.396 203.836 208.016 204.4C207.635 204.963 207.06 205.366 206.401 205.532C205.741 205.698 205.044 205.615 204.442 205.299L204.394 205.279ZM204.537 205.279L204.814 205.401C204.855 205.401 204.943 205.401 205.024 205.36C204.958 205.321 204.884 205.295 204.807 205.286L204.537 205.279ZM204.13 205.117C204.049 205.062 203.974 205.001 203.9 204.94C203.96 205.019 204.039 205.079 204.13 205.117V205.117Z" fill="#005000"/><path fill-rule="evenodd" clip-rule="evenodd" d="M193.333 206.986C193.342 206.36 193.564 205.756 193.963 205.272C194.396 204.907 194.64 204.649 194.755 204.595C195.008 204.424 195.278 204.281 195.561 204.168C196.794 203.979 197.593 204.06 198.121 204.629C198.467 205.029 199.009 205.394 199.049 206.119C199.197 206.772 199.093 207.456 198.758 208.036C198.657 208.178 198.487 208.395 198.277 208.659C198.277 208.659 198.277 208.747 198.23 208.801C198.13 208.924 198.019 209.037 197.898 209.14C197.41 209.749 196.801 210.494 196.239 211.233C195.677 211.971 195.101 212.824 194.884 213.203C194.058 215.019 193.699 216.847 193.042 218.574C192.698 219.451 192.279 220.296 191.789 221.101C191.135 222.004 190.533 222.945 189.987 223.918C189.859 224.148 189.703 224.392 189.588 224.596C189.611 224.785 189.594 224.976 189.538 225.158C189.482 225.341 189.388 225.509 189.263 225.652C189.143 225.858 188.978 226.034 188.779 226.166C188.581 226.297 188.354 226.381 188.118 226.411C187.441 226.614 186.499 226.221 186.418 224.616C186.558 223.215 186.86 221.836 187.319 220.505C187.51 219.938 187.736 219.384 187.996 218.845L191.538 211.456C191.728 211.002 192.216 210.102 192.71 209.086C192.977 208.405 193.185 207.702 193.333 206.986V206.986Z" fill="#005000"/><path fill-rule="evenodd" clip-rule="evenodd" d="M209.988 206.342C210.112 206.165 210.258 206.003 210.422 205.862C210.577 205.711 210.758 205.589 210.957 205.503C211.295 205.311 211.679 205.213 212.068 205.218C213.016 205.056 213.612 205.618 214.167 206.071C214.513 206.363 215.217 207.338 214.634 209.106C214.634 209.173 214.499 209.309 214.364 209.56C214.364 209.62 214.248 209.736 214.12 209.939C213.859 210.264 213.528 210.525 213.151 210.704C212.176 211.625 210.787 212.96 210.097 213.603C209.013 214.775 207.875 215.892 206.839 217.105C205.146 219.089 203.696 221.256 202.03 223.261C201.312 224.121 200.547 224.934 199.809 225.767C198.454 227.013 196.097 229.499 195.169 230.508L194.871 230.806L194.83 230.853C193.842 232.344 192.385 232.486 192.121 231.395C191.769 230.901 191.85 230.041 192.555 229.262C192.636 229.093 192.731 228.923 192.832 228.747C193.51 227.535 195.46 224.514 196.524 222.963C197.201 222.103 197.878 221.216 198.65 220.376C200.371 218.418 202.287 216.651 203.987 214.673C205.024 213.461 205.952 212.16 206.934 210.907L209.399 207.284C209.502 207.005 209.648 206.745 209.832 206.512C209.914 206.437 209.975 206.336 210.002 206.363L209.988 206.342ZM213.835 210.061L213.937 209.993C214.008 209.929 214.076 209.861 214.14 209.79L214.038 209.864L213.835 210.061Z" fill="#005000"/><path fill-rule="evenodd" clip-rule="evenodd" d="M214.906 213.339C214.986 212.876 215.184 212.442 215.482 212.079C220.433 207.284 221.93 212.486 220.48 214.565L220.067 215.1C220.121 215.174 219.905 215.351 219.776 215.554C219.649 215.713 219.503 215.856 219.342 215.98C218.577 216.908 217.561 218.127 216.633 219.286C215.543 220.64 214.642 221.941 214.405 222.306C212.736 225.365 210.716 228.218 208.384 230.806C207.476 231.815 206.487 232.75 205.499 233.671C203.995 235.073 202.451 236.34 201.029 237.681C200.911 237.819 200.767 237.932 200.605 238.014C200.444 238.096 200.267 238.146 200.086 238.16C199.906 238.174 199.724 238.153 199.551 238.097C199.379 238.041 199.219 237.951 199.081 237.833C198.943 237.715 198.83 237.571 198.748 237.41C198.666 237.248 198.616 237.072 198.602 236.891C198.588 236.71 198.609 236.528 198.665 236.356C198.722 236.184 198.811 236.024 198.929 235.886C200.419 233.732 201.983 231.497 203.731 229.337C204.483 228.415 205.282 227.535 206.068 226.627C207.914 224.662 209.614 222.563 211.154 220.349C211.378 219.949 212.312 218.561 213.247 216.962C213.87 215.788 214.425 214.578 214.906 213.339V213.339Z" fill="#005000"/><path fill-rule="evenodd" clip-rule="evenodd" d="M215.683 216.441C215.415 216.061 215.249 215.617 215.202 215.154C215.152 214.672 215.193 214.185 215.324 213.718C215.444 213.313 215.657 212.942 215.947 212.633C216.236 212.325 216.593 212.089 216.99 211.944C217.35 211.799 217.736 211.737 218.123 211.76C218.51 211.784 218.886 211.893 219.225 212.079C219.601 212.281 219.928 212.562 220.183 212.904C220.439 213.246 220.615 213.639 220.702 214.057C220.985 215.351 220.985 216.691 220.702 217.985C220.37 219.13 220.024 220.234 219.632 221.318C219.069 222.929 218.467 224.508 217.81 226.133C217.342 227.366 215.737 231.118 214.423 235.134C213.963 236.489 213.536 237.904 213.177 239.198C214.437 237.708 215.71 236.225 217.031 234.775C220.648 230.82 224.481 227.081 228.159 223.146C228.226 223.078 228.362 222.923 228.504 222.747C228.555 222.527 228.657 222.323 228.802 222.151C230.631 219.76 231.897 222.496 231.701 223.092C231.348 223.799 230.943 224.478 230.489 225.124C227.725 228.68 224.975 232.215 222.104 235.669C220.668 237.385 219.212 239.078 217.735 240.749C216.266 242.415 214.762 244.034 213.285 245.686C212.949 246.326 212.545 246.928 212.08 247.481C211.651 247.854 211.104 248.065 210.536 248.077C209.952 248.086 209.387 247.876 208.951 247.488C208.52 247.108 208.221 246.6 208.097 246.039C207.947 245.217 207.947 244.375 208.097 243.553C208.45 241.25 209.655 237.525 210.807 233.908C212.1 229.845 213.326 225.923 213.726 224.65C214.125 223.376 214.511 222.015 214.85 220.694C215.189 219.374 215.453 218.121 215.697 216.766C215.705 216.658 215.701 216.548 215.683 216.441V216.441ZM220.709 214.829C220.718 214.744 220.718 214.657 220.709 214.572C220.688 214.66 220.695 214.741 220.695 214.829H220.709Z" fill="#005000"/><path fill-rule="evenodd" clip-rule="evenodd" d="M235.832 249.201C235.959 250.42 235.879 251.652 235.595 252.845C235.372 253.71 234.949 254.511 234.361 255.184C233.773 255.856 233.036 256.382 232.209 256.719C230.623 257.503 228.987 258.182 227.312 258.751C225.878 259.223 224.348 259.328 222.862 259.056C220.952 258.588 219.395 257.342 219.185 254.443C218.927 250.922 220.065 247.671 221.975 244.65C223.294 242.647 224.795 240.769 226.459 239.042C228.071 237.315 229.743 235.655 231.335 234.118C232.398 233.068 238.298 230.474 241.325 230.257C242.079 230.155 242.846 230.279 243.53 230.613C244.213 230.947 244.782 231.476 245.165 232.134C245.646 233 245.843 234.707 244 237.125C243.767 237.402 243.481 237.631 243.16 237.798C242.838 237.965 242.486 238.066 242.125 238.097C241.764 238.128 241.401 238.087 241.055 237.978C240.71 237.868 240.39 237.691 240.113 237.457C239.836 237.227 239.608 236.945 239.442 236.626C239.276 236.308 239.175 235.959 239.144 235.601C237.813 235.881 236.508 236.273 235.243 236.773C234.865 236.89 234.502 237.049 234.159 237.247C232.547 238.602 230.773 240.058 229.208 241.677C227.703 243.182 226.378 244.857 225.26 246.668C223.842 248.848 223.197 251.441 223.431 254.03C223.445 254.271 223.519 254.504 223.648 254.708C223.756 254.85 223.959 254.769 224.156 254.775C224.537 254.769 224.916 254.721 225.287 254.633C227.098 254.138 228.861 253.483 230.556 252.676C232.026 252.141 231.951 250.576 231.958 249.371C231.958 247.82 231.958 246.478 232.188 245.889C232.663 244.826 234.166 243.343 236.882 245.923C237.824 246.824 239.402 247.163 240.546 247.765C241.009 247.99 241.438 248.28 241.819 248.625C242.098 248.863 242.27 249.202 242.299 249.568C242.328 249.933 242.21 250.294 241.972 250.573C241.734 250.851 241.395 251.024 241.03 251.052C240.665 251.081 240.303 250.963 240.025 250.725C239.515 250.417 238.956 250.199 238.372 250.082C237.568 249.87 236.779 249.607 236.008 249.296L235.832 249.201ZM234.281 248.158C234.065 247.975 233.895 247.847 233.841 247.969C233.733 248.253 233.97 248.253 234.281 248.158Z" fill="#005000"/><path fill-rule="evenodd" clip-rule="evenodd" d="M165.809 211.3L165.477 212.655C165.118 212.565 164.738 212.622 164.42 212.812C164.103 213.003 163.874 213.312 163.784 213.671C163.694 214.03 163.751 214.41 163.941 214.728C164.132 215.045 164.441 215.274 164.8 215.364L164.482 216.719C164.836 216.81 165.206 216.83 165.568 216.777C165.931 216.725 166.279 216.601 166.593 216.412C166.907 216.224 167.181 215.975 167.398 215.679C167.614 215.384 167.771 215.049 167.857 214.693C167.943 214.337 167.958 213.967 167.9 213.606C167.842 213.244 167.712 212.897 167.519 212.586C167.326 212.275 167.073 212.005 166.775 211.792C166.477 211.58 166.139 211.429 165.782 211.348L165.809 211.3Z" fill="#005000"/><path fill-rule="evenodd" clip-rule="evenodd" d="M173.111 216.57C172.447 216.456 171.8 216.265 171.181 216.001C170.151 215.526 169.184 214.926 168.302 214.213C167.801 213.778 167.33 213.31 166.893 212.811C165.837 211.639 164.95 210.291 163.927 209.072C163.559 208.619 163.166 208.187 162.748 207.778C161.276 206.39 159.667 205.154 157.946 204.087C157.809 203.969 157.649 203.88 157.476 203.824C157.304 203.768 157.122 203.746 156.941 203.76C156.76 203.774 156.584 203.824 156.423 203.906C156.261 203.988 156.117 204.102 155.999 204.24C155.881 204.377 155.792 204.537 155.736 204.71C155.68 204.882 155.658 205.064 155.672 205.245C155.686 205.426 155.736 205.602 155.818 205.763C155.9 205.925 156.014 206.069 156.152 206.187C157.113 207.304 157.946 208.672 158.949 210.081C159.199 210.433 159.457 210.758 159.741 211.117C160.161 211.625 160.622 212.099 161.096 212.58C162.132 213.644 163.256 214.612 164.313 215.642C164.787 216.095 165.254 216.549 165.668 216.996L167.056 218.439C168.215 219.684 169.533 220.771 170.977 221.67C171.313 221.808 171.672 221.88 172.035 221.88C172.398 221.879 172.757 221.808 173.092 221.669C173.428 221.53 173.732 221.326 173.989 221.069C174.245 220.813 174.449 220.508 174.587 220.173C174.726 219.837 174.798 219.478 174.797 219.115C174.797 218.752 174.726 218.393 174.587 218.058C174.448 217.723 174.244 217.418 173.987 217.162C173.731 216.905 173.426 216.702 173.091 216.563L173.111 216.57Z" fill="#005000"/><path fill-rule="evenodd" clip-rule="evenodd" d="M167.325 217.118C167.129 217.795 165.212 218.568 164.433 219.563C163.831 220.342 163.279 221.159 162.781 222.008C162.007 223.318 161.084 224.534 160.031 225.632C159.421 226.309 158.791 227.034 158.121 227.697C157.694 228.124 157.24 228.503 156.82 228.896C156.205 229.412 155.644 229.991 155.148 230.623C154.904 230.976 154.606 231.24 154.585 231.592C154.62 231.956 154.509 232.32 154.276 232.603C154.043 232.885 153.707 233.064 153.343 233.099C152.978 233.134 152.614 233.023 152.332 232.789C152.049 232.556 151.871 232.221 151.836 231.856C151.477 230.427 152.106 228.693 153.19 226.837C153.892 225.68 154.744 224.621 155.723 223.688C157.173 222.286 158.757 221.114 159.475 220.058C159.604 219.841 160.153 219.062 160.695 218.026C161.599 216.234 162.631 214.509 163.783 212.865C164.09 212.541 164.446 212.269 164.84 212.059C165.189 211.887 165.569 211.786 165.957 211.761C166.763 211.585 167.379 212.045 168.043 212.438C168.32 212.673 168.548 212.96 168.713 213.283C168.879 213.606 168.979 213.959 169.008 214.321C169.037 214.682 168.994 215.046 168.882 215.392C168.77 215.737 168.591 216.057 168.355 216.333C168.08 216.674 167.727 216.943 167.325 217.118ZM165.402 217.179C165.066 217.069 164.756 216.894 164.487 216.664C164.722 216.939 165.046 217.121 165.402 217.179Z" fill="#005000"/><path fill-rule="evenodd" clip-rule="evenodd" d="M165.485 241.352C165.442 241.578 165.339 241.789 165.187 241.961C165.044 242.232 164.814 242.447 164.533 242.57C164.253 242.693 163.939 242.717 163.643 242.639C163.121 242.639 162.823 242.212 162.539 241.643C162.461 241.282 162.473 240.908 162.573 240.553C162.788 239.777 163.055 239.017 163.372 238.277C163.92 237.183 164.528 236.12 165.194 235.094C165.648 234.416 166.19 233.814 166.731 233.164C167.876 231.985 169.068 230.867 170.219 229.689C170.7 229.195 171.195 228.693 171.642 228.165C172.387 227.271 173.05 226.336 173.721 225.381C174.391 224.426 174.967 223.458 175.59 222.476C175.822 222.184 176.111 221.942 176.439 221.764C176.767 221.586 177.127 221.477 177.499 221.443C177.87 221.408 178.244 221.449 178.599 221.563C178.955 221.677 179.283 221.862 179.565 222.106C179.846 222.35 180.076 222.649 180.239 222.984C180.402 223.32 180.496 223.685 180.515 224.057C180.533 224.43 180.476 224.802 180.347 225.152C180.217 225.502 180.019 225.822 179.762 226.093C178.848 226.871 177.941 227.589 177.053 228.375C176.166 229.161 175.286 229.892 174.466 230.719C173.978 231.213 173.531 231.741 173.111 232.276C172.082 233.502 171.127 234.782 170.165 236.069C169.65 236.652 169.203 237.254 168.709 237.803C167.937 238.663 167.124 239.435 166.318 240.322L165.485 241.352Z" fill="#005000"/><path fill-rule="evenodd" clip-rule="evenodd" d="M179.845 227.054C179.6 227.976 179.297 228.881 178.937 229.763C178.549 230.666 178.096 231.54 177.583 232.378C177.23 232.938 176.843 233.476 176.424 233.99C175.47 235.209 174.338 236.306 173.336 237.498C172.977 237.925 172.659 238.358 172.313 238.812C171.148 240.505 170.281 242.198 169.36 243.648C169.123 243.926 169.006 244.288 169.036 244.652C169.065 245.017 169.238 245.355 169.516 245.592C169.795 245.829 170.156 245.946 170.52 245.916C170.885 245.887 171.223 245.714 171.46 245.436C172.483 244.583 173.6 243.695 174.738 242.625C175.198 242.216 175.63 241.777 176.032 241.311C177.495 239.577 178.639 237.491 179.946 235.629C180.285 235.148 180.624 234.674 180.983 234.234C182.391 232.506 183.753 231.003 184.769 229.493C185.07 228.838 185.104 228.091 184.863 227.412C184.622 226.733 184.125 226.175 183.478 225.857C182.832 225.539 182.086 225.486 181.401 225.71C180.716 225.933 180.145 226.416 179.811 227.054H179.845Z" fill="#005000"/><path fill-rule="evenodd" clip-rule="evenodd" d="M174.531 238.446L174.422 238.284C173.934 237.803 173.418 237.351 172.878 236.929C172.659 236.728 172.466 236.5 172.302 236.252C171.897 235.527 171.601 234.747 171.422 233.936C171.207 233.638 171.119 233.268 171.178 232.906C171.236 232.544 171.436 232.22 171.733 232.005C172.031 231.791 172.401 231.703 172.763 231.761C173.125 231.82 173.449 232.02 173.664 232.317C173.853 232.432 174.097 232.473 174.436 232.649C174.853 232.833 175.251 233.06 175.621 233.326C175.857 233.526 176.069 233.753 176.251 234.003C176.725 234.626 177.003 235.358 177.429 235.981C177.562 236.168 177.712 236.343 177.876 236.503C178.353 236.971 178.805 237.464 179.231 237.979C179.529 238.311 179.488 238.656 179.658 238.968C179.759 239.151 179.658 239.327 179.725 239.496C179.793 239.665 179.671 239.821 179.725 239.984C179.861 240.573 179.292 240.864 179.143 241.406C178.71 241.924 178.103 242.265 177.436 242.366C176.769 242.467 176.088 242.32 175.522 241.954C174.955 241.587 174.542 241.026 174.361 240.376C174.18 239.727 174.242 239.033 174.537 238.426L174.531 238.446ZM174.619 238.602C174.598 238.716 174.554 238.824 174.49 238.92C174.395 239.042 174.571 239.212 174.49 239.367C174.409 239.523 174.632 239.55 174.605 239.679C174.578 239.808 174.659 239.72 174.707 239.733C174.619 239.665 174.876 239.32 174.795 239.09C174.745 238.924 174.686 238.761 174.619 238.602V238.602ZM174.68 238.182C174.746 238.075 174.821 237.973 174.903 237.877C174.844 237.907 174.793 237.95 174.754 238.003C174.716 238.056 174.69 238.117 174.68 238.182V238.182Z" fill="#005000"/><path fill-rule="evenodd" clip-rule="evenodd" d="M180.464 254.931C180.671 254.985 180.863 255.085 181.027 255.222C181.171 255.341 181.289 255.488 181.373 255.655C181.458 255.821 181.507 256.003 181.518 256.19C181.528 256.376 181.501 256.562 181.436 256.737C181.371 256.913 181.271 257.072 181.142 257.207C180.654 257.918 179.625 258.128 178.358 257.105C177.448 256.233 176.678 255.225 176.076 254.118C175.235 252.723 174.635 251.196 174.301 249.601C174.085 248.522 174.243 247.402 174.748 246.424C175.619 245.085 176.61 243.826 177.708 242.665C179.283 240.988 180.986 239.435 182.801 238.019C184.779 236.184 186.248 235.622 187.495 235.507C189.283 235.344 190.983 236.57 194.268 238.758C194.831 239.227 195.184 239.901 195.25 240.632C195.316 241.362 195.089 242.089 194.62 242.652C194.15 243.215 193.476 243.569 192.745 243.635C192.015 243.701 191.288 243.474 190.725 243.004C189.709 241.934 188.985 241.06 188.307 240.437C188.133 240.249 187.94 240.079 187.732 239.929C187.657 239.882 187.63 239.767 187.549 239.76C186.939 239.719 186.296 240.16 185.239 240.938C183.935 242.093 182.707 243.33 181.562 244.643C180.495 245.857 179.547 247.17 178.731 248.565C178.731 248.599 178.67 248.687 178.643 248.727L178.731 248.565C178.223 248.477 178.731 249.763 178.886 250.502C179.17 252.057 179.695 253.559 180.444 254.952L180.464 254.931Z" fill="#005000"/><path fill-rule="evenodd" clip-rule="evenodd" d="M185.633 251.112C185.633 251.112 185.687 251.112 185.687 251.078C185.687 250.949 185.734 250.807 185.687 250.644C185.557 250.204 185.365 249.785 185.118 249.398C184.942 249.168 184.74 248.958 184.515 248.775C183.994 248.314 183.35 247.996 182.829 247.542C182.635 247.382 182.46 247.2 182.307 247C181.758 246.224 181.322 245.374 181.014 244.474C180.785 244.188 180.679 243.822 180.719 243.457C180.76 243.093 180.944 242.759 181.23 242.53C181.517 242.301 181.883 242.195 182.247 242.236C182.612 242.277 182.945 242.46 183.174 242.747C183.377 242.869 183.689 242.91 184.116 243.126C184.629 243.331 185.114 243.602 185.558 243.932C186.351 244.61 186.852 245.7 187.59 246.465C187.796 246.688 188.023 246.89 188.267 247.068C189.008 247.605 189.707 248.195 190.36 248.836C190.733 249.202 190.658 249.628 190.828 249.933C190.896 250.641 190.688 251.348 190.249 251.907C189.809 252.465 189.171 252.833 188.467 252.934C187.763 253.034 187.047 252.859 186.469 252.445C185.891 252.031 185.494 251.411 185.362 250.712C185.354 250.696 185.349 250.679 185.349 250.661C185.349 250.643 185.354 250.626 185.362 250.61V250.712C185.409 250.8 185.518 250.881 185.504 251.01C185.491 251.139 185.64 251.112 185.633 251.112Z" fill="#005000"/><path fill-rule="evenodd" clip-rule="evenodd" d="M126.011 245.618C125.957 245.919 125.802 246.193 125.572 246.395C125.342 246.596 125.05 246.714 124.745 246.729C124.472 246.789 124.187 246.774 123.922 246.684C123.658 246.595 123.422 246.435 123.241 246.221C123.046 246.008 122.917 245.743 122.869 245.459C122.82 245.174 122.856 244.881 122.97 244.616C123.25 244.111 123.581 243.637 123.959 243.2C124.636 242.185 125.192 241.128 125.829 240.085C126.269 239.36 126.709 238.636 127.183 237.958C127.766 237.2 128.399 236.483 129.08 235.811C129.838 235.087 131.111 233.651 132.54 232.005C133.028 231.429 133.536 230.833 134.01 230.217C135.175 228.686 136.266 227.142 137.295 225.957C138.04 225.077 138.923 224.324 139.909 223.728C140.379 223.489 140.889 223.34 141.413 223.288C142.13 223.237 142.839 223.468 143.388 223.933C143.938 224.397 144.284 225.058 144.353 225.774C144.421 226.489 144.208 227.204 143.757 227.765C143.307 228.325 142.655 228.687 141.941 228.774C141.86 229.154 140.736 229.167 140.14 229.634C139.067 230.472 138.066 231.396 137.146 232.398C136.618 232.98 136.137 233.603 135.67 234.213C134.22 236.136 133.035 237.965 132.283 238.846C131.721 239.448 131.24 240.112 130.719 240.735C130.197 241.358 129.574 242.042 128.985 242.686C128.152 243.6 127.305 244.467 126.391 245.307C126.357 245.368 126.187 245.49 126.011 245.618Z" fill="#005000"/><path fill-rule="evenodd" clip-rule="evenodd" d="M137.437 227.406C137.378 226.684 137.604 225.967 138.067 225.408C138.34 225.063 138.693 224.79 139.095 224.611C139.498 224.433 139.938 224.356 140.377 224.386C140.734 224.402 141.084 224.489 141.407 224.641C141.73 224.794 142.02 225.008 142.26 225.273C142.716 225.733 142.978 226.352 142.991 227C142.984 227.535 142.892 228.065 142.72 228.571C142.124 230.393 140.404 234.89 140.079 235.676C139.151 238.108 138.121 240.539 137.281 243.031C137.069 243.655 136.873 244.284 136.692 244.921C137.485 243.966 138.318 242.984 139.144 242.002C140.871 239.97 142.598 237.938 143.966 236.225C144.822 235.198 145.616 234.122 146.344 233.001L146.587 232.574V232.635C146.572 232.27 146.703 231.913 146.95 231.644C147.198 231.374 147.543 231.214 147.908 231.199C148.274 231.184 148.63 231.314 148.9 231.562C149.169 231.81 149.329 232.154 149.344 232.52C149.425 233.001 149.06 234.22 148.172 235.852C146.41 238.982 144.458 242.002 142.327 244.894C140.654 247.183 138.86 249.391 137.342 251.159C136.282 252.431 135.151 253.643 133.956 254.789C133.644 255.099 133.279 255.352 132.879 255.534C132.337 255.758 131.728 255.758 131.186 255.534C130.928 255.437 130.692 255.291 130.491 255.102C130.29 254.914 130.128 254.688 130.014 254.437C129.804 253.984 129.747 253.476 129.852 252.988C129.953 252.493 130.454 251.504 130.624 251.01L132.209 247.068L135.846 234.2C136.022 233.502 137.072 229.316 137.437 227.406ZM141.02 229.804C141.549 229.689 142.015 229.377 142.321 228.93C141.984 229.349 141.532 229.66 141.02 229.824V229.804Z" fill="#005000"/><path fill-rule="evenodd" clip-rule="evenodd" d="M141.462 259.198C141.5 259.476 141.45 259.759 141.32 260.008C141.191 260.257 140.987 260.459 140.737 260.587C140.487 260.715 140.203 260.762 139.926 260.722C139.648 260.682 139.389 260.556 139.186 260.363C138.8 260.132 138.498 259.783 138.326 259.367C138.233 259.132 138.2 258.876 138.229 258.625C138.259 258.373 138.35 258.133 138.495 257.925C138.57 257.776 138.766 257.586 139.003 257.247C139.457 256.57 140.175 255.216 141.184 253.59C141.658 252.832 142.159 252.005 142.755 251.172C144.11 249.249 145.905 247.271 147.401 245.212C148.079 244.311 148.675 243.424 149.216 242.537C149.941 241.338 150.524 240.18 151.018 239.15C151.501 238.25 151.867 237.292 152.109 236.299C152.183 235.935 152.331 235.589 152.542 235.284C152.753 234.978 153.024 234.718 153.338 234.519C153.652 234.32 154.003 234.187 154.37 234.127C154.737 234.067 155.112 234.082 155.473 234.17C155.834 234.259 156.173 234.419 156.471 234.642C156.769 234.864 157.018 235.145 157.205 235.466C157.392 235.788 157.512 236.143 157.558 236.512C157.604 236.881 157.575 237.255 157.473 237.613C157.161 238.446 155.536 240.694 153.301 243.539C152.759 244.216 152.197 244.955 151.655 245.74C149.975 248.179 148.417 251.05 146.704 253.394C146.026 254.288 145.349 255.1 144.733 255.825C143.702 257.006 142.61 258.131 141.462 259.198V259.198Z" fill="#005000"/><path fill-rule="evenodd" clip-rule="evenodd" d="M157.877 245.016C157.98 244.635 158.165 244.281 158.419 243.979C161.501 240.965 167.014 242.374 162.53 247.657C162.57 247.622 162.606 247.583 162.639 247.542C162.608 247.585 162.571 247.624 162.53 247.657L162.476 247.718C161.352 249.073 158.318 252.54 158.033 252.845C157.132 253.881 156.231 254.918 155.425 256.028C154.884 256.767 154.389 257.545 153.902 258.324C152.134 261.176 150.576 264.163 149.066 267.129C149.499 267.671 150.488 268.443 151.057 269.019C152.513 270.482 153.942 271.89 154.301 272.683L154.47 273.116C154.667 273.168 154.85 273.262 155.006 273.394C155.283 273.634 155.454 273.973 155.482 274.339C155.51 274.704 155.392 275.066 155.155 275.345C154.972 275.603 154.716 275.8 154.421 275.911C154.125 276.022 153.802 276.042 153.495 275.968C153.033 275.863 152.618 275.608 152.317 275.243C152.042 274.925 151.797 274.583 151.585 274.22C150.961 273.655 150.28 273.156 149.553 272.73C148.134 271.786 146.825 270.684 145.652 269.445C145.13 268.902 144.786 268.212 144.665 267.468C144.544 266.724 144.652 265.961 144.975 265.28C145.869 263.749 146.77 262.212 147.684 260.702C149.039 258.575 150.488 256.536 151.897 254.457C152.845 253.055 153.725 251.619 154.714 250.251C154.951 249.919 156.922 246.668 157.877 245.016ZM148.991 267.285L148.917 267.434C148.948 267.388 148.973 267.338 148.991 267.285V267.285ZM149.073 267.095C149.201 266.784 149.276 266.418 149.025 266.499C148.775 266.58 148.835 266.804 149.073 267.095Z" fill="#005000"/><path fill-rule="evenodd" clip-rule="evenodd" d="M166.333 281.481C166.619 281.4 166.923 281.414 167.2 281.523C167.477 281.631 167.71 281.828 167.864 282.082C168.018 282.336 168.084 282.633 168.052 282.929C168.02 283.224 167.892 283.501 167.688 283.716C167.132 284.475 166.333 284.61 165.331 284.292C164.505 284.021 163.346 282.978 162.209 281.468C160.733 279.47 159.589 277.247 158.822 274.885C158.405 273.624 158.294 272.282 158.497 270.97C158.928 269.182 159.703 267.496 160.779 266.005C162.92 262.998 166.144 260.587 168.48 257.979L169.835 256.042C169.999 255.768 170.23 255.539 170.505 255.377C170.781 255.215 171.093 255.125 171.413 255.114C171.732 255.106 172.048 255.178 172.331 255.325C172.614 255.472 172.855 255.689 173.032 255.954L174.556 257.885C176.195 259.395 177.834 260.878 179.547 262.3C181.261 263.723 183.008 265.01 184.803 266.324C185.095 266.552 185.339 266.837 185.518 267.162C185.698 267.487 185.811 267.845 185.849 268.214C185.888 268.583 185.851 268.956 185.743 269.311C185.634 269.666 185.454 269.995 185.215 270.279C184.976 270.564 184.682 270.797 184.351 270.965C184.02 271.133 183.659 271.232 183.289 271.257C182.918 271.283 182.547 271.233 182.196 271.111C181.845 270.99 181.522 270.799 181.247 270.55C179.926 269.263 178.653 267.949 177.373 266.622C175.477 264.644 173.607 262.659 171.785 260.6L171.548 260.282L171.426 260.465C169.605 262.727 167.193 264.942 165.283 267.4C164.148 268.73 163.325 270.297 162.872 271.986C162.628 272.853 162.96 274.207 163.414 275.623C164.152 278.014 165.311 280.553 166.333 281.481Z" fill="#005000"/><path fill-rule="evenodd" clip-rule="evenodd" d="M172.265 277.939C171.936 277.501 171.653 277.032 171.418 276.537C171.025 276.036 170.673 275.521 170.26 275.033C169.847 274.546 169.441 274.092 169 273.645C167.693 272.29 166.203 271.173 164.937 269.771C164.4 269.146 163.9 268.49 163.44 267.807C162.722 266.764 162.126 265.714 161.442 264.657C161.318 264.524 161.221 264.367 161.158 264.197C161.094 264.026 161.065 263.844 161.071 263.662C161.078 263.48 161.12 263.301 161.196 263.136C161.272 262.97 161.379 262.821 161.513 262.697C161.646 262.573 161.803 262.476 161.974 262.412C162.144 262.349 162.326 262.32 162.508 262.326C162.69 262.333 162.869 262.375 163.035 262.451C163.2 262.527 163.35 262.634 163.474 262.768C164.733 263.736 166 264.603 167.185 265.667C167.738 266.18 168.262 266.722 168.756 267.292C169.915 268.613 170.836 270.123 172.055 271.356C172.824 272.088 173.632 272.78 174.473 273.428C174.411 273.375 174.352 273.319 174.297 273.259L174.398 273.293C174.866 273.516 175.753 273.97 176.376 274.329C176.655 274.526 176.912 274.753 177.141 275.006C177.364 275.263 177.536 275.56 177.649 275.88C178.049 276.557 177.751 277.235 177.649 277.817C177.548 278.4 176.911 278.894 176.105 279.456C175.76 279.597 175.398 279.693 175.028 279.741C174.435 279.78 173.845 279.625 173.346 279.3C172.848 278.975 172.469 278.498 172.265 277.939ZM174.337 274.302L174.676 274.255C174.572 274.247 174.468 274.263 174.371 274.302H174.337Z" fill="#005000"/><path fill-rule="evenodd" clip-rule="evenodd" d="M99.8697 266.195C99.9538 266.482 99.9406 266.788 99.8322 267.067C99.7238 267.346 99.5263 267.581 99.2704 267.735C99.0145 267.89 98.7146 267.955 98.4175 267.922C98.1204 267.888 97.8427 267.757 97.6279 267.549C97.3523 267.345 97.1379 267.069 97.0078 266.751C96.8777 266.434 96.8368 266.087 96.8896 265.748C96.8896 264.711 98.3187 263.147 98.4541 262.944C99.0298 262.097 99.5582 261.237 100.134 260.384C100.71 259.53 101.258 258.677 101.868 257.85C103.71 255.344 105.81 253.035 107.618 250.502C108.437 249.364 109.203 248.186 109.948 247.007C111.113 245.178 112.183 243.343 113.395 241.589C113.872 241.032 114.551 240.687 115.282 240.631C116.013 240.574 116.736 240.81 117.293 241.287C117.85 241.764 118.194 242.443 118.251 243.174C118.307 243.905 118.071 244.628 117.594 245.185C115.71 246.915 113.926 248.751 112.251 250.685C111.709 251.328 111.201 251.999 110.713 252.717C109.359 254.674 108.166 256.78 106.812 258.724C106.223 259.578 105.64 260.431 104.983 261.23C103.77 262.655 102.479 264.012 101.116 265.294C101.048 265.355 100.73 265.592 100.351 265.897L99.8697 266.195Z" fill="#005000"/><path fill-rule="evenodd" clip-rule="evenodd" d="M117.804 248.978C117.854 248.395 118.092 247.844 118.481 247.407C118.96 246.853 119.64 246.512 120.37 246.459C121.1 246.406 121.821 246.644 122.376 247.122C123.161 248.016 123.825 249.073 123.256 250.407C123.093 250.85 122.865 251.265 122.579 251.64C122.159 252.141 121.644 253.144 121.414 252.886C121.412 252.881 121.41 252.875 121.41 252.869C121.41 252.863 121.412 252.858 121.414 252.852C120.784 253.57 119.667 254.661 118.38 256.09C117.777 256.767 117.14 257.505 116.517 258.318C115.163 260.099 113.862 262.212 112.508 264.122C111.912 264.962 111.322 265.768 110.74 266.52C109.776 267.655 108.872 268.84 108.031 270.069C107.733 270.563 107.414 270.909 107.401 271.227C107.436 271.592 107.325 271.955 107.092 272.238C106.859 272.521 106.523 272.699 106.158 272.734C105.793 272.769 105.43 272.658 105.147 272.425C104.865 272.192 104.686 271.856 104.651 271.491C104.461 270.679 104.719 269.405 105.328 267.8C105.875 266.358 106.555 264.97 107.36 263.655C107.915 262.77 108.516 261.916 109.162 261.095C110.632 259.178 112.399 257.377 113.808 255.595C114.573 254.634 115.224 253.685 115.793 252.839C116.578 251.66 117.147 250.665 117.465 250.028C117.525 249.663 117.639 249.309 117.804 248.978V248.978ZM118.637 251.2C118.667 251.242 118.707 251.277 118.752 251.301L118.637 251.2Z" fill="#005000"/><path fill-rule="evenodd" clip-rule="evenodd" d="M116.245 264.8C116.101 263.65 115.767 262.533 115.256 261.494C115.053 261.108 114.87 260.729 114.673 260.329C114.477 259.93 114.321 259.584 114.152 259.205C113.804 258.345 113.406 257.506 112.96 256.692C112.763 256.335 112.536 255.995 112.282 255.676C112.107 255.474 111.916 255.283 111.713 255.108C110.894 254.43 110.088 253.916 109.323 253.347C109.095 253.059 108.762 252.874 108.397 252.832C108.032 252.79 107.666 252.895 107.379 253.123C107.091 253.351 106.906 253.684 106.865 254.049C106.823 254.413 106.927 254.78 107.155 255.067C107.568 256.119 108.033 257.15 108.551 258.155C108.711 258.422 108.892 258.676 109.092 258.914C109.669 259.53 110.207 260.182 110.704 260.865C110.889 261.147 111.037 261.452 111.145 261.772C111.257 262.315 111.257 262.875 111.145 263.418C111.104 263.736 110.867 263.953 110.738 264.258C110.698 264.621 110.73 264.989 110.832 265.341C110.935 265.692 111.107 266.019 111.337 266.303C111.567 266.588 111.852 266.824 112.174 266.997C112.496 267.171 112.849 267.278 113.214 267.314C113.578 267.35 113.945 267.313 114.295 267.206C114.645 267.099 114.97 266.923 115.251 266.689C115.533 266.455 115.765 266.168 115.934 265.843C116.103 265.519 116.207 265.164 116.238 264.8H116.245Z" fill="#005000"/><path fill-rule="evenodd" clip-rule="evenodd" d="M124.925 259.374C125.188 258.998 125.528 258.683 125.923 258.449C126.318 258.215 126.758 258.069 127.214 258.019C127.564 258.002 127.913 258.067 128.233 258.209C128.553 258.351 128.835 258.567 129.056 258.839C130.004 258.863 130.941 259.058 131.82 259.415C132.349 259.651 132.827 259.989 133.225 260.409C133.624 260.83 133.936 261.325 134.143 261.866C134.678 263.187 134.515 265.077 132.788 267.413C132.482 267.773 132.09 268.049 131.648 268.215C131.206 268.381 130.729 268.431 130.262 268.362C130.105 269.443 129.879 270.513 129.585 271.565C128.941 274.131 127.7 276.507 125.961 278.501C124.948 279.676 123.619 280.537 122.132 280.981C120.645 281.425 119.062 281.434 117.569 281.007C116.467 280.708 115.523 279.994 114.935 279.015C114.084 277.421 113.659 275.634 113.702 273.827C113.688 270.665 114.719 267.586 116.635 265.07C118.544 262.583 121.131 260.702 124.085 259.652L124.925 259.374ZM126.957 263.506C124.877 263.713 122.896 264.499 121.24 265.774C120.037 266.711 119.078 267.924 118.443 269.31C117.845 270.728 117.569 272.262 117.637 273.8C117.663 274.439 117.76 275.073 117.928 275.69C118.014 275.997 118.137 276.293 118.294 276.57C118.362 276.699 118.423 276.835 118.558 276.862C119.274 277.019 120.018 276.98 120.714 276.748C121.409 276.517 122.028 276.102 122.507 275.548C123.337 274.667 124.022 273.662 124.539 272.568C125.93 269.734 126.752 266.655 126.957 263.506Z" fill="#005000"/><path fill-rule="evenodd" clip-rule="evenodd" d="M140.184 275.385C139.845 274.871 139.981 273.726 139.405 273.252C139.28 273.134 139.141 273.032 138.992 272.947C138.918 272.913 138.89 272.73 138.823 272.791C137.19 274.43 137.468 276.855 137.8 279.341C138.2 282.598 138.816 285.998 137.8 288.87C137.148 290.658 135.937 292.188 134.346 293.232C132.07 294.668 130.031 294.397 128.325 292.968C127.223 291.995 126.341 290.799 125.737 289.459C124.904 287.69 124.324 285.811 124.017 283.879C123.943 283.519 124.014 283.145 124.215 282.838C124.416 282.532 124.731 282.317 125.091 282.243C125.45 282.168 125.824 282.24 126.131 282.441C126.438 282.642 126.652 282.957 126.726 283.316C127.343 285.151 128.259 286.872 129.435 288.41C129.738 288.801 130.084 289.158 130.465 289.473C130.633 289.661 130.867 289.779 131.118 289.801C131.37 289.824 131.62 289.75 131.82 289.595C132.453 289.162 132.982 288.592 133.367 287.927C133.751 287.262 133.981 286.52 134.041 285.755C134.407 282.971 133.818 279.828 133.77 277.024C133.723 274.22 134.19 271.884 136.012 269.981C138.159 267.542 141.816 268.843 144.031 271.579C146.449 274.559 146.293 278.474 142.731 280.282C142.09 280.546 141.374 280.56 140.724 280.32C140.074 280.081 139.538 279.607 139.221 278.991C138.904 278.376 138.83 277.663 139.014 276.995C139.197 276.328 139.624 275.753 140.211 275.385H140.184Z" fill="#005000"/><path fill-rule="evenodd" clip-rule="evenodd" d="M156.352 283.56C155.77 283.31 155.269 283.127 154.72 282.883C154.199 282.661 153.697 282.398 153.217 282.097C152.918 281.896 152.637 281.669 152.377 281.42C151.76 280.838 151.3 280.153 150.697 279.551C150.49 279.336 150.263 279.141 150.02 278.968C149.207 278.386 148.327 278.054 147.419 277.424C147.182 277.145 146.844 276.971 146.478 276.941C146.113 276.911 145.751 277.028 145.472 277.265C145.193 277.502 145.019 277.84 144.989 278.205C144.959 278.571 145.076 278.933 145.313 279.212C145.638 279.998 146.021 280.758 146.457 281.488C146.638 281.798 146.852 282.089 147.094 282.355C147.369 282.635 147.669 282.891 147.988 283.12C148.713 283.675 149.512 284.068 150.243 284.617C150.485 284.809 150.711 285.02 150.921 285.247C151.271 285.638 151.599 286.05 151.903 286.479C152.214 286.92 152.451 287.339 152.756 287.834C153.034 288.067 153.354 288.243 153.7 288.352C154.045 288.461 154.409 288.501 154.77 288.47C155.131 288.438 155.482 288.336 155.804 288.169C156.125 288.002 156.411 287.773 156.644 287.495C156.877 287.218 157.053 286.897 157.162 286.552C157.271 286.206 157.311 285.842 157.28 285.481C157.248 285.12 157.146 284.769 156.979 284.448C156.811 284.126 156.583 283.841 156.305 283.608L156.352 283.56Z" fill="#005000"/><path fill-rule="evenodd" clip-rule="evenodd" d="M147.279 281.217C147.065 282.149 146.789 283.065 146.452 283.96C146.104 284.877 145.678 285.763 145.179 286.608C144.83 287.171 144.445 287.712 144.028 288.227C143.052 289.453 141.901 290.536 140.865 291.715C140.483 292.134 140.124 292.573 139.788 293.029C138.623 294.634 137.695 296.307 136.679 297.912C136.561 298.05 136.472 298.21 136.415 298.382C136.359 298.554 136.338 298.736 136.352 298.917C136.366 299.098 136.416 299.274 136.498 299.436C136.58 299.597 136.693 299.741 136.831 299.859C136.969 299.977 137.129 300.067 137.301 300.123C137.474 300.179 137.656 300.2 137.836 300.186C138.017 300.172 138.194 300.122 138.355 300.04C138.517 299.958 138.661 299.845 138.779 299.707C139.876 298.779 141.007 297.912 142.118 296.91C142.594 296.503 143.046 296.069 143.472 295.609C144.944 293.77 146.312 291.851 147.57 289.859C147.915 289.365 148.247 288.884 148.626 288.416C149.256 287.604 149.879 286.825 150.502 286.026C151.126 285.226 151.755 284.353 152.345 283.479C152.645 282.81 152.666 282.049 152.405 281.364C152.144 280.678 151.622 280.125 150.953 279.825C150.284 279.525 149.523 279.503 148.838 279.764C148.152 280.025 147.599 280.548 147.299 281.217H147.279Z" fill="#005000"/><path fill-rule="evenodd" clip-rule="evenodd" d="M141.435 304.346C141.584 303.845 143.257 303.493 144.544 302.544C147.253 300.56 150.802 297.729 153.985 295.04C156.457 292.968 158.679 290.976 160.331 289.737C161.244 288.992 162.303 288.447 163.44 288.139C163.9 288.073 164.369 288.136 164.795 288.321C166.42 288.999 167.131 290.692 166.515 293.062C165.94 294.904 165.113 296.657 164.056 298.271C162.783 300.303 161.347 302.03 161.178 302.382C159.532 305.03 158.171 308.274 156.437 311.105C155.637 312.423 154.702 313.653 153.647 314.776C153.408 315.055 153.07 315.227 152.704 315.256C152.339 315.284 151.978 315.167 151.699 314.929C151.421 314.691 151.248 314.352 151.22 313.987C151.191 313.621 151.309 313.26 151.547 312.981C152.313 311.903 152.968 310.75 153.504 309.541C154.94 306.5 155.997 303.127 157.365 300.296C157.615 299.842 159.634 297.099 161.158 294.458C161.293 294.227 161.422 294.011 161.544 293.78C159.599 295.224 157.73 296.766 155.942 298.399C152.17 301.827 148.323 305.802 145.885 307.881C144.953 308.741 143.856 309.403 142.661 309.825C142.208 309.93 141.737 309.923 141.287 309.805C140.837 309.687 140.423 309.462 140.08 309.148C139.533 308.66 139.203 307.975 139.161 307.244C139.119 306.512 139.369 305.794 139.857 305.247C140.264 304.774 140.821 304.456 141.435 304.346V304.346Z" fill="#005000"/><path fill-rule="evenodd" clip-rule="evenodd" d="M160.226 308.607C159.885 308.51 159.562 308.357 159.271 308.153C158.709 307.674 158.223 307.112 157.829 306.487C157.609 306.102 157.426 305.699 157.28 305.281C156.901 304.279 156.718 303.188 156.359 302.172C156.234 301.794 156.077 301.427 155.892 301.075C155.209 299.823 154.361 298.668 153.372 297.641C153.18 297.33 152.872 297.107 152.515 297.023C152.159 296.938 151.784 296.999 151.472 297.191C151.161 297.383 150.938 297.691 150.854 298.047C150.769 298.404 150.83 298.779 151.022 299.091C151.171 299.558 151.212 300.052 151.347 300.621C151.484 301.425 151.665 302.221 151.889 303.005C152.431 304.556 153.447 305.999 154.124 307.482C154.347 307.962 154.546 308.452 154.72 308.952C155.179 310.365 155.865 311.695 156.752 312.887C157.03 313.135 157.356 313.323 157.71 313.442C158.063 313.56 158.437 313.605 158.809 313.576C159.18 313.546 159.542 313.441 159.872 313.267C160.202 313.094 160.494 312.856 160.729 312.567C160.965 312.278 161.139 311.944 161.242 311.586C161.346 311.228 161.375 310.852 161.329 310.482C161.284 310.112 161.164 309.755 160.976 309.433C160.789 309.111 160.539 308.83 160.24 308.607H160.226Z" fill="#005000"/><path fill-rule="evenodd" clip-rule="evenodd" d="M171.533 315.677C171.651 316.58 171.549 317.498 171.235 318.353C170.692 319.526 169.975 320.61 169.108 321.57C168.194 322.637 167.054 323.486 165.769 324.055C165.141 324.339 164.456 324.472 163.768 324.442C163.08 324.413 162.408 324.222 161.807 323.886C160.8 323.269 160.026 322.335 159.606 321.231C158.197 317.845 158.17 315.136 158.895 312.799C159.775 310.042 161.814 307.956 164.313 306.358C168.041 304.102 172.274 302.815 176.626 302.612C177.369 302.607 178.107 302.731 178.807 302.978C179.216 303.132 179.588 303.373 179.895 303.684C180.203 303.995 180.439 304.369 180.588 304.78C180.981 305.674 181.035 307.306 178.868 308.803C178.385 309.087 177.827 309.218 177.269 309.178C176.71 309.138 176.176 308.929 175.739 308.579C173.294 309.209 167.3 308.39 164.32 311.126C163.43 311.926 162.798 312.973 162.505 314.133C162.132 315.63 162.437 317.398 163.453 319.477C163.565 319.684 163.706 319.873 163.873 320.039C163.927 320.039 164.035 319.938 164.096 319.91C164.259 319.828 164.416 319.733 164.564 319.626C165.692 318.81 166.619 317.747 167.273 316.517C167.496 316.084 167.273 315.393 167.198 314.75C167.043 313.868 167.021 312.969 167.13 312.081C167.181 311.696 167.313 311.326 167.516 310.994C167.719 310.663 167.989 310.378 168.309 310.157C168.738 309.864 169.245 309.703 169.765 309.697C170.15 309.727 170.525 309.835 170.866 310.016C171.208 310.196 171.508 310.445 171.75 310.747C172.847 312.02 175.177 315.366 175.779 315.948C175.917 316.066 176.031 316.21 176.113 316.372C176.195 316.533 176.245 316.71 176.259 316.89C176.273 317.071 176.251 317.253 176.195 317.425C176.139 317.598 176.05 317.758 175.932 317.895C175.814 318.033 175.67 318.147 175.508 318.229C175.347 318.311 175.171 318.361 174.99 318.375C174.809 318.389 174.627 318.368 174.455 318.311C174.282 318.255 174.122 318.166 173.985 318.048C173.599 317.77 172.583 316.741 171.533 315.677ZM163.893 320.039C163.893 320.039 163.839 319.999 163.839 320.039C163.839 320.08 163.866 320.053 163.893 320.039V320.039ZM170.747 313.009C170.808 312.914 171.052 312.704 170.923 312.697C170.795 312.691 170.713 312.785 170.747 313.009V313.009Z" fill="#005000"/><path fill-rule="evenodd" clip-rule="evenodd" d="M182.951 311.972C182.538 311.532 182.186 311.139 182.016 310.936C181.755 310.653 181.577 310.304 181.499 309.927C181.422 309.55 181.448 309.159 181.576 308.796C181.692 308.474 181.898 308.192 182.169 307.983C182.44 307.774 182.766 307.648 183.107 307.617C183.557 307.543 184.019 307.648 184.394 307.909C184.533 308.004 184.666 308.108 184.793 308.22L184.929 308.342C185.403 308.112 186.859 310.198 187.495 310.706C187.922 311.017 189.527 311.647 190.828 312.386C191.5 312.093 192.26 312.079 192.942 312.347C193.624 312.615 194.172 313.143 194.465 313.815C194.802 314.648 194.996 315.531 195.04 316.429C195.064 316.905 194.974 317.379 194.777 317.812C194.58 318.246 194.283 318.626 193.909 318.921C193.381 319.3 192.749 319.508 192.099 319.518C191.449 319.527 190.812 319.338 190.272 318.976C188.702 317.798 187.245 316.479 185.917 315.034C185.552 315.713 185.121 316.355 184.631 316.951C182.856 319.159 180.045 321.57 177.702 323.9C176.877 324.673 176.118 325.513 175.433 326.412C175.063 326.863 174.779 327.377 174.593 327.929C174.376 328.762 174.593 329.582 175.514 330.456C176.605 331.461 177.837 332.301 179.172 332.948C179.51 333.089 179.779 333.359 179.919 333.698C180.058 334.037 180.058 334.418 179.917 334.756C179.776 335.095 179.506 335.364 179.167 335.503C178.828 335.643 178.447 335.642 178.108 335.501C171.532 333.28 170.082 330.015 170.516 327.103C170.8 325.234 172.067 323.243 173.855 321.373C175.643 319.504 178.156 317.635 180.113 315.853C180.931 315.147 181.675 314.36 182.335 313.503C182.681 313.112 182.894 312.621 182.944 312.101C182.95 312.059 182.953 312.015 182.951 311.972V311.972Z" fill="#005000"/><path fill-rule="evenodd" clip-rule="evenodd" d="M185.984 327.909C185.936 327.909 185.902 327.99 185.848 327.963C185.63 327.886 185.421 327.783 185.225 327.659C184.725 327.305 184.27 326.891 183.871 326.426C183.657 326.142 183.47 325.838 183.315 325.518C182.922 324.773 182.692 323.934 182.32 323.202C182.189 322.929 182.035 322.669 181.859 322.423C181.203 321.585 180.461 320.817 179.644 320.134C179.46 319.817 179.158 319.586 178.803 319.492C178.449 319.398 178.072 319.449 177.755 319.633C177.438 319.817 177.207 320.119 177.113 320.474C177.019 320.828 177.069 321.205 177.253 321.522C177.365 322.306 177.526 323.082 177.734 323.846C177.809 324.176 177.922 324.497 178.073 324.8C178.635 325.898 179.678 326.887 180.369 327.997C180.579 328.34 180.765 328.698 180.924 329.067C181.35 330.156 181.878 331.201 182.502 332.19C183.071 332.639 183.794 332.847 184.515 332.768C185.236 332.689 185.897 332.33 186.356 331.769C186.814 331.207 187.034 330.488 186.967 329.766C186.899 329.044 186.551 328.377 185.997 327.909H185.984Z" fill="#005000"/><path fill-rule="evenodd" clip-rule="evenodd" d="M19.4871 85.2773C17.164 79.2901 15.2405 73.1538 14.6377 66.6451C14.422 64.4667 14.3654 62.2755 14.4684 60.0889C14.5886 57.9001 14.8511 55.7214 15.2541 53.5666C16.2632 47.9181 18.2206 42.493 20.266 37.1221C21.1329 34.8396 22.0947 32.5978 22.9751 30.3492C23.8556 28.1006 24.7225 25.7775 25.6843 23.5221C27.9668 18.1038 30.3034 12.8345 33.4867 7.97834C33.9056 7.52245 34.2283 6.98679 34.4355 6.40336C34.6427 5.81994 34.7301 5.20073 34.6925 4.58275C34.655 3.96476 34.4932 3.3607 34.2168 2.80666C33.9405 2.25262 33.5553 1.75998 33.0843 1.35819C32.6133 0.956396 32.0661 0.653699 31.4754 0.468193C30.8847 0.282686 30.2627 0.218175 29.6465 0.278522C29.0303 0.338868 28.4327 0.522833 27.8892 0.819414C27.3457 1.116 26.8677 1.5191 26.4835 2.00465C20.8922 7.10579 16.0146 12.9379 11.9828 19.3432C10.9121 21.0624 9.95075 22.8472 9.10428 24.6871C7.85943 27.4551 6.81597 30.3094 5.98199 33.2277C4.11267 39.5603 3.18479 46.0961 2.47364 52.6726C2.16886 55.4766 1.92505 58.2806 1.68122 61.0778C1.4374 63.875 1.20712 66.7264 1.00393 69.5574C0.545066 76.334 0.749198 83.1392 1.61347 89.8761C1.89039 91.0736 2.40418 92.2036 3.12455 93.1994C3.84493 94.1953 4.75733 95.0369 5.80799 95.6747C6.85866 96.3125 8.02635 96.7336 9.24227 96.9131C10.4582 97.0927 11.6977 97.027 12.8879 96.7201C14.0781 96.4132 15.1947 95.8712 16.1722 95.126C17.1497 94.3808 17.9681 93.4476 18.5793 92.3812C19.1905 91.3149 19.5821 90.137 19.731 88.9169C19.88 87.6969 19.7832 86.4594 19.4465 85.2773H19.4871Z" fill="#005000"/><path fill-rule="evenodd" clip-rule="evenodd" d="M80.0226 205.32C81.0924 209.83 81.2581 214.508 80.5102 219.083C79.6039 224.31 78.1954 229.439 76.3043 234.396C75.1258 237.545 73.7983 240.668 72.4234 243.743C68.0345 253.523 63.6051 263.072 62.6162 272.785C62.0334 277.692 62.4153 282.667 63.7405 287.428C64.9687 291.657 66.9612 295.626 69.6194 299.138C74.2182 305.234 81.0927 311.106 91.2927 316.565C91.7969 316.921 92.3675 317.171 92.9706 317.302C93.5737 317.433 94.1969 317.442 94.8033 317.327C95.4097 317.213 95.9869 316.977 96.5006 316.635C97.0143 316.293 97.454 315.851 97.7936 315.336C98.1332 314.821 98.3658 314.242 98.4775 313.636C98.5892 313.029 98.5778 312.405 98.444 311.803C98.3101 311.2 98.0566 310.631 97.6984 310.129C97.3402 309.626 96.8846 309.201 96.3588 308.877C87.6556 301.969 82.7656 295.332 79.9819 288.945C79.1966 287.078 78.58 285.145 78.1397 283.168C77.4265 280.182 77.1459 277.11 77.3066 274.045C77.6927 266.662 79.8871 259.144 82.8807 251.62C84.2353 248.28 85.644 244.928 87.2018 241.657C93.338 228.788 99.034 216.224 98.3229 202.909C98.0031 200.488 96.735 198.294 94.7973 196.809C92.8597 195.323 90.4114 194.668 87.9909 194.988C85.5704 195.308 83.376 196.576 81.8906 198.514C80.4051 200.451 79.7502 202.9 80.07 205.32H80.0226Z" fill="#005000"/></svg>