<svg width="190" height="71" viewBox="0 0 190 71" fill="none" xmlns="http://www.w3.org/2000/svg"><path fill-rule="evenodd" clip-rule="evenodd" d="M78.2712 26.2512C78.0138 26.5718 77.7429 26.8766 77.4584 27.1655C76.8963 27.7683 76.4019 28.2831 75.9413 28.8317C75.5352 29.3205 75.1832 29.8519 74.8915 30.4165C74.5507 30.912 74.0296 31.2545 73.4395 31.3708C72.8495 31.4871 72.2374 31.368 71.7341 31.0389C71.2307 30.7098 70.8761 30.1969 70.746 29.6098C70.6158 29.0227 70.7206 28.4079 71.0377 27.897C71.4925 27.2973 71.9978 26.7376 72.5481 26.2241C73.2254 25.5468 74.0042 25.005 74.878 24.3277C75.365 23.9501 75.8182 23.5309 76.2325 23.0747C76.6999 22.56 77.1333 22.0114 77.5871 21.4899C77.919 21.0699 78.3457 20.0743 78.6775 19.7221C78.9772 19.3845 79.3882 19.1658 79.8357 19.1058C80.197 19.0397 80.57 19.0973 80.8944 19.2693C81.2189 19.4414 81.4759 19.7178 81.6238 20.054C81.9963 20.7313 82.0911 22.3906 81.8269 24.5377C81.6238 26.197 81.258 28.2221 80.9126 30.2607C80.3437 33.6472 79.7951 37.0336 79.6122 38.5914C79.4757 39.165 79.1244 39.6645 78.6307 39.9868C78.1369 40.3091 77.5383 40.4298 76.9582 40.3238C76.3781 40.2179 75.8608 39.8934 75.5128 39.4174C75.1649 38.9413 75.0128 38.35 75.0879 37.7651C75.4062 36.5121 76.1851 34.1687 76.9505 31.5476C77.3365 30.193 77.7158 28.8384 78.0273 27.4839C78.095 27.0639 78.1899 26.6508 78.2712 26.2512Z" fill="#005000"/><path fill-rule="evenodd" clip-rule="evenodd" d="M86.7386 33.6472H86.6912C85.8885 33.7335 85.0807 33.5383 84.4061 33.0947C83.7315 32.6511 83.232 31.9869 82.9932 31.2157C82.194 29.0958 83.0271 26.2918 84.4833 24.05C85.3826 22.6185 86.629 21.4373 88.1067 20.6161C88.6738 20.3128 89.3104 20.1633 89.9532 20.1823C90.596 20.2013 91.2227 20.3882 91.7709 20.7245C92.6852 21.2798 93.5115 22.5058 93.647 24.8221C93.6542 25.351 93.477 25.8659 93.1458 26.2782V26.3189C93.1458 26.5356 93.0103 27.3213 92.9561 27.6396C92.8589 28.1776 92.6998 28.7026 92.482 29.2041C92.3216 29.5619 92.1407 29.9102 91.9402 30.2471C91.6896 30.9583 91.4255 31.6695 91.1613 32.3671C89.5629 36.5798 87.6665 40.4945 85.9394 44.8427C85.8191 45.1241 85.6438 45.3786 85.4239 45.5914C85.2041 45.8042 84.944 45.9711 84.6589 46.0823C84.3738 46.1935 84.0694 46.2467 83.7635 46.2389C83.4576 46.2311 83.1564 46.1624 82.8773 46.0368C82.5983 45.9112 82.347 45.7313 82.1383 45.5075C81.9296 45.2838 81.7676 45.0206 81.6617 44.7335C81.5559 44.4464 81.5083 44.1411 81.5218 43.8354C81.5352 43.5297 81.6095 43.2298 81.7402 42.9531C83.3793 39.7292 85.1606 36.7559 86.7386 33.6472ZM89.0482 24.795C88.0278 25.5162 87.1999 26.4766 86.637 27.5922C86.1497 28.3606 85.9639 29.2822 86.1155 30.1794C86.2916 30.7213 86.9147 30.4639 87.4159 30.2878C87.8553 30.1502 88.2596 29.9191 88.6012 29.6105C89.0143 28.6081 89.3936 27.5786 89.739 26.5221C89.524 26.3067 89.3535 26.0512 89.2373 25.7699C89.1211 25.4887 89.0614 25.1873 89.0617 24.883L89.0482 24.795Z" fill="#005000"/><path fill-rule="evenodd" clip-rule="evenodd" d="M103.655 22.0383C104 22.2162 104.296 22.4768 104.516 22.7968C105.042 23.7638 105.339 24.8392 105.382 25.9395C105.48 29.1609 104.993 32.3733 103.947 35.4215C103.44 37.0829 102.591 38.6196 101.454 39.9323C100.208 41.1988 98.745 41.7135 97.1398 41.1852C96.5121 40.9692 95.9419 40.6129 95.4724 40.1435C95.003 39.6741 94.6467 39.1038 94.4307 38.4761C93.347 35.8076 93.8753 31.1004 95.108 27.267C96.0562 24.2801 97.5462 21.9164 98.9008 21.0427C99.6396 20.5761 100.527 20.4045 101.386 20.5618C102.301 20.7514 103.111 21.2785 103.655 22.0383ZM100.614 25.5128C100.117 25.8565 99.6832 26.2852 99.3343 26.7793C98.3864 28.5057 97.7016 30.3639 97.3024 32.2924C96.9664 33.755 96.9227 35.2695 97.1737 36.749C97.3227 37.4263 97.5327 37.9952 98.0745 38.1578C98.6163 38.3203 98.9956 37.8462 99.3681 37.3044C100.184 35.9078 100.713 34.363 100.926 32.7598C101.265 30.8233 101.327 28.8483 101.109 26.8945C101.067 26.48 100.981 26.0712 100.851 25.6753C100.769 25.627 100.689 25.5726 100.614 25.5128Z" fill="#005000"/><path fill-rule="evenodd" clip-rule="evenodd" d="M112.368 26.5285V26.5894C112.024 27.0951 111.495 27.4437 110.894 27.5587C110.294 27.6736 109.673 27.5455 109.167 27.2024C108.662 26.8593 108.313 26.3294 108.198 25.7292C108.083 25.1291 108.211 24.5078 108.554 24.0022C110.993 20.7783 113.187 20.846 114.528 21.7197C115.154 22.1417 115.654 22.7242 115.978 23.4062C116.714 25.1826 116.948 27.1272 116.655 29.0277C116.395 30.7889 115.86 32.4984 115.07 34.0938C114.278 35.7179 113.373 37.284 112.361 38.7806C113.152 39.4456 114.037 39.9889 114.989 40.3926C115.178 40.4535 115.314 40.3045 115.497 40.1013C116.187 39.1644 116.692 38.1048 116.987 36.979C117.209 36.4096 117.647 35.9516 118.207 35.7059C118.767 35.4601 119.401 35.4466 119.97 35.6685C120.54 35.8903 120.998 36.3293 121.243 36.8888C121.489 37.4483 121.503 38.0825 121.281 38.6519C119.547 42.5667 117.779 43.9822 116.303 44.3208C114.67 44.6933 113.018 44.0296 111.44 42.7766C111.067 42.4786 110.695 42.1535 110.315 41.842C109.691 42.8011 108.967 43.6911 108.155 44.4969C107.81 44.8701 107.362 45.1334 106.868 45.2539C106.375 45.3743 105.856 45.3466 105.378 45.1742C103.515 44.3412 103.109 42.6682 103.603 40.9547C104.166 39.0041 106.211 37.1958 107.965 37.1077C108.487 37.0829 109.009 37.147 109.509 37.2974C110.482 35.8517 111.323 34.3217 112.022 32.7257C112.571 31.4356 112.897 30.0613 112.984 28.6619C112.938 27.914 112.728 27.1855 112.368 26.5285Z" fill="#005000"/><path fill-rule="evenodd" clip-rule="evenodd" d="M68.0435 46.2242C66.0609 46.839 64.0168 47.2342 61.9479 47.4026C60.5264 47.518 59.0991 47.5452 57.6742 47.4839C54.9651 47.3688 52.2559 47.0369 49.5468 46.6576C46.6751 46.258 43.8847 45.75 41.1958 45.513C40.5851 45.5031 39.9954 45.7363 39.5566 46.1611C39.1177 46.586 38.8656 47.1678 38.8558 47.7785C38.8459 48.3893 39.079 48.9789 39.5039 49.4178C39.9287 49.8566 40.5105 50.1087 41.1213 50.1186C43.2006 50.0034 45.3544 49.9628 47.5759 50.0305C49.0253 50.0802 50.4882 50.1592 51.9647 50.2676L57.5049 50.6604C59.4149 50.8026 61.3045 50.9313 63.1671 50.9719C65.1212 51.0394 67.0776 50.9556 69.0188 50.7213C69.3245 50.668 69.6162 50.5534 69.8765 50.3845C70.1368 50.2155 70.3603 49.9957 70.5335 49.7383C70.7067 49.4808 70.8261 49.191 70.8845 48.8863C70.9429 48.5815 70.9391 48.2681 70.8734 47.9648C70.8076 47.6615 70.6812 47.3747 70.5018 47.1215C70.3224 46.8683 70.0937 46.654 69.8294 46.4914C69.5651 46.3289 69.2706 46.2214 68.9637 46.1754C68.6569 46.1295 68.3438 46.1461 68.0435 46.2242Z" fill="#005000"/><path fill-rule="evenodd" clip-rule="evenodd" d="M52.9413 50.43C52.6655 51.5432 52.4709 52.675 52.3589 53.8164C52.3115 54.2837 52.2573 54.7443 52.1963 55.2184C52.1015 55.977 51.9999 56.7355 51.8916 57.5009C51.7832 58.2662 51.7019 58.9977 51.58 59.7427C51.3633 61.0566 51.0991 62.2961 50.9027 63.5355C50.8974 63.8379 50.9516 64.1384 51.0624 64.4198C51.1732 64.7013 51.3384 64.9581 51.5484 65.1757C51.9727 65.6152 52.5541 65.8682 53.1649 65.8789C53.7756 65.8897 54.3656 65.6574 54.8051 65.2332C55.2446 64.809 55.4975 64.2275 55.5083 63.6168C55.3457 62.418 55.1019 61.2124 55.0477 59.9391C54.9898 58.747 55.0648 57.5521 55.2712 56.3766C55.3939 55.7675 55.573 55.1711 55.8063 54.5953C56.163 53.7758 56.6179 53.0025 57.1608 52.2925C57.4123 51.7357 57.4323 51.1017 57.2164 50.5302C57.0005 49.9586 56.5663 49.4962 56.0095 49.2447C55.4526 48.9932 54.8187 48.9733 54.2471 49.1892C53.6755 49.4051 53.2132 49.8392 52.9617 50.3961L52.9413 50.43Z" fill="#005000"/><path fill-rule="evenodd" clip-rule="evenodd" d="M71.7584 48.9333C71.5195 50.0675 71.3611 51.2173 71.2843 52.3739C71.2843 52.8412 71.203 53.3085 71.1556 53.7826C71.0743 54.548 70.9862 55.3133 70.8914 56.0854C70.7966 56.8575 70.7221 57.5958 70.607 58.3543C70.4106 59.675 70.16 60.928 69.9297 62.1946C69.9297 62.8053 70.1723 63.391 70.6042 63.8229C71.036 64.2547 71.6217 64.4974 72.2324 64.4974C72.8432 64.4974 73.4289 64.2547 73.8608 63.8229C74.2926 63.391 74.5352 62.8053 74.5352 62.1946C74.3591 60.9755 74.095 59.7631 74.0341 58.483C73.9637 57.2746 74.0228 56.0622 74.2102 54.8663C74.3158 54.2445 74.4814 53.6343 74.7046 53.0444C75.0437 52.198 75.4753 51.3917 75.9914 50.64C76.1048 50.3603 76.162 50.061 76.1597 49.7591C76.1574 49.4573 76.0958 49.1589 75.9782 48.8809C75.8606 48.6029 75.6893 48.3508 75.4743 48.139C75.2593 47.9272 75.0046 47.7598 74.7249 47.6464C74.4452 47.533 74.1459 47.4758 73.844 47.4781C73.5422 47.4804 73.2438 47.5421 72.9658 47.6597C72.6878 47.7773 72.4357 47.9485 72.2239 48.1635C72.0121 48.3786 71.8447 48.6332 71.7313 48.9129L71.7584 48.9333Z" fill="#005000"/><path fill-rule="evenodd" clip-rule="evenodd" d="M73.0454 52.2926C72.8889 52.1806 72.7457 52.051 72.6187 51.9065C72.2186 51.4452 72.0174 50.8441 72.0593 50.2349C72.1012 49.6256 72.3827 49.0578 72.8422 48.6555C73.493 48.1796 74.2186 47.8157 74.9892 47.5786C78.5108 46.5818 82.1695 46.1564 85.8258 46.3189C87.4268 46.3635 89.0174 46.5907 90.5668 46.9962C93.9533 47.9444 96.1816 49.9424 95.9445 53.3762C95.8091 55.9703 93.1812 57.5822 89.3003 58.0766C83.5975 58.8081 75.2195 57.4806 72.937 56.5121C72.5312 56.3224 72.1897 56.0181 71.9546 55.6367C71.7196 55.2553 71.6013 54.8135 71.6142 54.3657C71.6272 53.9179 71.7709 53.4836 72.0276 53.1164C72.2843 52.7493 72.6428 52.4652 73.0589 52.2993L73.0454 52.2926ZM75.2533 52.5161C78.9952 53.8704 82.9258 54.6314 86.9027 54.7714C88.4688 54.8732 90.0403 54.6919 91.5421 54.2364C92.1788 53.9993 92.7206 53.7352 92.768 53.1595C92.9035 50.7213 90.4517 50.0033 87.7019 49.7731C83.0286 49.4276 77.0482 50.9719 75.8697 52.1029C75.6851 52.2694 75.4775 52.4085 75.2533 52.5161Z" fill="#005000"/><path fill-rule="evenodd" clip-rule="evenodd" d="M87.4409 61.3482C87.8631 61.3969 88.276 61.5065 88.6668 61.6733C89.0983 61.9024 89.4932 62.1946 89.8385 62.5403C90.3936 63.1663 90.8838 63.8471 91.3015 64.5721C91.8153 65.4425 92.3902 66.2754 93.0218 67.0645C93.2617 67.2592 93.5384 67.4037 93.8354 67.4892C94.1323 67.5747 94.4434 67.5996 94.7501 67.5624C95.0569 67.5252 95.353 67.4266 95.6209 67.2725C95.8887 67.1185 96.1228 66.9121 96.3093 66.6656C96.4957 66.4192 96.6306 66.1378 96.706 65.8381C96.7814 65.5384 96.7956 65.2266 96.748 64.9213C96.7003 64.616 96.5917 64.3234 96.4286 64.061C96.2655 63.7985 96.0513 63.5715 95.7987 63.3936C95.3662 63.2517 94.9524 63.0585 94.566 62.8179C94.1418 62.5148 93.7452 62.1749 93.3808 61.802C93.0218 61.4295 92.7034 61.0299 92.3783 60.6303C92.0532 60.2307 91.9178 60.0478 91.7011 59.7431C91.124 58.8517 90.4418 58.0331 89.6692 57.3048C89.1303 57.0129 88.4976 56.9471 87.9101 57.1217C87.3227 57.2963 86.8286 57.6972 86.5367 58.2361C86.2448 58.775 86.179 59.4077 86.3536 59.9952C86.5283 60.5826 86.9291 61.0766 87.468 61.3685L87.4409 61.3482Z" fill="#005000"/><path fill-rule="evenodd" clip-rule="evenodd" d="M101.63 50.8771C101.218 52.3709 100.942 53.8987 100.804 55.4421C100.599 57.3422 100.681 59.2623 101.048 61.1381C101.151 62.0282 101.598 62.8427 102.294 63.407C102.429 63.4882 102.592 63.4408 102.775 63.407C103.259 63.3298 103.721 63.1496 104.129 62.8787C104.683 62.6651 105.299 62.6738 105.846 62.903C106.394 63.1323 106.832 63.5642 107.069 64.1088C107.306 64.6534 107.323 65.2684 107.118 65.8254C106.912 66.3825 106.499 66.8385 105.965 67.0982C103.581 67.938 101.833 67.7755 100.546 67.0305C99.4467 66.3727 98.6072 65.3562 98.1692 64.152C97.221 61.7273 97.2684 57.9819 97.668 54.6699C97.8621 52.6046 98.2568 50.5632 98.8465 48.5743C98.9485 48.3248 99.1066 48.102 99.3087 47.9235C99.5107 47.745 99.7512 47.6154 100.011 47.5449C100.417 47.4556 100.829 47.4034 101.244 47.3891C103.35 47.2536 108.694 47.301 108.992 47.2807C109.305 47.2638 109.617 47.3107 109.911 47.4186C110.205 47.5264 110.473 47.6931 110.701 47.9082C110.928 48.1234 111.109 48.3827 111.232 48.6701C111.356 48.9576 111.42 49.2672 111.42 49.5801C111.42 49.893 111.356 50.2027 111.232 50.4901C111.109 50.7776 110.928 51.0368 110.701 51.252C110.473 51.4672 110.205 51.6338 109.911 51.7417C109.617 51.8496 109.305 51.8965 108.992 51.8795C108.755 51.8795 103.946 51.0803 101.63 50.8771Z" fill="#005000"/><path fill-rule="evenodd" clip-rule="evenodd" d="M107.468 54.1483C106.982 54.4285 106.466 54.6556 105.931 54.8256C105.556 54.9291 105.169 54.986 104.779 54.9949C104.021 54.994 103.266 54.9008 102.531 54.7172C101.698 54.5208 100.987 54.2025 100.194 53.9452C99.8871 53.9136 99.5766 53.9442 99.2815 54.035C98.9863 54.1259 98.7125 54.2752 98.4762 54.4741C98.2399 54.6729 98.0461 54.9173 97.9062 55.1926C97.7662 55.4679 97.6831 55.7685 97.6618 56.0766C97.6404 56.3847 97.6813 56.6939 97.7818 56.9859C97.8824 57.2779 98.0407 57.5467 98.2473 57.7763C98.4539 58.0058 98.7045 58.1915 98.9843 58.3222C99.2641 58.4529 99.5673 58.526 99.8759 58.5372C100.668 58.4017 101.407 58.2256 102.24 58.1579C102.781 58.1274 103.324 58.1274 103.865 58.1579C104.423 58.1666 104.979 58.2095 105.531 58.2866C106.486 58.4288 107.319 58.5981 108.24 58.6862C108.538 58.6337 108.823 58.523 109.078 58.3605C109.334 58.198 109.554 57.9868 109.728 57.739C109.901 57.4913 110.024 57.2117 110.09 56.9164C110.156 56.621 110.162 56.3156 110.11 56.0177C110.057 55.7197 109.947 55.435 109.784 55.1798C109.622 54.9246 109.41 54.7039 109.163 54.5303C108.915 54.3567 108.635 54.2337 108.34 54.1681C108.045 54.1026 107.739 54.0959 107.441 54.1483H107.468Z" fill="#005000"/><path fill-rule="evenodd" clip-rule="evenodd" d="M116.573 50.024C115.835 51.7104 115.218 53.5188 114.541 55.3949C114.291 56.0722 114.006 56.7833 113.722 57.481C113.302 58.5037 112.862 59.5128 112.415 60.5558C112.008 61.4634 111.595 62.3574 111.168 63.265C110.491 64.6196 109.814 65.9267 109.136 67.1933C109.027 67.4752 108.974 67.776 108.981 68.0783C108.988 68.3807 109.054 68.6787 109.176 68.9554C109.298 69.2322 109.474 69.4821 109.692 69.6911C109.911 69.9001 110.168 70.0639 110.45 70.1733C110.732 70.2827 111.033 70.3355 111.335 70.3287C111.638 70.3219 111.936 70.2556 112.213 70.1336C112.489 70.0116 112.739 69.8362 112.948 69.6176C113.157 69.399 113.321 69.1413 113.43 68.8594C113.898 67.1391 114.291 65.3307 114.866 63.5088C115.402 61.775 116.04 60.0743 116.776 58.4156C117.179 57.5394 117.631 56.6869 118.131 55.8622C118.867 54.6491 119.677 53.482 120.556 52.3674C120.723 52.1059 120.837 51.8131 120.889 51.5066C120.94 51.2002 120.929 50.8864 120.857 50.5842C120.784 50.2821 120.651 49.9977 120.465 49.7484C120.28 49.4991 120.046 49.2898 119.777 49.1334C119.509 48.9769 119.211 48.8764 118.903 48.838C118.594 48.7996 118.281 48.8239 117.983 48.9097C117.684 48.9954 117.406 49.1408 117.164 49.3369C116.923 49.5331 116.725 49.776 116.58 50.0511L116.573 50.024Z" fill="#005000"/><path fill-rule="evenodd" clip-rule="evenodd" d="M117.709 53.0784C118.268 53.3347 118.76 53.7172 119.145 54.1959C119.494 54.6562 119.788 55.1564 120.019 55.6859C120.268 56.2703 120.465 56.8754 120.608 57.4943C120.905 58.8103 121.109 60.1456 121.218 61.4903C121.448 63.9895 121.597 66.3668 122.268 68.2632C122.539 68.801 123.011 69.2109 123.581 69.405C124.152 69.5991 124.776 69.5618 125.319 69.3012C125.862 69.0407 126.282 68.5775 126.487 68.0112C126.693 67.4449 126.669 66.8205 126.419 66.2719C125.786 65.2467 125.302 64.1359 124.984 62.9735C124.746 62.1202 124.543 61.2329 124.367 60.3321C124.144 59.1604 123.934 57.9819 123.724 56.8441C123.509 55.5843 123.203 54.3417 122.809 53.1257C122.326 51.6729 121.48 50.3675 120.351 49.3329C120.105 49.1411 119.822 49.0013 119.52 48.9221C119.218 48.8429 118.903 48.8259 118.595 48.8721C118.286 48.9183 117.99 49.0268 117.724 49.1909C117.459 49.3551 117.23 49.5716 117.05 49.8271C116.871 50.0826 116.746 50.3719 116.682 50.6774C116.618 50.9829 116.617 51.2983 116.678 51.6042C116.74 51.9102 116.863 52.2005 117.04 52.4574C117.218 52.7143 117.445 52.9325 117.709 53.0987V53.0784Z" fill="#005000"/><path fill-rule="evenodd" clip-rule="evenodd" d="M122.98 57.8464C122.212 58.1036 121.429 58.3162 120.637 58.483C120.127 58.5541 119.612 58.5745 119.099 58.544C118.471 58.5023 117.849 58.3957 117.243 58.2256C116.657 58.0314 116.086 57.7913 115.537 57.5077C115.235 57.4484 114.925 57.45 114.624 57.5123C114.324 57.5747 114.038 57.6965 113.785 57.8708C113.533 58.045 113.317 58.2681 113.152 58.5269C112.986 58.7856 112.874 59.0749 112.822 59.3776C112.77 59.6803 112.779 59.9903 112.849 60.2895C112.919 60.5886 113.048 60.8707 113.228 61.1194C113.408 61.368 113.637 61.578 113.899 61.737C114.162 61.8961 114.454 62.001 114.758 62.0456C115.652 61.9846 116.465 61.8424 117.365 61.7746C118.181 61.7103 119 61.6967 119.817 61.734C120.248 61.7585 120.676 61.8173 121.097 61.9101C121.774 62.0523 122.337 62.2623 122.987 62.4452C123.299 62.4621 123.612 62.4152 123.906 62.3073C124.199 62.1994 124.468 62.0328 124.695 61.8176C124.922 61.6025 125.103 61.3432 125.227 61.0558C125.351 60.7683 125.414 60.4587 125.414 60.1458C125.414 59.8329 125.351 59.5232 125.227 59.2358C125.103 58.9483 124.922 58.6891 124.695 58.4739C124.468 58.2587 124.199 58.0921 123.906 57.9842C123.612 57.8763 123.299 57.8294 122.987 57.8464H122.98Z" fill="#005000"/><path fill-rule="evenodd" clip-rule="evenodd" d="M124.612 51.6764C126.455 51.5003 128.297 51.3174 130.173 51.2497C131.419 51.209 132.659 51.2023 133.905 51.2497C136.241 51.3445 138.578 51.5341 140.901 51.7915C143.224 52.0489 145.588 52.4688 147.918 52.7668C148.519 52.7814 149.102 52.5606 149.542 52.1513C149.982 51.7421 150.245 51.1769 150.274 50.5765C150.303 49.9761 150.097 49.3881 149.698 48.9381C149.3 48.488 148.741 48.2117 148.141 48.168C145.812 48.2493 143.475 48.3576 141.111 48.3441C139.553 48.3441 137.989 48.2989 136.418 48.2086C134.846 48.1274 133.275 48.0325 131.717 47.8835C129.326 47.6465 126.976 47.2875 124.619 47.0708C124.008 47.0708 123.423 47.3134 122.991 47.7453C122.559 48.1771 122.316 48.7628 122.316 49.3736C122.316 49.9843 122.559 50.57 122.991 51.0019C123.423 51.4337 124.008 51.6764 124.619 51.6764H124.612Z" fill="#005000"/><path fill-rule="evenodd" clip-rule="evenodd" d="M134.188 51.3785C134.472 52.4013 134.655 53.4492 134.736 54.5076C134.779 55.2434 134.768 55.9814 134.702 56.7155C134.558 58.1317 134.332 59.5383 134.025 60.9283C133.707 62.4318 133.307 63.8677 133.063 65.3577C133.046 65.9685 133.273 66.561 133.692 67.0049C134.112 67.4488 134.691 67.7078 135.302 67.7249C135.913 67.7419 136.505 67.5157 136.949 67.0959C137.393 66.6761 137.652 66.0971 137.669 65.4864C137.528 64.4015 137.451 63.3091 137.439 62.2151C137.439 61.4565 137.479 60.7115 137.547 59.953C137.622 59.0928 137.723 58.2259 137.838 57.3725C137.92 56.7833 138.001 56.2008 138.109 55.6183C138.425 54.0954 138.651 52.5553 138.786 51.006C138.737 50.397 138.448 49.8327 137.982 49.437C137.517 49.0414 136.913 48.8468 136.304 48.8962C135.695 48.9456 135.131 49.2349 134.735 49.7004C134.34 50.1659 134.145 50.7695 134.195 51.3785H134.188Z" fill="#005000"/><path fill-rule="evenodd" clip-rule="evenodd" d="M151.432 51.2631C152.092 51.714 152.699 52.239 153.24 52.8276C153.491 53.1371 153.717 53.4654 153.918 53.8097C154.256 54.3515 154.595 54.8933 154.873 55.4555C155.405 56.5518 156.062 57.5835 156.83 58.5304C157.067 58.7321 157.343 58.8837 157.64 58.976C157.937 59.0682 158.25 59.0992 158.56 59.0671C158.869 59.035 159.169 58.9404 159.441 58.7891C159.714 58.6379 159.952 58.4329 160.143 58.1868C160.333 57.9407 160.472 57.6586 160.551 57.3573C160.629 57.0561 160.646 56.742 160.599 56.4342C160.553 56.1263 160.445 55.8311 160.281 55.5662C160.118 55.3014 159.902 55.0725 159.647 54.8933C159.112 54.7026 158.611 54.4258 158.164 54.0738C157.68 53.6339 157.252 53.1357 156.891 52.5906C156.577 52.1164 156.305 51.6156 156.078 51.0937C155.679 50.1523 155.401 49.2651 155.035 48.3846C154.847 48.1471 154.615 47.9489 154.351 47.8013C154.086 47.6537 153.796 47.5597 153.495 47.5244C153.194 47.4892 152.89 47.5136 152.598 47.5961C152.307 47.6786 152.035 47.8176 151.798 48.0053C151.56 48.193 151.362 48.4256 151.214 48.6898C151.067 48.9541 150.973 49.2448 150.938 49.5455C150.902 49.8461 150.927 50.1507 151.009 50.4419C151.092 50.7331 151.231 51.0053 151.418 51.2427L151.432 51.2631Z" fill="#005000"/><path fill-rule="evenodd" clip-rule="evenodd" d="M161.105 48.4052C162.622 46.5494 163.814 46.7323 164.45 47.606C165.06 47.9379 165.399 48.6964 165.046 50.0578C165.015 50.3851 164.918 50.7029 164.762 50.9924L164.687 51.1076C164.647 51.2024 164.599 51.304 164.559 51.4056C164.465 51.576 164.349 51.7331 164.213 51.8729L163.719 52.6586C162.838 54.0741 162.1 55.5574 161.26 56.9932C160.875 57.6738 160.454 58.3339 160.001 58.9709C158.517 61.1992 156.127 62.8924 153.424 64.1657C151.95 64.8544 150.424 65.4251 148.859 65.8725C146.472 66.5651 144.003 66.9297 141.517 66.9562C140.918 66.8989 140.365 66.6092 139.977 66.149C139.588 65.6889 139.396 65.0949 139.44 64.4944C139.484 63.894 139.762 63.3347 140.213 62.9365C140.665 62.5383 141.255 62.3328 141.856 62.3641C144.731 62.7617 147.658 62.5588 150.451 61.7681C151.839 61.3611 153.164 60.7615 154.386 59.9868C155.541 59.2529 156.53 58.2864 157.291 57.149C157.624 56.5916 157.918 56.0123 158.172 55.4151C158.849 53.8574 159.323 52.2454 159.994 50.6741L160.258 50.051C160.286 49.7272 160.383 49.4132 160.542 49.1299L160.793 48.7777C160.881 48.6409 160.985 48.5158 161.105 48.4052Z" fill="#005000"/><path fill-rule="evenodd" clip-rule="evenodd" d="M66.7442 34.1413C64.719 33.9405 62.6823 33.8794 60.6486 33.9585C56.1379 34.1007 51.5729 34.7509 47.1435 34.9812C41.9293 35.2343 36.7031 35.0553 31.5184 34.4461C26.3362 33.8289 21.2244 32.72 16.2523 31.1342C11.9245 29.6916 6.2894 25.7159 4.80614 21.388C3.94598 18.8753 4.88742 16.3558 8.57864 14.2562C10.9607 12.9515 13.5922 12.1667 16.2998 11.9534C20.6683 11.4996 25.1045 11.9534 29.7033 11.3845C30.3077 11.2946 30.8517 10.9684 31.2156 10.4775C31.5795 9.98656 31.7335 9.37118 31.6437 8.76673C31.5539 8.16228 31.2277 7.61826 30.7367 7.25436C30.2458 6.89046 29.6304 6.73649 29.026 6.8263C23.6483 7.7271 18.4942 7.21913 13.4483 8.37052C11.0562 8.89193 8.76733 9.80747 6.67546 11.0797C1.04042 14.5 0.180262 18.6518 1.5958 22.5259C3.47189 27.6665 10.0619 32.5091 15.2432 34.1617C20.4074 35.7984 25.7065 36.9747 31.0782 37.6768C36.4329 38.4354 41.8372 38.7886 47.2451 38.7334C51.0379 38.6995 54.9323 38.3676 58.8064 38.3135C61.2546 38.2474 63.704 38.3901 66.1279 38.7401C66.7341 38.8183 67.3466 38.6524 67.8305 38.279C68.3144 37.9055 68.6302 37.3552 68.7084 36.7489C68.7865 36.1427 68.6206 35.5302 68.2472 35.0463C67.8737 34.5624 67.3234 34.2466 66.7171 34.1684L66.7442 34.1413Z" fill="#005000"/><path fill-rule="evenodd" clip-rule="evenodd" d="M28.39 9.38649L28.3088 9.312C27.2657 8.41797 26.2295 7.72713 25.2339 6.88729C24.7326 6.44805 24.2619 5.97511 23.8251 5.47176C23.6388 5.22203 23.5051 4.93709 23.4322 4.6342C23.3592 4.33131 23.3484 4.01676 23.4005 3.70958C23.4526 3.40241 23.5665 3.10901 23.7353 2.84714C23.9041 2.58527 24.1243 2.36038 24.3826 2.18608C24.6408 2.01177 24.9317 1.89169 25.2377 1.83309C25.5437 1.77449 25.8584 1.7786 26.1628 1.84516C26.4672 1.91172 26.7549 2.03937 27.0085 2.22035C27.2621 2.40133 27.4763 2.63188 27.6383 2.89807C27.8927 3.45022 28.2037 3.97453 28.5661 4.4626C29.2096 5.29567 29.9207 6.02713 30.598 6.90083C30.9231 6.58927 31.79 7.42912 32.1151 7.63231C32.4847 7.8533 32.7723 8.18849 32.9347 8.58729C33.0806 8.92713 33.1057 9.30669 33.0059 9.66281C32.9061 10.0189 32.6874 10.3301 32.3861 10.5446C31.2343 11.4339 30.036 12.2614 28.7964 13.0235C28.3988 13.3134 28.0332 13.6449 27.706 14.0124C27.4728 14.2897 27.3104 14.6194 27.2325 14.9733C27.1547 15.3272 27.1637 15.6946 27.259 16.0442C27.2754 16.3462 27.2323 16.6484 27.1319 16.9337C27.0315 17.219 26.876 17.4817 26.6741 17.7069C26.4722 17.932 26.228 18.1152 25.9553 18.246C25.6826 18.3767 25.3868 18.4525 25.0849 18.4689C24.7829 18.4854 24.4807 18.4422 24.1954 18.3419C23.9101 18.2415 23.6474 18.0859 23.4223 17.8841C23.1971 17.6822 23.0139 17.4379 22.8832 17.1652C22.7524 16.8926 22.6766 16.5968 22.6602 16.2948C22.6876 14.7947 23.2496 13.3537 24.245 12.2311C25.3219 11.0052 26.9068 10.206 28.39 9.38649Z" fill="#005000"/><path fill-rule="evenodd" clip-rule="evenodd" d="M126.48 37.7718C128.9 38.2001 131.346 38.4626 133.801 38.5575C137.323 38.72 140.852 38.6591 144.428 38.7945C152.969 39.1874 161.455 40.1491 169.528 38.9367C175.285 38.1961 180.766 36.0285 185.472 32.6312C186.96 31.607 188.139 30.1938 188.88 28.5456C189.62 26.8975 189.894 25.0777 189.671 23.2846C189.235 19.8633 187.638 16.6954 185.147 14.3105C181.997 11.308 178.252 9.00055 174.154 7.53763C168.214 5.30258 161.638 4.51693 155.414 4.39502C154.803 4.39502 154.217 4.63762 153.785 5.06948C153.353 5.50133 153.111 6.08706 153.111 6.6978C153.111 7.30853 153.353 7.89426 153.785 8.32612C154.217 8.75797 154.803 9.00058 155.414 9.00058C160.337 8.82245 165.262 9.28924 170.063 10.389C174.763 11.4374 179.122 13.6552 182.735 16.8368C184.691 18.609 185.975 21.001 186.373 23.6097C186.541 24.8317 186.37 26.0766 185.876 27.2072C185.383 28.3377 184.586 29.31 183.575 30.0168C179.317 33.1543 174.324 35.1459 169.075 35.8009C161.204 36.8642 152.955 35.5909 144.652 34.9949C141.103 34.7037 137.587 34.6156 134.093 34.3176C131.844 34.1283 129.611 33.7889 127.408 33.3017C127.112 33.2408 126.807 33.2387 126.511 33.2956C126.214 33.3525 125.932 33.4672 125.679 33.6332C125.427 33.7993 125.21 34.0133 125.041 34.2633C124.871 34.5132 124.753 34.794 124.692 35.0898C124.631 35.3855 124.629 35.6903 124.686 35.9869C124.743 36.2834 124.857 36.5658 125.023 36.818C125.189 37.0702 125.403 37.2872 125.653 37.4567C125.903 37.6262 126.184 37.7447 126.48 37.8057V37.7718Z" fill="#005000"/><path fill-rule="evenodd" clip-rule="evenodd" d="M153.282 6.46751C154.746 7.24335 156.143 8.13813 157.461 9.14281C158.769 10.2333 159.757 11.659 160.319 13.2675C160.425 13.6178 160.387 13.9958 160.214 14.3184C160.042 14.641 159.748 14.8818 159.398 14.9878C159.047 15.0938 158.669 15.0563 158.347 14.8835C158.024 14.7108 157.783 14.417 157.677 14.0667C157.417 12.8347 156.819 11.6995 155.95 10.7886C155.369 10.2133 154.728 9.70033 154.04 9.25794C152.977 8.58065 151.812 7.90335 150.654 7.07029C150.51 6.97961 150.388 6.85874 150.295 6.71606C150.203 6.57337 150.143 6.41229 150.119 6.24399C150.099 6.09478 150.111 5.94296 150.156 5.79909C150.2 5.65522 150.275 5.52276 150.376 5.41094C150.668 5.14806 151.026 4.97004 151.412 4.8962C152.084 4.80904 152.745 4.65011 153.383 4.42211C154.508 3.68386 155.645 3.06752 156.641 2.27509C157.24 1.79909 157.761 1.23235 158.185 0.595409C158.296 0.452211 158.435 0.332316 158.592 0.242565C158.75 0.152813 158.923 0.094974 159.103 0.0723329C159.283 0.0496917 159.466 0.0626962 159.641 0.110612C159.815 0.158528 159.979 0.240416 160.122 0.351595C160.266 0.462773 160.385 0.601056 160.475 0.758571C160.565 0.916086 160.623 1.08975 160.645 1.26962C160.668 1.44949 160.655 1.63205 160.607 1.80689C160.559 1.98174 160.477 2.14543 160.366 2.28863C159.683 3.0488 158.891 3.70383 158.016 4.23247C156.871 4.90976 155.632 5.47867 154.372 6.12887C154.025 6.28897 153.658 6.40282 153.282 6.46751Z" fill="#005000"/></svg>