<svg width="175" height="129" viewBox="0 0 175 129" fill="none" xmlns="http://www.w3.org/2000/svg"><path fill-rule="evenodd" clip-rule="evenodd" d="M2.87776 20.5004C2.69186 20.6185 2.47997 20.6894 2.26046 20.7071C2.04094 20.7248 1.82044 20.6887 1.61801 20.602C1.38554 20.5141 1.1817 20.364 1.02882 20.1681C0.87594 19.9722 0.779903 19.738 0.751231 19.4911C0.722559 19.2443 0.762375 18.9943 0.866275 18.7685C0.970175 18.5428 1.13419 18.3499 1.34034 18.2112C1.34034 18.2112 1.41484 18.157 1.54352 18.0825C2.06504 17.7777 4.73356 16.2538 5.27539 15.9693C7.26662 14.9263 9.02078 13.5988 11.0188 12.5829C11.7913 12.1096 12.513 11.5581 13.1726 10.9371C13.3428 10.8176 13.5371 10.7368 13.7419 10.7005C13.9467 10.6642 14.1569 10.6733 14.3578 10.7271C14.5795 10.7834 14.7834 10.8948 14.9504 11.0512C15.1174 11.2075 15.2421 11.4036 15.3128 11.6211C15.4276 11.9616 15.4106 12.3327 15.2652 12.6612C15.1197 12.9897 14.8564 13.2517 14.5271 13.3956C13.8366 14.0285 13.0779 14.5828 12.265 15.0482C10.2738 16.0573 8.53312 17.3848 6.55544 18.4346C6.02715 18.7123 3.43993 20.1888 2.93874 20.4665L2.87776 20.5004V20.5004ZM12.6443 12.4136C12.5826 12.1467 12.6062 11.8671 12.712 11.6144C12.5994 11.8654 12.5755 12.1472 12.6443 12.4136V12.4136Z" fill="#005000"/><path fill-rule="evenodd" clip-rule="evenodd" d="M15.4068 15.5762C15.2586 15.5194 15.1071 15.4718 14.953 15.4339C14.4244 15.3192 13.9022 15.1768 13.3885 15.0072C13.2222 14.9356 13.0715 14.832 12.9453 14.7022C12.819 14.5724 12.7196 14.419 12.6526 14.2508C12.5856 14.0825 12.5524 13.9028 12.5549 13.7217C12.5574 13.5406 12.5956 13.3618 12.6672 13.1955C12.7388 13.0292 12.8424 12.8786 12.9722 12.7523C13.102 12.626 13.2554 12.5266 13.4237 12.4596C13.5919 12.3927 13.7717 12.3594 13.9527 12.3619C14.1338 12.3644 14.3126 12.4026 14.4789 12.4742C14.9462 12.6774 16.3618 12.8602 17.1881 13.3344C17.5456 13.5128 17.8519 13.7792 18.0782 14.1086C18.3045 14.4379 18.4434 14.8194 18.4817 15.2172C18.5291 15.9351 18.1498 17.073 16.3482 18.4005C14.8527 19.2501 13.2284 19.8495 11.5395 20.175C11.4217 20.4382 11.2835 20.6918 11.1263 20.9335C9.87333 22.9044 7.02195 24.7941 5.97215 25.6745C5.36705 26.084 4.851 26.6116 4.45503 27.2256V27.3475C4.48196 27.5782 4.44688 27.812 4.35342 28.0247C4.29798 28.2154 4.20306 28.3923 4.0748 28.5438C3.94655 28.6954 3.78785 28.8183 3.609 28.9045C3.43015 28.9907 3.23513 29.0384 3.03667 29.0443C2.83821 29.0503 2.64072 29.0144 2.45702 28.9391C2.18804 28.8344 1.95951 28.6465 1.80479 28.4029C1.65006 28.1592 1.57724 27.8725 1.5969 27.5845C1.66173 27.1059 1.77055 26.6344 1.92198 26.1758C2.4801 25.1522 3.25431 24.2624 4.19088 23.5682C4.99008 22.8909 6.96099 21.5973 8.25462 20.1817C7.71441 20.0127 7.24072 19.6788 6.90004 19.2268C6.54458 18.7122 6.38374 18.088 6.44627 17.4658C6.52077 16.4363 7.36738 15.6845 8.69487 15.7049C9.45011 15.7243 10.1874 15.939 10.8351 16.328C11.2048 16.5627 11.4933 16.9056 11.6614 17.31V17.371C12.7278 17.1343 13.7529 16.7393 14.7024 16.1993C14.9527 16.0097 15.1881 15.8015 15.4068 15.5762V15.5762Z" fill="#005000"/><path fill-rule="evenodd" clip-rule="evenodd" d="M11.1611 26.4401C11.3526 26.2339 11.6035 26.0925 11.879 26.0355C12.1545 25.9784 12.441 26.0086 12.6986 26.1218L12.834 26.1827C13.9829 26.0896 15.1234 26.4439 16.0173 27.1716C16.2709 27.4024 16.462 27.6936 16.5727 28.0182C16.6611 28.35 16.7111 28.6909 16.7217 29.0341C16.7464 29.6435 16.5963 30.2472 16.2891 30.774C15.9818 31.3009 15.5303 31.7288 14.9878 32.0074C14.4983 32.2991 13.9449 32.4664 13.3758 32.4947C12.8067 32.5231 12.2393 32.4116 11.7233 32.17C11.2847 31.928 10.919 31.573 10.6641 31.1418C10.4092 30.7106 10.2745 30.219 10.2739 29.7182C8.8341 30.4387 7.54819 31.4325 6.48784 32.6441C5.99204 33.1334 5.65059 33.7574 5.50576 34.4389C5.49402 34.602 5.54176 34.7639 5.64011 34.8947C5.73846 35.0254 5.88081 35.1161 6.04085 35.15C6.33131 35.261 6.63352 35.3383 6.94161 35.3803C8.07039 35.5101 9.21238 35.4667 10.3281 35.2516C10.6873 35.1816 11.0597 35.2571 11.3633 35.4616C11.6668 35.6661 11.8767 35.9828 11.9468 36.342C12.0168 36.7013 11.9413 37.0737 11.7368 37.3772C11.5323 37.6808 11.2156 37.8907 10.8564 37.9608C9.08654 38.3055 7.2643 38.2778 5.50576 37.8795C3.78545 37.3648 2.61375 36.2337 2.76275 34.2289C2.94564 32.9618 3.5103 31.7805 4.38148 30.8425C5.78415 29.2303 7.5102 27.9311 9.44759 27.0293C10.0004 26.7831 10.5738 26.5859 11.1611 26.4401ZM13.0982 28.9122C13.0528 29.0917 13.0278 29.2757 13.0237 29.4608C13.0121 29.5507 13.0121 29.6418 13.0237 29.7317C13.2218 29.7243 13.4169 29.6807 13.5994 29.603C13.7551 29.515 13.9448 29.4134 13.9312 29.2305V29.0951C13.6722 28.9683 13.3865 28.9056 13.0982 28.9122V28.9122Z" fill="#005000"/><path fill-rule="evenodd" clip-rule="evenodd" d="M9.04149 45.3973C8.97477 45.5666 8.87462 45.7207 8.74704 45.8504C8.61945 45.9802 8.46703 46.0828 8.29889 46.1524C8.13074 46.2219 7.9503 46.2569 7.76835 46.2551C7.5864 46.2534 7.40667 46.215 7.23988 46.1423C7.00236 46.0585 6.78757 45.9207 6.61244 45.7397C6.43731 45.5587 6.30663 45.3395 6.23072 45.0993C6.15526 44.8719 6.13679 44.6295 6.17694 44.3933C6.21709 44.1571 6.31466 43.9344 6.46102 43.7447C6.8102 43.3568 7.24994 43.0613 7.74106 42.8846C8.48948 42.6633 9.20993 42.3564 9.8881 41.9702C11.2515 40.9706 12.6816 40.0655 14.1686 39.261C15.4012 38.516 16.6136 37.7575 17.047 36.7483C17.1925 36.4115 17.4658 36.1463 17.8069 36.011C18.1479 35.8758 18.5288 35.8815 18.8656 36.027C19.2024 36.1725 19.4676 36.4459 19.6028 36.7869C19.7381 37.1279 19.7324 37.5087 19.5869 37.8455C18.8834 39.1692 17.8258 40.2713 16.5323 41.0288C14.8662 42.1463 12.8207 43.0607 11.6964 44.0563C11.2266 44.4097 10.7089 44.6948 10.159 44.9029L9.04149 45.3973Z" fill="#005000"/><path fill-rule="evenodd" clip-rule="evenodd" d="M16.5606 38.3466C16.5373 38.1146 16.577 37.8806 16.6757 37.6693C16.7456 37.5013 16.8486 37.3491 16.9786 37.2218C17.1086 37.0945 17.2629 36.9947 17.4323 36.9283C17.6017 36.8619 17.7828 36.8304 17.9646 36.8355C18.1465 36.8406 18.3255 36.8823 18.4909 36.9582C18.6867 37.0332 18.8648 37.1478 19.0143 37.2949C19.1637 37.4419 19.2812 37.6182 19.3594 37.8127C19.4376 38.0073 19.4748 38.2158 19.4687 38.4254C19.4626 38.6349 19.4133 38.841 19.324 39.0307C19.0192 39.9382 17.353 41.8549 17.0686 42.1394C15.0389 44.1249 13.1279 46.2281 11.3455 48.4382V48.4788L11.5893 48.3569C12.8762 47.7271 14.0343 46.9143 15.3686 46.3657C17.0483 45.6884 18.4096 44.239 20.0148 43.5753C20.3534 43.4352 20.7338 43.4353 21.0723 43.5756C21.4108 43.716 21.6797 43.9851 21.8198 44.3237C21.9599 44.6623 21.9598 45.0426 21.8194 45.3811C21.679 45.7196 21.41 45.9885 21.0714 46.1286C19.4594 46.8059 18.098 48.2282 16.4184 48.9191C15.1451 49.4406 14.0411 50.233 12.8085 50.8358C10.8782 51.784 9.6726 52.021 9.08336 51.9398C8.82498 51.9147 8.57543 51.8325 8.35283 51.6989C8.13023 51.5653 7.94017 51.3839 7.7965 51.1677C7.53185 50.7692 7.43005 50.2844 7.51205 49.8131C7.83861 48.6777 8.40701 47.6264 9.17819 46.7314C11.0399 44.425 13.0322 42.2269 15.1451 40.1482C15.2738 40.033 16.2084 38.8139 16.5606 38.3466ZM17.3192 39.4641H17.3869H17.3192Z" fill="#005000"/><path fill-rule="evenodd" clip-rule="evenodd" d="M16.4435 55.0081C16.1499 55.2454 15.8779 55.5083 15.6307 55.7937C14.5132 57.0941 13.9104 58.7941 14.4319 60.2842C14.6662 60.8455 15.0176 61.3503 15.4626 61.765C15.9076 62.1796 16.4359 62.4945 17.0124 62.6885C17.18 62.7584 17.3323 62.8605 17.4605 62.9892C17.5887 63.1179 17.6903 63.2705 17.7595 63.4384C17.8286 63.6063 17.8641 63.7863 17.8637 63.9679C17.8634 64.1495 17.8273 64.3292 17.7574 64.4969C17.6876 64.6645 17.5854 64.8168 17.4568 64.945C17.3281 65.0732 17.1755 65.1747 17.0076 65.2439C16.8396 65.3131 16.6597 65.3486 16.4781 65.3482C16.2965 65.3479 16.1167 65.3118 15.9491 65.2419C13.565 64.2463 12.2782 62.6886 11.7567 61.0089C11.2608 59.2642 11.4674 57.3948 12.3323 55.8005C13.9511 52.6173 17.7507 50.1858 21.8144 51.1272C22.2669 51.1918 22.6977 51.3622 23.072 51.6247C23.4462 51.8871 23.7533 52.2341 23.9682 52.6376C24.2226 53.1977 24.2446 53.8359 24.0291 54.4121C23.5694 55.456 22.792 56.3282 21.8076 56.9045C20.9979 57.443 20.0668 57.7712 19.0985 57.8595C18.7068 57.895 18.3123 57.836 17.9482 57.6875C17.584 57.539 17.2608 57.3053 17.0057 57.0061C16.7852 56.7263 16.6221 56.4059 16.5256 56.0631C16.4292 55.7202 16.4013 55.3617 16.4435 55.0081ZM20.1821 53.6535C20.0173 53.9405 19.8244 54.2104 19.6064 54.4595C19.4777 54.6085 19.261 54.893 19.2271 54.9471C19.9856 54.782 20.6618 54.3552 21.1371 53.7415C20.8221 53.6845 20.5022 53.6596 20.1821 53.667V53.6535Z" fill="#005000"/><path fill-rule="evenodd" clip-rule="evenodd" d="M22.3623 70.4096C21.9275 70.2358 21.5246 69.9909 21.1703 69.6849C20.6968 69.2517 20.3433 68.7036 20.144 68.0937C19.9446 67.4838 19.9062 66.8327 20.0324 66.2036C20.1716 64.9647 20.7337 63.8117 21.624 62.9391C22.2055 62.426 22.8881 62.0404 23.6276 61.8071C24.3672 61.5738 25.1474 61.498 25.9181 61.5845C27.4019 61.6942 28.8182 62.2489 29.9818 63.1761C30.3052 63.4382 30.5638 63.7713 30.7377 64.1495C30.9115 64.5277 30.9959 64.9409 30.9842 65.357C30.9374 65.8451 30.7274 66.3032 30.3882 66.6574C30.3647 66.8758 30.293 67.0864 30.1782 67.2737C29.7051 67.8508 29.1561 68.3612 28.546 68.7908C27.6993 69.4681 26.7037 70.0777 26.2567 70.3486C26.0094 70.6483 25.7473 70.9354 25.4711 71.2088C23.7711 72.6853 20.2221 77.0876 16.6663 79.3836C13.7337 81.3139 10.7875 81.7948 8.53886 79.492C7.23846 78.1374 7.05557 76.9454 7.32648 75.9904C7.52316 75.461 7.83023 74.9794 8.22725 74.5777C8.62427 74.176 9.10219 73.8634 9.62928 73.6606C12.3384 72.394 17.4113 72.306 19.389 73.1119C19.467 73.1459 19.5418 73.1866 19.6125 73.2339C20.6826 72.2247 21.6105 71.2155 22.3623 70.4096ZM17.3504 75.4283C15.1471 75.1265 12.9033 75.3875 10.8281 76.1868C10.6223 76.2785 10.4271 76.392 10.2456 76.5255C10.1468 76.5857 10.0671 76.6726 10.0153 76.7761C10.0153 76.837 10.0153 76.898 10.0831 76.9725C10.206 77.2009 10.3637 77.4088 10.5504 77.5888C11.8305 78.9028 13.4898 78.1984 15.1763 77.0944C15.9452 76.5902 16.6784 76.0335 17.3707 75.4283H17.3504ZM27.8145 65.0996C27.4198 64.847 26.9941 64.6467 26.5479 64.5036C26.0828 64.3477 25.5899 64.2924 25.1018 64.3414C24.6138 64.3905 24.1417 64.5427 23.7169 64.788C23.4423 65.0124 23.2161 65.2902 23.0519 65.6045C22.8878 65.9188 22.7891 66.2632 22.7619 66.6167C22.5858 67.7817 23.6627 68.1339 24.699 67.9713C25.3142 67.2139 25.994 66.5114 26.7308 65.8717C26.9775 65.6789 27.2457 65.5153 27.53 65.3841C27.6127 65.2709 27.7162 65.1743 27.8348 65.0996H27.8145Z" fill="#005000"/><path fill-rule="evenodd" clip-rule="evenodd" d="M35.721 75.557C36.3373 78.0495 34.8134 80.5283 32.531 82.0251C29.7202 83.8606 25.9884 83.9825 24.2342 81.3478C23.6449 80.4674 23.6788 79.2279 24.4983 77.9072C25.6971 75.9498 28.7584 73.5658 31.1493 72.4889C31.9354 72.1134 32.7912 71.9058 33.662 71.8794C34.0075 71.8724 34.35 71.9444 34.6634 72.09C34.9768 72.2355 35.2528 72.4507 35.4704 72.7192C35.87 73.2813 36.1409 74.2025 35.721 75.557ZM32.4971 75.0423C31.91 75.2469 31.345 75.5102 30.8106 75.828C29.3324 76.6902 28.0297 77.823 26.9704 79.167C26.8285 79.4073 26.7062 79.6588 26.6047 79.9188C26.8094 80.1549 27.0671 80.3393 27.3566 80.457C27.6461 80.5747 27.9594 80.6224 28.2708 80.5961C29.2549 80.5546 30.2077 80.2379 31.0206 79.6817C32.2397 78.8758 33.276 77.6499 33.0525 76.2953C32.9318 76.1062 32.8618 75.8893 32.8493 75.6654C32.7951 75.557 32.7342 75.4487 32.6664 75.3403C32.6064 75.2523 32.5585 75.1567 32.5242 75.0559L32.4971 75.0423Z" fill="#005000"/><path fill-rule="evenodd" clip-rule="evenodd" d="M42.3759 75.5165C42.3704 75.3263 42.405 75.137 42.4775 74.9611C42.5448 74.7916 42.6457 74.6374 42.774 74.5078C42.9024 74.3782 43.0556 74.2759 43.2245 74.2069C43.3934 74.138 43.5744 74.1039 43.7568 74.1066C43.9392 74.1093 44.1191 74.1489 44.2859 74.2229C44.5542 74.3227 44.7866 74.5005 44.9532 74.7335C45.1197 74.9664 45.2128 75.2438 45.2205 75.53C45.2026 76.103 45.0034 76.6555 44.6516 77.1081C43.4257 78.9097 39.1046 83.0479 38.2919 84.2264C37.4124 85.4097 36.594 86.6371 35.8401 87.9041C35.46 88.534 35.1812 89.2196 35.0138 89.9359C35.1219 89.9461 35.2307 89.9461 35.3389 89.9359C35.7944 89.8528 36.235 89.7022 36.6461 89.489C36.8023 89.1575 37.0838 88.9018 37.4287 88.7779C37.7735 88.6541 38.1535 88.6723 38.4849 88.8286C38.8163 88.9849 39.0721 89.2664 39.1959 89.6112C39.3197 89.9561 39.3015 90.336 39.1453 90.6674C38.9106 91.1711 38.5309 91.5932 38.0548 91.8798C37.0566 92.4811 35.8992 92.7646 34.7361 92.6925C34.342 92.6702 33.957 92.5644 33.6068 92.3823C33.2565 92.2001 32.9489 91.9458 32.7042 91.636C32.3287 91.1183 32.1729 90.4732 32.2708 89.8412C32.5417 87.491 34.7903 84.4973 36.05 82.6754C36.7273 81.7272 39.5652 78.9029 41.3735 76.8507C41.7393 76.3766 42.1592 75.8077 42.3759 75.5165ZM43.1548 76.7424H43.2157H43.1548ZM43.0938 76.7424H43.1412H43.0938Z" fill="#005000"/><path fill-rule="evenodd" clip-rule="evenodd" d="M41.3258 85.3914C40.8958 85.0691 40.4821 84.7255 40.0864 84.3619C39.2195 83.434 38.2713 82.5196 37.4788 81.6121C37.3605 81.4747 37.2705 81.3153 37.2138 81.1431C37.1571 80.9708 37.1349 80.7891 37.1484 80.6083C37.1619 80.4275 37.2109 80.2511 37.2926 80.0893C37.3743 79.9274 37.487 79.7832 37.6244 79.6649C37.7618 79.5466 37.9212 79.4565 38.0935 79.3998C38.2657 79.3431 38.4474 79.3209 38.6282 79.3344C38.809 79.3479 38.9854 79.3969 39.1473 79.4786C39.3092 79.5603 39.4533 79.6731 39.5716 79.8105C40.337 80.691 41.2716 81.5782 42.1115 82.5197C42.4501 82.8854 43.5135 83.6236 43.6354 83.7726C43.8271 83.9831 43.9452 84.25 43.9721 84.5334C43.999 84.8168 43.9331 85.1012 43.7844 85.3439C43.7007 85.5073 43.5846 85.652 43.4432 85.7692C43.3019 85.8863 43.1382 85.9735 42.9621 86.0255C42.786 86.0774 42.6012 86.093 42.4189 86.0713C42.2365 86.0496 42.0605 85.9911 41.9015 85.8993C41.6624 85.7925 41.4616 85.6153 41.3258 85.3914V85.3914Z" fill="#005000"/><path fill-rule="evenodd" clip-rule="evenodd" d="M49.1706 86.4547C47.816 88.2428 44.4905 92.6249 44.1857 93.3563C44.0456 93.6949 43.7767 93.964 43.4382 94.1043C43.0997 94.2447 42.7193 94.2448 42.3807 94.1047C42.0421 93.9646 41.7731 93.6957 41.6327 93.3572C41.4924 93.0187 41.4922 92.6383 41.6323 92.2997C42.0726 91.2431 46.7662 84.5719 47.9988 83.5627C48.2272 83.3463 48.5161 83.2045 48.827 83.1561C49.1378 83.1078 49.4561 83.1551 49.7395 83.2918C49.9128 83.3749 50.0666 83.494 50.1903 83.6412C50.3141 83.7883 50.4051 83.9601 50.4574 84.1452C50.5695 84.6276 50.5146 85.1338 50.3016 85.581C50.2133 85.8176 50.0606 86.0248 49.8607 86.1792C49.6608 86.3336 49.4218 86.429 49.1706 86.4547V86.4547Z" fill="#005000"/><path fill-rule="evenodd" clip-rule="evenodd" d="M55.8354 98.6322C55.2303 99.1959 54.4837 99.585 53.6751 99.7579C52.8664 99.9308 52.026 99.8812 51.2434 99.6143C50.4824 99.3253 49.8053 98.8514 49.2732 98.2354C48.7411 97.6193 48.3708 96.8805 48.1956 96.0856C48.063 95.5043 48.091 94.8979 48.2768 94.3314C48.7386 93.0067 49.4618 91.7883 50.4035 90.7486C51.1911 89.8085 52.1408 89.0171 53.2075 88.4119C53.9173 87.9934 54.7493 87.8308 55.5645 87.9513C56.106 88.0949 56.6159 88.3384 57.068 88.6693C57.7989 89.1693 58.4305 89.8009 58.9306 90.5318C59.2315 90.9895 59.3611 91.5389 59.2963 92.0828C59.424 92.283 59.4985 92.5125 59.5127 92.7495C59.527 92.9866 59.4805 93.2234 59.3776 93.4374C59.0089 94.2589 58.6856 95.1 58.409 95.9569C58.2587 96.3304 58.2052 96.7357 58.2533 97.1354C58.3506 97.4168 58.5419 97.656 58.7951 97.8127C59.5108 98.3125 60.2868 98.7198 61.1047 99.025C61.4433 99.1661 61.712 99.4358 61.8517 99.7749C61.9914 100.114 61.9907 100.495 61.8497 100.833C61.7087 101.172 61.4389 101.441 61.0998 101.58C60.7607 101.72 60.3799 101.719 60.0413 101.578C57.6234 100.651 56.3907 99.6752 55.8354 98.6322ZM54.9684 90.6876C54.8776 90.6947 54.7895 90.7225 54.7111 90.7689C54.5171 90.8407 54.3329 90.9362 54.1625 91.0533C52.7931 92.0166 51.7002 93.322 50.9928 94.8394C50.8867 95.0198 50.8327 95.2261 50.837 95.4354C50.9046 95.7886 51.0588 96.1195 51.2858 96.3984C51.5127 96.6774 51.8053 96.8957 52.1374 97.0338C52.4611 97.1317 52.8052 97.1399 53.1332 97.0576C53.4612 96.9753 53.7608 96.8056 53.9999 96.5665C54.793 95.8311 55.4509 94.9623 55.9437 93.9995L56.235 93.4374C56.0845 93.3232 55.9596 93.1788 55.8683 93.0134C55.777 92.8481 55.7212 92.6655 55.7046 92.4774C55.688 92.2892 55.711 92.0997 55.772 91.9209C55.833 91.7422 55.9307 91.5782 56.0589 91.4394C55.8692 91.2701 55.6525 91.1075 55.4561 90.9653C55.2597 90.8231 55.0226 90.7147 54.9684 90.6876Z" fill="#005000"/><path fill-rule="evenodd" clip-rule="evenodd" d="M62.0525 105.872C62.2871 105.786 62.5137 105.68 62.7298 105.554C63.7442 104.961 64.6086 104.143 65.2561 103.163C65.3259 102.996 65.428 102.844 65.5564 102.716C65.6849 102.588 65.8374 102.487 66.005 102.418C66.1726 102.35 66.3521 102.314 66.5333 102.315C66.7145 102.315 66.8938 102.352 67.061 102.421C67.2283 102.491 67.3801 102.593 67.5078 102.722C67.6356 102.85 67.7368 103.003 67.8057 103.17C67.8745 103.338 67.9097 103.517 67.9092 103.699C67.9087 103.88 67.8725 104.059 67.8027 104.226C67.3625 105.297 65.0461 107.667 63.1632 108.426C62.7815 108.605 62.3672 108.704 61.9457 108.718C61.5242 108.732 61.1043 108.66 60.7115 108.507C60.2627 108.283 59.8879 107.935 59.632 107.504C59.3762 107.072 59.25 106.576 59.2688 106.075C58.9573 101.646 61.4565 96.7491 62.6553 92.5906C63.1375 91.0286 63.7027 89.4935 64.3485 87.9918L65.229 85.8786C68.6154 78.0695 70.4102 80.2436 67.7891 86.9217V87.0029L66.929 89.0348C66.326 90.4428 65.7947 91.8805 65.3374 93.3423C64.2198 97.23 61.768 101.761 62.0525 105.872ZM67.376 87.5244C67.1517 87.6959 66.8793 87.793 66.5971 87.8021C66.8813 87.8043 67.1572 87.7059 67.376 87.5244V87.5244ZM65.1816 86.5965C65.1918 86.699 65.217 86.7993 65.2561 86.8945C65.22 86.7984 65.195 86.6984 65.1816 86.5965V86.5965ZM65.1816 86.1698C65.1816 86.0953 65.2222 86.0276 65.2493 85.9531C65.229 86.0141 65.2087 86.0818 65.1951 86.136L65.1816 86.1698Z" fill="#005000"/><path fill-rule="evenodd" clip-rule="evenodd" d="M67.4991 92.5502C68.1453 92.3694 68.801 92.2247 69.4633 92.1168C69.861 92.0646 70.2652 92.1355 70.6214 92.3199C70.9447 92.492 71.1878 92.7837 71.2987 93.1327C71.4002 93.4553 71.3834 93.8035 71.2513 94.1148C71.1263 94.4357 70.8838 94.6969 70.573 94.8454C70.2623 94.9938 69.9066 95.0184 69.5784 94.914C69.1179 95.0223 68.0139 95.2729 67.9529 95.2797C66.043 95.5235 63.6251 95.7335 61.7896 94.9681C61.4519 94.8271 61.184 94.5577 61.0449 94.2192C60.9059 93.8807 60.9069 93.5009 61.048 93.1632C61.189 92.8255 61.4583 92.5576 61.7968 92.4185C62.1353 92.2794 62.5153 92.2805 62.853 92.4215C64.2075 92.9972 66.0362 92.7331 67.4991 92.5502ZM68.637 93.1327C68.5813 93.282 68.556 93.4408 68.5625 93.6C68.5649 93.4526 68.59 93.3063 68.637 93.1665V93.1327Z" fill="#005000"/><path fill-rule="evenodd" clip-rule="evenodd" d="M77.0502 94.0944C76.7319 95.09 74.2598 102.818 74.4088 104.85C74.4349 105.216 74.3142 105.578 74.0736 105.856C73.8329 106.133 73.4918 106.304 73.1253 106.33C72.7589 106.356 72.3971 106.235 72.1196 105.994C71.842 105.754 71.6715 105.413 71.6455 105.046C71.4761 102.547 73.8128 94.0741 74.7136 92.5705C74.8787 92.2268 75.1652 91.9565 75.5179 91.8114C75.8705 91.6663 76.2643 91.6569 76.6235 91.7849C76.7947 91.8477 76.9515 91.9444 77.0844 92.0693C77.2174 92.1942 77.3237 92.3446 77.397 92.5116C77.4704 92.6786 77.5093 92.8586 77.5114 93.041C77.5135 93.2234 77.4787 93.4043 77.4092 93.5729C77.3341 93.7735 77.2108 93.9526 77.0502 94.0944V94.0944Z" fill="#005000"/><path fill-rule="evenodd" clip-rule="evenodd" d="M82.6397 93.4034C83.5275 92.2896 84.8209 91.5734 86.2361 91.4122C86.7383 91.3633 87.2412 91.498 87.6517 91.7915C88.0141 92.0993 88.2961 92.4909 88.4731 92.9323C88.6501 93.3737 88.7169 93.8516 88.6676 94.3246C88.6337 96.5325 87.1776 100.42 87.0963 101.307C87.078 101.546 87.1399 101.785 87.2724 101.985L87.3537 102.093C87.4938 101.754 87.7627 101.485 88.1012 101.345C88.4396 101.205 88.82 101.205 89.1586 101.345C89.4972 101.485 89.7663 101.754 89.9066 102.092C90.047 102.431 90.0471 102.811 89.907 103.15C89.7683 103.553 89.5422 103.92 89.2448 104.226C88.9474 104.532 88.5861 104.768 88.1867 104.917C87.8187 105.033 87.4288 105.061 87.048 105C86.6671 104.939 86.3057 104.79 85.9923 104.565C85.4445 104.171 85.006 103.644 84.7181 103.034C84.4302 102.424 84.3023 101.75 84.3465 101.077C84.421 100.339 85.4979 97.3723 85.823 95.1508C85.8615 94.8794 85.8796 94.6054 85.8772 94.3313C85.304 94.6177 84.8141 95.0469 84.4549 95.5775C83.4249 97.0971 82.5898 98.74 81.9692 100.468C81.8879 100.664 80.9668 103.475 80.723 104.003C80.5786 104.347 80.3069 104.621 79.9648 104.769C79.6226 104.916 79.2366 104.926 78.8876 104.795C78.646 104.672 78.4364 104.493 78.2754 104.275C78.1144 104.056 78.0063 103.803 77.9597 103.536C77.7945 102.276 77.9267 100.996 78.3457 99.797C78.8198 98.1851 79.5852 96.5054 79.7816 95.1982C79.8222 94.9138 79.8493 94.2229 79.8629 93.7624C79.7644 93.5847 79.7072 93.3871 79.6955 93.1842C79.6838 92.9814 79.7178 92.7786 79.7951 92.5907C79.8684 92.3713 79.9925 92.1722 80.1573 92.0098C80.3221 91.8474 80.5229 91.7262 80.7433 91.656C81.0673 91.5536 81.4173 91.5712 81.7294 91.7055C82.0415 91.8398 82.2949 92.0818 82.4433 92.3875C82.5556 92.633 82.6221 92.897 82.6397 93.1664C82.6397 93.2341 82.6397 93.3154 82.6397 93.4034Z" fill="#005000"/><path fill-rule="evenodd" clip-rule="evenodd" d="M116.337 97.9076V97.8196C115.476 95.4694 110.241 85.7841 109.611 84.1925C109.475 83.8521 109.479 83.4714 109.623 83.1342C109.767 82.797 110.039 82.5308 110.38 82.3943C110.72 82.2578 111.101 82.2621 111.438 82.4062C111.775 82.5504 112.041 82.8226 112.178 83.163C112.74 84.5786 116.919 92.3809 118.45 95.7403C118.735 96.2908 118.962 96.8696 119.127 97.4674C119.19 97.7691 119.161 98.0825 119.046 98.3682C118.955 98.6905 118.747 98.9677 118.464 99.1462C118.18 99.3247 117.841 99.3917 117.511 99.3345C117.181 99.2772 116.883 99.0997 116.677 98.8362C116.47 98.5726 116.368 98.2418 116.391 97.9076H116.337Z" fill="#005000"/><path fill-rule="evenodd" clip-rule="evenodd" d="M124.858 94.6159C125.019 94.7144 125.157 94.8454 125.265 95.0005C125.372 95.1556 125.446 95.3314 125.481 95.5166C125.537 95.6958 125.556 95.8844 125.538 96.0711C125.52 96.2579 125.464 96.4391 125.374 96.604C125.284 96.7688 125.163 96.914 125.016 97.0309C124.869 97.1477 124.7 97.234 124.519 97.2844C124.221 97.3681 123.905 97.357 123.614 97.2526C123.322 97.1482 123.071 96.9557 122.894 96.7019C122.366 96.0246 120.659 92.6992 120.144 91.8322C118.07 88.4263 116.258 84.867 114.726 81.1852C114.66 81.0162 114.629 80.836 114.633 80.6549C114.637 80.4737 114.677 80.2952 114.751 80.1295C114.824 79.9638 114.929 79.8141 115.06 79.689C115.191 79.564 115.346 79.4659 115.515 79.4006C115.684 79.3352 115.864 79.3037 116.045 79.308C116.226 79.3123 116.405 79.3522 116.571 79.4255C116.736 79.4988 116.886 79.6039 117.011 79.735C117.136 79.8661 117.234 80.0206 117.299 80.1896C118.775 83.7417 120.524 87.1744 122.528 90.4573C122.914 91.0804 124.323 93.6406 124.858 94.6159Z" fill="#005000"/><path fill-rule="evenodd" clip-rule="evenodd" d="M120.062 86.2649C117.868 86.6984 114.962 88.6355 112.707 89.5633C112.539 89.6323 112.387 89.7335 112.258 89.8614C112.13 89.9892 112.028 90.1411 111.958 90.3084C111.888 90.4757 111.852 90.6551 111.852 90.8364C111.851 91.0177 111.886 91.1973 111.955 91.3649C112.024 91.5326 112.125 91.685 112.253 91.8136C112.381 91.9421 112.533 92.0441 112.7 92.114C112.868 92.1838 113.047 92.2199 113.228 92.2204C113.41 92.2209 113.589 92.1857 113.757 92.1167C115.863 91.2498 118.545 89.4076 120.597 88.9741C120.957 88.9031 121.273 88.6924 121.477 88.3882C121.681 88.084 121.755 87.7112 121.685 87.352C121.614 86.9927 121.403 86.6764 121.099 86.4725C120.794 86.2686 120.422 86.194 120.062 86.2649V86.2649Z" fill="#005000"/><path fill-rule="evenodd" clip-rule="evenodd" d="M129.151 89.6104C129.216 89.6235 129.28 89.644 129.34 89.6714C129.51 89.738 129.665 89.8384 129.796 89.9665C129.926 90.0945 130.029 90.2477 130.099 90.4166C130.168 90.5855 130.203 90.7668 130.201 90.9495C130.198 91.1322 130.159 91.3126 130.085 91.4797C130.012 91.7165 129.883 91.9321 129.709 92.1078C129.534 92.2836 129.319 92.4144 129.083 92.4889C128.797 92.5839 128.488 92.5839 128.203 92.4889C127.965 92.406 127.751 92.2665 127.579 92.0825C127.505 92.008 127.41 91.8251 127.241 91.6287C125.791 89.949 124.992 87.8833 124.234 85.8176C123.59 84.0702 122.994 82.316 121.816 80.9411C121.698 80.8033 121.608 80.6435 121.552 80.4711C121.496 80.2986 121.474 80.1168 121.489 79.9359C121.503 79.7551 121.552 79.5789 121.635 79.4172C121.717 79.2556 121.83 79.1118 121.968 78.9939C122.106 78.8761 122.266 78.7865 122.438 78.7304C122.611 78.6743 122.792 78.6527 122.973 78.6668C123.154 78.681 123.33 78.7306 123.492 78.8129C123.654 78.8951 123.797 79.0084 123.915 79.1463C125.27 80.765 126.069 82.8037 126.828 84.8694C127.337 86.5663 128.122 88.168 129.151 89.6104V89.6104Z" fill="#005000"/><path fill-rule="evenodd" clip-rule="evenodd" d="M129.795 77.643C129.449 77.4477 129.123 77.2209 128.819 76.9657C128.323 76.4955 127.938 75.9196 127.694 75.2807C127.45 74.6417 127.353 73.956 127.41 73.2745C127.431 72.5213 127.705 71.7972 128.19 71.2203C128.675 70.6434 129.341 70.2478 130.079 70.098C130.512 69.9824 130.967 69.9732 131.404 70.0711C131.842 70.1689 132.249 70.371 132.592 70.6601C133.16 71.2143 133.5 71.9607 133.547 72.7529C133.607 73.8954 133.477 75.0399 133.161 76.1394L133.289 76.18C134.515 76.5796 135.809 76.925 136.933 77.4127C138.816 78.2119 140.272 79.4107 140.753 81.4764C141.322 83.9553 139.825 86.5019 137.814 87.7007C137.214 88.0985 136.526 88.344 135.809 88.416C135.093 88.488 134.37 88.3843 133.703 88.1138C132.708 87.635 131.94 86.7869 131.562 85.7501C131.493 85.5824 131.457 85.4028 131.457 85.2213C131.457 85.0399 131.493 84.8602 131.563 84.6926C131.703 84.3541 131.972 84.0853 132.311 83.9451C132.649 83.805 133.03 83.8052 133.368 83.9455C133.707 84.0859 133.976 84.3549 134.116 84.6935C134.232 85.0782 134.495 85.4017 134.847 85.5943C135.108 85.6791 135.385 85.6993 135.655 85.6533C135.925 85.6073 136.18 85.4964 136.398 85.3302C137.455 84.7003 138.362 83.4067 138.064 82.0995C137.712 80.5621 136.29 80.0677 134.813 79.5394C133.987 79.2617 133.134 79.0043 132.307 78.7266C131.943 79.7333 131.451 80.6892 130.844 81.5712C130.604 81.8479 130.263 82.0176 129.897 82.043C129.531 82.0684 129.17 81.9474 128.894 81.7067C128.617 81.466 128.447 81.1252 128.422 80.7594C128.397 80.3936 128.518 80.0327 128.758 79.7561C129.195 79.1001 129.543 78.3896 129.795 77.643V77.643ZM130.729 72.78H130.594C130.262 72.8478 130.174 73.1729 130.147 73.4573C130.12 73.7031 130.147 73.9518 130.226 74.1859C130.306 74.42 130.436 74.6337 130.607 74.8119C130.675 74.4733 130.729 74.1346 130.763 73.8366C130.804 73.5105 130.804 73.1806 130.763 72.8545C130.753 72.8292 130.742 72.8044 130.729 72.78V72.78Z" fill="#005000"/><path fill-rule="evenodd" clip-rule="evenodd" d="M150.973 77.5278C151.064 77.3914 151.141 77.2462 151.203 77.0944C151.428 76.5209 151.559 75.9148 151.589 75.2995C151.619 75.1156 151.619 74.9281 151.589 74.7441C151.52 74.5765 151.485 74.3969 151.486 74.2156C151.486 74.0344 151.522 73.855 151.592 73.6877C151.662 73.5204 151.764 73.3685 151.893 73.2406C152.021 73.1128 152.174 73.0115 152.341 72.9426C152.509 72.8736 152.688 72.8384 152.87 72.8389C153.051 72.8393 153.23 72.8755 153.398 72.9453C153.565 73.0152 153.717 73.1172 153.845 73.2457C153.973 73.3743 154.074 73.5267 154.143 73.6944C154.366 74.3611 154.437 75.069 154.353 75.7669C154.257 76.8966 153.922 77.9931 153.371 78.984C153.155 79.388 152.842 79.7319 152.46 79.9849C152.078 80.2379 151.639 80.392 151.183 80.4334C150.479 80.4493 149.798 80.1864 149.287 79.7019C147.153 77.8461 143.387 73.4234 140.028 69.8812C137.996 67.7207 136.127 65.8784 134.948 65.3772C134.779 65.3099 134.625 65.2091 134.495 65.0807C134.365 64.9523 134.263 64.7992 134.194 64.6303C134.125 64.4614 134.091 64.2804 134.094 64.098C134.097 63.9156 134.136 63.7356 134.21 63.5689C134.355 63.2336 134.626 62.9686 134.964 62.8305C135.302 62.6925 135.68 62.6926 136.019 62.8307C137.082 63.2844 138.64 64.5645 140.38 66.2848C143.95 69.8541 148.494 75.3334 150.973 77.5278Z" fill="#005000"/><path fill-rule="evenodd" clip-rule="evenodd" d="M145.547 67.6394C145.002 68.5651 144.4 69.4563 143.745 70.3079C142.88 71.3706 141.875 72.3115 140.758 73.1051C140.259 73.4578 139.68 73.6834 139.074 73.7625C138.467 73.8416 137.851 73.7717 137.277 73.5589C136.938 73.4179 136.67 73.1481 136.53 72.809C136.39 72.4699 136.391 72.0891 136.532 71.7505C136.673 71.4119 136.943 71.1432 137.282 71.0035C137.621 70.8638 138.002 70.8645 138.34 71.0055C138.441 71.0375 138.547 71.0485 138.651 71.038C138.756 71.0276 138.858 70.9957 138.95 70.9445C139.222 70.8153 139.479 70.6563 139.715 70.4704C140.432 69.8532 141.091 69.1732 141.686 68.4386C142.309 67.7613 143.501 65.6346 143.718 65.3772C143.91 65.1438 144.173 64.9811 144.468 64.9149C144.762 64.8486 145.071 64.8826 145.344 65.0115C145.52 65.0967 145.677 65.216 145.807 65.3626C145.937 65.5092 146.036 65.6801 146.099 65.8654C146.162 66.0507 146.187 66.2466 146.174 66.4419C146.161 66.6371 146.109 66.8278 146.021 67.0027C145.934 67.2598 145.768 67.4827 145.547 67.6394V67.6394Z" fill="#005000"/><path fill-rule="evenodd" clip-rule="evenodd" d="M147.44 56.0915C150.305 54.8385 153.38 56.4437 155.263 59.1393C157.45 62.2616 157.809 66.6436 154.667 68.9667C152.635 70.45 150.508 69.9353 148.639 68.3639C146.552 66.4234 145.042 63.9434 144.277 61.1982C144.16 59.787 144.422 58.3701 145.036 57.0939C145.246 56.6629 145.606 56.3233 146.049 56.1388C146.491 55.9543 146.986 55.9375 147.44 56.0915ZM147.149 59.4779C147.043 59.862 146.989 60.2582 146.986 60.6564C147.593 62.8 148.784 64.7323 150.427 66.2373C151.246 66.9145 152.154 67.3751 153.028 66.7249C154.951 65.3026 154.342 62.6205 153.028 60.7106C151.714 58.8006 149.587 57.5476 147.718 59.1596C147.555 59.3055 147.36 59.4101 147.149 59.4644V59.4779Z" fill="#005000"/><path fill-rule="evenodd" clip-rule="evenodd" d="M150.371 49.4743C150.297 48.9596 150.236 46.3249 150.595 45.4512C150.747 45.0496 151.041 44.7173 151.421 44.5166C151.621 44.4224 151.84 44.3735 152.061 44.3735C152.282 44.3735 152.501 44.4224 152.701 44.5166C152.871 44.5832 153.026 44.6836 153.156 44.8117C153.287 44.9398 153.39 45.0929 153.459 45.2618C153.529 45.4308 153.564 45.612 153.561 45.7948C153.559 45.9775 153.52 46.1578 153.446 46.325C153.374 46.5088 153.26 46.6734 153.114 46.8058C153.114 46.9887 153.067 47.2257 153.06 47.4154C153.036 47.9825 153.052 48.5505 153.107 49.1154C153.343 50.0541 153.746 50.9422 154.299 51.7365C155.22 53.2384 156.311 54.6292 157.55 55.8815C157.652 55.9831 158.031 56.4436 158.404 56.9109C158.959 57.4799 159.433 57.9879 159.603 58.2046C159.814 58.4719 159.922 58.8064 159.906 59.1467C159.891 59.4871 159.753 59.8105 159.518 60.0575C159.284 60.3045 158.968 60.4586 158.629 60.4915C158.29 60.5243 157.95 60.4338 157.672 60.2365C157.368 59.9958 157.093 59.7207 156.853 59.4169L156.331 58.7396C155.491 57.8795 154.435 56.8026 154.299 56.7078C152.701 55.2651 151.258 53.4568 149.504 52.2038L149.375 52.258C149.098 52.3499 148.799 52.3499 148.522 52.258C148.294 52.1849 148.09 52.0501 147.933 51.8684C147.777 51.6867 147.673 51.4653 147.635 51.2285C147.564 50.9146 147.607 50.5856 147.757 50.3006C147.86 50.0602 148.031 49.8549 148.248 49.7094C148.466 49.564 148.721 49.4847 148.983 49.4811C149.43 49.3159 149.922 49.3135 150.371 49.4743V49.4743ZM150.33 51.3233V51.3911V51.3233Z" fill="#005000"/><path fill-rule="evenodd" clip-rule="evenodd" d="M153.757 41.4828C153.511 41.4618 153.277 41.3745 153.077 41.2301C152.878 41.0857 152.722 40.8897 152.625 40.6633C152.53 40.4671 152.483 40.2508 152.489 40.0327C152.495 39.8145 152.553 39.601 152.659 39.4103C152.78 39.1603 152.975 38.9534 153.217 38.8177C153.459 38.682 153.738 38.6241 154.014 38.6518C154.427 38.7143 154.822 38.8644 155.172 39.092C156.235 39.7083 158.376 41.239 158.843 41.5167C159.31 41.7944 164.776 45.0521 165.812 45.8039C166.102 45.9907 166.321 46.2685 166.435 46.5934C166.549 46.9184 166.551 47.2721 166.442 47.5987C166.375 47.768 166.275 47.9221 166.148 48.0519C166.02 48.1816 165.868 48.2843 165.7 48.3538C165.531 48.4233 165.351 48.4583 165.169 48.4566C164.987 48.4548 164.807 48.4165 164.641 48.3438C164.467 48.2729 164.31 48.1668 164.18 48.0322C163.137 47.2872 157.942 44.1852 157.448 43.9007C156.953 43.6163 154.468 41.9637 153.757 41.4828ZM163.875 46.6167C163.787 46.8454 163.768 47.0952 163.821 47.3346C163.767 47.0962 163.781 46.8475 163.862 46.6167H163.875ZM155.206 40.5211C155.268 40.3622 155.296 40.192 155.288 40.0216C155.28 39.8512 155.236 39.6844 155.159 39.5322C155.296 39.8524 155.308 40.2127 155.192 40.5414L155.206 40.5211Z" fill="#005000"/><path fill-rule="evenodd" clip-rule="evenodd" d="M158.62 32.0618C158.864 34.0259 159.562 36.1255 161.329 37.1956C162.12 37.73 162.985 38.1454 163.896 38.4283C164.216 38.5551 164.57 38.5694 164.899 38.4689C165.291 38.2861 165.393 37.7917 165.508 37.2227C165.689 35.9938 165.719 34.7473 165.596 33.5112C165.584 33.3302 165.607 33.1485 165.665 32.9765C165.723 32.8045 165.814 32.6456 165.933 32.5088C166.052 32.372 166.197 32.26 166.359 32.1793C166.522 32.0985 166.699 32.0505 166.88 32.0381C167.061 32.0256 167.242 32.0489 167.414 32.1067C167.586 32.1645 167.745 32.2555 167.882 32.3747C168.019 32.4939 168.131 32.6388 168.212 32.8013C168.292 32.9638 168.34 33.1405 168.353 33.3215C168.547 35.0611 168.437 36.8212 168.028 38.5231C167.896 39.0489 167.652 39.5401 167.313 39.9632C166.974 40.3863 166.548 40.7313 166.064 40.9749C164.817 41.5506 162.806 41.3813 159.86 39.539C157.367 37.9745 156.209 35.0283 155.891 32.204C155.885 31.4703 156.123 30.7555 156.568 30.1721C156.901 29.6699 157.3 29.2143 157.753 28.8176C157.968 28.6237 158.219 28.4742 158.492 28.3773C158.751 28.2736 159.035 28.2524 159.307 28.3167C159.578 28.3809 159.824 28.5275 160.009 28.7363C160.216 28.9475 160.354 29.2171 160.403 29.5089C160.453 29.8007 160.412 30.1007 160.286 30.3686C160.208 30.581 160.078 30.7704 159.907 30.9195C159.737 31.0685 159.532 31.1725 159.311 31.2219L158.62 32.0618Z" fill="#005000"/><path fill-rule="evenodd" clip-rule="evenodd" d="M169.337 21.3739C169.023 20.7162 168.639 20.0941 168.192 19.5181C167.989 19.2136 167.916 18.841 167.987 18.4822C168.059 18.1234 168.27 17.8077 168.575 17.6048C168.879 17.4018 169.252 17.3281 169.611 17.3998C169.97 17.4716 170.285 17.683 170.488 17.9874C170.759 18.387 171.965 20.1141 172.188 21.3062C172.336 21.7952 172.293 22.3219 172.07 22.7813C171.847 23.2407 171.458 23.599 170.983 23.785C170.49 23.9823 169.968 24.099 169.438 24.1304C169.585 24.3479 169.719 24.5741 169.838 24.8077C170.07 25.1837 170.218 25.6051 170.273 26.0433C170.327 26.4815 170.287 26.9264 170.155 27.3477C170.022 27.7691 169.801 28.157 169.506 28.4854C169.21 28.8137 168.848 29.0747 168.443 29.2507C167.336 29.769 166.162 30.127 164.955 30.3141C163.316 30.6324 161.616 29.6775 160.288 27.9978C158.622 25.8711 157.579 22.7081 157.674 21.1639C157.696 20.4942 157.958 19.8548 158.412 19.3623C158.635 19.1287 158.908 18.9497 159.211 18.8393C159.514 18.7288 159.839 18.69 160.16 18.7257V18.7257C160.489 18.5734 160.864 18.5516 161.209 18.6647C162.347 18.98 163.441 19.435 164.467 20.0193C164.636 20.148 164.813 20.2767 164.989 20.3918C165.937 20.7985 166.924 21.1072 167.935 21.3129C168.397 21.3986 168.869 21.4191 169.337 21.3739V21.3739ZM161.656 21.9157C161.527 22.0833 161.361 22.2184 161.17 22.3101C160.98 22.4018 160.771 22.4477 160.559 22.444C160.932 23.8356 161.579 25.1389 162.462 26.2774C162.786 26.7195 163.187 27.0983 163.648 27.395C163.873 27.5559 164.151 27.626 164.426 27.5914C165.362 27.4706 166.275 27.2128 167.136 26.826C167.312 26.7244 167.508 26.6635 167.549 26.4942C167.544 26.3463 167.497 26.2029 167.413 26.081C166.868 25.111 166.076 24.3025 165.117 23.7376C164.664 23.4396 164.189 23.1484 163.715 22.8301L163.038 22.5591C162.638 22.4304 162.13 22.1866 161.643 21.9428L161.656 21.9157Z" fill="#005000"/><path fill-rule="evenodd" clip-rule="evenodd" d="M166.965 11.438C162.779 11.1129 157.706 9.58222 155.912 8.51211C155.051 8.00414 152.783 6.43282 152.038 4.90893C151.753 4.42256 151.632 3.85821 151.69 3.29793C151.749 2.73764 151.984 2.21063 152.363 1.79341C152.663 1.46098 153.039 1.20473 153.458 1.04577C153.877 0.886805 154.328 0.829658 154.774 0.879049C156.326 1.10978 157.784 1.7662 158.987 2.77545C160.838 4.26204 162.819 5.57903 164.906 6.7105C165.949 7.34037 166.985 7.99057 167.974 8.74236H168.475C169.248 8.76605 170.02 8.67245 170.765 8.46469C171.103 8.35633 171.394 8.24796 171.516 7.99736C171.638 7.74676 171.516 7.38101 171.367 6.92045C170.854 5.80651 170.168 4.78029 169.336 3.87943C169.217 3.74246 169.126 3.58347 169.069 3.41148C169.012 3.2395 168.989 3.05791 169.002 2.8771C169.015 2.69629 169.063 2.51976 169.144 2.35764C169.225 2.19552 169.337 2.05097 169.474 1.93223C169.611 1.81349 169.77 1.72292 169.942 1.66564C170.114 1.60835 170.296 1.58549 170.477 1.59838C170.658 1.61127 170.834 1.65964 170.996 1.74075C171.158 1.82185 171.303 1.93411 171.422 2.07108C173.034 3.9404 173.873 5.45751 174.185 6.58181C174.462 7.4523 174.402 8.39529 174.016 9.22325C173.624 9.97295 172.978 10.5588 172.194 10.8758C171.759 11.0663 171.305 11.2072 170.839 11.2958L171.13 11.6208C172.084 12.8717 172.962 14.179 173.758 15.5356C174.139 16.1417 174.433 16.7983 174.632 17.4862C174.706 17.7662 174.702 18.0612 174.621 18.3393C174.54 18.6174 174.384 18.8681 174.171 19.0643C173.938 19.2836 173.643 19.4243 173.326 19.4668C173.009 19.5093 172.686 19.4515 172.404 19.3013C172.234 19.234 172.08 19.1331 171.95 19.0048C171.821 18.8764 171.718 18.7232 171.649 18.5543C171.58 18.3855 171.546 18.2044 171.549 18.022C171.552 17.8396 171.591 17.6597 171.665 17.493C171.577 17.3033 171.469 17.1001 171.367 16.9172C170.659 15.7144 169.883 14.5521 169.044 13.436C168.413 12.7083 167.717 12.0395 166.965 11.438V11.438ZM154.503 3.63562C154.528 3.70717 154.563 3.77538 154.604 3.8388C154.74 4.0523 154.899 4.24994 155.079 4.42804C155.757 5.08728 156.512 5.6626 157.327 6.1416C158.446 6.72562 159.627 7.18009 160.849 7.49617C159.553 6.72056 158.323 5.83935 157.171 4.86151C156.613 4.40384 155.981 4.04428 155.302 3.79816C155.085 3.7128 154.857 3.6581 154.625 3.63562H154.503Z" fill="#005000"/><path fill-rule="evenodd" clip-rule="evenodd" d="M22.0984 90.0509C21.9684 90.1143 21.8418 90.1844 21.7191 90.2609C18.6103 92.5975 14.655 94.9477 11.8849 97.711C11.6244 97.9688 11.2722 98.1125 10.9058 98.1106C10.5393 98.1087 10.1887 97.9613 9.93089 97.7009C9.67312 97.4404 9.52936 97.0882 9.53127 96.7218C9.53317 96.3553 9.68055 96.0046 9.94102 95.7469C12.7992 92.9158 16.8561 90.4708 20.0597 88.0664C21.0586 87.4048 22.1433 86.8829 23.2836 86.5154C23.6427 86.4198 24.0237 86.4496 24.3636 86.5998C24.7035 86.75 24.982 87.0118 25.1529 87.3417C25.4011 87.8963 25.4652 88.5158 25.3358 89.1095C25.1105 89.9514 24.823 90.7754 24.4756 91.5748C23.5545 94.284 23.0398 97.1082 22.0306 99.7835C22.0306 99.8851 21.6378 100.698 21.2992 101.436C21.3988 101.586 21.4677 101.753 21.5019 101.93C21.5361 102.106 21.5348 102.287 21.4983 102.463C21.4617 102.639 21.3906 102.806 21.2889 102.954C21.1873 103.102 21.0572 103.228 20.9063 103.326C20.6512 103.517 20.3792 103.685 20.0936 103.827C19.8546 103.92 19.5969 103.955 19.3418 103.929C19.0857 103.913 18.839 103.827 18.6287 103.68C18.4184 103.533 18.2527 103.33 18.1498 103.095C17.978 102.755 17.9464 102.361 18.0617 101.998C18.2175 101.389 19.3689 99.0249 19.4502 98.8218C20.439 96.1668 20.9537 93.4034 21.8545 90.6943C21.9087 90.5182 22.0035 90.2947 22.0984 90.0509Z" fill="#005000"/><path fill-rule="evenodd" clip-rule="evenodd" d="M23.3953 95.2392C23.6895 95.3198 23.9479 95.4975 24.1286 95.7433C24.3093 95.9892 24.4017 96.2888 24.3909 96.5937C24.3995 96.8066 24.3551 97.0183 24.2617 97.2098C24.1683 97.4014 24.0289 97.5666 23.8558 97.6909C23.6698 97.8444 23.4461 97.9454 23.208 97.9835C22.9699 98.0216 22.7259 97.9954 22.5012 97.9077C21.5432 97.3394 20.6225 96.7104 19.7447 96.0248C18.5802 95.1518 17.4738 94.2039 16.4327 93.187C16.1731 92.9274 16.0273 92.5754 16.0273 92.2083C16.0273 91.8412 16.1731 91.4892 16.4327 91.2296C16.6923 90.9701 17.0443 90.8242 17.4114 90.8242C17.7785 90.8242 18.1305 90.9701 18.3901 91.2296C19.3457 92.1643 20.3616 93.0353 21.4311 93.8372C21.5937 93.932 23.0431 94.9818 23.3953 95.2392ZM22.2371 95.422C22.0534 95.5305 21.9011 95.685 21.7954 95.8703C21.6897 96.0556 21.6341 96.2653 21.6343 96.4786C21.648 96.2683 21.7094 96.0638 21.8138 95.8808C21.9183 95.6977 22.063 95.5409 22.2371 95.422V95.422Z" fill="#005000"/><path fill-rule="evenodd" clip-rule="evenodd" d="M37.0264 107.464C37.0264 107.545 37.0264 107.633 37.0264 107.721C37.0158 108.927 36.5791 110.091 35.7937 111.006C35.2589 111.553 34.5783 111.935 33.8327 112.107C33.0872 112.279 32.308 112.233 31.5877 111.975C29.8482 111.339 28.3274 110.218 27.2057 108.744C25.9798 107.105 25.9053 105.019 26.5284 102.933C27.3885 100.409 28.7972 98.1078 30.6531 96.1938C33.5316 93.3221 37.6021 96.2412 37.7037 99.5464C37.7154 99.9128 37.581 100.269 37.3301 100.536C37.0792 100.804 36.7325 100.96 36.366 100.972C35.9996 100.984 35.6435 100.849 35.3761 100.599C35.1087 100.348 34.952 100.001 34.9403 99.6344C34.9074 99.0924 34.6644 98.5846 34.263 98.2189C34.1624 98.1008 34.0386 98.0046 33.8992 97.9364C33.7599 97.8682 33.6079 97.8294 33.4529 97.8224C33.2979 97.8154 33.1431 97.8404 32.9982 97.8958C32.8533 97.9512 32.7213 98.0358 32.6105 98.1444C31.0674 99.7292 29.8926 101.635 29.1698 103.725C28.8109 104.931 28.7025 106.143 29.4069 107.112C30.0585 107.959 30.8886 108.653 31.8383 109.144C32.5156 109.469 33.2539 109.658 33.8702 109.083C34.1734 108.657 34.3237 108.141 34.2969 107.62C34.3554 107.056 34.252 106.488 33.9989 105.981C33.573 105.454 33.068 104.997 32.5021 104.626C32.2668 104.465 32.0905 104.232 32.0001 103.962C31.9096 103.692 31.9099 103.399 32.0009 103.129C32.0551 102.93 32.1541 102.746 32.2903 102.591C32.4264 102.436 32.5962 102.315 32.7866 102.235C32.9697 102.151 33.17 102.112 33.3713 102.12C33.5725 102.129 33.769 102.184 33.9447 102.283C34.8194 102.803 35.6547 103.387 36.4439 104.03C36.9208 104.473 37.5205 104.761 38.1642 104.856C38.5307 104.856 38.8821 105.002 39.1412 105.261C39.4003 105.52 39.5459 105.872 39.5459 106.238C39.5459 106.604 39.4003 106.956 39.1412 107.215C38.8821 107.474 38.5307 107.62 38.1642 107.62C37.7796 107.621 37.3966 107.568 37.0264 107.464V107.464Z" fill="#005000"/><path fill-rule="evenodd" clip-rule="evenodd" d="M45.031 104.68C44.9578 104.509 44.9187 104.325 44.9158 104.138C44.9157 103.957 44.9521 103.777 45.0227 103.61C45.0933 103.443 45.1967 103.292 45.3269 103.166C45.457 103.039 45.6111 102.941 45.7802 102.875C45.9492 102.809 46.1298 102.778 46.311 102.784C46.6137 102.762 46.9161 102.829 47.1817 102.975C47.4473 103.122 47.6648 103.342 47.8079 103.61C47.9262 103.822 47.9988 104.056 48.0209 104.297C48.0431 104.539 48.0143 104.782 47.9365 105.012C47.7334 105.737 46.6971 107.044 46.3246 107.809C45.3561 109.753 44.6652 111.819 43.7848 113.796C43.3024 114.972 42.9305 116.189 42.674 117.433C42.5655 117.739 42.3539 117.998 42.0755 118.164C41.7972 118.331 41.4694 118.395 41.1487 118.346C40.828 118.297 40.5344 118.138 40.3183 117.896C40.1022 117.654 39.9772 117.345 39.9648 117.02C39.9662 116.805 40.0148 116.592 40.1071 116.397C40.3965 115.127 40.793 113.883 41.2923 112.679C42.1931 110.647 42.8975 108.554 43.8864 106.583C44.1628 106.091 44.4657 105.614 44.7939 105.154C44.8481 104.978 44.9429 104.816 45.031 104.68ZM42.5859 116.465C42.6546 116.635 42.6892 116.817 42.6876 117C42.694 116.812 42.6593 116.625 42.5859 116.451V116.465Z" fill="#005000"/><path fill-rule="evenodd" clip-rule="evenodd" d="M46.2772 104.681C46.5776 104.43 46.8969 104.204 47.2322 104.003C47.5998 103.798 48.0126 103.688 48.4335 103.682C48.8544 103.676 49.2701 103.775 49.6434 103.969C50.2311 104.224 50.7561 104.604 51.1819 105.082C51.6077 105.561 51.924 106.126 52.1087 106.739C52.3668 107.76 52.2664 108.839 51.8242 109.794C51.2015 111.162 50.2298 112.341 49.0067 113.214C46.6294 114.941 43.8932 114.962 42.7959 112.781C42.7109 112.619 42.6595 112.441 42.6449 112.259C42.6304 112.077 42.6529 111.893 42.7111 111.72C42.7693 111.546 42.8621 111.387 42.9837 111.25C43.1054 111.113 43.2535 111.003 43.4191 110.925C43.5803 110.841 43.7569 110.79 43.9382 110.776C44.1195 110.761 44.3019 110.783 44.4744 110.841C44.647 110.898 44.8062 110.99 44.9425 111.11C45.0789 111.231 45.1896 111.377 45.2681 111.541C45.3968 111.799 45.6744 111.751 45.9454 111.69C46.4688 111.552 46.9593 111.31 47.388 110.979C48.171 110.425 48.804 109.685 49.2302 108.826C49.4653 108.416 49.5423 107.934 49.4469 107.471C49.3651 107.245 49.2366 107.039 49.0697 106.866C48.9028 106.694 48.7013 106.558 48.4784 106.469C48.4186 106.499 48.3619 106.535 48.3091 106.577C48.1262 106.706 47.9772 106.841 47.8418 106.936C47.5258 107.183 47.1385 107.32 46.7378 107.329C46.5621 107.359 46.3822 107.354 46.2084 107.315C46.0345 107.276 45.8701 107.203 45.7245 107.1C45.4304 106.892 45.2309 106.576 45.1698 106.221C45.1088 105.867 45.1912 105.502 45.3988 105.208C45.6065 104.914 45.9225 104.715 46.2772 104.653V104.681Z" fill="#005000"/><path fill-rule="evenodd" clip-rule="evenodd" d="M48.5082 113.824H48.4473C48.2654 113.83 48.0842 113.8 47.9143 113.735C47.7445 113.67 47.5895 113.571 47.4586 113.444C47.3278 113.318 47.2237 113.166 47.1527 112.999C47.0817 112.831 47.0452 112.651 47.0453 112.469C47.0302 112.2 47.0891 111.931 47.2157 111.692C47.3422 111.453 47.5315 111.254 47.7632 111.115C47.9563 110.998 48.172 110.923 48.396 110.895C48.6201 110.867 48.8476 110.886 49.0636 110.952C49.5751 111.141 50.0379 111.442 50.4182 111.833C50.7241 112.113 50.9566 112.464 51.0954 112.855C51.3855 114.222 51.2798 115.644 50.7907 116.953C50.5241 117.673 50.3666 118.428 50.3234 119.195C50.6245 119.17 50.9233 119.122 51.2174 119.053C51.886 118.88 52.5646 118.749 53.2492 118.66C53.6148 118.654 53.9675 118.794 54.2298 119.049C54.4921 119.304 54.6424 119.652 54.6478 120.018C54.6532 120.383 54.5132 120.736 54.2585 120.998C54.0038 121.261 53.6554 121.411 53.2899 121.416L52.1114 121.687C51.3503 121.892 50.5619 121.977 49.7747 121.938C49.2702 121.933 48.7832 121.753 48.3974 121.428C48.0117 121.103 47.7514 120.653 47.6616 120.157C47.5065 118.815 47.6689 117.455 48.1357 116.188C48.4374 115.438 48.5648 114.63 48.5082 113.824V113.824Z" fill="#005000"/><path fill-rule="evenodd" clip-rule="evenodd" d="M59.7316 124.355C59.9097 124.401 60.0907 124.435 60.2734 124.457C61.1598 124.549 62.0518 124.574 62.9419 124.531C63.3075 124.531 63.6581 124.677 63.9165 124.935C64.175 125.194 64.3203 125.544 64.3203 125.91C64.3203 126.275 64.175 126.626 63.9165 126.884C63.6581 127.143 63.3075 127.288 62.9419 127.288C61.9181 127.33 60.8926 127.296 59.8739 127.186C58.9678 127.101 58.112 126.731 57.4288 126.13C57.1316 125.778 56.9705 125.331 56.975 124.87C56.9005 123.041 57.5101 114.86 57.6523 114.142C57.7539 113.634 57.7133 112.733 57.8352 112.11C57.9208 111.601 58.1567 111.129 58.5125 110.755C58.9707 110.396 59.5292 110.188 60.1109 110.159C62.2439 110.008 64.3873 110.106 66.4977 110.451C66.8249 110.519 67.1194 110.696 67.3333 110.953C67.5472 111.21 67.6681 111.532 67.6762 111.866C67.6817 112.047 67.6506 112.228 67.585 112.397C67.5194 112.566 67.4205 112.72 67.2941 112.85C67.1678 112.98 67.0166 113.084 66.8496 113.154C66.6825 113.225 66.503 113.261 66.3217 113.261C66.0859 113.272 65.8518 113.218 65.6444 113.105L60.5579 112.963C60.5173 113.498 60.4428 114.358 60.3683 114.724C60.2396 115.313 59.7316 122.1 59.7316 124.355ZM64.9061 112.022C64.9124 112.122 64.9353 112.22 64.9738 112.313C64.9409 112.219 64.9182 112.121 64.9061 112.022V112.022Z" fill="#005000"/><path fill-rule="evenodd" clip-rule="evenodd" d="M64.4109 117.115H64.4854C66.4834 117.156 64.9459 119.824 64.8037 119.824C64.69 119.848 64.5744 119.862 64.4583 119.865H62.4874C61.3224 119.865 59.7308 119.933 58.6946 119.418C58.3667 119.255 58.1173 118.968 58.0011 118.62C57.8848 118.273 57.9113 117.893 58.0748 117.566C58.2383 117.238 58.5253 116.988 58.8727 116.872C59.2201 116.756 59.5994 116.782 59.9272 116.946C60.24 117.067 60.5739 117.125 60.9093 117.115C61.4579 117.115 62.0133 117.115 62.4874 117.115H64.4109ZM63.1376 118.903C63.0157 119.418 63.2662 119.852 64.4312 119.872C64.1417 119.865 63.8617 119.767 63.6299 119.594C63.3981 119.42 63.226 119.179 63.1376 118.903V118.903Z" fill="#005000"/><path fill-rule="evenodd" clip-rule="evenodd" d="M78.5789 110.945C79.0236 110.808 79.4759 110.698 79.9335 110.614C80.256 110.555 80.5863 110.555 80.9088 110.614C81.2708 110.662 81.6012 110.845 81.8345 111.126C82.0679 111.407 82.1871 111.766 82.1685 112.131C82.1799 112.369 82.1283 112.605 82.019 112.817C81.9098 113.028 81.7466 113.207 81.546 113.336C81.3454 113.464 81.1146 113.538 80.8767 113.548C80.6387 113.559 80.4022 113.507 80.1909 113.397L79.053 113.668C78.3438 113.749 77.6264 113.719 76.9263 113.58C76.4621 113.461 75.9826 113.413 75.504 113.438C75.4627 113.662 75.4356 113.888 75.4228 114.115C75.4228 114.657 75.3821 115.165 75.3414 115.429C75.0096 117.407 74.0614 121.023 74.5626 123.035C74.759 123.807 74.8538 124.268 75.1383 124.511C75.3087 124.611 75.503 124.663 75.7004 124.66C76.2287 124.742 76.8992 124.769 77.7323 124.87C77.9152 124.87 78.4096 124.999 78.9243 125.094C79.114 125.094 79.3984 125.148 79.6016 125.162C79.756 124.899 79.9944 124.696 80.2782 124.586C80.5621 124.475 80.8749 124.464 81.1661 124.553C81.4574 124.642 81.71 124.827 81.8832 125.078C82.0565 125.328 82.1403 125.63 82.1211 125.934C82.1305 126.368 81.9893 126.791 81.7215 127.133C81.3875 127.531 80.9209 127.795 80.4076 127.878C79.4594 128.067 77.8068 127.654 77.4072 127.613C76.2965 127.492 75.4905 127.458 74.8742 127.329C74.2929 127.232 73.7481 126.982 73.2961 126.604C72.7136 126.11 72.2327 125.29 71.8399 123.699C71.2642 121.403 72.1921 117.244 72.5714 114.968C72.5981 114.188 72.6728 113.41 72.7949 112.639C72.8608 112.315 72.9952 112.009 73.1892 111.741C73.3831 111.474 73.632 111.251 73.9192 111.088C74.6749 110.75 75.5101 110.63 76.3303 110.742C77.0703 110.891 77.8242 110.959 78.5789 110.945V110.945Z" fill="#005000"/><path fill-rule="evenodd" clip-rule="evenodd" d="M79.9938 120.935C79.4655 120.935 75.0157 120.651 73.6747 120.651C73.3082 120.651 72.9568 120.505 72.6977 120.246C72.4386 119.987 72.293 119.636 72.293 119.269C72.293 118.903 72.4386 118.551 72.6977 118.292C72.9568 118.033 73.3082 117.888 73.6747 117.888C75.1512 117.888 79.6957 118.145 80.2579 118.186C80.5765 118.205 80.8797 118.329 81.119 118.541C81.3584 118.752 81.5202 119.037 81.5786 119.351C81.6338 119.71 81.5463 120.077 81.3348 120.373C81.1691 120.611 80.9317 120.789 80.6575 120.881C80.5052 120.934 80.3443 120.957 80.1834 120.949L79.9938 120.935ZM79.2352 118.565C79.3645 118.44 79.5173 118.342 79.6847 118.277C79.8522 118.212 80.0309 118.181 80.2105 118.186C80.0343 118.174 79.8577 118.2 79.6928 118.264C79.5279 118.327 79.3787 118.425 79.2555 118.551L79.2352 118.565Z" fill="#005000"/><path fill-rule="evenodd" clip-rule="evenodd" d="M87.2992 113.648C87.1479 113.486 87.0385 113.29 86.9807 113.076C86.9228 112.862 86.9182 112.638 86.9673 112.422C87.0024 112.242 87.0735 112.072 87.1761 111.921C87.2788 111.77 87.4111 111.641 87.5648 111.542C87.7186 111.444 87.8907 111.377 88.0708 111.347C88.251 111.316 88.4355 111.322 88.6131 111.365C88.8908 111.435 89.1474 111.572 89.3609 111.763C89.5744 111.954 89.7384 112.194 89.839 112.462C90.097 113.423 90.2312 114.414 90.2386 115.409C90.2928 117.644 90.1438 120.373 90.5163 122.33C90.6111 122.811 91.0175 125.277 91.0649 125.575C91.116 125.781 91.116 125.998 91.0649 126.205C91.038 126.372 90.978 126.533 90.8885 126.677C90.7989 126.821 90.6816 126.946 90.5434 127.044C90.2655 127.257 89.916 127.354 89.5681 127.315C89.2355 127.283 88.9268 127.128 88.7012 126.882C88.5092 126.685 88.3817 126.435 88.3354 126.164C88.2541 125.744 87.8749 123.367 87.7733 122.845C87.3804 120.766 87.5091 117.86 87.4481 115.483C87.4685 115.246 87.3398 114.04 87.2992 113.648ZM88.8501 124.877C88.6246 125.063 88.4654 125.318 88.3964 125.602C88.4685 125.319 88.6271 125.065 88.8501 124.877V124.877Z" fill="#005000"/><path fill-rule="evenodd" clip-rule="evenodd" d="M94.3051 117.434C94.4948 116.756 94.7251 115.977 94.9079 115.266C95.2538 113.705 95.7788 112.189 96.4725 110.749C96.6329 110.425 96.8707 110.145 97.1649 109.935C97.459 109.725 97.8004 109.59 98.1589 109.543C98.588 109.512 99.0133 109.642 99.3509 109.909C100.062 110.666 100.554 111.603 100.773 112.618C101.451 114.84 101.918 118.246 102.575 119.547C102.893 120.183 104.024 122.716 104.451 123.658C104.493 123.726 104.532 123.796 104.566 123.868C107.356 130.559 104.031 129.286 102.06 125.08C101.789 124.498 100.462 121.491 100.109 120.793C99.4999 119.587 98.9581 116.729 98.3824 114.386C98.3282 114.176 98.2673 113.959 98.2063 113.709L98.1589 113.851C97.5222 115.883 96.9466 118.544 96.547 119.581C96.4589 119.868 96.3055 120.132 96.0987 120.35C95.8919 120.569 95.6373 120.737 95.355 120.84C94.9638 120.911 94.5614 120.886 94.1819 120.768C93.8023 120.65 93.4567 120.443 93.1741 120.163C91.7585 118.971 89.6183 115.767 88.8733 114.65C88.5509 114.551 88.2751 114.339 88.097 114.053C87.919 113.766 87.8507 113.425 87.9048 113.092C87.9316 112.873 88.0062 112.662 88.1232 112.475C88.2402 112.288 88.3968 112.129 88.5821 112.009C88.746 111.903 88.9295 111.833 89.1215 111.8C89.3135 111.767 89.5101 111.774 89.6996 111.819C89.9893 111.892 90.2552 112.039 90.4717 112.246C90.6517 112.418 90.8129 112.608 90.9526 112.814C91.9116 114.313 92.9493 115.76 94.0613 117.149L94.3051 117.434Z" fill="#005000"/><path fill-rule="evenodd" clip-rule="evenodd" d="M115.392 119.012C116.042 118.578 116.737 118.215 117.464 117.928C118.105 117.755 118.685 117.406 119.137 116.919C119.265 116.791 119.417 116.689 119.585 116.619C119.752 116.549 119.932 116.513 120.113 116.513C120.295 116.512 120.474 116.548 120.642 116.617C120.81 116.686 120.962 116.788 121.091 116.916C121.22 117.044 121.322 117.196 121.391 117.363C121.461 117.531 121.497 117.711 121.497 117.892C121.498 118.073 121.462 118.253 121.393 118.421C121.324 118.589 121.222 118.741 121.094 118.87C120.318 119.701 119.323 120.295 118.223 120.583C117.618 120.851 117.04 121.176 116.496 121.552C115.324 122.134 114.078 121.768 112.994 120.549C111.578 118.964 110.373 115.605 109.892 114.88C109.553 114.372 107.359 111.155 106.79 109.591C106.617 109.239 106.548 108.845 106.59 108.456C106.632 108.066 106.784 107.697 107.027 107.39C108.951 105.673 111.228 104.402 113.698 103.665C113.904 103.616 114.118 103.614 114.324 103.659C114.531 103.704 114.724 103.795 114.891 103.925C115.057 104.055 115.192 104.221 115.286 104.41C115.38 104.6 115.43 104.808 115.432 105.019C115.439 105.198 115.411 105.377 115.349 105.545C115.287 105.713 115.192 105.867 115.069 105.998C114.947 106.129 114.8 106.234 114.637 106.308C114.474 106.382 114.297 106.423 114.118 106.428C112.465 107.036 110.904 107.871 109.479 108.907C109.574 109.117 109.689 109.367 109.804 109.584C110.61 111.081 111.931 112.97 112.174 113.35C112.581 113.959 113.475 116.452 114.586 118.125C114.747 118.365 114.928 118.591 115.127 118.802C115.209 118.88 115.297 118.95 115.392 119.012V119.012ZM113.123 106.035C112.868 105.778 112.721 105.435 112.71 105.073C112.711 105.253 112.749 105.431 112.819 105.596C112.89 105.761 112.993 105.91 113.123 106.035Z" fill="#005000"/><path fill-rule="evenodd" clip-rule="evenodd" d="M116.992 113.37L115.583 114.203C114.214 115.024 112.633 115.42 111.038 115.341C110.673 115.341 110.322 115.195 110.064 114.937C109.805 114.678 109.66 114.328 109.66 113.962C109.66 113.597 109.805 113.246 110.064 112.988C110.322 112.729 110.673 112.584 111.038 112.584C112.088 112.661 113.137 112.425 114.052 111.907C114.188 111.819 115.407 111.053 116.084 110.721C116.311 110.601 116.552 110.51 116.802 110.451C117.052 110.397 117.311 110.415 117.551 110.503C117.79 110.59 118 110.743 118.157 110.945C118.279 111.091 118.37 111.26 118.426 111.441C118.482 111.623 118.501 111.814 118.482 112.004C118.463 112.193 118.407 112.376 118.316 112.544C118.225 112.711 118.102 112.858 117.954 112.977C117.827 113.102 117.677 113.202 117.512 113.269C117.347 113.336 117.17 113.371 116.992 113.37V113.37Z" fill="#005000"/><path fill-rule="evenodd" clip-rule="evenodd" d="M131.847 112.916C132.056 113.037 132.23 113.212 132.349 113.423C132.468 113.634 132.529 113.873 132.524 114.115C132.539 114.381 132.472 114.646 132.333 114.873C132.194 115.1 131.989 115.28 131.745 115.388C131.507 115.514 131.236 115.565 130.969 115.536C130.701 115.508 130.448 115.399 130.242 115.226C129.99 115 129.763 114.748 129.564 114.474C128.745 113.424 127.268 111.196 127.079 110.851C125.724 108.46 124.329 104.606 122.453 102.669C122.199 102.405 122.06 102.051 122.067 101.684C122.074 101.318 122.226 100.969 122.49 100.715C122.754 100.461 123.108 100.322 123.475 100.329C123.841 100.336 124.19 100.488 124.444 100.752C126.476 102.831 128.067 106.936 129.49 109.51C129.673 109.835 131.163 112.083 131.847 112.916ZM130.018 113.329C129.868 113.524 129.783 113.761 129.774 114.007C129.801 113.759 129.897 113.524 130.052 113.329H130.018Z" fill="#005000"/><path fill-rule="evenodd" clip-rule="evenodd" d="M135.405 105.574C134.05 103.041 132.696 99.9191 130.779 98.0024C130.519 97.7428 130.374 97.3908 130.374 97.0237C130.374 96.6566 130.519 96.3046 130.779 96.045C131.039 95.7855 131.391 95.6396 131.758 95.6396C132.125 95.6396 132.477 95.7855 132.736 96.045C135.087 98.3952 136.685 102.391 138.385 105.236C139.018 106.293 139.577 107.393 140.058 108.527C140.128 108.77 140.133 109.026 140.074 109.271C140.014 109.516 139.892 109.741 139.719 109.924C139.546 110.107 139.328 110.242 139.087 110.316C138.846 110.389 138.59 110.398 138.344 110.343C137.919 110.235 137.513 110.064 137.139 109.835C136.407 109.408 135.473 108.744 135.33 108.67C134.206 108.053 130.278 105.961 127.528 104.708C126.803 104.382 125.991 104.084 125.618 103.956C125.516 103.98 125.411 103.993 125.306 103.996C125.122 104.007 124.938 103.979 124.765 103.915C124.592 103.852 124.434 103.754 124.3 103.627C124.166 103.5 124.06 103.347 123.987 103.178C123.914 103.009 123.877 102.826 123.877 102.642C123.863 102.401 123.911 102.16 124.017 101.943C124.122 101.726 124.282 101.54 124.48 101.402C124.805 101.167 125.206 101.06 125.604 101.104C126.668 101.321 127.697 101.679 128.666 102.168C130.813 103.163 133.664 104.68 135.405 105.574ZM126.668 102.649C126.667 102.802 126.637 102.953 126.58 103.096C126.641 102.955 126.671 102.802 126.668 102.649V102.649Z" fill="#005000"/><path fill-rule="evenodd" clip-rule="evenodd" d="M142.921 87.7483C143.041 87.5273 143.218 87.3427 143.434 87.214C143.649 87.0852 143.896 87.0171 144.147 87.0169C144.39 87.0062 144.632 87.0641 144.844 87.1838C145.055 87.3036 145.23 87.4804 145.346 87.6942C145.485 87.9199 145.554 88.1815 145.546 88.4463C145.537 88.7112 145.451 88.9677 145.299 89.1842C145.082 89.5228 143.226 91.2567 142.698 91.785C141.797 92.8391 140.815 93.8198 139.758 94.7176C139.149 95.1974 138.406 95.4766 137.632 95.5168C137.265 95.5168 136.914 95.3713 136.655 95.1122C136.396 94.8531 136.25 94.5016 136.25 94.1352C136.25 93.7687 136.396 93.4173 136.655 93.1582C136.914 92.8991 137.265 92.7535 137.632 92.7535C137.754 92.7331 137.869 92.6792 137.964 92.5977C138.15 92.4782 138.326 92.3446 138.492 92.1981C139.359 91.4463 140.178 90.3898 140.74 89.8276C141.167 89.4416 142.447 88.2766 142.921 87.7483ZM143.389 89.5567C143.589 89.6939 143.824 89.7714 144.066 89.7802C143.831 89.764 143.605 89.687 143.409 89.5567H143.389Z" fill="#005000"/><path fill-rule="evenodd" clip-rule="evenodd" d="M141.058 93.1665C140.931 93.0397 140.83 92.8887 140.761 92.7224C140.692 92.5561 140.658 92.3778 140.659 92.198C140.635 92.0034 140.652 91.8061 140.709 91.6184C140.766 91.4308 140.861 91.257 140.988 91.108C141.115 90.959 141.272 90.8381 141.449 90.7529C141.625 90.6677 141.817 90.6201 142.013 90.6131C142.258 90.5917 142.503 90.6371 142.724 90.7444C142.945 90.8518 143.132 91.0171 143.266 91.2227C143.461 91.6488 143.633 92.0852 143.781 92.5298C144.214 93.3475 144.72 94.125 145.291 94.8529C147.154 97.3318 148.075 100.339 149.999 102.262C150.127 102.391 150.229 102.543 150.299 102.71C150.369 102.878 150.405 103.057 150.405 103.239C150.405 103.42 150.37 103.6 150.301 103.768C150.231 103.935 150.13 104.088 150.002 104.216C149.874 104.345 149.722 104.447 149.554 104.517C149.387 104.586 149.207 104.622 149.026 104.623C148.844 104.623 148.664 104.588 148.497 104.519C148.329 104.449 148.176 104.348 148.048 104.22C146.016 102.188 145.027 99.0995 143.083 96.5123C142.404 95.639 141.804 94.7075 141.289 93.7286C141.228 93.6338 141.14 93.39 141.058 93.1665Z" fill="#005000"/><path fill-rule="evenodd" clip-rule="evenodd" d="M98.7869 90.1866C98.6121 90.4013 98.3757 90.5573 98.1096 90.6336C97.9171 90.7026 97.7104 90.7227 97.5082 90.6919C97.3061 90.6612 97.1147 90.5806 96.9514 90.4575C96.6631 90.2758 96.4567 89.9893 96.3757 89.6583C96.2956 89.3641 96.3171 89.0515 96.4367 88.7711C96.4367 88.6898 96.9446 88.1412 96.9446 88.1412L96.8972 88.1818C97.1559 87.9232 97.5067 87.7778 97.8725 87.7778C98.2383 87.7778 98.5891 87.9232 98.8478 88.1818C99.1065 88.4405 99.2518 88.7913 99.2518 89.1571C99.2518 89.5229 99.1065 89.8738 98.8478 90.1324C98.8305 90.1536 98.8099 90.1719 98.7869 90.1866V90.1866ZM98.306 88.0599C98.172 87.9855 98.0247 87.9381 97.8725 87.9207C97.7202 87.9033 97.566 87.9161 97.4187 87.9583C97.7175 87.8909 98.0302 87.9267 98.306 88.0599V88.0599Z" fill="#005000"/><path fill-rule="evenodd" clip-rule="evenodd" d="M95.8892 97.6298C94.1282 97.8872 92.3876 97.3115 91.6493 95.8214C91.1231 94.5336 91.1014 93.0947 91.5884 91.7915C92.225 89.7597 93.6948 87.8159 94.9748 87.1657C95.456 86.9582 95.9748 86.8522 96.4987 86.8541C97.3118 86.8226 98.1228 86.9563 98.8828 87.247C99.2831 87.3845 99.6324 87.6399 99.885 87.9795C100.138 88.3191 100.282 88.7272 100.298 89.1501V89.1501C100.332 89.2125 100.36 89.2784 100.38 89.3465C100.618 90.1451 100.771 90.9671 100.833 91.7983C100.901 92.4011 100.989 93.1868 100.996 93.2816C101.754 95.564 102.628 100.224 101.673 103.184C101.332 104.383 100.541 105.405 99.4653 106.035C98.166 106.679 96.6667 106.791 95.2864 106.347C93.3967 105.879 92.6449 104.924 92.4147 103.969C92.3332 103.421 92.362 102.861 92.4992 102.324C92.6365 101.787 92.8794 101.282 93.2139 100.84C94.0182 99.7001 94.9129 98.6265 95.8892 97.6298V97.6298ZM99.2282 98.0091C98.3883 99.025 97.1963 100.19 96.2955 101.314C95.9052 101.773 95.5625 102.27 95.2728 102.797C95.1956 102.972 95.1344 103.154 95.09 103.339C95.1626 103.395 95.2396 103.445 95.3202 103.488C95.5181 103.579 95.7246 103.649 95.9366 103.698C96.6479 103.948 97.4262 103.929 98.1242 103.644C98.9099 103.204 99.1672 102.229 99.2892 101.145C99.3903 100.101 99.3699 99.0485 99.2282 98.0091V98.0091ZM97.1963 89.6581C97.1166 89.6378 97.0348 89.6264 96.9525 89.6242C96.6856 89.6096 96.418 89.6209 96.1533 89.6581C95.3541 90.0848 94.582 91.3716 94.1959 92.6179C93.9199 93.2391 93.879 93.9395 94.0808 94.5887C94.1376 94.6735 94.2127 94.7443 94.3007 94.7959C94.3886 94.8475 94.4871 94.8785 94.5888 94.8868C94.8752 94.941 95.1693 94.941 95.4557 94.8868C95.8549 94.8305 96.2404 94.702 96.5935 94.5075C96.7818 94.4304 96.9423 94.2982 97.0541 94.1282C97.5309 93.2421 97.7908 92.2557 97.8127 91.2497L97.4605 90.5724C97.3229 90.2863 97.2446 89.9753 97.2302 89.6581H97.1963Z" fill="#005000"/></svg>