<svg width="126" height="136" viewBox="0 0 126 136" fill="none" xmlns="http://www.w3.org/2000/svg"><path fill-rule="evenodd" clip-rule="evenodd" d="M18.1162 21.9474L18.1975 21.8322C23.6659 14.9117 30.6573 9.346 38.6276 5.56816C46.598 1.79033 55.3324 -0.0978291 64.1515 0.050601C72.8832 0.197292 81.487 2.17503 89.4064 5.85588C97.3257 9.53673 104.384 14.8387 110.126 21.4191C120.725 33.3867 125.656 50.5899 125.27 67.7253C124.884 84.8607 119.174 101.84 108.588 113.469C105.194 117.145 101.377 120.408 97.2167 123.188C93.1013 125.935 88.8017 128.395 84.3482 130.551C80.8456 132.275 77.1316 133.532 73.3017 134.289C69.5299 135.016 65.7028 135.42 61.8623 135.495C58.1765 135.595 54.4898 135.33 50.8563 134.702C47.2307 134.073 43.671 133.109 40.2229 131.824C22.4305 125.275 10.9437 112.521 5.12579 97.2145C-0.692119 81.9077 -0.807281 64.217 4.17079 47.4744C5.75206 42.0789 7.88079 36.8592 10.5238 31.8967C12.3407 28.466 14.6196 25.3007 17.2967 22.4892C17.5345 22.2601 17.8123 22.0765 18.1162 21.9474V21.9474ZM21.5026 26.0585C21.4142 26.1887 21.312 26.3091 21.1978 26.4174C18.4277 29.1266 16.0301 32.8788 14.0321 36.8139C12.0704 40.7365 10.4348 44.814 9.14211 49.0051C4.27918 64.6437 4.15725 81.3117 9.42656 95.6432C14.6959 109.975 25.2412 121.793 41.679 128.024C44.8866 129.239 48.1989 130.158 51.5743 130.767C54.9447 131.363 58.3659 131.624 61.7878 131.546C65.4038 131.501 69.0091 131.143 72.5634 130.476C76.0612 129.795 79.4542 128.656 82.655 127.09C86.9469 125.029 91.0906 122.673 95.0562 120.039C98.9757 117.437 102.57 114.377 105.764 110.923C115.774 99.9372 121.105 83.8312 121.41 67.6644C121.714 51.4975 117.034 35.3915 107.004 24.2095C101.609 18.1598 95.0043 13.3106 87.6165 9.97608C80.2288 6.64156 72.2229 4.89605 64.1176 4.8526C56.0808 4.8278 48.1468 6.65886 40.9337 10.2032C33.7206 13.7474 27.4232 18.9092 22.5321 25.2864C22.2579 25.6218 21.9071 25.8866 21.5094 26.0585H21.5026Z" fill="#005000"/><path fill-rule="evenodd" clip-rule="evenodd" d="M33.6124 54.5046C33.9172 54.5046 34.2423 54.4436 34.581 54.3895C36.6128 54.0779 39.0037 53.299 40.426 53.2516C40.7924 53.2516 41.1439 53.3972 41.403 53.6563C41.6621 53.9154 41.8076 54.2669 41.8076 54.6333C41.8076 54.9998 41.6621 55.3512 41.403 55.6103C41.1439 55.8694 40.7924 56.015 40.426 56.015C39.0714 55.9743 36.8025 56.5839 34.879 56.7668C33.889 56.9068 32.8807 56.8376 31.9192 56.5636C31.656 56.4796 31.4248 56.3172 31.2565 56.0981C31.0882 55.879 30.991 55.6136 30.9778 55.3377C30.9464 54.8586 30.9968 54.3776 31.1268 53.9154C31.3511 53.102 31.6202 52.3015 31.9328 51.5178C32.9826 48.4496 34.0324 45.1851 35.177 42.0357C35.6782 40.6811 36.1861 39.2859 36.7415 37.972C37.324 36.5452 37.8613 35.098 38.3535 33.6306C38.8411 32.1541 39.2746 30.6708 39.708 29.1876C39.9925 28.1581 40.5005 25.5844 40.7714 24.9613C40.8926 24.6574 41.1088 24.4008 41.3877 24.2298C41.6594 24.0642 41.9807 23.9994 42.2953 24.0469C42.6221 24.0938 42.9219 24.2545 43.1419 24.5007C43.4053 24.8267 43.5487 25.2331 43.5483 25.6521C43.5521 25.8608 43.5091 26.0678 43.4224 26.2577C43.3356 26.4476 43.2074 26.6156 43.0471 26.7493C42.7626 27.6569 42.2546 29.2756 42.0244 29.9191C41.5028 31.4023 40.9475 32.8856 40.3718 34.3553C39.7961 35.825 39.1933 37.3015 38.5431 38.7373C37.8048 40.4373 37.1276 42.2118 36.5112 44.0134C35.5698 46.7632 34.7638 49.5604 33.9172 52.2018C33.8765 52.9763 33.7746 53.7463 33.6124 54.5046V54.5046Z" fill="#005000"/><path fill-rule="evenodd" clip-rule="evenodd" d="M46.8664 37.5114C47.354 36.3532 47.8688 35.2493 48.3767 34.2537C48.6341 33.7321 50.2935 30.5353 51.6142 29.2146C52.603 28.219 53.5986 28.2055 54.2285 28.815C55.3596 29.7846 56.0668 31.1579 56.1994 32.6417C56.2022 33.3989 56.0525 34.149 55.7593 34.8472C55.466 35.5453 55.0353 36.1773 54.4927 36.7054C52.9398 38.3024 50.9867 39.4532 48.8373 40.0377C48.5388 40.0986 48.2329 40.1145 47.9297 40.0851C47.5166 41.2026 47.144 42.354 46.8393 43.4715C46.3069 45.3516 46.0313 47.2949 46.0198 49.2488C46.0557 50.2124 46.4242 51.1338 47.0628 51.8564C47.2061 52.0216 47.4025 52.1318 47.6182 52.168C47.9162 52.168 48.1939 51.9512 48.5528 51.5787C49.2888 50.6573 49.9674 49.6915 50.5847 48.6867C50.7922 48.3903 51.0184 48.1075 51.262 47.8401C51.3905 47.712 51.543 47.6105 51.7108 47.5414C51.8785 47.4722 52.0582 47.4368 52.2397 47.4371C52.4211 47.4374 52.6007 47.4734 52.7682 47.5432C52.9357 47.6129 53.0879 47.7149 53.216 47.8435C53.344 47.972 53.4455 48.1245 53.5147 48.2922C53.5838 48.46 53.6192 48.6397 53.6189 48.8212C53.6186 49.0026 53.5826 49.1822 53.5129 49.3497C53.4431 49.5172 53.3411 49.6694 53.2126 49.7974C52.4393 50.6699 51.7222 51.5906 51.0656 52.554C50.8401 52.8367 50.5981 53.1059 50.3409 53.36C48.7289 54.8839 47.3066 54.8297 46.1959 54.1456C44.7668 53.2584 43.8186 50.915 43.8524 49.2488C43.9388 47.1089 44.303 44.9893 44.9361 42.9433C45.384 41.386 45.913 39.8532 46.521 38.3512C46.5713 38.0488 46.6894 37.7617 46.8664 37.5114V37.5114ZM53.2261 30.7385C52.962 31.0569 52.2982 31.4158 51.9528 31.9238C51.2636 32.9506 50.637 34.0181 50.0767 35.1206C49.7584 35.7573 49.4401 36.4345 49.1285 37.1525C50.0245 36.8741 50.8822 36.485 51.6819 35.9943C52.7452 35.317 53.7138 34.3688 53.9847 33.2309C54.0617 32.7799 54.0332 32.3171 53.9016 31.8788C53.77 31.4406 53.5389 31.0387 53.2261 30.7047V30.7385Z" fill="#005000"/><path fill-rule="evenodd" clip-rule="evenodd" d="M62.6193 40.1392C62.1453 40.3275 61.6357 40.4093 61.1266 40.3789C60.6175 40.3485 60.1213 40.2065 59.6731 39.9631C59.2064 39.7166 58.822 39.3392 58.5669 38.8771C58.3118 38.4151 58.1972 37.8886 58.2372 37.3624C58.2372 35.2357 59.8153 31.8425 61.5695 29.7835C62.148 29.0708 62.8615 28.4793 63.6691 28.0429C64.2292 27.7568 64.8736 27.6823 65.4842 27.8329C66.4324 28.0767 67.4755 29.1469 67.5635 31.8967C67.5669 32.1376 67.5059 32.3751 67.3868 32.5847C67.2677 32.7942 67.095 32.9682 66.8862 33.0887C66.4887 34.7798 65.8477 36.4042 64.9831 37.911C64.807 38.6763 64.6512 39.4484 64.5157 40.2341C63.3493 45.6271 61.8427 50.9409 60.005 56.1436C59.3864 58.0053 58.5594 59.7911 57.5397 61.4671C57.1632 62.1242 56.5465 62.6098 55.8193 62.8216C55.3044 62.9697 54.755 62.9446 54.2557 62.75C53.7565 62.5554 53.335 62.2023 53.056 61.7448C52.675 61.0483 52.4879 60.2624 52.5141 59.4691C52.5396 58.5242 52.6347 57.5825 52.7986 56.6515C53.0762 54.9482 53.6614 53.3095 54.5257 51.8157C56.3002 48.6324 59.0365 46.0181 60.6213 42.7062C60.7576 42.421 60.9892 42.1926 61.2762 42.0602C61.5631 41.9279 61.8873 41.9 62.1926 41.9815C62.4026 41.162 62.538 40.5524 62.6193 40.1392ZM60.7364 47.4675C59.2748 49.2167 57.9178 51.0509 56.6727 52.9603C55.4374 55.04 54.7739 57.4093 54.7492 59.828C54.7492 60.1667 54.7492 60.5053 54.993 60.6408C55.1284 60.7039 55.2808 60.7206 55.4265 60.6882C55.6737 60.4431 55.9002 60.178 56.1038 59.8957C57.2773 57.782 58.2305 55.5534 58.9484 53.2448C59.5783 51.3552 60.1946 49.3504 60.7364 47.4675ZM64.6579 30.5353C64.4181 30.6592 64.1912 30.8067 63.9806 30.9755C62.8274 32.0841 61.8944 33.4009 61.2308 34.8564C60.8434 35.6238 60.5957 36.454 60.4994 37.3082C60.4748 37.4675 60.4748 37.6297 60.4994 37.7891C60.4994 37.8771 60.4994 37.9652 60.6145 38.0058C61.4882 38.4596 62.1858 38.0668 62.7547 37.4098C62.9469 37.1843 63.1212 36.9443 63.2763 36.6919L63.3982 36.2313C63.7204 35.0105 64.1139 33.8096 64.5767 32.6349L64.7731 32.1743C64.7627 32.0956 64.7627 32.016 64.7731 31.9373C64.7841 31.515 64.7501 31.0927 64.6715 30.6775C64.6918 30.603 64.6715 30.5488 64.6579 30.5014V30.5353Z" fill="#005000"/><path fill-rule="evenodd" clip-rule="evenodd" d="M74.1094 27.0881C74.0552 26.824 74.7867 26.7698 75.1795 26.6073C75.6267 26.3905 76.1184 26.2815 76.6153 26.2889C76.8787 26.2945 77.1383 26.3526 77.379 26.4595C77.6197 26.5665 77.8367 26.7204 78.0173 26.9121C78.7111 27.8212 79.0419 28.9558 78.9452 30.0953C78.8247 32.1012 78.4678 34.0859 77.8819 36.008C77.638 36.8682 77.1369 38.4801 76.5883 40.4239C76.0397 42.3678 75.4098 44.8195 74.956 47.0681C74.5875 48.7575 74.3609 50.4748 74.2787 52.202C74.2225 52.7822 74.2965 53.3676 74.4954 53.9156C74.5703 54.0843 74.6897 54.2295 74.8409 54.3355C74.8409 54.3355 74.8883 54.3355 74.9221 54.2948C74.9886 54.2676 75.0522 54.2335 75.1118 54.1932C75.3198 54.0535 75.5088 53.8873 75.6739 53.6988C76.3962 52.9122 76.9576 51.9918 77.3265 50.9897C77.4423 50.6421 77.6915 50.3548 78.0192 50.1909C78.3469 50.0271 78.7263 50.0001 79.0739 50.1159C79.4215 50.2318 79.7088 50.481 79.8726 50.8087C80.0365 51.1364 80.0635 51.5158 79.9476 51.8634C79.45 53.0106 78.7631 54.0661 77.9157 54.9857C77.3118 55.7089 76.5298 56.2621 75.6468 56.5908C75.0801 56.7767 74.4646 56.7453 73.9197 56.5028C73.2558 56.1796 72.7348 55.6224 72.4568 54.9383C71.9488 53.8614 72.0843 51.4367 72.6397 48.5785C73.1273 46.059 73.8791 43.1602 74.5428 40.6813C75.1592 38.4056 75.6875 36.4754 75.9381 35.5069C76.3064 33.9892 76.5331 32.4406 76.6153 30.881C76.6323 30.4096 76.6028 29.9378 76.5273 29.4722C76.5054 29.3026 76.4621 29.1365 76.3986 28.9778C76.1345 29.1336 75.5859 29.4451 75.3217 29.5806C75.0185 29.7416 74.6828 29.8319 74.3397 29.8447C74.1596 29.8598 73.9782 29.8393 73.806 29.7844C73.6338 29.7294 73.4742 29.6411 73.3361 29.5244C73.0573 29.2888 72.8835 28.9521 72.853 28.5883C72.8225 28.2246 72.9377 27.8636 73.1733 27.5848C73.4089 27.306 73.7456 27.1322 74.1094 27.1017V27.0881Z" fill="#005000"/><path fill-rule="evenodd" clip-rule="evenodd" d="M74.4108 40.1257C74.1873 40.5591 72.0877 40.234 70.9837 41.7444C70.1229 42.9266 69.3226 44.1518 68.5861 45.4153C67.8617 46.6572 67.2584 47.9659 66.7845 49.3232C66.1682 51.1722 65.9176 53.0077 66.6287 54.4097C66.7981 54.728 66.9403 54.9448 67.1367 55.0193C67.3331 55.0938 67.4211 54.9448 67.5837 54.8432C68.0627 54.4846 68.4773 54.0471 68.8096 53.5495C70.4283 51.3483 71.8438 47.8129 72.2434 46.9324C72.3248 46.7706 72.4373 46.6263 72.5744 46.5079C72.7116 46.3895 72.8707 46.2992 73.0427 46.2423C73.2147 46.1854 73.3962 46.1629 73.5769 46.1762C73.7576 46.1894 73.9339 46.2381 74.0958 46.3195C74.2577 46.4009 74.402 46.5133 74.5204 46.6505C74.6388 46.7876 74.729 46.9467 74.786 47.1187C74.8429 47.2907 74.8653 47.4723 74.8521 47.653C74.8389 47.8337 74.7902 48.01 74.7088 48.1719C74.1331 49.2284 71.749 53.9965 69.5478 55.9607C68.9048 56.6351 68.0208 57.0272 67.0893 57.0511C66.2969 57.0037 65.4706 56.5635 64.861 55.2902C63.9602 53.4683 64.1837 51.1181 64.9761 48.7272C65.3808 47.5509 65.8604 46.4017 66.412 45.2866C67.233 43.6411 68.1373 42.0383 69.1212 40.4846C69.692 39.5609 70.4809 38.7913 71.4185 38.2434C72.356 37.6954 73.4138 37.3859 74.4988 37.342C74.8657 37.3275 75.2256 37.4455 75.5128 37.6742C75.8 37.903 75.9954 38.2274 76.0634 38.5882C76.1045 38.9355 76.0097 39.2852 75.7989 39.5642C75.5881 39.8431 75.2776 40.0298 74.9323 40.085C74.7596 40.1108 74.5853 40.1243 74.4108 40.1257Z" fill="#005000"/><path fill-rule="evenodd" clip-rule="evenodd" d="M85.2289 48.9913L85.1882 48.524C85.0817 45.4941 85.3732 42.4634 86.0551 39.5093C87.0141 35.1514 88.3979 30.8981 90.1866 26.8101C90.6268 25.7942 91.9204 21.4866 93.4511 19.6376C94.2706 18.642 95.2121 18.2831 96.1061 18.5675C96.4008 18.6813 96.6424 18.9011 96.7834 19.1839C96.9859 19.6437 97.0764 20.1451 97.0475 20.6468C96.9166 22.3922 96.6608 24.126 96.2822 25.8348C95.7428 29.6748 94.8495 33.4566 93.6136 37.132C92.3963 40.8253 90.8078 44.3857 88.8726 47.7587C88.5204 48.3818 88.1344 49.0387 87.7213 49.7025C88.0193 50.9081 88.5747 51.4228 89.4145 51.3619C90.354 51.2149 91.2389 50.825 91.9814 50.2308C93.2773 49.3094 94.3969 48.1623 95.2866 46.8443C95.4815 46.5417 95.7886 46.3288 96.1405 46.2526C96.4923 46.1764 96.86 46.2431 97.1627 46.438C97.4653 46.6328 97.6782 46.94 97.7544 47.2918C97.8306 47.6437 97.7639 48.0114 97.569 48.3141C95.8013 50.8674 92.2252 53.7324 89.5364 53.8204C88.6575 53.8822 87.7854 53.6276 87.0778 53.1025C86.6999 52.8085 86.3786 52.4482 86.1296 52.0391C85.7503 52.5674 85.3575 53.0754 84.9647 53.5495C84.748 53.8069 83.644 54.7957 82.9938 55.5813V55.6897C83.0011 55.8721 82.9715 56.0541 82.9067 56.2247C82.8419 56.3954 82.7432 56.5512 82.6167 56.6828C82.4902 56.8144 82.3384 56.919 82.1704 56.9905C82.0024 57.0619 81.8217 57.0986 81.6392 57.0985C81.4052 57.1111 81.1714 57.0714 80.9547 56.9824C80.7379 56.8934 80.5438 56.7572 80.3862 56.5838C80.1953 56.3726 80.0679 56.1118 80.0188 55.8314C79.9696 55.551 80.0007 55.2624 80.1085 54.9989C80.353 54.4927 80.6855 54.0341 81.0906 53.6443C81.7679 52.9332 82.7635 52.1001 82.9735 51.8698C83.6965 51.0538 84.3748 50.1991 85.0053 49.3096L85.2289 48.9913ZM95.1782 20.5452L95.1037 20.6265C94.6622 21.1228 94.297 21.6821 94.02 22.2859C93.2538 24.0136 92.5756 25.779 91.9882 27.5755C90.5849 30.8944 89.4524 34.3213 88.6017 37.8229C87.9872 40.3327 87.613 42.8954 87.4842 45.4762C89.172 42.6055 90.587 39.5828 91.7105 36.4479C92.9539 32.9086 93.8609 29.26 94.4196 25.5504C94.4738 25.1305 95.2188 22.0827 95.1782 20.5452Z" fill="#005000"/><path fill-rule="evenodd" clip-rule="evenodd" d="M25.209 67.7863C25.18 67.5939 25.1929 67.3975 25.2467 67.2105C25.3004 67.0235 25.3938 66.8503 25.5205 66.7026C25.6868 66.4935 25.9111 66.3382 26.1654 66.2562C26.4197 66.1743 26.6925 66.1693 26.9496 66.242C27.2261 66.2985 27.4767 66.4433 27.6636 66.6547C27.8505 66.8661 27.9636 67.1325 27.9859 67.4138C28.0052 67.8065 27.9756 68.2001 27.8978 68.5855C27.5863 70.4006 26.5906 74.6811 26.3671 76.2727C26.1233 78.2166 25.8456 80.2349 25.5747 82.2803C25.3038 84.3257 25.0532 86.2898 24.7755 88.2878C24.3895 91.0376 23.9966 93.7535 23.5022 96.3001C23.2787 97.5531 23.1365 98.9145 22.9265 100.215C22.8317 100.824 22.7166 101.42 22.5743 101.989C22.5743 102.118 22.4456 102.707 22.3914 103.188C22.5056 103.447 22.5411 103.734 22.4936 104.013C22.4461 104.291 22.3176 104.55 22.1242 104.757C21.9307 104.963 21.6808 105.108 21.4056 105.174C21.1304 105.239 20.842 105.222 20.5763 105.125C20.3167 105.039 20.0891 104.877 19.9235 104.659C19.7578 104.442 19.662 104.179 19.6484 103.906C19.7056 103.02 19.8508 102.142 20.0819 101.285C20.2377 100.797 20.3731 100.276 20.5018 99.7475C20.7931 98.4472 21.0233 97.0858 21.3281 95.8396C22.0054 92.7444 22.6827 89.3986 23.1636 86.0189C23.4548 84.0277 23.6986 82.0161 23.9018 80.052C24.044 78.6974 24.1456 77.3428 24.254 76.0492C24.3624 74.4576 25.0464 70.0688 25.2293 68.2265C25.2306 68.0795 25.2238 67.9325 25.209 67.7863V67.7863ZM20.3596 102.646C20.2564 102.712 20.1648 102.794 20.0887 102.89C20.1705 102.8 20.2613 102.718 20.3596 102.646V102.646ZM26.7058 68.9715C26.8881 68.97 27.0674 68.925 27.2288 68.8402C27.3902 68.7553 27.529 68.6332 27.6337 68.4839C27.5191 68.6228 27.3781 68.7374 27.2188 68.8211C27.0595 68.9048 26.8851 68.956 26.7058 68.9715V68.9715Z" fill="#005000"/><path fill-rule="evenodd" clip-rule="evenodd" d="M26.863 67.2781C26.863 67.0614 27.3575 67.0343 27.6148 66.8379C28.1496 66.4012 28.7366 66.0326 29.3622 65.7407C29.763 65.5589 30.2029 65.4804 30.6419 65.5123C31.0808 65.5443 31.5047 65.6856 31.875 65.9236C33.9068 67.2036 34.6722 70.1566 34.5028 73.8004C34.2931 76.7734 33.8102 79.7207 33.0602 82.6052C32.3689 85.4937 31.5004 88.337 30.4594 91.1187C29.9447 92.4326 28.0889 94.8438 26.3077 95.5617C25.7236 95.8329 25.0656 95.9008 24.4384 95.7548C23.8112 95.6087 23.2509 95.257 22.8467 94.7557C22.6731 94.5513 22.5294 94.3233 22.42 94.0785C22.2935 93.6566 22.1162 93.2518 21.8917 92.8729C21.6555 92.5926 21.5403 92.2301 21.5714 91.8649C21.6025 91.4997 21.7774 91.1619 22.0577 90.9257C22.3379 90.6894 22.7004 90.5742 23.0656 90.6054C23.4308 90.6365 23.7687 90.8114 24.0049 91.0916C24.1652 91.299 24.2973 91.5267 24.3977 91.7689C24.5291 92.0788 24.6443 92.3953 24.7431 92.7171C24.759 92.8441 24.7956 92.9676 24.8515 93.0828C24.918 93.177 25.0146 93.2458 25.1254 93.2778C25.2362 93.3098 25.3546 93.3031 25.4611 93.2589C25.8026 93.1346 26.1208 92.9537 26.4025 92.7239C27.2412 92.066 27.9333 91.2401 28.4343 90.2992C29.394 88.0385 30.2039 85.7171 30.859 83.3502C31.5385 80.9903 32.0322 78.5808 32.3355 76.1439C32.5961 74.2683 32.5503 72.3629 32.2 70.502C32.1312 69.9966 31.9563 69.5113 31.6866 69.0783C31.417 68.6452 31.0588 68.2741 30.6355 67.9893C30.5001 67.9148 30.3849 67.9893 30.263 68.0841C30.0366 68.2189 29.8254 68.3779 29.6331 68.5582C29.1118 69.043 28.5342 69.4637 27.9128 69.8112C27.5877 69.9677 27.2306 70.0465 26.8698 70.0415C26.6888 70.0442 26.5091 70.0111 26.3408 69.9443C26.1726 69.8775 26.0191 69.7783 25.8892 69.6522C25.627 69.3975 25.4766 69.0491 25.4712 68.6835C25.4658 68.318 25.6058 67.9653 25.8605 67.703C26.1152 67.4407 26.4636 67.2903 26.8292 67.2849L26.863 67.2781Z" fill="#005000"/><path fill-rule="evenodd" clip-rule="evenodd" d="M45.7644 68.362C46.3577 69.1122 46.7306 70.0127 46.8413 70.9628C47.2409 73.2791 47.0106 76.6114 46.523 77.7357C44.3827 82.6257 44.6198 89.3647 43.2178 94.7966C42.8491 96.3128 42.2845 97.7745 41.5381 99.1447C40.9083 100.249 40.38 102.931 39.3369 104.312C38.5445 105.369 37.5218 105.863 36.174 105.322C35.6652 105.124 35.2117 104.807 34.8521 104.397C34.4924 103.986 34.2372 103.495 34.1083 102.965C33.6274 101.258 34.1083 98.8603 34.1083 97.1603C34.1222 94.0638 34.4101 90.9746 34.9684 87.9288C35.787 83.4006 36.8817 78.9267 38.2465 74.5321C38.6365 73.1843 39.1302 71.8687 39.723 70.5971C40.1378 69.6858 40.6583 68.8265 41.274 68.0369C41.6303 67.6499 42.1083 67.3965 42.6286 67.319C43.2794 67.2179 43.9419 67.2179 44.5927 67.319C44.8691 67.3579 45.1277 67.4777 45.3362 67.6633C45.5447 67.8489 45.6937 68.092 45.7644 68.362V68.362ZM43.1027 70.0213C42.6982 70.5538 42.3445 71.123 42.0461 71.7213C41.4682 72.8575 40.9747 74.0346 40.5696 75.2432C39.0857 79.5043 37.8798 83.8571 36.9597 88.2743C36.3806 91.1974 36.0678 94.1671 36.025 97.1467C36.025 98.5013 35.6525 100.31 35.8218 101.806C35.8072 102.167 35.899 102.523 36.0857 102.831C36.2724 103.14 36.5457 103.386 36.8716 103.54C37.5015 103.791 37.813 103.222 38.1314 102.606C38.8764 101.17 39.3031 99.0973 39.8246 98.1627C40.4744 96.9445 40.9552 95.6434 41.2536 94.2954C42.6082 88.7077 42.1816 81.8197 44.2405 76.7604C44.4953 75.6644 44.5662 74.5338 44.4505 73.4146C44.3482 72.3982 44.1509 71.3937 43.8612 70.4142C43.6936 70.3612 43.539 70.2735 43.4075 70.1568C43.3502 70.1558 43.2936 70.1434 43.2413 70.1201C43.1889 70.0968 43.1418 70.0632 43.1027 70.0213Z" fill="#005000"/><path fill-rule="evenodd" clip-rule="evenodd" d="M56.0575 69.757C55.9941 69.3964 55.8896 69.0441 55.7459 68.7073C55.6348 68.4284 55.4716 68.1733 55.265 67.9555L55.2041 67.8945C55.1276 67.9183 55.0546 67.9525 54.9874 67.9961C54.8329 68.103 54.6919 68.228 54.5674 68.3686C54.0279 68.9829 53.5724 69.6662 53.2129 70.4005C52.4235 71.9356 51.8187 73.5589 51.4113 75.2363C51.3493 75.5418 51.3485 75.8565 51.4089 76.1622C51.4694 76.468 51.5899 76.7587 51.7635 77.0176C52.3866 77.9319 53.4702 78.528 54.3236 79.2324C55.1655 79.8466 55.7666 80.7352 56.0236 81.7451C56.5857 84.3526 56.3419 90.4347 55.2447 95.6227C54.3846 99.6864 52.9013 103.134 50.9575 104.319C48.5599 105.802 47.0224 105.247 46.0946 104.102C45.4579 103.19 45.1002 102.112 45.0651 101C44.9392 98.778 45.2712 96.5534 46.0404 94.4646C46.1832 94.1269 46.4543 93.8597 46.794 93.7219C46.9623 93.6537 47.1423 93.6192 47.3239 93.6206C47.5054 93.6219 47.6849 93.659 47.8521 93.7297C48.0193 93.8004 48.171 93.9034 48.2984 94.0327C48.4258 94.162 48.5265 94.3151 48.5948 94.4834C48.663 94.6516 48.6974 94.8316 48.6961 95.0132C48.6948 95.1947 48.6577 95.3742 48.587 95.5414C47.8487 97.194 47.2324 100.12 47.6929 101.935C47.7878 102.314 47.8758 102.653 48.14 102.802C48.526 103.012 49.0475 102.802 49.8196 102.389C51.4451 101.454 52.5288 98.5148 53.2941 95.1893C54.4184 90.3263 54.6487 84.5965 54.161 82.1379C53.9917 81.359 53.328 80.8782 52.6439 80.377C51.6961 79.7714 50.8484 79.0219 50.1312 78.1554C49.7985 77.6971 49.5597 77.1775 49.4283 76.6266C49.297 76.0757 49.2758 75.5043 49.3659 74.9451C49.9114 72.232 50.9317 69.6365 52.3798 67.2782C53.6938 65.3886 55.3395 64.8129 56.8363 65.9236C57.554 66.568 58.1048 67.3767 58.4415 68.2806C58.7044 68.9018 58.838 69.5701 58.8344 70.2447C58.825 70.775 58.6086 71.2806 58.2316 71.6535C58.0593 71.8216 57.8545 71.9528 57.6297 72.039C57.4049 72.1252 57.1649 72.1645 56.9244 72.1547C56.6372 72.1645 56.3542 72.0827 56.1166 71.9211C55.8789 71.7595 55.6987 71.5265 55.6022 71.2558C55.5057 70.9851 55.4978 70.6907 55.5796 70.4152C55.6615 70.1396 55.8288 69.8973 56.0575 69.7232V69.757Z" fill="#005000"/><path fill-rule="evenodd" clip-rule="evenodd" d="M65.5322 67.9552C65.3155 68.8289 64.9565 70.5492 64.8549 71.0301C64.5231 72.8114 64.1777 74.5182 63.8458 76.252C63.6494 77.3831 63.48 78.5277 63.3446 79.713C62.9981 82.6395 62.439 85.5369 61.6717 88.3823C60.9944 91.1998 60.2223 94.0173 59.6872 96.8281C59.2231 99.1851 59.0142 101.585 59.0641 103.987C59.0641 104.353 58.9185 104.705 58.6594 104.964C58.4003 105.223 58.0489 105.369 57.6824 105.369C57.316 105.369 56.9646 105.223 56.7054 104.964C56.4463 104.705 56.3008 104.353 56.3008 103.987C56.3751 102.258 56.5834 100.537 56.9239 98.8396C57.547 95.6022 58.5629 92.3647 59.4705 89.0934C60.395 85.9478 61.0431 82.7275 61.4075 79.4691C61.4753 78.5548 61.5701 77.6608 61.6717 76.76C61.8952 74.7281 62.1796 72.6963 62.4302 70.5831C62.498 70.0074 62.7824 67.7995 62.9314 67.0003C62.97 66.799 63.0338 66.6032 63.1211 66.4178C63.2272 66.1754 63.4062 65.9722 63.6332 65.8362C63.8602 65.7003 64.1239 65.6384 64.3876 65.6592C64.5732 65.6588 64.7568 65.6966 64.9272 65.7701C65.0975 65.8436 65.2509 65.9513 65.378 66.0866C65.505 66.2218 65.6028 66.3817 65.6655 66.5564C65.7281 66.731 65.7542 66.9167 65.7422 67.1018C65.7618 67.4011 65.6884 67.6992 65.5322 67.9552V67.9552ZM63.0263 67.278C63.023 67.2396 63.023 67.2011 63.0263 67.1628C63.0227 67.2011 63.0227 67.2397 63.0263 67.278V67.278Z" fill="#005000"/><path fill-rule="evenodd" clip-rule="evenodd" d="M76.2235 64.7928C76.3729 64.7375 76.5317 64.7121 76.6908 64.7182C76.6908 64.7182 76.7518 64.7182 76.745 64.7182H76.9143C77.115 64.71 77.3144 64.7545 77.4926 64.8471C77.6708 64.9398 77.8217 65.0775 77.9303 65.2466C78.0657 65.3685 78.0793 65.5446 78.147 65.68C78.3163 66.0254 78.147 66.3573 78.0251 66.7434C77.9087 66.9176 77.759 67.0671 77.5846 67.1833C77.4103 67.2995 77.2147 67.3802 77.0092 67.4207C76.9618 67.4207 76.8466 67.4207 76.6637 67.4681C76.4944 67.4624 76.3272 67.4281 76.1693 67.3665C75.8276 67.2125 75.4744 67.0857 75.1128 66.9872C74.7335 66.9127 74.3745 66.8653 74.1442 66.8449C73.4796 66.8427 72.8159 66.8948 72.1598 67.0008C71.7398 67.0685 71.3267 67.1633 70.9136 67.2581C70.2363 67.4206 69.559 67.5764 68.8817 67.6848C68.5153 67.6848 68.1638 67.5392 67.9047 67.2801C67.6456 67.021 67.5 66.6696 67.5 66.3031C67.5 65.9367 67.6456 65.5852 67.9047 65.3261C68.1638 65.067 68.5153 64.9215 68.8817 64.9215C69.5335 65.0266 70.1924 65.0809 70.8526 65.084C71.496 65.084 72.1395 65.0298 72.7829 64.9892C73.2231 64.9892 73.6701 64.9079 74.1375 64.9011C74.4016 64.9011 74.8147 64.9011 75.2482 64.8469L76.2235 64.7928Z" fill="#005000"/><path fill-rule="evenodd" clip-rule="evenodd" d="M66.9865 102.436C66.9968 102.526 66.9968 102.617 66.9865 102.707C66.9187 104.59 64.6431 103.73 64.5483 103.615C64.3277 103.325 64.2109 102.97 64.2164 102.606C64.1943 101.806 64.2396 101.006 64.3519 100.215C64.7244 99.0498 65.3136 97.8917 65.7471 96.6522C65.9085 96.2118 66.0331 95.7587 66.1196 95.2976C66.4311 93.3945 66.7969 91.4845 67.2303 89.5678C67.7857 86.9263 68.4088 84.2849 69.0251 81.6435C69.4383 79.8826 69.8175 78.1216 70.2104 76.3742C70.5152 74.918 70.6303 73.1367 70.8877 71.5383C71.011 70.7678 71.206 70.0105 71.4701 69.2762C71.6306 68.5128 71.7347 67.7386 71.7817 66.9599C71.8101 66.7404 71.8815 66.5287 71.9916 66.3368C72.1447 66.0912 72.3704 65.8993 72.6374 65.7877C72.9043 65.6761 73.1994 65.6502 73.4817 65.7137C73.7042 65.7595 73.911 65.8622 74.0819 66.0118C74.2528 66.1613 74.382 66.3527 74.457 66.5671C74.5233 66.759 74.5598 66.96 74.5653 67.1631C74.5711 67.3992 74.5151 67.6326 74.4028 67.8404C74.2657 68.6603 74.0665 69.4686 73.8068 70.2583C73.5482 70.8263 73.3463 71.4184 73.204 72.026C72.8112 73.6176 72.5877 75.4125 72.1948 76.8551C71.7207 78.7109 71.2128 80.5734 70.759 82.4562C70.3052 84.3391 69.8921 86.1949 69.5196 88.071C69.0251 90.5905 68.6255 93.1168 68.3275 95.6092C68.2536 96.2091 68.1336 96.8023 67.9686 97.3837C67.6231 98.6164 67.122 99.7881 66.8375 100.946V100.906C66.8375 100.906 66.9526 102.05 66.9865 102.436ZM64.2773 102.612C64.2734 102.644 64.2734 102.676 64.2773 102.707C64.2671 102.676 64.2603 102.645 64.257 102.612H64.2773ZM64.6972 101.712C64.4688 101.902 64.3232 102.174 64.2909 102.47C64.337 102.183 64.472 101.918 64.6769 101.712H64.6972ZM71.863 67.2782C71.8592 67.2422 71.8592 67.2059 71.863 67.1699C71.8558 67.2056 71.8558 67.2424 71.863 67.2782V67.2782Z" fill="#005000"/><path fill-rule="evenodd" clip-rule="evenodd" d="M72.9699 103.466C73.0553 102.309 73.2204 101.159 73.4643 100.025C73.8368 98.2098 74.3245 96.3134 74.697 94.7759C75.2998 92.1074 76.1532 89.1883 76.9727 86.1473C77.7245 83.3501 78.4898 80.4513 79.0858 77.566C79.9189 73.7844 80.3435 69.9243 80.3524 66.0521C80.3595 65.6857 80.512 65.3371 80.7762 65.0831C81.0404 64.829 81.3946 64.6903 81.7611 64.6975C82.1275 64.7047 82.4761 64.8572 82.7301 65.1214C82.9842 65.3856 83.1228 65.7399 83.1157 66.1063C82.9034 69.1289 82.4505 72.1298 81.7611 75.0804C81.1651 77.7895 80.4607 80.4987 79.7292 83.2078C79.1874 85.2397 78.6591 87.2716 78.1715 89.2222C77.65 91.3218 77.1962 93.3469 76.8169 95.2365C76.5392 96.7672 76.1396 98.6229 75.8958 100.458C75.7293 101.561 75.6523 102.675 75.6655 103.791C75.6745 103.955 75.6745 104.12 75.6655 104.285C75.6386 104.638 75.4788 104.967 75.2185 105.206C74.9204 105.466 74.5368 105.606 74.1416 105.599C73.8899 105.609 73.6405 105.548 73.4213 105.424C73.2021 105.3 73.0219 105.117 72.9009 104.896C72.7799 104.675 72.7229 104.425 72.7363 104.173C72.7497 103.922 72.8329 103.679 72.9767 103.472L72.9699 103.466ZM73.8707 102.849C73.9586 102.842 74.0469 102.842 74.1348 102.849C74.0452 102.834 73.9536 102.834 73.8639 102.849H73.8707Z" fill="#005000"/><path fill-rule="evenodd" clip-rule="evenodd" d="M91.2636 65.6462C91.6725 65.8142 92.0431 66.0635 92.3527 66.379C92.6624 66.6945 92.9048 67.0697 93.0652 67.4817C93.3532 68.2099 93.5158 68.9816 93.5461 69.7641C93.6206 71.1187 93.4851 72.6697 93.458 74.2342C93.3771 77.3725 93.0075 80.4967 92.354 83.5673C91.4261 88.1322 90.0784 92.6971 88.8254 96.9776C88.3716 98.576 87.2947 102.057 85.703 103.879C84.6397 105.105 83.3529 105.66 81.9238 105.092C81.0569 104.746 80.4608 103.737 80.2441 102.443C80.056 100.561 80.1152 98.6618 80.4202 96.7947C80.8672 93.4896 81.4226 90.2386 82.0254 86.9943C82.9194 82.145 83.9489 77.3227 85.0461 72.4462C85.5494 70.7502 86.1975 69.1006 86.9831 67.5155C87.3554 66.7167 87.8565 65.9845 88.4664 65.3482C88.8169 65.0188 89.2729 64.8244 89.7533 64.7996C90.0108 64.7895 90.2672 64.8393 90.5022 64.9451C90.7373 65.0509 90.9446 65.2097 91.1078 65.4092C91.1679 65.4825 91.2201 65.562 91.2636 65.6462ZM89.9835 68.1319C89.6167 68.4996 89.294 68.9087 89.0218 69.351C88.4094 70.5353 87.8887 71.7648 87.464 73.0287C86.2178 77.8442 85.0258 82.592 84.0302 87.3872C83.3529 90.584 82.7975 93.8011 82.3166 97.0588C82.0819 98.5116 81.9889 99.9837 82.0389 101.454C82.0575 101.964 82.1581 102.467 82.3369 102.944C82.4114 103.114 82.4792 103.263 82.6214 103.324C83.5289 103.676 84.1791 102.863 84.7819 101.908C85.7408 100.194 86.463 98.3575 86.9289 96.4493C88.0871 92.1959 89.3672 87.6446 90.1732 83.1541C90.7231 80.213 90.993 77.2263 90.9791 74.2342C90.9791 72.392 91.1078 70.5092 90.8098 69.1546C90.7656 68.8324 90.6265 68.5306 90.4102 68.2876C90.2901 68.1881 90.1394 68.1331 89.9835 68.1319V68.1319Z" fill="#005000"/><path fill-rule="evenodd" clip-rule="evenodd" d="M96.2792 65.6729C96.435 64.8128 97.3358 64.9076 98.0673 65.1582C98.2341 65.1322 98.4049 65.1564 98.558 65.2275C98.7111 65.2987 98.8397 65.4136 98.9275 65.5578C98.9884 65.5985 99.029 65.6323 99.029 65.6459C99.0394 65.7517 99.0394 65.8583 99.029 65.9642C99.0357 66.0091 99.0357 66.0547 99.029 66.0996C98.9319 67.151 98.7736 68.1958 98.555 69.2287C98.357 69.8635 98.212 70.5137 98.1215 71.1725C97.9838 72.919 97.7577 74.6573 97.4442 76.3809C96.8927 78.9633 96.5081 81.5785 96.2928 84.2103C96.049 86.9195 95.8661 89.6286 95.4801 92.2836C95.2906 93.6522 95.0238 95.0089 94.6809 96.3473C94.1645 98.3355 93.7552 100.35 93.455 102.382C93.3601 103.059 93.2856 103.737 93.2382 104.38C93.3533 104.587 93.4137 104.82 93.4137 105.057C93.4137 105.294 93.3533 105.527 93.2382 105.735L93.1773 106.297V106.358C93.6582 122.084 91.3147 118.149 90.4681 106.432C90.4452 105.945 90.477 105.456 90.5629 104.976V104.881C90.6577 103.96 90.8203 102.992 91.01 102.003C91.4305 99.9093 91.9572 97.8386 92.5881 95.7987C93.1289 93.9138 93.5184 91.9887 93.753 90.0418C94.051 87.7458 94.2338 85.3888 94.4303 83.0657C94.5886 80.6837 94.8758 78.312 95.2904 75.961C95.6358 74.0375 95.4868 72.0733 95.7103 70.1498C95.775 69.6121 95.8699 69.0784 95.9948 68.5514C96.1114 67.6687 96.1769 66.78 96.1912 65.8897C96.1912 65.8423 96.1912 65.7948 96.1912 65.7474V65.7L96.2792 65.6729Z" fill="#005000"/><path fill-rule="evenodd" clip-rule="evenodd" d="M100.998 93.2522C101.283 91.5725 101.54 89.9064 101.676 88.2674C102.008 84.1291 101.825 79.5507 102.055 75.216C102.148 73.2882 102.374 71.3691 102.732 69.4726C102.929 68.4702 103.335 67.2714 103.572 66.1607C103.661 65.7901 103.706 65.4106 103.708 65.0296C103.708 64.6632 103.853 64.3117 104.112 64.0526C104.371 63.7935 104.723 63.6479 105.089 63.6479C105.456 63.6479 105.807 63.7935 106.066 64.0526C106.325 64.3117 106.471 64.6632 106.471 65.0296C106.452 65.6173 106.368 66.2011 106.22 66.7702C105.956 67.8539 105.502 69.0256 105.279 70.0077C104.895 71.7778 104.635 73.5724 104.5 75.3786C104.148 79.72 104.216 84.3188 103.775 88.4638C103.396 92.1889 102.421 96.0494 101.906 99.8558C101.668 101.439 101.539 103.037 101.52 104.637C101.52 106.27 99.7794 105.315 99.6574 104.942C99.6574 104.942 99.6574 104.847 99.6168 104.719C99.5762 104.59 99.6168 104.502 99.5829 104.278C99.5355 103.439 99.4407 101.569 99.4407 100.14C99.4407 99.5917 99.4407 99.0498 99.4001 98.508C99.2985 96.2526 99.0546 94.0514 99.0411 91.7893C98.9259 84.9622 97.4698 78.1148 96.8941 71.3419C96.7383 69.581 96.6435 67.8268 96.6367 66.0726C96.643 65.7062 96.7946 65.3573 97.0582 65.1026C97.3217 64.8479 97.6757 64.7084 98.0421 64.7147C98.4085 64.721 98.7575 64.8726 99.0121 65.1361C99.2668 65.3997 99.4064 65.7536 99.4001 66.12C99.3391 67.7997 99.3662 69.5065 99.4543 71.1658C99.8132 78.02 101.086 84.9216 100.985 91.7893C100.967 92.2769 100.971 92.7646 100.998 93.2522Z" fill="#005000"/></svg>