<svg width="72" height="160" viewBox="0 0 72 160" fill="none" xmlns="http://www.w3.org/2000/svg"><path fill-rule="evenodd" clip-rule="evenodd" d="M71.2925 152.503C71.7615 153.434 71.9003 154.497 71.6862 155.517C71.472 156.537 70.9177 157.454 70.1141 158.118C69.2336 158.964 66.2061 160.63 63.3885 157.19C63.2937 157.075 63.1447 156.77 62.9009 156.336C62.7519 156.072 62.4877 155.51 62.1085 154.738C60.6523 151.772 57.4691 145.154 55.2137 141.091C52.243 135.591 49.564 129.94 47.1878 124.158C44.8715 118.456 42.9412 112.597 40.9635 106.82C36.3372 90.6467 30.6168 74.8068 23.8417 59.4097C21.7692 54.7364 19.5138 50.1511 17.211 45.593C11.7318 34.7564 5.93417 24.2042 0.691954 13.3608C-0.166069 11.1057 -0.105012 8.60405 0.861979 6.39353C1.82897 4.18301 3.62468 2.44013 5.8631 1.53962C8.10153 0.639101 10.6039 0.652841 12.8323 1.57785C15.0608 2.50287 16.8373 4.2653 17.7799 6.4863C22.0062 19.3548 26.4018 32.1827 31.4612 44.8547C33.7572 50.5846 36.2022 56.24 38.7082 61.8886C44.587 75.2921 50.5878 88.5805 55.3085 102.323C56.487 106.305 57.767 110.288 58.9794 114.297C60.1917 118.307 61.2754 122.235 62.5487 126.163C63.6391 129.55 64.7431 132.841 66.0029 136.119C67.6758 140.65 69.8905 147.931 70.9132 151.203L71.2993 152.483L71.2925 152.503Z" fill="#005000"/></svg>