<svg width="190" height="101" viewBox="0 0 190 101" fill="none" xmlns="http://www.w3.org/2000/svg"><path fill-rule="evenodd" clip-rule="evenodd" d="M29.0344 14.8727C30.0762 14.9467 31.1232 14.8875 32.15 14.6966C33.3574 14.49 34.5516 14.2119 35.7261 13.8635C36.4643 13.6468 37.1619 13.3962 37.8053 13.1524C39.397 12.5428 40.5958 11.9807 40.9886 11.8452C41.399 11.7737 41.821 11.8639 42.1664 12.0967C42.5117 12.3296 42.7535 12.6871 42.8411 13.0943C42.9287 13.5016 42.8552 13.9269 42.6361 14.2811C42.4171 14.6354 42.0693 14.8911 41.6659 14.9946C41.2527 15.042 39.8304 15.2316 38.0695 15.6042C37.2974 15.7667 36.4643 15.9699 35.6244 16.1934C34.5882 16.4643 33.5452 16.7555 32.5766 17.0265C31.5089 17.3522 30.4235 17.6168 29.3257 17.8189C28.7236 17.9139 28.1079 17.8722 27.5241 17.697C27.1246 17.5461 26.788 17.2644 26.5691 16.8978C26.3734 16.5676 26.3019 16.1784 26.3675 15.8002C26.4331 15.422 26.6316 15.0796 26.9272 14.8346C27.2227 14.5897 27.596 14.4583 27.9798 14.464C28.3636 14.4697 28.7328 14.6123 29.0209 14.8659L29.0344 14.8727ZM29.3189 15.2113L29.3527 15.2587C29.3435 15.2397 29.3295 15.2233 29.3121 15.2113H29.3189ZM28.8041 14.8388L28.7161 14.7914C28.7413 14.8103 28.7686 14.8262 28.7974 14.8388H28.8041Z" fill="#005000"/><path fill-rule="evenodd" clip-rule="evenodd" d="M36.4883 16.6877C36.6509 16.9519 35.9668 17.365 35.7501 17.961C35.3722 19.0362 35.0778 20.139 34.8696 21.2594C34.7341 21.9977 34.619 22.7765 34.531 23.5825C34.3075 25.6686 34.1923 27.9036 34.1585 29.9287C34.1585 32.7733 34.2668 35.2184 34.2601 36.3833C34.2304 36.8099 34.0325 37.2073 33.7099 37.488C33.3873 37.7687 32.9663 37.9097 32.5397 37.8801C32.1131 37.8504 31.7157 37.6526 31.435 37.3299C31.1543 37.0073 31.0133 36.5864 31.0429 36.1598C31.1716 35.1913 31.3951 33.3355 31.6186 31.0869C31.727 30.01 31.8354 28.8518 31.937 27.6598C32.0657 26.2307 32.1943 24.7678 32.3162 23.359C32.4449 21.7877 32.5736 20.2909 32.7429 18.9973C32.8684 17.6958 33.1857 16.42 33.6843 15.2112C33.9274 14.7063 34.3017 14.2759 34.768 13.965C35.1254 13.7834 35.5376 13.7414 35.9243 13.8473C36.311 13.9532 36.6443 14.1995 36.8592 14.5379C37.0741 14.8763 37.1552 15.2827 37.0866 15.6777C37.018 16.0727 36.8047 16.428 36.4883 16.6742V16.6877Z" fill="#005000"/><path fill-rule="evenodd" clip-rule="evenodd" d="M40.7451 13.0779C40.3861 15.4484 40.1626 17.8189 39.885 20.2233C39.7698 21.1648 39.6411 22.1062 39.5057 23.0476C39.3025 24.4564 39.0767 25.8584 38.8284 27.2536C38.6026 28.4863 38.352 29.7166 38.0766 30.9448C37.6634 32.7735 37.1555 34.5683 36.6136 36.3631C36.5514 36.5727 36.5324 36.7927 36.5578 37.0098C36.5833 37.2269 36.6526 37.4366 36.7616 37.626C36.8706 37.8155 37.0171 37.9808 37.192 38.112C37.3669 38.2431 37.5666 38.3373 37.779 38.3888C37.9915 38.4403 38.2122 38.448 38.4277 38.4115C38.6433 38.3751 38.8491 38.2952 39.0328 38.1767C39.2165 38.0581 39.3741 37.9035 39.4962 37.7221C39.6182 37.5407 39.7021 37.3365 39.7427 37.1217C40.1762 34.7579 40.42 32.3807 40.7654 29.9831C41.1108 27.5855 41.3885 25.2759 41.7746 22.9325C41.971 21.6863 42.2148 20.4536 42.4519 19.2209C42.8515 17.3855 43.3459 15.5771 43.8674 13.8026C43.9389 13.3923 43.8487 12.9702 43.6159 12.6248C43.383 12.2795 43.0255 12.0377 42.6182 11.9501C42.211 11.8625 41.7857 11.936 41.4315 12.1551C41.0772 12.3742 40.8215 12.7219 40.718 13.1253L40.7451 13.0779Z" fill="#005000"/><path fill-rule="evenodd" clip-rule="evenodd" d="M46.6423 11.6287C46.7465 14.1949 46.6469 16.7654 46.3443 19.3159C46.1546 20.982 45.8702 22.7023 45.5383 24.4768C45.2064 26.2513 44.861 27.9446 44.4208 29.5768C43.7838 32.0987 43.0151 34.5855 42.118 37.027C41.993 37.4338 42.0339 37.8735 42.2318 38.2503C42.4297 38.627 42.7686 38.9102 43.1745 39.038C43.5804 39.1659 44.0205 39.128 44.3986 38.9327C44.7767 38.7374 45.0622 38.4005 45.1929 37.9955C45.6196 36.3362 46.0463 34.1417 46.4933 31.69C46.7439 30.3354 46.9945 28.9469 47.2586 27.5111C47.6379 25.4318 48.0104 23.2916 48.3694 21.2529C48.6335 19.79 48.9044 18.3812 49.1279 17.0605C49.4937 14.9474 49.7714 13.0916 49.8662 11.6422C49.8662 11.2147 49.6964 10.8047 49.3941 10.5024C49.0918 10.2001 48.6818 10.0303 48.2542 10.0303C47.8267 10.0303 47.4167 10.2001 47.1144 10.5024C46.8121 10.8047 46.6423 11.2147 46.6423 11.6422V11.6287Z" fill="#005000"/><path fill-rule="evenodd" clip-rule="evenodd" d="M46.8951 18.4554C46.4382 19.2154 45.8671 19.9007 45.2019 20.4873C44.7126 20.8789 44.1889 21.2258 43.6374 21.5235C43.0847 21.8249 42.5096 22.0831 41.9171 22.2956C41.0329 22.5912 40.1272 22.8176 39.2079 22.9729C38.8029 23.1103 38.469 23.403 38.2797 23.7866C38.0905 24.1702 38.0614 24.6133 38.1988 25.0183C38.3362 25.4234 38.6289 25.7573 39.0124 25.9465C39.396 26.1358 39.8391 26.1649 40.2442 26.0275C40.9215 25.6753 41.6665 25.2486 42.4454 24.788L43.8677 23.9617L45.6557 22.9255C46.2856 22.5733 46.8951 22.2482 47.4844 21.8757C48.1379 21.4961 48.7606 21.0658 49.3469 20.5889C49.605 20.2651 49.7286 19.8545 49.6921 19.4421C49.6556 19.0297 49.4619 18.6471 49.151 18.3737C48.8402 18.1003 48.436 17.957 48.0223 17.9734C47.6086 17.9899 47.2172 18.1649 46.929 18.4622L46.8951 18.4554Z" fill="#005000"/><path fill-rule="evenodd" clip-rule="evenodd" d="M51.9345 23.115C51.4604 21.4692 51.6298 18.5636 52.2529 16.0644C52.8015 13.8835 53.7903 12.082 54.8062 11.364C55.1544 11.1137 55.5578 10.951 55.9823 10.8897C56.4067 10.8284 56.8397 10.8703 57.2445 11.0118C57.6216 11.1451 57.9357 11.4139 58.1257 11.7658C58.3157 12.1177 58.3681 12.5278 58.2727 12.9162C58.1773 13.3046 57.9409 13.6437 57.6094 13.8675C57.278 14.0914 56.8751 14.184 56.4792 14.1274C56.3843 14.2764 56.0186 14.4186 55.8628 14.6556C54.577 16.9352 53.9641 19.5326 54.0951 22.1465C54.5456 22.0435 55.0163 22.0741 55.4497 22.2345C55.6349 22.3242 55.7943 22.4595 55.9128 22.6277C56.0313 22.796 56.105 22.9917 56.127 23.1963C56.1415 23.5337 56.0535 23.8677 55.8745 24.1542C55.6956 24.4407 55.4342 24.6664 55.1246 24.8014C54.9829 24.8871 54.8302 24.9531 54.6708 24.9978C54.5127 25.0473 54.3487 25.0747 54.1831 25.0791C53.8566 25.1001 53.5302 25.0371 53.2349 24.8962C52.2224 25.7194 51.4736 26.8215 51.0811 28.066C50.2955 30.4229 49.8959 32.1906 50.4919 33.4843C51.0879 34.7779 52.5238 35.2114 54.9688 35.6177C55.1764 35.6597 55.3737 35.7423 55.5492 35.8609C55.7247 35.9794 55.8751 36.1315 55.9915 36.3084C56.108 36.4854 56.1883 36.6836 56.2279 36.8917C56.2674 37.0998 56.2653 37.3136 56.2218 37.5209C56.1338 37.9385 55.8844 38.3044 55.528 38.539C55.1716 38.7737 54.7369 38.8581 54.3186 38.7739C50.5935 37.8392 48.7242 36.4034 48.013 34.5138C47.3019 32.6241 47.6812 30.3552 48.9071 27.2668C49.481 25.6126 50.535 24.1671 51.9345 23.115V23.115Z" fill="#005000"/><path fill-rule="evenodd" clip-rule="evenodd" d="M68.6112 5.4043C68.9279 7.76677 68.8708 10.1644 68.4419 12.5091C68.2049 13.972 67.8798 15.4282 67.5276 16.8844C66.979 19.133 66.3627 21.368 66.0105 23.6572C65.7734 25.0118 65.5837 26.4341 65.3873 27.8293C65.0826 29.8612 64.7845 31.9676 64.4527 34.0265C64.2224 35.4827 63.9515 36.9321 63.6535 38.368C63.6197 38.577 63.6274 38.7906 63.6762 38.9966C63.7249 39.2027 63.8138 39.3971 63.9377 39.5688C64.0616 39.7405 64.2181 39.8861 64.3982 39.9973C64.5784 40.1085 64.7787 40.1831 64.9878 40.2169C65.1968 40.2507 65.4104 40.2431 65.6164 40.1943C65.8225 40.1455 66.0169 40.0567 66.1886 39.9328C66.3603 39.8089 66.5059 39.6524 66.6171 39.4722C66.7283 39.292 66.8029 39.0917 66.8367 38.8827C67.2567 35.4353 67.4124 31.9134 67.724 28.405C67.8527 26.9285 68.0355 25.4588 68.2387 24.0026C68.6879 21.4295 69.2803 18.8835 70.0132 16.3764C70.4941 14.629 70.9818 12.8884 71.3272 11.1274C71.7363 9.15024 71.9023 7.1305 71.8216 5.11307C71.7794 4.68736 71.5698 4.29583 71.2389 4.02465C70.908 3.75347 70.483 3.62484 70.0573 3.66706C69.6315 3.70927 69.24 3.91886 68.9689 4.24974C68.6977 4.58062 68.569 5.00568 68.6112 5.4314V5.4043Z" fill="#005000"/><path fill-rule="evenodd" clip-rule="evenodd" d="M78.6341 3.06085C78.3779 6.04717 77.9505 9.01632 77.354 11.9537C77.0018 13.7417 76.609 15.523 76.2026 17.3042C75.5795 20.0134 74.909 22.7225 74.401 25.3911C73.9946 27.4229 73.7237 29.4548 73.4528 31.5341C73.06 34.5751 72.7281 37.6297 72.2811 40.6368C72.0915 41.8785 71.8657 43.1112 71.6038 44.3348C71.5338 44.757 71.6343 45.1896 71.8832 45.5377C72.1322 45.8857 72.5092 46.1205 72.9313 46.1906C73.3534 46.2606 73.7861 46.1601 74.1341 45.9112C74.4822 45.6622 74.717 45.2852 74.7871 44.8631C75.3763 40.4133 75.4644 35.9093 75.8504 31.4121C76.013 29.5361 76.2636 27.6735 76.5887 25.811C77.1508 22.8512 77.8417 19.8983 78.6205 16.952C79.3994 14.0058 80.246 11.0122 80.9233 8.02537C81.262 6.50147 81.6006 4.97079 81.8173 3.43335C81.8554 3.21709 81.8489 2.99534 81.7982 2.78169C81.7474 2.56804 81.6537 2.36701 81.5225 2.19092C81.3913 2.01483 81.2255 1.8674 81.0353 1.75768C80.8451 1.64795 80.6345 1.57824 80.4164 1.55282C80.1983 1.52741 79.9772 1.54684 79.7669 1.60989C79.5566 1.67294 79.3614 1.77831 79.1932 1.91952C79.0251 2.06072 78.8875 2.23479 78.789 2.43106C78.6906 2.62732 78.6332 2.84163 78.6205 3.06085H78.6341Z" fill="#005000"/><path fill-rule="evenodd" clip-rule="evenodd" d="M76.9507 16.6945C76.138 17.0602 75.3591 17.4801 74.4922 17.7849C73.9362 17.9755 73.3683 18.1294 72.7922 18.2454C72.2175 18.367 71.6363 18.4552 71.0515 18.5096C70.1762 18.5568 69.299 18.5568 68.4236 18.5096C67.9997 18.5671 67.616 18.7906 67.3569 19.131C67.0978 19.4714 66.9845 19.9008 67.042 20.3247C67.0995 20.7486 67.323 21.1324 67.6634 21.3915C68.0038 21.6506 68.4332 21.7639 68.8571 21.7064C69.7376 21.449 70.5977 21.1239 71.5121 20.853C72.4264 20.5821 73.2663 20.3721 74.1603 20.1757C74.6344 20.0741 75.1085 19.9996 75.5894 19.9454C76.3411 19.8574 77.0523 19.8303 77.777 19.7693C77.9853 19.7186 78.1814 19.6267 78.3538 19.4992C78.5262 19.3717 78.6714 19.2111 78.781 19.0268C78.8905 18.8425 78.9622 18.6381 78.9918 18.4258C79.0214 18.2134 79.0083 17.9973 78.9534 17.79C78.8984 17.5828 78.8026 17.3886 78.6717 17.2188C78.5407 17.049 78.3772 16.907 78.1907 16.8012C78.0042 16.6954 77.7985 16.6279 77.5855 16.6026C77.3726 16.5773 77.1568 16.5947 76.9507 16.6538V16.6945Z" fill="#005000"/><path fill-rule="evenodd" clip-rule="evenodd" d="M88.6363 2.03809C88.4177 2.17699 88.1916 2.30361 87.959 2.41737C87.8083 2.48384 87.6485 2.52722 87.4849 2.54605C87.171 2.57868 86.8541 2.56729 86.5434 2.5122C86.1574 2.45124 85.8662 2.37674 85.4869 2.28192C85.097 2.3972 84.7651 2.65553 84.5577 3.00516C84.3502 3.35479 84.2826 3.76989 84.3682 4.1673C84.4539 4.56472 84.6865 4.9151 85.0195 5.14824C85.3526 5.38139 85.7614 5.48007 86.1642 5.42453C86.3674 5.26198 86.4487 5.09266 86.6654 4.9843C86.8515 4.87864 87.0561 4.80967 87.2682 4.78112C87.4452 4.75976 87.6248 4.77356 87.7965 4.82175C88.0894 4.93755 88.3688 5.08517 88.6295 5.26199C89.057 5.26199 89.467 5.09216 89.7693 4.78986C90.0716 4.48756 90.2415 4.07755 90.2415 3.65004C90.2415 3.22252 90.0716 2.81251 89.7693 2.51021C89.467 2.20791 89.057 2.03809 88.6295 2.03809H88.6363Z" fill="#005000"/><path fill-rule="evenodd" clip-rule="evenodd" d="M84.5738 37.6567C83.9507 37.8802 83.4021 38.1444 82.7722 38.334C82.3816 38.4379 81.9828 38.5081 81.5802 38.544C81.1834 38.5745 80.7849 38.5745 80.3881 38.544C79.8035 38.4852 79.2239 38.3833 78.6543 38.2392C78.4426 38.2418 78.2335 38.2862 78.039 38.3696C77.8444 38.4531 77.6682 38.5741 77.5204 38.7257C77.3726 38.8772 77.2561 39.0564 77.1776 39.253C77.099 39.4496 77.06 39.6597 77.0626 39.8714C77.0653 40.0831 77.1097 40.2922 77.1931 40.4867C77.2766 40.6813 77.3976 40.8575 77.5491 41.0053C77.7007 41.1531 77.8799 41.2696 78.0765 41.3481C78.2731 41.4267 78.4832 41.4657 78.6949 41.4631C79.3722 41.3073 79.9547 41.1041 80.6049 40.9551C81.2133 40.8119 81.8312 40.7123 82.4539 40.6571C82.7807 40.63 83.1091 40.63 83.4359 40.6571C83.9371 40.6571 84.3909 40.7926 84.8989 40.8738C85.3246 40.8307 85.7158 40.6202 85.9863 40.2887C86.2569 39.9572 86.3846 39.5318 86.3415 39.1061C86.2984 38.6804 86.0879 38.2892 85.7564 38.0187C85.4249 37.7481 84.9995 37.6204 84.5738 37.6635V37.6567Z" fill="#005000"/><path fill-rule="evenodd" clip-rule="evenodd" d="M86.8723 2.15311C85.8766 5.72919 85.0165 9.38656 84.1631 13.0778C83.8312 14.534 83.4858 15.9969 83.1539 17.4598C82.6527 19.6475 82.1719 21.8487 81.7181 24.0431C81.3117 26.0072 80.9257 27.9714 80.5599 29.9355C80.0113 32.9156 79.5033 35.8821 79.1173 38.8419C79.083 39.0595 79.0937 39.2818 79.1487 39.4951C79.2037 39.7084 79.3019 39.9082 79.4371 40.0821C79.5723 40.256 79.7417 40.4004 79.9349 40.5062C80.1281 40.6121 80.3409 40.6772 80.5603 40.6976C80.7796 40.718 81.0009 40.6933 81.2103 40.6249C81.4196 40.5564 81.6128 40.4458 81.7778 40.2998C81.9428 40.1538 82.0761 39.9756 82.1695 39.7761C82.2629 39.5766 82.3144 39.3601 82.3208 39.1399C82.5308 35.496 82.8356 31.8116 83.3706 28.1271C83.7161 25.6889 84.1563 23.2642 84.6643 20.8463C85.1722 18.4284 85.7547 16.0308 86.4252 13.6602C87.4479 10.0706 88.6806 6.5758 89.9403 3.14195C90.0641 2.73713 90.0237 2.29986 89.8278 1.92459C89.6319 1.54932 89.2963 1.26617 88.8934 1.13631C88.4905 1.00645 88.0526 1.04031 87.6745 1.23056C87.2963 1.42081 87.0081 1.75219 86.8723 2.15311V2.15311Z" fill="#005000"/><path fill-rule="evenodd" clip-rule="evenodd" d="M101.317 1.91592C100.424 1.7039 99.493 1.71786 98.6074 1.95656C97.5278 2.25446 96.4984 2.71096 95.5528 3.31114C94.5272 3.93535 93.6118 4.72489 92.8437 5.64779C92.0747 6.58226 91.4928 7.65613 91.1301 8.81072C90.5341 10.7004 90.7034 11.9398 91.2046 12.8067C91.8006 13.8294 92.9182 14.4254 94.266 14.8386C95.4377 15.2043 96.8194 15.4414 97.7472 16.288C98.0736 16.6193 98.3334 17.0102 98.5126 17.4394C98.8478 18.2167 99.1086 19.024 99.2914 19.8505C99.5564 21.1907 99.5725 22.5683 99.3389 23.9143C98.9749 26.0643 98.4173 28.177 97.6728 30.2266C97.1783 31.6421 94.3405 37.968 90.9405 41.7405C90.3127 42.454 89.5903 43.0783 88.7935 43.5963C88.2298 44.0141 87.5237 44.1919 86.8294 44.0907C86.2796 43.9152 85.8033 43.5628 85.4748 43.0883C85.339 42.919 85.1704 42.7789 84.9791 42.6764C84.7878 42.5738 84.5778 42.511 84.3617 42.4915C84.1455 42.4721 83.9277 42.4965 83.7212 42.5633C83.5147 42.6301 83.3238 42.738 83.16 42.8803C82.9962 43.0227 82.8628 43.1966 82.7679 43.3918C82.673 43.587 82.6184 43.7993 82.6075 44.0161C82.5966 44.2328 82.6296 44.4495 82.7045 44.6532C82.7794 44.8569 82.8946 45.0434 83.0433 45.2014C83.5517 45.8372 84.2001 46.3471 84.9378 46.6913C85.6756 47.0355 86.4828 47.2048 87.2967 47.1859C88.7819 47.0338 90.1762 46.3985 91.2656 45.3775C95.5325 41.7337 99.3185 32.7732 99.8807 30.9784C100.636 28.7937 101.203 26.5481 101.574 24.2665C101.842 22.6491 101.812 20.9966 101.486 19.39C101.278 18.4202 100.979 17.4723 100.592 16.5589C100.295 15.8594 99.867 15.2228 99.3321 14.6828C98.4246 13.9074 97.3592 13.3389 96.2098 13.0167C95.3377 12.8061 94.5021 12.4659 93.7309 12.0075C93.1891 11.5944 93.1958 10.9306 93.6564 9.69121C93.9615 8.87688 94.4215 8.12937 95.011 7.49002C95.6099 6.84581 96.3099 6.30361 97.0835 5.88483C97.6849 5.54908 98.3208 5.27889 98.9799 5.07887C99.4576 4.92436 99.9687 4.90559 100.456 5.02468C100.868 5.14143 101.309 5.09001 101.682 4.88171C102.055 4.6734 102.331 4.32528 102.448 3.91393C102.564 3.50259 102.513 3.0617 102.305 2.68827C102.096 2.31484 101.748 2.03946 101.337 1.9227L101.317 1.91592Z" fill="#005000"/><path fill-rule="evenodd" clip-rule="evenodd" d="M116.148 0.784915C115.404 1.32202 114.626 1.81068 113.818 2.24786C113.284 2.51291 112.726 2.7283 112.152 2.89129C111.451 3.09675 110.728 3.22395 109.998 3.27057C109.316 3.2946 108.632 3.22856 107.967 3.07415C107.539 3.05709 107.122 3.21056 106.808 3.50079C106.494 3.79102 106.307 4.19425 106.29 4.62176C106.273 5.04928 106.427 5.46607 106.717 5.78044C107.007 6.0948 107.41 6.28099 107.838 6.29806C108.549 6.21641 109.254 6.08055 109.944 5.89168C110.588 5.71558 111.224 5.52594 111.875 5.31598L113.737 4.7132C114.238 4.55743 114.733 4.40841 115.227 4.27973C116.02 4.06977 116.765 3.90722 117.489 3.71081C117.681 3.62186 117.854 3.49596 117.998 3.34027C118.141 3.18458 118.252 3.00215 118.325 2.80341C118.398 2.60467 118.431 2.39352 118.423 2.18199C118.414 1.97046 118.364 1.76269 118.275 1.57057C118.186 1.37846 118.06 1.20575 117.904 1.0623C117.749 0.91884 117.566 0.807458 117.368 0.734503C117.169 0.661548 116.958 0.628436 116.746 0.637089C116.535 0.645741 116.327 0.695972 116.135 0.784915H116.148Z" fill="#005000"/><path fill-rule="evenodd" clip-rule="evenodd" d="M110.94 3.38603C110.388 7.36944 109.417 11.2833 108.042 15.0625C107.412 16.8573 106.687 18.625 105.962 20.3927C104.858 23.0613 103.714 25.7162 102.617 28.3712C100.72 32.9632 98.9998 37.5688 98.1735 42.3707C98.1283 42.7866 98.2465 43.2038 98.5032 43.5341C98.7598 43.8644 99.1348 44.082 99.549 44.1409C99.9631 44.1999 100.384 44.0955 100.723 43.8498C101.061 43.6042 101.291 43.2365 101.364 42.8246C101.836 38.8373 102.757 34.9159 104.107 31.1345C104.879 28.8995 105.759 26.678 106.667 24.47C107.574 22.262 108.529 20.027 109.437 17.8123C109.997 16.4577 110.541 15.1031 111.069 13.7485C112.36 10.5551 113.38 7.25863 114.117 3.89399C114.163 3.68068 114.165 3.46021 114.124 3.24595C114.082 3.03169 113.998 2.82809 113.875 2.64751C113.753 2.46694 113.595 2.31312 113.411 2.19542C113.227 2.07771 113.021 1.99857 112.806 1.96276C112.591 1.92696 112.37 1.93523 112.158 1.98711C111.946 2.03899 111.747 2.13339 111.573 2.26458C111.398 2.39576 111.252 2.56098 111.144 2.75026C111.035 2.93954 110.966 3.14893 110.94 3.36571V3.38603Z" fill="#005000"/><path fill-rule="evenodd" clip-rule="evenodd" d="M123.856 0.906984C124.332 0.651624 124.855 0.496974 125.394 0.452696C125.932 0.408417 126.474 0.475456 126.985 0.649611C127.798 0.986845 128.453 1.61808 128.821 2.41733C129.355 3.68104 129.625 5.04114 129.613 6.41335C129.6 9.2049 129.328 11.9892 128.8 14.7305C127.747 20.6299 125.736 26.3173 122.847 31.5678C120.7 35.3403 118.025 38.6184 114.794 40.6164C112.864 41.8152 111.489 41.7949 110.601 41.2937C110.165 40.9965 109.8 40.6059 109.533 40.1503C109.266 39.6946 109.103 39.1852 109.057 38.6591C108.434 35.0152 110.412 27.7547 111.089 25.6754C111.394 24.6459 111.766 23.6436 112.146 22.6412C113.033 20.3994 114.062 18.2185 114.916 15.9563C115.674 13.9245 116.541 11.9739 117.483 10.0504C118.871 7.18545 120.422 4.40857 122.021 1.62491C122.205 1.3199 122.485 1.0842 122.816 0.9544C123.148 0.824594 123.514 0.807937 123.856 0.906984V0.906984ZM123.944 4.58466C122.589 6.81294 121.235 9.04122 120.009 11.3575C119.041 13.1659 118.146 15.0149 117.354 16.9316C116.426 19.1802 115.322 21.3408 114.367 23.5691C113.981 24.4902 113.615 25.4248 113.304 26.3798C112.782 28.0188 111.272 33.112 111.157 36.7017C111.102 37.4366 111.18 38.1753 111.387 38.8826C111.475 39.1332 111.563 39.3499 111.773 39.4041C112.213 39.526 112.789 39.2618 113.622 38.7268C116.541 36.8913 118.939 33.8842 120.835 30.43C123.491 25.3806 125.286 19.9235 126.145 14.2834C126.335 13.0101 127.1 8.03206 126.477 4.94362C126.442 4.42496 126.238 3.9322 125.895 3.54163C125.793 3.46713 125.664 3.54164 125.495 3.63646C125.038 3.82433 124.613 4.08257 124.235 4.4018C124.138 4.47278 124.033 4.53402 123.924 4.58466H123.944Z" fill="#005000"/><path fill-rule="evenodd" clip-rule="evenodd" d="M132.512 4.09036C132.428 3.89218 132.384 3.67913 132.384 3.46388C132.384 3.24862 132.428 3.03555 132.512 2.83737C132.637 2.52522 132.848 2.2551 133.121 2.05849C133.313 1.91727 133.535 1.82188 133.77 1.77962C134.005 1.73736 134.246 1.74936 134.476 1.81468C134.701 1.8693 134.911 1.97455 135.089 2.12242C135.267 2.2703 135.41 2.4569 135.505 2.66805C135.647 2.99909 135.709 3.35848 135.688 3.71786C135.569 5.24659 135.37 6.76805 135.092 8.27602C134.571 10.423 133.981 12.5429 133.453 14.6832C133.229 15.5907 133.02 16.5051 132.823 17.3923C132.295 20.027 131.604 22.7294 130.954 25.4792C130.304 28.2289 129.708 30.8229 129.227 33.5118C128.552 37.0292 128.225 40.6044 128.251 44.1858C128.245 44.6134 128.069 45.0209 127.763 45.3187C127.456 45.6166 127.043 45.7804 126.616 45.7741C126.188 45.7678 125.781 45.5919 125.483 45.2852C125.185 44.9785 125.021 44.566 125.028 44.1385C125.204 41.3275 125.592 38.5338 126.186 35.7807C126.822 32.6381 127.642 29.4751 128.441 26.2987C129.24 23.1222 129.992 19.9931 130.595 16.9656L132.315 7.68676C132.39 7.26007 132.512 5.19434 132.512 4.09036ZM135.295 4.39515C135.376 4.29697 135.438 4.1844 135.478 4.06328C135.432 4.1815 135.371 4.29309 135.295 4.39515V4.39515Z" fill="#005000"/><path fill-rule="evenodd" clip-rule="evenodd" d="M6.75271 58.0296C6.02953 56.3887 5.44726 54.6894 5.01211 52.9499C4.07745 48.9607 4.71407 45.8113 7.93796 44.7751C10.2407 44.0233 11.636 44.8225 12.4284 46.1635C13.3834 47.7822 13.2953 50.5455 12.6181 52.4013C11.7979 54.4152 10.7382 56.3231 9.46186 58.0838C10.4643 60.163 11.6157 62.2152 12.6587 64.0032L14.0133 62.0594C14.2603 61.7101 14.6359 61.4731 15.0576 61.4007C15.4793 61.3283 15.9125 61.4264 16.2619 61.6734C16.6112 61.9204 16.8482 62.2961 16.9206 62.7177C16.993 63.1394 16.8949 63.5726 16.6479 63.922L14.379 66.9359C14.8531 67.7487 15.2256 68.4124 15.4559 68.8797C16.0722 70.1666 16.614 71.8124 17.4336 73.1805C17.8023 73.8813 18.364 74.4619 19.0523 74.8534C19.4099 75.0642 19.6725 75.4048 19.7852 75.8043C19.898 76.2038 19.8522 76.6314 19.6576 76.9981C19.4629 77.3647 19.1343 77.6421 18.7402 77.7725C18.3461 77.9029 17.9169 77.8762 17.542 77.698C16.6136 77.1736 15.8258 76.4323 15.2459 75.5375C14.142 73.9052 13.5391 71.7447 12.8145 70.1192C12.7332 69.9228 12.6248 69.6993 12.4961 69.4419C11.7613 70.5692 10.9701 71.6588 10.1256 72.7064C9.45066 73.5095 8.62452 74.1723 7.69415 74.657C6.86363 75.0488 5.9499 75.2313 5.03262 75.1888C4.11533 75.1463 3.22234 74.88 2.4316 74.4132C1.58354 73.9638 0.898693 73.2586 0.474352 72.3978C0.0500105 71.537 -0.0922285 70.5643 0.0678708 69.618C0.373312 68.1262 0.924962 66.6956 1.70016 65.3849C3.24993 62.8435 4.93658 60.3881 6.75271 58.0296V58.0296ZM7.82284 60.4204C6.36086 62.3669 5.02175 64.4027 3.8133 66.516C3.19699 67.5921 2.76652 68.7645 2.53999 69.9837C2.48991 70.416 2.57669 70.853 2.7881 71.2333C2.99952 71.6136 3.32492 71.918 3.71847 72.1036C4.13054 72.3342 4.5926 72.4609 5.06465 72.4727C5.53671 72.4845 6.00454 72.3811 6.42762 72.1713C7.02008 71.8249 7.53802 71.3645 7.95152 70.8168C8.69736 69.8183 9.38918 68.7805 10.024 67.708L10.9248 66.4212C9.99017 64.728 8.85909 62.6148 7.82284 60.4204V60.4204ZM8.37822 55.6794C9.24135 54.4069 9.96351 53.0443 10.532 51.6157C10.9737 50.4096 11.0538 49.1008 10.7623 47.8499C10.7238 47.6324 10.6384 47.4258 10.5121 47.2445C10.3858 47.0633 10.2215 46.9116 10.0308 46.8001C9.57163 46.6453 9.07093 46.6695 8.62881 46.8679C6.53599 47.5451 6.59694 49.787 7.27423 52.3742C7.56743 53.4973 7.93627 54.5993 8.37822 55.6726V55.6794Z" fill="#005000"/><path fill-rule="evenodd" clip-rule="evenodd" d="M27.1411 70.7759L27.2698 70.7285C27.6894 70.4484 28.0678 70.111 28.3941 69.7262C28.5466 69.579 28.7267 69.4632 28.9239 69.3856C29.1212 69.308 29.3318 69.27 29.5438 69.2737C29.7557 69.2775 29.9648 69.323 30.1592 69.4076C30.3536 69.4922 30.5294 69.6143 30.6766 69.7668C30.8238 69.9193 30.9395 70.0994 31.0171 70.2966C31.0947 70.4939 31.1327 70.7045 31.129 70.9165C31.1252 71.1284 31.0797 71.3375 30.9951 71.5319C30.9105 71.7263 30.7885 71.9021 30.6359 72.0493C28.6041 73.8305 27.0463 74.0811 26.0372 73.6138C25.6427 73.4319 25.2892 73.1718 24.9982 72.8494C24.7071 72.5269 24.4846 72.1487 24.3439 71.7377C23.7344 70.1393 23.6666 67.2744 23.9646 64.1385C24.1001 62.5808 24.283 60.9485 24.4862 59.3975C24.669 57.9887 24.8587 56.6477 25.028 55.476C25.3125 53.4441 25.536 51.9473 25.6172 51.5206C25.7866 50.5927 25.9085 49.7258 25.9897 48.8115C26.071 47.8971 26.0981 47.0844 26.0981 46.143C26.1024 45.9266 26.1502 45.7133 26.2387 45.5158C26.3272 45.3183 26.4545 45.1407 26.6132 44.9935C26.7718 44.8462 26.9584 44.7324 27.162 44.6589C27.3655 44.5854 27.5817 44.5536 27.7978 44.5654C28.0139 44.5772 28.2254 44.6325 28.4197 44.7278C28.614 44.8231 28.7871 44.9565 28.9287 45.1202C29.0703 45.2839 29.1775 45.4743 29.2439 45.6803C29.3103 45.8863 29.3346 46.1035 29.3152 46.3191C29.2001 47.3485 29.0579 48.2967 28.8682 49.2382C28.6786 50.1796 28.4551 51.1007 28.1909 52.0828C28.0826 52.4688 27.7371 53.7828 27.3782 55.5844C27.1682 56.6477 26.9515 57.8736 26.7686 59.1672C26.4244 61.5452 26.2433 63.9438 26.2268 66.3465C26.2237 67.4429 26.3326 68.5368 26.5519 69.611C26.6264 70.1325 27.087 70.505 27.1411 70.7759Z" fill="#005000"/><path fill-rule="evenodd" clip-rule="evenodd" d="M34.6704 53.8978C33.4648 54.3448 32.2457 54.8325 30.9589 55.2524C30.3696 55.442 29.7736 55.6114 29.1776 55.7739C28.2768 56.0177 27.376 56.2683 26.4684 56.4986C24.9085 56.8697 23.3689 57.3218 21.8561 57.8532C21.6606 57.9425 21.485 58.07 21.3395 58.2282C21.194 58.3864 21.0817 58.572 21.009 58.7743C20.9363 58.9765 20.9048 59.1913 20.9164 59.4059C20.9279 59.6205 20.9823 59.8306 21.0762 60.0239C21.1701 60.2172 21.3018 60.3898 21.4634 60.5314C21.625 60.6731 21.8133 60.781 22.0172 60.8489C22.2211 60.9167 22.4365 60.9431 22.6508 60.9264C22.865 60.9098 23.0738 60.8505 23.2648 60.752C25.0426 59.5877 26.9889 58.7037 29.0353 58.1309C29.8619 57.8884 30.7007 57.6894 31.5481 57.5348C32.9027 57.2978 34.1827 57.203 35.4628 57.0404C35.6756 56.9973 35.8775 56.9117 36.0564 56.7886C36.2353 56.6656 36.3874 56.5077 36.5038 56.3244C36.6201 56.1411 36.6982 55.9361 36.7334 55.7219C36.7686 55.5076 36.7602 55.2885 36.7086 55.0776C36.657 54.8667 36.5634 54.6684 36.4333 54.4946C36.3032 54.3208 36.1392 54.175 35.9514 54.0661C35.7636 53.9572 35.5557 53.8874 35.3402 53.8608C35.1248 53.8342 34.9061 53.8514 34.6975 53.9114L34.6704 53.8978Z" fill="#005000"/><path fill-rule="evenodd" clip-rule="evenodd" d="M36.0251 63.4004C36.0251 63.0618 36.0996 62.7231 36.147 62.398C36.6956 58.6323 37.6912 54.9005 38.4362 51.155C38.7478 49.5905 39.0119 48.0328 39.1745 46.4682C39.1998 46.2579 39.2664 46.0546 39.3703 45.8699C39.4742 45.6853 39.6134 45.5229 39.7801 45.3921C39.9468 45.2613 40.1376 45.1646 40.3416 45.1075C40.5456 45.0504 40.7589 45.0341 40.9693 45.0594C41.1796 45.0848 41.3829 45.1513 41.5676 45.2552C41.7522 45.3591 41.9146 45.4984 42.0454 45.6651C42.1762 45.8318 42.2729 46.0226 42.33 46.2266C42.3871 46.4306 42.4034 46.6439 42.3781 46.8542C42.1478 48.5068 41.8159 50.1527 41.4366 51.7985C41.1251 53.1531 40.7593 54.5076 40.441 55.808C40.6482 55.6264 40.8925 55.4924 41.1569 55.4151C41.4213 55.3379 41.6994 55.3194 41.9717 55.361C43.2314 55.6454 44.0035 56.9459 44.2541 58.9371C44.525 61.4905 44.0035 65.3375 44.2541 67.7418C44.2861 68.0467 44.345 68.3482 44.4302 68.6426C44.4912 68.8255 44.5115 68.9948 44.6334 69.0626C44.7553 69.1303 44.8502 69.0626 45.0127 68.9745C46.3029 68.4349 47.4589 67.6188 48.3992 66.5837C48.2873 66.1901 48.2013 65.7897 48.1418 65.3849C47.6868 62.0128 48.248 58.5816 49.7537 55.5303C50.8103 53.6136 52.2935 52.5096 53.8784 52.5841C54.327 52.6212 54.7496 52.8096 55.077 53.1185C55.4044 53.4274 55.617 53.8384 55.68 54.2841C56.0661 55.8283 55.6055 58.8287 55.382 59.4315C54.4012 62.0343 53.031 64.4733 51.3183 66.6649C51.4367 66.973 51.6184 67.2527 51.8517 67.4861C52.085 67.7194 52.3648 67.9011 52.6729 68.0195C53.4847 68.1794 54.3271 68.0322 55.0366 67.6064C55.6124 67.3282 56.1651 67.0043 56.6892 66.6379C57.2289 66.2621 57.7425 65.8503 58.2266 65.4052C58.7962 64.8861 59.3281 64.3271 59.8182 63.7323C60.3081 63.1402 60.7605 62.5182 61.1728 61.8698C61.2889 61.6919 61.4388 61.5386 61.6141 61.4186C61.7895 61.2987 61.9867 61.2145 62.1945 61.1708C62.4024 61.1271 62.6168 61.1247 62.8256 61.1639C63.0344 61.2031 63.2334 61.283 63.4113 61.399C63.5891 61.5151 63.7424 61.6651 63.8623 61.8404C63.9823 62.0157 64.0665 62.2129 64.1102 62.4208C64.1539 62.6286 64.1563 62.8431 64.1171 63.0518C64.0779 63.2606 63.998 63.4596 63.882 63.6375C63.3685 64.3886 62.8098 65.1079 62.209 65.7912C61.6057 66.476 60.9563 67.1187 60.2652 67.7148C59.667 68.2295 59.0358 68.7046 58.3756 69.1371C57.7051 69.5819 56.9982 69.9693 56.2625 70.2952C53.7971 71.3789 51.9481 71.0944 50.6206 70.1326C50.1138 69.7643 49.6797 69.305 49.3406 68.7781C48.3072 69.7578 47.0955 70.5303 45.7713 71.0538C45.4415 71.1943 45.0867 71.2666 44.7282 71.2666C44.3698 71.2666 44.015 71.1943 43.6852 71.0538C43.2583 70.8094 42.8956 70.467 42.6271 70.0548C42.3586 69.6426 42.192 69.1725 42.141 68.6833C41.7007 66.455 42.2155 62.5199 42.0462 59.6956C42.0252 59.1527 41.9411 58.614 41.7956 58.0905C41.7615 57.9455 41.7115 57.8046 41.6466 57.6706C41.5518 57.7722 41.4298 57.8941 41.3418 58.0092C40.324 59.4364 39.4762 60.9775 38.8155 62.6012V62.7773L38.2263 68.3311C38.2171 68.6862 38.233 69.0415 38.2737 69.3944C38.2945 69.7102 38.2694 70.0273 38.1992 70.3359C38.1014 70.7227 37.859 71.0572 37.5219 71.2705C37.3343 71.3923 37.1209 71.4685 36.8987 71.4932C36.6764 71.5179 36.4515 71.4903 36.2418 71.4127C35.8216 71.2682 35.4533 71.0028 35.1834 70.6498C34.9135 70.2967 34.7539 69.8717 34.7247 69.4283C34.5418 68.1888 34.982 66.1028 35.788 63.9151C35.8761 63.7797 35.9506 63.5901 36.0251 63.4004ZM53.3772 55.1172C52.7431 55.4917 52.2539 56.0691 51.9888 56.7562C50.9772 58.9233 50.5366 61.313 50.7087 63.6984C51.7275 62.1174 52.5658 60.4272 53.2079 58.6594C53.4053 57.8068 53.5008 56.9337 53.4923 56.0586C53.4793 55.7422 53.4408 55.4274 53.3772 55.1172V55.1172Z" fill="#005000"/><path fill-rule="evenodd" clip-rule="evenodd" d="M83.2955 55.8421C83.2007 52.7943 82.178 51.3516 81.0944 50.8301C80.5158 50.5436 79.8618 50.4465 79.225 50.5525C78.2181 50.7566 77.2833 51.224 76.5159 51.907C74.9842 53.2423 73.8186 54.9464 73.1294 56.858C72.3895 59.0594 71.7723 61.3002 71.2804 63.57C70.786 65.805 70.3796 68.0807 70.0478 70.3767C69.4174 74.9223 69.0286 79.4982 68.8829 84.085C68.8773 86.7792 69.3995 89.4483 70.4203 91.9416C70.8816 93.1645 71.624 94.262 72.5876 95.1452C74.4231 96.6284 77.2135 96.4997 79.6382 90.675C79.7927 90.2763 79.7824 89.8325 79.6097 89.4412C79.4369 89.05 79.1158 88.7434 78.7171 88.589C78.3183 88.4345 77.8745 88.4448 77.4833 88.6175C77.0921 88.7902 76.7855 89.1113 76.631 89.5101C76.3594 90.3164 76.0148 91.0963 75.6016 91.84C75.4076 92.1976 75.161 92.5241 74.8701 92.8085C74.7617 92.8966 74.694 93.0117 74.5924 92.9981C74.4943 92.989 74.4017 92.9486 74.3282 92.883C73.694 92.3289 73.1996 91.6326 72.8856 90.8511C71.9157 88.7479 71.3702 86.4739 71.2804 84.1595C71.3277 78.7564 71.7919 73.365 72.6689 68.0333C73.2943 64.5176 74.242 61.0669 75.4999 57.725C76.1877 56.0341 77.4012 54.6094 78.9609 53.6612C79.1935 53.4976 79.4772 53.4231 79.7601 53.4513C79.7601 53.4513 79.7601 53.4987 79.7601 53.519C79.8086 53.6032 79.8494 53.6916 79.882 53.7831C80.0738 54.4422 80.1427 55.131 80.0852 55.815C80.0852 56.2425 80.255 56.6525 80.5573 56.9548C80.8596 57.2571 81.2696 57.4269 81.6971 57.4269C82.1247 57.4269 82.5347 57.2571 82.837 56.9548C83.1393 56.6525 83.3091 56.2425 83.3091 55.815L83.2955 55.8421Z" fill="#005000"/><path fill-rule="evenodd" clip-rule="evenodd" d="M92.4794 52.9294C92.8294 52.8607 93.1896 52.8632 93.5386 52.9365C93.8877 53.0097 94.2184 53.1525 94.5113 53.3561C95.1128 53.7893 95.5516 54.4117 95.7575 55.1238C96.3196 56.8983 95.981 59.9935 95.7981 61.2194C95.4188 64.0301 94.0101 73.3564 91.8021 79.6891C91.2184 81.6213 90.3016 83.4366 89.0929 85.0532C88.7525 85.5152 88.3073 85.8899 87.794 86.1465C87.2807 86.4032 86.7139 86.5345 86.14 86.5297C85.5523 86.4844 84.9907 86.2678 84.5248 85.9067C84.059 85.5455 83.7092 85.0557 83.5189 84.4978C82.9364 83.1906 82.7332 81.1113 82.8077 78.7679C82.9182 76.3574 83.1715 73.9556 83.5663 71.5751C84.0887 67.9792 84.8512 64.4222 85.8487 60.9282C86.2958 59.7226 86.7292 58.4086 87.2507 57.1624C87.6203 56.2617 88.0738 55.3977 88.6053 54.582C89.0027 53.9447 89.456 53.344 89.9599 52.7871C90.2644 52.5141 90.6496 52.3477 91.0571 52.313C91.3068 52.2868 91.5592 52.3191 91.7943 52.4073C92.0294 52.4954 92.2408 52.6371 92.4117 52.821L92.4794 52.9294ZM91.6463 55.9433C91.4712 56.0878 91.306 56.2439 91.1519 56.4107C90.6941 57.0493 90.2972 57.7296 89.9667 58.4425C89.4045 59.621 88.9236 60.8672 88.436 62.0118C86.9139 66.7002 85.8479 71.5245 85.2527 76.4178C84.9683 79.0389 84.9208 81.4568 85.3679 83.0552C85.5575 83.7325 85.7539 84.2811 86.289 84.3149C86.8241 84.3488 87.3252 83.7934 87.8129 83.062C88.9876 81.0031 89.8461 78.7793 90.3595 76.4652C91.5795 71.3381 92.4462 66.1333 92.9535 60.8875C93.0821 59.7295 93.1161 58.563 93.0551 57.3995C93.0035 56.9782 92.9104 56.5631 92.7774 56.1601C92.3866 56.2283 91.9843 56.1512 91.6463 55.9433V55.9433ZM89.8312 54.7851C89.7475 54.5973 89.7014 54.3948 89.6957 54.1891C89.691 54.3959 89.7375 54.6007 89.8312 54.7851V54.7851Z" fill="#005000"/><path fill-rule="evenodd" clip-rule="evenodd" d="M93.7498 88.6429C94.0749 86.611 94.2985 84.6401 94.3526 84.4166C94.8403 82.2154 95.7749 78.4836 96.7164 74.2573C97.4343 70.9995 98.1658 67.437 98.7482 64.0438C99.7642 58.2665 100.421 52.9972 99.9945 50.7486C99.9607 50.5396 99.9684 50.3259 100.017 50.1199C100.066 49.9139 100.155 49.7195 100.279 49.5478C100.403 49.3761 100.559 49.2304 100.739 49.1192C100.919 49.008 101.12 48.9334 101.329 48.8996C101.538 48.8658 101.751 48.8735 101.957 48.9222C102.163 48.971 102.358 49.0599 102.53 49.1838C102.701 49.3077 102.847 49.4642 102.958 49.6443C103.069 49.8245 103.144 50.0248 103.178 50.2339C103.442 52.2251 102.88 56.3295 101.918 61.0705C101.308 64.098 100.563 67.4167 99.8048 70.6473C98.4502 76.4855 97.1837 82.0258 96.5403 84.911C96.5064 85.0871 96.3845 86.2656 96.1948 87.7624C98.545 87.2748 101.417 87.4983 103.537 86.7058C103.939 86.574 104.377 86.6057 104.756 86.7941C105.135 86.9824 105.425 87.3124 105.563 87.7126C105.701 88.1129 105.676 88.5513 105.493 88.9332C105.31 89.3151 104.985 89.6098 104.586 89.7536C102.467 90.4309 99.7303 90.2074 97.3327 90.4648C96.8056 90.5136 96.2841 90.6111 95.7749 90.756C95.6294 91.8193 95.403 92.8699 95.0976 93.8987C94.9619 94.3388 94.7306 94.7435 94.4204 95.0839C94.2842 95.2267 94.1202 95.3401 93.9384 95.417C93.7567 95.4939 93.5611 95.5326 93.3638 95.5309C92.762 95.5633 92.1713 95.3591 91.718 94.962C91.4763 94.7353 91.2896 94.4563 91.1722 94.1464C91.0548 93.8365 91.0098 93.5039 91.0407 93.1739C91.2126 92.0042 91.6787 90.8972 92.3953 89.9568C92.7178 89.4756 93.1238 89.0558 93.5941 88.7174L93.7498 88.6429Z" fill="#005000"/><path fill-rule="evenodd" clip-rule="evenodd" d="M115.051 53.668C115.692 53.3822 116.414 53.3413 117.083 53.5528C117.514 53.7131 117.904 53.967 118.225 54.2961C118.545 54.6252 118.789 55.0213 118.939 55.456C119.718 57.4202 119.474 61.2401 119.433 62.5608C119.263 66.0207 118.552 69.4326 117.327 72.6727C116.006 76.2352 114.11 79.5201 111.76 81.4774C111.032 82.1786 110.061 82.5717 109.05 82.5747C108.517 82.5308 108.002 82.3582 107.551 82.0715C107.099 81.7848 106.723 81.3927 106.456 80.9288C105.224 79.0866 104.75 75.7408 104.932 73.9799C105.303 69.5356 106.212 65.1529 107.642 60.9285C108.613 57.9475 110.232 55.2183 112.383 52.9365C112.537 52.7922 112.719 52.68 112.918 52.6063C113.116 52.5326 113.327 52.4989 113.539 52.5071C113.75 52.5152 113.958 52.5652 114.15 52.654C114.342 52.7428 114.515 52.8688 114.658 53.0246C114.842 53.2024 114.977 53.4237 115.051 53.668V53.668ZM113.852 56.0385C112.293 57.7639 111.065 59.7612 110.229 61.9309C108.714 65.8907 107.704 70.0253 107.222 74.2373C107.066 75.5918 107.377 78.2603 108.346 79.7097C108.576 80.0619 108.82 80.387 109.179 80.387C109.613 80.3328 110.014 80.1264 110.31 79.8046C112.342 78.0233 113.981 75.0635 115.051 71.8803C116.085 68.8764 116.623 65.7241 116.643 62.5473C116.673 61.107 116.617 59.6663 116.473 58.2329C116.421 57.8225 116.335 57.417 116.216 57.0206C116.182 56.9177 116.139 56.818 116.087 56.7225V56.7225C115.905 56.8311 115.704 56.9026 115.494 56.9327C115.284 56.9629 115.07 56.9511 114.865 56.8982C114.66 56.8453 114.467 56.7523 114.298 56.6245C114.129 56.4967 113.986 56.3367 113.879 56.1536L113.852 56.0385Z" fill="#005000"/><path fill-rule="evenodd" clip-rule="evenodd" d="M124.259 52.9972C124.371 55.4329 124.187 57.8732 123.711 60.2645C123.453 61.7816 123.142 63.3868 122.763 65.0394C122.227 67.3692 121.584 69.7804 120.941 72.1712C120.46 73.9999 119.972 75.8015 119.498 77.5354C117.933 83.3059 116.85 88.372 117.405 90.9253C117.524 91.3244 117.792 91.6621 118.154 91.8678C118.516 92.0735 118.943 92.1311 119.347 92.0287C119.75 91.9263 120.099 91.6718 120.319 91.3184C120.539 90.965 120.614 90.5402 120.527 90.1329C120.094 88.6632 120.29 86.1775 120.785 83.1704C121.164 80.8947 121.713 78.3548 122.356 75.7202C122.945 73.2752 123.609 70.7489 124.273 68.27C124.821 66.2043 125.37 64.2063 125.851 62.2896C126.813 58.5171 127.504 55.1848 127.476 52.8075C127.439 52.3923 127.242 52.0078 126.927 51.7348C126.611 51.4619 126.203 51.3216 125.786 51.3435C125.37 51.3655 124.978 51.5478 124.694 51.8524C124.409 52.1569 124.253 52.56 124.259 52.9769V52.9972Z" fill="#005000"/><path fill-rule="evenodd" clip-rule="evenodd" d="M131.725 82.1751C132.149 80.4262 132.479 78.6559 132.714 76.8719C133.872 68.5819 134.021 58.0636 135.071 52.415C135.116 52.2078 135.2 52.0113 135.321 51.8369C135.441 51.6625 135.595 51.5134 135.773 51.3983C135.951 51.2833 136.15 51.2043 136.358 51.1661C136.567 51.1279 136.781 51.1311 136.988 51.1756C137.195 51.22 137.392 51.3049 137.566 51.4253C137.74 51.5457 137.889 51.6993 138.005 51.8773C138.12 52.0552 138.199 52.2542 138.237 52.4626C138.275 52.6711 138.272 52.8851 138.227 53.0923C136.988 58.6596 136.372 69.0628 135.03 77.258C134.299 81.7078 133.351 85.5277 131.942 87.7085C131.788 87.9573 131.547 88.1387 131.265 88.2165C131.12 88.2582 130.968 88.2695 130.819 88.2497C130.67 88.2298 130.527 88.1794 130.398 88.1014C130.221 87.9843 130.072 87.8295 129.962 87.648C129.852 87.4664 129.783 87.2628 129.761 87.0516C129.624 85.8577 129.557 84.6569 129.558 83.4552C129.558 82.297 129.47 81.1389 129.362 79.9875C129.253 78.8361 129.097 77.705 128.881 76.601C127.763 71.1421 127.452 65.4935 126.72 59.9533C126.422 57.6384 125.999 55.3413 125.454 53.072C125.382 52.6617 125.472 52.2396 125.705 51.8942C125.938 51.5488 126.296 51.307 126.703 51.2195C127.11 51.1319 127.535 51.2053 127.89 51.4244C128.244 51.6435 128.499 51.9913 128.603 52.3947C128.915 53.9999 129.145 55.6118 129.334 57.2441C130.059 63.5158 130.073 69.9704 131.116 76.2082C131.332 77.407 131.481 78.6193 131.583 79.8317C131.651 80.5564 131.698 81.3624 131.725 82.1751Z" fill="#005000"/><path fill-rule="evenodd" clip-rule="evenodd" d="M145.368 64.9042C145.812 64.2968 146.199 63.6508 146.527 62.974C147.089 61.8835 147.698 60.5763 148.348 59.2014C149.913 55.8895 151.782 52.3269 154.085 50.4983C154.256 50.3737 154.45 50.2842 154.656 50.2346C154.862 50.1851 155.076 50.1767 155.285 50.2097C155.494 50.2427 155.694 50.3165 155.875 50.4271C156.056 50.5376 156.213 50.6826 156.337 50.8539C156.462 51.0251 156.551 51.2191 156.601 51.4249C156.65 51.6308 156.659 51.8444 156.626 52.0535C156.593 52.2626 156.519 52.4632 156.408 52.6437C156.298 52.8243 156.153 52.9813 155.982 53.1058C153.95 54.4604 152.135 57.2847 150.651 59.9871C149.439 62.1815 148.443 64.3082 147.576 65.6221C147.179 66.3235 146.598 66.9039 145.897 67.3018C144.969 67.7014 143.784 67.444 143.005 65.1887C142.471 63.437 142.09 61.6422 141.867 59.8245C141.657 58.5648 141.474 57.3457 141.19 56.1536C140.994 55.4106 140.736 54.6856 140.417 53.9863C140.336 53.7886 140.295 53.5767 140.297 53.363C140.298 53.1493 140.342 52.938 140.426 52.7415C140.51 52.5449 140.633 52.367 140.786 52.2181C140.939 52.0693 141.121 51.9523 141.32 51.8742C141.518 51.7961 141.731 51.7583 141.945 51.763C142.158 51.7678 142.369 51.8149 142.564 51.9018C142.759 51.9887 142.935 52.1135 143.082 52.2691C143.229 52.4246 143.343 52.6078 143.418 52.8078C143.721 53.7082 143.948 54.6326 144.095 55.5711C144.285 56.8648 144.366 58.1787 144.454 59.5333C144.543 61.2073 144.788 62.8693 145.186 64.4979C145.227 64.6412 145.289 64.778 145.368 64.9042V64.9042Z" fill="#005000"/><path fill-rule="evenodd" clip-rule="evenodd" d="M146.566 68.1414C146.166 70.0716 145.523 74.0202 145.313 74.9143C144.636 77.8605 144.385 83.5023 143.362 87.9385C142.814 90.2955 142.049 92.3341 140.924 93.5871C140.101 94.4385 139.042 95.0236 137.883 95.2668C135.682 95.8222 132.912 95.6122 131.198 95.9441C125.733 97.1022 119.684 97.6373 113.968 98.7751C111.581 99.2259 109.227 99.8415 106.924 100.617C106.72 100.691 106.504 100.724 106.287 100.712C106.07 100.7 105.858 100.645 105.664 100.549C105.469 100.454 105.295 100.32 105.154 100.156C105.012 99.9916 104.905 99.8004 104.838 99.5938C104.772 99.3872 104.749 99.1693 104.769 98.9533C104.789 98.7373 104.852 98.5275 104.955 98.3366C105.058 98.1457 105.199 97.9775 105.368 97.8422C105.538 97.7069 105.733 97.6073 105.942 97.5492C108.409 96.8567 110.918 96.3228 113.453 95.9508C119.237 95.0501 125.252 94.6708 130.745 93.6955C132.221 93.4178 134.483 93.56 136.495 93.2552C137.52 93.1951 138.494 92.7838 139.251 92.0903C140.159 91.0608 140.728 89.3811 141.127 87.4305C142.049 82.974 142.049 77.3186 142.59 74.3453C142.766 73.3362 143.268 68.3378 143.586 66.8206C143.636 66.5406 143.721 66.2677 143.837 66.0079C144 65.6729 144.279 65.4083 144.622 65.2629C144.824 65.1726 145.042 65.126 145.262 65.126C145.483 65.126 145.701 65.1726 145.902 65.2629C146.238 65.4327 146.515 65.6987 146.698 66.0269C146.882 66.355 146.963 66.7305 146.932 67.1051C146.937 67.4831 146.808 67.8506 146.566 68.1414V68.1414Z" fill="#005000"/><path fill-rule="evenodd" clip-rule="evenodd" d="M132.505 4.80822C133.648 5.46534 134.923 5.8609 136.237 5.9664C137.241 5.99035 138.241 6.10596 139.224 6.3118C139.74 6.48834 140.209 6.78107 140.594 7.16741C140.979 7.55374 141.27 8.02337 141.445 8.54009C142.407 10.809 142.448 15.462 141.54 20.203C141.054 22.8426 140.235 25.4098 139.102 27.8428C137.07 32.0217 134.198 35.083 130.297 33.4711C130.096 33.3658 129.875 33.3042 129.649 33.2902C129.422 33.2763 129.195 33.3103 128.983 33.3901C128.77 33.4699 128.577 33.5936 128.416 33.7532C128.254 33.9129 128.129 34.1047 128.047 34.3163C127.964 34.5279 127.928 34.7545 127.94 34.9811C127.951 35.2078 128.01 35.4295 128.114 35.6316C128.217 35.8338 128.361 36.0119 128.538 36.1543C128.715 36.2967 128.92 36.4002 129.139 36.4579C134.639 38.3476 138.777 34.6563 141.33 28.8113C142.434 26.1667 143.247 23.4097 143.755 20.5891C144.757 15.2994 144.784 10.1249 143.755 7.57157C143.328 6.27917 142.509 5.15211 141.411 4.34767C140.363 3.69168 139.175 3.29253 137.944 3.18273C136.647 3.11441 135.387 2.73081 134.273 2.06521C133.915 1.86877 133.495 1.81572 133.099 1.91681C132.703 2.01789 132.36 2.26558 132.14 2.60974C131.92 2.9539 131.839 3.36886 131.913 3.77071C131.987 4.17256 132.211 4.53129 132.539 4.77437L132.505 4.80822Z" fill="#005000"/><path fill-rule="evenodd" clip-rule="evenodd" d="M133.339 36.9253C133.691 37.0133 134.016 37.0065 134.206 37.2029C134.309 37.2816 134.401 37.3752 134.477 37.4806C134.594 37.6925 134.679 37.9208 134.727 38.1579C134.805 38.7469 134.805 39.3435 134.727 39.9324C134.544 41.0517 134.507 42.1902 134.619 43.3189C134.678 43.5278 134.779 43.7226 134.915 43.8916C135.052 44.0606 135.221 44.2003 135.413 44.3024C135.604 44.4044 135.815 44.4666 136.031 44.4854C136.247 44.5041 136.465 44.4789 136.672 44.4113C136.878 44.3438 137.068 44.2352 137.232 44.0921C137.395 43.9491 137.528 43.7745 137.622 43.5788C137.716 43.3832 137.77 43.1705 137.78 42.9536C137.79 42.7367 137.756 42.52 137.68 42.3165C137.528 42.0838 137.409 41.8307 137.328 41.5647C137.191 41.0527 137.102 40.5288 137.064 40.0001C137.017 39.377 137.003 38.7607 136.949 38.1647C136.902 37.6947 136.823 37.2285 136.712 36.7695C136.616 36.4374 136.494 36.1135 136.346 35.801C135.955 35.047 135.364 34.4146 134.639 33.9723C134.446 33.8833 134.238 33.8333 134.025 33.825C133.813 33.8167 133.601 33.8503 133.402 33.9238C133.202 33.9974 133.019 34.1096 132.863 34.2538C132.707 34.3981 132.581 34.5717 132.492 34.7647C132.403 34.9577 132.353 35.1664 132.345 35.3787C132.337 35.5911 132.37 35.803 132.444 36.0023C132.517 36.2017 132.63 36.3846 132.774 36.5407C132.918 36.6967 133.092 36.8228 133.285 36.9117L133.339 36.9253Z" fill="#005000"/><path fill-rule="evenodd" clip-rule="evenodd" d="M149.343 5.87167C149.498 9.52911 149.314 13.193 148.794 16.8167C148.578 18.5031 148.286 20.2031 147.968 21.9505C147.494 24.5107 146.973 27.0911 146.444 29.6445C145.489 34.1823 144.528 38.6118 144.094 42.6755C144.086 43.0878 144.237 43.4873 144.514 43.7921C144.792 44.0968 145.176 44.2835 145.587 44.3139C145.998 44.3443 146.405 44.2159 146.725 43.9553C147.044 43.6946 147.252 43.3215 147.304 42.9126C147.475 39.2276 147.855 35.5553 148.442 31.9134C148.774 29.78 149.16 27.6262 149.56 25.4792C149.959 23.3322 150.372 21.1513 150.765 19.0314C151.009 17.7107 151.246 16.4171 151.443 15.137C152.028 12.0626 152.395 8.95053 152.54 5.82426C152.534 5.39674 152.358 4.98925 152.051 4.6914C151.744 4.39355 151.332 4.22973 150.904 4.23601C150.477 4.2423 150.069 4.41816 149.771 4.7249C149.473 5.03165 149.31 5.44416 149.316 5.87167H149.343Z" fill="#005000"/><path fill-rule="evenodd" clip-rule="evenodd" d="M160.518 9.44785C159.583 10.5219 158.836 11.7472 158.31 13.0713C157.836 15.0355 157.308 16.9725 156.814 18.9096C156.082 21.8151 155.391 24.7072 154.877 27.6398C154.29 30.8573 154.005 34.1224 154.023 37.3928C154.077 39.5466 154.402 41.68 155.466 42.723C155.629 42.8731 155.827 42.9806 156.042 43.0361C156.257 43.0916 156.483 43.0934 156.698 43.0414C157.741 42.7615 158.701 42.2341 159.496 41.5039C159.839 41.2625 160.262 41.1643 160.677 41.2302C161.091 41.296 161.463 41.5207 161.714 41.8566C161.965 42.1925 162.076 42.613 162.022 43.029C161.968 43.4449 161.754 43.8235 161.426 44.0844C157.491 46.841 154.958 46.3262 153.447 44.6736C152.093 43.1768 151.477 40.3187 151.558 37.386C151.607 34.8268 151.834 32.2741 152.235 29.7462C152.763 26.2446 153.556 22.8175 154.335 19.3566C154.849 17.099 155.328 14.821 155.771 12.5227C156.048 11.0124 158.209 7.33471 159.679 5.95981C160.925 4.7881 162.164 5.07256 162.774 5.63471C163.153 5.98012 163.607 6.90125 163.343 8.7367C163.287 9.04201 163.145 9.32485 162.933 9.55127C162.721 9.7777 162.448 9.9381 162.147 10.0132C161.846 10.0883 161.529 10.0749 161.236 9.97458C160.942 9.8743 160.684 9.6914 160.491 9.44785H160.518Z" fill="#005000"/><path fill-rule="evenodd" clip-rule="evenodd" d="M175.479 14.7846C174.679 17.7985 173.711 21.6117 172.702 25.6212C171.692 29.6308 170.609 33.8909 169.505 37.7108C168.554 41.2208 167.331 44.6514 165.847 47.9717C165.755 48.1658 165.624 48.3393 165.463 48.4821C165.302 48.6249 165.114 48.734 164.911 48.8031C164.707 48.8722 164.491 48.8998 164.277 48.8843C164.062 48.8687 163.853 48.8104 163.661 48.7128C163.47 48.6151 163.3 48.4801 163.161 48.3157C163.022 48.1513 162.918 47.9607 162.854 47.7553C162.79 47.5499 162.768 47.3338 162.789 47.1198C162.81 46.9057 162.873 46.698 162.976 46.5088C164.554 43.5762 166.261 38.7403 167.886 33.4778C168.922 30.1252 169.918 26.5965 170.846 23.2642C171.916 19.3563 172.878 15.7193 173.643 12.9492C173.975 11.7368 174.063 9.84715 174.361 8.25552C174.491 7.45851 174.738 6.68493 175.092 5.95953C175.157 5.82257 175.252 5.70172 175.369 5.60567C175.486 5.50962 175.623 5.44078 175.77 5.40414C175.906 5.35751 176.051 5.33945 176.194 5.35109C176.338 5.36273 176.478 5.40383 176.605 5.47182C176.732 5.5398 176.844 5.63322 176.933 5.74626C177.022 5.8593 177.087 5.98953 177.124 6.12885C177.15 6.21048 177.168 6.29438 177.179 6.37944C177.179 6.44717 177.179 6.59617 177.219 6.79936C177.287 7.56469 177.409 9.25793 177.504 10.4771C177.632 12.0213 177.707 13.5723 177.761 15.1232C177.815 16.6742 177.842 18.2184 177.856 19.7559C177.937 24.4427 177.09 32.279 177.3 38.7606C177.395 41.7204 177.707 44.3821 178.472 46.2447C178.563 46.4444 178.612 46.6605 178.617 46.88C178.621 47.0994 178.581 47.3174 178.498 47.5207C178.416 47.7239 178.292 47.9082 178.136 48.0621C177.98 48.216 177.793 48.3364 177.589 48.4158C177.384 48.4953 177.166 48.5321 176.946 48.524C176.727 48.516 176.512 48.4633 176.313 48.3691C176.115 48.2748 175.938 48.1412 175.794 47.9762C175.649 47.8112 175.539 47.6184 175.472 47.4096C174.673 45.2423 174.375 42.1945 174.381 38.808C174.381 32.2993 175.431 24.4698 175.485 19.7627C175.526 18.1169 175.519 16.444 175.479 14.7846Z" fill="#005000"/><path fill-rule="evenodd" clip-rule="evenodd" d="M176.412 31.0732C176.101 31.2727 175.77 31.4385 175.423 31.5676C175.186 31.6448 174.94 31.6926 174.692 31.7098C174.207 31.7233 173.722 31.6756 173.249 31.5676C172.721 31.4457 172.267 31.2493 171.725 31.08C171.514 31.0724 171.302 31.1066 171.104 31.1806C170.906 31.2547 170.724 31.3671 170.569 31.5114C170.255 31.8029 170.071 32.2068 170.056 32.6344C170.048 32.846 170.082 33.0571 170.156 33.2556C170.23 33.4541 170.343 33.636 170.487 33.791C170.779 34.1041 171.183 34.2886 171.61 34.3039C172.103 34.1686 172.602 34.0601 173.107 33.9788C173.455 33.9405 173.806 33.9224 174.157 33.9246C174.519 33.9224 174.88 33.9405 175.24 33.9788C175.83 34.06 176.351 34.1752 176.988 34.2429C177.202 34.2123 177.409 34.1387 177.594 34.0265C177.78 33.9143 177.941 33.7658 178.068 33.5899C178.194 33.414 178.285 33.2144 178.332 33.0029C178.38 32.7914 178.385 32.5724 178.346 32.3591C178.307 32.1457 178.226 31.9424 178.107 31.7612C177.988 31.5801 177.833 31.4248 177.653 31.3047C177.472 31.1847 177.269 31.1023 177.056 31.0625C176.843 31.0227 176.624 31.0264 176.412 31.0732V31.0732Z" fill="#005000"/><path fill-rule="evenodd" clip-rule="evenodd" d="M182.563 8.83778C182.478 8.62275 182.441 8.39148 182.455 8.16049C182.463 7.74675 182.629 7.35174 182.919 7.05599C183.208 6.76024 183.599 6.58602 184.013 6.56886C184.398 6.54714 184.777 6.67037 185.076 6.91428C185.312 7.09761 185.49 7.34429 185.591 7.62543C185.643 7.81702 185.684 8.01152 185.713 8.20791C185.713 8.74296 185.76 9.27801 185.76 9.8063C185.76 10.5852 185.76 11.3573 185.713 12.1294L185.489 20.582C185.489 22.4039 185.394 24.3477 185.313 26.3457C185.232 28.3437 185.13 30.1859 184.988 32.1094C184.792 34.7779 184.534 37.4058 184.148 39.7966C184.04 40.5349 183.247 43.8198 183.315 45.4791C183.367 45.5021 183.422 45.5158 183.478 45.5197C183.995 45.5253 184.511 45.4707 185.015 45.3572C185.995 45.15 186.96 44.8831 187.907 44.558C188.319 44.4412 188.759 44.4926 189.133 44.701C189.506 44.9093 189.782 45.2574 189.898 45.6687C190.015 46.0801 189.964 46.521 189.755 46.8944C189.547 47.2678 189.199 47.5432 188.788 47.66C187.24 48.0869 185.65 48.3458 184.047 48.4321C183.025 48.5083 182.014 48.1881 181.222 47.5381C180.993 47.316 180.825 47.0383 180.735 46.7321C180.594 46.1978 180.553 45.6422 180.613 45.0931C180.889 43.1687 181.278 41.2622 181.778 39.3835C182.339 36.2951 182.719 33.1765 182.916 30.0437C183.126 26.7859 183.146 23.5214 183.119 20.5616L182.78 12.1904C182.78 11.4453 182.712 10.7003 182.658 9.96208C182.645 9.5828 182.604 9.21029 182.563 8.83778ZM185.442 9.08837C185.602 8.85854 185.683 8.58269 185.672 8.30272C185.664 8.58005 185.585 8.85067 185.442 9.08837V9.08837Z" fill="#005000"/></svg>