<svg width="124" height="69" viewBox="0 0 124 69" fill="none" xmlns="http://www.w3.org/2000/svg"><path fill-rule="evenodd" clip-rule="evenodd" d="M12.5146 24.6138C12.7408 24.3528 13.0581 24.1881 13.4018 24.1533C13.583 24.1308 13.7669 24.1451 13.9424 24.1954C14.1179 24.2458 14.2814 24.3311 14.4231 24.4462C14.5649 24.5613 14.6818 24.7039 14.767 24.8654C14.8522 25.0269 14.9039 25.204 14.9189 25.386C14.9625 25.8312 14.8281 26.2755 14.5451 26.622C14.2621 26.9684 13.8535 27.1888 13.4086 27.235C12.3434 27.3529 11.2662 27.298 10.2185 27.0724C9.6636 27.0203 9.10382 27.0685 8.56595 27.2146C7.77267 27.3814 6.9653 27.4721 6.1548 27.4856C5.54369 27.491 4.94807 27.2933 4.46158 26.9234C4.33012 26.8183 4.22497 26.684 4.15444 26.5312C4.0839 26.3783 4.04993 26.2112 4.05522 26.0429C4.07836 25.7356 4.14211 25.4327 4.24484 25.1421C4.71217 23.6724 6.18189 20.1641 6.27671 19.5477C6.34444 19.0465 6.83211 16.4593 7.27235 13.994C7.52972 12.5716 7.76677 11.19 7.94964 10.296C8.02598 9.79249 8.179 9.30368 8.40341 8.84656C8.9123 8.33325 9.57211 7.99624 10.2863 7.88481C11.9863 7.48521 14.8174 7.45135 15.8333 7.28203C16.0112 7.25979 16.1917 7.27281 16.3645 7.32034C16.5374 7.36787 16.6992 7.44897 16.8407 7.55904C16.9822 7.6691 17.1007 7.80596 17.1893 7.9618C17.2779 8.11763 17.335 8.2894 17.3572 8.46728C17.3794 8.64517 17.3664 8.82569 17.3189 8.99854C17.2713 9.1714 17.1902 9.33319 17.0801 9.4747C16.9701 9.61621 16.8333 9.73465 16.6774 9.82327C16.5216 9.91188 16.3498 9.96895 16.1719 9.99118C15.3863 10.0521 13.5576 9.937 11.966 9.99118C11.4734 10 10.9821 10.0453 10.4962 10.1266C10.3811 10.1266 10.2389 10.1876 10.144 10.2147V10.2485C9.90022 11.0884 9.46674 12.8967 9.10777 14.7254C8.64044 17.0079 8.2544 19.3107 8.18667 19.778C8.11217 20.3605 6.9269 23.5099 6.39862 25.237L6.69663 25.1963C7.52292 25.0676 8.45081 24.7696 9.24324 24.6274C9.74519 24.5259 10.2612 24.5144 10.7671 24.5935C10.9839 24.6748 12.0201 24.6342 12.5146 24.6138ZM12.1624 25.535C12.159 25.5823 12.159 25.6298 12.1624 25.6772C12.1691 25.6298 12.1624 25.5824 12.1624 25.535V25.535Z" fill="#005000"/><path fill-rule="evenodd" clip-rule="evenodd" d="M13.9431 15.3752C14.1739 15.0914 14.508 14.9109 14.8719 14.8735C15.2358 14.836 15.5997 14.9446 15.8835 15.1754C16.1673 15.4063 16.3478 15.7404 16.3853 16.1043C16.4228 16.4682 16.3141 16.8321 16.0833 17.1159C15.7851 17.4024 15.4229 17.6137 15.0267 17.7322C14.4536 17.8507 13.8711 17.9187 13.2861 17.9354C12.812 17.9354 12.2973 18.0099 11.7961 18.0573C11.2949 18.1047 10.8072 18.1792 10.3602 18.2537C9.92314 18.3429 9.49126 18.4559 9.06657 18.5924C8.88869 18.6115 8.70877 18.5954 8.53711 18.545C8.36545 18.4946 8.20541 18.4108 8.0661 18.2986C7.92679 18.1863 7.81096 18.0477 7.72522 17.8907C7.63948 17.7337 7.58552 17.5613 7.5664 17.3834C7.54728 17.2055 7.56337 17.0256 7.61377 16.8539C7.66418 16.6823 7.74793 16.5222 7.86019 16.3829C7.97246 16.2436 8.11105 16.1278 8.26808 16.042C8.42511 15.9563 8.59746 15.9023 8.77534 15.8832C9.25622 15.8832 9.94705 16.0661 10.7666 16.1406C11.1724 16.1711 11.5799 16.1711 11.9857 16.1406C12.3749 16.1253 12.7611 16.0663 13.1371 15.9645C13.4464 15.8672 13.7339 15.7108 13.9837 15.5039C13.9837 15.5039 13.9837 15.4091 13.9837 15.3888C13.9837 15.3685 13.9295 15.3888 13.916 15.3888L13.9431 15.3752Z" fill="#005000"/><path fill-rule="evenodd" clip-rule="evenodd" d="M29.2158 8.09463L29.3174 8.20977C29.6682 8.7044 29.8898 9.2789 29.9619 9.88099C30.0341 10.4831 29.9545 11.0936 29.7306 11.6572C29.0194 13.7974 26.8656 16.0528 24.1497 15.5787C22.0637 15.2739 21.0477 14.407 20.6278 13.4113C20.025 11.9687 20.7633 9.8759 22.3007 7.86435C22.5488 7.55663 22.8568 7.30251 23.2061 7.1174C23.5554 6.93229 23.9386 6.82003 24.3326 6.78746C25.4501 6.62491 26.8792 6.9771 27.719 6.84164C27.9002 6.81811 28.0843 6.83149 28.2602 6.88095C28.4361 6.93042 28.6001 7.01497 28.7425 7.12949C28.8848 7.24402 29.0026 7.38615 29.0886 7.54736C29.1746 7.70857 29.2271 7.88551 29.2429 8.06753L29.2158 8.09463ZM25.6668 9.25279C25.4144 9.19838 25.1588 9.15992 24.9015 9.13765C24.6929 9.10377 24.4802 9.10377 24.2716 9.13765C24.17 9.13765 24.0684 9.13765 24.0007 9.23247C23.0864 10.289 22.3549 11.3388 22.321 12.2532C22.321 13.0456 22.9983 13.4655 24.4139 13.6619C24.8972 13.6913 25.3796 13.5905 25.8108 13.3701C26.242 13.1498 26.6062 12.8179 26.8656 12.409C27.3087 11.8117 27.5463 11.0869 27.5429 10.3432C27.5415 10.199 27.494 10.059 27.4075 9.94363C27.4075 9.94363 27.3668 9.98427 27.333 9.97749C27.2348 9.97647 27.137 9.98785 27.0417 10.0114C26.7622 10.0434 26.4795 9.98757 26.2332 9.85163C25.9868 9.71569 25.7888 9.50638 25.6668 9.25279Z" fill="#005000"/><path fill-rule="evenodd" clip-rule="evenodd" d="M26.2024 18.4234C26.4056 17.6987 26.602 16.9402 26.7849 16.1748C27.4622 13.4318 27.8889 10.6617 27.7263 9.51709C27.6942 9.15213 27.8068 8.78917 28.04 8.50658C28.2731 8.22399 28.6081 8.04445 28.9725 8.00674C29.1532 7.98617 29.3362 8.0022 29.5105 8.05385C29.6849 8.10551 29.847 8.19173 29.9873 8.30739C30.1277 8.42305 30.2433 8.56578 30.3272 8.72707C30.4112 8.88836 30.4618 9.0649 30.4761 9.24618C30.5439 10.3637 30.0494 12.7613 29.3112 15.3418C29.0403 16.2832 28.7423 17.2517 28.4443 18.1864C28.7447 18.2902 28.9992 18.4963 29.163 18.7687C29.3268 19.0412 29.3896 19.3626 29.3403 19.6766C29.2911 19.9907 29.1329 20.2774 28.8936 20.4866C28.6542 20.6959 28.3489 20.8142 28.0311 20.821L27.5299 20.882C27.2051 21.855 26.8159 22.8053 26.365 23.7266C25.8796 24.872 25.2218 25.9364 24.4144 26.8828C24.0389 27.2716 23.5679 27.5551 23.0485 27.7048C22.5291 27.8546 21.9795 27.8654 21.4546 27.7362C20.1579 27.3731 19.0544 26.5175 18.3797 25.3521C18.1037 24.875 17.9798 24.3249 18.0246 23.7755C18.0694 23.2261 18.2807 22.7034 18.6303 22.2772C19.6134 21.2556 20.8024 20.4546 22.1184 19.927C23.4407 19.3255 24.8058 18.823 26.2024 18.4234V18.4234ZM25.2881 21.3629C24.5258 21.5657 23.7752 21.8099 23.0395 22.0943C22.0263 22.4008 21.0892 22.9178 20.2897 23.6115C20.157 23.7745 20.0891 23.9808 20.0991 24.1908C20.1091 24.4007 20.1963 24.5996 20.3439 24.7493C20.7154 25.2674 21.2419 25.654 21.8474 25.8533C22.0647 25.9078 22.2923 25.9052 22.5083 25.8459C22.7242 25.7866 22.9212 25.6725 23.0801 25.5147C23.7424 24.7169 24.2771 23.8213 24.665 22.8597C24.8614 22.4872 25.0849 21.9792 25.2881 21.3629Z" fill="#005000"/><path fill-rule="evenodd" clip-rule="evenodd" d="M36.855 14.3189C37.1326 14.5578 37.3038 14.8971 37.3311 15.2623C37.3584 15.6275 37.2395 15.9885 37.0006 16.2661C36.7617 16.5436 36.4224 16.7148 36.0572 16.7422C35.692 16.7695 35.3309 16.6506 35.0534 16.4117C34.7985 16.1604 34.596 15.8612 34.4574 15.5312C34.1834 14.7464 33.9572 13.9458 33.7802 13.1336C33.6379 12.5308 33.4618 11.8942 33.2925 11.2711C33.1773 10.8511 33.0622 10.438 32.9335 10.0452C32.6897 9.32047 32.4459 8.6906 32.2563 8.20295C32.1384 7.85791 32.0566 7.50154 32.0124 7.1396C32.0039 6.885 32.0749 6.63406 32.2156 6.42168C32.2774 6.32158 32.3526 6.23042 32.4391 6.15076C32.6355 5.87307 32.9606 5.84599 33.2519 5.75794C33.4325 5.7344 33.6161 5.74754 33.7916 5.79659C33.967 5.84564 34.1308 5.92959 34.2731 6.04341C34.4154 6.15723 34.5332 6.29857 34.6196 6.459C34.7059 6.61942 34.7591 6.79562 34.7758 6.97705C34.804 7.20606 34.7761 7.43851 34.6945 7.65434C34.6878 7.69697 34.6878 7.74039 34.6945 7.78303C34.6942 8.28797 34.7259 8.79243 34.7893 9.29338C34.8664 9.79805 34.9726 10.2978 35.1076 10.7902C35.2629 11.3783 35.4575 11.9553 35.6901 12.5173C36.0558 13.3233 37.0853 13.9938 36.855 14.3189ZM34.2068 8.27067C34.0201 8.40142 33.8035 8.48296 33.5769 8.50773C33.6925 8.51258 33.8078 8.49409 33.916 8.45336C34.0243 8.41263 34.1231 8.3505 34.2068 8.27067ZM34.7148 7.59339C34.7267 7.49214 34.7267 7.38985 34.7148 7.28861C34.7148 7.28861 34.7283 7.38342 34.7148 7.55952V7.59339Z" fill="#005000"/><path fill-rule="evenodd" clip-rule="evenodd" d="M32.9412 24.8235C32.9759 25.0975 32.9261 25.3756 32.7983 25.6205C32.6705 25.8654 32.4708 26.0654 32.2262 26.1936C31.9815 26.3219 31.7034 26.3722 31.4293 26.338C31.1552 26.3037 30.8982 26.1865 30.6926 26.0019C30.4243 25.7375 30.2493 25.3928 30.1943 25.0201C30.1394 24.6474 30.2073 24.2669 30.3878 23.9362C30.8822 22.9271 32.5619 20.6717 32.9073 20.096C33.2527 19.5203 33.6456 18.7414 33.9774 18.0641C34.6547 16.6418 35.244 15.1585 35.8738 13.6888C36.1989 12.937 36.5511 12.192 36.8695 11.4538C37.1878 10.7155 37.5874 9.95019 38.0005 9.23227C38.5625 8.08876 39.2267 6.9984 39.985 5.97451C40.3708 5.50929 40.9034 5.18922 41.4953 5.06695C41.8546 4.9924 42.2287 5.06362 42.5355 5.26494C42.8422 5.46626 43.0565 5.78119 43.131 6.14044C43.2055 6.4997 43.1343 6.87386 42.933 7.1806C42.7317 7.48735 42.4167 7.70156 42.0575 7.7761C42.4232 8.54821 40.2965 9.80796 39.8427 10.4378C39.1883 11.3789 38.6064 12.3683 38.1021 13.3976C37.5061 14.637 36.9982 15.9307 36.4902 17.2107C35.9822 18.4908 35.4539 19.9199 34.8443 21.1526C34.6005 21.6605 33.3543 23.7601 32.9412 24.8235Z" fill="#005000"/><path fill-rule="evenodd" clip-rule="evenodd" d="M45.2 6.1641C45.1364 6.01566 45.0975 5.85779 45.0849 5.69676C45.0673 5.51609 45.0861 5.33372 45.1404 5.16048C45.1946 4.98724 45.2831 4.82667 45.4006 4.68831C45.5181 4.54995 45.6622 4.43662 45.8244 4.35505C45.9866 4.27349 46.1635 4.22535 46.3447 4.2135C46.6122 4.17864 46.8841 4.22449 47.1254 4.34516C47.3668 4.46583 47.5666 4.65582 47.6992 4.89079C47.8976 5.31291 47.9614 5.78577 47.8821 6.24537C47.6789 7.59994 46.7239 10.8645 46.6223 11.596C46.5411 12.6728 46.365 14.3051 46.1753 16.0728C46.0128 17.5832 45.8231 19.1816 45.559 20.6039C45.3527 22.0588 44.8601 23.4584 44.1096 24.7218C43.9958 24.8628 43.8552 24.98 43.6961 25.0666C43.537 25.1533 43.3623 25.2078 43.1822 25.227C43.002 25.2462 42.8198 25.2297 42.646 25.1784C42.4722 25.1272 42.3101 25.0422 42.1692 24.9284C42.0282 24.8145 41.911 24.674 41.8244 24.5149C41.7377 24.3558 41.6832 24.1811 41.664 24.0009C41.6448 23.8208 41.6613 23.6386 41.7126 23.4648C41.7638 23.2909 41.8487 23.1289 41.9626 22.9879C42.6805 22.2023 43.263 20.6445 43.6897 18.9242C43.9804 17.7089 44.2065 16.479 44.367 15.2398C44.5498 13.7565 44.6176 12.4019 44.6785 11.4808C44.6447 10.7561 45.1662 7.57286 45.2 6.1641ZM46.2498 6.94975C46.3546 6.97357 46.4634 6.97357 46.5681 6.94975C46.4625 6.96344 46.3555 6.96344 46.2498 6.94975V6.94975Z" fill="#005000"/><path fill-rule="evenodd" clip-rule="evenodd" d="M46.9059 5.62264C46.9059 5.46009 47.292 5.47363 47.4884 5.35849C47.9407 5.06312 48.4335 4.83497 48.9513 4.6812C49.5568 4.49419 50.2087 4.52535 50.7936 4.76925C52.4123 5.44654 53.1506 6.9569 53.2115 8.8804C53.2198 10.1702 53.0534 11.4551 52.7171 12.7003C52.2827 14.5813 51.5266 16.3732 50.482 17.9967C49.8637 18.8723 48.9913 19.5367 47.9828 19.8999C47.4002 20.0936 46.7706 20.0936 46.188 19.8999C45.2533 19.6019 44.4406 18.7079 44.1561 16.9469C44.137 16.7664 44.1536 16.5838 44.2051 16.4097C44.2565 16.2355 44.3417 16.0732 44.4559 15.9321C44.57 15.7909 44.7109 15.6735 44.8704 15.5868C45.0299 15.5 45.2049 15.4455 45.3854 15.4264C45.566 15.4073 45.7485 15.4239 45.9226 15.4753C46.0968 15.5268 46.2591 15.612 46.4003 15.7261C46.5415 15.8403 46.6588 15.9811 46.7456 16.1406C46.8323 16.3001 46.8868 16.4751 46.9059 16.6557C46.8872 16.9312 46.9336 17.2073 47.0414 17.4617C47.0888 17.5362 47.1091 17.6242 47.1904 17.6242C47.5146 17.5864 47.8276 17.4821 48.1096 17.3178C48.3916 17.1535 48.6367 16.9327 48.8294 16.6692C49.3935 15.9465 49.8498 15.1457 50.184 14.2919C50.7586 12.9703 51.1241 11.5673 51.2677 10.1334C51.376 8.67721 51.1728 7.3294 50.0011 6.93658C49.8792 6.90271 49.7844 6.97722 49.6828 7.02463C49.5311 7.10436 49.3881 7.19969 49.2561 7.30909C48.8571 7.63249 48.4336 7.92459 47.9896 8.18279C47.7508 8.29103 47.4976 8.36404 47.2378 8.39952C47.0577 8.42042 46.8752 8.40565 46.7008 8.35604C46.5264 8.30642 46.3635 8.22294 46.2214 8.11036C46.0793 7.99778 45.9607 7.85831 45.8725 7.69991C45.7842 7.54151 45.728 7.36729 45.7071 7.18718C45.6862 7.00707 45.701 6.8246 45.7506 6.6502C45.8002 6.47581 45.8837 6.31289 45.9963 6.17075C46.1089 6.02862 46.2484 5.91005 46.4068 5.82181C46.5652 5.73358 46.7394 5.6774 46.9195 5.6565L46.9059 5.62264Z" fill="#005000"/><path fill-rule="evenodd" clip-rule="evenodd" d="M63.4546 3.88866C63.5435 3.86573 63.6341 3.84989 63.7255 3.84125H63.7797C64.8092 3.80061 64.8431 4.70141 64.6128 5.48029C64.6873 5.98826 64.5789 6.43527 64.0574 6.53009C64.0353 6.55325 64.0071 6.56969 63.9761 6.57749C63.7861 6.59301 63.5949 6.56998 63.414 6.50977C62.6825 6.41495 61.3008 6.26594 60.8606 6.1779C60.3188 6.13049 59.7905 6.0763 59.2487 6.05598C58.7185 6.02555 58.1872 6.02555 57.657 6.05598C56.6089 6.1494 55.5695 6.32376 54.5483 6.57749C54.1845 6.61611 53.8203 6.50865 53.5358 6.27875C53.2513 6.04885 53.0698 5.71535 53.0312 5.3516C52.9925 4.98786 53.1 4.62367 53.3299 4.33915C53.5598 4.05464 53.8933 3.87309 54.257 3.83447C55.2662 3.83447 56.1941 3.93607 57.122 4.00379C57.7586 4.05121 58.375 4.08507 58.9981 4.11893C59.6212 4.1528 60.312 4.11894 60.9757 4.1799C61.4092 4.1799 62.7706 3.99025 63.4546 3.88866Z" fill="#005000"/><path fill-rule="evenodd" clip-rule="evenodd" d="M58.8813 6.16425C58.8177 6.02767 58.7787 5.88093 58.7661 5.73079C58.7466 5.54959 58.7638 5.3663 58.8167 5.1919C58.8696 5.0175 58.9572 4.85558 59.0742 4.71583C59.1912 4.57607 59.3352 4.46136 59.4975 4.37857C59.6599 4.29577 59.8373 4.2466 60.0191 4.23399C60.2365 4.21926 60.4544 4.25087 60.6586 4.32673C60.8627 4.40259 61.0484 4.52097 61.2034 4.67401C61.3584 4.82706 61.4791 5.01128 61.5575 5.21448C61.6359 5.41768 61.6702 5.63524 61.6582 5.85271C61.5013 7.37217 61.2205 8.87625 60.8183 10.3499C60.7032 10.9933 60.5745 11.6435 60.4661 12.2869C60.2968 13.2555 60.1478 14.224 60.0191 15.1857C59.8837 16.2694 59.7889 17.3395 59.7144 18.3961C59.6669 19.8387 58.6104 21.5793 58.2311 23.0017C58.177 23.1863 58.1654 23.3808 58.1972 23.5706C58.2359 23.9352 58.128 24.3003 57.8975 24.5854C57.667 24.8706 57.3326 25.0525 56.968 25.0911C56.6033 25.1297 56.2382 25.0219 55.9531 24.7914C55.6679 24.5608 55.4861 24.2265 55.4474 23.8618C55.4284 23.2787 55.537 22.6985 55.7658 22.1618C56.0502 21.4845 56.504 20.7395 56.9172 19.981C57.2675 19.4369 57.5218 18.8366 57.6689 18.2064C57.7976 17.0754 57.9873 15.924 58.1566 14.7658C58.2717 14.0073 58.3869 13.2487 58.4817 12.4901C58.5765 11.7316 58.6713 10.8714 58.7526 10.0587C58.8068 9.6997 58.1363 6.61126 58.8813 6.16425ZM59.8701 6.96346C60.0019 6.99104 60.138 6.99104 60.2697 6.96346C60.1371 6.98047 60.0028 6.98047 59.8701 6.96346V6.96346Z" fill="#005000"/><path fill-rule="evenodd" clip-rule="evenodd" d="M85.3169 18.8227C85.3169 18.6398 85.3778 18.4705 85.4117 18.335C86.089 15.8087 87.2946 13.2283 88.0193 10.6004C88.3199 9.57045 88.4995 8.50897 88.5543 7.43745C88.5543 6.69243 88.6491 3.74623 89.069 2.69643C89.1725 2.38496 89.3613 2.10876 89.6139 1.89924C89.8666 1.68971 90.1729 1.55526 90.4982 1.51117C90.7928 1.46132 91.0957 1.5103 91.3596 1.65048C91.6235 1.79067 91.8336 2.01419 91.9573 2.28624C92.0809 2.55829 92.1112 2.8636 92.0433 3.15461C91.9754 3.44563 91.8131 3.70602 91.5818 3.89523C91.4938 4.52511 91.1551 7.07849 91.1145 7.60677C90.9993 8.86209 90.7425 10.1004 90.3491 11.298C89.5296 13.892 88.2292 16.4318 87.4774 18.931C87.3013 19.5203 87.2065 20.6378 86.9085 21.4641C86.7319 22.0334 86.3724 22.5286 85.8858 22.8729C85.6577 23.0418 85.3723 23.1144 85.0911 23.0752C84.8099 23.0359 84.5554 22.8879 84.3822 22.6629C84.1451 22.3759 83.9678 22.0442 83.8607 21.6876C83.6827 21.114 83.5491 20.5275 83.4611 19.9334L82.899 15.8697C82.689 16.4183 82.4384 16.9737 82.181 17.529C81.5037 18.8836 80.7384 20.2721 80.0611 21.5115C79.6426 22.1449 79.1904 22.7553 78.7065 23.3402C78.5938 23.4597 78.4579 23.5549 78.3071 23.62C78.1563 23.6851 77.9937 23.7186 77.8295 23.7186C77.6652 23.7186 77.5027 23.6851 77.3518 23.62C77.201 23.5549 77.0651 23.4597 76.9524 23.3402C76.6418 22.6903 76.4975 21.9735 76.5325 21.2541C76.5509 19.974 76.6459 18.6962 76.8169 17.4275C77.0677 15.192 77.1966 12.9446 77.203 10.6952C77.2209 8.45321 77.1078 6.21208 76.8643 3.98327C76.8474 3.80316 76.8662 3.62149 76.9195 3.44862C76.9728 3.27576 77.0596 3.11509 77.175 2.97578C77.2904 2.83648 77.4322 2.72126 77.5921 2.63673C77.752 2.55219 77.927 2.49998 78.1071 2.48308C78.2872 2.46618 78.4689 2.48492 78.6418 2.53824C78.8147 2.59155 78.9753 2.67838 79.1146 2.79379C79.2539 2.9092 79.3692 3.05091 79.4537 3.21084C79.5382 3.37078 79.5904 3.5458 79.6073 3.72591C79.7541 6.06666 79.7677 8.41387 79.648 10.7562C79.5488 13.0921 79.3227 15.4209 78.9707 17.7322C78.903 18.1183 78.7472 19.0868 78.6524 20.0621C79.2619 18.992 79.9257 17.8474 80.4878 16.6757C80.9104 15.8368 81.2573 14.9619 81.5241 14.0613C81.6663 13.5398 81.9305 13.0183 82.1133 12.49C82.1688 12.3288 82.2119 12.1635 82.242 11.9956C82.242 11.7721 82.242 11.2167 82.242 11.0609C82.2558 10.8221 82.355 10.5962 82.5217 10.4246C82.6884 10.2529 82.9112 10.147 83.1496 10.1263C83.2759 10.1199 83.4023 10.1385 83.5214 10.181C83.6405 10.2236 83.7501 10.2892 83.8438 10.3741C83.9376 10.459 84.0136 10.5616 84.0677 10.676C84.1217 10.7904 84.1526 10.9143 84.1587 11.0406L85.3169 18.8227Z" fill="#005000"/><path fill-rule="evenodd" clip-rule="evenodd" d="M92.1688 20.1504C92.3914 20.3315 92.5507 20.5787 92.6238 20.8562C92.6968 21.1338 92.6798 21.4273 92.5752 21.6946C92.5096 21.9247 92.3968 22.1386 92.244 22.3228C92.0913 22.507 91.902 22.6575 91.688 22.7647C91.4111 22.8801 91.1142 22.9399 90.8143 22.9408C90.076 22.995 88.9043 22.5005 89.2497 20.9089C89.5071 19.6966 90.9971 16.6217 91.1055 16.1679C91.3608 15.0852 91.6774 14.0179 92.0537 12.9711C92.8665 10.6412 93.8485 8.47389 94.6545 5.98146C95.0424 4.64963 95.5596 3.35891 96.1987 2.1277C96.273 1.97544 96.3806 1.84192 96.5137 1.73711C96.6468 1.63231 96.8018 1.55893 96.9672 1.52246C97.1327 1.48599 97.3042 1.48737 97.469 1.52649C97.6338 1.56562 97.7876 1.64148 97.919 1.74841C98.4473 2.16833 98.8537 3.32649 98.9621 4.90458C99.2059 8.29102 98.5489 14.0141 98.4135 15.5109C98.3525 16.2966 98.2848 19.1141 98.217 20.2181C98.0477 22.9611 95.5688 21.8571 95.3995 20.6109C95.3748 20.3802 95.4098 20.147 95.5011 19.9336C95.6433 18.8093 95.8939 16.0257 96.0091 15.24C96.1648 14.1293 96.7744 10.6141 96.9641 7.53246C97.0047 6.85517 97.0318 6.24561 97.025 5.66992C96.7609 6.10338 96.5306 6.45557 96.5035 6.54361C95.7585 9.06313 94.8035 11.2508 94.0924 13.6213C93.8018 14.6034 93.5756 15.6034 93.4151 16.6149C93.3067 16.94 92.5955 18.7551 92.1688 20.1504Z" fill="#005000"/><path fill-rule="evenodd" clip-rule="evenodd" d="M97.7382 11.6437C97.392 11.8035 97.0343 11.937 96.6681 12.0433C96.4129 12.1086 96.1521 12.1494 95.8892 12.1652C95.3803 12.1831 94.8707 12.1604 94.3653 12.0975C93.7964 12.0298 93.2817 11.9146 92.7331 11.8469C92.5525 11.866 92.3775 11.9205 92.218 12.0073C92.0585 12.094 91.9177 12.2114 91.8035 12.3526C91.6894 12.4938 91.6042 12.656 91.5527 12.8302C91.5013 13.0043 91.4847 13.1869 91.5038 13.3674C91.5229 13.548 91.5774 13.723 91.6642 13.8825C91.7509 14.042 91.8682 14.1828 92.0094 14.297C92.1506 14.4111 92.3129 14.4963 92.4871 14.5478C92.6612 14.5992 92.8437 14.6158 93.0243 14.5967C93.3957 14.4432 93.7783 14.3187 94.1689 14.2242C94.5745 14.1375 94.987 14.0876 95.4016 14.0752C95.7442 14.0479 96.0885 14.0479 96.4311 14.0752C97.0271 14.1497 97.5418 14.2784 98.0837 14.3461C98.2615 14.3234 98.4332 14.2659 98.5889 14.1769C98.7445 14.0879 98.8811 13.969 98.9909 13.8272C99.1006 13.6854 99.1814 13.5234 99.2285 13.3503C99.2756 13.1773 99.2882 12.9967 99.2655 12.8188C99.2428 12.6409 99.1853 12.4692 99.0963 12.3136C99.0073 12.1579 98.8885 12.0213 98.7466 11.9116C98.6048 11.8018 98.4427 11.7211 98.2697 11.674C98.0967 11.6268 97.9161 11.6143 97.7382 11.6369V11.6437Z" fill="#005000"/><path fill-rule="evenodd" clip-rule="evenodd" d="M102.72 18.9109C102.676 19.1687 102.676 19.432 102.72 19.6898C102.781 20.0523 102.935 20.3929 103.167 20.6786C103.243 20.7891 103.352 20.8722 103.478 20.9157C104.027 21.0105 104.603 20.5025 105.422 19.3579C106.174 18.1865 106.582 16.828 106.601 15.4364C106.691 14.0641 106.327 12.7002 105.564 11.5555C104.792 10.5464 103.668 9.86909 103.031 8.89379C102.741 8.4483 102.545 7.9478 102.457 7.42346C102.368 6.89911 102.389 6.36214 102.517 5.84599C102.656 4.92856 102.864 4.02294 103.14 3.13684C103.367 2.46407 103.699 1.83106 104.122 1.26075C104.316 1.04272 104.561 0.876488 104.835 0.777146C105.11 0.677805 105.405 0.64848 105.693 0.691824C106.699 0.832764 107.641 1.26613 108.402 1.93804C108.663 2.12928 108.882 2.37209 109.046 2.65143C109.209 2.93077 109.313 3.24068 109.352 3.56197C109.391 3.88326 109.363 4.20908 109.271 4.51925C109.179 4.82941 109.024 5.11732 108.815 5.36512C108.631 5.67768 108.331 5.90428 107.979 5.9951C107.628 6.08592 107.255 6.0335 106.943 5.84938C106.63 5.66526 106.404 5.36452 106.313 5.01332C106.222 4.66212 106.274 4.28923 106.458 3.97668C106.11 3.82959 105.805 3.59656 105.571 3.29939C105.435 3.51297 105.322 3.73992 105.233 3.97668C104.937 4.74562 104.699 5.53577 104.521 6.34042C104.44 6.59845 104.413 6.87044 104.44 7.13954C104.468 7.40865 104.551 7.66916 104.684 7.90496C105.26 8.85993 106.35 9.49658 107.075 10.4651C108.098 11.9508 108.609 13.7292 108.531 15.5312C108.548 17.3073 108.079 19.0542 107.176 20.5838C105.05 23.9702 102.943 23.6384 101.677 22.6157C101.102 22.0849 100.661 21.4264 100.388 20.6934C100.115 19.9604 100.018 19.1734 100.106 18.3962C100.152 17.8634 100.378 17.3623 100.748 16.9757C101.117 16.589 101.607 16.3399 102.137 16.2695C102.318 16.2479 102.501 16.263 102.676 16.3138C102.851 16.3646 103.013 16.45 103.154 16.5651C103.295 16.6801 103.412 16.8224 103.496 16.9834C103.581 17.1444 103.633 17.3208 103.648 17.5021C103.675 17.8073 103.598 18.1127 103.43 18.3686C103.261 18.6244 103.011 18.8156 102.72 18.9109V18.9109Z" fill="#005000"/><path fill-rule="evenodd" clip-rule="evenodd" d="M28.5904 29.8291C28.7565 29.7327 28.9412 29.6726 29.1323 29.653C29.3129 29.6305 29.4963 29.6446 29.6714 29.6945C29.8465 29.7444 30.0097 29.8291 30.1513 29.9435C30.2929 30.058 30.4101 30.1998 30.4956 30.3605C30.5812 30.5212 30.6335 30.6975 30.6494 30.8789C30.6796 31.254 30.5707 31.6271 30.3433 31.9269C30.1159 32.2268 29.7861 32.4324 29.4167 32.5044C28.351 32.6575 27.2762 32.7389 26.1996 32.7482C24.696 32.843 23.2669 32.5518 22.19 32.9243C21.8997 33.0365 21.6455 33.2257 21.4546 33.4715C21.2636 33.7173 21.1433 34.0105 21.1064 34.3195C20.6797 36.243 20.49 38.2207 20.0701 40.1916C19.8917 41.072 19.6519 41.9388 19.3522 42.7856C19.2845 42.9821 18.6207 44.2012 18.2076 45.1765C19.7518 45.0816 22.1968 44.7024 23.4024 44.4992L23.9239 44.4043C24.0057 44.3792 24.0896 44.361 24.1745 44.3502C24.5388 44.3141 24.9026 44.4234 25.1868 44.6543C25.4709 44.8851 25.6524 45.2189 25.6917 45.5828C25.7211 45.9426 25.612 46.3001 25.3867 46.5821C25.1613 46.8641 24.8367 47.0494 24.4793 47.1C24.3574 47.1 24.1 47.1474 23.7478 47.1745C21.6656 47.3709 19.574 47.45 17.4829 47.4115C17.0254 47.4043 16.5783 47.2732 16.1893 47.0322C15.9884 46.846 15.8461 46.6052 15.78 46.3393C15.7138 46.0735 15.7266 45.7941 15.8168 45.5354C16.3075 44.3549 16.8707 43.2058 17.5032 42.0948C17.8855 41.085 18.1734 40.0421 18.3634 38.9793C18.6885 37.2793 18.8443 35.5928 19.2032 33.9064C19.2759 33.2604 19.5221 32.6461 19.9156 32.1286C20.309 31.6111 20.8352 31.2097 21.4383 30.9669C22.6303 30.4657 24.2558 30.5606 25.9423 30.2897C26.2877 30.2626 28.2382 29.3482 28.5904 29.8291ZM27.9131 30.906C27.903 30.9937 27.903 31.0824 27.9131 31.1701C27.8985 31.0829 27.8939 30.9943 27.8996 30.906H27.9131Z" fill="#005000"/><path fill-rule="evenodd" clip-rule="evenodd" d="M26.6965 36.5948H26.7981C29.8188 36.8793 28.3491 39.304 27.2316 39.304C27.1888 39.3081 27.1457 39.3081 27.1029 39.304C26.71 42.0741 23.0391 40.408 27.0622 39.304C26.9165 39.328 26.7678 39.328 26.622 39.304H26.5272C26.0937 39.304 25.4977 39.2498 24.8204 39.2566C24.4547 39.2566 24.0754 39.2566 23.6961 39.3108C23.2085 39.3514 22.7276 39.4124 22.2941 39.4733C21.6846 39.5614 21.1766 39.6562 20.8379 39.6901C20.8379 39.6901 19.9575 39.7849 19.3547 39.8255H19.3005H18.9957C17.7699 39.8865 17.6412 38.5725 17.5938 38.4235C17.5938 38.1323 17.7157 37.6379 18.4878 37.2044C18.66 37.1435 18.8366 37.096 19.016 37.0622C19.2009 37.0401 19.3883 37.0564 19.5666 37.11C19.7449 37.1636 19.9103 37.2534 20.0523 37.3737L20.777 37.5092C21.0818 37.5092 21.5559 37.5431 22.1316 37.5092C22.5583 37.5092 23.0324 37.4482 23.4862 37.3873C23.8587 37.3331 24.2312 37.2721 24.5834 37.1909C25.2607 37.0486 25.7957 36.8658 26.2021 36.7438H26.2563C26.3529 36.69 26.4551 36.6469 26.561 36.6152C26.622 36.5948 26.6762 36.5745 26.6965 36.5948ZM19.2463 37.2247C19.2463 37.2247 19.1922 37.2247 19.2463 37.2247L19.3886 37.2586L19.2463 37.2247Z" fill="#005000"/><path fill-rule="evenodd" clip-rule="evenodd" d="M44.8458 29.5785C46.2478 30.5403 47.321 31.9091 47.9207 33.5C48.9027 36.3514 47.643 39.7446 45.3199 42.1354C42.9968 44.5263 39.712 45.8673 36.8199 44.7701C33.7789 43.6526 32.7088 41.045 32.8713 38.1801C33.1016 34.3127 35.7769 29.9984 38.9669 28.6303C39.4887 28.399 40.0493 28.268 40.6195 28.2442C41.1012 28.2292 41.5831 28.2701 42.0554 28.3661C42.485 28.4705 42.9284 28.507 43.3693 28.4745C43.7093 28.4382 44.0505 28.5318 44.3244 28.7366C44.5982 28.9413 44.7845 29.2421 44.8458 29.5785V29.5785ZM38.6215 31.6104C36.9392 32.9059 35.7224 34.712 35.1538 36.7578C34.4359 39.2841 34.8422 41.9458 37.4837 42.9617C39.6916 43.7745 42.157 42.5892 43.8773 40.7402C45.5976 38.8912 46.5864 36.3649 45.7805 34.2586C45.2715 33.1051 44.3952 32.1525 43.288 31.5494C42.8884 31.2704 42.4049 31.1376 41.9189 31.1734C41.4328 31.2092 40.974 31.4113 40.6195 31.7458C40.4896 31.8735 40.3352 31.9736 40.1656 32.0402C39.9961 32.1068 39.8148 32.1386 39.6327 32.1335C39.4506 32.1284 39.2714 32.0867 39.1058 32.0108C38.9402 31.9349 38.7916 31.8263 38.6689 31.6916L38.6215 31.6104Z" fill="#005000"/><path fill-rule="evenodd" clip-rule="evenodd" d="M47.3527 44.3906C47.712 44.4014 48.0522 44.5544 48.2986 44.8161C48.545 45.0777 48.6774 45.4266 48.6666 45.7858C48.6559 46.1451 48.5028 46.4853 48.2411 46.7318C47.9795 46.9782 47.6307 47.1105 47.2714 47.0998C46.9342 47.0985 46.6011 47.0246 46.2949 46.8832C45.9887 46.7418 45.7166 46.5362 45.4969 46.2803C44.9962 45.6752 44.5433 45.0321 44.1424 44.3568C43.7834 43.7878 43.3973 43.1715 42.991 42.5687C42.6659 42.1014 42.3137 41.6408 42.0021 41.2141C41.5584 40.644 41.0336 40.142 40.4443 39.7241C40.1641 39.4879 39.9892 39.15 39.9581 38.7849C39.927 38.4197 40.0422 38.0571 40.2784 37.7769C40.5146 37.4967 40.8525 37.3218 41.2177 37.2906C41.5828 37.2595 41.9454 37.3747 42.2256 37.6109C42.834 38.4711 43.3752 39.3768 43.8443 40.3201C44.1288 40.8348 44.4742 41.3699 44.8264 41.8846C45.1286 42.3344 45.4565 42.7663 45.8085 43.1783C46.3232 43.8081 47.3256 44.0384 47.3527 44.3906Z" fill="#005000"/><path fill-rule="evenodd" clip-rule="evenodd" d="M53.7788 24.5326C54.4561 24.1397 55.3501 25.1286 55.5939 28.007V28.0477V28.1899V28.2373C55.5939 28.6369 55.682 29.4158 55.6684 29.5919C55.6278 30.1337 55.5668 30.6688 55.4856 31.2039C55.3704 31.976 55.2282 32.7345 55.0859 33.4999C54.8286 35.0441 53.9007 37.8007 53.7314 40.1441C53.6501 41.4106 53.6975 42.5755 54.5171 43.0496C54.2935 42.4604 55.5127 41.4851 55.621 41.0991C56.0951 39.2907 56.6166 37.7126 57.023 36.1007C57.2883 35.0218 57.4829 33.9268 57.6055 32.8226C57.6461 32.4094 57.2262 28.427 58.2218 27.9529C58.1538 27.8175 58.1125 27.6704 58.0999 27.5194C58.0764 27.3382 58.0897 27.1541 58.1392 26.9782C58.1887 26.8024 58.2732 26.6383 58.3877 26.4959C58.5023 26.3536 58.6444 26.2358 58.8056 26.1498C58.9668 26.0638 59.1438 26.0113 59.3258 25.9955C59.5623 25.9689 59.8018 25.9957 60.0266 26.0739C60.2515 26.1521 60.4559 26.2797 60.6248 26.4474C60.7938 26.615 60.923 26.8185 61.003 27.0427C61.0829 27.2669 61.1115 27.5062 61.0867 27.7429C61.0867 29.0975 60.0098 32.6668 59.9218 33.1612C59.7121 34.3492 59.4293 35.5231 59.0752 36.6763C58.5943 38.2883 58.0321 39.8461 57.4903 41.6409C57.1983 42.627 56.7176 43.5471 56.0748 44.35C55.842 44.6507 55.5206 44.8706 55.156 44.9788C54.7914 45.0869 54.4021 45.0778 54.0429 44.9528C52.6139 44.4245 51.9433 43.0903 51.7876 41.3361C51.5641 38.7353 52.519 35.0847 52.7358 33.2086C52.8103 32.4636 52.8915 31.7186 52.939 30.9668C52.939 30.4859 52.9864 30.0118 52.9864 29.5309C52.9864 29.4361 52.8915 28.9417 52.8373 28.6505C52.8222 28.588 52.8109 28.5247 52.8035 28.4608V28.4066C52.4039 25.4808 53.0067 24.309 53.7788 24.5326ZM59.3935 28.7182C59.4813 28.7283 59.5699 28.7283 59.6576 28.7182C59.5699 28.7283 59.4813 28.7283 59.3935 28.7182V28.7182Z" fill="#005000"/><path fill-rule="evenodd" clip-rule="evenodd" d="M61.7625 43.3137C61.7431 43.6353 61.6097 43.9395 61.3862 44.1716C61.1628 44.4038 60.8639 44.5486 60.5433 44.5803C60.3257 44.6122 60.1037 44.5947 59.8938 44.5291C59.6839 44.4634 59.4915 44.3513 59.331 44.201C59.1414 44.0368 59.0012 43.8232 58.9259 43.5841C58.8505 43.3449 58.8431 43.0896 58.9043 42.8464C58.9892 42.5307 59.1417 42.2372 59.3513 41.9863C59.6019 41.6747 60.0286 41.2548 60.2453 40.9839C60.6216 40.396 60.9609 39.7852 61.2612 39.1552C61.5796 38.4779 61.8776 37.8006 62.1485 37.1233C62.4194 36.446 63.1847 34.895 64.1397 33.0596C64.817 31.7524 65.5688 30.3504 66.28 29.1178C67.323 27.3568 68.3592 26.0226 68.9891 25.7313C70.1608 25.1827 71.1361 25.6771 71.8473 26.9708C73.019 29.0907 73.405 34.0145 73.5676 35.2811C73.9226 36.9431 74.1491 38.6301 74.2449 40.3269C74.2768 41.3177 73.9973 42.2936 73.4457 43.1173C73.3318 43.2583 73.1913 43.3755 73.0322 43.4621C72.8731 43.5488 72.6984 43.6033 72.5182 43.6225C72.338 43.6417 72.1559 43.6252 71.9821 43.5739C71.8083 43.5227 71.6462 43.4377 71.5052 43.3239C71.3642 43.21 71.2471 43.0695 71.1604 42.9104C71.0737 42.7513 71.0192 42.5766 71.0001 42.3965C70.9809 42.2163 70.9974 42.0341 71.0486 41.8603C71.0999 41.6864 71.1848 41.5244 71.2987 41.3835C71.6098 40.8448 71.7382 40.2199 71.6644 39.6022C71.6644 38.1121 71.3935 36.4528 71.3258 35.5385C71.2648 34.7731 71.2174 32.5584 70.8923 30.5468C70.7784 29.6384 70.5343 28.7511 70.1676 27.9122C70.1056 27.7931 70.0331 27.6797 69.9509 27.5735C69.9034 27.5261 69.8696 27.4652 69.8087 27.4923C69.5353 27.701 69.3053 27.9609 69.1314 28.2576C68.4794 29.1876 67.8911 30.1606 67.3704 31.17C66.2181 33.3666 65.1937 35.628 64.3023 37.9428C64.0178 38.7894 63.6995 39.6902 63.3405 40.5572C63.0964 41.1583 62.8206 41.7462 62.5142 42.3181C62.283 42.6642 62.032 42.9966 61.7625 43.3137ZM60.6856 41.8643C60.5363 41.8291 60.381 41.8291 60.2318 41.8643C60.3818 41.8372 60.5355 41.8372 60.6856 41.8643V41.8643Z" fill="#005000"/><path fill-rule="evenodd" clip-rule="evenodd" d="M70.9434 37.1708C70.3704 37.012 69.7863 36.8965 69.196 36.8253C68.5883 36.767 67.9775 36.7467 67.3673 36.7644C66.7239 36.7644 66.094 36.8321 65.5386 36.8999C64.9603 36.9696 64.3876 37.0805 63.8251 37.2317C63.6445 37.2508 63.462 37.2342 63.2878 37.1828C63.1137 37.1314 62.9514 37.0461 62.8102 36.932C62.669 36.8179 62.5517 36.677 62.4649 36.5175C62.3782 36.358 62.3237 36.183 62.3046 36.0024C62.2854 35.8219 62.302 35.6393 62.3535 35.4652C62.4049 35.2911 62.4901 35.1288 62.6043 34.9876C62.7184 34.8464 62.8593 34.7291 63.0188 34.6423C63.1783 34.5556 63.3533 34.5011 63.5339 34.4819C63.8928 34.4819 64.6107 34.5971 65.5183 34.6919C66.094 34.7528 66.7374 34.807 67.3944 34.8341C68.0513 34.8612 68.6745 34.8815 69.2705 34.8341C70.0358 34.8003 70.6996 34.719 71.2008 34.6919C71.6067 34.658 72.0154 34.6994 72.4063 34.8138C72.7788 34.9154 72.9007 35.2134 73.0362 35.3692C73.1315 35.5216 73.1938 35.6924 73.2191 35.8704C73.341 36.2158 73.1513 36.5477 72.9211 36.9744C72.8085 37.118 72.6681 37.2374 72.5083 37.3254C72.3485 37.4134 72.1725 37.4683 71.991 37.4866C71.8095 37.505 71.6261 37.4864 71.4519 37.4322C71.2777 37.3779 71.1162 37.289 70.9772 37.1708H70.9434ZM70.5235 35.7552C70.4622 35.8886 70.4433 36.0375 70.4693 36.1819C70.4645 36.0377 70.4828 35.8937 70.5235 35.7552ZM70.625 35.4911C70.6682 35.4066 70.7204 35.3272 70.7808 35.2541C70.7099 35.3188 70.6564 35.4003 70.625 35.4911Z" fill="#005000"/><path fill-rule="evenodd" clip-rule="evenodd" d="M80.1616 28.3864C79.7756 29.4159 79.3895 31.6306 79.2202 32.037C78.8951 32.9446 78.3872 34.0147 77.9334 35.1593C77.2874 36.6069 76.8321 38.1323 76.5788 39.6971C76.5065 39.9746 76.5007 40.2651 76.5619 40.5452C76.6231 40.8253 76.7496 41.0871 76.931 41.3091C77.0609 41.3919 77.2105 41.4387 77.3644 41.4445C77.7658 41.4804 78.1704 41.453 78.5633 41.3632C78.7434 41.3441 78.9254 41.3607 79.0992 41.4119C79.2729 41.4632 79.4348 41.5481 79.5757 41.662C79.7166 41.7758 79.8336 41.9163 79.9202 42.0754C80.0068 42.2344 80.0613 42.409 80.0804 42.5891C80.0995 42.7692 80.0829 42.9514 80.0317 43.1251C79.9804 43.2988 79.8955 43.4607 79.7816 43.6016C79.6678 43.7425 79.5273 43.8595 79.3682 43.9461C79.2092 44.0327 79.0346 44.0871 78.8545 44.1063C76.8903 44.1808 75.7389 43.6593 75.1158 42.833C74.7279 42.3271 74.4929 41.7207 74.4385 41.0856C74.2557 39.2637 75.3258 36.5477 76.2875 34.0756C76.66 33.1071 76.9648 32.1724 77.1951 31.3665C77.3103 30.8924 77.4051 28.2442 77.6963 27.235C77.7764 26.9167 77.9469 26.6283 78.1872 26.4048C78.4276 26.1812 78.7276 26.032 79.0509 25.9752C79.3484 25.9184 79.6564 25.9629 79.9257 26.1017C80.1949 26.2404 80.4099 26.4654 80.5363 26.7408C80.6626 27.0161 80.693 27.3258 80.6227 27.6204C80.5523 27.915 80.3852 28.1776 80.1481 28.3661L80.1616 28.3864Z" fill="#005000"/><path fill-rule="evenodd" clip-rule="evenodd" d="M82.5231 26.2392C82.2928 27.736 82.1506 29.3682 82.0558 31.0479C82.0558 31.7252 81.9813 32.4025 81.9474 33.0798C81.9 34.2311 81.8594 35.3758 81.8594 36.4662C81.8594 37.5566 81.8594 38.8232 81.9609 39.9068C82.0159 40.9325 82.3612 41.9213 82.9566 42.7582C83.3226 43.2422 83.836 43.594 84.4195 43.7606C85.2932 44.0112 86.404 43.7606 87.6705 42.406C87.9013 42.1213 88.0096 41.7566 87.9715 41.392C87.9334 41.0275 87.752 40.693 87.4673 40.4622C87.1826 40.2314 86.8179 40.1231 86.4533 40.1612C86.0888 40.1993 85.7543 40.3807 85.5235 40.6654C85.3889 40.909 85.2042 41.1214 84.9817 41.2885C84.9343 41.2885 84.9207 41.3901 84.8801 41.363C84.3909 40.9352 84.0833 40.3369 84.0199 39.6901C83.8787 38.6185 83.795 37.54 83.7693 36.4594C83.7494 35.3676 83.7901 34.2755 83.8912 33.1881C83.9522 32.5108 84.0402 31.881 84.1486 31.2443C84.4092 29.7491 84.7644 28.2719 85.212 26.8216C85.2529 26.6437 85.2583 26.4595 85.228 26.2795C85.1978 26.0995 85.1323 25.9272 85.0355 25.7725C84.9386 25.6178 84.8123 25.4837 84.6636 25.3778C84.5149 25.272 84.3468 25.1964 84.1689 25.1555C83.991 25.1146 83.8068 25.1091 83.6268 25.1394C83.4468 25.1696 83.2745 25.2351 83.1198 25.3319C82.9651 25.4288 82.831 25.5552 82.7251 25.7038C82.6193 25.8525 82.5437 26.0206 82.5028 26.1985L82.5231 26.2392Z" fill="#005000"/><path fill-rule="evenodd" clip-rule="evenodd" d="M91.6142 33.7977C91.1942 33.6961 90.7066 32.3009 90.5982 32.1181C90.1107 31.4398 89.6586 30.7367 89.2437 30.0117C88.9321 29.5173 88.6273 29.0296 88.3496 28.5352C88.0083 27.9342 87.7443 27.2925 87.564 26.6252C87.5317 26.2606 87.6455 25.8981 87.8805 25.6174C88.1155 25.3366 88.4523 25.1608 88.817 25.1284C89.1816 25.0961 89.5442 25.21 89.8249 25.4449C90.1056 25.6799 90.2814 26.0168 90.3138 26.3814C90.2762 26.6669 90.2762 26.9561 90.3138 27.2416C90.3827 27.7358 90.5171 28.2187 90.7134 28.6774C90.904 29.0723 91.1308 29.4486 91.3907 29.8017C91.6545 30.1508 91.9395 30.4833 92.244 30.7973C92.4405 30.9802 93.6664 31.9081 94.0389 32.3212C94.2275 32.5594 94.3365 32.8508 94.3504 33.1543C94.3603 33.3436 94.3303 33.5328 94.2624 33.7097C94.1676 34.1974 93.7477 34.4479 93.0839 34.6308C92.7808 34.679 92.4703 34.6228 92.2032 34.4715C91.9362 34.3201 91.7285 34.0826 91.6142 33.7977ZM92.3389 31.9894C92.2204 32.021 92.1127 32.0842 92.0273 32.1722C92.1222 32.0971 92.227 32.0355 92.3389 31.9894V31.9894ZM92.5556 31.9149L92.7385 31.881C92.6758 31.8785 92.6133 31.8901 92.5556 31.9149V31.9149Z" fill="#005000"/><path fill-rule="evenodd" clip-rule="evenodd" d="M95.0686 26.9436C95.0783 27.3391 94.9874 27.7307 94.8045 28.0815C94.3845 29.05 93.775 30.0253 93.5108 30.6755C93.0164 31.7659 92.5287 32.8699 91.9937 33.9603C91.4586 35.0508 90.8897 36.1005 90.314 37.1639C89.8467 38.0105 89.3658 38.8503 88.8782 39.6834C88.1332 40.9499 87.361 42.1758 86.616 43.4085C86.4454 43.7327 86.4105 44.1115 86.5191 44.4614C86.6277 44.8113 86.8709 45.1038 87.1951 45.2744C87.5194 45.4451 87.8981 45.4799 88.248 45.3713C88.5979 45.2627 88.8904 45.0196 89.0611 44.6954C89.6503 43.3408 90.226 42.0336 90.8355 40.6993C91.2351 39.8189 91.6483 38.9452 92.0682 38.0715C92.6033 36.981 93.1383 35.8906 93.6869 34.8137C94.2355 33.7368 94.8383 32.6599 95.3937 31.5898C95.8001 30.9125 96.7483 29.7814 97.2698 28.752C97.621 28.1314 97.8119 27.433 97.8252 26.7201C97.8123 26.5391 97.7639 26.3624 97.6827 26.2001C97.6015 26.0378 97.4891 25.8931 97.352 25.7743C97.2149 25.6554 97.0558 25.5647 96.8836 25.5074C96.7115 25.45 96.5296 25.4271 96.3486 25.44C96.1676 25.4529 95.991 25.5014 95.8287 25.5825C95.6664 25.6637 95.5217 25.7761 95.4028 25.9132C95.284 26.0503 95.1933 26.2094 95.1359 26.3816C95.0786 26.5537 95.0557 26.7355 95.0686 26.9165V26.9436Z" fill="#005000"/><path fill-rule="evenodd" clip-rule="evenodd" d="M9.09525 63.9847C9.10603 63.6254 9.25905 63.2852 9.5207 63.0387C9.78236 62.7923 10.1312 62.6599 10.4905 62.6707C10.8497 62.6815 11.19 62.8346 11.4364 63.0962C11.6828 63.3579 11.8152 63.7067 11.8044 64.0659C11.8143 64.3665 11.7622 64.6659 11.6515 64.9455C11.5409 65.2252 11.3739 65.4791 11.161 65.6915C9.40795 67.2543 7.26788 68.3185 4.96376 68.7731C4.44114 68.901 3.8971 68.9145 3.36876 68.8128C2.84043 68.7111 2.34027 68.4966 1.90245 68.1839C1.25902 67.6217 0.812012 66.6803 1.05584 65.1293C1.34998 63.4288 1.97842 61.8036 2.90482 60.3476C3.56034 59.2903 4.29624 58.2849 5.10601 57.3405C5.91198 56.3719 6.75859 55.4576 7.59843 54.6313C9.13587 53.0668 10.4701 52.1931 11.398 52.017C11.6937 51.9604 11.998 51.9655 12.2917 52.0319C12.5854 52.0984 12.8622 52.2247 13.1048 52.403C13.6602 52.7823 14.1275 53.5815 14.3442 54.9496C14.3634 55.1302 14.3467 55.3127 14.2953 55.4869C14.2439 55.661 14.1586 55.8233 14.0445 55.9645C13.9303 56.1057 13.7895 56.223 13.63 56.3098C13.4705 56.3965 13.2955 56.451 13.115 56.4701C12.9344 56.4893 12.7519 56.4727 12.5777 56.4212C12.4036 56.3698 12.2413 56.2846 12.1001 56.1704C11.9589 56.0563 11.8416 55.9154 11.7548 55.7559C11.668 55.5965 11.6136 55.4214 11.5944 55.2409C11.5747 55.0826 11.5337 54.9277 11.4725 54.7803C11.0394 54.8864 10.6241 55.0552 10.2399 55.2815C9.87413 55.5456 9.48805 55.8572 9.06813 56.2162C7.61068 57.4601 6.2955 58.8616 5.14664 60.395C4.03811 61.8646 3.30568 63.5828 3.01317 65.4002C2.93867 66.003 2.95902 66.3958 3.21639 66.599C3.47376 66.8022 4.02236 66.7412 4.57097 66.599C6.28493 66.1459 7.84681 65.2434 9.09525 63.9847V63.9847Z" fill="#005000"/><path fill-rule="evenodd" clip-rule="evenodd" d="M17.7616 58.5321C17.8265 58.3322 17.9353 58.1494 18.0799 57.997C18.6808 57.4144 19.3893 56.9543 20.166 56.6424C20.8482 56.3424 21.6164 56.3014 22.3266 56.5273C23.1867 56.8592 24.0401 57.7058 23.7827 59.6767C23.5254 61.6476 22.1911 63.7404 20.3624 65.2711C18.5338 66.8018 16.17 67.838 14.1585 67.3842C13.8862 67.3237 13.6393 67.1807 13.4514 66.9746C13.2636 66.7685 13.1439 66.5095 13.1087 66.2328C13.0419 65.2751 13.1996 64.315 13.5692 63.4289C14.7835 61.6483 16.1894 60.0062 17.7616 58.5321V58.5321ZM21.3445 60.3607C21.1371 60.5416 20.8796 60.655 20.6063 60.6859C20.4188 60.7089 20.2285 60.6925 20.0477 60.6377C19.8669 60.5829 19.6996 60.4909 19.5565 60.3675C19.3006 60.5197 19.0541 60.687 18.8182 60.8687C17.5301 61.9523 16.3485 63.1566 15.2895 64.4651C15.2893 64.843 15.269 65.2205 15.2286 65.5962C16.6814 65.4844 18.0451 64.8519 19.0688 63.8149C20.1243 62.8892 20.9105 61.6959 21.3445 60.3607V60.3607Z" fill="#005000"/><path fill-rule="evenodd" clip-rule="evenodd" d="M27.9205 62.0815C28.179 60.9333 28.577 59.821 29.1057 58.7695C30.1565 56.7443 31.4433 54.8505 32.9391 53.1277C33.2372 52.762 34.8085 50.9265 35.9734 50.3644C36.2621 50.1903 36.5961 50.1063 36.9327 50.1232C37.2694 50.1401 37.5933 50.2571 37.863 50.4592C38.1177 50.7023 38.2932 51.0164 38.3669 51.3607C38.4406 51.7049 38.409 52.0634 38.2762 52.3895C37.7467 53.7254 37.0381 54.9831 36.1698 56.1281C34.8199 58.0108 33.3422 59.7985 31.7472 61.4787C31.2053 62.0476 30.6567 62.603 30.0946 63.1516C30.0946 63.2803 30.0946 63.409 30.0946 63.5309C30.0842 63.6188 30.0982 63.7078 30.1352 63.7882C30.1352 63.7882 30.1352 63.7882 30.1691 63.7882C30.2101 63.8058 30.2534 63.8172 30.2977 63.8221C30.4664 63.8427 30.637 63.8427 30.8057 63.8221C31.1372 63.7858 31.464 63.7155 31.781 63.6121C32.4385 63.446 33.0395 63.1069 33.5216 62.6301C33.7516 62.3445 34.0855 62.1619 34.4501 62.1225C34.8146 62.0831 35.1799 62.1902 35.4655 62.4201C35.7511 62.65 35.9336 62.984 35.973 63.3485C36.0124 63.7131 35.9053 64.0783 35.6754 64.3639C35.0555 65.0122 34.2923 65.5063 33.4471 65.8065C32.2745 66.2945 30.9876 66.4401 29.7356 66.2265C29.0782 66.0833 28.5011 65.6929 28.1236 65.136L28.083 65.0615C27.636 65.4544 27.1822 65.8472 26.7284 66.2332C25.8865 66.9426 24.9635 67.5496 23.9786 68.0416C23.5987 68.2191 23.1907 68.329 22.7731 68.3667C22.3416 68.3863 21.9193 68.2382 21.5946 67.9536C21.2984 67.6883 21.1144 67.3202 21.0799 66.9241C21.0583 66.7434 21.0733 66.5603 21.1241 66.3855C21.1749 66.2108 21.2604 66.0481 21.3755 65.9071C21.4905 65.7662 21.6328 65.6498 21.7938 65.5651C21.9548 65.4803 22.1312 65.4288 22.3125 65.4137C22.5445 65.391 22.7783 65.4308 22.9898 65.5289L23.1727 65.4544C23.8709 65.1217 24.5355 64.7225 25.1571 64.2623C26.0985 63.5444 27.0264 62.8265 27.9205 62.0815ZM23.728 66.4093C23.7487 66.4847 23.7623 66.5618 23.7687 66.6396C23.7635 66.5616 23.7499 66.4844 23.728 66.4093V66.4093ZM36.1563 52.552C36.1151 52.5775 36.0765 52.607 36.0411 52.6401C35.4657 53.1682 34.9356 53.7436 34.4563 54.3604C33.3634 55.6996 32.3932 57.1344 31.5575 58.6476C32.6395 57.4856 33.6592 56.267 34.6121 54.997C35.1216 54.316 35.5876 53.6034 36.0073 52.8636C36.0646 52.7625 36.1166 52.6585 36.163 52.552H36.1563Z" fill="#005000"/><path fill-rule="evenodd" clip-rule="evenodd" d="M38.921 62.0543C39.0023 61.724 39.1018 61.3984 39.219 61.079C40.5735 57.3336 44.3934 52.4504 45.4839 51.2787C46.8385 49.7886 48.2472 49.9986 48.9245 50.6759C49.6018 51.3531 49.8253 52.5858 48.8229 54.0962C48.4504 54.6651 48.0644 55.2205 47.6919 55.7962C47.4616 56.1619 47.2381 56.5344 47.0146 56.9137C46.6332 57.6078 46.1791 58.2594 45.66 58.8575C44.9353 59.6973 44.1226 60.483 43.3911 61.2551C42.6021 62.0753 41.77 62.853 40.8986 63.585C40.8903 63.7974 40.9522 64.0067 41.0746 64.1805C41.197 64.3543 41.3731 64.483 41.5759 64.5467C41.8287 64.6406 42.0982 64.6813 42.3674 64.6661C42.6366 64.651 42.8998 64.5803 43.1404 64.4587C44.045 63.897 44.8678 63.2133 45.5855 62.4268C46.3437 61.6833 47.3053 61.1813 48.3488 60.9842C48.5294 60.9651 48.7119 60.9817 48.886 61.0331C49.0602 61.0845 49.2225 61.1698 49.3637 61.2839C49.5049 61.3981 49.6222 61.5389 49.709 61.6984C49.7957 61.8579 49.8502 62.0329 49.8693 62.2135C49.8884 62.394 49.8718 62.5766 49.8204 62.7507C49.769 62.9248 49.6838 63.0871 49.5696 63.2283C49.4555 63.3695 49.3146 63.4869 49.1551 63.5736C48.9956 63.6604 48.8206 63.7149 48.6401 63.734C47.9519 63.8996 47.3291 64.2676 46.852 64.7906C46.0509 65.5589 45.1374 66.2007 44.1429 66.6937C43.609 66.9276 43.0325 67.0484 42.4496 67.0484C41.8668 67.0484 41.2903 66.9276 40.7564 66.6937C40.0223 66.4264 39.4202 65.8851 39.0767 65.1834L38.6839 65.5424C38.0717 66.1058 37.5055 66.7173 36.9907 67.371C36.759 67.6548 36.424 67.835 36.0595 67.8718C35.6949 67.9087 35.3307 67.7992 35.0469 67.5674C34.7631 67.3357 34.5829 67.0007 34.5461 66.6362C34.5092 66.2717 34.6187 65.9074 34.8504 65.6236C35.5013 64.8928 36.2078 64.2135 36.9636 63.5918C37.5664 63.0906 38.2504 62.569 38.921 62.0543ZM47.5632 52.0846C47.3116 52.2021 47.0824 52.3626 46.8859 52.5587C45.1547 54.6054 43.6323 56.8198 42.3413 59.1691C42.9305 58.6205 43.5469 58.0651 44.1022 57.4691C44.5547 57.0043 44.9545 56.491 45.2943 55.9384L47.2245 53.0261C47.4146 52.7766 47.5381 52.483 47.5835 52.1727C47.5832 52.1422 47.5762 52.1121 47.5632 52.0846V52.0846Z" fill="#005000"/><path fill-rule="evenodd" clip-rule="evenodd" d="M56.5704 53.8724C56.8182 53.7763 57.0744 53.7037 57.3358 53.6556C57.6625 53.5947 58.0002 53.6385 58.3006 53.7808C58.601 53.9231 58.8488 54.1566 59.0087 54.4481C59.0389 54.4997 59.0638 54.5541 59.0832 54.6106C59.7139 55.0291 60.2219 55.6078 60.5552 56.2874C60.8884 56.967 61.0349 57.7231 60.9796 58.4779C60.9322 60.4556 59.4896 62.5959 57.5931 63.9301C55.5071 65.3998 52.9537 65.8604 51.1792 64.411C50.4071 63.8082 50.2378 62.5078 50.6713 60.9636C51.1971 59.3354 51.9666 57.7963 52.9537 56.3987C52.9294 56.1891 52.9527 55.9766 53.0219 55.7773C53.0911 55.5779 53.2043 55.3968 53.3533 55.2473C54.2223 54.4122 55.3663 53.9233 56.5704 53.8724ZM56.3469 56.717C56.0055 56.8305 55.6728 56.9686 55.3513 57.1301C55.3271 57.151 55.3045 57.1736 55.2836 57.1979C55.2102 57.2726 55.1284 57.3385 55.0398 57.3943C54.2947 58.2083 53.6636 59.1197 53.1637 60.1035C52.7955 60.765 52.5262 61.4769 52.3645 62.2166C52.3349 62.4005 52.3349 62.588 52.3645 62.772C52.3645 62.8262 52.3645 62.8803 52.3645 62.9074C53.5091 63.8285 55.1346 63.307 56.4282 62.3385C57.7219 61.37 58.8055 59.8461 58.7852 58.4509C58.7816 57.9177 58.587 57.4034 58.2366 57.0015C57.9927 57.1821 57.6953 57.2756 57.3919 57.267C57.0886 57.2584 56.7969 57.1482 56.5637 56.954C56.4844 56.8867 56.4118 56.8119 56.3469 56.7305V56.717Z" fill="#005000"/><path fill-rule="evenodd" clip-rule="evenodd" d="M67.1372 53.5679C67.2708 53.4495 67.411 53.3387 67.5571 53.2361C68.9117 52.2472 70.2663 51.8815 71.3025 52.4504C72.3388 53.0193 72.6571 54.0827 72.1491 55.5185C71.6412 56.9544 70.1173 59.1556 69.2707 60.8217C69.0991 61.1862 68.9586 61.5646 68.8507 61.9528C69.2232 62.1695 69.6432 61.9054 70.0157 61.6344C70.6584 61.1675 71.1598 60.5324 71.4651 59.799C71.5287 59.6291 71.6251 59.4734 71.7489 59.3408C71.8726 59.2082 72.0213 59.1013 72.1864 59.0261C72.3515 58.951 72.5298 58.909 72.711 58.9028C72.8923 58.8965 73.0731 58.926 73.2429 58.9896C73.4128 59.0532 73.5685 59.1497 73.7011 59.2734C73.8338 59.3972 73.9407 59.5459 74.0159 59.7109C74.091 59.876 74.1329 60.0543 74.1392 60.2356C74.1454 60.4169 74.1159 60.5976 74.0523 60.7675C73.352 62.2445 72.1696 63.4389 70.6997 64.154C70.0886 64.4759 69.3862 64.5802 68.7079 64.4497C68.0296 64.3192 67.4159 63.9617 66.9679 63.436C66.7283 63.1502 66.5678 62.8065 66.5024 62.4393C66.4371 62.0721 66.4691 61.6942 66.5954 61.3432C67.022 59.8329 69.0404 57.3608 69.9818 55.4169C70.1633 55.0936 70.2936 54.744 70.3679 54.3807C70.3679 54.2926 70.4424 54.2046 70.3679 54.1707C70.2494 54.1227 70.1218 54.1014 69.9942 54.1084C69.8666 54.1154 69.7421 54.1506 69.6296 54.2114C69.0104 54.4822 68.444 54.8605 67.9567 55.3289C67.7197 55.5456 67.4826 55.7691 67.2794 56.0062C66.9408 56.7647 66.4938 57.6655 66.3651 57.8687C65.4181 59.54 64.378 61.1568 63.2495 62.7113C62.9606 63.1002 62.6186 63.4467 62.2336 63.7408C62.0092 63.9012 61.7486 64.0035 61.4751 64.0388C61.2295 64.0816 60.9768 64.0374 60.7604 63.9137C60.5441 63.7901 60.3776 63.5948 60.2898 63.3615C60.1776 63.1002 60.1608 62.8077 60.2424 62.5352C60.4153 62.1705 60.6122 61.8175 60.8317 61.4787C61.1432 60.8623 61.509 60.246 61.8476 59.6568C62.1042 59.244 62.387 58.8481 62.6942 58.4715C62.999 58.099 63.4731 57.4759 64.0488 56.7647L64.1301 56.5887C64.2181 56.4329 64.5703 55.5253 64.8073 54.9564C64.7825 54.7729 64.7955 54.5863 64.8456 54.4081C64.8957 54.2299 64.9818 54.0638 65.0986 53.9201C65.2056 53.7587 65.3445 53.6208 65.5067 53.5149C65.6689 53.409 65.851 53.3374 66.0419 53.3044C66.2328 53.2714 66.4284 53.2778 66.6168 53.3231C66.8051 53.3684 66.9822 53.4517 67.1372 53.5679V53.5679Z" fill="#005000"/><path fill-rule="evenodd" clip-rule="evenodd" d="M78.6935 53.0528C79.9668 49.3142 81.6126 47.2078 81.6871 49.5648C82.168 49.7951 82.0732 51.1835 81.301 52.9512C81.1994 53.4795 81.0775 54.062 80.9285 54.7054C80.8505 54.9279 80.7157 55.1262 80.5375 55.2806C80.3593 55.435 80.1439 55.5402 79.9126 55.5859L79.872 55.6739C79.6417 56.1548 79.4114 56.6899 79.1947 57.2385C78.8764 58.0512 78.5784 58.8911 78.3481 59.6496C78.1098 60.3649 77.9442 61.1024 77.8536 61.8508V61.7628C77.8536 61.7628 77.9146 62.2301 77.9146 62.4401C77.8742 62.7428 77.7472 63.0273 77.5489 63.2596C77.2642 63.5795 76.8707 63.7823 76.4449 63.8285C76.1546 63.8779 75.8561 63.8313 75.5946 63.6958C75.3332 63.5603 75.123 63.3433 74.9959 63.0776C74.8688 62.812 74.8318 62.5122 74.8904 62.2236C74.9489 61.935 75.1 61.6734 75.3206 61.4783C75.4831 60.9568 75.9979 59.8122 76.6007 58.4711C76.8716 57.8616 77.1493 57.1978 77.4134 56.5544C77.6776 55.911 77.8604 55.4504 78.0433 54.9425C78.111 54.7596 78.1787 54.5835 78.2329 54.4074C78.2107 54.2012 78.2363 53.9927 78.3074 53.7979C78.4497 53.4999 78.5919 53.2696 78.6935 53.0528Z" fill="#005000"/><path fill-rule="evenodd" clip-rule="evenodd" d="M86.7663 51.2445C85.2627 52.4636 84.8428 53.3441 85.1272 54.211C85.4117 55.0779 86.3192 56.0058 87.0033 56.9202C87.9312 58.1528 88.5678 59.4736 88.1411 61.0991C87.5045 63.8082 84.5244 64.5735 82.7228 63.8488C82.3628 63.7075 82.035 63.4948 81.7592 63.2236C81.4834 62.9524 81.2652 62.6283 81.1177 62.2707C80.9442 61.7841 80.8763 61.2661 80.9183 60.7511C80.9604 60.2362 81.1114 59.736 81.3615 59.2839C81.4442 59.1229 81.5578 58.9798 81.6959 58.8627C81.8339 58.7456 81.9936 58.6569 82.166 58.6016C82.3383 58.5462 82.5198 58.5253 82.7002 58.5402C82.8806 58.555 83.0563 58.6052 83.2173 58.6879C83.3783 58.7706 83.5214 58.8842 83.6384 59.0223C83.7555 59.1603 83.8443 59.32 83.8996 59.4924C83.955 59.6647 83.9758 59.8462 83.961 60.0266C83.9462 60.207 83.896 60.3827 83.8133 60.5437C83.6786 60.7374 83.5841 60.9562 83.5356 61.1871C83.5356 61.2954 83.4814 61.3903 83.5356 61.458C83.6753 61.6037 83.8507 61.7104 84.0443 61.7674C84.238 61.8244 84.4432 61.8298 84.6396 61.7831C84.9919 61.7517 85.3274 61.6184 85.6052 61.3995C85.883 61.1806 86.0911 60.8856 86.2041 60.5504C86.6308 59.0943 85.4794 58.0512 84.6193 56.954C83.7591 55.8568 83.0073 54.6106 83.1563 53.2289C83.2647 52.1995 83.8336 51.0142 85.3778 49.6122C85.7643 49.2352 86.2746 49.0114 86.8137 48.9823C87.8161 48.9078 88.7914 49.707 89.3603 50.8381C89.8142 51.7428 89.9086 52.7858 89.6244 53.7572C89.4999 54.118 89.2763 54.4363 88.9792 54.6759C88.6822 54.9155 88.3237 55.0665 87.9447 55.1118C87.7646 55.1384 87.5809 55.1284 87.4047 55.0824C87.2285 55.0364 87.0634 54.9553 86.9193 54.844C86.7751 54.7327 86.6549 54.5935 86.5657 54.4347C86.4766 54.2759 86.4205 54.1008 86.4006 53.9198C86.3657 53.6522 86.4115 53.3803 86.5322 53.139C86.6528 52.8977 86.8429 52.6979 87.0778 52.5652C87.0033 52.2943 87.1726 51.7863 87.0101 51.5086C86.8949 51.3935 86.7189 51.3258 86.7663 51.2445Z" fill="#005000"/><path fill-rule="evenodd" clip-rule="evenodd" d="M94.4328 51.5564C94.5073 51.4615 94.575 51.3667 94.6495 51.2855C95.558 50.4444 96.7506 49.9775 97.9886 49.9783C98.4661 49.9365 98.9464 50.0143 99.3863 50.2046C99.8262 50.395 100.212 50.692 100.508 51.0687C101.456 52.491 100.955 53.9404 99.7834 55.1324C98.3746 56.5344 95.9025 57.3743 94.5615 57.1643C94.4675 57.1482 94.3747 57.1255 94.2838 57.0966C94.201 57.727 94.2331 58.3672 94.3786 58.9862C94.4826 59.4135 94.7375 59.7888 95.0965 60.0428C95.7649 60.393 96.5389 60.4846 97.2706 60.3002C97.5065 60.2725 97.7358 60.2038 97.9479 60.097C98.3746 59.8735 98.5778 59.5416 99.1738 59.1217C99.3268 59.0239 99.4976 58.9571 99.6763 58.9252C99.8551 58.8934 100.038 58.8971 100.216 58.9361C100.393 58.9751 100.561 59.0486 100.71 59.1525C100.859 59.2564 100.986 59.3886 101.084 59.5416C101.182 59.6946 101.248 59.8653 101.28 60.0441C101.312 60.2229 101.308 60.4062 101.269 60.5836C101.23 60.7609 101.157 60.9288 101.053 61.0778C100.949 61.2267 100.817 61.3537 100.664 61.4516C99.8985 61.8986 99.5937 62.244 99.0654 62.4743C98.5741 62.6753 98.0516 62.7899 97.5212 62.8129C96.1793 63.0018 94.8158 62.6724 93.7081 61.8918C92.9591 61.2869 92.4462 60.4384 92.2587 59.4942C92.0353 58.1675 92.1328 56.8066 92.5431 55.5253C92.2371 54.9957 92.0478 54.4069 91.9878 53.7982C91.9615 53.3201 92.0872 52.846 92.3467 52.4436C92.509 52.196 92.7245 51.9878 92.9777 51.8342C93.2308 51.6807 93.5151 51.5858 93.8097 51.5564C94.0145 51.5079 94.2279 51.5079 94.4328 51.5564ZM94.9611 54.5568C95.0288 54.6516 95.1372 54.7735 95.1372 54.7735H95.0762C96.0696 54.8561 97.0597 54.5798 97.8667 53.9946C98.6252 53.5002 99.3431 52.8703 98.8758 52.1117C98.8304 52.0575 98.7747 52.0129 98.7119 51.9803C98.6491 51.9478 98.5805 51.928 98.51 51.9221C98.2205 51.8777 97.9259 51.8777 97.6364 51.9221C97.0839 51.9454 96.5538 52.1474 96.126 52.4978C95.6513 53.1291 95.2597 53.8188 94.9611 54.55V54.5568Z" fill="#005000"/><path fill-rule="evenodd" clip-rule="evenodd" d="M115.632 52.8294C115.657 53.0124 115.645 53.1988 115.596 53.377C115.548 53.5552 115.463 53.7215 115.347 53.8657C114.121 55.2948 111.588 58.8031 109.089 60.1374C107.524 60.9705 105.967 61.1059 104.565 59.8936C104.361 59.7053 104.203 59.4734 104.103 59.2154C104.002 58.9573 103.961 58.6798 103.982 58.4035C103.982 56.8525 105.337 53.6625 107.098 51.3055C107.909 50.1024 109.021 49.1313 110.322 48.488C111.074 48.1689 111.918 48.1376 112.692 48.4C113.596 48.9263 114.395 49.6152 115.049 50.4319C115.423 50.9019 115.658 51.4674 115.726 52.0641C115.759 52.3231 115.727 52.5863 115.632 52.8294ZM111.778 50.547C111.432 50.4671 111.07 50.5203 110.762 50.696C109.95 51.1521 109.24 51.7699 108.676 52.5111C107.425 54.0675 106.516 55.8698 106.007 57.8007C105.966 58.0241 105.948 58.251 105.953 58.478C106.922 59.1553 107.938 58.5322 108.906 57.6924C110.307 56.3217 111.531 54.7814 112.55 53.1071C112.511 52.9932 112.486 52.8749 112.475 52.755C112.459 52.5667 112.481 52.3772 112.541 52.1978C112.6 52.0185 112.695 51.8531 112.821 51.7119C112.581 51.3664 112.306 51.0464 112.001 50.7569C111.886 50.6689 111.717 50.6079 111.778 50.547Z" fill="#005000"/><path fill-rule="evenodd" clip-rule="evenodd" d="M120.927 37.1706C120.893 36.82 120.998 36.4702 121.218 36.1953C121.345 36.0219 121.506 35.8762 121.691 35.7667C121.876 35.6573 122.082 35.5865 122.295 35.5586C122.482 35.5384 122.672 35.5574 122.851 35.6146C123.031 35.6717 123.197 35.7657 123.338 35.8905C123.546 36.0662 123.693 36.3033 123.758 36.5678C123.857 36.8645 123.857 37.1855 123.758 37.4821C123.561 38.024 122.566 39.873 122.302 40.3809L119.64 45.9415C119.118 47.0116 118.231 48.8403 117.344 50.9602C116.667 52.5857 115.989 54.3805 115.4 56.1144C114.499 58.8642 113.876 61.4379 114.045 62.7789C114.084 63.1435 113.976 63.5086 113.746 63.7937C113.515 64.0789 113.181 64.2608 112.816 64.2994C112.452 64.338 112.087 64.2302 111.801 63.9997C111.516 63.7691 111.334 63.4348 111.296 63.0701C111.221 61.7833 111.783 59.6024 112.684 57.1438C113.402 55.1932 114.316 53.0801 115.183 51.0482C116.267 48.5558 117.263 46.3072 117.892 45.0813C118.143 44.5327 118.373 43.9774 118.57 43.422C119.098 42.0674 119.552 40.7128 120.094 39.3583C120.209 39.0332 120.663 37.8547 120.927 37.1706ZM123.345 37.9563L123.392 37.9021L123.345 37.9563Z" fill="#005000"/></svg>