<svg width="127" height="230" viewBox="0 0 127 230" fill="none" xmlns="http://www.w3.org/2000/svg"><path d="M120.629 228.615C120.719 228.766 120.742 228.911 120.711 229.031C120.681 229.151 120.616 229.26 120.543 229.321C120.443 229.419 120.333 229.453 120.216 229.438C120.098 229.424 119.971 229.345 119.867 229.213C119.685 228.995 119.521 228.691 119.367 228.337C119.228 227.98 119.132 227.583 119.112 227.141C119.092 226.7 119.143 226.296 119.261 225.898C119.398 225.514 119.591 225.171 119.84 224.868C120.091 224.581 120.382 224.338 120.728 224.134C121.077 223.947 121.469 223.82 121.873 223.772C122.309 223.72 122.74 223.734 123.196 223.81C123.653 223.887 124.088 224.032 124.495 224.215C124.905 224.414 125.291 224.666 125.65 224.955C126.011 225.261 126.313 225.608 126.555 225.999C126.681 226.275 126.717 226.5 126.692 226.653C126.666 226.805 126.62 226.928 126.547 226.988C126.501 227.012 126.424 227.041 126.325 227.04C126.244 227.053 126.14 227.02 126.026 226.922C125.002 227.216 124.019 227.454 123.041 227.625C122.083 227.809 121.201 227.965 120.398 228.092C120.458 228.263 120.537 228.449 120.629 228.615ZM120.144 226.896C120.138 226.963 120.148 227.027 120.142 227.094C120.155 227.174 120.165 227.239 120.175 227.303C120.245 227.226 120.35 227.16 120.455 227.094C120.576 227.025 120.702 226.989 120.814 226.971C121.473 226.867 122.164 226.758 122.914 226.607C123.666 226.471 124.462 226.296 125.317 226.079C124.906 225.666 124.406 225.317 123.822 225.063C123.255 224.806 122.681 224.716 122.1 224.791C121.567 224.859 121.108 225.08 120.733 225.419C120.375 225.756 120.173 226.249 120.144 226.896Z" fill="#7400BD"/><path d="M120.916 217.475C121.02 217.408 121.124 217.44 121.242 217.552C121.376 217.661 121.476 217.859 121.554 218.127C121.7 218.597 121.848 219.084 121.997 219.57C122.161 220.054 122.312 220.557 122.482 221.073C123.03 220.996 123.575 220.904 124.118 220.796C124.077 220.555 123.993 220.255 123.885 219.911C123.78 219.582 123.672 219.237 123.53 218.881C123.387 218.526 123.247 218.186 123.11 217.863C122.972 217.54 122.862 217.278 122.773 217.045C122.722 216.938 122.668 216.815 122.63 216.69C122.593 216.564 122.574 216.452 122.571 216.337C122.57 216.238 122.605 216.149 122.658 216.074C122.711 215.999 122.802 215.951 122.914 215.932C122.947 215.926 123 215.95 123.078 216.02C123.156 216.089 123.233 216.158 123.316 216.26C123.416 216.359 123.502 216.476 123.569 216.58C123.655 216.698 123.722 216.802 123.77 216.893C124.09 217.515 124.394 218.141 124.647 218.758C124.916 219.373 125.102 219.985 125.222 220.592C125.297 220.942 125.247 221.231 125.069 221.443C124.906 221.652 124.634 221.798 124.268 221.876C123.741 221.982 123.212 222.071 122.68 222.145C122.598 222.341 122.47 222.461 122.277 222.494C122.066 222.513 121.922 222.439 121.812 222.276C121.504 222.311 121.181 222.35 120.857 222.388C120.55 222.423 120.226 222.462 119.919 222.497C119.922 222.612 119.877 222.735 119.794 222.832C119.714 222.945 119.61 223.012 119.498 223.031C119.402 223.047 119.303 223.047 119.214 223.013C119.126 222.978 119.064 222.906 118.997 222.802C118.917 222.617 118.828 222.385 118.733 222.12C118.639 221.856 118.542 221.575 118.442 221.278C118.345 220.998 118.264 220.714 118.186 220.447C118.108 220.179 118.054 219.958 118.005 219.768C117.951 219.546 117.929 219.318 117.958 219.099C117.986 218.879 118.082 218.665 118.229 218.459C118.365 218.386 118.482 218.399 118.579 218.482C118.678 218.581 118.748 218.701 118.791 218.859C118.834 219.016 118.899 219.204 118.953 219.425C119.023 219.645 119.096 219.88 119.166 220.099C119.239 220.334 119.312 220.57 119.369 220.808C119.444 221.059 119.515 221.278 119.582 221.481C119.598 221.479 119.63 221.473 119.643 221.454C119.675 221.449 119.708 221.444 119.724 221.441C119.999 221.411 120.29 221.378 120.566 221.348C120.841 221.318 121.13 221.269 121.405 221.239C121.249 220.803 121.106 220.348 120.963 219.894C120.836 219.437 120.722 219.06 120.66 218.79C120.606 218.568 120.584 218.34 120.629 218.118C120.674 217.896 120.769 217.682 120.916 217.475Z" fill="#7400BD"/><path d="M117.101 209.452C117.3 210.558 117.615 211.588 118.063 212.539C118.51 213.489 119.037 214.421 119.639 215.32C119.791 215.553 119.818 215.747 119.736 215.899C119.657 216.067 119.544 216.159 119.433 216.184C119.209 216.151 119.022 216.06 118.852 215.898C117.299 213.962 116.432 211.888 116.212 209.652C116.219 209.534 116.281 209.437 116.374 209.332C116.486 209.24 116.594 209.199 116.677 209.197C116.791 209.188 116.878 209.202 116.952 209.235C117.042 209.265 117.092 209.337 117.101 209.452ZM123.146 210.46C123.257 210.435 123.376 210.442 123.473 210.503C123.586 210.561 123.674 210.658 123.715 210.766C123.793 210.965 123.794 211.115 123.697 211.204C123.6 211.292 123.496 211.349 123.357 211.397C122.615 211.581 121.889 211.761 121.143 211.929C120.42 212.125 119.697 212.321 118.962 212.536C118.915 212.547 118.867 212.558 118.807 212.588C118.763 212.615 118.7 212.629 118.633 212.627C118.581 212.622 118.53 212.617 118.472 212.58C118.417 212.559 118.371 212.503 118.337 212.427C118.236 212.199 118.245 212.014 118.331 211.878C118.432 211.738 118.549 211.662 118.66 211.637C119.404 211.386 120.151 211.151 120.893 210.967C121.635 210.784 122.397 210.612 123.146 210.46Z" fill="#7400BD"/><path d="M122.991 206.281C123.166 206.22 123.36 206.185 123.513 206.179C123.68 206.163 123.816 206.188 123.884 206.259C124.044 206.406 124.101 206.545 124.071 206.703C124.042 206.862 123.926 206.981 123.77 207.069C123.188 207.37 122.542 207.637 121.828 207.89C121.127 208.135 120.409 208.352 119.658 208.552C118.921 208.743 118.178 208.898 117.44 209.03C116.716 209.153 116.031 209.249 115.391 209.294C115.296 209.299 115.206 209.283 115.146 209.225C115.11 209.171 115.073 209.118 115.058 209.068C114.991 209.056 114.927 209.02 114.854 208.972C114.781 208.923 114.731 208.879 114.685 208.812C114.666 208.785 114.648 208.758 114.634 208.708C114.629 208.672 114.637 208.627 114.649 208.559C114.662 208.491 114.701 208.405 114.745 208.296C114.811 208.191 114.886 208.041 115 207.864C115.373 207.43 115.741 206.96 116.103 206.454C116.475 205.961 116.838 205.455 117.2 204.949L117.059 204.829C116.981 204.744 116.911 204.615 116.842 204.485C116.772 204.355 116.775 204.215 116.854 204.101C116.951 203.955 117.081 203.886 117.221 203.888C117.361 203.891 117.56 203.951 117.783 204.074C117.982 203.76 118.19 203.459 118.375 203.154C118.573 202.84 118.758 202.535 118.93 202.239C118.961 202.198 119.019 202.139 119.103 202.061C119.188 201.983 119.272 201.905 119.357 201.827C119.451 201.763 119.554 201.712 119.644 201.67C119.733 201.628 119.814 201.631 119.878 201.666C119.951 201.715 119.988 201.769 119.994 201.863C120 201.958 120.006 202.053 119.985 202.166C119.977 202.27 119.96 202.36 119.908 202.456C119.878 202.556 119.852 202.633 119.816 202.696C119.623 203.047 119.43 203.397 119.213 203.743C119.02 204.093 118.817 204.43 118.592 204.763C118.917 205.092 119.261 205.448 119.619 205.854C119.977 206.26 120.321 206.675 120.63 207.095C121.029 206.958 121.429 206.822 121.815 206.694C122.224 206.571 122.601 206.431 122.991 206.281ZM116.053 208.246C117.263 208.026 118.414 207.748 119.551 207.421C119.123 206.827 118.609 206.252 118.005 205.66C117.409 206.544 116.758 207.406 116.053 208.246Z" fill="#7400BD"/><path d="M116.741 201.167C116.759 201.119 116.789 201.081 116.84 201.017C116.891 200.954 116.954 200.9 117.031 200.857C117.107 200.814 117.196 200.781 117.264 200.773C117.356 200.763 117.44 200.788 117.529 200.859C117.628 201.126 117.649 201.413 117.624 201.705C117.485 202.01 117.315 202.353 117.102 202.724C116.902 203.106 116.666 203.479 116.41 203.878C116.164 204.265 115.883 204.644 115.601 205.022C115.32 205.401 115.038 205.78 114.752 206.113C114.701 206.177 114.627 206.243 114.544 206.322C114.46 206.401 114.366 206.492 114.257 206.551C114.148 206.609 114.049 206.655 113.947 206.678C113.846 206.701 113.749 206.666 113.66 206.595C113.545 206.503 113.487 206.394 113.474 206.28C113.461 206.165 113.514 206.02 113.636 205.868C113.922 205.535 114.194 205.169 114.485 204.777C114.787 204.373 115.079 203.981 115.355 203.557C115.631 203.132 115.887 202.733 116.118 202.314C116.361 201.904 116.572 201.51 116.741 201.167Z" fill="#7400BD"/><path d="M109.845 202.683C110.133 202.441 110.455 202.162 110.799 201.859C111.154 201.545 111.485 201.231 111.84 200.917C112.195 200.602 112.538 200.276 112.859 199.975C113.191 199.684 113.479 199.418 113.722 199.178C113.402 198.972 113.047 198.757 112.657 198.509C112.278 198.272 111.876 198.036 111.462 197.789C111.059 197.53 110.668 197.282 110.278 197.034C109.91 196.785 109.577 196.546 109.279 196.317C109.255 196.295 109.242 196.261 109.217 196.216C109.19 196.125 109.198 196.044 109.264 195.972C109.363 195.864 109.453 195.814 109.533 195.799C109.624 195.772 109.705 195.78 109.787 195.811C109.88 195.83 109.95 195.851 110.032 195.882C110.114 195.913 110.207 195.932 110.299 195.928C110.605 196.099 110.935 196.269 111.301 196.472C111.667 196.675 112.033 196.878 112.411 197.092C112.788 197.306 113.166 197.52 113.544 197.734C113.922 197.948 114.276 198.14 114.617 198.321C114.924 198.493 115.071 198.693 115.06 198.97C115.049 199.247 114.877 199.531 114.535 199.857C113.905 200.471 113.264 201.074 112.599 201.678C111.945 202.271 111.292 202.863 110.614 203.433C110.481 203.554 110.323 203.63 110.162 203.637C110.014 203.655 109.863 203.627 109.744 203.54C109.542 203.399 109.466 203.241 109.529 203.1C109.603 202.947 109.712 202.804 109.845 202.683Z" fill="#7400BD"/><path d="M101.808 192.396C101.873 192.417 101.947 192.453 102.013 192.547C102.095 192.633 102.125 192.763 102.105 192.902C102.085 193.004 102.079 193.135 102.059 193.274C102.054 193.405 102.056 193.55 102.065 193.71C102.075 193.87 102.091 194.008 102.115 194.161C102.139 194.313 102.184 194.437 102.244 194.552C102.319 194.697 102.422 194.827 102.577 194.948C102.731 195.07 102.892 195.17 103.082 195.218C103.44 195.308 103.716 195.276 103.895 195.091C104.097 194.914 104.231 194.643 104.277 194.271C104.318 194.031 104.336 193.783 104.362 193.513C104.387 193.244 104.413 192.974 104.438 192.704C104.471 192.449 104.49 192.202 104.508 191.954C104.534 191.721 104.553 191.509 104.573 191.334C104.599 191.101 104.646 190.875 104.694 190.649C104.742 190.423 104.834 190.21 104.933 190.012C105.047 189.807 105.19 189.623 105.369 189.439C105.549 189.255 105.765 189.107 106.039 188.965C106.612 188.761 107.135 188.747 107.618 188.937C108.123 189.134 108.534 189.435 108.86 189.853C109.141 190.22 109.328 190.618 109.429 191.061C109.537 191.518 109.499 191.94 109.337 192.372C109.302 192.482 109.217 192.599 109.109 192.71C109.001 192.82 108.908 192.887 108.827 192.873C108.711 192.86 108.601 192.789 108.483 192.667C108.379 192.537 108.334 192.414 108.34 192.319C108.43 191.998 108.44 191.663 108.37 191.315C108.314 190.959 108.157 190.655 107.913 190.36C107.729 190.144 107.523 189.994 107.267 189.924C107.026 189.847 106.808 189.85 106.583 189.911C106.344 189.98 106.135 190.106 105.956 190.327C105.791 190.54 105.686 190.832 105.633 191.19C105.531 191.737 105.473 192.298 105.444 192.881C105.423 193.478 105.351 194.083 105.258 194.717C105.182 195.031 105.048 195.302 104.869 195.523C104.69 195.743 104.489 195.921 104.272 196.033C104.041 196.152 103.801 196.221 103.532 196.231C103.278 196.235 103.023 196.202 102.76 196.118C102.511 196.026 102.262 195.898 102.041 195.719C101.821 195.54 101.614 195.317 101.458 195.05C101.241 194.667 101.127 194.268 101.114 193.817C101.115 193.359 101.182 192.958 101.33 192.606C101.366 192.533 101.423 192.467 101.51 192.422C101.604 192.392 101.705 192.376 101.808 192.396Z" fill="#7400BD"/><path d="M93.4969 175.951C93.6186 176.077 93.674 176.213 93.6718 176.336C93.6697 176.46 93.6313 176.582 93.5744 176.657C93.4998 176.776 93.4005 176.834 93.2828 176.847C93.1651 176.86 93.0228 176.812 92.8921 176.707C92.6644 176.537 92.436 176.278 92.2042 175.969C91.9875 175.653 91.8037 175.288 91.6829 174.863C91.562 174.438 91.5199 174.033 91.5441 173.619C91.5896 173.214 91.6986 172.835 91.8713 172.483C92.0502 172.147 92.2776 171.843 92.5686 171.566C92.8658 171.304 93.2176 171.09 93.6003 170.952C94.013 170.801 94.4353 170.717 94.8972 170.686C95.3592 170.656 95.8156 170.698 96.2542 170.783C96.6989 170.883 97.132 171.04 97.5472 171.24C97.9686 171.454 98.3421 171.724 98.6676 172.048C98.8536 172.289 98.9396 172.5 98.9498 172.654C98.96 172.808 98.9428 172.938 98.8859 173.014C98.8469 173.047 98.7777 173.093 98.6812 173.115C98.6059 173.146 98.4971 173.137 98.3637 173.069C97.4341 173.589 96.5311 174.045 95.6187 174.435C94.7274 174.834 93.9053 175.187 93.1523 175.494C93.2501 175.647 93.3691 175.81 93.4969 175.951ZM92.631 174.388C92.6405 174.455 92.6651 174.515 92.6746 174.581C92.7054 174.657 92.73 174.717 92.7546 174.777C92.8053 174.686 92.8922 174.598 92.9792 174.51C93.0812 174.415 93.1956 174.351 93.301 174.308C93.9184 174.056 94.5659 173.792 95.2614 173.473C95.9631 173.169 96.6976 172.817 97.48 172.41C96.9855 172.102 96.419 171.876 95.793 171.762C95.1819 171.642 94.6023 171.685 94.054 171.892C93.5509 172.079 93.1545 172.399 92.8675 172.815C92.5955 173.225 92.5116 173.751 92.631 174.388Z" fill="#7400BD"/><path d="M92.1714 165.394C92.2499 165.298 92.3591 165.296 92.5056 165.367C92.6666 165.43 92.8218 165.588 92.9781 165.818C93.2606 166.222 93.5507 166.64 93.8407 167.058C94.1452 167.468 94.4427 167.9 94.7622 168.34C95.2606 168.1 95.7515 167.845 96.2349 167.576C96.1225 167.359 95.9512 167.1 95.7431 166.804C95.5424 166.523 95.3342 166.228 95.0897 165.933C94.8452 165.638 94.6081 165.358 94.3786 165.092C94.149 164.826 93.9639 164.61 93.8082 164.416C93.7268 164.33 93.638 164.229 93.5636 164.121C93.4892 164.013 93.4368 163.912 93.3988 163.804C93.3682 163.709 93.3741 163.615 93.4019 163.527C93.4297 163.439 93.5013 163.365 93.6024 163.313C93.6312 163.298 93.6895 163.304 93.7848 163.347C93.88 163.389 93.9752 163.431 94.0854 163.502C94.21 163.566 94.3277 163.652 94.4235 163.73C94.5412 163.816 94.637 163.895 94.7108 163.966C95.2057 164.461 95.6862 164.964 96.1159 165.474C96.56 165.977 96.9244 166.503 97.2236 167.045C97.4029 167.355 97.4437 167.646 97.3384 167.902C97.2476 168.151 97.0327 168.372 96.7081 168.559C96.2391 168.82 95.7627 169.068 95.2787 169.3C95.2601 169.512 95.1751 169.666 95.0018 169.756C94.8066 169.838 94.6462 169.812 94.4916 169.69C94.2097 169.818 93.9135 169.953 93.6172 170.089C93.3354 170.217 93.0392 170.352 92.7573 170.48C92.7954 170.588 92.7901 170.719 92.7409 170.837C92.6992 170.968 92.6207 171.064 92.5196 171.116C92.433 171.161 92.3388 171.192 92.2442 171.186C92.1495 171.18 92.0687 171.13 91.9729 171.052C91.8397 170.901 91.684 170.706 91.5133 170.483C91.3426 170.26 91.1644 170.023 90.9787 169.771C90.8005 169.533 90.6368 169.288 90.4805 169.057C90.3242 168.827 90.2049 168.632 90.1005 168.466C89.9812 168.271 89.8907 168.061 89.8511 167.844C89.8114 167.626 89.837 167.393 89.9134 167.151C90.0208 167.041 90.1369 167.017 90.254 167.066C90.3787 167.13 90.4819 167.223 90.5713 167.36C90.6607 167.497 90.7795 167.655 90.8988 167.85C91.0326 168.038 91.1739 168.239 91.3077 168.427C91.4489 168.628 91.5902 168.83 91.7171 169.039C91.8658 169.255 91.9996 169.443 92.1259 169.616C92.1403 169.608 92.1692 169.593 92.1762 169.571C92.205 169.556 92.2339 169.541 92.2483 169.534C92.5013 169.421 92.7687 169.3 93.0216 169.188C93.2745 169.075 93.5344 168.94 93.7874 168.827C93.5054 168.46 93.2303 168.071 92.9552 167.682C92.6946 167.285 92.4715 166.961 92.3296 166.723C92.2103 166.528 92.1198 166.319 92.0946 166.093C92.0694 165.868 92.095 165.635 92.1714 165.394Z" fill="#7400BD"/><path d="M85.0993 161.3C85.801 162.178 86.5686 162.934 87.4144 163.556C88.2601 164.179 89.1672 164.748 90.1248 165.252C90.3695 165.384 90.4857 165.542 90.4855 165.715C90.4961 165.9 90.4409 166.034 90.3551 166.109C90.1423 166.187 89.9341 166.196 89.7077 166.134C87.4205 165.171 85.671 163.76 84.4131 161.899C84.3627 161.791 84.3705 161.677 84.4028 161.54C84.458 161.406 84.5331 161.319 84.605 161.277C84.7015 161.215 84.7842 161.186 84.8653 161.18C84.9587 161.163 85.0367 161.203 85.0993 161.3ZM90.8955 159.308C90.9813 159.233 91.0885 159.183 91.2032 159.191C91.3303 159.188 91.4542 159.231 91.5414 159.306C91.705 159.444 91.7768 159.576 91.7338 159.7C91.6909 159.824 91.6265 159.923 91.5269 160.032C90.9617 160.546 90.4087 161.051 89.8328 161.553C89.2906 162.07 88.7483 162.586 88.2045 163.126C88.1677 163.158 88.131 163.19 88.0927 163.245C88.0666 163.289 88.0176 163.332 87.9579 163.363C87.9104 163.383 87.8629 163.402 87.7941 163.398C87.7359 163.405 87.6686 163.378 87.6028 163.327C87.4055 163.175 87.3246 163.008 87.3354 162.847C87.3586 162.676 87.4245 162.554 87.5103 162.479C88.0449 161.904 88.5903 161.342 89.1555 160.827C89.7207 160.312 90.3089 159.799 90.8955 159.308Z" fill="#7400BD"/><path d="M88.3012 155.242C88.4688 155.163 88.6575 155.108 88.8093 155.085C88.9734 155.052 89.111 155.062 89.1869 155.126C89.3617 155.255 89.4324 155.387 89.4202 155.547C89.4079 155.708 89.3057 155.839 89.1593 155.943C88.6125 156.305 87.9987 156.638 87.3161 156.967C86.6457 157.284 85.9542 157.577 85.2292 157.856C84.5165 158.125 83.7949 158.358 83.0751 158.568C82.3677 158.767 81.6972 158.935 81.0656 159.048C80.9721 159.064 80.8803 159.057 80.815 159.006C80.7726 158.956 80.7302 158.907 80.7108 158.859C80.6419 158.854 80.5749 158.826 80.4972 158.785C80.4195 158.745 80.3648 158.706 80.3118 158.644C80.2906 158.619 80.2694 158.595 80.25 158.547C80.2411 158.512 80.2446 158.466 80.2499 158.397C80.2551 158.328 80.285 158.238 80.3167 158.125C80.3713 158.014 80.4294 157.857 80.5246 157.668C80.8489 157.197 81.1644 156.69 81.471 156.149C81.7883 155.619 82.0949 155.077 82.4015 154.535L82.2479 154.431C82.1614 154.355 82.0784 154.234 81.9954 154.112C81.9123 153.99 81.8999 153.851 81.9668 153.729C82.0479 153.574 82.1696 153.491 82.309 153.478C82.4484 153.466 82.6531 153.505 82.8879 153.604C83.0517 153.27 83.2262 152.949 83.3777 152.626C83.5416 152.292 83.6931 151.969 83.8323 151.657C83.8587 151.613 83.9098 151.547 83.9856 151.461C84.0614 151.375 84.1373 151.288 84.2131 151.202C84.2995 151.127 84.3965 151.066 84.4811 151.014C84.5658 150.963 84.647 150.958 84.7141 150.986C84.7917 151.027 84.8341 151.076 84.8501 151.17C84.866 151.263 84.882 151.357 84.8732 151.471C84.8768 151.576 84.8699 151.667 84.8276 151.768C84.8082 151.87 84.7907 151.95 84.7625 152.017C84.6075 152.386 84.4525 152.755 84.2745 153.122C84.1195 153.49 83.9539 153.847 83.7653 154.202C84.1238 154.495 84.5034 154.812 84.9025 155.177C85.3016 155.543 85.6883 155.919 86.0397 156.303C86.4225 156.125 86.8053 155.947 87.1758 155.779C87.5691 155.613 87.929 155.433 88.3012 155.242ZM81.6118 157.936C82.7921 157.588 83.907 157.189 85.0025 156.743C84.5133 156.198 83.9412 155.681 83.2773 155.157C82.7786 156.099 82.2234 157.026 81.6118 157.936Z" fill="#7400BD"/><path d="M81.8677 148.482C81.9014 148.443 81.9433 148.418 82.0132 148.377C82.0832 148.335 82.1614 148.308 82.248 148.294C82.3345 148.281 82.4293 148.281 82.4962 148.298C82.5854 148.321 82.6549 148.374 82.7131 148.472C82.7118 148.757 82.6297 149.033 82.503 149.297C82.2648 149.533 81.9847 149.794 81.6543 150.066C81.3322 150.352 80.9795 150.618 80.5989 150.901C80.2322 151.175 79.8349 151.43 79.4377 151.685C79.0404 151.94 78.6431 152.195 78.2572 152.405C78.1873 152.446 78.095 152.482 77.9888 152.526C77.8826 152.57 77.7624 152.623 77.6396 152.639C77.5168 152.655 77.4079 152.663 77.3048 152.648C77.2016 152.634 77.1238 152.567 77.0656 152.469C76.9909 152.343 76.9747 152.22 77.0031 152.108C77.0314 151.997 77.1324 151.88 77.3002 151.78C77.6861 151.57 78.0694 151.324 78.4807 151.061C78.9059 150.789 79.3172 150.526 79.7258 150.227C80.1345 149.927 80.5151 149.645 80.8792 149.334C81.2515 149.037 81.5876 148.743 81.8677 148.482Z" fill="#7400BD"/><path d="M74.608 142.613C74.9765 142.694 75.3937 142.779 75.8432 142.867C76.3089 142.956 76.7599 143.028 77.2256 143.117C77.6913 143.206 78.1585 143.279 78.5932 143.349C79.0265 143.436 79.4126 143.502 79.7515 143.547C79.7189 143.169 79.6728 142.756 79.6309 142.295C79.5877 141.85 79.5296 141.388 79.4729 140.909C79.4324 140.432 79.3906 139.971 79.3487 139.51C79.3216 139.067 79.308 138.657 79.3077 138.282C79.3105 138.249 79.3295 138.218 79.3499 138.171C79.4056 138.094 79.4746 138.051 79.5718 138.059C79.7176 138.072 79.8121 138.113 79.8727 138.167C79.9495 138.223 79.9925 138.292 80.0179 138.375C80.0596 138.461 80.0864 138.528 80.1118 138.612C80.1372 138.696 80.1788 138.781 80.2381 138.852C80.2897 139.199 80.3562 139.564 80.4185 139.978C80.4807 140.392 80.543 140.806 80.6039 141.236C80.6647 141.666 80.7256 142.096 80.7865 142.526C80.8473 142.956 80.911 143.353 80.9761 143.734C81.0277 144.082 80.9581 144.321 80.7321 144.481C80.5061 144.641 80.1764 144.678 79.7092 144.605C78.8384 144.481 77.9689 144.341 77.0847 144.183C76.2166 144.026 75.3486 143.87 74.4833 143.681C74.3065 143.649 74.15 143.57 74.0464 143.447C73.9414 143.34 73.8715 143.203 73.8679 143.056C73.8565 142.81 73.9353 142.653 74.0853 142.617C74.2515 142.583 74.4312 142.582 74.608 142.613Z" fill="#7400BD"/><path d="M77.5101 130.598C77.5408 130.659 77.5663 130.737 77.5454 130.85C77.5399 130.968 77.4675 131.081 77.3541 131.163C77.2665 131.22 77.1685 131.307 77.0551 131.389C76.9571 131.476 76.8539 131.579 76.7455 131.697C76.6371 131.815 76.5493 131.923 76.4564 132.046C76.3634 132.169 76.3065 132.288 76.2649 132.411C76.213 132.565 76.1919 132.73 76.2119 132.925C76.2319 133.121 76.2725 133.306 76.3697 133.476C76.5538 133.796 76.7693 133.972 77.0265 133.972C77.2939 133.994 77.5823 133.902 77.8813 133.676C78.0823 133.538 78.2731 133.379 78.4845 133.209C78.6959 133.04 78.9074 132.871 79.1188 132.702C79.325 132.548 79.5158 132.389 79.7066 132.23C79.8922 132.086 80.0572 131.953 80.1964 131.845C80.382 131.702 80.5779 131.579 80.7737 131.456C80.9696 131.333 81.1858 131.251 81.3969 131.185C81.6235 131.123 81.855 131.098 82.1122 131.099C82.3694 131.1 82.6264 131.152 82.9193 131.25C83.4637 131.519 83.838 131.886 84.0372 132.365C84.2465 132.865 84.317 133.369 84.2433 133.894C84.1751 134.352 84.0195 134.763 83.7714 135.143C83.5182 135.539 83.1881 135.806 82.7658 135.99C82.6628 136.041 82.5187 136.061 82.3644 136.061C82.2101 136.06 82.097 136.039 82.0509 135.972C81.9792 135.879 81.9538 135.751 81.9595 135.581C81.9806 135.416 82.0375 135.298 82.1097 135.237C82.4034 135.078 82.651 134.852 82.8525 134.559C83.0694 134.272 83.1784 133.948 83.2208 133.567C83.2473 133.284 83.2121 133.032 83.0842 132.8C82.9718 132.573 82.8179 132.418 82.6177 132.299C82.4021 132.175 82.1656 132.113 81.8827 132.138C81.6151 132.168 81.3318 132.296 81.038 132.506C80.5741 132.814 80.1307 133.162 79.6923 133.547C79.2487 133.947 78.764 134.317 78.2434 134.691C77.9651 134.855 77.6768 134.947 77.3938 134.972C77.1108 134.997 76.8434 134.975 76.6122 134.897C76.3655 134.814 76.1499 134.69 75.955 134.505C75.7755 134.324 75.6219 134.118 75.4992 133.87C75.3919 133.628 75.3104 133.36 75.2856 133.077C75.2607 132.794 75.2771 132.491 75.3603 132.192C75.4851 131.771 75.6919 131.411 76.0067 131.088C76.3368 130.769 76.6719 130.539 77.0272 130.401C77.1045 130.375 77.1919 130.37 77.2844 130.401C77.3717 130.448 77.4538 130.51 77.5101 130.598Z" fill="#7400BD"/><path d="M75.1473 123.187C75.3029 123.268 75.3985 123.379 75.4359 123.497C75.4733 123.615 75.4755 123.742 75.4457 123.832C75.4126 123.968 75.337 124.055 75.2295 124.105C75.122 124.154 74.972 124.155 74.8148 124.097C74.5445 124.007 74.2458 123.835 73.9275 123.615C73.6215 123.385 73.3313 123.098 73.0814 122.733C72.8315 122.369 72.6627 121.998 72.5539 121.598C72.468 121.199 72.4509 120.806 72.5027 120.417C72.5651 120.041 72.684 119.681 72.8718 119.326C73.0701 118.983 73.3357 118.668 73.6543 118.415C73.9976 118.141 74.371 117.926 74.7993 117.751C75.2276 117.575 75.6737 117.47 76.1165 117.411C76.5698 117.364 77.0304 117.375 77.4876 117.432C77.9555 117.501 78.3953 117.638 78.807 117.842C79.0599 118.011 79.2086 118.183 79.2673 118.326C79.3259 118.469 79.351 118.598 79.3213 118.688C79.295 118.732 79.244 118.797 79.1594 118.849C79.0978 118.902 78.992 118.928 78.8437 118.906C78.1279 119.695 77.4172 120.415 76.6762 121.075C75.9582 121.736 75.2912 122.333 74.6752 122.864C74.8167 122.978 74.9812 123.094 75.1473 123.187ZM73.8291 121.981C73.8593 122.041 73.9018 122.091 73.9319 122.151C73.9851 122.212 74.0276 122.262 74.0701 122.311C74.0892 122.208 74.1435 122.097 74.1979 121.986C74.2646 121.864 74.3525 121.767 74.4388 121.692C74.9439 121.257 75.4737 120.8 76.0315 120.277C76.6 119.765 77.1841 119.197 77.7963 118.562C77.2295 118.428 76.6206 118.394 75.9909 118.486C75.3735 118.566 74.8377 118.792 74.3836 119.162C73.9664 119.5 73.6924 119.929 73.5526 120.415C73.4253 120.89 73.5133 121.416 73.8291 121.981Z" fill="#7400BD"/><path d="M69.8669 113.629C69.9165 113.516 70.021 113.484 70.1813 113.513C70.3534 113.53 70.5457 113.639 70.7587 113.819C71.1404 114.13 71.5331 114.453 71.9259 114.777C72.3305 115.089 72.7344 115.424 73.1613 115.76C73.5756 115.393 73.9788 115.015 74.3708 114.624C74.2037 114.446 73.9683 114.243 73.6877 114.015C73.4182 113.8 73.1375 113.572 72.822 113.355C72.5065 113.138 72.2021 112.932 71.9089 112.739C71.6157 112.545 71.3789 112.388 71.1762 112.244C71.0745 112.183 70.9617 112.11 70.8607 112.026C70.7597 111.943 70.6818 111.859 70.6156 111.765C70.5607 111.683 70.5405 111.59 70.5434 111.498C70.5463 111.406 70.5951 111.316 70.6781 111.238C70.7019 111.216 70.7597 111.206 70.8628 111.221C70.966 111.235 71.0691 111.25 71.1945 111.289C71.3318 111.316 71.4683 111.367 71.5819 111.416C71.7184 111.467 71.832 111.516 71.9225 111.565C72.5334 111.907 73.1324 112.26 73.6847 112.634C74.2489 112.997 74.7426 113.404 75.1778 113.844C75.4347 114.094 75.553 114.363 75.5214 114.638C75.5016 114.902 75.355 115.174 75.0934 115.441C74.7133 115.821 74.322 116.188 73.9195 116.544C73.9591 116.752 73.9192 116.923 73.7769 117.057C73.6116 117.19 73.4499 117.208 73.2681 117.133C73.0317 117.333 72.7834 117.543 72.5351 117.754C72.2987 117.954 72.0504 118.165 71.8139 118.364C71.8801 118.458 71.9106 118.586 71.8952 118.712C71.8909 118.85 71.8413 118.964 71.7583 119.042C71.6871 119.108 71.6048 119.163 71.5121 119.183C71.4194 119.203 71.3282 119.178 71.2146 119.128C71.0454 119.019 70.8427 118.874 70.6177 118.706C70.3928 118.538 70.1567 118.358 69.9095 118.166C69.6734 117.985 69.4492 117.794 69.2361 117.615C69.023 117.435 68.8552 117.28 68.7096 117.149C68.5418 116.994 68.3977 116.817 68.3003 116.618C68.2029 116.419 68.1641 116.188 68.172 115.935C68.2453 115.799 68.3506 115.745 68.4767 115.76C68.614 115.788 68.7387 115.849 68.8619 115.957C68.9852 116.064 69.1426 116.184 69.3104 116.339C69.4901 116.483 69.6809 116.639 69.8606 116.783C70.0514 116.938 70.2422 117.094 70.4211 117.261C70.6231 117.429 70.8028 117.572 70.9713 117.704C70.9831 117.693 71.0069 117.671 71.0076 117.648C71.0313 117.626 71.055 117.603 71.0669 117.592C71.2796 117.415 71.5041 117.226 71.7169 117.049C71.9296 116.872 72.143 116.671 72.3557 116.494C71.9845 116.217 71.614 115.918 71.2436 115.618C70.8849 115.307 70.582 115.056 70.3808 114.866C70.213 114.711 70.0689 114.533 69.9833 114.323C69.8978 114.114 69.859 113.882 69.8669 113.629Z" fill="#7400BD"/><path d="M62.4269 108.832C63.1675 109.678 63.9684 110.398 64.8414 110.982C65.7144 111.566 66.6462 112.094 67.6255 112.554C67.876 112.675 67.9991 112.827 68.0068 113C68.0257 113.184 67.9766 113.321 67.8943 113.4C67.6852 113.487 67.4776 113.506 67.2486 113.454C64.9204 112.595 63.109 111.265 61.7684 109.462C61.7132 109.357 61.7158 109.242 61.7419 109.104C61.791 108.967 61.862 108.877 61.9321 108.833C62.0256 108.766 62.1069 108.733 62.1877 108.723C62.2802 108.703 62.3599 108.739 62.4269 108.832ZM68.1273 106.581C68.2096 106.503 68.3144 106.448 68.4294 106.45C68.5562 106.442 68.6819 106.479 68.7724 106.55C68.9421 106.681 69.0198 106.809 68.9824 106.935C68.9451 107.061 68.8853 107.163 68.7907 107.276C68.2493 107.816 67.7196 108.344 67.167 108.872C66.6486 109.413 66.1302 109.953 65.6113 110.517C65.576 110.55 65.5407 110.584 65.5049 110.641C65.4809 110.686 65.4339 110.731 65.3756 110.764C65.3291 110.786 65.2825 110.808 65.2135 110.807C65.1558 110.817 65.0873 110.792 65.0193 110.745C64.8153 110.602 64.7269 110.439 64.7305 110.278C64.7459 110.106 64.8062 109.98 64.8885 109.902C65.3967 109.304 65.9162 108.717 66.4576 108.177C66.999 107.637 67.5634 107.098 68.1273 106.581Z" fill="#7400BD"/><path d="M64.8934 102.496C65.0595 102.413 65.2473 102.355 65.3986 102.33C65.5621 102.293 65.6999 102.301 65.7769 102.364C65.954 102.489 66.027 102.62 66.0176 102.781C66.0082 102.942 65.9083 103.074 65.7638 103.181C65.2235 103.553 64.6156 103.897 63.9389 104.237C63.2743 104.567 62.5881 104.872 61.8681 105.164C61.1603 105.445 60.4429 105.69 59.727 105.913C59.0232 106.125 58.3558 106.305 57.7263 106.429C57.633 106.447 57.5412 106.441 57.4749 106.391C57.4317 106.343 57.3884 106.294 57.3681 106.247C57.2992 106.243 57.2317 106.215 57.1533 106.176C57.0749 106.137 57.0195 106.099 56.9654 106.038C56.9438 106.014 56.9222 105.99 56.9019 105.942C56.8924 105.907 56.8951 105.861 56.8991 105.793C56.9031 105.724 56.9315 105.633 56.9612 105.52C57.0138 105.407 57.0691 105.249 57.1609 105.059C57.4769 104.582 57.7833 104.07 58.0803 103.523C58.3881 102.988 58.6851 102.441 58.9822 101.893L58.8267 101.792C58.7389 101.718 58.6537 101.597 58.5685 101.477C58.4834 101.357 58.4685 101.218 58.5332 101.095C58.6115 100.938 58.7318 100.853 58.8709 100.838C59.0101 100.823 59.2154 100.858 59.4519 100.953C59.6099 100.617 59.7786 100.292 59.9244 99.9668C60.0823 99.6304 60.2281 99.3048 60.3617 98.99C60.3874 98.9454 60.4373 98.8792 60.5116 98.7914C60.5859 98.7036 60.6601 98.6158 60.7344 98.528C60.8195 98.4523 60.9154 98.3888 60.9991 98.3362C61.0829 98.2835 61.1639 98.2767 61.2315 98.3038C61.3099 98.343 61.3531 98.3916 61.3707 98.4849C61.3883 98.5781 61.4059 98.6713 61.3992 98.7862C61.4047 98.8902 61.3993 98.9821 61.3588 99.0834C61.3413 99.1861 61.3251 99.2658 61.2981 99.3334C61.1497 99.7049 61.0012 100.076 60.8298 100.447C60.6813 100.818 60.5221 101.178 60.3398 101.536C60.7034 101.822 61.0886 102.133 61.4941 102.491C61.8995 102.849 62.2929 103.218 62.6511 103.597C63.0306 103.412 63.4102 103.227 63.7776 103.052C64.168 102.879 64.5246 102.693 64.8934 102.496ZM58.2527 105.308C59.4266 104.939 60.5343 104.52 61.6217 104.054C61.123 103.518 60.5418 103.011 59.8687 102.499C59.3868 103.45 58.8481 104.386 58.2527 105.308Z" fill="#7400BD"/><path d="M58.0374 96.2482C58.0664 96.2058 58.1053 96.1763 58.1701 96.1272C58.2349 96.078 58.3095 96.0418 58.394 96.0186C58.4784 95.9954 58.5727 95.9852 58.6411 95.9946C58.7323 96.0071 58.8074 96.0523 58.8762 96.1431C58.9072 96.426 58.8567 96.7094 58.7607 96.9865C58.5507 97.2479 58.3018 97.5388 58.0042 97.8463C57.7165 98.1666 57.3961 98.4709 57.0498 98.7949C56.7165 99.109 56.3505 99.407 55.9846 99.705C55.6186 100.003 55.2526 100.301 54.8929 100.553C54.8281 100.603 54.7405 100.649 54.64 100.704C54.5395 100.76 54.4259 100.826 54.3057 100.856C54.1855 100.886 54.0783 100.906 53.9741 100.903C53.87 100.9 53.7851 100.842 53.7162 100.752C53.6277 100.635 53.5977 100.515 53.6133 100.401C53.629 100.287 53.7161 100.159 53.8716 100.041C54.2313 99.7889 54.5843 99.5007 54.9632 99.1928C55.3551 98.8752 55.734 98.5673 56.1062 98.2237C56.4784 97.8801 56.8247 97.5562 57.1514 97.2063C57.4878 96.8694 57.7885 96.5391 58.0374 96.2482Z" fill="#7400BD"/><path d="M51.6928 87.9084C52.0236 88.0899 52.3998 88.2891 52.8063 88.5001C53.228 88.717 53.6404 88.9129 54.0621 89.1298C54.4838 89.3467 54.9113 89.5485 55.3086 89.7384C55.7 89.9435 56.0518 90.1157 56.3641 90.255C56.4395 89.8827 56.5117 89.4741 56.6015 89.02C56.6855 88.5811 56.7602 88.1211 56.8408 87.6459C56.9366 87.1767 57.0265 86.7226 57.1164 86.2685C57.2155 85.8355 57.3179 85.4387 57.4237 85.0782C57.4355 85.0478 57.4625 85.0234 57.4954 84.9839C57.5704 84.9258 57.6488 84.9039 57.7397 84.9394C57.876 84.9926 57.9551 85.0584 57.998 85.1275C58.056 85.2026 58.0778 85.281 58.0785 85.3686C58.0944 85.4621 58.101 85.5346 58.1018 85.6222C58.1025 85.7099 58.1184 85.8034 58.1553 85.8877C58.1069 86.2357 58.0676 86.6047 58.0107 87.0192C57.9537 87.4337 57.8967 87.8482 57.8338 88.2779C57.7709 88.7076 57.708 89.1373 57.6452 89.5669C57.5823 89.9966 57.5312 90.3959 57.4861 90.7801C57.4376 91.1281 57.3034 91.3378 57.0414 91.4277C56.7793 91.5176 56.4526 91.46 56.025 91.2583C55.2246 90.8936 54.43 90.5137 53.6262 90.1127C52.8376 89.7177 52.0489 89.3226 51.2721 88.8973C51.1114 88.8171 50.9835 88.6973 50.9188 88.5498C50.8483 88.4175 50.8198 88.2666 50.8579 88.1242C50.9163 87.885 51.0361 87.757 51.1902 87.7647C51.3595 87.7784 51.5321 87.8282 51.6928 87.9084Z" fill="#7400BD"/><path d="M56.7901 77.1683C56.805 77.2357 56.8112 77.3168 56.7637 77.4216C56.73 77.5352 56.6326 77.6276 56.5028 77.68C56.4043 77.7137 56.2882 77.7748 56.1584 77.8273C56.0424 77.8884 55.9176 77.9633 55.784 78.0519C55.6505 78.1406 55.5394 78.2242 55.4196 78.3215C55.2997 78.4189 55.2161 78.52 55.1462 78.6298C55.0588 78.7671 54.9988 78.9219 54.9713 79.1165C54.9437 79.3112 54.9386 79.5009 54.9922 79.6894C55.0943 80.0438 55.2614 80.2659 55.5109 80.3283C55.7654 80.4131 56.0673 80.3932 56.4118 80.2459C56.6401 80.1597 56.8635 80.0511 57.1094 79.9376C57.3552 79.824 57.601 79.7104 57.8469 79.5968C58.084 79.4969 58.3074 79.3883 58.5308 79.2798C58.7454 79.1849 58.9376 79.095 59.0986 79.0239C59.3132 78.929 59.5328 78.8566 59.7525 78.7842C59.9721 78.7118 60.2017 78.6843 60.4225 78.6706C60.6571 78.6656 60.8879 78.6968 61.1374 78.7591C61.3869 78.8215 61.6239 78.9338 61.8846 79.0998C62.3485 79.4916 62.624 79.9371 62.7024 80.45C62.7857 80.9854 62.7331 81.4921 62.5357 81.9838C62.3596 82.4119 62.1099 82.7739 61.7778 83.0834C61.4371 83.4066 61.0527 83.5864 60.5985 83.6638C60.4862 83.6888 60.3415 83.6738 60.1918 83.6364C60.0421 83.5989 59.9373 83.5515 59.9086 83.4754C59.8613 83.3681 59.8676 83.237 59.9138 83.0735C59.9738 82.9188 60.0574 82.8177 60.1423 82.7753C60.4655 82.6916 60.76 82.5318 61.0259 82.296C61.3055 82.0688 61.489 81.7805 61.6214 81.4211C61.7151 81.1527 61.7415 80.8994 61.673 80.6436C61.6182 80.3965 61.506 80.2093 61.3401 80.0458C61.1606 79.8736 60.946 79.7563 60.6653 79.7126C60.3983 79.6777 60.0926 79.7339 59.7569 79.8675C59.2328 80.0547 58.7187 80.2869 58.2008 80.5552C57.6741 80.8373 57.115 81.0795 56.5198 81.3179C56.2103 81.4103 55.9084 81.4303 55.6277 81.3866C55.347 81.3429 55.0925 81.2581 54.8867 81.1271C54.6672 80.9873 54.4876 80.8151 54.343 80.588C54.2121 80.3696 54.1124 80.1325 54.0526 79.8629C54.0066 79.6021 53.9917 79.3225 54.0355 79.0417C54.0794 78.7609 54.1681 78.4701 54.3204 78.2006C54.5427 77.8212 54.8298 77.5216 55.213 77.2832C55.6098 77.0536 55.9904 76.91 56.3685 76.8613C56.4496 76.8551 56.5357 76.8713 56.618 76.9237C56.6916 76.9898 56.7564 77.0697 56.7901 77.1683Z" fill="#7400BD"/><path d="M70.7759 65.1069C70.7257 65.2749 70.6347 65.3896 70.5256 65.4485C70.4166 65.5074 70.2922 65.5334 70.1981 65.5211C70.0584 65.514 69.9591 65.456 69.8901 65.3597C69.8212 65.2635 69.7927 65.1162 69.82 64.9509C69.8571 64.6687 69.9703 64.343 70.1265 63.9891C70.2955 63.6453 70.5229 63.3064 70.8343 62.9925C71.1457 62.6786 71.4776 62.4434 71.8505 62.2614C72.2259 62.1023 72.6092 62.0117 73.0004 61.9897C73.3815 61.9805 73.7577 62.0297 74.1418 62.1475C74.5158 62.2781 74.8747 62.4798 75.1831 62.7454C75.517 63.0311 75.7977 63.3577 76.0506 63.7454C76.3036 64.1331 76.4906 64.5516 76.6318 64.9754C76.763 65.4119 76.8383 65.8664 76.868 66.3262C76.8875 66.7988 76.8358 67.2564 76.7129 67.6991C76.5945 67.9791 76.4529 68.1576 76.3236 68.242C76.1943 68.3264 76.0725 68.3752 75.9785 68.3629C75.9301 68.3453 75.8563 68.3075 75.79 68.2341C75.7263 68.1835 75.6802 68.0846 75.6746 67.9347C74.7655 67.3795 73.925 66.8164 73.1377 66.2125C72.3531 65.6313 71.6422 65.088 71.0052 64.5825C70.9194 64.743 70.8362 64.9263 70.7759 65.1069ZM71.713 63.5859C71.6598 63.6268 71.6193 63.6778 71.5661 63.7187C71.5155 63.7824 71.4751 63.8334 71.4346 63.8844C71.5388 63.884 71.6583 63.9165 71.7778 63.949C71.9101 63.9917 72.0222 64.0598 72.1113 64.1306C72.6337 64.5451 73.1815 64.9798 73.8006 65.4295C74.4095 65.892 75.0769 66.3592 75.8154 66.8415C75.8413 66.2594 75.7603 65.655 75.5523 65.0536C75.3571 64.4624 75.0352 63.9784 74.5866 63.6017C74.1763 63.2553 73.7031 63.0667 73.1998 63.0206C72.7093 62.9845 72.2095 63.1696 71.713 63.5859Z" fill="#7400BD"/><path d="M78.3105 58.1868C78.4335 58.2015 78.4936 58.2926 78.5129 58.4542C78.5464 58.6238 78.4969 58.8396 78.3866 59.0954C78.1987 59.5507 78.0027 60.0201 77.8066 60.4895C77.6246 60.9671 77.4204 61.4506 77.2222 61.9563C77.6929 62.247 78.1717 62.5236 78.6587 62.7862C78.7808 62.5748 78.9073 62.2908 79.0442 61.9564C79.1729 61.636 79.3098 61.3016 79.4266 60.9368C79.5434 60.572 79.6521 60.2213 79.7527 59.8847C79.8532 59.548 79.9353 59.2759 80.0152 59.0401C80.044 58.9252 80.081 58.7962 80.132 58.6753C80.1831 58.5545 80.2401 58.4558 80.3111 58.3653C80.3741 58.2889 80.457 58.2429 80.5459 58.219C80.6348 58.1952 80.7356 58.2158 80.8342 58.2728C80.8624 58.2891 80.8883 58.3417 80.904 58.4447C80.9196 58.5477 80.9352 58.6507 80.9345 58.7819C80.948 58.9212 80.9392 59.0665 80.9244 59.1895C80.9156 59.3348 80.9009 59.4579 80.8802 59.5587C80.7295 60.2422 80.5647 60.9177 80.3658 61.5546C80.1809 62.1996 79.9338 62.7899 79.6385 63.3335C79.4735 63.6517 79.2506 63.8424 78.978 63.8917C78.7194 63.949 78.4171 63.8871 78.085 63.7141C77.6121 63.4597 77.1474 63.1912 76.6908 62.9086C76.5026 63.0066 76.327 63.018 76.158 62.9203C75.9831 62.8005 75.9193 62.6508 75.9384 62.4551C75.679 62.2864 75.4055 62.1096 75.132 61.9328C74.8725 61.7641 74.599 61.5873 74.3395 61.4186C74.2685 61.5091 74.1552 61.5752 74.0299 61.5968C73.8966 61.6326 73.7736 61.6179 73.675 61.5609C73.5905 61.5121 73.5142 61.4492 73.4682 61.3663C73.4222 61.2833 73.4206 61.1884 73.4354 61.0654C73.4908 60.8719 73.5707 60.6361 73.6668 60.3721C73.763 60.1081 73.8673 59.8301 73.9797 59.5379C74.084 59.2598 74.2024 58.9899 74.3127 58.7341C74.4229 58.4782 74.5228 58.2728 74.6064 58.0956C74.7063 57.8901 74.8344 57.701 74.9965 57.5503C75.1587 57.3997 75.3691 57.2957 75.6136 57.2302C75.7647 57.2611 75.847 57.3463 75.8686 57.4715C75.882 57.6108 75.8591 57.748 75.7918 57.897C75.7245 58.0461 75.6549 58.2315 75.555 58.4369C75.4692 58.6504 75.3753 58.8781 75.2895 59.0917C75.1955 59.3193 75.1015 59.547 74.9935 59.7665C74.8914 60.0082 74.8056 60.2218 74.7279 60.4213C74.742 60.4294 74.7702 60.4457 74.7924 60.4397C74.8206 60.456 74.8487 60.4723 74.8628 60.4804C75.0941 60.6328 75.3394 60.7934 75.5707 60.9458C75.802 61.0982 76.0555 61.2446 76.2868 61.397C76.4443 60.9618 76.6241 60.5206 76.8038 60.0794C76.9977 59.6463 77.1508 59.2837 77.2752 59.036C77.3751 58.8305 77.5031 58.6414 77.6794 58.4989C77.8556 58.3564 78.066 58.2523 78.3105 58.1868Z" fill="#7400BD"/><path d="M79.519 49.541C78.9893 50.5324 78.5981 51.5361 78.3599 52.559C78.1218 53.5819 77.957 54.6401 77.8725 55.7187C77.8479 55.9957 77.7487 56.1647 77.5898 56.2329C77.4238 56.3157 77.2783 56.3181 77.1757 56.2689C77.0202 56.104 76.9299 55.9163 76.897 55.6839C76.8788 53.2023 77.4842 51.0378 78.6978 49.1471C78.7764 49.0585 78.8849 49.0203 79.0228 48.9961C79.1682 48.9937 79.2779 49.0283 79.3442 49.0781C79.4398 49.142 79.4991 49.2066 79.5366 49.2787C79.5888 49.3579 79.583 49.4454 79.519 49.541ZM83.6375 54.0798C83.7401 54.129 83.8287 54.2076 83.8668 54.3161C83.9196 54.4317 83.929 54.5626 83.8944 54.6723C83.8322 54.8772 83.7395 54.9952 83.6087 55.0046C83.4779 55.0141 83.3612 54.9942 83.2222 54.9455C82.5259 54.6296 81.8443 54.3207 81.155 53.99C80.4664 53.6958 79.7777 53.4016 79.0674 53.115C79.0234 53.0939 78.9794 53.0728 78.9137 53.0593C78.8627 53.0529 78.804 53.0247 78.7524 52.9819C78.7154 52.9461 78.6785 52.9104 78.6556 52.8452C78.6257 52.7948 78.6245 52.722 78.645 52.6416C78.7066 52.4004 78.828 52.2601 78.98 52.2066C79.1466 52.1602 79.285 52.1724 79.3876 52.2217C80.1267 52.486 80.8588 52.7649 81.5551 53.0809C82.2514 53.3968 82.9553 53.7345 83.6375 54.0798Z" fill="#7400BD"/><path d="M86.4018 50.2472C86.5531 50.3544 86.6933 50.4922 86.7876 50.6133C86.8972 50.7399 86.9553 50.8651 86.9371 50.9624C86.9104 51.1779 86.8296 51.3043 86.6836 51.3723C86.5376 51.4403 86.3736 51.415 86.2111 51.3384C85.6279 51.0388 85.0365 50.6669 84.416 50.2324C83.8107 49.8035 83.2167 49.344 82.6185 48.8484C82.0356 48.3583 81.4791 47.8432 80.9435 47.3185C80.4232 46.7993 79.9487 46.2968 79.5409 45.8014C79.4812 45.7276 79.4424 45.6442 79.4551 45.5622C79.4774 45.501 79.4997 45.4399 79.5317 45.3996C79.5027 45.337 79.4944 45.2647 79.4918 45.1771C79.4891 45.0895 79.4962 45.0227 79.5241 44.9463C79.5353 44.9157 79.5464 44.8852 79.5785 44.8449C79.6049 44.8199 79.6466 44.8005 79.7092 44.7713C79.7718 44.7422 79.8649 44.7242 79.9789 44.6966C80.1026 44.6898 80.268 44.6635 80.4793 44.654C81.049 44.7061 81.6451 44.7332 82.2677 44.7353C82.8847 44.7527 83.5072 44.7548 84.1298 44.7569L84.1454 44.572C84.1692 44.4594 84.2347 44.3274 84.3002 44.1954C84.3657 44.0634 84.4812 43.9843 84.6202 43.983C84.7953 43.9777 84.9272 44.0432 85.0062 44.1587C85.0853 44.2741 85.1517 44.4716 85.1804 44.7247C85.5515 44.7043 85.917 44.6991 86.2728 44.6731C86.6439 44.6527 86.9997 44.6267 87.3402 44.5951C87.3916 44.5965 87.4736 44.6091 87.5861 44.6329C87.6987 44.6567 87.8112 44.6804 87.9237 44.7042C88.0307 44.7433 88.132 44.7976 88.2181 44.8464C88.3042 44.8951 88.3486 44.9633 88.3568 45.0356C88.3594 45.1232 88.3371 45.1843 88.2633 45.244C88.1896 45.3037 88.1159 45.3634 88.0116 45.412C87.9225 45.4661 87.8391 45.5049 87.7307 45.5173C87.632 45.5506 87.5541 45.5741 87.4818 45.5824C87.0843 45.6278 86.6868 45.6733 86.2796 45.6978C85.8821 45.7433 85.4901 45.7734 85.0885 45.7827C85.0086 46.2386 84.9175 46.7251 84.7944 47.2519C84.6713 47.7787 84.5329 48.3 84.3696 48.7947C84.7124 49.0412 85.0553 49.2877 85.3829 49.5286C85.7202 49.7904 86.0534 50.016 86.4018 50.2472ZM80.7778 45.7333C81.6589 46.5921 82.5527 47.369 83.4784 48.1055C83.7144 47.412 83.8851 46.66 84.017 45.8246C82.9511 45.8511 81.8713 45.8207 80.7778 45.7333Z" fill="#7400BD"/><path d="M86.6875 42.9256C86.7321 42.9001 86.78 42.8906 86.8598 42.8747C86.9395 42.8588 87.0225 42.8589 87.1086 42.875C87.1947 42.8911 87.284 42.9231 87.3413 42.9614C87.4179 43.0126 87.4656 43.0861 87.4879 43.1978C87.3919 43.4658 87.2226 43.6986 87.0151 43.9058C86.7119 44.0491 86.3609 44.2019 85.9589 44.3482C85.56 44.5105 85.1388 44.6441 84.6857 44.784C84.2486 44.9207 83.7892 45.0287 83.3297 45.1367C82.8703 45.2447 82.4109 45.3527 81.977 45.4224C81.8972 45.4383 81.7983 45.4413 81.6835 45.4476C81.5686 45.4538 81.4379 45.4633 81.3167 45.4376C81.1955 45.4119 81.0902 45.3831 80.9978 45.3351C80.9053 45.2871 80.8544 45.1977 80.8321 45.0859C80.8036 44.9423 80.8292 44.821 80.8931 44.7253C80.957 44.6297 81.091 44.5532 81.2824 44.5151C81.7163 44.4454 82.1598 44.3406 82.6352 44.2295C83.1265 44.1151 83.6019 44.004 84.0869 43.8577C84.5719 43.7115 85.025 43.5716 85.4717 43.3997C85.9216 43.2439 86.3364 43.0784 86.6875 42.9256Z" fill="#7400BD"/><path d="M81.2114 41.0371C81.5851 40.9858 82.006 40.9217 82.4582 40.849C82.9261 40.7721 83.374 40.6837 83.8419 40.6067C84.3099 40.5298 84.7735 40.4371 85.2057 40.353C85.6422 40.2846 86.0274 40.2133 86.3612 40.1392C86.2 39.7952 86.0145 39.424 85.8162 39.0058C85.6222 38.6032 85.4082 38.1892 85.1899 37.7595C84.9873 37.3256 84.789 36.9073 84.5906 36.4891C84.4123 36.0822 84.2582 35.7025 84.1284 35.3499C84.1198 35.3185 84.1269 35.2828 84.1298 35.2315C84.1554 35.1401 84.2054 35.0759 84.2995 35.0502C84.4407 35.0117 84.5435 35.0175 84.6191 35.0475C84.7104 35.0732 84.7746 35.1231 84.8274 35.1931C84.8958 35.2588 84.9443 35.313 84.9971 35.383C85.0499 35.4529 85.1184 35.5186 85.1983 35.5643C85.3666 35.8726 85.555 36.1924 85.7561 36.5593C85.9573 36.9262 86.1585 37.293 86.3639 37.6756C86.5694 38.0582 86.7748 38.4408 86.9803 38.8234C87.1857 39.2059 87.3826 39.5571 87.5752 39.8926C87.7436 40.2009 87.7607 40.4493 87.6038 40.6776C87.4469 40.9059 87.1502 41.0543 86.6865 41.147C85.8263 41.3309 84.9619 41.4991 84.0774 41.6559C83.2086 41.8084 82.3399 41.9609 81.4625 42.082C81.2856 42.1133 81.1116 42.0933 80.9718 42.0133C80.8363 41.9491 80.7236 41.8448 80.6693 41.7078C80.5737 41.4808 80.5937 41.3067 80.7221 41.2211C80.8662 41.1312 81.0345 41.0685 81.2114 41.0371Z" fill="#7400BD"/><path d="M77.5606 31.4961C77.6214 31.5287 77.687 31.5769 77.7356 31.6812C77.7997 31.7808 77.8063 31.9149 77.7615 32.0475C77.7228 32.1442 77.6936 32.2721 77.6487 32.4047C77.6195 32.5326 77.5949 32.676 77.5751 32.8351C77.5553 32.9941 77.5463 33.1329 77.5421 33.2872C77.5378 33.4415 77.56 33.5709 77.5977 33.6955C77.6449 33.8512 77.7232 33.9976 77.8529 34.1453C77.9826 34.2931 78.1232 34.4206 78.301 34.5028C78.6364 34.6563 78.9138 34.6743 79.1237 34.5258C79.3539 34.388 79.5355 34.146 79.6483 33.7888C79.7318 33.5594 79.795 33.3192 79.8691 33.0587C79.9431 32.7982 80.0172 32.5377 80.0913 32.2773C80.17 32.0323 80.2333 31.7921 80.2965 31.5519C80.3644 31.3273 80.4215 31.123 80.4725 30.9545C80.5404 30.7299 80.6286 30.5161 80.7168 30.3024C80.805 30.0886 80.9338 29.8966 81.0673 29.7201C81.2164 29.5389 81.3905 29.3842 81.6004 29.2356C81.8103 29.087 82.0499 28.9805 82.3457 28.8909C82.9453 28.7944 83.4627 28.8758 83.9028 29.1506C84.3632 29.4363 84.7132 29.8065 84.9575 30.2766C85.1674 30.6892 85.2792 31.1145 85.2976 31.568C85.3207 32.0372 85.2065 32.4458 84.9692 32.8408C84.9149 32.9422 84.8093 33.0422 84.6833 33.1314C84.5574 33.2205 84.4531 33.2691 84.3767 33.2412C84.2644 33.2072 84.1692 33.117 84.0753 32.9754C83.997 32.8291 83.9748 32.6997 83.998 32.6077C84.1451 32.3081 84.2159 31.9806 84.2103 31.6252C84.2202 31.2651 84.1211 30.938 83.9348 30.6033C83.7924 30.3574 83.6174 30.1723 83.3787 30.0575C83.1556 29.938 82.9405 29.9011 82.7084 29.9204C82.4608 29.9444 82.232 30.0306 82.0159 30.2151C81.8154 30.3948 81.6588 30.6633 81.5413 31.005C81.3418 31.5245 81.1828 32.0658 81.0488 32.6335C80.9195 33.2168 80.7389 33.7986 80.5318 34.4055C80.4001 34.7004 80.2185 34.9424 80.0025 35.1269C79.7864 35.3113 79.5562 35.4491 79.3227 35.5198C79.0736 35.5952 78.826 35.6192 78.5595 35.5808C78.3085 35.5378 78.0637 35.4589 77.8203 35.3285C77.5925 35.1934 77.3708 35.0225 77.1864 34.8063C77.0019 34.5901 76.8392 34.3333 76.734 34.042C76.5911 33.6262 76.551 33.2132 76.6199 32.7672C76.7044 32.3165 76.8435 31.9343 77.053 31.6158C77.1011 31.5502 77.1695 31.4955 77.2629 31.4672C77.361 31.4545 77.4639 31.4574 77.5606 31.4961Z" fill="#7400BD"/><path d="M74.2711 10.8061C74.3096 10.9771 74.2865 11.1217 74.2203 11.2265C74.1541 11.3313 74.0584 11.4149 73.9704 11.4502C73.8451 11.5126 73.7301 11.5107 73.6228 11.4606C73.5156 11.4105 73.4186 11.2961 73.3614 11.1386C73.2554 10.8744 73.1943 10.535 73.1571 10.15C73.1359 9.76754 73.168 9.36064 73.2856 8.93444C73.4031 8.50823 73.5772 8.14051 73.813 7.79914C74.0623 7.4764 74.352 7.20958 74.6822 6.99867C75.0098 6.80384 75.3619 6.66235 75.7544 6.57678C76.1443 6.50728 76.5561 6.5072 76.9551 6.58747C77.3862 6.67288 77.7909 6.82 78.2014 7.03398C78.6119 7.24795 78.98 7.52107 79.3109 7.82119C79.6391 8.13739 79.9276 8.49666 80.1788 8.88294C80.4274 9.28528 80.6066 9.7095 80.7165 10.1556C80.7505 10.4577 80.7146 10.6827 80.6432 10.8196C80.5719 10.9565 80.4897 11.0588 80.4017 11.0941C80.3509 11.1025 80.2681 11.1057 80.1743 11.0743C80.094 11.0614 80.0053 10.9978 79.9269 10.8699C78.8625 10.8315 77.8538 10.7527 76.8716 10.6121C75.9028 10.4902 75.0169 10.365 74.2139 10.2366C74.2177 10.4185 74.2351 10.619 74.2711 10.8061ZM74.3424 9.02101C74.316 9.08272 74.3057 9.147 74.2794 9.20872C74.2665 9.28907 74.2563 9.35335 74.246 9.41764C74.3366 9.36619 74.4567 9.33596 74.5768 9.30572C74.713 9.27806 74.8441 9.28253 74.9565 9.30051C75.615 9.4058 76.3056 9.51622 77.0656 9.60478C77.823 9.70941 78.6337 9.7896 79.5139 9.84792C79.2511 9.32794 78.8843 8.84077 78.4083 8.41854C77.9483 7.99888 77.4305 7.73479 76.8549 7.62627C76.3274 7.52545 75.8225 7.59304 75.3612 7.79948C74.916 8.00848 74.5711 8.4148 74.3424 9.02101Z" fill="#7400BD"/><path d="M77.8416 1.24803C77.9546 1.19737 78.053 1.24461 78.1527 1.37321C78.2686 1.50155 78.3371 1.71204 78.3741 1.98815C78.447 2.47528 78.5202 2.97868 78.5935 3.48208C78.6829 3.98522 78.7564 4.50489 78.8464 5.04057C79.3996 5.0479 79.9525 5.03896 80.5052 5.01374C80.5012 4.76965 80.4637 4.461 80.4091 4.10379C80.3548 3.76285 80.3002 3.40564 80.2129 3.03269C80.1255 2.65973 80.0384 2.30305 79.9516 1.96264C79.8647 1.62223 79.7952 1.34664 79.7425 1.10334C79.7081 0.989959 79.6735 0.860304 79.6551 0.730386C79.6367 0.600468 79.6349 0.486559 79.6493 0.372387C79.664 0.274488 79.7114 0.192336 79.7754 0.126193C79.8394 0.0600501 79.9365 0.0259268 80.0503 0.0240855C80.0829 0.0235595 80.1322 0.0553156 80.1985 0.135627C80.2649 0.215938 80.3313 0.296249 80.3982 0.409105C80.4813 0.521699 80.5485 0.650828 80.5991 0.763947C80.6663 0.893076 80.7169 1.0062 80.751 1.10331C80.9732 1.76707 81.1791 2.43109 81.336 3.07963C81.5092 3.7279 81.6008 4.36122 81.627 4.97932C81.6491 5.33706 81.556 5.61527 81.3475 5.79769C81.1552 5.97984 80.8641 6.08221 80.4903 6.10454C79.9539 6.12949 79.4172 6.13817 78.8803 6.13058C78.7694 6.31142 78.6246 6.41142 78.4294 6.41458C78.2177 6.40173 78.0861 6.30619 78.0019 6.12851C77.6926 6.11724 77.3671 6.10622 77.0416 6.09521C76.7323 6.08394 76.4068 6.07293 76.0976 6.06165C76.0831 6.17582 76.0199 6.29078 75.9237 6.37372C75.8277 6.47294 75.7146 6.5236 75.6008 6.52544C75.5032 6.52702 75.4054 6.51232 75.3233 6.46482C75.2412 6.41732 75.1911 6.33674 75.1404 6.22362C75.0885 6.02914 75.0358 5.78584 74.9825 5.50999C74.9292 5.23415 74.8757 4.94203 74.8219 4.63364C74.7684 4.34152 74.7311 4.04914 74.6941 3.77303C74.6571 3.49692 74.6372 3.26936 74.6178 3.07436C74.5978 2.8468 74.6104 2.61872 74.672 2.40612C74.7337 2.19353 74.8606 1.99615 75.0366 1.81426C75.1822 1.76307 75.2965 1.79378 75.3794 1.8901C75.4626 2.00269 75.5135 2.13208 75.5324 2.29455C75.5513 2.45701 75.5869 2.65176 75.6069 2.87931C75.6431 3.1066 75.6796 3.35017 75.7158 3.57746C75.7523 3.82102 75.7887 4.06458 75.8089 4.30841C75.8457 4.56825 75.8819 4.79554 75.9178 5.00656C75.9341 5.00629 75.9666 5.00577 75.9826 4.98923C76.0151 4.98871 76.0477 4.98818 76.0639 4.98792C76.3407 4.99972 76.6336 5.01126 76.9104 5.02306C77.1871 5.03486 77.4798 5.03012 77.7565 5.04192C77.6679 4.5876 77.5952 4.11675 77.5225 3.64589C77.4661 3.17478 77.411 2.78502 77.3902 2.50865C77.3703 2.2811 77.3829 2.05302 77.4608 1.84016C77.5386 1.6273 77.6656 1.42992 77.8416 1.24803Z" fill="#7400BD"/><path d="M78.4702 9.89016C79.5328 9.52369 80.5023 9.05408 81.3726 8.46619C82.243 7.87831 83.0835 7.21477 83.879 6.48154C84.0855 6.29525 84.2731 6.23875 84.436 6.29692C84.614 6.34911 84.7223 6.44629 84.7641 6.5522C84.7659 6.77875 84.7045 6.97782 84.5705 7.1705C82.8959 9.00204 80.9799 10.177 78.8043 10.7375C78.6864 10.749 78.5808 10.7032 78.4634 10.6271C78.3551 10.53 78.2982 10.43 78.2835 10.3484C78.2569 10.2365 78.2573 10.1489 78.2789 10.0705C78.2945 9.97692 78.3583 9.91681 78.4702 9.89016ZM78.5383 3.76177C78.4965 3.65586 78.4851 3.538 78.5309 3.4325C78.5708 3.31187 78.653 3.20956 78.753 3.15264C78.9379 3.04478 79.0861 3.02133 79.1884 3.10337C79.2907 3.18541 79.3628 3.27939 79.4316 3.4096C79.7271 4.1148 80.0166 4.80486 80.297 5.51603C80.6017 6.20013 80.9064 6.88422 81.2322 7.57748C81.2501 7.62287 81.268 7.66827 81.307 7.72282C81.34 7.76225 81.3639 7.82277 81.3726 7.88927C81.3753 7.94063 81.3781 7.99199 81.3506 8.05529C81.3382 8.11262 81.2896 8.16676 81.2198 8.21174C81.0106 8.34667 80.8262 8.36693 80.6784 8.3028C80.5247 8.22353 80.4316 8.12039 80.3898 8.01447C80.0278 7.31802 79.6809 6.6156 79.3854 5.9104C79.0899 5.20521 78.8035 4.47891 78.5383 3.76177Z" fill="#7400BD"/><path d="M74.8967 4.89015C74.8481 4.71119 74.8274 4.51573 74.8316 4.36232C74.8275 4.19489 74.8621 4.06126 74.938 3.99771C75.0956 3.84834 75.2383 3.80208 75.3943 3.84242C75.5502 3.88275 75.6607 4.00641 75.7375 4.16885C75.9973 4.77081 76.2176 5.43382 76.4205 6.16365C76.6152 6.87946 76.7819 7.61178 76.9287 8.37462C77.0673 9.12345 77.1696 9.87477 77.2496 10.6203C77.3213 11.3519 77.3683 12.0414 77.3683 12.6831C77.3675 12.7779 77.3444 12.867 77.2825 12.9223C77.2264 12.9553 77.1703 12.9883 77.12 12.9991C77.1026 13.0659 77.063 13.1269 77.0094 13.1963C76.9558 13.2656 76.9079 13.3126 76.8378 13.3539C76.8097 13.3704 76.7817 13.3869 76.7314 13.3976C76.6951 13.4001 76.6505 13.3886 76.5837 13.3713C76.5169 13.354 76.4335 13.3087 76.3279 13.2576C76.2281 13.1843 76.0837 13.0994 75.9146 12.9725C75.5079 12.5702 75.0648 12.1704 74.5855 11.7731C74.1202 11.3676 73.6409 10.9703 73.1615 10.573L73.032 10.7058C72.9421 10.7776 72.8076 10.8379 72.6731 10.8982C72.5386 10.9585 72.3992 10.9462 72.2911 10.8588C72.1525 10.7516 72.0923 10.6172 72.1047 10.4778C72.117 10.3384 72.1913 10.1438 72.3299 9.93006C72.0304 9.71 71.745 9.48168 71.4537 9.27564C71.1543 9.05558 70.863 8.84953 70.5801 8.6575C70.5413 8.62371 70.486 8.56188 70.4142 8.47201C70.3425 8.38215 70.2707 8.29229 70.1989 8.20242C70.1412 8.1043 70.0974 7.99793 70.062 7.90557C70.0265 7.81321 70.0356 7.73238 70.0752 7.67133C70.1288 7.60202 70.1849 7.569 70.2798 7.56977C70.3747 7.57055 70.4695 7.57132 70.5809 7.60013C70.684 7.61493 70.7731 7.63797 70.8647 7.69731C70.9621 7.73438 71.0371 7.76568 71.0982 7.80524C71.434 8.02281 71.7698 8.24037 72.0998 8.48022C72.4356 8.69778 72.7573 8.92361 73.0733 9.1717C73.4248 8.87048 73.8043 8.55274 74.2341 8.22425C74.664 7.89577 75.1021 7.5813 75.5427 7.30312C75.4346 6.89491 75.3265 6.4867 75.2267 6.09251C75.1327 5.67604 75.0188 5.2901 74.8967 4.89015ZM76.37 11.9495C76.2356 10.7264 76.0393 9.55864 75.7926 8.4016C75.1697 8.7871 74.56 9.25919 73.9272 9.82037C74.767 10.4773 75.5813 11.187 76.37 11.9495Z" fill="#7400BD"/><path d="M67.9527 10.8038C67.9105 10.7744 67.8813 10.7352 67.8327 10.67C67.7842 10.6048 67.7486 10.5299 67.7262 10.4452C67.7037 10.3605 67.6943 10.2662 67.7043 10.1979C67.7176 10.1068 67.7635 10.0321 67.8548 9.96405C68.138 9.93562 68.421 9.98853 68.6972 10.087C68.9568 10.2992 69.2455 10.5506 69.5503 10.8509C69.8682 11.1414 70.1697 11.4645 70.4906 11.8136C70.8018 12.1496 71.0966 12.5182 71.3914 12.8867C71.6862 13.2553 71.981 13.6239 72.2303 13.9858C72.2788 14.051 72.3241 14.139 72.379 14.24C72.434 14.341 72.4987 14.4551 72.5275 14.5756C72.5564 14.696 72.5755 14.8035 72.5719 14.9076C72.5683 15.0117 72.5094 15.0961 72.418 15.1642C72.3005 15.2516 72.18 15.2806 72.0662 15.264C71.9523 15.2473 71.8258 15.1591 71.7092 15.0026C71.4599 14.6407 71.1748 14.2852 70.8703 13.9036C70.5561 13.5089 70.2515 13.1273 69.9112 12.7521C69.5709 12.3769 69.2499 12.0278 68.9029 11.6982C68.569 11.3588 68.2414 11.0552 67.9527 10.8038Z" fill="#7400BD"/><path d="M69.4564 16.5968C69.2384 16.2889 68.9873 15.9451 68.7142 15.5775C68.43 15.1979 68.1449 14.8413 67.8607 14.4617C67.5765 14.0821 67.2804 13.7135 67.0063 13.3688C66.7442 13.0131 66.5032 12.7043 66.2834 12.4424C66.0526 12.7441 65.8089 13.08 65.5294 13.4489C65.2618 13.8068 64.9932 14.1877 64.7128 14.5796C64.4213 14.9596 64.1417 15.3286 63.8622 15.6975C63.5835 16.0435 63.3178 16.3554 63.0649 16.6333C63.041 16.6553 63.006 16.6655 62.9591 16.6867C62.8662 16.706 62.7862 16.6914 62.72 16.6197C62.6207 16.5122 62.5784 16.4184 62.5701 16.3375C62.5508 16.2446 62.5655 16.1646 62.6032 16.0855C62.6298 15.9944 62.6556 15.9264 62.6933 15.8473C62.731 15.7681 62.7577 15.6771 62.7613 15.5851C62.9572 15.2935 63.154 14.9788 63.3866 14.6311C63.6193 14.2833 63.852 13.9356 64.0966 13.5768C64.3412 13.2179 64.5858 12.8591 64.8304 12.5003C65.075 12.1415 65.2957 11.8048 65.5044 11.4791C65.7003 11.1875 65.9127 11.0577 66.1877 11.0915C66.4627 11.1254 66.7312 11.3201 67.0274 11.6887C67.5875 12.367 68.1356 13.0563 68.6828 13.7687C69.219 14.469 69.7552 15.1694 70.2675 15.8919C70.3769 16.0343 70.4394 16.198 70.433 16.3589C70.4385 16.5088 70.3981 16.6569 70.3015 16.7682C70.1443 16.9578 69.9806 17.0204 69.8454 16.946C69.6992 16.8597 69.5658 16.7393 69.4564 16.5968Z" fill="#7400BD"/><path d="M63.5577 23.4176C63.5505 23.349 63.5536 23.2677 63.6126 23.1689C63.659 23.0599 63.7662 22.9792 63.9011 22.9418C64.0029 22.9195 64.1251 22.8719 64.26 22.8346C64.3823 22.787 64.5148 22.7267 64.6575 22.6538C64.8003 22.5809 64.9201 22.5104 65.0502 22.4273C65.1803 22.3442 65.2749 22.2532 65.3568 22.152C65.4592 22.0255 65.5363 21.8786 65.5858 21.6883C65.6352 21.498 65.6618 21.3101 65.63 21.1168C65.5687 20.7531 65.4279 20.5134 65.1871 20.4231C64.9439 20.31 64.6416 20.2956 64.2827 20.4028C64.046 20.4625 63.8118 20.545 63.5546 20.63C63.2975 20.715 63.0404 20.7999 62.7832 20.8849C62.5363 20.9572 62.302 21.0398 62.0678 21.1223C61.8438 21.1922 61.6426 21.2597 61.4746 21.3121C61.2506 21.382 61.0242 21.429 60.7977 21.4761C60.5713 21.5231 60.3401 21.5243 60.1191 21.5129C59.8855 21.4913 59.6597 21.4341 59.4189 21.3439C59.1781 21.2536 58.9554 21.1151 58.7152 20.9206C58.2987 20.4787 58.0755 20.0048 58.0559 19.4863C58.0338 18.9449 58.1436 18.4475 58.3955 17.9813C58.619 17.576 58.9082 17.2447 59.2732 16.9749C59.6484 16.6924 60.0507 16.5574 60.5107 16.532C60.6251 16.5199 60.7672 16.5512 60.9117 16.6054C61.0562 16.6596 61.1549 16.7186 61.1748 16.7974C61.2097 16.9094 61.1885 17.0389 61.124 17.1961C61.0469 17.3431 60.9523 17.434 60.8632 17.4666C60.5326 17.513 60.2219 17.6383 59.931 17.8425C59.6274 18.0365 59.4123 18.3021 59.24 18.6442C59.1164 18.9002 59.0616 19.1489 59.1006 19.4108C59.127 19.6626 59.2172 19.8613 59.3635 20.0425C59.5223 20.234 59.7222 20.3748 59.9961 20.4501C60.2574 20.5151 60.5675 20.4939 60.9162 20.3993C61.4582 20.2727 61.9953 20.1004 62.5404 19.8925C63.0956 19.672 63.6785 19.4948 64.297 19.3255C64.6149 19.2688 64.9172 19.2832 65.1911 19.3584C65.4651 19.4336 65.7083 19.5468 65.8979 19.7003C66.1002 19.8641 66.259 20.0556 66.377 20.2976C66.4822 20.5295 66.5544 20.7763 66.5832 21.0509C66.5993 21.3153 66.5824 21.5947 66.507 21.8688C66.4316 22.1428 66.3105 22.4216 66.1285 22.6722C65.8646 23.0239 65.5454 23.289 65.1377 23.4823C64.7173 23.6655 64.3229 23.7649 63.9417 23.7704C63.8604 23.7675 63.7768 23.7416 63.7009 23.6802C63.6353 23.6061 63.58 23.5194 63.5577 23.4176Z" fill="#7400BD"/><path d="M46.5875 37.3321C46.7138 37.2107 46.8496 37.1556 46.9735 37.158C47.0974 37.1604 47.2184 37.1991 47.2943 37.2561C47.4125 37.331 47.4703 37.4304 47.483 37.5481C47.4956 37.6659 47.4479 37.8081 47.3427 37.9385C47.1715 38.1659 46.9127 38.3937 46.6025 38.6249C46.2862 38.8409 45.9214 39.024 45.4959 39.144C45.0703 39.2639 44.6656 39.3052 44.2515 39.2801C43.8463 39.2338 43.4681 39.124 43.1167 38.9506C42.7805 38.771 42.4772 38.543 42.2009 38.2514C41.9396 37.9537 41.7264 37.6013 41.5887 37.2184C41.4387 36.8054 41.3552 36.3829 41.3258 35.9209C41.2965 35.4589 41.3397 35.0026 41.4253 34.5642C41.526 34.1197 41.6842 33.6869 41.8848 33.2721C42.1004 32.8511 42.3706 32.4782 42.6955 32.1534C42.9364 31.9679 43.1475 31.8823 43.3016 31.8725C43.4557 31.8626 43.5857 31.8801 43.6615 31.9371C43.6949 31.9762 43.7406 32.0454 43.7622 32.142C43.7928 32.2173 43.7842 32.3261 43.7153 32.4594C44.2333 33.3901 44.6878 34.294 45.0758 35.2073C45.4727 36.0993 45.8241 36.9222 46.1297 37.6758C46.2834 37.5783 46.446 37.4597 46.5875 37.3321ZM45.0231 38.1949C45.0895 38.1855 45.1498 38.161 45.2163 38.1516C45.2917 38.121 45.352 38.0965 45.4123 38.0721C45.3215 38.0212 45.2334 37.934 45.1454 37.8469C45.0512 37.7447 44.9872 37.6302 44.9444 37.5247C44.6938 36.9067 44.4309 36.2586 44.1134 35.5625C43.811 34.8602 43.4601 34.125 43.0546 33.3417C42.7456 33.8356 42.5185 34.4016 42.4036 35.0274C42.2825 35.6382 42.3244 36.2179 42.5294 36.7666C42.7161 37.2701 43.0352 37.6672 43.4506 37.9551C43.8598 38.2279 44.386 38.3129 45.0231 38.1949Z" fill="#7400BD"/><path d="M34.7504 38.6688C34.676 38.5698 34.7004 38.4634 34.8038 38.3378C34.9033 38.1963 35.0935 38.083 35.3546 37.986C35.8136 37.8072 36.2884 37.6246 36.7631 37.442C37.2341 37.2435 37.7247 37.0571 38.2272 36.8509C38.1122 36.3098 37.9813 35.7725 37.8346 35.2391C37.5974 35.2969 37.3047 35.4016 36.9683 35.5338C36.6478 35.6621 36.3115 35.7942 35.9671 35.9618C35.6226 36.1295 35.294 36.2932 34.9812 36.4531C34.6684 36.613 34.415 36.7417 34.1893 36.8469C34.0864 36.9055 33.9676 36.9679 33.8449 37.0145C33.7223 37.0611 33.6116 37.0881 33.497 37.0992C33.3983 37.1065 33.3077 37.0784 33.229 37.0306C33.1504 36.9828 33.0957 36.8957 33.0687 36.7851C33.061 36.7535 33.0811 36.6983 33.1448 36.6159C33.2084 36.5334 33.2721 36.4509 33.3674 36.3608C33.4588 36.2548 33.5699 36.1608 33.6691 36.0864C33.7802 35.9924 33.8793 35.918 33.9665 35.8633C34.5648 35.4999 35.1669 35.1524 35.7647 34.8561C36.3587 34.544 36.9561 34.3147 37.5532 34.1526C37.8972 34.052 38.1891 34.0813 38.4131 34.2444C38.6332 34.3917 38.7974 34.653 38.9017 35.0126C39.0446 35.5302 39.1716 36.0517 39.2828 36.5771C39.4837 36.6453 39.6132 36.7644 39.6594 36.954C39.6936 37.1633 39.6296 37.3129 39.4749 37.4342C39.5322 37.7383 39.5934 38.0583 39.6546 38.3782C39.7119 38.6823 39.7731 39.0022 39.8304 39.3063C39.9449 39.2951 40.071 39.3313 40.1732 39.4069C40.2911 39.4786 40.3655 39.5777 40.3925 39.6883C40.4156 39.7831 40.4229 39.8818 40.3947 39.9723C40.3665 40.0629 40.299 40.1296 40.1998 40.2039C40.0216 40.2976 39.796 40.4028 39.5387 40.5156C39.2815 40.6285 39.0084 40.7453 38.7195 40.8659C38.4464 40.9826 38.1695 41.0835 37.9084 41.1806C37.6473 41.2777 37.4298 41.3475 37.2439 41.4095C37.0263 41.4792 36.8011 41.5173 36.5802 41.5042C36.3592 41.4911 36.1386 41.4109 35.9224 41.2794C35.8403 41.1487 35.845 41.0304 35.9206 40.9283C36.012 40.8223 36.127 40.7441 36.2813 40.6898C36.4355 40.6354 36.6176 40.5576 36.8351 40.4879C37.0488 40.4024 37.2783 40.313 37.4919 40.2274C37.7214 40.1381 37.9509 40.0487 38.1842 39.9751C38.4295 39.8819 38.6432 39.7963 38.8411 39.7147C38.8372 39.6989 38.8295 39.6672 38.8099 39.6553C38.8022 39.6237 38.7945 39.5921 38.7906 39.5763C38.741 39.3038 38.6875 39.0155 38.6379 38.743C38.5883 38.4705 38.519 38.1861 38.4693 37.9136C38.0458 38.1004 37.6027 38.2753 37.1595 38.4503C36.7125 38.6094 36.3446 38.7492 36.0796 38.8305C35.8621 38.9002 35.6369 38.9384 35.412 38.9094C35.1872 38.8805 34.9667 38.8003 34.7504 38.6688Z" fill="#7400BD"/><path d="M25.4118 42.2132C26.5355 42.185 27.6015 42.0303 28.6089 41.7329C29.6162 41.4356 30.6179 41.0571 31.5979 40.5985C31.851 40.4834 32.0469 40.4862 32.1846 40.5909C32.3385 40.6944 32.4124 40.8198 32.4202 40.9334C32.3535 41.1499 32.2347 41.3211 32.0488 41.4643C29.899 42.7041 27.7175 43.245 25.4742 43.1218C25.3583 43.0972 25.2716 43.0216 25.1826 42.9136C25.1087 42.7882 25.0847 42.6758 25.0954 42.5935C25.1038 42.4788 25.1307 42.3955 25.175 42.3272C25.2181 42.2427 25.2971 42.2047 25.4118 42.2132ZM27.3288 36.3919C27.321 36.2783 27.3457 36.1625 27.4213 36.0758C27.4958 35.9729 27.605 35.9002 27.7176 35.8761C27.9264 35.8292 28.0748 35.8516 28.1475 35.9608C28.2203 36.0699 28.2605 36.1812 28.2868 36.3262C28.3553 37.0877 28.4228 37.833 28.4751 38.5956C28.5588 39.3398 28.6425 40.084 28.7436 40.8433C28.7469 40.892 28.7503 40.9407 28.7709 41.0045C28.7905 41.052 28.795 41.1169 28.7832 41.183C28.7703 41.2328 28.7574 41.2825 28.712 41.3346C28.6829 41.3855 28.6202 41.4224 28.5401 41.4442C28.2999 41.5096 28.118 41.4732 27.9965 41.3674C27.8739 41.2454 27.8163 41.1189 27.8085 41.0053C27.6739 40.232 27.5555 39.4576 27.4869 38.6961C27.4184 37.9345 27.3649 37.1557 27.3288 36.3919Z" fill="#7400BD"/><path d="M21.3095 35.5027C21.3897 35.3354 21.5019 35.1741 21.6053 35.0607C21.7117 34.9313 21.8253 34.8529 21.9243 34.8544C22.1412 34.8444 22.2794 34.9028 22.371 35.0352C22.4626 35.1677 22.4654 35.3335 22.4173 35.5066C22.2203 36.132 21.9535 36.7777 21.6298 37.4626C21.3091 38.1315 20.9564 38.7945 20.5687 39.4677C20.184 40.1249 19.7701 40.7603 19.3432 41.3767C18.9192 41.9771 18.5039 42.5296 18.0843 43.0151C18.0217 43.0863 17.946 43.1386 17.863 43.14C17.799 43.1283 17.7349 43.1166 17.6898 43.0918C17.633 43.131 17.5631 43.1513 17.4772 43.1687C17.3913 43.1861 17.3244 43.1904 17.2443 43.1758C17.2123 43.1699 17.1803 43.1641 17.1352 43.1393C17.1061 43.1175 17.0799 43.0796 17.0406 43.0228C17.0014 42.9661 16.968 42.8773 16.9215 42.7696C16.8939 42.6488 16.8401 42.4902 16.7952 42.2836C16.7504 41.7133 16.6766 41.1211 16.5737 40.5071C16.4868 39.896 16.3839 39.282 16.281 38.668L16.0961 38.6838C15.9811 38.6793 15.84 38.637 15.6988 38.5947C15.5576 38.5524 15.4602 38.4519 15.4355 38.3151C15.4007 38.1434 15.443 38.0023 15.5435 37.905C15.644 37.8076 15.8275 37.7088 16.0721 37.6378C15.9894 37.2755 15.9227 36.9161 15.8371 36.5698C15.7543 36.2074 15.6687 35.8611 15.5802 35.5308C15.5729 35.4799 15.5715 35.3969 15.576 35.282C15.5804 35.1671 15.5849 35.0522 15.5893 34.9373C15.6098 34.8253 15.6462 34.7162 15.6798 34.6231C15.7133 34.53 15.7731 34.4748 15.8429 34.4545C15.9288 34.4371 15.9929 34.4488 16.0642 34.5114C16.1354 34.5741 16.2067 34.6367 16.2721 34.7313C16.3405 34.8099 16.3929 34.8856 16.4234 34.9904C16.4728 35.0821 16.5091 35.1549 16.5294 35.2247C16.6413 35.6089 16.7531 35.9931 16.8459 36.3903C16.9578 36.7745 17.0536 37.1557 17.1304 37.55C17.5933 37.5519 18.0882 37.5596 18.6282 37.5922C19.1683 37.6247 19.7053 37.6732 20.2206 37.7508C20.4057 37.3712 20.5909 36.9917 20.7731 36.6282C20.9742 36.2516 21.1404 35.8851 21.3095 35.5027ZM17.8086 41.8074C18.5066 40.794 19.1216 39.7821 19.6915 38.7453C18.9681 38.6297 18.1981 38.5883 17.3524 38.5991C17.5583 39.6453 17.7104 40.7147 17.8086 41.8074Z" fill="#7400BD"/><path d="M11.3671 31.1777C11.4033 31.1412 11.4468 31.1191 11.5194 31.0825C11.592 31.0458 11.6719 31.0236 11.7591 31.016C11.8464 31.0084 11.941 31.0152 12.0066 31.0368C12.094 31.0656 12.1598 31.1235 12.2111 31.2252C12.1906 31.5091 12.09 31.7788 11.9457 32.0341C11.6921 32.2534 11.3949 32.4948 11.0468 32.7436C10.7061 33.007 10.3362 33.2487 9.93728 33.505C9.55285 33.754 9.13923 33.9813 8.72561 34.2086C8.31199 34.4359 7.89836 34.6631 7.49909 34.8467C7.42651 34.8834 7.33207 34.9129 7.22312 34.9497C7.11417 34.9865 6.9907 35.0307 6.86706 35.0385C6.74343 35.0463 6.63431 35.0467 6.53237 35.0253C6.43042 35.0039 6.35734 34.9314 6.30596 34.8297C6.23989 34.699 6.23205 34.5753 6.26792 34.466C6.3038 34.3567 6.41242 34.2471 6.58661 34.1591C6.98588 33.9755 7.38499 33.7555 7.81313 33.5209C8.25578 33.279 8.68392 33.0444 9.11189 32.7733C9.53986 32.5023 9.9388 32.246 10.3231 31.9606C10.7147 31.6898 11.0699 31.4191 11.3671 31.1777Z" fill="#7400BD"/><path d="M5.01468 28.7116C5.38777 28.6556 5.80777 28.5863 6.25905 28.508C6.72597 28.4253 7.17277 28.3313 7.63969 28.2486C8.10661 28.1658 8.56905 28.0674 9.00022 27.978C9.43586 27.9042 9.82011 27.8281 10.153 27.7499C9.9875 27.4079 9.79743 27.039 9.59394 26.6233C9.39493 26.2231 9.1758 25.8118 8.95219 25.3849C8.74423 24.9535 8.54073 24.5377 8.33724 24.122C8.15386 23.7174 7.99507 23.3396 7.86087 22.9887C7.85192 22.9574 7.85861 22.9216 7.86082 22.8702C7.88536 22.7785 7.93448 22.7137 8.02831 22.6869C8.16905 22.6466 8.27182 22.6511 8.3478 22.6801C8.43941 22.7047 8.50423 22.7539 8.55788 22.8232C8.62717 22.888 8.67634 22.9416 8.72999 23.0109C8.78364 23.0802 8.85293 23.145 8.93338 23.1897C9.10555 23.496 9.29783 23.8134 9.50353 24.1777C9.70923 24.5421 9.91494 24.9064 10.1251 25.2864C10.3353 25.6664 10.5455 26.0464 10.7557 26.4264C10.9658 26.8064 11.1671 27.1551 11.3638 27.4882C11.536 27.7944 11.5562 28.0426 11.4021 28.2728C11.2481 28.5031 10.9532 28.6551 10.4908 28.7535C9.63292 28.9481 8.77058 29.127 7.88814 29.2947C7.02133 29.458 6.15452 29.6213 5.27876 29.7532C5.10227 29.7868 4.92799 29.7689 4.7872 29.6907C4.65089 29.6281 4.5369 29.5253 4.48099 29.3889C4.38258 29.1632 4.40038 28.9888 4.5277 28.9016C4.67065 28.81 4.83819 28.7451 5.01468 28.7116Z" fill="#7400BD"/><path d="M1.73192 18.3061C1.79011 18.3432 1.85182 18.3963 1.89232 18.504C1.9487 18.6082 1.94507 18.7423 1.89029 18.8711C1.84435 18.9646 1.80544 19.0899 1.75066 19.2187C1.71176 19.344 1.67637 19.4852 1.6445 19.6423C1.61263 19.7993 1.59312 19.937 1.57713 20.0906C1.56114 20.2441 1.57339 20.3748 1.60153 20.5019C1.6367 20.6608 1.70363 20.8127 1.82171 20.9699C1.9398 21.1271 2.07025 21.2649 2.2413 21.3604C2.56402 21.539 2.83921 21.5781 3.05983 21.4459C3.29985 21.3262 3.49937 21.0986 3.63899 20.751C3.73972 20.5287 3.82104 20.294 3.91473 20.0399C4.00842 19.7858 4.10211 19.5317 4.19579 19.2777C4.293 19.0394 4.37432 18.8048 4.45565 18.5701C4.54049 18.3513 4.61297 18.1519 4.6766 17.9878C4.76144 17.769 4.86568 17.5626 4.96992 17.3561C5.07416 17.1497 5.21719 16.968 5.36374 16.8022C5.52617 16.6329 5.71151 16.4919 5.93213 16.3597C6.15276 16.2276 6.39981 16.1396 6.70153 16.0728C7.30669 16.0222 7.81646 16.1427 8.23434 16.4503C8.67163 16.7702 8.99243 17.166 9.20024 17.6534C9.37812 18.0807 9.45719 18.5133 9.44098 18.9669C9.42829 19.4364 9.28333 19.8352 9.01666 20.211C8.95484 20.308 8.84187 20.3997 8.7095 20.479C8.57712 20.5583 8.46948 20.5987 8.3954 20.5651C8.28606 20.5227 8.19792 20.4255 8.11511 20.2771C8.04818 20.1253 8.03593 19.9946 8.06598 19.9046C8.23556 19.6171 8.33106 19.2959 8.35249 18.9411C8.3898 18.5828 8.31595 18.2491 8.15566 17.9012C8.03235 17.6451 7.87196 17.4473 7.64271 17.3147C7.42934 17.1785 7.21767 17.1254 6.9848 17.1269C6.73604 17.1319 6.50135 17.2005 6.27189 17.368C6.0583 17.532 5.88169 17.7877 5.73855 18.1195C5.50001 18.6223 5.30027 19.1499 5.12345 19.7058C4.95014 20.2775 4.72567 20.8439 4.47296 21.4332C4.31927 21.7173 4.11975 21.9448 3.89028 22.1123C3.66081 22.2797 3.42079 22.3995 3.18259 22.4522C2.9285 22.5085 2.67975 22.5135 2.41692 22.455C2.16998 22.393 1.93189 22.2957 1.69912 22.1471C1.48224 21.9951 1.2742 21.8078 1.10677 21.5782C0.939335 21.3485 0.796632 21.0801 0.713933 20.7817C0.6031 20.3561 0.594582 19.9413 0.697227 19.5019C0.815752 19.0589 0.983622 18.6884 1.21672 18.3868C1.26969 18.3251 1.34206 18.2757 1.43734 18.2546C1.53614 18.2494 1.63845 18.2601 1.73192 18.3061Z" fill="#7400BD"/></svg>