<svg width="26" height="41" viewBox="0 0 26 41" fill="none" xmlns="http://www.w3.org/2000/svg"><path fill-rule="evenodd" clip-rule="evenodd" d="M19.1204 16.9119C19.0206 17.0034 18.9195 17.0934 18.8174 17.1819C14.3805 21.0296 8.49938 22.9095 2.63143 17.9003C1.40851 16.8902 0.711679 15.7368 0.400463 14.4737C-0.0252329 12.7458 0.287902 10.833 1.12212 8.91875C3.00352 4.60179 7.62015 0.593965 11.1715 0.335643C12.4512 0.213425 14.0596 0.176372 15.7506 0.161426C18.0953 0.140756 20.5565 0.193998 22.3953 0.213184C23.2518 0.28961 23.9877 0.73432 24.4602 1.37753C24.5319 1.41346 24.6023 1.45167 24.6718 1.49046C25.2172 1.79468 25.8173 2.53006 25.8878 3.88188C25.9504 5.08488 24.9675 8.91424 22.625 12.6441C22.5331 12.7905 22.439 12.9366 22.3424 13.0819C22.17 14.5349 22.0457 15.9895 22.0416 17.4543C22.0372 19.1039 22.1743 20.7519 22.1982 22.4L23.6398 37.3426C23.6398 38.9754 22.3141 40.3012 20.6812 40.3012C19.0483 40.3012 17.7227 38.9754 17.7227 37.3426L19.1642 22.4C19.2039 21.4266 19.2672 20.454 19.2426 19.479C19.2209 18.6217 19.1719 17.7666 19.1204 16.9119V16.9119ZM19.591 5.5606C18.2718 5.3328 16.8274 5.08831 15.4214 4.87843C13.884 4.64894 12.4188 4.44733 11.2394 4.37462C8.67185 4.27455 5.09327 7.01897 3.58574 10.0646C2.97804 11.2921 2.71043 12.5951 3.07634 13.7037C3.28824 14.3455 3.80529 14.8425 4.50786 15.2734C7.02038 16.7429 9.23167 16.6953 11.1604 15.891C12.2648 15.4307 13.1876 14.6174 14.1067 13.7611C15.07 12.8637 15.9045 11.8027 16.7192 10.7615C17.7317 9.46759 18.6462 8.15044 19.3672 6.97628C19.4341 6.45317 19.5108 5.96901 19.591 5.5606Z" fill="#7400BD"/></svg>