<svg width="49" height="45" viewBox="0 0 49 45" fill="none" xmlns="http://www.w3.org/2000/svg"><path fill-rule="evenodd" clip-rule="evenodd" d="M0.517733 3.42258C1.39128 6.05446 2.27339 8.55799 2.83084 11.2569C2.97257 11.9429 3.09607 12.6297 3.14377 13.3281C3.17557 13.7942 3.16645 14.2601 3.1285 14.7257C2.9677 16.6964 2.4503 18.4944 2.16622 20.4511C2.0475 21.2687 1.8974 22.0643 1.8815 22.8906C1.86687 23.6517 1.96407 24.4073 2.0582 25.1628C2.36804 27.6497 2.97853 29.9897 3.29102 32.4803C3.36798 33.093 3.46454 33.6999 3.45458 34.3176C3.44217 35.0931 3.31676 35.8499 3.17684 36.6131C2.8351 38.4764 2.30963 40.1402 1.86613 41.984C1.86613 43.617 3.19189 44.9425 4.82471 44.9425C6.45764 44.9425 7.78329 43.617 7.78329 41.984C7.33417 40.1133 6.79832 38.4228 6.4923 36.5256C6.36669 35.7467 6.27301 34.9687 6.27905 34.1802C6.28361 33.5903 6.38282 33.0134 6.46476 32.4294C6.80025 30.0399 7.36457 27.7898 7.65395 25.398C7.7431 24.6613 7.84309 23.9288 7.82263 23.1874C7.79793 22.291 7.63499 21.4196 7.47026 20.5386C7.07467 18.4227 6.30563 16.5264 5.94247 14.4049C5.81824 13.6794 5.7714 12.9404 5.7608 12.2041C5.73759 10.5943 5.87942 9.02908 5.96168 7.41756C6.04573 5.77043 6.15882 4.20814 6.21617 2.55263C5.97608 0.980017 4.50449 -0.101753 2.93198 0.138337C1.35936 0.378427 0.277643 1.85007 0.517733 3.42258V3.42258Z" fill="#7400BD"/><path fill-rule="evenodd" clip-rule="evenodd" d="M42.0053 1.79518C43.2947 2.21738 44.3992 2.91124 45.3031 3.93796C47.3529 6.26637 48.4569 10.0444 48.6604 14.3811C48.7263 15.7869 48.7025 17.2354 48.7064 18.6957C48.7208 24.0226 48.109 29.4126 46.6067 32.5974C45.7122 34.4934 44.4286 35.6234 43.1759 36.1452C42.1256 36.5825 40.6287 36.7898 39.0271 36.8672C37.1475 36.9579 35.1188 36.8031 33.7739 36.7581C31.5295 36.5353 29.5514 35.9781 27.9264 34.985C23.9733 32.5693 21.8196 28.2869 21.3076 23.4941C21.0847 21.4084 21.1914 19.2603 21.4687 17.1116C21.6482 15.7211 21.892 14.3407 22.2028 12.9916C23.6117 6.87726 27.0435 1.72457 32.0867 0.307556C33.0016 0.0300473 34.2056 0.0697419 35.5202 0.234784C37.6085 0.497029 40.0213 1.2702 41.3388 1.51983C41.5771 1.58492 41.8002 1.67826 42.0053 1.79518V1.79518ZM37.5123 6.11169C36.7823 5.79708 35.992 5.46951 35.2117 5.19899C34.3912 4.91459 33.6326 4.56646 33.035 4.64808C29.2147 5.24571 26.2239 8.85704 24.9201 13.2868C24.3793 15.1243 24.1811 17.112 24.2804 19.0478C24.5049 23.4235 26.4501 27.415 29.8505 29.5332C31.0732 30.2948 32.5236 30.7839 34.2634 30.8836C35.4996 31.0487 37.358 31.3457 39.0972 31.4752C40.0576 31.5465 40.9641 31.6648 41.6263 31.4965C42.3727 31.3073 42.9321 30.3372 43.5254 29.0888C44.2314 27.6029 44.8884 25.7849 45.2972 23.769C45.6696 21.9331 45.9588 19.9637 45.8968 18.018C45.8059 15.1624 45.0644 12.4221 44.0264 10.2592C43.1007 8.32996 41.7474 7.05714 39.8499 7.25875C38.8995 7.25875 38.0533 6.8096 37.5123 6.11169V6.11169Z" fill="#7400BD"/></svg>