<svg width="38" height="61" viewBox="0 0 38 61" fill="none" xmlns="http://www.w3.org/2000/svg"><path fill-rule="evenodd" clip-rule="evenodd" d="M7.13765 19.378C7.30248 17.1531 7.60025 15.0548 8.18357 13.1503C9.57514 8.60735 12.3464 4.96487 18.4462 3.15535C25.8415 0.871364 30.5622 0.105126 33.2869 0.309494C35.401 0.467964 36.5623 1.23509 37.1159 2.22195C37.6911 3.24718 37.6417 4.68698 36.9108 6.44404C34.6142 11.9661 24.872 21.8141 18.2842 28.3432C20.8115 31.19 23.6902 34.4548 26.318 37.7154C28.3333 40.216 30.1785 42.7166 31.6656 45.0146C34.4219 49.2739 35.6515 53.0504 34.4305 55.5613C33.757 56.9465 32.4109 58.0759 30.0879 58.7258C22.0262 61.0591 15.1854 60.8673 10.252 59.0526C6.85737 57.8039 4.3327 55.7322 2.74641 53.1495C0.291561 49.1526 0.0093742 43.6941 3.13351 37.6048C4.00388 35.9085 5.16861 34.1686 6.62918 32.3965C6.85613 29.4665 6.87499 26.5398 6.94516 23.7315C6.76719 23.4793 6.63404 23.2604 6.54383 23.0817C6.13669 22.2755 6.19479 21.5705 6.25616 21.0692C6.33842 20.3968 6.69063 19.8825 7.09873 19.4198L7.13765 19.378V19.378ZM14.9727 31.6051C11.9275 34.6551 9.81403 37.6149 8.39469 40.3297C6.2979 44.3405 5.82951 47.8132 7.28531 50.5523C10.0728 55.7971 18.2262 57.9085 29.2983 55.5674C30.6647 55.266 31.5389 54.7977 31.8514 53.9563C32.2058 53.0023 31.9793 51.7948 31.4194 50.4397C30.4252 48.0339 28.4201 45.2664 25.9827 42.4792C22.6487 38.6671 18.5241 34.8337 14.9727 31.6051V31.6051ZM14.8725 24.4834C21.744 18.8161 31.9134 10.4329 34.4003 5.31334C34.7635 4.56551 35.0362 3.95905 34.7903 3.50813C34.5687 3.10172 33.9867 3.02468 33.1206 2.98175C30.588 2.85646 26.2604 3.88996 19.4984 6.31206C15.0256 7.97075 13.0377 10.7611 12.2455 14.2342C11.8692 15.8837 11.7349 17.6631 11.7292 19.534C12.1491 20.0448 12.4013 20.6984 12.4013 21.4105L12.3992 21.4941C12.5358 21.6908 12.6875 21.8966 12.8377 22.0826C13.3956 22.7732 14.0854 23.5819 14.8725 24.4834V24.4834Z" fill="#7400BD"/></svg>