<svg width="23" height="48" viewBox="0 0 23 48" fill="none" xmlns="http://www.w3.org/2000/svg"><path fill-rule="evenodd" clip-rule="evenodd" d="M0.490852 10.3432C0.889095 11.73 1.30472 13.0056 1.68579 14.3895C2.05795 15.7415 2.46307 17.0362 2.69129 18.4144C2.79527 19.0426 2.85939 19.6813 2.84201 20.3169C2.79049 22.1967 2.26411 23.8776 2.10808 25.7469C2.04395 26.5152 1.96921 27.2704 2.03122 28.0386C2.08242 28.673 2.2493 29.2834 2.39855 29.902C2.88816 31.9314 3.60207 33.7841 4.05024 35.8272C4.15942 36.3248 4.28447 36.8145 4.31214 37.3238C4.34924 38.0037 4.27961 38.6766 4.17679 39.3509C3.92483 41.0036 3.40693 42.4225 2.95929 44.0454C2.95929 45.6783 4.28489 47.0041 5.91782 47.0041C7.55076 47.0041 8.87641 45.6783 8.87641 44.0454C8.42093 42.397 7.89424 40.9677 7.49292 39.3173C7.33095 38.6511 7.18198 37.9938 7.13895 37.3108C7.1046 36.7671 7.17375 36.2313 7.22124 35.6892C7.4165 33.463 7.85444 31.3834 7.94741 29.155C7.9755 28.4805 7.99966 27.8046 7.90766 27.1357C7.80759 26.4077 7.57634 25.7302 7.36265 25.0267C6.85088 23.3419 6.12126 21.8777 5.66949 20.1716C5.56444 19.7753 5.48673 19.3742 5.44719 18.9657C5.38793 18.3541 5.40099 17.7427 5.42897 17.128C5.54016 14.689 5.93075 12.4014 6.2425 9.95968C6.13671 8.37254 4.76221 7.16973 3.17497 7.27552C1.58772 7.38141 0.385064 8.75596 0.490852 10.3432V10.3432Z" fill="#7400BD"/><path fill-rule="evenodd" clip-rule="evenodd" d="M16.3151 3.54456C16.542 5.06937 16.8092 6.52181 17.0338 8.08849C17.2484 9.58553 17.5097 11.0516 17.5901 12.5879C17.6263 13.2821 17.6237 13.9843 17.5401 14.6779C17.2965 16.7004 16.6074 18.515 16.2845 20.5356C16.1506 21.3737 16.0127 22.1998 16.0117 23.0464C16.0109 23.7496 16.1289 24.4387 16.2324 25.1313C16.5752 27.4237 17.1707 29.5456 17.52 31.7781C17.607 32.3348 17.7102 32.8815 17.7183 33.4394C17.7294 34.1951 17.638 34.9347 17.5167 35.6689C17.2104 37.5225 16.6734 39.1198 16.2355 40.8559C16.2355 42.4887 17.5611 43.8145 19.1941 43.8145C20.8269 43.8145 22.1527 42.4887 22.1527 40.8559C21.7183 39.1373 21.1913 37.5605 20.8325 35.7369C20.6906 35.016 20.5608 34.296 20.5435 33.5502C20.53 32.964 20.6217 32.3851 20.6941 31.7971C20.9831 29.4475 21.5612 27.2035 21.8218 24.787C21.8999 24.0627 21.9691 23.3361 21.9427 22.6053C21.9238 22.0804 21.8344 21.5697 21.743 21.0517C21.366 18.9121 20.6726 16.9787 20.3675 14.8364C20.3043 14.3932 20.2683 13.9489 20.272 13.5026C20.2775 12.8302 20.3563 12.1671 20.4504 11.5053C20.8318 8.82459 21.4927 6.35504 22.073 3.81877C22.1487 2.22983 20.9201 0.878318 19.3311 0.802633C17.7422 0.726949 16.3908 1.95562 16.3151 3.54456V3.54456Z" fill="#7400BD"/></svg>