<svg width="174" height="132" viewBox="0 0 174 132" fill="none" xmlns="http://www.w3.org/2000/svg"><path fill-rule="evenodd" clip-rule="evenodd" d="M33.8532 76.7733C33.6658 75.6391 34.1525 74.4499 35.1825 73.7937C37.4415 72.6761 39.3129 72.5616 40.9265 73.4734C41.828 73.9827 42.7138 74.6783 43.4208 75.7424C45.0993 78.2688 46.0493 82.678 46.7765 87.1622C47.0206 88.6672 47.3136 90.1595 47.5616 91.5747C48.0416 94.3139 48.4478 96.734 48.5841 98.2918C48.7866 100.431 48.9306 104.56 48.2495 107.866C47.8493 109.808 47.0394 111.432 46.0589 112.545C45.1087 113.583 44.0694 114.294 42.9972 114.819C41.5924 115.507 40.119 115.765 38.8004 116.264C33.8301 117.746 30.5474 116.508 28.5919 113.365C26.8851 110.622 26.492 106.215 26.7393 101.012C26.8557 98.5622 26.9305 95.9227 27.2995 93.2338C27.5304 90.726 28.0213 86.6194 29.009 83.2621C29.5453 81.439 30.2988 79.8679 31.1644 78.7242C31.6844 78.0371 32.3406 77.5862 33.0008 77.1906C33.2763 77.0256 33.5625 76.8891 33.8532 76.7733V76.7733ZM40.2215 79.2015C40.0405 80.3087 39.218 81.2556 38.0604 81.5384C37.3978 81.6456 36.5928 81.6321 35.7853 81.7931C35.4958 81.8508 35.1557 81.8197 34.9108 82.0549C34.0012 82.9286 33.206 84.3557 32.567 85.9642C31.4908 88.6726 30.7622 91.7415 30.3132 93.7162C29.8994 95.8692 29.5185 97.9861 29.4509 100.009C29.3955 101.668 29.5456 103.246 29.7793 104.695C30.0408 106.318 30.519 107.731 31.0772 108.934C31.6704 110.213 32.4804 111.087 33.5216 111.466C34.4012 111.787 35.4156 111.437 36.6977 110.829C37.8918 110.357 39.207 110.062 40.5086 109.485C41.0295 109.254 41.5805 109.012 42.0761 108.559C42.8053 107.921 43.2748 106.738 43.6361 105.44C44.3465 102.887 44.66 99.9917 44.7442 98.3734C44.8108 96.3644 44.8976 92.7496 44.2489 89.0365C44.0189 87.7203 43.633 86.4151 43.2199 85.159C42.4871 82.9309 41.5176 80.9381 40.4558 79.492C40.38 79.3888 40.3023 79.2915 40.2215 79.2015V79.2015Z" fill="#7400BD"/><path fill-rule="evenodd" clip-rule="evenodd" d="M72.5235 85.409C72.572 84.9869 72.5949 84.558 72.5974 84.1264C72.6102 81.8964 72.2481 79.6556 72.203 77.8707C72.1079 76.2732 72.087 74.6662 71.9497 73.0612C71.8131 71.4645 71.5942 69.8776 71.3728 68.2851C70.7072 63.5005 69.8717 58.7899 69.0256 54.0815C68.8843 52.4547 70.0903 51.0192 71.7171 50.8779C73.3439 50.7367 74.7793 51.9427 74.9206 53.5694C74.9179 59.1799 74.6109 64.8038 74.6661 70.4616C74.6754 71.4205 74.7069 72.3775 74.7777 73.3313C74.8843 74.7656 75.0904 76.1852 75.2594 77.6049C75.5773 79.7218 76.3737 82.4185 76.5439 85.0689C76.6267 86.3576 76.5285 87.6229 76.2459 88.8361C75.7897 90.7819 74.4856 91.2214 73.2273 91.285C72.4311 91.3253 71.434 90.9195 70.4275 90.2439C69.1142 89.3624 67.7476 87.8311 67.4263 87.5133C66.1223 86.1891 64.9714 84.5191 63.9619 82.6537C63.0014 80.879 62.1422 78.941 61.2986 77.0587C60.5109 75.3008 59.8381 73.5575 58.8031 72.1784C57.7475 70.7331 56.8592 69.5308 56.1197 68.5505C56.2281 70.2188 56.3227 71.8879 56.499 73.5501C56.8406 76.772 57.3841 79.9578 57.8273 83.1673L60.3915 98.0814C60.5318 99.6659 59.3594 101.066 57.7748 101.207C56.1903 101.347 54.7898 100.175 54.6495 98.59L54.1676 83.4916C54.0398 80.254 54.0147 77.0224 53.7846 73.7905C53.6314 71.6406 53.3426 69.5032 53.1217 67.3591C53.0541 66.9283 52.6937 65.4997 52.5778 64.5807C52.4948 63.9224 52.6204 63.4022 52.7192 63.1212C52.981 62.3767 53.6289 61.8644 54.9048 62.1861C55.1181 62.2399 55.5607 62.4945 56.2298 63.0288C57.251 63.844 59.2542 65.7158 62.5472 68.9363C63.8716 70.2594 65.0294 71.8903 66.059 73.6896C66.8799 75.1239 67.621 76.657 68.3141 78.1777C69.2901 80.3193 70.0966 82.4605 71.362 84.0257C71.4762 84.1732 72.0047 84.7986 72.5235 85.409Z" fill="#7400BD"/><path fill-rule="evenodd" clip-rule="evenodd" d="M82.5252 51.531C83.5354 50.708 84.8577 49.4083 86.7805 48.077C87.3883 47.6561 88.0268 47.2016 88.7707 46.9233C90.544 46.2598 92.4132 46.3494 94.2733 45.7292C94.5786 45.6275 94.8723 45.505 95.1467 45.343C95.5684 45.0939 95.9373 44.7855 96.2919 44.464C97.6603 43.2236 98.6313 41.9371 99.596 40.7309C100.09 40.1127 100.587 39.593 100.959 39.0293C101.25 38.8045 101.551 38.497 101.942 38.2061C102.432 37.8416 102.939 37.5559 103.491 37.2403C103.898 37.0077 104.27 36.9516 104.623 36.8138C104.716 36.7774 104.778 36.9272 104.854 36.9112C106.231 36.0339 106.637 34.2035 105.76 32.8264C104.882 31.4492 103.052 31.0434 101.675 31.9207C101.385 32.3089 100.979 32.6276 100.676 33.2392C100.048 34.5085 99.356 36.1213 98.8642 37.1671C98.5452 37.4472 98.1942 37.7256 97.7801 37.9744C96.7058 38.6197 95.4083 38.9017 93.9911 39.4423C93.4513 39.6482 92.8908 39.7876 92.3701 40.0834C91.8626 40.372 91.4259 40.7613 90.9798 41.1533C89.8351 42.1594 89.1059 43.3518 87.9152 44.2294C87.5052 44.5315 87.0579 44.7729 86.6024 44.9546C85.4957 45.396 84.4235 45.5562 83.4282 45.7609C82.0464 46.045 80.97 46.157 80.0993 46.3017C78.6564 46.9712 78.0282 48.6862 78.6976 50.1293C79.3671 51.5722 81.0821 52.2004 82.5252 51.531Z" fill="#7400BD"/><path fill-rule="evenodd" clip-rule="evenodd" d="M99.1351 72.9916C98.115 71.0698 97.0766 69.2886 96.298 67.2082C96.1056 66.6941 95.9282 66.1762 95.824 65.6341C95.7547 65.2742 95.7261 64.9096 95.7249 64.5416C95.7198 62.9656 96.0789 61.5571 96.1905 59.9606C96.2359 59.3109 96.3167 58.6837 96.2582 58.0308C96.2051 57.4385 96.0412 56.8642 95.881 56.288C95.3511 54.3822 94.5454 52.68 94.0132 50.7393C93.8849 50.2712 93.7373 49.8116 93.6952 49.3261C93.6425 48.7176 93.7063 48.1195 93.7837 47.5107C93.9761 45.9998 94.3682 44.718 94.687 43.2128C94.5429 41.5863 93.1055 40.3828 91.4789 40.5268C89.8525 40.6709 88.6489 42.1084 88.7929 43.7349C89.3856 45.1978 90.0234 46.4178 90.4917 47.9081C90.6797 48.5063 90.8369 49.1045 90.8975 49.7256C90.9429 50.1919 90.8932 50.6512 90.8619 51.117C90.7307 53.0633 90.3771 54.8461 90.3033 56.7638C90.2807 57.3538 90.2476 57.9381 90.3346 58.5188C90.4407 59.2267 90.6796 59.8855 90.9209 60.5543C91.5165 62.2043 92.4215 63.5298 92.9645 65.1679C93.1475 65.7202 93.2549 66.296 93.3243 66.8701C93.4796 68.1534 93.4588 69.3878 93.4952 70.664C93.5334 72.0045 93.5342 73.2274 93.5859 74.5521C94.0164 76.0834 95.6093 76.977 97.1406 76.5464C98.672 76.1158 99.5656 74.523 99.1351 72.9916V72.9916Z" fill="#7400BD"/><path fill-rule="evenodd" clip-rule="evenodd" d="M115.007 45.2637C115.302 46.7356 115.665 48.1904 116.016 49.6556C117.04 53.9295 118.155 58.152 118.997 62.6685C119.141 64.295 117.937 65.7325 116.311 65.8766C114.684 66.0206 113.247 64.8171 113.103 63.1907C113.121 57.8446 112.941 52.7903 112.435 47.711C112.332 46.6738 112.208 45.6409 112.042 44.6112C111.877 43.5822 111.664 42.561 111.45 41.5371C110.808 38.4815 110.087 35.4383 109.499 32.2748C109.451 31.8708 109.522 31.4613 109.703 31.0971C110.198 29.9041 110.992 27.5193 111.83 25.6245C112.343 24.4651 112.935 23.5018 113.439 22.8867C114.997 21.0567 116.767 19.5356 118.552 18.5583C120.285 17.6098 122.058 17.1531 123.628 17.2331C126.703 17.3896 129.473 19.0944 130.34 23.5499C130.655 25.3691 130.023 27.7976 128.42 30.2452C127.069 32.3081 125.17 34.4241 123.489 36.3292C122.14 37.8582 120.976 39.2535 120.227 40.138L118.486 42.1762L120.817 42.4087C123.08 42.5041 126.599 43.826 129.212 46.0384C131.074 47.614 132.307 49.7132 132.7 52.0932C132.84 53.6777 131.668 55.0781 130.083 55.2185C128.499 55.3589 127.098 54.1864 126.958 52.6018C126.938 51.1355 126.11 49.8389 125.01 48.8364C123.511 47.4696 121.69 46.4682 120.377 46.2188L116.035 45.2289L115.371 45.2478C115.249 45.2675 115.127 45.2726 115.007 45.2637V45.2637ZM114.486 42.0718L118.14 38.437C118.773 37.6418 119.801 36.5081 120.835 35.1115C122 33.5364 123.159 31.6407 124.122 29.8012C125.132 27.8709 125.929 26.0517 125.491 24.8309C124.974 23.2532 123.921 22.9344 122.714 23.2478C120.985 23.6971 119.019 24.8486 117.31 26.527C116.864 26.9408 116.341 27.7239 115.831 28.5983C115.021 29.9853 114.238 31.5243 113.677 32.5316C113.769 34.3672 113.873 36.1704 114.047 37.9662C114.18 39.3433 114.31 40.7126 114.486 42.0718V42.0718Z" fill="#7400BD"/><path fill-rule="evenodd" clip-rule="evenodd" d="M136.268 10.9524C136.504 10.6825 136.747 10.4178 136.999 10.1589C138.204 9.12035 140.025 9.25558 141.064 10.4606C141.492 10.9577 141.721 11.5598 141.757 12.1687C142.34 12.4142 142.764 12.6215 142.883 12.7126C144.133 13.6286 145.171 15.2244 145.7 17.4761C145.999 18.7446 146.17 20.1923 146.345 21.7447C146.446 22.6402 146.567 23.5638 146.685 24.5002C147.15 28.2044 147.441 32.0823 147.395 34.8789C147.378 36.2563 147.526 38.6948 147.135 40.6551C146.854 42.0681 146.181 43.2119 145.4 44.031C144.533 44.8859 143.683 45.5528 142.846 46.0236C141.879 46.567 140.929 46.89 140.026 47.0115C138.608 47.2023 137.281 47.0719 136.106 46.4971C134.103 45.5162 132.349 43.5851 131.381 40.7312C130.807 39.0372 130.454 37.0891 130.304 34.9415C130.219 33.7302 130.209 32.4742 130.194 31.1769C130.168 29.0532 130.212 26.8467 130.499 24.6275C130.933 21.2717 131.887 17.9637 133.482 14.9967C133.436 14.8312 133.405 14.659 133.389 14.4819C133.456 12.872 133.903 11.5822 135.481 11.1251C135.703 11.061 135.968 10.9967 136.268 10.9524V10.9524ZM138.527 16.4442C136.075 18.9401 134.388 22.1329 133.542 25.5119C133.039 27.5202 132.765 29.5761 132.869 31.5283C132.942 32.9239 133.258 34.2439 133.624 35.4696C134.227 37.4851 135.213 39.1039 136.269 40.3098C137.19 41.3626 138.298 41.6511 139.603 41.0137C140.182 40.7313 140.821 40.3612 141.473 39.7857C141.887 39.454 142.035 38.7535 142.193 38.0556C142.5 36.7054 142.672 35.3115 142.839 34.4272C143.214 32.4485 143.639 29.8639 143.738 27.1672C143.799 25.527 143.826 23.8507 143.573 22.3035C143.113 19.499 142.141 17.1653 140.702 16.5077C140.557 16.4479 139.432 16.4395 138.527 16.4442V16.4442Z" fill="#7400BD"/><path fill-rule="evenodd" clip-rule="evenodd" d="M169.608 25.0298C168.839 25.3607 167.411 25.5422 166.484 26.2263C165.946 26.6237 165.399 27.0364 164.908 27.528C164.417 28.0191 163.993 28.5733 163.58 29.1106C162.316 30.7512 161.255 32.2761 160.387 33.1808C158.858 34.7751 157.206 34.4026 156.389 34.0474C155.9 33.8349 155.101 32.7455 154.636 30.9673C154.364 29.9306 154.094 28.5111 154.018 27.2606C153.962 26.3236 154.104 25.5301 154.077 25.2563C154.06 22.2686 154.355 19.4024 154.067 16.4225C153.941 15.1203 153.616 13.8434 153.307 12.5608C152.582 9.55331 151.649 6.66418 150.902 3.53962C150.762 1.95503 151.934 0.554676 153.519 0.414226C155.103 0.273882 156.504 1.44635 156.644 3.03094C156.514 4.87969 156.374 6.63292 156.346 8.43958C156.317 10.276 156.311 12.0601 156.444 13.8616C156.484 14.4019 156.538 14.9408 156.636 15.472C156.734 16.0085 156.874 16.5302 157.03 17.0518C157.775 19.5524 158.721 21.8512 159.601 24.3064C159.691 24.6894 159.921 25.8788 159.96 27.2521C159.969 27.5427 159.925 27.8881 159.862 28.2469C160.18 28.0073 160.506 27.7468 160.836 27.4667C161.518 26.8882 162.239 26.2871 162.87 25.5953C163.355 25.0639 163.761 24.4846 164.169 23.9248C165.57 22.0023 166.881 20.4756 167.948 19.6801C168.625 19.1753 169.334 19.1568 169.923 19.0429C171.212 18.7936 172.073 19.6336 173.08 20.6864C173.931 22.0801 173.49 23.9023 172.096 24.7531C171.319 25.2276 170.409 25.3004 169.608 25.0298V25.0298ZM159.53 30.3775C159.547 30.6315 159.638 30.7802 159.855 30.7587C159.972 30.7472 159.68 30.6372 159.654 30.5785C159.62 30.5013 159.579 30.4349 159.53 30.3775ZM170.142 24.4743C170.157 24.4472 170.121 24.3349 170.13 24.3704C170.138 24.4065 170.142 24.441 170.142 24.4743ZM168.107 23.8888L168.03 23.7694C168.046 23.8173 168.074 23.8558 168.107 23.8888Z" fill="#7400BD"/><path fill-rule="evenodd" clip-rule="evenodd" d="M18.7108 92.3541C13.4307 91.7893 9.61848 94.2031 7.04459 98.6201C6.21248 100.048 5.53949 101.66 4.83841 103.353C4.40911 104.389 3.93752 105.424 3.5043 106.507C2.50217 109.013 1.60625 111.585 1.13932 114.248C0.908562 115.564 0.766307 116.871 0.797153 118.145C0.830755 119.531 1.06831 120.857 1.37518 122.085C2.87975 128.103 6.2103 131.878 10.3001 131.007C11.5438 130.805 12.5525 130.473 13.4438 130.165C14.7095 129.727 15.6861 129.204 16.5482 128.591C18.8887 126.926 19.8922 124.381 22.5897 122.41C23.7448 121.256 23.7456 119.381 22.5915 118.226C21.4372 117.071 19.5624 117.07 18.4073 118.224C17.5156 119.476 16.8728 120.652 16.38 121.909C15.7738 123.454 15.4936 124.99 14.4056 126.198C13.9367 126.718 13.3509 127.219 12.5152 127.516C11.8179 127.763 10.9728 127.82 9.98505 127.858C8.81863 127.844 8.20691 126.875 7.68157 125.673C7.20234 124.577 7.05604 123.2 6.90732 121.658C6.81818 120.734 6.83336 119.759 6.77368 118.742C6.70298 117.537 6.58837 116.291 6.53166 115.007C6.39853 111.998 6.19736 108.896 6.83771 105.989C6.98844 105.305 7.17498 104.638 7.43054 104.008C7.82603 103.034 8.35507 102.151 8.92122 101.346C10.2713 99.4253 11.9996 98.1126 13.9324 97.5914C15.033 97.2946 16.1845 97.5272 17.4519 97.9794C19.0042 98.3269 20.5466 97.3486 20.894 95.7962C21.2414 94.2439 20.2631 92.7016 18.7108 92.3541Z" fill="#7400BD"/></svg>