<svg width="47" height="64" viewBox="0 0 47 64" fill="none" xmlns="http://www.w3.org/2000/svg"><path fill-rule="evenodd" clip-rule="evenodd" d="M34.0328 41.9011C32.2406 42.0755 30.3166 42.0784 28.3326 41.9304C22.7426 41.5135 16.7181 39.9736 11.7971 38.5082C9.07788 37.6985 6.71801 36.8993 4.98619 36.2628C3.51056 35.7204 2.46091 35.2885 2.00235 35.0006C1.37335 34.6056 1.20942 34.1174 1.16522 33.8719C0.518727 30.615 1.28823 26.9117 2.69591 23.0974C5.64408 15.1087 11.6962 6.64609 13.9338 1.98802C14.6955 0.59147 16.4476 0.0761933 17.8442 0.837909C19.2406 1.59963 19.7559 3.35182 18.9942 4.74837C16.6497 8.55356 11.0305 14.829 7.26394 21.4733C5.09423 25.3006 3.53587 29.222 3.74162 32.7174C4.10817 32.8649 4.71596 33.3372 5.42913 33.5733C7.15131 34.143 9.67057 34.772 12.6035 35.3187C17.7051 36.2695 24.029 36.7582 29.5884 36.4979C32.0392 36.3831 34.3136 36.0913 36.2367 35.4963C36.8967 31.5025 37.1548 24.5406 38.3309 21.3628C39.0329 19.4663 40.2906 18.6379 41.4572 18.5087C42.2801 18.4175 43.2682 18.7206 44.3745 19.7179C44.8904 20.1835 45.3837 21.2341 45.6779 22.6508C46.2469 25.3909 46.2315 30.0692 46.2556 30.5456C46.4376 35.64 43.7207 38.891 39.3675 40.6701C38.8439 40.8841 38.2921 41.0721 37.7158 41.2346C37.4952 41.9948 37.2633 42.7736 37.0316 43.5673C36.1365 46.6329 35.2133 49.8859 34.5935 52.9733C34.245 54.7088 34.0395 56.3749 34.026 57.9041C34.5966 58.4429 34.9525 59.2064 34.9525 60.0524C34.9525 61.6852 33.6268 63.011 31.9939 63.011C30.2512 62.8795 29.3851 62.4931 28.8725 61.5436C28.6742 61.1762 28.2705 60.5475 28.3664 59.2759C28.5401 56.9749 29.1902 54.4165 30.1195 51.741C31.2466 48.4961 32.736 45.0851 34.0328 41.9011V41.9011ZM41.3631 24.3894C41.2255 24.759 41.0997 25.1448 41.0089 25.5144C40.3858 28.0499 39.9455 31.2257 39.4821 33.861C40.3913 33.0736 40.973 32.0199 41.0271 30.5456C41.0461 30.1692 41.4479 26.8502 41.3631 24.3894Z" fill="#7400BD"/></svg>