<svg width="162" height="349" viewBox="0 0 162 349" fill="none" xmlns="http://www.w3.org/2000/svg"><path fill-rule="evenodd" clip-rule="evenodd" d="M5.75184 311.33L5.71178 311.59C5.39463 313.749 5.21115 315.838 4.96088 317.975C4.82096 319.78 4.61591 321.557 4.5876 323.351C4.55909 325.156 4.707 326.954 4.74484 328.767C4.87183 331.039 5.00032 333.277 5.18592 335.513C5.46937 338.928 5.85504 342.261 6.23536 345.609C6.2748 347.2 5.01575 348.523 3.42554 348.562C1.83522 348.602 0.512088 347.343 0.472656 345.752L1.72975 328.724C1.81836 326.925 1.9727 325.14 1.95065 323.346C1.9285 321.54 1.73081 319.749 1.64145 317.928C1.44768 315.736 1.19073 313.607 1.06777 311.379C0.984451 309.869 0.997267 308.352 1.09468 306.759C1.14895 306.17 1.03594 305.18 1.1217 304.342C1.20332 303.543 1.46752 302.842 1.76443 302.299C2.6562 300.667 3.93446 300.44 4.98821 300.486C5.71039 300.517 6.52286 300.817 7.24557 301.487C7.79613 301.998 8.18725 303.806 8.69965 303.489L8.56042 303.321C8.59911 303.365 8.78035 303.437 8.70731 303.485L8.69965 303.489C9.07065 303.945 9.42631 304.465 9.69682 305.099C9.995 305.797 10.265 306.609 10.4156 307.573C10.9527 311.641 11.0053 316.215 11.0821 320.913C11.1125 322.776 11.0873 324.649 11.2388 326.5C11.3663 328.058 11.6626 329.578 11.8941 331.08C12.0895 331.99 13.0106 338.696 13.5449 341.429L13.5688 341.534C14.1516 342.774 13.8068 344.297 12.6683 345.153C11.3635 346.135 9.5071 345.873 8.52544 344.568C8.41912 344.384 7.86368 343.436 7.92494 341.863C8.03338 339.082 8.59547 332.34 8.60639 331.409C8.53441 329.872 8.56104 328.306 8.43776 326.728C8.31734 325.186 8.07512 323.649 7.85093 322.111C7.30323 318.355 6.61521 314.683 5.75184 311.33V311.33ZM13.2863 341.056C13.2744 341.036 13.2633 341.02 13.2537 341.01L13.2863 341.056ZM3.819 306.323C3.62788 305.922 3.40892 305.605 3.18155 305.827C2.90532 306.097 3.34105 306.243 3.819 306.323ZM6.51475 305.726C6.62944 305.604 6.73959 305.46 6.84528 305.294C6.88301 305.234 7.00558 305.118 6.93233 305.088C6.63151 304.966 6.53415 305.276 6.51475 305.726V305.726Z" fill="#7400BD"/><path fill-rule="evenodd" clip-rule="evenodd" d="M10.967 317.936C10.4818 318.946 10.198 319.828 9.63441 321.127C9.47011 321.506 9.31605 321.916 8.99169 322.204C8.11337 322.983 7.12003 322.882 6.0771 323.523C5.89701 323.634 5.72897 323.744 5.597 323.908C5.46821 324.068 5.40251 324.258 5.33106 324.45C4.85322 325.73 5.09556 326.941 4.39363 327.919C4.25975 328.105 4.05215 328.199 3.85669 328.296C3.46714 328.488 3.1922 328.452 2.80891 328.527C2.32618 328.621 2.11888 328.41 1.70771 328.413C0.380374 329.364 0.0749179 331.214 1.02606 332.541C1.97709 333.869 3.82693 334.174 5.15426 333.223C5.49091 332.339 5.71056 331.827 6.08559 330.651C6.18088 330.352 6.26768 330.066 6.48816 329.813C6.73196 329.534 7.06261 329.41 7.40521 329.217C8.21621 328.761 8.92868 328.578 9.7487 328.007C9.98465 327.843 10.2238 327.676 10.3784 327.431C10.5585 327.144 10.5798 326.851 10.652 326.52C10.8485 325.62 10.689 325.021 10.969 324.174C11.0236 324.009 11.0945 323.856 11.2037 323.724C11.3701 323.524 11.5855 323.396 11.7995 323.262C12.2828 322.958 12.7014 322.848 13.1882 322.665C13.7193 322.465 14.0981 322.527 14.5759 322.431C15.8164 321.435 16.0148 319.619 15.0189 318.379C14.0229 317.139 12.2074 316.94 10.967 317.936V317.936Z" fill="#7400BD"/><path fill-rule="evenodd" clip-rule="evenodd" d="M15.8353 296.743C15.8648 297.227 15.9072 298.062 15.8775 298.398C15.7837 299.451 15.7213 300.48 15.6981 301.519C15.6621 303.137 15.6837 304.727 15.7069 306.353C15.7942 307.939 15.8158 309.519 15.9764 311.091C16.218 313.456 16.6257 315.789 17.0397 318.117C18.0767 323.949 19.4473 329.64 20.9702 335.37C21.2648 336.933 20.235 338.441 18.6718 338.736C17.1086 339.031 15.6001 338.001 15.3055 336.438C14.8722 332.432 14.6063 328.465 14.3138 324.459C14.0246 320.498 13.8762 316.537 13.4652 312.562C13.2618 310.595 12.894 308.647 12.6139 306.678C12.2901 305.039 11.9776 303.435 11.7129 301.793C11.5324 300.674 11.3929 299.559 11.2839 298.411C11.2283 297.824 10.8383 296.812 10.8246 296.01C10.8143 295.411 11.0226 294.89 11.2348 294.414C11.609 293.623 13.5263 291.105 15.2636 289.485C16.7452 288.104 18.3736 287.554 19.1291 287.541C20.7915 287.584 22.292 288.364 23.3493 289.728C24.4971 291.209 25.149 293.287 25.2143 294.5C25.2703 296.219 24.9695 297.912 24.318 299.571C23.5436 301.542 22.399 303.468 21.3399 305.358C20.9588 306.037 20.3052 306.982 19.8503 307.916C19.6549 308.318 19.3952 308.667 19.4235 308.98C19.485 309.571 19.7284 310.192 20.0755 310.793C20.7426 311.947 21.6555 313.043 22.2107 314.022C24.0639 316.687 26.1748 319.565 27.8237 322.605C29.0735 324.909 29.9445 327.29 30.3045 329.8C30.3601 331.432 29.0804 332.802 27.4484 332.858C25.8164 332.913 24.4464 331.633 24.3907 330.002C24.5313 328.112 24.3033 326.222 23.71 324.356C22.7148 321.224 21.0741 318.239 19.7445 315.456C19.0684 314.338 17.9652 313.039 17.1891 311.744C16.7408 310.996 16.4074 310.24 16.2437 309.491C16.0968 308.854 16.2034 308.058 16.425 307.198C16.7382 305.981 17.4061 304.604 17.7554 303.683C18.4511 301.854 19.237 299.99 19.6693 298.127C19.9082 297.097 19.957 296.079 19.7763 295.075C19.7301 294.772 19.449 293.905 19.1653 293.487L19.1155 293.483H19.0416C18.3405 294.062 17.424 295.289 16.7936 295.888C16.4104 296.252 16.0474 296.535 15.8353 296.743V296.743ZM19.1653 293.487C19.4162 293.506 20.0896 293.633 19.9243 293.34C19.7662 293.059 19.4742 293.146 19.1192 293.421L19.1653 293.487V293.487ZM19.1192 293.421C18.9793 293.238 18.8417 293.18 18.736 293.373C18.6815 293.472 18.8919 293.484 19.0416 293.483L19.0867 293.446L19.1192 293.421Z" fill="#7400BD"/><path fill-rule="evenodd" clip-rule="evenodd" d="M31.7628 301.489C31.7806 302.816 31.8002 304.147 31.8225 305.485C31.8332 306.125 31.8458 306.767 31.8881 307.408C31.9862 308.897 32.1445 310.384 32.3084 311.886C32.8401 316.759 33.4684 321.675 33.8679 326.897C33.8448 328.53 32.5004 329.836 30.8677 329.813C29.235 329.79 27.9283 328.446 27.9514 326.813C28.4898 321.69 28.9615 316.833 29.1009 312.014C29.1443 310.517 29.1637 309.034 29.1035 307.557C29.0775 306.919 29.0183 306.285 28.9547 305.653C28.2386 298.526 27.0648 291.656 26.0102 284.572C25.9629 284.025 26.0806 283.477 26.348 282.997C27.1289 281.439 27.742 280.205 28.4206 279.114C29.0012 278.18 29.6422 277.359 30.397 276.521C32.5365 274.382 34.7472 273.709 36.4509 274.109C37.6066 274.381 38.7213 274.966 39.4882 276.17C40.5735 277.874 41.2682 281.204 40.0184 286.268C39.7708 287.265 39.4155 288.357 38.9974 289.464C38.4122 291.013 37.7521 292.573 37.2093 293.862C36.826 294.945 36.1844 296.677 35.5193 298.243C36.3758 298.588 37.1804 299.702 37.7599 300.964C38.6877 302.95 39.7097 306.154 40.556 309.598C41.3115 312.672 41.868 315.91 42.0274 318.665C42.0048 320.256 40.6952 321.529 39.1045 321.506C37.514 321.484 36.241 320.174 36.2636 318.584C36.4759 316.126 36.4092 313.189 36.1118 310.375C35.7705 307.146 35.2022 304.117 34.5904 302.205C34.505 301.944 34.2768 301.677 34.1521 301.451L33.4161 301.935L33.3107 301.998L33.2755 302.027C33.2589 302.04 33.2368 302.049 33.2094 302.053C32.4969 302.412 32.0305 302.038 31.7628 301.489V301.489ZM35.442 279.753C35.3259 279.47 35.199 279.304 35.0852 279.451C35.0039 279.556 35.2164 279.708 35.4106 279.781C35.2161 279.964 34.9598 280.338 34.7554 280.571C34.204 281.146 33.7523 281.724 33.3036 282.358C32.7361 283.159 32.1681 284.032 31.5061 285.095C31.6201 289.964 31.674 294.75 31.737 299.577C32.2219 299.121 32.7358 297.989 33.2135 296.795C33.7704 295.403 34.1862 293.897 34.4809 292.94C34.82 291.628 35.2514 290.042 35.5776 288.47C35.7838 287.475 35.9205 286.499 35.9875 285.619C36.144 283.58 36.0087 281.975 35.7337 280.747C35.6664 280.446 35.5689 280.076 35.4592 279.8L35.4106 279.781L35.4234 279.768L35.442 279.753V279.753ZM35.4592 279.8C35.5961 279.846 35.709 279.844 35.675 279.748C35.6354 279.635 35.5501 279.658 35.442 279.753L35.4592 279.8V279.8Z" fill="#7400BD"/><path fill-rule="evenodd" clip-rule="evenodd" d="M47.6789 270.225C47.4947 270.824 47.3448 271.37 47.2424 271.707C46.9088 272.649 46.6611 274.589 46.5044 276.713C46.2518 280.136 46.1738 283.906 46.1594 285.212C46.2734 287.241 46.2831 289.319 46.4229 291.427C46.7351 296.134 47.2219 300.98 47.463 305.949C47.6071 308.92 47.7366 311.895 47.781 314.907C47.6829 316.495 46.3143 317.704 44.7266 317.606C43.1389 317.508 41.9294 316.139 42.0275 314.552C42.8151 308.661 43.4257 302.82 43.6259 297.112C43.7094 294.732 43.7619 292.387 43.6569 290.088C43.5847 288.506 43.3889 286.955 43.2343 285.426C42.9934 283.912 42.299 279.125 41.9916 275.294C41.8235 273.197 41.8519 271.382 42.0211 270.361C42.1987 269.423 42.5893 268.096 43.1192 266.819C43.6932 265.435 44.4678 264.141 45.1711 263.346C47.1749 261.082 49.3685 261.32 50.7926 262.769C51.4568 263.476 52.0939 264.532 52.4416 265.904C52.8453 267.497 53.0075 269.553 53.0529 271.442C53.1747 277.236 52.8261 283.195 52.8249 289.259C52.8247 290.269 52.863 291.28 52.9277 292.291C53.025 293.809 53.2142 295.311 53.3564 296.828L55.0838 308.88C55.0606 310.513 53.7162 311.819 52.0835 311.796C50.4508 311.773 49.1441 310.429 49.1672 308.796C49.3079 307.615 49.4173 306.493 49.4758 305.368C49.6238 302.525 49.5901 299.831 49.8066 296.906C49.8874 294.881 50.0583 292.868 50.0408 290.848C50.0291 289.501 49.9203 288.16 49.8134 286.824C49.4046 281.715 48.7192 276.73 47.97 271.873C47.8883 271.331 47.79 270.775 47.6789 270.225V270.225ZM48.7293 267.637C49.1396 267.611 49.9294 267.573 49.618 267.289C49.3185 267.015 49.0157 267.205 48.7293 267.637Z" fill="#7400BD"/><path fill-rule="evenodd" clip-rule="evenodd" d="M52.3704 284.144C52.2275 284.863 52.1599 285.396 51.9717 286.156C51.8109 286.805 51.7257 287.39 51.4007 288.002C51.2685 288.251 51.0917 288.487 50.8685 288.663C50.0772 289.286 49.3088 289.27 48.4409 289.78C48.1298 289.963 47.828 290.107 47.6001 290.382C47.4155 290.605 47.3494 290.878 47.246 291.144C46.7641 292.381 46.9214 293.579 46.1732 294.49C45.9755 294.731 45.688 294.832 45.4138 294.941C44.5439 295.286 44.0052 295.041 43.235 295.094C41.9077 296.045 41.6023 297.895 42.5534 299.222C43.5044 300.549 45.3543 300.855 46.6816 299.903C47.0586 298.999 47.2728 298.437 47.7069 297.335C47.8292 297.024 47.9499 296.733 48.1858 296.471C48.3598 296.279 48.5887 296.171 48.823 296.039C49.7943 295.49 50.6905 295.246 51.6882 294.545C51.9456 294.364 52.2043 294.176 52.3776 293.908C52.576 293.601 52.6242 293.281 52.7102 292.922C52.935 291.983 52.8228 291.316 53.1063 290.393C53.1621 290.211 53.2375 290.042 53.3501 289.89C53.5201 289.661 53.7372 289.49 53.9647 289.322C55.0173 288.547 55.9294 288.201 56.9688 287.62C57.9281 286.351 57.6767 284.542 56.4078 283.583C55.1388 282.623 53.3298 282.875 52.3704 284.144V284.144Z" fill="#7400BD"/><path fill-rule="evenodd" clip-rule="evenodd" d="M64.9338 268.254C64.8618 267.547 64.7881 266.839 64.7168 266.129C64.1576 260.561 63.5493 254.961 63.1985 249.051C63.2217 247.419 64.566 246.112 66.1987 246.135C67.8314 246.158 69.1383 247.503 69.1152 249.135C68.5712 255.367 68.172 261.294 68.1067 267.196C68.0843 269.22 68.0804 271.232 68.1809 273.242C68.2817 275.257 68.5208 277.259 68.7005 279.271L70.0923 290.326C70.0967 290.37 70.3061 293.078 70.3477 294.146C70.4053 295.618 69.455 296.349 69.3695 296.418C68.5333 297.086 67.4165 297.268 66.2351 296.05C66.1128 295.924 65.8803 295.575 65.6809 295.019C65.568 294.704 65.323 293.802 65.2279 293.445C64.9106 292.774 64.6415 291.951 64.3825 291.044C63.9396 289.494 63.5772 287.662 63.1642 286.005C62.5961 283.428 61.9375 280.822 61.4463 278.19L61.3602 277.711L61.8111 282.935C61.9788 285.163 62.2149 287.335 62.4909 289.477C62.9253 292.847 63.4712 296.099 64.0214 299.285C64.2018 300.865 63.065 302.295 61.4845 302.475C59.9041 302.655 58.4745 301.519 58.2942 299.938C58.1392 297.182 57.9971 294.381 57.9244 291.504C57.8543 288.727 57.8372 285.906 57.9428 283.011L57.9495 272.059C57.943 269.956 57.9924 267.886 57.9269 265.813C57.8506 263.398 57.6762 260.985 57.5653 258.499L57.4166 257.807C57.3835 257.49 57.437 256.533 57.4776 256.262C57.4983 256.124 57.5083 256.03 57.5187 255.994C58.1483 253.799 60.1166 254.782 60.4592 255.229C60.5374 255.332 60.8456 255.589 60.871 256.166C60.8725 256.199 60.89 256.288 60.8775 256.444L60.8714 256.544L60.8718 256.541C60.8718 256.541 60.8863 257.071 60.9185 257.204L61.6231 259.107L64.0108 265.294C64.3204 266.266 64.6304 267.253 64.9338 268.254V268.254ZM57.6565 258.924C57.9406 262.365 58.3341 263.587 58.7485 263.594L57.902 260.068L57.6565 258.924V258.924Z" fill="#7400BD"/><path fill-rule="evenodd" clip-rule="evenodd" d="M81.2071 261.406C81.3086 262.677 81.3682 264.06 81.4533 265.512C81.5414 267.015 81.7146 268.581 81.8225 270.179C81.9999 272.806 82.1419 275.472 82.1479 277.988C82.1562 281.663 81.0389 284.871 79.6689 286.819C78.0429 289.132 75.7874 289.721 73.8744 289.27C72.5352 288.901 70.9795 287.421 70.3977 284.742C70.0899 283.325 69.9677 281.497 70.0072 279.606C70.0618 276.999 70.3974 274.306 70.5972 272.483C70.7872 270.764 71.0146 269.084 71.1729 267.375C71.3309 265.67 71.4986 263.972 71.554 262.258C71.6636 258.866 71.4959 255.463 71.5811 251.968C71.5785 250.558 71.621 248.537 71.7971 246.631C71.9338 245.151 72.2113 243.767 72.5761 242.709C72.8323 241.966 73.3815 241.295 74.0044 240.648C75.0904 239.519 76.7011 238.678 77.0376 238.429C78.3913 237.594 80.1686 238.015 81.004 239.369C81.8394 240.722 81.4184 242.5 80.0647 243.335L77.1298 244.714C76.7498 245.413 76.4025 246.357 76.1411 247.381C75.7036 249.096 75.4025 250.944 75.2102 252.233C74.7912 255.66 74.3037 258.994 74.1964 262.343C74.1418 264.045 74.2273 265.739 74.3164 267.438C74.4058 269.145 74.5823 270.825 74.7228 272.542C74.8741 274.479 75.1989 277.441 75.5612 280.134C75.6757 280.986 75.6621 282.153 75.7481 283.022C75.891 282.813 76.028 282.594 76.1394 282.408C76.8864 281.163 77.5517 279.538 77.8321 277.672C78.3318 274.074 78.8271 270.089 78.6936 266.459C78.6558 265.431 78.5386 264.437 78.3803 263.5L78.2933 263.03L78.0487 263.166C77.2031 263.772 76.0515 263.716 75.2687 263.031C74.486 262.345 74.2781 261.211 74.7671 260.293C74.7671 260.293 75.866 258.589 76.7298 257.762C77.3344 257.182 77.898 256.824 78.3047 256.767L78.5178 256.742L80.1586 255.259C81.4859 254.308 83.3358 254.613 84.2869 255.94C85.238 257.268 84.9326 259.117 83.6054 260.069L81.2071 261.406V261.406ZM75.8701 283.761C75.9751 284.127 76.1428 284.312 76.4231 284.18C76.7223 284.04 76.2571 283.875 75.8701 283.761ZM75.3055 283.601C75.1013 283.56 74.8706 283.552 74.9095 283.702C74.9588 283.89 75.1137 283.809 75.3055 283.601Z" fill="#7400BD"/><path fill-rule="evenodd" clip-rule="evenodd" d="M88.7165 278.785C88.6981 279.108 87.6397 279.455 87.3313 279.556C86.2994 279.894 85.6075 279.611 85.2716 279.056C85.2158 278.963 84.8427 278.374 85.0434 277.461C85.1486 276.981 85.3653 276.202 85.5102 275.429C85.6679 274.588 85.7331 273.767 85.7575 273.488C85.8033 271.846 85.7696 270.171 85.6862 268.482C85.5569 265.865 85.2728 263.316 84.9698 260.997C84.8769 259.734 84.7047 258.498 84.6611 257.267C84.6314 256.428 84.6646 255.602 84.6966 254.78C84.824 251.508 85.1852 248.444 85.0273 245.42C84.9587 244.106 84.771 242.83 84.5891 241.571C84.435 240.996 83.7425 238.871 83.4205 237.126C83.2214 236.048 83.2563 235.084 83.432 234.445C83.6469 233.643 84.2332 232.55 84.916 231.325C86.1821 229.053 87.9129 226.412 88.4445 225.396C89.3411 224.082 91.1359 223.743 92.4499 224.639C93.7638 225.536 94.1028 227.331 93.2062 228.645C92.4357 229.531 90.055 231.723 88.2907 233.716C87.6155 234.479 87.0166 235.156 86.7486 235.697C86.5769 236.049 86.5559 236.681 86.608 237.355C86.7267 238.891 87.1257 240.545 87.1991 241.034C87.5628 242.377 87.835 243.757 88.1782 245.156C88.9432 248.275 89.8653 251.413 90.3733 254.852C90.49 255.642 90.5806 256.441 90.6142 257.253C90.6633 258.44 90.5784 259.64 90.5443 260.858C90.3811 262.91 90.1615 265.118 89.84 267.391C89.5307 269.577 89.1673 271.761 88.6813 273.86C88.6614 273.978 88.6127 274.184 88.5524 274.446L88.5648 274.436C89.3873 273.714 90.1478 272.897 90.964 272.097C91.2308 271.832 91.71 271.298 92.1041 270.978C92.5871 270.586 93.1455 270.552 93.5635 270.448C94.4575 270.226 95.1547 270.722 95.8685 271.166C96.4271 271.514 96.8276 272.313 97.0464 273.81C97.0232 275.442 95.6789 276.749 94.0462 276.726C93.8118 276.723 93.5842 276.692 93.3665 276.636C92.309 277.183 91.2799 277.729 90.246 278.172C89.7193 278.398 89.2209 278.619 88.7165 278.785ZM91.1387 273.994C91.1313 273.905 91.1286 273.816 91.1298 273.726C91.1127 273.824 91.1188 273.913 91.1387 273.994Z" fill="#7400BD"/><path fill-rule="evenodd" clip-rule="evenodd" d="M89.1016 247.161C89.1577 247.995 89.6155 248.39 89.2696 249.577C89.2315 249.709 89.1309 249.831 89.0081 249.901C88.2927 250.308 88.1394 249.889 87.3144 250.128C87.1051 250.188 86.914 250.163 86.7987 250.347C86.2225 251.269 87.4222 252.039 86.902 252.811C86.8131 252.943 86.6591 252.929 86.5142 252.956C86.0422 253.045 86.0774 252.825 85.6789 252.767C85.3065 252.712 85.5234 252.451 85.235 252.357C83.9076 253.308 83.6023 255.158 84.5534 256.485C85.5046 257.812 87.3543 258.118 88.6816 257.166C88.721 256.295 88.9324 256.452 88.9392 255.176C88.9404 254.968 88.9168 254.805 89.0611 254.631C89.2176 254.442 89.4116 254.454 89.6647 254.384C90.3643 254.188 90.6009 254.302 91.3199 253.978C91.4744 253.909 91.6304 253.84 91.7065 253.687C91.8145 253.469 91.7373 253.336 91.7061 253.095C91.6012 252.28 91.3417 252.296 91.336 251.506C91.3354 251.403 91.3435 251.311 91.4004 251.228C91.4885 251.099 91.617 251.048 91.7542 250.987C92.7074 250.56 93.0169 250.745 93.7254 250.603C94.6754 249.327 94.4107 247.52 93.1347 246.57C91.8587 245.62 90.0515 245.885 89.1016 247.161V247.161Z" fill="#7400BD"/><path fill-rule="evenodd" clip-rule="evenodd" d="M103.511 231.907C103.525 230.934 103.545 229.958 103.569 228.978C103.756 221.282 104.168 213.39 104.461 205.633C104.486 204.977 104.721 204.665 104.821 204.549C105.239 204.069 105.712 203.932 106.209 204.03C106.421 204.071 107.072 204.24 107.386 205.028C107.52 205.361 107.726 206.171 107.825 206.52L108.939 210.526L110.889 221.897C111.258 223.739 111.528 225.701 111.776 227.735C112.683 235.156 113 243.569 114.089 250.727C114.416 252.817 114.93 253.953 115.222 255.697C115.343 256.419 115.417 257.23 115.451 258.214C115.438 259.662 114.252 260.827 112.804 260.814C111.357 260.801 110.191 259.616 110.204 258.168C110.256 257.163 110.23 256.398 110.141 255.709C109.957 254.271 109.625 253.113 109.494 251.247C109.025 244.888 109.292 237.612 109.064 230.852C108.964 227.861 108.75 224.981 108.364 222.338C108.094 220.773 107.855 219.163 107.597 217.563C107.664 221.386 107.74 225.2 107.854 228.964C108.015 234.242 108.248 239.412 108.671 244.363L109.737 255.483L109.808 261.768C109.804 263.006 108.895 264.055 107.67 264.237C106.445 264.418 105.271 263.677 104.908 262.493C104.908 262.493 104.568 261.294 104.326 260.021C104.204 259.385 104.1 258.734 104.065 258.183L103.337 249.658C103.298 246.612 102.966 243.692 102.471 240.888C101.63 236.129 100.367 231.717 99.4217 227.624C99.3535 227.339 99.2826 227.064 99.208 226.797C99.2409 227.269 99.277 227.731 99.315 228.178C99.9268 234.904 100.502 241.615 101.133 248.3C101.767 255.033 102.457 261.721 103.199 268.369C103.312 269.775 102.262 271.008 100.856 271.12C99.4501 271.233 98.2171 270.183 98.1045 268.777L96.5402 228.357L96.469 218.721L96.4652 218.638C96.2965 217.982 96.1394 217.338 96.0511 216.922C95.8562 216.002 96.2772 215.422 96.3391 215.363C96.737 214.986 97.1552 214.959 97.5357 215.058C97.8021 215.127 98.1899 215.335 98.4317 215.865C98.6685 216.383 98.8581 217.922 98.8876 218.578C99.0934 219.395 99.2857 220.117 99.3247 220.226C99.9405 221.869 100.606 223.246 101.215 224.829C101.47 225.492 101.718 226.187 101.944 226.951C102.43 228.554 102.967 230.205 103.511 231.907V231.907Z" fill="#7400BD"/><path fill-rule="evenodd" clip-rule="evenodd" d="M115.843 200.999C115.989 200.743 116.147 200.489 116.307 200.229C117.302 198.616 118.665 197.058 119.483 195.588C120.406 194.292 122.207 193.988 123.503 194.911C124.799 195.833 125.102 197.634 124.18 198.93L119.055 203.851C118.826 204.157 118.356 204.783 117.986 205.035C117.854 206.166 117.748 208.158 117.736 209.977C117.722 212.069 117.88 213.937 117.909 214.28C118.867 218.902 120.303 223.028 121.084 227.657C121.216 228.44 121.293 229.241 121.339 230.053C121.405 231.242 121.365 232.45 121.332 233.695L120.149 245.839C120.11 246.447 119.928 247.469 119.874 248.504L124.574 243.172C125.901 242.221 127.751 242.526 128.702 243.854C129.653 245.181 129.347 247.031 128.02 247.982L121.912 251.821C121.591 251.994 120.604 252.684 119.895 252.922C119.227 253.146 118.66 253.22 118.265 253.06C117.711 252.837 117.163 252.529 117.021 251.759C116.98 251.535 116.934 251.247 116.934 250.902C116.934 250.324 117.019 249.547 117.063 248.731C117.123 247.622 117.102 246.452 117.081 245.795L115.865 233.897C115.748 232.742 115.557 231.633 115.44 230.53C115.359 229.768 115.292 229.013 115.261 228.265C115.069 223.58 115.057 219.247 115.155 214.533C115.124 214.203 115.101 212.499 114.94 210.525C114.765 208.378 114.435 205.935 114.353 204.511C114.302 203.627 114.415 203.012 114.481 202.779C114.651 202.13 115.367 200.994 115.843 200.999V200.999Z" fill="#7400BD"/><path fill-rule="evenodd" clip-rule="evenodd" d="M119.239 216.28C119.173 216.33 119.072 216.391 119.076 216.405C119.935 215.067 121.72 214.677 123.059 215.537C124.397 216.396 124.787 218.18 123.927 219.519C123.909 219.523 123.95 219.719 123.547 219.772C123.118 219.829 122.813 219.676 121.736 220.063C121.6 220.112 121.47 220.148 121.374 220.27C121.314 220.347 121.304 220.435 121.298 220.536C121.239 221.474 121.816 221.541 121.648 222.546C121.634 222.628 121.592 222.708 121.53 222.764C121.407 222.876 121.289 222.876 121.132 222.926C120.268 223.202 119.943 222.977 119.249 223.315C119.202 223.338 119.155 223.358 119.133 223.403C119.062 223.55 119.126 223.644 119.151 223.791C119.261 224.452 120.048 224.517 119.659 224.7C119.506 224.771 119.977 224.866 119.91 224.758C119.864 224.683 120.073 224.742 120.03 224.681C119.958 224.58 120.099 224.554 120.168 224.514L120.186 224.439C120.218 224.475 120.201 224.497 120.168 224.514C119.78 226.064 118.222 227.032 116.654 226.682C115.06 226.326 114.056 224.743 114.412 223.149C114.663 223.043 114.338 222.759 114.708 222.66C115.292 222.504 115.117 222.346 116.375 222.015C116.563 221.966 116.737 221.97 116.848 221.782C117.29 221.033 116.61 220.566 116.74 219.524C116.761 219.363 116.767 219.199 116.884 219.084C117.055 218.917 117.2 218.958 117.435 218.915C118.257 218.767 118.3 219.021 119.041 218.791C119.139 218.76 119.222 218.725 119.282 218.646C119.378 218.521 119.384 218.385 119.398 218.239C119.512 217.089 119.313 216.825 119.269 216.39C119.265 216.342 119.252 216.306 119.239 216.28V216.28Z" fill="#7400BD"/><path fill-rule="evenodd" clip-rule="evenodd" d="M132.452 205.183C132.116 202.852 131.778 200.486 131.495 198.092C130.852 192.665 130.314 187.175 130.05 181.766C130.073 180.133 131.417 178.827 133.05 178.85C134.683 178.873 135.99 180.217 135.966 181.85C135.384 189.799 135.159 198.041 135.626 205.866C135.723 207.489 135.845 209.093 136.045 210.664C136.543 214.557 137.353 218.246 138.134 221.679C138.619 223.646 139.26 225.791 139.776 228.014C140.123 229.505 140.4 231.025 140.561 232.546C140.565 232.587 140.674 234.222 140.685 235.187C140.692 235.857 140.564 236.359 140.506 236.538C140.19 237.5 139.47 237.798 138.912 237.969C138.391 238.128 137.374 238.228 136.459 237.1C136.398 237.025 136.27 236.823 136.128 236.482C136.094 236.402 136.036 236.227 135.955 235.989C135.609 234.972 134.837 232.42 134.783 232.135C134.666 231.511 134.473 230.864 134.268 230.207C133.719 228.441 132.99 226.648 132.511 225.185C132.355 224.661 132.197 224.137 132.037 223.613L133.433 242.776C133.444 244.367 132.161 245.667 130.571 245.677C128.98 245.688 127.68 244.405 127.669 242.814C127.83 238.933 127.953 235.166 128.025 231.418C128.097 227.6 128.119 223.826 128.117 220.001C128.097 217.272 128.068 214.663 127.959 212.08C127.893 210.524 127.795 208.982 127.678 207.431C127.387 206.102 127.103 204.769 126.81 203.434C126.447 201.696 125.871 199.992 125.47 198.173C125.288 197.344 125.128 196.501 125.042 195.621L124.703 190.86C124.62 190.136 125 189.438 125.653 189.115C126.306 188.791 127.092 188.911 127.618 189.416L128.27 190.375C128.423 190.809 128.559 191.401 128.645 192.077C128.736 192.796 128.799 193.617 128.86 194.369L128.979 195.016C129.128 195.717 129.337 196.38 129.559 197.032C130.166 198.82 130.935 200.473 131.494 202.184C131.806 203.189 132.127 204.188 132.452 205.183V205.183ZM125.189 191.833C125.168 191.781 125.146 191.733 125.124 191.687L125.189 191.833Z" fill="#7400BD"/><path fill-rule="evenodd" clip-rule="evenodd" d="M148.215 229.156C147.873 227.128 147.504 225.169 147.19 223.144C146.877 221.132 146.571 219.154 146.352 217.134C146.276 216.433 146.203 215.731 146.191 215.027C146.179 214.318 146.226 213.617 146.28 212.911C146.532 209.566 147.196 206.365 147.355 203.014C147.382 202.452 147.367 201.888 147.332 201.326C147.28 200.48 147.167 199.644 147.053 198.804C146.604 195.509 146.005 192.31 145.485 189.011C145.403 188.137 145.242 187.304 145.194 186.471C145.144 185.613 145.177 184.78 145.213 183.942C145.317 181.547 145.629 179.309 146.135 176.674C146.159 175.042 144.852 173.697 143.219 173.674C141.586 173.651 140.242 174.958 140.219 176.591C140.731 179.892 141.64 182.509 142.226 185.46C142.322 185.938 142.389 186.425 142.42 186.921C142.466 187.635 142.414 188.361 142.389 189.111C142.082 192.441 141.71 195.681 141.501 199.005C141.448 199.853 141.397 200.695 141.406 201.544C141.413 202.108 141.44 202.672 141.508 203.231C141.914 206.56 142.818 209.702 143.313 213.019C143.417 213.718 143.515 214.415 143.554 215.121C143.592 215.824 143.569 216.528 143.542 217.232C143.466 219.259 143.294 221.25 143.113 223.275C142.93 225.31 142.679 227.281 142.453 229.318C142.498 230.908 143.825 232.163 145.415 232.118C147.005 232.073 148.26 230.746 148.215 229.156V229.156Z" fill="#7400BD"/><path fill-rule="evenodd" clip-rule="evenodd" d="M156.361 217.595C156.507 217.371 156.63 217.129 156.704 216.866C156.934 216.052 157.139 215.177 157.233 214.278C157.316 213.477 157.32 212.666 157.287 211.894C157.229 210.541 157 209.322 156.806 208.415C156.044 205.14 155.029 202.219 154.082 199.291C153.683 198.059 153.273 196.847 152.938 195.608C152.712 194.771 152.512 193.927 152.364 193.07C151.724 189.365 151.622 185.617 151.446 181.476C151.378 179.879 151.251 178.24 151.246 176.518C150.812 173.279 150.953 167.263 152.181 164.052C153.047 161.785 154.705 160.845 156.432 160.738C157.186 160.692 157.837 161.079 158.508 161.582C158.998 161.949 160.373 162.786 160.064 163.302C160.973 164.128 161.282 165.481 160.736 166.653C160.063 168.094 158.347 168.718 156.905 168.046C156.653 167.893 156.383 167.738 156.136 167.536C155.566 168.457 154.772 169.562 154.509 170.859C154.101 172.876 153.936 174.928 153.923 176.373C154.086 177.945 154.253 179.451 154.556 180.89C155.34 184.621 156.783 187.784 157.824 191.079C158.214 192.312 158.559 193.552 158.824 194.81C159.71 199.002 160.118 203.245 160.299 207.962C160.348 209.003 160.282 210.389 160.201 211.909C160.157 212.742 160.091 213.611 160.068 214.48C159.997 217.153 159.804 219.745 159.142 221.39C158.711 222.46 157.979 223.095 157.273 223.565C156.298 224.214 155.121 224.144 153.628 223.615C153.238 223.476 152.901 223.065 152.475 222.558C152.245 222.285 151.873 221.557 151.597 220.981C151.422 220.831 151.263 220.658 151.124 220.464C150.173 219.136 150.478 217.287 151.805 216.336C153.005 215.718 154.054 215.409 155.039 216.144C155.393 216.407 155.966 216.671 156.255 217.353L156.361 217.595V217.595ZM154.574 221.508C154.813 221.445 155.047 221.343 155.252 221.145C155.038 221.299 154.81 221.42 154.574 221.508Z" fill="#7400BD"/><path fill-rule="evenodd" clip-rule="evenodd" d="M148.46 171.228C148.485 171.146 148.44 170.981 148.554 170.965C148.605 170.958 148.548 170.837 148.548 170.837C148.548 170.837 148.388 170.626 148.244 170.687C147.884 170.837 147.622 170.821 147.229 171.102C147.012 171.257 146.811 171.373 146.66 171.609C146.561 171.763 146.527 171.946 146.494 172.127C146.388 172.707 146.302 173.109 146.19 173.642C146.017 174.45 145.897 175.021 145.567 175.735C145.497 175.887 145.409 176.029 145.288 176.142C145.092 176.323 144.881 176.434 144.636 176.526C143.793 176.841 143.3 176.821 142.467 177.032C142.165 177.108 141.909 177.141 141.659 177.317C141.331 177.547 141.136 177.886 140.931 178.216C140.324 179.194 140.084 179.902 139.604 180.843C138.311 181.769 136.509 181.472 135.582 180.179C134.656 178.886 134.953 177.084 136.246 176.157C137.228 176.014 137.955 176.091 138.981 175.748C139.321 175.635 139.677 175.538 139.937 175.274C140.141 175.068 140.179 174.818 140.285 174.541C140.564 173.815 140.412 173.321 140.709 172.561C140.783 172.371 140.843 172.181 140.987 172.032C141.179 171.833 141.435 171.763 141.686 171.632C142.126 171.404 142.478 171.37 142.942 171.151C143.178 171.04 143.4 171.069 143.617 170.894C143.822 170.73 144.075 170.6 144.159 170.349C144.621 168.966 144.317 168.071 144.432 167.188C144.485 166.783 144.853 166.792 144.953 166.464C146.281 165.512 148.13 165.818 149.081 167.145C150.018 168.452 149.736 170.265 148.46 171.228C148.451 171.256 148.434 171.274 148.4 171.273L148.46 171.228V171.228Z" fill="#7400BD"/><path fill-rule="evenodd" clip-rule="evenodd" d="M18.8948 134.817C16.3103 129.558 13.7854 126.511 11.6341 125.349C8.99763 123.925 6.6208 124.272 4.65524 126.619C1.97514 129.818 0.224068 138.482 0.50147 151.858C0.568568 155.095 0.685903 158.619 0.96108 162.417C1.04694 164.674 1.58296 166.8 2.23846 168.808C3.29942 172.056 4.75878 174.948 5.44714 177.372C6.59809 181.486 8.23656 188.845 10.0262 197.773C10.587 200.571 11.1426 203.523 11.7703 206.565C12.5506 210.345 13.4208 214.261 14.2088 218.252C15.3623 224.093 16.4715 230.052 17.2082 235.889C17.9929 242.106 18.4982 248.149 18.3336 253.67C18.2543 256.325 17.9906 258.852 17.619 261.212C16.849 265.049 15.3923 267.749 13.6329 269.134C12.3736 270.125 10.9464 270.175 9.76592 269.224C7.46476 267.369 6.25112 262.729 6.75568 255.237C6.7789 253.604 5.47216 252.26 3.83944 252.237C2.20672 252.214 0.86235 253.521 0.839242 255.153C1.2183 264.896 4.14075 270.441 7.34375 272.554C12.1989 275.758 19.0461 272.339 20.4122 261.678C21.1412 257.719 21.4539 253.293 21.5759 248.584C21.8215 239.105 21.1744 228.465 19.7722 218.189C19.2947 214.691 18.7535 211.237 18.108 207.9C17.6582 205.575 17.1641 203.305 16.6216 201.119C13.8812 190.076 10.6946 180.985 8.90653 176.234C8.0086 173.838 6.23106 171.055 4.95472 167.828C4.27239 166.102 3.753 164.242 3.59835 162.264C3.43447 158.521 3.35711 155.051 3.44287 151.867C3.76182 140.02 5.47727 132.335 8.0518 129.682C8.59728 129.12 9.15392 129.529 9.8125 130.211C11.085 131.529 12.3161 133.85 13.6242 137.152C14.2684 138.607 15.9724 139.264 17.4268 138.62C18.8812 137.976 19.539 136.272 18.8948 134.817V134.817Z" fill="#7400BD"/><path fill-rule="evenodd" clip-rule="evenodd" d="M49.3741 230.833C50.3249 232.28 50.0142 234.29 48.6773 235.325C47.3798 236.173 46.3125 236.177 45.4287 235.588C44.9498 235.269 44.3218 234.855 44.0087 233.962C43.8839 233.606 43.6962 233.073 43.6669 232.39C43.6361 231.666 43.7013 230.604 43.6794 229.871C43.6422 228.63 43.5446 227.626 43.3455 226.732C42.6996 223.83 41.5872 221.926 41.2015 218.112C40.8509 215.111 40.5439 212.212 40.062 209.389C39.7292 207.439 39.3237 205.531 38.8882 203.646C36.3782 192.785 33.3285 182.583 31.0327 170.065C30.9591 169.534 31.0103 168.991 31.1812 168.487C31.9558 166.258 32.6103 163.905 33.332 161.504C35.4895 154.328 37.6993 146.575 39.3344 138.368C39.7255 136.405 40.109 134.428 40.401 132.423C40.9443 128.692 41.2999 124.907 41.6627 121.133C42.5368 112.037 43.1695 103.01 44.2266 94.5608C44.5257 92.8549 46.0506 91.7323 47.6297 92.0554C49.2087 92.3786 50.2478 94.0259 49.9487 95.7318C48.6443 101.402 47.4042 107.333 46.3046 113.428C45.2355 119.353 44.1406 125.36 43.2632 131.36C42.9095 133.779 42.6355 136.2 42.3676 138.604C41.715 144.455 41.1939 150.176 40.3353 155.639C39.9254 158.246 39.5029 160.787 38.9318 163.238C38.3856 165.581 37.6984 167.823 36.9918 169.986C37.9773 180.296 39.352 189.176 40.9241 198.111C41.4873 201.311 42.0106 204.527 42.6984 207.778C43.3626 210.918 44.2199 214.06 44.9433 217.377C45.7762 220.883 47.0774 222.488 48.0565 225.098C48.49 226.254 48.8392 227.567 49.1303 229.22C49.1992 229.61 49.2978 230.288 49.3741 230.833V230.833ZM46.2726 229.551C45.9172 229.606 45.5512 229.752 45.1951 230.076C45.5289 229.817 45.8954 229.644 46.2726 229.551Z" fill="#7400BD"/><path fill-rule="evenodd" clip-rule="evenodd" d="M56.6211 225.341C57.3921 224.824 58.5308 224.256 59.2972 223.469C61.7676 220.932 64.3008 217.945 65.3902 217.067C66.7175 216.116 68.5672 216.422 69.5184 217.749C70.4695 219.076 70.1641 220.926 68.8368 221.877C67.1959 222.918 62.2412 227.906 59.0382 229.749C56.1109 231.434 53.9258 230.895 53.1762 228.937C52.9495 228.351 52.7641 226.879 52.7865 224.794C52.8259 221.117 53.3669 215.184 53.6208 209.436C53.9172 202.725 53.8668 196.303 53.7634 194.3C53.1175 183.48 52.4071 172.431 52.2468 161.197C52.2073 158.424 52.2434 155.641 52.3123 152.852C52.3579 151 52.4466 149.148 52.538 147.291C52.909 139.755 53.4951 132.209 53.935 124.609C54.1223 121.373 54.3301 118.138 54.4313 114.893C54.5596 110.779 54.5635 106.661 54.5724 102.546C54.5858 96.355 54.4784 90.1808 54.4448 84.0179C54.4679 83.2026 54.9571 82.4733 55.7025 82.1424C57.3543 81.3262 60.3535 80.4874 62.9147 77.8574C64.4023 76.3297 65.6592 74.1329 66.4398 70.9467C66.8818 69.4186 68.4812 68.5368 70.0093 68.9788C71.5374 69.4208 72.4193 71.0203 71.9773 72.5484C70.5597 76.7849 68.5394 79.5829 66.3489 81.4894C63.6074 83.8754 60.6756 84.86 58.5891 85.5882C58.147 92.7874 57.6283 100.004 57.3365 107.244C57.2033 110.546 57.1005 113.851 57.1021 117.155C57.1072 127.493 57.7211 137.773 57.9993 147.999C58.0692 150.573 58.1496 153.139 58.1574 155.702C58.169 159.569 58.0891 163.42 58.0063 167.251C57.8093 176.373 57.4751 185.362 57.3685 194.209C57.3565 195.729 56.9751 199.714 56.6978 204.477C56.511 207.685 56.3528 211.248 56.3216 214.62C56.2812 218.988 56.3706 223.008 56.6211 225.341V225.341Z" fill="#7400BD"/><path fill-rule="evenodd" clip-rule="evenodd" d="M59.4524 193.928C59.2078 194.635 59.0904 195.141 58.8039 195.807C58.535 196.432 58.3581 196.984 57.9477 197.502C57.7729 197.722 57.5572 197.918 57.3107 198.046C56.4062 198.515 55.665 198.334 54.732 198.656C54.3916 198.773 54.0688 198.854 53.7919 199.077C53.5666 199.259 53.4468 199.514 53.2924 199.756C52.5919 200.854 52.5266 202.049 51.5755 202.894C51.3384 203.105 51.0345 203.177 50.728 203.254C49.7976 203.489 49.2454 203.355 48.2896 203.419C46.9624 204.37 46.657 206.22 47.6081 207.547C48.5592 208.875 50.4091 209.18 51.7363 208.229C52.1199 207.308 52.2147 206.745 52.7135 205.879C52.8769 205.595 53.0494 205.335 53.3096 205.134C53.5038 204.985 53.7298 204.928 53.9621 204.847C54.9932 204.488 55.8376 204.423 56.872 204.009C57.1556 203.895 57.4375 203.797 57.6652 203.589C57.9438 203.335 58.0925 203.016 58.2623 202.675C58.7165 201.761 58.6548 200.999 59.2124 200.105C59.3634 199.863 59.5796 199.657 59.8169 199.492C60.3745 199.104 60.9394 198.933 61.5896 198.676C62.2864 198.4 62.7992 198.256 63.5299 198.002C64.6543 196.877 64.6537 195.051 63.5284 193.926C62.4032 192.802 60.5769 192.803 59.4524 193.928V193.928Z" fill="#7400BD"/><path fill-rule="evenodd" clip-rule="evenodd" d="M112.524 138.72C112.598 133.61 112.675 128.499 112.711 123.388C112.83 106.439 112.755 89.4922 112.777 72.542C112.765 67.2572 112.883 49.4678 114.958 36.3268C115.649 31.9499 116.579 28.0736 117.749 25.2545C118.727 22.8987 119.971 21.2133 121.272 20.2478C122.6 19.2966 124.449 19.602 125.401 20.9292C126.352 22.2566 126.046 24.1064 124.719 25.0575C123.825 25.6758 123.178 27.0486 122.514 28.8022C121.203 32.2644 120.209 37.0517 119.446 42.2054C117.672 54.1856 117.144 68.075 117.006 72.602C116.548 89.546 115.992 106.483 115.63 123.43C115.475 130.691 115.403 137.954 115.289 145.217L115.076 175.755L115.053 184.009C115.04 184.926 114.319 185.676 113.403 185.724C112.488 185.772 111.691 185.103 111.582 184.192C111.582 184.192 111.243 181.615 111.028 178.993C110.923 177.719 110.851 176.435 110.853 175.416C110.87 169.276 110.632 163.151 110.175 157.202C109.691 150.914 108.96 144.828 108.022 139.138C106.322 128.704 102.088 89.0864 98.789 65.0755C97.8024 69.929 97.1063 74.494 96.6078 78.9474C95.981 84.5462 95.6609 89.9666 95.5031 95.5612C95.204 106.528 94.4761 143.691 91.7442 172.114C90.3235 186.894 88.3705 199.349 85.3781 204.709C84.1628 206.922 82.7221 206.851 81.8922 206.262C81.309 205.849 80.6547 204.562 80.3118 202.481C78.7874 193.232 80.051 165.097 80.1027 155.816C80.1368 146.474 79.756 137.323 79.1258 128.297C77.5997 106.442 74.6594 85.325 72.9404 64.0099C72.8319 62.4229 74.0323 61.0462 75.6193 60.9376C77.2063 60.829 78.5829 62.0294 78.6914 63.6164C79.8914 84.9729 82.2812 106.163 83.311 128.052C83.7405 137.183 83.9446 146.432 83.7113 155.867C83.5707 161.779 82.7684 175.377 82.5955 186.813C82.5089 192.538 82.5835 197.714 82.9605 201.073C83.0283 201.678 83.1515 202.304 83.273 202.828C86.0003 197.382 87.846 185.677 88.9848 171.867C91.3237 143.504 90.7189 106.429 90.731 95.4936C90.7319 89.754 90.8927 84.1871 91.3878 78.4309C91.852 73.0332 92.6167 67.4739 93.7896 61.4537C94.9159 55.7909 95.089 50.1604 95.1883 47.5366C95.2206 46.6839 95.2563 46.0909 95.2915 45.8245C95.383 45.1321 95.6237 44.7286 95.735 44.5475C96.5933 43.1514 97.7847 43.0407 98.7175 43.1888C99.2981 43.2809 100.094 43.5438 100.721 44.4993C101.148 45.1508 101.723 46.7036 102.234 49.0428C102.962 52.3811 103.802 57.6596 104.624 64.0561C107.706 88.0512 110.979 127.964 112.487 138.453L112.524 138.72V138.72Z" fill="#7400BD"/><path fill-rule="evenodd" clip-rule="evenodd" d="M128.973 166.396C129.751 165.527 130.551 164.789 131.352 164.107C132.947 162.746 134.572 161.697 136.152 160.419C137.479 159.468 139.329 159.774 140.28 161.101C141.231 162.428 140.926 164.278 139.599 165.229C137.915 166.293 136.21 167.125 134.502 168.268C133.591 168.877 132.668 169.556 131.763 170.459C131.159 171.063 128.907 173.381 127.903 173.708C126.935 174.023 126.161 173.878 125.615 173.458C125.303 173.219 124.983 172.927 124.804 172.462C124.801 172.453 124.598 171.676 124.744 170.446C125.037 167.972 125.782 161.789 125.823 161.382C126.031 158.801 126.273 156.259 126.402 153.723C126.489 152.012 126.524 150.307 126.544 148.605C126.618 142.239 126.452 135.927 126.309 129.399C126.154 122.088 125.826 114.847 125.741 107.611C125.705 104.494 125.71 101.381 125.793 98.2715C126.086 87.3532 126.968 76.5191 127.416 65.5666C127.492 63.6996 127.559 61.831 127.584 59.9582C127.622 57.1587 127.567 54.3541 127.567 51.5418C127.486 47.3136 127.04 38.8388 127.183 31.8655C127.257 28.3095 127.504 25.1356 128.024 23.0042C128.24 22.118 129.019 20.8329 130.069 19.4829C131.896 17.1365 134.673 14.4508 134.793 14.2895C135.796 13.0546 137.613 12.8662 138.848 13.869C140.083 14.8717 140.271 16.6885 139.268 17.9233C139.145 18.0629 136.674 20.107 134.645 22.1549C133.791 23.0178 132.926 23.7783 132.729 24.3653C131.934 26.7318 131.423 30.6453 131.114 34.8531C130.655 41.104 130.613 47.9409 130.445 51.5826C130.366 54.39 130.244 57.189 130.225 59.9849C130.213 61.8558 130.246 63.7233 130.293 65.5893C130.569 76.5429 131.408 87.3782 131.617 98.294C131.677 101.407 131.654 104.524 131.583 107.643C131.418 114.892 130.972 122.142 130.609 129.46C130.249 137.102 129.623 144.436 129.292 151.914C129.152 155.093 129.166 158.296 129.072 161.549C129.071 161.791 129.023 164.059 128.973 166.396V166.396Z" fill="#7400BD"/><path fill-rule="evenodd" clip-rule="evenodd" d="M130.866 87.8875C130.573 89.4676 129.064 90.5284 127.472 90.2627C125.861 89.9939 124.772 88.468 125.041 86.8574C125.21 86.7439 125.071 86.5907 125.261 86.4844C126.022 86.0582 125.941 85.5787 127.173 85.2059C127.42 85.1312 127.619 85.0898 127.813 84.8814C128.002 84.6786 128.024 84.4312 128.098 84.14C128.29 83.3841 128.274 82.9831 128.57 82.1838C128.648 81.9743 128.711 81.7768 128.888 81.6371C129.105 81.4655 129.333 81.4533 129.606 81.4203C130.51 81.3109 130.787 81.5729 131.617 81.4393C131.718 81.423 131.81 81.3955 131.889 81.3333C132.086 81.1779 132.182 80.9772 132.283 80.7715C133.019 79.2834 133.036 78.6019 133.058 78.5392C134.351 77.6125 136.153 77.9101 137.08 79.2032C138.006 80.4961 137.709 82.2981 136.416 83.2248C136.35 83.2253 135.656 82.9221 134.016 83.2356C133.843 83.2687 133.673 83.2971 133.522 83.4115C133.428 83.4833 133.371 83.5827 133.322 83.6955C133.003 84.4318 133.298 84.7616 133.021 85.582C132.947 85.8 132.929 86.0224 132.743 86.1595C131.838 86.8277 130.755 85.9854 130.042 86.632C129.888 86.7718 129.896 86.9836 129.875 87.169C129.834 87.5186 130.086 87.5398 130.165 87.8241C130.204 87.9633 130.401 87.9804 130.401 87.9804C130.401 87.9804 130.557 88.0557 130.529 88.0005C130.46 87.8599 130.775 87.9209 130.866 87.8875L130.877 87.8317C130.901 87.8624 130.893 87.879 130.866 87.8875V87.8875Z" fill="#7400BD"/><path fill-rule="evenodd" clip-rule="evenodd" d="M142.297 5.10793C141.991 4.63178 141.79 4.01062 141.775 3.20173C141.798 1.56901 143.142 0.262247 144.775 0.285461C145.19 0.291291 145.584 0.382556 145.94 0.54251C147.127 0.506364 148.512 0.845776 149.806 1.76469C151.507 2.97404 153.093 4.95116 153.433 7.24935C154.752 16.014 157.259 24.1885 158.973 33.4529C159.998 38.9946 160.77 44.9077 160.785 51.5626C160.908 55.8939 160.73 61.5266 160.48 67.8714C160.187 75.3263 159.788 83.7645 159.195 92.2142C158.109 107.676 156.577 123.156 155.187 132.714C154.107 139.476 153.12 144.895 151.562 148.79C150.332 151.867 148.724 154.091 146.713 155.521C146.409 155.775 144.949 156.983 144.438 157.182C143.493 157.548 142.706 157.444 142.167 157.223C141.466 156.936 140.875 156.47 140.539 155.669C140.408 155.356 140.186 154.24 140.223 152.728C140.28 150.357 140.585 146.441 140.618 145.555L141.775 117.989C142.034 111.328 142.306 104.73 142.406 98.1578C142.474 93.7334 142.478 89.3246 142.43 84.9276C142.29 72.0096 141.86 59.1951 141.519 46.3238C141.179 33.5312 140.8 20.7005 140.674 7.65946C140.69 6.53448 141.349 5.56829 142.297 5.10793V5.10793ZM146.279 6.35619L146.126 6.39774C146.332 6.80075 146.444 7.25804 146.438 7.74129C145.638 30.1127 145.269 51.9103 145.161 73.8781C145.125 81.2102 145.105 88.5596 145.178 95.9523C145.251 103.267 145.482 110.615 145.55 118.042L145.925 145.63C145.927 145.879 145.918 146.373 145.905 147.005C146.193 146.292 146.46 145.509 146.724 144.666C147.787 141.267 148.651 136.951 149.564 131.775C151.653 120.714 154.302 101.552 156.085 83.8151C156.772 76.9786 157.374 70.3609 157.682 64.4952C157.942 59.5566 157.984 55.1577 157.899 51.635C157.591 45.208 156.624 39.5215 155.348 34.2242C153.124 24.994 150.031 16.9424 148.163 8.20812C147.984 7.37708 146.794 6.62829 146.298 6.34941L146.279 6.35619V6.35619ZM147.561 2.37281C147.65 2.66081 147.696 2.96779 147.691 3.28568C147.708 2.93239 147.657 2.63188 147.561 2.37281Z" fill="#7400BD"/><path fill-rule="evenodd" clip-rule="evenodd" d="M23.3048 111.731C24.0824 121.249 25.4127 130.098 26.5571 138.962C27.0552 142.82 27.5663 146.672 27.8861 150.582C28.0661 152.784 28.1459 155.004 28.2102 157.246C28.3041 160.528 28.273 163.847 28.2257 167.249C28.1781 171.711 27.8798 176.088 27.7165 180.452C27.6061 183.402 27.5247 186.339 27.5137 189.273C27.486 196.636 27.7655 203.962 28.1705 211.446C28.3859 215.457 28.7477 219.527 29.0143 223.643C29.1267 225.378 29.2305 227.12 29.2826 228.866C29.3606 231.481 29.3504 234.098 29.3494 236.713C29.3473 242.916 29.2281 249.051 29.1129 255.013C29.1761 256.388 30.5385 257.438 32.1533 257.356C33.7681 257.275 35.0278 256.092 34.9647 254.718C34.3024 248.785 33.4793 242.695 32.8152 236.519C32.5363 233.924 32.2562 231.327 32.0883 228.721C31.9763 226.984 31.9267 225.244 31.901 223.51C31.8402 219.409 31.9638 215.342 32.0863 211.346C32.2755 205.986 32.684 200.723 32.9795 195.46C33.1786 191.914 33.3922 188.376 33.4311 184.824C33.457 182.458 33.376 180.09 33.2676 177.711C33.1064 174.174 32.7988 170.635 32.4339 167.043C31.9717 162.28 31.2974 157.695 30.7955 153.147C30.5389 150.822 30.3478 148.508 30.1655 146.203C29.982 143.882 29.8444 141.568 29.7136 139.251C29.204 130.215 28.8871 121.174 29.0074 111.491C28.9612 110.151 27.646 109.117 26.0724 109.183C24.4987 109.25 23.2586 110.392 23.3048 111.731V111.731Z" fill="#7400BD"/></svg>