<svg width="105" height="181" viewBox="0 0 105 181" fill="none" xmlns="http://www.w3.org/2000/svg"><path fill-rule="evenodd" clip-rule="evenodd" d="M15.8607 77.1819C12.9905 69.9861 11.0078 62.6281 9.98002 55.7952C8.59259 46.6417 8.82996 36.8187 11.5464 28.0343C14.318 19.0713 19.6683 11.1857 28.5249 6.13199C31.4855 4.40441 34.8794 3.20026 38.4015 2.31092C46.777 0.196113 56.0491 0.431216 63.2812 3.91109C68.0737 6.21723 71.9473 9.9001 74.1267 14.9514C75.3976 17.8972 75.9827 21.3467 75.8898 25.2533C75.6973 31.9718 73.6451 40.7346 69.3551 47.3559C66.1581 52.2904 61.7295 56.0299 56.0808 57.3347C54.3907 57.7251 52.2375 57.7335 49.9219 57.61C47.5842 57.4853 45.0346 57.2222 42.8013 57.4784C41.7533 57.5986 40.7682 57.7593 40.1334 58.4524C36.6128 62.2954 33.3045 66.4003 30.0973 70.6053C26.8535 74.8582 23.7147 79.2142 20.581 83.5186C21.3629 85.1209 22.1926 86.7029 23.0679 88.2553C28.9579 98.7017 36.9068 107.818 46.6781 112.966C54.2837 116.939 62.6675 117.929 70.5403 120.294C72.6198 120.919 74.6759 121.531 76.6925 122.423C79.1703 123.52 81.518 124.95 83.8156 126.861C84.8244 127.7 85.7046 128.502 86.457 129.292C87.037 129.079 87.6059 128.838 88.1625 128.564C88.8144 128.244 89.4583 127.9 90.0581 127.466C92.185 125.928 93.928 123.655 95.2931 120.477C96.5195 117.622 97.227 115.148 98.4243 112.808C99.2571 111.18 100.313 109.615 101.891 108.04C102.464 107.466 103.396 107.466 103.969 108.04C104.543 108.613 104.543 109.545 103.969 110.118C102.64 111.45 101.751 112.774 101.05 114.149C99.8848 116.435 99.2076 118.855 98.015 121.644C96.4209 125.372 94.2579 127.89 91.8689 129.829C91.1846 130.384 90.4928 130.902 89.7701 131.377C89.3903 131.627 89.0035 131.864 88.6099 132.089C89.7542 134.032 90.2052 135.924 90.4247 137.693C90.7364 140.206 90.3833 142.58 90.0242 145.133C89.6537 147.767 89.2838 150.635 90.2001 154.265C90.4037 155.076 90.8051 155.804 91.2966 156.495C92.8565 158.688 95.0681 160.61 96.3129 162.9C97.3991 164.899 98.1527 167.019 98.6559 169.21C99.3747 172.341 99.6106 175.602 99.7041 178.792C99.7559 179.781 98.9951 180.626 98.0061 180.678C97.0173 180.729 96.1723 179.969 96.1205 178.98C95.8987 176.046 95.5578 173.051 94.7629 170.199C94.2606 168.397 93.5609 166.66 92.5816 165.041C91.3144 162.945 89.1103 161.276 87.5553 159.283C86.6644 158.141 85.9679 156.904 85.5617 155.533C84.2809 151.191 84.5294 147.711 84.8513 144.509C85.061 142.425 85.3201 140.489 85.0002 138.456C84.7975 137.168 84.2414 135.894 83.4088 134.396C81.0808 135.21 78.6371 135.856 76.1654 136.539C72.1153 137.659 68.0381 138.893 64.5073 141.602C62.8504 142.821 61.4128 144.254 60.0173 145.739C58.5693 147.279 57.1935 148.899 55.8902 150.596C51.6371 156.132 47.9102 162.227 43.1182 167.1C40.8949 169.36 38.4468 171.364 35.6582 172.985C31.8751 175.183 27.5978 176.013 23.6924 175.366C19.5085 174.673 15.7088 172.331 13.2326 168.086C10.3703 163.17 9.059 157.504 8.55094 151.593C7.86989 143.67 8.65693 135.292 8.42977 128.013C8.33448 124.893 7.17401 122.135 5.88282 119.443C4.25625 116.051 2.40653 112.755 1.32968 109.243C0.708306 107.217 0.327345 105.123 0.320349 102.915C0.314837 100.536 0.94109 98.2656 1.99187 96.1057C3.888 92.2085 7.30652 88.6878 9.73148 85.4702C11.7846 82.7475 13.8186 79.9709 15.8607 77.1819V77.1819ZM19.4243 85.1087C18.2183 86.7613 17.0117 88.4028 15.7985 90.0255C13.9162 92.5417 11.3191 95.224 9.54101 98.1796C8.65019 99.6605 7.96097 101.207 7.97094 102.884C7.9861 105.948 9.14506 108.669 10.4439 111.365C12.0504 114.699 13.8989 117.987 15.0163 121.534C15.6428 123.523 16.0513 125.588 16.1218 127.772C16.3479 134.921 15.5596 143.151 16.2283 150.933C16.6364 155.683 17.5884 160.263 19.8864 164.214C21.0881 166.284 22.9209 167.45 24.9578 167.793C27.2032 168.172 29.6492 167.626 31.8299 166.369C36.3556 163.764 39.7104 159.831 42.8694 155.649C46.3564 151.033 49.5331 146.048 53.4814 141.888C55.6313 139.623 58.0067 137.613 60.6691 135.937C65.218 133.231 70.1579 132.158 75.1059 131.455C77.1222 131.168 79.1271 130.948 81.0743 130.628C80.926 130.43 80.7702 130.229 80.6063 130.026C78.0744 126.894 75.2278 124.648 72.0189 123.017C71.2176 122.609 70.402 122.24 69.5614 121.924C61.9095 119.052 53.4209 118.47 45.8848 114.473C35.8329 109.187 27.6397 99.8365 21.5612 89.1068C20.8168 87.7927 20.104 86.458 19.4243 85.1087V85.1087ZM17.0996 75.4933C19.4195 72.3296 21.7582 69.1612 24.1554 66.0501C27.5207 61.6824 31.0008 57.4271 34.6941 53.4412C36.4922 51.5007 39.0322 50.4804 41.9841 50.1595C44.2088 49.9177 46.6939 50.062 49.0758 50.2235C51.1006 50.3608 53.0278 50.5646 54.4743 50.2433C59.2984 49.1718 62.6414 45.2661 64.9525 40.7104C67.5129 35.6628 68.8003 29.7418 68.9922 25.0155C69.1079 22.3424 68.7446 19.9738 68.0388 17.8725C67.2505 15.5251 66.0637 13.5018 64.4741 11.8117C62.21 9.40443 59.3484 7.53386 56.0565 6.33245C50.2857 4.22634 43.489 3.71149 37.3082 5.11684C34.5619 5.74129 31.9744 6.80573 29.636 8.10063C21.2364 12.7884 16.1315 20.1968 13.4534 28.6319C10.7574 37.1236 10.5105 46.6469 11.8056 55.5237C12.7441 61.9047 14.5248 68.7569 17.0996 75.4933V75.4933Z" fill="#7400BD"/></svg>