<svg width="67" height="63" viewBox="0 0 67 63" fill="none" xmlns="http://www.w3.org/2000/svg"><path fill-rule="evenodd" clip-rule="evenodd" d="M18.1638 5.96951C22.0372 7.08887 27.0668 6.47373 30.909 7.63368C32.356 8.07051 33.5991 8.78099 34.3521 10.0995C34.8343 11.2198 35.2028 12.4872 35.395 13.8912C35.7817 16.715 35.3535 19.9227 35.0259 23.4452C34.9213 24.5702 34.7915 25.7158 34.7425 26.8911C34.6708 28.6074 34.7299 30.3586 34.7183 32.1366C34.6914 36.3085 34.7982 40.5302 34.5829 44.5929C34.542 45.3655 34.4897 46.1301 34.3913 46.8803C34.2899 47.6542 34.1437 48.407 33.9883 49.1488C33.1262 53.2636 32.2132 56.8898 31.8055 59.9775C31.8055 61.6105 33.1313 62.936 34.7641 62.936C36.397 62.936 37.7227 61.6105 37.7227 59.9775C37.3503 57.2154 36.9859 53.9177 37.0534 50.1964C37.0786 48.8133 37.1472 47.3845 37.3496 45.9396C38.03 41.082 39.5236 36.0829 40.2505 31.0936C40.4426 29.7757 40.6174 28.4708 40.6821 27.1768C40.7267 26.2835 40.7168 25.3994 40.6641 24.5306C40.4124 20.3837 39.5614 16.6827 38.5688 13.4985C38.0363 11.7897 37.4937 10.2316 36.7291 8.91106C35.827 6.82636 34.1257 5.57792 32.0873 4.59923C28.5863 2.91849 23.7656 2.41776 20.3046 0.617245C18.8276 0.0265076 17.1489 0.745923 16.5582 2.22293C15.9674 3.69993 16.6869 5.37867 18.1638 5.96951V5.96951Z" fill="#7400BD"/><path fill-rule="evenodd" clip-rule="evenodd" d="M4.4989 39.0085C8.47794 37.3813 12.3241 35.8343 16.3231 34.6852C17.3649 34.3859 18.4089 34.1111 19.469 33.9159C20.179 33.7852 20.8938 33.6977 21.6112 33.6409C25.0209 33.3709 28.3388 33.6115 31.7339 33.5719C32.5721 33.5622 33.4052 33.5576 34.2401 33.4854C35.4054 33.3846 36.5592 33.1983 37.715 33.012C41.4492 32.4106 45.0882 31.5684 48.8826 31.0942C49.8193 30.9771 50.7543 30.8436 51.7022 30.8206C52.8833 30.7921 54.0596 30.8829 55.2432 30.9947C58.021 31.2575 60.6902 31.7706 63.4973 32.2072C65.1302 32.2072 66.4559 30.8815 66.4559 29.2486C66.4559 27.6158 65.1302 26.29 63.4973 26.29C60.6021 26.7396 57.8609 27.3146 55.008 27.684C53.7957 27.841 52.5883 27.9698 51.3742 28.0058C50.3969 28.0347 49.4278 27.9635 48.4553 27.9187C44.4886 27.7363 40.6256 27.319 36.6979 27.4083C35.4724 27.4361 34.247 27.5148 33.0335 27.6807C32.2185 27.7921 31.4226 27.9704 30.6207 28.1547C27.3977 28.8952 24.3605 30.0081 21.1319 30.8284C20.1497 31.0779 19.1542 31.2825 18.1491 31.4431C15.6404 31.844 13.1196 32.0843 10.5616 32.42C8.01814 32.7537 5.50384 33.0547 2.91532 33.4657C1.38574 33.9028 0.498643 35.4993 0.935682 37.0288C1.37272 38.5584 2.96932 39.4454 4.4989 39.0085V39.0085Z" fill="#7400BD"/></svg>