<svg width="47" height="61" viewBox="0 0 47 61" fill="none" xmlns="http://www.w3.org/2000/svg"><path fill-rule="evenodd" clip-rule="evenodd" d="M34.4334 4.59544L34.3309 4.53467C34.1789 4.44871 33.9866 4.3897 33.7631 4.328C32.8103 4.06481 31.394 4.00033 29.4281 4.07294C25.8719 4.21519 22.4476 4.64408 19.0632 5.26725C13.9041 6.21712 8.87779 7.62461 3.66195 9.06017C2.11022 9.4104 0.566088 8.43497 0.215758 6.88324C-0.134466 5.33161 0.84096 3.78737 2.39259 3.43715C7.85244 2.46916 13.1201 1.55215 18.4725 1.0391C22.0716 0.694181 25.6917 0.509848 29.4281 0.659202C34.2732 0.826046 36.5015 2.0082 37.0927 3.25455C37.6097 4.34444 37.3861 5.80383 36.0737 7.42266C34.672 9.15173 31.9402 11.2619 28.7888 13.7167C23.357 17.9479 16.5923 23.1789 12.7156 27.658C11.9092 28.5897 11.2789 29.5014 10.8235 30.3496C10.7217 30.5395 10.6301 30.7223 10.5587 30.8995C11.4926 30.9461 12.7799 30.9212 13.9302 31.0654C16.6639 31.4083 20.0853 31.8677 23.6469 32.4685C28.7984 33.3376 34.2065 34.5562 38.3283 36.195C42.8854 38.0069 45.8914 40.4988 46.2181 43.4429C46.3789 44.8916 46.0281 46.5265 44.7426 48.2946C42.9789 50.8025 40.5595 52.3377 37.7701 53.3837C35.0661 54.3976 31.9931 54.9232 28.7842 55.2644C24.3873 55.7321 19.7777 55.8958 15.7959 56.5804C12.9579 57.0683 10.522 57.8622 9.00181 59.5894C7.84715 60.744 5.97231 60.744 4.81776 59.5894C3.6631 58.4348 3.6631 56.5599 4.81776 55.4053C7.1311 53.3692 10.2805 52.3076 14.0163 51.9765C19.826 51.4614 27.0829 52.6717 33.2352 51.6568C36.9141 51.05 40.1039 49.5468 42.0676 46.5112C44.1161 43.1335 41.0711 41.5587 36.8988 40.291C31.652 38.6965 24.3623 38.141 18.3675 37.5347C15.0285 37.197 12.0784 36.8383 10.0458 36.4667C8.1446 36.1191 6.85022 35.6271 6.30528 35.2348C5.47243 34.6353 5.07554 33.954 4.94601 33.3345C4.69002 32.1105 4.74464 30.8013 5.29584 29.4525C5.95951 27.8285 7.2866 26.0437 9.17944 24.2631C13.6483 20.0594 21.3221 15.6178 27.1481 11.5051C30.1622 9.37742 32.6252 7.32283 33.8746 5.69032C34.1603 5.3171 34.3655 4.78624 34.4334 4.59544V4.59544ZM10.0184 30.8594C9.76912 30.3124 9.46546 29.8846 9.26629 30.3963C9.1587 30.6729 9.4701 30.7977 10.0184 30.8594Z" fill="#7400BD"/></svg>