<svg width="48" height="54" viewBox="0 0 48 54" fill="none" xmlns="http://www.w3.org/2000/svg"><path fill-rule="evenodd" clip-rule="evenodd" d="M43.2446 45.013C43.1171 44.4734 41.9652 43.248 41.3335 42.4507C39.4983 40.1339 37.0004 37.9711 36.6346 37.6479C35.1451 36.2883 33.5462 35.2544 31.9214 34.3681C30.201 33.4297 28.4201 32.7156 26.5813 32.1419C22.7477 30.9453 18.6943 30.3245 14.487 30.0985L8.27506 29.7277C7.51228 29.7277 6.82935 29.2554 6.56021 28.5417C6.29097 27.8281 6.49193 27.0224 7.06454 26.5187C7.06454 26.5187 8.61404 25.3587 9.73287 23.9663C10.1828 23.4062 10.62 22.8461 10.6975 22.3135C11.0388 19.1932 11.1449 15.5898 11.7995 12.255C12.1044 10.7012 12.5059 9.19747 13.1497 7.81375C13.8291 6.30939 16.0611 5.04113 19.2418 4.16885C26.2912 2.23573 38.444 1.7585 42.8446 0.965402C44.4219 0.759656 45.8697 1.87332 46.0754 3.45071C46.2812 5.0281 45.1676 6.47574 43.5902 6.68149C39.7115 6.99239 29.9923 6.42263 22.8091 7.15212C20.5597 7.38056 18.5817 7.71942 17.1845 8.29002C16.5591 8.54559 16.039 8.75982 15.8244 9.15117C15.0208 10.6633 14.514 12.366 14.2354 14.139C13.7877 16.9888 13.8451 19.9777 13.6176 22.6054C13.564 23.58 13.019 24.7257 12.3138 25.821L14.487 25.6912C17.8106 25.4985 21.0813 25.4681 24.2633 25.8552C26.5302 26.1311 28.7492 26.6081 30.8704 27.3888C34.3604 28.6733 37.5708 30.7521 40.4822 33.6717C41.0362 34.2595 46.058 39.6024 47.1549 43.2742C47.7528 45.276 47.4932 46.96 46.292 48.0524C41.0164 52.9384 33.5949 53.6646 26.1709 52.8292C23.2524 52.5008 20.3288 52.0407 17.5588 51.3738C10.8703 49.7637 5.15219 47.1977 2.59706 45.3419C1.54734 44.5795 0.963724 43.7729 0.646253 43.1966C-0.0159295 41.9949 0.272484 40.9239 0.688747 40.0532C1.0784 39.2381 2.14073 38.295 4.39259 38.1367C6.02542 38.1367 7.35118 39.4624 7.35118 41.0953C7.35118 41.4616 7.28448 41.8124 7.16205 42.1361C9.7333 44.186 14.5825 46.9044 20.1767 48.6384C22.4954 49.3571 24.9369 49.9316 27.3871 50.1335C33.2536 50.6169 39.0676 49.3232 43.0003 45.2682C42.9949 45.2234 43.1742 45.0887 43.2446 45.013V45.013ZM43.2446 45.013V45.0133L43.0003 45.2682C43.001 45.2782 43.0113 45.2837 43.0341 45.2831C43.2286 45.2778 43.2846 45.1773 43.2446 45.0133L43.2487 45.0091L43.2446 45.013Z" fill="#7400BD"/></svg>