<svg width="92" height="98" viewBox="0 0 92 98" fill="none" xmlns="http://www.w3.org/2000/svg"><path fill-rule="evenodd" clip-rule="evenodd" d="M51.1968 37.2233C50.0261 37.7715 48.5371 38.8462 47.0128 40.5004C46.1326 41.4556 45.2682 42.5952 44.4237 43.8526C43.0344 45.9215 41.7461 48.3175 40.4103 50.8201C39.1531 53.1753 37.9769 55.6189 36.7669 58.056C35.9128 59.398 34.1299 59.7943 32.7878 58.9402C31.4458 58.0862 31.0496 56.3033 31.9036 54.9612C33.6142 52.8135 35.3503 50.6995 37.0328 48.5955C38.8381 46.3381 40.6118 44.2182 42.181 42.2217C43.1523 40.9858 44.0512 39.8147 44.8427 38.7236C46.6991 36.1642 48.2245 34.2187 49.5768 33.2771C50.8825 32.3679 52.1384 32.4042 53.1953 32.6639C54.4602 32.9747 55.632 34.1596 56.3664 36.6477C56.7063 37.7994 56.945 39.3755 56.9028 41.4184C56.8845 42.3024 56.7462 43.2731 56.608 44.3448C56.46 45.2355 56.2814 46.1123 56.0239 46.9776C55.5013 48.7339 54.783 50.4119 54.3227 52.1857C53.663 54.8241 52.8058 57.3482 52.2206 59.9554C51.9723 61.0615 51.7745 62.1787 51.6652 63.3017C51.3048 67.0071 51.5642 70.6312 52.0471 74.368C52.0471 76.0009 50.7215 77.3266 49.0886 77.3266C47.4558 77.3266 46.13 76.0009 46.13 74.368C46.5875 70.9956 47.4348 67.8532 48.2659 64.6004C48.6081 63.2614 48.9706 61.93 49.204 60.5613C49.7106 57.5907 49.8361 54.5776 50.0664 51.5136L50.8871 43.8246C50.9421 42.8231 50.9234 41.9197 50.9574 41.1078C50.9986 40.1207 51.0773 39.2853 51.0711 38.5709C51.0673 38.1274 51.1772 37.5734 51.1968 37.2233V37.2233ZM51.3461 37.1543C51.617 37.2134 51.9348 37.2066 51.9142 37.0279C51.9031 36.931 51.705 37.0073 51.5928 37.0512C51.5124 37.0827 51.4299 37.117 51.3461 37.1543V37.1543ZM51.2017 37.115C51.2024 36.9329 51.1617 36.8382 51.0357 36.9004C50.902 36.9664 51.0163 37.0546 51.2017 37.115Z" fill="#7400BD"/><path fill-rule="evenodd" clip-rule="evenodd" d="M67.2328 9.25404C72.6757 7.59323 77.3011 8.4124 81.0095 10.8986C86.9318 14.8692 90.6297 23.4875 91.361 33.9774C91.5529 36.729 91.5518 39.6034 91.3802 42.5521C91.1393 46.6904 90.5498 50.9712 89.5094 55.2383C84.3264 76.4971 68.265 97.137 37.5591 97.7639C32.4021 97.735 27.2085 98.0152 22.2646 97.1388C18.7071 96.5082 15.2803 95.3087 12.065 93.1632C-1.27244 84.1695 -1.99273 66.2672 3.99245 48.3513C5.21421 44.6941 6.67438 41.0326 8.32226 37.4415C14.5838 23.796 23.853 11.366 33.2835 4.9516C39.5565 0.684678 45.9151 -0.928854 51.5608 0.898694C52.8494 1.3158 54.8419 2.27511 57.0629 3.45457C60.551 5.30682 64.6389 7.72669 67.2328 9.25404V9.25404ZM61.0862 12.023C59.5226 11.0039 57.7967 9.89556 56.1286 8.86778C53.6634 7.34891 51.3505 5.99041 49.9582 5.46284C45.5789 3.80331 40.5402 5.12767 35.4564 8.29061C26.2189 14.0377 16.8621 25.6202 10.7463 38.5701C9.10996 42.035 7.72582 45.6102 6.65607 49.1934C1.86794 65.2315 2.67742 81.3697 14.9103 88.6865C17.5489 90.282 20.3376 91.0437 23.1885 91.4674C27.8528 92.1605 32.7159 91.8779 37.5591 91.8507C65.7422 92.426 81.203 73.8265 86.543 54.4657C87.8513 49.7225 88.5914 44.9253 88.6601 40.348C88.8594 27.0553 84.3182 15.586 76.0728 13.4466C74.1068 12.9364 71.9636 13.032 69.6452 13.7838C69.6077 13.8605 69.5657 13.9361 69.52 14.0103C68.8286 15.1328 67.4896 15.6151 66.2806 15.2716C64.2004 16.4208 61.998 18.048 59.6733 20.1805C58.4336 21.2432 56.5643 21.0993 55.5016 19.8596C54.439 18.6198 54.5828 16.7505 55.8226 15.6878C57.6379 14.2342 59.3934 13.0185 61.0862 12.023V12.023Z" fill="#7400BD"/></svg>