<svg width="80" height="326" viewBox="0 0 80 326" fill="none" xmlns="http://www.w3.org/2000/svg"><path d="M8.28457 324.333C8.37673 324.487 8.40044 324.635 8.36951 324.759C8.33859 324.882 8.27212 324.994 8.19774 325.056C8.09572 325.157 7.98317 325.192 7.86271 325.177C7.74225 325.163 7.61126 325.082 7.50527 324.947C7.31766 324.724 7.14978 324.413 6.99046 324.05C6.84759 323.685 6.74882 323.278 6.72706 322.826C6.7053 322.373 6.75727 321.96 6.87769 321.552C7.0172 321.158 7.21398 320.806 7.46803 320.495C7.72471 320.201 8.02221 319.951 8.37698 319.742C8.73438 319.55 9.13523 319.418 9.54926 319.368C9.99619 319.314 10.4372 319.328 10.9052 319.405C11.3732 319.482 11.8189 319.63 12.2368 319.817C12.6575 320.02 13.0531 320.277 13.4211 320.573C13.7917 320.885 14.1017 321.241 14.3512 321.64C14.4809 321.923 14.5178 322.154 14.4922 322.31C14.4665 322.466 14.4191 322.592 14.3447 322.654C14.298 322.679 14.2184 322.708 14.117 322.708C14.0347 322.721 13.9281 322.687 13.8109 322.588C12.7624 322.89 11.7553 323.136 10.7542 323.313C9.77209 323.504 8.86967 323.665 8.0469 323.797C8.10879 323.973 8.18977 324.162 8.28457 324.333ZM7.7835 322.572C7.77758 322.641 7.78812 322.707 7.7822 322.775C7.79537 322.858 7.80591 322.924 7.81645 322.989C7.88819 322.91 7.99547 322.843 8.10276 322.775C8.2265 322.704 8.35551 322.667 8.4707 322.648C9.14538 322.54 9.85296 322.427 10.6211 322.27C11.3919 322.13 12.2068 321.949 13.0822 321.725C12.6602 321.303 12.1474 320.946 11.5491 320.687C10.9672 320.425 10.3787 320.333 9.78368 320.412C9.23801 320.482 8.76805 320.709 8.38499 321.058C8.01839 321.403 7.81241 321.909 7.7835 322.572Z" fill="#7400BD"/><path d="M9.59065 312.847C9.6984 312.78 9.8048 312.814 9.92381 312.931C10.0593 313.045 10.1579 313.249 10.2337 313.524C10.3752 314.009 10.5193 314.51 10.6633 315.011C10.8238 315.509 10.9703 316.027 11.1359 316.558C11.6985 316.489 12.2586 316.403 12.8161 316.301C12.7783 316.054 12.6975 315.746 12.5926 315.39C12.4903 315.052 12.3854 314.697 12.2451 314.33C12.1048 313.964 11.9669 313.614 11.8316 313.28C11.6964 312.947 11.5876 312.676 11.5004 312.437C11.4498 312.326 11.3967 312.2 11.3601 312.07C11.3234 311.941 11.3058 311.825 11.3046 311.708C11.306 311.606 11.3428 311.516 11.3986 311.44C11.4544 311.364 11.5482 311.316 11.6635 311.298C11.6965 311.293 11.7509 311.319 11.8294 311.391C11.9079 311.463 11.9864 311.536 12.0699 311.641C12.17 311.744 12.256 311.866 12.3231 311.974C12.4091 312.095 12.4762 312.203 12.5243 312.297C12.8417 312.94 13.1428 313.586 13.3918 314.222C13.6574 314.857 13.838 315.487 13.9503 316.111C14.0222 316.471 13.9662 316.766 13.7798 316.98C13.6098 317.192 13.3284 317.336 12.9521 317.41C12.411 317.51 11.8673 317.593 11.3212 317.66C11.2336 317.859 11.1005 317.98 10.9028 318.011C10.6861 318.027 10.5392 317.948 10.4291 317.779C10.1136 317.811 9.7816 317.845 9.44961 317.878C9.1341 317.91 8.80211 317.944 8.48659 317.975C8.48776 318.093 8.43951 318.218 8.35327 318.316C8.26955 318.43 8.1618 318.497 8.04649 318.515C7.94765 318.53 7.84629 318.528 7.75636 318.492C7.66643 318.455 7.60441 318.38 7.53735 318.272C7.45768 318.082 7.37046 317.842 7.27819 317.569C7.18593 317.297 7.09114 317.008 6.99384 316.702C6.89905 316.413 6.82074 316.121 6.74495 315.846C6.66916 315.571 6.6174 315.343 6.57068 315.147C6.51892 314.919 6.50011 314.686 6.53324 314.461C6.56637 314.237 6.66792 314.019 6.8214 313.81C6.9621 313.738 7.08245 313.753 7.17994 313.84C7.27995 313.942 7.34954 314.067 7.39121 314.229C7.43289 314.391 7.49608 314.584 7.54783 314.812C7.61607 315.038 7.68682 315.28 7.75505 315.506C7.8258 315.748 7.89655 315.99 7.95083 316.235C8.0241 316.494 8.09233 316.72 8.15804 316.929C8.17451 316.926 8.20746 316.921 8.22141 316.902C8.25436 316.897 8.28731 316.892 8.30378 316.89C8.58635 316.863 8.88539 316.834 9.16796 316.808C9.45053 316.782 9.74705 316.736 10.0296 316.71C9.87668 316.261 9.7377 315.793 9.59872 315.325C9.47621 314.855 9.3663 314.467 9.30698 314.189C9.25522 313.961 9.23641 313.728 9.28602 313.501C9.33562 313.274 9.43716 313.056 9.59065 312.847Z" fill="#7400BD"/><path d="M5.73377 304.046C5.85939 305.191 6.10918 306.266 6.49959 307.269C6.89 308.271 7.36276 309.262 7.91535 310.223C8.05476 310.471 8.06873 310.671 7.97373 310.821C7.88126 310.987 7.75964 311.073 7.64435 311.091C7.41754 311.042 7.23254 310.935 7.07033 310.758C5.61924 308.67 4.87894 306.489 4.8114 304.188C4.82658 304.068 4.89625 303.972 4.99886 303.872C5.12048 303.786 5.23324 303.752 5.31813 303.756C5.43597 303.754 5.5234 303.775 5.59689 303.814C5.68685 303.851 5.73248 303.928 5.73377 304.046ZM11.8423 305.502C11.9576 305.484 12.078 305.499 12.173 305.569C12.2845 305.636 12.3682 305.741 12.4024 305.854C12.4683 306.063 12.4582 306.217 12.3531 306.3C12.2479 306.384 12.1377 306.435 11.992 306.474C11.2204 306.61 10.4653 306.743 9.69115 306.862C8.93856 307.011 8.18598 307.161 7.41946 307.33C7.37004 307.337 7.32063 307.345 7.25728 307.371C7.21041 307.395 7.14452 307.406 7.0761 307.399C7.02415 307.39 6.97221 307.382 6.91518 307.34C6.8607 307.314 6.81761 307.253 6.78845 307.174C6.70099 306.934 6.7225 306.745 6.82003 306.612C6.93404 306.476 7.0582 306.407 7.1735 306.389C7.95141 306.185 8.73187 305.997 9.50346 305.862C10.2751 305.726 11.0657 305.604 11.8423 305.502Z" fill="#7400BD"/><path d="M11.164 300.885C11.354 300.884 11.5529 300.915 11.7037 300.96C11.8706 301 11.9937 301.069 12.0366 301.161C12.1429 301.357 12.1511 301.51 12.07 301.654C11.9889 301.798 11.8373 301.874 11.6562 301.907C10.9917 302.006 10.2772 302.049 9.50105 302.057C8.741 302.061 7.972 302.033 7.178 301.977C6.40005 301.917 5.62922 301.82 4.86997 301.702C4.12677 301.58 3.43174 301.445 2.79645 301.275C2.70276 301.25 2.62066 301.203 2.58224 301.127C2.56436 301.063 2.54647 300.999 2.54911 300.946C2.48753 300.911 2.43753 300.856 2.38306 300.785C2.32859 300.713 2.29465 300.654 2.27229 300.573C2.26335 300.541 2.25441 300.509 2.25704 300.456C2.26415 300.42 2.28732 300.379 2.32207 300.317C2.35681 300.255 2.42367 300.185 2.50211 300.094C2.60107 300.014 2.7232 299.894 2.8935 299.76C3.3991 299.463 3.91181 299.13 4.43164 298.76C4.95593 298.407 5.47576 298.037 5.99558 297.667L5.89822 297.504C5.85087 297.396 5.82667 297.247 5.80248 297.098C5.77829 296.949 5.82726 296.814 5.94228 296.73C6.08493 296.621 6.23389 296.597 6.36864 296.646C6.50338 296.695 6.67653 296.82 6.85152 297.014C7.14841 296.775 7.44978 296.553 7.73062 296.319C8.02752 296.08 8.30836 295.846 8.57314 295.617C8.61683 295.588 8.69263 295.549 8.80054 295.502C8.90845 295.454 9.01636 295.407 9.12427 295.36C9.23665 295.328 9.3535 295.313 9.4543 295.302C9.5551 295.292 9.63273 295.322 9.68273 295.377C9.7372 295.449 9.75509 295.513 9.72928 295.607C9.70348 295.7 9.67767 295.794 9.61976 295.897C9.5779 295.995 9.53157 296.077 9.44866 296.152C9.38628 296.239 9.33548 296.305 9.2802 296.355C8.9762 296.63 8.67219 296.905 8.34766 297.168C8.04365 297.443 7.73518 297.702 7.40617 297.95C7.61166 298.377 7.82609 298.837 8.03788 299.349C8.24967 299.861 8.44541 300.378 8.60456 300.888C9.03722 300.888 9.46989 300.889 9.8865 300.894C10.3236 300.911 10.7358 300.9 11.164 300.885ZM3.7861 300.481C5.03248 300.67 6.24045 300.784 7.45106 300.845C7.23377 300.127 6.92726 299.399 6.53865 298.624C5.66666 299.282 4.74914 299.901 3.7861 300.481Z" fill="#7400BD"/><path d="M7.89194 292.075C7.93754 292.049 7.98651 292.038 8.06812 292.022C8.14973 292.005 8.2347 292.004 8.32304 292.02C8.41138 292.036 8.50308 292.068 8.56214 292.107C8.64089 292.159 8.69035 292.234 8.7139 292.348C8.61746 292.624 8.44564 292.863 8.23445 293.077C7.92482 293.226 7.56623 293.385 7.15531 293.538C6.74775 293.707 6.31715 293.846 5.8539 293.993C5.40697 294.136 4.93699 294.25 4.46701 294.364C3.99703 294.478 3.52705 294.591 3.08299 294.666C3.00138 294.683 2.90008 294.686 2.78246 294.694C2.66484 294.701 2.5309 294.711 2.40655 294.686C2.2822 294.661 2.17418 294.632 2.07911 294.583C1.98404 294.535 1.93122 294.443 1.90767 294.329C1.87739 294.182 1.90281 294.058 1.9676 293.959C2.03239 293.861 2.1692 293.781 2.36507 293.741C2.80913 293.667 3.26279 293.556 3.74909 293.439C4.25171 293.318 4.73801 293.201 5.23391 293.048C5.7298 292.895 6.19306 292.748 6.64958 292.569C7.10947 292.406 7.53335 292.234 7.89194 292.075Z" fill="#7400BD"/><path d="M1.43171 288.046C1.8164 288.084 2.25106 288.12 2.71903 288.156C3.20366 288.19 3.6711 288.209 4.15573 288.243C4.64036 288.278 5.12445 288.296 5.57524 288.315C6.02655 288.35 6.42737 288.371 6.77768 288.377C6.69884 287.995 6.60227 287.581 6.50412 287.117C6.40649 286.67 6.29168 286.206 6.17633 285.726C6.07765 285.246 5.97949 284.782 5.88133 284.318C5.80036 283.87 5.73711 283.455 5.69158 283.072C5.69052 283.039 5.70611 283.005 5.72117 282.955C5.76849 282.87 5.83352 282.818 5.93346 282.814C6.08336 282.81 6.18436 282.84 6.25258 282.888C6.33746 282.935 6.38955 283 6.42552 283.082C6.47815 283.164 6.51359 283.23 6.54955 283.312C6.58552 283.394 6.63815 283.476 6.7069 283.541C6.80134 283.888 6.91296 284.251 7.02618 284.665C7.1394 285.078 7.25262 285.492 7.36637 285.922C7.48012 286.352 7.59387 286.782 7.70763 287.212C7.82138 287.643 7.93406 288.039 8.04622 288.42C8.14066 288.767 8.09866 289.018 7.88797 289.209C7.67728 289.399 7.34628 289.476 6.86218 289.458C5.96115 289.437 5.05958 289.399 4.14082 289.345C3.23872 289.29 2.33662 289.236 1.43346 289.148C1.24971 289.137 1.08102 289.075 0.960708 288.962C0.840925 288.866 0.753393 288.735 0.731956 288.586C0.690674 288.337 0.751987 288.168 0.9003 288.113C1.06527 288.058 1.24796 288.036 1.43171 288.046Z" fill="#7400BD"/><path d="M3.92419 273.939C3.9511 274.004 3.9716 274.085 3.9421 274.199C3.92799 274.32 3.84592 274.43 3.72412 274.506C3.63053 274.557 3.52411 274.639 3.40231 274.715C3.29589 274.797 3.18306 274.894 3.06382 275.007C2.94458 275.12 2.84713 275.224 2.74327 275.344C2.63941 275.463 2.57274 275.58 2.52144 275.703C2.45732 275.857 2.42397 276.023 2.43035 276.225C2.43674 276.426 2.46492 276.619 2.55208 276.799C2.71742 277.139 2.92508 277.334 3.1879 277.353C3.45968 277.394 3.76097 277.321 4.08278 277.112C4.29817 276.985 4.5046 276.836 4.73282 276.678C4.96104 276.52 5.18926 276.362 5.41748 276.205C5.63928 276.062 5.84571 275.913 6.05213 275.764C6.25214 275.631 6.43036 275.507 6.58037 275.406C6.78038 275.273 6.98936 275.161 7.19835 275.05C7.40733 274.938 7.63426 274.87 7.85477 274.817C8.09067 274.771 8.32913 274.762 8.59194 274.781C8.85475 274.8 9.11371 274.872 9.406 274.994C9.94313 275.308 10.2995 275.709 10.4687 276.213C10.6468 276.739 10.6826 277.26 10.5697 277.791C10.4671 278.254 10.2786 278.663 9.99782 279.034C9.7106 279.42 9.35416 279.669 8.90928 279.827C8.8003 279.872 8.65159 279.882 8.4939 279.87C8.33621 279.859 8.22212 279.83 8.17982 279.758C8.11316 279.658 8.09651 279.524 8.11448 279.351C8.14783 279.184 8.21451 279.068 8.29272 279.01C8.60427 278.869 8.87352 278.656 9.10048 278.371C9.34281 278.093 9.47746 277.769 9.54802 277.383C9.59549 277.096 9.57757 276.836 9.4635 276.589C9.36482 276.35 9.21868 276.18 9.02255 276.044C8.81103 275.902 8.57387 275.821 8.28285 275.827C8.00721 275.838 7.70849 275.949 7.39308 276.142C6.89691 276.423 6.41867 276.748 5.943 277.11C5.46091 277.487 4.93909 277.83 4.38008 278.175C4.08392 278.323 3.78263 278.396 3.49161 278.401C3.20059 278.406 2.92881 278.365 2.69805 278.269C2.45192 278.167 2.2404 278.024 2.05453 277.82C1.88404 277.623 1.74177 277.401 1.63411 277.14C1.54183 276.884 1.47776 276.605 1.47267 276.314C1.46758 276.022 1.50607 275.713 1.61252 275.414C1.77026 274.992 2.00747 274.64 2.35238 274.332C2.71266 274.03 3.07165 273.818 3.44474 273.703C3.52551 273.682 3.61525 273.684 3.70755 273.722C3.79344 273.776 3.87292 273.845 3.92419 273.939Z" fill="#7400BD"/><path d="M14.9681 257.277C14.9291 257.453 14.8445 257.576 14.7374 257.645C14.6303 257.713 14.505 257.749 14.408 257.743C14.2647 257.746 14.1589 257.694 14.0814 257.601C14.0039 257.507 13.9639 257.359 13.9798 257.188C13.9969 256.897 14.0887 256.556 14.2224 256.182C14.3698 255.819 14.5774 255.456 14.8726 255.112C15.1678 254.768 15.4898 254.504 15.8574 254.29C16.2295 254.1 16.6146 253.979 17.0127 253.928C17.4015 253.891 17.7896 253.914 18.1908 254.006C18.5825 254.112 18.9642 254.292 19.2989 254.54C19.661 254.808 19.9718 255.121 20.2588 255.499C20.5458 255.876 20.7676 256.29 20.9431 256.713C21.1091 257.15 21.2195 257.608 21.2835 258.076C21.3381 258.558 21.3189 259.029 21.2258 259.491C21.1253 259.786 20.9937 259.978 20.8677 260.074C20.7418 260.17 20.621 260.229 20.5239 260.223C20.4732 260.209 20.395 260.175 20.3219 260.105C20.253 260.058 20.1987 259.96 20.1819 259.808C19.2121 259.307 18.3119 258.793 17.463 258.234C16.6184 257.697 15.8521 257.194 15.1639 256.724C15.088 256.895 15.0165 257.088 14.9681 257.277ZM15.8142 255.654C15.7628 255.7 15.7252 255.755 15.6738 255.8C15.6268 255.869 15.5892 255.924 15.5515 255.98C15.658 255.971 15.7825 255.996 15.9071 256.02C16.0454 256.054 16.1649 256.116 16.2612 256.181C16.8255 256.567 17.4173 256.971 18.0829 257.385C18.7391 257.813 19.4555 258.241 20.2456 258.68C20.2293 258.083 20.1022 257.472 19.8455 256.872C19.6026 256.282 19.2381 255.811 18.7521 255.459C18.3073 255.135 17.8098 254.977 17.2922 254.967C16.7882 254.966 16.291 255.192 15.8142 255.654Z" fill="#7400BD"/><path d="M23.0811 249.382C23.2051 249.41 23.257 249.509 23.2602 249.676C23.2769 249.852 23.2044 250.067 23.0658 250.316C22.8277 250.761 22.5798 251.22 22.3319 251.678C22.0975 252.147 21.8399 252.619 21.5861 253.114C22.0362 253.458 22.496 253.789 22.9656 254.107C23.1118 253.904 23.2698 253.627 23.4435 253.3C23.6075 252.987 23.7813 252.66 23.9377 252.3C24.0942 251.94 24.2408 251.594 24.3778 251.261C24.5147 250.928 24.6263 250.659 24.7318 250.427C24.7729 250.312 24.8238 250.185 24.8882 250.067C24.9526 249.949 25.0208 249.854 25.1026 249.769C25.1745 249.698 25.2638 249.659 25.3569 249.644C25.4499 249.629 25.5506 249.66 25.6453 249.728C25.6723 249.748 25.6934 249.804 25.6988 249.911C25.7042 250.017 25.7096 250.124 25.6955 250.257C25.6949 250.401 25.6711 250.548 25.6435 250.672C25.6196 250.819 25.592 250.943 25.5606 251.044C25.337 251.725 25.0999 252.397 24.832 253.026C24.5776 253.665 24.2653 254.241 23.9086 254.765C23.7078 255.073 23.4611 255.244 23.1781 255.267C22.9086 255.299 22.6067 255.205 22.2859 254.994C21.8298 254.686 21.3835 254.365 20.9469 254.03C20.745 254.111 20.5649 254.105 20.4026 253.988C20.2365 253.848 20.1867 253.689 20.2263 253.491C19.979 253.293 19.7183 253.084 19.4575 252.876C19.2103 252.678 18.9495 252.469 18.7022 252.271C18.6205 252.356 18.4982 252.412 18.3684 252.421C18.2288 252.444 18.1049 252.416 18.0102 252.348C17.929 252.29 17.8576 252.218 17.8192 252.128C17.7808 252.039 17.789 251.942 17.8166 251.818C17.8929 251.627 17.9985 251.394 18.1235 251.135C18.2485 250.876 18.3833 250.603 18.5278 250.317C18.6626 250.044 18.8109 249.781 18.9494 249.531C19.088 249.282 19.2109 249.083 19.3142 248.91C19.4371 248.711 19.587 248.531 19.7678 248.394C19.9485 248.257 20.1736 248.173 20.4295 248.131C20.5805 248.178 20.6557 248.273 20.6649 248.403C20.6643 248.547 20.6269 248.684 20.543 248.829C20.4592 248.974 20.3693 249.156 20.2464 249.355C20.1371 249.564 20.018 249.787 19.9087 249.996C19.7896 250.218 19.6706 250.441 19.538 250.653C19.4091 250.889 19.2998 251.098 19.2002 251.294C19.2137 251.304 19.2408 251.323 19.2641 251.319C19.2911 251.339 19.3182 251.358 19.3317 251.368C19.5519 251.547 19.7856 251.736 20.0058 251.915C20.226 252.094 20.4694 252.269 20.6896 252.448C20.8947 252.02 21.1231 251.589 21.3516 251.158C21.5935 250.736 21.7867 250.382 21.9388 250.142C22.0617 249.943 22.2116 249.763 22.4058 249.636C22.6001 249.509 22.8252 249.424 23.0811 249.382Z" fill="#7400BD"/><path d="M27.5318 240.315C26.7922 241.198 26.1888 242.122 25.7348 243.098C25.2809 244.074 24.8931 245.1 24.5816 246.164C24.4986 246.437 24.3636 246.585 24.1899 246.62C24.006 246.668 23.8596 246.64 23.767 246.569C23.6458 246.371 23.5947 246.164 23.6106 245.924C24.1143 243.432 25.1765 241.388 26.7912 239.748C26.8886 239.675 27.0055 239.66 27.1488 239.665C27.2952 239.693 27.3979 239.75 27.4539 239.814C27.5363 239.899 27.5822 239.976 27.6046 240.056C27.6403 240.146 27.6161 240.233 27.5318 240.315ZM30.7073 245.733C30.7998 245.804 30.8721 245.901 30.8876 246.018C30.9162 246.145 30.8981 246.278 30.8403 246.381C30.7349 246.573 30.6171 246.672 30.484 246.654C30.3508 246.636 30.2379 246.592 30.1087 246.514C29.477 246.05 28.8584 245.597 28.2368 245.121C27.6081 244.681 26.9794 244.241 26.3273 243.804C26.2876 243.774 26.248 243.743 26.1849 243.716C26.1351 243.699 26.0822 243.658 26.0394 243.605C26.0099 243.561 25.9803 243.517 25.9711 243.447C25.9517 243.39 25.9658 243.317 26.0033 243.241C26.1158 243.012 26.2671 242.897 26.4307 242.875C26.6075 242.863 26.7438 242.905 26.8363 242.976C27.5219 243.396 28.1974 243.83 28.8291 244.293C29.4609 244.756 30.0958 245.243 30.7073 245.733Z" fill="#7400BD"/><path d="M33.3135 242.303C33.4213 242.459 33.5075 242.641 33.5556 242.791C33.6164 242.951 33.6282 243.092 33.5764 243.18C33.4747 243.377 33.3524 243.471 33.188 243.484C33.0235 243.498 32.8747 243.416 32.7454 243.285C32.2899 242.792 31.852 242.225 31.4082 241.589C30.9771 240.963 30.5675 240.311 30.1667 239.623C29.7786 238.947 29.4248 238.255 29.0944 237.561C28.7768 236.878 28.4974 236.228 28.2797 235.607C28.2483 235.515 28.2404 235.421 28.2815 235.347C28.3245 235.296 28.3676 235.245 28.4126 235.217C28.4067 235.147 28.4242 235.075 28.4526 234.989C28.4809 234.904 28.5112 234.842 28.565 234.779C28.5865 234.753 28.608 234.728 28.653 234.7C28.6873 234.686 28.7343 234.682 28.8047 234.676C28.8752 234.67 28.9712 234.685 29.0906 234.699C29.212 234.736 29.3804 234.769 29.587 234.834C30.1167 235.085 30.6806 235.321 31.2789 235.543C31.8663 235.777 32.4646 235.998 33.0628 236.22L33.1429 236.047C33.2055 235.948 33.3151 235.844 33.4246 235.74C33.5342 235.636 33.6732 235.6 33.8073 235.648C33.9777 235.705 34.0815 235.814 34.1168 235.953C34.1522 236.092 34.1464 236.306 34.0849 236.559C34.4491 236.67 34.8026 236.794 35.154 236.895C35.5182 237.006 35.8697 237.106 36.2085 237.196C36.2574 237.215 36.3318 237.256 36.4317 237.319C36.5316 237.381 36.6315 237.444 36.7314 237.506C36.8205 237.582 36.8989 237.67 36.9645 237.747C37.0301 237.824 37.0488 237.905 37.0312 237.978C37.0029 238.063 36.9598 238.114 36.8679 238.145C36.7759 238.177 36.6839 238.208 36.5664 238.218C36.4617 238.239 36.3677 238.247 36.2591 238.221C36.1524 238.218 36.0692 238.213 35.9967 238.196C35.5983 238.099 35.1998 238.003 34.7994 237.883C34.4009 237.786 34.0132 237.677 33.6236 237.545C33.386 237.955 33.1269 238.391 32.8227 238.855C32.5186 239.318 32.2018 239.771 31.8702 240.189C32.1132 240.547 32.3562 240.905 32.5865 241.252C32.8187 241.623 33.0597 241.957 33.3135 242.303ZM29.4937 235.978C30.0387 237.115 30.6248 238.177 31.2558 239.212C31.7273 238.628 32.1565 237.965 32.5779 237.207C31.5431 236.857 30.515 236.447 29.4937 235.978Z" fill="#7400BD"/><path d="M39.3387 234.315C39.3862 234.338 39.422 234.373 39.4816 234.432C39.5412 234.49 39.5892 234.56 39.6256 234.642C39.6619 234.724 39.6866 234.818 39.6875 234.889C39.6886 234.983 39.6542 235.066 39.5727 235.149C39.2907 235.224 38.9958 235.216 38.7005 235.16C38.4037 234.987 38.0711 234.779 37.7145 234.524C37.3461 234.282 36.9891 234.003 36.6083 233.701C36.2394 233.411 35.8819 233.086 35.5243 232.76C35.1668 232.435 34.8092 232.109 34.4989 231.783C34.4392 231.725 34.3793 231.643 34.3075 231.549C34.2356 231.456 34.1518 231.351 34.1033 231.234C34.0547 231.116 34.0181 231.011 34.005 230.905C33.992 230.799 34.038 230.704 34.1195 230.621C34.2243 230.513 34.3416 230.464 34.4595 230.463C34.5774 230.462 34.7197 230.53 34.8628 230.67C35.1732 230.996 35.5188 231.31 35.8883 231.647C36.2697 231.996 36.6391 232.334 37.0438 232.659C37.4485 232.984 37.8293 233.285 38.2334 233.563C38.6259 233.853 39.0062 234.107 39.3387 234.315Z" fill="#7400BD"/><path d="M40.5426 226.59C40.657 226.959 40.7922 227.374 40.9413 227.819C41.0973 228.279 41.2616 228.717 41.4177 229.177C41.5737 229.637 41.7449 230.09 41.9022 230.513C42.0444 230.943 42.1808 231.32 42.3116 231.645C42.6324 231.425 42.9766 231.175 43.3662 230.905C43.7407 230.641 44.1234 230.356 44.5212 230.063C44.926 229.786 45.3156 229.515 45.7053 229.245C46.0867 228.997 46.4448 228.777 46.7795 228.587C46.8098 228.573 46.847 228.575 46.8994 228.569C46.9961 228.579 47.0693 228.619 47.111 228.71C47.1736 228.846 47.185 228.951 47.1673 229.033C47.1566 229.129 47.1168 229.202 47.0549 229.268C47 229.348 46.9532 229.406 46.8913 229.471C46.8295 229.536 46.7745 229.616 46.7417 229.705C46.4582 229.926 46.1664 230.17 45.8292 230.435C45.492 230.7 45.1548 230.964 44.8024 231.236C44.45 231.508 44.0976 231.779 43.7453 232.051C43.3929 232.323 43.0708 232.58 42.7639 232.831C42.4804 233.053 42.2322 233.112 41.9751 232.991C41.7181 232.871 41.5185 232.596 41.3473 232.143C41.0175 231.304 40.7029 230.458 40.3965 229.59C40.097 228.738 39.7976 227.885 39.5284 227.018C39.4671 226.845 39.4583 226.665 39.5157 226.511C39.558 226.363 39.6445 226.232 39.774 226.154C39.9874 226.019 40.1668 226.01 40.2748 226.126C40.3898 226.256 40.4814 226.416 40.5426 226.59Z" fill="#7400BD"/><path d="M52.3901 222.244C52.3562 222.306 52.3063 222.373 52.199 222.421C52.0964 222.486 51.959 222.492 51.8235 222.445C51.7247 222.405 51.5939 222.374 51.4585 222.326C51.3277 222.295 51.1809 222.269 51.0181 222.247C50.8553 222.226 50.7132 222.215 50.5552 222.21C50.3971 222.204 50.2644 222.226 50.1364 222.263C49.9764 222.31 49.8258 222.389 49.6733 222.521C49.5208 222.653 49.3891 222.796 49.3034 222.977C49.1433 223.32 49.1225 223.604 49.273 223.82C49.4121 224.057 49.6586 224.245 50.0237 224.364C50.2579 224.451 50.5035 224.518 50.7698 224.596C51.0361 224.674 51.3023 224.752 51.5686 224.83C51.8189 224.913 52.0645 224.98 52.31 225.046C52.5396 225.118 52.7485 225.178 52.9207 225.232C53.1502 225.303 53.3685 225.395 53.5868 225.488C53.8051 225.58 54.0008 225.713 54.1804 225.852C54.3648 226.006 54.5219 226.185 54.6724 226.402C54.8229 226.618 54.9301 226.864 55.0193 227.168C55.1132 227.783 55.0255 228.313 54.7402 228.761C54.4437 229.231 54.0615 229.586 53.5777 229.833C53.1533 230.044 52.7166 230.155 52.2518 230.17C51.7709 230.19 51.3532 230.07 50.9505 229.823C50.847 229.767 50.7454 229.658 50.6551 229.528C50.5648 229.398 50.516 229.291 50.5452 229.213C50.5809 229.098 50.6741 229.001 50.82 228.906C50.9706 228.827 51.1033 228.806 51.1974 228.83C51.5032 228.983 51.8381 229.059 52.2023 229.056C52.5712 229.069 52.9071 228.97 53.2516 228.782C53.5048 228.638 53.6959 228.46 53.8154 228.217C53.9397 227.989 53.9793 227.769 53.9615 227.531C53.939 227.277 53.8526 227.042 53.6654 226.819C53.4829 226.612 53.2091 226.45 52.8601 226.326C52.3294 226.118 51.7762 225.95 51.1956 225.808C50.5991 225.671 50.0045 225.481 49.3844 225.264C49.0834 225.126 48.8369 224.938 48.6497 224.715C48.4625 224.492 48.3233 224.255 48.2529 224.016C48.1777 223.76 48.1552 223.506 48.1967 223.233C48.2429 222.976 48.3258 222.726 48.4614 222.478C48.6016 222.246 48.7786 222.02 49.0017 221.833C49.2248 221.646 49.4893 221.481 49.7885 221.376C50.2158 221.233 50.6393 221.195 51.0956 221.269C51.5567 221.36 51.9471 221.505 52.2717 221.723C52.3385 221.773 52.394 221.843 52.4222 221.939C52.4344 222.04 52.4306 222.145 52.3901 222.244Z" fill="#7400BD"/><path d="M64.3911 219.721C64.3343 219.891 64.2374 220.006 64.1238 220.062C64.0103 220.119 63.882 220.142 63.7861 220.126C63.6432 220.115 63.5434 220.052 63.4759 219.951C63.4083 219.85 63.3839 219.699 63.4172 219.53C63.4643 219.242 63.5906 218.912 63.762 218.555C63.9461 218.208 64.1899 217.869 64.5188 217.557C64.8478 217.246 65.1953 217.015 65.583 216.841C65.9726 216.69 66.3681 216.61 66.7694 216.6C67.16 216.603 67.5437 216.665 67.9332 216.798C68.312 216.944 68.6731 217.162 68.9804 217.444C69.3132 217.747 69.5901 218.091 69.8367 218.496C70.0833 218.901 70.2614 219.335 70.3924 219.774C70.5127 220.225 70.5753 220.693 70.5909 221.165C70.5957 221.65 70.528 222.117 70.3879 222.566C70.2577 222.849 70.1069 223.027 69.9718 223.109C69.8367 223.192 69.7104 223.238 69.6145 223.222C69.5656 223.203 69.4912 223.162 69.4256 223.084C69.362 223.03 69.318 222.928 69.317 222.774C68.4039 222.176 67.5612 221.573 66.7744 220.929C65.9895 220.308 65.2789 219.729 64.6428 219.191C64.5498 219.353 64.4587 219.538 64.3911 219.721ZM65.3997 218.193C65.3439 218.233 65.3008 218.284 65.245 218.324C65.1911 218.388 65.148 218.439 65.105 218.49C65.2117 218.493 65.333 218.53 65.4544 218.567C65.5885 218.615 65.701 218.688 65.7901 218.764C66.3117 219.205 66.8588 219.668 67.4783 220.148C68.0871 220.641 68.7555 221.141 69.4964 221.659C69.5416 221.064 69.4781 220.442 69.2844 219.819C69.1034 219.208 68.7893 218.702 68.3421 218.302C67.933 217.934 67.4544 217.725 66.9405 217.662C66.4393 217.609 65.9215 217.783 65.3997 218.193Z" fill="#7400BD"/><path d="M71.8033 213.387C71.9302 213.385 72.0037 213.469 72.0456 213.631C72.1029 213.799 72.0822 214.024 72.0054 214.299C71.8772 214.787 71.7426 215.291 71.608 215.794C71.4888 216.304 71.3479 216.823 71.2161 217.364C71.7339 217.595 72.2581 217.81 72.7886 218.009C72.8835 217.778 72.973 217.472 73.066 217.114C73.1527 216.771 73.2458 216.413 73.3143 216.026C73.3828 215.64 73.445 215.269 73.5009 214.913C73.5567 214.557 73.6027 214.27 73.6514 214.019C73.6649 213.899 73.6847 213.763 73.7199 213.633C73.7552 213.503 73.7995 213.395 73.8592 213.294C73.9126 213.207 73.9905 213.149 74.0775 213.113C74.1645 213.076 74.2697 213.084 74.3776 213.128C74.4084 213.141 74.442 213.19 74.472 213.293C74.502 213.395 74.5321 213.498 74.5494 213.631C74.5822 213.771 74.5932 213.919 74.5951 214.046C74.6062 214.195 74.6081 214.322 74.6009 214.427C74.5418 215.142 74.4672 215.85 74.3527 216.524C74.2537 217.205 74.0838 217.838 73.8587 218.431C73.7348 218.776 73.5347 219.001 73.2646 219.088C73.01 219.182 72.6945 219.16 72.3336 219.03C71.8185 218.837 71.3097 218.628 70.8073 218.404C70.6297 218.529 70.453 218.565 70.268 218.489C70.0739 218.391 69.9886 218.248 69.9811 218.047C69.6945 217.911 69.3925 217.769 69.0905 217.627C68.8039 217.492 68.5019 217.35 68.2153 217.214C68.1556 217.316 68.0496 217.398 67.9254 217.438C67.7949 217.492 67.668 217.494 67.5601 217.45C67.4676 217.412 67.3814 217.358 67.3233 217.281C67.2653 217.203 67.2507 217.107 67.2487 216.98C67.2784 216.775 67.3272 216.525 67.3885 216.244C67.4499 215.963 67.5176 215.666 67.5917 215.354C67.6594 215.057 67.7425 214.767 67.8193 214.492C67.8961 214.217 67.9693 213.995 68.0298 213.803C68.1031 213.581 68.2071 213.371 68.3511 213.196C68.495 213.021 68.6943 212.886 68.9336 212.786C69.0913 212.797 69.1866 212.872 69.2257 212.996C69.2584 213.136 69.2541 213.278 69.2062 213.439C69.1583 213.599 69.1131 213.797 69.0399 214.02C68.9821 214.248 68.918 214.492 68.8602 214.721C68.7961 214.965 68.7319 215.209 68.6524 215.447C68.5819 215.706 68.5241 215.935 68.4726 216.148C68.4881 216.154 68.5189 216.167 68.5406 216.158C68.5715 216.171 68.6023 216.183 68.6177 216.19C68.8735 216.313 69.1447 216.442 69.4004 216.565C69.6562 216.688 69.9337 216.802 70.1894 216.925C70.2896 216.461 70.4116 215.988 70.5335 215.516C70.6708 215.049 70.7765 214.66 70.8687 214.392C70.9419 214.169 71.046 213.96 71.2054 213.791C71.3648 213.622 71.5641 213.487 71.8033 213.387Z" fill="#7400BD"/><path d="M70.3939 204.955C70.1152 206.072 69.9771 207.167 69.996 208.243C70.0149 209.319 70.1155 210.412 70.301 211.504C70.3457 211.786 70.2894 211.979 70.1485 212.086C70.0042 212.21 69.8602 212.249 69.7459 212.225C69.5503 212.1 69.4136 211.936 69.3229 211.714C68.6849 209.252 68.7458 206.95 69.4794 204.768C69.5354 204.66 69.6337 204.595 69.7647 204.537C69.9086 204.498 70.0262 204.505 70.1046 204.538C70.2155 204.578 70.2905 204.627 70.3459 204.689C70.4175 204.755 70.4335 204.843 70.3939 204.955ZM75.6201 208.436C75.7344 208.459 75.8421 208.515 75.9071 208.613C75.9884 208.715 76.0304 208.843 76.0235 208.96C76.0128 209.18 75.9502 209.32 75.8226 209.362C75.695 209.404 75.574 209.413 75.4237 209.4C74.6529 209.26 73.8984 209.123 73.131 208.967C72.3731 208.846 71.6153 208.726 70.8379 208.619C70.7889 208.609 70.7399 208.599 70.6712 208.602C70.6189 208.608 70.5536 208.595 70.4916 208.565C70.446 208.539 70.4003 208.513 70.3613 208.454C70.319 208.411 70.2996 208.339 70.2999 208.254C70.3009 207.999 70.3865 207.829 70.5241 207.738C70.678 207.65 70.8187 207.628 70.933 207.651C71.7334 207.729 72.5306 207.823 73.3014 207.963C74.0722 208.103 74.856 208.263 75.6201 208.436Z" fill="#7400BD"/><path d="M77.7589 204.113C77.9377 204.178 78.114 204.275 78.2404 204.369C78.3834 204.463 78.4753 204.571 78.4841 204.672C78.517 204.892 78.472 205.039 78.3466 205.146C78.2212 205.254 78.0525 205.274 77.871 205.243C77.213 205.108 76.5269 204.903 75.7949 204.645C75.0795 204.389 74.3667 204.099 73.6399 203.774C72.9298 203.451 72.2388 203.096 71.5658 202.725C70.9093 202.356 70.3027 201.991 69.7639 201.614C69.6847 201.557 69.6235 201.486 69.6134 201.401C69.6186 201.335 69.6238 201.268 69.6443 201.22C69.5984 201.166 69.5704 201.097 69.5437 201.011C69.5169 200.925 69.5055 200.858 69.512 200.774C69.5147 200.741 69.5173 200.708 69.5378 200.659C69.557 200.627 69.5928 200.597 69.6466 200.551C69.7003 200.505 69.7873 200.462 69.8922 200.403C70.0124 200.362 70.1684 200.291 70.3743 200.223C70.9509 200.118 71.5467 199.98 72.1617 199.811C72.7755 199.659 73.3905 199.489 74.0055 199.32L73.97 199.133C73.9625 199.016 73.9908 198.867 74.0192 198.719C74.0475 198.571 74.1397 198.461 74.2765 198.421C74.4479 198.368 74.5961 198.396 74.7059 198.488C74.8157 198.581 74.9355 198.757 75.0336 198.999C75.3942 198.877 75.7535 198.771 76.0975 198.648C76.4581 198.525 76.8021 198.402 77.1295 198.277C77.1807 198.264 77.265 198.254 77.3826 198.246C77.5002 198.239 77.6178 198.231 77.7354 198.224C77.8517 198.233 77.9667 198.259 78.0651 198.283C78.1635 198.308 78.2261 198.363 78.2541 198.432C78.2808 198.517 78.2756 198.584 78.2192 198.663C78.1629 198.742 78.1065 198.822 78.0169 198.898C77.944 198.976 77.8723 199.037 77.7687 199.08C77.6804 199.14 77.6101 199.184 77.541 199.212C77.1612 199.366 76.7814 199.521 76.3862 199.657C76.0064 199.811 75.6279 199.949 75.234 200.069C75.2806 200.541 75.3246 201.046 75.3481 201.6C75.3716 202.153 75.3785 202.706 75.3534 203.239C75.7597 203.388 76.1659 203.537 76.5555 203.685C76.9604 203.85 77.3514 203.981 77.7589 204.113ZM70.9659 201.206C72.0719 201.811 73.1678 202.332 74.2842 202.804C74.3262 202.055 74.2877 201.266 74.188 200.405C73.1433 200.724 72.0693 200.992 70.9659 201.206Z" fill="#7400BD"/><path d="M76.8102 194.827C76.8604 194.811 76.9104 194.812 76.9937 194.813C77.077 194.814 77.1601 194.831 77.2431 194.866C77.326 194.9 77.4087 194.951 77.4581 195.002C77.524 195.069 77.5564 195.153 77.5551 195.269C77.4022 195.518 77.1833 195.715 76.9314 195.879C76.5972 195.959 76.213 196.038 75.779 196.1C75.3447 196.178 74.8942 196.223 74.4104 196.267C73.9433 196.312 73.4598 196.323 72.9764 196.334C72.4929 196.345 72.0095 196.356 71.5598 196.335C71.4765 196.334 71.3767 196.316 71.2602 196.298C71.1438 196.28 71.0106 196.262 70.8946 196.21C70.7785 196.159 70.6791 196.108 70.5965 196.04C70.514 195.972 70.4818 195.872 70.4832 195.755C70.4849 195.605 70.5362 195.489 70.6205 195.407C70.7048 195.324 70.8553 195.276 71.0553 195.278C71.505 195.3 71.9718 195.289 72.4719 195.278C72.9886 195.267 73.4887 195.256 74.0059 195.212C74.523 195.168 75.0069 195.123 75.4911 195.046C75.9751 194.985 76.426 194.906 76.8102 194.827Z" fill="#7400BD"/><path d="M71.1283 191.695C71.5135 191.727 71.9486 191.757 72.417 191.786C72.9021 191.814 73.3697 191.826 73.8548 191.854C74.3398 191.882 74.8241 191.893 75.2751 191.906C75.7269 191.936 76.128 191.951 76.4783 191.952C76.3943 191.571 76.292 191.159 76.1876 190.696C76.0838 190.25 75.9627 189.788 75.8408 189.31C75.7355 188.831 75.631 188.368 75.5265 187.905C75.4394 187.459 75.3705 187.044 75.3198 186.663C75.3182 186.629 75.3334 186.595 75.3477 186.545C75.3939 186.459 75.4582 186.406 75.5581 186.401C75.7079 186.395 75.8093 186.423 75.8782 186.47C75.9637 186.517 76.0167 186.581 76.0538 186.663C76.1075 186.744 76.1438 186.809 76.1809 186.891C76.218 186.972 76.2718 187.053 76.3414 187.117C76.4406 187.463 76.5572 187.825 76.676 188.237C76.7949 188.649 76.9138 189.061 77.0334 189.489C77.153 189.918 77.2726 190.346 77.3923 190.775C77.5119 191.203 77.63 191.599 77.7473 191.977C77.8465 192.323 77.808 192.575 77.5999 192.768C77.3918 192.962 77.0619 193.043 76.5776 193.032C75.6764 193.023 74.7744 192.997 73.8549 192.956C72.9522 192.913 72.0494 192.871 71.1451 192.796C70.9612 192.787 70.7917 192.728 70.6699 192.617C70.5488 192.522 70.4595 192.393 70.436 192.244C70.3913 191.995 70.4503 191.826 70.5979 191.769C70.7621 191.711 70.9444 191.686 71.1283 191.695Z" fill="#7400BD"/><path d="M70.275 181.888C70.3303 181.932 70.3874 181.993 70.417 182.107C70.4631 182.22 70.4449 182.356 70.3751 182.481C70.3182 182.571 70.265 182.695 70.1952 182.82C70.142 182.944 70.0906 183.084 70.0411 183.24C69.9916 183.397 69.9568 183.535 69.9239 183.69C69.8909 183.844 69.8892 183.979 69.9041 184.111C69.9227 184.277 69.9745 184.439 70.0777 184.612C70.181 184.785 70.299 184.94 70.4629 185.055C70.7723 185.272 71.0485 185.342 71.2876 185.231C71.5451 185.135 71.7731 184.925 71.953 184.586C72.0797 184.371 72.188 184.14 72.311 183.891C72.434 183.643 72.557 183.394 72.68 183.145C72.8049 182.913 72.9132 182.683 73.0215 182.453C73.1317 182.239 73.2271 182.044 73.3097 181.883C73.4199 181.669 73.5485 181.47 73.6771 181.271C73.8056 181.072 73.9711 180.903 74.1384 180.75C74.3222 180.595 74.5263 180.471 74.7654 180.361C75.0045 180.25 75.2658 180.187 75.5805 180.152C76.2025 180.166 76.7088 180.344 77.1012 180.702C77.5121 181.076 77.796 181.514 77.9549 182.033C78.0898 182.488 78.1235 182.937 78.0578 183.397C77.994 183.874 77.803 184.265 77.4906 184.619C77.4171 184.711 77.2921 184.792 77.1486 184.859C77.0051 184.925 76.8911 184.955 76.8192 184.912C76.7124 184.857 76.6332 184.749 76.5649 184.589C76.5132 184.427 76.5148 184.292 76.5552 184.204C76.7592 183.929 76.8913 183.612 76.9516 183.253C77.0284 182.892 76.9894 182.544 76.8638 182.172C76.7659 181.898 76.6239 181.679 76.4047 181.519C76.2021 181.357 75.9922 181.28 75.7548 181.256C75.5008 181.235 75.2542 181.279 75.0023 181.425C74.7669 181.569 74.5592 181.81 74.3774 182.133C74.0799 182.619 73.8192 183.135 73.5788 183.682C73.3402 184.246 73.0501 184.799 72.7287 185.372C72.5414 185.644 72.3134 185.854 72.0615 186C71.8095 186.146 71.552 186.242 71.3036 186.27C71.0386 186.3 70.7846 186.278 70.5232 186.19C70.2783 186.1 70.0463 185.975 69.8252 185.798C69.6207 185.62 69.4291 185.406 69.2834 185.154C69.1377 184.902 69.0214 184.613 68.9695 184.3C68.9027 183.855 68.939 183.431 69.0912 182.994C69.26 182.556 69.4712 182.197 69.7414 181.915C69.802 181.858 69.8811 181.815 69.9805 181.804C70.0817 181.809 70.1848 181.831 70.275 181.888Z" fill="#7400BD"/><path d="M64.8562 168.978C65.0007 169.085 65.0798 169.212 65.0989 169.338C65.118 169.463 65.0999 169.592 65.0555 169.679C65.0003 169.811 64.91 169.887 64.7932 169.92C64.6765 169.953 64.5247 169.93 64.3747 169.846C64.1154 169.712 63.8405 169.491 63.5533 169.217C63.2803 168.935 63.0322 168.599 62.8374 168.19C62.6425 167.781 62.5306 167.379 62.4842 166.957C62.4608 166.54 62.5062 166.139 62.6204 165.754C62.7434 165.383 62.9212 165.037 63.1677 164.708C63.4231 164.392 63.742 164.116 64.1048 163.91C64.4959 163.687 64.9081 163.53 65.3695 163.42C65.831 163.31 66.2993 163.275 66.7569 163.286C67.2232 163.31 67.6876 163.395 68.1413 163.526C68.6038 163.67 69.0272 163.879 69.4115 164.15C69.6405 164.362 69.7636 164.56 69.8002 164.714C69.8369 164.868 69.8418 165.002 69.7973 165.089C69.7636 165.129 69.7016 165.187 69.6079 165.226C69.5371 165.27 69.4257 165.28 69.2792 165.233C68.4291 165.918 67.5951 166.533 66.74 167.083C65.908 167.639 65.1379 168.136 64.4298 168.575C64.5549 168.714 64.7028 168.857 64.8562 168.978ZM63.7139 167.548C63.7349 167.613 63.77 167.67 63.791 167.735C63.835 167.806 63.8702 167.863 63.9053 167.92C63.941 167.819 64.0137 167.715 64.0865 167.611C64.1734 167.498 64.2779 167.414 64.377 167.352C64.9576 166.992 65.5665 166.614 66.2145 166.173C66.8713 165.746 67.553 165.264 68.2737 164.719C67.7214 164.493 67.1105 164.361 66.4586 164.354C65.8208 164.337 65.2426 164.48 64.7241 164.782C64.2479 165.058 63.9022 165.449 63.6835 165.918C63.4789 166.379 63.4843 166.925 63.7139 167.548Z" fill="#7400BD"/><path d="M61.5706 158.156C61.6426 158.052 61.7539 158.041 61.9096 158.1C62.0795 158.151 62.2514 158.299 62.4308 158.521C62.754 158.908 63.086 159.31 63.4181 159.712C63.7642 160.105 64.1052 160.521 64.4691 160.942C64.9573 160.654 65.4366 160.351 65.9071 160.035C65.7737 159.824 65.5765 159.573 65.3386 159.29C65.1096 159.02 64.8716 158.736 64.5966 158.456C64.3216 158.176 64.0555 157.91 63.7983 157.659C63.541 157.407 63.3335 157.203 63.1578 157.018C63.0674 156.937 62.968 156.842 62.8828 156.738C62.7976 156.634 62.7353 156.535 62.6872 156.427C62.6479 156.334 62.6457 156.237 62.6666 156.145C62.6874 156.053 62.7542 155.971 62.8529 155.909C62.8811 155.891 62.9411 155.893 63.042 155.928C63.1428 155.963 63.2437 155.998 63.3623 156.061C63.4951 156.115 63.6226 156.192 63.7271 156.265C63.8547 156.342 63.9592 156.414 64.0407 156.481C64.5886 156.944 65.1224 157.415 65.6049 157.9C66.1016 158.375 66.5189 158.881 66.8709 159.408C67.0806 159.709 67.1472 160.002 67.0618 160.273C66.9904 160.535 66.79 160.78 66.4746 160.998C66.0183 161.305 65.5531 161.599 65.079 161.878C65.0781 162.095 65.0046 162.26 64.8354 162.367C64.6433 162.468 64.4771 162.454 64.3088 162.344C64.0321 162.498 63.7412 162.662 63.4504 162.826C63.1736 162.98 62.8828 163.144 62.6061 163.299C62.6542 163.406 62.6601 163.541 62.6199 163.665C62.5887 163.803 62.5167 163.907 62.418 163.969C62.3334 164.023 62.24 164.062 62.1428 164.064C62.0456 164.066 61.9589 164.022 61.8543 163.95C61.7053 163.807 61.5297 163.623 61.3362 163.409C61.1427 163.196 60.9404 162.969 60.7291 162.728C60.5268 162.5 60.3385 162.264 60.1592 162.042C59.9798 161.82 59.8412 161.632 59.7204 161.471C59.5818 161.283 59.4714 161.076 59.4122 160.857C59.353 160.638 59.3591 160.398 59.4163 160.145C59.5165 160.023 59.633 159.989 59.7568 160.029C59.8896 160.083 60.003 160.169 60.106 160.302C60.209 160.434 60.3439 160.585 60.4825 160.774C60.6352 160.954 60.7968 161.147 60.9495 161.327C61.1111 161.521 61.2726 161.715 61.4201 161.917C61.5906 162.125 61.7433 162.305 61.8871 162.471C61.9012 162.462 61.9294 162.444 61.9346 162.421C61.9628 162.403 61.991 162.386 62.0051 162.377C62.2536 162.24 62.5163 162.094 62.7648 161.957C63.0134 161.82 63.2671 161.66 63.5157 161.523C63.1962 161.172 62.8819 160.799 62.5677 160.425C62.2675 160.043 62.0118 159.731 61.8465 159.5C61.7079 159.311 61.5975 159.105 61.5524 158.877C61.5073 158.649 61.5134 158.409 61.5706 158.156Z" fill="#7400BD"/><path d="M53.5011 151.79C54.0768 152.787 54.7381 153.671 55.4991 154.432C56.2601 155.193 57.0913 155.909 57.9839 156.566C58.2115 156.738 58.3049 156.915 58.2782 157.09C58.2604 157.28 58.1837 157.408 58.0853 157.47C57.8578 157.516 57.6456 157.493 57.4256 157.396C55.2569 156.068 53.7017 154.37 52.7138 152.291C52.6793 152.174 52.7048 152.059 52.7584 151.926C52.8351 151.799 52.9245 151.722 53.0037 151.691C53.1111 151.643 53.1993 151.626 53.2824 151.632C53.3796 151.63 53.4525 151.682 53.5011 151.79ZM59.6789 150.664C59.7773 150.601 59.8936 150.567 60.0087 150.592C60.1378 150.609 60.2567 150.672 60.3335 150.761C60.478 150.926 60.5305 151.071 60.4679 151.189C60.4053 151.308 60.3248 151.399 60.2072 151.494C59.5555 151.928 58.9178 152.354 58.257 152.775C57.6283 153.215 56.9995 153.654 56.3657 154.117C56.3235 154.144 56.2813 154.171 56.234 154.221C56.2008 154.262 56.1446 154.298 56.0794 154.319C56.0283 154.332 55.9771 154.345 55.9081 154.329C55.848 154.328 55.7841 154.29 55.7253 154.228C55.5488 154.044 55.4924 153.863 55.5282 153.702C55.5779 153.532 55.6635 153.418 55.7619 153.355C56.3919 152.855 57.0309 152.369 57.6827 151.935C58.3344 151.5 59.0092 151.07 59.6789 150.664Z" fill="#7400BD"/><path d="M57.9972 146.121C58.1785 146.064 58.3778 146.036 58.535 146.034C58.7063 146.023 58.8445 146.053 58.9125 146.129C59.0716 146.284 59.1245 146.429 59.0893 146.59C59.0541 146.751 58.9318 146.869 58.7684 146.954C58.1622 147.243 57.492 147.495 56.7526 147.731C56.0273 147.958 55.284 148.157 54.5087 148.337C53.7474 148.508 52.9821 148.642 52.2219 148.753C51.4757 148.855 50.7716 148.93 50.1146 148.955C50.0174 148.958 49.9253 148.938 49.8663 148.877C49.8303 148.821 49.7943 148.765 49.7814 148.713C49.7123 148.698 49.6482 148.66 49.5752 148.608C49.5021 148.556 49.4521 148.509 49.4071 148.438C49.3891 148.41 49.3711 148.382 49.3581 148.331C49.3542 148.294 49.3642 148.248 49.3793 148.179C49.3944 148.11 49.4376 148.023 49.4858 147.913C49.557 147.807 49.6383 147.656 49.7616 147.478C50.1577 147.046 50.5497 146.577 50.9378 146.071C51.3349 145.578 51.723 145.072 52.1111 144.566L51.9701 144.439C51.893 144.349 51.8261 144.214 51.7591 144.079C51.6922 143.943 51.6993 143.8 51.7846 143.686C51.8889 143.54 52.0241 143.473 52.1673 143.48C52.3105 143.487 52.5128 143.556 52.737 143.689C52.9506 143.374 53.1732 143.073 53.3729 142.767C53.5865 142.452 53.7861 142.145 53.9717 141.848C54.0048 141.807 54.0659 141.748 54.1552 141.671C54.2444 141.594 54.3336 141.517 54.4228 141.44C54.521 141.377 54.6282 141.328 54.7214 141.289C54.8146 141.249 54.8977 141.255 54.9617 141.293C55.0348 141.345 55.0708 141.401 55.0737 141.498C55.0766 141.596 55.0795 141.693 55.0543 141.808C55.0432 141.914 55.0231 142.006 54.9659 142.102C54.9317 142.203 54.9026 142.282 54.8645 142.346C54.6548 142.698 54.4451 143.05 54.2124 143.397C54.0028 143.75 53.7841 144.088 53.5424 144.421C53.8645 144.769 54.2046 145.145 54.5577 145.573C54.9107 146 55.2498 146.436 55.5518 146.877C55.9655 146.75 56.3793 146.623 56.779 146.506C57.2017 146.393 57.5924 146.262 57.9972 146.121ZM50.8267 147.905C52.0738 147.719 53.2618 147.473 54.4368 147.175C54.0179 146.553 53.5107 145.947 52.9115 145.321C52.2716 146.206 51.5767 147.067 50.8267 147.905Z" fill="#7400BD"/><path d="M52.1198 138.979C52.1528 138.938 52.1948 138.911 52.2649 138.865C52.335 138.82 52.4141 138.789 52.5022 138.772C52.5903 138.755 52.6874 138.752 52.7566 138.767C52.8487 138.787 52.9218 138.839 52.985 138.938C52.9942 139.229 52.9203 139.515 52.8003 139.79C52.5651 140.04 52.2879 140.318 51.9596 140.609C51.6404 140.913 51.2891 141.199 50.9097 141.502C50.5444 141.797 50.147 142.072 49.7496 142.348C49.3522 142.623 48.9548 142.899 48.5674 143.128C48.4973 143.173 48.4042 143.213 48.2971 143.263C48.1899 143.312 48.0688 143.37 47.9436 143.391C47.8185 143.412 47.7073 143.424 47.6011 143.413C47.495 143.402 47.4128 143.336 47.3496 143.238C47.2684 143.111 47.2473 142.986 47.2723 142.871C47.2972 142.756 47.3963 142.633 47.5645 142.524C47.9519 142.295 48.3353 142.028 48.7467 141.744C49.1721 141.45 49.5835 141.166 49.9909 140.844C50.3983 140.523 50.7776 140.219 51.1389 139.887C51.5093 139.57 51.8425 139.256 52.1198 138.979Z" fill="#7400BD"/><path d="M46.1479 138.82C46.497 138.654 46.8882 138.461 47.3074 138.25C47.7405 138.03 48.1507 137.805 48.5838 137.585C49.017 137.365 49.4411 137.131 49.8373 136.915C50.2424 136.713 50.5965 136.524 50.8996 136.348C50.6356 136.062 50.3395 135.757 50.0163 135.41C49.7021 135.077 49.3649 134.739 49.0186 134.387C48.6864 134.026 48.3632 133.679 48.0399 133.332C47.7398 132.99 47.4717 132.666 47.2357 132.362C47.2176 132.334 47.2135 132.297 47.2004 132.246C47.1972 132.149 47.2261 132.071 47.3101 132.017C47.4361 131.935 47.5382 131.909 47.6213 131.915C47.7184 131.912 47.7966 131.941 47.8698 131.993C47.9571 132.036 48.0212 132.074 48.0945 132.126C48.1677 132.178 48.2549 132.22 48.3471 132.24C48.607 132.489 48.8899 132.743 49.2 133.039C49.5101 133.335 49.8202 133.631 50.1393 133.941C50.4585 134.252 50.7776 134.562 51.0967 134.872C51.4159 135.182 51.7169 135.464 52.0089 135.732C52.2688 135.981 52.3625 136.218 52.28 136.49C52.1974 136.761 51.9536 136.998 51.5294 137.232C50.7462 137.678 49.954 138.11 49.1387 138.537C48.3374 138.955 47.5361 139.373 46.7167 139.763C46.5537 139.848 46.3775 139.883 46.2162 139.848C46.0639 139.827 45.9216 139.76 45.8262 139.643C45.6625 139.451 45.6281 139.275 45.727 139.151C45.8398 139.019 45.9848 138.906 46.1479 138.82Z" fill="#7400BD"/><path d="M40.2118 130.243C40.2809 130.258 40.3591 130.287 40.4366 130.376C40.528 130.456 40.5725 130.586 40.566 130.729C40.5554 130.835 40.5629 130.97 40.5564 131.113C40.5639 131.247 40.5805 131.395 40.6061 131.558C40.6317 131.72 40.6622 131.859 40.7018 132.012C40.7415 132.165 40.8 132.286 40.8725 132.398C40.9631 132.538 41.0817 132.66 41.2514 132.769C41.421 132.877 41.5956 132.963 41.794 132.993C42.1677 133.049 42.4459 132.988 42.6104 132.783C42.798 132.582 42.9081 132.292 42.9178 131.908C42.9349 131.659 42.929 131.404 42.928 131.127C42.927 130.849 42.926 130.572 42.925 130.294C42.933 130.031 42.9271 129.776 42.9212 129.522C42.9243 129.282 42.9225 129.064 42.9249 128.884C42.928 128.643 42.9542 128.408 42.9804 128.172C43.0066 127.937 43.0789 127.711 43.1603 127.5C43.2556 127.279 43.3831 127.077 43.5476 126.871C43.7121 126.666 43.9178 126.493 44.1835 126.321C44.7464 126.055 45.279 125.989 45.7902 126.134C46.3246 126.285 46.7742 126.55 47.1482 126.944C47.4719 127.29 47.7026 127.677 47.8494 128.119C48.0053 128.574 48.0089 129.009 47.8873 129.465C47.8627 129.58 47.7871 129.709 47.6884 129.832C47.5896 129.956 47.5008 130.033 47.4177 130.027C47.2975 130.026 47.1781 129.964 47.0455 129.851C46.9269 129.729 46.8683 129.608 46.865 129.511C46.9249 129.174 46.9016 128.832 46.7952 128.483C46.7028 128.126 46.5124 127.832 46.234 127.556C46.024 127.354 45.7992 127.221 45.5316 127.176C45.278 127.122 45.0558 127.146 44.8328 127.231C44.5958 127.325 44.395 127.475 44.2346 127.718C44.0883 127.952 44.0103 128.26 43.9916 128.63C43.9425 129.198 43.9396 129.776 43.9688 130.373C44.007 130.984 43.9943 131.608 43.9626 132.265C43.9167 132.592 43.8066 132.882 43.6462 133.125C43.4858 133.368 43.2983 133.569 43.0885 133.705C42.8647 133.85 42.6276 133.944 42.3544 133.981C42.0951 134.01 41.8317 134.002 41.5551 133.943C41.2924 133.874 41.0256 133.769 40.7827 133.609C40.5398 133.448 40.3067 133.241 40.1205 132.984C39.8618 132.616 39.7051 132.22 39.6464 131.762C39.6016 131.294 39.6302 130.878 39.746 130.505C39.7748 130.427 39.8266 130.354 39.9105 130.299C40.0035 130.259 40.1056 130.233 40.2118 130.243Z" fill="#7400BD"/><path d="M30.593 114.927C30.7401 115.03 30.8222 115.156 30.8442 115.281C30.8663 115.406 30.8513 115.536 30.8089 115.623C30.7569 115.757 30.6684 115.834 30.5525 115.87C30.4367 115.906 30.2843 115.886 30.1324 115.806C29.87 115.679 29.5898 115.464 29.2962 115.198C29.0166 114.922 28.7605 114.592 28.556 114.187C28.3514 113.783 28.23 113.384 28.1735 112.963C28.1401 112.547 28.1759 112.145 28.281 111.757C28.3951 111.384 28.5646 111.034 28.8032 110.698C29.051 110.377 29.3632 110.093 29.721 109.879C30.1067 109.647 30.515 109.479 30.9737 109.359C31.4324 109.238 31.8998 109.192 32.3574 109.191C32.8243 109.205 33.2905 109.278 33.7472 109.398C34.213 109.532 34.6412 109.73 35.0319 109.992C35.2659 110.198 35.3937 110.393 35.434 110.546C35.4743 110.699 35.4824 110.834 35.44 110.921C35.4073 110.962 35.3467 111.022 35.2539 111.063C35.1841 111.108 35.0731 111.121 34.9255 111.078C34.0919 111.783 33.2728 112.418 32.4311 112.988C31.6125 113.563 30.8546 114.079 30.1572 114.535C30.2855 114.67 30.4368 114.81 30.593 114.927ZM29.4169 113.525C29.4395 113.59 29.476 113.646 29.4986 113.71C29.5442 113.78 29.5807 113.836 29.6172 113.892C29.6504 113.79 29.7207 113.685 29.7909 113.579C29.8751 113.464 29.9776 113.377 30.0752 113.313C30.6471 112.94 31.2468 112.547 31.8841 112.091C32.5305 111.648 33.2005 111.15 33.908 110.588C33.3505 110.375 32.7366 110.258 32.0847 110.266C31.4467 110.265 30.8721 110.421 30.3609 110.736C29.8915 111.023 29.5552 111.422 29.3477 111.896C29.1542 112.362 29.1726 112.907 29.4169 113.525Z" fill="#7400BD"/><path d="M25.9218 104.282C25.9914 104.176 26.1023 104.163 26.2594 104.218C26.4304 104.265 26.6058 104.409 26.7904 104.627C27.1225 105.006 27.464 105.4 27.8054 105.794C28.1607 106.179 28.5113 106.586 28.8851 106.999C29.3664 106.699 29.8384 106.386 30.3013 106.059C30.163 105.85 29.96 105.605 29.7154 105.327C29.4801 105.063 29.2356 104.785 28.9541 104.511C28.6725 104.238 28.4002 103.978 28.1372 103.733C27.8741 103.487 27.6618 103.288 27.4818 103.107C27.3895 103.028 27.2879 102.935 27.2003 102.833C27.1126 102.731 27.048 102.634 26.9974 102.528C26.9559 102.435 26.9515 102.338 26.9701 102.246C26.9888 102.153 27.0536 102.07 27.1508 102.006C27.1786 101.987 27.2387 101.987 27.3403 102.02C27.442 102.052 27.5436 102.085 27.6637 102.145C27.7977 102.197 27.927 102.271 28.0332 102.341C28.1625 102.415 28.2687 102.484 28.3518 102.549C28.9104 102.999 29.4551 103.458 29.949 103.931C30.4567 104.395 30.8858 104.89 31.2501 105.409C31.4669 105.705 31.5403 105.997 31.4613 106.27C31.3961 106.533 31.2015 106.782 30.8914 107.008C30.4424 107.326 29.9842 107.63 29.5168 107.92C29.5211 108.138 29.4514 108.304 29.2848 108.415C29.0951 108.521 28.9287 108.511 28.7578 108.404C28.4848 108.565 28.1979 108.736 27.911 108.906C27.6379 109.068 27.351 109.238 27.078 109.399C27.1287 109.506 27.1377 109.64 27.1005 109.765C27.0725 109.903 27.003 110.009 26.9058 110.074C26.8225 110.129 26.73 110.171 26.6329 110.175C26.5358 110.179 26.448 110.138 26.3418 110.068C26.1895 109.929 26.0095 109.748 25.8111 109.54C25.6127 109.331 25.405 109.109 25.1882 108.872C24.9805 108.65 24.7867 108.418 24.6022 108.201C24.4177 107.983 24.2747 107.797 24.1501 107.64C24.0071 107.455 23.8919 107.251 23.8276 107.033C23.7632 106.816 23.7636 106.576 23.8149 106.321C23.9122 106.197 24.0279 106.16 24.1526 106.197C24.2866 106.248 24.402 106.332 24.5081 106.462C24.6142 106.591 24.7526 106.74 24.8956 106.925C25.0525 107.101 25.2186 107.291 25.3755 107.467C25.5416 107.657 25.7077 107.847 25.8599 108.046C26.0352 108.25 26.1921 108.426 26.3397 108.588C26.3536 108.579 26.3814 108.561 26.3861 108.538C26.4138 108.519 26.4416 108.501 26.4555 108.491C26.7007 108.349 26.9599 108.197 27.2051 108.054C27.4504 107.911 27.7003 107.745 27.9456 107.602C27.6179 107.26 27.295 106.893 26.972 106.527C26.6629 106.152 26.3999 105.846 26.2293 105.619C26.0863 105.434 25.9711 105.23 25.9206 105.004C25.8701 104.777 25.8706 104.537 25.9218 104.282Z" fill="#7400BD"/><path d="M20.3359 93.8037C20.5569 94.934 20.8958 95.9844 21.3688 96.951C21.8417 97.9176 22.3957 98.8647 23.0268 99.7761C23.1865 100.012 23.2172 100.21 23.135 100.367C23.0568 100.541 22.9428 100.637 22.8294 100.664C22.5993 100.634 22.406 100.543 22.2295 100.38C20.6088 98.4206 19.6885 96.3097 19.4287 94.0224C19.4337 93.9011 19.4952 93.8005 19.5891 93.6921C19.703 93.596 19.8125 93.5525 19.8974 93.5492C20.0148 93.538 20.1036 93.5509 20.1801 93.584C20.2728 93.6131 20.3248 93.6863 20.3359 93.8037ZM26.5449 94.7429C26.6583 94.7155 26.7795 94.7206 26.88 94.7822C26.9968 94.8398 27.0889 94.9376 27.1325 95.0472C27.2157 95.2501 27.2184 95.4039 27.1207 95.496C27.0229 95.5882 26.9173 95.648 26.7754 95.6993C26.0179 95.8991 25.2765 96.0949 24.5151 96.2784C23.7776 96.4905 23.0402 96.7025 22.2905 96.9347C22.2419 96.9464 22.1933 96.9581 22.1324 96.9899C22.0877 97.0179 22.0229 97.0335 21.9542 97.0329C21.9017 97.0284 21.8492 97.0239 21.7888 96.987C21.7324 96.9663 21.6844 96.9092 21.6487 96.8321C21.5415 96.6006 21.5471 96.4106 21.6331 96.2698C21.7354 96.1251 21.8533 96.0452 21.9667 96.0179C22.7248 95.7494 23.4868 95.4971 24.2443 95.2974C25.0019 95.0976 25.7795 94.9102 26.5449 94.7429Z" fill="#7400BD"/><path d="M26.7425 89.5804C26.9311 89.6037 27.1244 89.6599 27.2683 89.7234C27.4287 89.7844 27.5419 89.8692 27.5728 89.9658C27.6533 90.1732 27.6417 90.3265 27.543 90.4587C27.4442 90.5909 27.2841 90.6478 27.1003 90.6575C26.4286 90.6704 25.7144 90.622 24.9436 90.5312C24.1892 90.4381 23.4301 90.312 22.6497 90.1552C21.8859 89.9961 21.1337 89.8015 20.3957 89.5881C19.6741 89.3723 19.002 89.1494 18.3935 88.9004C18.3039 88.8628 18.2284 88.8063 18.2 88.7262C18.1904 88.6602 18.1809 88.5941 18.1902 88.5422C18.1336 88.4999 18.091 88.4386 18.0461 88.3609C18.0012 88.2831 17.9752 88.2195 17.9632 88.137C17.9585 88.104 17.9537 88.071 17.963 88.0191C17.9747 87.9837 18.003 87.9459 18.0453 87.8892C18.0876 87.8326 18.1629 87.7711 18.2523 87.6908C18.3606 87.6246 18.4971 87.5206 18.6831 87.4095C19.2224 87.1799 19.7734 86.9149 20.3362 86.6145C20.9013 86.3306 21.4641 86.0302 22.0268 85.7299L21.9511 85.5555C21.9179 85.4423 21.9129 85.2914 21.9079 85.1405C21.9029 84.9896 21.9687 84.8621 22.0935 84.7935C22.2489 84.7037 22.3997 84.6987 22.5271 84.7646C22.6545 84.8304 22.8103 84.9763 22.9591 85.1907C23.284 84.9921 23.6113 84.81 23.9197 84.6138C24.2446 84.4152 24.553 84.2189 24.8449 84.0251C24.892 84.0014 24.972 83.973 25.0851 83.9398C25.1982 83.9066 25.3112 83.8734 25.4243 83.8402C25.5398 83.8235 25.6576 83.8234 25.759 83.8256C25.8603 83.8278 25.9334 83.8677 25.976 83.929C26.0209 84.0067 26.0304 84.0727 25.9929 84.1624C25.9553 84.2521 25.9178 84.3417 25.8472 84.4362C25.7932 84.5282 25.7368 84.6038 25.645 84.6676C25.572 84.7456 25.5132 84.8046 25.452 84.8471C25.1154 85.0811 24.7788 85.3151 24.4233 85.535C24.0867 85.769 23.7477 85.9865 23.3898 86.1899C23.5391 86.6401 23.6932 87.1233 23.8379 87.6583C23.9826 88.1934 24.1108 88.7309 24.2036 89.2566C24.6327 89.3125 25.0617 89.3685 25.4743 89.4268C25.9057 89.4992 26.3158 89.541 26.7425 89.5804ZM19.4765 88.2383C20.6885 88.5854 21.8721 88.8524 23.065 89.0674C22.9411 88.3271 22.73 87.5658 22.4434 86.7479C21.4946 87.2895 20.5056 87.7863 19.4765 88.2383Z" fill="#7400BD"/><path d="M24.6787 80.3368C24.7272 80.3163 24.7771 80.3124 24.8602 80.306C24.9432 80.2995 25.0276 80.3097 25.1133 80.3364C25.1989 80.3632 25.2859 80.4066 25.3396 80.4526C25.4112 80.514 25.4509 80.5945 25.46 80.7109C25.3299 80.9719 25.1294 81.1882 24.8931 81.3738C24.5673 81.4828 24.1916 81.5957 23.7648 81.6958C23.3393 81.8126 22.8946 81.8973 22.4167 81.9847C21.9553 82.0708 21.4748 82.1249 20.9943 82.179C20.5137 82.2331 20.0332 82.2873 19.5833 82.3056C19.5002 82.312 19.3993 82.3032 19.2817 82.2956C19.1641 82.288 19.0299 82.2817 18.9097 82.2409C18.7895 82.2001 18.6859 82.158 18.5977 82.0979C18.5094 82.0379 18.4684 81.9407 18.4594 81.8243C18.4477 81.6747 18.4885 81.5545 18.5651 81.4649C18.6417 81.3753 18.7874 81.3138 18.9868 81.2983C19.4366 81.28 19.9006 81.2272 20.3977 81.1717C20.9115 81.115 21.4086 81.0596 21.9198 80.9697C22.431 80.8797 22.9089 80.7923 23.3843 80.6717C23.8609 80.5677 24.303 80.4497 24.6787 80.3368Z" fill="#7400BD"/><path d="M18.0223 76.2386C18.4033 76.3038 18.8343 76.3711 19.2985 76.4397C19.7794 76.509 20.2443 76.5609 20.7252 76.6302C21.2061 76.6994 21.6877 76.752 22.1359 76.8033C22.5835 76.8712 22.9819 76.9205 23.3309 76.9511C23.2796 76.5653 23.2129 76.1454 23.1483 75.6755C23.083 75.2223 23.0017 74.7518 22.9211 74.2646C22.8571 73.7781 22.7925 73.3082 22.7279 72.8384C22.6792 72.3859 22.6459 71.9673 22.6279 71.5828C22.6292 71.5494 22.6472 71.5168 22.6658 71.4675C22.7191 71.3861 22.7877 71.3388 22.8876 71.3428C23.0375 71.3488 23.1361 71.3861 23.2007 71.4387C23.282 71.492 23.3293 71.5607 23.3592 71.6453C23.4059 71.7306 23.4365 71.7986 23.4665 71.8832C23.4965 71.9679 23.5431 72.0532 23.607 72.1225C23.6763 72.4757 23.7616 72.8463 23.8449 73.2668C23.9282 73.6874 24.0114 74.1079 24.094 74.5451C24.1767 74.9823 24.2593 75.4195 24.3419 75.8567C24.4245 76.2939 24.5085 76.6978 24.5931 77.085C24.6624 77.4382 24.6024 77.6861 24.3786 77.8608C24.1548 78.0354 23.8192 78.0888 23.3376 78.0362C22.4404 77.9503 21.5439 77.8477 20.6314 77.7279C19.7355 77.6087 18.8396 77.4895 17.9451 77.3369C17.7626 77.3129 17.5988 77.2397 17.4869 77.1184C17.3743 77.0137 17.2963 76.8771 17.2857 76.7265C17.2624 76.4752 17.3356 76.3113 17.4875 76.2673C17.656 76.2239 17.8398 76.2146 18.0223 76.2386Z" fill="#7400BD"/><path d="M19.7648 64.2893C19.8023 64.3493 19.8361 64.4255 19.8261 64.543C19.8325 64.6642 19.7701 64.7868 19.6627 64.8818C19.579 64.9481 19.4879 65.047 19.3805 65.142C19.2894 65.2409 19.1946 65.3559 19.0959 65.4872C18.9973 65.6186 18.9187 65.7374 18.8364 65.8724C18.754 66.0075 18.7078 66.1337 18.6779 66.2637C18.6406 66.4262 18.6357 66.5962 18.6758 66.7937C18.7158 66.9911 18.7759 67.176 18.8922 67.3396C19.1122 67.6469 19.3496 67.8042 19.6119 67.779C19.8867 67.7737 20.1715 67.651 20.4536 67.3908C20.6446 67.2294 20.8231 67.048 21.0216 66.8541C21.2201 66.6602 21.4186 66.4664 21.6171 66.2725C21.8119 66.0948 21.9904 65.9134 22.1689 65.7321C22.3437 65.5669 22.4985 65.4143 22.6296 65.2905C22.8044 65.1254 22.9917 64.9802 23.1789 64.8351C23.3662 64.6899 23.5785 64.5848 23.7871 64.4959C24.0119 64.4107 24.2454 64.3617 24.5077 64.3365C24.77 64.3113 25.0373 64.3386 25.3459 64.4095C25.9281 64.629 26.3468 64.9648 26.5981 65.4333C26.862 65.9218 26.9847 66.4291 26.9625 66.9715C26.9391 67.4452 26.8219 67.8803 26.6073 68.2929C26.389 68.7218 26.0793 69.027 25.6673 69.2573C25.5674 69.3199 25.4225 69.355 25.2651 69.3701C25.1077 69.3853 24.9903 69.3754 24.9366 69.3117C24.8541 69.2243 24.8153 69.0956 24.8039 68.9219C24.8088 68.7519 24.855 68.6256 24.9224 68.5556C25.2058 68.3641 25.4355 68.1089 25.6115 67.7901C25.8036 67.475 25.8821 67.1337 25.8869 66.7412C25.8855 66.45 25.8241 66.1964 25.6704 65.9728C25.5328 65.7529 25.3604 65.6106 25.1442 65.5095C24.9118 65.4048 24.6645 65.365 24.3784 65.419C24.1087 65.4767 23.8327 65.6357 23.5543 65.8796C23.1123 66.2399 22.6953 66.6402 22.2871 67.0768C21.8752 67.5296 21.4183 67.9549 20.9251 68.389C20.6579 68.5842 20.3732 68.7069 20.0872 68.7609C19.8011 68.8149 19.5263 68.8201 19.2827 68.7641C19.0229 68.7043 18.7905 68.5996 18.573 68.4298C18.3718 68.2637 18.1943 68.0689 18.0443 67.8291C17.9105 67.593 17.8004 67.3281 17.7466 67.0419C17.6927 66.7558 17.6788 66.4446 17.7335 66.1321C17.8182 65.6896 17.9929 65.302 18.2812 64.9405C18.5858 64.5828 18.9041 64.3138 19.2526 64.1373C19.3287 64.1035 19.4174 64.0897 19.5149 64.1121C19.6086 64.1507 19.6985 64.2056 19.7648 64.2893Z" fill="#7400BD"/><path d="M23.7403 47.1334C23.7794 47.3086 23.7554 47.4568 23.6873 47.564C23.6193 47.6712 23.521 47.7566 23.4307 47.7926C23.3022 47.8562 23.1844 47.854 23.0746 47.8024C22.9648 47.7508 22.8657 47.6333 22.8075 47.4718C22.6995 47.2009 22.6378 46.853 22.6006 46.4584C22.5798 46.0665 22.6137 45.6496 22.7352 45.2132C22.8567 44.7768 23.036 44.4005 23.2784 44.0513C23.5346 43.7212 23.8321 43.4486 24.1709 43.2333C24.5071 43.0344 24.8681 42.8903 25.2705 42.8036C25.6702 42.7334 26.0922 42.7343 26.5007 42.8175C26.9422 42.9061 27.3565 43.0578 27.7766 43.278C28.1967 43.4983 28.5732 43.779 28.9114 44.0873C29.247 44.4121 29.5417 44.7809 29.7981 45.1773C30.0519 45.5902 30.2345 46.0253 30.3459 46.4826C30.3801 46.7922 30.3427 47.0227 30.2693 47.1628C30.1959 47.3029 30.1114 47.4075 30.0211 47.4435C29.9691 47.4519 29.8842 47.455 29.7882 47.4226C29.7059 47.4092 29.6152 47.3438 29.5352 47.2126C28.4446 47.1707 27.4114 47.0874 26.4053 46.9409C25.413 46.8136 24.5056 46.6832 23.6831 46.5497C23.6867 46.7361 23.7039 46.9416 23.7403 47.1334ZM23.8178 45.3045C23.7906 45.3677 23.7799 45.4335 23.7528 45.4967C23.7394 45.579 23.7287 45.6448 23.7181 45.7107C23.811 45.6582 23.9342 45.6275 24.0573 45.5968C24.1969 45.5688 24.3312 45.5737 24.4463 45.5924C25.1208 45.7019 25.8281 45.8167 26.6066 45.9093C27.3824 46.0184 28.2129 46.1025 29.1145 46.1644C28.8465 45.631 28.4719 45.131 27.9852 44.6972C27.5149 44.2661 26.985 43.9942 26.3955 43.8816C25.8553 43.777 25.3378 43.8451 24.8647 44.0554C24.408 44.2685 24.0536 44.684 23.8178 45.3045Z" fill="#7400BD"/><path d="M27.7149 36.4148C27.8379 36.3837 27.9289 36.4487 28.0068 36.5961C28.1012 36.7461 28.1331 36.9706 28.1218 37.2558C28.1095 37.7603 28.0946 38.2813 28.0797 38.8023C28.0812 39.3259 28.0637 39.8634 28.06 40.4199C28.6171 40.5249 29.1767 40.6134 29.739 40.6855C29.7781 40.4384 29.7946 40.1203 29.8025 39.7501C29.8079 39.3964 29.8158 39.0262 29.7934 38.6344C29.771 38.2426 29.746 37.8672 29.7184 37.5083C29.6908 37.1494 29.6693 36.859 29.659 36.6041C29.6443 36.4836 29.6322 36.3467 29.6366 36.2123C29.6409 36.0779 29.6592 35.9626 29.6939 35.8499C29.726 35.7537 29.7884 35.6792 29.8646 35.6237C29.9409 35.5682 30.0449 35.5509 30.1601 35.5691C30.193 35.5743 30.2372 35.6151 30.29 35.7079C30.3428 35.8006 30.3956 35.8934 30.4432 36.0191C30.5073 36.1474 30.5523 36.2896 30.5834 36.4127C30.6284 36.5549 30.6596 36.678 30.6769 36.782C30.7841 37.4911 30.8748 38.1977 30.9187 38.8799C30.9792 39.5648 30.9599 40.2201 30.8773 40.8486C30.8365 41.2136 30.6934 41.478 30.4508 41.6253C30.2246 41.7752 29.9127 41.8272 29.5315 41.7838C28.9857 41.7144 28.4426 41.6284 27.902 41.5261C27.7581 41.689 27.5943 41.7644 27.3968 41.7332C27.1854 41.6829 27.0694 41.5632 27.0157 41.369C26.7056 41.3031 26.379 41.2346 26.0524 41.166C25.7422 41.1001 25.4156 41.0316 25.1055 40.9656C25.0708 41.0783 24.9867 41.1832 24.8749 41.2499C24.7606 41.3331 24.6375 41.3643 24.5223 41.3461C24.4235 41.3305 24.3274 41.2984 24.2529 41.236C24.1784 41.1735 24.142 41.0834 24.1109 40.9603C24.0928 40.7548 24.0825 40.4999 24.0774 40.2121C24.0723 39.9243 24.0698 39.62 24.0699 39.2993C24.0674 38.995 24.0814 38.6933 24.0927 38.4081C24.1041 38.1229 24.1241 37.8897 24.1389 37.6895C24.1589 37.4563 24.2118 37.2283 24.3115 37.0246C24.4112 36.8209 24.5742 36.6441 24.7839 36.4915C24.9399 36.4656 25.0499 36.5167 25.1165 36.6286C25.1806 36.7569 25.2091 36.8965 25.1996 37.0638C25.19 37.2311 25.1916 37.4339 25.1716 37.6671C25.1681 37.9029 25.1619 38.1552 25.1584 38.391C25.1522 38.6432 25.1461 38.8955 25.1235 39.1452C25.1147 39.4139 25.1112 39.6497 25.1102 39.869C25.1267 39.8716 25.1596 39.8768 25.1787 39.8629C25.2116 39.8682 25.2445 39.8734 25.261 39.876C25.5382 39.9367 25.8319 40 26.1091 40.0607C26.3863 40.1215 26.6826 40.1683 26.9598 40.2291C26.9504 39.7549 26.9601 39.2668 26.9698 38.7787C26.996 38.2933 27.0091 37.8902 27.037 37.6076C27.057 37.3744 27.1099 37.1464 27.2261 36.9453C27.3422 36.7442 27.5052 36.5674 27.7149 36.4148Z" fill="#7400BD"/><path d="M26.963 26.8962C26.7375 28.0256 26.6513 29.1259 26.7211 30.1998C26.7909 31.2737 26.943 32.3603 27.18 33.4432C27.238 33.7222 27.1909 33.9174 27.0552 34.0313C26.9169 34.1618 26.775 34.2073 26.6597 34.1895C26.4584 34.0739 26.3141 33.9166 26.213 33.6984C25.4593 31.2699 25.4111 28.9676 26.0407 26.7534C26.0915 26.6431 26.1866 26.5735 26.3147 26.5089C26.4566 26.4634 26.5745 26.4648 26.6542 26.494C26.767 26.5284 26.8442 26.5741 26.9024 26.6337C26.9771 26.6959 26.9973 26.7834 26.963 26.8962ZM32.348 30.1263C32.4633 30.1442 32.5735 30.195 32.6431 30.2902C32.7291 30.3879 32.7771 30.5134 32.7757 30.6313C32.7755 30.8506 32.7196 30.9938 32.5941 31.0419C32.4686 31.09 32.3482 31.1051 32.1975 31.0986C31.4209 30.9952 30.6608 30.8944 29.8868 30.7745C29.1241 30.6901 28.3615 30.6057 27.5798 30.5353C27.5304 30.5276 27.481 30.52 27.4126 30.5263C27.3606 30.5351 27.2947 30.5249 27.2314 30.4982C27.1845 30.4741 27.1377 30.4499 27.0959 30.3929C27.0516 30.3522 27.0289 30.2812 27.0252 30.1963C27.0141 29.9415 27.0916 29.7678 27.2247 29.6703C27.3743 29.5754 27.5137 29.5464 27.629 29.5642C28.4323 29.6043 29.2329 29.6608 30.0095 29.7642C30.7861 29.8676 31.5766 29.99 32.348 30.1263Z" fill="#7400BD"/><path d="M33.3983 25.5185C33.572 25.5955 33.7407 25.7055 33.8599 25.808C33.9956 25.913 34.0794 26.027 34.0809 26.1284C34.0977 26.3502 34.0421 26.4936 33.9092 26.5914C33.7763 26.6893 33.6066 26.6972 33.4279 26.6531C32.7814 26.4704 32.112 26.2167 31.4008 25.906C30.706 25.5978 30.0162 25.2567 29.315 24.8801C28.6302 24.506 27.967 24.1014 27.3227 23.6829C26.6949 23.2669 26.1165 22.8583 25.6065 22.4434C25.5317 22.3814 25.4758 22.3054 25.4719 22.2205C25.4819 22.1545 25.492 22.0886 25.516 22.0416C25.4741 21.9847 25.4512 21.9137 25.4308 21.8263C25.4104 21.7388 25.4039 21.6704 25.4165 21.5879C25.4215 21.555 25.4265 21.522 25.4505 21.4751C25.472 21.4446 25.51 21.4166 25.5669 21.3747C25.6239 21.3328 25.7138 21.2959 25.8227 21.245C25.9455 21.2131 26.1063 21.1532 26.3166 21.1009C26.8993 21.0378 27.5035 20.9442 28.1293 20.8201C28.7525 20.7126 29.3782 20.5886 30.0039 20.4645L29.9821 20.2757C29.9832 20.1578 30.0223 20.0119 30.0613 19.866C30.1004 19.7202 30.2003 19.6173 30.3396 19.5879C30.5144 19.5471 30.6602 19.5861 30.763 19.6861C30.8657 19.7861 30.9725 19.971 31.0527 20.2193C31.4212 20.1236 31.7873 20.0444 32.1393 19.9462C32.5079 19.8505 32.86 19.7523 33.1956 19.6516C33.2475 19.6426 33.3324 19.6387 33.4503 19.6397C33.5681 19.6408 33.6859 19.6419 33.8038 19.6429C33.9191 19.6605 34.0319 19.6945 34.1282 19.726C34.2246 19.7576 34.283 19.8171 34.3059 19.888C34.3263 19.9755 34.3162 20.0414 34.2543 20.1163C34.1923 20.1912 34.1303 20.2661 34.0354 20.336C33.9569 20.4084 33.881 20.4643 33.7746 20.4987C33.6822 20.5521 33.6088 20.5916 33.5379 20.6145C33.1478 20.7407 32.7578 20.8668 32.3538 20.974C31.9637 21.1002 31.5762 21.2099 31.1746 21.3006C31.1868 21.7747 31.1939 22.2818 31.177 22.8358C31.16 23.3899 31.1267 23.9414 31.0628 24.4715C31.4572 24.6495 31.8515 24.8276 32.2293 25.0032C32.6211 25.1978 33.0015 25.3569 33.3983 25.5185ZM26.8351 22.1243C27.8941 22.8084 28.9491 23.4076 30.0282 23.9598C30.1246 23.2154 30.1437 22.4256 30.1069 21.5597C29.0417 21.8024 27.9511 21.9906 26.8351 22.1243Z" fill="#7400BD"/><path d="M33.8628 16.1774C33.9147 16.1683 33.9641 16.1758 34.0465 16.1882C34.1289 16.2006 34.2088 16.2295 34.2863 16.2749C34.3637 16.3203 34.4386 16.3821 34.4806 16.439C34.5366 16.5149 34.5572 16.6023 34.5398 16.7178C34.3542 16.9428 34.1102 17.1084 33.8382 17.2361C33.4962 17.2689 33.1048 17.2943 32.6664 17.2957C32.2255 17.3137 31.7731 17.2962 31.2878 17.2737C30.8189 17.2537 30.3386 17.1982 29.8582 17.1428C29.3778 17.0873 28.8974 17.0319 28.455 16.9484C28.3726 16.936 28.2762 16.9046 28.1633 16.8707C28.0505 16.8369 27.9211 16.8005 27.8132 16.7337C27.7053 16.6669 27.6139 16.6025 27.5414 16.5242C27.4689 16.4458 27.4509 16.3419 27.4682 16.2265C27.4906 16.0781 27.5574 15.9701 27.6522 15.9C27.747 15.83 27.9028 15.8029 28.1005 15.8326C28.543 15.9161 29.0069 15.9691 29.5037 16.027C30.0171 16.0874 30.5139 16.1454 31.0322 16.1728C31.5505 16.2003 32.0359 16.2227 32.5262 16.2122C33.014 16.2182 33.4713 16.2028 33.8628 16.1774Z" fill="#7400BD"/><path d="M29.5963 11.8395C29.9681 11.9454 30.3892 12.0588 30.8434 12.177C31.314 12.2977 31.7706 12.3995 32.2412 12.5202C32.7119 12.6409 33.185 12.7451 33.6251 12.8445C34.0627 12.9603 34.4534 13.0522 34.7971 13.1203C34.7877 12.7311 34.7667 12.3065 34.7531 11.8324C34.7371 11.3748 34.707 10.8983 34.6794 10.4052C34.6682 9.91464 34.6546 9.44055 34.6411 8.96646C34.6415 8.51132 34.6535 8.09162 34.677 7.70737C34.682 7.67438 34.7034 7.64385 34.7272 7.59683C34.789 7.52173 34.8623 7.48208 34.9612 7.49681C35.1095 7.51892 35.2035 7.56665 35.262 7.62595C35.3371 7.68771 35.3767 7.76105 35.3974 7.84843C35.4345 7.93827 35.4577 8.00915 35.4783 8.09653C35.499 8.18391 35.5362 8.27374 35.5923 8.34954C35.6231 8.70818 35.6679 9.08576 35.7054 9.51283C35.7428 9.93989 35.7803 10.367 35.8153 10.8105C35.8502 11.2541 35.8852 11.6976 35.9202 12.1412C35.9552 12.5848 35.9951 12.9953 36.0375 13.3894C36.0683 13.748 35.982 13.9881 35.7407 14.1376C35.4994 14.2871 35.1599 14.3039 34.6868 14.1997C33.8041 14.0176 32.9238 13.819 32.0296 13.6014C31.1518 13.3863 30.274 13.1712 29.4011 12.9231C29.2223 12.8796 29.0673 12.789 28.9691 12.6564C28.8685 12.5402 28.8057 12.396 28.8114 12.2451C28.8153 11.9928 28.9058 11.8377 29.0615 11.8103C29.2337 11.7854 29.4175 11.7959 29.5963 11.8395Z" fill="#7400BD"/><path d="M30.847 1.35C30.8892 1.40677 30.929 1.48004 30.9285 1.59795C30.9444 1.71828 30.892 1.84541 30.7926 1.94876C30.7145 2.02154 30.6316 2.12732 30.5321 2.23067C30.4492 2.33645 30.3638 2.45873 30.276 2.5975C30.1882 2.73627 30.1193 2.86097 30.048 3.00217C29.9767 3.14337 29.9408 3.27293 29.9214 3.40491C29.8971 3.56988 29.9058 3.73971 29.9615 3.93331C30.0173 4.12692 30.0919 4.30645 30.2209 4.46027C30.4647 4.74898 30.714 4.88679 30.9734 4.84069C31.2469 4.81352 31.5209 4.66844 31.7814 4.38653C31.9589 4.2104 32.1224 4.01534 32.3048 3.80621C32.4871 3.59708 32.6695 3.38795 32.8519 3.17882C33.0318 2.98619 33.1953 2.79113 33.3587 2.59608C33.5198 2.41752 33.6619 2.25303 33.7827 2.11911C33.9437 1.94055 34.1188 1.78091 34.2939 1.62127C34.469 1.46164 34.6722 1.33985 34.873 1.23456C35.0902 1.13169 35.3191 1.06425 35.5786 1.01816C35.838 0.972062 36.1067 0.977888 36.4199 1.02399C37.0178 1.19625 37.462 1.49758 37.7499 1.94447C38.052 2.41029 38.2148 2.90619 38.236 3.44867C38.2505 3.92273 38.1685 4.36574 37.9875 4.79419C37.8041 5.23913 37.5199 5.56811 37.1275 5.83061C37.0329 5.90097 36.8913 5.94755 36.7357 5.97521C36.58 6.00286 36.4622 6.00238 36.4035 5.94318C36.3143 5.86263 36.2653 5.73744 36.2401 5.56519C36.2314 5.39536 36.2674 5.2658 36.329 5.1906C36.5962 4.9771 36.8048 4.70441 36.9547 4.37252C37.1211 4.04305 37.172 3.6966 37.1455 3.30503C37.1208 3.01486 37.0394 2.76691 36.8682 2.55633C36.7136 2.34816 36.5303 2.22006 36.3067 2.1366C36.0667 2.05072 35.817 2.03082 35.5362 2.10748C35.2719 2.18657 35.0095 2.36707 34.7515 2.63248C34.3397 3.02697 33.956 3.45929 33.584 3.92705C33.2095 4.41129 32.788 4.87177 32.3311 5.34388C32.0804 5.5598 31.8064 5.70488 31.5256 5.78155C31.2448 5.85821 30.9713 5.88538 30.724 5.84898C30.4602 5.81016 30.2202 5.72428 29.9898 5.5724C29.776 5.42295 29.5835 5.24293 29.4148 5.01584C29.2626 4.79118 29.1317 4.53595 29.0551 4.25501C28.9786 3.97406 28.9398 3.66498 28.9695 3.3491C29.0185 2.90124 29.1617 2.50093 29.4202 2.1176C29.6952 1.73671 29.9911 1.44315 30.3243 1.23936C30.3975 1.19957 30.4848 1.17871 30.5837 1.19327C30.6802 1.22432 30.7743 1.27188 30.847 1.35Z" fill="#7400BD"/></svg>