<svg width="229" height="356" viewBox="0 0 229 356" fill="none" xmlns="http://www.w3.org/2000/svg"><path fill-rule="evenodd" clip-rule="evenodd" d="M5.83958 288.874C5.77736 291.631 5.73772 294.372 5.70899 297.091C5.63691 303.901 5.69522 310.574 5.70413 317.038C5.74748 324.614 6.21906 333.525 6.42121 341.899C6.51226 345.669 6.54851 349.328 6.46678 352.716C6.38951 354.368 4.98543 355.646 3.33331 355.569C1.68108 355.492 0.402518 354.088 0.479898 352.436C0.708646 349.144 0.838405 345.583 0.911015 341.912C1.07712 333.511 0.974277 324.562 1.25412 316.969C1.47566 310.084 1.78847 302.963 1.97588 295.689C2.0963 291.012 2.1791 286.273 2.21938 281.498C2.36862 263.802 2.01361 245.627 2.54149 228.233C2.77151 220.65 3.25361 213.226 3.665 206.054C3.71609 205.083 4.21822 204.193 5.02191 203.647C6.10703 202.935 7.17805 202.573 8.26508 201.857C8.65357 201.602 9.05541 201.288 9.45344 200.813C11.7748 198.051 16.0825 189.677 19.932 186.244C21.873 184.514 23.8445 183.822 25.5337 184.196C27.0236 184.525 28.6442 185.617 29.7652 188.363C31.301 192.127 32.3005 199.982 31.9984 214.287C31.9487 219.081 31.6841 223.546 31.3558 227.715C30.7546 235.348 29.7775 241.977 28.5235 247.732C24.7752 264.934 18.7819 274.334 16.3165 279.137C13.7394 284.187 11.8021 287.123 10.5916 288.287C9.39377 289.439 8.23921 289.587 7.47262 289.518C6.88008 289.464 6.32506 289.264 5.83958 288.874ZM24.4792 189.077C24.1772 189.065 23.5479 189.984 23.1005 190.47C22.2274 191.418 21.3623 192.657 20.5061 193.99C17.9926 197.902 15.6448 202.592 14.1261 204.569C13.3248 205.608 12.5103 206.317 11.7078 206.888C11.0741 207.339 10.4401 207.66 9.80589 208.005C9.64614 212.036 9.52245 216.145 9.34628 220.311C9.21664 223.378 9.06602 226.475 8.8943 229.596C7.95684 246.626 6.69553 264.352 6.05921 281.65C6.43254 281.494 6.84521 281.416 7.27588 281.436C7.80991 281.461 8.30261 281.633 8.71654 281.912C9.57461 280.632 10.6059 278.913 11.8323 276.733C14.3781 272.182 20.6685 263.366 24.7273 246.852C26.0942 241.291 27.2389 234.861 27.8113 227.439C28.1259 223.358 28.2188 218.978 28.1717 214.286C27.9168 201.994 26.9919 194.82 25.6023 191.065C25.3528 190.391 25.085 189.861 24.8036 189.458C24.7014 189.311 24.5625 189.032 24.4792 189.077V189.077ZM24.4792 189.077C24.5383 189.079 24.5849 189.116 24.6151 189.2C24.6387 189.265 24.4171 189.157 24.4562 189.098C24.4631 189.088 24.4706 189.08 24.4792 189.077Z" fill="#7400BD"/><path fill-rule="evenodd" clip-rule="evenodd" d="M53.5931 164.878C56.1952 164.358 59.2224 164.663 61.7447 168.237C63.3676 170.536 64.8596 174.598 65.4815 181.676C66.3641 191.188 66.6678 200.573 66.6866 209.62C66.695 213.686 66.6241 217.683 66.5571 221.594C66.301 236.52 65.3366 250.187 63.5463 261.482C62.5627 267.688 61.4165 273.186 60.1053 277.776C58.8325 282.233 57.4082 285.857 55.9933 288.512C53.7913 292.644 51.1724 294.632 49.112 294.954C45.9125 295.425 42.2533 295.858 38.9668 292.621C36.9478 290.632 34.9288 286.971 33.6109 280.131C30.8312 265.776 31.1742 246.723 32.6833 228.458C33.2654 221.414 33.9594 214.483 34.8149 207.993C36.4741 195.405 38.6191 184.46 40.9672 177.518C42.3182 173.482 43.6857 170.439 45.05 167.926C46.9523 164.42 48.8689 161.966 50.8154 159.322C51.7653 158.085 53.5403 157.853 54.7767 158.803C56.013 159.753 56.2455 161.528 55.2957 162.764C54.7264 163.474 54.1589 164.168 53.5931 164.878V164.878ZM47.9426 288.661C47.9976 288.609 48.8212 287.816 49.2883 287.119C50.1881 285.777 51.0695 283.93 51.9811 281.667C53.33 278.317 54.6818 274.096 55.9643 269.148C58.1555 260.693 60.21 250.192 61.533 238.322C62.0147 234.001 62.4394 229.508 62.6859 224.867C62.8423 221.919 62.938 218.913 62.9467 215.862C62.9775 205.074 62.1758 193.721 60.7107 182.204C59.95 176.521 58.8153 173.231 57.4225 171.437C56.3478 170.052 55.0962 170.23 54.0527 170.611C53.7777 171.503 53.185 173.369 52.8518 173.975C51.7902 175.909 50.1016 175.943 49.0137 175.633C48.3694 175.434 47.8406 175.036 47.4736 174.528C46.8267 175.893 46.1754 177.417 45.5176 179.145C43.0066 185.805 40.4239 196.337 38.5543 208.526C37.5738 214.919 36.7527 221.76 36.2888 228.727C35.1038 246.525 35.8781 265.094 39.1377 278.946C40.3247 283.97 41.6541 286.742 43.2032 288.16C44.7559 289.582 46.4735 288.946 47.9426 288.661V288.661Z" fill="#7400BD"/><path fill-rule="evenodd" clip-rule="evenodd" d="M67.4233 273.72C66.7948 273.864 65.3715 274.136 64.6189 273.855C63.7251 273.52 62.7902 272.822 62.6479 270.971C62.536 269.875 62.6043 267.243 62.6323 263.813C62.6696 259.241 62.6002 253.227 62.6917 247.6C62.8035 240.723 63.0133 234.465 63.0379 232.248C63.314 228.329 63.5442 224.242 63.8246 220.047C64.4392 210.847 65.3297 201.162 65.6768 191.524C65.8249 187.411 65.8578 183.31 65.8294 179.278C65.7575 169.066 65.2792 159.298 64.9239 150.714C64.9117 149.155 66.1676 147.879 67.7268 147.867C69.2858 147.855 70.5615 149.11 70.5737 150.67C70.4206 155.766 70.1874 161.269 69.9854 167.045C69.8008 172.325 69.5538 177.814 69.4417 183.406C69.3766 186.655 69.3691 189.936 69.3926 193.224C69.4593 202.533 69.8052 211.875 69.7667 220.748C69.7492 224.805 69.6432 228.756 69.5524 232.553C69.4387 234.085 69.179 237.542 68.764 241.794C68.1165 248.428 67.0293 256.967 66.5796 263.199C66.3681 266.129 66.2928 268.524 66.3201 269.898C66.5743 269.877 66.8354 269.886 66.9617 269.858C67.4421 269.749 67.8331 269.818 68.1078 269.896C68.1799 269.916 68.1885 269.781 68.2617 269.735C68.5743 269.539 68.8657 269.228 69.1789 268.877C70.7608 267.107 72.328 264.206 73.8965 262.072C74.7462 260.916 75.6307 259.975 76.4711 259.356C77.1893 258.823 78.1983 258.563 79.3794 258.372C80.2187 258.237 81.2645 258.182 82.1357 257.415C82.9114 256.732 83.3528 255.47 83.6718 253.366C83.9885 251.743 85.5637 250.682 87.187 250.999C88.8104 251.316 89.8711 252.891 89.5544 254.514C88.6187 258.424 87.1349 260.495 85.5656 261.658C84.1848 262.681 82.7425 263.127 81.3574 263.293C80.7715 263.362 80.2113 263.391 79.7013 263.438C79.4998 263.457 79.1503 263.496 79.1503 263.496C79.1503 263.496 79.2039 263.444 79.2344 263.425C76.8002 264.953 74.103 270.025 71.5985 272.198C70.1755 273.432 68.7461 273.974 67.4233 273.72V273.72Z" fill="#7400BD"/><path fill-rule="evenodd" clip-rule="evenodd" d="M96.4924 133.738C96.4737 140.918 96.6389 147.978 96.5887 155.001C96.5668 158.044 96.5225 161.077 96.3786 164.098C95.8944 174.26 94.6455 184.262 94.2917 194.381C94.2009 196.975 94.2059 199.574 94.2563 202.175C94.3732 208.223 94.7776 214.253 95.0355 220.371C95.0458 222.058 95.1229 224.207 95.027 226.597C94.6754 235.354 93.4614 247.225 93.6631 251.891C93.8101 253.539 95.2669 254.757 96.9143 254.61C98.5617 254.463 99.7798 253.006 99.6328 251.359C99.1449 247.89 98.8223 240.203 98.7394 232.952C98.7093 230.319 98.675 227.749 98.749 225.456C98.8106 223.55 98.9748 221.843 99.0493 220.446C99.5094 214.749 100.058 209.136 100.407 203.498C100.557 201.074 100.692 198.654 100.728 196.232C100.772 193.32 100.67 190.415 100.604 187.507C100.452 180.717 100.07 173.963 100.023 167.143C100.007 164.725 100.022 162.303 100.114 159.877C100.278 155.574 100.621 151.267 100.959 146.927C101.293 142.64 101.721 138.347 102.136 134.002C102.209 132.445 101.004 131.121 99.4464 131.049C97.8889 130.976 96.5653 132.181 96.4924 133.738V133.738Z" fill="#7400BD"/><path fill-rule="evenodd" clip-rule="evenodd" d="M100.221 125.599C102.933 126.649 105.353 126.668 107.873 125.826C108.475 125.625 109.08 125.4 109.71 125.184C110.295 124.984 110.888 124.799 111.506 124.601C113.333 124.014 115.183 123.356 117.081 122.376C117.802 122.003 118.539 121.641 119.186 121.126C119.938 120.527 120.495 119.76 121.162 119.07C121.51 118.666 122.62 117.173 123.965 115.13C124.213 114.752 124.502 114.381 124.809 114.008C125.512 113.154 126.225 112.28 126.878 111.284C127.719 110.002 128.234 108.594 128.618 107.009C128.696 105.357 127.417 103.953 125.765 103.876C124.113 103.799 122.709 105.077 122.631 106.729C122.744 107.473 122.899 108.164 122.768 108.866C122.531 110.146 122.201 111.422 121.454 112.312C120.067 113.964 118.193 114.378 117.783 114.573C117.11 114.907 116.438 115.17 115.798 115.567C115.393 115.819 115.013 116.11 114.658 116.423C112.503 118.325 110.935 120.672 108.723 121.73C108.191 121.984 107.621 122.105 107.069 122.181C106.531 122.255 106.009 122.178 105.49 122.095C104.581 121.951 103.859 121.384 103.062 120.715C101.714 119.931 99.9835 120.389 99.1995 121.736C98.4156 123.084 98.8732 124.815 100.221 125.599V125.599Z" fill="#7400BD"/><path fill-rule="evenodd" clip-rule="evenodd" d="M122.58 247.065C122.068 242.434 121.562 237.835 121.153 233.23C120.741 228.595 120.32 223.98 120.114 219.359C119.936 215.38 119.911 211.406 119.927 207.439C119.965 198.131 120.647 188.897 120.796 179.627C120.849 176.385 120.802 173.143 120.725 169.9C120.545 162.321 119.887 154.779 119.92 147.17C119.934 143.928 120.103 140.683 120.297 137.438C120.748 129.896 121.525 122.371 122.222 114.774C122.3 113.122 121.021 111.718 119.369 111.64C117.717 111.562 116.313 112.841 116.235 114.493C116.193 123.42 116.426 132.264 116.322 141.095C116.297 143.223 116.224 145.348 116.109 147.469C115.647 156.009 114.644 164.457 114.392 172.974C114.314 175.634 114.34 178.297 114.403 180.957C114.666 192.033 115.795 203.048 116.326 214.18C116.484 217.494 116.533 220.818 116.591 224.148C116.724 231.875 116.729 239.624 116.943 247.442C117.047 248.998 118.394 250.176 119.95 250.072C121.505 249.968 122.684 248.621 122.58 247.065V247.065Z" fill="#7400BD"/><path fill-rule="evenodd" clip-rule="evenodd" d="M133.058 100.111C133.057 104.57 133.232 112.479 133.147 122.303C133.121 125.307 133.094 128.49 132.93 131.8C132.444 141.593 131.138 152.464 130.567 163.408C130.434 165.943 130.331 168.482 130.326 171.006C130.31 179.487 130.983 187.757 131.061 195.358C131.083 197.444 131.057 199.476 130.987 201.441C130.582 212.863 129.867 222.058 129.871 226.926C129.946 228.579 131.348 229.86 133 229.785C134.652 229.71 135.933 228.308 135.859 226.656C135.429 221.87 134.771 212.783 134.732 201.501C134.725 199.539 134.771 197.51 134.873 195.432C135.243 187.85 136.325 179.636 136.749 171.178C136.89 168.359 136.918 165.516 136.922 162.677C136.931 154.548 136.536 146.464 136.517 138.84C136.509 135.315 136.508 131.896 136.628 128.631C136.819 123.462 137.217 118.69 137.524 114.478C137.969 108.386 138.429 103.501 138.703 100.345C138.768 98.7873 137.555 97.47 135.998 97.4053C134.44 97.3405 133.123 98.5528 133.058 100.111V100.111Z" fill="#7400BD"/><path fill-rule="evenodd" clip-rule="evenodd" d="M163.659 189.651C162.699 191.575 161.52 195.426 160.46 197.74C159.634 199.545 158.619 200.663 157.931 200.949C155.937 201.792 153.913 202.073 151.968 201.326C150.087 200.605 148.147 198.936 146.547 195.464C145.454 193.096 144.55 189.79 143.578 185.326C142.706 181.319 141.675 176.379 140.867 170.193C140.518 167.68 140.32 164.754 140.252 161.648C140.162 157.567 140.304 153.197 140.364 149.14C140.641 145.238 140.938 141.472 141.345 137.848C142.438 128.108 144.108 119.441 145.641 111.761C146.432 107.792 147.228 104.1 147.968 100.676C150.63 88.3765 153.355 79.6638 155.872 75.0251C156.889 73.1197 158.318 72.779 159.597 72.8212C160.38 72.8469 161.201 73.182 162.001 73.6968C162.768 74.1901 163.5 75.0226 163.986 75.3179C165.287 76.1773 165.646 77.9313 164.786 79.2322C163.927 80.533 162.173 80.8914 160.872 80.0319C160.539 79.7927 160.104 79.387 159.646 78.9141C157.534 82.6345 155.064 88.5058 152.803 96.4586C152.049 99.1104 151.302 101.985 150.672 105.094C150.009 108.368 149.477 111.897 149.003 115.657C148.068 123.074 147.599 131.386 147.22 140.548C147.101 143.431 146.958 146.395 146.88 149.445C146.501 154.115 146.062 159.206 145.858 163.778C145.763 165.927 145.691 167.948 145.763 169.756C145.986 174.764 146.25 178.979 146.818 182.497C147.352 185.798 148.095 188.463 148.865 190.599C150.3 194.584 151.784 196.507 153.445 197.011C154.099 197.209 154.739 197.042 155.372 196.759C155.497 196.445 155.861 195.522 156.079 194.817C156.929 192.08 157.805 188.389 158.584 186.663C159.735 184.113 161.88 183.97 162.951 184.253C164.531 184.742 165.416 186.422 164.927 188.002C164.706 188.713 164.245 189.284 163.659 189.651V189.651ZM161.601 190.076C161.46 190.054 161.318 190.021 161.178 189.978C161.317 190.028 161.458 190.059 161.601 190.076Z" fill="#7400BD"/><path fill-rule="evenodd" clip-rule="evenodd" d="M180.559 62.4587C180.916 63.2758 182.415 61.2115 183.489 60.6798C185.352 59.7585 187.269 59.5771 188.935 60.4221C190.304 61.1161 191.914 62.7005 192.669 66.4681C193.582 71.423 194.14 78.4719 194.364 86.8176C194.547 93.6031 194.418 101.242 194.352 109.302C194.325 112.452 194.313 115.664 194.335 118.912C194.442 135.177 194.572 152.33 194.234 166.958C194.157 168.61 192.753 169.889 191.101 169.811C189.449 169.734 188.17 168.33 188.247 166.678C189.026 155.986 189.806 143.934 190.258 131.853C190.446 126.841 190.619 121.828 190.63 116.909C190.638 113.532 190.558 110.202 190.446 106.95C189.88 90.4652 188.485 76.0274 186.459 67.7995C186.358 67.3587 186.278 66.8169 186.174 66.4385C185.873 66.666 185.516 67.0209 185.264 67.1828C184.121 67.9151 183.018 68.5238 182.184 68.7116C181.814 68.7948 181.495 69.1712 181.062 69.7669C180.349 70.748 179.625 72.1654 178.902 74.1807C177.779 77.3126 176.67 81.7073 175.71 87.8591C174.283 97.1206 172.84 111.067 172.079 125.932C171.787 131.63 171.66 137.461 171.571 143.206C171.333 158.66 171.574 173.482 171.751 183.531C171.744 185.09 170.472 186.35 168.912 186.342C167.353 186.334 166.094 185.062 166.102 183.503C166.401 172.179 167.238 154.827 168.011 137.321C168.24 132.153 168.437 126.972 168.612 121.929C168.797 116.572 168.917 111.374 169.115 106.513C169.419 99.0446 169.801 92.3806 170.335 87.1606C171.225 78.6731 172.54 73.193 173.951 69.6958C176.013 64.5862 178.633 62.9813 180.559 62.4587L180.559 62.4583C180.537 62.4066 180.663 62.4282 180.71 62.4167L180.559 62.4587ZM186.185 66.4304C186.47 66.5212 186.779 66.5347 186.735 66.3674C186.673 66.1325 186.452 66.2291 186.185 66.4304ZM186.171 66.4261C186.077 66.0855 185.963 65.8827 185.796 66.0155C185.618 66.1565 185.879 66.331 186.171 66.4261Z" fill="#7400BD"/><path fill-rule="evenodd" clip-rule="evenodd" d="M176.873 131.849C177.584 131.814 178.306 131.672 179.001 131.732C179.625 131.786 180.242 131.843 180.833 132.09C181.682 132.42 182.544 131.77 183.455 130.716C183.713 130.418 183.939 130.067 184.164 129.693C184.61 128.955 184.967 128.102 185.37 127.178C186.286 125.078 186.925 122.567 187.962 119.935C188.407 118.806 188.954 117.681 189.529 116.546C191.101 113.438 193.034 110.395 194.665 107.21C195.373 105.829 196.074 104.465 196.66 103.081C197.535 101.015 198.213 98.9666 198.943 97.0746C199.827 94.782 200.657 92.7162 201.537 90.9545C202.37 89.6366 204.117 89.2431 205.435 90.0762C206.753 90.9094 207.146 92.6558 206.313 93.9736C204.691 96.0784 202.898 98.7381 201.251 101.863C200.627 103.046 199.989 104.273 199.479 105.582C197.731 110.073 196.801 115.087 195.137 119.552C194.761 120.561 194.348 121.539 193.878 122.46C193.375 123.446 192.799 124.342 192.24 125.222C190.648 127.727 189.038 129.796 187.599 131.521C187.032 132.201 186.499 132.82 186.005 133.389C183.837 135.885 181.684 136.846 179.515 136.346C178.957 136.233 178.45 136.572 177.898 136.737C177.149 136.959 176.399 137.128 175.636 137.218C175.201 137.27 174.77 137.243 174.334 137.181C174.123 137.219 173.938 137.243 173.823 137.239C173.626 137.232 171.541 137.161 171.277 133.193C171.355 131.541 172.759 130.263 174.411 130.34C175.473 130.39 176.381 130.988 176.873 131.849V131.849ZM174.379 137.172C174.734 137.201 175.037 137.174 175.297 137.049C175.469 136.967 175.754 136.849 175.754 136.849C175.754 136.849 174.978 137.061 174.379 137.172V137.172ZM173.923 137.114L173.646 137.064C173.741 137.082 173.833 137.099 173.923 137.114Z" fill="#7400BD"/><path fill-rule="evenodd" clip-rule="evenodd" d="M218.345 153.793C216.83 155.091 215.266 156.421 213.706 158.145C212.351 159.642 210.989 161.424 209.646 163.731C208.758 165.284 207.603 165.839 206.511 165.961C204.779 166.154 203.145 165.076 203.145 165.076C202.577 164.689 202.268 164.021 202.343 163.337L202.792 158.788C202.939 155.863 203.031 152.8 203.069 149.648C203.129 144.744 203.007 139.669 203.022 134.633C203.029 132.461 203.086 130.303 203.126 128.174C203.372 124.401 203.564 120.639 203.836 116.89C204.477 108.061 205.402 99.3291 205.923 90.5642C206.11 87.4253 206.26 84.2864 206.329 81.146C206.444 75.9067 206.376 70.6726 206.326 65.4302C206.275 60.1927 206.139 54.9643 206.028 49.7113C206.057 48.1524 207.346 46.9104 208.905 46.9395C210.464 46.9686 211.706 48.2578 211.677 49.8166C211.37 55.0695 211.017 60.2953 210.723 65.5323C210.429 70.7735 210.094 76.0034 209.912 81.2476C209.802 84.3909 209.764 87.5369 209.751 90.6856C209.716 99.4829 210.001 108.276 209.899 117.145C209.855 120.914 209.713 124.688 209.606 128.477C209.164 133.496 208.771 138.682 208.299 143.782C207.804 149.117 207.232 154.328 206.543 159.143L206.253 161.777C207.561 159.135 208.941 157.069 210.316 155.3C212.038 153.085 213.777 151.377 215.462 149.675C216.345 148.774 217.451 148.529 218.702 148.617C219.554 148.677 220.573 149.131 221.569 149.271C221.616 149.167 221.713 148.942 221.778 148.772C221.971 148.266 222.094 147.614 222.217 146.794C222.533 145.171 224.109 144.11 225.732 144.427C227.355 144.743 228.416 146.319 228.099 147.942C227.369 150.964 226.363 152.585 225.357 153.439C223.768 154.787 222.076 154.983 220.351 154.497C219.75 154.328 218.784 153.962 218.345 153.793V153.793ZM221.784 149.294L221.832 149.289C221.843 149.287 221.855 149.284 221.867 149.282L221.784 149.294Z" fill="#7400BD"/><path fill-rule="evenodd" clip-rule="evenodd" d="M5.2371 116.706C5.3696 118.698 5.55075 120.64 5.67042 122.611C5.7901 124.582 5.9596 126.532 5.94031 128.491C5.92632 129.905 5.78799 131.307 5.65306 132.71C5.33431 136.025 4.68229 139.228 4.43933 142.54C4.3539 143.705 4.29517 144.877 4.35104 146.046C4.51226 149.419 5.35202 152.659 5.52819 156.063C5.57123 156.893 5.56602 157.729 5.50656 158.562C5.25958 162.02 4.56018 165.399 4.0039 168.896C3.92026 170.548 5.19353 171.957 6.84533 172.04C8.49723 172.124 9.90619 170.851 9.98982 169.199C9.80093 166.193 9.46407 163.287 9.33263 160.334C9.27645 159.071 9.21635 157.809 9.30582 156.557C9.51941 153.563 10.3078 150.732 10.6025 147.771C10.7274 146.518 10.839 145.263 10.8104 144.006C10.7207 140.066 9.94235 136.245 9.6482 132.305C9.57347 131.304 9.49471 130.307 9.49132 129.301C9.48909 128.635 9.52777 127.968 9.58119 127.302C9.8586 123.845 10.3998 120.44 10.882 116.944C10.9479 115.387 9.73659 114.068 8.17881 114.003C6.62114 113.937 5.30293 115.148 5.2371 116.706Z" fill="#7400BD"/><path fill-rule="evenodd" clip-rule="evenodd" d="M15.3974 128.478C14.8325 129.111 14.3989 129.574 13.8522 130.263C13.6609 130.504 13.4875 130.738 13.2327 130.918C12.9393 131.125 12.6136 131.234 12.265 131.341C11.3401 131.623 10.6175 131.53 9.72389 131.933C9.47638 132.045 9.22845 132.191 9.06532 132.407C8.46377 133.205 8.75505 134.028 8.20322 134.825C8.10061 134.973 7.96195 135.102 7.80284 135.183C7.01028 135.581 6.31505 135.341 5.49525 135.408C4.06393 136.237 3.57463 138.072 4.40334 139.503C5.23205 140.935 7.06689 141.424 8.49821 140.595C8.99249 139.842 9.28293 139.272 9.84653 138.492C10.0251 138.245 10.2158 137.985 10.4928 137.843C11.2945 137.431 11.9487 137.738 12.8258 137.434C13.1038 137.338 13.3849 137.237 13.5879 137.022C14.3948 136.167 14.1914 135.01 14.9521 134.144C15.1052 133.97 15.3033 133.831 15.5144 133.741C16.2598 133.427 16.9238 133.656 17.6963 133.639C19.1206 133.005 19.7618 131.334 19.1275 129.909C18.4931 128.485 16.8218 127.844 15.3974 128.478V128.478Z" fill="#7400BD"/><path fill-rule="evenodd" clip-rule="evenodd" d="M26.0092 140.723L25.9157 140.95C24.8051 143.701 24.188 147.138 24.0489 149.247C23.9906 150.017 24.2358 150.946 24.345 151.835C24.4725 152.872 24.4933 153.862 24.3997 154.654C24.2007 156.335 23.3203 157.445 22.2356 158.111C20.8886 158.939 19.6583 158.713 18.572 157.948C18.0954 157.612 17.2478 156.79 17.0529 155.256C16.8214 153.433 17.4225 148.297 17.4554 147.961L18.0582 143.124C18.295 141.243 18.4105 140.335 18.485 139.437C18.5623 138.504 18.6065 137.605 18.7171 135.689C18.7682 133.869 18.9128 132.028 18.9232 130.196C18.9301 128.986 18.8525 127.786 18.7845 126.607L17.3493 109.834C17.3441 108.275 18.6058 107.005 20.1649 107C21.724 106.995 22.994 108.257 22.9992 109.816C22.8139 112.682 22.6539 115.4 22.5734 118.115C22.4911 120.889 22.4856 123.627 22.4594 126.457C22.4885 127.677 22.4509 128.918 22.4777 130.168C22.5164 131.988 22.6444 133.818 22.7527 135.625C22.8425 136.625 22.9096 137.354 22.9622 137.956L23.1185 137.709C24.682 135.314 26.4474 133.811 28.0028 133.783C29.1235 133.693 30.3929 134.566 30.5663 136.886C30.7544 139.401 31.7278 146.291 30.6897 148.771C30.877 148.955 31.0425 149.166 31.1802 149.404C32.0089 150.836 31.5196 152.671 30.0883 153.499C28.3316 154.346 27.0557 154.183 26.1683 153.578C25.5058 153.125 24.7969 152.5 24.5256 151.399C24.3431 150.658 24.2376 149.562 24.4122 148.23C24.6864 146.139 25.4352 143.256 26.0092 140.723V140.723ZM22.7855 152.945C22.8148 153.762 22.999 154.328 23.4777 154.237C24.2016 154.099 23.3685 153.382 22.7855 152.945ZM18.6692 152.663C18.1835 152.992 17.5385 153.55 18.0323 153.651C18.524 153.752 18.6709 153.327 18.6692 152.663ZM27.3202 148.191C27.2425 148.218 27.1642 148.258 27.0853 148.312C27.1623 148.268 27.2407 148.227 27.3202 148.191Z" fill="#7400BD"/><path fill-rule="evenodd" clip-rule="evenodd" d="M32.2525 132.781C32.2919 132.238 32.345 131.694 32.4147 131.152C32.5642 129.994 32.7396 128.868 33.0766 127.861C33.8688 125.493 35.0986 123.734 36.0323 122.838C38.2523 120.881 40.0062 120.417 41.2642 120.835C41.9484 121.063 42.6112 121.313 43.0862 121.89C43.9892 122.988 44.6153 124.991 44.1149 127.476C43.9916 128.089 43.8369 128.733 43.6429 129.404C43.2699 130.693 42.7388 132.058 41.8898 133.381C41.1572 134.62 40.1642 135.336 39.193 135.927C38.2801 136.483 37.3139 136.774 36.4356 137.008C36.3389 137.309 36.251 137.608 36.1736 137.904C35.9951 138.59 35.8172 139.237 35.7684 139.853C35.7299 140.339 35.9003 140.848 36.0442 141.275C36.2284 141.219 36.4378 141.169 36.5956 141.082C37.4318 140.62 38.1936 139.945 38.8049 139.467C40.2363 138.638 42.0711 139.128 42.8998 140.559C43.7285 141.99 43.2393 143.825 41.8079 144.654C40.3435 145.251 38.2096 146.157 36.511 146.2C34.8804 146.242 33.5089 145.939 32.7286 144.789C32.1799 144.039 31.9082 142.155 32.1102 139.599C32.1357 139.278 32.1404 138.944 32.1387 138.598C32.1354 137.901 32.129 137.165 32.1326 136.406C31.8724 136.076 31.6829 135.681 31.5912 135.242C31.4009 134.33 31.6749 133.427 32.2525 132.781V132.781ZM40.1569 126.827C40.015 127.204 39.9409 127.715 39.7559 128.273C39.5498 128.895 39.3679 129.598 39.113 130.324C39.6134 129.68 40.0223 129.023 40.2322 128.337C40.3885 127.826 40.2963 127.303 40.1569 126.827ZM40.7646 125.637C40.8201 125.671 40.8679 125.709 40.8424 125.672C40.8164 125.635 40.7903 125.625 40.7646 125.637Z" fill="#7400BD"/><path fill-rule="evenodd" clip-rule="evenodd" d="M58.7712 127.048C59.8237 128.298 59.678 130.169 58.4375 131.242C57.1864 132.324 55.2924 132.186 54.2105 130.935C54.1151 130.657 53.8705 130.487 53.8138 130.155C53.644 129.158 53.6791 127.933 53.7607 126.124C53.7728 125.857 53.7407 125.575 53.6591 125.302C53.3233 124.178 52.5076 123.408 52.2656 122.099C52.2055 121.775 52.2396 121.431 52.3049 121.103C52.6068 119.589 53.5776 118.499 53.8038 117.091C53.8697 116.68 53.8048 116.273 53.7407 115.894C53.5429 114.724 53.1175 113.928 52.8727 113.243C52.8309 111.684 54.0624 110.385 55.6209 110.343C57.1795 110.302 58.4788 111.533 58.5206 113.092C58.3418 113.639 58.1251 114.209 57.867 115.017C57.6907 115.569 57.4466 116.134 57.4062 116.811C57.3807 117.238 57.4821 117.661 57.5865 118.103C57.8375 119.166 58.418 119.967 58.6373 121.085C58.7039 121.425 58.7495 121.779 58.6899 122.117C58.4794 123.308 57.6273 123.991 57.4624 125.044C57.4248 125.284 57.4341 125.528 57.4878 125.75C57.6674 126.49 58.1806 126.88 58.5113 127.291C58.5651 127.358 58.7304 127.326 58.7304 127.326C58.7304 127.326 58.8067 127.132 58.7712 127.048L58.7443 127.015C58.7573 127.022 58.7663 127.033 58.7712 127.048V127.048Z" fill="#7400BD"/><path fill-rule="evenodd" clip-rule="evenodd" d="M67.5963 117.894C67.7951 117.775 67.9819 117.648 68.1149 117.481C68.1981 117.377 68.1506 117.099 68.2611 117.137C68.3148 117.155 68.126 117.026 68.1287 117.071C68.0146 116.108 67.5893 115.502 67.3758 114.825C67.255 114.443 67.0157 114.174 66.9054 113.866C65.7529 110.649 63.7718 109.209 63.6783 107.24C63.6519 106.683 63.7004 106.102 63.8533 105.372C64.084 104.269 64.7927 102.928 66.2135 100.786C67.3333 99.7013 69.1233 99.7297 70.2081 100.85C71.2929 101.969 71.2645 103.759 70.1446 104.844C68.9341 105.585 68.0796 105.998 67.6227 106.563C67.4802 106.74 67.2437 106.784 67.2512 106.928C67.2573 107.042 67.4318 107.038 67.529 107.115C67.8495 107.369 68.2731 107.471 68.7143 107.685C69.8181 108.22 70.8924 108.86 71.9096 109.936C72.5017 110.562 72.9697 111.377 73.2226 112.352C73.3244 112.743 73.3905 113.155 73.3585 113.598C73.2663 114.875 73.061 116.195 72.2093 117.832C71.9871 118.498 71.4507 119.214 70.8013 120.027C69.5984 121.534 67.9505 122.997 66.773 123.477C65.9035 123.832 65.1881 123.412 64.5136 123.245C63.4016 122.971 62.9942 121.862 62.5859 119.957C62.6696 118.306 64.0785 117.032 65.7303 117.116C66.4517 117.153 67.1008 117.442 67.5963 117.894ZM68.5739 120.178L68.5718 120.26C68.5811 120.232 68.5806 120.204 68.5739 120.178ZM66.7529 118.286C66.6543 118.253 66.5561 118.216 66.4595 118.174C66.318 118.113 66.1607 118.275 65.9742 118.254C65.9336 118.249 65.8984 118.357 65.8984 118.357C65.8984 118.357 65.9995 118.438 66.0641 118.424C66.2782 118.379 66.5154 118.347 66.7529 118.286V118.286Z" fill="#7400BD"/><path fill-rule="evenodd" clip-rule="evenodd" d="M78.359 105.308C79.3057 103.528 73.0695 101.879 73.1204 99.2884C73.1377 98.4106 73.3821 97.4288 74.1011 96.1151C74.742 94.9436 75.7166 93.4889 77.4959 91.5057C78.7391 90.5647 80.5123 90.8102 81.4532 92.0535C82.3941 93.2967 82.1486 95.07 80.9054 96.0109C79.9643 96.445 79.1798 96.7322 78.5609 97.1685C77.4494 97.9521 77.3503 98.9056 76.8089 98.9825C76.6611 99.0036 77.1483 99.064 77.223 98.9281C77.5126 98.4015 78.4395 99.1316 79.1048 99.2645C79.9474 99.4327 80.7157 99.6181 81.3432 99.8688C82.051 100.152 82.5274 100.643 82.9148 101.036C83.2495 101.525 83.6287 101.98 83.7773 102.542C84.0712 103.653 84.2925 104.777 83.9064 105.977C83.5855 106.974 83.2292 107.918 82.5644 108.873C82.3292 109.211 82.0916 109.536 81.8871 109.904C81.2015 111.138 80.5747 112.384 79.6428 113.416L77.4359 115.445C76.0044 116.274 74.1695 115.784 73.3408 114.353C72.5121 112.922 73.0014 111.087 74.4329 110.258L76.668 109.715C77.2754 109.389 77.9349 109.11 78.3702 108.556C78.5582 108.317 78.7108 108.045 78.8038 107.76C79.0733 106.934 78.6876 106.162 78.4514 105.453C78.4348 105.404 78.4011 105.351 78.359 105.308ZM78.359 105.308C78.3278 105.368 78.2877 105.428 78.2393 105.488C78.1629 105.583 78.0384 105.373 77.9831 105.3C77.9452 105.267 78.0701 105.256 78.1128 105.23C78.1873 105.185 78.2859 105.232 78.359 105.308Z" fill="#7400BD"/><path fill-rule="evenodd" clip-rule="evenodd" d="M89.5257 96.673C89.6798 96.1579 89.8039 95.6494 89.9485 95.1574C90.5214 93.2083 91.3093 91.539 91.3169 89.7598C91.3206 88.8972 91.1462 88.0659 90.9658 87.2763C90.4095 84.8423 89.6516 82.7988 89.4261 80.839C89.5098 79.1872 90.9187 77.9139 92.5706 77.9975C94.2224 78.0812 95.4956 79.4901 95.412 81.1421C95.0625 82.7252 94.8789 84.4959 94.9055 86.5338C94.9165 87.3688 94.9036 88.2338 95.0362 89.1124C95.3303 91.0604 95.9249 92.9548 96.0375 95.1717C96.0712 95.8355 96.0723 96.4927 95.9838 97.1808C95.9004 97.8299 95.6849 98.4702 95.4865 99.1276C94.1216 102.09 92.4857 102.971 90.8348 102.75C90.0392 102.643 89.1905 102.512 88.4703 101.968C87.2152 101.02 86.1042 99.6153 85.8736 99.0967C85.6577 98.625 85.4436 98.1003 85.2999 97.4579C85.077 96.462 84.9524 95.2333 84.7616 93.9052C84.5826 92.659 84.2959 91.3648 84.0623 90.0994C83.8083 88.7232 83.5274 87.4801 83.2954 86.4783C83.1917 84.9226 84.3704 83.5754 85.9262 83.4716C87.4819 83.3679 88.8292 84.5467 88.9329 86.1023C88.7982 87.9486 88.2473 90.6602 88.339 93.1545C88.367 93.9162 88.482 94.6485 88.6702 95.283C88.8512 95.8939 89.2011 96.3245 89.4942 96.6451L89.5257 96.673V96.673ZM89.3589 97.4036C89.3184 97.4242 89.3055 97.4441 89.3521 97.4622C89.3781 97.4722 89.3714 97.4438 89.3589 97.4036ZM89.9924 97.0254C90.4053 97.2984 90.925 97.5459 90.9745 97.17C91.0228 96.8028 90.4247 96.8202 89.9924 97.0254Z" fill="#7400BD"/><path fill-rule="evenodd" clip-rule="evenodd" d="M101.195 79.2747C101.179 78.1436 101.214 77.0189 101.357 75.9557C101.504 74.8632 101.769 73.8528 102.085 73.0004C102.712 71.3119 103.526 70.1082 104.244 69.511C106.795 67.5321 108.959 67.2426 110.343 68.0917C110.957 68.4688 111.584 68.8712 111.943 69.6001C112.509 70.7498 112.806 72.5778 112.002 75.1044C111.745 75.913 111.469 76.8374 111.015 77.8274C110.405 79.6367 109.385 80.8571 108.349 81.841C107.432 82.7124 106.419 83.3075 105.44 83.7397L105.379 84.0127C105.225 84.7477 105.087 85.4435 105.06 86.0883C105.035 86.6748 105.262 87.2886 105.399 87.7536C105.571 87.6663 105.823 87.6028 105.982 87.4991C106.592 87.1015 107.156 86.5921 107.707 86.16C109.138 85.3313 110.973 85.8206 111.801 87.2519C112.63 88.6834 112.141 90.5182 110.709 91.347C108.731 92.152 106.376 93.1688 104.692 92.7735C103.381 92.4657 102.097 91.9159 101.52 90.1599C101.264 89.4991 101.36 87.7136 101.395 85.3692L101.397 84.873C100.151 84.7653 99.0825 83.8319 98.8585 82.542C98.5917 81.0058 99.6222 79.542 101.158 79.2752L101.195 79.2747V79.2747ZM108.404 73.8074C108.367 73.9709 108.389 74.2717 108.332 74.4536C108.221 74.8083 108.122 75.2035 108.015 75.6259C108.191 75.1355 108.326 74.6753 108.396 74.2419C108.421 74.0911 108.421 73.946 108.404 73.8074ZM108.857 72.823C108.925 72.8636 108.976 72.8936 108.95 72.8415C108.922 72.7866 108.891 72.7868 108.857 72.823Z" fill="#7400BD"/><path fill-rule="evenodd" clip-rule="evenodd" d="M121.671 57.0685C121.787 57.7809 121.918 58.3721 122.001 59.0782C122.08 59.7474 122.2 60.3787 122.124 61.0396C122.069 61.512 121.892 61.9427 121.717 62.3809C121.264 63.5137 120.577 64.3091 120.212 65.4576C120.095 65.826 120.004 66.214 120.026 66.5987C120.101 67.8665 120.854 68.7322 121.002 69.9915C121.034 70.262 121.022 70.5419 120.959 70.8073C120.671 72.0247 120.035 72.9283 119.532 74.0856C119.383 75.7328 120.6 77.1911 122.247 77.3399C123.894 77.4887 125.352 76.2722 125.501 74.6249C125.214 73.3998 124.747 72.3998 124.689 71.154C124.676 70.8836 124.716 70.6083 124.797 70.3504C125.173 69.1581 126.084 68.4762 126.416 67.2686C126.515 66.9071 126.506 66.52 126.473 66.1456C126.369 64.9743 125.867 64.0711 125.716 62.8904C125.658 62.4332 125.594 61.9813 125.666 61.5225C125.767 60.8827 126.062 60.3272 126.326 59.7269C126.603 59.0982 126.919 58.6034 127.246 57.9875C127.5 56.4491 126.457 54.9943 124.918 54.7406C123.38 54.4871 121.925 55.5301 121.671 57.0685Z" fill="#7400BD"/><path fill-rule="evenodd" clip-rule="evenodd" d="M130.986 61.1621C129.67 60.7085 127.099 60.7055 126.477 59.4736C125.94 58.4109 125.271 56.8685 126.632 54.51C126.825 53.9591 127.028 53.506 127.161 53.099C127.568 51.8511 127.91 51.1506 128.296 50.5319C128.836 49.6675 129.537 49.1942 130.843 47.5835C132.046 46.5919 133.828 46.7636 134.819 47.9667C135.811 49.1699 135.639 50.9518 134.436 51.9434C133.297 52.5378 132.587 52.82 131.976 53.1163C131.68 53.2597 131.387 53.2701 131.154 53.5461C130.961 53.775 130.719 54.0317 130.524 54.4443C130.365 54.7816 130.247 55.1994 130.088 55.6824C130.023 56.0544 130.05 56.3622 130.072 56.6293C130.082 56.7442 130.196 56.872 130.274 56.8356C130.507 56.7259 130.367 56.2856 130.168 56.2106C130.103 56.1859 130.212 56.0043 130.212 56.0043C130.212 56.0043 130.612 55.8611 130.833 55.8326C131.217 55.7832 131.578 55.7168 131.92 55.6941C132.707 55.6421 133.375 55.8484 133.875 56.0045C134.471 56.2981 135.017 56.5557 135.371 56.9611C136.496 58.2469 137.219 59.6193 136.671 61.2589C136.199 62.6723 134.974 64.0745 133.564 65.7106C133.124 66.221 132.806 66.8214 132.439 67.3823C131.156 69.3469 129.741 70.8292 128.965 71.4257C127.467 72.128 125.681 71.4824 124.979 69.9849C124.277 68.4874 124.923 66.7015 126.42 65.9993C126.763 65.9272 127.363 65.8542 128.006 65.4676C128.881 64.942 129.98 64.3999 130.659 63.4725C131.003 63.0032 131.116 62.4552 131.214 61.9376C131.025 61.7575 131.05 61.4222 130.986 61.1621V61.1621ZM131.322 61.3037C131.342 61.022 131.295 60.7126 131.105 60.7457C130.989 60.766 130.889 60.9228 130.936 61.0174C130.958 61.0614 130.975 61.1101 130.986 61.1621L131.081 61.1948C131.134 61.217 131.187 61.2392 131.24 61.2614L131.322 61.3037C131.318 61.3829 131.307 61.4599 131.293 61.5265L131.214 61.9376C131.264 61.9865 131.331 62.0239 131.419 62.0454C131.505 62.0878 131.707 62.2299 131.741 62.1107C131.85 61.734 131.671 61.4848 131.322 61.3037V61.3037Z" fill="#7400BD"/><path fill-rule="evenodd" clip-rule="evenodd" d="M152.089 34.8707C152.331 32.9393 152.796 31.0952 153.497 29.9353C154.342 28.537 155.283 27.5932 156.593 27.548C157.114 27.53 157.685 27.4716 158.296 27.7359C159.817 28.3339 160.816 29.7135 161.073 31.9971C161.191 33.0447 161.266 34.2852 161.311 35.6001C161.392 37.9638 162.951 41.2556 162.205 42.2059C162.742 42.9168 162.957 43.8585 162.71 44.7849C162.283 46.3827 160.639 47.3331 159.041 46.9059C157.806 46.4045 156.41 45.4353 156.316 43.2299L156.315 43.1677C156.213 43.2204 156.106 43.2639 155.993 43.2988C155.559 43.4333 155.087 43.6172 154.538 43.5126C154.209 43.4499 153.18 43.401 152.413 42.3724C152.046 41.8804 151.008 40.1392 151.008 40.1392C151.008 40.1392 151.168 40.2388 151.193 40.2667C150.884 39.9229 150.675 39.5733 150.368 39.4301C150.245 39.3725 150.29 39.0846 150.183 39.1358C149.845 39.2982 149.507 39.6203 149.331 40.1774C149.007 41.2006 149.019 42.5966 149.202 44.3102L150.329 48.1621L151.755 52.9665C152.027 54.5016 151.003 55.9695 149.468 56.2424C147.933 56.5152 146.465 55.4906 146.192 53.9556L145.866 48.9067L145.43 44.6848C145.359 43.49 145.423 42.4321 145.467 41.4943C145.588 38.8757 146.275 37.1401 147.204 36.0704C148.402 34.69 150.082 34.2504 152.089 34.8707ZM160.674 41.1409C160.647 41.1282 160.619 41.1199 160.589 41.1158L160.674 41.1409ZM158.18 31.8745C158.192 31.8704 158.195 31.8654 158.18 31.8586C158.168 31.8535 158.172 31.8612 158.18 31.8745Z" fill="#7400BD"/><path fill-rule="evenodd" clip-rule="evenodd" d="M165.067 23.705C164.795 22.4565 165.348 21.1231 166.517 20.4599C167.991 19.9938 169.105 19.7447 170.023 20.3908C170.273 20.5666 170.577 20.6513 170.791 20.8971C171.379 21.574 172.108 22.5095 172.265 24.0143C172.386 25.1762 172.258 26.6161 172.317 28.2004C172.336 28.6857 172.439 29.1605 172.529 29.6492C172.846 31.3777 173.175 32.989 173.227 34.4613C173.243 34.9371 173.207 35.3735 173.137 35.7749C172.905 37.1018 172.343 38.0424 171.923 38.5534C170.075 40.2452 168.606 40.9116 167.278 40.5637C166.439 40.344 165.586 40.1594 164.969 39.445C164.011 38.3355 163.242 36.5977 163.211 34.5174C163.202 33.8769 163.15 33.22 163.238 32.5686L163 26.0876C163.144 24.9135 163.991 23.9959 165.067 23.705V23.705ZM167.312 35.0494L167.325 35.0707C167.455 35.2859 167.683 35.3781 167.845 35.5263C167.901 35.5774 168.022 35.5678 168.052 35.5082C168.1 35.4106 167.969 35.2748 167.87 35.266C167.68 35.2493 167.495 35.0897 167.312 35.0494ZM166.834 35.0285C166.797 35.0115 166.781 35.0038 166.81 35.027C166.822 35.0363 166.83 35.0365 166.834 35.0285ZM166.852 34.8571C166.855 34.8187 166.861 34.7818 166.875 34.7558C166.834 34.8254 166.57 34.9264 166.676 34.9672C166.762 34.9998 166.816 34.9526 166.852 34.8571ZM168.462 27.2205C168.17 28.1092 167.87 28.965 167.604 29.8753C167.303 30.9087 167.068 31.9309 166.812 32.9687C166.777 33.4212 166.799 33.8816 166.913 34.3039L166.94 34.3865C166.965 34.1825 166.989 33.9608 167.044 33.7837C167.508 32.2866 168.549 30.5459 168.637 28.6346C168.66 28.1463 168.564 27.6706 168.462 27.2205V27.2205ZM169.376 25.7258C169.411 25.7172 169.444 25.7001 169.474 25.6733L169.376 25.7258Z" fill="#7400BD"/><path fill-rule="evenodd" clip-rule="evenodd" d="M176.092 13.048C176.147 12.6986 176.205 12.3373 176.27 11.9594C176.44 10.9618 176.597 9.91792 176.817 8.65726C177.366 7.19807 178.997 6.45905 180.456 7.00813C181.915 7.55721 182.654 9.18769 182.105 10.647C180.789 12.9567 179.732 14.4776 179.208 16.1739C179.031 16.7486 178.947 17.3388 178.917 17.9423C178.852 19.2534 179.135 20.5491 179.374 22.2581C179.454 23.0653 179.854 24.0863 179.95 25.0274C180.062 26.1305 179.923 27.0221 179.923 27.0221L179.897 27.0246L179.932 27.1161C180.07 28.7666 178.858 30.2229 177.21 30.3868C175.562 30.5508 174.087 29.3619 173.898 27.7165C173.898 27.7165 173.65 27.0411 173.519 26.0661C173.473 25.7215 173.46 25.3392 173.476 24.9474C173.519 23.8891 173.682 22.8041 173.878 21.9559L174.018 21.4203C173.476 20.4337 172.64 19.2479 172.026 18.009C171.574 17.0956 171.418 16.1766 171.277 15.2617C171.368 13.6103 172.783 12.3432 174.434 12.4341C175.06 12.4685 175.63 12.6927 176.092 13.048V13.048Z" fill="#7400BD"/><path fill-rule="evenodd" clip-rule="evenodd" d="M184.258 11.0531C184.285 10.6909 184.327 10.3299 184.386 9.9725C184.51 9.22562 184.711 8.50164 184.944 7.8085C185.743 5.43866 186.777 3.41407 187.926 2.1392C189.205 0.719966 190.485 -0.095911 191.822 0.00902917C192.511 0.0630892 193.243 0.156136 193.929 0.660273C194.735 1.2119 195.436 2.37239 195.233 4.12818C195.151 4.83806 194.972 5.67387 194.773 6.5543C194.309 8.60382 193.616 10.8416 193.073 11.873C192.464 13.1518 191.584 13.7724 190.796 14.2579C190.539 14.4162 190.277 14.5362 190.013 14.6272C189.799 15.5528 189.622 16.4433 189.562 17.2826C189.513 17.9841 189.43 18.6119 189.476 19.1538C189.675 18.8567 189.926 18.5265 190.047 18.1869C190.439 17.0877 190.788 15.9183 191.195 14.9269C191.736 13.6082 192.6 12.7373 193.38 12.1415C194.818 11.3255 196.649 11.831 197.465 13.2697C198.252 14.6574 197.809 16.4098 196.485 17.264C197.651 18.885 193.309 22.0546 191.712 23.0916C190.444 23.9148 189.126 24.2723 187.601 23.1396C185.84 22.3093 184.398 18.1433 184.229 13.3433C184.094 13.031 184.014 12.6887 184.002 12.3283C183.986 11.8735 184.079 11.4401 184.258 11.0531V11.0531Z" fill="#7400BD"/></svg>