<svg width="87" height="107" viewBox="0 0 87 107" fill="none" xmlns="http://www.w3.org/2000/svg"><path fill-rule="evenodd" clip-rule="evenodd" d="M38.2003 72.2249C41.1678 72.2385 44.1119 72.1062 47.0442 71.7687C49.1847 71.5223 51.3018 71.127 53.4192 70.7249C58.4623 69.7672 63.4256 68.6651 68.64 68.2067C70.2728 68.2067 71.5985 69.5324 71.5985 71.1653C71.5985 72.7982 70.2728 74.1239 68.64 74.1239C65.6918 73.8484 62.8052 73.7155 59.8922 73.7566C56.9001 73.7988 53.9391 73.886 50.9712 74.1662C49.1795 74.3352 47.3958 74.5817 45.6149 74.8482C41.4101 75.4776 37.2376 76.2235 32.9212 76.4811C32.9532 76.4791 33.0385 76.4855 33.0385 76.4855C33.0385 76.4855 32.4156 76.5944 32.2223 76.6078C31.7552 76.6399 31.4103 76.4818 31.1856 76.395C30.3157 76.0589 30.0259 75.3478 29.8777 74.6577C29.785 74.2264 29.8031 73.5085 30.5425 72.6692C32.0692 70.9359 33.7768 69.1486 35.5993 67.3404C37.2495 65.7034 38.9311 64.0073 40.6448 62.3469C41.9747 61.0584 43.3314 59.8107 44.5911 58.504C46.5092 56.5143 48.3079 54.5291 49.567 52.2604C50.9715 49.7299 51.9082 46.9973 51.7439 43.9346C51.6978 43.0757 51.5676 42.1935 51.3284 41.301C50.8337 39.4554 49.8991 37.574 48.6334 35.5925C48.2294 34.9951 47.4884 34.733 46.6332 34.5243C45.3216 34.2042 43.7092 34.2079 42.0011 34.3469C37.068 34.7482 31.4964 36.4318 29.2694 36.7664C27.6839 36.8937 26.293 35.7098 26.1656 34.1243C26.0383 32.5386 27.2223 31.1478 28.8078 31.0205C31.4578 30.9856 38.8428 29.8635 44.2541 30.5491C47.5354 30.9649 50.154 32.0252 51.2189 34.0412C52.5151 36.3454 53.3288 38.5452 53.878 40.6222C54.1521 41.6588 54.3595 42.6638 54.5098 43.6504C55.0692 47.3227 54.5912 50.7255 53.3684 54.0106C52.3136 56.8448 50.739 59.5487 48.7816 62.1068C47.5754 63.683 46.2389 65.2035 44.7869 66.6149C43.0228 68.3297 41.098 69.8759 39.2394 71.3889L38.2003 72.2249V72.2249Z" fill="#7400BD"/><path fill-rule="evenodd" clip-rule="evenodd" d="M45.853 2.12027C50.0456 0.773111 53.9292 0.339911 57.5006 0.675083L57.9029 0.663438C58.2467 0.67213 58.5679 0.728085 58.8935 0.838431L58.9272 0.851681C60.8848 1.15124 62.7435 1.68789 64.5034 2.43371C74.0856 6.49415 80.617 16.9816 83.9587 29.9364C85.8772 37.3735 86.8617 45.5894 86.5996 53.8394C86.0525 71.0511 80.3237 88.2725 68.4401 98.1049C63.3679 102.302 57.1925 105.201 49.8912 106.165C45.7833 106.708 41.3131 106.586 36.4862 105.796C14.4586 101.727 3.13535 86.6351 0.758833 69.034C0.152937 64.5461 0.130526 59.9062 0.62597 55.2404C0.945985 52.2266 1.47048 49.2031 2.21344 46.2052C5.22415 34.0563 11.9282 22.416 21.9824 13.9424C28.5623 8.39688 36.5484 4.20741 45.853 2.12027V2.12027ZM59.7187 5.78291C59.2232 6.18613 58.5911 6.42781 57.9029 6.42781C54.878 6.35541 51.9595 6.5107 49.1529 6.87386C47.3941 7.46969 45.5769 8.27326 43.7028 9.29447C42.5534 9.87281 41.2043 9.63005 40.3255 8.78704C34.3919 10.6251 29.0888 13.4597 24.4812 17.0327C14.6689 24.6416 7.9192 35.4726 4.84584 46.8857C4.07861 49.7346 3.54384 52.6237 3.27131 55.5059C2.85293 59.9308 3.03429 64.3386 3.7817 68.5627C6.56293 84.2812 17.4279 97.4577 37.3889 100.079C41.6262 100.723 45.5348 100.729 49.1382 100.283C55.3421 99.5135 60.6335 97.2779 65.064 93.8721C76.3429 85.2017 82.2815 69.5328 83.2923 53.6815C83.7971 45.7664 83.1508 37.7872 81.2025 30.6691C78.0306 19.0808 71.6769 9.74647 62.8777 6.59752C61.8578 6.23257 60.8043 5.9595 59.7187 5.78291V5.78291Z" fill="#7400BD"/></svg>