<svg width="164" height="142" viewBox="0 0 164 142" fill="none" xmlns="http://www.w3.org/2000/svg"><path fill-rule="evenodd" clip-rule="evenodd" d="M0.779673 95.9079C0.991885 98.4694 1.3213 100.923 1.4591 103.415C1.51856 104.488 1.57266 105.559 1.50641 106.621C1.27692 110.294 0.324294 113.746 0.128299 117.329C0.0813413 118.188 0.0658441 119.052 0.149054 119.906C0.422959 122.715 1.37271 125.301 1.7594 128.085C1.85363 128.763 1.90349 129.449 1.90349 130.134C1.90317 133.03 1.53046 135.845 1.3987 138.768C1.54137 140.416 2.99495 141.638 4.64273 141.495C6.2905 141.352 7.51258 139.899 7.3699 138.251C6.748 135.44 5.97006 132.749 5.64305 129.919C5.56536 129.247 5.5417 128.568 5.56661 127.892C5.66847 125.128 6.44799 122.527 6.57159 119.753C6.61346 118.812 6.5451 117.866 6.45426 116.925C6.19689 114.259 5.55602 111.703 5.29684 108.988C5.18883 107.856 5.08305 106.721 5.11305 105.573C5.15418 103.996 5.40317 102.434 5.62333 100.844C5.8418 99.2671 6.1457 97.7318 6.42512 96.1327C6.48713 94.5747 5.2727 93.2596 3.71471 93.1976C2.15682 93.1356 0.841683 94.35 0.779673 95.9079V95.9079Z" fill="#7400BD"/><path fill-rule="evenodd" clip-rule="evenodd" d="M11.2768 94.5839C11.4327 95.8198 11.6236 96.9923 11.7536 98.2287C11.8813 99.442 12.0533 100.635 12.0336 101.852C12.0195 102.726 11.8801 103.583 11.7438 104.445C11.4156 106.519 10.7707 108.426 10.5378 110.502C10.4569 111.222 10.4058 111.952 10.4714 112.672C10.6673 114.825 11.5467 116.72 11.8226 118.849C11.8887 119.36 11.9092 119.879 11.8785 120.393C11.7459 122.608 11.2159 124.673 10.8925 126.85C10.9357 128.503 12.3131 129.811 13.9665 129.767C15.6199 129.724 16.9272 128.347 16.884 126.693C16.4506 124.552 15.8268 122.526 15.6238 120.332C15.5767 119.823 15.5822 119.307 15.6342 118.798C15.8504 116.683 16.7049 114.798 16.8957 112.667C16.9593 111.958 16.9103 111.24 16.8368 110.529C16.6244 108.477 16.0169 106.584 15.775 104.525C15.6743 103.668 15.5741 102.814 15.6076 101.95C15.6542 100.748 15.9059 99.5826 16.1239 98.3971C16.3452 97.194 16.6444 96.0633 16.9196 94.8689C16.9981 93.3117 15.7978 91.9837 14.2406 91.905C12.6835 91.8265 11.3554 93.0268 11.2768 94.5839V94.5839Z" fill="#7400BD"/><path fill-rule="evenodd" clip-rule="evenodd" d="M3.81137 121.636C4.57457 121.09 5.239 120.577 6.01471 119.957C6.4616 119.6 6.87638 119.223 7.39494 118.947C7.83844 118.71 8.31915 118.582 8.8129 118.451C10.0161 118.134 11.1242 118.189 12.3128 117.796C12.6826 117.674 13.0532 117.526 13.3602 117.291C14.3668 116.523 14.6751 115.383 15.6589 114.696C15.8761 114.544 16.1214 114.431 16.3729 114.367C17.0449 114.194 17.6638 114.335 18.3174 114.384C18.746 114.416 19.062 114.602 19.4654 114.699C21.1094 114.518 22.2979 113.037 22.1177 111.393C21.9374 109.749 20.4563 108.561 18.8121 108.741C17.6678 109.266 16.7247 109.83 15.5618 110.539C15.1653 110.78 14.7594 111.036 14.2966 111.16C13.1505 111.467 12.12 111.211 10.9048 111.498C10.4653 111.602 10.0318 111.74 9.6432 111.98C9.27803 112.205 9.01716 112.518 8.71549 112.826C7.98981 113.567 7.51425 114.313 6.76939 115.021C6.51785 115.26 6.27767 115.49 5.98267 115.665C5.79176 115.778 5.58219 115.853 5.37146 115.916C4.21235 116.262 3.13761 116.22 2.0193 116.278C0.540599 116.772 -0.258304 118.374 0.236294 119.853C0.730785 121.331 2.33277 122.13 3.81137 121.636V121.636Z" fill="#7400BD"/><path fill-rule="evenodd" clip-rule="evenodd" d="M21.9001 101.64C21.6504 101.26 21.4612 100.841 21.4389 100.341C21.4135 99.7705 21.3942 99.0277 21.8121 98.2613C22.2423 97.4725 23.0317 96.3931 24.2214 95.5831C25.1448 94.9566 25.632 93.9482 25.8419 92.9046C26.3019 90.6187 26.035 88.3539 26.1788 87.7968C26.2586 87.3699 26.4896 86.9859 26.8294 86.7153C27.5713 86.1103 28.9008 85.313 30.4134 84.2981C31.9503 83.2669 33.6811 82.0061 35.2784 80.6995C37.0017 79.2899 38.4792 77.7958 39.1176 76.4693C39.91 75.1265 41.6435 74.6797 42.9863 75.4722C44.329 76.2645 44.7759 77.9981 43.9834 79.3409C43.0309 80.6812 41.4125 82.1178 39.4016 83.4237C37.3695 84.7433 34.9984 85.9762 32.9622 87.1178C31.6878 87.8323 30.5673 88.5094 29.7606 89.0562C29.8854 90.1875 30.29 92.4463 30.0039 94.6256C29.791 96.2467 29.1639 97.7531 28.0995 99.027C28.3449 99.5801 28.4201 100.204 28.3001 100.816C28.0789 102.377 27.9605 103.988 27.6924 105.556C27.4367 107.053 27.0754 108.495 26.7844 109.872C26.2618 112.344 25.7387 114.488 25.7026 116.083C25.7093 117.601 25.8232 118.695 26.5424 119.169C27.3565 119.706 28.4669 119.268 29.5515 118.673C31.6963 117.495 33.5988 114.914 34.4802 112.151C35.1201 110.626 36.8779 109.907 38.4031 110.547C39.9282 111.187 40.6469 112.945 40.0069 114.47C37.561 119.137 32.724 122.69 28.8265 123.119C27.1049 123.308 25.5928 122.98 24.3051 122.094C22.8906 121.121 21.7214 119.425 21.2152 116.472C20.8069 114.372 20.6781 111.27 20.902 107.781C20.9712 106.702 21.0748 105.589 21.267 104.474C21.4307 103.523 21.6582 102.578 21.9001 101.64V101.64ZM24.7158 97.3075C24.6762 97.3109 24.6353 97.3202 24.5931 97.3356L24.7158 97.3075Z" fill="#7400BD"/><path fill-rule="evenodd" clip-rule="evenodd" d="M40.2163 90.7294C39.143 91.3801 38.1551 92.14 36.927 92.9244C36.4843 93.2071 36.0276 93.499 35.513 93.6861C33.7928 94.3115 31.9558 94.2693 30.1365 95.0599C29.739 95.2326 29.3452 95.4444 29.0185 95.7354C27.8886 96.7414 27.4315 98.0633 26.4122 99.2002C26.184 99.4547 25.9205 99.681 25.633 99.8643C24.3086 100.708 22.9815 101.188 21.658 101.95C20.4952 103.126 20.506 105.026 21.6823 106.188C22.8585 107.351 24.7575 107.34 25.9203 106.164C26.4802 105.135 26.8687 104.123 27.6448 103.206C27.954 102.841 28.2884 102.476 28.7038 102.234C29.7798 101.607 30.9506 101.731 32.0972 101.265C32.536 101.086 32.9687 100.884 33.3393 100.597C34.5308 99.6745 35.1833 98.4502 36.2737 97.5414C36.5882 97.2792 36.8795 97.0155 37.2322 96.8304C37.5866 96.6445 37.9688 96.5405 38.3446 96.4484C39.607 96.1387 40.7399 96.1866 41.855 96.1366C43.3472 95.6844 44.1914 94.1058 43.7392 92.6136C43.287 91.1215 41.7085 90.2772 40.2163 90.7294V90.7294Z" fill="#7400BD"/><path fill-rule="evenodd" clip-rule="evenodd" d="M59.9602 90.7158C60.0266 91.1924 60.0358 91.7336 60.0132 92.3206C59.9421 94.159 59.4819 96.5888 59.3109 98.1549C59.1225 101.745 58.5714 104.794 57.6976 107.083C56.9836 108.954 55.9236 110.314 54.7491 111.204C52.7004 112.756 50.0292 113.11 46.9718 111.407C45.9985 110.864 44.9662 110.066 43.884 108.973C41.8315 106.807 41.0153 103.651 41.7767 99.8008C42.2033 97.6434 43.0591 95.2907 44.0928 92.819C44.6821 91.41 45.3296 89.9706 45.9566 88.5083C47.1283 85.7757 48.2961 83.0124 49.4288 80.5231C50.9191 77.2479 52.205 74.4421 52.9264 72.7343C53.6379 71.347 55.3418 70.7982 56.7293 71.5097C58.1166 72.2211 58.6654 73.925 57.9539 75.3125C56.4648 77.8016 52.9135 82.608 50.1512 88.068C49.2018 89.9445 48.3748 91.9111 47.7598 93.8434C46.872 96.6326 46.5179 99.3351 46.6451 101.562C46.7176 102.831 47.0848 103.856 47.9102 104.483C48.5924 105.025 49.2486 105.376 49.8203 105.677C50.673 106.125 51.2875 106.071 51.798 105.426C53.1301 103.744 54.291 101.017 55.1667 97.5307C55.4061 96.4138 55.9621 94.8696 56.1975 93.3977C56.3235 92.6091 56.334 91.8592 56.1767 91.3322C56.145 91.2344 55.9922 91.3147 55.8977 91.2747C55.648 91.1688 55.3623 91.1354 55.0739 91.118L54.2617 91.1849L52.6838 91.2374V91.2369L52.6767 91.2382C51.3918 91.3751 50.2387 90.4456 50.0998 89.1609C49.961 87.8761 50.8888 86.7217 52.1733 86.5808L53.725 86.2902L59.9818 84.7024C61.6259 84.5221 63.107 85.7105 63.2873 87.3547C63.4675 88.9988 62.279 90.4799 60.635 90.6602L59.9602 90.7158V90.7158Z" fill="#7400BD"/><path fill-rule="evenodd" clip-rule="evenodd" d="M69.2815 63.605C69.2963 64.6555 69.2554 65.7316 69.2404 66.8285C69.1956 70.1248 69.1727 73.5513 68.9674 76.9224C68.8733 78.4656 68.8368 79.9813 68.6958 81.4417C68.5523 82.9298 68.2355 84.3213 68.2242 85.6823C68.1628 87.4404 68.1538 90.1246 68.9136 92.4936C69.2166 93.4384 69.6738 94.3036 70.1729 95.02C70.6159 95.6561 71.1558 96.0895 71.6991 96.2842C71.9031 96.3574 71.9843 96.0535 72.2019 95.8715C72.8203 95.3542 73.2626 94.3753 73.8714 93.0178C74.7121 91.5934 76.5509 91.1194 77.9754 91.96C79.3997 92.8006 79.8737 94.6395 79.0331 96.0639C76.4908 99.4594 74.3386 100.749 72.5555 100.821C71.0468 100.883 69.6703 100.44 68.5032 99.2675C67.3208 98.0795 66.3991 96.1499 65.482 94.0512C64.2701 91.2777 63.0914 88.2679 62.6526 86.1646C62.4021 84.912 62.2158 83.6116 62.2003 82.2361C62.1867 81.0135 62.299 79.7485 62.5106 78.4788C63.2254 74.1891 64.9876 69.8551 65.52 65.603C65.6529 64.5422 65.661 63.493 65.6464 62.4766C65.6228 61.79 65.9933 61.15 66.6007 60.8286C68.8183 59.4408 71.1922 58.7924 73.4384 57.6287C74.5712 57.0418 75.5853 56.2368 76.5686 55.1264C77.7139 54.0684 79.5026 54.1392 80.5606 55.2844C81.6186 56.4296 81.5478 58.2184 80.4025 59.2764C79.1136 60.2471 77.8569 60.9569 76.5411 61.4721C74.1325 62.4152 71.6969 62.7323 69.2815 63.605V63.605Z" fill="#7400BD"/><path fill-rule="evenodd" clip-rule="evenodd" d="M72.861 72.0455C72.6342 72.6081 72.4936 73.0588 72.231 73.6078C71.9935 74.1044 71.8149 74.5936 71.443 75.0006C71.1825 75.2858 70.8475 75.46 70.5082 75.6447C69.6071 76.1352 68.769 76.1721 67.9024 76.7172C67.6432 76.8805 67.3875 77.0729 67.2205 77.3293C66.6274 78.24 66.8668 79.1709 66.3171 80.0987C66.2061 80.286 66.0556 80.4553 65.8772 80.5793C65.0126 81.1801 64.1352 81.2518 63.1619 81.6164C61.947 82.7388 61.8719 84.6364 62.9942 85.8512C64.1165 87.0661 66.0141 87.1412 67.229 86.0189C67.6903 85.033 67.8543 84.1464 68.5005 83.253C68.632 83.0713 68.8078 82.9177 69.0021 82.8047C69.9577 82.2484 70.9017 82.446 71.8199 81.8146C72.0782 81.6371 72.2694 81.37 72.428 81.0988C72.9491 80.2082 72.9607 79.3643 73.4174 78.4365C73.5876 78.0905 73.7471 77.749 74.021 77.4779C74.4097 77.0933 74.8899 76.9006 75.3742 76.6488C75.9047 76.3732 76.3483 76.2337 76.8964 75.9999C77.9877 74.8864 77.9695 73.0962 76.8559 72.005C75.7424 70.9137 73.9523 70.9318 72.861 72.0455V72.0455Z" fill="#7400BD"/><path fill-rule="evenodd" clip-rule="evenodd" d="M91.3951 65.2339C91.7884 60.8184 92.1015 56.4364 92.3452 52.5779L93.2125 47.1457C93.3648 46.0923 94.2709 45.3127 95.3352 45.3194C96.3996 45.3261 97.2958 46.117 97.4348 47.1723C97.4348 47.1723 97.5417 48.773 97.7562 50.3213C97.8563 51.0432 97.9741 51.7516 98.1068 52.2535C98.4926 53.4658 99.027 56.4749 99.8046 60.0737C101.078 65.9685 102.946 73.5222 104.515 77.1565C104.6 77.3511 104.717 77.5649 104.825 77.7451C105.681 78.1921 106.306 79.0442 106.419 80.0756C106.599 81.7196 105.411 83.2009 103.766 83.3811C102.834 83.4336 101.772 83.2785 100.868 82.3067C100.345 81.7437 99.6783 80.6954 99.1872 79.145C98.5343 77.0841 97.9397 73.9068 97.3845 70.4492C97.0749 72.7856 96.5843 75.0696 95.9729 77.2372C95.5162 78.7357 94.6168 79.2748 93.8909 79.4889C93.2184 79.6872 92.4812 79.7609 91.718 79.4248C91.3306 79.2544 90.8118 78.9854 90.3907 78.4573C90.031 78.0058 89.6124 77.2485 89.4713 76.7614C88.7862 74.3166 88.0277 71.8871 87.3087 69.3843L87.3148 69.7005C87.4758 76.8314 88.2816 83.8692 88.5523 90.7244C88.5464 92.2836 87.2756 93.5446 85.7166 93.5385C84.1574 93.5326 82.8964 92.2619 82.9024 90.7027C83.2255 83.8554 83.2061 76.7891 83.4883 69.6679C83.582 67.3016 83.7177 64.9341 83.8683 62.5616C84.0194 60.1815 84.158 57.7976 84.4597 55.4186C84.7504 52.7726 87.4804 53.9785 87.7546 54.2208C87.8833 54.3347 88.2201 54.6888 88.3475 55.3953C88.3777 55.563 88.4077 56.2594 88.454 56.5219C88.6078 57.3545 88.8168 58.1129 89.0435 58.848C89.4274 60.093 89.8862 61.2557 90.3216 62.5241L91.3951 65.2339V65.2339Z" fill="#7400BD"/><path fill-rule="evenodd" clip-rule="evenodd" d="M109.571 38.5587C110.918 37.3104 112.385 36.3681 113.85 35.7718C116.165 34.8293 118.455 34.6966 120.526 35.4735C123.064 36.4256 125.269 38.8002 126.425 43.2504C126.714 44.3621 126.79 45.6047 126.781 46.9184C126.763 49.2763 126.299 51.8633 126.097 54.1222C125.568 57.2138 124.906 59.914 124.011 62.1768C121.636 68.1823 118.257 71.4266 115.32 72.4499C111.731 73.7003 108.34 72.4237 106.503 68.0919C105.871 66.6034 105.362 64.7385 105.202 62.4561C105.016 60.891 105.083 59.0185 105.268 56.9936C104.432 56.5603 103.812 55.7397 103.676 54.7358C103.202 48.6552 105.162 43.638 108.029 40.1871C108.302 39.4365 108.872 38.8587 109.571 38.5587V38.5587ZM113.421 40.4612C113.53 40.8853 113.54 41.3407 113.434 41.7959C112.51 44.9462 110.87 49.6179 109.806 54.1286C109.109 57.0826 108.655 59.9434 108.767 62.1475C109.369 66.8109 111.102 69.3159 113.519 68.1493C115.172 67.3512 116.513 65.1272 117.695 61.8218C118.143 60.5684 118.492 59.1506 118.853 57.5827C119.165 56.2246 119.488 54.7588 119.721 53.1618C120.167 51.0697 120.879 48.6993 121.195 46.498C121.314 45.6738 121.435 44.8922 121.36 44.168C121.07 41.4206 120.266 39.6392 118.774 39.0082C118.085 38.7171 117.313 38.6242 116.532 38.7822C115.459 38.9994 114.397 39.6125 113.421 40.4612V40.4612Z" fill="#7400BD"/><path fill-rule="evenodd" clip-rule="evenodd" d="M140.991 42.6559C141.001 42.3116 141.002 41.9608 140.999 41.6103C140.974 38.9612 140.562 36.314 140.391 35.2267C140.124 34.1118 139.846 32.9968 139.53 31.8905C139.05 30.2037 138.504 28.5437 137.991 26.8814L134.089 15.2897C133.749 13.671 134.788 12.081 136.406 11.7412C138.025 11.4014 139.615 12.4397 139.955 14.0583C140.114 15.1909 140.305 16.3223 140.537 17.4752C141.071 20.1285 141.738 22.8455 142.286 25.8001L143.991 34.4711C144.416 36.0268 145.517 40.5662 145.641 44.1999C145.719 46.4749 145.217 48.4096 144.397 49.6279C143.48 50.9848 142.126 51.1094 140.563 50.5056C139.695 50.1698 137.997 48.2617 137.997 48.2617C137.997 48.2617 138.126 48.4264 138.153 48.4493C136.703 47.1758 135.185 45.6099 133.837 43.7823C132.067 41.3828 130.588 38.5773 129.188 36.0631C129.107 35.9069 128.916 35.5092 128.657 34.9664C128.689 35.9829 128.764 37.057 128.886 38.1662C129.254 41.528 130.033 45.1665 130.709 48.6017C131.54 52.8276 132.347 56.7126 132.581 59.4273C132.622 60.9859 131.389 62.2844 129.831 62.325C128.272 62.3657 126.974 61.1334 126.933 59.5748C127.046 55.2219 126.176 47.548 125.549 40.7035C125.444 39.5661 125.337 38.4529 125.222 37.3816C125.024 35.5414 124.834 33.8247 124.755 32.2989C124.69 31.0368 124.691 29.9063 124.78 28.9348C124.786 28.8595 124.686 28.8136 124.663 28.7391C124.596 28.5117 124.521 28.288 124.459 28.0689C124.32 27.5801 124.295 27.0995 124.314 26.6474C124.34 26.0248 124.596 25.4655 124.983 24.9051C125.468 24.2018 126.75 23.2981 128.456 24.6683C128.634 24.8118 128.961 25.2055 129.389 25.7777C130.757 27.6064 133.82 32.3941 134.255 33.0196C135.454 34.8392 136.834 36.7349 138.143 38.622C139 39.8564 139.815 41.088 140.653 42.2023L140.991 42.6559V42.6559Z" fill="#7400BD"/><path fill-rule="evenodd" clip-rule="evenodd" d="M155.034 16.5208C155.444 15.3275 155.838 14.1575 156.139 12.9304C156.329 12.1563 156.495 11.3791 156.572 10.5887C156.7 9.26285 156.639 7.94548 156.603 6.60606C156.568 5.26495 156.444 3.96899 156.352 2.60339C156.492 1.05049 157.866 -0.0968498 159.419 0.0427523C160.971 0.18246 162.119 1.55653 161.979 3.10943C161.64 4.4569 161.277 5.727 160.965 7.05295C160.654 8.37615 160.311 9.66671 160.126 11.0056C160.017 11.8041 159.988 12.6092 159.979 13.4182C159.956 15.33 160.106 17.1719 160.142 19.1387C160.137 19.7496 160.175 20.6327 160.123 21.4062C160.069 22.2275 159.938 22.8918 159.938 22.8918C159.734 24.2461 158.701 25.3259 157.357 25.5895C156.013 25.8531 154.649 25.2436 153.949 24.0668L152.706 21.1668C152.072 20.1493 151.502 19.078 150.788 17.9655C150.502 17.5196 150.194 17.0809 149.85 16.6649C148.651 15.2142 147.414 13.8217 146.414 12.1956C145.869 11.3109 145.469 10.4003 145.076 9.42587C144.736 7.80714 145.775 6.21715 147.393 5.87731C149.012 5.53747 150.602 6.57585 150.942 8.19447C150.968 9.04088 150.976 9.85104 151.202 10.6566C151.578 11.9911 152.032 13.303 152.811 14.4266C153.085 14.8217 153.413 15.1736 153.757 15.4968C154.169 15.8838 154.6 16.2143 155.034 16.5208V16.5208Z" fill="#7400BD"/><path fill-rule="evenodd" clip-rule="evenodd" d="M156.4 23.4111C155.847 22.934 155.467 22.2548 155.381 21.4726C155.201 19.8285 156.39 18.3474 158.034 18.1671C158.284 18.2238 158.507 18.0864 158.71 18.1804C159.452 18.5243 160.254 18.4351 160.583 19.1078C160.853 19.6613 161.631 20.1704 161.423 21.1206C161.371 21.3611 161.403 21.6258 161.3 21.9167C161.273 21.9926 161.185 22.1132 161.185 22.1132C161.185 22.1132 161.019 21.9799 161.024 21.8936C161.021 22.5137 160.985 23.0797 160.991 23.743C160.995 24.127 160.974 24.5215 161.084 24.9039C161.502 26.365 162.676 27.3816 163.007 28.9919C163.093 29.4122 163.045 29.8497 162.986 30.2793C162.812 31.5606 162.299 32.5915 162.062 33.8609C161.968 34.3614 161.884 34.857 161.915 35.3581C161.958 36.083 162.185 36.7351 162.37 37.4108C162.573 38.1531 162.812 38.7622 163.037 39.4518C163.064 41.0106 161.821 42.2984 160.262 42.3257C158.703 42.3531 157.415 41.1096 157.388 39.5508C157.685 38.375 158.155 37.289 158.286 35.9717C158.336 35.4733 158.32 34.956 158.221 34.4559C157.954 33.1198 157.225 32.1035 156.806 30.7999C156.71 30.5004 156.595 30.2134 156.573 29.9017C156.543 29.4737 156.644 29.0735 156.716 28.6571C156.908 27.5541 157.451 26.7346 157.438 25.6832C157.435 25.4093 157.35 25.143 157.258 24.8925C157.047 24.3156 156.706 23.8836 156.4 23.4111V23.4111ZM158.297 24.1414C158.423 24.1731 158.553 24.1883 158.687 24.1249C158.556 24.1393 158.425 24.1449 158.297 24.1414ZM157.219 23.9168C157.373 24.0199 157.542 24.0843 157.745 24.0789C157.564 24.0408 157.388 23.9862 157.219 23.9168ZM156.152 22.9642C155.955 22.47 155.827 21.7069 155.827 21.7069C155.827 21.7069 155.727 21.8875 155.767 21.9542C155.888 22.1568 155.791 22.4013 155.927 22.5364C156.053 22.6618 156.049 22.8531 156.152 22.9642Z" fill="#7400BD"/></svg>