<svg width="35" height="50" viewBox="0 0 35 50" fill="none" xmlns="http://www.w3.org/2000/svg"><path fill-rule="evenodd" clip-rule="evenodd" d="M2.31324 38.2126C1.16791 36.0973 0.562207 33.7447 0.703929 31.1754C0.790213 29.6122 1.13842 27.9735 1.81025 26.2242C2.33951 24.8462 3.02851 23.3808 4.00308 21.8653C6.15001 18.1783 8.91449 15.1321 11.9198 12.309C16.3006 8.19412 21.2488 4.65711 25.9841 0.832409C27.2782 -0.0925478 29.0799 0.207328 30.0049 1.50148C30.9298 2.79564 30.6301 4.59734 29.3358 5.52229C24.2741 8.70707 18.9619 11.4845 14.2816 15.0851C11.2588 17.4106 8.52833 20.0711 6.27996 23.3142C5.26193 24.9439 4.53763 26.4771 4.16218 27.942C3.87259 29.072 3.81652 30.15 3.88362 31.1622C3.91913 31.6976 4.00319 32.2115 4.13082 32.7053C4.6729 32.0631 5.33072 31.4644 6.10792 30.9237C9.83467 28.3308 16.0821 26.9302 21.765 27.222C24.2249 27.3482 26.564 27.7212 28.5609 28.5189C30.6421 29.3504 32.3392 30.6072 33.4856 32.3689C35.3995 35.3102 35.7106 39.759 32.939 46.1947C32.0643 48.2022 28.8733 49.7967 24.3946 49.8295C21.8097 49.8486 18.7397 49.4464 15.7235 48.4556C12.9678 47.5503 10.2706 46.1569 7.94646 44.4344C5.99553 42.9885 4.30844 41.3176 3.05244 39.4374C2.71409 39.0999 2.45697 38.681 2.31324 38.2126V38.2126ZM7.94755 38.2803C9.95794 39.9527 12.5315 41.1065 15.1453 42.0586C17.08 42.7634 19.0518 43.309 20.9211 43.6898C23.4576 44.2064 25.7717 44.5016 27.4582 44.2099C27.8154 44.1481 28.1418 44.1085 28.4054 43.9879C28.4758 43.9556 28.6081 43.9121 28.6081 43.9121C28.6081 43.9121 28.6108 43.9906 28.593 44.0217C30.6885 40.3665 31.4314 37.555 30.9324 35.3613C30.4942 33.4352 29.1913 32.0652 27.4034 31.2253C26.4371 30.7714 25.3491 30.4391 24.1893 30.2746C23.0758 30.1166 21.9012 30.1134 20.7179 30.2074C17.2048 30.4865 13.6319 31.7394 11.0028 33.4232C9.25482 34.5427 7.97489 35.8482 8.10018 37.3432C8.10018 37.6708 8.04676 37.986 7.94755 38.2803Z" fill="#7400BD"/></svg>