<svg width="100" height="89" viewBox="0 0 100 89" fill="none" xmlns="http://www.w3.org/2000/svg"><path fill-rule="evenodd" clip-rule="evenodd" d="M45.6496 48.6545C46.2853 48.5296 46.9315 48.8937 47.1427 49.5294C47.3698 50.2131 47.0007 50.9552 46.3131 51.1835C45.8302 51.2863 45.1429 51.2683 44.3846 50.8758C43.5511 50.4426 42.5432 49.6446 41.6447 49.0647C41.2533 48.8131 40.879 48.6254 40.6081 48.5266C40.171 48.4214 39.6721 48.4516 39.1547 48.5003C38.3207 48.5842 37.4927 48.8468 36.8002 49.0725L34.9149 49.6983C34.3025 49.8811 33.6376 49.6833 33.228 49.1915C32.8159 48.7045 32.7353 48.0173 33.0205 47.4425L33.3758 46.943C33.6644 46.5887 33.9259 46.2516 34.1309 45.8307C34.3481 45.3851 34.5642 44.9605 34.7581 44.4817C34.8865 44.1641 34.9756 43.8268 35.1176 43.5007L36.611 40.7562C36.8506 40.2048 37.0089 39.6435 37.1339 39.0685C37.332 38.1452 37.4181 37.2057 37.5448 36.2527C37.6822 35.6038 38.3145 35.1847 38.9635 35.3221C39.615 35.4547 40.0318 36.0919 39.8944 36.7407C39.6187 37.7144 39.3749 38.6734 39.0462 39.6114C38.8103 40.2724 38.5509 40.9248 38.1917 41.5487C37.8104 42.2416 37.3319 42.7533 36.9481 43.3649C36.8161 43.5728 36.6976 43.7968 36.6049 44.0492C36.5283 44.288 36.4529 44.5182 36.4219 44.7583C36.3536 45.2447 36.3322 45.7113 36.3119 46.1694C37.1853 46.1298 38.22 46.1187 39.2101 46.2701C39.9564 46.3794 40.6608 46.5231 41.2419 46.8144C41.5165 46.9243 41.8562 47.1316 42.2587 47.3427C42.8718 47.6685 43.6277 48.0413 44.3405 48.3463C44.8428 48.5612 45.5575 48.3896 45.6496 48.6545Z" fill="#7400BD"/><path fill-rule="evenodd" clip-rule="evenodd" d="M47.2796 39.4378L48.4564 39.0389C48.9961 38.8105 49.5592 38.6277 50.1088 38.4166C50.9985 38.0802 51.8808 37.7709 52.7838 37.6353C53.9061 37.4679 55.0232 37.5813 56.1596 38.0247C56.8047 38.3481 57.0662 39.1353 56.744 39.7839C56.4205 40.4288 55.6332 40.6902 54.9844 40.368C54.1462 39.8461 53.2545 39.6579 52.3319 39.7467C51.7122 39.8088 51.0765 39.9336 50.4789 40.173C50.0611 40.3363 49.679 40.5699 49.2908 40.7849C49.1047 40.9041 47.1745 42.1111 46.3844 42.5868C45.142 43.3316 44.1667 41.977 44.147 41.9302C43.8718 41.2994 43.8361 40.1417 44.1085 38.886C44.205 38.4477 44.3558 37.9996 44.5213 37.5713C44.7696 36.9226 45.1237 36.3947 45.2141 35.9257C45.3183 35.3125 45.4668 34.7216 45.4983 34.0874C45.5498 33.1799 45.4523 32.2562 45.3671 31.3325C45.143 29.027 44.6799 26.731 44.181 24.5495C44.0671 23.8979 44.5051 23.2765 45.1568 23.1628C45.8085 23.049 46.43 23.4869 46.5439 24.1385C46.7183 25.6768 46.8139 27.2618 46.9033 28.8653C46.9952 30.4392 46.9564 32.0277 47.1001 33.5721C47.1731 34.385 47.3644 35.1462 47.4756 35.9259C47.6018 36.6021 47.6081 37.5356 47.4666 38.5304C47.4207 38.837 47.3526 39.1386 47.2796 39.4378Z" fill="#7400BD"/><path fill-rule="evenodd" clip-rule="evenodd" d="M45.9037 21.6132C47.2952 24.159 48.4587 26.8092 49.4508 29.5368C49.7505 30.3646 50.0698 31.1901 50.2881 32.045C50.7124 33.6931 50.8067 35.3606 51.2803 36.9965C51.3981 37.4005 51.5689 37.7911 51.72 38.1841C52.863 40.3405 54.2747 42.4282 55.5434 44.5921C55.8532 45.1171 56.1569 45.6481 56.4125 46.1952C57.2972 48.068 57.9023 49.9886 58.3733 51.8264C58.6004 52.5102 59.3439 52.8829 60.0314 52.6547C60.7153 52.4277 61.0881 51.6844 60.861 51.0006C60.1853 49.3743 59.2683 47.7749 58.3747 46.0855C58.0195 45.4115 57.668 44.7239 57.3522 44.0204C56.3103 41.6992 55.4421 39.2956 54.6959 36.9377C54.4968 36.5237 54.3297 36.095 54.1208 35.6884C53.5063 34.5055 52.7586 33.453 52.1822 32.2492C51.9402 31.7428 51.7215 31.2204 51.5287 30.6894C50.9257 29.0225 50.4596 27.3103 49.906 25.6312C49.345 23.9176 48.768 22.2175 48.0567 20.5579C47.7654 19.9653 47.0476 19.7194 46.4511 20.0118C45.8583 20.3029 45.6125 21.0206 45.9037 21.6132Z" fill="#7400BD"/><path fill-rule="evenodd" clip-rule="evenodd" d="M64.075 18.7365C64.6761 19.8665 65.1957 21.1096 65.5976 21.9857C66.2967 23.4975 67.5948 24.7736 68.501 26.192C68.7678 26.6123 69.0125 27.0399 69.2029 27.4896C69.9782 29.1936 70.5773 31.0341 71.1382 32.8832C71.6953 34.7211 72.2143 36.5677 72.6471 38.3525C73.0505 39.9995 73.1982 43.508 72.1822 45.5769C71.7464 46.4642 71.0855 47.1063 70.2697 47.4674C69.3307 47.8899 68.0903 47.9118 66.501 47.1673C65.5014 46.6538 64.5503 45.7057 63.8274 44.4439C62.6079 42.3169 61.9288 39.3705 61.3062 37.7184C60.7707 36.341 60.208 35.0178 59.5516 33.7462C58.5253 31.7562 57.377 29.8682 56.4432 27.8352C55.7747 26.3912 55.1827 24.893 54.762 23.256C53.7402 19.3646 54.3766 16.4124 55.8672 15.1298C57.4601 13.7598 60.3249 13.9085 63.95 17.1121C64.4126 17.5412 64.4599 18.2518 64.075 18.7365ZM60.0688 17.0792C59.7119 16.8694 59.3709 16.7077 59.0458 16.594C58.2775 16.332 57.6395 16.3387 57.171 16.7075C56.0073 17.6273 55.8188 19.8892 56.4721 22.8442C56.9464 24.9148 57.6859 26.7826 58.5732 28.5643C59.2676 29.9628 60.0199 31.3257 60.8289 32.6739C61.6415 34.0331 62.5183 35.3629 63.289 36.8058C63.9921 38.0824 64.921 40.2238 66.0164 42.0267C66.3927 42.6404 66.7948 43.1963 67.2106 43.6573C67.4481 43.915 67.6744 44.1517 67.9416 44.2887C68.4561 44.5651 68.8205 44.7478 69.1298 44.6164C69.5316 44.442 69.7513 43.9916 69.9255 43.4783C70.4581 41.9433 70.4813 39.8881 70.315 38.819C69.981 36.7017 69.6275 34.4761 69.0288 32.3277C68.635 30.9074 68.1217 29.535 67.5405 28.2302C67.3771 27.8864 67.173 27.5561 66.9479 27.2369C65.9198 25.7851 64.4789 24.5113 63.6467 22.9574C63.1821 22.1023 62.5639 20.859 61.8654 19.7819C61.4584 19.1497 61.0193 18.5814 60.5652 18.2521C60.1947 17.9647 60.0203 17.5138 60.0688 17.0792Z" fill="#7400BD"/><path fill-rule="evenodd" clip-rule="evenodd" d="M75.762 17.2604C75.9669 18.0008 76.4111 19.5726 76.4841 21.4728C76.4973 21.7721 76.4945 22.0849 76.4362 22.3914C76.2925 23.1572 75.8177 23.7293 75.7084 24.5247C75.6662 24.8054 75.7164 25.0924 75.7506 25.3683C75.8531 26.2206 76.106 26.9695 76.1889 27.7504C76.2243 28.1039 76.2707 28.4413 76.2346 28.7652C76.114 29.8475 75.6611 30.6338 75.3514 31.0731C75.0255 31.7229 75.287 32.5101 75.9358 32.8323C76.5808 33.1557 77.3682 32.8943 77.6916 32.2494C77.924 31.5527 77.8194 30.3606 78.0008 28.8806C78.1375 27.7601 78.7189 26.6193 78.8756 25.2993C78.9116 25.0001 78.9415 24.6947 78.8913 24.3954C78.7629 23.5641 78.2673 22.9613 78.1166 22.1619C78.015 21.6335 78.0636 21.1004 78.0666 20.6029C78.0845 18.9269 78.1783 17.5539 78.1261 16.8409C78.0123 16.1893 77.3871 15.7526 76.7366 15.87C76.0849 15.9837 75.6482 16.6089 75.762 17.2604Z" fill="#7400BD"/><path fill-rule="evenodd" clip-rule="evenodd" d="M67.4572 18.6888C67.582 18.3109 67.8793 17.9947 68.2859 17.8598C69.2936 17.7304 70.2453 18.1121 70.8882 19.2815C71.0972 19.6635 71.2802 20.1033 71.5163 20.5297C72.019 21.4502 72.4985 22.3128 72.6664 23.0285C72.7927 23.5569 72.6112 23.9742 72.5221 24.2992C72.3579 24.7066 72.052 25.0338 71.6466 25.234C71.4568 25.3298 71.2559 25.4417 71.0206 25.4377C70.6844 25.4262 70.3505 25.4837 69.9948 25.2899C69.5319 25.0456 69.1182 24.8505 68.7183 24.4498C68.5645 24.2957 68.4156 24.181 68.2643 24.0466C67.7425 23.5632 67.3723 23.0788 67.3865 22.553L67.2743 19.2255C67.2906 19.0273 67.3573 18.8451 67.4572 18.6888ZM69.9385 22.6989C70.0519 22.6449 70.148 22.5637 70.27 22.5232C70.3291 22.5036 70.3625 22.4309 70.3428 22.3841C70.3096 22.3089 70.1877 22.3248 70.1298 22.3605C70.0681 22.3973 70.009 22.4416 69.9584 22.4871L69.9472 22.6262L69.9385 22.6989C69.8793 22.7308 69.8128 22.7529 69.7352 22.7541L69.7278 22.7565C69.7056 22.7885 69.6809 22.8254 69.6611 22.8648C69.6179 22.9202 69.5451 23.0716 69.6338 23.1037C69.8024 23.1667 69.8987 22.987 69.9385 22.6989ZM69.4371 20.5346L69.0235 22.539C69.106 22.5526 69.1809 22.7288 69.3016 22.7708C69.4407 22.819 69.5726 22.7588 69.7278 22.7565C69.7931 22.6569 69.8696 22.5658 69.9584 22.4871C69.9798 22.082 69.9151 21.5659 69.8059 21.2001C69.7273 20.9512 69.5871 20.7269 69.4371 20.5346ZM69.0739 20.3556C69.0862 20.3556 69.101 20.3507 69.1109 20.3434L69.0739 20.3556Z" fill="#7400BD"/><path fill-rule="evenodd" clip-rule="evenodd" d="M79.2871 22.5689L79.353 22.0013C79.5039 21.3562 80.1461 20.9543 80.7914 21.1053C81.3554 21.234 81.7342 21.7442 81.7188 22.3033C82.2335 22.4813 82.7012 22.7897 83.1023 23.2187C83.3902 23.5294 83.6386 23.8819 83.8919 24.2369C84.8081 25.5371 85.1254 27.1224 84.4006 28.7581C84.1105 29.2934 83.7443 29.6735 83.3499 29.8947C83.0825 30.041 82.8138 30.1589 82.5355 30.161C81.8678 30.1651 81.2556 30.1632 80.7535 29.7143C80.3278 29.3345 79.9427 28.9659 79.6748 28.3818C79.5864 28.1896 79.4819 28.0109 79.3922 27.815C79.0776 27.1521 78.8394 26.4351 78.9104 25.7345L79.1192 23.9787C79.0934 23.9257 79.0676 23.8727 79.0492 23.8173C78.9019 23.3738 79.0047 22.9047 79.2871 22.5689ZM81.071 24.4552L80.5841 25.9545C80.5283 26.2931 80.5673 26.6699 80.7431 26.9768C80.823 27.1185 80.9534 27.227 81.0802 27.3245C81.2303 27.4429 81.4225 27.4037 81.5974 27.4482C81.6823 27.4692 81.8118 27.2662 81.8154 27.3512C81.8178 27.3955 81.8822 27.2183 81.8366 27.2293C81.7762 27.2452 81.6348 27.0419 81.684 27.1035C81.7221 27.1565 81.822 27.0741 81.8799 27.0139C82.06 26.8392 82.2818 26.7286 82.3449 26.5107C82.4747 26.0614 82.5897 25.5677 82.366 25.166C82.1398 24.7569 81.6831 24.531 81.2594 24.4419C81.1942 24.4307 81.1301 24.4355 81.071 24.4552Z" fill="#7400BD"/><path fill-rule="evenodd" clip-rule="evenodd" d="M11.2904 13.6402C11.2879 13.8123 11.2832 13.9684 11.2589 14.0872C11.212 14.4582 11.0971 14.8416 10.9656 15.235C10.6902 16.0636 10.2845 16.9019 10.0567 17.5397C9.85743 17.9807 9.33117 18.1799 8.88654 17.9764C8.4415 17.7768 8.24625 17.2511 8.4498 16.8065C8.73859 16.2965 9.1962 15.6712 9.5684 15.0017C9.78091 14.6207 9.97017 14.2373 10.0687 13.86C10.1152 13.5673 10.0576 13.0365 10.1024 12.6497C10.1244 12.4405 10.1901 12.2634 10.2641 12.1185C10.3135 12.0219 10.6695 11.6913 11.2149 11.9054C11.4179 11.9855 11.9149 12.2493 11.949 12.2607C12.5547 12.4969 13.1169 12.885 13.7044 13.1819C13.8903 13.2759 14.0761 13.3346 14.2704 13.3864C14.6182 13.5053 14.9847 13.5948 15.3207 13.7516C16.2834 14.2054 17.0672 14.9067 17.9886 15.4541C18.3719 15.6825 18.7841 15.859 19.1729 16.0723C19.4296 16.2011 19.8868 16.359 20.2401 16.5372C20.489 16.6652 20.6886 16.8154 20.8142 16.9618C20.912 17.0739 20.9941 17.298 20.9824 17.5943C20.9649 17.9097 20.8253 18.4158 20.8015 18.5307C20.6831 19.2074 20.5676 19.7827 20.3846 20.3664C20.2647 20.761 20.1056 21.1554 19.8959 21.5837C19.6783 21.9758 19.1861 22.1119 18.7939 21.8944C18.4059 21.6734 18.2659 21.1809 18.487 20.793C18.7544 20.3748 18.9549 19.9965 19.1144 19.5982C19.2845 19.1737 19.4163 18.7411 19.5627 18.2436C19.5829 18.1635 19.5838 17.7093 19.696 17.5371C19.6554 17.5132 19.611 17.489 19.5666 17.4647C19.2516 17.2945 18.8877 17.1426 18.6732 17.0221C18.3872 16.8745 18.1067 16.7118 17.8104 16.5866C17.6117 16.503 17.4074 16.4345 17.1988 16.3694C16.3293 16.1094 15.451 16.0443 14.5931 15.7856C14.2325 15.6771 13.8943 15.5044 13.5442 15.3696C13.235 15.2196 12.932 15.0467 12.6538 14.8255C12.1845 14.4471 11.7754 13.9811 11.2904 13.6402Z" fill="#7400BD"/><path fill-rule="evenodd" clip-rule="evenodd" d="M14.6155 18.3757C14.6043 18.073 14.5571 17.7782 14.6073 17.4507C14.6285 17.3237 14.6402 17.1761 14.7217 17.0711C14.9301 16.8033 15.1696 16.9461 15.3789 16.6705C15.4245 16.6088 15.4378 16.5201 15.4421 16.4422C15.4579 16.0327 15.176 15.772 15.2401 15.3872C15.2941 15.0601 15.5254 14.873 15.6641 14.5978C15.7151 14.1137 15.3655 13.6775 14.8774 13.6261C14.3933 13.5751 13.9565 13.9284 13.9054 14.4125C13.97 14.6543 14.1476 14.8649 14.0768 15.1276C13.978 15.4696 13.6257 15.5421 13.4059 15.844C13.3743 15.8837 13.3388 15.923 13.3296 15.973C13.3212 16.0152 13.3378 16.0443 13.3492 16.0847C13.4478 16.4123 13.6657 16.4626 13.6612 16.8028C13.6573 17.0256 13.4966 17.2123 13.3944 17.4012C13.2765 17.6277 13.1558 17.8068 13.04 18.0139C12.9392 18.4497 13.2104 18.8855 13.6467 18.9823C14.0826 19.0831 14.519 18.808 14.6155 18.3757Z" fill="#7400BD"/><path fill-rule="evenodd" clip-rule="evenodd" d="M8.10715 22.8579C8.11549 22.9645 8.11915 23.0784 8.12708 23.1889C8.14272 23.5234 8.15713 23.8695 8.15524 24.2217C8.15204 25.032 8.09603 25.8602 8.09244 26.5999C8.04138 27.084 7.60847 27.4378 7.12039 27.3864C6.63617 27.3354 6.28271 26.8987 6.33376 26.4146C6.5072 25.5871 6.87416 24.6703 6.93059 23.7638C6.95144 23.4175 6.8928 23.0824 6.80416 22.7715C6.72692 22.5754 6.56537 21.8418 6.55892 21.3829C6.55797 20.9834 6.77677 20.7284 6.92645 20.5719C7.00169 20.4897 7.50777 20.222 8.08958 20.6474C8.15869 20.6978 8.34887 21.0115 8.42351 20.898C8.44737 20.8575 8.41495 20.8305 8.36969 20.814L8.23657 20.7765C8.2594 20.7828 8.32097 20.7932 8.36969 20.814C8.85777 20.9398 9.32502 21.1144 9.76516 21.3604C9.93172 21.4524 10.0928 21.5595 10.2449 21.6773C10.4583 21.8447 10.625 22.0463 10.8462 22.2145C11.1693 22.456 11.4602 22.706 11.8349 22.8669C12.0782 22.9747 12.3406 23.0494 12.605 23.1046C14.204 23.4297 15.9384 23.2874 17.4659 23.3622C17.9114 23.4092 18.2336 23.8073 18.1867 24.2526C18.1401 24.6942 17.7415 25.0202 17.296 24.9733L10.1324 23.7839C9.70465 23.6801 9.30482 23.5714 8.91666 23.3896C8.76009 23.3143 8.61762 23.2171 8.47859 23.1241C8.35077 23.0362 8.2311 22.9453 8.10715 22.8579ZM7.03101 21.9574C6.988 21.8824 6.94214 21.8345 6.89973 21.8653C6.83978 21.9138 6.97026 21.9392 7.03101 21.9574Z" fill="#7400BD"/><path fill-rule="evenodd" clip-rule="evenodd" d="M7.99416 30.364C7.94989 30.5238 7.9097 30.645 7.9097 30.645C7.89431 31.1994 7.83571 31.7923 7.83255 32.3794C7.8276 32.7235 7.86302 33.0562 7.92678 33.3801C7.96951 33.8662 7.61488 34.2948 7.1282 34.3414C6.64152 34.3881 6.20932 34.0293 6.16659 33.5431C6.16644 33.2103 6.19344 32.8802 6.24487 32.541C6.35631 31.8558 6.53871 31.1662 6.66625 30.514C6.66665 30.5101 6.73427 29.7575 6.77652 29.4682C6.83531 29.0593 7.12527 28.9098 7.19093 28.8814C7.27289 28.847 7.41171 28.8303 7.6005 28.8228C7.98931 28.8128 8.83684 28.91 9.10739 28.9072C10.1299 28.9052 11.1316 28.8776 12.124 29.0487C12.3819 29.0916 12.6319 29.1728 12.8814 29.2578C13.2637 29.3842 13.607 29.5457 13.9881 29.6837C14.3355 29.8064 14.661 29.9504 15.0258 30.0202C15.5701 30.1324 16.1298 30.1365 16.679 30.2022C16.7686 30.2077 17.4915 30.186 17.7826 30.248C18.0092 30.2914 18.1372 30.4145 18.2038 30.4881C18.2878 30.5831 18.3441 30.7183 18.3648 30.8928C18.3913 31.0874 18.4832 31.6649 18.2954 31.6999C18.4517 32.2607 18.5574 32.7066 18.7245 33.2019C18.8268 33.4946 18.955 33.8018 19.1282 34.1647C19.2957 34.5817 19.0893 35.0534 18.6764 35.2174C18.2597 35.3811 17.7875 35.1786 17.6239 34.7619C17.479 34.3159 17.3818 33.9376 17.3097 33.5815C17.1968 33.0175 17.1398 32.518 17.0356 31.8727C17.0239 31.797 16.9936 31.602 16.9896 31.4175C16.7914 31.3653 16.5995 31.2902 16.5651 31.2827C16.1119 31.235 15.6537 31.1593 15.1921 31.1537C14.7069 31.1496 14.2379 31.2137 13.7515 31.2212C13.3382 31.2403 12.947 31.2735 12.5365 31.2655C12.2707 31.261 12.0056 31.2487 11.7477 31.2059C10.7944 31.035 9.90367 30.6788 8.94239 30.4718C8.79682 30.4408 8.34728 30.4326 7.99416 30.364Z" fill="#7400BD"/><path fill-rule="evenodd" clip-rule="evenodd" d="M11.6021 30.777C11.294 30.6153 11.099 30.2736 11.1378 29.9057C11.1888 29.4216 11.6256 29.0682 12.1098 29.1193C12.2894 29.2361 12.5616 29.1433 12.6451 29.391C12.6696 29.4562 12.7544 29.4691 12.7686 29.5567C12.8037 29.7445 12.7147 30.0679 12.7964 30.5934C12.8434 30.9273 13.1853 31.0651 13.3002 31.461C13.3204 31.5297 13.3355 31.6096 13.3087 31.6773C13.1841 32.0048 12.9281 31.9074 12.8016 32.2151C12.7498 32.335 12.7824 32.4715 12.7977 32.5867C12.8622 33.0516 13.0196 33.3424 13.0353 33.3793C13.0627 33.8246 12.7246 34.208 12.2788 34.2393C11.8329 34.2706 11.4456 33.9323 11.4181 33.4869C11.4261 33.4486 11.5325 33.1818 11.6415 32.7429C11.6713 32.609 11.7341 32.459 11.7078 32.2996C11.6997 32.2283 11.6693 32.182 11.6247 32.1224C11.4612 31.8898 11.3279 31.9659 11.1862 31.7121C11.1632 31.6705 11.1491 31.6181 11.1544 31.5678C11.2083 31.2054 11.5563 31.0619 11.6021 30.777ZM11.7633 30.8449C11.8104 30.8811 11.863 30.9023 11.9244 30.8775C11.8701 30.8717 11.8125 30.8618 11.7633 30.8449ZM11.3677 30.3998C11.3679 30.4351 11.3524 30.5078 11.3782 30.5223C11.4563 30.5619 11.4367 30.6734 11.506 30.6846C11.5444 30.6925 11.578 30.7079 11.6074 30.7266C11.6135 30.5941 11.5124 30.513 11.4586 30.429C11.4421 30.3998 11.3948 30.4027 11.3677 30.3998Z" fill="#7400BD"/><path fill-rule="evenodd" clip-rule="evenodd" d="M18.2854 40.3154L18.7695 38.7335C18.7828 38.3472 18.6475 37.9218 18.3472 37.5378C17.8845 36.9486 17.0917 36.4069 16.6196 36.2045C15.9074 35.8631 15.1154 35.6857 14.3381 35.4433C13.5417 35.1949 12.8031 34.8821 11.9764 34.7363C11.6956 34.6871 11.4137 34.6496 11.1311 34.6551C10.6993 34.6644 10.2847 34.7696 9.87614 34.8558C9.06995 35.0723 8.17813 35.2094 7.5246 35.6496C6.9975 36.0052 6.54888 36.471 6.42315 37.2918C6.22262 37.9677 6.20034 38.5136 6.22818 39.0295C6.26557 39.7892 6.47625 40.4653 6.64837 41.3959C6.78306 41.8643 7.27109 42.1389 7.73964 42.0043C8.20778 41.8734 8.48291 41.3816 8.3521 40.9136C8.03744 40.109 7.68504 39.551 7.55691 38.8718C7.48296 38.496 7.48628 38.093 7.58709 37.5828C7.71376 37.2359 7.95068 37.069 8.21636 36.9638C8.78849 36.7383 9.50637 36.8765 10.1576 36.8668C10.4891 36.843 10.8235 36.8665 11.1619 36.8513C11.3038 36.8427 11.4465 36.8264 11.5858 36.8058C12.3332 36.7005 13.0362 36.4966 13.7931 36.5254C14.0426 36.536 14.2867 36.5618 14.5278 36.6146C15.0903 36.7404 15.6177 36.9761 16.1195 37.2326C16.3602 37.3636 16.715 37.6399 17.0063 37.9603C17.1954 38.1722 17.3837 38.3917 17.3501 38.5996L16.7931 39.6844C16.6203 40.0969 16.8131 40.5715 17.2253 40.7481C17.6341 40.9204 18.1127 40.728 18.2854 40.3154Z" fill="#7400BD"/><path fill-rule="evenodd" clip-rule="evenodd" d="M15.8754 42.3622C15.5902 41.9837 15.6587 41.4466 16.0269 41.1487C16.408 40.8403 16.9658 40.8991 17.2703 41.2796C17.3492 41.4603 17.4848 41.6234 17.4715 41.8608C17.4567 42.2234 17.2219 42.7038 17.1525 43.2134C17.1348 43.3446 17.1931 43.4604 17.2247 43.5695C17.2334 43.5978 17.2779 43.6221 17.2779 43.6221C17.2779 43.6221 17.3327 43.5848 17.3184 43.5716C17.4952 43.7899 17.6737 43.9536 17.8213 44.1884C17.8781 44.2805 17.9346 44.3765 17.955 44.4805C18.0263 44.9187 17.7545 45.2308 17.8417 45.6668C17.9111 46.0109 18.151 46.2985 18.3467 46.5971C18.5346 46.8949 18.7623 47.1499 18.9953 47.429C19.213 47.8161 19.0785 48.311 18.687 48.5321C18.2998 48.7498 17.8049 48.6154 17.5837 48.224C17.4609 47.8665 17.3635 47.5273 17.2479 47.1745C17.1312 46.8332 17.0547 46.4806 16.8843 46.1651C16.8291 46.0574 16.7559 45.9714 16.6711 45.8841C16.4271 45.6352 16.186 45.5824 15.972 45.3092C15.9135 45.2326 15.876 45.1425 15.8505 45.0498C15.7731 44.744 15.8188 44.4591 15.8015 44.1401C15.7783 43.84 15.8822 43.4868 15.9772 43.0308C16.0266 42.7854 15.9796 42.5259 15.9443 42.3029C15.9388 42.2436 15.8551 42.1839 15.8551 42.1839C15.8551 42.1839 15.8428 42.3001 15.8754 42.3622L15.8958 42.3918C15.885 42.3829 15.8781 42.3743 15.8754 42.3622Z" fill="#7400BD"/><path fill-rule="evenodd" clip-rule="evenodd" d="M7.05432 46.5578C7.83825 46.5895 8.59079 46.473 9.35905 46.319C9.66713 46.2575 9.9703 46.168 10.2867 46.1387C10.4368 46.1271 10.5801 46.1422 10.7312 46.1582C11.1186 46.199 11.4134 46.3005 11.8024 46.3258C11.888 46.3309 11.9659 46.3352 12.0497 46.3205C12.1696 46.2979 12.2807 46.247 12.391 46.2038C13.0665 45.9264 13.6326 45.4613 14.3405 45.3597C14.8975 45.2774 15.4333 45.4709 15.974 45.6179C16.4621 45.6694 16.895 45.3155 16.946 44.8314C16.9975 44.3434 16.6475 43.911 16.1594 43.8596C15.4976 43.8956 14.8939 44.0866 14.2388 44.1703C14.0127 44.1974 13.7911 44.1818 13.5648 44.1736C13.0292 44.1642 12.5315 44.0922 11.9906 44.1331C11.813 44.1457 11.6281 44.1537 11.4607 44.2183C10.9984 44.4045 10.7541 44.7899 10.3057 44.9933C10.1367 45.0734 9.95582 45.117 9.7762 45.149C8.93943 45.2841 8.11331 45.1696 7.30127 44.9588C6.85824 44.8886 6.44612 45.1937 6.37591 45.6366C6.30998 46.0761 6.61089 46.4915 7.05432 46.5578Z" fill="#7400BD"/><path fill-rule="evenodd" clip-rule="evenodd" d="M18.4914 49.2412C17.707 49.6598 16.8771 50.0266 15.9668 50.1539C15.7557 50.1865 15.5467 50.1997 15.3337 50.1772C14.939 50.1317 14.6472 49.964 14.2597 49.8879C14.1025 49.8557 13.9577 49.8169 13.7995 49.8316C13.0243 49.9026 12.3622 50.2754 11.6665 50.5584C11.533 50.5992 11.3532 50.6703 11.1473 50.6917C10.6645 50.7387 10.1046 50.6993 9.65971 50.7581C9.34205 50.7991 9.10574 50.923 8.90245 51.0308C8.52521 51.3396 8.4664 51.8973 8.77134 52.274C9.07975 52.655 9.63755 52.7138 10.0148 52.405C10.1747 52.2261 10.5411 52.0572 10.9195 51.96C11.0806 51.9182 11.2374 51.8799 11.384 51.864C11.5895 51.8465 11.7681 51.8614 11.91 51.8529C12.6177 51.8648 13.2959 52.0811 14.0238 52.0129C14.1347 52.0011 14.233 51.9605 14.3352 51.9204C14.7923 51.7454 15.1108 51.4735 15.5702 51.3143C15.7003 51.2693 15.8357 51.2483 15.9706 51.2312C17.0508 51.0904 18.1127 51.0496 19.1171 50.7364C19.5273 50.5603 19.7221 50.0875 19.5503 49.6738C19.3781 49.2641 18.9051 49.0694 18.4914 49.2412Z" fill="#7400BD"/><path fill-rule="evenodd" clip-rule="evenodd" d="M19.146 51.9539C19.0979 51.8157 19.0688 51.609 18.9797 51.4508C18.63 50.8305 18.1267 50.2175 18.0886 50.1704C17.8546 49.7894 17.9739 49.289 18.355 49.0551C18.7322 48.8207 19.2328 48.94 19.4668 49.321C19.5128 49.4042 20.3554 50.9222 20.4643 51.7834C20.5462 52.4186 20.3408 52.8434 19.9033 52.9813C19.6886 53.0488 19.3652 53.0695 18.9754 53.0519C18.527 53.0321 17.9904 52.9207 17.4693 52.8854C16.7692 52.8391 16.1626 52.8339 15.8103 52.7576C15.7836 52.7509 15.5198 52.6527 15.2006 52.4859C15.1616 52.6697 15.1037 52.8477 15.0168 53.003C14.7676 53.5093 14.449 53.8556 14.1252 54.1778C13.4511 54.8508 12.6314 55.2695 11.9268 55.9707C11.5461 56.2751 10.9922 56.2168 10.6834 55.8397C10.375 55.4586 10.4338 54.901 10.8149 54.5926C11.5371 54.1322 12.3535 53.9676 13.0311 53.5221C13.1699 53.431 13.3066 53.324 13.4151 53.1867C13.5594 53.0061 13.6235 52.77 13.6947 52.5034C13.727 52.3463 13.6456 52.1889 13.6167 52.0175C13.5664 51.7146 13.5273 51.4168 13.5188 51.1261C13.5119 50.8943 13.5812 50.6824 13.6394 50.4653C13.7373 50.131 14.2655 49.6541 15.1831 49.9779C15.4171 50.0613 15.8126 50.2478 16.1333 50.5126C16.4068 50.7412 16.5972 51.0157 16.7016 51.1403C16.7154 51.1574 16.7285 51.1823 16.7285 51.1823C16.7285 51.1823 16.6241 51.1322 16.6098 51.1189C16.7715 51.2573 17.011 51.4744 17.3698 51.6376C17.5717 51.7293 17.7859 51.8145 18.0155 51.8661C18.4212 51.9558 18.8373 51.984 19.146 51.9539ZM14.46 51.8948C14.386 51.8166 14.3234 51.7787 14.2902 51.8339C14.2339 51.9219 14.3439 51.9179 14.46 51.8948ZM15.3608 51.4494C15.3936 51.398 15.4303 51.3471 15.4636 51.2918C15.4307 51.3432 15.379 51.3886 15.3608 51.4494Z" fill="#7400BD"/><path fill-rule="evenodd" clip-rule="evenodd" d="M21.0345 53.7978C20.4642 54.0432 19.9139 54.322 19.345 54.591C18.7924 54.8538 18.2621 55.1661 17.6808 55.3672C17.5142 55.4241 17.347 55.4495 17.172 55.4742C16.7341 55.5416 16.3563 55.5214 15.9214 55.597C15.8256 55.6143 15.7293 55.6354 15.6353 55.6725C15.5006 55.7249 15.3819 55.8103 15.2563 55.8871C14.5053 56.3601 13.8397 56.8774 13.1077 57.3564C12.6993 57.4778 12.2827 57.7511 11.8549 57.9449C11.6785 58.0203 11.5006 58.0368 11.3444 58.0321C10.8596 58.0985 10.5223 58.5485 10.589 59.0293C10.6593 59.5145 11.1055 59.8513 11.5908 59.781C11.7974 59.7166 12.0121 59.6492 12.2143 59.5139C12.6686 59.2171 13.1124 58.7235 13.5754 58.4551C13.8301 58.3801 14.0735 58.3 14.3313 58.2332C14.9395 58.074 15.5318 57.9916 16.142 57.8131C16.2795 57.7727 16.4208 57.7328 16.5529 57.6684C16.6399 57.6228 16.7166 57.5643 16.7937 57.5019C17.132 57.2282 17.3596 56.9271 17.6944 56.6491C17.831 56.5421 17.956 56.4339 18.1134 56.3526C18.6371 56.0671 19.2247 55.9175 19.7911 55.7462C20.3618 55.5714 20.9337 55.4593 21.5138 55.3442C21.9428 55.2132 22.1785 54.7603 22.0475 54.3314C21.9161 53.9064 21.4635 53.6668 21.0345 53.7978Z" fill="#7400BD"/><path fill-rule="evenodd" clip-rule="evenodd" d="M16.3882 62.7546C16.5115 62.8107 16.6623 63.0145 16.7341 63.0769C17.3502 63.549 18.0336 63.6054 18.6454 63.8578C18.8666 63.9516 19.0733 64.0712 19.2819 64.2107C19.6561 64.5242 19.707 65.0817 19.3934 65.4559C19.0836 65.8305 18.526 65.8814 18.1513 65.5718C17.6525 65.065 16.9907 64.8778 16.3997 64.4279C16.2256 64.296 16.0481 64.1598 15.8901 63.9865C15.7837 63.8813 15.5152 63.716 15.3788 63.5606C15.2467 63.4018 15.174 63.2375 15.1589 63.0832C15.0444 62.4603 15.2392 61.9874 15.5113 61.5618C15.9701 60.8505 16.9354 60.3883 17.5255 59.7691C17.6821 59.6212 17.7739 59.4194 17.9093 59.2496C18.0319 59.0902 18.1683 58.948 18.3121 58.8104C18.6175 58.5137 18.9159 58.2475 19.2964 58.0565C19.8157 57.7745 20.3309 57.6056 20.8617 57.4383C21.684 57.1803 22.4912 56.9912 23.2912 57.0559C24.6894 57.168 25.9685 57.8901 26.8003 59.3248C27.0012 59.7219 26.8401 60.2101 26.439 60.4106C26.0379 60.6111 25.5535 60.4504 25.353 60.0495C24.9071 59.004 24.1012 58.363 23.154 58.2084C22.5452 58.1129 21.8679 58.1473 21.2756 58.453C20.8951 58.6439 20.6243 58.9835 20.329 59.3322C20.1757 59.5236 20.1202 59.7527 20.0074 59.968C19.9142 60.1461 19.8326 60.3254 19.7217 60.4861C19.4767 60.8401 19.1639 61.1322 18.825 61.3745C18.4816 61.585 18.0861 61.7704 17.6697 61.9302C17.3633 62.0506 17.0524 62.1393 16.7995 62.3084C16.6225 62.4268 16.4602 62.5546 16.3882 62.7546Z" fill="#7400BD"/><path fill-rule="evenodd" clip-rule="evenodd" d="M21.209 68.6604C21.0721 69.0298 20.698 69.2723 20.2912 69.2294C19.8031 69.178 19.4531 68.7456 19.5046 68.2576C19.5742 68.0065 19.6914 67.6743 20.0393 67.4212C20.4763 67.103 21.2448 66.7611 21.5584 66.5357C22.0638 65.8292 22.5599 65.1727 23.1629 64.5432C23.2425 64.4576 23.322 64.372 23.4192 64.3039C23.5165 64.2358 23.6191 64.1918 23.7337 64.1452C24.1229 63.9825 24.4723 63.9371 24.865 63.7787C25.0165 63.7164 25.1603 63.6532 25.2992 63.5622C25.7671 63.2473 26.1597 62.8305 26.5579 62.4339C26.9519 62.0407 27.3018 61.6194 27.6534 61.1827C27.9687 60.8674 28.4814 60.8705 28.7968 61.1856C29.1117 61.5047 29.1086 62.0173 28.7933 62.3326C28.3274 62.7025 27.8457 63.0355 27.3586 63.3836C26.8882 63.7217 26.387 64.0174 25.9582 64.4069C25.8328 64.519 25.7337 64.6417 25.6333 64.776C25.3827 65.1099 25.2503 65.4366 24.9954 65.7739C24.9267 65.8685 24.8583 65.9592 24.7719 66.0362C24.6858 66.1094 24.5864 66.1616 24.4903 66.218C23.7803 66.6366 23.0724 66.9615 22.3797 67.4015C22.1413 67.6935 21.6066 68.7532 21.209 68.6604ZM21.2616 68.4584C21.262 68.4545 21.2625 68.4507 21.2633 68.4429L21.2616 68.4584Z" fill="#7400BD"/><path fill-rule="evenodd" clip-rule="evenodd" d="M31.0747 63.6086C31.066 63.6546 31.0525 63.708 31.0725 63.7414C31.1689 63.9043 31.2984 64.0511 31.3893 64.1547C31.7923 64.3068 32.2251 64.3993 32.6897 64.6363C32.7829 64.6813 32.8839 64.7272 32.9501 64.8047C33.18 65.0756 33.0901 65.3715 33.3011 65.6366C33.3669 65.7179 33.446 65.7849 33.531 65.8331C33.66 65.9093 33.8025 65.9322 33.9357 65.9697L35.1784 65.9596C35.621 66.0337 35.9175 66.4526 35.8439 66.8913C35.7698 67.3338 35.3508 67.6303 34.9081 67.5563L33.5511 67.0531C33.3299 66.9593 33.1243 66.7927 32.8725 66.6917C32.7971 66.6642 32.7282 66.6491 32.6468 66.6406C32.2753 66.5975 32.0147 66.6915 31.6555 66.5322C31.5469 66.4855 31.4633 66.3866 31.3866 66.2963C31.0346 65.8833 30.8563 65.4573 30.6223 65.0763C30.3143 64.9147 29.8735 64.5627 29.6051 64.2486C29.4241 64.0337 29.442 63.789 29.3995 63.5613C29.4505 63.0772 29.8834 62.7233 30.3715 62.7748C30.848 62.825 31.1953 63.2453 31.1567 63.7229C31.1598 63.731 31.1589 63.7388 31.1581 63.7465L31.1567 63.7229C31.1527 63.6872 31.1059 63.6471 31.0747 63.6086Z" fill="#7400BD"/><path fill-rule="evenodd" clip-rule="evenodd" d="M28.9003 65.277C28.9933 64.8404 29.4054 64.5353 29.8586 64.583C30.3428 64.6341 30.6963 65.0707 30.6452 65.5548C30.5642 65.84 30.44 66.1636 30.1262 66.4282C29.7649 66.7347 29.2085 66.9972 28.799 67.3143C28.6495 67.4317 28.56 67.575 28.4982 67.6781C28.2524 68.1887 28.0263 68.6621 27.733 69.1403C27.606 69.3423 27.5009 69.5584 27.3237 69.7159C26.9051 70.083 26.395 70.1663 25.9148 70.4485C25.7305 70.5623 25.5569 70.6849 25.3895 70.8239C24.9772 71.1682 24.6147 71.5607 24.2193 71.9302C23.82 72.2993 23.4289 72.6654 23.0076 73.0204C22.6369 73.2672 22.1309 73.163 21.8841 72.7924C21.6377 72.4179 21.7415 71.9159 22.1122 71.6691C22.9798 71.2044 23.8411 70.7626 24.5696 70.1306C24.734 69.9834 24.8875 69.8273 25.016 69.649C25.3421 69.1939 25.3787 68.6613 25.719 68.2194C25.851 68.0453 26.0388 67.9359 26.2101 67.7973C26.6211 67.4647 27.0338 67.191 27.4415 66.8541C27.572 66.7308 27.7571 66.6093 27.9696 66.4516C28.1015 66.3519 28.2363 66.2252 28.3672 66.098C28.6248 65.8471 28.6839 65.2855 28.9003 65.277Z" fill="#7400BD"/><path fill-rule="evenodd" clip-rule="evenodd" d="M41.8842 70.1014C41.9547 70.3986 41.1416 70.7554 40.9371 70.8748C40.6744 71.0625 40.3767 71.2113 40.1151 71.4265C39.5234 71.9124 39.0492 72.5086 38.5297 73.0529C38.1491 73.3927 37.8151 73.6629 37.5205 73.7455C37.0077 73.8912 36.5482 73.8662 36.2595 73.5578C36.0094 73.2926 35.5952 72.9122 35.7511 72.0279L36.0366 70.9929L36.1322 69.5659L36.2786 67.1378C36.3604 66.6961 36.7829 66.4039 37.2247 66.4856C37.6626 66.567 37.9549 66.9894 37.8731 67.4311L37.3059 69.6895L37.1018 71.1051C37.1061 71.2505 37.0812 71.4123 37.0907 71.5817L37.0956 71.6096C37.1762 71.5516 37.2691 71.487 37.3484 71.4405C38.0258 71.1085 38.7592 70.8764 39.4025 70.4586C39.6678 70.2829 39.8768 70.0465 40.0985 69.8388C40.1947 69.7432 40.2767 69.4856 40.3976 69.2673C40.5526 68.9861 40.7519 68.7682 40.8995 68.631C41.1289 68.4242 41.3944 68.4326 41.6107 68.424C42.0949 68.475 42.4488 68.9078 42.3973 69.3958C42.3638 69.7133 42.1597 69.9777 41.8842 70.1014ZM37.1392 71.7161C37.1626 71.7538 37.1865 71.7876 37.2022 71.8245C37.2635 71.9484 37.3516 72.0047 37.4066 72.0771C37.4201 72.0981 37.4672 72.0599 37.4672 72.0599C37.4672 72.0599 37.4562 71.9413 37.4113 71.9209C37.3031 71.8704 37.2281 71.7646 37.1392 71.7161ZM36.9661 71.6861C36.8933 71.6706 36.7894 71.6165 36.8146 71.674C36.836 71.7311 36.8919 71.7213 36.9661 71.6861ZM41.4451 70.1804L41.4253 70.1822C41.433 70.1831 41.4369 70.1835 41.4451 70.1804Z" fill="#7400BD"/><path fill-rule="evenodd" clip-rule="evenodd" d="M35.9707 73.7651C35.8642 73.8831 35.6253 73.995 35.5551 74.0659C35.486 74.1643 35.3979 74.2568 35.3465 74.3728C35.1299 74.8669 35.2207 75.4169 34.9711 75.927C34.9362 75.9978 34.8824 76.0626 34.822 76.115C34.5078 76.3834 34.1877 76.3731 33.8851 76.6428C33.6818 76.825 33.5796 77.0883 33.4208 77.2947L32.4711 78.5378C32.1416 78.8399 31.6309 78.8174 31.3288 78.488C31.0267 78.1585 31.0496 77.6441 31.3791 77.342L32.5234 76.5933C32.6721 76.4092 32.8737 76.2425 32.9606 76.0128C33.0924 75.6547 32.9218 75.3782 33.0165 75.0006C33.032 74.9278 33.063 74.8567 33.1086 74.7949C33.4053 74.3954 33.8172 74.2039 34.1616 73.8721C34.2395 73.802 34.3127 73.7392 34.3686 73.655C34.4279 73.5751 34.4575 73.4804 34.5022 73.3911C34.5458 73.2743 34.5734 73.0501 34.6342 72.845C34.6797 72.6736 34.7896 72.5599 34.8616 72.4343C35.0482 72.1133 35.3907 72.1337 35.7018 72.0804C36.186 72.1314 36.5395 72.568 36.4884 73.0521C36.4541 73.3775 36.2461 73.6414 35.9707 73.7651ZM35.6455 73.8405C35.6021 73.8437 35.559 73.8431 35.5164 73.8386C35.5616 73.8551 35.6047 73.8558 35.6455 73.8405Z" fill="#7400BD"/><path fill-rule="evenodd" clip-rule="evenodd" d="M50.3943 80.5163C50.6528 80.6649 50.8184 80.9526 50.7969 81.2675C50.7467 81.7439 50.9084 82.3639 50.7658 82.7875C50.6808 83.037 50.5513 83.2622 50.3264 83.4265C49.9357 83.7142 49.5769 83.6999 49.2713 83.3662C49.1168 83.1972 48.9518 82.7569 48.9426 82.5092C48.9325 82.234 48.9468 81.9497 48.9766 81.667C49.0422 81.0826 49.1713 80.4893 49.2507 79.922C49.381 78.9098 49.4976 77.9157 49.6686 76.9626C49.7477 76.5089 49.8451 76.0689 49.9656 75.6312C50.149 74.9692 50.4136 74.3549 50.8316 73.7333C50.9609 73.5472 51.0623 73.2172 51.2371 72.9341C51.4404 72.6031 51.7258 72.3473 52.0092 72.1853C52.5216 71.8947 53.1129 71.8591 53.7459 72.2821C54.2724 72.6743 54.6721 73.2294 54.8712 73.9043C55.0992 74.6763 55.1363 75.5495 55.1193 76.1938L54.9666 81.0215C54.9621 81.2129 55.6591 82.7744 55.2822 83.0792C55.4019 83.2446 55.462 83.4545 55.4387 83.6753C55.3877 84.1594 54.9509 84.5128 54.4667 84.4617C54.1748 84.4075 53.7269 84.235 53.5821 83.6402C53.4225 82.9616 53.5521 81.1388 53.5992 80.8775C53.7047 80.1368 53.817 79.3694 53.8084 78.597C53.7967 77.8166 53.6621 77.0505 53.5486 76.3063C53.4796 75.884 53.3596 75.3505 53.1615 74.8519C53.0564 74.5863 52.91 74.3399 52.7031 74.1849C52.5069 74.411 52.2938 74.835 52.1478 74.9566C51.5698 75.4244 51.1163 75.9365 50.8794 76.5851C50.4978 77.6413 50.5463 78.8525 50.4361 80.0469C50.4236 80.2022 50.4107 80.3614 50.3943 80.5163ZM54.6715 82.7056C54.6637 82.7048 54.6599 82.7044 54.6521 82.7035L54.6715 82.7056ZM52.7211 74.1634C52.8995 74.2174 53.1114 74.2123 53.0326 74.1061C52.9433 73.9871 52.8361 74.0384 52.7211 74.1634Z" fill="#7400BD"/><path fill-rule="evenodd" clip-rule="evenodd" d="M56.184 77.0475C55.6404 77.2252 55.1512 77.4439 54.6317 77.4674C54.5138 77.4707 54.4011 77.4627 54.2916 77.4238C53.9481 77.3014 53.8702 76.9995 53.5234 76.9082C53.4244 76.8821 53.3153 76.9137 53.2152 76.9344C52.8796 76.997 52.6434 77.1562 52.3066 77.2303C52.1746 77.2556 52.0488 77.2971 51.9137 77.279C51.5344 77.2351 51.2317 77.0231 50.8666 76.8828C50.3823 76.8318 49.9456 77.1852 49.8945 77.6693C49.843 78.1573 50.1969 78.5901 50.6812 78.6411C51.0792 78.5812 51.4331 78.4188 51.8193 78.4712C52.329 78.5406 52.6529 78.9232 53.15 79.0383C53.2645 79.066 53.3877 79.0868 53.5002 79.0595C53.8817 78.9705 53.9953 78.6731 54.3793 78.5608C54.5695 78.5026 54.7779 78.5323 54.9845 78.5423C55.4565 78.5607 55.915 78.6325 56.4265 78.6473C56.8684 78.5802 57.1741 78.17 57.1071 77.7282C57.0405 77.2826 56.6258 76.9805 56.184 77.0475Z" fill="#7400BD"/><path fill-rule="evenodd" clip-rule="evenodd" d="M60.3051 72.1701C59.3835 72.0691 58.7839 72.2213 58.3398 72.57C57.7727 73.0076 57.4484 73.78 57.0899 74.8034C56.851 75.397 56.7569 76.0293 56.6055 76.6477C56.3688 77.6291 56.039 78.5655 56.1479 79.5755C56.1838 79.9043 56.2948 80.2253 56.4148 80.5356C56.7024 81.2629 57.1074 81.9164 57.5886 82.5153C57.9639 83.0052 58.4511 83.362 58.9818 83.6411C59.5124 83.9202 60.0706 84.1239 60.6525 84.1774C61.5059 84.2555 62.3367 83.9906 63.0353 83.3829C63.371 83.0227 63.3476 82.4642 62.9909 82.1329C62.6341 81.8017 62.0759 81.8212 61.7407 82.1775C61.3851 82.653 60.85 82.8981 60.3008 82.8324C60.0498 82.7981 59.7944 82.7321 59.5777 82.5957C59.2656 82.3984 59.065 82.0718 58.9095 81.7265C58.5997 81.0242 58.5167 80.2519 58.3507 79.4865C58.3038 79.2622 58.2282 79.0506 58.1611 78.8321C57.992 78.2818 57.7462 77.7899 57.7005 77.2212C57.6834 77.0118 57.6813 76.808 57.7107 76.6036C57.7722 76.1323 57.9451 75.6807 58.1401 75.2431C58.4255 74.6544 58.639 74.1522 58.9581 73.8373C59.1934 73.6115 59.5088 73.629 60.0081 73.76C60.4456 73.8452 60.872 73.5534 60.9534 73.1155C61.0348 72.6777 60.7469 72.2519 60.3051 72.1701Z" fill="#7400BD"/><path fill-rule="evenodd" clip-rule="evenodd" d="M71.6532 78.7023C71.8328 78.4472 72.1391 78.2915 72.4723 78.3266C72.9565 78.3776 73.3099 78.8142 73.2588 79.2983C73.2203 79.4783 73.179 79.7206 72.9486 79.9C72.8463 79.9793 72.4568 80.1811 72.4568 80.1811C72.4568 80.1811 72.4991 80.115 72.5178 80.0857C71.955 80.8174 71.4398 81.3935 70.7947 81.7171C70.3225 81.9611 69.7861 82.1082 69.0896 82.027C68.9021 82.0229 68.3993 82.0365 68.0814 81.9677C67.8174 81.9086 67.6509 81.7422 67.5318 81.6083C66.8734 80.8694 66.2878 80.0715 65.8586 79.1648C65.6762 78.7775 65.5113 78.3725 65.4345 77.9493C65.2453 76.9582 65.43 75.987 65.5219 74.9668C65.5613 74.5559 65.5538 74.144 65.6053 73.7304C65.6435 73.1823 65.6481 72.3957 65.848 71.7628C65.9667 71.3798 66.165 71.0601 66.4376 70.8147C66.7667 70.5165 67.1937 70.3305 67.6433 70.1899C68.2178 70.0155 68.8468 69.9564 69.3433 69.8913C69.7892 69.8599 70.1765 70.1983 70.2078 70.6441C70.2391 71.0899 69.9006 71.4771 69.4551 71.5046C69.0203 71.5058 68.4794 71.4723 67.9727 71.5599C67.7093 71.6065 67.4524 71.6656 67.245 71.8121C67.0792 71.9356 66.9793 72.1405 66.9083 72.3679C66.7584 72.8612 66.7293 73.4338 66.6705 73.8427C66.643 74.1413 66.6081 74.4352 66.6239 74.7305C66.6341 74.9313 66.6722 75.1272 66.7107 75.3192C66.87 76.1113 67.2784 76.7691 67.5523 77.5146C67.6711 77.8364 67.7418 78.1689 67.8443 78.4969C68.0664 79.2134 68.294 79.9148 68.6195 80.5795C68.7906 80.5544 69.1153 80.7805 69.2191 80.7993C69.6069 80.8362 69.9184 80.779 70.1662 80.6211C70.6072 80.3386 70.8403 79.7993 71.1493 79.2092C71.2238 79.0604 71.4909 78.8301 71.6532 78.7023ZM71.5039 79.0782C71.5027 79.0898 71.5014 79.1014 71.5002 79.113L71.5039 79.0782Z" fill="#7400BD"/><path fill-rule="evenodd" clip-rule="evenodd" d="M80.3333 77.8861C80.1499 78.0273 79.7627 78.3194 79.6116 78.3779C79.0623 78.6098 78.322 78.7589 77.5715 78.7816C77.2962 78.7918 77.0227 78.7864 76.7572 78.778C76.2848 78.7635 75.8401 78.7089 75.4509 78.5739C74.8098 78.3771 74.3483 77.9251 73.95 77.3937C73.4689 76.7556 73.1826 75.9423 72.8697 75.3063C72.7681 74.7474 72.6086 74.2176 72.488 73.6528C72.3991 73.2323 72.316 72.8319 72.2989 72.3994C72.2613 72.1997 72.2605 71.9842 72.276 71.7626C72.3052 71.3741 72.3881 70.96 72.4206 70.6149C72.494 69.2873 72.7223 68.2737 73.3451 67.5679C73.7853 67.07 74.4368 66.7235 75.4354 66.5389C75.8795 66.4878 76.2849 66.8047 76.336 67.2486C76.3871 67.6926 76.0663 68.0973 75.6222 68.1485C74.8666 68.1824 74.3828 68.3507 74.0964 68.763C73.7601 69.2406 73.6301 69.9161 73.5052 70.7292C73.4711 71.0153 73.3809 71.3504 73.3582 71.6769C73.3454 71.8361 73.3604 71.9904 73.4047 72.1282C73.7277 72.8162 74.228 73.3467 74.6312 73.9804C74.7453 74.1608 74.8311 74.35 74.9289 74.5365C75.0241 74.8598 75.1225 75.2265 75.2201 75.6009C75.2979 75.9028 75.3512 76.2139 75.4741 76.497C75.6092 76.8128 75.7371 77.1238 76.031 77.3075C76.3387 77.4731 76.7329 77.5968 77.145 77.5893C77.8005 77.5761 78.4562 77.3007 78.9008 77.0225C78.947 76.9921 78.9728 76.8969 79.0356 76.8213C79.1702 76.6593 79.3276 76.5036 79.4607 76.3923C79.7274 76.1659 80.0275 76.1427 80.2508 76.1427C80.735 76.1937 81.0885 76.6303 81.0374 77.1144C80.9962 77.5056 80.7015 77.8113 80.3333 77.8861ZM80.1046 77.9011L80.0654 77.9009C80.077 77.9021 80.0887 77.9034 80.1046 77.9011Z" fill="#7400BD"/><path fill-rule="evenodd" clip-rule="evenodd" d="M78.3403 70.5587C78.232 70.8057 78.1141 71.3298 77.7309 71.8063C77.6724 71.8785 77.5988 71.9451 77.5078 71.9903C77.2105 72.1352 76.9914 71.9477 76.7063 72.1252C76.6351 72.1686 76.6025 72.2552 76.5599 72.3251C76.3549 72.6716 76.3916 73.0671 76.12 73.2656C76.0009 73.3548 75.85 73.2998 75.7326 73.2992C75.6779 73.2973 75.7125 73.1913 75.6716 73.1713C75.1873 73.1203 74.7506 73.4737 74.6995 73.9578C74.6485 74.4419 75.0019 74.8786 75.4861 74.9296C75.9102 74.845 76.2616 74.5962 76.7747 74.2626C76.8917 74.1927 77.0163 74.1627 77.158 74.1189C77.4775 74.0234 77.7509 73.9934 78.0647 73.8033C78.153 73.746 78.2386 73.6767 78.2837 73.5836C78.4526 73.245 78.2685 73.022 78.4099 72.6845C78.4778 72.5233 78.6226 72.4132 78.7368 72.296C79.1214 71.9176 79.4723 71.6726 79.658 71.5081C79.9197 71.1441 79.8361 70.638 79.472 70.3765C79.1117 70.1153 78.6054 70.199 78.3403 70.5587Z" fill="#7400BD"/><path fill-rule="evenodd" clip-rule="evenodd" d="M82.3804 62.9213C81.9712 63.1249 81.6466 63.3061 81.3501 63.5176C81.0404 63.7434 80.7522 63.9872 80.441 64.3381L79.7132 65.3344C79.2715 66.0319 79.1627 66.8036 79.3664 67.4712C79.4773 67.8314 79.6907 68.1475 79.9651 68.4427C80.2005 68.6985 80.4865 68.9206 80.8657 69.1132C81.5006 69.4816 82.2048 69.7124 82.9818 69.81C83.349 69.8565 83.7196 69.8329 84.0788 69.8433C84.5349 69.864 84.9778 69.8244 85.3782 70.0389C85.7519 70.2467 86.0705 70.5309 86.1995 70.9047C86.2961 71.1773 86.3042 71.4718 86.2446 71.7396C86.1748 72.0299 85.974 72.2632 85.7163 72.4045C85.4958 72.5261 85.2092 72.4959 84.8685 72.4209C84.3843 72.3699 83.9475 72.7233 83.8965 73.2074C83.8454 73.6915 84.1989 74.1281 84.6831 74.1791C86.0606 74.1911 86.8968 73.5782 87.269 72.6855C87.4803 72.1674 87.5261 71.5849 87.4604 70.9827C87.3679 70.1507 87.0239 69.3273 86.3373 68.7068C85.7199 68.1366 84.9402 67.8782 84.0979 67.7308C83.8478 67.6888 83.5929 67.6541 83.3387 67.6508C83.1778 67.6534 83.0231 67.6724 82.8645 67.6909C82.3129 67.7581 81.811 67.9127 81.2888 67.8499C81.058 67.8099 80.8496 67.7801 80.698 67.6584C80.5428 67.5324 80.4481 67.3541 80.4006 67.1729C80.2987 66.8019 80.4327 66.3853 80.7064 66.0186L81.3794 65.2828C81.6384 65.0556 81.8745 64.8964 82.1275 64.7625C82.381 64.6248 82.657 64.5325 83.0022 64.4161C83.4159 64.2443 83.6108 63.7715 83.439 63.3579C83.2672 62.9443 82.7941 62.7495 82.3804 62.9213Z" fill="#7400BD"/><path fill-rule="evenodd" clip-rule="evenodd" d="M89.8873 56.709C89.4999 56.8914 89.0252 57.0841 88.5808 57.3232C88.2446 57.5031 87.9261 57.7006 87.6625 57.9352C87.3552 58.2122 87.0516 58.5287 86.8217 58.8882C86.6533 59.1485 86.5107 59.4233 86.4323 59.7204C86.3232 60.124 86.1145 60.6542 86.039 61.1474C85.9971 61.4328 85.9879 61.7059 86.0474 61.9589C86.0995 62.2071 86.2445 62.43 86.4217 62.6444C86.7062 62.9916 87.1243 63.298 87.4125 63.5359C88.0473 64.1275 88.7948 64.3942 89.6107 64.531C90.0072 64.5963 90.4215 64.6047 90.825 64.6041C91.3102 64.6083 91.7851 64.5252 92.239 64.6787C92.6325 64.8102 92.742 65.182 92.7012 65.5693C92.6706 65.8598 92.5996 66.1616 92.4626 66.4213C92.3204 66.6922 92.1177 66.9058 91.9305 67.0466C91.7232 67.1931 91.4646 67.1933 91.2073 67.1819C90.6531 67.1627 90.079 66.9612 89.5842 66.8621C89.0961 66.8107 88.6632 67.1644 88.6122 67.6485C88.5607 68.1365 88.9107 68.5689 89.3988 68.6203C90.0828 68.6336 90.9244 68.7497 91.6397 68.5784C92.0457 68.4802 92.4294 68.3326 92.7383 68.0402C93.0697 67.7579 93.3742 67.2848 93.6294 66.7596C93.8629 66.2908 94.0415 65.7849 94.1054 65.2904C94.2189 64.3626 93.86 63.569 92.983 63.0459C92.4444 62.7307 91.8526 62.5861 91.2314 62.4972C90.9421 62.4549 90.6476 62.4239 90.3543 62.4204C90.1783 62.4176 90.0007 62.4302 89.827 62.4432C89.2504 62.4882 88.7031 62.6263 88.1439 62.3951C87.9343 62.3026 87.6491 62.2216 87.4069 62.0669C87.264 61.9735 87.1219 61.8724 87.0863 61.7276C87.0535 61.5558 87.089 61.3677 87.1408 61.1734C87.2491 60.7776 87.4435 60.383 87.5549 60.0697C87.6324 59.8547 87.766 59.6651 87.9216 59.4897C88.0951 59.2926 88.3041 59.1305 88.5115 58.984C88.7068 58.8401 88.9493 58.7325 89.1905 58.6366C89.6322 58.4599 90.0991 58.3407 90.4842 58.2168C90.8971 58.0527 91.1035 57.5811 90.9398 57.1645C90.7762 56.7478 90.3041 56.5454 89.8873 56.709Z" fill="#7400BD"/></svg>