<svg width="108" height="183" viewBox="0 0 108 183" fill="none" xmlns="http://www.w3.org/2000/svg"><path fill-rule="evenodd" clip-rule="evenodd" d="M0.749414 126.557C1.02597 127.137 1.30255 127.69 1.54015 128.29C1.77387 128.886 2.01926 129.474 2.16728 130.101C2.22571 130.354 2.25688 130.607 2.27246 130.864C2.3192 131.624 2.2257 132.332 2.26076 133.092C2.27244 133.411 2.28023 133.722 2.35034 134.034C2.72039 135.623 3.65135 136.97 4.21227 138.477C4.5901 139.505 4.80821 140.568 5.21332 141.585C5.5483 142.251 6.35852 142.519 7.0246 142.188C7.69068 141.853 7.95947 141.043 7.62838 140.378C7.11031 139.536 6.5494 138.715 6.25725 137.772C5.8911 136.612 5.97292 135.389 5.78595 134.174C5.71973 133.758 5.66129 133.333 5.52885 132.928C5.20944 131.931 4.58622 131.113 4.2707 130.109C4.14216 129.692 4.08373 129.256 4.0214 128.824C3.87728 127.772 3.83054 126.748 3.68642 125.7C3.44881 124.891 2.59966 124.423 1.78945 124.661C0.979249 124.898 0.511806 125.747 0.749414 126.557Z" fill="#7400BD"/><path fill-rule="evenodd" clip-rule="evenodd" d="M7.55924 123.265C7.89423 124.235 8.33049 125.162 8.72001 126.17C8.87193 126.571 9.03164 126.976 9.12123 127.401C9.33158 128.405 9.19134 129.41 9.40558 130.423C9.49517 130.832 9.65099 131.221 9.8029 131.606C10.2431 132.74 10.9169 133.737 11.1584 134.878C11.3571 135.824 11.248 136.774 11.1701 137.693C11.1701 138.441 11.7739 139.044 12.5179 139.044C13.2619 139.044 13.8656 138.441 13.8656 137.693C13.7721 136.634 13.4605 135.594 13.2852 134.492C13.0437 132.958 13.184 131.342 12.7126 129.792C12.623 129.496 12.4711 129.227 12.327 128.951C11.9842 128.289 11.5557 127.74 11.2324 127.074C11.1234 126.848 11.026 126.614 10.9598 126.377C10.7845 125.769 10.726 125.15 10.6559 124.539C10.5819 123.915 10.5819 123.324 10.5702 122.72C10.4222 121.887 9.62369 121.338 8.794 121.486C7.96042 121.637 7.41122 122.436 7.55924 123.265Z" fill="#7400BD"/><path fill-rule="evenodd" clip-rule="evenodd" d="M4.56717 133.81C5.24105 133.611 5.8214 133.37 6.47579 133.179C6.73677 133.105 7.00556 133.027 7.27433 133.019C7.97547 133.004 8.53639 133.335 9.22974 133.304C9.49072 133.296 9.74389 133.21 9.98929 133.128C10.7138 132.887 11.2903 132.388 12.0499 132.268C12.6264 132.174 13.2068 132.346 13.8027 132.431C14.5467 132.431 15.1505 131.828 15.1505 131.08C15.1505 130.336 14.5467 129.733 13.8027 129.733C13.1405 129.834 12.5368 130.071 11.8863 130.118C10.9086 130.192 9.99709 129.826 9.02718 129.955C8.81294 129.982 8.61431 130.052 8.41565 130.138C7.91706 130.36 7.60543 130.737 7.08737 130.916C6.8147 131.014 6.51868 131.045 6.22654 131.049C5.6111 131.057 5.05404 130.878 4.4308 130.753C3.58944 130.788 2.93504 131.504 2.9701 132.346C3.00515 133.191 3.72191 133.845 4.56717 133.81Z" fill="#7400BD"/><path fill-rule="evenodd" clip-rule="evenodd" d="M16.7181 118.116C16.9479 118.607 17.1933 119.137 17.3997 119.764C17.5828 120.324 17.7893 120.908 17.8983 121.551C17.9412 121.796 17.9529 122.045 17.9529 122.299C17.9529 123.031 17.8204 123.72 17.8166 124.472C17.8127 124.787 17.8049 125.099 17.8633 125.406C18.1788 127.061 19.1059 128.459 19.6902 129.826C20.1965 131.018 20.6133 132.104 21.295 132.918C21.8209 133.448 22.6739 133.448 23.2037 132.918C23.7295 132.392 23.7295 131.539 23.2037 131.014C22.6194 130.523 22.0156 129.892 21.6962 129.024C21.3534 128.078 21.4352 126.983 21.3067 125.866C21.2522 125.41 21.221 124.943 21.1002 124.491C20.8393 123.525 20.2939 122.719 20.0251 121.792C19.9589 121.559 19.9161 121.321 19.8888 121.084C19.7408 119.662 19.807 118.373 19.6707 117.31C19.4487 116.496 18.6073 116.017 17.7932 116.239C16.979 116.461 16.496 117.302 16.7181 118.116Z" fill="#7400BD"/><path fill-rule="evenodd" clip-rule="evenodd" d="M27.9711 117.892C28.0256 117.841 28.1463 117.942 28.2554 117.97C28.5125 118.028 28.8203 118.02 29.163 118.032C30.059 118.059 31.1263 117.907 32.2247 117.938C32.9843 117.958 33.7439 118.063 34.4334 118.219C36.2057 118.612 37.5807 119.391 38.1144 120.481C38.9947 122.308 38.7532 123.464 38.091 124.305C36.8952 125.82 33.2531 126.217 31.3911 126.284C30.6432 126.284 30.0395 125.68 30.0395 124.936C30.0395 124.192 30.6432 123.585 31.3911 123.585C32.3922 123.647 34.1178 123.85 35.3994 123.484C35.7772 123.375 36.1122 123.215 36.2797 122.958C36.3265 122.892 36.268 122.806 36.2563 122.717C36.2213 122.464 36.0148 122.218 35.7694 121.887C35.6331 121.7 35.341 121.712 35.0527 121.63C34.4412 121.451 33.6855 121.439 32.8986 121.35C32.3572 121.287 31.808 121.194 31.2704 121.097C30.3083 120.921 29.4123 120.696 28.6527 120.47C27.1998 120.041 26.2454 119.446 26.0702 118.655C25.6923 117.67 25.7508 116.49 25.9494 115.287C26.2143 113.671 26.7986 112.031 27.1258 110.995C27.4491 110.216 28.3489 109.846 29.128 110.17C29.9071 110.497 30.2771 111.392 29.9499 112.171C29.4903 113.047 28.6177 114.387 28.1814 115.808C27.9594 116.529 27.8308 117.253 27.9711 117.892Z" fill="#7400BD"/><path fill-rule="evenodd" clip-rule="evenodd" d="M34.8037 107.192C35.6451 106.627 36.4358 105.868 37.4252 105.218C37.6044 105.101 37.7992 105.011 38.0017 104.933C38.5977 104.692 39.1742 104.571 39.7701 104.303C40.0194 104.194 40.2571 104.077 40.4752 103.917C40.6894 103.757 40.8686 103.563 41.0478 103.364C41.8035 102.535 42.2826 101.573 42.9331 100.736C43.529 99.9723 44.2029 99.3454 44.682 98.6016C45.0131 97.9357 44.7444 97.1218 44.0783 96.7908C43.4122 96.4559 42.602 96.7284 42.267 97.3943C42.0294 98.0408 41.8035 98.7495 41.3088 99.3181C40.5765 100.151 39.4157 100.49 38.4769 101.203C38.2822 101.351 38.1264 101.538 37.9589 101.717C37.5421 102.184 37.2967 102.71 36.8331 103.115C36.5605 103.352 36.2527 103.539 35.9372 103.691C35.127 104.085 34.3012 104.217 33.5416 104.404C32.7704 104.754 32.4276 105.662 32.7782 106.429C33.1249 107.2 34.0324 107.539 34.8037 107.192Z" fill="#7400BD"/><path fill-rule="evenodd" clip-rule="evenodd" d="M47.4429 110.281C48.1167 110.359 48.6387 110.928 48.6387 111.621C48.6387 112.365 48.0349 112.968 47.2909 112.968C46.6482 112.902 45.6783 112.12 44.4397 110.959C43.571 110.145 42.2466 109.499 41.3235 108.369C41.1521 108.159 41.043 107.918 40.9223 107.68C40.6184 107.081 40.4626 106.496 40.1744 105.936C40.0731 105.737 39.964 105.546 39.8316 105.383C38.8071 104.113 37.7788 103.35 37.4827 103.046C36.9997 102.357 37.1673 101.403 37.8606 100.916C38.5501 100.433 39.5044 100.601 39.9913 101.294C40.1471 101.625 40.4548 102.594 41.1755 103.724C41.3702 104.027 41.6039 104.343 41.8883 104.623C42.3479 105.071 42.9205 105.332 43.4386 105.78C43.6411 105.951 43.8436 106.126 44.0111 106.337C44.833 107.388 45.2343 108.677 45.9899 109.456C46.4924 109.978 47.4195 109.974 47.4429 110.281Z" fill="#7400BD"/><path fill-rule="evenodd" clip-rule="evenodd" d="M49.5964 86.9005C49.3744 87.5586 48.6772 87.952 47.9877 87.7767C47.2671 87.5976 46.8269 86.8655 47.0061 86.1412C47.2827 85.265 47.7306 84.7627 48.3149 84.5057C48.685 84.3382 49.0979 84.2369 49.5575 84.2408C50.1067 84.2486 50.7339 84.3849 51.3182 84.4122C52.2725 84.4472 53.1451 84.6575 53.9553 84.9457C54.8356 85.2611 55.6341 85.6934 56.347 86.2619C57.7064 87.3367 58.6958 88.8905 59.2723 90.7869C59.6774 92.2628 59.7631 93.5284 59.5255 94.5487C59.1204 96.2777 58.0375 97.4031 56.6625 97.8704C55.3692 98.3143 53.8033 98.1781 52.0933 97.4577C51.3182 97.1344 50.4807 96.7528 49.6588 96.1881C48.5876 95.53 47.9527 94.7161 47.4813 93.8283C46.8386 92.6211 46.6322 91.2114 46.3439 89.6226C46.2582 88.7815 46.8737 88.0338 47.715 87.9481C48.5525 87.8624 49.3043 88.4777 49.39 89.3188C49.4173 90.6273 49.3238 91.7955 49.7055 92.8391C49.9198 93.4233 50.2625 93.9684 50.8741 94.4552C51.5246 94.9147 52.1635 95.3003 52.8062 95.4989C53.8462 95.8182 54.7888 95.6469 55.4861 95.2535C55.9496 94.9926 56.1015 94.4708 56.2301 93.8322C56.3586 93.1857 56.4326 92.403 56.2651 91.4528C56.0743 90.0899 55.6185 88.8749 54.7733 88.0143C54.3331 87.5704 53.8228 87.1848 53.223 86.9628C52.6465 86.7526 51.9998 86.7019 51.3182 86.7253C50.7456 86.7565 49.9431 87.1536 49.5964 86.9005Z" fill="#7400BD"/><path fill-rule="evenodd" clip-rule="evenodd" d="M64.324 79.6401C64.2033 79.5349 64.1059 79.1961 63.8761 79.0793C63.7242 79.0053 63.5488 78.9547 63.3658 78.9118C62.5088 78.7132 61.4805 78.9196 60.4249 78.7639C60.1873 78.7288 59.9613 78.6432 59.7354 78.5575C59.1511 78.3433 58.6993 77.9889 58.1345 77.8371C57.7839 77.7397 57.4255 77.7086 57.0983 77.7086C55.8791 77.6969 54.9988 77.9772 54.7144 78.0318C53.8691 78.0318 53.1836 77.3464 53.1836 76.5014C53.1836 75.6563 53.8691 74.9709 54.7144 74.9709C55.0572 75.0333 56.1479 75.4344 57.6436 75.6719C57.8423 75.7031 58.0448 75.7108 58.2552 75.7031C59.0888 75.6641 59.8912 75.337 60.7832 75.4188C61.239 75.4616 61.6636 75.6524 62.0843 75.8121C62.9919 76.1548 63.7202 76.6493 64.437 76.9726C66.0106 77.6852 66.9027 78.4952 67.0156 79.5038C67.0156 80.2476 66.4119 80.8511 65.6679 80.8511C64.9706 80.8511 64.3941 80.3215 64.324 79.6401Z" fill="#7400BD"/><path fill-rule="evenodd" clip-rule="evenodd" d="M64.3631 74.8365C64.2969 75.0584 64.1567 75.479 64.0398 75.6893C63.8801 75.9696 63.6308 76.1176 63.4244 76.2461C62.9297 76.546 62.3532 76.5148 61.6676 75.9463C61.1145 75.4907 60.7951 74.7702 60.4991 73.9447C60.2965 73.3839 60.0862 72.7687 59.7161 72.1923C59.4746 71.8107 59.1785 71.4057 58.5553 71.1526C57.2037 70.5373 56.2922 70.4127 55.8442 71.0942C54.9717 72.4416 55.7897 74.9299 56.5532 76.5304C56.8609 77.317 56.4675 78.2049 55.6807 78.5086C54.8938 78.8163 54.0057 78.423 53.7018 77.6363C52.9851 75.2687 52.9111 71.8925 54.1264 70.0155C54.4809 69.4625 54.9211 69.0264 55.4937 68.6798C56.3973 68.1346 57.6516 67.9516 59.5019 68.3138C61.0405 68.7149 61.9714 69.4976 62.5479 70.401C62.9998 71.1175 63.1906 71.9236 63.3309 72.6791C63.81 72.4376 64.3476 72.2313 64.7176 72.0054C65.5278 71.3862 66.3809 70.954 67.2651 70.6269C68.1727 70.2881 69.1192 70.1011 70.1359 70.0349C70.8799 70.0349 71.4836 70.6386 71.4836 71.3824C71.4836 72.1261 70.8799 72.7336 70.1359 72.7336C69.3802 72.683 68.6596 72.6986 67.9623 72.8738C67.269 73.049 66.6029 73.345 65.9485 73.7617C65.594 74.0421 65.0682 74.3146 64.6085 74.6301C64.5189 74.6924 64.4371 74.7625 64.3631 74.8365Z" fill="#7400BD"/><path fill-rule="evenodd" clip-rule="evenodd" d="M56.9956 61.9173C58.0707 61.7654 59.1147 61.6135 60.1859 61.6758C60.7039 61.707 61.2259 61.7732 61.7284 61.9095C62.5892 62.147 63.3137 62.6221 64.1551 62.9142C64.5096 63.0388 64.8679 63.1478 65.238 63.2101C66.8779 63.4983 68.5256 63.3036 70.1693 63.4827C71.2912 63.6034 72.3701 63.8877 73.5036 63.9851C74.2476 63.9851 74.8514 63.3814 74.8514 62.6377C74.8514 61.8939 74.2476 61.2864 73.5036 61.2864C72.4325 61.3721 71.3652 61.4967 70.3174 61.3292C69.0047 61.1189 67.8361 60.4881 66.5546 60.1182C66.1066 59.9896 65.6548 59.8572 65.1912 59.7988C64.0538 59.6586 62.9553 59.8845 61.8101 59.7911C61.3349 59.7521 60.8636 59.6392 60.3923 59.5418C59.2549 59.3004 58.1603 59.02 56.9956 58.8564C56.1504 58.8564 55.4648 59.5418 55.4648 60.3868C55.4648 61.2319 56.1504 61.9173 56.9956 61.9173Z" fill="#7400BD"/><path fill-rule="evenodd" clip-rule="evenodd" d="M57.7712 45.0238C58.4178 47.4685 59.9019 49.4296 61.7015 50.9698C62.2391 51.432 62.7883 51.8713 63.357 52.2802C64.7983 53.316 66.3525 54.1455 68.0313 54.3558C69.0675 54.4843 70.1231 54.3558 71.1086 54.0325C73.1614 53.3588 74.9922 51.8479 76.1491 49.3514C76.6088 48.525 76.749 47.7762 76.7684 47.0733C76.8113 45.6367 75.9972 44.3933 76.0829 42.9498C76.0829 42.2052 75.4791 41.6008 74.7351 41.6008C73.9911 41.6008 73.3835 42.2052 73.3835 42.9498C73.4692 44.2847 74.2677 45.3774 74.5209 46.6453C74.6144 47.1313 74.5559 47.6531 74.2209 48.2501C72.8264 50.3163 70.8788 50.9336 68.9273 51.0481C67.5016 51.1318 66.0253 51.1201 64.662 50.4939C64.3153 50.3342 63.9686 50.166 63.6531 49.9406C63.3453 49.7178 63.0649 49.4499 62.8 49.1668C61.6509 47.9222 60.9614 46.273 60.7822 44.4767C60.6303 43.646 59.8357 43.0942 59.0021 43.2453C58.1724 43.3964 57.6193 44.1932 57.7712 45.0238Z" fill="#7400BD"/><path fill-rule="evenodd" clip-rule="evenodd" d="M61.1746 30.3532C61.5602 30.9743 62.273 31.4214 63.0716 31.7761C63.7766 32.0884 64.505 32.3789 65.2101 32.5561C65.7827 32.6994 66.3319 32.7609 66.7955 32.8583C67.6252 32.9981 68.3614 33.053 69.0898 33.0561C70.2311 33.0608 71.3295 32.9222 72.7085 32.805C73.5498 32.805 74.2354 33.4903 74.2354 34.3346C74.2354 35.1788 73.5498 35.8642 72.7085 35.8642C71.2555 35.74 70.0869 35.6582 68.8989 35.4744C68.0692 35.3463 67.2395 35.1921 66.3125 34.9105C65.6931 34.7625 64.9452 34.5678 64.1389 34.4277C62.9236 34.2158 61.642 34.0398 60.5475 33.5986C59.4256 33.1465 58.5881 32.3941 58.0116 31.479C57.6026 30.6978 57.6572 29.8263 58.2375 28.998C58.5531 28.5498 59.079 28.0802 59.6866 27.7083C60.4306 27.2542 61.2759 26.9092 61.6342 26.7441C63.2819 25.9839 64.9218 25.1903 66.5656 24.4263C67.3135 24.0774 68.0458 23.7051 68.8171 23.4161C69.9428 22.9932 71.1231 22.7105 72.4046 22.6338C73.1525 22.6338 73.7563 23.2385 73.7563 23.9827C73.7563 24.7273 73.1525 25.3317 72.4046 25.3317C70.6712 25.2448 69.0664 25.5782 67.6018 26.3064C65.9852 27.1133 64.5868 28.3286 63.0677 29.3228C62.8106 29.4867 61.6966 29.942 61.1746 30.3532ZM61.1239 30.3921C60.8941 30.5837 60.8084 30.7633 61.011 30.8953C61.2174 31.03 61.2019 30.7068 61.1239 30.3921ZM61.0305 30.0837C61.0188 30.0483 61.0032 30.0163 60.9915 29.9891L61.0305 30.0837Z" fill="#7400BD"/><path fill-rule="evenodd" clip-rule="evenodd" d="M64.7777 23.1801C65.3075 23.8102 65.8256 24.318 66.1606 24.9469C66.3125 25.2315 66.4254 25.5302 66.4839 25.8316C66.5929 26.3982 66.441 26.8881 66.4761 27.436C66.4916 27.6572 66.4995 27.8757 66.5579 28.0871C66.85 29.1062 67.5628 29.9197 67.8082 31.0346C67.9602 31.7153 67.8978 32.4404 67.9524 33.2184C68.1004 33.9482 68.8093 34.4225 69.5416 34.2765C70.27 34.1305 70.7453 33.4194 70.5972 32.6893C70.3518 31.9412 70.0247 31.2815 69.9195 30.5864C69.7754 29.6144 69.974 28.7347 69.8961 27.8235C69.8766 27.5891 69.8571 27.3546 69.787 27.13C69.7169 26.8994 69.6078 26.6934 69.4832 26.4835C69.191 25.9784 68.8366 25.6007 68.5094 25.0824C68.4081 24.9196 68.3107 24.7514 68.2445 24.5656C67.9329 23.6965 67.8044 22.763 67.4694 21.7245C67.0682 20.9818 66.1411 20.7054 65.3971 21.1068C64.6531 21.5087 64.3765 22.4375 64.7777 23.1801Z" fill="#7400BD"/><path fill-rule="evenodd" clip-rule="evenodd" d="M70.5399 12.2501C70.24 10.4802 69.422 7.6628 69.4298 7.05804C69.3246 6.0736 69.4025 4.92715 69.2973 3.85314C69.2389 3.29745 69.1026 2.77797 68.8455 2.3391C68.5105 1.6732 68.7832 0.862452 69.4493 0.529502C70.1153 0.196553 70.9256 0.466811 71.2566 1.13271C71.5137 1.74837 71.6579 2.42011 71.6968 3.13585C71.7591 4.38042 71.5488 5.74726 71.5721 6.9155C71.6773 7.60555 73.3912 11.0379 73.7457 12.5445C73.9911 13.5909 73.5548 14.2879 73.2978 14.5839C72.8732 15.0453 72.0006 15.4367 70.8944 15.4869C70.3218 15.5126 69.6713 15.4561 69.0675 15.3689C68.4754 15.2829 67.9574 15.1154 67.6536 15.1111C66.7732 15.0994 65.9396 15.0473 65.0983 15.0866C64.5295 15.1127 63.9687 15.1695 63.4155 15.2575C61.3705 15.5831 59.419 16.1559 57.2805 16.7404C56.4508 16.8985 55.6523 16.3534 55.4926 15.5243C55.3329 14.6948 55.8782 13.8934 56.7079 13.7353C58.5465 13.5445 60.2565 13.4596 61.9782 13.3186C62.7221 13.2575 63.4701 13.2143 64.2102 13.0909C65.2541 12.9172 66.2668 12.6095 67.3458 12.3646C67.8132 12.2563 68.7364 12.1909 69.6947 12.1703C69.9284 12.1652 70.2517 12.2158 70.5399 12.2501ZM70.61 12.7326C70.462 12.9382 70.388 13.1368 70.6256 13.1497C70.6607 13.1516 70.6412 13.0714 70.6373 13.0227C70.6334 12.9331 70.6217 12.8358 70.61 12.7326ZM71.0151 12.2801C71.1787 12.2707 71.2722 12.2213 71.2333 12.0959C71.2021 11.9904 71.0853 12.2076 71.0151 12.2801Z" fill="#7400BD"/><path fill-rule="evenodd" clip-rule="evenodd" d="M46.7332 150.739C47.091 150.536 48.273 151.094 48.4874 151.107C48.8581 151.098 49.2344 151.106 49.5843 151.048C50.0471 150.969 50.4363 150.767 50.7471 150.534C50.8523 150.454 50.7897 150.308 50.8096 150.161C50.8423 149.949 50.7295 149.71 50.6348 149.395C50.6027 149.198 50.5375 149.012 50.48 148.827C50.1745 147.866 49.8082 146.889 48.932 146.251C47.6693 145.332 45.9887 145.029 44.6493 144.501C43.9008 144.109 43.6137 143.186 44.0064 142.437C44.3992 141.689 45.3266 141.402 46.0712 141.794C46.6768 142.226 47.3077 142.674 47.9812 143.127C48.6618 143.585 49.3081 144.093 49.9929 144.52C50.6556 144.937 51.3134 145.274 51.9053 145.72C52.6107 146.256 53.1828 146.876 53.5841 147.654C53.7577 147.995 53.8385 148.384 53.9188 148.776C54.0479 150.542 53.6652 151.622 52.884 152.278C52.0985 152.938 50.9835 153.187 49.6799 153.234C49.3126 153.247 48.9367 153.294 48.5534 153.309C48.1934 153.354 46.3234 153.462 45.666 153.266C44.7514 152.997 44.6368 152.25 44.655 151.683C44.7553 150.946 45.4349 150.429 46.1759 150.529C46.3805 150.557 46.571 150.63 46.7332 150.739ZM47.3365 151.996L47.3297 152.046C47.3323 152.027 47.3344 152.011 47.3365 151.996Z" fill="#7400BD"/><path fill-rule="evenodd" clip-rule="evenodd" d="M52.6234 135.046C53.9104 135.901 55.0745 136.735 56.2037 137.623C56.9142 138.18 57.6142 138.727 58.3001 139.319C58.7501 139.711 59.1803 140.131 59.6392 140.543C61.8001 142.892 64.5325 142.831 66.5735 141.584C67.217 141.188 67.7811 140.624 68.213 139.963C69.1096 138.603 69.5207 136.824 69.1614 134.987C69.0869 134.639 68.9267 134.169 68.5713 133.661C68.0156 132.862 67.0096 131.849 65.9365 130.779C65.4657 130.311 64.999 129.811 64.5354 129.347C63.5082 128.315 62.5122 127.402 61.7761 126.889C61.263 126.528 60.8014 126.367 60.4953 126.306C59.7581 126.206 59.0785 126.723 58.9782 127.46C58.8779 128.197 59.3942 128.88 60.1314 128.98C60.7377 129.031 62.3698 130.24 63.7907 131.671C65.1634 133.052 66.3309 134.641 66.3769 135.343C66.4458 136.426 65.9926 137.358 65.4303 138.111C65.0552 138.614 64.6334 139.056 64.0935 139.297C63.19 139.697 62.1145 139.743 61.0241 138.974C60.567 138.578 60.1072 138.201 59.6831 137.794C57.9382 136.114 56.4231 134.364 54.5039 132.637C53.8399 132.114 52.8761 132.235 52.3573 132.899C51.8384 133.564 51.955 134.527 52.6234 135.046Z" fill="#7400BD"/><path fill-rule="evenodd" clip-rule="evenodd" d="M77.4546 123.408C77.1767 123.37 76.9058 123.396 76.635 123.423C76.144 123.478 75.6732 123.673 75.1786 123.842C73.8726 124.281 72.5281 124.802 71.243 125.059C70.3738 125.236 69.5415 125.315 68.7276 125.114C67.6366 124.986 66.1682 124.366 65.176 123.453C64.3451 122.683 63.8901 121.694 63.9885 120.509C64.005 120.271 64.1272 119.836 64.2791 119.326C64.5113 118.544 64.864 117.57 64.9872 117.213C65.3241 116.442 66.229 116.089 67.0003 116.43C67.7755 116.771 68.1285 117.672 67.7872 118.447L66.487 120.895C66.3742 121.407 66.6322 121.851 67.0283 122.176C67.6149 122.66 68.4095 122.945 69.0111 123.031C70.1516 123.056 71.1565 122.257 72.2687 121.595C72.7 121.343 73.128 121.087 73.5766 120.881C74.089 120.64 74.621 120.457 75.1513 120.344C76.4951 120.059 77.8491 120.133 79.157 120.892C79.4513 121.07 79.7563 121.284 79.9602 121.634C80.24 122.12 80.4599 122.873 80.4791 123.772C80.5152 125.703 79.8834 128.266 79.2094 128.886C78.7037 129.454 77.8775 129.805 76.9491 130.013C75.8666 130.255 74.6365 130.253 73.7916 130.193C73.0505 130.092 72.5342 129.409 72.6344 128.672C72.7347 127.935 73.4144 127.418 74.1554 127.519C74.6949 127.627 75.4421 127.741 76.1734 127.71C76.7467 127.686 77.3244 127.659 77.6567 127.354C78.1073 126.845 76.8667 124.205 77.4546 123.408Z" fill="#7400BD"/><path fill-rule="evenodd" clip-rule="evenodd" d="M72.5069 111.519C73.0379 110.765 73.4628 109.896 74.1279 109.11C74.2503 108.961 74.401 108.836 74.5583 108.72C75.0275 108.363 75.503 108.133 75.9742 107.761C76.1643 107.606 76.3467 107.45 76.4991 107.255C76.6509 107.063 76.7558 106.842 76.8606 106.62C77.3017 105.69 77.445 104.723 77.7842 103.79C78.0883 102.971 78.5064 102.238 78.7196 101.422C78.8199 100.685 78.2992 100.005 77.5621 99.9046C76.8249 99.8044 76.1453 100.321 76.045 101.058C76.0382 101.686 76.0673 102.338 75.8058 102.932C75.4026 103.844 74.4543 104.371 73.8258 105.205C73.6959 105.38 73.6096 105.581 73.5157 105.78C73.2762 106.298 73.2247 106.821 72.9276 107.3C72.756 107.579 72.534 107.824 72.2969 108.035C71.6864 108.593 70.9923 108.927 70.3676 109.33C69.7645 109.92 69.7506 110.888 70.3441 111.496C70.9343 112.099 71.9 112.108 72.5069 111.519Z" fill="#7400BD"/><path fill-rule="evenodd" clip-rule="evenodd" d="M84.9408 111.976C85.6073 112.134 86.0583 112.777 85.9638 113.471C85.8635 114.208 85.1839 114.725 84.4467 114.625C84.0704 114.53 83.2055 113.78 81.9304 112.895C81.0216 112.265 79.6886 111.95 78.6396 111.108C78.4452 110.948 78.2995 110.747 78.1456 110.549C77.7533 110.052 77.5076 109.547 77.1333 109.091C76.9978 108.931 76.8613 108.779 76.7051 108.656C75.4254 107.66 74.269 107.232 74.0649 107.114C73.4097 106.585 73.309 105.62 73.8384 104.965C74.3722 104.306 75.3367 104.209 75.9919 104.739C76.1274 104.899 76.6298 105.714 77.5737 106.663C77.8255 106.921 78.1192 107.189 78.4633 107.405C79.0143 107.747 79.6485 107.853 80.2633 108.188C80.5011 108.319 80.7334 108.46 80.9368 108.641C81.8854 109.47 82.4719 110.591 83.2831 111.216C83.916 111.707 84.9503 111.675 84.9408 111.976Z" fill="#7400BD"/><path fill-rule="evenodd" clip-rule="evenodd" d="M78.9856 96.7799C80.0006 97.0633 81.1299 97.3151 82.256 97.8219C82.6925 98.0227 83.1287 98.2549 83.5333 98.5457C84.1954 99.0248 84.6833 99.6571 85.3166 100.203C85.5737 100.423 85.8302 100.646 86.1157 100.83C87.49 101.709 89.0572 102.209 90.2031 103.206C91.022 103.918 91.57 104.802 92.0816 105.607C92.5318 106.199 93.3809 106.314 93.9729 105.864C94.5648 105.414 94.6803 104.565 94.2301 103.973C93.4859 103.145 92.5259 102.429 91.6023 101.561C90.3788 100.412 89.3393 98.9223 87.8349 97.9317C87.5427 97.7387 87.2223 97.6087 86.8991 97.4705C86.1257 97.1453 85.3566 96.9621 84.5949 96.666C84.3265 96.5588 84.0663 96.4487 83.818 96.3088C82.4693 95.532 81.3262 94.6299 80.2013 93.97C79.4251 93.6366 78.5274 93.994 78.19 94.7696C77.8569 95.5418 78.2138 96.4431 78.9856 96.7799Z" fill="#7400BD"/><path fill-rule="evenodd" clip-rule="evenodd" d="M84.9168 85.5075C85.3174 87.9082 86.3908 89.7559 87.6701 91.2739C87.9472 91.6064 88.2172 91.9339 88.492 92.2542C89.3447 93.2387 90.2718 94.0525 91.3537 94.6241C91.8485 94.8878 92.372 95.0848 92.911 95.1973C93.4687 95.3164 94.0362 95.3345 94.5918 95.2961C96.808 95.1296 98.7368 94.0124 100.217 92.0912C101.138 90.8998 101.975 89.4258 102.372 87.4046C102.472 86.6676 101.955 85.9881 101.218 85.8879C100.477 85.7872 99.7974 86.304 99.6971 87.041C99.5775 88.585 99.25 89.865 98.5298 90.7379C97.2921 92.236 95.3445 92.1914 93.5499 91.8885C92.336 91.6803 91.0348 91.5073 89.976 90.6795C89.7124 90.4786 89.4598 90.2556 89.2481 89.991C88.7476 89.3649 88.4217 88.5817 88.1869 87.7362C87.9753 86.9804 87.9373 86.1617 87.9672 85.2775C87.9048 84.4359 87.1695 83.8014 86.3271 83.8677C85.4852 83.9301 84.8545 84.6658 84.9168 85.5075Z" fill="#7400BD"/><path fill-rule="evenodd" clip-rule="evenodd" d="M89.5778 68.5827C89.4702 69.5467 88.9395 72.2336 88.7418 74.3801C88.6273 75.6261 88.6208 76.7139 88.8613 77.3439C89.0487 78.0179 89.677 78.6299 90.5038 79.1982C91.7545 80.0599 93.5596 80.7769 94.4226 81.1654C94.7955 81.3143 95.3043 81.6193 95.9137 81.879C96.7644 82.2423 97.7625 82.5626 98.6715 82.7294C99.7222 82.9233 100.683 82.9125 101.375 82.6214C102.611 82.086 103.643 80.9488 104.384 79.4028C104.751 78.6431 105.051 77.7918 105.357 76.9333C106.113 74.7841 106.719 72.5242 106.97 71.1709C107.07 70.4339 106.554 69.7545 105.816 69.6543C105.075 69.5535 104.396 70.0703 104.295 70.8074C104.184 72.0892 104.02 74.3307 103.288 76.3299C102.673 78.0188 101.705 79.53 100.436 79.8762C100.155 79.948 99.8112 79.7559 99.4143 79.6391C98.6819 79.4177 97.8993 79.0441 97.1824 78.7659C96.4771 78.4892 95.8352 78.2958 95.3981 78.1853C94.6721 78.0316 93.2597 77.8671 92.084 77.4361C91.5075 77.2241 90.9396 77.0644 90.7784 76.6888C90.6126 76.116 90.8347 75.0615 91.1141 73.9322C91.5877 72.0118 92.3705 69.9567 92.5843 69.1368C92.7402 68.3091 92.1889 67.5071 91.3605 67.3552C90.5282 67.2027 89.7303 67.7506 89.5778 68.5827Z" fill="#7400BD"/><path fill-rule="evenodd" clip-rule="evenodd" d="M96.4806 68.6637C96.5302 69.484 96.6532 70.2553 96.6202 71.0761C96.604 71.4551 96.5674 71.8392 96.4669 72.2028C96.2845 72.8501 95.896 73.3357 95.6877 73.9715C95.6018 74.2271 95.5353 74.4853 95.5068 74.7526C95.3989 75.9208 95.7722 77.0484 95.6451 78.2141C95.5604 78.9807 95.2594 79.6905 95.0639 80.4342C94.9636 81.1712 95.4805 81.8506 96.2176 81.9508C96.9547 82.051 97.6381 81.5348 97.7384 80.7978C97.7487 80.0289 97.6444 79.264 97.7677 78.5026C97.9566 77.3454 98.6175 76.3584 98.8257 75.2037C98.8735 74.9391 98.8745 74.672 98.8639 74.4033C98.8291 73.7344 98.5885 73.1633 98.5856 72.4908C98.582 72.1131 98.6494 71.7332 98.7389 71.3641C98.9263 70.5643 99.251 69.8538 99.514 69.0761C99.6279 68.2387 99.0411 67.4673 98.2037 67.3534C97.3662 67.2396 96.5945 67.8264 96.4806 68.6637Z" fill="#7400BD"/><path fill-rule="evenodd" clip-rule="evenodd" d="M48.2981 139.952C48.2895 140.16 47.6782 140.348 47.5036 140.678C47.1707 141.304 47.007 141.958 46.7803 142.324C46.4708 142.836 46.1868 143.277 45.8118 143.635C45.6351 143.808 45.4344 143.953 45.2208 144.05C44.56 144.341 43.9652 144.351 43.2725 144.473C43.0188 144.517 42.7674 144.573 42.5185 144.669C41.7839 144.954 41.1113 145.362 40.2235 145.733C39.3933 145.883 38.5953 145.334 38.4448 144.504C38.2906 143.674 38.8432 142.876 39.674 142.722C40.3414 142.758 40.9043 142.838 41.4674 142.773C41.7146 142.748 41.9646 142.731 42.1749 142.63C42.7349 142.356 42.8979 141.765 43.361 141.337C43.5099 141.196 43.6832 141.078 43.8686 140.958C44.15 140.768 44.4743 140.667 44.7946 140.451C44.9021 140.383 45.0625 140.33 45.1921 140.187C45.3409 140.018 45.5105 139.841 45.6307 139.621C45.9721 139.019 46.2152 138.388 46.503 138.007C46.7137 137.729 46.9923 137.617 47.2223 137.487C47.9269 137.249 48.6934 137.625 48.9355 138.33C49.1519 138.964 48.8667 139.645 48.2981 139.952ZM48.1096 140.037L48.0932 140.043C48.0976 140.039 48.1014 140.04 48.1096 140.037Z" fill="#7400BD"/><path fill-rule="evenodd" clip-rule="evenodd" d="M16.4851 159.491C16.7182 160.002 17.2175 160.781 17.722 161.84C17.8695 162.143 18.0292 162.472 18.1137 162.833C18.3103 163.642 18.1397 164.491 18.3389 165.367C18.4145 165.707 18.5631 166.03 18.7046 166.348C19.1481 167.336 19.8123 168.145 20.0699 169.025C20.3253 169.893 20.2345 170.647 20.1332 171.074C20.0329 171.811 20.5498 172.49 21.2869 172.59C22.0241 172.691 22.7036 172.174 22.8039 171.437C22.8244 170.795 22.458 169.79 22.1634 168.489C21.9034 167.337 22.0531 165.919 21.6024 164.58C21.5181 164.333 21.3784 164.118 21.2403 163.891C20.9038 163.33 20.5021 162.902 20.1934 162.369C20.0858 162.177 19.9897 161.987 19.9262 161.79C19.7413 161.242 19.6761 160.711 19.5947 160.24C19.4847 159.604 19.4708 159.099 19.4552 158.751C19.2487 157.929 18.4202 157.431 17.598 157.638C16.7803 157.841 16.2819 158.673 16.4851 159.491Z" fill="#7400BD"/><path fill-rule="evenodd" clip-rule="evenodd" d="M35.5548 151.744C35.1239 151.473 34.8671 150.963 34.9401 150.426C35.0409 149.685 35.7205 149.169 36.4576 149.269C36.7489 149.324 37.3642 149.569 37.7968 150.347C38.4865 151.576 39.5871 154.87 39.8577 155.453C39.9844 155.706 40.3125 156.328 40.7607 157.05C41.562 158.326 42.6908 159.91 43.2496 160.772C43.4578 161.091 43.5944 161.33 43.653 161.448C44.0192 162.166 43.6281 162.67 43.5513 162.801C43.5007 162.885 42.8039 163.557 41.6748 163.246C40.8795 163.024 38.9438 162.372 38.6997 162.287C38.036 162.052 36.7124 161.495 35.2295 160.751C34.5524 160.411 33.8552 160.018 33.1568 159.632C32.0776 159.041 31.0406 158.428 30.1197 158.032L29.8302 157.906C29.9422 158.267 30.016 158.592 30.0469 158.682C30.8615 160.727 31.8807 162.712 32.6843 164.751C33.0542 165.702 33.3763 166.657 33.612 167.64C33.7586 168.47 33.2025 169.263 32.3723 169.413C31.5387 169.559 30.7456 169.004 30.5996 168.17C30.4667 167.008 30.2095 165.865 29.8687 164.73C29.3239 162.927 28.6218 161.153 28.1013 159.345C28.0014 159.069 27.0813 157.654 26.9499 157.031C26.8185 156.408 27.0973 156.006 27.3914 155.751C28.0408 155.167 29.8718 155.232 32.0632 155.911C33.3759 156.317 34.8607 156.845 36.1864 157.473C37.5973 158.141 38.8076 158.895 39.5456 159.278C39.3353 158.888 39.1239 158.505 38.92 158.155C38.4618 157.362 38.0445 156.732 37.9006 156.46C37.5957 155.928 36.3132 152.873 35.5548 151.744Z" fill="#7400BD"/></svg>