<svg width="246" height="281" viewBox="0 0 246 281" fill="none" xmlns="http://www.w3.org/2000/svg"><path fill-rule="evenodd" clip-rule="evenodd" d="M58.9055 49.9121C58.6091 48.8503 57.0991 40.9071 55.2199 35.1324C54.1703 31.8812 52.8798 29.217 51.7585 28.264C49.4461 26.3531 47.361 25.9379 45.6039 26.4223C43.4417 27.0439 41.4777 29.2689 40.1432 32.9073C39.0814 35.7965 38.3477 39.5852 37.7809 43.769C37.0496 48.8738 36.5441 54.597 36.5218 60.0238C36.4871 63.4211 37.4885 65.7916 38.7746 67.6332C39.9526 69.3029 41.5055 70.5047 43.0438 71.5408C44.1735 72.33 45.3146 72.9005 45.9488 73.7659C47.2405 75.4981 48.4667 78.0481 49.6413 81.1432C51.0473 84.7475 52.3903 89.1152 53.2967 93.7824C54.6857 100.895 55.2656 108.72 54.1119 115.661C53.8465 117.178 53.3758 118.133 52.715 118.692C51.6641 119.553 50.343 119.299 49.4799 119.241C47.2873 119.093 44.9953 117.238 43.3626 113.948C41.7065 110.655 40.8056 105.879 41.2666 99.6594C41.337 98.2934 40.2533 97.0683 38.8743 97.0299C37.4747 96.9353 36.2727 98.0054 36.1994 99.4261C35.9881 106.705 37.3915 112.173 39.4655 115.987C42.1185 120.827 45.8863 123.111 49.222 123.336C50.8315 123.445 53.2426 123.443 55.2193 121.877C56.4858 120.92 57.646 119.3 58.2589 116.49C59.9278 109.09 59.8485 100.641 58.7761 92.8367C58.0556 87.7435 56.9214 82.9513 55.4885 78.9614C54.1405 75.1417 52.5201 72.0715 50.942 69.9909C49.9953 68.8303 48.6172 67.8598 47.05 66.9314C45.7775 66.1874 44.3129 65.5397 43.2114 64.2041C42.3729 63.2153 41.7406 61.8572 41.5854 59.8727C41.2537 55.4089 41.1172 50.7934 41.433 46.483C41.6458 43.2623 42.1273 40.2791 42.7495 37.7441C43.4268 35.0482 44.3093 32.9143 45.3883 31.5068C45.7869 31.0402 46.2032 30.6849 46.6782 30.5525C47.3426 30.378 47.9471 30.9126 48.7764 31.6267C49.7372 32.5141 50.3605 35.4074 51.0658 38.5256C52.2827 43.9814 53.1074 50.2327 53.2899 51.2321C53.6543 52.792 55.1982 53.7193 56.7369 53.3847C58.299 53.0516 59.2698 51.472 58.9055 49.9121Z" fill="#7400BD"/><path fill-rule="evenodd" clip-rule="evenodd" d="M80.1641 23.0065C78.849 23.6943 77.7517 24.4668 76.4339 24.9133C75.8723 25.1146 75.2883 25.2472 74.7247 25.2674C73.6629 25.3334 72.8341 24.8898 71.8146 24.8521C71.4239 24.8197 71.0545 24.7353 70.6652 24.8236C68.8248 25.0661 67.2318 26.1261 65.4738 25.9804C64.3447 25.84 63.3837 25.2245 62.3799 24.6525C61.0733 24.1424 59.6057 24.7712 59.0997 26.0752C58.5719 27.3706 59.2175 28.8837 60.5241 29.3937C62.0241 29.739 63.5203 29.7221 65.0196 30.0071C66.8007 30.2819 68.4128 30.9718 70.3008 31.1082C70.7561 31.1057 71.1903 31.1546 71.6232 31.0833C72.0561 31.0121 72.4665 30.8725 72.8762 30.6721C73.8476 30.2705 74.5787 29.7148 75.5923 29.2095C75.8945 29.0873 76.2186 28.9736 76.5644 28.8683C78.2306 28.5578 79.9233 28.6779 81.7216 28.539C83.2347 28.1087 84.1279 26.5356 83.6988 24.9867C83.2914 23.4463 81.6772 22.5761 80.1641 23.0065Z" fill="#7400BD"/><path fill-rule="evenodd" clip-rule="evenodd" d="M75.726 121.105C75.2262 114.495 74.5811 108.051 74.3116 101.557C74.21 98.7577 74.155 95.9594 74.1936 93.1627C74.3101 88.5769 74.799 84.0532 74.9856 79.4686C75.0687 77.5117 75.1518 75.5546 75.1414 73.5963C75.0439 64.5313 74.0816 55.4524 74.1762 46.2226C74.242 40.2373 74.755 34.1472 75.1297 27.999C75.1723 26.601 74.0613 25.4645 72.6607 25.3861C71.2584 25.3637 70.1026 26.4638 70.0599 27.8618C70.0307 34.1834 70.262 40.3977 70.1211 46.5497C69.9028 56.0013 68.778 65.2699 68.8219 74.5578C68.8107 76.4598 68.9648 78.3086 69.0721 80.1566C69.3597 84.525 69.8593 88.8415 70.1452 93.2659C70.2394 94.778 70.3319 96.3457 70.3308 97.9122C70.4225 105.634 70.0449 113.405 69.9679 121.293C70.0136 122.86 71.3551 124.112 72.9461 124.082C74.5154 123.995 75.7717 122.672 75.726 121.105Z" fill="#7400BD"/><path fill-rule="evenodd" clip-rule="evenodd" d="M96.1691 31.1028C96.0688 31.838 95.9919 32.5738 95.9128 33.3626C95.3798 38.9382 95.2922 45.0605 94.9811 49.2195C94.6722 53.3258 94.3399 57.4309 94.101 61.54C93.9651 64.2805 93.8292 67.0212 93.7656 69.7118C93.3178 85.7473 93.3415 101.697 92.6603 117.723C92.5486 119.302 91.1889 120.513 89.6009 120.447C88.015 120.327 86.8082 118.956 86.9198 117.377C88.0897 103.695 89.0215 90.1097 89.6287 76.4573C89.8404 71.8716 90.0267 67.3373 90.1216 62.7468C90.2143 58.209 90.1689 53.6127 90.217 49.0203C90.2548 44.1105 89.7492 36.485 90.2424 30.1685C90.5254 26.6948 91.1923 23.5538 92.2406 21.3796C93.0848 19.6194 94.2786 19.0356 95.1535 18.8081C96.4509 18.5455 98.1236 18.8271 99.4002 20.7817C100.214 22.0304 101.134 24.7091 101.821 27.9064C103.061 33.6089 103.9 41.0904 104.232 42.6886C105.033 47.1053 105.257 51.9201 105.189 56.987C105.12 64.3775 104.33 72.2134 104.165 79.6528C104.078 82.9233 104.181 86.0958 104.408 89.1155C104.863 94.5739 105.973 102.278 106.644 108.749C106.995 112.144 107.218 115.269 107.151 117.484C107.092 118.907 105.926 119.968 104.524 119.909C103.123 119.85 102.048 118.697 102.106 117.273C102.214 115.218 102.097 112.361 101.879 109.131C101.442 102.67 100.567 94.9229 100.255 89.4176C100.056 86.2934 100.099 82.9683 100.121 79.5894C100.167 72.1979 100.464 64.3943 100.228 57.0439C100.07 52.3372 99.6444 47.8834 98.7091 43.8836C98.3706 42.4436 97.3561 36.3807 96.1691 31.1028ZM94.8536 24.9746C94.6672 24.3858 94.4465 24.0598 94.1087 24.3097C93.5564 24.6563 94.1084 24.8906 94.8536 24.9746Z" fill="#7400BD"/><path fill-rule="evenodd" clip-rule="evenodd" d="M105.911 63.597C105.349 63.7802 104.754 64.0031 103.964 64.1928C103.29 64.3256 102.575 64.5489 101.771 64.5692C101.473 64.5987 101.157 64.5664 100.862 64.4886C99.9435 64.2947 99.1938 63.9587 98.2052 63.7878C97.8023 63.716 97.4167 63.7062 97.0108 63.7418C96.6174 63.783 96.2333 63.9373 95.8744 64.1027C94.3637 64.7305 93.2143 65.7914 91.7475 66.6563C90.6022 67.3391 89.3628 67.7624 88.1818 68.5922C87.168 69.5512 87.1229 71.1616 88.075 72.1858C89.0396 73.2156 90.6527 73.2313 91.6665 72.2723C92.2636 71.5071 92.781 70.6517 93.6019 70.2585C94.9876 69.5747 96.52 70.2071 97.9563 69.9807C98.267 69.9568 98.5432 69.8087 98.8444 69.6719C99.6825 69.3407 100.211 68.7622 101.046 68.5383C101.53 68.4289 102.024 68.4325 102.497 68.4813C104.049 68.633 105.232 69.1081 106.237 69.3411C107.828 69.2384 109.037 67.8773 108.962 66.2675C108.866 64.7031 107.502 63.4943 105.911 63.597Z" fill="#7400BD"/><path fill-rule="evenodd" clip-rule="evenodd" d="M112.601 25.7492C113.89 24.9282 115.043 23.998 116.466 23.3916C117.036 23.1384 117.65 22.9393 118.283 22.8993C119.389 22.71 120.385 22.9952 121.509 22.9652C121.93 22.9738 122.375 22.9298 122.8 22.8326C124.852 22.292 126.531 21.0027 128.575 20.7267C129.914 20.5423 131.236 20.8867 132.563 21.0727C133.942 21.1009 135.1 20.0125 135.146 18.5835C135.167 17.207 134.06 16.0193 132.657 15.9907C131.131 16.1713 129.666 16.6181 128.074 16.6915C126.222 16.8125 124.434 16.4052 122.536 16.5252C122.066 16.5686 121.621 16.6127 121.173 16.7094C120.724 16.8591 120.32 17.0626 119.892 17.2657C118.893 17.7749 118.123 18.4475 117.123 19.0096C116.79 19.1616 116.458 19.3135 116.104 19.4122C114.238 19.9566 112.388 20.0251 110.53 20.3578C109.06 20.9633 108.306 22.5894 108.889 24.0842C109.449 25.5786 111.109 26.3013 112.601 25.7492Z" fill="#7400BD"/><path fill-rule="evenodd" clip-rule="evenodd" d="M124.413 118.055C124.36 113.91 124.307 109.766 124.326 105.562C124.343 101.419 124.336 97.2744 124.542 93.0741C124.629 91.1259 124.811 89.1188 125.016 87.1121C125.448 82.4289 126.088 77.8105 126.45 73.1259C126.573 71.4831 126.675 69.7793 126.705 68.1346C126.749 63.87 126.509 59.7211 126.293 55.573L124.928 32.6941L123.055 19.7374C123.1 18.3368 121.992 17.1568 120.59 17.1281C119.213 17.039 118.031 18.1721 117.986 19.5727C117.997 19.9386 118.048 20.5492 118.186 21.3442C118.745 24.2806 120.418 30.4086 120.752 33.0967C121.016 35.7832 121.22 38.895 121.234 42.0639C121.248 46.6954 120.952 51.5031 120.818 55.6441C120.747 58.5675 120.581 61.5498 120.484 64.5337C120.419 66.5432 120.356 68.4925 120.361 70.5035C120.38 76.4147 120.819 82.395 120.811 88.4276C120.808 89.9509 120.808 91.4133 120.735 92.9352C120.531 97.0747 120.115 101.271 119.773 105.347C119.401 109.605 119.01 113.74 118.668 117.816C118.617 119.399 119.859 120.766 121.448 120.798C123.035 120.891 124.362 119.638 124.413 118.055Z" fill="#7400BD"/><path fill-rule="evenodd" clip-rule="evenodd" d="M148.573 114.258C150.487 108.037 151.603 100.617 152.358 92.9408C153.471 81.7667 153.853 69.8533 154.653 59.6786C154.814 56.7906 154.879 53.9526 154.806 51.0466C154.503 39.2506 152.654 27.4481 153.113 15.8251C153.192 14.4095 154.397 13.3659 155.799 13.4178C157.198 13.5265 158.258 14.689 158.179 16.1046C157.975 18.9323 157.907 21.8276 157.936 24.6734C157.975 32.8091 158.62 40.9921 158.842 49.1988C158.924 52.788 158.961 56.317 158.763 59.8845C158.351 71.9093 158.659 86.1506 157.475 99.0253C156.924 105.125 156.017 110.912 154.608 116.035C153.969 118.26 153.023 119.268 152.216 119.888C151.316 120.5 150.368 120.71 149.362 120.689C148.846 120.706 148.296 120.493 147.736 120.449C145.428 120.27 142.701 120.058 140.487 118.18C138.991 116.87 137.606 114.829 136.936 111.307C136.4 108.308 136.229 104.655 136.31 100.681C136.445 92.7861 137.465 83.7088 137.83 77.1401C137.94 72.6557 138.098 68.1183 138.21 63.5772C138.372 56.879 138.494 50.0642 138.519 43.2984C138.566 35.7381 138.472 28.1666 138.126 20.917C138.097 19.3224 139.365 17.9995 140.937 17.9509C142.531 17.9041 143.844 19.1432 143.896 20.7396C143.89 26.3126 143.712 32.0427 143.487 37.7693C143.188 45.6513 142.701 53.5757 142.309 61.4504C142.036 66.7752 141.86 72.05 141.69 77.2121C141.704 82.8435 141.285 90.3751 141.39 97.3216C141.475 102.105 141.783 106.679 142.646 110.101C143.044 111.781 143.62 112.793 144.381 113.421C145.569 114.367 147.037 114.082 148.226 114.174C148.319 114.182 148.436 114.191 148.573 114.258ZM149.032 114.408C149.329 114.545 149.539 114.561 149.552 114.334C149.561 114.164 149.322 114.26 149.032 114.408Z" fill="#7400BD"/><path fill-rule="evenodd" clip-rule="evenodd" d="M169.974 114.365C170.3 113.632 172.038 114.335 172.713 114.396C173.345 114.399 174.37 114.11 175.235 113.371C175.88 112.776 176.379 111.894 176.638 110.718C176.848 109.592 176.867 108.122 176.843 106.593C176.806 104.137 176.562 101.607 176.438 99.7966C176.123 94.9706 175.533 90.4467 174.736 86.2311C174.222 83.5131 173.586 80.8929 172.846 78.427C172.343 76.6912 171.836 75.0096 171.233 73.3738C169.794 69.3179 167.203 65.3213 165.591 60.2684C164.598 57.3433 163.908 54.0639 163.953 50.2518C163.889 47.4656 164.024 44.4795 164.256 41.4476C164.6 36.954 165.181 32.427 166.108 28.3679C167.666 21.6403 170.31 16.3198 173.414 14.203C174.804 13.2935 176.275 13.3727 177.753 14.1066C179.025 14.7673 180.36 16.3061 181.378 17.2708C182.48 18.4067 182.464 20.2044 181.317 21.354C180.196 22.4516 178.372 22.3946 177.27 21.2587C176.807 20.7805 175.602 20.1809 175.219 19.5465C173.23 21.4374 171.671 25.1115 170.421 29.4684C169.324 33.2394 168.478 37.5241 168.103 41.7424C167.858 44.6095 167.849 47.4438 167.943 50.1237C168.214 53.3648 169.053 56.1124 170.096 58.6059C172.168 63.428 175.101 67.1831 176.876 71.1059C178.328 74.5634 179.505 78.3229 180.288 82.3737C181.279 87.6428 181.63 93.3991 181.669 99.6721C181.677 101.472 181.724 104.148 181.615 106.7C181.526 108.546 181.321 110.38 180.958 111.71C180.35 113.999 179.226 115.533 177.968 116.564C175.999 118.129 173.723 118.576 172.329 118.395C171.49 118.319 170.039 118.678 168.888 118.355C167.986 118.165 167.197 117.657 166.621 116.732C165.722 115.342 165.102 113.596 164.642 111.537C163.865 108.141 163.601 104.028 163.044 100.107C162.88 98.9471 162.41 97.051 162.16 95.3927C162.01 94.3978 161.946 93.5193 161.963 92.8666C162.049 91.4569 163.263 90.368 164.661 90.4949C166.062 90.5676 167.114 91.7533 167.028 93.1629C167.001 93.5966 167.038 94.1453 167.095 94.7502C167.272 96.4563 167.622 98.3961 167.739 99.5516C168.056 102.797 168.154 106.186 168.555 109.221C168.832 111.208 169.188 113.04 169.974 114.365Z" fill="#7400BD"/><path fill-rule="evenodd" clip-rule="evenodd" d="M63.673 157.188C64.2227 156.519 65.1068 156.14 66.0315 156.278C67.4186 156.485 68.3607 157.767 68.1488 159.177C68.0031 160.146 68.3537 161.43 68.8112 162.789C70.1495 166.623 72.6368 170.988 73.5078 173.37C75.4202 178.731 76.8975 184.627 77.6646 190.688C78.4075 196.595 78.4867 202.673 77.5484 208.6C76.5525 215.539 75.6304 222.46 74.1853 229.242C73.2058 233.871 71.9994 238.436 70.3164 242.871C65.5903 255.441 57.1154 262.286 48.3686 263.865C38.5285 265.642 28.0791 260.781 21.4317 249.339C15.953 239.242 11.4466 228.809 9.64665 217.669C7.93894 207.173 8.59188 196.069 13.1372 184.072C14.9945 178.793 17.5244 173.914 20.4119 169.329C23.3633 164.634 26.7099 160.297 30.1554 156.246C31.8693 154.279 34.1967 151.532 36.5821 149.816C38.0391 148.772 39.5588 148.097 41.0264 147.926C46.8233 147.258 51.8949 148.585 56.4309 151.273C59.033 152.832 61.4258 154.841 63.673 157.188ZM64.9794 166.422C64.1846 166.364 63.4425 165.953 62.9341 165.247C60.2141 161.328 57.1889 158.023 53.6766 155.758C50.1412 153.489 46.1144 152.288 41.4935 152.681C40.464 152.767 39.4389 153.455 38.3959 154.261C36.549 155.697 34.8306 157.694 33.4967 159.177C30.0679 162.96 26.7105 167.055 23.7713 171.512C20.9786 175.781 18.5389 180.373 16.7258 185.358C12.9195 196.684 12.6358 207.063 14.5784 216.782C16.6736 227.216 21.3641 236.895 26.9114 246.221C31.9248 255.168 39.7644 259.309 47.4144 258.107C54.6494 256.993 61.5569 251.296 65.7866 241.084C67.4992 236.925 68.8277 232.648 69.8644 228.268C71.4536 221.627 72.455 214.808 73.5489 208.004C74.3373 202.445 74.2196 196.782 73.4192 191.257C72.5991 185.548 71.0455 180.001 69.1264 174.999C68.3642 172.994 66.4248 169.701 64.9794 166.422Z" fill="#7400BD"/><path fill-rule="evenodd" clip-rule="evenodd" d="M79.1241 265.102C76.8797 261.163 74.5671 257.365 72.4659 253.417C71.8762 252.308 71.3096 251.203 70.8212 250.049C69.4177 246.806 68.5305 243.43 67.2051 240.139C66.6596 238.736 66.0865 237.36 65.4121 236.028C63.5662 232.269 61.3756 228.759 59.3778 225.067C58.7133 223.827 57.4281 222.314 56.1319 220.559C55.1669 219.274 54.2514 217.816 53.4471 216.405C52.4603 214.636 51.6725 212.957 51.9494 211.586C52.157 210.206 51.2196 208.895 49.8324 208.688C48.4453 208.481 47.1403 209.458 46.9327 210.838C46.7945 212.229 47.1008 213.807 47.8279 215.417C48.9158 217.772 50.9517 220.267 52.6727 222.656C53.806 224.237 54.7039 225.812 55.1648 226.992C56.7969 231.23 58.2166 235.466 60.1108 239.532C60.5376 240.467 61.0611 241.386 61.5617 242.301C63.0437 244.865 64.7185 247.247 66.2005 249.81C66.8408 250.897 67.458 251.98 67.997 253.112C69.1356 255.444 70.0947 257.869 71.0768 260.298C72.059 262.727 72.9717 265.146 73.9263 267.6C74.6337 269.027 76.3379 269.642 77.7651 268.954C79.1922 268.265 79.8083 266.525 79.1241 265.102Z" fill="#7400BD"/><path fill-rule="evenodd" clip-rule="evenodd" d="M97.9407 149.861C96.6419 159.759 96.0532 169.492 95.7971 179.214C95.5584 189.45 95.7998 199.637 96.0004 209.938C96.1043 214.278 96.153 218.67 96.225 223.066C96.2107 228.349 95.9329 234.284 96.2631 239.95C96.4717 244.065 97.0305 248.053 98.1356 251.551C101.236 261.113 110.76 267.098 120.728 267.773C130.502 268.479 140.495 264.112 145.212 254.274C146.81 250.878 147.878 246.292 148.537 241.435C149.443 234.783 149.601 227.599 149.551 222.426C149.476 215.537 149.971 208.313 150.088 201.242C150.132 198.125 150.128 195.002 149.918 191.997C149.464 183.07 148.422 173.965 148.193 164.951C148.046 159.012 148.268 153.129 149.231 147.356C149.438 145.975 148.473 144.69 147.086 144.484C145.699 144.277 144.399 145.224 144.191 146.605C143.369 152.699 143.311 158.907 143.631 165.112C144.063 174.186 145.244 183.312 145.888 192.237C146.065 195.147 146.067 198.12 145.968 201.139C145.73 208.221 144.949 215.463 144.784 222.376C144.648 227.371 144.252 234.249 143.155 240.603C142.45 244.822 141.429 248.785 139.925 251.714C136.239 259.093 128.531 261.938 121.128 261.495C113.416 261.067 105.758 257.132 103.048 249.85C101.904 246.767 101.251 243.246 100.857 239.583C100.296 234.034 100.325 228.181 100.114 222.984C100.042 218.589 99.9189 214.216 99.8844 209.886C99.7906 199.661 99.9193 189.529 100.496 179.404C101.026 169.903 102.009 160.379 103.628 150.709C103.866 149.123 102.785 147.67 101.213 147.436C99.6405 147.202 98.1792 148.275 97.9407 149.861Z" fill="#7400BD"/><path fill-rule="evenodd" clip-rule="evenodd" d="M223.884 159.221C224.879 164.084 226.745 169.437 227.032 173.505C227.443 178.942 227.62 184.374 227.491 189.791C227.385 195.211 226.947 200.641 226.084 206.069C225.062 213.335 224.278 223.429 221.892 231.753C220.674 235.926 219.05 239.648 216.825 242.5C213.67 246.504 211.228 250.645 208.089 254.231C206.608 255.903 204.984 257.433 203.1 258.803C197.768 262.664 188.391 264.509 180.297 263.003C174.387 261.911 169.248 258.983 166.467 254.214C164.854 251.421 163.952 248.463 163.519 245.365C162.663 239.111 163.817 232.375 163.353 226.029C162.815 217.03 162.952 208.1 163.592 199.126C164.206 190.327 165.299 181.481 166.808 172.546C167.451 168.107 167.839 163.329 168.754 158.811C169.184 156.742 169.696 154.747 170.436 152.815C171.152 150.879 172.232 149.358 173.47 148.041C175.318 146.124 177.581 144.75 179.682 143.351C185.103 139.684 190.903 136.164 196.698 135.346C201.05 134.704 205.434 135.567 209.766 138.826C212.06 140.549 214.214 142.732 216.295 145.085C217.789 146.779 219.22 148.584 220.608 150.353C220.825 150.325 221.084 150.334 221.315 150.368C222.702 150.575 223.667 151.86 223.46 153.241C223.42 153.505 223.385 153.74 223.372 153.978L224.356 155.296C225.214 156.505 225.069 158.106 223.995 159.117L223.884 159.221ZM218.483 156.944C216.51 154.187 214.444 151.266 212.226 148.563C210.443 146.435 208.591 144.447 206.607 142.86C203.574 140.395 200.442 139.688 197.294 140.03C192.102 140.608 186.942 143.803 182.007 146.911C180.122 148.132 178.065 149.237 176.418 150.913C175.501 151.828 174.7 152.91 174.164 154.271C173.256 156.539 172.654 158.972 172.205 161.487C171.506 165.348 171.164 169.351 170.595 173.14C169.413 181.944 168.596 190.682 168.305 199.378C168.033 208.107 168.306 216.827 169.216 225.552C169.733 230.915 169.163 236.596 169.533 241.997C169.763 245.185 170.292 248.267 171.919 251.122C174.248 255.283 179.356 257.156 184.634 257.582C190.305 258.067 196.292 256.918 199.979 254.404C202.14 252.924 203.892 251.173 205.523 249.284C208.112 246.216 210.374 242.8 213.141 239.488C215.707 236.417 217.399 231.924 218.603 227.058C220.409 219.759 221.119 211.576 222.084 205.473C222.824 200.237 223.19 194.976 223.199 189.721C223.237 184.441 222.942 179.172 222.457 173.904C222.078 169.823 219.995 164.497 218.964 159.718C218.754 158.756 218.609 157.834 218.483 156.944Z" fill="#7400BD"/></svg>