<svg width="108" height="112" viewBox="0 0 108 112" fill="none" xmlns="http://www.w3.org/2000/svg"><path fill-rule="evenodd" clip-rule="evenodd" d="M29.2025 51.8425C29.1642 51.8224 29.126 51.8023 29.0909 51.7805C27.9391 51.0832 27.5712 49.588 28.2653 48.4382C28.9595 47.2884 30.458 46.9193 31.6081 47.6135L31.7039 47.6757L31.8043 47.7316L31.9001 47.7938L31.9989 47.8464L32.0947 47.9086L32.1983 47.9628L32.2924 48.0219L32.396 48.0761L32.4934 48.1335L32.5938 48.1893L32.691 48.2468L32.7946 48.301L32.892 48.3584L32.9939 48.4095L33.0912 48.4669L33.1948 48.5211L33.2952 48.5769L33.3972 48.628L33.4976 48.6838L33.5997 48.7348L33.7001 48.7906L33.8052 48.8401L33.9056 48.8959L34.0076 48.9469L34.1112 49.0011L34.2115 49.049L34.3151 49.1032L34.4203 49.1526L34.5207 49.2085L34.6273 49.2531L34.7278 49.309L34.8344 49.3537L34.938 49.4078L35.0415 49.4541L35.1451 49.5083L35.2486 49.5546L35.3553 49.6072L35.462 49.6518L35.5639 49.7029L35.6706 49.7475L35.7741 49.8017L35.8808 49.8464L35.986 49.8958L36.0926 49.9405L36.1977 49.9899L36.3043 50.0346L36.4094 50.084L36.5161 50.1287L36.6244 50.1765L36.731 50.2211L36.8361 50.2706L36.9443 50.3105L37.0494 50.3599L37.1592 50.403L37.2675 50.4507L37.3725 50.4923L37.4808 50.5401L37.5889 50.58L37.6972 50.6278L37.8053 50.6677L37.9137 50.7155L38.0218 50.7554L38.1301 50.8032L38.2414 50.8415L38.3496 50.8893L38.4578 50.9292L38.5644 50.9738L38.6774 51.0153L38.7841 51.0599L38.8954 51.0982L39.002 51.1428L39.1133 51.1811L39.2247 51.2273L39.336 51.2656L39.4427 51.3102L39.554 51.3485L39.6638 51.3916L39.7752 51.4298L39.8849 51.4728L39.9962 51.5111L40.106 51.5542L40.2189 51.5877L40.3286 51.6307L40.44 51.669L40.5497 51.712L40.6642 51.7487L40.774 51.7918L40.8837 51.8269L40.9967 51.8683L41.1112 51.9049L41.2193 51.9448L41.3338 51.9815L41.4436 52.0245L41.5564 52.058L41.6693 52.0994L41.7822 52.1329L41.892 52.176L42.0048 52.2095L42.1177 52.2509L42.2306 52.2844L42.3435 52.3259L42.4564 52.3594L42.5693 52.4008L42.6822 52.4342L42.7951 52.4757L42.9111 52.5076L43.0224 52.5458L43.1369 52.5825L43.2482 52.6207L43.3642 52.6526L43.4771 52.694L43.59 52.7276L43.7045 52.7642L43.8189 52.8009L43.9334 52.8375L44.0462 52.871L44.1607 52.9077L44.2735 52.9412L44.3896 52.981L44.5056 53.0129L44.6169 53.0511L44.7329 53.0831L44.8442 53.1213L44.9602 53.1532L45.0763 53.193L45.1923 53.2249L45.3067 53.2615L45.4196 53.295L45.5341 53.3317L45.6501 53.3636L45.7662 53.4034L45.8822 53.4353L45.9967 53.4719L46.1127 53.5038L46.2271 53.5404L46.3431 53.5723L46.4576 53.609L46.5736 53.6408L46.688 53.6775L46.804 53.7094L46.9185 53.7461L47.0376 53.7763L47.1537 53.8161L47.2697 53.848L47.3842 53.8846L47.5002 53.9165L47.6146 53.9532L47.7338 53.9835L47.8482 54.0201L47.9642 54.052L48.0787 54.0887L48.1978 54.1189L48.3139 54.1587L48.4331 54.189L48.5475 54.2256L48.6635 54.2575L48.7811 54.2925L48.8971 54.3244L49.0116 54.3611L49.1307 54.3913L49.2452 54.428L49.366 54.4614L49.4804 54.4981L49.5996 54.5283L49.714 54.565L49.8332 54.5953L49.9493 54.6351L50.0653 54.6669L50.1829 54.702L50.2989 54.7338L50.4181 54.772L50.5341 54.8039L50.6517 54.8389L50.7677 54.8708L50.8869 54.909L51.0061 54.9392L51.1205 54.9759L51.2413 55.0093L51.3558 55.046L51.4749 55.0763L51.591 55.1161L51.7101 55.1463L51.8262 55.1861L51.9454 55.2164L52.0614 55.2562L52.1806 55.2864L52.2967 55.3262L52.4158 55.3565L52.5319 55.3963L52.6511 55.4266L52.7671 55.4664L52.8879 55.4998L53.0024 55.5364L53.1231 55.5698L53.2392 55.6096L53.3584 55.6399L53.4744 55.6797L53.5952 55.7131L53.7113 55.7529L53.8321 55.7863L53.9481 55.8261L54.0673 55.8564L54.1834 55.8962L54.3041 55.9296L54.4202 55.9694L54.5378 56.0045L54.6571 56.0426L54.7747 56.0777L54.8908 56.1175L55.0115 56.1509L55.1292 56.1938L55.25 56.2272L55.3661 56.267L55.4837 56.3021L55.6046 56.3434L55.7222 56.3784L55.8383 56.4182L55.9575 56.4564L56.0736 56.4962L56.196 56.5328L56.3121 56.5726L56.4313 56.6107L56.5474 56.6505L56.6698 56.6871L56.7843 56.7317L56.9051 56.7651L57.0228 56.808L57.142 56.8462L57.2597 56.8892L57.379 56.9274L57.4967 56.9703L57.6159 57.0085L57.7304 57.053L57.8528 57.0896L57.9674 57.1342L58.0866 57.1723C58.1295 57.1861 58.1646 57.1999 58.2043 57.2153C58.2425 57.2275 58.2854 57.2412 58.3236 57.2535C58.3633 57.2688 58.4031 57.2842 58.4397 57.3012C58.481 57.3118 58.5192 57.324 58.559 57.3394C58.5988 57.3547 58.6369 57.367 58.6767 57.3823C58.7165 57.3977 58.7578 57.4083 58.7975 57.4237C58.8357 57.4359 58.8756 57.4512 58.9122 57.4682C58.9551 57.4819 58.9933 57.4942 59.033 57.5095C59.0728 57.5249 59.111 57.5371 59.1507 57.5525C59.1905 57.5678 59.2287 57.5801 59.2685 57.5954C59.3082 57.6108 59.348 57.6262 59.3878 57.6415C59.4259 57.6537 59.4657 57.6691 59.5039 57.6813C59.5436 57.6967 59.5834 57.712 59.62 57.729C59.6613 57.7396 59.7011 57.755 59.7409 57.7703C59.7807 57.7857 59.8204 57.8011 59.8571 57.8181C59.8984 57.8287 59.9381 57.844 59.9779 57.8594C60.0177 57.8748 60.0543 57.8918 60.0941 57.9071C60.1323 57.9193 60.172 57.9347 60.2118 57.9501C60.2516 57.9654 60.2914 57.9808 60.328 57.9978C60.3693 58.0084 60.4091 58.0238 60.4489 58.0391C60.4886 58.0545 60.5252 58.0715 60.565 58.0868C60.6048 58.1022 60.6429 58.1144 60.6827 58.1298C60.7225 58.1451 60.7623 58.1605 60.8005 58.1806C60.8387 58.1929 60.8785 58.2082 60.9182 58.2236C60.958 58.239 60.9978 58.2543 61.036 58.2745C61.0742 58.2867 61.114 58.3021 61.1537 58.3174C61.1935 58.3328 61.2302 58.3497 61.2716 58.3682C61.3098 58.3804 61.3495 58.3958 61.3893 58.4112C61.4259 58.4282 61.4657 58.4435 61.504 58.4637C61.5421 58.4759 61.5819 58.4913 61.6217 58.5066C61.6631 58.5251 61.6997 58.5421 61.7395 58.5575C61.7792 58.5729 61.819 58.5882 61.8588 58.6036C61.8954 58.6206 61.9368 58.6391 61.9734 58.6561C62.0132 58.6714 62.053 58.6868 62.0928 58.7022C62.1325 58.7175 62.1692 58.7345 62.2074 58.7547C62.2472 58.77 62.287 58.7854 62.3267 58.8008C62.3634 58.8178 62.4048 58.8363 62.4414 58.8533C62.4812 58.8686 62.5209 58.884 62.5576 58.901C62.5973 58.9163 62.6387 58.9348 62.677 58.955C62.7151 58.9672 62.7535 58.9873 62.7932 59.0027C62.833 59.018 62.8713 59.0382 62.9079 59.0552C62.9477 59.0705 62.9874 59.0859 63.0257 59.106C63.0654 59.1214 63.1037 59.1415 63.1403 59.1585C63.1801 59.1739 63.2199 59.1892 63.2613 59.2078L63.3568 59.2541L63.4523 59.2926L63.5463 59.3358L63.6449 59.3727L63.742 59.4143L63.8422 59.4543L63.9394 59.4958L64.0364 59.5296L64.1366 59.5696L64.2384 59.6048L64.3386 59.6448L64.4404 59.68L64.5407 59.7199L64.644 59.7504L64.7474 59.7888L64.8523 59.8224L64.9541 59.8576L65.0622 59.8896L65.1639 59.9248L65.2721 59.9567L65.3786 59.9935L65.4851 60.0223L65.5916 60.0591L65.7012 60.0863L65.8077 60.123L65.9173 60.1503L66.027 60.1854L66.1366 60.2126L66.2463 60.2477L66.3591 60.2733L66.4688 60.3084L66.5815 60.334L66.6943 60.3675L66.8087 60.3962L66.92 60.4266L67.0343 60.4554L67.1503 60.4872L67.2631 60.5128L67.3791 60.5447L67.4934 60.5735L67.6094 60.6053L67.7269 60.6324L67.8429 60.6643L67.9605 60.6915L68.0781 60.7265L68.1987 60.752L68.3147 60.7839L68.4322 60.811L68.553 60.8444L68.6706 60.8715L68.7913 60.9049L68.9136 60.9336L69.0312 60.9686L69.1535 60.9972C69.1948 61.0078 69.2361 61.0184 69.2743 61.0306C69.314 61.0381 69.3553 61.0487 69.3966 61.0593C69.4379 61.0699 69.4792 61.0805 69.519 61.0958C69.5586 61.1033 69.6 61.1139 69.6413 61.1245C69.6826 61.1351 69.7239 61.1457 69.7637 61.161C69.8033 61.1685 69.8446 61.1791 69.8859 61.1897C69.9289 61.2034 69.9702 61.214 70.01 61.2294C70.0496 61.2368 70.094 61.2458 70.1353 61.2564C70.1751 61.2718 70.2164 61.2824 70.2562 61.2978C70.3006 61.3068 70.3419 61.3173 70.3832 61.3279C70.4245 61.3385 70.4643 61.3539 70.5073 61.3676C70.5486 61.3782 70.5899 61.3888 70.6312 61.3994C70.6741 61.4132 70.7154 61.4238 70.7552 61.4391C70.7965 61.4497 70.8378 61.4603 70.8839 61.4725C70.9236 61.4878 70.9666 61.5016 71.0063 61.5169C71.0508 61.5259 71.0921 61.5365 71.135 61.5502C71.1763 61.5608 71.2161 61.5762 71.2606 61.5931C71.302 61.6037 71.3433 61.6143 71.3862 61.628C71.4482 61.6479 71.507 61.6694 71.5627 61.6925C71.6326 61.7122 71.7011 61.7367 71.7695 61.7613C71.8204 61.7828 71.8713 61.8044 71.9191 61.8276C71.9636 61.8445 72.0129 61.8629 72.0591 61.8829C72.0989 61.8983 72.1403 61.9168 72.1785 61.937C72.2215 61.9507 72.2629 61.9692 72.3026 61.9846C72.3409 62.0047 72.3776 62.0217 72.4142 62.0386L72.5304 62.0864L72.6355 62.1358L72.7453 62.1789L72.8504 62.2283L72.9554 62.2698L73.0558 62.3177L73.1544 62.3545L73.2515 62.3962L73.3453 62.4315L73.4329 62.47L73.5204 62.5007L73.5951 62.5299L73.6651 62.5496L73.7001 62.5635C74.9643 62.7291 75.8963 63.8502 75.8072 65.1385C75.7172 66.4791 74.5558 67.4951 73.2132 67.4016C73.0817 67.3937 72.9516 67.3731 72.8262 67.346C72.731 67.3313 72.6342 67.3135 72.5389 67.2908C72.469 67.2711 72.399 67.2513 72.3306 67.2268C72.2719 67.2132 72.2067 67.195 72.1479 67.1735C72.0923 67.1583 72.0413 67.1368 71.9872 67.1168C71.9364 67.1032 71.8823 67.0833 71.833 67.0648C71.7837 67.0464 71.7392 67.0295 71.693 67.0094C71.6453 66.9942 71.6008 66.9773 71.5546 66.9573C71.51 66.9404 71.4655 66.9235 71.4225 66.9018C71.3795 66.888 71.335 66.8711 71.2936 66.8526C71.2522 66.8341 71.2108 66.8156 71.1694 66.7971C71.1296 66.7817 71.0851 66.7648 71.0437 66.7463C71.0039 66.731 70.9657 66.7108 70.9243 66.6923C70.8861 66.6801 70.8447 66.6616 70.8081 66.6446C70.7683 66.6293 70.73 66.6091 70.6934 66.5922L70.5772 66.5444L70.4673 66.4935L70.3575 66.4504L70.2524 66.401L70.1522 66.361L70.0677 66.3209L69.9914 66.2964L69.9643 66.2825L69.9167 66.2672L69.8117 66.2336L69.7036 66.2016L69.5987 66.168L69.4875 66.1377L69.3826 66.1041L69.2714 66.0737L69.1664 66.0401L69.0552 66.0097L68.9455 65.9746L68.8328 65.949L68.7231 65.9139L68.6103 65.8883L68.5006 65.8532L68.3879 65.8276L68.2751 65.7941L68.1607 65.7654L68.0463 65.7366L67.9319 65.7079L67.8191 65.6744L67.7016 65.6473L67.5856 65.6154L67.4728 65.5898L67.3552 65.5547L67.2393 65.5308L67.1217 65.4958L67.001 65.4703L66.885 65.4384L66.7675 65.4113L66.6467 65.3778L66.5292 65.3507L66.4085 65.3173L66.2862 65.2887L66.1685 65.2536L66.0479 65.2282L65.9271 65.1947C65.8858 65.1841 65.8461 65.1767 65.8048 65.1661C65.7635 65.1555 65.7254 65.1433 65.6824 65.1296C65.6427 65.1221 65.6014 65.1115 65.5601 65.1009C65.522 65.0887 65.4807 65.0781 65.4409 65.0627C65.3981 65.0569 65.3568 65.0463 65.3155 65.0357C65.2742 65.0251 65.2344 65.0098 65.1931 64.9992C65.1518 64.9886 65.1105 64.9779 65.0692 64.9673C65.0279 64.9567 64.9882 64.9414 64.9468 64.9308C64.9055 64.9202 64.8642 64.9096 64.8229 64.899C64.7816 64.8884 64.7387 64.8747 64.6989 64.8593C64.6592 64.8518 64.6132 64.8397 64.5719 64.8291C64.5337 64.8169 64.4908 64.8032 64.451 64.7878C64.4065 64.7788 64.3652 64.7682 64.3223 64.7545C64.281 64.7439 64.2412 64.7285 64.1983 64.7148C64.157 64.7042 64.1157 64.6936 64.0728 64.6798C64.0298 64.6661 63.9885 64.6555 63.9488 64.6401C63.9058 64.6264 63.8645 64.6158 63.8216 64.602C63.7787 64.5883 63.7357 64.5746 63.696 64.5592C63.6547 64.5486 63.6086 64.5365 63.5688 64.5211C63.5259 64.5074 63.4829 64.4936 63.4432 64.4782C63.4002 64.4645 63.3589 64.4539 63.316 64.4402C63.2731 64.4264 63.2285 64.4096 63.1888 64.3942C63.1458 64.3804 63.103 64.3667 63.0601 64.3529C63.0171 64.3392 62.9774 64.3238 62.9328 64.3069C62.8899 64.2932 62.847 64.2794 62.8072 64.264C62.7626 64.2471 62.7197 64.2334 62.6783 64.2149C62.6354 64.2011 62.5925 64.1874 62.5495 64.1737C62.5081 64.1552 62.4636 64.1383 62.4222 64.1197C62.3793 64.106 62.3363 64.0923 62.2949 64.0737C62.2504 64.0568 62.2106 64.0415 62.1676 64.0198C62.1247 64.0061 62.0817 63.9923 62.0372 63.9755C61.9958 63.9569 61.9512 63.94 61.913 63.9199C61.8684 63.903 61.8255 63.8893 61.781 63.8724C61.7396 63.8539 61.6982 63.8354 61.6552 63.8137C61.6122 63.7999 61.5708 63.7814 61.5247 63.7614C61.4833 63.7429 61.4419 63.7244 61.3989 63.7027C61.3559 63.689 61.3145 63.6704 61.2731 63.6519L61.168 63.6025L61.0613 63.5579L60.9562 63.5084L60.8496 63.4638L60.7445 63.4144L60.6347 63.3713L60.5296 63.3219L60.4214 63.282L60.3163 63.2326L60.2065 63.1895L60.103 63.1432L59.9932 63.1002L59.885 63.0524L59.7768 63.0125L59.6685 62.9647L59.5603 62.9248L59.4521 62.877L59.3439 62.8371L59.2357 62.7893L59.1275 62.7494L59.0192 62.7016L58.9079 62.6633L58.8012 62.6187L58.6899 62.5804L58.5817 62.5326L58.4703 62.4943L58.3637 62.4496L58.2524 62.4113L58.1426 62.3683L58.0344 62.3284L57.923 62.2822L57.8116 62.2439L57.7019 62.2009L57.5906 62.1626L57.4808 62.1196L57.3711 62.0845L57.2613 62.0414L57.15 62.0031L57.0371 61.9617L56.9258 61.9234L56.8159 61.8804L56.7014 61.8438L56.5933 61.8039L56.482 61.7656L56.369 61.7242L56.2593 61.6891L56.1464 61.6476L56.0319 61.611L55.9238 61.5711L55.8093 61.5344L55.6964 61.493L55.5835 61.4595L55.4737 61.4164L55.3608 61.383L55.2479 61.3416L55.1351 61.3081L55.0221 61.2666L54.9093 61.2331L54.7964 61.1917L54.6835 61.1582L54.5722 61.1199L54.4546 61.0849L54.3433 61.0466L54.2304 61.0131L54.1175 60.9717L54.0015 60.9398L53.8902 60.9015L53.7757 60.8649L53.6613 60.8282L53.5484 60.7947L53.4323 60.7549L53.3195 60.7214L53.205 60.6847L53.0921 60.6513L52.9777 60.6146L52.8617 60.5827L52.7487 60.5413L52.6327 60.5094L52.5214 60.4712L52.4054 60.4393L52.291 60.4026L52.175 60.3707L52.0589 60.3309L51.9429 60.299L51.8316 60.2608L51.7156 60.2289L51.6011 60.1922L51.4851 60.1603L51.3707 60.1237L51.2547 60.0918L51.1386 60.052L51.0226 60.0201L50.9081 59.9835L50.7921 59.9516L50.6777 59.9149L50.5617 59.883L50.4472 59.8464L50.3281 59.8161L50.2136 59.7794L50.0976 59.7476L49.9832 59.7109L49.8672 59.679L49.7479 59.6409L49.6319 59.609L49.5175 59.5723L49.4015 59.5405L49.2839 59.5054L49.1679 59.4735L49.0534 59.4369L48.9343 59.4066L48.8198 59.3699L48.7007 59.3397L48.5846 59.2999L48.4686 59.268L48.3541 59.2314L48.235 59.2011L48.1205 59.1644L48.0014 59.1342L47.8869 59.0975L47.7678 59.0673L47.6517 59.0275L47.5325 58.9972L47.4181 58.9605L47.2989 58.9303L47.1829 58.8905L47.0637 58.8602L46.9492 58.8235L46.8301 58.7933L46.714 58.7535L46.5949 58.7232L46.4804 58.6866L46.3596 58.6532L46.2452 58.6165L46.126 58.5863L46.01 58.5465L45.8908 58.5162L45.7747 58.4764L45.6556 58.4461L45.5411 58.4095L45.4203 58.376L45.3059 58.3394L45.1851 58.306L45.0707 58.2693L44.9499 58.2359L44.8338 58.1961L44.7147 58.1659L44.5986 58.1261L44.4794 58.0958L44.3634 58.056L44.2426 58.0226L44.1265 57.9828L44.0074 57.9525L43.8913 57.9127L43.7705 57.8793L43.6544 57.8395L43.5353 57.8092L43.4192 57.7694L43.2984 57.736L43.1823 57.6962L43.0616 57.6628L42.9455 57.623L42.8247 57.5896L42.7087 57.5498L42.591 57.5148L42.4718 57.4766L42.3542 57.4416L42.2365 57.3986L42.1157 57.3652L41.9996 57.3254L41.882 57.2904L41.7612 57.2491L41.6436 57.214L41.5275 57.1742L41.4082 57.136L41.289 57.0979L41.1698 57.0597L41.0537 57.0199L40.9344 56.9817L40.8184 56.9419L40.696 56.9053L40.5783 56.8624L40.4606 56.8274L40.3429 56.7844L40.2237 56.7462L40.1059 56.7033L39.9867 56.6651L39.869 56.6222L39.7514 56.5872L39.632 56.5411L39.5128 56.5029L39.3982 56.4583L39.279 56.4201C39.2361 56.4064 39.2011 56.3925 39.1613 56.3772C39.1231 56.365 39.0802 56.3512 39.0421 56.339C39.0023 56.3236 38.9625 56.3083 38.9227 56.2929C38.8846 56.2807 38.8464 56.2685 38.8067 56.2531C38.7637 56.2393 38.7256 56.2271 38.6889 56.2101C38.6492 56.1948 38.6079 56.1842 38.5681 56.1688C38.5299 56.1566 38.4902 56.1412 38.4535 56.1242C38.4122 56.1136 38.3725 56.0983 38.3327 56.0829C38.2945 56.0707 38.2548 56.0553 38.215 56.04C38.1752 56.0246 38.1371 56.0124 38.0973 55.997C38.0575 55.9817 38.0177 55.9663 37.9779 55.9509C37.9398 55.9387 37.9016 55.9265 37.8619 55.9111C37.8221 55.8958 37.7823 55.8804 37.7425 55.865C37.7044 55.8528 37.6646 55.8374 37.6248 55.8221C37.585 55.8067 37.5453 55.7913 37.5086 55.7743C37.4673 55.7637 37.4276 55.7484 37.3878 55.733C37.348 55.7177 37.3114 55.7007 37.2716 55.6853C37.2335 55.6731 37.1937 55.6577 37.1539 55.6424C37.1141 55.627 37.0744 55.6116 37.0377 55.5947C36.9964 55.5841 36.9567 55.5687 36.9169 55.5533C36.8771 55.538 36.8404 55.521 36.8006 55.5056C36.7608 55.4903 36.7227 55.478 36.6829 55.4627C36.6431 55.4473 36.6065 55.4303 36.5651 55.4118C36.527 55.3996 36.4872 55.3842 36.4474 55.3689C36.4076 55.3535 36.3679 55.3382 36.3296 55.318C36.2915 55.3058 36.2517 55.2904 36.2119 55.2751C36.1721 55.2597 36.1355 55.2427 36.0941 55.2242C36.056 55.212 36.0162 55.1966 35.9764 55.1812C35.9398 55.1643 35.9 55.1489 35.8618 55.1287C35.8236 55.1165 35.7838 55.1012 35.744 55.0858C35.7026 55.0673 35.666 55.0503 35.6263 55.0349C35.5865 55.0196 35.5467 55.0042 35.5069 54.9888C35.4703 54.9719 35.4289 54.9533 35.3923 54.9363C35.3525 54.921 35.3127 54.9056 35.273 54.8902C35.2363 54.8733 35.1965 54.8579 35.1583 54.8377C35.1185 54.8224 35.0787 54.8071 35.0389 54.7917C35.0023 54.7747 34.9609 54.7562 34.9243 54.7392C34.8845 54.7239 34.8447 54.7085 34.8081 54.6915C34.7667 54.673 34.7301 54.656 34.6887 54.6375C34.6536 54.6236 34.6123 54.6051 34.5725 54.5897C34.5327 54.5744 34.4945 54.5543 34.4578 54.5373C34.4181 54.5219 34.3783 54.5065 34.34 54.4864C34.3003 54.471 34.262 54.4509 34.2254 54.4339C34.1856 54.4185 34.1458 54.4032 34.1076 54.383C34.0678 54.3677 34.0296 54.3476 33.9913 54.3274C33.9532 54.3152 33.9118 54.2967 33.8752 54.2797C33.8338 54.2612 33.7971 54.2442 33.7588 54.2241C33.719 54.2087 33.6793 54.1934 33.641 54.1732C33.6044 54.1562 33.563 54.1377 33.5279 54.116C33.4881 54.1006 33.4483 54.0852 33.4117 54.0683C33.3703 54.0497 33.3321 54.0296 33.2938 54.0095C33.254 53.9941 33.2174 53.9771 33.176 53.9586C33.1394 53.9416 33.1012 53.9215 33.0629 53.9014C33.0231 53.886 32.9865 53.869 32.9483 53.8489C32.9069 53.8303 32.8685 53.8102 32.8351 53.7916C32.7953 53.7763 32.7539 53.7578 32.7157 53.7376C32.679 53.7206 32.6408 53.7005 32.6025 53.6804C32.5628 53.665 32.5245 53.6448 32.4863 53.6247C32.4465 53.6094 32.4083 53.5892 32.3732 53.5675C32.3334 53.5521 32.2951 53.532 32.2569 53.5118C32.2155 53.4933 32.1772 53.4732 32.1421 53.4514C32.1024 53.436 32.0641 53.4159 32.0275 53.399C31.9893 53.3788 31.9509 53.3587 31.9127 53.3386C31.8744 53.3184 31.8347 53.3031 31.7964 53.2829C31.7582 53.2628 31.7199 53.2427 31.6848 53.2209C31.6451 53.2056 31.6068 53.1854 31.5686 53.1653C31.5303 53.1451 31.4921 53.125 31.457 53.1033C31.4156 53.0848 31.379 53.0677 31.3407 53.0476C31.3025 53.0275 31.2641 53.0074 31.2274 52.9825C31.1908 52.9655 31.1494 52.947 31.1112 52.9269C31.0761 52.9051 31.0378 52.8849 31.0027 52.8632C30.9613 52.8447 30.9231 52.8245 30.8848 52.8044C30.8466 52.7843 30.8115 52.7625 30.7732 52.7424C30.735 52.7222 30.6967 52.7021 30.6585 52.682C30.6202 52.6618 30.5851 52.6401 30.5452 52.6168C30.5086 52.5999 30.4703 52.5797 30.4321 52.5596C30.3954 52.5347 30.3571 52.5145 30.322 52.4928C30.2838 52.4727 30.2456 52.4525 30.2073 52.4324C30.1674 52.4091 30.1323 52.3873 30.0972 52.3656C30.059 52.3454 30.0207 52.3253 29.9824 52.3052C29.9457 52.2803 29.9075 52.2602 29.8724 52.2384C29.8341 52.2183 29.7959 52.1981 29.7592 52.1732C29.7209 52.1531 29.6858 52.1313 29.6491 52.1064C29.6108 52.0863 29.5726 52.0662 29.5344 52.046C29.4976 52.0211 29.4625 51.9994 29.4258 51.9745C29.3875 51.9544 29.3493 51.9342 29.311 51.9141C29.2743 51.8892 29.2392 51.8674 29.2025 51.8425Z" fill="#7400BD"/><path fill-rule="evenodd" clip-rule="evenodd" d="M53.002 31.0149L53.0007 30.904C53.0385 29.5625 54.1564 28.5011 55.5014 28.5375C56.8433 28.5756 57.9051 29.6936 57.8689 31.0383C57.8679 31.0826 57.8637 31.1286 57.861 31.1698C57.8616 31.2173 57.8605 31.2616 57.8595 31.3059C57.8584 31.3503 57.8558 31.3915 57.8516 31.4374C57.8505 31.4818 57.8494 31.5262 57.8484 31.5705C57.8473 31.6148 57.8415 31.6577 57.8405 31.702C57.8394 31.7464 57.8384 31.7907 57.8342 31.8367C57.8315 31.8779 57.8305 31.9222 57.8246 31.965C57.8236 32.0094 57.8225 32.0537 57.8183 32.0997C57.8172 32.1441 57.8114 32.1868 57.8056 32.2297C57.8077 32.2724 57.8035 32.3184 57.8025 32.3627C57.7966 32.4055 57.7956 32.4499 57.7898 32.4927C57.7887 32.537 57.786 32.5783 57.7818 32.6242C57.7776 32.6702 57.7749 32.7114 57.7691 32.7542C57.7681 32.7985 57.7623 32.8414 57.7612 32.8857C57.7554 32.9285 57.7512 32.9745 57.7454 33.0173C57.7427 33.0585 57.7417 33.1028 57.7358 33.1457C57.7316 33.1916 57.7258 33.2345 57.7199 33.2773C57.7173 33.3185 57.7162 33.3628 57.7104 33.4057C57.7046 33.4485 57.7004 33.4944 57.6929 33.5341C57.6919 33.5784 57.6861 33.6213 57.6819 33.6672C57.6792 33.7084 57.6734 33.7512 57.6644 33.7957C57.6618 33.8369 57.659 33.8781 57.6548 33.9241C57.649 33.9669 57.6432 34.0097 57.6326 34.051C57.6316 34.0953 57.6289 34.1365 57.6231 34.1793C57.6173 34.2222 57.6115 34.265 57.6025 34.3094C57.5998 34.3506 57.594 34.3934 57.5882 34.4362C57.5855 34.4774 57.5765 34.5219 57.5707 34.5647C57.5681 34.6059 57.5622 34.6488 57.5564 34.6916C57.5505 34.7344 57.5447 34.7772 57.5341 34.8185C57.5314 34.8597 57.5256 34.9025 57.5198 34.9453C57.514 34.9881 57.5082 35.031 57.5008 35.0706C57.4949 35.1135 57.4891 35.1562 57.4833 35.1991C57.4775 35.2419 57.4717 35.2847 57.4642 35.3244C57.4584 35.3672 57.4525 35.41 57.4467 35.4528C57.4409 35.4957 57.4334 35.5353 57.4245 35.5798C57.4202 35.6178 57.4144 35.6607 57.4085 35.7035C57.4027 35.7463 57.3921 35.7876 57.3863 35.8304C57.3789 35.87 57.3762 35.9113 57.3672 35.9557C57.3614 35.9985 57.354 36.0382 57.3434 36.0795C57.3407 36.1207 57.3348 36.1635 57.3274 36.2032C57.3216 36.246 57.3126 36.2904 57.3052 36.3301C57.2977 36.3698 57.2919 36.4126 57.2861 36.4554C57.2787 36.4951 57.2728 36.5379 57.2623 36.5792C57.2548 36.6189 57.2521 36.66 57.2432 36.7045C57.2357 36.7442 57.2283 36.7838 57.2177 36.8251C57.215 36.8663 57.2092 36.9091 57.2018 36.9488C57.1928 36.9933 57.1854 37.0329 57.1748 37.0742C57.1721 37.1154 57.1646 37.1551 57.1572 37.1948L57.1302 37.3202L57.1142 37.4439L57.0856 37.5661L57.0681 37.6866L57.0411 37.812L57.0235 37.9326L56.9948 38.0549L56.9773 38.1754L56.9487 38.2976L56.9311 38.4182L56.9057 38.5388L56.885 38.661L56.8595 38.7816L56.8387 38.9038L56.8133 39.0244L56.7909 39.1434L56.7655 39.2641L56.7432 39.3831L56.7177 39.5037L56.7001 39.6243L56.673 39.7418L56.6523 39.8639L56.6252 39.9814L56.606 40.0988L56.5806 40.2194L56.5582 40.3384L56.5342 40.4543L56.5135 40.5765L56.4896 40.6923L56.4673 40.8114L56.4434 40.9272L56.4258 41.0478L56.3986 41.1652L56.3795 41.2826L56.3555 41.3985L56.3364 41.5159L56.3093 41.6334L56.2933 41.7491L56.2661 41.8667L56.2517 41.9856L56.2278 42.1014L56.2086 42.2188L56.1847 42.3347L56.1686 42.4505L56.1446 42.5663L56.1286 42.6821L56.1047 42.798L56.0887 42.9137L56.0646 43.0296L56.0486 43.1454L56.0278 43.2596L56.0118 43.3754L55.991 43.4896L55.975 43.6054L55.9542 43.7197L55.9413 43.8338L55.9205 43.9481L55.9076 44.0622L55.8868 44.1765L55.8739 44.2906L55.8563 44.4032L55.8433 44.5174L55.8257 44.63L55.8129 44.7442L55.7952 44.8568L55.7823 44.971L55.7694 45.0851L55.7565 45.1992L55.7421 45.3102L55.7323 45.4228L55.7194 45.537L55.7097 45.6495L55.6951 45.7605L55.6854 45.873L55.6726 45.9872L55.6659 46.0981L55.6546 46.2075L55.6481 46.3263L55.6336 46.4452L55.6272 46.564L55.6159 46.6813L55.6094 46.8001L55.5981 46.9175L55.5917 47.0363L55.5821 47.1568L55.5755 47.2756L55.5643 47.3929L55.5578 47.5117L55.5481 47.6322L55.5416 47.751L55.5304 47.8683L55.5255 47.9902L55.5142 48.1076L55.5094 48.2295L55.4981 48.3468L55.4947 48.464L55.4851 48.5845L55.4786 48.7033L55.4689 48.8238L55.4672 48.9441L55.4576 49.0646L55.4511 49.1834L55.4415 49.3039L55.4381 49.4211L55.4285 49.5415L55.4236 49.6635L55.414 49.7839L55.4123 49.9043L55.4026 50.0247L55.3992 50.1419L55.3912 50.2655L55.3847 50.3844L55.3751 50.5048L55.3734 50.6251L55.3637 50.7456L55.362 50.8659L55.3524 50.9864L55.3475 51.1084L55.3394 51.232L55.3377 51.3523L55.3281 51.4727L55.3263 51.5931L55.3167 51.7136L55.3119 51.8355L55.3053 51.9544L55.3021 52.0795L55.2925 52.1999L55.2907 52.3203L55.2811 52.4408L55.2779 52.5659L55.2682 52.6864L55.2665 52.8067L55.2585 52.9303L55.2536 53.0523L55.2439 53.1727L55.2439 53.2962L55.2342 53.4166L55.2293 53.5386L55.2213 53.6622L55.2196 53.7826L55.2084 53.9078L55.2067 54.0281L55.1987 54.1517L55.1938 54.2737L55.1841 54.3942L55.1809 54.5193L55.1713 54.6397L55.168 54.7649L55.1584 54.8853L55.1551 55.0104L55.1423 55.1325L55.1422 55.256L55.1294 55.3781L55.1261 55.5032L55.1165 55.6236L55.1133 55.7488L55.1005 55.8708L55.0972 55.996L55.0876 56.1164L55.0844 56.2415L55.0715 56.3636L55.0683 56.4887L55.0555 56.6108L55.0523 56.7359L55.0394 56.858L55.0362 56.9831L55.0234 57.1051L55.017 57.2319L55.009 57.3555L55.001 57.4791L54.9882 57.6012L54.9817 57.7279L54.9706 57.8531L54.9658 57.9751L54.9498 58.0988L54.9465 58.2239L54.9306 58.3476L54.9274 58.4727L54.9115 58.5964L54.905 58.7232L54.8922 58.8452L54.8842 58.9688L54.8699 59.0956L54.8619 59.2193C54.8592 59.2605 54.8534 59.3033 54.8475 59.3461C54.8449 59.3873 54.8422 59.4285 54.8396 59.4697C54.8369 59.5109 54.8311 59.5537 54.8236 59.5934C54.8226 59.6377 54.8198 59.6789 54.8172 59.7201C54.8113 59.7629 54.8071 59.801 54.8013 59.8438C54.7986 59.885 54.7959 59.9262 54.7932 59.9674C54.7874 60.0102 54.7816 60.053 54.7758 60.0958C54.7763 60.1354 54.7704 60.1783 54.7677 60.2195C54.7619 60.2623 54.7592 60.3035 54.7518 60.3431C54.7491 60.3843 54.7465 60.4255 54.7407 60.4684C54.7348 60.5112 54.7322 60.5524 54.7263 60.5952C54.7237 60.6364 54.721 60.6776 54.7152 60.7204C54.7094 60.7632 54.7035 60.8061 54.6992 60.8441C54.6965 60.8853 54.6907 60.9281 54.688 60.9693C54.6822 61.0121 54.6764 61.055 54.669 61.0946C54.6663 61.1358 54.6636 61.177 54.6578 61.2198C54.652 61.2627 54.6462 61.3055 54.6404 61.3483C54.6377 61.3895 54.635 61.4307 54.6275 61.4704C54.6248 61.5116 54.619 61.5544 54.6101 61.5988C54.6074 61.64 54.6047 61.6812 54.5989 61.724C54.5931 61.7669 54.5857 61.8065 54.5798 61.8493C54.5772 61.8905 54.5714 61.9333 54.5687 61.9745C54.5612 62.0142 54.5554 62.0571 54.5495 62.0999C54.5437 62.1427 54.5411 62.1839 54.5336 62.2236C54.5278 62.2664 54.522 62.3092 54.5145 62.3489C54.5119 62.3901 54.5061 62.4329 54.5002 62.4757C54.4944 62.5185 54.4886 62.5613 54.4812 62.601C54.4785 62.6422 54.4726 62.685 54.4668 62.7279C54.461 62.7707 54.4535 62.8104 54.4477 62.8532C54.4419 62.896 54.4361 62.9388 54.4286 62.9785C54.4228 63.0213 54.417 63.0641 54.408 63.1085C54.4054 63.1497 54.3996 63.1926 54.3937 63.2354C54.3848 63.2798 54.3789 63.3226 54.37 63.3671C54.3642 63.4099 54.3583 63.4527 54.3525 63.4955C54.3467 63.5383 54.3377 63.5828 54.3302 63.6225C54.3244 63.6653 54.3186 63.7081 54.3096 63.7525C54.3038 63.7954 54.2964 63.835 54.2858 63.8763C54.28 63.9192 54.2742 63.962 54.2683 64.0048C54.2609 64.0445 54.2519 64.0889 54.2413 64.1302C54.2386 64.1714 54.2328 64.2142 54.2222 64.2555C54.2164 64.2983 54.209 64.338 54.1984 64.3793C54.1926 64.4221 54.1868 64.4649 54.1793 64.5046C54.1719 64.5443 54.1628 64.5887 54.1538 64.6252C54.148 64.668 54.1422 64.7109 54.1347 64.7505L54.1109 64.8743L54.0902 64.9965L54.0647 65.1171L54.044 65.2393L54.0185 65.3599L53.9978 65.4821L53.9707 65.5996L53.9531 65.7201L53.926 65.8376L53.9085 65.9581L53.8814 66.0756L53.8638 66.1962L53.8399 66.312L53.8207 66.4294L53.7936 66.5469L53.7776 66.6626L53.7536 66.7785L53.7344 66.8959L53.7105 67.0118L53.6928 67.1244L53.6689 67.2403L53.6529 67.3561L53.6304 67.4672L53.6144 67.583L53.592 67.694L53.5791 67.8082L53.5566 67.9193L53.5437 68.0334L53.5213 68.1445L53.5116 68.2571L53.4891 68.3682L53.4778 68.4776L53.4586 68.587L53.4472 68.6964L53.431 68.8043L53.4213 68.9168L53.4084 69.023L53.397 69.1325L53.384 69.2387L53.3742 69.3433L53.3643 69.4479L53.3561 69.5557L53.3463 69.6603L53.3396 69.7633L53.3298 69.8679L53.3278 69.9724L53.3196 70.0723L53.3208 70.1752L53.3141 70.2782L53.3139 70.3937L53.3058 70.5094L53.3056 70.625L53.3023 70.7422L53.302 70.8578L53.2956 70.9766L53.2969 71.0954L53.2936 71.2126L53.2951 71.3313L53.2901 71.4533L53.2932 71.5752L53.2884 71.6971L53.2898 71.8159L53.2849 71.9378L53.2864 72.0645L53.2815 72.1865L53.2814 72.31L53.2782 72.4351L53.2781 72.5586C53.277 72.603 53.2744 72.6442 53.2717 72.6854C53.2738 72.7281 53.2759 72.7708 53.2732 72.812C53.2722 72.8563 53.2695 72.8976 53.2668 72.9388C53.2689 72.9815 53.2694 73.021 53.2683 73.0654C53.2673 73.1097 53.2646 73.1509 53.262 73.1921C53.2609 73.2365 53.2629 73.2792 53.2603 73.3204C53.2592 73.3648 53.2565 73.4059 53.2507 73.4488C53.2528 73.4915 53.255 73.5342 53.2508 73.5802C53.2497 73.6245 53.247 73.6657 53.2444 73.7069C53.2433 73.7512 53.2422 73.7956 53.2412 73.84C53.2385 73.8812 53.2374 73.9255 53.2316 73.9683C53.2337 74.011 53.2327 74.0554 53.2285 74.1014C53.2275 74.1457 53.2247 74.1869 53.2205 74.2329C53.2195 74.2772 53.2184 74.3216 53.2126 74.3644C53.2115 74.4087 53.2074 74.4547 53.2015 74.4975C53.2005 74.5419 53.1995 74.5862 53.1953 74.6322C53.1942 74.6765 53.19 74.7225 53.1842 74.7653C53.1848 74.8128 53.1789 74.8556 53.1778 74.9C53.1736 74.946 53.1694 74.9919 53.1621 75.0395C53.161 75.0838 53.1569 75.1298 53.1527 75.1758C53.1485 75.2217 53.1443 75.2677 53.1353 75.3121C53.1342 75.3565 53.1301 75.4025 53.1259 75.4484C53.1185 75.496 53.1143 75.542 53.107 75.5896C53.1028 75.6355 53.0985 75.6815 53.0943 75.7275C53.087 75.7751 53.0796 75.8227 53.0723 75.8703C53.0681 75.9162 53.0607 75.9638 53.0565 76.0098C53.0508 76.0605 53.0434 76.1081 53.0313 76.1541C53.0287 76.2032 53.0214 76.2509 53.0141 76.2984C53.0067 76.346 52.9962 76.3952 52.9857 76.4444C52.9815 76.4904 52.971 76.5396 52.9637 76.5872C52.9548 76.6395 52.9443 76.6888 52.9322 76.7348C52.9265 76.7856 52.916 76.8348 52.9055 76.884C52.8966 76.9363 52.8845 76.9824 52.8708 77.0332C52.8619 77.0856 52.8515 77.1348 52.841 77.184C52.8274 77.2348 52.8137 77.2856 52.8001 77.3364C52.7896 77.3856 52.7775 77.4396 52.7639 77.4904C52.7502 77.5413 52.7366 77.5921 52.7198 77.6446C52.7062 77.6954 52.6941 77.7494 52.6773 77.8018C52.2889 79.0889 50.9325 79.819 49.6451 79.4304C48.3593 79.045 47.6272 77.6855 48.0124 76.4001L48.04 76.3222L48.0581 76.2412L48.0808 76.1618L48.1004 76.0761L48.1231 75.9887L48.1379 75.9014L48.159 75.811L48.1753 75.7189L48.1948 75.6253L48.2048 75.5285L48.2226 75.4318L48.2356 75.3334L48.2519 75.2335L48.2602 75.1336L48.2764 75.0337L48.2862 74.9291L48.2977 74.8276L48.3059 74.7199L48.3189 74.6136L48.3239 74.5075L48.3369 74.4013L48.3404 74.2919L48.3517 74.1826L48.3552 74.0733L48.3634 73.9655L48.3652 73.8531L48.3749 73.7405L48.3767 73.6281L48.3864 73.5156L48.3867 73.4L48.3933 73.2891L48.3934 73.1735L48.4016 73.0578L48.4018 72.9422L48.4052 72.825L48.4053 72.7094L48.4118 72.5906L48.4104 72.4718L48.4137 72.3546L48.4123 72.2359L48.4188 72.1171L48.4174 71.9984L48.4222 71.8764L48.4192 71.7545L48.4257 71.6357L48.4227 71.5138L48.4276 71.3918L48.4276 71.2683L48.4309 71.1432L48.431 71.0197L48.4342 70.8946C48.4321 70.8519 48.4349 70.8106 48.4328 70.7679C48.4354 70.7267 48.4381 70.6855 48.4391 70.6412C48.4387 70.6016 48.4397 70.5573 48.4392 70.5177C48.4403 70.4733 48.4414 70.429 48.4441 70.3878C48.4451 70.3434 48.4446 70.3038 48.4456 70.2595C48.4467 70.2152 48.4494 70.174 48.4536 70.128C48.4515 70.0853 48.4509 70.0378 48.4551 69.9918C48.4545 69.9444 48.4588 69.8983 48.463 69.8524C48.4624 69.8049 48.465 69.7558 48.466 69.7114C48.4686 69.6623 48.4728 69.6164 48.477 69.5704C48.478 69.526 48.4806 69.4769 48.4848 69.4309C48.489 69.385 48.4932 69.339 48.4974 69.2931C48.4984 69.2487 48.5011 69.1996 48.5053 69.1536C48.5095 69.1077 48.5137 69.0617 48.5195 69.0189C48.5237 68.9729 48.5247 68.9286 48.5289 68.8826C48.5331 68.8366 48.5373 68.7907 48.5463 68.7462C48.5473 68.7019 48.5515 68.6559 48.5557 68.61C48.5615 68.5671 48.5689 68.5196 48.5747 68.4768C48.5758 68.4324 48.58 68.3864 48.5858 68.3436C48.59 68.2976 48.599 68.2532 48.6048 68.2104C48.609 68.1644 48.6148 68.1216 48.619 68.0756C48.6248 68.0328 48.6307 67.99 48.6396 67.9455C48.6455 67.9027 48.6465 67.8584 48.6555 67.8139C48.6613 67.7711 48.6671 67.7283 48.6761 67.6839C48.6803 67.6379 48.6861 67.5951 48.6919 67.5523C48.6977 67.5094 48.7036 67.4666 48.7142 67.4253C48.7184 67.3793 48.7242 67.3365 48.73 67.2937C48.7359 67.2509 48.7448 67.2064 48.7523 67.1668C48.7581 67.124 48.7639 67.0812 48.7697 67.0383C48.7755 66.9955 48.7861 66.9542 48.7951 66.9098C48.7978 66.8686 48.8036 66.8258 48.8142 66.7845C48.82 66.7417 48.8258 66.6989 48.8364 66.6576C48.8422 66.6148 48.848 66.5719 48.8555 66.5323C48.8613 66.4894 48.8719 66.4481 48.8794 66.4084C48.8852 66.3656 48.891 66.3228 48.8968 66.28C48.9043 66.2403 48.9149 66.199 48.9223 66.1594C48.9281 66.1166 48.9339 66.0737 48.9414 66.0341C48.9503 65.9896 48.9578 65.9499 48.9684 65.9086C48.971 65.8674 48.9785 65.8278 48.9875 65.7834L49.0129 65.6627L49.0337 65.5405L49.0592 65.4199L49.0798 65.2977L49.1053 65.1771L49.1229 65.0566L49.1483 64.936L49.169 64.8138L49.1962 64.6963L49.2137 64.5757L49.2408 64.4583L49.2584 64.3377L49.2823 64.2219L49.3015 64.1045L49.3286 63.987L49.3447 63.8712L49.3686 63.7553L49.3878 63.638L49.4117 63.5221L49.4294 63.4094L49.4534 63.2936L49.4694 63.1778L49.4918 63.0667L49.5078 62.9509L49.5303 62.8398L49.5448 62.7288L49.564 62.6194L49.5769 62.5052L49.5994 62.3941L49.6122 62.2799L49.6299 62.1673L49.6459 62.0516L49.662 61.9358L49.6748 61.8216L49.6956 61.7074L49.7069 61.5901L49.7261 61.4727L49.739 61.3585L49.755 61.2428L49.7662 61.1255L49.7823 61.0097L49.7936 60.8924L49.8096 60.7766L49.8208 60.6593L49.8369 60.5435L49.8481 60.4262L49.8642 60.3105L49.8754 60.1932L49.8915 60.0774L49.8996 59.9617L49.914 59.8428L49.9222 59.7271L49.9382 59.6113L49.9446 59.4925L49.9607 59.3767L49.9704 59.2563L49.9832 59.1421L49.9897 59.0233L50.0041 58.9044L50.0122 58.7887L50.0266 58.6698L50.0331 58.551L50.0444 58.4336L50.0525 58.318L50.0669 58.1991L50.0735 58.0802L50.0847 57.9629L50.0912 57.8441L50.1024 57.7268L50.109 57.608L50.1233 57.489L50.1267 57.3719L50.1395 57.2498L50.1428 57.1326L50.1572 57.0137L50.1606 56.8964L50.1702 56.776L50.1767 56.6572L50.188 56.5399L50.1929 56.4179L50.2041 56.3006L50.209 56.1786L50.2203 56.0613L50.222 55.941L50.2332 55.8237L50.2382 55.7017L50.2478 55.5812L50.2511 55.464L50.2607 55.3436L50.2657 55.2216L50.2769 55.1043L50.2786 54.984L50.2883 54.8635L50.2931 54.7415L50.3044 54.6242L50.3062 54.5039L50.3158 54.3834L50.3175 54.2631L50.3272 54.1426L50.332 54.0206L50.3416 53.9002L50.3434 53.7798L50.353 53.6594L50.3547 53.539L50.3644 53.4186L50.3693 53.2966L50.3757 53.1778L50.3806 53.0558L50.3887 52.9322L50.3904 52.8119L50.4 52.6914L50.4049 52.5694L50.4114 52.4506L50.4162 52.3287L50.4243 52.205L50.426 52.0847L50.4356 51.9642L50.4389 51.8391L50.4486 51.7187L50.4502 51.5983L50.4583 51.4748L50.4632 51.3527L50.4728 51.2323L50.4729 51.1088L50.4826 50.9883L50.4874 50.8664L50.4954 50.7428L50.5004 50.6208L50.5083 50.4972L50.51 50.3769L50.5213 50.2516L50.523 50.1313L50.5357 50.0092L50.5358 49.8857L50.5487 49.7636L50.5487 49.6402L50.5615 49.5181L50.5617 49.3946L50.5744 49.2725L50.5777 49.1474L50.5874 49.0269L50.5906 48.9018L50.6002 48.7813L50.6034 48.6563L50.6163 48.5341L50.6195 48.4091L50.6323 48.287L50.6356 48.1619L50.6484 48.0398L50.6516 47.9147L50.6627 47.7895L50.6677 47.6675L50.6804 47.5454L50.6837 47.4203L50.6948 47.2951L50.6997 47.1731L50.7109 47.0479L50.7189 46.9243L50.7301 46.7991L50.735 46.6771L50.7493 46.5503L50.7541 46.4283L50.7701 46.3046L50.7733 46.1795L50.7893 46.0558L50.7957 45.9291C50.7983 45.8879 50.8042 45.845 50.8069 45.8038C50.8095 45.7626 50.8106 45.7183 50.8164 45.6755C50.8206 45.6295 50.8233 45.5883 50.8322 45.5438C50.8349 45.5027 50.8359 45.4583 50.8418 45.4155C50.8428 45.3712 50.8486 45.3283 50.8544 45.2855C50.8571 45.2443 50.8614 45.1983 50.8672 45.1555C50.8683 45.1112 50.8741 45.0683 50.8799 45.0255C50.8857 44.9827 50.8867 44.9384 50.8926 44.8955C50.8984 44.8527 50.9042 44.8099 50.91 44.7671C50.9127 44.7259 50.9169 44.6799 50.9227 44.6371C50.9254 44.5959 50.9313 44.5531 50.9402 44.5086C50.9429 44.4674 50.9455 44.4262 50.9514 44.3834C50.9556 44.3375 50.963 44.2978 50.972 44.2534C50.9747 44.2122 50.9788 44.1662 50.9847 44.1234C50.9905 44.0806 50.9963 44.0377 51.0037 43.9981C51.0064 43.9569 51.0123 43.914 51.0181 43.8712C51.0223 43.8253 51.0297 43.7856 51.0387 43.7411C51.0414 43.6999 51.0472 43.6571 51.053 43.6143C51.0588 43.5715 51.0663 43.5318 51.0721 43.489C51.0779 43.4462 51.0837 43.4034 51.0895 43.3605C51.0954 43.3177 51.1028 43.2781 51.1086 43.2353C51.1144 43.1925 51.1202 43.1496 51.1261 43.1068C51.1335 43.0671 51.1394 43.0243 51.15 42.983C51.1527 42.9418 51.1585 42.899 51.1643 42.8562C51.1701 42.8134 51.1776 42.7737 51.1881 42.7324C51.1908 42.6912 51.1966 42.6484 51.2024 42.6055C51.213 42.5642 51.2189 42.5215 51.2263 42.4818C51.2321 42.439 51.2379 42.3961 51.2454 42.3565C51.2512 42.3137 51.2587 42.2739 51.2677 42.2295C51.272 42.1915 51.2778 42.1486 51.2867 42.1042C51.2942 42.0645 51.3 42.0217 51.3106 41.9804C51.3149 41.9424 51.3207 41.8996 51.3265 41.8567C51.3371 41.8155 51.3429 41.7726 51.352 41.7361C51.3578 41.6933 51.3636 41.6505 51.3711 41.6108C51.3769 41.568 51.3875 41.5267 51.3949 41.487C51.4007 41.4442 51.4082 41.4045 51.414 41.3617L51.4395 41.2411L51.4586 41.1158L51.4841 40.9951L51.5031 40.8698L51.5286 40.7492L51.5493 40.627L51.5748 40.5064L51.5939 40.3811L51.6194 40.2604L51.6401 40.1383L51.6655 40.0176L51.6862 39.8955L51.7117 39.7749L51.7341 39.6558L51.7596 39.5352L51.7803 39.413L51.8074 39.2956L51.8249 39.175L51.8504 39.0544L51.8727 38.9354L51.8982 38.8147L51.9205 38.6957L51.946 38.5751L51.9652 38.4577L51.9906 38.3371L52.0098 38.2197L52.0369 38.1022L52.0577 37.98L52.0816 37.8641L52.1008 37.7468L52.1279 37.6293L52.1454 37.5087L52.1725 37.3913L52.1917 37.2738L52.2157 37.158L52.2348 37.0406L52.2619 36.9231L52.2811 36.8057L52.305 36.6899L52.3227 36.5693L52.3482 36.4566L52.3642 36.3408L52.3882 36.2249L52.4057 36.1044L52.4266 35.9902L52.4458 35.8728L52.4665 35.7585L52.4857 35.6411L52.5065 35.5269L52.5226 35.4111L52.5465 35.2952L52.5594 35.1811L52.5802 35.0668L52.5963 34.9511L52.6171 34.8368L52.6331 34.721L52.6538 34.6068L52.6667 34.4927L52.6876 34.3784L52.7004 34.2642L52.7181 34.1516L52.7309 34.0375L52.7487 33.9248L52.7615 33.8107L52.7792 33.6981L52.792 33.5839L52.8066 33.4729L52.8178 33.3556L52.8323 33.2446L52.8421 33.1321L52.8597 33.0194L52.8663 32.9085L52.8792 32.7944L52.8889 32.6818L52.9034 32.5708L52.91 32.4599L52.9229 32.3458L52.9295 32.2349L52.9392 32.1224L52.9458 32.0114L52.9556 31.8989L52.959 31.7896L52.9688 31.6771L52.9722 31.5678L52.982 31.4552L52.9854 31.3459L52.9919 31.235L52.9954 31.1257L53.002 31.0149Z" fill="#7400BD"/><path fill-rule="evenodd" clip-rule="evenodd" d="M21.1998 87.5823C21.287 88.0186 21.0279 88.4622 20.595 88.5964C20.1283 88.7411 19.632 88.4798 19.4872 88.0131C19.4741 87.8393 19.3884 87.5989 19.5476 87.3234C19.7034 87.049 20.1942 86.6708 20.6738 86.018C21.0348 85.5206 21.1626 84.8212 21.5821 84.2018C21.6735 84.066 21.7715 83.9281 21.9002 83.8289C22.2872 83.5347 22.7206 83.5338 23.0949 83.2584C23.3293 83.0819 23.4946 82.8379 23.6626 82.6264C24.31 81.8215 24.7128 81.1481 24.7881 81.0321C25.0742 80.6876 25.5825 80.6412 25.926 80.924C26.2706 81.21 26.3182 81.7216 26.0354 82.0651C25.9154 82.1801 25.0445 82.743 24.1701 83.6887C24.0566 83.8128 23.9497 83.946 23.8669 84.0977C23.658 84.4998 23.7076 84.9107 23.4607 85.3097C23.3865 85.4291 23.2726 85.5163 23.1643 85.6092C22.6786 86.0155 22.1356 86.2246 21.7535 86.6063C21.615 86.7456 21.512 86.9035 21.4238 87.0495C21.3134 87.2431 21.2469 87.4231 21.1998 87.5823ZM21.1926 87.6067C21.1758 87.6601 21.159 87.7135 21.1445 87.7625C21.1347 87.8026 21.1537 87.8635 21.1537 87.8635C21.1537 87.8635 21.1869 87.7197 21.1926 87.6067ZM21.1906 87.5407C21.1888 87.5227 21.1825 87.5024 21.1749 87.4899L21.1906 87.5407Z" fill="#7400BD"/><path fill-rule="evenodd" clip-rule="evenodd" d="M23.2632 81.7514C23.5569 81.7901 23.9027 81.8052 24.3037 81.8551C24.6121 81.893 24.956 81.8901 25.2734 82.029C25.3677 82.0702 25.428 82.133 25.505 82.2018C25.7171 82.3956 25.7706 82.568 25.9837 82.7651C26.0255 82.804 26.0584 82.8383 26.1094 82.8596C26.1782 82.8901 26.2555 82.8884 26.3281 82.8956C26.8278 82.9408 27.2805 82.7746 27.6933 82.958C27.8963 83.0507 28.0066 83.2389 28.1322 83.3927C28.2119 83.494 28.2329 83.6098 28.2844 83.7162C28.6242 84.0705 29.184 84.0823 29.535 83.7437C29.887 83.4084 29.8976 82.8454 29.5623 82.4934C29.1842 82.2548 28.7294 82.1512 28.2475 81.9002C28.1067 81.829 27.9981 81.718 27.8761 81.6113C27.5823 81.3576 27.3685 81.0866 27.0143 80.8888C26.9058 80.826 26.7849 80.7708 26.6607 80.7649C26.2546 80.7462 26.0374 81.0026 25.6433 80.9988C25.4306 80.9943 25.2309 80.9004 25.0431 80.8327C24.524 80.6414 24.1069 80.3963 23.7725 80.2146C23.3476 80.0757 22.8891 80.3068 22.7493 80.7283C22.607 81.1542 22.8382 81.6125 23.2632 81.7514Z" fill="#7400BD"/><path fill-rule="evenodd" clip-rule="evenodd" d="M20.8875 84.9965C21.1998 85.0591 21.4522 85.0958 21.6974 85.1569C21.9993 85.2339 22.2673 85.2731 22.4618 85.3981C22.5403 85.4479 22.5737 85.508 22.6249 85.5774C22.7967 85.8206 22.7775 85.9378 22.9232 86.1447C22.9527 86.18 22.9677 86.2161 23.0076 86.2371C23.0574 86.2662 23.1123 86.264 23.1704 86.272C23.5175 86.3274 23.8467 86.1216 24.2591 86.3755C24.4925 86.5182 24.5892 86.8181 24.8133 87.1341C25.2014 87.429 25.7596 87.3523 26.0545 86.9643C26.3493 86.5764 26.2736 86.0216 25.8856 85.7267C25.4921 85.5818 25.1687 85.5672 24.9317 85.3886C24.4586 85.0349 24.4259 84.6187 24.0863 84.3607C24.0037 84.2974 23.9108 84.2373 23.8035 84.226C23.4772 84.19 23.3541 84.4506 22.9427 84.415C22.7974 84.4007 22.6514 84.3126 22.4976 84.2231C22.2176 84.0615 21.9528 83.8174 21.5825 83.5319C21.1788 83.342 20.6947 83.5143 20.5048 83.9179C20.3115 84.3226 20.4872 84.8055 20.8875 84.9965Z" fill="#7400BD"/><path fill-rule="evenodd" clip-rule="evenodd" d="M30.6301 86.2215C30.735 86.0815 30.8839 85.976 31.0631 85.9205C31.7673 85.7763 32.2285 85.9484 32.5037 86.3932C32.6717 86.6599 32.8038 87.0378 32.8033 87.4901C32.8019 88.143 32.6361 88.9469 32.5748 89.2513C32.5298 89.6322 32.3291 90.0725 32.0837 90.56C31.663 91.391 31.0398 92.3218 30.2588 92.9828C29.5837 93.5554 28.7975 93.9252 28.0586 93.9096C27.6332 93.9006 27.2226 93.7721 26.8604 93.5248C26.7261 93.4145 26.4509 93.2922 26.364 92.9522C26.2731 92.5875 26.2526 91.745 26.2355 91.5464C26.1598 91.0398 26.1643 90.6121 26.1738 90.2126C26.199 89.3856 26.367 88.7441 26.7534 88.2091C27.5034 87.1611 28.9863 86.5754 30.6301 86.2215ZM31.0796 87.7539C29.6839 87.8678 28.3199 88.072 27.6363 88.8918C27.3697 89.2154 27.1916 89.645 27.2534 90.167C27.2885 90.4712 27.4469 90.7668 27.6188 91.1176C27.6663 91.1992 27.9294 91.4735 28.0755 91.7174L28.0833 91.7186C28.2122 91.7158 28.3475 91.722 28.4859 91.6902C29.0443 91.5542 29.6407 91.2655 30.1411 90.8472C30.4467 90.5893 30.7444 90.3302 30.9533 90.0357C31.1786 89.7101 31.3077 89.3735 31.3402 89.1076C31.3451 88.8726 31.0757 88.2073 31.0796 87.7539Z" fill="#7400BD"/><path fill-rule="evenodd" clip-rule="evenodd" d="M38.652 89.9884C39.0536 89.9566 39.4393 90.2077 39.5631 90.6067C39.7646 91.5191 39.3858 93.0228 38.8275 94.4376C38.4902 95.2983 38.1358 96.1273 37.6451 96.7205C36.7626 97.7836 35.6088 98.056 34.2628 97.3502C33.9956 97.1698 33.7227 96.9357 33.5493 96.6039C33.3006 96.125 33.1757 95.5188 33.1767 94.829C33.1807 94.3163 33.2654 93.8007 33.3228 93.2566C33.4882 91.7227 33.8521 90.2309 34.6401 89.7235C34.8992 89.5431 35.2824 89.428 35.7209 89.3477C36.4428 89.2128 37.3378 89.206 37.7904 89.1472C38.2379 89.1197 38.6206 89.457 38.6482 89.9044C38.6498 89.9335 38.6514 89.9627 38.652 89.9884ZM37.8428 90.7619C37.4432 90.7524 36.7672 90.6765 36.1421 90.6813C35.8094 90.6843 35.4915 90.6754 35.292 90.7854C34.7148 91.1237 34.3587 92.2461 34.4375 93.3485C34.4811 93.991 34.7852 94.5528 35.0516 95.041C35.1337 95.1861 35.256 95.2816 35.3398 95.3965C35.3855 95.4602 35.4257 95.5181 35.4821 95.5563C36.2093 96.1796 36.9397 95.4269 37.4523 94.534C37.6372 94.2099 37.7746 93.8522 37.873 93.4881C38.1148 92.5828 38.0937 91.6664 37.8754 91.1299C37.8376 91.0082 37.8246 90.8825 37.8428 90.7619Z" fill="#7400BD"/><path fill-rule="evenodd" clip-rule="evenodd" d="M41.97 90.33C41.7928 90.8223 41.5518 91.5272 41.1849 92.3044C41.0572 92.5739 40.9422 92.8726 40.7444 93.1193C40.4316 93.5091 39.9873 93.6543 39.6784 94.0688C39.5668 94.2109 39.5026 94.3865 39.4442 94.5566C39.1819 95.3125 39.2376 96.0774 39.0252 96.7548C38.7946 97.4935 38.4476 98.0718 38.344 98.634C38.335 99.1187 38.7206 99.5255 39.2098 99.5369C39.698 99.545 40.1004 99.157 40.1128 98.6713C40.0491 98.2389 39.9473 97.6959 40.1538 97.1426C40.3818 96.527 40.939 96.0763 41.356 95.4726C41.4229 95.3777 41.4919 95.2896 41.5367 95.183C41.5696 95.1098 41.5801 95.0361 41.5929 94.958C41.6488 94.5885 41.6068 94.2976 41.6648 93.9349C41.6913 93.7933 41.7098 93.6615 41.7641 93.526C41.9645 93.0487 42.2851 92.6602 42.5394 92.2848C42.8814 91.7859 43.1979 91.3839 43.4187 91.056C43.6164 90.6536 43.4552 90.1699 43.0551 89.9677C42.656 89.7689 42.1688 89.9311 41.97 90.33Z" fill="#7400BD"/><path fill-rule="evenodd" clip-rule="evenodd" d="M39.5255 92.3046C39.8955 92.4457 40.7203 92.7386 41.4588 93.0397C41.9686 93.2486 42.4314 93.4499 42.6493 93.5788C43.1377 93.8981 43.4778 94.1819 43.572 94.4974C43.6649 94.8208 43.3037 94.9587 43.0157 95.1777C42.8837 95.2779 42.7114 95.3203 42.5567 95.4312C42.4078 95.5367 42.2672 95.6692 42.11 95.7958C41.3584 96.3846 40.5059 97.09 39.5564 97.5067C39.2692 97.6328 38.9742 97.7094 38.6926 97.7819C37.7713 98.0267 36.9842 98.1187 36.585 98.1943C36.1183 98.339 35.857 98.8351 36.0018 99.3018C36.1466 99.7684 36.6418 100.026 37.1085 99.8817C37.4872 99.7161 38.2147 99.372 39.1065 98.9843C39.3845 98.8647 39.674 98.7342 39.9807 98.6355C41.0902 98.2804 42.3045 98.0596 43.2534 97.569C43.5059 97.4388 43.7417 97.3027 43.9313 97.1253C44.1677 96.9075 44.343 96.6715 44.4736 96.4235C44.7909 95.821 44.9763 95.3075 44.8467 94.7584C44.7923 94.5232 44.7343 94.3002 44.6049 94.0623C44.3665 93.6284 43.9974 93.1201 43.2694 92.6378L40.2169 90.8411C39.8132 90.6512 39.3291 90.8235 39.1392 91.2271C38.9493 91.6307 39.1217 92.1147 39.5255 92.3046Z" fill="#7400BD"/><path fill-rule="evenodd" clip-rule="evenodd" d="M52.753 96.187C52.36 95.434 52.1218 94.6664 52.1927 93.9031C52.1936 93.0577 53.1034 92.2975 54.0347 92.0014C54.8601 91.7344 55.6245 91.9756 56.1403 92.5866C56.4888 93.0049 56.4839 93.455 56.4411 93.8908C56.4042 94.2618 56.213 94.6251 55.9805 94.9751C55.851 95.1673 55.6861 95.3407 55.5795 95.5109C55.2353 95.9549 54.9111 96.3557 54.6202 96.7683C55.0621 97.2726 55.5526 97.7544 56.0136 98.2008C56.3017 97.9225 56.55 97.6231 56.7555 97.3296C57.0637 96.9486 57.6204 96.8909 57.9981 97.2001C58.3791 97.5083 58.4368 98.0649 58.1276 98.4425C57.8412 98.75 57.5 99.0485 57.1245 99.3317C57.1957 99.406 57.2613 99.4858 57.3214 99.5598C57.5882 99.9182 57.5126 100.427 57.1542 100.694C56.7947 100.957 56.2856 100.882 56.0221 100.522C55.9427 100.41 55.8578 100.292 55.7652 100.172C55.2919 100.415 54.8118 100.612 54.3502 100.726C54.0707 100.805 53.595 101.004 53.2048 101.025C52.8651 101.041 52.5681 100.944 52.331 100.718C52.1123 100.515 52.0187 100.225 51.9818 99.9029C51.9353 99.5022 52.0633 99.0066 52.0838 98.726C52.1347 98.0059 52.2921 97.39 52.5016 96.7987C52.5777 96.5898 52.6592 96.3865 52.753 96.187ZM53.9204 97.9305C53.766 98.2452 53.6291 98.5805 53.5292 98.9636C53.4928 99.0972 53.5169 99.39 53.4742 99.6108C53.6574 99.58 53.8724 99.58 53.983 99.542C54.2787 99.4318 54.5822 99.2747 54.8807 99.0895L54.4621 98.5891C54.2337 98.3189 54.2381 98.3213 54.0165 98.049L53.9204 97.9305ZM53.4157 94.9177L53.7601 94.3068C53.8873 94.1191 54.0472 93.9176 54.2248 93.7254C54.3154 93.6232 54.4379 93.5518 54.504 93.4424C54.5318 93.4004 54.6651 93.5555 54.6428 93.4957C54.63 93.4663 54.7003 93.4297 54.6737 93.4157C54.4321 93.2941 54.0933 93.2658 53.8106 93.3942C53.5313 93.5215 53.2774 93.7188 53.253 93.9748C53.2407 94.2936 53.3013 94.6084 53.4157 94.9177Z" fill="#7400BD"/><path fill-rule="evenodd" clip-rule="evenodd" d="M70.968 95.5116C70.9662 94.8487 70.8858 93.9803 70.6636 93.1447C70.3945 92.1458 69.9347 91.2134 69.5091 90.6781C69.223 90.3294 68.7454 89.9733 68.4009 89.5798C68.1678 89.3184 68.0013 89.0327 67.8898 88.7448C67.745 88.2782 68.0073 87.7854 68.4741 87.6407C68.9408 87.496 69.436 87.754 69.5808 88.2206C69.621 88.3861 69.7128 88.5503 69.8316 88.7062C70.1235 89.0976 70.4852 89.4748 70.7008 89.8231C71.0642 90.3851 71.3805 91.273 71.656 92.2329C71.7907 92.7026 71.916 93.1902 72.0394 93.6597C72.2656 94.52 72.4504 95.3189 72.4962 95.9089C72.5329 96.3498 72.2853 96.6749 71.8868 96.9319C71.3487 97.2766 70.1378 97.2813 69.7845 97.2537C69.1887 97.1974 68.6625 97.0307 68.1951 96.7789C68.1195 96.9655 68.0197 97.1336 67.8989 97.2822C67.5139 97.75 66.9416 98.0683 66.1131 98.0508C64.7466 98.0556 63.8621 97.1881 63.2845 95.9957C62.5492 94.4741 62.3669 92.3807 62.3418 91.2246C62.3512 90.7769 62.7238 90.4241 63.1705 90.4302C63.615 90.4407 63.9712 90.8122 63.9618 91.2599C63.8969 92.2697 63.8603 94.1232 64.4117 95.4943C64.7332 96.2916 65.2507 96.9319 66.1381 96.9719C66.5421 96.9837 66.8689 96.8898 67.0331 96.6425C67.1626 96.4504 67.1534 96.1938 67.0913 95.8979C66.9392 95.7301 66.8075 95.5448 66.694 95.3465C66.4543 94.9204 66.2952 94.4433 66.1884 93.9316L66.1815 93.8855C64.3805 90.0403 64.319 87.5239 65.7902 89.3623C65.9593 87.0154 67.333 89.125 68.0247 93.3141L68.0451 93.356C68.1762 93.6712 68.3713 93.9295 68.5484 94.1897C68.7135 94.435 68.8744 94.6668 69.0878 94.8527C69.3662 95.0926 69.6819 95.3098 70.0909 95.4091C70.2146 95.4375 70.5256 95.5079 70.8268 95.5109L70.968 95.5116Z" fill="#7400BD"/><path fill-rule="evenodd" clip-rule="evenodd" d="M72.8101 86.7471C72.8538 87.1747 72.7495 87.7704 72.7736 87.9557C73.0465 88.7755 73.3541 89.5401 73.7197 90.2645C74.2844 91.3793 74.9742 92.3961 75.7106 93.4911C75.9377 93.8766 75.8108 94.3756 75.4286 94.6016C75.0431 94.8286 74.544 94.7016 74.3168 94.3161C73.6882 93.1024 73.1433 91.9555 72.6464 90.7603C72.3171 89.9616 71.9969 89.1565 71.7455 88.2744C71.6003 87.9858 71.0635 87.1514 70.8676 86.5561C70.7289 86.1209 70.8674 85.7666 70.9839 85.497C71.2237 84.9556 71.7283 84.7176 72.2942 84.5941C72.6317 84.5228 73.0173 84.5589 73.3804 84.6539C73.8762 84.782 74.3279 85.0311 74.5912 85.1867C75.5443 85.7734 76.5616 86.8296 77.5669 87.919C77.9568 88.3393 78.3697 88.7265 78.7295 89.1451C79.3517 89.8603 79.8415 90.5907 80.1293 91.291C80.274 91.7576 80.0128 92.2538 79.5494 92.3974C79.0827 92.5421 78.5864 92.2808 78.4416 91.8142C78.2252 90.8656 77.6594 89.6992 76.7665 88.8047C75.8506 87.884 74.6564 87.3089 73.737 86.9861C73.5692 86.9232 73.2993 86.866 73.0151 86.7984C72.9471 86.7824 72.8781 86.7631 72.8101 86.7471Z" fill="#7400BD"/><path fill-rule="evenodd" clip-rule="evenodd" d="M78.3142 86.0317C78.1626 86.3678 78.0306 86.683 77.8607 86.984C77.6873 87.2972 77.5295 87.6131 77.2944 87.8713C77.2061 87.9691 77.1037 88.0453 76.9914 88.1134C76.6727 88.3049 76.3766 88.2707 76.0673 88.4926C75.9968 88.5404 75.945 88.6121 75.8964 88.6827C75.7852 88.8618 75.7319 89.0488 75.6381 89.2484C75.519 89.5337 75.4336 89.8678 75.3109 90.2728C75.2737 90.3918 75.2287 90.5096 75.1615 90.6157C75.0131 90.8544 74.7969 91.0178 74.6158 91.1629C74.5713 91.199 74.5104 91.1697 74.4675 91.1867C74.0695 91.4694 73.9783 92.0241 74.2646 92.4209C74.5464 92.8154 75.1011 92.9066 75.499 92.6239C75.7379 92.3422 75.9452 91.911 76.1478 91.3811C76.2001 91.2389 76.2558 91.0956 76.3435 90.972C76.5407 90.6996 76.8112 90.5676 77.0189 90.4365C77.204 90.3161 77.3826 90.2347 77.5424 90.0925C77.6063 90.0357 77.6715 89.971 77.7067 89.8933C77.8843 89.5455 77.8086 89.2538 77.9382 88.8949C77.9869 88.7649 78.0475 88.6497 78.1249 88.5405C78.3372 88.2449 78.611 88.0043 78.871 87.7309C79.1239 87.4709 79.3845 87.2233 79.6559 86.939C79.9078 86.5681 79.8109 86.0644 79.4409 85.8158C79.0699 85.5639 78.5661 85.6607 78.3142 86.0317Z" fill="#7400BD"/><path fill-rule="evenodd" clip-rule="evenodd" d="M80.04 79.2652C80.0571 79.2006 80.0853 79.1363 80.119 79.0777L81.282 77.5087C81.6666 76.9558 82.0543 76.9987 82.1544 77.0344C82.3144 77.096 82.5992 77.2375 82.5921 77.6326C82.5869 77.8789 82.3911 78.5623 82.2809 78.7447C82.2092 78.9078 82.0962 79.0578 82.0209 79.2331C81.843 79.6515 81.7306 80.0422 81.5813 80.4332C81.4981 80.6073 81.4397 80.7774 81.3211 80.9328C81.2173 81.0761 81.0738 81.1873 80.9371 81.2964C80.322 81.7873 79.5757 82.0706 79.0308 82.6324C78.8877 82.7806 78.7798 82.9586 78.6797 83.1379C78.4632 83.5275 78.3781 83.958 78.3172 84.4068C78.1808 84.8754 77.689 85.1427 77.2203 85.0063C76.7506 84.8665 76.4832 84.3749 76.6229 83.9053C76.8934 83.3432 77.2371 82.8734 77.6411 82.4072C77.7961 82.2257 77.961 82.0522 78.104 81.8559C78.5597 81.2216 78.8932 80.54 79.3568 79.907C79.4606 79.7636 79.55 79.6099 79.6802 79.4917C79.7898 79.391 79.9176 79.3365 80.04 79.2652Z" fill="#7400BD"/><path fill-rule="evenodd" clip-rule="evenodd" d="M77.8529 81.0928C78.3452 81.3294 79.0758 81.581 79.8012 81.9715C79.912 82.0298 80.0228 82.0881 80.1151 82.1707C80.1856 82.2304 80.2313 82.2941 80.2801 82.3679C80.5021 82.6771 80.5091 82.9864 80.7487 83.2568C80.845 83.3641 80.9735 83.4318 81.0908 83.4992C81.4083 83.6862 81.7211 83.7264 81.9503 83.9036C82.0965 84.04 82.2678 84.1499 82.3999 84.3129C82.6477 84.6215 82.847 84.9416 83.1118 85.1857C83.392 85.4435 83.7276 85.5211 84.1303 85.6001C84.6181 85.5712 84.9931 85.1547 84.9641 84.667C84.9385 84.1782 84.5195 83.8078 84.034 83.8322C83.9799 83.849 83.9723 83.944 83.9244 83.9329C83.7761 83.8973 83.6178 83.8649 83.497 83.7504C83.4278 83.6828 83.3611 83.6109 83.3101 83.5303C83.2215 83.3761 83.1834 83.2174 83.1205 83.0627C82.9853 82.6746 82.7805 82.2896 82.4373 81.8882C82.3268 81.7593 82.2032 81.6235 82.038 81.5449C81.6311 81.3449 81.2354 81.4676 80.7919 81.3048C80.5441 81.2111 80.3339 81.0354 80.1231 80.882C79.5604 80.4782 79.0934 80.0485 78.737 79.7364C78.3647 79.4922 77.863 79.5959 77.6165 79.9725C77.3724 80.3447 77.4761 80.8463 77.8529 81.0928Z" fill="#7400BD"/><path fill-rule="evenodd" clip-rule="evenodd" d="M84.3404 75.0006C84.5181 75.179 84.7172 75.3545 84.93 75.5147C85.2255 75.7381 85.5383 75.934 85.8129 76.138C86.5595 76.5367 87.3271 76.6806 88.0737 77.0199C88.2822 77.1184 88.47 77.2455 88.6668 77.3661C88.9023 77.5637 89.1943 77.8476 89.5069 78.1621C89.8229 78.4756 90.1252 78.8526 90.5033 79.0319C90.7783 79.1653 91.0794 79.2276 91.3711 78.9371C91.6601 78.5658 91.8619 78.1289 91.9837 77.6611C92.1904 76.8817 92.1866 76.0451 92.2404 75.2982C92.3177 74.8184 92.7759 74.491 93.2559 74.5683C93.7369 74.649 94.0633 75.1038 93.9827 75.5847C93.7802 76.3777 93.5536 77.2486 93.2306 78.0715C92.9997 78.6657 92.7368 79.2402 92.3281 79.7153C91.8593 80.4389 91.2414 80.6342 90.6294 80.6571C89.4827 80.7012 88.1621 79.5872 87.3818 79.1396C87.2564 79.034 87.1239 78.9416 86.9984 78.8359C86.6594 78.5555 86.3687 78.2639 86.0434 77.9681C85.7092 77.6677 85.3881 77.3854 85.0887 77.0298L83.4021 75.6325C83.2615 75.5019 83.1915 75.3123 83.1782 75.0903C83.1617 74.81 83.3341 74.3859 83.3653 74.2354L83.8604 70.6569C83.9825 70.2262 84.4313 69.9759 84.8621 70.0981C85.2896 70.2213 85.5425 70.6655 85.4203 71.0963C85.3026 71.4219 85.2041 71.7379 85.1223 72.0598C84.9136 72.8807 84.7801 73.693 84.5253 74.5207C84.5046 74.5976 84.3935 74.8729 84.3404 75.0006Z" fill="#7400BD"/><path fill-rule="evenodd" clip-rule="evenodd" d="M88.3368 73.6904C88.3475 73.9281 88.3997 74.2158 88.4096 74.5945C88.4141 74.7043 88.4394 74.8337 88.3834 74.94C88.2273 75.2256 88.0433 75.1343 87.7942 75.3709C87.7657 75.3983 87.7396 75.4101 87.7287 75.4469C87.7122 75.4891 87.7303 75.5353 87.7405 75.5803C87.8106 75.9256 88.0845 76.1038 88.0298 76.4173C88.0023 76.5556 87.8723 76.6144 87.7876 76.7C87.7235 76.7681 87.6498 76.7575 87.5851 76.7999C87.3564 77.234 87.5222 77.7683 87.9564 77.9969C88.3863 78.2232 88.9205 78.0576 89.1502 77.6268C89.1727 77.3529 89.062 77.0796 89.1779 76.7361C89.2948 76.3959 89.649 76.3305 89.8244 75.9759C89.856 75.9105 89.8844 75.835 89.8691 75.7619C89.7968 75.4211 89.5288 75.4893 89.4528 75.1607C89.4273 75.0426 89.478 74.9194 89.514 74.8082C89.6182 74.4867 89.7961 74.2833 89.904 74.1053C90.0183 73.6733 89.7587 73.2311 89.3265 73.1167C88.8944 73.0024 88.4511 73.2584 88.3368 73.6904Z" fill="#7400BD"/><path fill-rule="evenodd" clip-rule="evenodd" d="M94.1659 72.1075C93.9661 72.1805 93.5509 71.5827 93.2066 71.4411C92.9023 71.3204 92.6356 71.2734 92.5558 71.2314C91.9204 71.0355 91.2906 71.0491 90.7094 70.777C90.5742 70.7115 90.4721 70.6096 90.3657 70.5055C90.0724 70.2294 89.9374 69.9377 89.6395 69.6705C89.5471 69.5879 89.4421 69.5241 89.3347 69.4647C88.9252 69.2321 88.5025 69.0407 88.0885 68.8058C87.6667 68.5696 87.2587 68.3179 86.8519 68.0104C86.5348 67.6935 86.5355 67.1818 86.849 66.8659C87.1659 66.549 87.6767 66.5463 87.9938 66.8632C88.5177 67.5125 89.0509 68.096 89.7341 68.4698C89.8991 68.5595 90.0758 68.6271 90.2586 68.6668C90.6155 68.7415 90.8996 68.6534 91.2647 68.7071C91.4009 68.7279 91.536 68.7453 91.6591 68.8072C92.2742 69.1169 92.6969 69.6308 93.2085 70.1209C93.256 70.1544 93.3986 70.2436 93.5969 70.2971C94.0689 70.4324 94.6881 70.4925 95.0086 70.5933C95.427 70.7231 95.5343 71.0568 95.6153 71.1985C95.7601 71.6651 95.4988 72.1613 95.0321 72.306C94.7175 72.4035 94.39 72.316 94.1659 72.1075Z" fill="#7400BD"/><path fill-rule="evenodd" clip-rule="evenodd" d="M89.9659 66.9906C90.0868 66.8308 90.2145 66.6689 90.3511 66.5116C90.571 66.2285 90.8381 65.99 91.1239 65.7642C91.3815 65.5547 91.6534 65.3554 91.9485 65.1713C92.7612 64.6599 93.7022 64.2755 94.5043 63.9452C94.9677 63.8016 95.464 64.0629 95.6077 64.5262C95.7525 64.9929 95.4912 65.489 95.0279 65.6327C94.2594 65.7968 93.3415 65.933 92.5511 66.2893C92.308 66.4017 92.0746 66.5222 91.8774 66.6872C91.6916 66.8411 91.5531 67.0398 91.4322 67.2478C91.2606 67.579 91.1283 67.9054 90.9992 68.242C90.8734 68.5775 90.7779 68.9148 90.6829 69.2779C90.6927 69.2377 90.7381 69.1569 90.7381 69.1569C90.7381 69.1569 90.7425 69.7449 90.6821 69.9564C90.5819 70.3026 90.3012 70.4971 89.9384 70.6541C89.6752 70.7616 89.4414 70.6895 89.2288 70.6257C88.9785 70.5476 88.6649 70.2779 88.5613 69.7169C88.5283 69.5269 88.8246 68.8568 88.6124 68.8299C88.5811 68.8248 88.5673 68.8402 88.5635 68.8636L88.6017 69.0223C88.6008 69.0077 88.5568 68.9139 88.5635 68.8636L88.4216 68.2626C88.3651 67.6982 88.4337 66.8799 88.1513 66.1965C88.0083 65.8553 87.7723 65.5726 87.4521 65.4606C87.3786 65.4389 87.2934 65.4987 87.1961 65.5436C86.9823 65.6433 86.7635 65.8223 86.5645 66.0175C86.3861 66.1951 86.3235 66.5073 86.2333 66.6946C86.5494 66.7931 86.968 67.3418 87.1093 67.4388C87.4596 67.7194 87.5173 68.2279 87.2367 68.5781C86.9594 68.9272 86.4474 68.9859 86.0971 68.7052C85.9213 68.5447 85.309 68.1007 85.0045 67.7169C84.8223 67.488 84.7059 67.2683 84.6807 67.0796C84.61 66.5529 85.0366 65.7053 85.7557 65.1191C86.4394 64.5624 87.2817 64.242 87.7906 64.4364C88.2411 64.5858 88.5803 64.9144 88.8946 65.3062C89.0748 65.5284 89.2354 65.7714 89.4003 66.028C89.6109 66.3482 89.7988 66.6791 89.9659 66.9906ZM90.6064 69.2941C90.5539 69.4476 90.5341 69.5871 90.6425 69.6017C90.7977 69.6241 90.7052 69.4452 90.6064 69.2941ZM88.9109 68.9079C88.6989 69.0848 88.5609 69.3092 88.7841 69.3475C88.9482 69.3745 88.9229 69.1377 88.9109 68.9079Z" fill="#7400BD"/><path fill-rule="evenodd" clip-rule="evenodd" d="M94.3518 48.6545C94.2125 48.5161 94.288 48.0664 94.2501 47.8965C94.1752 47.6195 94.0727 47.2769 93.8871 46.9415C93.7273 46.6537 93.5091 46.3804 93.2677 46.1401C92.8948 45.7627 92.4386 45.5112 91.9632 45.64C91.5206 45.755 91.2672 46.0374 91.0593 46.3354C90.9589 46.4777 90.8762 46.6294 90.7933 46.7923C90.4439 47.4825 90.1676 48.2651 90.0758 49.0683C90.0776 49.4087 90.1771 50.1118 90.0877 50.6362C90.0199 51.0391 89.8485 51.3591 89.5477 51.5487C88.8981 51.9762 87.6703 52.0936 86.7589 51.7609C85.9975 51.4816 85.4721 50.8994 85.4133 50.0169L85.7254 48.1669C85.8441 47.7371 86.2874 47.4811 86.7196 47.5955C87.1528 47.7132 87.4091 48.1565 87.2913 48.5896L86.8329 49.992C86.8223 50.3882 87.1472 50.5989 87.508 50.6983C88.0202 50.8435 88.6278 50.8182 88.9848 50.6186C89.029 50.5938 89.0247 50.5321 89.036 50.4729C89.0583 50.3178 89.0563 50.1442 89.0341 49.9768C88.993 49.6412 88.8998 49.329 88.8736 49.137C88.673 48.2873 88.5653 47.3903 88.685 46.5451C88.7446 46.104 88.891 45.6917 89.1091 45.3313C89.617 44.5066 90.4678 43.9389 91.6782 43.8491C92.3756 43.8145 93.011 44.0104 93.5458 44.4674C94.0839 44.9233 94.5091 45.5885 94.8638 46.2421C95.1162 46.7088 95.3489 47.1481 95.4778 47.5159C95.5671 47.744 95.7721 48.1179 95.8481 48.4465C95.9188 48.7581 95.8635 49.0459 95.7498 49.2887C95.6311 49.5516 95.4197 49.7543 95.1782 49.9441C94.8001 50.2429 94.2767 50.42 93.905 50.5723C93.4383 50.717 92.942 50.4557 92.7972 49.989C92.6524 49.5224 92.9137 49.0262 93.3805 48.8815C93.5931 48.8379 93.8671 48.8011 94.122 48.7146C94.1988 48.6871 94.2819 48.6799 94.3518 48.6545Z" fill="#7400BD"/><path fill-rule="evenodd" clip-rule="evenodd" d="M85.1575 42.0753C85.2924 42.1039 85.4384 42.0846 85.5904 42.0486C86.0161 41.9389 86.4525 41.7443 86.8156 41.6837C87.1093 41.6148 87.5143 41.5819 87.9418 41.442C88.6083 41.2243 89.2113 40.7185 89.9089 40.4096C90.2119 40.2749 90.5257 40.211 90.7882 40.0889C91.0188 39.984 91.2556 39.9587 91.3755 39.7955C91.5115 39.6125 91.6371 39.4438 91.6549 39.2382C91.6827 38.9812 91.6795 38.7079 91.5808 38.4494C91.214 37.4584 90.3123 36.6074 89.9733 35.7895C89.8285 35.3228 90.0864 34.8277 90.5531 34.683C91.0199 34.5383 91.5162 34.7996 91.6609 35.2663C91.8163 36.0299 92.2641 36.9475 92.6165 37.8206C92.8105 38.2905 92.9792 38.7387 93.0456 39.2037C93.1099 39.6619 93.0435 40.1051 92.8778 40.5864C92.6579 41.1921 92.1034 41.7235 91.3486 42.1466C91.1276 42.2707 90.8832 42.391 90.6209 42.4538C89.7586 42.6618 88.8392 42.4946 88.0471 42.5585C87.6489 42.5893 87.3052 42.6884 87.0432 42.74C86.6422 42.8457 86.1636 43.1313 85.7004 43.2637C85.394 43.3513 85.0879 43.3684 84.8011 43.3164C84.5198 43.2702 84.2123 43.0319 83.9259 42.6944C83.5161 42.2098 83.1522 41.4552 83.0958 41.3689C82.8846 40.9748 83.036 40.483 83.4302 40.2718C83.8255 40.0641 84.3163 40.2121 84.5241 40.6073C84.5658 40.7056 85.5016 41.6906 85.17 42.0677C85.1666 42.0688 85.1643 42.0732 85.1575 42.0753Z" fill="#7400BD"/><path fill-rule="evenodd" clip-rule="evenodd" d="M84.537 37.7425C84.8945 37.9986 85.2674 38.161 85.5386 38.4735C85.5965 38.5408 85.6421 38.6157 85.6639 38.6979C85.7477 39.0278 85.5163 39.1662 85.6477 39.4702C85.682 39.5448 85.7583 39.5878 85.8235 39.6306C86.0599 39.7834 86.2638 39.7833 86.5117 39.9251C86.6014 39.9752 86.6913 40.014 86.7534 40.0948C86.9242 40.3347 86.9017 40.6085 86.9875 40.897C87.2703 41.2949 87.825 41.3861 88.2185 41.101C88.6164 40.8183 88.7076 40.2637 88.4214 39.8668C88.1619 39.6878 87.871 39.6223 87.6949 39.3656C87.4669 39.0248 87.6235 38.6575 87.4498 38.2888C87.4145 38.2108 87.368 38.1325 87.295 38.0884C86.9975 37.9064 86.8085 38.1095 86.5043 37.9296C86.3781 37.8575 86.3049 37.7171 86.2268 37.5967C86.0314 37.3015 85.9169 36.9922 85.749 36.6662C85.4491 36.3329 84.939 36.302 84.6047 36.5984C84.2713 36.8982 84.2405 37.4082 84.537 37.7425Z" fill="#7400BD"/><path fill-rule="evenodd" clip-rule="evenodd" d="M78.7088 35.344C79.0128 35.6427 79.2913 36.0864 79.6666 36.3519C79.9148 36.5307 80.1783 36.6751 80.4981 36.702C81.2546 36.7863 82.0688 36.5784 82.9002 36.2947C83.1315 36.2156 83.3617 36.1331 83.6039 36.0654C84.2101 35.8923 84.7706 35.763 85.33 35.4747C85.4285 35.4219 85.5239 35.359 85.6094 35.288C85.8147 35.1131 85.9826 34.9017 86.1316 34.6887C86.8465 33.659 87.1168 32.5706 87.0158 31.564C86.9783 31.2161 86.9226 30.8812 86.7943 30.5392C86.5632 29.914 86.0984 29.3241 85.2916 28.755C84.8574 28.5264 84.323 28.692 84.0978 29.1251C83.8681 29.5559 84.0339 30.0902 84.4681 30.3188C85.2447 30.623 85.7722 30.9969 85.8101 31.5375C85.8428 31.9536 85.5427 32.3247 85.2413 32.7035C85.017 32.9843 84.697 33.1836 84.3959 33.4438C84.2761 33.5477 84.1495 33.6536 84.0418 33.7723C83.6587 34.1987 83.4494 34.7307 82.9789 35.0545C82.7753 35.1991 82.5415 35.2938 82.3092 35.3695C81.76 35.5472 81.1999 35.5466 80.7061 35.4365C80.6047 35.4087 80.561 35.3036 80.4989 35.2228C80.2754 34.9325 80.1318 34.5655 79.9404 34.2949C79.653 33.9541 79.1397 33.913 78.7999 34.2037C78.46 34.4944 78.418 35.0042 78.7088 35.344Z" fill="#7400BD"/><path fill-rule="evenodd" clip-rule="evenodd" d="M74.085 27.8464C73.9393 27.532 74.792 27.0304 74.9707 26.8416C75.3319 26.4405 75.7763 26.0804 76.2123 25.6932C76.6426 25.3114 77.0718 24.9263 77.5433 24.6059C77.9933 24.2996 78.4663 24.0677 78.9582 23.8967C79.8388 23.6163 80.6549 23.6895 81.2744 24.0016C81.6346 24.1827 81.9428 24.4468 82.1351 24.78C82.6336 25.6337 82.7456 26.8074 81.826 27.9302C81.4266 28.7101 80.8511 29.3406 80.2172 29.9264C79.323 30.7485 78.2923 31.4535 77.3103 32.136C76.9268 32.3698 76.4288 32.2462 76.196 31.8661C75.9632 31.4861 76.0856 30.9848 76.4702 30.7544C77.4713 30.2291 78.5589 29.7436 79.4552 29.0358C80.0179 28.5908 80.4929 28.0543 80.8423 27.4122C80.9421 27.0885 80.9234 26.8014 80.883 26.5397C80.8571 26.3846 80.7324 26.2935 80.6611 26.1711C80.5821 26.0362 80.4134 26.018 80.274 25.9389C80.0149 25.7968 79.7156 25.645 79.3228 25.6815C78.7002 25.7299 78.0596 25.8877 77.4957 26.2331C77.2631 26.3793 77.0411 26.5482 76.8444 26.7389C76.5392 27.0337 76.3034 27.3848 76.0826 27.7127C75.9342 27.9515 75.6764 28.6022 75.4075 28.9784C75.2136 29.2498 74.9622 29.3833 74.7656 29.4665C74.3023 29.6102 73.806 29.3489 73.6622 28.8856C73.5342 28.4731 73.7191 28.0414 74.085 27.8464Z" fill="#7400BD"/><path fill-rule="evenodd" clip-rule="evenodd" d="M71.0946 26.8848C71.5508 26.5506 71.9395 26.2262 72.3093 25.9003C72.7167 25.5405 73.0594 25.1637 73.4284 24.8232C73.5803 24.6797 73.7399 24.5486 73.9104 24.4291C74.3536 24.1249 74.8287 24.0072 75.197 23.5928C75.346 23.428 75.4166 23.2134 75.5083 23.007C75.7106 22.5477 75.8501 22.0893 76.028 21.5634C76.0995 21.4115 76.1619 21.2179 76.2812 21.0289C76.551 20.6079 76.9194 20.1824 77.1476 19.7706C77.285 19.5205 77.3383 19.2741 77.3844 19.0522C77.3935 18.5675 77.0078 18.1607 76.5196 18.1527C76.0304 18.1412 75.6279 18.5292 75.6166 19.0183C75.6578 19.2946 75.5901 19.6975 75.4334 20.0648C75.3676 20.2112 75.3017 20.3577 75.2174 20.4802C75.1123 20.6314 74.9868 20.7407 74.8949 20.8508C74.5141 21.2246 74.1618 21.5229 73.8241 21.8685C73.681 22.0166 73.5183 22.1375 73.4161 22.31C73.1579 22.7682 73.2205 23.2566 72.9603 23.6968C72.8581 23.8693 72.7272 24.0212 72.581 24.1592C71.9993 24.7102 71.2256 25.0723 70.3067 25.4684C69.918 25.6853 69.7743 26.1783 69.9913 26.567C70.2094 26.9591 70.7015 27.0993 71.0946 26.8848Z" fill="#7400BD"/><path fill-rule="evenodd" clip-rule="evenodd" d="M71.1408 20.9257C70.9554 20.5791 70.8028 20.2187 70.6174 19.8721C70.3254 19.3251 70.0027 18.7988 69.7241 18.2476C69.522 17.8469 69.331 17.4465 69.1525 17.0385C69.0088 16.5752 69.2701 16.0791 69.7368 15.9344C70.2001 15.7908 70.6964 16.0521 70.8401 16.5153C71.0026 17.3138 71.1853 18.1059 71.4886 18.8682C71.5886 19.1189 71.6964 19.3708 71.8316 19.6033C71.9688 19.8424 72.1437 20.0476 72.3071 20.2638C72.4961 20.4907 72.6726 20.7251 72.8741 20.9443C72.9355 21.0106 73.0026 21.0713 73.0753 21.1266L73.0696 21.1321L73.0628 21.1342C73.0727 21.1422 73.0839 21.1424 73.0897 21.1369L73.0753 21.1266L73.0844 21.1201L73.0591 21.0982C73.0591 21.0982 73.6046 21.1479 73.6971 21.1711C73.9432 21.2356 74.0481 21.4181 74.1358 21.5095C74.4406 21.8227 74.3611 22.1884 74.2051 22.5815C74.1566 22.7003 73.9926 22.8883 73.5934 23.0713C73.3627 23.1762 73.0961 23.1773 72.8073 23.1667C72.5376 23.1577 72.2357 23.0808 71.9395 22.9984C71.8583 22.9754 71.7828 22.9469 71.7059 22.9263C71.6848 22.918 71.6972 22.8623 71.6748 22.8618C71.429 22.8342 71.1484 22.8026 70.8486 22.8399C70.5129 22.881 70.1972 22.9269 69.9334 23.0087C69.4769 23.2577 69.2311 23.6008 69.2398 23.9873C69.2523 24.4097 69.5359 24.8222 69.9314 25.1888C70.0457 25.2943 70.2147 25.3012 70.3845 25.3227C70.811 25.3832 71.2834 25.3405 71.6458 25.3616C72.0904 25.4203 72.4022 25.8277 72.3425 26.2688C72.2839 26.7132 71.873 27.0259 71.4319 26.9662C70.968 26.8691 70.3293 26.8299 69.816 26.6331C69.4905 26.5042 69.197 26.3469 68.9895 26.0961C68.41 25.4233 68.1209 24.6826 68.1298 23.9941C68.1413 23.2307 68.4836 22.5056 69.3634 21.9956C69.6692 21.7266 70.0812 21.4654 70.5143 21.2125C70.7241 21.0882 70.9377 20.9998 71.1408 20.9257ZM73.0954 21.1315L73.0989 21.1193C73.1015 21.1037 73.0959 21.1091 73.0844 21.1201L73.0954 21.1315L73.0897 21.1369C73.1293 21.1691 73.1723 21.2003 73.2164 21.2348C73.1867 21.2107 73.1316 21.1647 73.0954 21.1315Z" fill="#7400BD"/><path fill-rule="evenodd" clip-rule="evenodd" d="M65.5732 23.1078C65.4688 22.2097 65.4556 21.3428 65.657 20.4983C65.707 20.3011 65.7605 20.1029 65.8561 19.9213C66.1125 19.4452 66.56 19.2027 66.802 18.7162C66.8956 18.5278 66.9214 18.3123 66.9605 18.1037C67.052 17.5861 67.0701 17.0949 67.1035 16.5693C67.1407 16.3428 67.1701 16.0668 67.2743 15.7935C67.4498 15.3314 67.6899 14.8863 67.7943 14.4462C67.8665 14.1532 67.8386 13.8839 67.8083 13.619C67.6635 13.1524 67.1672 12.8911 66.7039 13.0347C66.2372 13.1794 65.9759 13.6755 66.1207 14.1422C66.2627 14.4206 66.2701 14.8149 66.1882 15.1962C66.1586 15.3277 66.1299 15.4626 66.0781 15.5824C65.986 15.8111 65.8578 15.9954 65.7723 16.1739C65.5233 16.6143 65.2389 16.9879 65.0056 17.4309C64.9076 17.6169 64.7941 17.8005 64.7506 18.0067C64.6434 18.5218 64.811 18.9665 64.7721 19.4863C64.7577 19.6909 64.7189 19.8883 64.6644 20.0831C64.3946 21.0897 64.0373 22.053 63.9541 23.1352C63.9604 23.5855 64.3304 23.9415 64.7763 23.933C65.2222 23.9245 65.5794 23.558 65.5732 23.1078Z" fill="#7400BD"/><path fill-rule="evenodd" clip-rule="evenodd" d="M61.4043 21.0368C60.8451 20.9433 60.3991 20.9036 59.9709 20.814C59.7612 20.7715 59.5466 20.749 59.3673 20.6489C58.9963 20.4451 58.9278 20.0809 58.4864 19.9249C58.353 19.8773 58.2041 19.9234 58.0506 19.9303C57.578 20.0323 57.1991 20.3166 56.6799 20.3997C56.4821 20.4313 56.2936 20.3378 56.1203 20.2692C56.0393 20.235 56.037 20.1319 55.9733 20.0701C55.5435 19.8438 55.0091 20.0095 54.7794 20.4402C54.5542 20.8733 54.7199 21.4076 55.1497 21.6339C55.6856 21.7717 56.1862 21.6165 56.7826 21.5911C56.9979 21.5799 57.1785 21.6722 57.3856 21.7303C57.5516 21.7752 57.6513 21.8815 57.7907 21.9606C57.9166 21.9957 58.0268 22.0765 58.1489 22.0757C58.5613 22.0665 58.723 21.7272 59.0961 21.7227C59.2843 21.72 59.4639 21.8089 59.6427 21.8832C60.0325 22.0403 60.3879 22.2897 60.8582 22.5628C61.2785 22.7105 61.7445 22.4919 61.8956 22.0707C62.0433 21.6505 61.8246 21.1845 61.4043 21.0368Z" fill="#7400BD"/><path fill-rule="evenodd" clip-rule="evenodd" d="M58.5702 20.8742C58.641 20.2184 58.6949 19.5197 58.8343 18.7981C58.892 18.506 58.9253 18.1954 59.0509 17.9192C59.2555 17.4554 59.6416 17.2061 59.824 16.7306C59.8869 16.5629 59.9065 16.3752 59.9103 16.1961C59.9251 15.6466 59.792 15.1578 59.7034 14.633C59.6633 14.4082 59.6084 14.1954 59.6029 13.9747C59.5845 13.3058 59.6737 12.6851 59.5874 12.0484C59.4426 11.5817 58.9463 11.3204 58.483 11.4641C58.0163 11.6088 57.755 12.1049 57.8998 12.5715C58.1299 13.0265 58.4115 13.4804 58.4128 14.0101C58.4148 14.6618 58.0245 15.2202 57.8115 15.8719C57.7802 15.9742 57.7378 16.0764 57.7232 16.1847C57.7161 16.2573 57.728 16.3315 57.7365 16.4067C57.7839 16.7626 57.9074 17.0172 57.947 17.3719C57.9608 17.5121 57.9793 17.6435 57.9596 17.7831C57.8925 18.2598 57.6894 18.7046 57.529 19.1435C57.3554 19.6236 57.159 20.0662 56.9919 20.5072C56.8898 20.9429 57.1618 21.3775 57.5976 21.4796C58.0323 21.5784 58.4714 21.3088 58.5702 20.8742Z" fill="#7400BD"/><path fill-rule="evenodd" clip-rule="evenodd" d="M52.6536 19.676C52.3366 19.3592 51.9996 19.0855 51.6966 18.7421C51.5718 18.6029 51.4257 18.4665 51.361 18.2939C51.2284 17.9383 51.4151 17.6914 51.2724 17.3391C51.2342 17.2397 51.1497 17.1584 51.0683 17.0873C50.6942 16.7659 50.212 16.7412 49.8767 16.3892C49.6037 16.1069 49.5354 15.7315 49.3532 15.3951C49.0168 15.0397 48.4571 15.0279 48.1028 15.3675C47.7519 15.7061 47.7401 16.2658 48.0788 16.6167C48.3841 16.8 48.7204 16.8923 48.9667 17.1606C49.051 17.2531 49.0855 17.3758 49.1368 17.4933C49.2637 17.795 49.2591 18.067 49.3939 18.37C49.4368 18.4604 49.4727 18.5642 49.5509 18.6252C49.8328 18.8528 50.1054 18.7276 50.4094 18.9187C50.5022 18.9789 50.58 19.0623 50.6442 19.1499C50.9576 19.5865 51.0937 20.0966 51.3108 20.5815C51.5595 20.9529 52.0637 21.0487 52.4352 20.8001C52.8032 20.5526 52.9023 20.0474 52.6536 19.676Z" fill="#7400BD"/><path fill-rule="evenodd" clip-rule="evenodd" d="M49.3545 14.1005C49.364 14.131 49.3786 14.1783 49.3737 14.1983C49.4937 13.7126 49.7116 13.2559 49.7828 12.7445C49.8766 12.0668 49.7339 11.3919 49.5733 10.7189C49.523 10.234 49.8771 9.79809 50.362 9.74785C50.8469 9.69761 51.283 10.0517 51.3333 10.5365C51.313 11.3434 51.0487 12.0926 50.9682 12.8848C50.9176 13.3787 51.0095 13.8543 51.0499 14.3311C51.0858 14.6499 50.8141 15.2679 50.4265 15.8588C50.3155 16.0267 50.1976 16.1966 50.0652 16.3192C49.8848 16.4789 49.6975 16.5444 49.5988 16.6084C49.3744 16.7336 49.1215 16.8268 48.8804 17.0535C48.7389 17.1826 48.6038 17.3209 48.4904 17.4932C48.1817 17.9558 47.9737 18.5281 47.7677 19.0591C47.5319 19.6733 47.3773 20.2624 47.2583 20.7034C47.1018 21.1189 46.6336 21.3307 46.2136 21.1718C45.797 21.0118 45.586 20.5472 45.7449 20.1273C45.9657 19.6918 46.2888 19.132 46.641 18.5224C46.942 17.9991 47.2902 17.4723 47.5655 16.9496C47.6435 16.8068 47.7093 16.6604 47.7639 16.5137C47.9281 16.0513 48.0377 15.6875 48.1861 15.3412C48.2307 15.2459 48.2842 15.0958 48.4043 14.9214C48.476 14.8177 48.5734 14.7134 48.6796 14.6137C48.8477 14.4504 49.0575 14.326 49.2084 14.1792C49.2427 14.1463 49.3205 14.1222 49.3545 14.1005C49.3495 14.0724 49.3466 14.0511 49.3664 14.0672C49.3842 14.0765 49.3761 14.0864 49.3545 14.1005Z" fill="#7400BD"/></svg>