<svg width="44" height="54" viewBox="0 0 44 54" fill="none" xmlns="http://www.w3.org/2000/svg"><path fill-rule="evenodd" clip-rule="evenodd" d="M6.50396 52.4665C6.25708 50.9896 6.18563 49.5115 6.20406 48.0367C6.25221 44.4664 6.78799 40.8987 6.51985 37.3211C6.42523 36.0002 6.16743 34.6915 5.84 33.3941C5.10546 30.4603 3.97126 27.5664 3.27779 24.6733C3.01999 23.3646 2.43358 21.1953 2.33638 19.2117C2.27652 18.0371 2.38012 16.9323 2.96844 16.2316C3.18098 15.9635 3.45319 16.0237 3.72504 16.1541C4.02901 16.3024 4.3373 16.5363 4.64781 16.8129C6.02865 18.041 7.36125 20.0827 7.6848 20.7681C8.99452 23.5088 9.75063 26.1764 10.1803 28.8684C10.5228 30.9955 10.6979 33.1312 10.7508 35.3159C10.8045 37.4422 10.7317 39.61 10.7531 41.8665C10.7579 42.498 10.7823 43.1284 10.8185 43.7621C10.9601 46.2348 11.304 48.6972 11.3834 51.1731C11.4064 51.6242 11.7907 51.9712 12.2417 51.9444C12.6891 51.9216 13.0361 51.5374 13.0093 51.0865C12.8475 48.9072 12.476 46.7464 12.2289 44.5755C12.124 43.6645 12.0424 42.7523 12.0075 41.8378C11.9318 39.5879 11.8836 37.4185 11.8495 35.2951C11.8096 33.059 11.7685 30.8736 11.5244 28.6869C11.1996 25.8336 10.5707 22.9841 9.34366 20.0286C8.94051 19.0821 7.05013 15.8913 5.17426 14.6688C3.7986 13.7719 2.44383 13.7434 1.47119 15.0913C0.882432 15.9362 0.640371 17.0793 0.701098 18.3474C0.806373 20.6426 1.78793 23.3728 2.23367 24.9254C2.94269 27.8176 4.12691 30.6973 4.84241 33.6399C5.14741 34.8799 5.35537 36.1287 5.42367 37.3925C5.60055 40.9396 4.98848 44.4645 4.84479 47.9967C4.78403 49.5595 4.80925 51.1257 5.02956 52.6937C5.09317 53.0999 5.47408 53.3807 5.88036 53.3171C6.28663 53.2535 6.56757 52.8727 6.50396 52.4665Z" fill="#7400BD"/><path fill-rule="evenodd" clip-rule="evenodd" d="M4.05757 43.2421C3.959 43.2978 3.84368 43.331 3.71919 43.3373C3.26793 43.3603 2.88747 43.0131 2.86467 42.5658C2.88918 42.3579 2.97341 41.7142 3.68143 41.6781C4.00431 41.6617 4.61614 41.728 5.09642 41.7386C5.3386 41.7458 5.52863 41.7244 5.5827 41.7139C6.27493 41.4447 6.89704 41.1011 7.6125 40.9048C7.74338 40.8708 7.87466 40.8446 8.00732 40.8457C8.43254 40.8474 8.76415 41.0021 9.18318 41.0354C9.34756 41.0465 9.50766 41.0501 9.67434 41.0299C10.1703 40.9656 10.6495 40.8009 11.1341 40.667C11.6185 40.5293 12.0897 40.361 12.5733 40.2077C12.9788 40.1286 13.3706 40.3933 13.4497 40.7987C13.5289 41.2041 13.2642 41.5958 12.8625 41.6747C12.3537 41.7162 11.8556 41.7377 11.3514 41.7945C10.851 41.8473 10.3453 41.8731 9.86025 41.9991C9.69864 42.0425 9.54952 42.1008 9.40117 42.1746C9.02047 42.3577 8.76514 42.6281 8.37119 42.7807C8.24888 42.8298 8.11371 42.8562 7.97775 42.867C7.2367 42.9438 6.52973 42.8472 5.78372 42.8267C5.7104 42.8421 5.46449 42.839 5.16634 42.8815C4.79855 42.9353 4.22769 43.366 4.05757 43.2421ZM4.49159 42.4986C4.49529 42.4945 4.49489 42.4867 4.4908 42.483L4.49159 42.4986Z" fill="#7400BD"/><path fill-rule="evenodd" clip-rule="evenodd" d="M16.9551 50.6349C16.8314 50.4267 16.7183 50.1206 16.6634 49.7334C16.5362 48.8431 16.5818 47.3668 16.517 46.9373C16.445 46.4419 16.4039 45.941 16.3783 45.4393C16.2937 43.5486 16.4877 41.6164 16.2636 39.7444C15.9292 37.0866 15.6523 34.3322 15.2083 31.5903C14.9141 29.796 14.5384 28.0098 14.0903 26.2585C13.3363 23.3256 12.3301 20.4953 10.9178 17.8846C10.22 16.5904 9.41625 15.3602 8.7453 14.057C8.43838 13.4682 8.16584 12.866 7.93125 12.2424C7.714 11.6529 7.42162 10.8139 7.43044 10.0687C7.43758 9.59651 7.55931 9.15359 7.80521 8.77454C8.09441 8.32701 8.54473 8.13254 9.15629 8.34706C9.35905 8.42252 9.64925 8.60659 9.92805 8.87314C10.2843 9.20593 10.6794 9.68882 10.7947 9.80772L15.0787 14.3545C17.3394 16.6218 19.1485 19.3644 20.2549 22.3261C21.3571 25.2802 21.777 28.4679 20.9764 31.7372C20.6949 32.9486 19.7103 33.9853 19.1045 35.1079C18.9369 35.4167 18.8049 35.7353 18.7442 36.0738C19.2456 36.2705 20.1436 36.5172 20.2387 36.5474C20.6911 36.6999 21.1082 36.9243 21.5002 37.1929C22.0498 37.5704 22.5496 38.0402 23.0066 38.5121C24.5461 40.0987 25.0879 41.8531 24.9425 43.5917C24.7952 45.2915 23.9728 46.9866 22.7055 48.5212C22.3897 48.9077 21.6401 49.5034 21.0429 50.107C20.7572 50.3945 20.478 50.6544 20.4479 50.9055C20.3946 51.3137 20.0193 51.6018 19.6107 51.5447C19.2024 51.4914 18.9141 51.1161 18.9674 50.7079C19.025 50.3072 19.3008 49.8253 19.7298 49.3667C20.3398 48.7079 21.2687 48.0328 21.6334 47.6127C22.7421 46.3318 23.5044 44.9127 23.6571 43.47C23.8074 42.0586 23.3723 40.638 22.1509 39.3238C21.8168 38.9665 21.4632 38.6102 21.0729 38.2986C20.7073 38.0131 20.3124 37.7642 19.8756 37.6109C19.7565 37.5702 18.5327 37.2036 18.0845 36.9808C17.6965 36.79 17.6176 36.4664 17.6196 36.3533C17.6406 35.9233 17.7408 35.5166 17.9044 35.13C18.4294 33.875 19.6662 32.8138 19.997 31.4985C20.7305 28.4432 20.4131 25.4296 19.2837 22.707C18.1457 19.9692 16.1897 17.5577 13.9284 15.5828C13.2836 15.0229 12.6542 14.4584 12.0355 13.8738C11.2651 13.1449 10.513 12.3916 9.76086 11.6384C10.0094 12.3822 10.3262 13.0874 10.6697 13.7835C11.23 14.9052 11.8549 15.9925 12.4039 17.1226C13.7506 19.9005 14.6519 22.8921 15.3195 25.9658C15.7114 27.7629 16.0075 29.5922 16.2953 31.4141C16.7282 34.1683 17.1179 36.9169 17.5031 39.5761C17.7867 41.4683 17.6528 43.4326 17.805 45.3471C17.8398 45.8016 17.898 46.2549 17.9792 46.6991C18.0619 47.1745 18.0527 48.9842 18.2785 49.7409L18.2832 49.7562C18.333 49.8161 18.3837 49.8915 18.4271 49.979C18.4667 50.0666 18.5255 50.3015 18.5641 50.4477C18.6761 50.5785 18.7473 50.7503 18.7568 50.937C18.7796 51.3842 18.4325 51.7684 17.9852 51.7912C17.7049 51.8016 17.4428 51.7097 17.2385 51.451C17.1339 51.3121 16.9936 50.7772 16.9551 50.6349ZM17.9257 50.1643C17.9177 50.1608 17.9099 50.1613 17.9021 50.1617L17.9257 50.1643Z" fill="#7400BD"/><path fill-rule="evenodd" clip-rule="evenodd" d="M29.1832 48.1733L28.5294 39.0941C28.3248 35.6927 27.5846 32.4941 26.5717 29.3795C25.6611 26.5872 24.5165 23.8731 23.3587 21.1285C22.6005 19.3383 21.8496 17.5362 21.1205 15.7055C20.6002 14.2971 20.0719 12.8852 19.5973 11.455C19.2879 10.5115 19.0017 9.56294 18.7537 8.60076C18.6612 8.23895 18.4994 7.74417 18.4077 7.24584C18.3485 6.92522 18.3011 6.6079 18.4178 6.3719C18.5127 6.16821 18.6901 6.12802 18.8623 6.13875C19.2066 6.16021 19.5598 6.35667 19.8317 6.56508C20.508 7.05315 21.0969 7.66654 21.6453 8.32489C22.514 9.37634 23.2642 10.5508 23.9484 11.6545C26.5984 15.8984 29.1273 20.597 30.8248 25.5132C31.2775 26.8198 31.6763 28.1408 31.9861 29.4742C32.4556 31.4935 32.7275 33.5384 32.8314 35.5764C32.9149 37.5217 32.7927 39.6374 32.873 41.6726C32.9122 42.5948 32.9895 43.4993 33.143 44.3688C33.2961 45.2306 33.5914 46.05 33.7712 46.8987C33.8378 47.2111 33.8813 47.5286 33.894 47.8555C33.9168 48.3028 34.2973 48.6499 34.7485 48.6269C35.1998 48.604 35.5429 48.22 35.5201 47.7727C35.4907 47.3492 35.4194 46.9434 35.3209 46.5429C35.1149 45.7151 34.7938 44.9243 34.6145 44.0834C34.4449 43.281 34.3398 42.4441 34.2769 41.5933C34.1266 39.5617 34.1866 37.4492 34.0445 35.5029C33.8942 33.3192 33.5062 31.1398 32.9977 28.9665C32.4992 26.8395 31.8763 24.7188 31.1267 22.6358C29.6224 18.4505 27.6572 14.4057 25.5609 10.6951C24.8638 9.49064 24.1114 8.19541 23.1994 7.06038C22.5499 6.25511 21.8187 5.52811 21.0049 4.94176C20.2734 4.44091 19.253 4.08736 18.4037 4.25927C17.7242 4.39525 17.1002 4.77792 16.7575 5.6298C16.6013 6.00818 16.5461 6.45553 16.6055 6.93211C16.698 7.67605 17.033 8.509 17.221 9.06091C17.5513 10.0306 17.9196 10.9828 18.3111 11.9298C18.8899 13.3392 19.5104 14.723 20.131 16.1108C20.8908 17.932 21.6917 19.72 22.4499 21.5101C23.6022 24.2238 24.6764 26.9336 25.5316 29.7092C26.4662 32.742 27.1165 35.8595 27.2534 39.1591L27.6895 48.2494C27.7105 48.6616 28.0621 48.9791 28.4744 48.9581C28.8868 48.9371 29.2042 48.5856 29.1832 48.1733Z" fill="#7400BD"/><path fill-rule="evenodd" clip-rule="evenodd" d="M36.9864 37.3996C36.5009 37.592 36.0516 37.8059 35.5937 38.0047C35.1322 38.2076 34.6959 38.4482 34.2266 38.5773C34.0882 38.6156 33.952 38.6225 33.8081 38.6298C33.4465 38.6521 33.1547 38.589 32.7931 38.6113C32.7153 38.6153 32.6375 38.6192 32.5643 38.6385C32.4529 38.6715 32.3546 38.7311 32.2558 38.783C31.6438 39.0949 31.1373 39.5652 30.4434 39.7253C29.9191 39.8456 29.367 39.7255 28.7869 39.6693C28.3356 39.6922 27.9884 40.0725 28.0114 40.5237C28.0344 40.9748 28.4185 41.318 28.8697 41.295C29.5106 41.1649 30.0668 40.9065 30.6621 40.8021C31.4276 40.6695 32.1519 40.8003 32.8806 40.6345C33.0543 40.5984 33.2351 40.5502 33.3906 40.4643C33.8228 40.22 34.0362 39.8153 34.4641 39.5635C34.7254 39.4098 35.0261 39.3399 35.3179 39.2509C35.9709 39.0539 36.6481 38.9492 37.3642 38.8426C37.7646 38.7403 38.0011 38.3305 37.899 37.9341C37.7928 37.534 37.3866 37.2934 36.9864 37.3996Z" fill="#7400BD"/><path fill-rule="evenodd" clip-rule="evenodd" d="M38.0937 28.9846C38.772 27.601 38.6512 26.0709 38.2295 24.5326C37.4785 21.8102 35.8014 19.0569 34.9328 16.8591C34.6175 16.107 34.2633 14.8187 33.9133 13.308C33.5289 11.6587 33.1464 9.7403 32.9562 7.92124C32.6731 5.19838 32.8697 2.70454 33.7694 1.53185C34.0519 1.18213 34.564 1.12875 34.9138 1.41118C35.2639 1.6975 35.3172 2.20952 35.0347 2.55924C34.2433 3.48466 34.1347 5.56069 34.2652 7.81561C34.3671 9.58459 34.6304 11.4623 34.9928 13.062C35.3151 14.4883 35.7152 15.6806 36.028 16.3861C37.2514 18.9636 39.6699 22.2601 40.3104 25.4912C40.6354 27.124 40.5068 28.7331 39.7218 30.2431C39.5356 30.5684 39.2894 30.7876 39.0032 30.9114C38.6561 31.0655 38.2406 31.1023 37.8214 30.9872C37.0374 30.758 36.4063 30.2365 35.9388 29.4804C35.237 28.3386 34.9019 26.6595 34.3815 25.5552C33.9322 24.6227 33.5213 23.6766 33.0835 22.7397C32.6498 21.8065 32.1971 20.882 31.7443 19.9575C30.8434 18.1201 29.908 16.296 28.9346 14.4935C28.1564 13.0748 27.3504 11.6458 26.4502 10.284C25.8547 9.39018 25.2178 8.52579 24.5213 7.71512C23.858 6.94564 22.9767 6.33542 22.2343 5.62066C21.865 5.26124 21.5297 4.88059 21.2546 4.45788C21.038 4.11018 21.1432 3.64862 21.4908 3.42816C21.8424 3.21139 22.3041 3.31656 22.5209 3.66815C22.7253 4.00478 22.9789 4.31161 23.2549 4.60169C23.9962 5.3711 24.8848 6.04721 25.5429 6.86764C26.2428 7.74443 26.8789 8.67129 27.4737 9.62752C28.3531 11.0411 29.1343 12.5181 29.8918 13.9885C31.2307 16.5368 32.391 19.176 33.7375 21.7199C34.3152 22.8018 34.9534 23.8455 35.5959 24.8968C36.1272 25.7548 36.5783 27.0303 37.1872 28.0326C37.4426 28.4524 37.715 28.8246 38.0937 28.9846Z" fill="#7400BD"/><path fill-rule="evenodd" clip-rule="evenodd" d="M42.7227 47.1267C42.75 46.1006 42.6224 45.0906 42.4565 44.0782C42.2499 43.1022 41.9651 42.1473 41.7976 41.1608C41.7384 40.8838 41.7178 40.6092 41.6587 40.3322C41.5857 39.6705 41.5878 39.0331 41.5148 38.3714C41.4865 38.2135 41.4576 38.062 41.4289 37.9105C41.3668 37.6789 41.2654 37.4642 41.2025 37.2455C40.7098 35.9325 40.0968 34.6963 39.8376 33.3396C39.6775 32.2365 39.7875 31.1181 39.9358 30.0022C39.9648 29.5487 39.6053 29.1614 39.1841 29.1344C38.7246 29.105 38.3186 29.4433 38.2896 29.8969C38.3277 31.1028 38.5612 32.2561 38.7541 33.4459C38.8046 33.859 38.8548 34.2786 38.9049 34.6981C38.9962 35.6732 39.0877 36.6483 39.2948 37.6178C39.3498 37.9596 39.405 38.295 39.5379 38.6222C39.8311 39.4476 40.3638 40.1387 40.6574 40.9577C40.7894 41.2979 40.8822 41.6486 40.9751 41.9994C41.3684 43.6638 41.4521 45.354 41.2677 47.0336C41.2411 47.4482 41.5265 47.7983 41.9477 47.8252C42.3689 47.8522 42.6962 47.5413 42.7227 47.1267Z" fill="#7400BD"/></svg>