<svg width="39" height="24" viewBox="0 0 39 24" fill="none" xmlns="http://www.w3.org/2000/svg"><path fill-rule="evenodd" clip-rule="evenodd" d="M0.266403 4.30086C0.422212 5.52908 0.652054 6.7207 0.729959 7.95631C0.765016 8.54005 0.784492 9.12843 0.729959 9.71061C0.636473 10.6951 0.313172 11.5954 0.196316 12.5763C0.145678 12.9844 0.114491 13.3941 0.122282 13.8045C0.17292 15.5811 0.694898 17.2906 0.72606 19.0702C0.745536 20.2463 0.539057 21.4028 0.449467 22.5789C0.449467 23.3227 1.05326 23.9262 1.79724 23.9262C2.54123 23.9262 3.14887 23.3227 3.14887 22.5789C3.05539 21.4028 2.84895 20.2463 2.86843 19.0702C2.89959 17.2906 3.42152 15.5811 3.47216 13.8045C3.48385 13.3941 3.44882 12.9844 3.40207 12.5763C3.28132 11.5954 2.95802 10.6951 2.86843 9.71061C2.8139 9.12843 2.82947 8.54005 2.86453 7.95631C2.94244 6.7207 3.17223 5.52908 3.32804 4.30086C3.32804 3.4566 2.64251 2.77124 1.79724 2.77124C0.951982 2.77124 0.266403 3.4566 0.266403 4.30086Z" fill="#7400BD"/><path fill-rule="evenodd" clip-rule="evenodd" d="M14.5309 2.31817C15.6601 2.32751 16.1981 3.52184 16.1241 3.83649L16.128 3.92724C16.1436 4.23644 16.1825 5.32212 16.1981 5.76215C16.202 6.41559 16.1903 7.03088 16.1202 7.63993C16.054 8.24352 15.9332 8.83776 15.7968 9.46862L15.7618 9.60141C15.7034 10.617 15.6527 11.6338 15.6255 12.6532C15.6021 13.522 15.6138 14.3912 15.6333 15.26C15.6761 17.2889 15.7969 19.3138 15.8826 21.3427C15.8826 22.0865 15.2749 22.6901 14.5309 22.6901C13.7869 22.6901 13.1831 22.0865 13.1831 21.3427C13.2649 19.3138 13.3857 17.2889 13.4285 15.26C13.4441 14.5489 13.4558 13.8371 13.4441 13.126C13.2844 13.2249 13.113 13.3094 12.9416 13.3791C11.6912 13.8784 10.0825 13.8429 8.34905 12.2506C7.35965 11.4986 6.86884 9.65515 6.9857 7.8214C7.10646 5.91598 7.97122 4.16088 9.18655 3.52185L12.8247 2.32751L12.8676 2.31817C12.8247 2.32749 13.9072 2.17555 14.5309 2.31817ZM12.8754 5.42493L10.285 5.90507C9.65012 6.15741 9.33459 7.10838 9.20215 8.04843C9.05413 9.08661 9.08137 10.2023 9.62282 10.6591C10.5382 11.2926 11.2666 11.4184 11.8159 11.0944C12.4235 10.7346 12.5949 9.85765 12.6651 8.94719L12.8637 5.76215L12.8754 5.42493Z" fill="#7400BD"/><path fill-rule="evenodd" clip-rule="evenodd" d="M21.2751 13.0321C21.1154 13.1493 20.8856 13.3098 20.7571 13.3608C20.3558 13.5208 19.9936 13.6205 19.6547 13.5181C19.3742 13.4324 19.0587 13.3522 18.825 13.0621C18.673 12.8775 18.4043 12.5921 18.3809 12.1135C18.3575 11.6688 18.5484 10.6349 18.5679 10.4596C18.6575 9.4195 18.7977 8.39341 18.8289 7.34977C18.8522 6.65856 18.7977 5.96772 18.7821 5.27651C18.7743 5.16047 18.7003 3.98287 18.7159 3.51207C18.7432 2.77374 19.2652 2.46611 19.3859 2.39796C19.5846 2.28426 19.8417 2.22855 20.1299 2.19194C20.5 2.14521 21.0181 2.22818 21.2985 2.18106L24.6134 1.36211C25.447 1.23671 26.23 1.81305 26.3546 2.64796C26.4793 3.48286 25.9028 4.26208 25.0692 4.38747L21.5517 4.70641C21.4426 4.70992 21.2518 4.74379 21.0531 4.76754C20.983 5.02495 20.9129 5.23874 20.909 5.27651C20.8934 5.96772 20.8389 6.65856 20.8622 7.34977C20.8856 8.19442 20.983 9.02814 21.0687 9.86655C21.5712 9.75985 22.1672 9.68274 22.693 9.68819C23.3864 9.69559 23.9707 9.89188 24.3096 10.099C25.5171 10.9094 26.1988 11.9752 26.4481 13.2404C26.7208 14.6182 26.5027 16.1969 26.4014 17.6027C26.3663 18.0895 26.4208 18.7553 26.3819 19.3434C26.3546 19.7367 26.3118 20.1066 26.191 20.4104C25.7742 21.7305 24.5862 22.6222 23.289 22.9221C21.9218 23.2414 20.461 22.8442 19.4989 21.6331C19.1989 21.2554 18.9341 21.0529 18.7666 20.7297C18.6419 20.4882 18.5796 20.1962 18.5601 19.8146C18.5601 19.0708 19.1639 18.4633 19.9079 18.4633C20.6207 18.4633 21.2011 19.0163 21.2556 19.7133C21.353 19.8301 21.4894 20.0015 21.5829 20.1456C21.8672 20.5934 22.3697 20.7725 22.845 20.6946C23.3942 20.6051 23.9279 20.2663 24.1187 19.7211L23.9123 17.6027C23.8383 16.6058 23.8266 15.4998 23.6162 14.4971C23.4955 13.932 23.2734 13.4243 22.7826 13.0862C22.7865 13.0827 22.7904 13.0761 22.7904 13.0668C22.8956 12.6614 21.6686 12.9192 21.2751 13.0321ZM21.1855 19.6316C21.1583 19.5926 21.131 19.5692 21.131 19.5692C21.131 19.5692 21.1544 19.5926 21.1855 19.6316ZM22.7826 13.0862C22.7437 13.1189 22.6385 12.9975 22.5878 12.969C22.658 13.0053 22.7203 13.0442 22.7826 13.0862ZM21.0492 11.1797C21.0297 11.4624 21.0531 11.7101 21.205 11.6699C21.4348 11.608 21.2323 11.3565 21.0492 11.1797Z" fill="#7400BD"/><path fill-rule="evenodd" clip-rule="evenodd" d="M37.2968 10.6534C37.0436 10.8999 36.619 11.2994 36.4398 11.3614C35.8828 11.5759 35.1895 11.588 34.426 11.4151C34.0832 11.338 33.7288 11.241 33.3665 11.1429C32.3693 10.8707 31.4501 10.4299 30.9359 10.0658C30.3711 9.64987 30.1296 9.09339 29.9387 8.5264C29.8024 8.11635 29.7673 7.66579 29.8102 7.21213C29.8297 7.00535 29.8881 6.80557 29.9348 6.59879C30.2698 5.58631 30.6554 4.73856 31.2125 3.98426C31.3293 3.82343 31.4384 3.66222 31.5474 3.50023C31.8162 3.09562 32.1006 2.72373 32.4278 2.38066C33.1951 1.57535 34.2273 1.1135 35.6179 0.917236C36.4632 0.93476 37.1332 1.63453 37.1176 2.47839C37.0981 3.32225 36.397 3.99323 35.5556 3.97571C34.687 3.82617 33.9313 3.8429 33.4522 4.3577C33.2886 4.53489 33.1678 4.76038 33.086 5.00103C32.8913 5.57971 33.051 6.20626 33.1484 6.89085C33.1406 7.1576 33.1523 7.42125 33.1523 7.67631C33.1523 7.73979 33.1055 7.79742 33.1133 7.85895C33.1211 7.9049 32.9965 7.93059 33.0276 7.97498C33.2497 8.28457 33.647 8.80484 34.2195 9.06653C34.5467 9.21684 34.9051 9.31613 35.1778 9.26979C35.2751 9.1078 35.5478 8.67244 35.6608 8.53536C35.9841 8.1514 36.4048 8.14672 36.6619 8.11362C37.4058 8.11362 38.0096 8.71799 38.0096 9.46255C38.0096 9.97814 37.7214 10.4267 37.2968 10.6534ZM36.7047 10.8103L36.6619 10.8115C36.6735 10.813 36.6891 10.8127 36.7047 10.8103Z" fill="#7400BD"/><path fill-rule="evenodd" clip-rule="evenodd" d="M37.4018 20.8935C37.4213 19.6746 37.3239 18.4908 37.2538 17.2797C37.2265 16.7774 37.172 16.275 37.2031 15.7727C37.281 14.59 37.6589 13.4923 37.7679 12.312C37.8147 11.8299 37.8303 11.345 37.8147 10.8622C37.7562 9.4848 37.5148 8.15691 37.5148 6.78384C37.5304 6.5202 37.5264 6.23514 37.5654 5.94152C37.7368 4.73395 38.103 3.39085 38.1848 2.40874C38.1848 1.66418 37.581 1.05981 36.8331 1.05981C36.0891 1.05981 35.4853 1.66418 35.4853 2.40874C35.5476 3.07581 35.5866 3.95121 35.5126 4.81221C35.4581 5.41152 35.3412 5.99409 35.2711 6.50345C34.9634 7.67714 34.7219 8.8376 34.5777 10.0456C34.5193 10.5475 34.4414 11.0507 34.4648 11.5573C34.531 12.9012 35.0257 14.1461 35.1464 15.4884C35.1737 15.8116 35.1698 16.1348 35.1503 16.4581C35.0568 17.8249 34.7257 19.1333 34.3713 20.4573C34.2505 21.2946 34.8348 22.0695 35.6684 22.1902C36.5059 22.311 37.281 21.7268 37.4018 20.8935Z" fill="#7400BD"/></svg>