<svg width="85" height="77" viewBox="0 0 85 77" fill="none" xmlns="http://www.w3.org/2000/svg"><path fill-rule="evenodd" clip-rule="evenodd" d="M39.799 43.6783C39.9023 43.1425 40.3459 42.7114 40.9191 42.6502C41.6201 42.5754 42.2502 43.0839 42.3247 43.7809C42.3376 44.1947 42.2743 44.6283 41.9432 45.0122C41.6228 45.3871 40.9952 45.8183 40.1035 46.1249C39.03 46.4901 37.5603 46.7762 36.1688 46.9873C35.6829 47.0588 35.2043 47.1255 34.7614 47.1962C33.783 47.3515 32.9602 47.4589 32.4639 47.4336C32.0386 47.4124 31.7588 47.2503 31.5821 47.136C31.308 46.9538 30.9959 46.3056 31.3471 45.34C31.814 44.0643 33.7179 41.0962 33.9175 40.8007C34.2781 40.3628 34.6029 39.8464 34.9852 39.3552C35.8701 38.2151 36.9512 37.152 37.6505 35.8516C38.0914 35.0291 38.37 34.1534 38.6134 33.352C38.6628 33.1548 38.6307 32.9271 38.5865 32.6969C38.499 32.2441 38.3044 31.7792 38.1554 31.4113C38.0123 31.0623 37.8739 30.8304 37.6976 30.72C37.5921 30.649 37.5097 30.7948 37.3924 30.87C36.4708 31.4462 35.5728 32.9402 34.8884 33.7573C34.4494 34.231 33.7081 34.2592 33.2343 33.8202C32.7604 33.3812 32.7322 32.6401 33.1712 32.1664C34.3171 31.0494 36.1295 28.9487 37.4779 28.8831C38.3194 28.8404 39.2331 29.2167 39.7537 30.8256C39.9087 31.2869 40.0886 31.8708 40.1684 32.4341C40.2352 32.9126 40.234 33.3788 40.1158 33.7752C39.8977 34.5935 39.5375 35.4387 39.2412 36.332C38.8159 37.6306 38.4735 38.9713 37.9172 40.2173C37.6679 40.7804 37.4041 41.3177 37.0837 41.8023C36.8543 42.1479 36.5769 42.4477 36.3184 42.7416C36.1456 42.9206 34.7552 44.3888 33.8799 45.5083C34.2903 45.4998 34.752 45.4584 35.2328 45.3757C36.9435 45.0718 38.8946 44.3427 39.799 43.6783ZM39.783 44.0051C39.7808 44.021 39.7828 44.0404 39.7841 44.052L39.783 44.0051Z" fill="#7400BD"/><path fill-rule="evenodd" clip-rule="evenodd" d="M31.9379 62.1024C32.1042 61.7166 32.6365 60.5396 32.8989 60.2453C33.4659 59.613 34.016 58.822 34.5229 57.9572C35.2976 56.6291 35.9954 55.1682 36.7149 53.9831C38.2451 50.8904 39.1477 47.4964 40.2909 44.1551C40.5771 43.3139 40.8877 42.4818 41.2473 41.668C42.1124 39.7193 43.2357 37.9506 44.2204 36.0949C44.644 35.2939 45.014 34.4672 45.447 33.6808C46.4744 31.6012 47.4895 29.5543 48.4511 27.4817C49.4091 25.4134 50.3101 23.3238 51.2095 21.1835C51.48 20.5985 52.177 20.3401 52.7626 20.6144C53.3477 20.8849 53.6024 21.5822 53.332 22.1672L46.808 34.3933C46.4813 35.0391 46.1427 35.6823 45.8783 36.3606C45.0303 38.5424 44.6638 40.8687 43.9711 43.1476C43.7963 43.7106 43.593 44.2649 43.3739 44.817C41.9619 48.3554 40.2884 51.7572 38.2343 54.8588C37.4726 56.2717 36.709 58.0333 35.9109 59.5832C35.5111 60.3504 35.1059 61.0672 34.6693 61.6739C34.5771 61.8012 34.5501 62.0978 34.4663 62.377C34.3057 62.9268 34.0918 63.4548 33.8996 63.7456C33.5953 64.1971 33.1758 64.3398 32.8332 64.3959C32.1321 64.4707 31.502 63.9622 31.4271 63.2614C31.3775 62.7967 31.5853 62.3594 31.9379 62.1024ZM32.5118 61.8649L32.5617 61.8557C32.5463 61.8573 32.5269 61.8594 32.5118 61.8649Z" fill="#7400BD"/><path fill-rule="evenodd" clip-rule="evenodd" d="M51.3699 41.2833C49.3867 41.5302 46.6356 42.0313 45.689 42.0814C45.0434 42.0876 44.5143 41.5723 44.5038 40.9233C44.4979 40.2816 45.0167 39.7484 45.6624 39.7422C46.8572 39.7792 50.9797 39.355 52.7354 39.3987C53.4382 39.4138 53.9021 39.5758 54.053 39.7046C54.3114 39.9238 54.5315 40.2606 54.3104 40.7581C54.2475 40.9019 54.0286 41.1994 53.6262 41.5399C53.059 42.0234 52.0245 42.7174 50.9415 43.5066L51.738 43.4451C52.3292 43.5152 53.0951 43.7546 53.8257 44.2132C54.6481 44.7247 55.445 45.4738 55.9839 46.3015C56.8117 47.5604 57.153 48.9574 56.4604 50.1749C55.5775 51.7731 54.1982 52.9424 52.7014 53.6348C52.0036 53.9599 51.2889 54.2006 50.559 54.2981C48.8831 54.5239 47.1948 54.0108 45.7941 52.5232C45.6348 52.3522 45.056 51.9949 44.7532 51.6904C44.4243 51.3613 44.3132 50.9815 44.2657 50.7202C44.1908 50.0194 44.6993 49.3894 45.4003 49.3146C45.9929 49.2513 46.5317 49.6012 46.7295 50.1323C46.9355 50.3375 47.4713 50.8795 47.582 51.0361C48.547 52.3313 49.9505 52.7455 51.268 52.3543C51.8339 52.1881 52.3755 51.868 52.8487 51.4571C53.5153 50.8769 53.9974 50.0735 54.3255 49.1847C54.3891 49.0095 54.305 48.8461 54.2477 48.676C54.1082 48.2875 53.7465 47.9815 53.3878 47.6673C53.0548 47.3738 52.6544 47.1463 52.2833 46.9352C51.9245 46.7307 51.5907 46.5392 51.3121 46.4984L48.6161 45.9754C48.6367 45.9849 48.69 45.9714 48.69 45.9714C48.69 45.9714 47.7065 45.9314 47.545 45.886C47.1368 45.769 46.8966 45.6105 46.8121 45.4433C46.644 45.1166 46.4434 44.7424 46.7643 44.3361C46.8301 44.2547 46.904 44.0666 47.1578 43.9495C47.7005 43.6762 48.3177 43.4027 48.9094 43.038C49.7991 42.4927 50.6668 41.8518 51.3699 41.2833Z" fill="#7400BD"/><path fill-rule="evenodd" clip-rule="evenodd" d="M69.3121 68.5159C69.7232 68.5503 70.0715 68.8774 70.117 69.3033C70.1691 69.7912 69.8158 70.2245 69.3317 70.2762C69.0205 70.2232 68.6747 70.2131 68.4313 69.8788C68.2381 69.6096 68.0919 69.1944 67.8932 68.8749C67.8317 68.7757 67.7329 68.7314 67.6815 68.6899C67.387 68.5372 67.1043 68.4578 66.7854 68.296C66.6652 68.2344 66.5247 68.2024 66.4353 68.0984C66.1716 67.7936 66.2587 67.4357 66.027 67.1001C65.9479 66.9833 65.8434 66.8848 65.7327 66.8026C65.2006 66.4051 64.5937 66.1878 64.074 65.9065C63.7125 65.6396 63.6385 65.1305 63.9059 64.773C64.1733 64.4155 64.6782 64.3381 65.0397 64.605C65.261 64.8438 65.4716 65.0915 65.7252 65.3386C65.9574 65.5684 66.1804 65.8227 66.4596 66.0161C66.5737 66.094 66.6939 66.1556 66.824 66.2005C67.2063 66.332 67.5315 66.2229 67.8675 66.4338C67.9979 66.5178 68.0643 66.6634 68.1485 66.7915C68.3695 67.1361 68.511 67.4342 68.6613 67.7785C68.7439 67.8911 68.8229 68.1177 68.979 68.3321C69.0436 68.4231 69.1936 68.4698 69.3121 68.5159ZM69.2101 68.515C69.1899 68.5093 69.1663 68.5079 69.1439 68.5181L69.2101 68.515Z" fill="#7400BD"/><path fill-rule="evenodd" clip-rule="evenodd" d="M70.4459 65.6144C70.7555 65.7263 70.9931 66.0064 71.0303 66.3549C71.0824 66.8428 70.7291 67.276 70.245 67.3277C70.0507 67.3053 69.7602 67.3364 69.5182 67.0881C69.2848 66.8466 68.9988 66.3328 68.6989 65.9457C68.5945 65.812 68.468 65.7276 68.4007 65.6838C67.8365 65.4268 67.2387 65.2948 66.7553 64.8764C66.6512 64.7818 66.5876 64.6632 66.5236 64.5408C66.3434 64.2115 66.3245 63.9237 66.1335 63.6034C66.0763 63.5076 66.001 63.4256 65.9226 63.3518C65.6291 63.0619 65.2977 62.8192 64.9731 62.568C64.6396 62.3059 64.3059 62.0791 63.9779 61.8322C63.6618 61.5134 63.6618 61.0004 63.981 60.6883C64.2998 60.3723 64.8134 60.3762 65.1252 60.6915C65.3639 61.0185 65.5913 61.3506 65.8527 61.6713C66.1056 61.985 66.3551 62.303 66.6542 62.5726C66.7364 62.6461 66.8183 62.7157 66.914 62.7682C67.2411 62.933 67.525 62.9144 67.8613 63.0548C67.9884 63.1078 68.1103 63.1496 68.2102 63.2408C68.6614 63.6508 68.8573 64.2017 69.2098 64.6772C69.3014 64.7653 69.4201 64.9602 69.6086 65.1476C69.8236 65.3636 70.3808 65.4451 70.4459 65.6144ZM70.0847 65.5707C70.0727 65.5681 70.0649 65.5689 70.0572 65.5697L70.0847 65.5707Z" fill="#7400BD"/><path fill-rule="evenodd" clip-rule="evenodd" d="M67.113 59.4855C67.0667 59.5296 66.9938 59.5804 66.925 59.67L66.4125 60.226L65.928 60.971L65.6408 62.4625C65.5263 62.8938 65.0838 63.1525 64.6485 63.0384C64.2171 62.9239 63.9584 62.4815 64.0729 62.0502L64.6736 60.4861C64.734 60.3543 64.8202 60.208 64.9348 60.0705C65.1077 59.8562 65.331 59.6365 65.4823 59.4755L66.0634 58.9748C66.5225 58.4323 66.9279 58.3028 67.2276 58.3218C67.4882 58.341 67.71 58.4739 67.9255 58.6938C68.0445 58.8182 68.1402 58.9803 68.2659 59.1666C68.5779 59.6307 68.8643 60.2581 69.0579 60.8602C69.1101 61.0191 69.146 61.1719 69.1648 61.3109C69.1714 61.3729 69.1776 61.431 69.176 61.4899C69.3557 61.412 69.491 61.3583 69.5371 61.3495C69.9528 61.2072 70.34 61.2012 70.7133 61.2123C71.4204 61.2308 72.0624 61.4834 72.701 61.337C73.1851 61.2853 73.6219 61.6342 73.6741 62.1222C73.7258 62.6062 73.3729 63.0433 72.8888 63.095C72.1081 63.0843 71.4358 62.5843 70.5992 62.4542C70.392 62.4215 70.1674 62.4455 69.9326 62.5215C69.8141 62.585 69.0457 63.3132 68.7111 63.5918C68.0377 64.1454 67.3653 63.4613 67.3208 63.4112C67.2364 63.3183 67.1976 63.1384 67.138 62.9098C67.0762 62.6618 67.3084 61.8655 67.0524 61.8889C67.0446 61.8897 67.0412 61.894 67.0377 61.8983L67.0435 61.9525C67.0423 61.9409 67.0312 61.9107 67.0377 61.8983C67.0195 61.7279 66.9794 61.4619 66.9901 61.1592C67.0024 60.7976 67.1232 60.4244 67.1299 60.0476C67.1351 59.8395 67.1707 59.6595 67.1228 59.504L67.113 59.4855Z" fill="#7400BD"/><path fill-rule="evenodd" clip-rule="evenodd" d="M76.0944 59.3374C75.9131 59.2902 75.7261 58.8598 75.6314 58.7798C75.4767 58.7259 75.3316 58.6512 75.1744 58.6093C74.7705 58.4957 74.4109 58.5028 74.0196 58.3605C73.8813 58.3126 73.7345 58.2577 73.6256 58.1558C73.3202 57.8633 73.3606 57.4713 73.0474 57.1796C72.7869 56.9411 72.4246 56.8506 72.0892 56.7179C71.7628 56.5961 71.4306 56.5297 71.0769 56.4461C70.666 56.2667 70.4779 55.7894 70.6573 55.3786C70.8328 54.9682 71.3103 54.7802 71.7212 54.9596C72.1922 55.2618 72.5994 55.5904 73.0356 55.8963C73.2213 56.0214 73.3949 56.1791 73.6058 56.2467C74.0199 56.3826 74.3511 56.1828 74.7587 56.3312C74.8931 56.3795 75.0024 56.4854 75.1069 56.5839C75.4373 56.8894 75.5905 57.2607 75.9351 57.5529C76.0126 57.619 76.1033 57.6603 76.1874 57.714C76.397 57.7699 76.9303 57.9206 77.2565 58.0777C77.5956 58.2452 77.6419 58.5692 77.7326 58.7945C77.7843 59.2785 77.4315 59.7157 76.9474 59.7673C76.5949 59.805 76.2623 59.625 76.0944 59.3374ZM75.9872 59.0669L75.9742 58.9822C75.9694 59.0101 75.9762 59.0368 75.9872 59.0669Z" fill="#7400BD"/><path fill-rule="evenodd" clip-rule="evenodd" d="M75.7933 55.0271C75.8682 54.9956 75.9208 54.9744 75.9436 54.968C76.408 54.8049 76.9194 54.8247 77.4204 54.7477C77.6516 54.7113 77.8606 54.6146 78.0559 54.4998C78.3238 54.3302 78.4823 53.9804 78.7087 53.7526C78.8249 53.6305 78.965 53.549 79.097 53.4644C79.5414 53.2603 80.0641 53.4591 80.2682 53.9034C80.472 54.3438 80.2736 54.8702 79.8292 55.0743L78.6331 55.758C78.1695 55.9289 77.6624 55.9125 77.1665 56.0007C76.9361 56.0449 76.7361 56.1524 76.5416 56.275C76.3958 56.3767 75.5093 56.953 75.0885 57.0841C74.6788 57.2101 74.389 56.9903 74.1929 56.8781C74.0513 56.7992 73.939 56.5919 73.8138 56.2998C73.7205 56.0865 73.6742 55.5431 73.6463 55.4286C73.649 55.1973 73.6423 54.9512 73.6697 54.6937C73.7059 54.3726 73.8521 54.0907 73.8186 53.777C73.7991 53.595 73.7882 53.42 73.686 53.2703C73.4984 53.0906 73.2328 53.2443 73.0068 53.4016C72.722 53.5964 72.497 53.9102 72.4723 54.1557L72.4403 55.3967C72.3898 55.8408 71.9892 56.1616 71.5451 56.1111C71.1009 56.0605 70.7801 55.6601 70.8306 55.216L71.1135 53.9051C71.2692 53.3089 71.9672 52.5451 72.7432 52.2548C73.3645 52.02 73.9972 52.0387 74.4477 52.5154C74.5591 52.6054 74.6382 52.7222 74.735 52.8216C74.9559 53.0565 75.1046 53.3108 75.2724 53.5984C75.485 53.9752 75.643 54.3539 75.7457 54.7659C75.7707 54.8533 75.7803 54.9424 75.7933 55.0271ZM75.6956 55.6525C75.6818 55.744 75.7004 55.8086 75.771 55.8089C75.8411 55.8053 75.7203 55.7007 75.6956 55.6525ZM75.284 55.2108C75.106 55.0848 74.8506 54.9672 74.8415 55.1757C74.8362 55.3094 75.0449 55.2833 75.284 55.2108Z" fill="#7400BD"/><path fill-rule="evenodd" clip-rule="evenodd" d="M74.3833 48.6785C74.5461 48.8452 74.7239 49.0063 74.9372 49.1324C75.1084 49.2316 75.2948 49.2901 75.4894 49.3516C76.0526 49.5265 76.6375 49.464 77.2272 49.5578C77.4542 49.5923 77.6694 49.6633 77.8829 49.7188C78.2335 49.8107 78.5522 49.9333 78.8643 49.994L80.3263 50.4059C80.4499 50.1694 80.4975 49.9176 80.4903 49.6677C80.4779 48.7447 80.1381 47.8372 80.3563 46.9836C80.5269 46.5267 81.0351 46.2963 81.492 46.4668C81.9486 46.6335 82.1834 47.145 82.0128 47.6018C81.6423 48.3503 81.8508 49.2758 81.6794 50.1283C81.624 50.4162 81.5562 50.6976 81.4212 50.9744C81.2517 51.4037 80.8882 51.5952 80.4755 51.7293C79.9306 51.9089 79.1736 51.7899 78.7584 51.8264C78.3074 51.8589 77.8166 51.8839 77.3059 51.7974C76.9947 51.7444 76.6828 51.6485 76.39 51.5113C75.7057 51.1927 75.1791 50.7006 74.6055 50.2448C74.2154 49.9301 73.8032 49.6647 73.4954 49.3137C73.3335 49.1548 73.2404 48.7966 73.2906 48.3134C73.3579 47.66 73.7005 46.613 73.6416 46.2824L73.3222 44.9419C73.2552 44.4986 73.5559 44.0867 73.9989 44.0159C74.4422 43.949 74.8547 44.2535 74.9212 44.6929L75.036 46.1336C75.0413 46.2936 75.0101 46.5516 74.9176 46.8591C74.7458 47.414 74.8092 48.6683 74.3833 48.6785Z" fill="#7400BD"/><path fill-rule="evenodd" clip-rule="evenodd" d="M75.6988 45.7797C75.7735 46.1125 75.8836 46.4101 75.917 46.759C75.9319 46.8984 75.9597 47.0482 75.9071 47.1791C75.781 47.502 75.5089 47.4488 75.3871 47.7751C75.3562 47.8528 75.37 47.9453 75.3903 48.0254C75.4837 48.4227 75.8321 48.6048 75.8709 49.0041C75.9048 49.3216 75.7231 49.5642 75.6495 49.8658C75.7012 50.3499 76.1346 50.7031 76.6226 50.651C77.1067 50.5993 77.4596 50.1622 77.4079 49.6782C77.2833 49.4291 77.0643 49.2488 77.0655 48.9667C77.0658 48.6024 77.387 48.4193 77.4978 48.0628C77.5213 47.9898 77.5561 47.9117 77.5366 47.8394C77.4472 47.5161 77.182 47.564 77.0435 47.2576C77.0077 47.1792 76.9987 47.094 77.0016 47.0114C77.0189 46.5866 77.2114 46.2253 77.3176 45.8262C77.329 45.3825 76.9757 45.009 76.5314 44.9937C76.0837 44.9828 75.7097 45.3321 75.6988 45.7797Z" fill="#7400BD"/><path fill-rule="evenodd" clip-rule="evenodd" d="M74.5358 36.701C74.2554 36.3863 74.235 35.9028 74.5122 35.5638C74.8162 35.1828 75.374 35.1233 75.7556 35.4311C76.0143 35.6894 76.2086 36.0055 76.2392 36.4017C76.2511 36.5492 76.3043 36.755 76.3268 36.9289C76.4382 36.9444 76.534 36.9616 76.5689 36.9579C76.7866 36.9425 77.0774 36.9506 77.3902 36.9446C77.8393 36.9319 78.3223 36.9431 78.7404 37.0433C79.2229 37.1603 79.5741 37.44 79.8366 37.8076C80.3697 38.581 80.4112 39.8494 80.0037 40.8759C79.8998 41.1494 79.7546 41.4039 79.5679 41.6C79.1889 42.0125 78.7653 42.3006 78.3026 42.3695C78.0784 42.3974 77.8511 42.4333 77.5978 42.4095C77.1867 42.375 76.7587 42.2914 76.3954 42.2636C75.1782 42.421 74.1192 42.2246 73.2126 41.7691C72.273 41.2976 71.5033 40.5103 70.9301 39.3612C70.7568 38.9489 70.9529 38.4737 71.3653 38.3005C71.7781 38.1311 72.2534 38.3271 72.4228 38.7398C72.7245 39.6202 73.1651 40.2976 73.815 40.6983C74.486 41.1123 75.3269 41.2458 76.2783 41.1678C76.5742 41.0775 76.937 41.027 77.2828 40.9274C77.4461 40.8786 77.5691 40.7833 77.6938 40.7034C77.7377 40.6752 77.7101 40.5998 77.7486 40.5566C77.8182 40.4747 77.82 40.3453 77.8832 40.2406C78.066 39.9352 78.2769 39.5993 78.3477 39.2354C78.3926 38.9956 78.4775 38.7633 78.4057 38.5673C78.3342 38.3752 78.1261 38.2604 77.8897 38.2112C77.4647 38.1194 76.996 38.1695 76.7013 38.197C76.567 38.2231 75.9593 38.4015 75.69 38.4107C75.4555 38.4161 75.295 38.308 75.1895 38.237C75.0501 38.1422 74.96 37.9951 74.8717 37.8283C74.73 37.5654 74.2768 36.9166 74.5358 36.701ZM74.6365 36.7999C74.6365 36.7999 74.6407 36.8033 74.645 36.8068L74.6365 36.7999Z" fill="#7400BD"/><path fill-rule="evenodd" clip-rule="evenodd" d="M77.7471 27.4468C77.8882 27.2281 78.1225 27.0738 78.3974 27.0445C78.8816 26.9928 79.3189 27.3456 79.3706 27.8297C79.3676 28.1316 79.2969 28.5699 78.8363 28.8423C78.4534 29.0712 77.7285 29.2895 77.4409 29.3476C76.9781 29.4518 76.526 29.5471 76.102 29.7216C75.918 29.7961 75.7395 29.8856 75.57 29.9859C74.7381 30.4859 74.0711 31.172 73.3933 31.9415C73.2516 32.0819 73.1825 32.2421 73.1187 32.3781C73.0675 32.4854 72.9069 32.5221 72.9266 32.6336C72.9506 32.7485 72.9519 32.8698 72.9961 32.9904C73.2345 32.8749 73.8291 33.0503 73.9934 33.0485L75.9653 32.6226L78.647 31.8743C79.0844 31.7884 79.5112 32.0797 79.5932 32.5174C79.6757 32.959 79.3878 33.3814 78.9461 33.4638L76.0952 33.8385L74.1063 34.1056C73.8915 34.1481 73.2894 34.3064 72.8948 34.3524C72.5965 34.3842 72.385 34.2737 72.2158 34.1938C71.3646 33.7794 71.0653 33.0672 70.9836 32.3396C70.945 32.0148 71.0303 31.6767 71.1874 31.3505C71.3537 30.9999 71.6484 30.6786 72.0363 30.3866C72.5233 30.0683 72.9947 29.7869 73.4969 29.5375C74.0844 29.2437 74.6815 29.039 75.2766 28.7797C75.8528 28.5263 76.4073 28.2164 77.0131 27.9834C77.1665 27.9161 77.5343 27.399 77.7471 27.4468ZM77.6097 27.9941C77.6105 28.0019 77.6113 28.0096 77.6121 28.0173L77.6097 27.9941Z" fill="#7400BD"/><path fill-rule="evenodd" clip-rule="evenodd" d="M72.9047 27.8414C73.1035 28.2353 73.3873 28.6553 73.6605 29.1588C73.7578 29.3364 73.883 29.5189 73.9252 29.7298C73.9945 30.1219 73.7869 30.379 73.888 30.7755C73.9167 30.8978 73.9946 31.003 74.0755 31.1001C74.4392 31.5352 74.9564 31.6836 75.2967 32.082C75.6237 32.4662 75.7522 32.899 76.0076 33.2359C76.3891 33.5438 76.9468 33.4843 77.2508 33.1033C77.5591 32.7257 77.4995 32.1681 77.118 31.8603C76.8338 31.73 76.4845 31.6498 76.25 31.3615C76.1648 31.261 76.1357 31.1348 76.091 31.0103C75.9831 30.6968 76.0184 30.4033 75.9208 30.0769C75.8903 29.9744 75.8671 29.8672 75.7956 29.7847C75.5546 29.5089 75.2391 29.5622 74.9804 29.3039C74.8969 29.2188 74.8349 29.1157 74.7881 29.0072C74.535 28.435 74.519 27.8453 74.457 27.3741C74.3293 26.9491 73.876 26.7037 73.4471 26.8318C73.0224 26.9633 72.7766 27.4125 72.9047 27.8414Z" fill="#7400BD"/><path fill-rule="evenodd" clip-rule="evenodd" d="M66.3546 24.6987C66.7633 24.894 67.2941 25.0214 67.7576 25.3636C67.8429 25.4289 67.9174 25.5031 67.9743 25.595C68.1425 25.8864 67.9813 26.1386 68.172 26.4198C68.219 26.4931 68.3087 26.5267 68.3843 26.5734C68.724 26.7839 69.1448 26.7625 69.3465 27.0738C69.4358 27.2131 69.3951 27.382 69.3966 27.5424C69.3957 27.6443 69.3292 27.718 69.3081 27.8142C69.3602 28.3021 69.7971 28.6511 70.2812 28.5994C70.7653 28.5477 71.1186 28.1145 71.0665 27.6266C70.8911 27.1949 70.6189 26.8832 70.3742 26.4629C70.2973 26.3301 70.2669 26.1923 70.2198 26.0446C70.1147 25.6838 70.0584 25.3765 69.8391 25.0475C69.7741 24.9526 69.6932 24.8554 69.5898 24.8038C69.2386 24.6337 68.9863 24.8016 68.6265 24.6599C68.4508 24.5925 68.3176 24.4461 68.1831 24.3234C67.8313 24.0006 67.5648 23.6688 67.3074 23.3869C66.9464 23.1238 66.4419 23.2051 66.1788 23.5661C65.9158 23.927 65.9936 24.4356 66.3546 24.6987Z" fill="#7400BD"/><path fill-rule="evenodd" clip-rule="evenodd" d="M69.2546 24.4591C69.2537 24.1577 70.051 23.9943 70.3252 23.9572C70.6885 23.6912 70.934 23.3126 71.3009 22.9327C71.3821 22.8496 71.4449 22.7411 71.5527 22.6865C71.8768 22.5305 72.1637 22.6487 72.5083 22.5375C72.6371 22.4963 72.7539 22.4526 72.863 22.3743C73.1624 22.1701 73.386 21.8798 73.6215 21.6276C73.8882 21.3367 74.1161 21.05 74.3512 20.7938C74.7021 20.5214 75.2102 20.5847 75.4866 20.9351C75.7595 21.2898 75.6963 21.7978 75.342 22.0745C75.038 22.2362 74.7105 22.3965 74.3775 22.6161C74.0695 22.8135 73.707 22.9775 73.4606 23.274C73.1761 23.6177 73.1719 23.9823 72.9251 24.3494C72.884 24.4047 72.8464 24.4557 72.7916 24.4929C72.7122 24.5562 72.6222 24.5933 72.5278 24.6268C72.0836 24.7956 71.6945 24.8567 71.273 24.9448C71.0853 24.9844 70.9159 25.0495 70.739 25.0801C70.6799 25.1138 70.6803 25.2274 70.6227 25.3118C70.5023 25.5049 70.3798 25.6785 70.263 25.8319C70.084 26.0625 69.8331 26.0971 69.634 26.1771C69.146 26.2292 68.7126 25.876 68.6609 25.3919C68.6158 24.9699 68.8729 24.59 69.2546 24.4591ZM69.4035 24.4237L69.4462 24.4191C69.4303 24.4169 69.4147 24.4186 69.4035 24.4237Z" fill="#7400BD"/><path fill-rule="evenodd" clip-rule="evenodd" d="M70.1339 16.8065C70.0903 16.3255 70.4401 15.8965 70.9204 15.8453C71.4045 15.7936 71.8418 16.1464 71.8935 16.6305C71.8523 17.0148 71.8071 17.3251 71.5932 17.5594C71.2954 17.8888 70.8437 18.0976 70.5078 18.2901C70.3981 18.3997 70.2751 18.4951 70.174 18.6116C69.7547 19.0872 69.5152 19.6689 69.0345 20.1197C68.9563 20.1946 68.8683 20.251 68.7718 20.3004C68.3244 20.5127 67.8893 20.4729 67.4688 20.7175C67.2731 20.8285 67.1329 21.0197 66.9688 21.1704L65.6224 22.7945C65.2984 23.0993 64.7836 23.0837 64.4783 22.756C64.173 22.4283 64.1928 21.9171 64.5206 21.6119L66.2315 20.3561C66.4072 20.2042 66.6138 20.0843 66.7625 19.9C67.073 19.5066 67.1205 19.0706 67.4259 18.666C67.4908 18.5768 67.5686 18.4981 67.6596 18.4335C68.1993 18.0587 68.8222 17.9491 69.3639 17.6289C69.5005 17.5516 69.6158 17.4571 69.7396 17.3695C69.8892 17.193 70.1291 17.0185 70.2613 16.789C70.2713 16.7723 70.2261 16.7536 70.2261 16.7536C70.2261 16.7536 70.1383 16.7747 70.1339 16.8065L70.1351 16.8181C70.1347 16.8143 70.1343 16.8104 70.1339 16.8065Z" fill="#7400BD"/><path fill-rule="evenodd" clip-rule="evenodd" d="M60.0713 16.2113C60.053 16.1506 60.0421 16.0852 60.0277 16.0241C59.8228 14.9494 59.9857 13.6865 60.5492 13.0585C61.0519 12.2999 62.0068 11.8142 63.0398 11.5473C64.0733 11.2843 65.1695 11.3514 66.0054 11.6225C66.4 11.7958 66.748 12.0093 66.9803 12.3134C67.485 12.9684 67.6586 13.8233 67.4901 14.7029C67.3792 15.2786 67.1519 15.8277 66.8644 16.3636C66.4109 17.2149 65.8184 17.9752 65.0351 18.2703C64.3715 18.5487 63.6449 18.5675 62.9179 18.4727C61.9291 18.3472 60.9404 17.9671 60.1253 17.6703C59.7144 17.4909 59.5263 17.0136 59.7057 16.6028C59.7813 16.4303 59.9118 16.2949 60.0713 16.2113ZM62.5589 17.0189C62.7504 17.0886 62.9489 17.1496 63.1496 17.1948C63.6519 17.3135 64.1615 17.3531 64.6426 17.2C65.2272 16.9887 65.7403 16.4013 65.9329 15.7111C66.1002 15.1136 65.9209 14.4983 65.6541 14.0176C65.5956 13.9103 65.4766 13.8603 65.3854 13.7761C65.3156 13.7091 65.2385 13.6468 65.1358 13.603C64.6522 13.3295 63.9681 13.1597 63.2904 13.1968C62.593 13.232 61.9003 13.3843 61.4834 13.8087C61.2307 14.1568 61.2298 14.7718 61.3479 15.327C61.447 15.7786 61.6457 16.2078 61.9889 16.3043C62.3072 16.4231 62.5172 16.7022 62.5589 17.0189Z" fill="#7400BD"/><path fill-rule="evenodd" clip-rule="evenodd" d="M55.3604 10.4558C55.29 11.227 55.2457 12.0228 55.082 12.6904C54.9612 13.1733 54.7772 13.5767 54.5581 13.9095C54.2541 14.2905 53.6963 14.35 53.3148 14.0422C52.9375 13.7378 52.878 13.1802 53.182 12.7992C53.5881 12.3838 53.8679 11.6294 54.0451 10.8311C54.1376 10.414 54.2135 9.9868 54.2449 9.58398C54.2857 9.08616 54.2566 8.63105 54.272 8.26128C54.2752 7.99853 54.1989 7.6503 54.2127 7.33943C54.2289 7.0518 54.3521 6.81152 54.4929 6.58893C54.6298 6.36675 54.8305 6.30225 54.9843 6.23884C55.3209 6.08934 55.6752 6.21603 56.0348 6.53797C56.3339 6.80761 56.6206 7.76783 56.6429 7.86726C56.7018 8.19779 56.8545 8.49088 56.9555 8.813C57.0285 9.05586 57.0743 9.30164 57.1287 9.55431C57.2367 10.0519 57.3276 10.5357 57.3732 11.036C57.5615 10.5616 57.7463 10.0915 57.9182 9.61104C58.0776 9.15931 58.2164 8.69802 58.3535 8.22126C58.5002 7.79829 58.9623 7.57667 59.3858 7.72729C59.805 7.87446 60.0267 8.33643 59.8799 8.7594L58.1817 12.1873L57.9071 12.7336C57.9156 12.8501 57.7764 13.4172 57.6578 13.5904C57.3726 14.0008 57.013 13.8982 56.8236 13.7382C56.6945 13.6306 56.586 13.4581 56.5031 13.232C56.3594 12.84 56.2885 12.2131 56.2212 11.9501C55.9981 11.4021 55.6603 10.9525 55.3604 10.4558ZM55.7119 7.80604C55.7555 7.77397 55.8021 7.73374 55.8518 7.68536C55.8695 7.6678 55.8917 7.61847 55.8668 7.60546C55.756 7.55853 55.7194 7.65641 55.7119 7.80604Z" fill="#7400BD"/><path fill-rule="evenodd" clip-rule="evenodd" d="M43.6271 6.25861C43.7637 6.18136 43.909 6.11105 44.0504 6.04113C44.9185 5.62342 45.8373 5.31387 46.5847 5.26935C46.8317 5.23516 47.5322 5.08208 47.9608 5.13425C48.2902 5.17351 48.5161 5.34521 48.6667 5.54455C48.8724 5.82024 48.8856 6.1635 48.8191 6.53091C48.7386 6.95072 48.4285 7.42241 48.3143 7.67349C48.0768 8.20014 47.723 8.66481 47.321 9.11893C47.0695 9.40426 46.805 9.67923 46.5325 9.95113L46.6686 10.199C47.0699 10.912 47.2306 11.4627 47.1739 11.8487C47.1003 12.3696 46.6924 12.8048 45.5707 12.9754C45.3722 13.024 44.8591 13.208 44.5062 13.2417C44.2153 13.2689 43.9982 13.1432 43.8309 13.0436C43.5301 12.8681 43.2171 12.2122 43.059 11.5751C42.9187 10.9947 43.1132 10.4688 43.2787 10.1848C43.496 9.87179 43.7373 9.56407 44.0292 9.2901C44.1575 9.17067 44.2939 9.05428 44.4389 8.94481L44.3546 8.85198C44.1371 8.61279 43.9096 8.39035 43.6654 8.15793C43.4887 8.33736 43.3318 8.51859 43.2098 8.69611C42.9019 9.07752 42.3442 9.13704 41.9665 8.82879C41.5854 8.52482 41.5259 7.96718 41.8337 7.58576C41.9604 7.45084 42.1063 7.31388 42.2678 7.17524C42.0256 7.07184 41.7469 6.95666 41.382 6.8037C40.9772 6.608 40.808 6.12476 41.0003 5.72435C41.196 5.31965 41.6794 5.15056 42.0799 5.3428C42.8197 5.74164 43.2433 5.96667 43.6271 6.25861ZM45.6982 10.7216C45.4365 10.9493 45.1651 11.1584 44.9361 11.3983L44.9183 11.4158L44.9153 11.4239L44.926 11.5246C44.9306 11.5672 44.9351 11.6098 44.9397 11.6524L44.9426 11.6795C45.142 11.7131 45.3576 11.7879 45.4441 11.7905C45.7909 11.773 46.0201 11.7917 46.1247 11.6708C46.1601 11.6357 46.1156 11.5857 46.1008 11.5207C46.0389 11.308 45.898 11.0528 45.7169 10.7509L45.6982 10.7216ZM44.9361 11.3983C44.9845 11.3383 45.0239 11.2675 44.9664 11.2423C44.9007 11.214 44.8982 11.3004 44.9149 11.4201L44.8691 11.468L44.9153 11.4239L44.9149 11.4201L44.9361 11.3983ZM47.2129 6.52998C47.0065 6.505 46.7973 6.45294 46.7121 6.46204C46.1147 6.55321 45.4005 6.87222 44.7441 7.29084L44.7035 7.31473L45.4201 8.22911C45.9914 7.81958 46.5612 7.4337 46.9343 6.89259C46.9949 6.79996 47.103 6.67486 47.2129 6.52998Z" fill="#7400BD"/><path fill-rule="evenodd" clip-rule="evenodd" d="M33.8309 12.2558C33.7119 12.0218 33.5614 11.7127 33.414 11.3603C33.2765 11.0265 33.1076 10.692 33.0023 10.3664C32.9361 10.1503 32.9077 9.95751 32.8491 9.77578C32.8317 9.42909 32.8956 9.14808 32.7346 8.77755C32.6788 8.65818 32.5678 8.57214 32.4714 8.47668C32.1492 8.17426 31.7605 8.01991 31.4742 7.68625C31.4074 7.61113 31.3518 7.53093 31.3148 7.44089C31.1777 7.11088 31.2402 6.77916 31.2781 6.47357C31.2264 5.98954 30.7891 5.63673 30.305 5.6884C29.817 5.74048 29.468 6.1772 29.5197 6.66122C29.6764 7.13796 30.0054 7.54144 30.2884 8.06345C30.3669 8.21172 30.4041 8.37617 30.4537 8.54711C30.5707 8.94584 30.6061 9.31411 30.768 9.69239C30.8203 9.81604 30.8727 9.9397 30.9644 10.0278C31.2176 10.271 31.48 10.2704 31.74 10.4307C31.8043 10.4826 31.8893 10.5087 31.941 10.5894C32.0072 10.6959 32.0411 10.8293 32.0753 10.9667C32.2276 11.5849 32.2168 12.291 32.2829 12.7265C32.411 13.1553 32.8638 13.3968 33.2923 13.2649C33.7213 13.1369 33.9628 12.6842 33.8309 12.2558Z" fill="#7400BD"/><path fill-rule="evenodd" clip-rule="evenodd" d="M30.3885 14.5411C30.119 14.1821 29.8481 13.8468 29.6045 13.4734C29.3575 13.1042 29.0958 12.7444 28.9194 12.3402C28.8824 12.2502 28.8609 12.1585 28.8428 12.0625C28.7681 11.6201 28.8862 11.2589 28.7585 10.8339C28.7267 10.7198 28.6532 10.618 28.5844 10.5236C28.1876 9.9628 27.72 9.54666 27.2606 9.05916C27.1189 8.68656 27.0146 8.22378 26.8381 7.8549C26.6863 7.53429 26.4282 7.3543 26.1417 7.16556C25.6847 6.99501 25.1766 7.22549 25.0064 7.68619C24.832 8.14344 25.0664 8.65106 25.5234 8.8216C25.4997 8.82021 25.512 8.7523 25.512 8.7523C25.512 8.7523 25.5457 8.73696 25.5586 8.74733C25.6263 8.79493 25.7049 8.83353 25.7596 8.90601C25.9302 9.14628 26.0546 9.43066 26.215 9.64853C26.3878 10.2763 26.4605 10.8834 26.6845 11.5135C26.7236 11.6229 26.7631 11.7362 26.8358 11.8302C27.0797 12.1332 27.3886 12.2373 27.6718 12.5047C27.781 12.6106 27.8851 12.7052 27.9689 12.8294C28.2086 13.2033 28.3371 13.636 28.5027 14.0492C28.6733 14.4735 28.8083 14.8938 28.9674 15.3194C29.1812 15.7078 29.6748 15.8548 30.0667 15.6367C30.4591 15.4225 30.6027 14.9334 30.3885 14.5411Z" fill="#7400BD"/><path fill-rule="evenodd" clip-rule="evenodd" d="M28.787 11.6147C28.9402 11.3986 29.0876 11.1283 29.3601 10.8917C29.4645 10.8061 29.5704 10.6969 29.7081 10.6665C30.041 10.5919 30.1547 10.8499 30.4945 10.7667C30.5788 10.7498 30.6467 10.6878 30.7028 10.627C31.0019 10.3092 30.979 9.91212 31.2765 9.65322C31.5736 9.39046 31.9062 9.35106 32.1745 9.18536C32.4828 8.80782 32.4232 8.25024 32.0417 7.9424C31.6645 7.63802 31.1067 7.69754 30.7984 8.07508C30.7765 8.16357 30.7968 8.24362 30.756 8.33805C30.6952 8.46594 30.6692 8.62538 30.5338 8.71425C30.2413 8.90995 29.912 8.76105 29.5344 8.85619C29.4848 8.8693 29.4267 8.8755 29.3874 8.91102C29.3512 8.93839 29.3467 8.97019 29.3276 9.01139C29.1813 9.32856 29.2915 9.51654 29.0723 9.77491C28.982 9.88246 28.8334 9.92178 28.7097 9.97414C28.3322 10.1437 28.0031 10.2532 27.728 10.3922C27.3909 10.6828 27.3517 11.1961 27.6462 11.5328C27.9368 11.8699 28.4503 11.9091 28.787 11.6147Z" fill="#7400BD"/><path fill-rule="evenodd" clip-rule="evenodd" d="M27.163 14.8355C26.9113 14.7527 26.6276 14.7008 26.3393 14.5318C26.2303 14.4651 26.0981 14.4009 26.0311 14.2866C25.85 13.9848 26.0632 13.8171 25.8674 13.5247C25.8204 13.4514 25.7376 13.4093 25.6603 13.3823C25.3472 13.2748 25.1443 13.3199 24.8416 13.3092C24.716 13.3069 24.6106 13.3103 24.5002 13.2672C24.091 13.1033 23.8324 12.9195 23.4573 12.8185C22.9731 12.8702 22.6203 13.3073 22.672 13.7914C22.7241 14.2793 23.1609 14.6282 23.6451 14.5765C23.7007 14.5471 23.683 14.455 23.7481 14.4402C23.8471 14.414 23.9473 14.3249 24.0503 14.3727C24.3105 14.4977 24.2453 14.8414 24.4455 15.102C24.4827 15.1568 24.5169 15.2198 24.5779 15.2407C24.8832 15.3491 24.9729 15.0888 25.2892 15.153C25.3692 15.1679 25.4396 15.2035 25.5 15.2558C25.8566 15.5507 26.0344 15.9312 26.2819 16.1946C26.6603 16.4362 27.1619 16.3278 27.4039 15.9534C27.646 15.579 27.5375 15.0776 27.163 14.8355Z" fill="#7400BD"/><path fill-rule="evenodd" clip-rule="evenodd" d="M22.3822 14.0907C22.2372 13.7968 22.0759 13.4968 21.8534 13.2111C21.749 13.0774 21.6161 12.9701 21.4875 12.8664C21.1386 12.5707 20.8102 12.3199 20.5253 12.037C20.2621 11.6264 20.3836 11.077 20.7942 10.8138C21.2049 10.5507 21.7506 10.6726 22.0139 11.0831C22.1248 11.3885 22.2258 11.7106 22.431 12.0177C22.5191 12.1454 22.6071 12.273 22.7237 12.3742C23.184 12.7598 23.7158 12.9341 24.1664 13.1915C24.4854 13.4276 24.7096 13.9128 24.564 14.4571C24.5069 14.6551 24.405 14.8383 24.2538 14.9993C24.1622 15.0953 24.0874 15.2755 24.0176 15.2086C23.9953 15.1835 23.9445 15.185 23.9545 15.1683C23.8917 15.2769 23.808 15.3367 23.7747 15.4656C23.7327 15.6228 23.7394 15.7944 23.7537 15.9652C23.8233 16.6901 24.1157 17.4108 24.236 18.0599C24.2599 18.5038 23.9172 18.8889 23.4731 18.9128C23.0252 18.9371 22.6443 18.5979 22.6161 18.1505C22.6512 17.7825 22.6834 17.3875 22.6822 16.9725C22.6836 16.5454 22.6884 16.1141 22.6717 15.7008C22.6656 15.6074 22.6604 15.5218 22.6392 15.434C22.5943 15.2704 22.551 15.1575 22.5034 15.0059C22.4792 14.9263 22.5348 14.7128 22.5606 14.5142C22.4899 14.4395 22.4266 14.3601 22.4262 14.2466C22.4255 14.2036 22.3486 14.106 22.3822 14.0907ZM22.5695 14.4506C22.5841 14.2572 22.5624 14.091 22.3938 14.0895C22.3899 14.0899 22.386 14.0903 22.3822 14.0907L22.4957 14.3097L22.5695 14.4506L22.5655 14.4863L22.5606 14.5142C22.6008 14.5608 22.6454 14.6109 22.6821 14.6618C22.6433 14.5916 22.6045 14.5213 22.5695 14.4506Z" fill="#7400BD"/><path fill-rule="evenodd" clip-rule="evenodd" d="M21.6173 18.7933C21.3023 18.6311 20.9944 18.4995 20.6863 18.3288C20.3906 18.1645 20.0707 18.0302 19.8377 17.7927C19.7632 17.7184 19.727 17.6361 19.6814 17.5391C19.5513 17.2749 19.5632 17.0935 19.437 16.8289C19.4119 16.7768 19.3953 16.7315 19.352 16.6931C19.2989 16.6361 19.2255 16.6087 19.1589 16.5727C18.7151 16.342 18.2201 16.3282 17.8762 15.9694C17.6116 15.6921 17.5776 15.3002 17.4483 14.9341C17.1847 14.5197 16.6393 14.4016 16.2248 14.6652C15.8142 14.9283 15.6966 15.4775 15.9598 15.888C16.2957 16.2086 16.6927 16.4051 16.9854 16.7616C17.3415 17.1975 17.4028 17.7353 17.767 18.1742C17.8479 18.2713 17.9409 18.3711 18.0563 18.4254C18.4238 18.6016 18.7286 18.4476 19.106 18.6071C19.2992 18.6922 19.4534 18.852 19.6136 18.9955C19.986 19.3278 20.289 19.7066 20.6298 20.0737C20.9844 20.3491 21.4944 20.283 21.766 19.9289C22.0377 19.5749 21.9714 19.0649 21.6173 18.7933Z" fill="#7400BD"/><path fill-rule="evenodd" clip-rule="evenodd" d="M16.2473 15.0971C16.3167 15.3795 15.7371 15.7116 15.6521 15.9791C15.6057 16.1681 15.5451 16.3704 15.5299 16.5953C15.5076 16.8992 15.5608 17.2147 15.6084 17.5503C15.7061 18.2449 16.0225 18.8965 16.2694 19.5203C16.3439 19.7042 16.3757 19.8927 16.4447 20.0616C16.5149 20.2421 16.496 20.4321 16.6021 20.5813C16.7205 20.7371 16.7985 20.9168 16.9871 20.9593C17.3163 21.0338 17.7009 20.9301 18.0693 20.7851C19.1831 20.3568 20.2354 19.3907 20.7971 19.0018C21.1805 18.7768 21.6802 18.9076 21.9057 19.2947C22.1307 19.678 21.9996 20.1737 21.6123 20.3991C20.8498 20.7781 19.2065 21.7133 17.825 21.9821C17.4681 22.0515 17.1291 22.0681 16.8047 22.0753C16.375 22.086 16.0162 21.9911 15.6127 21.807C15.1812 21.6181 14.8431 21.3134 14.5411 20.907C14.3761 20.6818 14.2645 20.4078 14.187 20.1224C13.9293 19.1395 14.0829 18.0108 14.2583 17.013C14.287 16.8415 14.3204 16.6774 14.3379 16.511C14.3713 16.2372 14.3793 15.9818 14.413 15.7472C14.4438 15.2661 14.6164 14.5349 14.9274 14.0356C15.1721 13.6492 15.5476 13.4603 15.9674 13.3567C16.4515 13.3051 16.8883 13.654 16.9405 14.1419C16.9889 14.595 16.6839 15.0035 16.2473 15.0971Z" fill="#7400BD"/><path fill-rule="evenodd" clip-rule="evenodd" d="M13.0161 20.5527C12.994 20.4924 12.9276 20.4212 12.9276 20.4212C12.9276 20.4212 12.8943 20.4756 12.9092 20.5054C12.9771 20.6274 13.0367 20.7816 13.1716 20.9082C13.2933 21.0206 13.4421 21.13 13.607 21.2064C14.1213 21.4374 14.7304 21.345 15.1672 21.5842C15.2462 21.6267 15.2928 21.6962 15.3424 21.7575C15.5559 22.0323 15.6473 22.191 15.7236 22.3552C15.8693 22.5824 15.8984 22.7085 16.0093 22.8299C16.0714 22.8977 16.1681 22.9226 16.3149 22.9774L17.9487 23.1634C18.3797 23.274 18.6424 23.716 18.5317 24.1468C18.4215 24.5816 17.9794 24.8441 17.5485 24.7335L15.911 23.9996C15.5 23.8555 15.4034 23.6856 15.1558 23.5672C15.0772 23.5286 15.0014 23.5523 14.8699 23.5311C14.7434 23.5211 14.6245 23.5808 14.3945 23.5544C14.2913 23.5419 14.1863 23.5492 14.0781 23.4903C13.6241 23.2372 13.3529 22.6786 12.9254 22.27C12.8427 22.1926 12.76 22.1153 12.6677 22.0586C12.2151 21.7818 11.827 21.5961 11.5857 21.3908C11.362 21.2032 11.3368 20.9669 11.2619 20.7791C11.2097 20.2912 11.563 19.858 12.0472 19.8063C12.5197 19.7559 12.9467 20.0863 13.0161 20.5527C13.0212 20.5639 13.0229 20.5794 13.0202 20.5915L13.0161 20.5527Z" fill="#7400BD"/><path fill-rule="evenodd" clip-rule="evenodd" d="M13.9731 23.4119C13.9279 23.4285 13.8896 23.4365 13.8706 23.4424C13.4676 23.5207 13.0791 23.5504 12.7053 23.6451C11.8131 23.8735 11.0017 24.199 10.0295 24.4124C9.54531 24.4641 9.10804 24.1113 9.05633 23.6272C9.00421 23.1393 9.3575 22.7061 9.84165 22.6544C10.6297 22.6604 11.3325 22.6754 12.0488 22.5598C12.2412 22.5275 12.4328 22.4875 12.6223 22.4282C12.8985 22.336 13.158 22.1986 13.4381 22.0708C13.6166 21.9813 14.3593 21.5261 14.7133 21.4296C15.0936 21.3224 15.3542 21.5256 15.5375 21.6275C15.6713 21.7072 15.7789 21.9072 15.9059 22.1796C16.0039 22.4002 16.0639 22.9616 16.0906 23.0645C16.1165 23.2341 16.166 23.4403 16.1594 23.6721C16.1453 24.0535 15.9638 24.4449 15.985 24.8265C15.9959 25.0016 15.8966 25.1727 16.0085 25.2665C16.2738 25.4027 16.6849 25.2178 17.0493 24.9988C17.3836 24.7908 17.6906 24.5113 17.7622 24.2647L17.7584 24.2651C17.4437 24.3261 17.3251 23.4733 17.2304 23.2836C17.0683 22.8662 17.2768 22.3975 17.6943 22.2354C18.108 22.0738 18.5802 22.278 18.7424 22.6954C18.8055 22.9197 19.0449 23.4738 19.112 23.8818C19.1484 24.1129 19.1622 24.3151 19.1198 24.4684C18.9817 24.9727 18.3678 25.6061 17.6026 25.9972C16.8521 26.3788 16.0104 26.5313 15.4911 26.2538C14.9681 26.1256 14.6825 25.6156 14.3835 25.017C14.2087 24.6636 14.0636 24.2952 13.9951 23.9109C13.964 23.7302 13.9729 23.5569 13.9731 23.4119ZM14.5021 23.2301C14.6673 23.3457 14.8944 23.4546 14.9094 23.265C14.9155 23.139 14.7222 23.1636 14.5021 23.2301ZM14.1094 22.8178C14.1236 22.7301 14.1049 22.6655 14.0348 22.6691C13.9642 22.6688 14.0929 22.7725 14.1094 22.8178Z" fill="#7400BD"/><path fill-rule="evenodd" clip-rule="evenodd" d="M13.6319 29.7137C13.5219 29.8938 13.387 30.0609 13.2039 30.2176C12.8735 30.5348 12.4199 30.689 11.891 30.7611C11.3547 30.8379 10.7387 30.8293 10.109 30.7281C9.37992 30.614 8.68107 30.3791 8.14199 30.0998C7.73595 29.8925 7.45537 29.613 7.25848 29.3834C7.08193 29.1242 6.91369 28.8327 6.86691 28.5048C6.80813 28.0646 6.83031 27.6118 7.01054 27.2088C7.33625 26.4808 7.81905 25.8301 8.64966 25.8315C9.33246 25.696 9.92888 25.742 10.5077 25.88C11.0663 26.0122 11.6113 26.2361 12.1673 26.5644C12.3214 26.6498 12.4689 26.7477 12.6134 26.8536C12.7456 26.7338 12.9172 26.6528 13.1069 26.6326C13.595 26.5805 14.0279 26.9299 14.08 27.4178C14.0816 27.6526 14.0793 27.8878 14.0688 28.12L14.3208 28.3516C14.6261 28.6794 14.614 29.1898 14.2867 29.4989C14.1053 29.671 13.8624 29.7439 13.6319 29.7137ZM12.5051 28.6629C12.3921 28.5222 12.2796 28.3854 12.1597 28.2533C11.9504 28.0171 11.7307 27.7938 11.4876 27.6083C11.0716 27.308 10.6804 27.0561 10.2408 26.9385C9.82575 26.83 9.38904 26.8492 8.90032 26.9679C8.72836 27.045 8.76276 27.2568 8.73448 27.4321C8.71591 27.5516 8.81313 27.6548 8.83411 27.7779C8.85592 27.9087 8.938 28.0174 9.02235 28.1103C9.26135 28.5508 10.1011 29.1506 10.9478 29.4127C11.2356 29.5034 11.5106 29.5837 11.7674 29.568C11.9813 29.553 12.1679 29.4665 12.2906 29.332C12.4286 29.1567 12.4707 28.9642 12.4977 28.7772C12.5013 28.7377 12.5053 28.7021 12.5051 28.6629Z" fill="#7400BD"/><path fill-rule="evenodd" clip-rule="evenodd" d="M11.4306 35.9015C10.7777 36.0966 10.2116 36.298 9.6529 36.2753C9.52302 36.2696 9.39925 36.2475 9.28031 36.1976C8.93123 36.0468 8.8565 35.7141 8.51558 35.5664C8.40909 35.523 8.29248 35.5315 8.17463 35.5284C7.81292 35.5161 7.50232 35.6158 7.12346 35.5896C6.96993 35.5825 6.8215 35.5866 6.67462 35.5318C6.28681 35.3852 5.9883 35.0842 5.60094 34.8318C5.14398 34.6612 4.63583 34.8917 4.46567 35.3524C4.2951 35.8092 4.52566 36.3173 4.98263 36.4879C5.45982 36.5544 5.90134 36.5073 6.30201 36.6643C6.87874 36.8925 7.19589 37.3678 7.72062 37.586C7.85201 37.6424 7.9942 37.6899 8.13875 37.6862C8.57586 37.6709 8.80974 37.4032 9.25309 37.3363C9.48811 37.2994 9.72876 37.3521 9.97428 37.3768C10.5002 37.4225 11.041 37.4979 11.6682 37.5015C12.1119 37.4385 12.4165 37.0261 12.3496 36.5828C12.2826 36.1396 11.8701 35.8351 11.4306 35.9015Z" fill="#7400BD"/><path fill-rule="evenodd" clip-rule="evenodd" d="M11.0096 36.4052C11.1315 36.776 11.4128 37.3922 11.5487 38.0043C11.6213 38.3177 11.6811 38.6207 11.6032 38.8445C11.5532 38.9634 11.4645 39.0864 11.3368 39.1745C11.2342 39.2402 11.1114 39.2651 10.9857 39.2981C10.6193 39.3881 10.273 39.1901 9.89191 39.1798C9.73105 39.1774 9.58841 39.2357 9.44955 39.2192C9.39021 39.2138 9.34083 39.3013 9.29492 39.2749C9.0258 39.1391 8.7785 39.0245 8.63196 38.7895C8.51873 38.6096 8.41507 38.4092 8.37641 38.194C8.26596 37.5635 8.4305 36.9037 8.45381 36.2785C8.4021 35.7945 7.96484 35.4417 7.48071 35.4933C6.99658 35.545 6.64376 35.9821 6.69546 36.4662C6.8267 36.9613 6.94795 37.4731 7.08126 37.9876C7.14218 38.2279 7.21777 38.4587 7.26624 38.6924C7.35062 39.079 7.42823 39.4388 7.56905 39.8037C7.70187 40.1302 7.9033 40.4025 8.14636 40.6977C8.46396 41.0672 8.95851 41.2964 9.53598 41.3483C9.80901 41.374 10.1038 41.3465 10.3744 41.2393C10.9612 41.0122 11.3759 40.6037 11.7992 40.2021C12.1369 39.8802 12.4723 39.6094 12.604 39.2663C12.7533 38.9763 12.7941 38.5881 12.7997 38.1645C12.8106 37.4232 12.6466 36.5477 12.5957 36.0715C12.5059 35.6346 12.0765 35.3553 11.6396 35.445C11.1991 35.5391 10.9199 35.9683 11.0096 36.4052Z" fill="#7400BD"/><path fill-rule="evenodd" clip-rule="evenodd" d="M11.8768 42.7221C12.1068 42.8581 12.2696 43.0992 12.2998 43.3818C12.2999 44.4823 11.9293 45.2308 11.3003 45.76C10.8652 46.1237 10.3226 46.3618 9.74616 46.576C9.23348 46.7639 8.71301 46.9526 8.19287 47.0708C7.70414 47.1895 6.84666 47.3398 6.17792 47.2036C5.64928 47.0955 5.28299 46.7469 5.00442 46.3027C4.8156 45.8921 4.66881 45.5082 4.66091 45.1409C4.64274 44.0541 5.17984 43.2879 5.98328 42.7048C6.37939 42.4158 6.81629 42.142 7.30754 41.9368C8.42576 41.4768 9.74875 41.3199 10.7832 41.6521C10.949 41.701 11.1192 41.8277 11.2974 41.9928C11.5018 42.1824 11.71 42.4814 11.8768 42.7221ZM10.2228 42.9338C9.35105 42.5843 8.11539 42.6417 7.25375 43.1567C7.11014 43.2425 6.98025 43.3464 6.87176 43.4676C6.76327 43.5889 6.71231 43.7354 6.64891 43.8753C6.49568 44.201 6.65563 44.5247 6.78427 44.9222C6.82628 45.0587 6.86561 45.2072 6.93679 45.3602C6.91897 45.3034 6.8363 45.226 6.8017 45.2689C6.55815 45.5925 7.70996 45.5205 8.02823 45.5296C8.46741 45.5337 8.93191 45.5546 9.36518 45.43C9.63521 45.3542 9.88312 45.2181 10.0972 45.0582C10.4886 44.7618 10.6592 44.305 10.5628 43.6965C10.3484 43.4491 10.0573 43.1081 10.2189 42.9342L10.2228 42.9338Z" fill="#7400BD"/><path d="M5.8638 51.5718C5.76975 51.5349 5.67879 51.4897 5.59512 51.4399C5.15451 51.1658 4.86718 50.75 4.88109 50.1102C4.88251 49.1701 5.42674 48.5441 6.22266 48.1107C7.27206 47.5386 8.87401 47.3712 10.0028 47.2532C10.3155 47.2205 10.5918 47.1916 10.8101 47.159C11.2555 47.1115 11.6542 47.4331 11.7018 47.8784C11.7489 48.3198 11.4276 48.7223 10.9822 48.7698C10.7623 48.7825 10.4791 48.7817 10.1579 48.7807C9.30756 48.7783 8.19063 48.775 7.27571 49.0204C6.60174 49.202 6.01681 49.4838 5.9744 50.1502C5.95823 50.5122 6.27342 50.6391 6.61133 50.6853C6.75062 50.7057 6.89598 50.7097 7.04399 50.7018C7.20309 50.6143 7.36734 50.538 7.53971 50.4648C7.81681 50.3452 8.11145 50.2432 8.41066 50.1839C8.85194 50.0976 9.29417 50.0935 9.72906 50.0941L9.76049 50.0947C10.2773 50.1294 10.5612 50.9083 10.5612 50.9083C10.6669 51.6871 10.4721 51.6871 9.96443 52.0036L9.93424 52.0147C9.71754 52.0602 9.50648 52.1289 9.29265 52.1984C9.17001 52.2383 9.04645 52.2785 8.9204 52.3148C8.84141 52.3359 8.76207 52.3562 8.68274 52.3764C8.44458 52.437 8.20641 52.4977 7.97759 52.5838C7.59757 52.7301 7.21796 52.8803 6.9101 53.1521C6.77367 53.2685 6.62161 53.4217 6.57479 53.6069C6.5685 53.6313 6.55475 53.6542 6.54148 53.6764C6.51971 53.7127 6.49925 53.7469 6.51514 53.7817C6.54417 53.8334 6.58523 53.8878 6.67417 53.9135C7.0833 54.003 7.58924 54.0822 8.09136 54.0521C8.58962 54.0224 9.07327 53.8925 9.46062 53.7415C9.85187 53.5746 10.2061 53.2831 10.5612 52.991C10.7842 52.8076 11.0075 52.6239 11.2404 52.4706C11.5915 52.2373 11.9665 52.0798 12.3609 51.9946C12.499 51.9648 12.5095 51.9714 12.6522 51.9714C13.0587 51.9714 13.3926 52.3388 13.4373 52.757C13.489 53.241 13.1361 53.6782 12.652 53.7298C12.4412 53.7367 12.2353 53.79 12.0336 53.882C11.7638 54.0112 11.4984 54.1706 11.233 54.33C10.7945 54.5932 10.3562 54.8563 9.8988 54.9832C9.49264 55.1049 9.00545 55.1647 8.50968 55.2176C7.78885 55.2906 7.04068 55.3274 6.44052 55.2465C5.61101 55.1823 5.23285 54.6861 5.03938 54.1584C4.77569 53.4503 5.09556 52.4841 5.59027 51.8713C5.67717 51.768 5.76832 51.6682 5.8638 51.5718Z" fill="#7400BD"/><path fill-rule="evenodd" clip-rule="evenodd" d="M13.1484 54.2877C12.8077 54.3985 12.216 54.5791 11.5321 54.7775C10.9928 54.9368 10.4186 55.1352 9.8535 55.3091C9.70188 55.3566 9.55371 55.3998 9.39961 55.4241C8.95282 55.4953 8.58834 55.5303 8.20073 55.6421C7.90014 55.7251 7.65614 55.8608 7.44887 56.0474C7.17686 56.2879 7.03565 56.6163 6.94481 56.9393C6.90766 57.1783 6.84161 57.4399 6.90181 57.7468C7.02707 58.3326 7.3928 59.0064 7.81057 59.6902C8.00536 60.0102 8.16958 60.3373 8.36064 60.6224C8.8394 61.3272 9.47459 61.6628 10.0969 61.6943C10.5849 61.6422 10.9339 61.2054 10.8822 60.7214C10.8305 60.2374 10.3971 59.8842 9.90908 59.9363C9.88625 59.9426 9.9045 60.0033 9.88043 59.998C9.67933 59.949 9.44958 59.8522 9.26416 59.6565C9.12755 59.5145 8.98891 59.353 8.90197 59.1626C8.68165 58.677 8.73219 58.1232 8.80355 57.7279C8.81104 57.6879 8.87424 57.6929 8.89071 57.6638C8.91673 57.614 8.9942 57.6057 9.03225 57.5586C9.07722 57.5029 9.08401 57.4199 9.13244 57.3599C9.37599 57.0363 9.55706 56.641 9.9826 56.4075C10.2788 56.2467 10.633 56.1893 10.9744 56.1216C11.9952 55.9225 12.9944 55.9256 13.4858 55.8692C13.9228 55.7795 14.2017 55.3463 14.1119 54.9094C14.0183 54.473 13.585 54.1942 13.1484 54.2877Z" fill="#7400BD"/><path fill-rule="evenodd" clip-rule="evenodd" d="M13.6601 54.7111C13.9069 54.9315 14.1608 55.108 14.4429 55.3286C14.5415 55.4081 14.6664 55.477 14.7179 55.5929C14.8568 55.9032 14.6894 56.0229 14.7374 56.3624C14.7459 56.4046 14.7414 56.4364 14.7645 56.4692C14.7923 56.5093 14.8409 56.5237 14.8864 56.5463C15.2014 56.7085 15.5383 56.5981 15.7505 56.8613C15.9033 57.0447 15.7952 57.2795 15.8075 57.5054C16.0074 57.9462 16.5339 58.1446 16.9783 57.9405C17.4226 57.7364 17.6175 57.2143 17.4134 56.77C17.1816 56.5441 16.9193 56.435 16.7174 56.1589C16.649 56.0683 16.6425 55.9711 16.6193 55.8639C16.5539 55.5811 16.5917 55.3851 16.4577 55.1214C16.4228 55.0507 16.3762 54.9813 16.3058 54.9457C15.9997 54.7943 15.8615 55.0401 15.5558 54.8926C15.4442 54.8379 15.3764 54.7159 15.3106 54.6133C15.1469 54.3644 15.1028 54.0989 15.0239 53.8371C14.7803 53.4636 14.2788 53.3527 13.9049 53.5923C13.5274 53.8362 13.4165 54.3376 13.6601 54.7111Z" fill="#7400BD"/><path fill-rule="evenodd" clip-rule="evenodd" d="M11.505 56.2906C11.8216 56.4683 12.2106 56.5522 12.5264 56.8318C12.5869 56.8841 12.633 56.9496 12.6564 57.0216C12.7588 57.32 12.5006 57.4337 12.6366 57.7168C12.6661 57.7724 12.731 57.7929 12.7812 57.8228C13.0454 57.9865 13.3818 57.8723 13.5231 58.1314C13.6161 58.3055 13.4378 58.4694 13.3879 58.6627C13.4396 59.1468 13.873 59.5 14.361 59.4479C14.8452 59.3963 15.198 58.9591 15.1463 58.4751C14.9735 58.141 14.7559 57.9371 14.5947 57.6018C14.5401 57.4941 14.5367 57.3888 14.5274 57.2644C14.4934 56.9469 14.5102 56.7375 14.3726 56.4389C14.3325 56.357 14.2769 56.2768 14.1983 56.2382C13.8755 56.0768 13.7387 56.299 13.4029 56.1625C13.2797 56.109 13.1924 55.9892 13.1073 55.8886C12.8877 55.63 12.7645 55.3573 12.6129 55.1111C12.2864 54.8052 11.7749 54.8206 11.469 55.1469C11.1631 55.4733 11.1785 55.9848 11.505 56.2906Z" fill="#7400BD"/><path fill-rule="evenodd" clip-rule="evenodd" d="M18.3715 58.6333C18.103 58.9439 17.8592 59.2284 17.5858 59.4926C17.2977 59.7662 17.0217 60.0424 16.6909 60.2461C16.555 60.3311 16.4133 60.3971 16.2578 60.4451C15.852 60.5706 15.5182 60.5631 15.068 60.6386C14.935 60.7507 14.7969 60.8516 14.6772 60.9779C14.252 61.4345 14.0507 62.0435 13.5507 62.3867C13.2258 62.6094 12.8182 62.5706 12.4072 62.5361C11.923 62.5878 11.5701 63.0249 11.6218 63.509C11.6736 63.993 12.1108 64.3458 12.595 64.2942C13.1554 64.113 13.5764 63.837 14.0316 63.5142C14.1955 63.3988 14.3723 63.2938 14.5577 63.1957C15.1061 62.9022 15.6507 62.6835 16.2517 62.4783C16.5088 62.0984 16.6525 61.7932 16.9305 61.462C17.0381 61.333 17.1556 61.2226 17.2906 61.1298C17.9456 60.6605 18.6777 60.363 19.4201 59.8686C19.7612 59.5777 19.8046 59.0678 19.5136 58.7268C19.2225 58.3858 18.7125 58.3423 18.3715 58.6333Z" fill="#7400BD"/><path fill-rule="evenodd" clip-rule="evenodd" d="M17.9792 62.62C17.6804 62.3895 17.668 61.4666 17.5485 61.3383L16.3285 60.2584C16.0237 59.9346 16.0396 59.4237 16.3631 59.1151C16.687 58.8103 17.2014 58.8219 17.5063 59.1458L18.5738 60.4848C18.7346 60.7065 19.1652 61.6945 19.2104 62.4103C19.2546 63.044 19.0204 63.4919 18.5622 63.6035C18.3008 63.6862 18.0025 63.718 17.7033 63.7774C17.389 63.8422 17.0964 63.8891 16.778 63.9153C16.5331 63.9336 16.3031 63.9072 16.0857 63.8521C16.1145 64.1584 16.1048 64.508 16.1364 64.8767C16.1831 65.4239 16.2602 65.9992 16.2476 66.541C16.2386 67.0433 16.1459 67.4957 16.0005 67.895C15.7763 68.3263 15.2418 68.493 14.8065 68.2692C14.3748 68.0411 14.208 67.5067 14.4322 67.0755C14.7274 66.6484 14.9065 66.0144 14.9402 65.3764C14.9521 65.195 14.9559 65.0105 14.9334 64.8366C14.8981 64.5428 14.8033 64.2788 14.7316 64.0475C14.6831 63.9235 14.5085 63.7189 14.3564 63.4688C14.1659 63.1523 14.0272 62.8068 13.9377 62.5187C13.7969 62.0442 13.983 61.6601 14.1551 61.3637C14.3314 61.0707 14.8211 60.8148 15.5533 61.1048C15.7538 61.1852 16.1056 61.3984 16.3626 61.6412C16.5113 61.7859 16.5949 61.9453 16.6262 61.9812C16.6762 62.0463 16.6741 62.1366 16.738 62.1846C16.9481 62.3541 17.1416 62.5528 17.4214 62.6052C17.6093 62.6399 17.7972 62.6394 17.9792 62.62ZM14.6794 62.9722C14.6439 62.9329 14.607 62.9173 14.5758 62.9558C14.5478 62.9863 14.6437 62.9682 14.6794 62.9722ZM15.6949 62.6876L15.7411 62.6435C15.827 62.5678 15.9952 62.2717 15.83 62.2659C15.6416 62.2625 15.6336 62.4435 15.6949 62.6876Z" fill="#7400BD"/></svg>