<svg width="128" height="138" viewBox="0 0 128 138" fill="none" xmlns="http://www.w3.org/2000/svg"><path fill-rule="evenodd" clip-rule="evenodd" d="M56.7356 3.61405C55.5631 4.02724 54.5401 4.53128 53.4639 4.8211C53.2373 4.88248 53.01 4.91157 52.7807 4.93314C52.0934 4.99441 51.4661 4.93569 50.7981 4.99013C50.5187 5.0123 50.2414 5.02418 49.9728 5.09853C48.6288 5.45927 47.5153 6.3056 46.1499 6.71915C45.2982 6.97573 44.3913 7.04624 43.4547 7.21071C42.8085 7.38735 42.4276 8.0531 42.6043 8.69921C42.7774 9.34462 43.4426 9.72874 44.0888 9.5521C44.9502 9.22965 45.7314 8.82675 46.5638 8.61269C47.8858 8.2725 49.2049 8.38867 50.4946 8.0848C50.7906 8.01599 51.077 7.90601 51.358 7.78776C52.034 7.49931 52.5839 7.05691 53.2976 6.79391C53.6988 6.64636 54.1279 6.55446 54.5633 6.48521C55.4367 6.35082 56.3311 6.3599 57.2956 6.3046C58.0373 6.15077 58.5163 5.42273 58.3598 4.67714C58.206 3.93568 57.4773 3.46022 56.7356 3.61405Z" fill="#7400BD"/><path fill-rule="evenodd" clip-rule="evenodd" d="M32.0088 16.0778C31.6833 16.6027 31.4453 17.1241 31.0638 17.607C30.8887 17.8274 30.6962 18.0409 30.4687 18.2019C30.0487 18.4993 29.5937 18.5588 29.1596 18.8352C28.9916 18.9402 28.8307 19.0592 28.6976 19.2062C28.1096 19.857 27.8996 20.7283 27.2976 21.3687C26.9056 21.7851 26.391 22.0406 25.9325 22.3835C25.46 22.8559 25.46 23.6222 25.9325 24.0946C26.405 24.5705 27.1751 24.5705 27.6476 24.0946C27.9871 23.6362 28.2426 23.1218 28.6592 22.7334C29.2997 22.1315 30.1712 21.9216 30.8257 21.3302C30.9727 21.1972 31.0918 21.0398 31.1968 20.8718C31.4698 20.4379 31.5293 19.9795 31.8268 19.5596C31.9878 19.3322 32.2013 19.1397 32.4218 18.9682C32.9048 18.5833 33.4299 18.3454 33.9514 18.0199C34.4904 17.4845 34.4904 16.6132 33.9514 16.0778C33.4159 15.5424 32.5443 15.5424 32.0088 16.0778Z" fill="#7400BD"/><path fill-rule="evenodd" clip-rule="evenodd" d="M16.1845 33.6603C15.8099 34.4057 15.5229 35.1475 15.1064 35.8648C14.9139 36.1972 14.7004 36.5227 14.4449 36.8096C13.9968 37.3065 13.4438 37.6004 12.9783 38.0833C12.7928 38.2758 12.6142 38.4787 12.4707 38.7062C11.8442 39.693 11.6132 40.8547 10.9552 41.824C10.5246 42.4574 9.94009 42.9507 9.41506 43.5106C9.01253 44.046 9.12106 44.8054 9.6566 45.2078C10.1921 45.6102 10.9552 45.4982 11.3542 44.9663C11.7567 44.291 12.0542 43.5666 12.5233 42.9437C13.2338 41.9955 14.2419 41.3621 14.9489 40.4138C15.1099 40.1969 15.2359 39.9589 15.3514 39.7175C15.6349 39.1156 15.7119 38.4963 16.02 37.9049C16.1985 37.569 16.4295 37.261 16.678 36.9706C17.1995 36.3512 17.8051 35.8578 18.3966 35.2944C18.8482 34.6856 18.7186 33.8248 18.1061 33.3734C17.497 32.922 16.636 33.0515 16.1845 33.6603Z" fill="#7400BD"/><path fill-rule="evenodd" clip-rule="evenodd" d="M3.69892 56.7278C3.68142 57.2002 3.67792 57.6621 3.61492 58.1554C3.55191 58.6313 3.50291 59.1142 3.3559 59.5901C3.2964 59.7756 3.21241 59.9541 3.11791 60.129C2.84139 60.6434 2.47735 61.0528 2.18333 61.5707C2.06082 61.7842 1.93479 61.9906 1.86129 62.2251C1.47626 63.4428 1.6478 64.72 1.45529 65.9342C1.31878 66.8091 1.05276 67.6209 0.96875 68.4572C0.96875 69.1256 1.51127 69.6714 2.17982 69.6714C2.84837 69.6714 3.3944 69.1256 3.3944 68.4572C3.32089 67.7504 3.2089 67.0155 3.36991 66.2842C3.56243 65.3954 4.13296 64.6466 4.49348 63.7752C4.61599 63.4778 4.74551 63.1769 4.81202 62.8619C4.98003 62.0606 4.82603 61.2838 4.99754 60.5C5.07104 60.1675 5.20755 59.8561 5.34056 59.5551C5.68358 58.7643 6.0721 58.068 6.38012 57.3366C6.54813 56.5983 6.08261 55.86 5.34406 55.692C4.60201 55.5241 3.86693 55.9894 3.69892 56.7278Z" fill="#7400BD"/><path fill-rule="evenodd" clip-rule="evenodd" d="M0.970243 89.0056C1.08225 89.4115 1.20477 89.7754 1.28527 90.1813C1.36928 90.5942 1.46376 90.9897 1.47426 91.4026C1.48126 91.5705 1.45675 91.7385 1.42525 91.903C1.32374 92.4279 1.14175 92.8513 1.05425 93.3622C1.01574 93.5826 0.99124 93.7996 1.00874 94.02C1.02624 94.244 1.08922 94.4574 1.15923 94.6709C1.46025 95.5702 1.98182 96.2735 2.46135 97.1028C2.82888 97.7397 3.11589 98.4255 3.63042 99.0799C4.10296 99.5523 4.86952 99.5523 5.34555 99.0799C5.81808 98.6075 5.81808 97.8412 5.34555 97.3688C4.87302 97.0014 4.40746 96.6759 4.18345 96.2035C3.90343 95.6052 4.06446 94.9613 4.03296 94.3139C4.01896 94.041 4.03645 93.7646 3.97694 93.4916C3.84393 92.8758 3.45542 92.3963 3.33641 91.749C3.30841 91.5985 3.29788 91.4411 3.30488 91.2871C3.35738 90.4718 3.59542 89.7124 3.71793 88.8761C3.67943 88.1168 3.03539 87.5324 2.27933 87.5674C1.51978 87.6024 0.935241 88.2498 0.970243 89.0056Z" fill="#7400BD"/><path fill-rule="evenodd" clip-rule="evenodd" d="M13.7907 114.33C14.3199 114.799 14.8732 115.192 15.3599 115.715C15.5795 115.957 15.7944 116.21 15.9523 116.5C16.2282 117.005 16.275 117.542 16.529 118.062C16.6278 118.27 16.739 118.469 16.8852 118.647C17.5161 119.427 18.4324 119.887 19.0248 120.689C19.4161 121.217 19.6166 121.845 19.8981 122.431C20.2633 122.989 21.0163 123.149 21.5784 122.784C22.1371 122.418 22.297 121.666 21.9311 121.104C21.4932 120.592 20.9777 120.156 20.6077 119.591C20.0434 118.733 19.8738 117.707 19.2999 116.855C19.1688 116.663 19.0068 116.496 18.8359 116.337C18.4007 115.946 17.901 115.75 17.4836 115.341C17.2482 115.109 17.0615 114.836 16.8878 114.557C16.5164 113.95 16.2933 113.316 15.9912 112.681C15.534 112.073 14.674 111.948 14.0658 112.405C13.4604 112.858 13.3369 113.722 13.7907 114.33Z" fill="#7400BD"/><path fill-rule="evenodd" clip-rule="evenodd" d="M38.437 130.537C39.5256 131.115 40.4881 131.45 41.3247 131.891C41.5207 131.993 41.6922 132.115 41.8602 132.245C42.4028 132.658 42.8263 133.057 43.3548 133.386C43.5858 133.529 43.8203 133.659 44.0723 133.75C44.3244 133.837 44.5869 133.879 44.8494 133.917C45.8119 134.05 46.7815 133.9 47.9051 134.05C48.6401 134.148 49.3857 134.442 50.2467 134.677C50.9083 134.785 51.5348 134.341 51.6433 133.68C51.7518 133.018 51.3073 132.395 50.6458 132.287C49.7742 132.231 48.9866 132.283 48.2726 132.143C47.016 131.905 46.127 131.244 45.0944 130.898C44.8774 130.828 44.6499 130.8 44.4189 130.758C43.8693 130.663 43.3303 130.723 42.7493 130.52C42.4412 130.411 42.1367 130.243 41.8427 130.037C41.2337 129.61 40.7192 129.001 40.0751 128.329C39.4661 127.878 38.605 128.007 38.1535 128.616C37.702 129.225 37.828 130.086 38.437 130.537Z" fill="#7400BD"/><path fill-rule="evenodd" clip-rule="evenodd" d="M72.3284 137.595C73.1803 137.377 73.9847 137.101 74.8534 136.952C75.2581 136.88 75.6682 136.829 76.0804 136.841C76.7922 136.861 77.4246 137.092 78.1315 137.137C78.4215 137.157 78.7098 137.159 78.9982 137.122C80.2491 136.964 81.3855 136.394 82.6379 136.252C83.4622 136.157 84.2876 136.269 85.1178 136.278C85.7837 136.218 86.2786 135.629 86.2181 134.959C86.158 134.294 85.5653 133.803 84.8995 133.863C84.0844 134.021 83.292 134.275 82.4643 134.332C81.2068 134.418 79.9863 134.057 78.7276 134.128C78.4373 134.144 78.154 134.198 77.8722 134.269C77.1848 134.44 76.6041 134.781 75.9075 134.928C75.504 135.013 75.0911 135.033 74.6804 135.039C73.7991 135.048 72.9582 134.92 72.081 134.859C71.3246 134.927 70.7665 135.596 70.8346 136.349C70.903 137.105 71.5719 137.663 72.3284 137.595Z" fill="#7400BD"/><path fill-rule="evenodd" clip-rule="evenodd" d="M100.289 130.473C101.142 129.856 101.823 129.153 102.639 128.591C102.802 128.477 102.977 128.393 103.159 128.312C103.7 128.076 104.221 127.964 104.755 127.726C104.973 127.628 105.189 127.538 105.383 127.395C106.313 126.695 106.848 125.621 107.78 124.871C108.356 124.407 109.051 124.108 109.725 123.731C110.271 123.342 110.402 122.586 110.013 122.04C109.627 121.494 108.867 121.367 108.321 121.753C107.736 122.275 107.249 122.86 106.638 123.302C105.698 123.982 104.578 124.247 103.656 124.907C103.465 125.046 103.304 125.216 103.143 125.393C102.749 125.819 102.513 126.309 102.074 126.702C101.829 126.924 101.549 127.109 101.251 127.265C100.573 127.621 99.8301 127.786 99.0517 128.019C98.375 128.361 98.1029 129.189 98.4449 129.866C98.7835 130.543 99.6118 130.815 100.289 130.473Z" fill="#7400BD"/><path fill-rule="evenodd" clip-rule="evenodd" d="M120.381 112.785C120.92 111.683 121.274 110.699 121.785 109.874C121.904 109.685 122.044 109.52 122.184 109.363C122.643 108.859 123.112 108.502 123.521 108.04C123.703 107.834 123.875 107.634 124.011 107.403C124.151 107.172 124.249 106.92 124.347 106.672C124.725 105.689 124.837 104.67 125.236 103.575C125.509 102.819 125.961 102.088 126.349 101.206C126.559 100.573 126.216 99.8833 125.583 99.6733C124.946 99.4633 124.26 99.8063 124.05 100.44C123.85 101.318 123.745 102.119 123.451 102.812C122.94 104.023 122.037 104.782 121.435 105.818C121.305 106.038 121.218 106.276 121.123 106.521C120.906 107.099 120.847 107.697 120.553 108.309C120.399 108.638 120.192 108.96 119.951 109.272C119.447 109.926 118.796 110.507 118.11 111.238C117.683 111.865 117.844 112.722 118.474 113.149C119.1 113.576 119.958 113.411 120.381 112.785Z" fill="#7400BD"/><path fill-rule="evenodd" clip-rule="evenodd" d="M126.753 84.6407C126.802 83.43 126.693 82.2857 126.795 81.1415C126.816 80.907 126.865 80.683 126.924 80.4591C127.099 79.7977 127.362 79.2204 127.53 78.5625C127.6 78.2896 127.677 78.0202 127.695 77.7367C127.779 76.344 127.313 75.0038 127.306 73.5761C127.299 72.6733 127.481 71.774 127.565 70.8397C127.565 70.1679 127.022 69.6255 126.354 69.6255C125.682 69.6255 125.139 70.1679 125.139 70.8397C125.223 71.7425 125.398 72.6173 125.367 73.4922C125.314 74.8534 124.789 76.0921 124.684 77.4183C124.66 77.7017 124.684 77.9817 124.709 78.2616C124.772 78.9475 124.982 79.5668 124.996 80.2597C125.003 80.6586 124.957 81.0644 124.88 81.4599C124.705 82.3802 124.355 83.241 124.044 84.1718C123.914 84.9171 124.418 85.631 125.164 85.7604C125.913 85.8899 126.623 85.3895 126.753 84.6407Z" fill="#7400BD"/><path fill-rule="evenodd" clip-rule="evenodd" d="M122.638 52.5895C122.179 51.6202 121.651 50.8119 121.315 49.9231C121.245 49.7376 121.206 49.5417 121.175 49.3492C121.08 48.7543 121.105 48.219 121.01 47.6451C120.972 47.4037 120.94 47.1692 120.849 46.9418C120.401 45.836 119.488 45.0382 118.924 43.9219C118.585 43.2501 118.406 42.4908 118.116 41.7175C117.818 41.1191 117.09 40.8776 116.492 41.1786C115.893 41.476 115.648 42.2038 115.949 42.8022C116.376 43.4706 116.859 44.0479 117.15 44.7093C117.629 45.787 117.601 46.9243 118 47.974C118.088 48.1945 118.214 48.3974 118.34 48.6004C118.651 49.0938 119.064 49.4577 119.344 49.9966C119.502 50.2905 119.614 50.6195 119.698 50.9554C119.887 51.7112 119.904 52.4985 119.999 53.3593C120.212 54.0872 120.975 54.5035 121.703 54.2936C122.431 54.0801 122.851 53.3173 122.638 52.5895Z" fill="#7400BD"/><path fill-rule="evenodd" clip-rule="evenodd" d="M108.454 21.9651C107.736 21.6012 107.05 21.3387 106.406 20.9573C106.094 20.7719 105.793 20.5724 105.534 20.3309C105.072 19.89 104.817 19.3652 104.379 18.9278C104.201 18.7493 104.015 18.5814 103.802 18.4449C102.881 17.8605 101.8 17.682 100.869 17.0697C100.284 16.6847 99.8255 16.1389 99.2795 15.6455C98.7335 15.2571 97.9774 15.383 97.5889 15.9254C97.2004 16.4713 97.3264 17.2271 97.8689 17.619C98.5235 17.9759 99.1955 18.2314 99.766 18.6478C100.666 19.3092 101.215 20.254 102.087 20.9153C102.283 21.0658 102.503 21.1813 102.731 21.2863C103.284 21.5452 103.861 21.5977 104.418 21.8916C104.726 22.0561 105.006 22.2731 105.275 22.511C105.825 22.9939 106.263 23.5678 106.791 24.1522C107.397 24.6106 108.258 24.4951 108.716 23.8897C109.178 23.2878 109.059 22.4235 108.454 21.9651Z" fill="#7400BD"/><path fill-rule="evenodd" clip-rule="evenodd" d="M85.3828 6.77424C84.5602 6.58528 83.7762 6.5188 83.0446 6.21087C82.8976 6.14439 82.7646 6.05337 82.6386 5.95539C82.2396 5.65096 81.9806 5.30455 81.5956 4.99662C81.438 4.87065 81.2875 4.74119 81.1055 4.66071C80.1675 4.2513 79.1384 4.38076 78.1514 4.07983C77.5178 3.88387 76.9508 3.53394 76.3068 3.282C75.6592 3.12104 74.9977 3.51645 74.8367 4.16381C74.6757 4.81466 75.0712 5.47253 75.7187 5.6335C76.3312 5.70698 76.9368 5.69649 77.4933 5.90294C78.3754 6.23187 78.9564 6.99465 79.8035 7.39356C79.982 7.47754 80.1745 7.51606 80.3705 7.55455C80.8675 7.65253 81.319 7.58253 81.8196 7.7155C82.0926 7.79249 82.3551 7.91145 82.6036 8.05842C83.1986 8.40484 83.6782 8.85974 84.2662 9.28664C84.9592 9.59457 85.7713 9.27964 86.0793 8.5868C86.3873 7.89396 86.0758 7.08217 85.3828 6.77424Z" fill="#7400BD"/><path fill-rule="evenodd" clip-rule="evenodd" d="M56.9499 111.295L56.9396 111.268C56.8443 111.09 56.649 111.046 56.4562 110.982C56.1572 110.884 55.8032 110.897 55.4331 110.904C53.9476 110.938 52.2244 111.505 51.4403 111.703L49.9119 111.939C49.3661 111.993 48.301 112.164 47.4832 111.998C46.8209 111.861 46.2585 111.62 45.9403 111.159C45.4527 110.455 45.3378 109.712 45.6159 108.938C45.9894 107.885 47.0793 106.752 47.5589 106.234C48.6543 104.793 49.6366 103.864 50.7408 103.16C51.8806 102.441 53.1761 101.996 54.9778 101.626C55.728 101.523 56.4232 102.049 56.5263 102.802C56.6285 103.552 56.1033 104.247 55.3497 104.35C53.877 104.45 52.7838 104.61 51.8126 105.081C50.8312 105.555 49.9818 106.296 48.9657 107.407C48.7463 107.682 48.3107 108.131 47.9813 108.657C47.8221 108.914 47.9196 109.358 47.8155 109.561C47.9683 109.523 48.1939 109.416 48.3347 109.388C48.7455 109.299 49.1239 109.167 49.37 109.098L50.8371 108.733C51.9319 108.566 54.566 107.99 56.4164 108.416C57.6351 108.697 58.5936 109.293 58.9824 110.379C59.2518 111.12 59.2162 111.681 58.9827 112.144C58.7229 112.66 58.1981 113.099 57.5137 113.477C56.7377 113.964 55.8783 114.335 55.0062 114.67C54.1672 114.993 53.3111 115.277 52.4753 115.527C52.3379 115.569 51.7483 115.822 51.262 115.94C50.8242 116.051 50.4192 116.019 50.1559 115.948C49.6303 115.81 49.3554 115.435 49.2138 114.973C49.0506 114.324 49.4434 113.663 50.0917 113.5C50.3769 113.428 50.6681 113.466 50.9145 113.585C51.2386 113.511 51.8335 113.379 51.9303 113.362C52.8739 113.168 53.8592 112.967 54.7907 112.624C55.3854 112.406 55.9503 112.127 56.4753 111.804C56.6661 111.673 56.8065 111.356 56.9499 111.295ZM51.5524 114.341L51.566 114.381C51.5626 114.367 51.5592 114.354 51.5524 114.341ZM47.7418 109.641C47.7231 109.653 47.7002 109.663 47.6756 109.665C47.6544 109.667 47.7461 109.658 47.7418 109.641ZM47.7026 109.572C47.6821 109.519 47.6634 109.459 47.6592 109.5C47.6525 109.545 47.6686 109.566 47.7026 109.572Z" fill="#7400BD"/><path fill-rule="evenodd" clip-rule="evenodd" d="M61.5462 109.076L61.5403 109.081C61.3176 109.444 62.5322 109.351 62.8939 109.354C63.101 109.36 63.3234 109.354 63.556 109.317C64.0312 109.241 64.5124 109.131 64.9138 109.077C65.3831 108.991 65.9815 108.96 66.5976 108.827C66.9294 108.754 67.2535 108.636 67.5674 108.507C68.1528 108.266 68.6803 107.938 68.805 107.373C69.0009 106.732 69.6786 106.37 70.319 106.563C70.9594 106.755 71.3212 107.433 71.1253 108.074C70.8125 108.881 70.2592 109.493 69.4865 109.908C68.735 110.306 67.8024 110.515 66.9283 110.728C66.3708 110.865 65.855 111.038 65.4426 111.178C65.0032 111.339 64.4764 111.597 63.9563 111.782C63.6585 111.89 63.3632 111.95 63.0899 111.997C62.5357 112.089 61.6522 112.149 60.9177 112.013C60.4022 111.915 59.9706 111.677 59.6323 111.409C59.3152 111.109 59.015 110.777 58.8216 110.367C58.5917 109.884 58.4371 109.342 58.3861 108.752C58.2936 107.696 58.4836 106.559 58.639 105.484C58.7566 104.704 58.7995 103.972 58.915 103.426C59.0662 102.436 59.375 101.784 59.7586 101.215C60.1609 100.62 60.7222 100.183 61.5057 99.6391C62.1723 99.2765 63.0098 99.5205 63.3724 100.187C63.7385 100.853 63.4903 101.687 62.8237 102.05C62.2918 102.274 61.8675 102.41 61.5581 102.715C61.2682 102.997 61.0405 103.354 60.8444 103.908C60.722 104.311 60.5522 104.826 60.492 105.404C60.4569 105.738 60.4719 106.084 60.5021 106.434C60.5523 107.049 60.7528 107.63 60.9446 108.177C61.0819 108.55 61.2759 108.862 61.5462 109.076ZM61.5462 109.076C61.5623 109.068 61.5938 109.107 61.6091 109.125C61.587 109.109 61.5683 109.092 61.5462 109.076Z" fill="#7400BD"/><path fill-rule="evenodd" clip-rule="evenodd" d="M69.0026 98.7041C69.4778 99.7032 70.0853 100.582 70.5775 101.563C70.672 101.752 70.7504 101.949 70.8127 102.153C71.0661 102.988 71.0751 103.826 71.3888 104.642C71.5115 104.972 71.7022 105.271 71.8852 105.567C72.1618 106.021 72.4824 106.42 72.7683 106.868C73.0347 107.31 73.3299 107.723 73.5123 108.204C73.809 108.995 73.9215 109.829 74.2224 110.623C74.5213 111.223 75.25 111.465 75.8488 111.163C76.4451 110.865 76.6875 110.136 76.3886 109.537C75.9793 108.9 75.5717 108.27 75.3269 107.556C75.1461 107.024 75.0876 106.476 74.9365 105.933C74.8032 105.389 74.6886 104.862 74.5053 104.335C74.3867 103.993 74.2682 103.651 74.086 103.343C73.6196 102.551 72.8887 102.013 72.4418 101.213C72.2724 100.913 72.1667 100.578 72.0651 100.247C71.8322 99.479 71.7409 98.7009 71.6293 97.8991C71.4074 97.1755 70.6403 96.7658 69.9132 96.9884C69.1895 97.2101 68.7799 97.9771 69.0026 98.7041Z" fill="#7400BD"/><path fill-rule="evenodd" clip-rule="evenodd" d="M73.1408 95.9903C73.5843 96.7339 74.0599 97.419 74.4626 98.1873C74.6295 98.5061 74.7947 98.8327 74.8996 99.1779C75.1752 100.072 75.0859 100.993 75.3657 101.89C75.4698 102.231 75.6495 102.544 75.8198 102.862C76.0718 103.347 76.3662 103.785 76.642 104.264C76.8676 104.687 77.1772 105.086 77.4547 105.543C77.5568 105.705 77.6343 105.884 77.7152 106.062C77.9546 106.597 78.1134 107.141 78.1795 107.648C78.3427 108.296 79.0012 108.69 79.6528 108.526C80.3011 108.363 80.6948 107.705 80.5316 107.056C80.2904 106.428 79.8785 105.81 79.4717 105.154C79.3279 104.927 79.1901 104.695 79.0827 104.455C78.9379 104.123 78.8822 103.787 78.8163 103.468C78.635 102.619 78.5496 101.764 78.241 100.954C78.1455 100.703 78.0017 100.476 77.8571 100.245C77.5073 99.6875 77.0669 99.2571 76.746 98.6847C76.5612 98.3523 76.4215 97.9977 76.3054 97.6372C76.0205 96.7634 75.8986 95.8776 75.6977 94.9792C75.419 94.2735 74.6205 93.9258 73.9147 94.2044C73.2089 94.4829 72.8613 95.2812 73.1408 95.9903Z" fill="#7400BD"/><path fill-rule="evenodd" clip-rule="evenodd" d="M78.6402 97.9991C78.3813 98.5045 78.2063 98.9995 77.8351 99.3888C77.6749 99.5554 77.4884 99.7033 77.2823 99.8021C76.8929 99.9902 76.5108 99.9348 76.1002 100.067C75.9398 100.118 75.7845 100.161 75.6455 100.253C74.9569 100.701 74.5735 101.458 73.8517 101.888C73.3742 102.171 72.8243 102.266 72.2958 102.475C71.7165 102.811 71.5173 103.554 71.8536 104.13C72.1907 104.709 72.9304 104.909 73.5097 104.572C73.9489 104.224 74.3183 103.813 74.8103 103.574C75.4601 103.259 76.1486 103.256 76.8129 103.013C76.9775 102.95 77.1463 102.889 77.2913 102.791C77.4456 102.688 77.5609 102.558 77.6812 102.419C77.9888 102.064 78.158 101.718 78.452 101.352C78.5452 101.235 78.6444 101.127 78.7656 101.035C79.3871 100.579 80.0607 100.287 80.7204 99.7962C81.2152 99.2242 81.1553 98.3552 80.5789 97.8579C80.0068 97.3631 79.1376 97.4229 78.6402 97.9991Z" fill="#7400BD"/><path fill-rule="evenodd" clip-rule="evenodd" d="M83.3551 89.601C82.996 89.6227 82.4646 89.5904 81.9995 89.6497C81.6609 89.6951 81.3401 89.7397 81.0865 89.8649C80.0974 90.3374 79.5119 90.979 79.2059 91.7849C78.9067 92.5746 78.9141 93.4929 78.9427 94.4383C78.9686 95.2293 78.9555 96.0228 78.954 96.7052C78.9459 97.4902 78.8862 98.3569 79.0022 99.2478C79.0779 99.835 79.2392 100.419 79.4413 100.978C80.0296 102.598 80.9571 104.017 82.3514 104.81C82.8085 105.092 83.5023 105.297 84.2708 105.425C85.243 105.588 86.3177 105.613 87.1593 105.344C88.1783 105.019 88.8172 104.288 88.9835 103.2C89.0351 102.53 88.5316 101.95 87.866 101.9C87.1996 101.848 86.6147 102.349 86.5665 103.018C86.566 103.231 86.3879 103.34 86.1775 103.408C85.8678 103.511 85.5148 103.585 85.1574 103.57C84.5301 103.544 83.9135 103.331 83.5786 103.076C83.106 102.661 82.8427 102.089 82.6041 101.485C82.305 100.741 82.2221 99.8957 82.0366 99.0727C81.8212 98.131 81.5066 97.2395 81.316 96.425C81.1716 95.8659 80.9279 95.256 80.8199 94.5976C80.7556 94.2277 80.7397 93.8492 80.7756 93.4901C80.8425 92.8382 81.165 92.2988 81.91 92.0898L83.2381 92.3476C83.9936 92.3812 84.6361 91.7938 84.6688 91.035C84.7016 90.2762 84.114 89.6338 83.3551 89.601Z" fill="#7400BD"/><path fill-rule="evenodd" clip-rule="evenodd" d="M85.2471 94.8242C85.0032 95.2031 84.8528 95.609 84.5087 95.9626C84.3798 96.096 84.2255 96.2142 84.0525 96.2866C83.714 96.4331 83.4184 96.3487 83.0603 96.4604C82.9331 96.4996 82.8049 96.5355 82.699 96.6163C82.1792 97.0177 82.0411 97.7019 81.5246 98.0592C81.177 98.2982 80.7636 98.3192 80.3953 98.4334C79.8033 98.7484 79.5837 99.482 79.8988 100.074C80.213 100.663 80.9477 100.885 81.5397 100.571C81.8814 100.293 82.1567 99.9246 82.574 99.6898C83.1711 99.3519 83.9234 99.4586 84.511 99.0402C84.6246 98.9611 84.689 98.8438 84.7635 98.724C84.9684 98.4054 85.0198 98.1363 85.2316 97.8305C85.2951 97.7387 85.3637 97.6529 85.4527 97.5908C85.9539 97.2446 86.4953 97.1589 87.0001 96.9417C87.5851 96.4554 87.6669 95.5904 87.1838 95.0046C86.7006 94.4189 85.8321 94.3378 85.2471 94.8242Z" fill="#7400BD"/><path fill-rule="evenodd" clip-rule="evenodd" d="M94.7958 92.7169C94.4156 91.6939 94.0048 90.693 93.7938 89.8259L93.3332 87.8814C93.2708 87.6481 93.1544 87.0711 93.127 86.9048C93.1116 86.8149 93.1004 86.7563 93.1004 86.7419C93.036 85.7549 93.8284 85.4906 93.9438 85.4616C94.1271 85.4155 95.0079 85.1723 95.3753 86.1156C95.3846 86.1385 95.4153 86.1885 95.4341 86.2776C95.4375 86.2912 95.4486 86.3208 95.458 86.3726L95.4632 86.393L95.4614 86.3862L95.5024 86.5202C95.5757 86.6966 95.7058 86.8551 95.858 87.0009C96.392 87.5305 97.0769 87.9861 97.5122 88.4396C98.2672 89.1879 98.8773 90.0484 99.4576 90.9345C100.269 92.1775 101.003 93.4902 101.767 94.7452C101.98 95.092 102.187 95.4838 102.419 95.8187C102.525 95.9654 102.615 96.1375 102.817 96.0795C103.465 95.9164 104.125 96.3135 104.288 96.9617C104.451 97.6099 104.058 98.2682 103.409 98.4313C102.659 98.5911 102.064 98.4774 101.568 98.1726C100.828 97.7128 100.334 96.7078 99.8703 95.8284C99.1943 94.5623 98.6081 93.2086 97.8277 91.9867C97.6592 91.7188 97.4788 91.4611 97.2866 91.2135C97.6341 91.9344 97.9884 92.6825 98.2231 93.4281C98.4969 94.3011 98.6146 95.17 98.5446 95.967C98.4783 96.4781 98.2752 96.8611 97.8826 97.0934C97.7036 97.1997 97.1872 97.5714 96.4583 97.2135C96.3921 97.1796 96.2408 97.1094 96.0556 96.9756C95.5686 96.6181 94.4049 95.6659 94.2774 95.5608C93.3211 94.7441 92.4021 93.8458 91.4313 93.0147C91.2341 92.8478 91.0378 92.6843 90.8389 92.525C91.2513 93.4894 91.6925 94.4249 92.1557 95.3476C92.975 96.9674 93.8501 98.5371 94.6829 100.182C94.9914 100.877 94.676 101.689 93.9847 101.996C93.2899 102.304 92.4787 101.993 92.1712 101.301C91.3921 99.2961 90.5657 97.375 89.8036 95.3943C89.4754 94.5351 89.1531 93.6707 88.8639 92.78L88.3802 91.2887C88.3037 91.1852 88.0612 90.8529 88.0109 90.7248C87.9069 90.4551 87.9193 90.2174 87.986 90.0238C88.0748 89.7597 88.2518 89.4879 88.6939 89.3803C88.8093 89.3513 89.0995 89.3288 89.4699 89.481C89.9702 89.6907 91.1266 90.3416 91.2489 90.4119L94.7958 92.7169ZM95.4867 89.4542C95.0015 89.118 94.4483 88.77 94.024 88.3607C93.5998 87.9514 93.3061 87.4732 93.1466 86.954C94.8822 92.6157 95.3744 91.4022 95.4867 89.4542Z" fill="#7400BD"/><path fill-rule="evenodd" clip-rule="evenodd" d="M104.473 93.5324C105.168 93.7002 105.75 93.6297 106.257 93.365C107.528 92.7063 108.488 91.5048 109.929 91.0486C110.577 90.8855 111.236 91.2792 111.399 91.9274C111.563 92.579 111.169 93.2373 110.521 93.4003C108.954 93.7116 107.838 94.898 106.401 95.4145C105.65 95.6829 104.844 95.8386 103.834 95.6958C103.387 95.6421 102.925 95.311 102.47 94.8084C101.713 93.9667 101.006 92.2899 100.672 91.7676C100.426 91.2774 100.113 90.7644 99.8608 90.2071C99.2219 88.7873 98.8162 87.2331 98.729 85.7972C98.6959 85.3076 98.6884 84.8332 98.7437 84.3646C98.8676 83.2942 99.3083 82.2776 100.328 81.3247C100.587 81.0646 100.894 80.8647 101.209 80.6665C101.804 80.2931 102.478 80.0298 103.091 79.7276C103.799 79.4558 104.595 79.8111 104.865 80.5228C105.137 81.2302 104.781 82.0234 104.07 82.296C103.56 82.4351 103.011 82.537 102.485 82.7126C102.219 82.8012 101.953 82.8789 101.728 83.0294C101.174 83.4249 100.788 83.8396 100.637 84.3431C100.524 84.7286 100.505 85.1411 100.587 85.55C100.818 86.7116 101.741 87.7389 102.432 88.8208C102.766 89.3465 103.044 89.8901 103.315 90.3811C103.462 90.7195 103.69 91.4813 103.959 92.2507C104.088 92.6189 104.177 93.2892 104.326 93.4935C104.38 93.5053 104.537 93.4728 104.491 93.517L104.473 93.5324ZM104.326 93.4935C104.369 93.5511 104.418 93.5715 104.473 93.5324L104.462 93.5315L104.326 93.4935L104.322 93.491L104.326 93.4935Z" fill="#7400BD"/><path fill-rule="evenodd" clip-rule="evenodd" d="M105.541 84.8827C105.401 85.1163 105.307 85.3312 105.133 85.5589C104.971 85.773 104.829 85.9964 104.611 86.1631C104.522 86.2286 104.421 86.2686 104.317 86.3019C103.959 86.4136 103.681 86.3826 103.317 86.485C103.175 86.5242 103.042 86.5542 102.924 86.6451C102.313 87.1129 102.18 87.8897 101.695 88.459C101.359 88.8576 100.936 89.1298 100.594 89.519C100.251 90.0924 100.438 90.8357 101.013 91.182C101.586 91.5248 102.329 91.3379 102.676 90.7636C102.796 90.4231 102.846 90.0496 103.103 89.7937C103.53 89.3687 104.209 89.4432 104.715 89.0852C104.822 89.0078 104.892 88.8999 104.969 88.7903C105.182 88.4768 105.199 88.1695 105.444 87.8806C105.572 87.7327 105.734 87.6162 105.907 87.526C106.374 87.2749 106.829 87.1894 107.297 86.9994C107.882 86.513 107.963 85.6447 107.477 85.0632C106.994 84.4774 106.126 84.3963 105.541 84.8827Z" fill="#7400BD"/><path fill-rule="evenodd" clip-rule="evenodd" d="M30.2576 100.362C29.9824 98.7358 29.2871 96.6751 28.9797 94.5438C28.8629 93.7391 28.794 92.924 28.859 92.1423C28.9891 90.517 29.6305 89.0912 30.9285 88.1725C31.1528 87.9678 31.3943 88.1557 31.6118 88.2996C32.0025 88.5603 32.3778 88.8802 32.616 89.1931C33.5691 90.4701 34.5116 91.9218 35.1755 93.5175C35.8483 95.1434 36.2283 96.8775 36.6128 98.4534C36.8018 99.0945 37.4789 99.4605 38.1201 99.2716C38.7613 99.0827 39.1283 98.4092 38.9392 97.768C38.4071 96.2356 37.6983 94.6239 37.0446 92.9887C36.612 91.905 36.2195 90.8093 35.7565 89.771C35.4497 89.077 35.133 88.4114 34.7854 87.7769C34.2631 86.8472 33.2495 85.7485 32.1406 85.3164C31.1113 84.9192 29.9987 85.0317 28.9681 85.9045C27.7319 87.2062 27.0936 88.766 26.9772 90.5369C26.9408 91.0693 26.9564 91.6047 26.9702 92.1588C26.9866 92.672 27.0048 93.192 27.0251 93.7187C27.1194 96.1791 27.464 98.7335 27.5227 100.628C27.5959 101.383 28.2665 101.937 29.0221 101.864C29.7777 101.791 30.3308 101.118 30.2576 100.362Z" fill="#7400BD"/><path fill-rule="evenodd" clip-rule="evenodd" d="M28.9362 95.8435C28.7807 96.4548 28.1754 96.8521 27.547 96.738C26.8887 96.6218 26.4478 95.9928 26.5673 95.3337C26.7181 94.8551 26.9508 94.407 27.4097 94.0821C27.8752 93.7552 28.5163 93.5408 29.1454 93.2861C29.6835 93.0692 30.162 92.786 30.473 92.6032C30.9283 92.3158 31.3431 92.0148 31.8073 91.7576C32.1045 91.5898 32.403 91.4143 32.7291 91.3073C33.5763 91.0248 34.453 91.1022 35.2846 90.7915C35.6043 90.6754 35.8932 90.4918 36.1743 90.3068C36.8395 89.8773 37.4029 89.3502 38.0096 88.8212C38.6592 88.4254 39.5037 88.6291 39.903 89.2777C40.2979 89.9239 40.0954 90.7716 39.4491 91.1663C38.4497 91.5885 37.4494 91.8467 36.4778 92.2643C36.2867 92.3461 36.1058 92.4505 35.9346 92.563C35.2126 93.0347 34.6722 93.6647 33.9048 94.0695C33.5956 94.2336 33.2545 94.3267 32.9178 94.4223C32.4065 94.5693 31.8985 94.6533 31.374 94.7677C31.005 94.8655 30.4051 94.8853 29.8275 95.0919C29.4416 95.2311 29.2038 95.885 28.9362 95.8435Z" fill="#7400BD"/><path fill-rule="evenodd" clip-rule="evenodd" d="M43.798 95.0942C44.0579 95.1344 44.409 95.2607 44.6801 95.2027C45.1778 95.0963 45.6233 94.8994 45.8965 94.8115C46.2545 94.6769 46.6029 94.5342 46.9516 94.3804C47.2768 94.2335 47.583 94.0594 47.8862 93.8752C48.49 93.5842 49.2166 93.8334 49.5077 94.4372C49.8013 95.0366 49.5487 95.764 48.9459 96.0583L46.4667 96.745C46.2253 96.8051 45.8472 96.8837 45.4386 97.0077C44.8464 97.1895 44.202 97.4048 43.6613 97.4766C43.1695 97.5412 42.7537 97.4302 42.4272 97.3003C42.1069 97.1794 41.8204 96.7895 41.5888 96.2266C41.3488 95.6479 41.2435 94.61 41.1882 94.3855C41.1006 93.8531 40.9932 93.3157 41.0035 92.7691C41.0191 91.597 41.3308 90.4764 41.3752 89.3031C41.3101 88.8225 41.2316 88.3458 41.095 87.8826C40.7353 86.6752 40.21 85.5495 39.9212 84.3102C39.8336 83.5553 40.3736 82.8746 41.1286 82.7871C41.8836 82.6997 42.5656 83.243 42.6532 83.9979C42.6437 84.6464 42.6726 85.2764 42.7544 85.9126C42.8471 86.6478 42.9469 87.3699 43.0631 88.0981C43.1125 88.4265 43.1888 88.747 43.2382 89.0753C43.5381 90.0924 43.7466 91.0963 43.9203 92.1432C43.9623 92.3971 44.0043 92.6511 44.0252 92.9076C44.0543 93.2784 44.0315 93.6464 44.0586 94.0105C44.0591 94.1235 43.8546 94.6799 43.798 95.0942ZM43.7871 95.3418C43.7974 95.4883 43.8574 95.5801 43.9932 95.5583C44.0422 95.5512 43.9154 95.5047 43.8998 95.4765C43.8719 95.419 43.8302 95.3765 43.7871 95.3418Z" fill="#7400BD"/><path fill-rule="evenodd" clip-rule="evenodd" d="M49.9076 91.8281C50.1243 91.8701 50.3708 91.8522 50.6271 91.8058C51.3347 91.6813 52.0324 91.4612 52.5629 91.3669C52.9618 91.2348 53.6251 91.0467 54.2236 90.75C54.6033 90.5652 54.9557 90.3373 55.076 90.0647C55.3946 89.4747 56.1298 89.2581 56.721 89.5801C57.3078 89.8997 57.5246 90.6349 57.206 91.2249C56.921 91.6445 56.4682 92.0515 55.8553 92.3488C54.9575 92.7811 53.7659 93.0957 53.1202 93.2567C52.3905 93.5665 51.3605 94.1691 50.3988 94.4342C49.6999 94.6255 49.0358 94.5512 48.4443 94.3642C47.8945 94.1578 47.4069 93.6301 47.104 92.8875C46.9744 92.5718 46.8732 92.204 46.8341 91.8361C46.7828 91.3405 46.8467 90.8765 46.8268 90.6234C46.7737 89.9239 46.782 89.2466 46.6978 88.5527C46.6646 88.267 46.6126 87.9794 46.5382 87.7022C46.1786 86.3342 45.6198 85.0578 45.0248 83.7701C44.7798 83.0506 45.1626 82.2702 45.8822 82.0254C46.6018 81.7806 47.3834 82.1669 47.6274 82.883C47.9591 84.3541 48.058 85.828 48.3286 87.3025C48.3839 87.589 48.4516 87.8682 48.5439 88.1438C48.756 88.7891 49.0533 89.3764 49.3259 90.0039C49.4313 90.2501 49.5871 90.704 49.7288 91.2095C49.7734 91.3605 49.7704 91.635 49.8102 91.7948L49.8715 91.8169L49.9076 91.8281ZM49.8102 91.7948C49.7413 91.7713 49.6656 91.7498 49.6298 91.7275C49.684 91.7627 49.7496 91.7871 49.8142 91.8082C49.8365 91.8965 49.8759 91.9432 49.9458 91.9081C49.9999 91.8812 49.9665 91.8545 49.9076 91.8281C49.8734 91.8236 49.846 91.8171 49.8142 91.8082L49.8102 91.7948Z" fill="#7400BD"/><path fill-rule="evenodd" clip-rule="evenodd" d="M55.9165 79.0546C57.313 78.8657 58.4655 79.161 59.4183 79.7814C60.1004 80.2262 60.6594 80.835 61.1633 81.5292C61.8258 82.4395 62.3765 83.503 62.7397 84.6109C63.0723 85.5782 63.2911 86.9512 63.0756 88.1383C62.8845 89.1979 62.287 90.0671 61.3208 90.6509L59.9154 91.1561C57.5843 91.6277 56.3991 91.3822 55.6759 90.5628C55.108 89.9238 54.7545 88.824 54.4833 87.0506L54.0687 84.6299C53.9222 83.7866 53.7529 82.5194 53.8308 81.4348C53.8758 80.7831 54.0555 80.2048 54.3045 79.7375C54.437 79.4941 54.7642 79.2299 55.3145 79.1043C55.4609 79.0685 55.6795 79.0551 55.9165 79.0546ZM58.0016 81.399C57.7229 81.7037 57.3105 81.8763 56.8678 81.8352C56.837 81.8297 56.4049 81.8987 56.0762 81.8605C56.0591 81.9385 56.0419 82.0165 56.0325 82.0959C55.9144 82.9078 55.944 83.8002 55.9752 84.4258C56.0278 85.1363 56.0125 85.3816 56.0772 85.7492C56.1121 85.9542 56.18 86.1969 56.2905 86.5839C56.6959 87.6866 56.9318 88.4124 57.3784 88.7515C57.4539 88.8095 57.5413 88.6852 57.6614 88.6718C58.0313 88.6394 58.4732 88.48 59.0613 88.2593L59.9327 88.0099C60.2771 87.8537 60.4349 87.5227 60.5063 87.1587C60.6362 86.4856 60.6133 85.7518 60.5133 85.1902C60.3435 84.3172 60.1003 83.4184 59.6294 82.6998C59.4297 82.3938 59.1852 82.1339 58.9184 81.9097C58.6463 81.6798 58.34 81.5073 58.0016 81.399Z" fill="#7400BD"/><path fill-rule="evenodd" clip-rule="evenodd" d="M66.0074 85.7442C65.9833 85.7367 65.9535 85.7346 65.9428 85.7231C66.5997 86.2556 67.4784 86.1791 68.1976 85.7228C69.1105 85.1437 69.717 84.0822 69.9084 83.2962C70.1059 82.6543 70.7851 82.2973 71.4248 82.4992C72.0625 82.6944 72.4207 83.3769 72.2222 84.0155C71.8395 84.9819 70.9318 86.0738 69.8332 86.9264C69.4052 87.2568 68.9616 87.559 68.5075 87.8132C67.2107 88.5382 65.8142 88.665 64.4627 87.9796C63.9982 87.7407 63.6184 87.2324 63.3059 86.6057C63.1093 86.2113 62.9506 85.7472 62.8546 85.2976C62.765 84.8826 62.7622 84.4894 62.712 84.2451C62.6185 83.4701 62.6599 82.2248 62.7422 80.92C62.7887 80.162 62.8155 79.399 62.9414 78.7125C63.1482 77.5826 63.6278 76.6971 64.3833 76.1534C64.5916 75.9936 64.874 75.8994 65.1722 75.797C65.5758 75.6562 66.0512 75.5855 66.3754 75.4972C67.1225 75.3829 67.8278 75.8939 67.9433 76.6442C68.0587 77.3946 67.5469 78.0963 66.7974 78.2149L65.5731 78.1962C64.932 78.5091 64.6263 79.4273 64.6218 80.3772C64.6119 81.6059 65.1605 82.7978 65.4593 83.465C65.5593 83.742 65.6966 84.1831 65.8103 84.6676C65.8751 84.9368 65.9102 85.2292 65.9855 85.4843C66.0062 85.5548 65.9939 85.6861 66.0074 85.7442C66.0382 85.7497 66.0647 85.7528 66.0465 85.7655C66.025 85.7791 66.0143 85.7677 66.0074 85.7442Z" fill="#7400BD"/><path fill-rule="evenodd" clip-rule="evenodd" d="M74.15 74.3769C74.1533 74.5328 74.1605 74.6876 74.15 74.8111C74.0697 75.8854 74.0662 77.0466 74.0572 77.4651C74.0282 79.0898 73.9747 80.7473 74.2081 82.3786C74.4434 84.0021 74.9597 85.5647 75.4925 87.0822C75.6826 87.7267 75.3135 88.4009 74.6732 88.5895C74.0289 88.7793 73.3569 88.4118 73.1669 87.7674C72.9309 86.7643 72.7528 85.7406 72.5856 84.71C72.4303 83.7634 72.3192 82.8074 72.1668 81.8563C71.9358 80.4213 71.6469 79.007 71.4749 77.5838C71.4157 77.0358 71.1055 75.3176 71.2177 73.9749C71.2963 73.0251 71.611 72.2246 72.0199 71.8013C72.7564 71.0408 74.1662 70.392 75.7911 72.4707L76.4082 73.376L77.2016 74.9372L79.2525 78.1855C79.6213 78.7846 79.9095 79.3856 80.179 79.9957C80.5631 80.8639 80.8775 81.7417 81.2401 82.6819C81.4549 83.4103 81.0399 84.1747 80.3131 84.3888C79.5824 84.6041 78.8189 84.1869 78.6041 83.4585C78.4076 82.5168 78.2593 81.6375 78.0196 80.7669C77.8682 80.2241 77.696 79.6838 77.4502 79.1397C77.1412 78.4829 76.8588 77.8291 76.4831 77.2211C76.2434 76.8284 75.9538 76.4686 75.6533 76.1011L74.4868 74.6791L74.15 74.3769ZM73.5202 73.9496C73.4503 73.9154 73.4012 73.8935 73.4012 73.8935C73.4012 73.8935 73.4278 73.9403 73.4494 73.9412L73.5202 73.9496ZM74.1606 73.8047C74.2205 73.7615 74.3962 73.7061 74.3244 73.6798C74.233 73.6447 74.185 73.699 74.1606 73.8047Z" fill="#7400BD"/><path fill-rule="evenodd" clip-rule="evenodd" d="M80.6094 74.421C79.9667 74.9205 79.3882 75.5507 78.6069 76.029C78.4626 76.1189 78.3055 76.1798 78.1415 76.2317C77.6514 76.3944 77.1896 76.4356 76.6916 76.6005C76.4893 76.6674 76.2889 76.7264 76.1103 76.8447C75.1867 77.4489 74.6778 78.4453 73.9107 79.1456C73.3447 79.659 72.7135 80.0237 72.2064 80.4905C71.776 81.0004 71.8356 81.7673 72.3475 82.2002C72.8556 82.6343 73.623 82.5724 74.0534 82.0625C74.3689 81.5829 74.6527 81.0395 75.1423 80.6435C75.8596 80.0637 76.8539 79.9459 77.6882 79.4301C77.8571 79.322 77.9983 79.1782 78.1444 79.0366C78.5181 78.6675 78.7246 78.2381 79.119 77.9103C79.3495 77.722 79.6087 77.5727 79.8728 77.4547C80.5513 77.149 81.2331 77.0431 81.8784 76.8566C82.5519 76.5049 82.8155 75.6757 82.4633 75.0023C82.111 74.3289 81.279 74.0705 80.6094 74.421Z" fill="#7400BD"/><path fill-rule="evenodd" clip-rule="evenodd" d="M84.275 65.5663C83.6322 66.0366 83.0958 66.5923 82.392 66.9857C82.2565 67.0621 82.1072 67.1061 81.9559 67.1434C81.4913 67.2621 81.0785 67.2523 80.607 67.3621C80.4194 67.4064 80.2366 67.4383 80.0678 67.5318C79.2275 67.9983 78.7408 68.8678 77.9409 69.3844C77.4139 69.7258 76.8118 69.8849 76.2521 70.1447C75.6828 70.5021 75.5153 71.252 75.8743 71.8176C76.2332 72.3832 76.9795 72.5537 77.5478 72.1929C77.9991 71.8118 78.3863 71.3584 78.9105 71.0653C79.6988 70.6251 80.6394 70.6435 81.4513 70.2255C81.6182 70.1399 81.7595 70.0107 81.9017 69.8849C82.2667 69.5585 82.4584 69.1663 82.845 68.8699C83.057 68.7053 83.3024 68.5819 83.5519 68.4866C84.1656 68.251 84.7827 68.2005 85.4183 68.068C86.1076 67.7555 86.4125 66.936 86.0986 66.2477C85.7836 65.556 84.9682 65.2526 84.275 65.5663Z" fill="#7400BD"/><path fill-rule="evenodd" clip-rule="evenodd" d="M86.7394 80.4183C86.1787 79.6897 85.5729 79.0109 85.0986 78.1985C84.9013 77.8626 84.7276 77.5052 84.6089 77.1316C84.4003 76.4963 84.396 75.8591 84.2335 75.2066C84.1671 74.9379 84.0977 74.6738 83.9901 74.4246C83.4599 73.2346 82.5637 72.2656 82.1141 71.0592C81.8156 70.2497 81.7303 69.3957 81.5703 68.5636C81.3813 67.9225 80.7055 67.5562 80.0651 67.7448C79.4248 67.9335 79.0558 68.6077 79.2448 69.2488C79.5767 70.0849 80.0186 70.874 80.3014 71.7465C80.7188 73.0463 80.714 74.4486 81.2512 75.7204C81.3608 75.9763 81.5195 76.1959 81.6723 76.4245C82.0478 76.9742 82.4771 77.4167 82.8517 77.9631C82.9788 78.1481 83.0991 78.3389 83.1929 78.5411C83.6697 79.5935 83.9285 80.6884 84.3336 81.7437C84.6966 82.4102 85.5363 82.6516 86.2008 82.2844C86.8624 81.9216 87.1063 81.0836 86.7394 80.4183Z" fill="#7400BD"/><path fill-rule="evenodd" clip-rule="evenodd" d="M87.6118 66.9925C88.1133 67.6218 88.6392 68.2038 88.9974 68.9264C89.1523 69.2346 89.2739 69.5599 89.3463 69.8925C89.4684 70.4803 89.3762 71.0365 89.4463 71.6361C89.4743 71.8759 89.4993 72.1202 89.5755 72.3495C89.9326 73.4737 90.6774 74.4071 91.009 75.5315C91.2336 76.2935 91.2579 77.0852 91.4 77.8569C91.5901 78.5014 92.2659 78.8677 92.9062 78.6791C93.5465 78.4904 93.9156 77.8162 93.7256 77.1717C93.4312 76.4486 93.0554 75.7531 92.8671 74.9841C92.5855 73.7975 92.7922 72.5582 92.4419 71.3846C92.3716 71.1463 92.2494 70.9342 92.129 70.7143C91.8312 70.1818 91.4755 69.7577 91.1717 69.2343C91.0682 69.0568 90.9715 68.8737 90.9023 68.6825C90.5504 67.6772 90.3822 66.6578 90.0155 65.6604C89.6447 64.9963 88.8099 64.7571 88.1454 65.1243C87.4809 65.4915 87.2409 66.3283 87.6118 66.9925Z" fill="#7400BD"/><path fill-rule="evenodd" clip-rule="evenodd" d="M94.0896 64.5148C93.6081 64.0547 93.5888 63.2943 94.0438 62.81C94.5027 62.3246 95.2721 62.2986 95.7575 62.7575C96.5868 63.6296 97.7293 64.3619 98.654 65.297C99.111 65.7607 99.5336 66.2528 99.8444 66.8434C100.528 67.8862 101.141 69.4602 101.485 71.0154C101.737 72.1596 101.784 73.2912 101.65 74.228C101.387 75.5059 100.527 76.4269 99.3966 76.7927C97.9471 77.2635 96.1134 76.8661 95.1254 75.7308C94.8229 75.3711 94.5734 74.9303 94.4288 74.3965C94.2119 73.603 94.1421 72.6422 94.0052 72.0332C93.8054 71.4281 93.7162 71.0968 93.6448 70.753C93.5613 70.3398 93.5172 69.9004 93.3961 68.8672C93.3032 68.1758 93.3305 67.5877 93.4021 67.0194C93.5016 66.213 93.7604 65.4692 94.0896 64.5148ZM96.3679 66.0581C96.0908 66.5666 95.8618 67.0062 95.7193 67.4932C95.613 67.8711 95.5333 68.2667 95.5244 68.7436C95.5195 69.6827 95.4909 70.0778 95.531 70.46C95.563 70.7424 95.6304 71.0144 95.7612 71.5158C95.9085 71.9431 96.0032 72.5682 96.198 73.1565C96.3157 73.5122 96.4952 73.8315 96.7413 74.0144C97.0376 74.2372 97.4591 74.1896 97.8501 74.1546C98.0997 74.1322 98.3264 74.018 98.5227 73.8872C98.6336 73.8144 98.7523 73.7392 98.7914 73.5964C99.0256 72.8124 99.0598 71.7845 98.9299 70.7647C98.787 69.6576 98.5125 68.5674 98.1492 67.7843C97.9165 67.3859 97.62 67.0464 97.2813 66.7521C96.9928 66.4978 96.6828 66.2718 96.3679 66.0581Z" fill="#7400BD"/><path fill-rule="evenodd" clip-rule="evenodd" d="M107.876 66.2787C107.793 65.9968 107.699 65.7178 107.596 65.4417C107.27 64.571 106.887 63.7171 106.458 62.8804C105.393 60.8044 104.154 58.8164 103.437 56.6708C103.247 56.0263 103.618 55.3518 104.259 55.1629C104.9 54.974 105.574 55.3409 105.764 55.9854C106.376 58.3477 107.512 60.6288 108.618 62.8823C109.124 63.9155 109.652 64.9273 110.065 65.9804C110.429 66.9056 110.715 67.8536 110.892 68.8375C111.053 69.7279 110.519 70.0822 110.061 70.2865C109.832 70.3902 109.498 70.4194 109.09 70.3098C108.742 70.2189 108.075 69.7769 107.748 69.5816L105.366 68.014C104.826 67.6406 104.293 67.221 103.8 66.7353C103.702 66.6399 103.604 66.5412 103.509 66.4416C103.799 66.9545 104.095 67.4654 104.398 67.971C105.147 69.2132 105.949 70.4107 106.823 71.5542C107.248 72.1804 107.081 73.036 106.454 73.4612C105.825 73.8875 104.969 73.7201 104.544 73.0939C103.917 72.0454 103.352 70.957 102.807 69.8515C102.017 68.2381 101.281 66.5945 100.545 64.9653L99.5305 62.6009L99.0703 61.9558C98.9129 61.7067 98.5118 61.1135 98.472 60.9537C98.3375 60.4607 98.6119 60.1537 98.8049 59.9545C98.9626 59.784 99.3685 59.5149 100.065 59.824C100.964 60.2232 101.786 60.8091 102.595 61.4721C103.415 62.1498 104.221 62.8935 104.987 63.6602C105.69 64.3615 106.344 65.092 107.085 65.6397L107.876 66.2787ZM109.595 67.7787C109.728 67.9218 109.856 68.0193 109.918 67.9097C110.043 67.7015 109.848 67.7079 109.595 67.7787Z" fill="#7400BD"/><path fill-rule="evenodd" clip-rule="evenodd" d="M46.0899 70.3144C46.1437 70.2799 46.2012 70.2363 46.2412 70.1963C46.347 70.0788 46.364 69.923 46.3733 69.7668C46.3946 69.3276 46.3557 68.8721 46.4133 68.4821C46.514 67.2856 46.4365 66.0018 46.1856 64.7578C45.937 63.5015 45.4977 62.2886 44.9843 61.2141C44.7212 60.5996 45.0065 59.8876 45.6243 59.6232C46.2389 59.3603 46.9511 59.6456 47.2142 60.26C47.6985 61.5336 48.0486 62.9558 48.2525 64.4102C48.4541 65.8504 48.5256 67.3158 48.3614 68.684C48.3295 69.223 48.4685 69.8677 48.3938 70.4401C48.3357 70.8647 48.1687 71.2483 47.9002 71.5992C47.4863 72.1531 47.0298 72.4207 46.6244 72.5675C45.9496 72.8143 45.2961 72.6486 44.6676 72.2475C44.3717 72.0544 44.0818 71.7597 43.8127 71.4066C43.745 71.6487 43.6608 71.8789 43.5513 72.0856C43.0605 73.0378 42.2431 73.8139 40.6023 73.8498C39.2092 73.9928 38.0956 73.1256 37.2455 71.7269C35.8782 69.476 35.236 65.7083 35.1815 64.1405C35.1965 63.3842 35.8236 62.7771 36.5801 62.7923C37.3398 62.806 37.9439 63.4345 37.9302 64.194C37.8465 65.3413 37.918 67.9448 38.613 69.9237C39.0147 71.0575 39.5033 72.0742 40.4505 72.0191C41.1036 71.9262 41.4434 71.6438 41.5819 71.2381C41.9008 70.329 41.4527 69.1047 41.2454 68.0514L40.8293 65.3365C40.751 64.5935 41.2293 63.9055 41.9555 63.7166C42.6799 63.5323 43.4312 63.8998 43.7259 64.5883L44.5789 66.7318C44.7557 67.2158 45.119 68.758 45.7363 69.7995C45.8203 69.9425 45.8952 70.0817 45.9907 70.1893C46.0215 70.2256 46.0683 70.2817 46.0899 70.3144Z" fill="#7400BD"/><path fill-rule="evenodd" clip-rule="evenodd" d="M51.124 57.9164C51.0605 58.1682 51.0117 58.4631 50.9707 58.6786C50.8362 59.4137 50.7559 60.1598 50.8076 60.6097C50.8764 61.0104 50.9314 61.4056 51.0374 61.7865C51.1952 62.3508 51.4335 62.8808 51.6897 63.4258L54.0751 68.2328C54.3501 68.9373 53.9987 69.7348 53.2909 70.011C52.5862 70.2858 51.7885 69.9343 51.5136 69.2298L49.9008 64.1912L48.8902 61.0571C48.6308 60.3268 48.4425 58.9 48.5106 57.6719C48.5472 57.0015 48.7221 56.4053 48.942 55.9496C49.3072 55.1843 49.953 54.79 50.6521 54.6888C51.3414 54.5918 52.4108 54.8575 53.5545 56.2752C54.1199 57.0534 54.6007 57.883 54.9997 58.7705C55.5135 59.9171 55.8645 61.1372 56.3006 62.3248C56.5783 63.089 56.9144 63.8207 57.234 64.5404C57.3304 64.7389 58.3512 66.6431 58.6477 67.4336C59.0425 68.498 58.2453 69.1169 58.0224 69.2275C57.4079 69.4904 56.6956 69.2051 56.4326 68.5907C56.3527 68.4041 56.322 68.2079 56.3363 68.019C56.1101 67.2061 55.4256 65.5273 55.3581 65.343C55.1501 64.8039 54.9702 64.2414 54.7439 63.695C54.4175 62.9059 54.0299 62.1429 53.6295 61.3855C52.9977 60.1942 52.2587 59.0906 51.334 58.1578C51.2646 58.0847 51.1929 57.9974 51.124 57.9164ZM50.9931 57.7707C50.871 57.6365 50.7643 57.5565 50.7211 57.6511C50.6535 57.7866 50.8075 57.8083 50.9931 57.7707ZM51.1797 57.7175C51.3815 57.6464 51.5516 57.528 51.4643 57.4397C51.3536 57.3234 51.2584 57.4745 51.1797 57.7175Z" fill="#7400BD"/><path fill-rule="evenodd" clip-rule="evenodd" d="M57.1011 58.3735C56.6348 58.8319 56.2651 59.3022 55.7571 59.6718C55.5456 59.827 55.3153 59.956 55.0735 60.0404C54.6189 60.1969 54.2053 60.1378 53.7466 60.2579C53.5682 60.3038 53.3931 60.3483 53.234 60.4392C52.4778 60.8693 52.0211 61.6433 51.2272 62.0477C50.7275 62.3034 50.1612 62.3591 49.5972 62.5091C48.9794 62.7734 48.6955 63.4887 48.9586 64.1032C49.2217 64.7178 49.934 65.0031 50.5518 64.7387C51.0818 64.4206 51.5365 64.0243 52.0868 63.7888C52.9574 63.4125 53.9134 63.5022 54.7326 63.068C54.8962 62.9789 55.0199 62.8499 55.1533 62.7167C55.4908 62.3934 55.6899 62.0493 56.032 61.7278C56.1414 61.6277 56.2554 61.5294 56.3883 61.4574C57.0567 61.1067 57.7852 60.9854 58.5299 60.7239C59.1758 60.3295 59.3844 59.4827 58.9899 58.8369C58.594 58.1878 57.7484 57.9824 57.1011 58.3735Z" fill="#7400BD"/><path fill-rule="evenodd" clip-rule="evenodd" d="M54.5488 53.7895C54.7093 53.7019 54.7999 53.5755 54.8523 53.5379C55.1428 53.2651 55.3346 52.9927 55.656 52.7562C55.7742 52.6676 55.9033 52.5781 56.0481 52.5428C56.4714 52.4378 56.7945 52.6498 57.2228 52.5655C57.3704 52.5366 57.5166 52.4779 57.6439 52.3929C58.0407 52.128 58.2554 51.7583 58.5833 51.4124C59.2521 51.0539 60.0871 51.3058 60.4426 51.9759C60.8012 52.6447 60.5495 53.4795 59.8793 53.8348C59.5837 53.8737 59.3429 53.8892 59.0478 53.9469C58.7798 53.9968 58.5022 53.9976 58.271 54.1422C57.8457 54.4117 57.761 54.8629 57.3761 55.1912C57.2952 55.2601 57.2084 55.3239 57.1045 55.357C56.6338 55.5203 56.1916 55.4658 55.6952 55.5069C55.6189 55.5243 55.4117 55.5292 55.1915 55.6196C54.7976 55.7844 54.3944 55.9721 54.0658 56.0404C53.4145 56.182 53.0916 55.7035 52.7278 55.2538C52.4633 54.6361 52.7518 53.9227 53.3664 53.6597C53.7686 53.4876 54.2148 53.5518 54.5488 53.7895ZM54.8213 54.0612C54.875 54.1334 54.9205 54.2129 54.9577 54.2998C54.9421 54.1923 54.8916 54.1187 54.8213 54.0612ZM54.4022 53.8294L54.354 53.7967C54.3342 53.7862 54.3025 53.7921 54.2703 53.8059L54.3167 53.8165C54.3369 53.8193 54.3618 53.8239 54.382 53.8266L54.4022 53.8294Z" fill="#7400BD"/><path fill-rule="evenodd" clip-rule="evenodd" d="M65.0063 64.5892C64.6655 64.1488 64.3311 63.7324 64.0166 63.2732C63.7079 62.819 63.386 62.3783 63.1426 61.881C63.0462 61.6825 62.9769 61.4761 62.9159 61.2624C62.7397 60.6375 62.6986 60.0346 62.5366 59.4074C62.4673 59.1477 62.3994 58.8913 62.2901 58.645C62.1432 58.3196 61.9411 58.0254 61.7473 57.7239C61.2867 57.0036 60.753 56.3794 60.2891 55.6605C60.1316 55.4082 60.0017 55.1402 59.8525 54.8806L59.05 52.9972C58.7869 52.3828 58.0747 52.0975 57.457 52.3618C56.8424 52.6248 56.5572 53.3368 56.8203 53.9512L58.1228 55.7843C58.2468 56.0472 58.3822 56.3013 58.4869 56.5725C58.7857 57.3505 58.9315 58.1446 59.1871 58.9373C59.2959 59.2714 59.3918 59.611 59.547 59.929C59.6645 60.168 59.8166 60.3808 59.9714 60.6001C60.3475 61.1319 60.7834 61.5544 61.1545 62.0921C61.2831 62.2769 61.4007 62.4626 61.492 62.6671C61.959 63.7044 62.1873 64.7981 62.5692 65.8679C62.9246 66.538 63.7559 66.799 64.4274 66.4469C65.0976 66.0917 65.3585 65.2607 65.0063 64.5892Z" fill="#7400BD"/><path fill-rule="evenodd" clip-rule="evenodd" d="M71.2128 58.7169C71.503 58.1854 72.1525 57.9418 72.7282 58.175C73.3486 58.4235 73.6502 59.128 73.4031 59.7514C73.2274 60.0968 73.0053 60.405 72.6551 60.6006C72.3094 60.7979 71.8479 60.9116 71.4816 61.0341C70.5752 61.38 69.3576 61.7106 68.2624 61.6958C67.6512 61.6908 67.0782 61.5706 66.5416 61.2863C66.0283 61.0301 65.6512 60.6205 65.2934 60.176C64.8744 59.651 64.5806 59.0269 64.2688 58.4676C63.9542 57.7952 63.6089 57.1398 63.4047 56.4316C63.0959 55.3724 63.0168 54.2985 62.8679 53.1861C62.8074 52.858 62.735 52.4398 62.6584 52.012C62.6016 51.7013 62.5415 51.3921 62.52 51.093C62.4898 50.6491 62.5617 50.2301 62.7172 49.8553C62.8396 49.5365 63.1339 49.2279 63.509 48.9037C64.268 48.2402 65.6181 47.5788 66.1081 47.2207C66.7641 46.8411 67.6069 47.0667 67.9867 47.7226C68.3646 48.3831 68.1409 49.221 67.4817 49.602C67.0584 49.787 66.1079 50.0299 65.2837 50.3635C65.0475 50.4608 64.8195 50.5507 64.6402 50.6655C64.5832 50.7013 64.5055 50.6888 64.4812 50.7297C64.3689 50.93 64.3564 51.1942 64.4055 51.451C64.4875 51.8917 64.7015 52.3026 64.8237 52.6234C65.2663 53.595 65.7995 54.4669 66.2108 55.4366C66.4721 56.0556 66.6354 56.7128 66.8847 57.3484C67.0347 57.8323 67.1453 58.375 67.3804 58.853C67.4823 59.0644 67.558 59.2946 67.745 59.4468C68.0813 59.6988 68.516 59.7716 68.9518 59.6956C69.5662 59.5926 70.1454 59.2648 70.6221 59.0266L71.2128 58.7169Z" fill="#7400BD"/><path fill-rule="evenodd" clip-rule="evenodd" d="M68.3345 52.517C67.9846 52.838 67.7524 53.2381 67.2881 53.5053C67.2085 53.5507 67.1166 53.5672 67.0205 53.574C66.6846 53.6074 66.4823 53.5264 66.1376 53.5483C66.0149 53.5551 65.9005 53.5546 65.7934 53.6156C65.2431 53.931 65.1362 54.5973 64.6654 54.9738C64.333 55.2378 63.9409 55.318 63.6053 55.5035C63.1023 55.9471 63.057 56.7126 63.5007 57.2155C63.9463 57.7139 64.712 57.7594 65.215 57.3158C65.3866 57.0673 65.4887 56.7457 65.7691 56.5648C66.2073 56.2898 66.766 56.5189 67.2496 56.2701C67.3466 56.221 67.4083 56.1338 67.4745 56.0483C67.6828 55.7879 67.665 55.5329 67.8995 55.3069C68.0108 55.2022 68.1514 55.1306 68.2935 55.0889C68.6975 54.9655 69.0371 55.0562 69.4158 55.0426C70.1141 54.7439 70.438 53.9353 70.1404 53.2404C69.8415 52.5422 69.0328 52.2182 68.3345 52.517Z" fill="#7400BD"/><path fill-rule="evenodd" clip-rule="evenodd" d="M70.9953 52.7623C70.7872 52.4097 70.5677 52.0659 70.3436 51.7203C69.8683 51.0368 69.5234 50.4535 69.0599 49.94C68.8187 49.6702 68.5196 49.4517 68.136 49.2314C67.5658 48.8511 67.3883 48.0897 67.7309 47.4939C68.2516 46.4604 69.386 44.993 70.537 44.4892C71.8056 43.9312 73.1696 44.0937 74.1753 45.9092C74.5651 46.7663 74.766 47.6357 74.7256 48.5285C74.6728 49.6854 74.3377 50.8413 73.8703 51.9015C74.306 51.9054 74.7517 52.0039 75.1965 52.1448C75.7985 52.3326 76.388 52.6247 76.9068 52.8405C77.4168 53.0447 77.9333 53.3263 78.4354 53.6367C78.9422 53.9489 79.4094 54.32 79.8275 54.7007C79.8959 54.7628 80.133 54.8897 80.2199 55.0124C80.4418 55.1573 80.6301 55.366 80.743 55.6298C81.0419 56.3279 80.7181 57.1364 80.0198 57.4351C79.522 57.6062 79.0459 57.6234 78.6108 57.3185C78.3443 57.1318 77.8584 56.4414 77.8584 56.4414C77.8584 56.4414 77.9103 56.4915 77.9278 56.5145C77.6628 56.1978 77.3586 55.8788 77.021 55.5969C76.6727 55.3082 76.3107 55.0405 75.9468 54.8308C75.5034 54.5866 75.01 54.261 74.4917 54.0374C74.25 53.9353 74.0097 53.8363 73.7679 53.8142C73.9897 54.2255 74.2134 54.6323 74.4416 55.0409C74.9486 55.9583 75.4947 56.8513 76.1009 57.7072C76.4628 58.268 76.2975 59.0201 75.7367 59.3818C75.1713 59.7417 74.419 59.5763 74.0603 59.0142C73.1055 57.371 72.4491 55.5888 71.6061 53.8865C71.335 53.8045 71.1076 53.5935 71.0098 53.3118C70.9469 53.1294 70.9442 52.9364 70.9953 52.7623ZM78.9837 54.8904C78.9694 54.8927 78.9533 54.8996 78.9372 54.9065L78.9837 54.8904ZM71.4926 47.2015C71.4793 47.1882 71.4669 47.1859 71.4568 47.1978C71.4435 47.2111 71.443 47.219 71.4471 47.2286C71.2347 47.3728 70.9455 47.7021 70.7653 47.8857L70.62 48.0354C70.739 48.1711 70.8451 48.3122 70.9447 48.456C71.3659 49.0752 71.6712 49.7439 72.0758 50.5376C72.1459 50.0433 72.1755 49.5434 72.1518 49.0435C72.1231 48.4429 71.9372 47.8754 71.5854 47.356C71.5725 47.3348 71.5588 47.3027 71.5446 47.2783C71.4981 47.2677 71.4568 47.2512 71.4471 47.2286L71.4926 47.2015ZM71.5446 47.2783C71.619 47.2921 71.7086 47.288 71.6971 47.2435C71.6751 47.1387 71.5965 47.1419 71.4926 47.2015L71.5046 47.2116C71.5119 47.2199 71.5161 47.2296 71.5234 47.2379L71.5446 47.2783Z" fill="#7400BD"/><path fill-rule="evenodd" clip-rule="evenodd" d="M44.0942 35.5657C44.0347 35.4187 43.9997 35.2613 43.9997 35.0968C44.0347 34.4879 44.3462 34.222 44.4897 34.124C44.8222 33.8896 45.1932 33.7881 45.6238 33.956C45.7603 34.0085 46.0473 34.096 46.2433 34.4565C46.2573 34.4845 46.3203 34.5614 46.3623 34.7084C46.3658 34.7189 46.3728 34.7399 46.3798 34.7714C46.3868 34.7924 46.3973 34.8414 46.4113 34.9044C46.4743 35.1983 46.6213 35.8876 46.6668 36.0976L47.4719 38.3196C47.7204 39.0264 47.9619 39.7438 48.2664 40.4367C48.7354 41.4899 49.3095 42.4872 49.8345 43.488C49.8765 43.5685 50.181 44.0059 50.37 44.3978C50.524 44.7163 50.5801 45.0347 50.6011 45.2656C50.6466 45.766 50.4086 46.1229 50.174 46.3924C49.95 46.6513 49.481 46.8787 48.7775 46.8053C48.2314 46.7458 46.9539 46.1684 46.7298 46.102C46.0823 45.8605 45.4312 45.5945 44.8292 45.2341C44.2237 44.8702 43.6671 44.4433 43.1211 44.0059L43.9752 45.542L45.6972 48.6634C45.9668 49.3737 45.6097 50.168 44.9027 50.4375C44.1921 50.7069 43.3976 50.3535 43.1281 49.6432L41.9345 46.3574L41.1155 44.3523C40.8985 43.782 40.6885 43.1696 40.433 42.6132C40.3209 42.3717 40.1879 42.1478 40.0689 41.9308C39.8484 41.5739 39.9604 41.2835 40.0129 41.098C40.0899 40.8286 40.3069 40.6571 40.5975 40.5241C40.727 40.4647 40.9335 40.4542 41.203 40.4821C41.4375 40.5101 41.917 40.7026 42.1445 40.7831L43.7547 41.4339L47.0693 42.9911C46.8033 42.2038 46.5408 41.413 46.2468 40.6326C46.0368 40.0833 45.7883 39.5514 45.5747 39.009L44.4862 36.7205L44.0942 35.5657ZM47.9094 44.9682C47.7624 45.2306 47.6924 45.4896 47.9549 45.4476C48.1264 45.4196 48.0389 45.1956 47.9094 44.9682Z" fill="#7400BD"/><path fill-rule="evenodd" clip-rule="evenodd" d="M53.3711 33.0916C53.6126 33.0531 53.8647 33.0425 54.1272 33.06C55.3837 33.1335 56.8048 33.7739 57.5153 34.5332C58.2783 35.1806 58.6914 36.1604 58.9189 37.2311C59.2164 38.6413 59.0414 40.23 58.7229 41.4092C58.4919 42.116 58.0264 42.6655 57.3788 43.0119C56.7558 43.3408 55.9368 43.5018 55.0792 43.4073C53.2451 43.2113 51.2501 42.1441 50.725 41.0278C50.144 40.174 50.102 38.9948 50.2945 37.7595C50.536 36.2129 51.1905 34.5822 51.6316 33.6549C51.9886 33.0461 52.7411 32.8151 53.3711 33.0916ZM53.8577 35.2541C53.3536 35.9679 52.6256 37.0702 52.2966 38.2004C52.1006 38.8758 51.9991 39.5511 52.2861 40.0515C52.5871 40.4294 53.3256 40.5554 54.0677 40.6464C54.5787 40.7094 55.0932 40.6254 55.5482 40.5169C55.6462 40.4889 55.7372 40.4469 55.8247 40.4119C55.8668 40.3944 55.9332 40.4434 55.9472 40.4014C56.2518 39.7436 56.5353 38.8793 56.5808 38.0115C56.6193 37.2311 56.5843 36.4473 56.1328 35.9154C55.7617 35.5655 55.0932 35.2821 54.4527 35.2121C54.2427 35.1911 54.0292 35.1911 53.8577 35.2541Z" fill="#7400BD"/></svg>