<svg width="18" height="17" viewBox="0 0 18 17" fill="none" xmlns="http://www.w3.org/2000/svg"><path fill-rule="evenodd" clip-rule="evenodd" d="M14.8973 13.4203C15.6062 13.4592 16.171 14.0511 16.171 14.7676C16.171 15.5114 15.5673 16.1189 14.8233 16.1189C14.5155 16.0994 14.161 16.0293 13.8144 15.8424C13.4093 15.6244 12.9769 15.2816 12.6964 15.0441C12.3264 14.7326 11.9291 14.4444 11.5006 14.1952C10.7955 13.7785 10.0437 13.428 9.3348 13.0464C8.71545 12.7894 7.90527 12.5285 7.07557 12.3182C6.26146 12.1118 5.43956 11.9872 4.78905 11.9366C4.16192 11.8782 3.19197 11.7535 2.4324 11.4459C1.8559 11.2123 1.42351 10.8189 1.108 10.3984C0.683412 9.79479 0.640577 9.04322 1.17033 8.28386C1.49754 7.81266 2.42464 7.27139 2.75963 7.15846L6.85352 5.69426C7.30147 5.54628 7.74944 5.40999 8.18182 5.21139C8.6103 5.01668 9.03097 4.78302 9.43218 4.52601C11.3681 3.2865 13.0743 1.67664 14.8466 0.297723C15.5478 -0.170744 16.4982 0.0192867 16.9657 0.721792C17.437 1.4243 17.2461 2.37487 16.541 2.84295C14.5623 3.96135 12.5173 5.13739 10.4878 6.27838C10.0399 6.5315 9.6036 6.78851 9.17123 7.05721C8.72327 7.3337 8.29868 7.62574 7.85073 7.89054C7.17295 8.30332 6.54971 8.78233 5.90309 9.22626C6.36663 9.36645 6.86913 9.54557 7.37552 9.74806C8.43503 10.1725 9.52181 10.6632 10.3009 11.1227C11.1773 11.5238 12.1083 11.9054 12.9847 12.3494C13.4054 12.5635 13.8105 12.7894 14.1961 13.0425C14.3519 13.1476 14.7375 13.3424 14.8973 13.4203ZM3.94766 10.2894L3.88143 10.3166C3.88532 10.3166 3.88533 10.3205 3.88922 10.3244C3.90091 10.3478 3.83861 10.3361 3.81914 10.3439L3.88143 10.3166C3.85026 10.2933 3.71394 10.3555 3.7451 10.3984C3.82301 10.5074 3.89313 10.4295 3.94766 10.2894ZM4.0022 8.77842C3.96714 8.70054 3.92432 8.62654 3.87757 8.55255C3.8581 8.51751 3.8191 8.43964 3.78794 8.47079C3.6555 8.5993 3.77628 8.69664 4.0022 8.77842Z" fill="#7400BD"/></svg>