<svg width="133" height="131" viewBox="0 0 133 131" fill="none" xmlns="http://www.w3.org/2000/svg"><path fill-rule="evenodd" clip-rule="evenodd" d="M35.3307 64.8358C34.9918 64.7189 34.6841 64.5671 34.4309 64.3412C34.2011 64.1387 34.0102 63.8778 33.8856 63.5351C33.7337 63.1185 33.6714 62.6862 33.6558 62.2462C33.6207 61.3622 33.796 60.4432 33.6947 59.5787C33.5973 58.7375 33.1766 58.0093 32.6118 57.3979C32.0198 56.7515 31.2641 56.2297 30.524 55.8442C29.8618 55.4976 29.1061 55.1861 28.4361 54.7733C27.9375 54.4656 27.4896 54.1035 27.139 53.644C26.7806 53.1689 26.6482 52.6626 26.6326 52.1408C26.6015 51.2101 27.0689 50.2171 26.7105 49.3292C26.6404 49.154 26.4574 49.115 26.2977 49.0488C26.0639 48.9476 25.8263 48.8424 25.6354 48.6945C25.4679 48.566 25.3355 48.4024 25.2381 48.196C25.094 47.8767 25.0083 47.5068 24.9499 47.1174C24.8798 46.6189 24.8642 46.0893 24.8213 45.6454C24.724 44.5822 24.5876 43.4569 24.5681 42.3509C24.5565 41.576 24.5993 40.8049 24.7435 40.0689C24.7941 39.8158 24.8797 39.5938 24.9927 39.3797C25.1953 38.9941 25.4913 38.6592 25.6939 38.2542C25.7601 38.118 25.7874 37.9388 25.8107 37.748C25.8575 37.3703 25.8692 36.9614 25.9159 36.6693C26.0601 35.7893 26.3093 34.9598 26.4379 34.0992C26.5119 33.589 26.5391 33.0711 26.4612 32.5182C26.3327 31.6614 25.9782 30.8709 25.5108 30.1193C24.3422 28.2268 22.527 26.5679 21.5454 24.7844C21.3351 24.4066 21.1949 24.0016 21.0897 23.5888C20.8755 22.7633 20.8209 21.8832 20.5171 21.0888C20.3691 20.6877 20.1626 20.3684 19.925 20.0919C19.2395 19.278 18.3318 18.7562 17.6034 17.8527C17.4515 17.6658 17.3619 17.4439 17.3152 17.1986C17.2684 16.9571 17.2724 16.6884 17.2724 16.4197C17.2724 16.2484 17.3386 16.0692 17.2295 15.9602C17.0893 15.82 17.0192 15.6253 17.0425 15.4306C17.1867 14.091 16.727 12.8877 15.9869 11.8207C14.8066 10.1151 12.9213 8.7482 11.3671 7.72014L9.89478 7.59555C9.35334 7.49041 8.78463 7.32295 8.2393 7.10098C7.67838 6.87123 7.1447 6.57137 6.69285 6.217C5.45416 5.23178 4.56608 3.82989 3.41698 2.86804C2.77426 2.33064 2.03803 1.94902 1.04474 1.95292C0.631843 1.95292 0.300781 1.61801 0.300781 1.20912C0.300781 0.796341 0.631843 0.461426 1.04474 0.461426C2.08477 0.46532 2.92617 0.75741 3.65458 1.22082C5.14646 2.1671 6.12026 3.91946 7.58487 5.10328C7.93155 5.38366 8.34832 5.61343 8.78459 5.79645C9.24034 5.98726 9.71558 6.13134 10.1674 6.2209C10.4907 6.2871 11.1217 6.25593 11.558 6.34549C11.7917 6.39222 11.9904 6.47013 12.1345 6.56749C13.8095 7.6929 15.8194 9.21164 17.0815 11.0653C17.9462 12.3348 18.4682 13.7561 18.3552 15.3176C18.4254 15.4384 18.4721 15.5669 18.5072 15.7032C18.5656 15.9524 18.5694 16.2328 18.5656 16.5171C18.5617 16.7118 18.4994 16.9182 18.6084 17.0506C19.3213 17.954 20.2172 18.4719 20.891 19.2819C21.2105 19.6635 21.487 20.1036 21.6895 20.6488C22.0012 21.4899 22.0635 22.4167 22.2816 23.2851C22.3595 23.6044 22.4608 23.9121 22.6166 24.2002C23.5748 25.9721 25.3667 27.6232 26.5119 29.5041C27.0533 30.3997 27.4584 31.3382 27.5987 32.3585C27.6921 33.0244 27.661 33.6514 27.5675 34.2705C27.4351 35.135 27.178 35.9723 27.03 36.8524C26.9715 37.1873 26.9637 37.6701 26.8936 38.0868C26.8507 38.336 26.7846 38.5697 26.695 38.7527C26.4846 39.1655 26.1847 39.5043 25.9743 39.8976C25.912 40.0183 25.8575 40.1429 25.8302 40.2831C25.6939 40.9451 25.6549 41.6383 25.6627 42.3314C25.6783 43.414 25.8068 44.5122 25.8964 45.548C25.9315 45.9764 25.9432 46.4865 26.0094 46.9694C26.0484 47.2536 26.1068 47.5263 26.2119 47.7599C26.2898 47.9351 26.4807 47.9741 26.6482 48.0442C26.8897 48.1493 27.1273 48.2622 27.3182 48.4258C27.4779 48.5582 27.6064 48.7256 27.6921 48.9398C28.0856 49.9445 27.6415 51.0621 27.6688 52.1096C27.6766 52.4251 27.7467 52.7366 27.9609 53.0248C28.2336 53.3831 28.5881 53.6634 28.9737 53.9048C29.6203 54.3098 30.3526 54.6097 30.9953 54.9485C32.0042 55.4781 33.0286 56.2336 33.7376 57.1876C34.2401 57.8535 34.5867 58.6168 34.6841 59.4618C34.7854 60.3536 34.6101 61.2999 34.6412 62.2111C34.6568 62.546 34.6997 62.8809 34.8127 63.2002C34.8945 63.4183 35.023 63.5702 35.1827 63.6831C35.3852 63.8233 35.6268 63.9089 35.8761 63.979C36.0552 64.0297 36.1877 64.1738 36.2266 64.3529C36.3006 64.7112 36.398 65.0538 36.5071 65.3926C36.7797 66.2376 37.1186 67.0515 37.3485 67.9277C37.5978 68.8935 37.7769 69.8437 38.0418 70.7744C38.2132 71.3663 38.4197 71.9504 38.7079 72.5189C38.7741 72.6474 38.7507 72.9473 38.7507 72.9473C38.7507 72.9473 38.7546 72.92 38.7546 72.9084C38.6962 74.2674 38.7235 75.5992 38.8871 76.9116C39.0507 78.2122 39.3467 79.4973 39.8102 80.7707C40.0401 81.386 40.3595 81.9623 40.7179 82.5192C41.6177 83.9133 42.7434 85.21 43.4211 86.6937C43.5808 87.0364 43.6588 87.4842 43.6821 87.9749C43.7289 88.8705 43.5847 89.922 43.5925 90.5022C43.5964 90.802 43.5263 91.2966 43.5107 91.7483C43.5068 91.9313 43.4912 92.1065 43.5458 92.2117C43.8652 92.8308 44.356 93.2086 44.9053 93.4968C45.9258 94.0303 47.1372 94.2717 48.15 94.7624C49.2173 95.2803 49.9262 96.5732 50.8065 97.4532C51.0558 97.7064 51.3246 97.9166 51.6674 97.9789C53.4865 98.3177 55.5821 98.6682 57.4635 99.3614C58.8424 99.8676 60.1084 100.565 61.1017 101.538C61.4756 101.904 61.7054 102.348 61.8379 102.831C62.0638 103.645 61.9625 104.615 61.9703 105.417C61.9781 106.643 61.9547 107.855 61.8301 109.058C61.7483 109.879 61.612 110.697 61.4094 111.519C61.238 112.193 60.9965 112.773 60.8796 113.396C60.8212 113.7 60.8017 114.023 60.8602 114.385C60.9342 114.841 61.1718 115.176 61.4639 115.468C62.1222 116.134 62.9987 116.62 63.6375 117.267C63.8595 117.493 64.027 117.777 64.1361 118.104C64.2646 118.489 64.2841 118.957 64.4087 119.288C65.0281 120.935 65.4838 123.131 66.333 124.954C66.8471 126.052 67.4938 127.018 68.4948 127.528C68.6429 127.602 68.8805 127.578 69.1376 127.575C69.718 127.567 70.3684 127.512 70.8631 127.559C71.3929 127.61 71.798 127.789 72.0434 128.034C72.133 128.128 72.3278 128.159 72.5576 128.213C72.9588 128.311 73.4496 128.377 73.9482 128.408C74.8324 128.466 75.7517 128.443 76.2775 128.314C77.5941 127.995 78.8523 126.948 80.1533 126.375C80.5623 126.196 80.9752 126.052 81.392 125.97C82.8449 125.694 84.3134 125.888 85.7157 125.713C86.2338 125.651 86.7402 125.534 87.231 125.293C87.414 125.203 87.5387 125.036 87.6517 124.853C88.088 124.136 88.3606 123.186 88.9527 122.602C89.2877 122.275 89.7746 122.045 90.3433 121.897C91.2625 121.667 92.4195 121.655 93.1011 121.492C94.1879 121.231 95.2864 121.356 96.3693 121.718C98.6051 122.462 100.759 124.249 102.422 125.094C103.346 125.565 104.74 125.425 106.064 125.059C107.49 124.666 108.85 123.988 109.496 123.345C109.52 123.326 109.672 123.178 109.983 123.17C110.135 123.166 110.454 123.174 110.883 123.186C113.228 123.256 119.059 123.517 119.565 123.521C121.716 123.513 123.542 122.863 125.14 121.8C126.764 120.717 128.147 119.214 129.389 117.543C130.005 116.714 130.562 114.755 130.858 112.765C131.15 110.837 131.208 108.867 130.714 107.89C130.449 107.368 130.079 106.897 129.666 106.453C128.602 105.3 127.274 104.291 126.448 103.069C125.33 101.414 124.921 99.7858 124.049 98.3099C123.562 97.4844 122.915 96.7133 121.852 96.0163C120.477 95.1089 118.494 95.4867 116.663 95.6502C115.043 95.7943 113.52 95.7943 112.418 95.1518C111.319 94.517 110.528 93.2709 110.513 90.8176C110.513 90.3659 110.879 90.0037 111.331 90.0037C111.779 90.0037 112.145 90.3659 112.145 90.8176C112.133 92.457 112.492 93.3566 113.22 93.7927C114.291 94.4314 115.888 94.1744 117.497 94.0459C119.382 93.8979 121.279 93.8667 122.662 94.8013C123.581 95.4244 124.24 96.0903 124.75 96.7912C125.977 98.4735 126.289 100.37 127.57 102.321C128.349 103.497 129.619 104.459 130.628 105.573C131.119 106.114 131.547 106.686 131.859 107.317C132.424 108.454 132.431 110.725 132.073 112.952C131.719 115.168 131.025 117.329 130.332 118.248C128.992 120.016 127.5 121.597 125.763 122.742C123.983 123.91 121.953 124.627 119.565 124.623C119.059 124.623 113.204 124.381 110.856 124.327C110.587 124.319 110.299 124.319 110.143 124.319C109.204 125.152 107.354 126.048 105.535 126.426C104.167 126.706 102.82 126.683 101.862 126.212C100.448 125.518 98.6752 124.14 96.8016 123.326C95.6954 122.843 94.5541 122.563 93.4439 122.851C92.8479 123.003 91.8936 123.046 91.0483 123.217C90.6237 123.299 90.2226 123.4 89.9888 123.638C89.3812 124.253 89.2059 125.328 88.6878 125.993C88.4736 126.266 88.2204 126.492 87.9087 126.648C87.266 126.979 86.5999 127.15 85.9183 127.247C84.551 127.434 83.1176 127.259 81.7114 127.551C80.3987 127.824 79.1717 128.879 77.898 129.502C77.4968 129.697 77.0956 129.857 76.6866 129.962C75.9387 130.152 74.5247 130.219 73.2938 130.102C72.2226 130.001 71.2955 129.709 70.867 129.362C70.8008 129.354 70.5515 129.327 70.3801 129.331C69.8426 129.335 69.2155 129.401 68.7091 129.381C68.2962 129.37 67.9378 129.288 67.6808 129.163C66.6173 128.642 65.7994 127.781 65.1566 126.733C63.9218 124.724 63.3492 121.971 62.578 119.985L62.2391 118.661C61.4601 117.89 60.3499 117.325 59.6527 116.441C59.2748 115.958 58.9944 115.398 58.8775 114.712C58.7723 114.097 58.8035 113.552 58.897 113.03C59.0177 112.364 59.267 111.745 59.4462 111.028C59.676 110.113 59.8085 109.202 59.8864 108.283C59.9682 107.337 59.9954 106.383 59.9993 105.417C60.0032 104.84 60.1045 104.163 60.0188 103.552C59.9837 103.302 59.9292 103.065 59.7539 102.886C58.9593 102.072 57.9309 101.499 56.813 101.059C55.0446 100.358 53.0619 99.9805 51.3402 99.6106C50.8727 99.5132 50.4599 99.303 50.0898 99.007C49.5484 98.567 49.0926 97.9361 48.633 97.3209C48.2824 96.8497 47.9357 96.3785 47.4644 96.137C46.2569 95.514 44.7689 95.2141 43.6548 94.4119C43.1095 94.0147 42.6382 93.5163 42.3071 92.8309C42.198 92.6089 42.1396 92.2857 42.1435 91.9274C42.1474 91.4367 42.2565 90.841 42.2604 90.5022C42.2682 89.9998 42.3967 89.147 42.4162 88.3487C42.4279 87.9126 42.4201 87.4959 42.2915 87.196C41.5709 85.5293 40.2738 84.0963 39.4013 82.488C39.1637 82.0518 38.9533 81.6001 38.7897 81.1328C38.3184 79.7776 38.0301 78.4147 37.8743 77.0323C37.7185 75.6615 37.6951 74.2752 37.7691 72.8616V72.846C37.4809 72.258 37.2667 71.6583 37.0953 71.0469C36.8265 70.1084 36.6473 69.1466 36.3941 68.173C36.1721 67.3202 35.841 66.5219 35.5722 65.6964C35.4826 65.4121 35.4008 65.1278 35.3307 64.8358Z" fill="#7400BD"/><path fill-rule="evenodd" clip-rule="evenodd" d="M109.395 78.7997C109.68 78.4765 110.022 77.7638 110.151 77.6353C110.603 77.1992 111.207 76.6111 111.857 76.175C112.391 75.8167 112.948 75.5481 113.481 75.4819C113.665 75.4585 113.941 75.4741 114.225 75.6493C114.51 75.8245 114.895 76.2023 115.016 76.2996C115.764 76.9032 116.524 77.5458 117.011 78.3363C117.365 78.9126 117.603 79.559 117.595 80.3223C117.618 81.4438 117.217 82.4914 116.64 83.4844C115.861 84.8279 114.744 86.074 113.906 87.1955C113.735 87.4292 113.696 87.7719 113.665 88.1301C113.602 88.8389 113.661 89.6177 113.618 90.1707C113.606 90.268 113.575 90.3654 113.528 90.4549L113.517 90.4783C113.45 90.599 113.361 90.6964 113.252 90.7703C112.956 91.226 112.539 91.7907 112.067 92.0282C111.651 92.2385 111.199 92.2891 110.716 92.0243C110.233 91.7595 109.91 91.4168 109.672 91.0274C109.259 90.342 109.212 89.4658 108.597 88.8388C107.42 87.6472 105.847 86.4011 104.682 84.9642C103.833 83.9166 103.194 82.7679 103.042 81.4555C102.851 80.3262 103.471 78.5544 104.487 77.5068C105.329 76.6423 106.423 76.2996 107.654 76.8292C107.966 76.9655 108.227 77.2109 108.468 77.5029C108.702 77.7833 108.901 78.1299 109.111 78.4492C109.177 78.5505 109.247 78.64 109.317 78.7257C109.333 78.7452 109.353 78.7763 109.372 78.7997H109.36C109.278 78.8075 108.986 78.7958 109.064 78.9048C109.142 79.0139 109.259 78.9554 109.384 78.8114L109.372 78.7997H109.384H109.395L109.391 78.8075L109.384 78.8114C109.399 78.8269 109.415 78.8308 109.423 78.8192C109.43 78.8075 109.415 78.8036 109.395 78.7997ZM113.703 77.094C113.423 77.168 113.154 77.3666 112.889 77.5808C112.364 78.0014 111.892 78.5543 111.542 78.9554C111.362 79.154 110.899 79.9056 110.517 80.2912C110.19 80.63 109.832 80.7701 109.594 80.8013C109.072 80.8597 108.644 80.7351 108.281 80.4781C107.915 80.2133 107.611 79.7849 107.366 79.302C107.257 79.084 107.163 78.8542 107.047 78.6478C106.984 78.5388 106.957 78.4103 106.863 78.3519C106.182 77.9313 105.504 78.2856 105.005 78.8503C104.371 79.5785 103.965 80.6144 104.02 81.3387C104.164 82.4563 104.729 83.4298 105.473 84.3099C106.645 85.6963 108.254 86.8411 109.446 87.9705C110.159 88.6403 110.295 89.5788 110.79 90.3148C110.918 90.5134 111.094 90.6808 111.351 90.8054C111.39 90.8249 111.417 90.7782 111.448 90.7548C111.542 90.6808 111.623 90.5796 111.701 90.4705C111.806 90.3264 111.904 90.1668 111.986 90.0188C111.99 89.9682 111.997 89.9175 112.013 89.8669C112.099 89.2205 112.091 88.3131 112.266 87.5615C112.379 87.0826 112.55 86.6504 112.819 86.3349C113.688 85.2991 114.884 84.1814 115.667 82.9041C116.154 82.1136 116.465 81.2608 116.438 80.3534C116.407 79.8394 116.216 79.4188 115.947 79.0528C115.484 78.4258 114.782 77.9702 114.116 77.5263C114.054 77.4835 113.867 77.2342 113.703 77.094ZM113.7 77.094C113.591 76.9967 113.493 76.9538 113.442 77.0473C113.392 77.1485 113.591 77.1174 113.7 77.094Z" fill="#7400BD"/></svg>