<svg width="339" height="264" viewBox="0 0 339 264" fill="none" xmlns="http://www.w3.org/2000/svg"><path fill-rule="evenodd" clip-rule="evenodd" d="M113.267 0.525535C113.664 0.897674 113.992 1.51643 114.264 2.14976L113.19 2.61083C112.923 1.98913 112.673 1.57047 112.467 1.37774C112.433 1.3454 112.407 1.32661 112.39 1.3159C112.38 1.3241 112.366 1.33617 112.348 1.35367L112.347 1.35469L112.344 1.35739C112.342 1.35998 112.339 1.36358 112.335 1.36834C112.326 1.37798 112.315 1.39086 112.301 1.40746C112.274 1.44086 112.239 1.48473 112.198 1.53977C112.114 1.64987 112.008 1.79554 111.882 1.97404C111.631 2.33059 111.307 2.80629 110.934 3.36585L109.962 2.71787C110.337 2.1546 110.668 1.66937 110.927 1.30085C111.173 0.953014 111.389 0.660622 111.522 0.527598C111.759 0.290051 112.068 0.120825 112.434 0.137623C112.782 0.153616 113.062 0.333807 113.267 0.525535ZM112.416 1.2998C112.416 1.2998 112.414 1.30067 112.412 1.30152C112.414 1.30007 112.416 1.2998 112.416 1.2998ZM115.874 7.11988C115.829 6.99894 115.772 6.81996 115.702 6.58611C115.638 6.37175 115.567 6.12287 115.488 5.84687L115.468 5.77739C115.381 5.47497 115.286 5.14409 115.183 4.80114L114.063 5.13494C114.164 5.47158 114.258 5.79735 114.344 6.09969L114.365 6.16982C114.443 6.44416 114.517 6.69954 114.583 6.92062C114.654 7.15787 114.72 7.36957 114.78 7.52998C114.81 7.6086 114.843 7.6913 114.881 7.76396C114.9 7.79991 114.927 7.84746 114.963 7.89542C114.991 7.93276 115.066 8.02663 115.195 8.09096C115.743 8.36483 116.363 8.53635 116.967 8.67424L117.227 7.53527C116.716 7.41873 116.262 7.29113 115.874 7.11988ZM115.917 7.22339V7.22339C115.918 7.22485 115.918 7.22482 115.917 7.22339ZM105.771 9.24228C106.652 7.82833 107.639 6.27611 108.543 4.88062L109.524 5.51558C108.624 6.9056 107.64 8.45215 106.763 9.86021L105.771 9.24228ZM160.813 6.77207C160.997 6.7305 161.246 6.75509 161.44 6.94906C162.041 7.55015 162.449 8.28967 162.781 9.06589L161.707 9.52624C161.477 8.98933 161.23 8.52501 160.93 8.1361C160.697 8.42459 160.397 8.86397 160.065 9.38254L159.081 8.75208C159.422 8.21931 159.757 7.72568 160.036 7.38289C160.171 7.21751 160.32 7.05256 160.47 6.93933C160.541 6.88563 160.66 6.80669 160.813 6.77207ZM161.178 7.86864C161.178 7.86864 161.177 7.86975 161.174 7.87186C161.177 7.86971 161.178 7.86864 161.178 7.86864ZM134.743 7.63745C136.149 7.16873 137.311 7.27403 138.293 7.69723L137.83 8.76996C137.124 8.46539 136.258 8.3638 135.113 8.74566L135.113 8.74582C134.524 8.94154 133.939 9.19449 133.352 9.48841L132.828 8.44377C133.452 8.13141 134.09 7.85475 134.743 7.63745ZM118.923 7.89977C119.519 8.04012 120.132 8.21768 120.687 8.49438L120.688 8.49466C121.281 8.7913 121.587 9.29072 121.737 9.81571C121.881 10.3174 121.893 10.8766 121.889 11.3651L120.72 11.3556C120.724 10.8679 120.706 10.4604 120.614 10.1369C120.528 9.83701 120.392 9.65295 120.166 9.53984C119.731 9.32312 119.221 9.17006 118.655 9.0369L118.923 7.89977ZM150.581 8.21707C151.503 8.26175 152.393 8.54523 153.338 9.08641L152.757 10.1002C151.94 9.6324 151.228 9.41806 150.525 9.38395C149.815 9.34955 149.071 9.49614 148.184 9.81454L147.789 8.71503C148.76 8.36631 149.665 8.17267 150.581 8.21707ZM129.38 10.4691C129.93 10.1216 130.485 9.77038 131.044 9.43508L131.645 10.4367C131.098 10.7651 130.552 11.1102 129.999 11.4601L129.963 11.4826C129.399 11.8388 128.828 12.1995 128.252 12.5439L127.652 11.5411C128.214 11.2053 128.773 10.8523 129.339 10.4951L129.38 10.4691ZM143.767 10.5706C144.318 10.294 144.834 10.0347 145.318 9.79871L145.83 10.8485C145.353 11.0816 144.847 11.3359 144.299 11.6107C144.035 11.7436 143.761 11.8813 143.476 12.0237M157.036 12.0774C156.51 11.5649 156.018 11.1087 155.551 10.706L154.788 11.5902C155.362 12.0865 155.987 12.6754 156.679 13.3671C156.918 13.6055 157.21 13.5442 157.324 13.4996C157.429 13.4583 157.501 13.3963 157.528 13.3723C157.593 13.3143 157.649 13.2448 157.689 13.1936C157.775 13.0812 157.881 12.9238 157.995 12.7465C158.221 12.3951 158.517 11.9052 158.837 11.3763L158.859 11.3395L157.859 10.7353L157.844 10.7599C157.53 11.2793 157.25 11.7423 157.036 12.0774ZM164.409 13.2277C164.089 12.5755 163.834 11.9126 163.596 11.2527L162.497 11.6489C162.749 12.3494 163.034 13.0924 163.406 13.8341C163.509 14.042 163.679 14.1679 163.821 14.2431C163.964 14.3191 164.121 14.366 164.266 14.3976C164.557 14.4606 164.903 14.4831 165.243 14.4903L165.268 13.3223C164.947 13.3155 164.691 13.2944 164.514 13.2559C164.467 13.2458 164.433 13.2359 164.409 13.2277ZM96.8008 11.3988C97.3298 11.355 97.903 11.4979 98.524 11.8087V11.8087C99.1655 12.1294 99.6341 12.6919 99.9861 13.2857L98.9808 13.8813C98.6854 13.3829 98.3603 13.033 98.0012 12.8535C97.5006 12.603 97.1453 12.5425 96.8975 12.5631C96.6634 12.5825 96.4747 12.6778 96.3008 12.8496L95.4793 12.0189C95.8213 11.6808 96.2581 11.4438 96.8008 11.3988ZM103.567 12.8881C103.788 12.4976 104.078 12.0066 104.414 11.4488L105.415 12.0523C105.081 12.6058 104.797 13.0868 104.583 13.4643C104.362 13.8549 104.234 14.1019 104.192 14.206L104.192 14.2075C104.048 14.5656 103.884 15.1582 103.687 15.8667L103.676 15.9089L102.549 15.5968L102.577 15.497C102.76 14.8384 102.939 14.1927 103.107 13.7724C103.184 13.5809 103.353 13.2645 103.567 12.8881ZM124.18 13.2255C124.771 13.0283 125.358 12.7762 125.944 12.4848L126.464 13.5308C125.842 13.8405 125.204 14.1157 124.549 14.3338C123.833 14.5724 123.235 14.696 122.737 14.7042C122.233 14.7124 121.793 14.6024 121.447 14.3351L122.162 13.4108C122.237 13.4692 122.391 13.5414 122.717 13.5361C123.05 13.5307 123.521 13.4448 124.18 13.2255ZM167.554 13.3095C167.789 13.3221 168.097 13.3507 168.33 13.4673L168.332 13.4682L168.069 13.99L168.33 13.4673V13.4673C168.86 13.7314 169.404 13.9902 169.96 14.2493L169.466 15.3081C168.905 15.0467 168.351 14.7832 167.808 14.5127L167.807 14.5118C167.809 14.5132 167.808 14.5128 167.8 14.5112C167.775 14.5058 167.685 14.4865 167.491 14.4761C167.271 14.4643 166.995 14.4662 166.681 14.4726L166.657 13.3046C166.972 13.2981 167.286 13.2952 167.554 13.3095ZM84.2391 14.496C84.9145 14.0955 85.7234 13.7419 86.6915 13.4334L87.0463 14.5465C86.1433 14.8342 85.4191 15.1546 84.8352 15.5008L84.2391 14.496ZM89.1711 14.7513C89.525 14.9197 89.9261 15.1459 90.3288 15.3765L89.7481 16.3902C89.341 16.1571 88.9769 15.9527 88.669 15.8062C88.3342 15.647 88.1634 15.606 88.1115 15.606V14.4378C88.4563 14.4378 88.8441 14.5958 89.1711 14.7513ZM94.1295 15.0144C94.169 14.8704 94.2099 14.7211 94.2537 14.5664L95.3782 14.8844C95.3409 15.0162 95.3036 15.152 95.266 15.2889C95.1694 15.641 95.0709 15.9998 94.9658 16.313C94.8244 16.7343 94.6338 17.1975 94.3247 17.5066C93.9409 17.8903 93.4275 17.9287 93.0007 17.8682C92.5702 17.807 92.1056 17.6311 91.6624 17.4257L92.1539 16.3658C92.564 16.5558 92.9051 16.6746 93.165 16.7115C93.4287 16.7489 93.4904 16.6885 93.4984 16.6806C93.5972 16.5817 93.7191 16.3551 93.8579 15.9414C93.952 15.661 94.0367 15.3523 94.1295 15.0144ZM101.127 16.15C101.191 16.3568 101.25 16.5456 101.302 16.7014C101.342 16.8213 101.453 17.1169 101.589 17.4602L100.503 17.8913C100.364 17.5406 100.244 17.2219 100.194 17.0752L100.193 17.071C100.126 16.8684 100.062 16.6617 99.9955 16.4472C99.8937 16.1183 99.7862 15.7714 99.6533 15.3938L100.756 15.0061C100.891 15.3912 101.017 15.797 101.127 16.15ZM171.613 15.0119C172.7 15.5123 173.815 16.0324 174.922 16.6053L174.386 17.6429C173.303 17.0833 172.21 16.5728 171.124 16.073L171.613 15.0119ZM80.8771 21.5212C81.0097 19.6874 81.1429 17.8746 82.1846 16.3586L83.1478 17.02C82.3156 18.2311 82.1797 19.7098 82.0426 21.6054L80.8771 21.5212ZM101.676 18.2566C101.796 18.0024 101.916 17.6886 102.034 17.3352L103.142 17.7063C103.017 18.0811 102.881 18.443 102.733 18.7557C102.59 19.0587 102.415 19.3602 102.197 19.5783C102.105 19.67 101.977 19.7391 101.824 19.7527C101.684 19.7651 101.573 19.7264 101.506 19.6944C101.385 19.6365 101.31 19.5518 101.282 19.5204C101.215 19.4425 101.158 19.3486 101.118 19.2773C101.031 19.1213 100.932 18.9093 100.835 18.6905L101.637 18.3378C101.65 18.3119 101.663 18.2849 101.676 18.2566ZM178.127 18.4727C177.607 18.126 177.079 17.8007 176.547 17.4925ZM181.193 21.6841C181.993 22.7605 182.802 23.9874 183.607 25.2461L182.622 25.8749C181.821 24.622 181.03 23.4232 180.255 22.3808L181.193 21.6841ZM80.1216 26.4019C80.3756 25.5851 80.534 24.7888 80.6421 24.013L81.7995 24.1741C81.6849 24.9967 81.5146 25.8577 81.2373 26.7493L81.2372 26.7499C80.956 27.6507 80.5575 28.4431 80.1074 29.1759L79.1116 28.5646C79.5256 27.8905 79.8766 27.1871 80.1216 26.4019ZM184.748 27.0496C185.527 28.2868 186.296 29.5049 187.05 30.6115L186.084 31.2689C185.317 30.1423 184.536 28.9066 183.759 27.6722L184.748 27.0496ZM76.217 32.7394C76.6774 31.9733 77.1915 31.2732 77.6871 30.6032L78.6267 31.2979C78.129 31.9706 77.6468 32.6287 77.2192 33.3403C76.7358 34.1474 76.3558 34.9997 76.0174 35.8801L74.9266 35.4611C75.2786 34.545 75.6864 33.6254 76.2166 32.7401L76.217 32.7394ZM188.272 32.3131C188.735 32.9147 189.181 33.4403 189.61 33.8696C189.823 34.0826 190.169 34.3173 190.64 34.5764C191.104 34.8318 191.652 35.091 192.246 35.3637L191.759 36.4255C191.163 36.1522 190.581 35.8777 190.076 35.5998C189.578 35.3255 189.116 35.0273 188.784 34.6954C188.308 34.2189 187.827 33.6512 187.346 33.0249L188.272 32.3131ZM196.815 37.8709C197.264 38.2634 197.647 38.7259 197.83 39.2728L197.276 39.4578L197.83 39.2723L197.83 39.2728C197.893 39.461 198.155 40.114 198.537 41.0426L197.457 41.4876C197.083 40.5794 196.8 39.8786 196.722 39.6432L196.721 39.6428C196.63 39.3697 196.414 39.0719 196.046 38.7509C195.681 38.4327 195.204 38.1223 194.649 37.8153L195.215 36.7932C195.804 37.1192 196.362 37.4757 196.815 37.8709ZM72.8842 40.8558C73.2978 40.0275 73.6296 39.1463 73.9512 38.226L75.0544 38.6113C74.7287 39.5432 74.3774 40.481 73.9297 41.3776C73.8178 41.6014 73.7521 41.9624 73.7528 42.4808C73.7536 42.9877 73.8165 43.582 73.9094 44.2332L72.7526 44.3982C72.6574 43.7315 72.5851 43.0726 72.5843 42.4825C72.5834 41.9042 72.6499 41.3243 72.8842 40.8558ZM199.285 42.8414C199.771 44.0012 200.311 45.2802 200.802 46.4322L199.728 46.8904C199.235 45.736 198.694 44.4546 198.207 43.2924L199.285 42.8414ZM73.3033 49.3265C73.3497 48.8506 73.3172 48.2604 73.2379 47.5882L74.3984 47.4514C74.4808 48.1498 74.525 48.8384 74.4664 49.4397C74.409 50.0294 74.2442 50.6308 73.8201 51.0548C73.6559 51.219 73.448 51.3133 73.2664 51.3727C73.0774 51.4345 72.8656 51.4746 72.6483 51.5014C72.2138 51.5551 71.6915 51.563 71.1496 51.5481L71.1816 50.3803C71.7019 50.3946 72.1565 50.385 72.5052 50.342C72.6796 50.3205 72.8109 50.2925 72.9032 50.2624C72.9672 50.2414 72.9948 50.2251 73.0009 50.2215C73.1383 50.079 73.2567 49.8058 73.3033 49.3265ZM202.298 49.8605C202.293 49.8512 202.288 49.8408 202.283 49.8293C202.244 49.7478 202.189 49.6287 202.12 49.4751C201.983 49.1689 201.794 48.7379 201.571 48.2228L200.499 48.6869C200.722 49.2034 200.914 49.64 201.054 49.9532C201.124 50.1093 201.183 50.2379 201.228 50.3316C201.25 50.3778 201.27 50.4201 201.289 50.4548C201.297 50.4716 201.308 50.4922 201.321 50.5127L201.321 50.5135C201.326 50.5217 201.36 50.5808 201.414 50.6365L201.42 50.6421C201.782 51.0038 202.25 51.1401 202.697 51.1794C203.14 51.2183 203.622 51.167 204.082 51.0958L203.904 49.9413C203.465 50.0091 203.097 50.0418 202.799 50.0156C202.552 49.9939 202.397 49.9355 202.298 49.8605ZM206.177 49.5834C207.065 49.5131 208.127 49.6018 208.742 50.5239C209.29 51.3446 209.713 52.1668 210.026 52.989L208.933 53.4035C208.654 52.6684 208.272 51.9244 207.77 51.1722C207.537 50.8228 207.091 50.683 206.269 50.748L206.177 49.5834ZM66.4259 50.0752C66.4352 50.0729 66.4962 50.0576 66.5708 50.0576C66.9794 50.0576 67.6611 50.119 68.41 50.1865C68.5767 50.2015 68.7468 50.2168 68.918 50.2318L68.8159 51.3956C68.6294 51.3793 68.4488 51.363 68.2757 51.3475C67.5886 51.2858 67.0188 51.2346 66.6591 51.2269C66.6256 51.2393 66.5818 51.256 66.5273 51.2772C66.381 51.3341 66.1728 51.4177 65.9159 51.5227C65.4029 51.7323 64.7044 52.0235 63.9369 52.3484L63.4812 51.2727C64.2516 50.9465 64.9549 50.6533 65.4738 50.4413C65.7329 50.3354 65.9481 50.2489 66.1035 50.1885C66.1806 50.1585 66.2468 50.1334 66.2976 50.1152C66.3224 50.1064 66.3491 50.0972 66.3742 50.0894C66.3862 50.0857 66.4043 50.0804 66.425 50.0754L66.4259 50.0752ZM58.7305 53.3618C59.2356 53.1226 59.9034 52.8218 60.6313 52.5012L61.1024 53.5704C60.3779 53.8894 59.7215 54.1852 59.2308 54.4176C58.9847 54.5341 58.7856 54.6322 58.6422 54.7079C58.57 54.746 58.5178 54.7754 58.4831 54.7965C58.4773 54.8 58.4724 54.8031 58.4684 54.8056C57.7118 55.5709 57.3023 56.4122 57.0518 57.3108L55.9261 56.9971C56.2213 55.9385 56.7232 54.898 57.666 53.9555C57.7383 53.8832 57.8276 53.8277 57.8757 53.7984C57.9389 53.76 58.0142 53.7183 58.0965 53.6749C58.2619 53.5875 58.4786 53.4811 58.7305 53.3618ZM210.667 55.7099C210.849 57.5823 210.515 59.4083 209.865 61.1668L208.769 60.762C209.373 59.1274 209.665 57.4807 209.504 55.8233L210.667 55.7099ZM54.6546 63.2197C55.0992 62.3295 55.2721 61.3525 55.4034 60.2839L56.5632 60.4262C56.4296 61.5142 56.2396 62.6613 55.7 63.7417C55.2945 64.5532 54.8076 65.3017 54.2761 66.0062L53.3431 65.3028C53.8419 64.6415 54.2877 63.9538 54.6546 63.2197ZM208.734 63.6507C207.9 65.2052 206.871 66.7119 205.789 68.1578L204.854 67.4581C205.917 66.0361 206.908 64.5814 207.704 63.0985L208.734 63.6507ZM50.6027 68.4068C50.9817 68.009 51.3575 67.6146 51.719 67.2216L52.5792 68.0124C52.1867 68.4391 51.7941 68.8509 51.407 69.257C50.6089 70.0942 49.8339 70.9073 49.1298 71.7767L48.2216 71.0416C48.9552 70.1357 49.7862 69.2636 50.6027 68.4068ZM203.137 71.5361C202.921 71.8055 202.706 72.0721 202.496 72.3351C202.019 72.9319 201.34 73.4818 200.687 73.9953L199.964 73.0773C200.632 72.552 201.203 72.0807 201.583 71.6056L201.583 71.6051C201.798 71.3373 202.014 71.0689 202.231 70.799C202.565 70.3839 202.901 69.9651 203.24 69.5395L204.155 70.2668C203.815 70.6939 203.473 71.1182 203.137 71.5361ZM45.702 75.7654C45.9297 74.8548 46.279 74.0209 46.7102 73.2429L47.7323 73.8092C47.3436 74.5105 47.0355 75.2497 46.8357 76.0486C46.6721 76.7032 46.5492 77.3591 46.4563 78.0191L45.2991 77.8563C45.3969 77.1612 45.5273 76.4645 45.702 75.7654ZM198.944 75.4444C198.367 76.001 197.98 76.5348 197.842 77.0846C197.631 77.9306 197.601 79.0845 197.696 80.3771L196.53 80.4624C196.433 79.1297 196.452 77.8286 196.709 76.8012M198.944 75.4444L198.132 74.6042ZM198.132 74.6042C197.499 75.2152 196.925 75.9355 196.709 76.8012ZM44.9802 83.6492C44.9956 82.4141 45.0111 81.1813 45.0896 79.9581L46.2558 80.0329C46.1793 81.2239 46.1642 82.425 46.1487 83.6639C46.1467 83.8215 46.1447 83.9798 46.1426 84.1387L44.9741 84.1231C44.9762 83.9651 44.9782 83.8071 44.9802 83.6492ZM198.148 83.7788C198.38 85.0579 198.652 86.249 198.878 87.1535C198.919 87.316 199.044 88.0173 199.188 88.8244L199.218 88.992L198.067 89.1968C197.903 88.2758 197.776 87.5596 197.746 87.4418L197.745 87.4391C197.514 86.5159 197.236 85.298 196.999 83.9866L198.148 83.7788ZM44.5793 90.2299C44.7898 88.8488 44.8828 87.5041 44.9293 86.1781L46.0971 86.219C46.0497 87.571 45.9542 88.9644 45.7345 90.4058L44.5793 90.2299ZM215.365 89.2468C216.893 88.9027 218.398 88.7655 219.781 89.093L219.512 90.2298C218.377 89.961 217.071 90.06 215.622 90.3864L215.365 89.2468ZM210.337 90.8361C211.327 90.4806 212.323 90.1227 213.295 89.8162L213.647 90.9303C212.699 91.2293 211.734 91.5758 210.751 91.9289C210.405 92.0532 210.056 92.1783 209.705 92.3025L209.315 91.2012C209.654 91.0813 209.995 90.9588 210.337 90.8361ZM221.884 90.0608C222.462 90.4881 222.985 91.042 223.447 91.7362C223.95 92.4892 223.831 93.3899 223.529 94.2017L222.434 93.7949C222.691 93.1024 222.663 92.6656 222.475 92.3845L222.475 92.3839C222.079 91.7904 221.647 91.339 221.189 91.0001L221.884 90.0608ZM199.832 92.2617C199.816 92.1958 199.799 92.1162 199.78 92.0237C199.714 91.7088 199.631 91.2736 199.542 90.7888L198.393 91.0006C198.482 91.487 198.567 91.9333 198.636 92.2623C198.67 92.4256 198.702 92.5676 198.729 92.6735C198.742 92.7246 198.757 92.7797 198.774 92.8285C198.782 92.8511 198.796 92.8891 198.817 92.9301C198.827 92.9501 198.846 92.9856 198.876 93.0249C198.897 93.0529 198.965 93.1412 199.088 93.2026C199.783 93.5495 200.512 93.7613 201.263 93.8675L201.427 92.7108C200.869 92.6319 200.337 92.4864 199.832 92.2617ZM199.61 92.1574C199.608 92.156 199.605 92.1546 199.602 92.1532L199.609 92.1568L199.61 92.1574ZM203.383 92.7435C204.637 92.6321 205.968 92.3 207.348 91.8657L207.699 92.98C206.285 93.4248 204.862 93.7849 203.487 93.9071L203.383 92.7435ZM43.6423 94.1533C43.8613 93.4968 44.0433 92.8506 44.1948 92.2134L45.3317 92.4836C45.1727 93.1523 44.9815 93.8313 44.7513 94.5215C44.6395 94.8619 44.4377 95.1723 44.2146 95.4471L43.3072 94.7109C43.484 94.4931 43.5912 94.3091 43.6413 94.1564L43.6423 94.1533ZM35.8536 92.8737C36.0733 92.6743 36.4077 92.6712 36.631 92.8665C37.4997 93.626 38.202 94.3975 38.7864 95.0821L37.8975 95.8404C37.4247 95.2866 36.8853 94.6895 36.2487 94.0955C35.9282 94.3903 35.6018 94.6951 35.2736 95.0059L34.4699 94.1578C34.938 93.7145 35.4031 93.2827 35.8536 92.8737ZM42.3385 95.6716C42.4863 95.5407 42.6294 95.4116 42.7653 95.2827L43.5696 96.1302C43.3552 96.3335 43.1287 96.5334 42.9106 96.7245C42.9044 96.7299 42.898 96.7353 42.8916 96.7404C42.5157 97.4535 42.1351 97.9829 41.6943 98.2605C41.4259 98.4294 41.1295 98.5093 40.8162 98.4759C40.5168 98.444 40.2537 98.3142 40.0291 98.1581L40.6959 97.1987C40.826 97.2891 40.903 97.3103 40.94 97.3142C40.9631 97.3167 40.9995 97.3173 41.0716 97.2719C41.2624 97.1518 41.558 96.803 41.9714 95.974C42.0464 95.8235 42.1811 95.7151 42.3385 95.6716ZM220.897 98.395C220.641 98.7399 220.391 99.076 220.16 99.3959L219.212 98.7133C219.464 98.3629 219.727 98.0101 219.989 97.6567C220.535 96.9223 221.082 96.1852 221.548 95.4621L222.531 96.0947C222.044 96.8503 221.455 97.6433 220.897 98.395ZM30.47 98.1684C31.253 97.3287 32.1666 96.3961 33.1119 95.4677L33.9308 96.3011C32.9953 97.22 32.0939 98.1401 31.3248 98.965L30.47 98.1684ZM28.4324 100.554C28.6301 100.276 28.8923 99.9476 29.2002 99.5853L30.0907 100.342C29.7936 100.691 29.5551 100.991 29.3845 101.231C29.2993 101.351 29.2353 101.449 29.1907 101.527C29.1454 101.606 29.1324 101.643 29.1313 101.646L29.1309 101.647C28.8776 102.54 28.9721 103.517 29.2375 104.596L28.1028 104.875C27.8189 103.721 27.6719 102.51 28.0064 101.33M28.4324 100.554C28.2506 100.809 28.0753 101.086 28.0067 101.328ZM218.764 101.915C218.738 102.111 218.783 102.174 218.817 102.208C219.444 102.835 220 103.585 220.513 104.4L219.523 105.022C219.039 104.251 218.535 103.579 217.99 103.034L217.99 103.034C217.626 102.669 217.547 102.201 217.605 101.763C217.66 101.342 217.844 100.9 218.074 100.471L219.105 101.021C218.9 101.405 218.792 101.701 218.764 101.915ZM222.767 108.659C223.226 109.603 223.686 110.548 224.187 111.479L223.157 112.032C222.651 111.091 222.167 110.097 221.696 109.129C221.388 108.496 221.085 107.874 220.785 107.286L221.827 106.756C222.148 107.388 222.458 108.023 222.767 108.659ZM29.5288 111.065C29.6011 110.13 29.386 109.128 29.0647 108.045L30.185 107.713C30.5147 108.824 30.7834 109.997 30.6939 111.155L30.1114 111.11L30.694 111.155L30.6939 111.155C30.663 111.559 30.4939 111.992 30.2869 112.404C30.0741 112.827 29.7922 113.283 29.486 113.742L28.5134 113.095C28.8093 112.651 29.0613 112.24 29.2428 111.879C29.4301 111.507 29.5156 111.238 29.5288 111.066L29.5288 111.065ZM225.512 113.7C226.004 114.428 226.53 115.092 227.105 115.666L227.106 115.667C227.736 116.298 228.475 116.826 229.268 117.349L228.624 118.324C227.817 117.791 226.996 117.21 226.279 116.492C225.639 115.853 225.067 115.128 224.544 114.355L225.512 113.7ZM25.6349 117.521C25.9058 116.846 26.4631 116.013 27.0368 115.197L27.9927 115.869C27.4047 116.705 26.9311 117.428 26.7194 117.956C26.4722 118.573 26.2877 119.271 26.1548 120.039L25.0034 119.84C25.1466 119.012 25.35 118.232 25.6347 117.521L25.6349 117.521ZM231.672 118.969C232.465 119.567 233.216 120.257 233.805 121.141C234.317 121.909 234.641 122.871 234.908 123.796L233.785 124.12C233.521 123.204 233.236 122.394 232.832 121.789L232.832 121.788C232.342 121.053 231.702 120.455 230.968 119.901L231.672 118.969ZM24.7555 126.811C24.6904 125.199 24.6652 123.633 24.748 122.18L25.9147 122.247C25.8351 123.643 25.8586 125.166 25.9232 126.764L24.7555 126.811ZM235.655 126.361C235.999 127.326 236.382 127.934 236.894 128.189L236.895 128.19C237.257 128.371 237.686 128.448 238.207 128.495L238.102 129.658C237.547 129.608 236.937 129.518 236.372 129.234C235.419 128.759 234.909 127.749 234.554 126.752L235.655 126.361ZM236.372 129.234L236.371 129.234L236.633 128.712L236.372 129.234L236.372 129.234ZM239.812 128.641C240.372 128.728 240.962 128.894 241.514 129.261L241.515 129.262C242.552 129.954 243.413 130.825 244.181 131.749L243.282 132.496C242.555 131.621 241.776 130.841 240.866 130.234C240.503 129.992 240.095 129.867 239.632 129.795L239.812 128.641ZM24.9015 129.751C24.8898 129.536 24.8782 129.321 24.8667 129.106L26.0336 129.043C26.045 129.257 26.0566 129.471 26.0683 129.686C26.1388 130.987 26.2106 132.313 26.2516 133.627L25.0836 133.663C25.0431 132.364 24.9721 131.053 24.9015 129.751ZM246.295 134.575C246.991 135.537 247.674 136.439 248.44 137.205C248.868 137.633 249.448 138.04 250.149 138.426L249.585 139.45C248.827 139.032 248.145 138.562 247.614 138.031C246.777 137.194 246.047 136.225 245.349 135.259L246.295 134.575ZM24.8167 140.409C25.0275 139.003 25.1092 137.495 25.1169 135.93L26.2855 135.936C26.2776 137.534 26.1943 139.102 25.9724 140.582L24.8167 140.409ZM252.143 139.348C253.486 139.879 254.974 140.331 256.406 140.717L256.101 141.845C254.649 141.453 253.114 140.989 251.713 140.434L252.143 139.348ZM259.566 141.512C260.014 141.62 260.433 141.721 260.805 141.814C261.694 142.036 262.598 142.316 263.509 142.638L263.12 143.739C262.236 143.427 261.368 143.158 260.521 142.947C260.152 142.855 259.743 142.756 259.301 142.649C258.989 142.574 258.66 142.495 258.316 142.411L258.594 141.276C258.929 141.358 259.254 141.436 259.566 141.512ZM23.5824 144.603C23.8966 143.976 24.1525 143.296 24.3587 142.571L25.4827 142.891C25.2596 143.675 24.9789 144.424 24.6274 145.126L24.1049 144.865L24.6279 145.125L24.6274 145.126C24.4041 145.574 24.0263 145.971 23.6468 146.311L22.8673 145.441C23.2162 145.128 23.4595 144.85 23.5819 144.604L23.5824 144.603ZM266.126 143.654C267.819 144.363 269.527 145.165 271.201 145.956L270.702 147.012C269.027 146.22 267.34 145.429 265.674 144.731L266.126 143.654ZM20.7937 147.147C21.0928 146.846 21.4914 146.538 21.8683 146.248L22.5821 147.173C22.188 147.476 21.8554 147.736 21.621 147.972L21.62 147.973C20.9738 148.619 20.3732 149.077 19.7941 149.373L19.2613 148.333C19.7005 148.108 20.2044 147.736 20.7937 147.147ZM9.25865 146.783C10.0812 146.577 10.8278 146.496 11.5136 146.508L11.4933 147.676C10.9161 147.666 10.272 147.734 9.54317 147.916C9.52435 147.92 9.44668 147.953 9.31301 148.096C9.18535 148.232 9.04698 148.426 8.89737 148.671L7.90028 148.062C8.06733 147.788 8.25332 147.518 8.45905 147.298C8.65879 147.084 8.92355 146.867 9.25755 146.783L9.25865 146.783ZM15.9278 147.882C16.5641 148.213 17.0809 148.468 17.5955 148.578L17.3501 149.721C16.6578 149.572 16.0061 149.24 15.3885 148.918C15.3519 148.899 15.3153 148.88 15.2788 148.861C14.6791 148.549 14.0829 148.238 13.4021 148.01L13.7733 146.903C14.5445 147.161 15.2165 147.511 15.8043 147.818C15.8459 147.839 15.8871 147.861 15.9278 147.882ZM273.707 147.136C274.561 147.532 275.401 147.913 276.221 148.265C276.892 148.552 277.571 148.824 278.256 149.081L277.844 150.175C277.144 149.911 276.45 149.634 275.761 149.339L275.76 149.339C274.926 148.98 274.075 148.594 273.215 148.195L273.707 147.136ZM6.50117 150.457C6.68217 150.275 6.90214 149.9 7.18249 149.371L8.21474 149.919C7.95678 150.405 7.65718 150.952 7.32942 151.282L7.32834 151.283C7.07904 151.532 6.69342 151.725 6.38842 151.87L5.88558 150.815C6.22023 150.656 6.41678 150.541 6.50117 150.457ZM280.327 149.815C281.716 150.279 283.124 150.698 284.545 151.092L284.233 152.218C282.798 151.82 281.369 151.395 279.956 150.923L280.327 149.815ZM4.50538 151.563C4.6674 151.431 4.85751 151.318 5.03873 151.222L5.58607 152.254C5.43151 152.336 5.31831 152.407 5.24268 152.469C5.20599 152.499 5.18789 152.518 5.18039 152.527C5.11537 152.74 5.06125 153.107 4.99532 153.595L3.83727 153.439C3.89944 152.979 3.96768 152.474 4.07746 152.14L4.07904 152.135C4.16677 151.876 4.34995 151.689 4.50538 151.563ZM290.022 152.517C290.34 152.597 290.658 152.677 290.976 152.758L290.69 153.891C290.373 153.81 290.056 153.73 289.738 153.65C288.621 153.369 287.501 153.087 286.384 152.795L286.68 151.665C287.792 151.956 288.906 152.236 290.022 152.517ZM293.13 153.308C294.571 153.683 296.007 154.073 297.428 154.498L297.093 155.617C295.691 155.198 294.27 154.812 292.836 154.439L293.13 153.308ZM3.50748 155.195C3.5628 155.041 3.61286 154.842 3.6589 154.607L4.80574 154.831C4.75447 155.093 4.69112 155.356 4.60768 155.589C4.52818 155.811 4.41084 156.063 4.22144 156.254L4.21995 156.255C3.99967 156.476 3.65386 156.754 3.2851 157.052L3.22889 157.097L2.49527 156.188L2.5 156.184C2.91248 155.851 3.21692 155.606 3.39215 155.431C3.39215 155.431 3.39572 155.427 3.403 155.417C3.41026 155.407 3.41978 155.392 3.43108 155.372C3.45414 155.33 3.48011 155.272 3.50748 155.195ZM299.561 155.169C300.271 155.405 300.976 155.653 301.675 155.915C302.293 156.146 302.947 156.368 303.63 156.577L303.288 157.694C302.583 157.478 301.907 157.249 301.264 157.009C300.581 156.752 299.89 156.51 299.193 156.278L299.561 155.169ZM0.582046 157.855C0.891411 157.547 1.21365 157.256 1.52592 156.988L2.28731 157.874C2.13659 158.003 1.98542 158.137 1.83617 158.273C1.93844 158.376 2.04388 158.484 2.15077 158.594C2.26576 158.711 2.38242 158.831 2.4986 158.948L1.66886 159.77C1.53429 159.635 1.40735 159.505 1.28738 159.382C1.02746 159.116 0.800206 158.884 0.598848 158.698C0.481564 158.59 0.413445 158.439 0.410272 158.28C0.4071 158.121 0.46915 157.967 0.582046 157.855ZM305.626 157.134C306.918 157.463 308.284 157.751 309.691 157.993L309.493 159.144C308.058 158.897 306.662 158.603 305.338 158.267L305.626 157.134ZM329.822 158.059C331.006 158.029 332.202 158.053 333.378 158.085L333.347 159.252C332.173 159.221 331.003 159.198 329.851 159.226L329.822 158.059ZM335.14 158.132C335.731 158.146 336.315 158.156 336.889 158.156H337.303V159.039C337.422 158.87 337.519 158.697 337.59 158.521L337.717 158.572V158.156H338.132C338.326 158.156 338.507 158.252 338.616 158.413C338.725 158.574 338.746 158.779 338.673 158.959C338.308 159.863 337.563 160.578 336.754 161.171L336.063 160.229C336.468 159.932 336.811 159.632 337.079 159.324H336.889C336.302 159.324 335.708 159.314 335.112 159.3L335.14 158.132ZM326.23 158.37C326.822 158.272 327.423 158.201 328.027 158.151L328.123 159.316C327.545 159.363 326.977 159.43 326.421 159.522M311.748 158.31C313.114 158.496 314.503 158.638 315.888 158.731L315.81 159.897C314.398 159.802 312.982 159.657 311.59 159.467L311.748 158.31ZM317.966 158.834C319.38 158.879 320.774 158.869 322.119 158.8L322.179 159.967C320.799 160.038 319.373 160.047 317.929 160.002L317.966 158.834ZM4.35009 161.753C3.81691 161.585 3.30081 161.236 2.84242 160.86L3.58281 159.956C4.00274 160.3 4.38208 160.538 4.70377 160.64L4.70568 160.641C4.80296 160.672 5.00466 160.713 5.31537 160.765C5.54614 160.803 5.81238 160.843 6.10308 160.887C6.18963 160.9 6.27836 160.913 6.36896 160.927L6.19366 162.082C6.10774 162.069 6.02244 162.056 5.93832 162.044C5.64452 161.999 5.36512 161.957 5.12401 161.917C4.8256 161.868 4.54124 161.815 4.35009 161.753ZM4.35009 161.753L4.34913 161.753L4.52741 161.197L4.35104 161.754L4.35009 161.753ZM8.88909 162.637C8.64006 162.546 8.30683 162.46 7.91851 162.379L8.15797 161.235C8.56669 161.321 8.96257 161.42 9.28851 161.539C9.45154 161.598 9.61137 161.667 9.75217 161.75C9.88649 161.828 10.0435 161.942 10.1576 162.107L9.67691 162.439L10.1573 162.107L10.1576 162.107C10.5126 162.62 10.9729 163.137 11.5152 163.657L10.706 164.5C10.1313 163.949 9.61833 163.378 9.20819 162.788C9.21113 162.791 9.21303 162.792 9.21303 162.792C9.214 162.793 9.20709 162.787 9.19685 162.772L9.19651 162.772L9.19622 162.771M9.19685 162.772C9.20062 162.778 9.2044 162.783 9.20819 162.788C9.20134 162.783 9.18685 162.773 9.16147 162.758C9.10265 162.723 9.01353 162.682 8.88909 162.637M334.451 162.6C333.605 163.082 332.85 163.513 332.298 163.96C331.783 164.376 331.274 164.798 330.768 165.225L330.014 164.332C330.526 163.9 331.042 163.474 331.563 163.052C332.196 162.54 333.03 162.065 333.84 161.604L333.872 161.585L334.451 162.6ZM15.9989 168.511C14.7933 167.705 13.5394 166.849 12.4045 165.959L13.1257 165.04C14.223 165.901 15.4449 166.735 16.6483 167.54L15.9989 168.511ZM329.264 166.521C328.269 167.395 327.291 168.288 326.328 169.198L325.526 168.349C326.498 167.43 327.487 166.528 328.492 165.644L329.264 166.521ZM19.5768 170.957C19.0477 170.564 18.4515 170.152 17.8123 169.721L18.4655 168.753C19.1096 169.187 19.7233 169.61 20.2739 170.02C21.1077 170.639 21.5086 171.503 21.7166 172.367L20.5805 172.64C20.4102 171.933 20.1151 171.357 19.5768 170.957ZM324.895 170.575C323.947 171.501 323.013 172.442 322.091 173.396L321.251 172.584C322.179 171.623 323.122 170.674 324.079 169.74L324.895 170.575ZM319.867 174.035L320.718 174.836C320.263 175.319 319.811 175.804 319.362 176.293C318.856 176.843 318.353 177.399 317.852 177.962L316.979 177.186C317.484 176.618 317.991 176.057 318.502 175.502C318.954 175.011 319.409 174.521 319.867 174.035ZM21.0071 176.35C20.9068 175.909 20.8661 175.413 20.8347 174.931L22.0008 174.855C22.0324 175.339 22.0692 175.751 22.1466 176.091C22.2244 176.434 22.3295 176.638 22.449 176.757L22.4497 176.758C22.9859 177.294 23.7516 177.653 24.6929 177.953L24.3382 179.066C23.3404 178.749 22.3591 178.319 21.6234 177.584L22.0347 177.173L21.6241 177.584L21.6234 177.584C21.2795 177.241 21.1068 176.789 21.0071 176.35ZM29.6041 180.779C28.8938 180.353 28.0406 180.066 27.109 179.812L27.4167 178.685C28.3717 178.945 29.3526 179.265 30.2055 179.777M316.367 179.656C315.392 180.784 314.424 181.934 313.46 183.1L312.559 182.357C313.527 181.184 314.501 180.028 315.483 178.892L316.367 179.656ZM34.4069 184.355C33.9625 183.988 33.5193 183.622 33.0788 183.267L33.8117 182.357C34.2788 182.733 34.7306 183.107 35.1768 183.476C35.8472 184.029 36.5051 184.573 37.1838 185.1L36.4668 186.023C35.7805 185.49 35.0922 184.921 34.4069 184.355ZM312.032 184.846C311.089 186.008 310.15 187.184 309.211 188.369L308.295 187.644C309.236 186.456 310.178 185.276 311.125 184.11L312.032 184.846ZM40.2075 188.461C39.5338 188.124 38.8894 187.74 38.2657 187.326L38.9121 186.353C39.504 186.746 40.1069 187.104 40.7301 187.416C40.9191 187.51 41.1941 187.582 41.5777 187.68L41.2877 188.812L41.2364 188.799C40.9084 188.715 40.5172 188.615 40.2075 188.461ZM42.6418 189.442C42.5833 189.326 42.4502 189.204 42.1691 189.084L42.6308 188.01C43.0193 188.177 43.4484 188.444 43.6865 188.918L43.6872 188.92C43.9914 189.529 44.1901 190.145 44.3134 190.763L43.1675 190.992C43.0624 190.466 42.8952 189.95 42.6418 189.442ZM307.813 190.143C306.885 191.323 305.957 192.51 305.026 193.701L304.105 192.981L304.44 192.553C305.259 191.506 306.076 190.461 306.894 189.421L307.813 190.143ZM43.1458 195.205C43.2353 194.338 43.3213 193.504 43.3198 192.665L44.4884 192.663C44.49 193.568 44.3945 194.493 44.303 195.379C44.2708 195.691 44.2391 195.998 44.2123 196.298L43.0484 196.194C43.0784 195.858 43.1123 195.529 43.1458 195.205ZM303.632 195.481C302.702 196.666 301.769 197.852 300.829 199.034L299.914 198.307C300.852 197.128 301.783 195.944 302.712 194.76L303.632 195.481ZM43.1707 199.951C43.0279 199.314 42.9706 198.677 42.9623 198.048L44.1307 198.032C44.1383 198.602 44.19 199.156 44.311 199.695L44.3111 199.696C44.4837 200.469 44.7147 201.248 44.9929 202.03L43.892 202.421C43.6003 201.602 43.3551 200.777 43.1707 199.951ZM299.416 200.802C298.469 201.979 297.515 203.151 296.551 204.312L295.652 203.566C296.611 202.41 297.562 201.244 298.505 200.07L299.416 200.802ZM47.2442 209.261C46.386 207.819 45.5609 206.317 44.8595 204.787L45.9218 204.3C46.6002 205.78 47.4033 207.244 48.2485 208.664L47.2442 209.261ZM295.094 206.048C294.115 207.204 293.124 208.346 292.119 209.473L291.247 208.695C292.245 207.577 293.229 206.442 294.203 205.293L295.094 206.048ZM290.596 211.155C289.569 212.272 288.526 213.37 287.465 214.444L286.633 213.624C287.684 212.56 288.717 211.472 289.736 210.364L290.596 211.155ZM49.9227 213.52C49.4818 212.84 49.0249 212.134 48.5658 211.408L49.5534 210.784C50.0088 211.504 50.4627 212.205 50.9038 212.886L50.9041 212.886C51.1664 213.292 51.2871 213.816 51.3681 214.27L50.2177 214.475C50.1377 214.027 50.0462 213.712 49.9227 213.52ZM285.852 216.045C284.762 217.105 283.653 218.138 282.521 219.141L281.746 218.267C282.863 217.277 283.96 216.256 285.038 215.208L285.852 216.045ZM51.0363 217.137C50.6547 216.757 50.5071 216.17 50.4174 215.704L51.565 215.483C51.6578 215.966 51.7623 216.211 51.8614 216.309L51.8626 216.311C52.2883 216.736 52.7583 217.074 53.2649 217.35L52.7056 218.376C52.1121 218.052 51.5495 217.65 51.0363 217.137ZM57.4325 219.806C56.4881 219.621 55.5091 219.43 54.5862 219.148L54.9286 218.031C55.7879 218.294 56.6787 218.468 57.6053 218.649C57.939 218.714 58.2774 218.78 58.6207 218.852L58.3823 219.995C58.0721 219.931 57.7543 219.869 57.4325 219.806ZM61.8481 221.137C61.3304 220.852 60.7746 220.63 60.1879 220.447L60.5361 219.332C61.1769 219.532 61.809 219.782 62.4119 220.114C62.9369 220.403 63.4223 220.71 63.8725 221.033L63.1904 221.982C62.7792 221.686 62.3334 221.404 61.8486 221.137L61.8481 221.137ZM280.798 220.628C279.633 221.606 278.445 222.551 277.229 223.457L276.53 222.521C277.727 221.629 278.898 220.698 280.046 219.734L280.798 220.628ZM65.2804 223.898C65.0115 223.584 64.7222 223.279 64.4091 222.985L65.2102 222.134C65.6427 222.541 66.0336 222.966 66.3895 223.404C66.5156 223.559 66.5535 223.768 66.4899 223.958C66.1202 225.06 65.8919 226.102 65.7606 227.13L64.6015 226.982C64.7296 225.978 64.9444 224.962 65.2804 223.898ZM275.38 224.791C274.133 225.66 272.858 226.488 271.552 227.27L270.952 226.267C272.234 225.5 273.486 224.687 274.712 223.832L275.38 224.791ZM269.572 228.405C268.906 228.771 268.232 229.125 267.55 229.466L267.55 229.466C266.845 229.818 265.789 229.934 264.636 229.947L264.623 228.779C265.766 228.766 266.583 228.643 267.027 228.421C267.696 228.087 268.357 227.74 269.01 227.382L269.572 228.405ZM251.135 228.698C250.585 228.698 249.913 228.75 249.14 228.85L248.99 227.692C249.792 227.588 250.517 227.53 251.135 227.53C251.856 227.53 252.82 227.615 253.901 227.736L253.771 228.897C252.692 228.776 251.785 228.698 251.135 228.698ZM247.117 229.177C245.879 229.41 244.513 229.718 243.088 230.08L242.8 228.948C244.243 228.581 245.634 228.268 246.901 228.029L247.117 229.177ZM261.874 229.832C260.129 229.693 258.218 229.451 256.456 229.227L256.604 228.068C258.371 228.292 260.254 228.531 261.967 228.668L261.874 229.832ZM241.087 230.613C239.767 230.98 238.427 231.382 237.12 231.802L236.762 230.69C238.084 230.265 239.439 229.858 240.774 229.487L241.087 230.613ZM64.6442 233.835C64.5568 232.651 64.4767 231.529 64.4501 230.437L65.6183 230.409C65.6442 231.468 65.7219 232.562 65.8096 233.749C65.8781 234.665 65.9789 235.429 66.1144 236.066L64.9714 236.309C64.8216 235.605 64.7152 234.785 64.6443 233.835L64.6442 233.835ZM235.155 232.456C233.769 232.935 232.456 233.425 231.284 233.905L230.842 232.823C232.038 232.334 233.371 231.836 234.774 231.352L235.155 232.456ZM229.401 234.725C228.698 235.053 228.096 235.366 227.613 235.656C226.853 236.111 226.251 236.612 225.746 237.142L224.9 236.335C225.475 235.733 226.158 235.166 227.011 234.654C227.54 234.337 228.181 234.005 228.906 233.667L229.401 234.725ZM70.8667 240.377C68.7606 240.409 67.0492 240.234 65.962 238.762L66.9023 238.068C67.6016 239.015 68.714 239.241 70.8493 239.209L70.8667 240.377ZM223.707 240.031C223.052 241.137 222.353 242.315 221.31 243.36L220.483 242.536C221.412 241.604 222.012 240.593 222.653 239.513C222.858 239.168 223.068 238.816 223.293 238.457L224.283 239.078C224.089 239.386 223.9 239.705 223.707 240.031ZM77.0103 240.493C76.5065 240.335 76.0867 240.235 75.6953 240.237C74.8341 240.242 74.037 240.267 73.2972 240.295L73.2531 239.127C73.9983 239.099 74.8101 239.074 75.6901 239.068H75.6918C76.2707 239.067 76.8321 239.212 77.3618 239.379L77.0103 240.493ZM85.3331 240.536C85.0655 240.5 84.7243 240.513 84.3191 240.566L84.1653 239.408C84.6157 239.349 85.0747 239.322 85.4913 239.379C85.9073 239.436 86.3391 239.584 86.6603 239.927L86.6608 239.927C87.1866 240.489 87.7497 241.014 88.3427 241.508L87.5943 242.405C86.9687 241.884 86.3698 241.327 85.8072 240.725L86.228 240.332L85.8077 240.726L85.8072 240.725C85.7369 240.65 85.6006 240.573 85.3331 240.536ZM80.0756 241.289C80.401 241.32 80.7729 241.281 81.138 241.22ZM93.6599 246.367C92.2647 245.592 90.8653 244.782 89.5393 243.871L90.201 242.908C91.4806 243.787 92.8415 244.576 94.2274 245.346L93.6599 246.367ZM219.163 244.993C218.466 245.392 217.663 245.751 216.726 246.063C215.898 246.339 215.026 246.5 214.137 246.593L214.016 245.431C214.846 245.345 215.63 245.197 216.357 244.955C217.228 244.665 217.959 244.335 218.583 243.979L219.163 244.993ZM176.163 245.893C175.799 245.885 175.353 245.925 174.832 246.012L174.639 244.86C175.203 244.765 175.727 244.715 176.189 244.725C176.644 244.735 177.082 244.805 177.445 244.987C177.818 245.173 178.179 245.355 178.532 245.532C179.056 245.795 179.561 246.049 180.054 246.293L179.535 247.34C179.039 247.094 178.528 246.838 178.001 246.573C177.649 246.396 177.29 246.215 176.923 246.032C176.778 245.959 176.534 245.901 176.163 245.893ZM172.475 246.577C171.057 246.992 169.459 247.563 167.826 248.204L167.399 247.116C169.05 246.468 170.683 245.884 172.146 245.455L172.475 246.577ZM211.561 246.709C210.918 246.71 210.285 246.699 209.657 246.687C208.606 246.668 207.571 246.649 206.542 246.692L206.493 245.525C207.55 245.48 208.656 245.5 209.738 245.52C210.357 245.531 210.968 245.542 211.558 245.541L211.561 246.709ZM204.126 246.953C203.326 247.109 202.577 247.343 201.888 247.687C201.618 247.822 201.387 248.066 201.166 248.419L200.176 247.8C200.453 247.356 200.825 246.912 201.365 246.642C202.169 246.241 203.023 245.978 203.902 245.807L204.126 246.953ZM97.8122 248.677C97.1385 248.284 96.449 247.9 95.7497 247.516L96.3129 246.492C97.0149 246.878 97.7147 247.268 98.4012 247.668C99.0835 248.066 99.7708 248.47 100.462 248.878L99.8687 249.884C99.1776 249.477 98.4923 249.074 97.8126 248.678L97.8122 248.677ZM187.832 250.498C185.811 250.073 184.027 249.423 182.192 248.604L182.669 247.537C184.454 248.334 186.156 248.952 188.073 249.355L187.832 250.498ZM165.533 249.137C163.932 249.809 162.372 250.506 160.994 251.141L160.505 250.08C161.892 249.441 163.465 248.739 165.08 248.06L165.533 249.137ZM200.582 249.57C200.374 250.011 200.123 250.53 199.761 250.891C199.609 251.044 199.417 251.124 199.266 251.172C199.105 251.223 198.926 251.256 198.745 251.278C198.383 251.322 197.947 251.33 197.499 251.32L197.524 250.152C197.952 250.161 198.323 250.152 198.604 250.118C198.745 250.101 198.847 250.079 198.914 250.058C198.934 250.052 198.948 250.047 198.957 250.043C199.142 249.847 199.311 249.527 199.524 249.073L200.582 249.57ZM193.754 251.062C192.694 251.062 191.71 251.019 190.785 250.935L190.89 249.772C191.778 249.852 192.726 249.894 193.754 249.894C193.989 249.894 194.458 249.936 195.002 249.984C195.219 250.003 195.448 250.024 195.679 250.043L195.583 251.207C195.303 251.184 195.043 251.161 194.81 251.14C194.31 251.096 193.935 251.062 193.754 251.062ZM106.067 253.497C104.667 252.706 103.286 251.899 101.926 251.098L102.519 250.091C103.877 250.891 105.251 251.694 106.642 252.48L106.067 253.497ZM158.749 252.194C157.765 252.664 156.99 253.046 156.524 253.279C156.171 253.455 155.754 253.867 155.28 254.531L154.329 253.851C154.83 253.151 155.384 252.543 156.001 252.234L156.001 252.234C156.473 251.998 157.254 251.613 158.245 251.14L158.749 252.194ZM112.437 256.856C110.994 256.164 109.569 255.425 108.163 254.661L108.721 253.634C110.114 254.391 111.522 255.121 112.942 255.803L112.437 256.856ZM152.785 259.014C152.64 259.303 152.494 259.594 152.347 259.885L151.304 259.357C151.447 259.075 151.59 258.79 151.734 258.505C152.226 257.526 152.719 256.544 153.207 255.665L154.229 256.232C153.753 257.088 153.275 258.04 152.785 259.014ZM119.12 259.615C117.605 259.104 116.105 258.512 114.624 257.862L115.094 256.792C116.548 257.431 118.015 258.01 119.494 258.508L119.12 259.615ZM123.789 260.898C123 260.733 122.215 260.541 121.433 260.325L121.745 259.199C122.504 259.409 123.265 259.595 124.028 259.755C124.729 259.901 125.433 260.027 126.139 260.135L125.963 261.289C125.237 261.179 124.513 261.05 123.789 260.898ZM132.52 261.907C131.064 261.83 129.604 261.729 128.147 261.572L128.273 260.41C129.701 260.564 131.137 260.664 132.582 260.74L132.52 261.907ZM135.589 262.047C135.293 262.035 134.997 262.023 134.7 262.01L134.75 260.843C135.046 260.855 135.343 260.868 135.64 260.88C136.794 260.929 137.952 260.977 139.107 261.042L139.042 262.209C137.893 262.144 136.744 262.096 135.589 262.047ZM151.382 261.732C151.03 262.376 150.671 262.993 150.304 263.549C150.163 263.764 149.898 263.86 149.652 263.788C148.965 263.587 148.275 263.411 147.581 263.257L147.834 262.117C148.41 262.245 148.985 262.387 149.559 262.547C149.825 262.121 150.09 261.659 150.357 261.172L151.382 261.732ZM145.476 262.855C144.062 262.625 142.636 262.469 141.2 262.354L141.293 261.189C142.751 261.306 144.21 261.466 145.663 261.702L145.476 262.855Z" fill="#7400BD"/></svg>