<svg width="72" height="115" viewBox="0 0 72 115" fill="none" xmlns="http://www.w3.org/2000/svg"><path fill-rule="evenodd" clip-rule="evenodd" d="M52.2174 109.932C52.6888 109.745 53.1562 109.551 53.6119 109.325C53.908 109.177 54.2001 109.013 54.4805 108.826C55.2674 108.285 56.0698 107.779 56.8761 107.273C57.6785 106.766 58.4887 106.272 59.299 105.777C63.0462 103.495 66.9103 101.393 70.6224 99.0327C70.9847 98.8146 71.456 98.9275 71.6741 99.2897C71.8923 99.6518 71.7793 100.123 71.4171 100.341C67.6114 102.557 63.6149 104.426 59.8248 106.654C59.0185 107.129 58.2239 107.627 57.4449 108.149C56.6736 108.667 55.9257 109.224 55.1856 109.796C54.874 110.034 54.5468 110.248 54.2118 110.443C52.977 111.159 51.5942 111.615 50.4451 112.432C50.1646 112.631 49.7751 112.872 49.3778 113.106C48.5871 113.57 47.7691 113.994 47.7691 113.994C47.3873 114.185 46.9199 114.06 46.6901 113.698C46.4603 113.336 46.5382 112.857 46.8732 112.592L49.3272 110.591C49.9309 110.069 50.4918 109.508 51.0294 108.92C51.8552 108.02 52.6265 107.066 53.4016 106.108C54.6247 104.609 55.9569 103.18 57.328 101.77C58.2745 100.801 59.2444 99.8465 60.2066 98.8886C62.4814 96.6416 64.7562 94.4142 66.8986 92.2101C67.1595 91.9492 67.588 91.9492 67.8529 92.2101C68.1139 92.4749 68.1139 92.9033 67.8529 93.1642C65.9559 95.0061 63.9265 96.8285 61.936 98.725C61.1063 99.5233 60.2767 100.329 59.4743 101.159C57.6902 103.005 56.0192 104.948 54.5117 106.973C53.7639 107.978 53.0238 108.982 52.2174 109.932Z" fill="#7400BD"/><path fill-rule="evenodd" clip-rule="evenodd" d="M56.1597 98.7603C56.7284 98.9161 57.3283 99.0368 57.9165 99.2704C58.1502 99.3639 58.38 99.4729 58.5942 99.6092C58.9487 99.8351 59.2174 100.143 59.5446 100.411C59.6771 100.52 59.8056 100.633 59.9458 100.727C60.4133 101.023 60.908 101.225 61.3287 101.537C61.5896 101.732 61.8584 101.918 62.0532 102.168C62.3453 102.534 62.4816 102.982 62.5907 103.429C62.7076 103.784 63.0893 103.975 63.4437 103.858C63.7982 103.741 63.9891 103.355 63.8684 103.005C63.6152 102.394 63.2023 101.891 62.7855 101.358C62.3297 100.774 61.8896 100.154 61.2819 99.6326C61.1417 99.5119 60.9937 99.3873 60.834 99.2899C60.6743 99.1926 60.5029 99.1186 60.3276 99.0485C59.9225 98.8888 59.5096 98.7993 59.0928 98.6552C58.9526 98.6046 58.8123 98.5501 58.6799 98.4839C57.9866 98.1334 57.3711 97.7011 56.7479 97.3507C56.3584 97.1871 55.9104 97.3701 55.7468 97.7595C55.5832 98.1489 55.7702 98.6007 56.1597 98.7603Z" fill="#7400BD"/><path fill-rule="evenodd" clip-rule="evenodd" d="M65.1728 86.6219C64.6119 86.4934 63.8601 86.5168 63.1278 86.6336C62.2358 86.7699 61.371 87.0503 60.8491 87.3229C60.1012 87.724 59.4818 88.2342 58.9248 88.8066C58.0484 89.7101 57.3473 90.7731 56.6111 91.8479C55.7424 93.0824 54.9088 94.2584 54.0675 95.4111C53.4988 96.1822 52.9262 96.9376 52.3809 97.732C51.8199 98.5537 51.2668 99.3987 50.7604 100.318C50.2346 101.276 49.9931 102.444 49.549 103.472C49.327 103.982 49.0738 104.461 48.7115 104.878C48.0338 105.692 46.3316 106.548 44.8436 106.591C43.6789 106.622 42.6623 106.175 42.1676 105.022C41.9923 104.621 41.9572 104.029 42.0234 103.375C42.1403 102.195 42.5804 100.781 42.7596 100.189C42.892 99.7882 43.3245 99.574 43.7257 99.7064C44.1269 99.8388 44.345 100.275 44.2087 100.672C44.0412 101.139 43.6477 102.171 43.4374 103.141C43.3205 103.69 43.2231 104.212 43.3478 104.551C43.6633 105.392 44.5319 105.532 45.3928 105.411C46.4172 105.263 47.469 104.745 47.9403 104.216C48.2207 103.877 48.4272 103.495 48.583 103.083C48.9959 101.996 49.1361 100.766 49.6036 99.7375C50.2112 98.3901 50.889 97.1635 51.6369 95.9913C51.9757 95.4578 52.3302 94.9321 52.7041 94.4181C53.5416 93.2615 54.4609 92.1517 55.3685 90.9484C56.2137 89.8502 57.0279 88.7715 58.0094 87.8642C58.6872 87.2411 59.4351 86.6959 60.3271 86.2792C61.0439 85.9366 62.3059 85.6211 63.5017 85.5043C64.3587 85.4186 65.1806 85.4342 65.7688 85.6212C65.9752 85.6874 66.1894 85.8898 66.2751 86.2481C66.3686 86.6064 66.3336 87.2528 66.3375 87.4475C66.353 88.2419 66.1076 89.1259 65.6519 89.8658C65.1728 90.6408 64.46 91.2482 63.5757 91.4858C63.2135 91.5792 62.8474 91.3573 62.7578 90.9951C62.6682 90.6369 62.8863 90.2708 63.2486 90.1812C63.8173 90.0488 64.273 89.6672 64.5924 89.1882C64.9469 88.6625 65.1572 88.0277 65.1689 87.4475C65.1689 87.3307 65.1728 86.8478 65.1728 86.6219Z" fill="#7400BD"/><path fill-rule="evenodd" clip-rule="evenodd" d="M59.3808 73.9037C59.3652 73.6038 59.3341 73.0664 59.3302 72.9846C59.3068 71.8125 58.442 70.9169 58.0798 69.9433C57.9473 69.5968 57.8694 69.2424 57.8617 68.8725C57.8617 68.4986 58.1655 68.1987 58.5355 68.1987C58.9095 68.1987 59.2133 68.4986 59.2133 68.8725C59.2016 69.3436 59.4003 69.7875 59.6184 70.2393C59.8833 70.7922 60.1832 71.3491 60.3468 71.9527C60.4364 72.2837 60.4909 72.6264 60.487 72.9846C60.4831 73.1132 60.5338 73.8959 60.4987 74.2074C60.4559 74.5579 60.2494 74.7253 60.156 74.7681C59.9924 74.846 59.8209 74.9122 59.634 74.9706C59.0614 75.1459 58.3875 75.2238 57.8422 75.4302C57.3669 75.6171 56.8956 75.8624 56.4321 76.1272C55.7076 76.54 55.0103 77.0151 54.3442 77.424C53.8301 77.7433 53.2808 78.0237 52.7121 78.2885C51.4695 78.8648 50.149 79.3438 48.9649 79.9435C48.5948 80.1226 48.2326 80.3251 47.8703 80.5354C47.4302 80.7846 46.9978 81.0533 46.5615 81.322C45.5098 81.9684 44.4581 82.6344 43.4025 83.2341C42.3625 83.8299 41.2952 84.7878 40.2396 85.7886C39.5384 86.4506 38.845 87.1399 38.1244 87.7123C37.2129 88.4366 36.2703 89.0012 35.2575 89.2271C34.5369 89.3945 33.9292 89.2505 33.3839 88.9506C32.4062 88.4132 31.6739 87.2061 30.8208 86.4428C30.5131 86.1547 30.5015 85.6679 30.7936 85.3641C31.0857 85.0565 31.5687 85.0448 31.8764 85.3368C32.523 85.995 33.0528 86.9646 33.7462 87.5877C34.0967 87.9031 34.4902 88.1251 35.0199 88.0355C35.8769 87.8875 36.691 87.4514 37.4701 86.8673C38.179 86.3416 38.8723 85.7107 39.5267 85.0526C40.6174 83.9544 41.6301 82.8135 42.6896 82.093C43.7569 81.3648 44.7892 80.5237 45.8799 79.7916C46.6472 79.2776 47.4458 78.8298 48.2638 78.4481C49.4947 77.9107 50.858 77.4902 52.1512 76.98C52.6849 76.7698 53.2029 76.5478 53.6937 76.2908C54.391 75.9169 55.1311 75.4886 55.8828 75.1069C56.4048 74.846 56.9307 74.5968 57.4604 74.4138C57.959 74.2269 58.5628 74.1373 59.1042 73.9893C59.2016 73.9621 59.2912 73.9348 59.3808 73.9037Z" fill="#7400BD"/><path fill-rule="evenodd" clip-rule="evenodd" d="M44.3532 76.5678C44.396 76.6106 44.5051 76.6846 44.6297 76.852C44.7115 76.9572 44.8128 77.0662 44.879 77.2259C44.9024 77.2804 44.9102 77.3388 44.9141 77.4011C44.9258 77.5997 44.879 77.7399 44.8868 77.958C44.8868 78.0359 44.8868 78.1099 44.9219 78.18C45.1011 78.5733 45.5101 78.7446 45.7321 79.0406C45.9814 79.3716 46.1411 79.6598 46.3553 79.8233C46.6864 79.9908 47.0915 79.8545 47.259 79.5235C47.4265 79.1886 47.2902 78.7836 46.9591 78.6161C46.9279 78.6122 46.8929 78.6511 46.8617 78.6317C46.7877 78.581 46.6864 78.5382 46.6319 78.4409C46.48 78.1877 46.5968 77.8295 46.4644 77.5062C46.4371 77.4439 46.3865 77.3933 46.3398 77.3427C46.1956 77.1908 46.032 77.1519 45.919 76.9961C45.8528 76.9104 45.8178 76.8131 45.7944 76.7196C45.697 76.3069 45.7477 76.0109 45.7321 75.9057C45.549 75.5241 45.0933 75.3645 44.7115 75.5475C44.3298 75.7305 44.1701 76.1861 44.3532 76.5678Z" fill="#7400BD"/><path fill-rule="evenodd" clip-rule="evenodd" d="M31.9411 81.7805C33.4953 79.7361 35.2481 77.6994 37.2191 75.8808C37.8034 75.3434 38.415 74.8333 39.0382 74.3427C40.5184 73.1783 42.0726 72.1425 43.6034 71.1689C44.2539 70.7055 44.9356 70.2927 45.6212 69.8761C46.6729 69.2296 47.7324 68.591 48.7685 67.9329C49.532 67.4422 50.276 66.936 50.9811 66.3791C51.8146 65.7522 52.7183 65.094 53.6687 64.5099C54.627 63.9219 55.6203 63.4157 56.5512 62.9756C56.9018 62.8121 57.3264 62.5161 57.7471 62.3058C57.938 62.2084 58.121 62.1267 58.2924 62.1345C58.6663 62.1345 58.9663 61.8307 58.9663 61.4608C58.9663 61.0869 58.6663 60.7832 58.2924 60.7832C57.9964 60.791 57.6808 60.8805 57.3692 61.0363C56.8901 61.2699 56.4032 61.6633 56.002 61.8774C55.2463 62.2785 54.4595 62.7419 53.6687 63.2326C53.213 63.513 52.7612 63.8089 52.3093 64.0971C51.6082 64.5371 50.9148 64.9694 50.276 65.4095C48.3634 66.7062 46.1821 67.6253 44.1644 68.8169C43.6424 69.1245 43.1399 69.4672 42.6491 69.8137C40.8963 71.1767 39.2018 72.7149 37.4918 74.2648C36.7751 74.9151 36.0389 75.5499 35.3261 76.2041C33.7017 77.6956 32.1397 79.2221 30.753 80.8187C30.4882 81.1458 30.5349 81.6287 30.866 81.8935C31.1932 82.1622 31.6762 82.1115 31.9411 81.7805Z" fill="#7400BD"/><path fill-rule="evenodd" clip-rule="evenodd" d="M29.1001 76.1734C30.3271 76.0643 31.5229 75.7995 32.711 75.4491C34.308 74.974 35.8545 74.2886 37.4126 73.6694C38.4487 73.2566 39.4965 72.9023 40.5171 72.544C41.6662 72.1507 42.827 71.8392 43.9761 71.477C44.7473 71.2317 45.5108 70.963 46.2743 70.6904C48.2063 70.005 50.1033 69.2496 51.9652 68.3695C52.643 68.0619 53.4766 67.6101 54.3063 67.283C54.8438 67.0689 55.3813 66.9131 55.8488 66.8586C56.6356 66.7651 57.7691 66.66 58.6845 66.3562C59.1948 66.1849 59.6349 65.9474 59.9544 65.6397C60.2192 65.3788 60.2192 64.9505 59.9544 64.6896C59.6934 64.4248 59.2649 64.4248 59 64.6896C58.7507 64.9544 58.3534 65.1296 57.9172 65.2698C57.1615 65.5073 56.3045 65.628 55.6851 65.7293C55.2683 65.7994 54.8087 65.9473 54.3335 66.1187C53.3636 66.4692 52.3119 66.952 51.5016 67.283C49.6514 67.9957 47.7583 68.5292 45.8769 69.1094C45.0628 69.3586 44.2448 69.6117 43.4424 69.9038C42.2816 70.3204 41.1598 70.8189 40.0341 71.3329C38.9707 71.8119 37.9151 72.3571 36.8127 72.8205C35.7376 73.2683 34.6236 73.6383 33.5056 73.9537C32.0371 74.3704 30.5414 74.6274 29.0261 74.643C28.6054 74.6663 28.2782 75.0207 28.2977 75.4452C28.3172 75.8657 28.6755 76.1928 29.1001 76.1734Z" fill="#7400BD"/><path fill-rule="evenodd" clip-rule="evenodd" d="M27.1892 73.3932C28.3889 72.5754 29.5926 71.7615 30.8235 70.9788C32.0505 70.1999 33.2775 69.4094 34.5512 68.7085C36.8494 67.4429 39.2878 66.4654 41.6328 65.305C43.2026 64.53 44.7256 63.6811 46.2837 62.9062C47.5457 62.2597 48.7883 61.5238 50.062 60.8306C50.8917 60.3789 51.737 59.9427 52.5862 59.5338C54.0157 58.8484 55.4725 58.2643 56.9255 57.8204C57.2799 57.7036 57.4708 57.318 57.354 56.9676C57.2332 56.6132 56.8515 56.4224 56.5009 56.5392C55.7452 56.8157 55.0012 57.1311 54.2533 57.4738C53.1042 58.0034 51.9746 58.6187 50.8216 59.2028C49.1233 60.0634 47.3938 60.8812 45.6799 61.6172C44.4685 62.139 43.2532 62.6453 42.0612 63.2216C41.2705 63.6032 40.4876 64.0121 39.7202 64.4405C37.9206 65.4335 36.2106 66.5706 34.4343 67.6064C33.6397 68.0699 32.8217 68.5021 32.0154 68.946C30.1223 69.9897 28.2292 71.0177 26.3712 72.1003C26.0167 72.3261 25.9077 72.7974 26.1336 73.1556C26.3595 73.51 26.8308 73.619 27.1892 73.3932Z" fill="#7400BD"/><path fill-rule="evenodd" clip-rule="evenodd" d="M21.4676 64.4722C21.7715 65.8313 22.4726 66.8594 23.4581 67.3968C24.3813 67.8952 25.5654 68.0043 26.9366 67.4591C27.7078 67.1592 28.4012 66.6101 29.0439 65.9286C29.671 65.2666 30.2397 64.4723 30.8123 63.7129C31.3966 62.9457 31.9809 62.2214 32.5573 61.6762C33.9324 60.4067 35.3814 59.0321 36.8655 57.6769C37.8081 56.8163 38.7625 55.9596 39.7752 55.1964C40.8581 54.3786 41.9838 53.6426 43.2069 53.1129C44.3521 52.6184 45.8012 51.6332 47.2035 51.1464C47.7722 50.9517 48.3331 50.8388 48.8472 50.9011C48.9212 50.9128 48.9641 50.9906 49.0186 51.0685C49.151 51.2632 49.2407 51.5358 49.2913 51.8162C49.377 52.264 49.4003 52.7586 49.2056 52.9767C48.9407 53.2765 48.6291 53.5296 48.3019 53.7672C47.4255 54.4019 46.44 54.916 45.6999 55.6208C45.4389 55.8856 45.4389 56.3101 45.6999 56.5749C45.9647 56.8397 46.3932 56.8397 46.6542 56.5749C47.4255 55.7727 48.5161 55.2041 49.4003 54.4331C49.6457 54.215 49.8795 53.9853 50.0898 53.736C50.4871 53.2532 50.565 52.1199 50.269 51.2126C50.0275 50.461 49.5406 49.912 48.9992 49.8419C48.3331 49.7367 47.6086 49.8497 46.8568 50.0755C45.4116 50.5078 43.8808 51.3918 42.6927 51.824C40.8815 52.4977 39.2027 53.5219 37.6601 54.7602C36.9902 55.2976 36.3435 55.8739 35.732 56.4814C34.2907 57.9067 33.0053 59.4566 31.7238 60.8429C31.1473 61.4582 30.5981 62.2798 29.9982 63.1093C29.4684 63.8414 28.8958 64.5735 28.2765 65.1849C27.7428 65.7145 27.1664 66.1389 26.5353 66.3531C25.5654 66.6724 24.7513 66.6101 24.1359 66.2285C23.497 65.8352 23.1192 65.0953 22.9673 64.1802C22.8855 63.7635 22.4843 63.4948 22.0714 63.5727C21.6585 63.6544 21.3858 64.0556 21.4676 64.4722Z" fill="#7400BD"/><path fill-rule="evenodd" clip-rule="evenodd" d="M21.533 60.3959C21.8213 60.4699 22.0355 60.7346 22.0355 61.0501C22.0355 61.42 21.7356 61.7238 21.3616 61.7238C21.089 61.6848 20.8046 61.5875 20.5981 61.3032C20.419 61.0579 20.2865 60.6763 20.1268 60.3452C20.0294 60.1389 19.9009 59.9792 19.8308 59.8818C19.6789 59.6871 19.5036 59.5313 19.3361 59.3405C19.227 59.2198 19.1024 59.1108 19.0128 58.9706C18.7713 58.5967 18.7167 58.1528 18.4557 57.7867C18.3545 57.6427 18.222 57.5219 18.0935 57.4051C17.7585 57.1092 17.4079 56.8872 17.0807 56.6419C16.8002 56.3264 16.8275 55.8436 17.1391 55.5593C17.4546 55.2789 17.9377 55.3023 18.222 55.6177C18.4908 56.0383 18.7245 56.5095 19.079 56.9378C19.1452 57.0196 19.2231 57.0897 19.3088 57.1559C19.562 57.3545 19.823 57.4908 20.0723 57.6933C20.1775 57.779 20.2787 57.8647 20.3644 57.9698C20.4579 58.0827 20.5241 58.2112 20.5903 58.3397C20.75 58.663 20.8669 58.9823 20.9604 59.3133C21.0072 59.4574 21.0344 59.7183 21.1435 59.9792C21.2214 60.1622 21.5135 60.2752 21.533 60.3959ZM21.3772 60.3764C21.3694 60.3725 21.3655 60.3725 21.3616 60.3764H21.3772Z" fill="#7400BD"/><path fill-rule="evenodd" clip-rule="evenodd" d="M48.3781 43.2496C47.2562 43.4482 46.1773 43.8104 45.1256 44.2621C43.7233 44.8618 42.3872 45.6523 41.0239 46.3766C40.128 46.8478 39.2126 47.2645 38.305 47.6539C36.9105 48.2224 35.5238 48.7949 34.1761 49.4608C33.5996 49.7451 33.0387 50.0527 32.4817 50.3682C29.8758 51.8479 27.414 53.5497 24.8314 55.01C23.1019 55.9874 21.318 56.8402 19.5417 57.6775C19.2067 57.8449 19.0743 58.2499 19.2379 58.5809C19.4054 58.9158 19.8105 59.0521 20.1455 58.8847C22.023 57.8956 23.8499 56.7818 25.7313 55.7421C28.3216 54.3051 31.0054 53.024 33.6502 51.6299C34.1722 51.3534 34.6942 51.073 35.2083 50.7809C36.412 50.1033 37.5922 49.3946 38.8153 48.7443C39.5827 48.351 40.3345 47.8954 41.1135 47.4748C42.247 46.8712 43.4195 46.3065 44.6036 45.8198C45.8929 45.2902 47.2173 44.9008 48.5884 44.7606C49.0052 44.706 49.2974 44.3166 49.2428 43.8999C49.1805 43.4832 48.7949 43.1912 48.3781 43.2496Z" fill="#7400BD"/><path fill-rule="evenodd" clip-rule="evenodd" d="M14.7487 50.9126C15.0253 50.9126 15.8549 50.9126 15.9874 50.9165C16.8989 50.9398 17.7753 50.7218 18.6167 50.3713C19.9605 49.8145 21.2148 48.9499 22.4184 48.2373C23.1936 47.7388 23.9999 47.2754 24.8257 46.8198C26.6915 45.784 28.6392 44.7949 30.6647 43.9732C31.8099 43.5059 32.9746 43.0931 34.1393 42.7076C35.9155 42.1157 37.6995 41.6133 39.4134 41.0915C40.7534 40.6826 42.1479 40.449 43.5073 40.1141C44.0683 39.9739 44.6253 39.8103 45.1667 39.6195C45.529 39.4793 46.0977 39.343 46.5846 39.1327C46.8222 39.0315 47.0442 38.9225 47.1494 38.7589C47.4026 38.3656 47.4221 37.9256 47.3519 37.4777C47.239 36.7495 46.8845 36.0019 46.6041 35.3048C46.3431 34.6506 46.1444 34.0353 46.1327 33.5057C46.1327 33.1358 46.4366 32.832 46.8066 32.832C47.1805 32.832 47.4844 33.1358 47.4844 33.5057C47.461 34.5377 48.3686 35.9824 48.5244 37.3181C48.6101 38.0502 48.5166 38.755 48.0804 39.382C47.909 39.6351 47.6207 39.8532 47.2663 40.0245C46.717 40.2893 45.9847 40.4607 45.5445 40.6242C45.1628 40.7722 44.7733 40.9007 44.3838 41.0253C42.8841 41.5004 41.326 41.8392 39.8419 42.3766C37.5047 43.21 35.078 44.129 32.624 45.0091C31.0192 45.5854 29.4026 46.1111 27.8406 46.7497C26.1384 47.4468 24.4907 48.2178 22.9521 49.1018C21.729 49.8807 20.4514 50.7997 19.0841 51.4344C18.1025 51.8939 17.0741 52.2015 15.9874 52.2288C15.8121 52.2366 15.0019 52.3573 14.515 52.3067C14.1411 52.2639 13.88 52.0964 13.7437 51.9328L12.4739 50.3401C12.2207 50.0013 12.2869 49.5224 12.6258 49.2692C12.9647 49.0161 13.4438 49.0823 13.697 49.4211L14.7487 50.9126Z" fill="#7400BD"/><path fill-rule="evenodd" clip-rule="evenodd" d="M30.6508 42.0394C30.7871 42.1718 30.943 42.2497 31.052 42.4288C31.0988 42.5028 31.1377 42.5846 31.1416 42.6741C31.1572 42.8727 31.0403 42.9739 31.0364 43.1764C31.0325 43.2426 31.0404 43.3088 31.0676 43.3672C31.204 43.6671 31.5195 43.7722 31.6636 44.0526C31.7649 44.2473 31.761 44.4576 31.8155 44.6562C32.0103 44.9716 32.4232 45.0768 32.7426 44.886C33.062 44.6951 33.1672 44.2785 32.9724 43.9592C32.8595 43.8462 32.7037 43.7722 32.6413 43.6126C32.5362 43.3478 32.7192 43.083 32.6413 42.8026C32.6258 42.7403 32.5868 42.6897 32.5478 42.639C32.4154 42.4872 32.2635 42.4794 32.1505 42.3158C32.096 42.2419 32.0726 42.1484 32.057 42.0588C32.0181 41.8174 32.0531 41.6305 32.0454 41.4124C31.8701 41.0269 31.4182 40.8555 31.0326 41.0269C30.647 41.2021 30.4755 41.6539 30.6508 42.0394Z" fill="#7400BD"/><path fill-rule="evenodd" clip-rule="evenodd" d="M43.0589 24.4105C42.72 24.4144 42.3772 24.4183 42.2331 24.4144C41.5086 24.4066 40.7334 24.6442 39.9427 24.9947C38.0379 25.8358 36.0903 27.3117 34.5945 28.0711C32.6625 29.0641 30.6759 29.9364 28.6854 30.7931C26.7105 31.6459 24.724 32.4831 22.7608 33.3671C21.0897 34.1187 19.4343 34.9092 17.8177 35.7815L11.6827 39.037C11.1491 39.3057 10.5453 39.664 9.92986 39.9288C9.44685 40.1391 8.95991 40.2871 8.48469 40.3299C8.11464 40.3571 7.78744 40.0807 7.76018 39.7107C7.72902 39.3369 8.00951 39.0137 8.37956 38.9864C8.71844 38.9592 9.06508 38.8501 9.40786 38.706C10.0077 38.4607 10.592 38.1219 11.1101 37.8727C11.9359 37.4716 12.7578 37.0627 13.5758 36.646C14.8067 36.0152 16.0298 35.3687 17.2568 34.7301C21.6428 32.4169 26.2938 30.7464 30.7772 28.6786C31.8874 28.1684 32.9819 27.6232 34.0609 27.0469C35.5567 26.2486 37.5043 24.7221 39.413 23.8303C40.3751 23.3747 41.3372 23.0865 42.2331 23.0749C42.5798 23.071 43.4757 22.9386 44.0444 23.0164C44.3911 23.0632 44.6599 23.1995 44.8235 23.3591C45.0182 23.5499 45.2052 24.0328 44.7495 24.5507C44.3015 25.0647 42.7745 26.1201 42.6694 26.2018C41.8981 26.7899 41.0801 27.3 40.2348 27.7751C38.3534 28.8304 36.3396 29.691 34.5089 30.832C34.0219 31.1358 33.5195 31.4122 33.0014 31.6693C31.0655 32.6389 28.9698 33.3593 27.0962 34.4886C26.1574 35.0377 25.2499 35.653 24.3501 36.2877C22.2116 37.7948 20.1315 39.4303 17.9307 40.8128C17.027 41.3774 16.1233 41.946 15.2352 42.5301C14.908 42.7443 14.5808 42.9585 14.2536 43.1804C14.3704 43.1298 14.4873 43.0831 14.6042 43.0325C15.6987 42.5963 16.8595 42.2458 17.9034 41.7785C19.7692 40.9218 21.6273 39.9132 23.4697 38.8384C26.2276 37.2263 28.9465 35.4661 31.603 33.889C33.9869 32.4637 36.6435 30.9995 39.3429 29.7572C41.1814 28.9161 43.0395 28.1801 44.8469 27.631C45.252 27.5142 45.6765 27.7439 45.7934 28.1528C45.9102 28.5578 45.6804 28.9823 45.2753 29.0991C43.0862 29.7105 40.8192 30.6062 38.6067 31.6264C36.3747 32.6545 34.2011 33.8111 32.2145 34.9404C29.0867 36.7317 25.8614 38.7567 22.6089 40.5363C21.1832 41.3151 19.7536 42.055 18.3241 42.7015C17.2724 43.1843 16.0999 43.5465 15.0053 44.006C14.5496 44.1929 14.1133 44.4032 13.7043 44.6447C13.4317 44.8043 13.0733 44.9639 12.7033 45.0885C12.3137 45.2171 11.9125 45.2989 11.5775 45.3066C11.4023 45.3066 11.0556 45.4157 10.8959 45.4118C10.6933 45.404 10.557 45.3222 10.4674 45.2443C10.2921 45.0963 10.1519 44.8588 10.3349 44.4811C10.4752 44.1851 10.7479 43.9125 11.0945 43.6672C11.6282 43.2934 12.3644 42.9857 12.75 42.7015C13.3265 42.2731 13.9147 41.8564 14.5029 41.4475C15.3832 40.8322 16.2713 40.2287 17.1672 39.6329C19.3096 38.2037 21.3156 36.5097 23.4035 34.9715C24.3267 34.29 25.2654 33.6436 26.2354 33.0517C26.7262 32.7558 27.2325 32.4832 27.7467 32.23C29.7177 31.2643 31.8172 30.5633 33.6636 29.4496C35.5372 28.3281 37.59 27.4908 39.5142 26.4628C40.305 26.0344 41.0762 25.5788 41.8046 25.0453C41.8553 25.0063 42.5175 24.726 43.0589 24.4105ZM43.6588 23.9705C43.7756 23.8381 43.8146 23.7174 43.7133 23.6278C43.6471 23.5655 43.6666 23.768 43.6627 23.807C43.6549 23.8654 43.651 23.9199 43.6588 23.9705Z" fill="#7400BD"/><path fill-rule="evenodd" clip-rule="evenodd" d="M5.55938 32.8122C5.76582 33.0419 5.97227 33.2249 6.1047 33.4819C6.16702 33.6066 6.21764 33.739 6.23322 33.8753C6.26438 34.1401 6.15534 34.3504 6.15924 34.6113C6.15924 34.7125 6.16702 34.8177 6.19818 34.915C6.3384 35.3784 6.68119 35.7094 6.84867 36.1611C6.96163 36.4688 6.985 36.792 7.08627 37.1113C7.25376 37.4462 7.65882 37.5825 7.9899 37.415C8.32488 37.2476 8.46122 36.8426 8.29373 36.5116C8.13014 36.2741 7.9315 36.0599 7.86138 35.7912C7.7679 35.4524 7.87305 35.1253 7.84579 34.7748C7.8341 34.6269 7.82634 34.475 7.7718 34.3348C7.65106 34.0194 7.40177 33.8363 7.23428 33.5287C7.19533 33.4625 7.16808 33.3885 7.1525 33.3106C7.05512 32.9134 7.02782 32.5279 6.91486 32.0996C6.72011 31.7257 6.25663 31.5816 5.8827 31.7802C5.50878 31.9749 5.36463 32.4383 5.55938 32.8122Z" fill="#7400BD"/><path fill-rule="evenodd" clip-rule="evenodd" d="M41.3771 16.672C38.7479 18.2413 36.0913 19.7795 33.3569 21.1658C32.6129 21.5397 31.8611 21.8863 31.1054 22.2328C29.337 23.0428 27.5374 23.7671 25.7884 24.6005C25.1184 24.9198 24.4562 25.2586 23.8057 25.6052C22.8202 26.1309 21.862 26.6917 20.8999 27.2485C19.0341 28.3467 17.2383 29.4915 15.3569 30.4923C14.1143 31.1544 12.825 31.7346 11.5084 32.2836C10.7722 32.5796 10.1802 32.969 9.52966 33.265C9.16741 33.4285 8.7857 33.5571 8.33774 33.6116C7.9677 33.6622 7.71057 34.0049 7.76511 34.3709C7.81575 34.7409 8.15856 34.9979 8.52861 34.9434C8.96877 34.8694 9.36217 34.7448 9.72443 34.5851C10.4918 34.2463 11.1306 33.7479 11.972 33.3662C12.6342 33.0664 13.2808 32.7471 13.9274 32.4316C14.7065 32.05 15.4777 31.6606 16.249 31.2712C18.033 30.3755 19.8092 29.476 21.6166 28.5609C22.5982 28.0585 23.5915 27.5834 24.577 27.085C25.2314 26.7539 25.8858 26.4152 26.5324 26.0647C28.2346 25.1457 29.894 24.1526 31.604 23.2297C32.3363 22.8364 33.0686 22.447 33.8126 22.0771C36.5782 20.7024 39.3945 19.4368 42.125 18.0076C42.4951 17.8012 42.6275 17.334 42.4211 16.964C42.2146 16.598 41.7472 16.4656 41.3771 16.672Z" fill="#7400BD"/><path fill-rule="evenodd" clip-rule="evenodd" d="M4.33162 29.6584C6.98039 28.0657 9.62526 26.4652 12.3519 25.0126C13.0881 24.6232 13.8399 24.2572 14.5917 23.8911C16.3524 23.0422 18.1481 22.2828 19.9009 21.4261C20.567 21.099 21.2293 20.7563 21.8837 20.4059C22.8653 19.8763 23.8313 19.3155 24.8012 18.7664C25.3465 18.4549 25.9113 18.194 26.4917 17.9603C27.9252 17.3801 29.4248 16.9439 30.8077 16.2625C32.4592 15.5381 34.0719 14.3894 35.7235 13.5093C36.409 13.1394 37.1102 12.8278 37.8114 12.6136C38.1658 12.4968 38.3567 12.1152 38.2398 11.7608C38.123 11.4065 37.7412 11.2156 37.3867 11.3324C36.8648 11.5193 36.3545 11.7608 35.8442 12.0256C33.9979 12.9952 32.2022 14.3933 30.3519 15.2656C28.9535 15.8497 27.4578 16.1885 26.0165 16.6675C25.3582 16.8855 24.7155 17.1348 24.0961 17.4424C23.1028 17.9409 22.0979 18.4159 21.1046 18.9261C20.4463 19.2648 19.7919 19.6114 19.1414 19.9697C17.4353 20.9199 15.7798 21.9441 14.0776 22.9059C13.3491 23.3148 12.6168 23.7276 11.8767 24.1131C9.12278 25.5462 6.32212 26.8741 3.57986 28.3266C3.21371 28.533 3.08128 29.0003 3.29162 29.3702C3.49807 29.7363 3.96547 29.8648 4.33162 29.6584Z" fill="#7400BD"/><path fill-rule="evenodd" clip-rule="evenodd" d="M5.6458 22.9204C7.34412 22.0987 9.12814 21.4679 10.8615 20.7007C11.6639 20.3464 12.4585 19.9608 13.222 19.5052C14.0049 19.0301 14.8191 18.6017 15.6449 18.1812C17.5302 17.2115 19.4778 16.3159 21.3669 15.4047C23.9573 14.1079 26.5788 12.815 29.1574 11.4482C30.8674 10.5409 32.558 9.59455 34.2056 8.60543C34.5718 8.39515 35.0392 8.51975 35.2495 8.8858C35.4638 9.25185 35.3353 9.71918 34.973 9.93336C33.2669 10.8757 31.5218 11.7636 29.7573 12.6281C27.1319 13.9132 24.4637 15.1399 21.8305 16.3626C20.2179 17.1376 18.539 17.8619 16.9264 18.6913C15.863 19.2404 14.8308 19.8401 13.8414 20.4904C13.0623 21.0083 12.2482 21.4601 11.4186 21.8768C9.54105 22.8231 7.58171 23.5863 5.77432 24.6494C5.39259 24.8675 4.71097 25.2374 4.115 25.4555C3.74105 25.5957 3.38657 25.6697 3.12559 25.6697L1.75446 25.6774C1.4 25.6774 1.08447 25.4555 0.963722 25.1284C0.839074 24.7935 0.936457 24.4235 1.20912 24.1938L2.19853 23.376C2.63479 23.0333 3.0321 22.7062 3.46058 22.3986C3.76051 22.1844 4.07211 21.9819 4.41879 21.7911C4.60576 21.6859 4.76547 21.573 4.91349 21.4484C5.38092 21.059 5.75874 20.6228 6.30797 20.249C7.19997 19.6415 8.1816 19.1469 9.11256 18.5745C9.48261 18.3486 9.84487 18.1111 10.1876 17.8424C11.142 17.0908 12.1586 16.4483 13.2103 15.8681C15.267 14.7349 17.4756 13.8781 19.6375 12.9357C21.7565 12.0128 23.8248 11.0081 25.7023 9.67633C26.6099 9.02211 27.7902 8.3718 28.8029 7.65138C29.2236 7.35153 29.6131 7.04388 29.9325 6.71288C30.1974 6.44029 30.6298 6.00414 31.0505 5.74323C31.3504 5.55242 31.6581 5.45117 31.9269 5.45117C32.2969 5.45117 32.6008 5.75101 32.6008 6.12485C32.6008 6.4948 32.2969 6.79854 31.9269 6.79854C31.7906 6.79464 31.6504 6.93094 31.5023 7.04777C31.2491 7.24248 31.0154 7.47223 30.8518 7.63189C30.474 8.00184 30.0144 8.35235 29.5197 8.68724C28.4913 9.3804 27.2994 10.0034 26.3723 10.6382C24.6584 11.8142 22.7809 12.706 20.8761 13.5627C19.022 14.3999 17.1445 15.2021 15.341 16.1367C13.8336 16.9234 12.3846 17.8151 11.068 18.925C10.694 19.2404 10.2967 19.5247 9.88771 19.7934C8.99959 20.3814 8.05304 20.8915 7.19999 21.5185C6.70919 21.8768 6.37812 22.3012 5.95743 22.6672C5.86005 22.7568 5.75486 22.8386 5.6458 22.9204Z" fill="#7400BD"/><path fill-rule="evenodd" clip-rule="evenodd" d="M19.4919 12.4008C19.6983 12.4903 19.9048 12.5643 20.1151 12.685C20.3138 12.8019 20.5202 12.9109 20.7033 13.0706C20.7734 13.1329 20.8318 13.2069 20.8902 13.2848C21.0577 13.5184 21.1474 13.7637 21.311 14.0091C21.3772 14.1064 21.4356 14.2077 21.5252 14.2895C21.9848 14.7179 22.6002 14.8814 23.0793 15.2241C23.4455 15.4811 23.7337 15.7887 24.0726 16.0107C24.4076 16.1781 24.8126 16.0418 24.9762 15.7108C25.1437 15.3759 25.0074 14.971 24.6764 14.8035C24.3647 14.6906 24.0181 14.5932 23.7298 14.3596C23.3909 14.0831 23.204 13.6586 22.8963 13.3043C22.7911 13.1835 22.6898 13.0628 22.5613 12.9694C22.2302 12.7279 21.8446 12.6617 21.5213 12.4281C21.3888 12.3307 21.2759 12.2022 21.1707 12.0815C20.8825 11.7583 20.6488 11.4428 20.3839 11.1547C20.0372 10.9093 19.5581 10.9911 19.3166 11.3338C19.0674 11.6765 19.1491 12.1554 19.4919 12.4008Z" fill="#7400BD"/><path fill-rule="evenodd" clip-rule="evenodd" d="M28.5416 3.97288C28.191 3.76259 27.8482 3.56791 27.782 3.51729C27.3769 3.22912 27.0029 2.92925 26.6446 2.62161C26.1031 2.1582 25.5967 1.67535 25.0787 1.18469C24.8177 0.919882 24.8177 0.491494 25.0787 0.230585C25.3436 -0.0342185 25.772 -0.0342185 26.033 0.230585C26.5121 0.732933 26.9756 1.21971 27.4781 1.6948C27.7975 1.99465 28.1287 2.28671 28.4948 2.57488C28.6117 2.66445 29.6361 3.2953 29.9906 3.59515C30.4502 3.98846 30.2555 4.45576 30.1425 4.5648C29.9127 4.79066 29.5816 4.92695 29.1881 4.99315C28.6428 5.08271 27.9534 5.02822 27.521 5.11389C26.9133 5.25019 26.2901 5.44491 25.6747 5.66298C25.0475 5.89274 24.436 6.15361 23.8673 6.40283C23.2908 6.65596 22.7182 6.9636 22.1456 7.28682C21.273 7.78527 20.4122 8.33434 19.5864 8.83669C19.2709 9.02361 18.9281 9.18327 18.5736 9.31956C17.8802 9.58047 17.1285 9.75184 16.4819 10.0712C14.729 10.85 13.0073 11.7184 11.3168 12.6686C10.752 12.984 10.1911 13.3072 9.64184 13.646C9.08872 13.9848 8.55115 14.3509 8.00971 14.7013C6.65806 15.6165 5.23241 16.2979 4.07163 17.2637C3.36659 17.8478 2.77451 18.5526 2.36941 19.5028C2.19023 19.8845 1.73449 20.048 1.35276 19.8689C0.967127 19.6898 0.803546 19.2342 0.982727 18.8525C1.56312 17.7154 2.34605 16.8938 3.26143 16.224C4.51181 15.3049 5.99978 14.6741 7.44492 13.8134C8.21228 13.3267 8.9952 12.8594 9.75867 12.3648C10.9117 11.6133 12.0374 10.8305 13.2021 10.1062C14.0396 9.58437 14.8887 9.08204 15.7496 8.60695C15.9677 8.49012 16.1936 8.38496 16.4273 8.2954C17.2025 7.99165 18.0672 7.81641 18.7762 7.41921C19.6409 6.9597 20.5446 6.4496 21.4639 6.00177C22.0988 5.69024 22.7376 5.40207 23.3726 5.17231C24.101 4.9114 24.8956 4.64268 25.698 4.42072C26.2356 4.26884 26.777 4.13645 27.3067 4.04299C27.6339 3.98069 28.0936 3.99624 28.5416 3.97288Z" fill="#7400BD"/></svg>