<svg width="17" height="17" viewBox="0 0 17 17" fill="none" xmlns="http://www.w3.org/2000/svg"><path fill-rule="evenodd" clip-rule="evenodd" d="M11.1844 9.81708L9.52502 8.70452C9.03812 8.34548 8.57459 7.96658 8.07211 7.6091C7.7488 7.37701 7.41768 7.15113 7.07101 6.94357C5.03381 5.71964 2.91869 4.57906 1.02951 3.17639C0.390694 2.62458 0.320614 1.65804 0.869841 1.01901C1.42296 0.379977 2.38895 0.309505 3.03166 0.861307C4.36772 2.21881 5.78168 3.54748 7.35535 4.66978C7.8851 5.04751 8.42657 5.40733 8.99527 5.7103C9.57956 6.02261 10.1872 6.24496 10.7832 6.50042C11.4921 6.79404 12.2244 6.97746 12.9489 7.24459C13.3034 7.37583 13.6384 7.53745 13.9811 7.70256L15.2938 8.32095C15.9054 8.57797 16.3066 9.17532 16.3105 9.83966C16.3144 10.504 15.921 11.1072 15.3133 11.3716L14.4369 11.6699L13.0697 12.1843C12.1738 12.4316 11.2857 12.6824 10.4131 13.0029C9.84054 13.2139 9.2796 13.4464 8.72648 13.7042C7.79163 14.2728 6.28029 15.7689 4.98707 16.4854C4.40279 16.8087 3.83799 16.9683 3.3355 16.9995C2.59151 16.9995 1.98777 16.3959 1.98777 15.6521C1.98777 14.9079 2.59151 14.3032 3.3355 14.3032C3.73281 14.3296 4.2314 14.0792 4.74167 13.7685C5.83233 13.103 6.9269 12.1801 7.66699 11.7988C8.36423 11.3385 9.08486 10.9312 9.81716 10.5301C10.2729 10.2828 10.7248 10.0464 11.1844 9.81708Z" fill="#7400BD"/></svg>