<svg width="116" height="123" viewBox="0 0 116 123" fill="none" xmlns="http://www.w3.org/2000/svg"><path fill-rule="evenodd" clip-rule="evenodd" d="M16.5741 91.3285C16.3925 91.3273 16.214 91.3092 16.0427 91.2721C15.4513 91.1451 14.9245 90.8321 14.6219 90.1472C14.4984 89.8738 14.5097 89.4779 14.6411 89.0446C14.8215 88.4375 15.236 87.7244 15.392 87.4063C15.9294 86.3004 16.7592 85.3513 17.7198 84.5438C18.6624 83.7548 19.7364 83.1149 20.8057 82.6188C21.2193 82.444 21.6936 82.6385 21.8684 83.0519C22.0401 83.464 21.8455 83.9383 21.4332 84.11C20.4482 84.4822 19.4457 84.975 18.5627 85.6196C17.6973 86.2565 16.9405 87.0264 16.425 87.9443C16.3095 88.158 16.0429 88.5644 15.8389 88.9877C15.7052 89.2671 15.5279 89.537 15.6023 89.7114C15.7782 90.1033 16.1152 90.2483 16.4718 90.2298C16.9222 90.2039 17.3662 89.9317 17.6999 89.6714L18.8053 88.6215C19.1359 88.36 19.6007 88.3724 19.9177 88.6442C20.2334 88.9193 20.3135 89.3798 20.107 89.7439L19.3939 91.153C19.2749 91.329 19.0851 91.6122 18.8422 91.9294C18.6048 92.2416 18.3123 92.5833 18.0792 92.9408C17.9479 93.1484 17.8151 93.3408 17.7455 93.5395C17.7266 93.5977 17.6931 93.6466 17.6874 93.699C17.6863 93.7205 17.6091 93.6943 17.6289 93.7092C17.806 93.825 17.9043 93.9286 18.0214 93.8611C18.3164 93.6914 18.5827 93.3795 18.9122 93.0739C19.5177 92.4784 20.1469 91.9066 20.7256 91.2861C21.601 90.351 22.4018 89.3544 23.265 88.4036C23.514 88.1178 24.5669 86.9312 25.1121 86.5853C25.5178 86.3274 25.8891 86.3837 26.1017 86.455C26.5576 86.6314 26.7826 87.1407 26.6061 87.5964C26.4848 87.9098 26.2053 88.1147 25.8949 88.1547C25.6125 88.3766 24.5164 89.2518 24.3185 89.4336C23.3965 90.3107 22.4585 91.1633 21.6015 92.0982C21.0247 92.723 20.5058 93.3957 19.9557 94.0454C19.4601 94.6579 19.0431 95.199 18.5225 95.4343C18.0565 95.6507 17.501 95.6468 16.7411 95.2873C15.7911 94.836 15.5975 93.9823 15.8154 92.9966C15.9331 92.4671 16.2227 91.8694 16.5741 91.3285ZM25.4865 88.1095L25.4632 88.1041C25.4695 88.1066 25.4789 88.1102 25.4865 88.1095Z" fill="#7400BD"/><path fill-rule="evenodd" clip-rule="evenodd" d="M28.6292 90.6845C28.6976 90.7146 28.8182 90.7321 28.8334 90.6834C28.8506 90.6391 28.7531 90.6087 28.6927 90.6144C28.3261 90.6399 27.8835 90.7489 27.465 90.9837C27.1787 91.1495 26.9124 91.3485 26.6695 91.553L24.6909 93.8518C24.2781 94.2598 23.9098 94.7033 23.5664 95.1672C23.041 95.8847 22.597 96.6555 22.1561 97.4275C21.9188 97.8052 21.417 97.9167 21.0405 97.6764C20.664 97.4361 20.5525 96.9344 20.7929 96.558C21.3367 95.793 21.9006 95.0322 22.5263 94.3281C22.9534 93.8455 23.3997 93.3886 23.8925 92.9715C24.1074 92.7926 24.3057 92.6 24.4938 92.3962C24.9746 91.8689 25.3975 91.2937 25.9114 90.7938C26.0876 90.5926 26.2878 90.4045 26.4855 90.2043C27.0153 89.6633 27.5959 89.2073 28.1382 88.9441C28.5032 88.7723 28.8611 88.7507 29.184 88.7628C29.8822 88.7927 30.4778 89.2379 30.7384 90.2195C30.8312 90.572 30.8326 91.0384 30.7489 91.6211C30.7193 91.7916 30.6854 91.9641 30.6311 92.1324C30.5298 92.4316 30.3912 92.7237 30.2777 93.0074C30.0648 93.5291 29.837 94.0233 29.5776 94.5052C29.2188 95.178 28.8014 95.7953 28.4064 96.4395C28.1469 96.8559 27.9197 97.2921 27.6589 97.7116C27.3278 98.3223 26.6034 99.0464 26.08 99.7211C25.9036 99.9512 25.7718 100.17 25.7141 100.366C25.5376 100.821 25.025 101.045 24.5691 100.869C24.1133 100.692 23.8882 100.183 24.0647 99.7274C24.1829 99.4783 24.3627 99.2021 24.6119 98.9346C25.1963 98.3091 26.1515 97.6378 26.5961 97.0347C26.8343 96.6828 27.0795 96.341 27.2821 95.9681C27.4855 95.6028 27.6457 95.2171 27.8028 94.8302C28.1052 94.0774 28.3153 93.2998 28.4707 92.4756L28.6497 91.4021C28.6636 91.1782 28.6426 90.9881 28.6245 90.8282C28.619 90.786 28.6303 90.7286 28.6292 90.6845C28.5881 90.6685 28.5632 90.648 28.6015 90.6337C28.6254 90.6284 28.6307 90.6523 28.6292 90.6845Z" fill="#7400BD"/><path fill-rule="evenodd" clip-rule="evenodd" d="M31.1166 96.3339C30.462 96.0878 29.7944 95.9788 29.1691 95.7041C29.0386 95.6463 28.9148 95.5802 28.8085 95.4881C28.5074 95.2223 28.4889 94.8658 28.1548 94.6383C27.9954 94.5329 27.7906 94.5446 27.6053 94.4875C27.3779 94.4541 27.1744 94.4627 26.9597 94.3687C26.7975 94.2987 26.6311 94.2489 26.4968 94.135C26.0703 93.7698 25.7925 93.3311 25.3498 93.036C24.8939 92.8596 24.38 93.0867 24.2048 93.5393C24.0283 93.9951 24.2553 94.5088 24.7112 94.6852C24.8406 94.6989 24.962 94.6767 25.0835 94.7201C25.3064 94.8027 25.5448 94.8731 25.7238 95.0406C26.1164 95.4182 26.3257 95.8741 26.7156 96.2397C26.8879 96.3682 27.0267 96.5457 27.2303 96.6027C27.6288 96.7204 27.9228 96.5066 28.3331 96.5562C28.4732 96.5704 28.6074 96.6187 28.7347 96.6752C29.3228 96.9428 29.8091 97.3603 30.3405 97.7552C30.7344 97.9694 31.2239 97.824 31.4415 97.4314C31.6546 97.0407 31.5074 96.5469 31.1166 96.3339Z" fill="#7400BD"/><path fill-rule="evenodd" clip-rule="evenodd" d="M33.6469 93.4258C34.0642 93.6455 34.6827 93.9285 35.366 94.3167C35.6014 94.4514 35.8624 94.567 36.0701 94.7638C36.4135 95.0896 36.4957 95.5072 36.8648 95.8138C36.994 95.9221 37.1542 95.9877 37.3118 96.0414C37.8155 96.2072 38.2871 96.2113 38.7686 96.2557C38.987 96.2747 39.1932 96.278 39.3985 96.3211C40.1633 96.4896 40.794 96.6281 41.407 96.4832C41.855 96.2852 42.0572 95.763 41.8581 95.3183C41.6602 94.8705 41.1379 94.6683 40.6931 94.8675C40.5949 94.9423 40.5211 95.0484 40.3916 95.082C40.1672 95.1445 39.9128 95.228 39.6497 95.1553C39.1274 95.0187 38.7613 94.5167 38.2527 94.1379C38.1726 94.0815 38.1006 94.0136 38.0132 93.9761C37.9479 93.9472 37.8848 93.941 37.8166 93.9291C37.4857 93.8812 37.2392 93.935 36.912 93.8776C36.7831 93.8532 36.67 93.8349 36.5534 93.7789C36.149 93.5823 35.8321 93.2632 35.5316 93.0049C35.1319 92.6647 34.8263 92.3353 34.5817 92.1023C34.2144 91.8474 33.7116 91.9331 33.4534 92.2991C33.1952 92.665 33.284 93.1689 33.6469 93.4258Z" fill="#7400BD"/><path fill-rule="evenodd" clip-rule="evenodd" d="M34.0201 103.51C34.2741 102.6 34.4384 101.678 34.7728 100.795C34.8439 100.612 34.9244 100.432 35.0323 100.266C35.3193 99.8351 35.7412 99.6198 35.9971 99.1656C36.0855 99.0033 36.12 98.8201 36.1609 98.6394C36.2773 98.1131 36.2767 97.607 36.3773 97.0746C36.4221 96.8554 36.4519 96.6376 36.5359 96.4299C36.7678 95.85 37.152 95.3654 37.4637 94.8236C37.6389 94.371 37.4119 93.8574 36.9561 93.681C36.5034 93.5058 35.9897 93.7329 35.8145 94.1855C35.6832 94.797 35.6377 95.4127 35.4217 95.9987C35.3408 96.2076 35.2161 96.3887 35.0984 96.5797C34.8174 97.0423 34.4762 97.4161 34.2078 97.8837C34.1163 98.0448 34.0153 98.2022 33.9744 98.3829C33.8578 98.891 34.0247 99.3341 33.9465 99.8461C33.9178 100.042 33.8531 100.228 33.7821 100.412C33.435 101.29 32.9351 102.082 32.5102 102.926C32.3484 103.344 32.5559 103.814 32.9706 103.974C33.3884 104.136 33.8583 103.928 34.0201 103.51Z" fill="#7400BD"/><path fill-rule="evenodd" clip-rule="evenodd" d="M42.4792 96.0756L41.9188 98.228C41.6468 98.9963 41.4404 99.8772 41.0937 100.678C40.763 101.438 40.3387 102.064 40.169 102.785C40.119 102.998 40.1025 103.21 40.1118 103.421C40.1259 103.732 40.2043 104.028 40.3202 104.302C40.7301 105.284 41.4714 106.124 42.9477 106.447C43.2477 106.556 43.5369 106.599 43.8291 106.625C44.1149 106.648 44.3998 106.645 44.7133 106.606C45.0968 106.566 45.4805 106.543 45.8618 106.479C46.1902 106.421 46.4927 106.298 46.7948 106.138C47.1952 105.856 47.288 105.306 47.0093 104.907C46.7275 104.507 46.1742 104.413 45.7751 104.692C45.621 104.836 45.4597 104.952 45.267 105.026C44.9889 105.134 44.7035 105.212 44.426 105.309C44.2406 105.364 44.0723 105.423 43.8963 105.417C43.7267 105.413 43.5659 105.358 43.3962 105.289C42.4074 104.75 42.3503 103.985 42.2869 103.153C42.2537 102.721 42.0733 102.313 42.0856 101.83C42.0926 101.502 42.0909 101.177 42.1742 100.849C42.368 100.076 42.7913 99.3591 43.0838 98.6788L44.0175 96.5871C44.1559 96.1639 43.9295 95.7051 43.5043 95.5624C43.079 95.4197 42.622 95.6505 42.4792 96.0756Z" fill="#7400BD"/><path fill-rule="evenodd" clip-rule="evenodd" d="M46.9724 94.856C46.6131 94.9754 46.2775 95.1185 45.8886 95.1827C45.7281 95.2116 45.5615 95.2564 45.4022 95.2166C45.0488 95.1235 45.0065 94.8378 44.6513 94.7586C44.5534 94.7389 44.4502 94.7609 44.3573 94.794C44.0339 94.9055 43.857 95.0991 43.5746 95.2737C43.4606 95.3424 43.3688 95.4197 43.2418 95.447C42.8582 95.5351 42.5189 95.4621 42.1449 95.5066C41.697 95.7045 41.4947 96.2268 41.6938 96.6714C41.8917 97.1193 42.4141 97.3214 42.8588 97.1222C43.0762 96.937 43.2225 96.6624 43.5163 96.6087C43.9013 96.5357 44.182 96.8262 44.5857 96.9024C44.6432 96.9137 44.7014 96.9326 44.7599 96.9225C44.8033 96.9138 44.8326 96.8851 44.8714 96.8601C45.1624 96.6633 45.198 96.4114 45.5353 96.3017C45.7853 96.2201 46.0562 96.3103 46.3137 96.3409C46.5971 96.3704 46.8512 96.4287 47.1265 96.4698C47.5693 96.4263 47.8964 96.0324 47.8543 95.5867C47.8153 95.1421 47.417 94.817 46.9724 94.856Z" fill="#7400BD"/><path fill-rule="evenodd" clip-rule="evenodd" d="M46.9078 99.0568C46.5208 99.1255 46.1879 99.2332 45.8166 99.2897C45.663 99.3103 45.5052 99.3512 45.3578 99.3087C45.0131 99.2118 45.0144 98.9356 44.668 98.8526C44.582 98.8302 44.4896 98.8527 44.4067 98.8788C44.0211 99.0099 43.8569 99.3867 43.4485 99.4544C43.1496 99.5025 42.9043 99.3275 42.5983 99.2528C42.1134 99.3017 41.7576 99.7318 41.8021 100.219C41.8478 100.702 42.2811 101.059 42.7648 101.013C43.0527 100.881 43.2611 100.681 43.5639 100.642C43.6721 100.625 43.7658 100.665 43.8708 100.695C44.1497 100.774 44.3008 100.92 44.5826 100.981C44.6635 100.998 44.7483 101.024 44.8217 100.994C45.1325 100.878 45.0766 100.608 45.3711 100.449C45.4495 100.407 45.5331 100.388 45.6213 100.386C46.0259 100.375 46.3904 100.553 46.8028 100.672C47.2463 100.702 47.6322 100.363 47.6619 99.92C47.6929 99.4734 47.3545 99.0877 46.9078 99.0568Z" fill="#7400BD"/><path fill-rule="evenodd" clip-rule="evenodd" d="M52.6312 101.529C52.65 102.308 52.6989 103.084 52.7618 103.862C52.8096 104.368 52.9697 104.98 52.9862 105.557C52.9944 105.903 52.9432 106.232 52.8446 106.543C52.6693 106.996 52.1555 107.223 51.7028 107.048C51.2469 106.872 51.02 106.358 51.1952 105.905C51.2778 105.73 51.3121 105.528 51.3186 105.323C51.3321 104.837 51.2691 104.332 51.2783 103.914C51.2765 102.556 51.4335 101.201 51.4373 99.8373C51.4446 98.5117 51.2988 97.1961 51.1133 95.8796C51.0768 95.4288 51.3938 95.0237 51.84 94.9525C52.6033 94.7674 52.8996 94.5946 53.2407 94.5409C53.5786 94.4861 53.9409 94.528 54.588 94.7275C54.9222 94.8422 55.6884 94.9785 56.1419 95.2268C56.4572 95.3997 56.6828 95.6254 56.812 95.8464C57.2572 96.7647 57.4203 97.8287 57.127 98.7743C56.8781 99.5769 56.4083 100.301 55.6423 100.7C56.1842 100.899 56.6501 101.181 56.9151 101.484C57.233 101.847 57.5669 102.442 57.7739 103.035C57.9379 103.495 58.0061 103.959 57.9719 104.338C57.9596 104.483 57.8545 104.839 57.7723 105.098C57.8466 105.207 57.8953 105.335 57.907 105.474C57.9491 105.92 57.6238 106.318 57.1792 106.357C56.7697 106.381 56.516 106.246 56.3538 106.063C56.2191 105.913 56.1067 105.724 56.0939 105.475C56.0862 105.297 56.115 105.054 56.2099 104.799C56.2994 104.568 56.4635 104.304 56.4889 104.154C56.5334 103.898 56.4685 103.567 56.3622 103.25C56.2409 102.886 56.0782 102.536 55.901 102.307C55.7231 102.071 55.3322 101.887 54.9226 101.732C54.4484 101.556 53.9427 101.433 53.605 101.393L53.5942 101.393C53.2906 101.472 53.0107 101.527 52.8179 101.536C52.7511 101.539 52.69 101.538 52.6312 101.529ZM57.1625 104.746C57.1208 104.741 57.0736 104.741 57.027 104.748C57.0724 104.744 57.1164 104.743 57.1625 104.746ZM55.0828 97.1535L55.0884 97.1484C55.3152 96.854 54.1097 96.7806 53.8379 96.6646C53.5699 96.539 53.4706 96.4569 53.3158 96.4807C53.1793 96.5043 53.0283 96.5369 52.8396 96.573C52.8103 97.457 52.7375 98.3314 52.6836 99.2132C52.6606 99.5828 52.642 99.9504 52.631 100.317L52.7078 100.307C52.738 100.304 52.765 100.3 52.7953 100.297L52.8363 100.295C53.1551 99.9415 54.5619 99.9181 54.7388 99.8374C55.2486 99.536 55.4406 99.0025 55.4793 98.4606C55.514 98.0046 55.35 97.5444 55.0828 97.1535ZM55.0828 97.1535C55.041 97.1956 55.0021 97.0422 54.9688 96.9966C55.0104 97.0491 55.0488 97.1003 55.0828 97.1535Z" fill="#7400BD"/><path fill-rule="evenodd" clip-rule="evenodd" d="M74.7454 99.6539C75.1398 99.8574 75.3279 100.331 75.1625 100.758C74.9872 101.211 74.4734 101.438 74.0176 101.261C73.7001 101.113 73.422 100.881 73.2534 100.518C73.1054 100.195 73.0093 99.7755 72.9498 99.3558C72.9116 99.0972 72.9302 98.8423 72.8423 98.7027C72.5477 98.2321 72.2803 97.71 72.0219 97.1551C71.7998 96.6761 71.5961 96.1678 71.3767 95.6535C71.2343 95.3254 71.0844 94.9981 70.9357 94.6676C70.3599 93.4003 69.8017 92.1251 69.3077 91.0132C69.2217 90.7652 69.2401 90.492 69.363 90.2593C69.4858 90.0266 69.7015 89.8553 69.9561 89.7901L71.7818 89.1644C71.9301 89.1199 72.0895 89.1124 72.2547 89.1181C72.478 89.1244 72.7356 89.2205 72.9383 89.2516C74.3357 89.6285 74.9365 90.4179 74.9679 91.4272C74.9949 92.3257 74.5392 93.4087 73.9704 94.2477C74.2893 94.2328 74.6011 94.2079 74.9189 94.2144C75.1314 94.2202 75.3465 94.2379 75.5682 94.2764L75.9351 94.3819C76.1669 94.4789 76.3106 94.7092 76.2933 94.9609C76.2858 95.14 76.563 95.411 76.8115 95.7001C77.0784 96.0072 77.3762 96.3007 77.5528 96.3618L77.6369 96.398C77.9849 96.5617 78.2845 96.7468 78.5697 96.9409C79.1733 97.3564 79.6614 97.8255 80.3391 98.2188C80.72 98.4572 80.8284 98.9576 80.5879 99.3341C80.3507 99.7118 79.8488 99.8233 79.4723 99.583C78.7931 99.1091 78.3168 98.5718 77.7124 98.0832C77.5056 97.9122 77.2825 97.7458 77.0186 97.6L77.0662 97.6184C76.7387 97.4771 76.1009 96.8773 75.667 96.2399C75.4651 95.9434 75.3085 95.6426 75.2167 95.3815C75.0411 95.3463 74.872 95.3317 74.7024 95.328C74.3322 95.3158 73.9644 95.3445 73.579 95.3337C73.3653 95.3311 72.9477 95.4789 72.7534 95.4729C72.6923 95.471 72.6367 95.4641 72.5836 95.4508C72.9884 96.3608 73.5106 97.1743 74.0377 97.8624C74.2225 98.0903 74.3492 98.4961 74.4733 98.9371C74.5364 99.169 74.6892 99.5266 74.7454 99.6539ZM74.6751 99.6194C74.6687 99.6169 74.6625 99.6145 74.6561 99.6121L74.6751 99.6194ZM72.2621 91.261C72.1759 91.2204 72.109 91.2054 72.0959 91.2768C72.0934 91.2831 72.091 91.2895 72.0961 91.2951L71.3576 91.4351C71.6069 92.4269 71.8609 93.5006 72.2203 94.5277C72.2648 94.4503 72.3308 94.3739 72.4075 94.2981C72.5143 94.2011 72.7118 94.1138 72.7706 94.0091C73.0381 93.4029 73.2413 92.6336 73.2182 91.9695C73.207 91.6412 73.0005 91.4412 72.5645 91.4108C72.4899 91.3965 72.3692 91.3134 72.2685 91.2635C72.2848 91.2589 72.298 91.2531 72.3087 91.2536L72.2621 91.261L72.2685 91.2635C72.2006 91.2882 72.1053 91.3277 72.0961 91.2951L72.2621 91.261Z" fill="#7400BD"/><path fill-rule="evenodd" clip-rule="evenodd" d="M84.2636 95.225C84.4417 95.1411 84.6087 95.0201 84.7641 94.8727C85.5732 94.1085 86.1241 92.855 86.7128 92.2275C87.0755 91.902 87.6343 91.9253 87.963 92.289C88.2898 92.6484 88.2633 93.2059 87.9026 93.5358C87.2307 94.0583 86.4546 95.1411 85.5859 95.824C85.0891 96.2141 84.5742 96.5098 83.9928 96.5542C83.865 96.5739 83.6287 96.5261 83.3728 96.3034C83.0457 96.0203 82.4472 95.1591 82.3476 94.9277C82.0001 94.1235 81.4479 93.3312 80.9301 92.5157C80.7049 92.1666 80.4741 91.8225 80.2879 91.4666C80.1229 91.1407 80.0184 90.8091 79.8819 90.4942C79.7171 90.0738 79.5463 89.6874 79.2939 89.3241C79.0242 88.9395 78.7064 88.5945 78.4016 88.2254C78.2601 88.0833 77.7588 87.7328 77.4954 87.4635C77.2958 87.2552 77.2071 87.0426 77.1903 86.8978C77.1759 86.794 77.224 86.5287 77.4934 86.2654C77.8215 85.9446 78.731 85.3066 78.9177 85.0877C79.1591 84.8026 79.3704 84.4731 79.5727 84.1292C79.8981 83.5709 80.1842 82.9828 80.469 82.4634C80.7063 82.0857 81.2061 81.9698 81.5838 82.2069C81.9647 82.4453 82.0807 82.945 81.8434 83.3227C81.4344 83.8996 81.01 84.5725 80.5375 85.1722C80.3168 85.4508 80.0923 85.7206 79.849 85.954C79.6876 86.1172 79.0803 86.5009 78.6311 86.8148C78.8529 87.0316 79.0769 87.384 79.1649 87.4763C79.3624 87.6619 79.5499 87.8545 79.7535 88.0243C80.0863 88.3023 80.4219 88.5449 80.7478 88.8312C80.9954 89.0471 81.2136 89.2735 81.437 89.5237C81.6682 89.7915 81.9195 90.0452 82.1379 90.3554C82.3422 90.6455 82.5148 90.9707 82.6774 91.3029C83.1869 92.3372 83.5585 93.4454 83.7736 94.4786C83.7982 94.5937 84.165 94.9721 84.2636 95.225Z" fill="#7400BD"/><path fill-rule="evenodd" clip-rule="evenodd" d="M84.3246 86.5087C84.3354 87.026 84.3947 87.4275 84.2653 87.7523C84.2334 87.8345 84.1819 87.9019 84.1182 87.9537C83.8752 88.1581 83.6466 87.9496 83.4198 88.1311C83.366 88.1758 83.3473 88.2523 83.3216 88.3188C83.2128 88.5715 83.2455 88.7879 83.1288 89.0703C83.0852 89.1736 83.0543 89.2817 82.9739 89.367C82.7614 89.5869 82.4672 89.6696 82.1448 89.8724C81.8345 90.2509 81.8886 90.8069 82.2628 91.1191C82.6381 91.4281 83.1961 91.3783 83.5064 90.9998C83.6402 90.673 83.6582 90.3634 83.859 90.1645C84.2208 89.8131 84.6503 89.8883 84.9733 89.6275C85.0583 89.5585 85.145 89.4756 85.1791 89.3687C85.2998 89.0005 85.1113 88.8293 85.1658 88.4064C85.1867 88.2398 85.2877 88.0824 85.3722 87.9112C85.5306 87.5867 85.7204 87.2562 85.9152 86.8002C85.9973 86.3625 85.707 85.9372 85.2648 85.8571C84.8258 85.7782 84.4036 86.0697 84.3246 86.5087Z" fill="#7400BD"/><path fill-rule="evenodd" clip-rule="evenodd" d="M92.7711 80.3013C92.5628 80.3881 92.3407 80.4914 92.0956 80.5603C91.7142 80.6711 91.3095 80.7293 90.887 80.7769C90.1422 80.8672 89.4165 80.9176 88.7643 80.7781C87.6593 80.7363 86.4156 80.0658 85.685 79.1607C85.088 78.4275 84.8423 77.539 85.1461 76.6229L85.998 74.7142C86.2175 74.326 86.7141 74.1906 87.1011 74.4132C87.4894 74.6326 87.6248 75.129 87.4021 75.5159L86.4409 77.1239C86.1832 77.7048 86.4402 78.3101 86.8967 78.767C87.4074 79.2813 88.1507 79.6271 88.8175 79.6631C89.1329 79.6287 89.4432 79.5231 89.7703 79.4022C90.3121 79.1969 90.7887 78.8499 91.2801 78.596C91.5158 78.4762 91.7512 78.3853 91.9581 78.2834C92.3123 78.1584 93.0417 78.0985 93.7386 78.2917C94.4228 78.48 95.0568 78.7981 95.2867 79.1163C95.7918 79.8141 96.0065 80.4722 95.9997 81.1574C95.9949 81.6396 95.8937 82.1173 95.7549 82.6168C95.6385 83.0303 95.5254 83.4633 95.3789 83.898C95.1412 84.6904 94.7939 85.3713 94.2581 85.7208C93.8419 85.9965 93.2873 86.0658 92.4942 85.839C92.0383 85.6626 91.8113 85.1489 91.9878 84.6931C92.1631 84.2405 92.6769 84.0135 93.1328 84.1899C93.3407 84.2922 93.4693 84.4111 93.5812 84.3197C93.8248 84.1228 93.9894 83.7826 94.1569 83.4252C94.3255 83.0464 94.5029 82.6819 94.6034 82.3095C94.6676 82.0687 94.6901 81.8226 94.6894 81.5894C94.6815 81.1023 94.4555 80.68 94.0059 80.2804C94.0193 80.2929 94.038 80.3292 94.038 80.3292C94.038 80.3292 93.8896 80.3082 93.7992 80.2878C93.463 80.2159 92.7113 80.0233 92.7641 80.2912C92.7648 80.2988 92.7679 80.3 92.7711 80.3013ZM92.7711 80.3013L92.837 80.2722C92.8226 80.2811 92.7882 80.3042 92.7711 80.3013Z" fill="#7400BD"/><path fill-rule="evenodd" clip-rule="evenodd" d="M88.4643 67.859C88.3427 67.6372 88.317 67.3652 88.415 67.112C88.6244 66.6653 88.9822 66.3524 89.5346 66.3077C90.223 66.2502 91.3819 66.7168 91.8602 66.8072C92.4963 66.9223 93.0989 67.1337 93.6935 67.3747C94.2186 67.5887 94.7364 67.84 95.2548 68.0806C96.0096 68.4346 96.7654 68.7671 97.5077 69.0689C97.9694 69.2584 98.8003 69.5472 99.3749 69.9624C99.8071 70.2752 100.063 70.6946 100.192 71.1231C100.276 71.414 100.238 71.8505 100.089 72.2915C99.9452 72.7199 99.6744 73.1465 99.5097 73.3557C98.8983 73.9381 98.3298 74.3441 97.6807 74.5443C96.8049 74.8132 95.8675 74.8181 94.704 74.5607C93.0079 74.4286 91.5107 73.7074 90.2543 72.6935C88.9738 71.6666 87.9495 70.3167 87.2983 68.8491C87.1342 68.4362 87.3382 67.9656 87.7556 67.7995C87.9967 67.7035 88.2586 67.7321 88.4643 67.859ZM89.8336 68.0831C89.5952 68.3038 89.2424 68.3784 88.9194 68.2535C88.8656 68.2326 88.8162 68.2099 88.7692 68.1808C88.7821 68.2039 88.7938 68.2303 88.8054 68.2567C89.2549 69.5589 90.0021 70.8161 91.049 71.7598C92.0743 72.6843 93.3624 73.3064 94.804 73.4566C95.5489 73.4318 96.1453 73.3205 96.6754 73.0889C97.1485 72.8825 97.4815 72.5018 97.8242 71.9647C97.8833 71.8966 98.0817 71.704 98.1507 71.5633C98.1357 71.5175 98.0869 71.4367 98.105 71.4182C98.0171 71.3442 97.8952 71.2643 97.8164 71.2047C97.4414 70.9322 97.0202 70.7037 96.7612 70.5452C95.7839 69.9669 94.8431 69.2098 93.7734 68.7195C93.1182 68.4186 92.411 68.2614 91.6828 68.2053C91.3238 68.1829 90.104 68.4752 89.8336 68.0831ZM98.177 71.4861C98.1797 71.4508 98.1637 71.4264 98.1233 71.418C98.1138 71.4144 98.1094 71.4163 98.105 71.4182L98.1184 71.4307C98.1298 71.4387 98.14 71.45 98.1514 71.458L98.1716 71.5095C98.1667 71.5222 98.163 71.5317 98.1612 71.5455L98.1507 71.5633L98.1566 71.5765C98.158 71.5916 98.1715 71.6223 98.1847 71.6165C98.243 71.5881 98.2249 71.541 98.177 71.4861Z" fill="#7400BD"/><path fill-rule="evenodd" clip-rule="evenodd" d="M91.924 63.4363C93.6918 63.6181 95.4074 64.0853 97.1542 64.1899C97.9409 64.2358 98.7346 64.2263 99.5417 64.0691C99.993 64.0035 100.414 63.8097 100.825 63.5939C101.217 63.389 101.585 63.1454 101.94 62.8571C102.655 62.2711 103.208 61.5098 103.62 60.7847C103.82 60.2688 103.985 59.503 103.841 58.8611C103.705 58.2518 103.384 57.7197 102.795 57.4446C101.829 57.0161 100.777 56.7513 99.661 56.6069C98.9507 56.514 98.2243 56.4913 97.4961 56.4352C95.7357 56.3 93.9825 56.193 92.5109 56.2424C92.0273 56.2882 91.6703 56.7214 91.7148 57.2081C91.7605 57.6917 92.1938 58.0486 92.6774 58.0028C94.086 57.7872 95.7959 57.4698 97.498 57.6334C99.0815 57.7839 100.592 58.3682 101.813 59.1902C101.793 59.1753 101.717 59.2039 101.741 59.1986C101.873 59.1587 101.727 59.4773 101.706 59.6181C101.686 59.7633 101.675 59.9047 101.635 60.0167C101.47 60.7534 101.201 61.5992 100.646 62.2143C100.291 62.6046 99.8521 62.9008 99.3629 63.0172C98.4006 63.1617 97.4699 63.0927 96.5506 62.919C95.0806 62.645 93.6525 62.1215 92.1627 61.8326C91.7175 61.7696 91.3074 62.0767 91.2423 62.5174C91.1772 62.9581 91.4832 63.3713 91.924 63.4363Z" fill="#7400BD"/><path fill-rule="evenodd" clip-rule="evenodd" d="M96.6874 46.9574L96.6996 46.9257C96.804 46.675 96.923 46.4335 97.0352 46.2658C97.36 45.7655 97.8278 45.3096 98.348 44.9249C98.877 44.5363 99.4619 44.2386 100.008 44.0604C100.074 44.0388 100.129 43.9544 100.197 43.9006C100.358 43.7847 100.525 43.6927 100.675 43.6343C100.93 43.5401 101.18 43.5606 101.416 43.6373C101.831 43.7978 102.039 44.2676 101.877 44.6854C101.763 44.9797 101.496 45.1712 101.198 45.1979C101.205 45.4045 100.642 45.4777 100.423 45.5274C100.002 45.6267 99.5437 45.8134 99.123 46.0728C98.7122 46.3251 98.3279 46.6313 98.0564 46.9848L97.4718 48.2217C97.4061 48.4292 97.228 48.5787 97.0115 48.6114C96.7982 48.6453 96.5809 48.5576 96.4561 48.3819C96.4561 48.3819 96.3016 48.1511 96.1012 47.9353C95.9991 47.823 95.8931 47.7019 95.7899 47.6583C95.2005 47.4412 94.342 46.9415 93.5099 46.8343C93.1178 46.7845 92.7584 46.8856 92.5009 47.1463C92.178 47.4726 92.2033 47.8865 92.2117 48.2973C92.2149 48.5898 92.263 48.8886 92.3218 49.1879C92.3734 49.459 92.4313 49.7326 92.4941 49.9934C92.8854 49.9229 93.2787 49.8566 93.6715 49.8012C94.3576 49.7027 95.0396 49.6427 95.7247 49.5657C96.1774 49.5152 96.6289 49.4679 97.0783 49.3979C98.8091 49.1395 100.49 48.8326 102.088 48.5883C102.574 48.5438 103.004 48.8995 103.052 49.3874C103.098 49.8709 102.741 50.3042 102.254 50.3487C100.59 50.4147 98.821 50.3779 97.03 50.613C96.5195 50.6812 96.012 50.7978 95.5065 50.9188C94.3465 51.1979 93.2179 51.5837 92.1014 52.0325C91.6245 52.1828 91.1137 51.9415 90.9219 51.4778C90.6543 50.9375 90.3567 50.3055 90.2012 49.6449C90.0816 49.1546 90.0305 48.6471 90.094 48.173C90.2218 47.2507 90.6216 46.4155 91.5249 45.8879C92.0586 45.5812 92.6268 45.4772 93.2534 45.5886C93.671 45.6665 94.1018 45.804 94.5292 45.9694C95.1389 46.209 95.7421 46.4751 96.1833 46.6422C96.3428 46.7003 96.5168 46.815 96.6874 46.9574Z" fill="#7400BD"/><path fill-rule="evenodd" clip-rule="evenodd" d="M87.5302 41.4899C88.7061 42.2979 89.77 42.7277 90.8085 42.8566C91.3577 42.9235 91.8916 42.9081 92.4348 42.8308C92.781 42.7827 93.1217 42.6925 93.4816 42.628C94.2982 42.4744 95.1214 42.2944 96.0695 41.9515C96.3717 41.7446 96.6833 41.523 96.943 41.2377C97.6263 40.4976 98.1081 39.5448 98.3788 38.6014C98.5018 38.1613 98.5759 37.7351 98.6141 37.3168C98.6629 36.7679 98.6339 36.2507 98.4575 35.7567C98.2141 35.0693 97.6806 34.4916 96.7795 34.0265C96.3236 33.8501 95.8111 34.074 95.6346 34.5298C95.4581 34.9856 95.6851 35.4992 96.1409 35.6756C96.5602 35.7869 96.8926 35.9155 97.0946 36.1647C97.3279 36.4552 97.4707 36.8198 97.4233 37.2054C97.3098 38.166 96.3907 39.0259 95.5325 39.6911C95.3338 39.8471 95.1311 39.9944 94.9225 40.1102C94.2994 40.7134 93.7929 41.2599 93.143 41.5471C92.6787 41.7496 92.1902 41.808 91.7178 41.7963C90.6489 41.7648 89.6391 41.214 88.5355 40.2192C88.1844 39.9415 87.6732 40.002 87.3953 40.3531C87.1186 40.701 87.1791 41.2121 87.5302 41.4899Z" fill="#7400BD"/><path fill-rule="evenodd" clip-rule="evenodd" d="M82.5289 34.0097C83.0863 34.3092 84.1396 35.1426 85.1083 35.6302C85.6637 35.907 86.1965 36.0913 86.6426 36.0674C86.8537 36.058 87.1671 35.9537 87.5051 35.786C88.0568 35.5082 88.7051 35.0748 88.9545 34.8255C89.5682 34.3969 90.3366 34.1047 91.112 33.7096C91.3026 33.6122 91.492 33.5181 91.6665 33.3964C92.6691 32.6779 93.481 31.7656 93.9905 30.8636C94.1975 30.4887 94.829 30.3618 95.1054 30.043C95.2816 29.8418 95.421 29.6228 95.4443 29.337C95.5038 28.967 95.366 28.5898 95.119 28.203C94.8181 27.7299 94.2861 27.2329 93.8634 26.7454C93.7044 26.5638 93.5587 26.3946 93.56 26.2314C93.5155 25.7446 93.0822 25.3877 92.5954 25.4323C92.1118 25.4781 91.7547 25.9113 91.8005 26.3949C91.8701 26.7603 92.0472 27.1491 92.4035 27.498C92.8018 27.8887 93.4018 28.2665 93.8508 28.6768C94.0539 28.8573 94.2773 28.9947 94.2606 29.1884C94.2583 29.213 94.2202 29.18 94.2014 29.1909C94.1594 29.2147 94.1103 29.2285 94.0601 29.2455C93.804 29.3429 93.5123 29.4193 93.2683 29.5323C93.0399 29.6332 92.8678 29.7959 92.7146 29.9659C92.2332 30.5039 91.5112 30.8833 90.7919 31.3401C90.6379 31.437 90.4807 31.5328 90.3377 31.6484C90.187 31.7649 90.0529 31.8949 89.9157 32.0238C89.2227 32.6947 88.6141 33.3544 88.1546 34.0428C88.0175 34.19 87.7126 34.4323 87.3863 34.6263C87.1 34.7922 86.804 34.9361 86.6312 34.9311C86.261 34.9189 85.835 34.6375 85.4008 34.3203C84.6012 33.7343 83.8354 32.9576 83.3855 32.6343C83.0065 32.4003 82.5066 32.5162 82.2693 32.8939C82.0353 33.2729 82.1499 33.7758 82.5289 34.0097Z" fill="#7400BD"/><path fill-rule="evenodd" clip-rule="evenodd" d="M86.3994 30.8258C86.8041 30.7677 87.2214 30.6489 87.627 30.7767C87.7117 30.8023 87.7848 30.8487 87.8485 30.9098C88.0691 31.1298 87.9054 31.3831 88.1241 31.5987C88.1744 31.6473 88.2494 31.6509 88.314 31.6722C88.6386 31.7833 89.0021 31.6437 89.2338 31.9008C89.4062 32.0949 89.3274 32.3737 89.3543 32.6425C89.5535 33.0872 90.0758 33.2893 90.5225 33.0946C90.9673 32.8954 91.1695 32.3731 90.9748 31.9266C90.6983 31.6158 90.3988 31.4307 90.1413 31.1272C90.0519 31.0198 90.0114 30.8986 89.9551 30.7713C89.8006 30.4277 89.7057 30.1652 89.4467 29.894C89.3689 29.8129 89.2684 29.734 89.1566 29.7126C88.7661 29.6306 88.6052 29.8486 88.2053 29.8285C88.0293 29.8223 87.8662 29.7265 87.6996 29.6584C87.2862 29.4947 86.9104 29.3275 86.4937 29.2099C86.0457 29.1822 85.6618 29.525 85.6384 29.9708C85.6118 30.4155 85.9546 30.7993 86.3994 30.8258Z" fill="#7400BD"/><path fill-rule="evenodd" clip-rule="evenodd" d="M87.3877 23.3824C87.4884 23.5924 87.5044 23.8425 87.4137 24.0767C87.2373 24.5325 86.7267 24.7607 86.2708 24.5843C86.106 24.5024 85.695 24.2851 85.6748 23.7168C85.6617 23.3842 85.8175 22.5965 85.7637 22.35C85.6323 21.8151 85.288 21.3034 84.7792 21.0192C84.2736 20.7362 83.6498 20.7022 83.0896 20.8421C82.9796 20.8724 82.9811 21.0003 82.936 21.0885C82.8212 21.3097 82.787 21.5767 82.7253 21.8112L82.3582 23.8966C82.2377 24.6215 82.4095 25.5033 82.3683 26.2771C82.3543 26.5483 82.344 26.81 82.2679 27.0535C82.015 28.2331 81.5202 28.9187 80.9204 29.2362C80.2555 29.5904 79.3809 29.5177 78.2888 28.935L76.0541 27.9283C75.6603 27.7141 75.5117 27.2234 75.7229 26.8284C75.936 26.4377 76.4267 26.2891 76.8218 26.5003L78.9689 27.7896C79.5588 28.1744 80.0246 28.391 80.4147 28.2108C80.8036 28.0337 81.0385 27.5495 81.2232 26.8093C81.251 26.5872 81.1954 26.3546 81.1196 26.1178C80.8837 25.3642 80.4436 24.6298 80.3065 23.9216C80.2762 23.5204 80.2718 23.1184 80.3443 22.7243C80.4452 22.1628 80.6789 21.6345 80.9303 21.1167C81.1401 20.7065 81.3493 20.2416 81.6881 19.9214C81.9944 19.6286 82.3427 19.3776 82.831 19.3482C83.7195 19.2625 84.6007 19.5343 85.3716 19.9782C86.1761 20.4387 86.8535 21.0866 87.169 21.9075C87.2648 22.1301 87.3551 23.0531 87.3877 23.3824Z" fill="#7400BD"/><path fill-rule="evenodd" clip-rule="evenodd" d="M35.7051 52.1285C35.531 51.8084 35.3531 51.4328 35.2243 51.0083C35.0333 50.371 34.8716 49.7083 34.7578 49.1877C34.5085 48.4544 34.3101 47.706 34.0382 46.9699C32.9732 44.0894 31.7181 41.2371 30.5938 38.3904C30.3812 37.7795 30.7062 37.1149 31.3173 36.9023C31.9265 36.6924 32.5931 37.0145 32.8057 37.6254C33.5534 40.1802 34.2249 42.8065 35.0894 45.3454C35.3077 45.9968 35.5288 46.6501 35.8092 47.2695C36.0011 47.6913 36.2373 48.0772 36.4575 48.481C36.7201 48.8886 37.0645 49.3999 37.4307 49.8847C37.6302 50.1483 37.8626 50.3441 38.0584 50.5032C38.161 50.6124 39.0289 51.599 39.3244 52.0368C40.2937 53.4705 38.6024 54.5622 38.4037 54.597C36.449 54.7868 34.1319 54.8289 31.9022 55.0027C31.5331 55.0299 31.1687 55.0562 30.8128 55.1127C30.262 55.1983 29.7347 55.3403 29.2253 55.4616C28.7338 55.599 26.3976 56.4525 25.4296 56.8147L25.1998 56.9022C24.8109 57.0876 24.3344 57.0678 23.9504 56.8117C23.4223 56.4596 23.2915 55.9889 23.415 55.4552C23.4565 55.2829 23.531 55.0307 23.7928 54.8095C23.8389 54.7709 23.9416 54.6354 24.1817 54.563C24.1978 54.5573 24.2288 54.5413 24.2778 54.5291C24.2891 54.5244 24.3127 54.5197 24.3456 54.5131C24.4162 54.499 24.5621 54.4698 24.7599 54.4303C25.8135 54.2271 28.3427 53.7267 28.8662 53.6637C29.4001 53.5791 29.9612 53.5208 30.5262 53.4202C30.8896 53.3524 31.2465 53.264 31.6128 53.1737C32.9866 52.8454 34.3896 52.4917 35.7051 52.1285ZM36.5267 53.1415C36.5333 53.2723 36.5624 53.4182 36.6264 53.5792C36.6367 53.6065 36.6151 53.7919 36.6913 53.7449C36.8458 53.6479 36.7225 53.3985 36.5267 53.1415ZM37.5299 51.6073L37.7907 51.5282C37.6994 51.5489 37.6118 51.5762 37.5299 51.6073Z" fill="#7400BD"/><path fill-rule="evenodd" clip-rule="evenodd" d="M58.7173 40.0324C57.9379 39.4393 56.2377 38.6361 55.9685 38.4647C53.9776 37.2107 52.0987 36.0517 50.3092 34.7157C49.095 33.8081 47.9287 32.8225 46.8059 31.6617C46.3729 31.1854 46.4061 30.4446 46.8873 30.0107C47.3639 29.5778 48.1029 29.6137 48.5359 30.09C49.5034 31.2206 50.5152 32.2054 51.5883 33.1044C53.2562 34.5063 55.0429 35.7179 56.9198 37.0388C57.1787 37.2196 58.7376 38.0632 59.5791 38.6978C60.0921 39.0847 60.3698 39.4942 60.4149 39.7324C60.4572 39.9564 60.3083 40.5343 59.7742 41.2186C59.2289 41.9198 58.2739 42.8985 57.3396 43.9686C55.8515 45.6731 54.3803 47.5479 53.9923 48.1051C53.478 48.8392 53.0155 49.5997 52.5012 50.3461C52.1649 50.8318 51.8192 51.3193 51.4585 51.7927C49.3571 54.5691 47.1956 57.3626 45.3484 60.3208C44.6589 61.4276 43.975 62.526 43.3768 63.6611C42.9746 64.4291 42.6279 65.2179 42.2689 65.9944C41.8987 66.849 41.391 67.665 40.8324 68.4594C39.5834 70.2458 38.0313 71.8749 37.1431 73.3469C36.7512 73.9342 35.9575 74.0904 35.3701 73.6987C34.7855 73.3089 34.6247 72.5163 35.0166 71.929C36.0659 70.5031 37.8128 68.9794 39.2444 67.2496C39.7813 66.6039 40.2711 65.931 40.6451 65.2176C41.2895 63.8481 42.0119 62.4899 42.7015 61.1016C44.2899 57.9015 45.8736 54.6289 47.8074 51.5898C48.284 50.8387 48.7578 50.0857 49.3041 49.3893C50.1376 48.3295 51.086 47.3912 52.0127 46.4425C52.4874 45.9757 54.2569 44.6262 55.8824 43.1194C56.9786 42.1002 57.9779 40.9999 58.5515 40.2686C58.6099 40.1933 58.6664 40.1086 58.7173 40.0324Z" fill="#7400BD"/><path fill-rule="evenodd" clip-rule="evenodd" d="M52.734 54.4669C52.0824 54.3303 51.4648 54.2285 50.8556 54.0835C50.2314 53.9365 49.5987 53.8451 49.0479 53.5758C48.8747 53.493 48.7514 53.3781 48.6074 53.2576C48.2318 52.9337 48.0577 52.6136 47.6896 52.2907C47.6124 52.2229 47.5409 52.1589 47.4467 52.1165C47.314 52.0524 47.1681 52.0326 47.0249 52.0025C46.1474 51.8132 45.2567 51.9373 44.4178 51.5249C43.7795 51.2094 43.3513 50.6097 42.8016 50.0759C42.2141 49.6842 41.4203 49.8403 41.0284 50.4277C40.6385 51.0122 40.7974 51.8077 41.3848 52.1994C42.1558 52.5299 42.9326 52.6562 43.6048 53.0431C44.4869 53.5497 45.0121 54.3528 45.8603 54.8368C46.0618 54.9507 46.2755 55.0646 46.5033 55.1023C47.1699 55.2163 47.6898 54.9143 48.3696 55.0085C48.7528 55.0641 49.1152 55.2486 49.4796 55.4059C50.2987 55.7562 51.0697 56.2091 51.9236 56.6601C52.529 56.8843 53.2014 56.5737 53.4256 55.9685C53.6499 55.3632 53.3393 54.691 52.734 54.4669Z" fill="#7400BD"/><path fill-rule="evenodd" clip-rule="evenodd" d="M67.3137 43.03C67.4569 42.9256 67.6207 42.8513 67.8043 42.8146C68.4945 42.6792 69.1666 43.1273 69.3067 43.8164C70.083 48.3525 69.5009 52.4112 68.1628 56.2759C67.3656 58.5715 66.2757 60.7863 65.0755 63.0132C63.3987 66.1257 61.5035 69.2599 59.5235 72.46C58.6691 73.8445 57.0312 75.9998 55.175 77.6138C53.7445 78.8589 52.1615 79.7698 50.72 79.955C48.7484 80.207 46.86 79.417 45.7583 76.5488C45.4582 75.6837 45.3756 74.8657 45.4766 74.06C45.6597 72.5991 46.4642 71.2467 46.555 69.8263C46.5995 69.0686 46.8482 68.2308 47.2166 67.3668C47.9016 65.7714 48.9735 64.0547 49.6979 62.7549C51.1986 59.8023 52.6268 56.8422 54.1708 53.9348C55.2052 51.9808 56.2904 50.0485 57.5055 48.1661C59.0455 45.7661 60.498 43.3321 62.3832 42.4391C63.7335 41.7974 65.3218 41.7957 67.3137 43.03ZM67.0419 45.5047C66.846 45.4802 66.6559 45.4105 66.4864 45.2853C65.1743 44.2676 64.166 44.0113 63.2658 44.3943C61.6377 45.0916 60.4555 47.2244 59.0756 49.2131C57.8342 51.0126 56.7094 52.8574 55.6563 54.7417C54.0549 57.6067 52.6078 60.5461 51.0685 63.4648C50.5316 64.5754 49.7101 65.9778 49.1721 67.3652C48.8348 68.2377 48.6321 69.098 48.6752 69.8285C48.7549 71.1096 48.2969 72.4075 48.16 73.7319C48.1014 74.2966 48.1596 74.8576 48.441 75.4328C49.1128 76.97 50.1776 77.0436 51.3029 76.5374C53.6852 75.4618 56.2846 72.6788 57.4394 71.0704C59.5992 68.0595 61.7993 65.1776 63.5307 62.1545C64.7261 60.0631 65.6928 57.9049 66.3713 55.6893C67.3609 52.4815 67.6744 49.1249 67.0419 45.5047Z" fill="#7400BD"/><path fill-rule="evenodd" clip-rule="evenodd" d="M66.5602 68.9086C67.1205 68.5764 68.082 68.0711 68.8344 67.353C69.8214 66.4118 70.4582 65.2984 70.6748 65.0593C71.0563 64.665 71.3944 64.2377 71.854 63.9403C72.0771 63.7954 72.3239 63.7069 72.5762 63.6222C73.2005 63.4143 73.7701 63.3862 74.3963 63.1877C74.739 63.0776 75.0639 62.927 75.3831 62.7604C76.128 62.3718 76.8145 61.8871 77.5161 61.4166C78.2026 60.9564 78.8467 60.4557 79.4974 59.939C80.0446 59.5899 80.7667 59.7491 81.1158 60.296C81.464 60.8383 81.3028 61.563 80.7576 61.9094C79.2358 62.7224 77.6087 63.253 76.1341 64.1056C75.829 64.2816 75.5417 64.4858 75.278 64.7221C74.8203 65.139 74.5641 65.6209 74.1374 66.0708C73.9717 66.2458 73.8219 66.4274 73.6242 66.5648C73.2286 66.8396 72.7691 66.978 72.352 67.2179C72.0836 67.3572 70.9725 67.8239 69.9865 68.6474C69.1492 69.3457 68.4909 70.2653 68.0162 70.7566C67.7205 71.0653 67.47 71.2328 67.3485 71.3109C66.7647 71.6967 66.294 71.338 66.0596 71.2307C65.4722 70.839 65.3161 70.0455 65.7061 69.461C65.9114 69.1532 66.2241 68.966 66.5602 68.9086ZM67.4781 69.1045C67.4725 69.1007 67.4668 69.097 67.4612 69.0932L67.4423 69.0847L67.4781 69.1045Z" fill="#7400BD"/><path fill-rule="evenodd" clip-rule="evenodd" d="M74.1067 56.0843C74.7421 56.2633 75.1252 56.6248 75.3237 57.1774C75.5147 57.7046 75.5014 58.3484 75.4362 59.0515C75.3399 60.0644 75.0289 61.032 74.5297 61.6457C74.0597 62.2217 73.3074 62.3157 72.4675 62.2779C72.2378 62.2675 71.9949 62.2158 71.7737 62.1009C71.5025 61.9568 71.2643 61.7817 71.0705 61.5218C70.6018 60.9033 70.3383 60.3197 70.1286 59.6494C69.8473 58.7561 69.6969 57.9663 70.326 57.3047L72.1439 54.9959C72.6007 54.5376 73.3426 54.5386 73.7981 54.9933C74.0946 55.2889 74.1972 55.704 74.1067 56.0843ZM72.1854 57.9121L71.5035 58.4448C71.3745 58.5831 71.4696 58.7771 71.6004 58.9296C71.67 59.0086 71.7802 59.0087 71.8763 59.0605C72.1963 59.2413 72.5532 59.0671 72.9006 59.1641C72.9731 59.1839 73.0342 59.2206 73.0973 59.2423C73.1237 59.2517 73.0917 59.3487 73.0964 59.3232C73.1143 59.2169 73.0078 59.5171 72.9089 59.5614C72.9673 59.535 73.0539 59.5887 73.1095 59.536C73.3252 59.3411 73.6095 59.1473 73.6925 58.8395C73.7283 58.7002 73.638 58.542 73.574 58.4055C73.5561 58.4262 73.5251 58.4423 73.4959 58.4554C72.9733 58.5599 72.4621 58.3291 72.1854 57.9121Z" fill="#7400BD"/><path fill-rule="evenodd" clip-rule="evenodd" d="M73.4584 67.9489C73.4502 67.2702 73.9804 66.7018 74.6631 66.6633C75.1602 66.7133 75.5791 66.8253 75.9284 66.9929C76.0216 66.9572 76.1139 66.9167 76.2033 66.8743C76.8116 66.6598 77.4801 66.979 77.6946 67.5871C77.8667 68.0691 77.7008 68.5868 77.3232 68.8898C77.3504 69.0263 77.3721 69.1713 77.3871 69.32C77.4172 69.642 77.4255 69.978 77.433 70.3216C77.4589 71.5792 77.0038 72.7812 76.2239 73.5708C75.931 73.8692 75.5422 73.9933 75.1542 74.1467C74.642 74.2907 74.077 74.2567 73.5856 73.9657C73.2891 73.7925 72.9907 73.5732 72.7959 73.223C72.38 72.4765 72.1929 71.601 72.1206 70.7736C72.0784 70.2804 71.9985 69.8558 72.0918 69.5508C72.2351 68.8712 72.6919 68.4251 73.2814 68.0552C73.3398 68.0167 73.3991 67.9828 73.4584 67.9489ZM75.4701 69.2821C75.0935 69.3207 74.7169 69.3714 74.3779 69.4636C74.0295 69.5577 73.6933 69.6396 73.5831 69.9577C73.5529 70.113 73.6668 70.3276 73.8061 70.547C73.9199 70.7249 74.1138 70.8012 74.2851 70.948C74.3821 71.029 74.5195 71.1288 74.6485 71.1862C74.6777 71.2098 74.7031 71.2267 74.7314 71.2211L74.6834 71.2013L74.6485 71.1862C74.6193 71.1627 74.5864 71.1326 74.5497 71.1326C74.6467 71.1157 74.8359 71.0705 74.9357 71.0799C74.8745 71.1289 74.8095 71.1712 74.7474 71.2155L74.7314 71.2211C74.8491 71.2587 74.9489 71.256 74.9913 71.1618C75.0176 71.1101 74.9884 71.0865 74.9357 71.0799C75.2776 70.8305 75.6139 70.4917 75.6686 70.0549C75.7026 69.7716 75.6151 69.493 75.4701 69.2821Z" fill="#7400BD"/></svg>