<svg width="96" height="83" viewBox="0 0 96 83" fill="none" xmlns="http://www.w3.org/2000/svg"><path fill-rule="evenodd" clip-rule="evenodd" d="M35.1674 47.1386C35.6919 46.9615 36.3123 46.7972 36.9066 46.4848C37.6065 46.1144 38.2263 45.6425 38.8932 45.3646C39.371 45.166 39.8398 45.1131 40.3128 45.0824C41.0676 45.173 41.6024 45.8604 41.5092 46.6127C41.4187 47.3673 40.731 47.9018 39.9762 47.8112C39.4618 47.6575 38.8339 47.6573 38.2351 47.9101C37.9514 48.029 37.6811 48.192 37.4425 48.3775C36.9958 48.7238 36.6861 49.1273 36.3547 49.4424C36.2194 49.5726 35.8309 49.9921 35.4241 50.3029C35.1169 50.5412 34.7621 50.6129 34.4827 50.689C33.5089 50.945 32.8603 50.3738 32.4023 49.543C32.3052 49.1852 32.1431 48.7623 32.2635 48.3031C32.4816 47.4814 33.168 46.6667 33.434 46.0815L33.4922 44.0389L33.7603 40.9676C33.8913 40.285 34.5555 39.8373 35.236 39.971C35.9188 40.102 36.3664 40.761 36.233 41.4463L35.3352 44.1625L35.1166 46.2346C35.1626 46.4788 35.1346 46.771 35.1667 47.1287L35.1674 47.1386ZM35.2121 47.7305C35.2495 48.1253 35.3343 48.4865 35.5809 48.4054C35.6417 48.3833 35.5615 48.2818 35.5375 48.2286C35.4956 48.0717 35.3722 47.8959 35.2121 47.7305ZM34.7275 47.3419C34.3177 47.0827 33.9221 47.0126 33.9854 47.4529C34.0199 47.7104 34.4346 47.5041 34.7275 47.3419Z" fill="#7400BD"/><path fill-rule="evenodd" clip-rule="evenodd" d="M36.1208 29.8365C36.0672 29.8881 36.0251 29.9262 36.0048 29.9553C35.7165 30.3121 35.3932 30.6341 35.0488 30.9427C33.9076 31.9616 32.482 32.7268 31.4286 33.8816C30.9405 34.3736 30.1431 34.3813 29.6459 33.8936C29.1537 33.4056 29.146 32.6084 29.6338 32.1114C30.8367 30.9828 32.3943 30.2752 33.6755 29.2882C33.9474 29.0801 34.206 28.8606 34.437 28.6081C34.6336 28.3957 35.3865 27.3361 35.8285 26.9951C36.1051 26.7817 36.3684 26.6918 36.5605 26.6848C36.882 26.668 37.2667 26.7615 37.5459 27.1781C37.8254 27.5997 38.0321 28.9445 38.0288 29.1324C38.02 29.7107 37.6014 30.8576 37.5312 31.8158C37.5129 32.0697 37.3909 32.3415 37.6207 32.4042C38.6493 32.6417 39.6002 32.9101 40.5248 33.0954C43.0957 33.6167 45.3417 33.8774 47.5386 34.8445C48.17 35.122 48.7798 35.4787 49.3853 35.8781C50.6178 36.6954 51.8076 37.741 53.0988 39.0041C54.2211 40.1173 55.394 41.3718 55.8352 42.8065C56.1575 43.86 56.1965 45.0049 55.5332 46.2579C55.0048 47.4406 54.0243 48.1373 52.8878 48.5231C51.3462 49.0445 49.4727 48.9133 48.0767 48.4484C47.9279 48.3996 46.0037 47.4995 45.2064 47.177C44.9757 47.1369 44.7577 47.0333 44.5678 46.87C43.9926 46.3758 43.9246 45.5081 44.4189 44.9331C44.4933 44.8575 45.321 44.1598 46.3568 44.7244C47.0691 45.1133 48.7945 46.1961 48.9268 46.2586C49.7268 46.6159 50.787 46.876 51.7709 46.7543C52.6236 46.6499 53.4268 46.2892 53.8201 45.4693C54.1058 44.7475 54.0412 44.1247 53.7947 43.5781C53.3293 42.5503 52.2386 41.8224 51.2822 41.1168C49.5897 39.8065 47.9938 38.9791 46.5363 38.1312C45.4295 37.487 44.4417 36.7963 43.3095 36.2465C42.1902 35.7032 41.0599 35.1458 39.7458 34.7047C38.9579 34.4415 38.108 34.2506 37.2145 34.0129C36.3382 33.8039 35.9396 33.1638 35.8409 32.2884C35.763 31.5565 35.9989 30.5734 36.1208 29.8365Z" fill="#7400BD"/><path fill-rule="evenodd" clip-rule="evenodd" d="M45.8133 20.074C46.5392 20.3443 47.2747 20.6089 47.8965 21.0922C48.3613 21.4497 48.8131 21.8333 49.2541 22.2401C50.2163 23.1228 51.1345 24.084 52.0708 24.9536L57.6043 29.5228C58.6653 30.4206 59.9876 31.5662 61.0243 32.8384C61.8517 33.8564 62.4441 34.9746 62.7211 36.0916C63.1379 37.9658 62.2584 39.0049 60.9446 39.5267C60.2574 39.8011 59.3389 39.8953 58.4239 39.7693C57.1247 39.5922 55.8405 39.0839 55.3649 38.8147C53.8803 37.9714 52.5203 36.8911 51.1705 35.7126C50.327 34.9784 49.4821 34.2244 48.6716 33.4303C46.6127 31.4099 44.7408 29.1828 43.304 26.9529C42.7224 26.0765 41.7279 24.1384 41.3946 22.4755C41.1897 21.4531 41.2767 20.5187 41.6331 19.8391C41.762 19.5918 42.024 19.3195 42.3825 19.0648C42.9972 18.6258 44.0657 18.2001 44.4046 18.017C45.0264 17.705 45.781 17.9582 46.0932 18.5798C46.3523 19.0955 46.2232 19.7054 45.8133 20.074ZM59.4827 36.5685C59.6541 36.553 59.7552 36.5004 59.7026 36.3668C59.666 36.2795 59.546 36.4136 59.4789 36.5512L59.4823 36.5635L59.4827 36.5685L59.4727 36.5692C59.4255 36.6728 59.4131 36.7737 59.4935 36.7777C59.521 36.7781 59.5069 36.7242 59.5024 36.697L59.4827 36.5685ZM43.5372 21.9962C43.5807 22.3731 43.6949 22.7921 43.816 23.2031C44.1337 24.2945 44.627 25.3602 44.9553 25.9306C46.5034 28.5072 48.5035 31.2397 51.0046 33.3193C51.6612 33.8649 52.3673 34.3368 53.0926 34.7648C54.1895 35.4098 55.3405 35.8781 56.5048 36.2554C56.8077 36.3576 57.5426 36.4172 58.3143 36.4665C58.6284 36.4853 59.1616 36.5902 59.4727 36.5692L59.4793 36.5562L59.4789 36.5512C59.3631 35.8798 59.0518 35.203 58.6402 34.5563C57.8559 33.3151 56.8026 32.1541 55.9582 31.2425C55.1605 30.3849 54.3557 29.5353 53.4997 28.7346C52.638 27.9243 51.7254 27.1679 50.8383 26.387C49.981 25.7015 49.1406 24.9421 48.2688 24.2301C47.7173 23.7841 47.15 23.3617 46.5666 22.9906C45.6449 22.4124 44.5043 22.3809 43.5372 21.9962Z" fill="#7400BD"/><path fill-rule="evenodd" clip-rule="evenodd" d="M52.2025 14.0293C53.0988 15.0321 53.9021 16.0619 54.3588 17.2728C54.4591 17.5403 54.5372 17.812 54.5613 18.0978C54.6307 18.8503 54.2813 19.4568 54.3687 20.2155C54.4012 20.4806 54.5225 20.7291 54.6263 20.9764C54.9505 21.7247 55.3943 22.3339 55.7473 23.065C55.898 23.3712 56.0579 23.6668 56.1501 23.9924C56.4144 24.9403 56.4387 25.8913 56.6682 26.8418C56.9611 27.5399 57.7665 27.8693 58.4675 27.5789C59.1681 27.2834 59.4975 26.4783 59.2042 25.7752C58.7235 25.0087 58.147 24.2995 57.9182 23.4239C57.6263 22.3081 57.9365 21.1843 57.7724 20.0388C57.7311 19.7568 57.6844 19.4702 57.5623 19.2119C57.2109 18.4681 56.5793 18.0881 56.1873 17.3699C55.9411 16.9258 55.8254 16.4219 55.6616 15.9416C55.2617 14.7889 54.8634 13.656 54.2447 12.5523C53.8368 11.9878 53.0468 11.8624 52.4849 12.2724C51.9204 12.6802 51.7972 13.4672 52.2025 14.0293Z" fill="#7400BD"/><path fill-rule="evenodd" clip-rule="evenodd" d="M48.0932 19.0487C48.1062 18.7576 48.2168 18.4667 48.4238 18.226C48.5999 18.1077 49.1149 17.6062 49.4196 17.4682C49.7267 17.3275 49.9351 17.1716 50.1275 17.2021C50.427 17.2271 50.9493 17.4853 51.5295 18.0117C51.6288 18.1017 51.7447 18.178 51.8678 18.2513C52.5866 18.6922 53.2743 19.1855 53.6663 19.5735C54.2212 20.1294 53.998 20.7839 53.9969 21.0666C53.8985 21.3541 53.8275 21.7721 53.4935 22.0199C53.0124 22.3738 52.5721 22.6046 51.9147 22.6442C51.5737 22.6674 51.3253 22.7561 51.0292 22.7435C50.7606 22.7312 50.5119 22.75 50.2812 22.6773C49.9072 22.5605 49.5872 22.2996 49.3445 21.8027L48.1512 19.717C48.0696 19.4981 48.0547 19.2666 48.0932 19.0487ZM50.7396 20.1045C50.7307 20.1526 50.733 20.2149 50.7253 20.2455C50.6527 20.4111 50.7197 20.6361 50.7155 20.9115C50.7136 20.9517 50.725 21.0358 50.7613 21.0856C50.7317 20.8928 50.7652 20.7077 50.8393 20.497L50.7751 20.1768L50.7457 20.119L50.7396 20.1045ZM50.872 20.3995L50.8993 20.33C50.9407 20.2168 50.8854 20.081 50.7929 20.0479C50.7749 20.0418 50.7604 20.0478 50.7538 20.0608L50.7751 20.1768C50.811 20.2541 50.8438 20.3241 50.872 20.3995L50.8393 20.497L50.9492 21.0564C51.0381 20.9422 50.986 20.6835 50.872 20.3995Z" fill="#7400BD"/><path fill-rule="evenodd" clip-rule="evenodd" d="M58.9278 17.6013C59.0446 17.5575 59.1702 17.5305 59.3018 17.5181C59.8381 17.6301 60.0349 17.5528 60.2295 17.6456C60.4475 17.7492 60.7609 17.7581 61.0779 18.2118C61.2765 18.4569 61.4757 18.8421 61.7189 19.2789C61.7853 19.3964 61.8639 19.5105 61.9522 19.6189C62.4045 20.175 62.6585 20.7561 62.8613 21.3535C62.9687 21.683 62.8754 21.9701 62.8494 22.2871C62.7977 22.8938 62.4131 23.4655 61.7795 23.7208C61.3886 23.8779 60.9935 24.0127 60.4344 23.7973C60.2447 23.7041 59.8254 23.9158 59.5414 23.467C59.3959 23.2304 59.2745 22.982 59.0133 22.6366C58.7302 22.2678 58.3097 21.9994 58.1592 21.8282C57.9154 21.549 57.92 21.2786 57.9125 21.1466L57.9393 18.6212C58.0295 18.0942 58.4352 17.7035 58.9278 17.6013ZM60.0437 20.118L59.7449 20.9634C59.7918 21.0223 59.8468 21.0882 59.903 21.1365C59.8926 21.1648 59.8773 21.1935 59.8593 21.2198C59.837 21.2565 59.8933 21.3048 59.9399 21.3262C59.9919 21.3523 60.0723 21.2913 60.0851 21.2278L60.0824 21.2255C60.0571 21.2224 60.0315 21.2143 60.0055 21.2013C59.9695 21.189 59.9351 21.1641 59.903 21.1365C59.9629 21.0019 59.9735 20.8435 60.114 20.7504C60.1401 20.7309 60.1687 20.7463 60.2008 20.7739C60.1723 20.9261 60.1136 21.0756 60.0824 21.2255C60.3689 21.2764 60.7374 21.021 60.7436 21.2031C60.7439 21.2406 60.7525 21.1224 60.7276 21.1243C60.6683 21.1338 60.6516 21.0449 60.6076 21.0583C60.4342 21.1139 60.3254 20.9321 60.2235 21.0073C60.2779 20.9656 60.2997 20.8915 60.2612 20.8444C60.2444 20.8206 60.2222 20.7923 60.2008 20.7739C60.2228 20.6672 60.2294 20.5567 60.1959 20.4442C60.1643 20.324 60.1132 20.2103 60.0437 20.118Z" fill="#7400BD"/><path fill-rule="evenodd" clip-rule="evenodd" d="M12.8153 38.279L13.4312 35.514C13.619 34.2709 12.908 33.5746 11.8638 33.3362C11.1866 33.1811 10.3845 33.268 9.70316 33.4488C9.05025 33.6236 8.53984 33.9367 8.25586 34.3509C7.82236 34.9248 7.4094 35.4926 7.02938 36.0875C6.84096 36.3841 6.69027 36.6937 6.44227 36.941C6.21494 37.1664 5.96709 37.3979 5.58118 37.5242C5.28854 37.6245 5.06065 37.7126 4.89119 37.5914C4.52865 37.341 4.37192 36.7972 4.36376 36.212C4.34851 35.1077 4.85806 33.8719 5.26538 33.4208C5.55863 33.0335 5.48553 32.4761 5.09652 32.1797C4.70752 31.8834 4.15164 31.9595 3.85523 32.3484C3.42095 33.0248 3.07372 34.6956 3.1398 36.1678C3.165 36.7957 3.25361 37.3769 3.43925 37.8594C3.81371 38.8229 4.5558 39.3743 5.94682 39.2305C7.00159 39.1141 7.7371 38.6592 8.29866 38.05C8.55317 37.7759 8.77328 37.4638 8.92585 37.1101C9.21492 36.4419 9.28363 35.7011 9.50362 34.9883C9.56171 34.8184 9.67982 34.6427 9.88413 34.5386C10.25 34.3553 10.7332 34.2991 11.1699 34.3403C11.7453 34.3921 12.3035 34.6409 12.1584 35.266L11.2553 37.8379C11.1353 38.266 11.3827 38.7143 11.8156 38.8359C12.2454 38.9591 12.6922 38.7086 12.8153 38.279Z" fill="#7400BD"/><path fill-rule="evenodd" clip-rule="evenodd" d="M11.7391 41.4745C11.356 41.2223 10.6496 40.9677 10.4701 40.9221C10.1234 40.8721 9.78137 40.8237 9.43275 40.8179C8.61873 40.8084 7.81152 40.941 7.02283 41.1273C5.89436 41.3899 4.81344 41.8295 3.78236 42.3546C3.37397 42.5313 2.8942 42.3461 2.71428 41.9394C2.53599 41.5279 2.7226 41.0514 3.12944 40.8716C4.31134 40.4297 5.54115 40.1174 6.7984 39.9331C7.6671 39.8058 8.54779 39.7668 9.43298 39.7532C9.81167 39.7482 10.1873 39.729 10.569 39.7383C10.8958 39.7077 11.7551 39.7853 12.4872 39.9882C12.8792 40.0985 13.1884 40.3043 13.433 40.5066C13.9253 40.9094 13.9777 41.4809 13.8485 42.0824C13.7003 42.485 13.4212 42.8772 12.99 43.1515C12.4398 43.5037 11.6622 43.6964 11.2192 43.8586C10.3949 44.1566 9.55886 44.3505 8.7177 44.59C8.37146 44.6851 8.02672 44.7913 7.68813 44.9181C6.57429 45.3306 5.52597 45.8445 4.55131 46.4206C4.11423 46.6349 3.5855 46.4541 3.37111 46.0171C3.15517 45.5769 3.33589 45.0483 3.77297 44.8341C4.71924 44.4644 5.72765 44.2214 6.74904 43.9328C7.15856 43.8145 7.57276 43.6979 7.97153 43.5417C8.83868 43.2029 9.63585 42.7375 10.4269 42.2436C10.6631 42.0924 11.0211 41.9012 11.3714 41.6863C11.4681 41.6271 11.6344 41.5494 11.7391 41.4745ZM11.7516 41.4841C11.717 41.6857 11.7731 41.9685 11.9127 41.8765C12.0728 41.7705 11.9635 41.6277 11.7516 41.4841ZM11.7533 41.4636C11.8326 41.409 11.8661 41.3573 11.8065 41.3158C11.7892 41.3046 11.7873 41.3566 11.7824 41.3787C11.7696 41.4007 11.7614 41.4321 11.7533 41.4636Z" fill="#7400BD"/><path fill-rule="evenodd" clip-rule="evenodd" d="M8.59752 44.8173C8.3805 44.5191 8.14135 44.2317 7.91036 43.905C7.70434 43.6132 7.45091 43.3289 7.31947 42.9809C7.27926 42.8749 7.27688 42.774 7.26983 42.6635C7.25168 42.3543 7.33047 42.1624 7.31071 41.8579C7.30802 41.7963 7.30841 41.7412 7.28362 41.6826C7.25267 41.6035 7.19482 41.5415 7.1417 41.4733C6.81056 41.0386 6.34084 40.7779 6.15526 40.2875C6.00841 39.892 6.12984 39.4829 6.16439 39.0889C6.09707 38.6073 5.65158 38.2679 5.16835 38.332C4.68512 38.396 4.34574 38.8413 4.4099 39.3245C4.57678 39.7847 4.87829 40.1672 5.02437 40.6651C5.18891 41.2247 5.04737 41.793 5.22434 42.3779C5.26275 42.5123 5.31223 42.6452 5.39976 42.7515C5.67019 43.0785 6.03134 43.0939 6.31288 43.4116C6.46459 43.5847 6.54484 43.8125 6.63476 44.0198C6.8596 44.5341 6.99299 45.0461 7.14074 45.5315C7.33648 45.9305 7.82271 46.0967 8.22492 45.8995C8.62713 45.7023 8.79325 45.2162 8.59752 44.8173Z" fill="#7400BD"/><path fill-rule="evenodd" clip-rule="evenodd" d="M8.92897 47.8032C8.41595 48.0469 7.91579 48.2607 7.40474 48.4523C6.58833 48.7583 5.75025 49.0041 4.79258 49.2144C4.35181 49.293 3.93124 48.9964 3.85728 48.5573C3.7786 48.1167 4.07529 47.6962 4.51444 47.6223C5.40829 47.5062 6.20134 47.361 6.97293 47.1398C7.75557 46.9172 8.51507 46.6312 9.33823 46.2669L10.7488 45.6264C10.961 45.5224 11.4728 45.2361 11.6215 45.1789C12.2228 44.9391 12.409 45.5588 12.3953 45.707C12.3902 45.7527 12.3872 45.9309 12.1634 46.1153C11.9172 46.3263 11.6726 46.5484 11.4577 46.7991C11.2428 47.0498 11.0561 47.326 10.8788 47.6132C10.3805 48.4154 10.0629 49.3057 9.6666 50.1717C9.5607 50.4043 9.45172 50.6306 9.33327 50.8537C9.17813 51.1301 9.00888 51.3938 8.84753 51.6575C9.20942 51.5783 9.51744 51.5255 9.60606 51.4899C10.1492 51.2275 10.6892 50.9667 11.2058 50.6663C12.4561 49.9394 13.6125 49.1092 14.8627 48.398C15.2998 48.1838 15.8317 48.363 16.0476 48.8031C16.262 49.2401 16.0781 49.7702 15.6411 49.9845C14.8988 50.2895 14.1691 50.6119 13.4455 50.9549C12.7868 51.27 12.1217 51.5804 11.466 51.9176C11.0304 52.1429 10.6026 52.3919 10.1591 52.6172C9.93089 52.7527 8.87563 53.5568 8.177 53.9347C7.67479 54.2084 7.22209 54.1986 7.01109 54.1449C6.63003 54.0489 6.40672 53.7459 6.29822 53.2845C6.16224 52.703 6.77543 51.1178 6.89263 50.8521C7.09773 50.4373 7.27933 49.9986 7.53014 49.5889C7.77779 49.1807 8.08193 48.8077 8.38772 48.4299C8.56449 48.2136 8.74443 48.0037 8.92897 47.8032ZM7.98807 52.8527C7.95251 52.9644 7.96762 53.0513 8.07787 53.0759C8.17079 53.0971 8.01281 52.9192 7.99274 52.8622L7.98807 52.8527Z" fill="#7400BD"/><path fill-rule="evenodd" clip-rule="evenodd" d="M15.6871 51.7234C14.9677 52.131 14.2526 52.6035 13.495 53.0534C13.1843 53.2372 12.8814 53.4525 12.5365 53.5823C11.9937 53.7895 11.4529 53.7364 10.9226 53.9768C10.7263 54.0652 10.5548 54.2042 10.3912 54.3433C9.71149 54.928 9.3064 55.704 8.68488 56.3112C8.14918 56.8371 7.52476 57.2139 7.01446 57.7195C6.71804 58.1083 6.7927 58.6611 7.17855 58.959C7.56757 59.2554 8.12355 59.1793 8.41997 58.7904C8.72548 58.2438 9.00124 57.6607 9.47168 57.2101C9.64015 57.0489 9.84452 56.937 10.0442 56.8155C10.5213 56.5305 11.0321 56.3783 11.5327 56.1172C11.7022 56.0302 11.8794 55.9511 12.0255 55.8245C12.4305 55.4727 12.592 54.9929 12.9938 54.6348C13.1527 54.4941 13.3334 54.3819 13.5188 54.2792C14.4313 53.7847 15.4179 53.5131 16.3369 53.2079C16.7484 53.0297 16.9335 52.5501 16.7568 52.1418C16.5753 51.7318 16.0987 51.5451 15.6871 51.7234Z" fill="#7400BD"/><path fill-rule="evenodd" clip-rule="evenodd" d="M17.9434 54.9696C18.0966 55.3619 18.2406 55.7195 18.3735 56.0864C18.5249 56.4993 18.7035 56.8792 18.8708 57.2843C18.9157 57.3919 18.9575 57.501 18.9834 57.6179C19.0472 57.9402 19.1055 58.163 19.1958 58.5154C19.2499 58.6736 19.3168 58.794 19.4183 58.9288C19.4761 59.0066 19.5561 59.0655 19.6394 59.1151C20.2079 59.4491 20.8928 59.4197 21.4983 59.6689C21.6257 59.7203 21.7339 59.7969 21.8342 59.8813C22.0537 60.0643 22.1244 60.3125 22.1872 60.5606C22.4016 60.9976 22.9303 61.1784 23.3673 60.9641C23.8044 60.7498 23.9882 60.2197 23.7739 59.7827C23.4581 59.3954 23.0895 59.1087 22.5881 58.8714C22.4388 58.7992 22.2768 58.7333 22.1325 58.6312C21.6978 58.3219 21.422 57.8718 21.0432 57.484C20.9868 57.4252 20.9384 57.3586 20.8694 57.3139C20.7909 57.266 20.6991 57.3032 20.6205 57.2631C20.4113 57.1811 20.2487 57.194 20.0856 57.0697C19.9868 56.9964 19.8926 56.9246 19.8367 56.8185C19.4771 56.1817 19.6059 55.4193 19.5221 54.6158C19.4261 54.1798 18.9928 53.9052 18.5566 54.0011C18.1173 54.0987 17.8426 54.5319 17.9434 54.9696Z" fill="#7400BD"/><path fill-rule="evenodd" clip-rule="evenodd" d="M12.93 63.673C13.2813 63.3239 13.6638 62.8143 14.1334 62.258C14.2926 62.0699 14.441 61.8597 14.6457 61.7004C14.7442 61.6207 14.8486 61.5774 14.9674 61.5231C15.2697 61.3866 15.516 61.368 15.8232 61.2253C15.8865 61.1942 15.9435 61.1663 15.9991 61.1194C16.0738 61.0553 16.1249 60.9673 16.1792 60.8857C16.5446 60.3491 16.6958 59.7447 17.1121 59.3599C17.4951 59.0032 17.9705 58.9311 18.3104 58.8391C18.7475 58.6248 18.9314 58.0947 18.7155 57.6545C18.5011 57.2175 17.9692 57.0383 17.5321 57.2526C17.1655 57.5305 16.8588 58.0266 16.3254 58.461C15.8634 58.8407 15.2203 58.9714 14.6744 59.3883C14.5553 59.482 14.4347 59.5804 14.3548 59.706C14.1105 60.089 14.1722 60.4869 13.939 60.8605C13.7985 61.0866 13.5827 61.2474 13.3921 61.4115C12.8792 61.8555 12.3593 62.1575 11.9569 62.3784C11.5983 62.6485 11.525 63.1558 11.7952 63.5143C12.0639 63.8697 12.5714 63.9431 12.93 63.673Z" fill="#7400BD"/><path fill-rule="evenodd" clip-rule="evenodd" d="M24.1439 62.2658C24.0302 62.2901 23.9005 62.3302 23.7866 62.3703C23.5793 62.4444 23.3991 62.5014 23.2264 62.5978C22.9459 62.7549 22.6968 62.9439 22.386 63.1434C22.0622 63.3964 21.867 63.551 21.7161 63.6918C21.446 63.9342 21.2994 64.1239 20.7859 64.6468C20.2531 65.2026 19.7034 65.7157 19.1394 66.2239C18.5834 66.7244 18.0211 67.2122 17.4384 67.7061C17.0829 67.9746 16.5723 67.9028 16.3068 67.5459C16.0366 67.1873 16.1099 66.68 16.4654 66.4114C17.2091 65.9172 17.9353 65.4354 18.6351 64.9077C19.0984 64.5627 19.5445 64.1987 19.9861 63.8093L21.7267 62.296L23.0156 61.063C23.7414 60.4283 24.392 60.345 24.8448 60.3548C25.1839 60.3653 25.435 60.5486 25.6765 60.7287C25.9652 60.9486 26.1675 61.313 26.235 61.771C26.3313 62.3758 26.102 63.2857 25.5203 64.2623C25.1945 64.7755 24.4975 65.5651 23.7616 66.4837C23.5274 66.7753 23.2852 67.0826 23.0745 67.4058C22.2811 68.6237 21.6436 69.8948 21.6819 70.4613C21.6782 70.9503 21.2807 71.3415 20.7917 71.3377C20.3026 71.334 19.9113 70.9366 19.915 70.4476C19.9408 70.1718 20.0366 69.8066 20.2543 69.3935C20.6737 68.5986 21.5605 67.5471 22.2948 66.4171C23.0387 65.2746 23.589 64.0738 23.8306 63.429C23.9817 63.0563 24.1732 62.5657 24.1941 62.2962L24.1848 62.2929L24.1439 62.2658L24.1582 62.2627L24.1945 62.2567C24.1937 62.1432 24.1596 62.0814 24.0648 62.0964C23.9779 62.1115 24.0419 62.194 24.1439 62.2658ZM24.1941 62.2962C24.3151 62.3665 24.4631 62.4118 24.4891 62.3205C24.5103 62.2276 24.373 62.2203 24.1945 62.2567L24.1943 62.2725L24.1941 62.2962Z" fill="#7400BD"/><path fill-rule="evenodd" clip-rule="evenodd" d="M17.9689 65.5346C18.2649 65.6095 18.5202 65.6572 18.7752 65.7365C19.0475 65.819 19.3312 65.8528 19.5208 66.0152C19.8014 66.2586 19.7269 66.5073 19.9093 66.791C19.9312 66.8275 19.9419 66.8654 19.978 66.8909C20.0267 66.926 20.0835 66.9296 20.1386 66.9458C20.5102 67.0386 20.8789 66.8853 21.1972 67.1496C21.4183 67.3279 21.438 67.6404 21.5729 67.9553C21.8887 68.3269 22.4469 68.3753 22.8185 68.0596C23.1916 67.747 23.2385 67.1859 22.9226 66.8144C22.5757 66.5877 22.2529 66.4906 21.9959 66.263C21.8909 66.1692 21.8429 66.0552 21.7744 65.9395C21.5859 65.6274 21.4932 65.3743 21.2379 65.1262C21.1595 65.0546 21.0701 64.9846 20.9661 64.9649C20.6164 64.8927 20.4537 65.1296 20.0676 65.0714C19.9132 65.045 19.7705 64.9382 19.6229 64.8456C19.3246 64.654 19.0662 64.3918 18.7292 64.1052C18.3348 63.894 17.8462 64.0432 17.6349 64.4374C17.4236 64.8317 17.5745 65.3234 17.9689 65.5346Z" fill="#7400BD"/><path fill-rule="evenodd" clip-rule="evenodd" d="M28.2573 63.1499C28.2102 63.118 28.1141 63.1062 28.1141 63.1062C28.1141 63.1062 28.1057 63.1771 28.1339 63.2026C28.2263 63.2869 28.3076 63.3884 28.4381 63.4462C28.5057 63.4799 28.5765 63.4962 28.6506 63.5031C28.8351 63.5187 28.9612 63.5354 29.1047 63.5476C29.3601 63.5638 29.5306 63.543 29.7685 63.5875C29.8284 63.5974 29.8883 63.6073 29.9369 63.6424C29.9746 63.6711 29.987 63.7043 30.0103 63.7439C30.1783 64.0622 30.0789 64.2681 30.3214 64.5302C30.4826 64.7065 30.7425 64.7559 30.9737 64.8507C31.2049 64.9456 31.4284 65.0088 31.6833 65.1039C32.0521 65.3591 32.1398 65.866 31.883 66.2316C31.6262 66.5971 31.119 66.6846 30.7534 66.4279C30.4624 66.107 30.2581 65.7947 29.9506 65.5683C29.8643 65.5046 29.7749 65.4424 29.6725 65.4258C29.3825 65.3794 29.304 65.5396 29.009 65.5389C28.927 65.5399 28.848 65.5472 28.779 65.5025C28.5435 65.3508 28.509 65.1045 28.3389 64.8619C28.2905 64.7952 28.2931 64.6722 28.1861 64.6304C27.8936 64.5145 27.565 64.5656 27.3223 64.5275C27.1002 64.4911 27.0146 64.3248 26.8733 64.2448C26.5765 63.8561 26.658 63.3016 27.0436 63.0064C27.426 62.7207 27.9619 62.788 28.2573 63.1499C28.273 63.1579 28.2824 63.169 28.2839 63.1801L28.2573 63.1499Z" fill="#7400BD"/><path fill-rule="evenodd" clip-rule="evenodd" d="M25.3569 72.176C25.8518 71.4228 26.2618 70.6325 26.7926 69.9126C26.901 69.7652 27.014 69.6273 27.1522 69.5085C27.5238 69.1848 27.9334 69.0666 28.2659 68.7032C28.3455 68.6171 28.3983 68.5087 28.448 68.4018C28.5636 68.1408 28.6193 67.8778 28.6908 67.5992C28.7724 67.245 28.8004 66.8777 28.9374 66.5002C28.9858 66.3665 29.0436 66.2281 29.1281 66.112C29.3737 65.7717 29.7473 65.5964 30.1299 65.4873C30.5702 65.2715 30.7494 64.7398 30.535 64.3028C30.319 63.8626 29.7903 63.6818 29.35 63.8977C29.1151 64.0836 28.8945 64.2585 28.7129 64.4968C28.5024 64.7807 28.3266 65.079 28.1506 65.401C28.0834 65.5204 28.0146 65.6444 27.9318 65.7558C27.6496 66.1337 27.3428 66.4452 27.0673 66.7728C26.9065 66.9655 26.7208 67.1155 26.5757 67.3163C26.5136 67.3978 26.4545 67.4857 26.4191 67.5816C26.2724 67.9874 26.3485 68.3508 26.2098 68.7567C26.1565 68.9124 26.086 69.057 25.9966 69.1951C25.7491 69.5717 25.4186 69.8831 25.1022 70.2072C24.7841 70.5359 24.4427 70.8329 24.1058 71.1474C23.8207 71.4953 23.8705 72.0052 24.2171 72.287C24.562 72.5736 25.0719 72.524 25.3569 72.176Z" fill="#7400BD"/><path fill-rule="evenodd" clip-rule="evenodd" d="M27.9204 74.4611C27.8478 74.6814 27.6917 74.8758 27.4668 74.986C27.0297 75.2003 26.501 75.0196 26.2851 74.5794C26.2145 74.3155 26.089 74.0117 26.3043 73.7137C26.4063 73.5693 26.5372 73.3716 26.7655 73.2204C26.9416 73.0987 27.1413 72.9772 27.303 72.8744C27.3379 72.8494 27.3794 72.7898 27.4045 72.8168C27.4138 72.8279 27.3963 72.8482 27.3883 72.8561C27.4713 72.7368 27.5684 72.6303 27.6435 72.5032C27.7123 72.3791 27.7653 72.247 27.8247 72.1118C28.0865 71.5082 28.2334 70.8547 28.6354 70.2805C28.7007 70.1896 28.7834 70.1177 28.8722 70.0505C29.2611 69.7459 29.6987 69.6689 30.0499 69.3278C30.3074 69.0758 30.4426 68.7346 30.6215 68.4426L31.4299 66.7028C31.6678 66.3229 32.1641 66.2053 32.5473 66.4417C32.9257 66.6765 33.0418 67.1774 32.807 67.5557L31.5949 69.0652C31.3891 69.3665 31.1016 69.6293 30.9317 69.9718C30.7074 70.4196 30.7324 70.863 30.53 71.3315C30.4851 71.4321 30.4355 71.5311 30.367 71.6157C29.8719 72.2002 29.1644 72.4881 28.7279 73.04C28.618 73.1763 28.5522 73.3383 28.4753 73.486C28.4125 73.6543 28.1969 74.416 27.9204 74.4611ZM27.8857 73.8378C27.8842 73.8268 27.8812 73.8126 27.8718 73.8015L27.8857 73.8378Z" fill="#7400BD"/><path fill-rule="evenodd" clip-rule="evenodd" d="M36.9561 70.4511C36.8757 70.6477 36.8189 70.8523 36.7857 71.065C36.6661 71.8543 36.7039 72.6921 36.4816 73.5043C36.4004 74.0194 36.327 74.5425 36.1387 75.0237C36.039 75.2769 35.8968 75.5076 35.7073 75.738C35.0606 76.5421 34.0021 77.1476 33.1215 77.1865C32.2424 77.2286 31.4889 76.7416 31.0612 75.5175C31.022 75.2854 30.9779 75.0595 30.9844 74.8324C30.9962 74.3199 31.0882 73.8348 31.256 73.3439C31.4513 72.7729 31.7377 72.2515 31.9976 71.6841C32.3616 70.9046 32.6645 70.0883 32.9618 69.365C33.1438 68.8869 33.7005 68.284 34.3215 67.956C34.8458 67.6793 35.4172 67.6428 35.914 67.8627C36.1625 67.9687 36.3567 68.1484 36.535 68.3517C36.7837 68.6344 36.956 69.0174 37.1888 69.3157C37.44 69.6836 37.3446 70.1861 36.9735 70.4387L36.9561 70.4511ZM35.463 69.498L35.2686 69.1258C35.1037 69.0299 34.8916 69.1103 34.7031 69.2145C34.4084 69.3747 34.1353 69.6107 34.0327 69.826C33.7953 70.3352 33.4994 70.8613 33.2664 71.4273C33.1201 71.7779 32.9991 72.1398 32.9189 72.513C32.7437 73.3571 32.8384 74.1827 33.1859 74.9551C33.2027 75.0293 33.2101 75.0925 33.2381 75.1416C33.2521 75.1701 33.1714 75.1979 33.195 75.2059C33.3194 75.2432 33.4627 75.2711 33.6129 75.2328C33.9907 75.138 34.3927 74.9644 34.7054 74.7208C34.8879 74.5724 35.0249 74.4031 35.0959 74.1955C35.1959 73.9029 35.2283 73.5845 35.2906 73.279C35.3924 72.3492 35.18 71.4437 35.2198 70.5639C35.233 70.2785 35.2792 70.0044 35.3461 69.7242C35.3751 69.6393 35.4167 69.5639 35.463 69.498Z" fill="#7400BD"/><path fill-rule="evenodd" clip-rule="evenodd" d="M38.679 74.0076L38.4562 74.8828L37.7483 78.1408C37.6235 78.5673 37.172 78.8161 36.7439 78.6882C36.3141 78.565 36.0683 78.112 36.1962 77.684L37.1698 74.5511L37.8624 72.4792L38.4365 70.6382L38.5244 69.8645C38.5357 69.6232 38.7108 69.4196 38.9494 69.3694C39.188 69.3192 39.4302 69.4361 39.5373 69.6546L39.8092 70.2009C39.9977 70.5131 40.1028 70.8073 40.1999 71.1093C40.297 71.4113 40.3515 71.7146 40.396 72.0777L40.8119 74.8475C40.8495 74.2674 40.8543 73.6286 40.9155 73.0486C40.9699 72.5427 41.0665 72.075 41.2367 71.6852C41.3202 71.495 41.5536 70.6813 41.6249 70.4342C41.5741 70.0663 41.7584 69.6892 42.11 69.5168C42.5502 69.301 43.0805 69.4849 43.2949 69.9219C43.3645 70.0959 43.4485 70.4594 43.2968 70.8951C43.1275 71.3828 42.7353 72.1289 42.5883 72.3738C42.4444 72.6172 42.3396 72.9161 42.2756 73.2499C42.0982 74.1618 42.098 75.2265 41.9044 75.9931C41.8414 76.3933 41.7659 76.7839 41.7203 77.1794C41.6916 77.4253 41.6818 77.6697 41.6814 77.9252C41.6763 78.187 41.7641 78.6782 41.7134 78.9112C41.6561 79.1868 41.4718 79.34 41.3084 79.4633C41.1149 79.6054 40.8527 79.6396 40.5032 79.5517C40.3158 79.5061 40.0915 79.3293 39.8793 79.0169C39.547 78.5317 39.1411 77.1437 39.0823 76.9918C38.854 76.3102 38.6713 75.6416 38.6449 74.9632C38.6332 74.6429 38.6466 74.326 38.679 74.0076ZM41.1429 77.9967C41.1891 78.1469 41.2673 78.2264 41.3766 78.1768C41.508 78.1163 41.2877 78.0436 41.1429 77.9967Z" fill="#7400BD"/><path fill-rule="evenodd" clip-rule="evenodd" d="M54.0999 73.7566C53.9827 73.4055 53.8527 73.0765 53.7444 72.7917L53.3702 71.5885C53.279 71.3465 53.1519 70.8392 53.1631 70.6058C53.172 70.2715 53.3676 70.0617 53.5219 69.8957C53.751 69.6498 54.1052 69.5391 54.6374 69.671C54.9854 69.7635 55.2846 70.0371 55.4992 70.4505C55.7277 70.8923 55.7499 71.7221 55.8156 71.9923C55.9351 72.6683 56.0696 73.6551 56.3453 74.5374C56.5008 75.0386 56.6596 75.5146 56.9539 75.8181C57.2858 76.1582 57.5096 76.3981 57.7253 76.2531C58.0028 76.066 58.1103 75.6204 58.1081 75.0794C58.022 73.9589 57.9941 72.6448 57.7811 71.4098C57.6481 70.6422 57.4265 69.9181 57.0793 69.3066C56.8649 68.8696 57.0472 68.3363 57.4842 68.1221C57.9213 67.9078 58.4548 68.0901 58.6691 68.5271C59.0101 69.3342 59.1845 70.2582 59.2576 71.224C59.3566 72.515 59.3037 73.8726 59.3012 75.0366C59.3768 76.0876 59.0141 76.894 58.514 77.3081C57.9154 77.8018 57.0157 77.858 55.9023 76.9818C55.7564 76.8687 55.6202 76.7352 55.4919 76.5859C55.4853 76.6285 55.4755 76.6726 55.4642 76.7135C55.4019 77.0111 55.0557 77.7229 54.6208 78.0697C54.3081 78.3212 53.9557 78.4036 53.6095 78.2905C53.4237 78.2323 53.2198 78.073 53.0403 77.8272C52.7389 77.4211 52.4526 76.6933 52.2644 76.3338C51.731 75.3265 51.32 74.3849 50.9804 73.4123C50.6422 72.4428 50.3832 71.4423 50.1741 70.3114C50.1065 69.8693 50.4125 69.46 50.8548 69.3924C51.297 69.3249 51.7112 69.6325 51.7741 70.073C51.8938 71.1339 52.0586 72.0783 52.3103 72.9998C52.5667 73.9308 52.9037 74.8341 53.3412 75.8059L53.9186 77.0469C54.0323 76.8301 54.3952 76.6169 54.4246 76.4846C54.5083 76.0626 54.5122 75.55 54.4294 75.0288C54.3708 74.6451 54.268 74.2674 54.1508 73.9084L54.1061 73.7692L54.0999 73.7566ZM53.6011 71.5146C53.6017 71.4278 53.596 71.3521 53.5454 71.377C53.4599 71.411 53.5084 71.4618 53.6011 71.5146ZM55.2704 71.0811C55.4187 70.8788 55.4704 70.7042 55.2242 70.7228C55.1026 70.7313 55.2522 70.9879 55.2704 71.0811Z" fill="#7400BD"/><path fill-rule="evenodd" clip-rule="evenodd" d="M63.1145 68.2388C63.1209 68.2278 63.121 68.2199 63.1179 68.2136C63.1086 68.1946 63.0693 68.1706 63.0517 68.191C62.9739 68.2645 62.8599 68.3126 62.7991 68.4367C62.6388 68.7588 62.5033 69.1552 62.4567 69.6769L62.6177 71.951C62.682 72.4105 62.7922 72.8593 62.9229 73.302C63.1306 73.9976 63.4032 74.6653 63.6631 75.3392C63.7939 75.7661 63.5522 76.2185 63.1253 76.3493C62.6983 76.48 62.2458 76.2383 62.115 75.8114C61.9439 75.0783 61.7696 74.3466 61.6412 73.6043C61.5536 73.0895 61.4786 72.5762 61.4621 72.054C61.4299 71.5159 61.4529 70.9783 61.4254 70.4418C61.4129 70.224 61.383 70.0108 61.3515 69.7945C60.9756 68.6039 61.1246 67.6902 61.4007 67.0678C61.5628 66.7015 61.8485 66.4672 62.1496 66.296C62.5933 66.0392 63.1663 65.99 63.7577 66.2343C64.3112 66.4657 64.9511 66.977 65.5261 67.9089C65.8503 68.4335 66.0826 68.9952 66.3306 69.5728C66.4841 69.9257 66.6471 70.2819 66.8148 70.6318C67.2342 71.4947 67.6806 72.3246 68.1403 73.0774C68.3547 73.5144 68.174 74.0429 67.7369 74.2572C67.2998 74.4715 66.768 74.2923 66.5536 73.8553C66.1637 72.8523 65.977 71.671 65.4771 70.6119C65.1743 69.9708 64.713 69.4389 64.2292 68.9493C63.9254 68.6583 63.6317 68.4841 63.374 68.3433C63.2971 68.2986 63.1854 68.2472 63.1145 68.2388ZM63.1145 68.2388C63.1033 68.2639 63.0589 68.2935 63.0527 68.273C63.0467 68.2367 63.0751 68.2306 63.1145 68.2388Z" fill="#7400BD"/><path fill-rule="evenodd" clip-rule="evenodd" d="M67.7982 67.791C67.3341 68.2385 66.944 68.7087 66.5146 69.1628C66.3349 69.3491 66.177 69.564 65.9567 69.6995C65.5573 69.9425 65.1398 69.8604 64.7309 70.1001C64.5914 70.1842 64.4942 70.3223 64.3719 70.4333C64.3352 70.4866 64.3362 70.5608 64.2853 70.6093C63.9342 70.9267 63.5238 71.1633 63.3726 71.5517C63.3149 71.6586 63.2714 71.7781 63.1933 71.8832C63.1263 71.9789 63.0374 72.0539 62.9453 72.1305C62.7245 72.3212 62.4556 72.4138 62.1948 72.4748C61.7577 72.6891 61.5754 73.2224 61.7898 73.6594C62.0042 74.0964 62.5376 74.2788 62.9747 74.0645C63.1161 73.9442 63.2635 73.8443 63.3877 73.697C63.6504 73.3836 63.8458 73.0129 64.0929 72.6757C64.1901 72.5455 64.3139 72.4534 64.4156 72.3485C64.4791 72.3017 64.5622 72.3749 64.6475 72.3566C64.8071 72.3216 64.9538 72.3164 65.115 72.2846C65.3536 72.2422 65.5312 72.1237 65.7228 72.0337C65.8656 71.9244 66.0319 71.8389 66.1403 71.6994C66.4351 71.3152 66.3959 70.8748 66.6859 70.4969C66.9409 70.1598 67.3274 69.9546 67.6763 69.7128C68.0142 69.4804 68.3737 69.3002 68.7491 69.1044C69.1108 68.8406 69.1919 68.3334 68.928 67.9717C68.6689 67.6116 68.1615 67.5304 67.7982 67.791Z" fill="#7400BD"/><path fill-rule="evenodd" clip-rule="evenodd" d="M70.6894 61.9783C70.6831 61.9814 70.6767 61.9846 70.672 61.9829C70.587 61.9618 70.6735 61.7858 70.6744 61.6675C70.6812 61.3931 70.732 61.1442 70.7728 60.971C70.8348 60.6971 71.0752 60.6185 71.2007 60.5059C71.641 60.29 72.1697 60.4708 72.3841 60.9078C72.5876 61.3226 72.4403 61.8152 72.0567 62.0504L72.0487 62.0583L72.0393 62.0629C71.9001 62.3237 71.7907 62.5894 71.6748 62.6895C71.6222 62.7506 71.5572 62.8021 71.5062 62.8664C71.4043 62.9949 71.3102 63.1236 71.2112 63.2742C71.0421 63.5221 70.9424 63.7596 70.8476 63.9907C70.7549 64.154 70.6227 64.317 70.4292 64.4512C70.3499 64.5058 70.2627 64.5524 70.1601 64.5674C69.7904 64.6308 69.523 64.5262 69.081 64.5543C68.9879 64.5567 68.8977 64.5892 68.8092 64.6169C68.4754 64.7374 68.1618 64.8989 67.8688 65.0386C67.484 65.2233 67.1766 65.3977 66.9849 65.5034C66.5594 65.6453 66.1005 65.4145 65.9601 64.9923C65.8182 64.5669 66.0489 64.1081 66.4744 63.9663C66.784 63.9166 67.3868 63.9039 68.0223 63.7416C68.2278 63.688 68.4506 63.6456 68.6204 63.5192C68.9155 63.3038 68.9146 63.0057 69.1042 62.7595C69.1329 62.7218 69.1395 62.6793 69.1744 62.6543C69.2299 62.6153 69.3037 62.6616 69.3434 62.6304C69.6983 62.4328 70.177 62.3513 70.5686 62.0925C70.6162 62.0613 70.6544 62.0191 70.6894 61.9783ZM72.0567 62.0504C72.1567 61.966 72.267 61.7902 72.267 61.7902C72.267 61.7902 72.1464 61.8729 72.0969 61.9561L72.0409 62.0582L71.9791 62.0924C72.0012 62.0894 72.0187 62.0769 72.0393 62.0629L72.0409 62.0582L72.0567 62.0504Z" fill="#7400BD"/><path fill-rule="evenodd" clip-rule="evenodd" d="M73.0603 68.8766C72.8083 68.6191 72.5782 68.3824 72.3752 68.1048C72.1597 67.8098 71.9489 67.5163 71.781 67.1901C71.7359 67.1062 71.6925 67.0175 71.6727 66.9212C71.6101 66.6415 71.6321 66.4461 71.606 66.1525C71.5866 66.0009 71.5906 65.889 71.5302 65.7419C71.4869 65.6295 71.4056 65.528 71.318 65.4374C70.9235 65.0337 70.3694 64.8733 69.9671 64.4617C69.8638 64.3552 69.7923 64.2253 69.727 64.1002C69.5652 63.7945 69.5218 63.4819 69.4563 63.1801C69.2404 62.74 68.7085 62.5608 68.2715 62.7751C67.8344 62.9893 67.6506 63.5194 67.8665 63.9596C68.1166 64.2612 68.4002 64.5189 68.7007 64.8351C68.8071 64.9479 68.9182 65.0623 68.9976 65.2002C69.2874 65.6866 69.3242 66.2342 69.5902 66.7205C69.6432 66.8124 69.7024 66.9012 69.7776 66.9664C69.8716 67.0539 69.9757 67.0579 70.081 67.1202C70.3087 67.256 70.4945 67.2985 70.6809 67.4781C70.7467 67.5402 70.7997 67.6163 70.8401 67.6986C71.1994 68.367 71.358 69.0906 71.7281 69.7969C71.984 70.1664 72.4881 70.257 72.8544 70.0028C73.2224 69.7517 73.3162 69.2461 73.0603 68.8766Z" fill="#7400BD"/><path fill-rule="evenodd" clip-rule="evenodd" d="M80.0536 63.4214C80.1808 63.0802 80.506 62.8382 80.8925 62.8412C81.3784 62.8465 81.773 63.2423 81.7693 63.7312C81.7407 63.9534 81.7141 64.1314 81.6168 64.2695C81.4973 64.4342 81.3824 64.5926 81.1909 64.6826C81.1275 64.7137 80.9883 64.7662 80.9883 64.7662C80.9883 64.7662 81.0044 64.7269 81.0203 64.7112C80.6326 65.0663 80.1531 66.0988 79.4849 66.4186C79.0906 66.6079 78.639 66.6643 78.026 66.3678C77.7869 66.2729 77.5785 66.0805 77.3466 65.872C76.9957 65.5491 76.6724 65.1223 76.3968 64.8568C76.1823 64.6359 75.9311 64.4762 75.7197 64.2696C75.5631 64.1185 75.4208 63.9565 75.2927 63.7836C74.8929 63.249 74.6526 62.6951 74.3545 62.0713C74.2396 61.8213 74.0931 61.5867 73.9895 61.3114C73.8402 61.0311 73.4529 60.514 73.2667 60.1024C73.1767 59.903 73.1387 59.7134 73.1289 59.5572C73.1082 59.1628 73.2199 58.7977 73.3725 58.4361C73.6247 57.845 74.0848 57.2934 74.3071 56.6894C74.4948 56.2871 74.9773 56.1095 75.3845 56.2988C75.7869 56.4864 75.9646 56.9689 75.777 57.3712C75.4459 57.9616 74.8742 58.4541 74.5228 59.027C74.4221 59.1982 74.3325 59.3678 74.3152 59.5648C74.3095 59.6973 74.4042 59.8826 74.5069 60.0679C74.6656 60.3672 74.8575 60.6541 74.946 60.8425C75.0347 60.9994 75.1235 61.1483 75.2361 61.2738C75.6022 61.6836 76.0725 61.8575 76.512 62.1449C76.7146 62.2773 76.9235 62.3909 77.0989 62.5563C77.4342 62.8712 77.6773 63.2706 77.9313 63.6842L78.6942 65.2153C78.7946 65.2839 78.8508 65.3742 78.9266 65.3606C78.9803 65.35 79.0122 65.3029 79.0472 65.2622C79.2333 65.0649 79.3225 64.7502 79.4239 64.4765C79.5559 64.129 79.7002 63.8304 79.8342 63.639C79.8869 63.5621 79.9711 63.4855 80.0536 63.4214ZM80.0079 63.6167C79.9998 63.6481 79.9979 63.6844 79.9993 63.7191C80.0011 63.6828 80.0045 63.6498 80.0079 63.6167Z" fill="#7400BD"/><path fill-rule="evenodd" clip-rule="evenodd" d="M76.4387 60.1945C76.4259 60.4247 76.5342 60.7016 76.4339 61.0336C76.4193 61.084 76.3843 61.1247 76.3399 61.1543C76.0624 61.3415 75.95 60.9683 75.7648 61.2556C75.6115 61.4957 76.1133 61.6936 75.9618 61.9054C75.9092 61.9744 75.8248 61.8665 75.7443 61.8706C75.697 61.8702 75.7261 61.7931 75.682 61.7833C75.2449 61.9976 75.061 62.5278 75.2769 62.9679C75.4913 63.4049 76.0232 63.5841 76.4602 63.3698C76.585 63.1437 76.7242 63.0912 76.8019 62.8331C76.8229 62.7638 76.8471 62.7009 76.898 62.6445C76.9648 62.5725 77.0234 62.5477 77.1199 62.5121C77.381 62.4116 77.4755 62.4203 77.6869 62.2184C77.7314 62.173 77.7651 62.1133 77.7624 62.0518C77.7337 61.673 77.4561 61.8681 77.4227 61.4956C77.4127 61.3472 77.5368 61.2235 77.6118 61.1121C77.7075 60.9788 77.8197 60.9434 77.9118 60.8668C78.0979 60.4613 77.917 59.9804 77.5114 59.7943C77.1058 59.6082 76.6233 59.7858 76.4387 60.1945Z" fill="#7400BD"/><path fill-rule="evenodd" clip-rule="evenodd" d="M82.0162 60.7731C81.6403 61.0321 80.9729 60.0079 80.6848 59.7171C80.157 59.2098 79.6451 58.687 79.0838 58.2157C78.844 58.0151 78.5946 57.8271 78.3372 57.6468C77.4898 57.0567 76.5865 56.5607 75.6564 56.0504C75.275 55.7935 75.1478 55.2941 75.3513 54.884L76.0221 53.192C76.1567 52.9139 76.3716 52.6711 76.6506 52.4871C76.9726 52.2703 77.412 52.1571 77.7285 52.0255C77.9815 51.9485 78.6261 51.6207 79.0937 51.5486C79.4269 51.4992 79.7064 51.4682 79.9028 51.5722C80.1338 51.6907 80.4257 51.9012 80.6404 52.2909C80.824 52.6251 81.0053 53.0666 81.1772 53.489C81.377 53.9843 81.577 54.4401 81.6463 54.6614C81.7203 54.8923 81.8791 55.3762 81.8093 55.6264C82.0522 55.6409 82.3754 55.6592 82.4874 55.6632C82.9906 55.6718 83.6426 55.6154 84.2809 55.4989C84.8749 55.3883 85.4553 55.2098 85.8751 54.9765C86.2773 54.7793 86.7604 54.9471 86.9562 55.3461C87.1535 55.7482 86.9904 56.2328 86.5882 56.43C86.1165 56.6298 85.516 56.775 84.8795 56.8552C84.011 56.9589 83.088 56.9676 82.4118 56.8945C82.2131 56.874 81.6896 56.84 81.3636 56.7681C81.1463 56.7175 80.9796 56.6421 80.8949 56.5736C80.7131 56.4271 80.5961 56.2369 80.5569 55.9969C80.5087 55.6984 80.6905 55.2518 80.6153 54.9705C80.5413 54.7396 80.3562 54.1861 80.0633 53.7012C79.9418 53.4937 79.6794 53.3513 79.5132 53.2207C79.4387 53.269 79.3436 53.3155 79.2754 53.3686C79.0103 53.5811 78.7658 53.7874 78.6373 53.8779C78.4155 54.0024 77.6908 54.0788 77.8643 54.2883L77.3579 55.1062C78.1133 55.765 78.8244 56.4534 79.5863 57.0855C80.2432 57.6316 80.9544 58.0961 81.6304 58.6171C81.9394 58.8467 82.6302 59.0854 83.0477 59.3678C83.3004 59.5386 83.4643 59.7528 83.5749 59.9382C83.7909 60.3783 83.607 60.9085 83.1699 61.1227C82.7487 61.3293 82.2466 61.1708 82.0162 60.7731ZM77.8643 54.2883L77.9138 54.2051C77.8963 54.2334 77.8909 54.3185 77.8658 54.2915L77.8643 54.2883Z" fill="#7400BD"/><path fill-rule="evenodd" clip-rule="evenodd" d="M83.7197 40.2164C83.841 40.4397 84.0253 40.6951 84.158 40.8696C84.4424 41.2409 84.7509 41.5414 84.9282 41.6627C85.2394 41.8165 85.5429 41.9466 85.8608 42.05C86.1802 42.1566 86.5078 42.2317 86.8543 42.3054L90.3561 43.2205C90.7842 43.3563 91.0205 43.8139 90.8832 44.2387C90.7458 44.6635 90.2913 44.8982 89.8679 44.764L86.5569 43.4529C86.187 43.3396 85.8346 43.2138 85.4901 43.0802C85.1393 42.9419 84.7933 42.7973 84.4444 42.6148C84.2841 42.5441 84.0613 42.3783 83.7834 42.2043C83.3264 41.9215 82.7832 41.5829 82.3506 41.2058C81.8413 40.7602 81.6561 40.2146 81.5834 39.8181C81.5613 39.6129 81.662 39.2257 82.0655 38.8629C82.2021 38.7409 82.4399 38.585 82.706 38.4546C83.0528 38.2806 83.4451 38.1512 83.54 38.1125C84.0905 37.9212 84.6388 37.8055 85.2101 37.7847C85.9313 37.7572 86.6404 37.8731 87.3655 37.9576C87.8163 38.0115 88.269 38.0214 88.7058 38.0547C88.9897 38.0569 90.4818 37.9028 91.0952 37.936C91.6677 37.9656 91.9173 38.3382 92.0046 38.4761C92.219 38.9131 92.0351 39.4432 91.5981 39.6575C91.3099 39.7988 90.9819 39.7711 90.7291 39.6082C90.1069 39.4772 88.8266 39.3821 88.5746 39.3328C88.1948 39.2794 87.8089 39.1976 87.4146 39.1788C87.0393 39.1585 86.6651 39.1966 86.2924 39.2457C85.6212 39.3273 85.001 39.5528 84.4302 39.9269C84.3684 39.9612 83.9937 40.0781 83.7197 40.2164ZM83.6721 40.2397C83.482 40.3407 83.3503 40.4486 83.4268 40.5485C83.5674 40.731 83.6355 40.4933 83.6721 40.2397ZM83.6839 40.1514C83.7023 40.0128 83.7096 39.8835 83.7131 39.8346C83.7197 39.8 83.714 39.7242 83.6729 39.7286C83.5182 39.7416 83.5657 39.9265 83.6839 40.1514ZM90.4303 39.2794L90.4147 39.2556C90.4178 39.2619 90.4225 39.2714 90.4303 39.2794Z" fill="#7400BD"/><path fill-rule="evenodd" clip-rule="evenodd" d="M87.8968 36.4316C87.9828 36.7351 88.08 37.0213 88.1629 37.3264C88.2396 37.6188 88.3272 37.9097 88.3565 38.2096C88.3653 38.2917 88.3694 38.3721 88.3531 38.4509C88.2732 38.7925 88.0734 38.9219 87.9667 39.257C87.9458 39.3184 87.9248 39.3797 87.9338 39.446C87.9918 39.9086 88.2986 40.2138 88.4705 40.6363C88.492 40.72 88.5325 40.7866 88.5257 40.8528C88.4947 41.1901 88.3717 41.3957 88.3331 41.6935C88.3063 41.8952 88.3696 42.0881 88.4131 42.385C88.6274 42.822 89.1561 43.0027 89.5932 42.7884C90.0334 42.5726 90.2141 42.0441 89.9997 41.6071C89.8854 41.4863 89.7562 41.479 89.7396 41.3732C89.7233 41.2359 89.7038 41.1001 89.7162 40.933C89.7265 40.8179 89.7589 40.7077 89.7789 40.5723C89.9134 40.1017 90.1498 39.7108 90.1126 39.2184C90.1068 39.1506 90.0741 39.092 90.0367 39.0317C89.8592 38.7259 89.639 38.6375 89.4789 38.3192C89.4432 38.2464 89.428 38.1674 89.416 38.0868C89.3773 37.7916 89.3968 37.4952 89.4102 37.1941C89.4267 36.8914 89.473 36.6094 89.5116 36.3116C89.4771 35.865 89.0884 35.5292 88.6417 35.5636C88.1982 35.5964 87.8639 35.9881 87.8968 36.4316Z" fill="#7400BD"/><path fill-rule="evenodd" clip-rule="evenodd" d="M83.7761 31.5019C84.1497 32.5679 84.7638 33.355 85.5516 33.8958C86.1465 34.3073 86.8342 34.5319 87.5712 34.7126C87.7806 34.7632 87.9885 34.8184 88.2026 34.8785C88.7126 35.0212 89.1964 35.1022 89.7608 35.1555C89.9518 35.1443 90.2197 35.1779 90.5167 35.1266C90.9306 35.0494 91.3643 34.8682 91.7446 34.6503C92.3959 34.28 92.9183 33.8392 93.0192 33.228C93.1256 32.7162 93.1274 32.2714 93.1213 31.8344C93.1126 31.5205 93.1102 31.2192 93.0731 30.9114C92.9946 30.2388 92.7946 29.5748 92.5322 28.8157C92.3178 28.3787 91.7859 28.1995 91.3488 28.4138C90.9117 28.628 90.731 29.1566 90.9454 29.5936C91.3773 30.2657 91.8038 30.8227 91.9044 31.4922C91.9328 31.7022 91.9248 31.9183 91.8757 32.1387C91.8316 32.345 91.7197 32.5334 91.6077 32.7455C91.5917 32.7769 91.5414 32.7465 91.516 32.7669C91.4351 32.8262 91.3231 32.8143 91.2172 32.8466C90.8408 32.9683 90.3805 32.919 90.0076 32.9918C89.7611 33.0419 89.5663 33.1413 89.4082 33.1953C88.9395 33.4172 88.529 33.6617 88.0509 33.6722C87.5696 33.6764 87.1134 33.4993 86.7223 33.2707C85.9872 32.8455 85.5229 32.0753 85.3427 31.0913C85.2276 30.6566 84.7864 30.3977 84.3516 30.5126C83.9201 30.626 83.6626 31.0704 83.7761 31.5019Z" fill="#7400BD"/><path fill-rule="evenodd" clip-rule="evenodd" d="M91.0443 24.4273C90.5708 24.4473 90.1665 24.0877 90.1291 23.6111C90.0918 23.1265 90.4563 22.7003 90.9441 22.6615C91.1996 22.6777 91.4771 22.7067 91.7409 22.8601C92.2577 23.1607 92.8006 23.7547 93.1391 24.4687C93.2898 24.7838 93.3993 25.1112 93.4868 25.4257C93.6755 26.1228 93.5934 26.7483 93.1824 27.2719C93.0469 27.4601 92.8233 27.613 92.5806 27.783C92.1809 28.0654 91.6729 28.2791 91.353 28.436C91.0587 28.5488 90.7768 28.6792 90.4863 28.7116C89.5104 28.8287 88.7162 28.4992 87.9294 28.2249C87.5833 28.104 87.2401 28.0051 86.9115 27.8637C85.6582 27.3193 84.5897 26.3347 83.7922 24.7812C83.6139 24.3697 83.8053 23.8949 84.2169 23.7167C84.6252 23.54 85.1034 23.7299 85.2785 24.1429C85.7357 25.4351 86.3924 26.4212 87.3591 26.8861C87.6106 27.0063 87.8765 27.0999 88.1619 27.121C88.7879 27.1716 89.3351 26.7815 90.0498 26.5725C90.2633 26.5111 90.4968 26.5066 90.7323 26.4501L92.1163 26.1879C92.1766 26.1427 92.2651 26.1229 92.283 26.0473C92.3318 25.8505 92.3116 25.609 92.2155 25.389C91.9922 24.8857 91.0462 24.7995 91.0443 24.4273Z" fill="#7400BD"/><path fill-rule="evenodd" clip-rule="evenodd" d="M81.5894 19.0729C82.027 19.6125 82.4608 20.2405 82.9934 20.7415C83.4022 21.1264 83.8526 21.4516 84.413 21.609C84.9701 21.7994 85.5622 21.733 86.1793 21.6936C86.7444 21.6602 87.2903 21.6518 87.8702 21.5364C88.2352 21.4635 88.586 21.3937 88.9105 21.2463C89.2351 21.099 89.4924 20.8707 89.754 20.7071C90.1727 20.4154 90.5925 20.1978 90.9278 19.8802C91.217 19.6048 91.4905 19.3214 91.6326 18.8903C91.7917 18.5099 91.7884 18.1266 91.6636 17.7281C91.5758 17.453 91.4375 17.1711 91.2535 16.8921C90.6936 16.0392 89.6717 15.3656 89.0873 15.2475C88.6032 15.2059 88.1713 15.567 88.1313 16.0541C88.0913 16.5411 88.4541 16.9683 88.9381 17.0099C89.2048 17.0009 89.6863 17.1734 90.0404 17.4868C90.3146 17.7335 90.6043 18.0196 90.4681 18.2946C90.3533 18.453 90.1857 18.5116 90.0289 18.5846C89.6837 18.7538 89.2905 18.8012 88.8809 18.9274C88.6658 19.0015 88.4334 19.0643 88.2022 19.1698C88.0028 19.2597 87.7969 19.3606 87.6035 19.4869C87.0374 19.8548 86.6072 20.4114 85.981 20.6006C85.5746 20.7252 85.1521 20.6809 84.7745 20.5518C84.4253 20.4087 84.159 20.1543 83.9293 19.8702C83.5136 19.3512 83.2393 18.7039 82.9216 18.1525C82.6673 17.7862 82.1631 17.6956 81.7951 17.9467C81.4256 18.2025 81.335 18.7065 81.5894 19.0729Z" fill="#7400BD"/><path fill-rule="evenodd" clip-rule="evenodd" d="M83.9485 17.4577C84.3157 17.7097 84.7119 17.8847 85.0124 18.2088C85.0734 18.2771 85.1264 18.3532 85.1557 18.4449C85.2574 18.7722 85.0494 18.9409 85.2048 19.2497C85.242 19.3257 85.3269 19.3705 85.4023 19.4121C85.6615 19.564 85.8807 19.5704 86.1527 19.7003C86.2517 19.7499 86.3508 19.7838 86.4259 19.8649C86.6386 20.1062 86.6758 20.3983 86.814 20.688C87.1569 21.0345 87.717 21.0388 88.0635 20.6961C88.4147 20.355 88.419 19.7951 88.0746 19.4455C87.7995 19.3093 87.5127 19.2691 87.2998 19.0514C87.2231 18.9751 87.2002 18.8724 87.1584 18.7711C87.0548 18.4959 87.0785 18.28 86.9559 18.0141C86.9218 17.9365 86.8894 17.8464 86.8171 17.8032C86.5283 17.6149 86.3375 17.8027 86.023 17.6662C85.9381 17.6292 85.8645 17.5671 85.8035 17.4988C85.5048 17.1543 85.3628 16.7368 85.1291 16.3485C84.8192 16.0212 84.3082 16.0046 83.984 16.3129C83.6583 16.6179 83.6386 17.1304 83.9485 17.4577Z" fill="#7400BD"/><path fill-rule="evenodd" clip-rule="evenodd" d="M83.8413 10.3143C83.4646 10.4754 83.2354 10.7449 83.0408 11.0289C82.8637 11.2846 82.8691 11.6081 82.7941 11.9277C82.7355 12.1686 82.5998 12.3804 82.5646 12.6451C82.5023 12.9585 82.4718 13.441 82.3597 13.8613C82.2802 14.1477 82.2277 14.4092 82.067 14.5862C81.714 15.156 80.8534 15.4601 79.9714 15.4722C79.0515 15.4872 78.1724 15.1207 77.7982 14.5421L77.1862 13.0704C77.0585 12.642 77.3049 12.1912 77.735 12.0668C78.1635 11.9391 78.6144 12.1856 78.7389 12.6156L79.0118 13.8685C79.1453 14.1566 79.5797 14.2893 80.0039 14.321C80.4627 14.3514 80.9524 14.2842 81.1486 13.9954L80.7354 12.7367C80.6347 12.2911 80.5811 11.8617 80.6553 11.4442C80.7362 10.9685 80.9698 10.5476 81.2628 10.1918C81.8169 9.52727 82.5575 9.01884 83.6166 8.95921C83.9797 8.92259 84.3262 9.00412 84.646 9.27159C84.8451 9.43717 85.0375 9.66102 85.2313 9.90386C85.6281 10.4164 86.0083 11.0314 86.1751 11.2993C86.2499 11.4197 86.4234 11.6371 86.5386 11.8399C86.6507 12.0364 86.6727 12.2416 86.692 12.409C86.7377 12.8305 86.4941 13.1188 86.1231 13.3636C85.6828 13.5794 85.1541 13.3987 84.9382 12.9585C84.8217 12.721 84.822 12.4576 84.9184 12.2296L84.8195 11.9639C84.7314 11.7282 84.5983 11.1845 84.324 10.7376C84.1993 10.5395 83.8844 10.4581 83.8413 10.3143ZM85.2671 11.819L85.3448 11.777C85.3147 11.7879 85.2894 11.8003 85.2671 11.819Z" fill="#7400BD"/><path fill-rule="evenodd" clip-rule="evenodd" d="M75.0404 8.26648C75.2261 8.12438 75.6321 8.47137 76.0048 8.4222C76.2969 8.38503 76.5877 8.31318 76.7969 8.18704C76.8746 8.13716 76.9616 8.10626 76.9701 8.03534C76.9432 7.6203 76.3874 6.84786 76.0434 6.03446C75.9535 5.81925 75.87 5.60882 75.8337 5.39875C75.6535 4.40681 75.9815 3.60176 76.4478 3.27887C77.6922 2.49985 78.6794 2.56584 79.5951 3.10291C79.9453 3.31225 80.2856 3.57358 80.621 3.87271C81.334 4.50915 81.9873 5.31231 82.4175 5.99704C82.6319 6.43404 82.4527 6.96579 82.0156 7.18007C81.5754 7.39591 81.0451 7.21199 80.8307 6.77499C80.5539 6.04255 80.169 5.00958 79.4584 4.46621C79.1604 4.2352 78.7949 4.17085 78.4475 4.21548C78.1743 4.25122 77.9674 4.47833 77.7096 4.76972C77.743 4.7337 77.835 4.68077 77.8905 4.64177C77.8797 4.60383 77.8799 4.58019 77.9083 4.58199C77.9571 4.58552 77.9349 4.61214 77.8905 4.64177C77.9074 4.70026 77.9588 4.789 77.9662 4.85215C77.9809 4.99422 78.0081 5.14584 78.0179 5.30996C78.062 5.94438 77.9985 6.61584 78.0257 7.18389C78.0414 7.6083 78.0893 7.95411 78.0339 8.17766C77.9709 8.78602 77.1604 9.35234 76.2153 9.57216C75.2544 9.79185 74.2638 9.55862 73.8936 9.06836L73.13 7.62392C72.9612 7.20778 73.1667 6.73776 73.5798 6.57061C73.9944 6.40662 74.4662 6.60741 74.6349 7.02355L75.0404 8.26648Z" fill="#7400BD"/></svg>