<svg width="167" height="248" viewBox="0 0 167 248" fill="none" xmlns="http://www.w3.org/2000/svg"><path fill-rule="evenodd" clip-rule="evenodd" d="M69.7668 228.173C69.4729 228.463 69.0503 228.616 68.6115 228.55C67.8747 228.436 67.3701 227.75 67.4834 227.015C67.5069 226.884 67.58 226.384 68.1839 225.995C68.4264 225.838 68.9583 225.553 69.7043 225.175C71.3332 224.353 74.089 223.133 76.9314 221.753C79.4529 220.533 82.0248 219.17 84.1277 218.221C85.9545 217.394 87.4428 216.85 88.2387 216.732C88.7501 216.655 89.138 216.745 89.3986 216.834C91.3688 217.554 92.9807 218.612 94.1438 219.91C95.0668 220.938 95.7173 222.109 96.0813 223.311C97.0456 226.491 96.2274 229.915 93.3875 232.168L88.1588 236.58C86.5849 237.891 85.415 238.774 84.0925 239.595C82.8755 240.354 81.529 241.045 79.5979 241.934C78.8169 242.255 77.9242 241.881 77.6028 241.095C77.2838 240.314 77.6605 239.423 78.4414 239.102C80.3058 238.438 81.6198 237.928 82.8101 237.324C84.1016 236.665 85.2455 235.919 86.8021 234.814C87.7239 234.147 88.6191 233.493 89.4582 232.798C90.328 232.077 91.1363 231.317 91.9414 230.565C93.6652 228.801 93.9122 226.464 93.0708 224.37C92.7541 223.582 92.2598 222.846 91.6385 222.148C90.8169 221.224 89.7758 220.378 88.4389 219.771C88.2345 219.796 87.857 219.86 87.5501 219.94C85.9932 220.353 83.5976 221.205 81.0676 222.265C79.9916 222.717 78.8878 223.194 77.8271 223.713C74.8024 225.182 72.0417 226.783 70.5673 227.661C70.2378 227.86 69.9034 228.079 69.7668 228.173Z" fill="#7400BD"/><path fill-rule="evenodd" clip-rule="evenodd" d="M64.6531 176.838L61.1996 177.768C60.1048 178.084 58.9991 178.414 57.8999 178.796C53.5364 180.312 49.1642 182.252 44.7404 183.685C44.0279 183.901 43.2743 183.5 43.0577 182.787C42.8411 182.074 43.2446 181.322 43.9571 181.106C45.6119 180.646 47.2666 180.134 48.9147 179.586C51.2464 178.814 53.5747 178.017 55.8673 177.22C57.4442 176.672 58.9966 176.105 60.5483 175.624L67.0531 173.426L68.4327 172.959C68.9608 172.799 69.5335 172.967 69.8898 173.387C70.2461 173.807 70.3195 174.404 70.0732 174.894C70.0732 174.894 69.8342 175.394 69.5758 175.766C69.4033 176.01 69.1991 176.2 69.0303 176.32C68.6338 176.611 68.2613 177.066 67.8746 177.567C66.8882 178.859 65.9378 180.497 65.0657 181.637C63.8184 183.194 62.6179 184.705 61.3382 186.112C59.3916 188.261 57.3324 190.225 55.2152 192.302C54.8534 192.652 54.4808 193.293 54.1443 193.982C53.9244 194.438 53.7172 194.907 53.5378 195.345C54.1806 195.134 54.8293 194.895 55.4624 194.617C56.2879 194.255 57.0829 193.821 57.8225 193.352C58.7008 192.776 59.6144 192.269 60.5449 191.789C64.0933 189.961 67.9425 188.681 71.4208 186.681C72.166 186.284 73.0939 186.568 73.4908 187.312C73.8888 188.061 73.6054 188.984 72.8602 189.381C69.6566 190.961 66.1968 191.952 62.8965 193.29C61.5395 193.835 60.2147 194.445 58.9494 195.181C58.2723 195.579 57.552 195.936 56.8156 196.266C55.7262 196.751 54.6 197.173 53.5002 197.501L52.1162 197.953C51.7468 198.065 51.346 197.968 51.0705 197.694C50.7963 197.425 50.6919 197.025 50.7981 196.651C50.7981 196.651 51.3989 194.26 52.1834 192.416C52.5208 191.626 52.9171 190.94 53.2963 190.5L62.5381 179.587C63.201 178.82 63.9139 177.798 64.6531 176.838ZM67.2956 174.067C67.3397 174.038 67.3835 174.009 67.427 173.979C67.3953 174 67.3043 174.033 67.2956 174.067Z" fill="#7400BD"/><path fill-rule="evenodd" clip-rule="evenodd" d="M40.5648 145.138C42.0965 144.856 43.5994 144.523 45.1498 144.399C45.811 144.344 46.477 144.325 47.1392 144.362C48.2471 144.431 49.2925 144.714 50.3965 144.829C50.8607 144.881 51.324 144.928 51.7909 144.919C53.988 144.898 56.1357 144.383 58.3325 144.377C59.7983 144.376 61.2475 144.593 62.7089 144.683C63.4536 144.685 64.0594 144.084 64.061 143.339C64.0626 142.594 63.4594 141.991 62.7146 141.989C61.231 142.073 59.7549 142.258 58.2681 142.219C56.0175 142.158 53.8246 141.561 51.573 141.556C51.1206 141.555 50.6758 141.62 50.227 141.681C49.1628 141.816 48.1549 142.069 47.091 142.204C46.7186 142.254 46.3458 142.294 45.9706 142.298C44.0768 142.32 42.2109 142.111 40.3145 142.092C39.473 142.161 38.8458 142.9 38.9147 143.742C38.9839 144.579 39.7233 145.208 40.5648 145.138Z" fill="#7400BD"/><path fill-rule="evenodd" clip-rule="evenodd" d="M36.6645 130.966C36.906 131.824 37.2542 132.688 37.4397 133.673C37.5113 134.056 37.5572 134.455 37.5454 134.858C37.5252 135.532 37.2994 136.133 37.2419 136.822C37.2188 137.103 37.198 137.374 37.2303 137.654C37.3845 138.967 38.0265 140.152 38.1245 141.413C38.1928 142.296 38.0091 143.138 37.9226 143.939C37.921 144.685 38.5243 145.288 39.2693 145.29C40.0142 145.292 40.6201 144.691 40.6217 143.945C40.5361 143.083 40.3042 142.194 40.2774 141.25C40.2398 139.917 40.7019 138.581 40.57 137.203C40.5441 136.932 40.4537 136.676 40.372 136.416C40.1713 135.783 39.8769 135.246 39.6935 134.623C39.6308 134.408 39.5767 134.194 39.559 133.974C39.4631 132.785 39.6574 131.683 39.7084 130.647C39.6198 129.804 38.8658 129.195 38.0257 129.285C37.186 129.375 36.5759 130.129 36.6645 130.966Z" fill="#7400BD"/><path fill-rule="evenodd" clip-rule="evenodd" d="M48.0685 130.688C48.3281 131.434 48.6301 132.042 48.7698 132.701C48.8327 132.997 48.8629 133.299 48.8412 133.584C48.7988 134.141 48.5564 134.548 48.4794 135.064C48.4483 135.268 48.4182 135.472 48.4414 135.676C48.5519 136.646 49.1441 137.439 49.2089 138.47C49.2471 139.072 49.0594 139.684 48.9615 140.368C48.96 141.113 49.5633 141.722 50.3082 141.724C51.0531 141.726 51.659 141.12 51.6606 140.374C51.5637 139.649 51.3639 139.006 51.3653 138.362C51.368 137.26 51.8776 136.337 51.7886 135.291C51.7709 135.086 51.6896 134.897 51.6144 134.698C51.4345 134.223 51.1706 133.87 50.9899 133.354C50.9348 133.196 50.8861 133.038 50.874 132.869C50.8194 132.083 51.0217 131.292 51.1106 130.353C51.0174 129.516 50.2602 128.907 49.4211 129.002C48.5816 129.092 47.9756 129.851 48.0685 130.688Z" fill="#7400BD"/><path fill-rule="evenodd" clip-rule="evenodd" d="M41.5266 88.4384C41.6828 88.5672 41.9263 88.7152 42.1082 88.8444C43.4122 89.7814 44.4876 91.1959 45.7277 92.2025C46.1584 92.5541 46.5932 92.8699 47.1063 93.0149C48.396 93.3267 49.8482 93.7999 51.24 94.3486C52.1957 94.7223 53.1283 95.1172 53.9418 95.5901C54.963 96.177 56.0183 96.5153 57.1015 96.7238C58.8227 97.0527 60.6086 97.0195 62.4651 97.0124C63.3088 97.0477 63.9642 97.7627 63.9283 98.6069C63.8921 99.451 63.1784 100.103 62.3346 100.068C60.3081 99.8859 58.3643 99.7011 56.5174 99.1771C55.2135 98.8099 53.9548 98.2959 52.7601 97.4823C51.9082 96.9173 50.9093 96.398 49.8605 96.0141C48.771 95.616 47.637 95.3648 46.6293 95.1678C45.8017 95.0368 45.0431 94.6753 44.2997 94.2179C42.9991 93.4228 41.8103 92.208 40.4572 91.4848C38.9602 90.6462 38.3576 89.6553 38.1854 88.8434C37.9351 87.6535 38.5067 86.3581 40.0573 85.3683C40.8144 84.8877 41.8491 84.4425 43.0584 84.0725C46.4664 83.034 51.3455 82.5357 54.7055 82.2499C56.6808 82.0862 58.1648 82.0071 58.6356 82.1113C59.5564 82.2839 61.2978 83.0773 62.8783 83.3542C63.4915 83.4586 64.0821 83.5685 64.4111 83.1761C64.9086 82.6223 65.7625 82.5761 66.3172 83.0702C66.8708 83.5692 66.9159 84.4261 66.4183 84.9799C65.6347 85.7892 64.5258 86.1083 63.2458 85.9503C61.4449 85.7292 59.2488 84.5579 58.1552 84.2791C57.6991 84.1781 56.0979 84.2522 54.0567 84.5425C52.0992 84.82 49.7852 85.3479 47.6064 85.9371C45.7086 86.4526 43.9432 87.0707 42.6599 87.7223C42.3042 87.8997 41.7715 88.1058 41.5217 88.291L41.5291 88.3658L41.5266 88.4384ZM41.5217 88.291C41.5093 88.1993 41.4742 88.1341 41.4186 88.1636C41.3429 88.2096 41.3654 88.2773 41.441 88.3568C41.3691 88.4297 41.3581 88.5005 41.4416 88.5608C41.4906 88.5926 41.5193 88.5257 41.5266 88.4384C41.4936 88.4102 41.4645 88.3829 41.441 88.3568L41.4766 88.3228L41.5217 88.291Z" fill="#7400BD"/><path fill-rule="evenodd" clip-rule="evenodd" d="M51.8952 77.2557C51.7731 78.6298 51.8091 79.9291 51.6231 81.2159C51.5638 81.6262 51.4552 82.0256 51.3345 82.4223C51.0454 83.3726 50.5492 84.1933 50.3289 85.1744C50.201 85.7421 50.2172 86.3312 50.1622 86.9203C50.1597 87.9653 50.3125 88.9716 50.4124 90.0237C50.4503 90.4294 50.4834 90.8341 50.4648 91.243C50.4277 92.0817 50.214 92.8918 49.9502 93.7012C49.789 94.4288 50.249 95.1476 50.9761 95.3087C51.7032 95.4697 52.4238 95.0124 52.585 94.2848C52.6891 93.3929 52.6606 92.5291 52.641 91.6465C52.6328 91.2944 52.6232 90.9368 52.6473 90.5866C52.7246 89.4797 52.9599 88.4287 53.2677 87.3833C53.386 86.803 53.5726 86.2483 53.6192 85.6731C53.699 84.687 53.4734 83.7639 53.5102 82.784C53.5252 82.3795 53.555 81.9731 53.6389 81.5786C53.9029 80.3353 54.4256 79.1806 54.8829 77.9174C55.0651 77.0951 54.5448 76.2741 53.7203 76.0915C52.8959 75.9089 52.0774 76.4334 51.8952 77.2557Z" fill="#7400BD"/><path fill-rule="evenodd" clip-rule="evenodd" d="M81.1853 56.8746C81.6573 56.3482 82.4661 56.2684 83.022 56.722C83.613 57.1721 83.7125 58.021 83.2434 58.6189C82.5606 59.3527 81.7228 59.6491 80.7352 59.4182C79.8328 59.2121 78.8134 58.4969 77.8387 57.7837C76.8642 57.0706 75.9479 56.3903 75.6941 56.2703C74.6973 55.8477 73.7813 55.4707 72.9151 55.0286C72.3054 54.7312 71.6993 54.4591 71.1434 54.0988C69.7915 53.2426 68.693 52.0864 67.128 51.1567C66.5808 50.8478 65.9799 50.5788 65.3423 50.3123C64.0585 49.7976 62.6097 49.3763 60.944 48.856C60.1639 48.5323 59.8004 47.6277 60.1229 46.8538C60.4457 46.0801 61.3478 45.7032 62.1279 46.0269C64.1691 47.1088 65.7748 48.1549 67.3071 48.9496C67.6711 49.1317 68.033 49.2894 68.3861 49.4421C69.9924 50.0921 71.4643 50.4795 72.8292 51.2032C73.4187 51.5125 73.9559 51.9091 74.517 52.2956C75.3087 52.8356 76.079 53.4334 76.9419 54.0602C77.2072 54.2332 78.0373 55.2381 79.1238 56.061C79.6214 56.4351 80.1936 56.7346 80.7216 56.8927C80.8655 56.9506 81.0733 56.858 81.1853 56.8746Z" fill="#7400BD"/><path fill-rule="evenodd" clip-rule="evenodd" d="M84.649 15.8719C86.0282 16.7274 87.4652 17.755 88.921 18.8803C90.1754 19.8563 91.4329 20.9145 92.7068 21.9603C95.822 24.5201 98.9103 27.1395 101.281 29.3715C101.81 29.8954 101.812 30.7523 101.288 31.2818C100.763 31.8112 99.9096 31.8138 99.3804 31.29C97.123 28.9473 94.2954 26.0114 91.1668 23.4742C88.0456 20.9443 84.6497 18.8321 81.7499 17.5631C81.3432 17.3687 81.0487 16.9981 80.9485 16.5613C80.8517 16.1207 80.9653 15.6584 81.2527 15.3108C82.0931 14.2106 82.3737 13.7845 82.7742 13.2831C83.0462 12.9418 83.3749 12.5704 83.9507 11.948C85.1498 10.6929 86.2143 9.80025 87.1552 9.25197C88.5211 8.45655 89.6978 8.27102 90.619 8.436C91.7252 8.64049 92.6247 9.25807 93.1805 10.3471C93.778 11.5205 94.0317 13.3233 93.7597 15.4962C93.7336 15.7219 94.0064 17.4932 93.8037 18.4993C94.5387 18.3003 95.3614 17.9944 96.1115 17.8677C96.5563 17.791 96.9811 17.759 97.3759 17.7907C98.3551 17.8693 99.3154 18.0372 100.238 18.2678C101.217 18.5121 102.148 18.838 103.008 19.2223C103.823 19.5766 104.66 20.419 105.563 20.9395C105.756 21.0521 105.957 21.1291 106.167 21.143C106.924 21.1951 107.76 21.3331 108.512 21.5823C109.165 21.805 109.741 22.1455 110.203 22.567C110.803 23.161 110.809 24.1293 110.212 24.7313C109.62 25.3297 108.651 25.3333 108.051 24.7392C107.843 24.5185 107.551 24.3586 107.23 24.2424C106.786 24.0829 106.307 23.9756 105.865 23.9107C105.256 23.8183 104.672 23.5778 104.13 23.2059C103.342 22.6628 102.661 21.8024 101.941 21.4194C101.227 21.043 100.449 20.711 99.622 20.4527C98.8303 20.2004 97.9974 20.0078 97.1454 19.8898C95.9229 19.7497 94.2244 20.5967 93.0446 20.736C92.7907 20.7647 92.5515 20.7722 92.3311 20.7551C91.9563 20.7288 91.3819 20.3971 91.2026 19.4941C90.9983 18.4586 91.1934 15.678 91.1971 15.3225C91.208 14.2773 91.0902 13.3633 90.8738 12.6247C90.7169 12.1101 90.554 11.6975 90.1482 11.6549C89.7882 11.6146 89.3906 11.8458 88.8592 12.1601C88.1137 12.6001 87.2367 13.2619 86.249 14.2234C85.71 14.7315 85.4003 15.0354 85.1402 15.3167C84.9737 15.4966 84.8224 15.67 84.649 15.8719Z" fill="#7400BD"/></svg>