<svg width="204" height="231" viewBox="0 0 204 231" fill="none" xmlns="http://www.w3.org/2000/svg"><path fill-rule="evenodd" clip-rule="evenodd" d="M167.977 204.321C168.985 202.777 169.988 201.209 170.867 199.562C173.387 194.856 175.17 189.784 177.735 185.183C178.693 183.465 179.816 181.862 180.905 180.269C183.391 177.116 186.485 173.815 189.152 170.471C191.778 167.172 194.252 163.981 194.41 160.838C194.58 157.42 191.603 155.017 184.808 153.059C183.06 152.48 182.111 150.587 182.692 148.836C183.274 147.086 185.164 146.14 186.916 146.72C197.21 150.607 199.897 155.744 199.718 161.061C199.474 168.282 192.424 177.253 187.673 184.982C186.411 186.726 185.259 188.582 184.007 190.391C181.023 194.709 177.704 198.845 174.752 203.234C173.676 204.834 172.727 206.502 171.671 208.084C171.341 208.579 170.849 208.947 170.28 209.119C167.014 210.305 162.493 209.543 158.41 207.706C154.215 205.818 150.746 202.6 149.301 199.304C148.594 197.336 149.617 195.164 151.583 194.456C153.55 193.752 155.721 194.774 156.428 196.742C157.007 198.789 158.959 200.82 161.284 202.224C163.473 203.546 165.928 204.493 167.977 204.321Z" fill="#7400BD"/><path fill-rule="evenodd" clip-rule="evenodd" d="M177.077 183.919C177.044 183.852 177.267 183.573 177.18 183.444C177.065 183.278 176.911 183.119 176.719 183.009C175.738 182.436 174.416 183.071 173.178 182.568C172.905 182.455 172.723 182.229 172.518 182.023C171.85 181.359 171.798 180.628 171.09 180.106C170.724 179.838 170.292 179.687 169.891 179.615C167.817 179.251 166.447 179.565 166.05 179.523C164.183 178.589 163.422 176.311 164.357 174.443C165.273 172.611 167.479 171.844 169.325 172.695C169.354 172.701 169.386 172.714 169.416 172.739L169.438 172.749L169.419 172.739C169.644 172.912 169.957 173.505 170.458 173.875C170.946 174.239 171.431 174.692 172.143 174.966C172.393 175.061 172.658 175.088 172.938 175.088C173.887 175.078 174.48 174.82 175.491 174.802C175.862 174.795 176.191 174.811 176.54 174.941C176.874 175.064 177.143 175.296 177.406 175.533C178.726 176.707 179.443 177.932 180.413 179.055C180.702 179.39 181.045 179.648 181.363 179.907C182.582 180.9 183.031 182.078 183.483 183.341C183.613 185.18 182.228 186.778 180.389 186.909C178.556 187.039 176.963 185.663 176.821 183.837C176.82 183.829 176.82 183.821 176.819 183.813L176.821 183.837C176.843 183.889 176.992 183.91 177.077 183.919Z" fill="#7400BD"/><path fill-rule="evenodd" clip-rule="evenodd" d="M142.849 184.414C143.782 183.412 144.754 182.309 145.71 181.186C149.181 177.11 152.432 172.775 153.393 171.699C161.9 161.795 170.532 151.976 178.577 141.702C183.887 134.918 188.92 127.926 193.556 120.625C194.717 118.886 197.069 118.415 198.809 119.576C200.548 120.737 201.019 123.09 199.862 124.829C194.775 132.099 189.267 139.01 183.548 145.755C175.052 155.775 166.089 165.401 157.191 175.077C155.78 176.69 149.208 185.421 144.754 190.13C142.366 192.652 140.079 193.913 139.019 193.937C138.514 193.956 136.2 193.323 136.134 190.658C136.099 189.309 136.477 185.853 136.527 185.618L138.352 174.217C138.51 173.28 138.683 172.343 138.868 171.41C135.995 175.799 132.945 180.095 129.809 184.341C126.554 188.742 123.218 193.092 119.79 197.338C111.02 208.199 101.725 218.461 92.5693 227.891C91.2657 229.194 89.1484 229.194 87.8449 227.891C86.5413 226.587 86.5413 224.474 87.8449 223.17C98.9443 212.375 110.541 200.636 120.65 187.619C127.229 179.15 133.08 170.095 138.155 160.769C141.287 154.895 144.989 149.388 148.394 143.692C148.9 142.84 149.401 141.983 149.891 141.123L150.909 139.195L158.753 124.609C159.602 122.943 161.488 122.091 163.297 122.546C165.105 123.001 166.359 124.648 166.316 126.514C166.316 126.514 166.278 127.764 166.046 128.805C165.908 129.422 165.719 129.989 165.499 130.417C165.082 131.212 164.612 131.995 164.099 132.758C163.547 133.576 162.942 134.378 162.329 135.176L158.194 143.241C155.333 148.208 152.702 153.511 150.404 158.972C148.14 164.364 146.173 169.898 144.866 175.521L142.849 184.414Z" fill="#7400BD"/><path fill-rule="evenodd" clip-rule="evenodd" d="M57.3877 200.76C61.5452 190.714 68.0437 180.629 75.5603 171.646C83.802 161.804 93.3512 153.285 103.853 148.587C112.044 144.904 117.154 145.448 119.92 147.211C122.461 148.83 123.827 151.684 123.877 155.417C123.923 158.85 122.766 163.301 120.849 167.689C118.288 173.552 114.478 179.344 111.936 182.68C108.5 187.166 104.609 191.4 100.579 195.515C96.5714 199.615 92.4448 203.603 88.0559 207.108C84.5811 210.055 77.0683 215.057 70.5853 217.417C66.5242 218.898 62.7601 219.172 60.1414 218.119C56.5046 216.654 53.8473 212.489 56.0071 203.325L56.1806 202.608C56.4004 201.859 56.8285 201.227 57.3877 200.76ZM63.5623 203.094C63.6432 203.618 63.6162 204.17 63.4581 204.713L63.2691 205.292C62.6058 207.467 62.2703 209.156 62.3667 210.479C62.4091 211.089 62.3821 211.586 62.7254 211.837C63.3 212.253 64.1138 212.296 65.0394 212.226C71.3373 211.74 80.8247 206.056 84.7816 203.043C88.9546 199.661 93.0426 195.978 96.6833 191.882C100.32 187.79 103.471 183.309 106.344 178.777C108.388 175.572 111.177 169.98 113.267 164.569C114.551 161.237 115.616 158.009 115.627 155.452C115.631 154.797 115.87 154.168 115.438 153.863C115.134 153.647 114.713 153.578 114.173 153.566C112.337 153.524 109.877 154.064 106.637 155.294C96.7759 159.066 87.2538 166.108 79.6214 175.075C72.4789 183.467 67.0718 193.464 63.5623 203.094Z" fill="#7400BD"/><path fill-rule="evenodd" clip-rule="evenodd" d="M29.8999 228.995C36.3135 218.142 50.5253 196.858 64.3514 178.06C66.8506 174.666 69.3844 171.384 71.8488 168.26C79.161 158.989 85.8601 151.094 90.1525 146.088C92.2158 143.666 95.4786 136.678 95.9452 131.086C96.2653 127.229 95.1122 124.009 92.9294 122.135C89.3542 119.165 85.8408 118.61 82.5279 119.369C79.8321 119.986 77.2096 121.595 74.8377 123.716C72.0764 126.184 69.6274 129.335 67.5756 131.472C65.8941 133.234 63.3564 136.497 60.5989 140.323C55.242 147.758 48.9402 157.327 46.3871 161.172C43.4483 165.468 37.0154 173.262 29.6762 181.315C19.1822 192.82 6.95657 204.895 1.97376 209.723C0.670206 211.027 0.670206 213.14 1.97376 214.444C3.27731 215.747 5.39461 215.747 6.69431 214.444C10.8749 210.124 20.0885 200.074 29.2365 189.904C33.0701 185.642 36.8689 181.342 40.3167 177.466C45.045 172.144 49.0868 167.582 51.2658 164.585C53.9809 160.91 60.6915 151.773 66.3453 144.677C69.0142 141.329 71.4323 138.456 73.0289 136.929C75.7286 134.326 79.1341 129.836 82.9869 127.939C84.4408 127.218 85.9951 127.16 87.6149 128.514C87.9504 128.787 87.8077 129.335 87.8231 129.894C87.8578 131.101 87.6958 132.451 87.4027 133.797C86.7047 136.983 85.4821 140.191 84.4717 141.541C80.507 146.864 74.5446 155.418 67.6103 165.067C65.2809 168.31 62.8396 171.67 60.3058 175.056C51.8867 186.294 42.8004 198.042 35.4766 208.026C30.5092 214.799 26.2746 220.703 23.4593 225.007C22.3563 226.785 22.9077 229.119 24.6857 230.222C26.4636 231.321 28.7969 230.769 29.8999 228.995Z" fill="#7400BD"/><path fill-rule="evenodd" clip-rule="evenodd" d="M53.0767 110.759C52.8414 112.367 51.453 113.601 49.7793 113.601C47.9358 113.601 46.4394 112.105 46.4394 110.261C46.4509 109.586 46.7209 108.36 47.6465 106.844C49.328 104.071 53.5703 98.9226 58.8115 93.0373C64.4731 86.6777 71.3496 79.4657 77.1924 73.4339C83.7449 66.6731 89.1635 61.4358 90.818 60.595C97.3936 57.1356 103.055 58.7053 106.796 62.3498C110.499 65.9674 112.242 71.9683 110.888 77.9693C110.136 81.2861 108.188 84.3791 105.62 87.2793C100.98 92.5167 94.0345 97.0598 90.3128 101.584C87.7404 104.654 85.0716 107.631 82.3179 110.531C79.7957 113.192 77.2271 115.811 74.6393 118.418C70.8521 122.24 67.0224 126.027 63.4743 130.131C58.638 135.696 50.0415 148.11 41.7535 159.758C38.4869 164.347 35.3206 168.855 32.3317 172.724C28.8954 177.167 25.7252 180.823 23.041 182.99C18.3435 186.804 14.0897 186.831 11.0159 185.104C7.96527 183.384 5.81323 179.492 5.54326 174.305C5.14603 166.646 8.98726 155.87 19.9055 147.004C21.56 145.723 23.9396 146.028 25.22 147.679C26.5004 149.333 26.1957 151.713 24.5451 152.993C17.3755 158.288 13.5343 164.602 12.2848 170.097C11.2512 174.664 11.6754 178.609 13.9971 180.036C15.4241 180.911 17.3292 180.364 19.6278 178.628C23.1335 175.952 27.6304 170.687 32.2584 164.37C34.8655 160.811 37.5035 156.923 40.0528 152.989C47.1683 142.021 53.7169 130.809 57.8011 125.491C60.2616 122.298 62.8379 119.228 65.5144 116.247C67.9788 113.497 70.4972 110.809 73.0542 108.155C76.8106 104.256 80.6403 100.438 84.2116 96.3502C88.1801 91.9035 95.3997 87.53 100.348 82.4045C102.172 80.5147 103.703 78.5517 104.313 76.3264C105.308 72.705 104.567 68.964 102.403 66.6616C100.367 64.4941 97.1391 63.7845 93.321 65.5972C91.3888 66.5613 83.876 74.0317 75.8811 82.7092C68.5072 90.7118 60.8363 99.7981 56.3394 105.803C54.8006 107.855 53.3274 110.334 53.0767 110.759Z" fill="#7400BD"/><path fill-rule="evenodd" clip-rule="evenodd" d="M38.9243 111.403C39.8442 111.662 41.354 111.713 43.2301 112.402C43.7362 112.588 44.259 112.852 44.7036 113.234C45.5061 113.923 45.7381 114.812 46.5154 115.62C46.7894 115.905 47.055 116.19 47.4073 116.371C49.1548 117.265 51.1847 116.933 52.5743 117.827C53.1447 118.194 53.4411 118.764 53.7402 119.206C53.8744 119.405 53.7514 119.634 53.7933 119.804C54.6433 121.441 56.6592 122.079 58.2949 121.231C59.9305 120.38 60.5708 118.363 59.7208 116.726C58.9463 115.714 57.4058 114.849 55.6611 113.466C54.1568 112.273 53.2873 110.105 51.2993 108.999C50.9331 108.797 50.536 108.759 50.125 108.694C49.029 108.525 48.2042 108.686 47.178 108.492C46.8509 108.431 46.5406 108.344 46.261 108.191C45.4809 107.768 44.9441 107.17 44.4017 106.672C43.6775 106.005 43.3 105.407 42.9533 104.99C41.1835 103.878 38.8433 104.413 37.7332 106.182C36.6204 107.951 37.1545 110.291 38.9243 111.403Z" fill="#7400BD"/><path fill-rule="evenodd" clip-rule="evenodd" d="M29.7463 108.793C35.8668 103.421 41.6094 97.6245 47.3828 91.7778C49.8241 89.3056 52.2191 86.7795 54.7414 84.3729C60.3335 79.0353 66.3422 74.1759 71.8341 68.711C74.5607 65.996 77.1872 63.1845 79.7518 60.3305C85.7682 53.6354 91.426 46.7103 97.4077 40.1486C98.6032 38.9033 100.196 36.8731 102.147 34.6733C104.28 32.2714 106.86 29.6577 109.467 27.4212C112.321 24.973 115.16 22.9243 117.609 23.0115C119.452 23.0115 120.949 21.5151 120.949 19.6716C120.949 17.8285 119.452 16.3318 117.609 16.3318C114.624 16.4409 111.184 18.1702 107.863 20.9845C104.751 23.6209 101.685 27.149 98.9465 30.2489C96.7636 32.7176 94.7813 34.8708 93.4353 36.1743C87.631 41.4475 81.8691 46.8245 76.2307 52.412C73.8434 54.7769 71.4175 57.1141 69.1614 59.6132C63.1489 66.2659 57.8884 73.5357 51.7871 80.0843C50.2676 81.7157 48.6825 83.2854 47.0627 84.8126C40.0937 91.3651 32.6503 97.289 25.0141 102.877C23.3828 104.185 23.1166 106.568 24.4241 108.199C25.7276 109.831 28.1111 110.097 29.7463 108.793Z" fill="#7400BD"/><path fill-rule="evenodd" clip-rule="evenodd" d="M29.9011 84.254C31.2239 82.9235 32.4504 81.5312 33.6189 80.0734C36.1219 76.9456 38.3626 73.625 41.0045 70.6014C43.6694 67.732 46.2765 64.828 49.1806 62.2402C53.6273 58.2794 58.4713 54.8893 63.08 51.0851C64.426 49.9166 65.7566 48.7326 67.0023 47.4552C68.7417 45.6723 70.3306 43.7513 72.1162 42.0123C77.3382 36.5193 81.6692 30.1492 86.1738 23.7726C87.2498 22.2492 88.3335 20.7258 89.4828 19.2522C93.2508 14.4325 97.3813 9.90673 101.843 5.75348C103.143 4.44955 103.143 2.33302 101.84 1.03062C100.536 -0.272159 98.4187 -0.270633 97.1152 1.03331C92.5682 5.91469 88.7732 11.444 84.6967 16.7542C82.9843 18.983 81.1563 21.1092 79.3475 23.2346C75.3559 27.9116 71.1945 32.3147 66.6128 36.1706C64.9544 37.657 63.3307 39.1831 61.8266 40.821C60.4189 42.3513 59.1385 43.9862 57.7077 45.4945C53.743 49.9216 49.9211 54.3764 45.7057 58.5339C42.8788 61.3222 39.8128 63.86 36.955 66.6522C33.9506 69.4213 31.3281 72.5452 28.4356 75.4222C27.3017 76.5484 26.1177 77.6051 24.8566 78.604C23.2985 79.9962 23.1635 82.3951 24.5557 83.9532C25.948 85.5113 28.343 85.6463 29.9011 84.254Z" fill="#7400BD"/><path fill-rule="evenodd" clip-rule="evenodd" d="M81.05 54.0742C80.6142 53.5921 80.0743 53.0383 79.3685 52.4775C77.7642 51.2048 75.1802 50.4285 72.5924 48.3417C72.0331 47.8904 71.5433 47.3231 71.0574 46.7157C69.9775 45.374 69.4183 43.6936 68.0299 42.2589C67.4861 41.6989 66.7881 41.2847 66.0939 40.8393C64.5589 39.8531 62.9044 39.0695 61.1188 38.0934C59.5105 36.7593 59.2869 34.3701 60.6213 32.7607C61.9518 31.1517 64.3429 30.928 65.9512 32.2617C67.2586 33.8522 68.3385 35.3528 69.5803 36.718C70.1395 37.3336 70.6679 37.9603 71.312 38.4119C72.9665 39.5704 74.7212 39.8986 76.2138 40.7918C76.8925 41.1976 77.5289 41.616 78.0573 42.1205C80.487 44.4433 81.563 46.9548 83.0131 48.435C83.1635 48.5896 83.3139 48.7346 83.4605 48.8696C84.5558 48.7535 85.6857 49.1847 86.4224 50.1111L87.4367 51.8767C96.7891 59.0416 98.1235 64.2481 93.4955 62.879C97.7649 71.4138 93.7424 67.7037 81.7828 54.8841L81.4087 54.4676L81.1927 54.267C81.1426 54.2015 81.0963 54.1398 81.05 54.0742Z" fill="#7400BD"/></svg>