<svg width="124" height="175" viewBox="0 0 124 175" fill="none" xmlns="http://www.w3.org/2000/svg"><path fill-rule="evenodd" clip-rule="evenodd" d="M10.4196 145.952C13.6661 141.844 16.894 137.727 20.144 133.623C30.4267 120.628 40.876 107.771 51.0282 94.6686C57.5544 86.2387 63.9861 77.7352 70.4174 69.2356C85.4527 49.3668 100.432 29.4702 116.315 10.2521C117.623 8.7157 119.937 8.52815 121.477 9.83987C123.013 11.1513 123.201 13.4655 121.889 15.0054C102.409 37.2305 83.6873 60.0756 65.7422 83.5385C62.1485 88.2407 58.6356 92.9961 55.1438 97.7764C45.3584 111.168 35.8883 124.772 26.0885 138.151C21.8827 143.89 17.6079 149.573 13.3293 155.256C13.1209 155.529 12.8752 155.927 12.6179 156.37C16.9514 154.089 21.2339 151.677 25.4609 149.14C42.1283 139.143 58.1441 127.715 75.1113 118.489C75.1964 118.442 75.4061 118.339 75.6399 118.227C75.7445 117.946 75.8946 117.676 76.0857 117.424C77.163 116.004 79.1905 115.727 80.6105 116.805C82.4974 118.273 82.4633 119.853 81.8123 121.265C81.5624 121.806 81.1332 122.409 80.4612 122.907C79.7399 123.439 78.4805 123.927 78.0969 124.119C58.5868 134.237 40.0331 146.872 20.8751 157.785C15.9894 160.565 11.1068 163.307 6.10598 165.795C5.21518 166.225 4.16144 166.145 3.34124 165.582C2.52456 165.023 2.07378 164.064 2.15943 163.077C2.35621 160.187 2.59847 157.308 2.87564 154.429C2.42243 151.257 2.37197 147.754 2.62472 144.095C3.26504 134.822 5.76172 124.44 6.98285 116.098C7.23457 114.18 8.9842 112.819 10.9076 113.052C12.8275 113.281 14.2085 115.016 13.9987 116.942L13.9882 117.022C13.8568 118.141 13.7068 119.298 13.5386 120.487C12.7898 126.118 11.951 131.714 11.1202 137.307C10.9827 138.452 10.8606 139.599 10.7552 140.732C10.5927 142.507 10.4713 144.253 10.4196 145.952ZM76.0982 121.338C76.2469 121.551 76.443 121.753 76.7054 121.949C76.4687 121.771 76.2652 121.565 76.0982 121.338Z" fill="#7400BD"/></svg>