<svg width="161" height="123" viewBox="0 0 161 123" fill="none" xmlns="http://www.w3.org/2000/svg"><path fill-rule="evenodd" clip-rule="evenodd" d="M127.306 81.7439C127.405 81.7965 127.605 81.8399 127.639 81.7489C127.652 81.7079 127.572 81.6743 127.519 81.6709C126.339 81.5871 125.589 81.5715 125.253 82.1928C124.744 83.1328 124.843 84.4878 124.733 86C124.704 86.7253 124.594 87.4378 124.591 88.146C124.59 88.4026 124.654 88.6457 124.741 88.8998C125.052 90.0864 124.342 91.3045 123.152 91.6163C121.962 91.928 120.743 91.2151 120.433 90.0285C120.329 89.4506 120.271 88.8915 120.319 88.3288C120.398 87.4056 120.67 86.5004 120.843 85.5666C121.202 82.9056 121.626 80.7948 122.826 79.4004C123.733 78.346 125.076 77.5907 127.457 77.3361C129.837 77.0648 131.02 78.3715 131.819 80.025C132.057 80.5163 132.216 81.0863 132.328 81.6962C132.577 81.6549 132.837 81.6279 133.099 81.6241C134.444 81.6034 135.839 81.8018 136.849 82.3029C138.416 82.8595 139.097 84.0243 139.321 85.4525C139.674 87.698 138.342 90.8872 137.414 92.0806L134.958 95.2944C134.007 96.3092 132.407 96.3625 131.389 95.4092C130.374 94.4582 130.321 92.8589 131.274 91.8401L134.282 89.2199C134.739 88.7961 135.487 87.8309 135.772 86.8028C135.911 86.3048 136.217 85.736 135.729 85.5563C135.233 85.4504 134.627 85.5374 134.033 85.6588C133.638 85.7418 133.321 85.9956 133.057 86.2528C133.061 86.3441 133.068 86.9199 133.064 87.102C133.006 90.0226 129.049 89.3229 128.955 89.2758C128.142 88.8495 127.455 88.0007 127.197 86.6908C127.02 85.7906 127.151 84.3889 127.215 83.0288C127.231 82.6725 127.296 82.331 127.266 82.0073C127.261 81.9368 127.296 81.8218 127.306 81.7439C127.25 81.714 127.225 81.683 127.269 81.6681C127.312 81.6499 127.315 81.6868 127.306 81.7439ZM133.055 86.2568L133.024 86.282C132.915 86.3891 132.66 86.7464 132.837 86.8198C132.887 86.8409 132.924 86.7491 132.933 86.7057L133.055 86.2568ZM132.422 85.0281C132.395 85.3804 132.417 85.624 132.619 85.5608C132.897 85.471 132.711 85.2461 132.422 85.0281Z" fill="#7400BD"/><path fill-rule="evenodd" clip-rule="evenodd" d="M113.216 86.7957C113.261 86.7431 113.299 86.7058 113.322 86.6895C113.761 86.3421 114.226 86.0425 114.487 85.5536C114.763 85.03 114.917 84.4292 114.973 83.8199C115.157 81.837 114.375 79.7895 113.7 78.0761C113.347 76.7263 114.154 75.3459 115.501 74.9931C116.847 74.6403 118.231 75.4468 118.584 76.7965C118.841 78.7392 118.902 80.9311 118.605 83.0597C118.452 84.1593 118.18 85.2081 117.898 86.2426C117.577 87.4203 117.187 88.5002 116.53 89.5405C116.382 89.7844 115.843 90.691 115.238 91.4477C114.897 91.879 114.465 92.1629 114.102 92.4188C112.953 93.2289 111.763 92.8982 110.826 92.491C110.502 92.3262 110.046 91.9536 109.633 91.3816C109.252 90.8558 108.865 89.9146 108.699 89.6438C108.14 88.5562 107.535 87.1459 107.163 85.6336C106.785 84.0884 106.516 82.5388 106.679 81.245C106.629 80.1373 107.027 78.6179 107.229 77.2114C107.307 76.6475 107.32 76.1245 107.186 75.7667C106.875 74.5801 107.588 73.3611 108.777 73.0494C109.964 72.7385 111.183 73.4514 111.494 74.638C111.585 75.2192 111.617 75.9045 111.468 76.6649C111.18 78.1108 110.346 79.9768 110.255 81.2722C110.325 81.9715 110.652 82.7233 111.009 83.498C111.575 84.717 112.425 85.8238 113.128 86.6171C113.155 86.6513 113.184 86.7119 113.216 86.7957ZM113.579 87.7364C113.739 88.0738 113.929 88.3147 114.147 88.1582C114.393 87.9879 113.724 87.835 113.599 87.7482L113.579 87.7364ZM112.677 87.3848C112.061 87.2386 111.437 87.2448 111.677 87.7289C111.858 88.095 112.295 87.7685 112.677 87.3848Z" fill="#7400BD"/><path fill-rule="evenodd" clip-rule="evenodd" d="M103.38 84.4658C104.254 83.9772 104.968 83.4174 105.879 83.2027C106.269 83.1109 106.677 83.079 107.065 83.1348C107.821 83.2442 108.302 83.7095 109.03 83.9187C109.307 83.9966 109.576 84.0834 109.863 84.0833C111.289 84.0721 112.531 83.2682 113.997 83.3079C114.954 83.334 115.844 83.7161 116.817 83.9089C118.046 83.9528 119.078 82.9885 119.122 81.7602C119.163 80.5327 118.202 79.5026 116.974 79.4587C116.009 79.5714 115.096 79.8583 114.17 79.7524C112.922 79.6077 111.943 78.9378 110.752 78.6585C110.457 78.5889 110.161 78.516 109.856 78.5242C109.537 78.5326 109.247 78.6153 108.944 78.7117C108.164 78.9571 107.614 79.3097 106.834 79.5791C106.588 79.6605 106.343 79.7282 106.083 79.7416C104.761 79.8078 103.528 79.5498 102.101 79.5818C100.754 79.9346 99.9467 81.3151 100.3 82.6648C100.653 84.0113 102.034 84.8186 103.38 84.4658Z" fill="#7400BD"/><path fill-rule="evenodd" clip-rule="evenodd" d="M102.35 87.2746C101.795 87.4885 101.322 87.7184 100.746 87.8829C100.186 88.0432 99.652 88.2344 99.0692 88.2538C98.836 88.2637 98.6101 88.2237 98.3857 88.1629C97.6513 87.969 97.1573 87.6097 96.433 87.3893C96.1465 87.3003 95.8775 87.1998 95.5761 87.2104C94.0352 87.2518 92.801 88.2553 91.2985 88.5088C90.2812 88.6831 89.2803 88.542 88.2573 88.6425C87.0675 88.9542 86.3546 90.1732 86.6663 91.363C86.9772 92.5496 88.1962 93.2625 89.3861 92.9508C90.1537 92.6061 90.8652 92.1258 91.7065 92.0489C93.0507 91.9223 94.2271 92.7592 95.5929 92.7671C95.884 92.7694 96.1581 92.6805 96.433 92.5948C97.1851 92.3602 97.6675 91.9057 98.4346 91.7286C98.8434 91.6318 99.2723 91.6254 99.689 91.6632C100.765 91.7642 101.686 92.1107 102.737 92.3106C104.127 92.2027 105.166 90.9905 105.061 89.5994C104.954 88.2093 103.741 87.1667 102.35 87.2746Z" fill="#7400BD"/><path fill-rule="evenodd" clip-rule="evenodd" d="M97.2159 72.8283C97.3087 74.2395 97.6176 75.5361 97.6134 76.942C97.6101 77.2163 97.5763 77.4917 97.5063 77.7596C97.2047 78.8914 96.4197 79.6917 96.16 80.8399C96.0385 81.3809 96.1467 81.9371 96.1144 82.4924C96.173 83.564 96.3592 84.6534 96.1367 85.761C95.8723 87.0608 95.2596 88.2057 95.0352 89.3583C94.9536 90.5862 95.8837 91.6448 97.1117 91.7264C98.3364 91.8088 99.3982 90.8778 99.4766 89.6507C99.4115 88.9979 99.3253 88.3163 99.4158 87.5919C99.4555 87.2739 99.5008 86.951 99.6112 86.6418C100.036 85.4573 100.708 84.461 101.168 83.3595C101.342 82.7464 101.615 82.1555 101.633 81.5217C101.664 80.2831 101.051 79.2852 100.941 78.0562C100.917 77.7822 100.929 77.5021 100.975 77.2338C101.197 75.9313 101.752 74.8015 102.216 73.5556C102.415 72.1772 101.457 70.8936 100.078 70.6942C98.6997 70.4947 97.4185 71.449 97.2159 72.8283Z" fill="#7400BD"/><path fill-rule="evenodd" clip-rule="evenodd" d="M88.8939 77.1429C88.7984 76.4262 88.5483 75.7978 88.0692 75.3389C87.5629 74.9588 86.807 75.2047 86.0549 75.3607C84.8707 75.6026 83.7045 76.0961 82.8536 76.384C81.667 76.6948 80.4489 75.9852 80.1371 74.7953C79.8254 73.6055 80.5391 72.3897 81.7258 72.0788C83.1766 71.7979 85.4264 71.2528 87.277 71.4277C88.4869 71.5448 89.5708 71.8727 90.3601 72.6024C91.1225 73.2162 91.6716 74.0464 92.1288 74.9828C92.4792 75.6942 92.7369 76.4949 92.9069 77.3527C94.0215 77.7716 94.7172 78.9395 94.4991 80.1554C94.3436 81.0232 93.762 81.7123 93.0021 82.0344C92.8559 83.081 92.6013 84.1184 92.2362 85.0993C91.6773 86.6061 90.866 87.9842 89.816 88.96C88.4073 90.2758 86.6806 90.9914 84.8731 90.9283C82.5846 90.752 81.147 89.6349 80.8026 87.4727C80.5842 86.0909 80.8059 84.3409 81.1598 82.7956C81.4747 81.4142 81.8446 80.2167 82.2265 79.6655C82.8656 78.6606 84.0824 78.0342 85.5421 77.6176C86.5758 77.3229 87.7644 77.1892 88.8939 77.1429ZM88.2467 81.496C88.0709 81.4772 87.8927 81.4623 87.7153 81.4507C86.9995 81.4058 86.2901 81.3729 85.6929 81.5328C85.4434 81.5981 85.1867 81.597 85.045 81.7606C84.7376 82.1658 84.4121 83.2457 84.3693 84.361C84.3503 84.8752 84.7637 85.4095 84.9786 85.8386C85.109 85.7361 85.2311 85.6152 85.3664 85.5182C85.6958 85.2884 85.9666 84.9782 86.2572 84.6525C87.0397 83.7776 87.7693 82.6875 88.2467 81.496Z" fill="#7400BD"/><path fill-rule="evenodd" clip-rule="evenodd" d="M71.5754 69.6582L71.5591 69.5565C71.4202 68.0479 72.5101 66.7028 74.0175 66.5335C75.5249 66.3641 76.8883 67.4323 77.084 68.9362C77.084 68.9362 77.1899 69.7185 77.1503 70.4808C77.1347 70.7344 77.1119 70.9865 77.0777 71.2211L77.0787 71.2379L77.0712 71.2877C77.0576 71.3664 77.0464 71.4412 77.032 71.5167C76.8823 72.3933 76.7019 73.2438 76.3728 74.0752C76.0391 74.9282 75.6818 75.7431 75.2328 76.5341C74.9152 77.1744 74.5849 77.7531 74.3642 78.3852C74.15 79.0155 74.0427 79.6759 73.8965 80.3705L72.8718 87.9398C72.5832 89.304 71.2433 90.178 69.8791 89.8894C68.5158 89.604 67.6418 88.2641 67.9304 86.8999L69.2737 83.0514C67.6351 83.8942 65.7024 84.1101 63.4382 83.5172C62.2772 83.1173 61.6583 81.8507 62.0606 80.6857C62.4606 79.5247 63.728 78.909 64.8889 79.309C66.3853 79.9457 67.7432 79.884 68.7791 79.0759C69.2608 78.6968 69.6584 78.1791 69.9871 77.6076C70.4795 76.7471 70.7069 75.7237 70.9013 74.6781L71.712 70.6102L71.7161 70.6125L71.7167 70.6021L71.7379 70.4872C71.7349 70.5017 71.7222 70.5186 71.7072 70.5397L71.7167 70.6021L71.712 70.6102L71.6784 70.6121C71.6439 70.6109 71.6788 70.5745 71.7072 70.5397L71.5747 69.6686L71.5722 69.659L71.5754 69.6582Z" fill="#7400BD"/><path fill-rule="evenodd" clip-rule="evenodd" d="M50.9966 64.7759C49.9947 65.6092 49.1407 67.0463 48.7589 68.681C48.3076 70.6244 48.4792 72.6883 48.4981 74.1565C48.4157 75.3812 47.3571 76.3114 46.13 76.233C44.9021 76.1514 43.9743 75.0888 44.0536 73.8649C44.2852 72.2832 44.7752 70.1485 45.2654 68.0274C45.4712 67.1429 45.6409 66.2644 45.8601 65.4311C46.2754 63.8458 46.9025 62.4954 47.7248 61.446C48.0782 60.9946 48.5803 60.7194 49.0887 60.429C49.7389 60.0536 50.5365 59.8754 51.1816 59.6244C52.7134 59.1308 54.004 59.1516 55.0248 59.4994C56.0642 59.8526 56.926 60.4676 57.4893 61.3522C58.7115 63.2776 58.5531 66.3782 58.2157 69.3172C58.0959 70.3603 58.1249 71.3713 58.0398 72.2207C57.9774 73.3001 57.7574 74.1301 57.5172 74.9484C57.2067 76.0073 56.7467 76.9652 56.1805 78.3919C55.5062 79.6145 53.9714 80.0575 52.7497 79.3864C51.5311 78.7144 51.084 77.1773 51.7551 75.9556C52.552 74.8616 53.1889 74.1615 53.671 73.314C53.9494 72.8241 54.2059 72.3159 54.3938 71.6241C54.5777 70.7864 54.8711 69.7799 54.8896 68.7155C54.9 68.077 54.7567 67.4515 54.6262 66.8362C54.4266 65.9178 53.9363 64.1766 53.4241 64.7005C53.3916 64.7329 53.3142 64.842 53.3289 64.7937C53.3923 64.5789 52.8561 64.6852 52.5257 64.7547C52.1069 64.8131 51.0952 64.4869 50.9966 64.7759ZM50.9966 64.7759L51.0244 64.7515C50.9846 64.7824 51.0146 64.9489 51.0012 64.8977C50.9846 64.8474 50.9841 64.8065 50.9966 64.7759Z" fill="#7400BD"/><path fill-rule="evenodd" clip-rule="evenodd" d="M38.0724 68.7308C38.0149 68.6809 37.9582 68.6206 37.8975 68.5715C37.4553 68.1884 36.8596 67.924 36.2727 67.5103C35.6608 67.0793 35.0263 66.6406 34.491 66.1109C33.8065 65.4289 33.2798 64.6577 32.9098 63.9241C31.9624 62.0429 31.6748 60.293 32.8326 58.8412C33.546 57.8853 35.3501 56.9307 37.3879 56.4241C38.4435 56.1613 39.5035 55.928 40.4579 55.9309C42.4588 55.9364 43.8212 56.9878 44.4659 58.6919C44.7768 59.8785 44.0639 61.0975 42.8773 61.4084C41.8058 61.6891 40.7113 61.1385 40.2792 60.1545C39.8174 60.3096 38.8695 59.6659 38.1774 59.8814C37.6875 60.0337 37.3235 60.6144 37.0095 60.9291C37.0902 60.9763 37.1854 61.0266 37.2309 61.083C37.6441 61.59 38.2816 62.0143 38.8022 62.5923C40.6693 64.67 42.0766 67.0801 41.9665 68.63C41.9195 69.2986 41.7988 69.9078 41.3675 70.4925C40.9456 71.061 40.2461 71.6784 38.9695 72.194C38.5141 72.4125 37.8581 72.7006 37.2535 72.9239C36.8701 73.0653 36.4963 73.1257 36.1793 73.1814L32.8086 73.3877C31.4188 73.2494 30.4049 72.0145 30.5441 70.6279C30.6792 69.239 31.9141 68.225 33.2998 68.361L36.0126 69.0483L37.8273 68.8257C37.916 68.7991 37.9967 68.7677 38.0724 68.7308ZM36.8775 60.8167C36.9268 60.7832 36.9499 60.767 36.9021 60.7932C36.8869 60.8006 36.8782 60.8062 36.8775 60.8167Z" fill="#7400BD"/><path fill-rule="evenodd" clip-rule="evenodd" d="M25.7652 59.2851C26.238 57.8282 26.4634 56.4054 26.0332 55.3115C25.6727 54.6267 24.6154 54.8182 23.6115 54.9001C22.0322 55.0301 20.4348 55.6127 19.5217 55.9237C18.3351 56.2346 17.1161 55.5217 16.8052 54.3351C16.4935 53.1452 17.2063 51.9263 18.393 51.6154C20.0007 51.307 23.2704 50.8844 25.6652 51.3234C27.3415 51.6294 28.6504 52.3461 29.3407 53.611C30.6783 55.6771 30.8855 58.9725 30.1548 62.1717C29.8827 63.3641 29.4563 64.5286 28.8682 65.5713C28.4412 66.3292 27.9342 67.0294 27.3392 67.6023C25.6152 69.2673 23.567 70.2688 21.3966 70.0991C19.4674 69.9893 18.133 68.7837 17.48 66.839C16.7498 64.6651 16.9114 61.8508 17.9626 60.5534C18.5867 59.7131 19.6727 59.2919 20.9413 59.0723C22.5685 58.7861 24.6372 59.1021 25.7652 59.2851ZM23.4845 63.7176C23.2253 63.6283 22.9468 63.544 22.6573 63.4695C22.1916 63.3488 21.7184 63.1994 21.2652 63.1916C21.1344 63.1883 21.0065 63.1568 20.8889 63.1774C20.8433 63.1859 20.8353 63.0513 20.8052 63.0797C20.5038 63.3774 20.3671 63.9909 20.4164 64.5966C20.4603 65.1422 21.1712 65.5986 21.2037 65.9968C22.2053 65.7754 22.737 64.7782 23.4033 63.838L23.4845 63.7176Z" fill="#7400BD"/><path fill-rule="evenodd" clip-rule="evenodd" d="M148.311 56.6188C147.783 57.4054 147.253 58.1615 146.785 58.8798C146.368 59.4907 143.865 62.4923 141.988 62.8288C140.789 63.0478 139.659 62.8628 138.798 61.7991C137.433 60.111 136.775 58.2281 136.685 56.1657C136.627 54.7915 136.816 53.3582 137.09 51.8736C137.999 46.9497 140.635 41.4527 139.54 37.9239C139.209 36.7394 139.902 35.5119 141.086 35.1802C142.268 34.8495 143.497 35.5386 143.829 36.7231C144.945 41.1009 141 47.8845 140.493 53.7879C140.355 55.4026 140.623 56.9105 141.52 58.1424C141.945 57.5497 142.367 56.4461 142.462 56.2685C143.486 54.4332 144.803 52.2792 145.606 50.1075C145.935 49.2223 146.253 48.3469 146.207 47.4465C146.122 46.9619 146.019 46.4073 145.995 46.201C145.938 45.6057 146.149 45.2307 146.202 45.0752C146.427 44.4079 146.915 44.1166 147.251 43.8818C147.938 43.4013 148.723 43.4354 149.615 43.7626C149.779 43.823 150.555 44.155 151.049 45.5002C151.606 47.1845 151.627 48.9263 151.236 50.6324C151.312 51.751 151.481 54.3888 151.918 56.4536C152.059 56.2458 152.162 56.097 152.173 56.0525C152.612 54.0034 152.797 52.0496 152.67 50.1245C152.55 48.2731 152.072 46.4702 151.262 44.6165C150.776 43.3105 151.44 41.8575 152.746 41.3716C154.051 40.8826 155.508 41.5493 155.994 42.8554C156.759 45.3297 157.081 47.6945 156.988 50.0693C156.899 52.3534 156.486 54.632 155.737 56.9947C155.649 57.2804 154.826 59.8113 153.901 60.8496C153.089 61.7636 152.153 62.0121 151.314 61.7147C150.609 61.4761 149.777 60.5657 149.162 59.0827C148.872 58.3777 148.58 57.5186 148.311 56.6188ZM141.322 58.3767C141.272 58.37 141.216 58.3684 141.163 58.3731C141.065 58.3798 140.78 58.2707 140.843 58.3732C140.978 58.5829 141.146 58.546 141.322 58.3767Z" fill="#7400BD"/><path fill-rule="evenodd" clip-rule="evenodd" d="M133.914 45.3598C133.979 45.0772 134.034 44.7941 134.074 44.5082C134.285 42.9932 134.313 41.4746 133.644 40.3229C133.046 39.3024 131.933 38.7142 130.452 38.5969C129.675 38.5569 129.027 38.5494 128.397 38.6401C127.879 38.7163 127.395 38.9273 126.817 39.2403C125.706 39.7608 124.377 39.2814 123.856 38.1673C123.335 37.0563 123.815 35.7304 124.929 35.2058C125.832 34.85 126.614 34.6275 127.391 34.5471C128.495 34.4304 129.552 34.5123 130.866 34.7313C133.676 35.1155 135.481 36.5602 136.699 38.4547C138.322 40.9772 138.802 44.5201 138.058 48.0074C137.47 50.7643 136.145 53.4392 134.22 55.2316C133.536 55.8661 132.769 56.3794 131.949 56.7465C129.994 57.6132 127.827 57.9074 125.549 57.1168C123.725 56.4876 122.307 54.44 121.989 52.043C121.675 49.6691 122.309 47.2976 124.007 46.3723C125.517 45.4379 127.155 45.0583 128.821 44.9145C130.519 44.7723 132.244 44.9863 133.914 45.3598ZM131.832 49.6235C130.874 49.2669 129.884 49.005 128.872 48.9484C127.793 48.8831 126.708 48.9914 125.664 49.4691C125.104 49.7632 125.2 50.6566 125.38 51.4233C125.546 52.1254 125.954 52.8111 126.526 52.8809C128.089 53.0922 129.239 52.2208 130.317 51.2632C130.858 50.7788 131.37 50.2269 131.832 49.6235Z" fill="#7400BD"/><path fill-rule="evenodd" clip-rule="evenodd" d="M111.1 52.3592C112.677 52.0206 113.721 51.8381 114.73 51.2708C115.406 50.8892 116.105 50.4564 116.856 49.6692C117.6 48.9906 118.273 48.0195 119.06 47.0676C120.215 45.673 121.374 44.2463 121.994 42.5723C122.332 41.6571 122.463 40.7036 122.369 39.7684C122.223 38.2883 121.497 36.8983 120.262 35.7504C118.976 34.6754 116.168 33.8788 113.283 33.6941C112.294 33.6312 111.322 33.5462 110.414 33.5877C108.246 33.6829 106.579 34.5583 105.645 35.8946C105.042 36.9664 105.423 38.326 106.494 38.9257C107.566 39.5286 108.922 39.1489 109.525 38.077C109.936 37.2031 111.399 37.0682 112.784 37.2468C114.437 37.4604 115.958 38.4045 116.516 39.1959C116.694 39.438 116.698 39.7356 116.78 39.9908C116.866 40.2619 116.908 40.5351 116.933 40.82C117.013 41.6938 117.167 42.588 116.889 43.4831C116.675 44.1782 116.469 44.8779 116.061 45.4421C115.621 46.0529 115.015 46.4661 114.506 46.8286C114.006 47.1539 113.579 47.2942 113.169 47.402C112.452 47.5889 111.777 47.3969 110.75 47.3206C109.359 47.4181 108.307 48.6261 108.407 50.0159C108.502 51.4076 109.712 52.4559 111.1 52.3592Z" fill="#7400BD"/><path fill-rule="evenodd" clip-rule="evenodd" d="M99.5957 45.7715C98.8875 46.4059 98.0934 46.9544 97.1968 47.3943C96.8097 47.5816 95.6636 48.2219 94.8471 48.3715C94.1256 48.5048 93.4954 48.4856 93.041 48.2729C92.2817 47.9155 91.5903 47.3228 91.18 46.4213C90.7288 45.4352 90.5326 44.0721 90.3712 43.3241C90.0777 42.0672 90.1554 40.775 90.4277 39.4421C90.9071 37.0829 92.0982 34.5554 92.9367 32.2158C93.383 30.9647 93.7185 29.796 93.3935 28.8192C93.0618 27.6348 93.751 26.4049 94.9354 26.0733C96.1198 25.7416 97.3474 26.4349 97.6791 27.6193C97.9734 28.9034 97.8497 30.3012 97.3835 31.788C96.3542 35.0771 93.1558 38.9461 94.0423 42.2962C94.1408 42.5743 94.5199 43.0209 94.7833 43.4588C94.8317 43.4109 94.87 43.3761 94.896 43.3585C95.8823 42.7116 96.5253 41.783 97.1036 40.8073C97.6008 39.9711 97.969 39.0542 98.355 38.1393C98.7914 37.1106 99.2279 36.082 99.646 35.0859L101.482 31.6843C102.018 30.5213 103.366 29.9757 104.563 30.4372C105.756 30.8995 106.384 32.2104 106.001 33.4301L105.889 33.7156L105.89 33.7188L104.698 37.1497L104.546 37.5045C104.371 38.0686 104.209 38.6291 104.072 39.2065C103.918 39.8711 103.802 40.549 103.733 41.2826C103.705 43.021 103.447 44.676 103.191 46.3133C102.825 48.6477 102.408 50.9241 102.283 53.2838C102.204 54.7444 102.309 56.2224 102.643 57.7838C102.844 59.1629 101.888 60.4468 100.506 60.6483C99.1302 60.8482 97.8454 59.8894 97.6447 58.5103C97.4869 56.4875 97.6349 54.6126 97.9462 52.7812C98.3535 50.3975 99.0496 48.1253 99.5957 45.7715ZM94.1659 44.0745C93.9243 43.9842 93.6998 43.9304 93.7646 44.1251C93.8192 44.2953 93.9816 44.2257 94.1659 44.0745Z" fill="#7400BD"/><path fill-rule="evenodd" clip-rule="evenodd" d="M74.7403 25.1664C73.5198 25.0995 72.5793 24.0581 72.638 22.833C72.6999 21.6071 73.7427 20.6593 74.971 20.7171C77.0546 20.9235 78.5901 22.4713 79.1787 25.0396C81.2995 24.0544 84.1045 23.894 86.4187 24.8014C88.2851 25.5321 89.7965 26.7605 90.5051 28.5432C91.0608 29.9396 91.2396 31.6819 90.4147 33.8493C90.1762 34.5548 89.7644 35.2057 89.2965 35.8277C88.7087 36.6103 87.9806 37.3086 87.3337 37.9292C86.6403 38.6041 86.0746 39.2569 85.404 39.8052C84.8119 40.2903 84.125 40.6577 83.2878 40.9539C82.3386 41.2918 81.5505 41.3957 80.7959 41.4353C79.9532 41.479 79.1504 41.3466 78.1332 41.1473C77.9619 41.5043 77.7789 41.844 77.5765 42.1513C76.9996 43.0339 76.4122 43.2292 76.2121 43.2749C75.344 43.4734 74.6402 43.3511 74.1062 42.8173C73.8948 42.6018 73.1451 41.9843 73.3784 40.8065C73.4494 40.4467 73.9037 39.1383 74.1453 38.6278L74.172 38.5516C74.3434 37.7413 74.4409 36.8385 74.5599 35.9021C74.769 34.2333 74.9228 32.4769 75.2655 30.8805C75.3977 30.2735 75.5634 29.688 75.7525 29.1372C75.684 27.9237 75.4841 26.7436 75.142 25.8162C75.0578 25.5891 74.8535 25.3132 74.7403 25.1664ZM79.6505 36.4614C80.0816 36.6154 80.462 36.7355 80.8729 36.7681C81.2388 36.7996 81.6216 36.8057 82.0985 36.7065C82.5396 36.6139 82.896 36.4764 83.2106 36.251C83.7335 35.8745 84.2159 35.427 84.7891 34.9849C85.3474 34.5505 85.9921 34.0816 86.5128 33.5134C86.776 33.2269 87.03 32.9326 87.1817 32.5914C87.536 31.7231 87.6917 30.979 87.5474 30.3533C87.3969 29.7053 86.8808 29.297 86.3287 29.0052C85.3573 28.4909 84.0845 28.5932 82.9531 28.8688C82.1531 29.0653 81.4482 29.503 81.217 30.2099C80.8168 31.1597 80.5886 32.2948 80.3294 33.4661C80.1094 34.4582 79.8892 35.4744 79.6505 36.4614ZM74.7354 25.1609C74.6903 25.098 74.6555 25.0597 74.6555 25.0597C74.6555 25.0597 74.6932 25.1452 74.7354 25.1609Z" fill="#7400BD"/><path fill-rule="evenodd" clip-rule="evenodd" d="M67.3378 37.3205C66.5791 37.9827 65.7915 38.5054 65.018 38.8456C63.4768 39.4969 62.1996 39.3257 61.1684 38.3406C60.6302 37.8286 60.0878 37.0809 59.754 36.134C59.2587 34.7207 59.038 32.9146 58.9121 32.3421C58.5634 30.8638 58.6745 29.4455 59.0027 28.018C59.5884 25.4746 61.0131 22.9229 61.4118 20.521C61.5294 19.6778 61.2509 18.4133 61.3473 17.4455C61.4012 16.8776 61.5837 16.3767 61.7985 15.9423C62.3983 14.8713 63.7578 14.4907 64.8297 15.0936C65.8852 15.6874 66.2714 17.0178 65.7012 18.0839C65.6815 18.4672 65.5678 20.4767 65.3682 21.2846C64.8773 23.4066 63.4494 25.5541 62.7542 27.8294C62.4154 28.9372 62.3631 30.0746 62.7632 31.1849C62.8837 31.5048 63.0266 32.9962 63.3353 33.9638C63.6896 33.6106 64.0149 33.1658 64.3688 32.7131C65.058 31.8265 65.6788 30.7943 66.3021 29.8198C67.0514 28.6452 67.806 27.5756 68.3197 26.7004L70.1114 23.4484C70.2839 23.1323 70.6206 22.3239 70.7299 22.101C71.4164 20.6899 72.7337 20.8086 72.8689 20.8497C72.9813 20.8835 74.8284 21.3243 74.3165 23.126C74.2563 23.3523 74.1978 23.585 74.1434 23.82L74.0973 24.0355L74.0089 24.431C73.9511 24.715 73.9046 25.0027 73.8695 25.2941C73.7249 26.5192 73.7078 27.7703 73.5367 28.9616C73.5356 28.9825 73.5305 29.0011 73.5295 29.022L72.9984 32.9133C72.9914 32.9495 72.9821 32.9899 72.9719 33.0271C72.6837 34.622 72.337 36.1062 72.0518 37.6384C71.8761 38.5804 71.7438 39.5307 71.6445 40.5371C71.4038 41.9092 70.0923 42.8293 68.7201 42.5885C67.348 42.3478 66.4288 41.0395 66.6696 39.6673C66.8746 38.8545 67.0936 38.079 67.3378 37.3205ZM63.4423 34.2601C63.6365 34.7207 63.8832 34.9641 64.2152 34.7029C64.5645 34.43 64.0042 34.2435 63.4423 34.2601Z" fill="#7400BD"/><path fill-rule="evenodd" clip-rule="evenodd" d="M51.2323 36.6186C51.4237 35.4629 51.4118 33.5194 51.9923 31.2761C52.0799 30.9392 52.2224 30.6143 52.3858 30.2904C52.8431 29.3727 53.4557 28.6175 53.9558 27.6568C54.1568 27.2709 54.3686 26.8992 54.4803 26.4765C55.0711 24.2578 54.6714 21.9593 55.0336 20.0278C55.3883 18.1431 56.0175 16.6622 56.1778 15.6284C56.2389 14.3993 55.2911 13.3565 54.062 13.2955C52.8369 13.2368 51.79 14.1822 51.729 15.4114C51.7848 16.285 51.9424 17.6452 51.5713 19.2015C51.1357 21.0059 49.7757 22.7464 49.1647 24.8437C49.0434 25.269 49.0075 25.7049 48.9756 26.143C48.8898 27.2589 49.1016 28.2606 48.9584 29.3067C48.8705 29.9493 48.687 30.5569 48.4724 31.1149C47.8013 32.8753 46.9231 34.141 46.4452 35.0095C46.0008 36.3288 46.7149 37.7633 48.0342 38.2076C49.3566 38.6511 50.7879 37.9379 51.2323 36.6186Z" fill="#7400BD"/><path fill-rule="evenodd" clip-rule="evenodd" d="M42.5463 27.5976L42.5156 27.5616C42.283 27.1357 41.7814 26.8401 41.2917 26.4278C40.4859 25.7573 39.4689 25.1905 38.5519 24.5031C37.8593 23.9793 37.2224 23.4092 36.6707 22.8735C35.6662 21.898 34.9291 20.9576 34.5844 20.1923C34.4323 19.8332 33.5384 17.2783 33.4924 16.1821C33.455 15.19 33.6894 14.5063 33.9853 14.19C35.163 12.9023 37.1773 12.0396 39.4221 11.7304C40.6311 11.5601 41.8837 11.4841 43.0693 11.6225C45.76 11.937 47.9061 13.3722 48.7568 15.7607C49.0884 16.9451 48.3993 18.175 47.2148 18.5066C46.0304 18.8383 44.7996 18.1459 44.468 16.9615C44.2129 15.7316 42.8385 15.2375 41.4573 15.1607C40.9406 15.1302 40.4095 15.1587 39.908 15.2682C39.1218 15.4403 38.4204 15.8049 37.9184 16.2682C38.2608 16.8659 38.9516 17.6408 39.0336 17.762C39.1769 17.9794 39.4972 18.1301 39.7997 18.3887C40.3553 18.8649 41.0581 19.3515 41.7134 19.9508C42.9098 21.0476 44.0267 22.3384 44.8591 23.5578C46.2503 25.5957 46.8923 27.5208 46.0338 29.0659C45.5953 30.2221 43.5315 31.4352 41.2012 32.1013C38.976 32.7381 36.6335 32.7965 35.6357 32.372L32.1645 30.3121C31.0585 29.4647 30.8448 27.8799 31.6913 26.7707C32.5356 25.6656 34.1205 25.4519 35.2296 26.2985L37.5602 28.4786C37.8725 27.9998 39.3366 28.8019 40.379 28.613C41.2219 28.4594 42.0127 27.6784 42.5463 27.5976ZM37.8684 16.1758C38.0879 15.819 38.2282 15.4742 37.8721 15.5636C37.6539 15.6178 37.7025 15.8651 37.8684 16.1758Z" fill="#7400BD"/><path fill-rule="evenodd" clip-rule="evenodd" d="M15.5811 26.0335C15.1013 26.5764 14.6293 27.0245 14.2075 27.3452C11.8971 29.0633 9.72565 29.9288 8.10312 29.2844C7.02988 28.8604 5.84089 27.9126 5.16566 25.6604C4.58353 23.8388 4.73818 21.4847 5.25439 19.0363C5.91694 15.8842 7.12992 12.5642 8.34277 10.4701C8.90583 9.46437 9.69331 8.62241 10.25 7.7043C10.4296 7.41367 10.542 7.10406 10.5439 6.743C10.6058 5.51706 11.6518 4.56842 12.8769 4.62714C14.106 4.68816 15.0547 5.73412 14.9928 6.96007C14.908 7.88341 14.6493 8.70093 14.208 9.44253C13.5637 10.526 12.5138 11.4242 11.7411 12.5642C10.612 14.2949 9.25128 17.0382 8.72373 19.7404C8.39233 21.4264 8.42807 23.0748 8.92895 24.2874C9.04561 24.5569 9.2354 24.8299 9.38428 25.0183C9.49457 24.9462 9.67414 24.8273 9.80404 24.7394C10.2234 24.4468 10.6447 24.0507 11.0998 23.6281C11.9287 22.8604 12.8168 21.1765 13.5571 19.479C13.7433 19.0527 13.9141 18.6203 14.0603 18.1982L14.3319 16.1513C14.3769 15.5276 14.612 14.0127 14.7591 13.6797C15.2423 12.5727 16.1673 12.3447 16.7172 12.2113C17.3579 12.0594 19.0617 11.9394 19.8488 14.2358C20.3065 15.797 20.0471 18.2181 19.0348 20.5995C18.8835 20.9543 18.7177 21.3063 18.5414 21.6578C18.5613 22.1948 18.6251 22.7537 18.7335 23.3002C18.9348 24.3014 19.2185 25.2898 19.6317 26.0668C20.3468 25.6777 21.7413 25.483 21.9061 25.4094C23.4145 24.7021 24.2933 23.2543 24.9264 21.6281C26.0338 18.7772 26.2157 15.3064 26.5097 12.8001C26.7504 11.4279 28.0587 10.5088 29.4309 10.7495C30.8022 10.9871 31.7222 12.2986 31.4815 13.6707C30.8411 16.4114 30.0993 20.2003 28.5594 23.2478C27.3325 25.6721 25.6755 27.688 23.2404 28.593C22.9532 28.7078 20.7355 29.727 19.784 29.8972C18.9116 30.0557 18.3193 29.7305 18.0118 29.4663C17.0589 28.6996 16.238 27.4599 15.5811 26.0335ZM19.4831 16.5838C19.9336 16.231 20.2459 15.838 19.7095 15.6757C19.4782 15.61 19.4924 16.2001 19.4831 16.5838Z" fill="#7400BD"/></svg>