<svg width="98" height="158" viewBox="0 0 98 158" fill="none" xmlns="http://www.w3.org/2000/svg"><path fill-rule="evenodd" clip-rule="evenodd" d="M81.5953 136.127C80.5584 135.436 79.5857 134.732 78.7266 134.005C74.4772 130.387 69.6023 125.733 64.4923 121.341C61.3572 118.647 58.1379 116.044 54.8707 113.934C51.7268 111.792 48.6649 109.488 45.7927 106.93C34.7462 97.0878 26.1297 84.2649 19.0131 70.776C16.3868 65.8031 13.8651 60.7821 11.7089 55.6416C6.43343 43.0742 2.91753 30.0607 1.63999 17.5916C1.48567 15.5778 3.0008 13.8159 5.01532 13.6654C7.02909 13.5111 8.7903 15.0224 8.94537 17.04C9.35273 25.624 10.7668 34.5673 13.2777 43.4314C15.6925 51.9685 18.8931 60.5233 23.2781 68.4665C30.265 81.1201 40.0322 92.088 50.8842 100.966C53.6225 103.204 56.4132 105.35 59.333 107.273C62.8189 109.693 66.2788 112.599 69.5696 115.683C74.493 120.304 79.0601 125.271 83.1191 129.119C85.6377 131.519 89.3406 133.684 92.4559 136.099C92.7715 136.343 93.0803 136.593 93.3853 136.843C94.5844 136.724 95.7393 137.416 96.1936 138.56L97.1605 140.807C97.678 142.072 97.2035 143.53 96.0364 144.249C94.8692 144.967 93.3532 144.736 92.4577 143.706C92.1174 143.337 91.7491 142.985 91.3551 142.642C88.2777 142.885 85.4112 142.504 82.612 141.788C77.6048 140.501 72.8278 138.053 67.5979 135.879C62.2508 133.708 56.811 132.023 51.4621 129.983C49.0937 129.079 46.7436 128.109 44.4248 126.998C42.8315 126.197 42.1922 124.255 42.9937 122.662C43.796 121.072 45.7367 120.429 47.3301 121.231C49.4461 122.35 51.5942 123.352 53.7674 124.283C59.0621 126.546 64.4696 128.446 69.761 130.832C73.8882 132.658 77.6698 134.784 81.5953 136.127Z" fill="#7400BD"/><path fill-rule="evenodd" clip-rule="evenodd" d="M72.994 95.7949C72.7434 98.1668 72.8011 100.099 73.2061 101.919C73.7692 104.442 75.0188 106.524 76.0562 109.158C76.573 110.47 76.7774 111.931 77.1207 113.57C77.5179 115.483 77.7146 117.381 78.3432 119.224C78.7829 120.532 79.4694 121.731 80.0941 122.957C81.5635 125.838 83.4533 128.426 84.753 131.388C85.9756 134.169 86.6582 137.138 87.6108 140.031C88.2857 141.682 90.1716 142.472 91.8222 141.797C93.4729 141.122 94.2635 139.233 93.5886 137.586C92.2426 134.851 90.6383 132.264 89.5584 129.425C88.2549 125.993 87.7766 122.383 86.7122 118.869C86.4499 118.005 86.2108 117.13 85.8405 116.305C85.0461 114.558 83.9508 113.038 83.0059 111.36C82.2153 109.984 81.363 108.865 80.742 107.654C80.1057 106.412 79.72 105.17 79.4231 103.963C78.9217 101.954 79.1647 100.022 80.1096 97.5266C80.5878 95.5635 79.3807 93.5811 77.4176 93.1029C75.4507 92.6247 73.4723 93.8319 72.994 95.7949Z" fill="#7400BD"/></svg>