<svg width="135" height="153" viewBox="0 0 135 153" fill="none" xmlns="http://www.w3.org/2000/svg"><path fill-rule="evenodd" clip-rule="evenodd" d="M91.6736 127.034C94.2173 128.396 96.6521 129.025 98.8302 129.342C99.3479 129.418 99.8494 129.494 100.336 129.552C101.971 129.749 103.449 129.718 104.751 129.385C105.438 129.207 106.073 128.953 106.619 128.609C109.663 126.693 110.418 123.156 107.846 119.481C106.9 118.133 105.546 116.65 103.489 115.234C102.97 114.906 102.28 115.06 101.953 115.58C101.626 116.099 101.778 116.787 102.297 117.115C104.177 118.205 105.574 119.302 106.373 120.491C107.973 122.874 107.066 124.999 105.136 126.253C103.928 127.039 102.378 127.751 100.426 127.772C99.9957 127.777 99.5468 127.761 99.0893 127.683C97.152 127.356 95.1065 126.357 92.9921 124.882C92.3988 124.518 91.6218 124.704 91.2566 125.298C90.8914 125.892 91.0766 126.669 91.6736 127.034Z" fill="#7400BD"/><path fill-rule="evenodd" clip-rule="evenodd" d="M61.0949 141.897C63.7012 139.34 66.7577 136.65 69.6851 133.935C70.3129 133.356 70.9358 132.781 71.5567 132.213C72.1936 131.629 72.8305 131.061 73.4396 130.477C73.9078 130.03 74.3602 129.582 74.795 129.124C76.3202 127.486 77.833 125.802 79.1958 123.968C82.2698 119.824 84.7753 115.168 88.2066 111.362C90.2896 109.058 92.6865 107.092 95.3508 105.457C95.8664 105.124 96.0168 104.435 95.6798 103.918C95.3464 103.402 94.656 103.253 94.1406 103.587C91.5933 105.326 89.4191 107.453 87.3359 109.693C86.4587 110.638 85.5808 111.587 84.7265 112.568C82.2239 115.461 79.8183 118.491 77.5176 121.564C77.0614 122.172 76.6157 122.786 76.1805 123.405C75.1613 124.861 74.1981 126.331 73.1396 127.721C72.0588 129.12 70.8689 130.527 69.514 131.814C67.9539 133.288 66.2186 134.619 64.5316 135.948C62.7545 137.352 60.9892 138.692 59.3942 140.034C58.8807 140.504 58.8422 141.303 59.3149 141.818C59.7838 142.332 60.5815 142.367 61.0949 141.897Z" fill="#7400BD"/><path fill-rule="evenodd" clip-rule="evenodd" d="M76.1411 110.482C77.0177 109.459 78.0842 108.262 79.3888 107.114C79.6336 106.895 79.8987 106.691 80.1734 106.495C81.2666 105.721 82.52 105.134 83.5766 104.234C84.1408 103.752 84.6131 103.175 85.0854 102.614C86.013 101.513 86.7222 100.315 87.4565 99.1919C88.2832 97.9204 89.0661 96.7139 89.4731 95.3883C89.6206 94.7915 89.2573 94.188 88.6582 94.04C88.0629 93.8928 87.4603 94.2576 87.3128 94.8544C87.1266 95.8814 86.8073 96.9319 86.1879 97.8793C85.7892 98.4958 85.2448 99.0271 84.6996 99.5773C83.8411 100.447 82.8078 101.172 81.8717 102.034C81.5746 102.304 81.3172 102.606 81.0457 102.901C80.3951 103.621 79.8473 104.391 79.1689 105.046C78.7449 105.46 78.2883 105.828 77.8378 106.173C76.5768 107.127 75.3469 107.893 74.3745 108.677C73.8767 109.164 73.8696 109.964 74.3544 110.462C74.843 110.96 75.6433 110.969 76.1411 110.482Z" fill="#7400BD"/><path fill-rule="evenodd" clip-rule="evenodd" d="M65.5006 90.2176C64.6248 90.7714 63.6845 91.297 62.7607 91.7235C61.2808 92.4069 59.8432 92.839 58.7836 92.8183C57.7322 92.7968 56.956 92.4171 56.5366 91.6707C55.8894 90.5279 56.1327 88.9648 57.0666 87.1953C59.2099 83.152 65.0638 77.6139 65.5725 75.4271C65.7199 74.8307 66.3263 74.4665 66.9216 74.6136C67.5169 74.7607 67.8839 75.3655 67.7365 75.9619C67.5602 76.6108 67.0063 77.5183 66.1884 78.5612C64.4428 80.7697 61.425 83.7697 59.5724 86.5242C58.9237 87.4933 58.4448 88.4345 58.217 89.2598C58.07 89.7903 58.0418 90.2581 58.2739 90.621C58.3088 90.6725 58.3785 90.6639 58.4387 90.6772C58.6123 90.7145 58.8127 90.691 59.0355 90.6578C60.0919 90.4982 61.4537 89.8106 62.7753 88.9958C64.0832 88.1888 65.3307 87.2242 66.189 86.4035C66.3807 86.2224 66.633 86.0214 66.818 85.8514C66.9016 85.642 66.9831 85.4083 67.0207 85.3207C67.347 84.5468 68.0044 84.4586 68.083 84.4462C68.6084 84.3619 69.0614 84.506 69.4079 84.9687C69.4949 85.0827 69.7438 85.3778 69.6867 85.9462C69.681 85.9853 69.6719 86.0704 69.6386 86.2052C69.6031 86.3327 69.5468 86.4801 69.4633 86.6414C69.3521 86.9305 69.1792 87.3732 69.0809 87.5456C68.9133 87.8383 68.7986 88.1575 68.6982 88.4835C68.5082 89.1076 68.3715 89.7571 68.2066 90.3762C67.7429 91.9631 66.6971 94.298 66.1082 96.5524C65.7651 97.8604 65.543 99.1289 65.8051 100.158C65.9536 100.104 66.2363 100.133 66.4366 100.03C66.5721 99.964 66.7063 99.8871 66.8385 99.8022C67.129 99.6237 67.4189 99.4149 67.6984 99.2003C68.68 98.4433 69.5229 97.6207 69.647 97.5366C70.9959 96.6118 72.2119 95.3081 73.3276 93.8641C75.0336 91.6546 76.4904 89.1197 77.8374 87.0447C78.2332 86.4719 79.0232 86.3299 79.5927 86.7261C80.1658 87.1235 80.309 87.9106 79.9132 88.4833C78.411 90.5108 76.7473 92.983 74.884 95.1374C73.5635 96.6711 72.1459 98.0509 70.603 99.0052C70.3718 99.153 67.7744 101.545 66.2283 101.918C65.2607 102.152 64.5459 101.862 64.1805 100.929C63.7635 99.8992 63.7105 98.6188 63.859 97.2464C64.1131 94.8358 65.0505 92.1193 65.5006 90.2176ZM66.9297 85.7371C67.044 85.6121 67.0921 85.5139 66.9922 85.4681C66.9635 85.4555 66.9711 85.5213 66.9654 85.5445C66.9488 85.6116 66.937 85.6754 66.9297 85.7371Z" fill="#7400BD"/><path fill-rule="evenodd" clip-rule="evenodd" d="M46.2647 73.7277C46.6364 73.3651 47.1938 72.8132 47.731 72.2472C48.167 71.7848 48.5928 71.316 48.888 70.9412C49.3953 70.2709 49.9537 69.5385 50.4683 68.7424C51.1706 67.6526 51.8044 66.4546 52.2332 65.2337C52.6899 63.9322 52.8855 62.5941 52.5565 61.321C52.423 60.7199 52.8002 60.1259 53.3976 59.9914C53.9996 59.8542 54.5936 60.2314 54.7309 60.8334C55.0609 62.5199 54.7401 64.2522 54.0674 65.9293C53.6995 66.8395 53.2324 67.7331 52.7187 68.5898C53.7784 68.015 54.8922 67.5752 55.9244 67.4172C57.7701 67.1344 59.3784 67.6192 60.2658 69.2687C60.8986 70.4699 60.6779 72.1506 59.7015 73.8671C59.1364 74.8676 58.3458 75.8807 57.5231 76.8306C55.9557 78.6398 54.1918 80.135 53.1236 80.4387C51.6007 80.8942 50.2393 80.4875 49.0234 79.7011C47.4687 78.694 46.1882 76.947 45.2139 75.7456C44.7956 75.1873 44.9117 74.3961 45.4678 73.9785C45.7067 73.7996 45.9889 73.7184 46.2647 73.7277ZM47.9168 75.2571C48.5514 76.2097 49.3035 77.2655 50.2371 77.9726C50.9299 78.4966 51.7166 78.834 52.6464 78.624C53.6624 78.371 55.4872 76.8221 56.8204 74.9964C57.5361 74.0132 58.0628 72.9266 58.3161 71.9662C58.4662 71.3907 58.4947 70.8734 58.2345 70.4956C57.9809 70.1235 57.6051 70.0206 57.2052 69.9989C56.6798 69.9711 56.1025 70.1527 55.4928 70.3695C53.258 71.1659 50.7892 72.9251 49.9502 73.6839L47.9168 75.2571Z" fill="#7400BD"/><path fill-rule="evenodd" clip-rule="evenodd" d="M11.9611 91.372C13.2464 90.2864 14.3974 89.1657 15.4742 88.0235C17.2723 86.1165 18.7959 84.1149 20.3651 82.1378C20.8369 81.5468 21.3251 80.9699 21.8137 80.3914C23.6945 78.1822 25.6508 76.0048 27.9162 73.8469C28.8324 72.8402 29.8002 71.8657 30.763 70.8793C32.2094 69.399 33.6585 67.9078 35.1491 66.4579C36.3201 65.3203 37.4772 64.1749 38.6659 63.0782C39.18 62.6054 39.7129 62.1531 40.2289 61.6887C41.3011 60.7579 42.4996 59.1233 43.7047 57.8638C44.1776 57.3649 44.6572 56.9353 45.1233 56.673C45.65 56.3582 45.8193 55.6731 45.5008 55.1455C45.186 54.6188 44.5008 54.4494 43.9732 54.768C43.3681 55.1587 42.7515 55.7571 42.151 56.4668C41.0591 57.7503 39.9926 59.3976 39.0102 60.3506C38.1144 61.1621 37.2196 61.9858 36.292 62.7815C34.1269 64.6301 31.8534 66.3867 29.7271 68.2873C28.4018 69.4706 27.1319 70.703 25.9052 71.9535C23.6345 74.6313 21.8627 77.3799 19.9139 79.9768C19.0722 81.1 18.1747 82.1757 17.243 83.229C15.2834 85.4358 13.0863 87.4779 10.4174 89.372C9.86722 89.7977 9.76269 90.5903 10.1903 91.1429C10.6142 91.6942 11.4072 91.7968 11.9611 91.372Z" fill="#7400BD"/><path fill-rule="evenodd" clip-rule="evenodd" d="M35.1704 82.5337C34.5554 82.1608 33.319 81.6018 31.8317 80.7881C31.394 80.5496 30.9313 80.3002 30.4891 79.9836C29.5335 79.3013 28.7193 78.352 27.6973 77.6004C27.2804 77.294 26.8277 77.036 26.3827 76.779C25.0097 75.9852 23.5884 75.4027 22.5208 74.6268C21.322 73.7545 20.5532 72.8629 20.361 72.3224C20.1194 71.7566 19.4658 71.4922 18.9018 71.7326C18.3341 71.9721 18.0692 72.6261 18.3107 73.1919C18.6527 73.8818 19.8743 74.8222 21.4423 76.0491C22.7572 77.078 24.1204 78.5709 25.822 79.6748C26.1405 79.881 26.4795 80.0367 26.8203 80.2008C27.6438 80.5977 28.4714 80.8821 29.2435 81.2624C29.5304 81.4036 29.8038 81.5511 30.0612 81.7152C30.7747 82.1716 31.387 82.6681 31.9336 83.0924C32.7174 83.6989 33.2964 84.217 33.6476 84.5481C34.2034 84.9679 34.9935 84.8573 35.4167 84.302C35.8362 83.7462 35.7261 82.9538 35.1704 82.5337Z" fill="#7400BD"/><path fill-rule="evenodd" clip-rule="evenodd" d="M31.9013 56.0894L32.0012 56.0227C32.6855 55.5363 33.3416 54.9714 33.8991 54.3067C35.4646 52.4411 36.4399 49.9092 35.5134 47.2926C35.1778 46.3357 34.5626 45.4011 33.7173 44.4811C33.4509 44.2087 33.142 44.1085 32.821 44.0729C32.1633 44.0017 31.4623 44.2019 30.7947 44.315C30.1019 44.4338 29.4361 44.4758 28.8464 44.3539C28.2511 44.2068 27.8884 43.6008 28.0355 43.0055C28.1827 42.4102 28.7859 42.0428 29.3812 42.1899C30.4315 42.4892 31.8705 41.9231 33.1002 42.1396C33.8273 42.2677 34.5166 42.5651 35.0871 43.2305C36.1022 44.3474 36.7638 45.5121 37.2224 46.6464C38.5719 49.9951 37.8458 53.3673 35.9782 55.925C35.1366 57.0796 34.0721 58.0759 32.885 58.7479C29.7133 60.5383 25.9049 60.3877 23.6741 57.2939C23.0416 56.5258 23.0701 54.9478 23.6416 53.5675C24.2429 52.1151 25.4251 51.0446 26.6047 51.0938C27.3138 51.1181 28.0604 51.5211 28.7804 52.1281C29.9176 53.0884 30.9929 54.6532 31.6121 55.3306C31.7988 55.5555 31.8922 55.821 31.9013 56.0894ZM29.9044 57.1611C29.82 57.1005 29.7384 57.0287 29.668 56.9438C29.2146 56.3352 28.5105 55.0528 27.6791 54.0607C27.2747 53.5754 26.9039 53.0985 26.4566 53.0435C25.9307 52.9851 25.5294 53.6288 25.2374 54.2638C24.9063 54.9765 24.67 55.804 24.9985 56.2109C26.3709 57.6823 28.184 57.7887 29.9044 57.1611Z" fill="#7400BD"/><path fill-rule="evenodd" clip-rule="evenodd" d="M108.657 76.9498C110.081 77.699 112.265 78.795 114.392 79.5113C114.961 79.6997 115.519 79.8694 116.063 80.0157C117.064 80.2908 118.007 80.4285 118.9 80.3195C119.771 80.2171 120.636 79.5964 121.347 78.6956C121.685 78.2625 121.971 77.7454 122.173 77.2033C122.437 76.5057 122.568 75.7636 122.565 75.0873C122.557 74.0883 122.303 73.2032 121.775 72.6238C120.715 71.464 119.557 70.6692 118.323 70.0187C117.763 69.7293 117.199 69.4549 116.617 69.2039C115.351 68.6527 114.012 68.1867 112.589 67.7556C111.994 67.6085 111.392 67.9721 111.244 68.5712C111.097 69.1665 111.46 69.7688 112.056 69.9159C113.68 70.238 115.242 70.4929 116.615 71.158C117.911 71.784 118.968 72.7764 119.89 74.1087C119.998 74.2665 119.947 74.492 119.945 74.7259C119.935 75.2002 119.758 75.7207 119.573 76.231C119.385 76.7487 119.194 77.2656 118.893 77.648C118.73 77.8543 118.621 78.0894 118.416 78.1619C117.819 78.36 117.141 78.4507 116.427 78.3338C115.95 78.2556 115.463 78.1035 114.99 77.9112C113.038 77.1148 111.208 75.6774 109.978 74.8014C109.385 74.4364 108.608 74.6218 108.243 75.2149C107.878 75.808 108.063 76.5885 108.657 76.9498Z" fill="#7400BD"/><path fill-rule="evenodd" clip-rule="evenodd" d="M101.913 53.4617C101.894 53.3298 101.897 53.1876 101.931 53.0491C102.078 52.4538 102.686 52.0873 103.281 52.2345C103.86 52.3975 104.442 52.8908 104.135 53.8915C103.917 54.5965 102.68 56.2891 102.503 56.5711C101.96 57.45 99.7893 59.9327 98.372 62.3078C97.8757 63.1425 97.486 63.9639 97.3018 64.6613C97.2046 65.0385 97.1109 65.353 97.2948 65.5415C97.3192 65.5713 97.3733 65.5291 97.422 65.5411C97.5745 65.5669 97.7494 65.5664 97.9384 65.5575C98.7829 65.5318 99.886 65.2642 100.987 64.9403C102.884 64.3843 104.759 63.6159 105.255 63.3415C105.522 63.1967 105.846 62.9629 106.168 62.7207C106.902 62.1753 107.612 61.5719 107.612 61.5719C108.142 61.1309 108.913 61.1465 109.422 61.61C109.935 62.0745 110.024 62.8394 109.636 63.411C109.636 63.411 109.081 64.2431 108.484 65.0333C108.179 65.4344 107.859 65.8281 107.603 66.1066C106.884 66.8784 106.172 67.6081 105.432 68.3191C104.697 69.0273 103.941 69.7066 103.142 70.399C102.1 71.3054 101.079 72.1893 100.133 73.1394C99.1625 74.1073 98.2617 75.1163 97.3946 76.1494C94.8145 79.227 92.5826 82.5194 90.3422 86.1033C89.953 86.6817 89.168 86.8361 88.5886 86.4478C88.0129 86.0604 87.8574 85.2751 88.2466 84.6967C89.9193 82.3809 91.615 80.2296 93.3544 78.1424C94.9515 76.2289 96.6257 74.4219 98.3287 72.5625C99.4367 71.3584 100.517 70.104 101.697 68.882C102.396 68.1449 103.046 67.4117 103.686 66.6682L103.727 66.6185C102.426 66.9962 100.883 67.3698 99.5479 67.5325C97.803 67.7448 96.3806 67.4886 95.8476 66.8643C95.2461 66.1635 95.1719 65.0169 95.7061 63.6432C96.0247 62.8361 96.5255 61.919 97.0935 60.9867C98.4652 58.7315 100.254 56.3649 100.728 55.5245C100.84 55.3259 101.634 53.9451 101.913 53.4617ZM102.549 54.3261C102.609 54.3568 102.675 54.3809 102.746 54.3985C102.679 54.3819 102.613 54.3577 102.549 54.3261Z" fill="#7400BD"/><path fill-rule="evenodd" clip-rule="evenodd" d="M83.5416 50.65C82.9766 50.9911 82.5872 51.2484 82.5872 51.2484C82.1634 51.5648 81.5675 51.5009 81.2212 51.1015C80.875 50.7021 80.8958 50.1034 81.2671 49.7264L84.0162 47.315C84.913 46.5475 85.4371 45.6163 85.6917 44.6185C85.9684 43.5467 85.9092 42.4038 85.7163 41.2875C85.6277 40.6816 86.0536 40.1155 86.6623 40.0315C87.2711 39.9476 87.8334 40.3726 87.9211 40.9822C88.0634 42.3999 87.9906 43.8359 87.5676 45.1615C87.4247 45.595 87.2529 46.0173 87.037 46.4248C87.6241 46.3156 88.2936 46.2428 88.9942 46.2371C90.1091 46.2266 91.3041 46.3749 92.3349 46.7369C94.2439 47.4034 95.6401 48.682 95.6612 50.5743C95.6758 51.8491 95.1889 53.0318 94.3759 54.0068C93.8789 54.6031 93.2761 55.1295 92.6093 55.5288C90.8032 56.6159 88.5559 56.7717 86.798 55.2686C86.5805 55.0877 86.1846 54.6323 85.7416 54.0779C84.9813 53.1352 84.0585 51.8861 83.7534 51.481C83.5815 51.228 83.5152 50.9335 83.5416 50.65ZM85.3498 49.6349C85.5409 49.7298 85.7124 49.8715 85.8401 50.062C86.0694 50.4365 86.6914 51.488 87.2739 52.4106C87.6534 53.0129 87.9972 53.5667 88.1839 53.7598C89.1996 54.7616 90.626 54.7129 91.757 54.0747C92.2473 53.7947 92.684 53.41 93.0083 52.9498C93.464 52.3116 93.6508 51.5235 93.5374 50.7446C93.3993 49.8405 92.4986 49.5464 91.5542 49.3011C90.7408 49.0881 89.8323 49.0026 88.9754 48.9816C87.9558 48.96 87.0168 48.9981 86.4485 49.1755C86.1261 49.2746 85.744 49.4384 85.3498 49.6349Z" fill="#7400BD"/><path fill-rule="evenodd" clip-rule="evenodd" d="M76.3986 39.7771C76.3285 39.7717 76.2574 39.77 76.1835 39.7796C75.3392 39.9007 74.2028 40.2713 72.9494 40.6329C71.9484 40.9219 70.9026 41.2474 69.8705 41.4532C69.102 41.6049 68.3483 41.6967 67.6562 41.7164C65.6079 41.7743 64.0348 41.1631 63.3881 39.9863C63.0835 39.4184 63.0076 38.6646 63.2972 37.8622C63.6946 36.7527 64.6753 35.5173 65.1494 35.1259C66.1312 34.3039 66.9535 33.6609 67.6374 33.0314C68.1842 32.523 68.6365 32.0269 69.0513 31.5057C69.9649 30.3649 70.6283 29.0629 71.4485 26.9495C71.6911 26.3858 72.348 26.123 72.9109 26.3694C73.4784 26.6129 73.7374 27.2689 73.4948 27.8326C72.6651 29.5663 71.9565 30.7617 71.1932 31.7768C70.5063 32.6916 69.7619 33.4372 68.8728 34.318C68.1974 34.9774 67.4623 35.7333 66.5444 36.6506C66.2216 36.976 64.8426 38.9553 65.5438 38.8346C65.5925 38.8307 65.5398 38.7382 65.5126 38.7037C65.6694 38.9371 66.0052 38.9128 66.3636 38.9577C67.1009 39.0446 68.006 38.9346 68.9823 38.8262C71.8053 38.5109 75.0869 37.9314 76.6221 38.0208C77.5464 38.0744 78.0684 38.4378 78.2483 38.8994C78.3661 39.2106 78.3841 39.6361 78.1162 40.2056C77.8149 40.8462 77.0198 41.8613 75.5188 43.3536L71.7196 47.2812C71.213 47.7559 70.4131 47.7291 69.9356 47.2178C69.4619 46.7074 69.4925 45.9085 70.0029 45.4348L74.1951 41.9261C75.2907 40.9812 76.0128 40.2936 76.3986 39.7771Z" fill="#7400BD"/><path fill-rule="evenodd" clip-rule="evenodd" d="M58.1449 22.6758C58.6322 21.958 59.1669 21.1447 59.7352 20.2919C60.9286 18.5171 62.2675 16.5875 63.582 14.9339C64.7901 13.421 65.9943 12.1493 67.0839 11.4215C69.0259 10.1057 70.6153 9.81523 71.9246 10.0951C73.0599 10.3399 74.0158 11.0211 74.8304 12.001C77.1784 14.8298 78.2215 20.4309 79.2633 22.0828C79.579 22.6057 79.4097 23.2909 78.8858 23.6104C78.3582 23.9289 77.673 23.7596 77.3582 23.2329C76.3987 21.5695 75.7054 15.9516 73.4425 13.132C72.9273 12.4842 72.3152 12.0032 71.5711 11.863C70.6437 11.6934 69.5747 12.0807 68.2576 13.0702C67.3521 13.7601 66.4059 14.9525 65.4387 16.3264C64.2563 18.0086 63.0867 19.9761 61.9934 21.7478C61.6749 22.265 61.361 22.7635 61.0574 23.2367C63.0039 23.9124 64.9937 25.0398 65.7218 25.8712C66.5164 26.739 66.4219 28.1339 65.7315 29.4967C64.8867 31.1472 63.1752 32.639 62.0954 32.8449C61.1559 33.0299 60.2141 32.7574 59.3129 32.2248C57.9581 31.4212 56.71 29.913 55.8263 28.9557L55.7992 28.9689C54.7623 29.4674 54.0438 29.1111 53.712 28.5087C53.4253 27.981 53.4272 26.9605 54.0511 25.9149C54.8072 24.6398 56.2354 23.1852 56.8669 22.9122C57.2229 22.7578 57.6548 22.6818 58.1449 22.6758ZM60.0662 24.7397C59.8966 24.9918 59.7307 25.2289 59.5733 25.4482C59.4633 25.5879 58.6445 26.5058 57.7489 27.381C58.3599 28.1557 59.141 29.2227 60.0383 29.9966C60.5821 30.4647 61.1398 30.8767 61.7597 30.7955C62.3478 30.7144 63.1614 29.9461 63.7653 29.1101C64.1203 28.6218 64.4108 28.1056 64.4909 27.6209C64.5314 27.3925 64.5495 27.1745 64.4144 27.014C63.8889 26.4074 62.551 25.6001 61.1306 25.0783C60.7776 24.9473 60.4172 24.8304 60.0662 24.7397ZM54.9101 26.7151C54.7519 26.68 54.5713 26.6552 54.638 26.771C54.6963 26.8728 54.7944 26.8296 54.9101 26.7151Z" fill="#7400BD"/><path fill-rule="evenodd" clip-rule="evenodd" d="M50.4273 18.1169C49.7246 17.3592 48.5162 15.6423 47.1846 14.761C46.3618 14.2161 45.4995 13.9275 44.6442 14.1094C42.8931 14.4593 41.5676 15.7883 41.0068 17.35C40.7756 17.9961 40.6792 18.6754 40.7156 19.3479C40.7773 20.3682 41.1888 21.3558 42.0469 22.1756C43.8579 23.9302 46.0517 24.4247 48.1497 24.0533C49.1997 23.8718 50.2218 23.4332 51.1453 22.8311C52.0258 22.2582 52.8058 21.5133 53.463 20.6865C53.93 20.0829 55.2105 18.3256 55.6732 16.8231C55.9894 15.7849 55.9606 14.8402 55.4697 14.2064C54.6717 13.1432 53.7752 12.286 52.8322 11.5365C52.1741 11.0163 51.4975 10.5393 50.7827 10.1203C49.071 9.12125 47.1712 8.41733 45.1436 7.84475C44.5446 7.69671 43.9413 8.06407 43.7942 8.65937C43.647 9.25467 44.0097 9.86076 44.6088 10.0088C46.8691 10.4919 49.0173 11.0745 50.8371 12.279C51.9878 13.0401 52.9728 14.07 53.8274 15.3539C53.8876 15.4482 53.799 15.5654 53.7657 15.7002C53.6686 16.0933 53.4246 16.5177 53.1611 16.9412C52.5948 17.85 51.8441 18.6855 51.5167 19.0297C50.9832 19.6129 50.3428 20.0982 49.6733 20.5088C49.013 20.9137 48.3124 21.2252 47.5833 21.4105C46.1895 21.7613 44.7002 21.6793 43.3383 20.6634C42.9071 20.3344 42.5983 19.9442 42.4839 19.4909C42.3507 18.9852 42.395 18.436 42.5864 17.9351C42.9579 16.9622 43.8565 16.1712 44.9673 16.0167C45.4751 15.9555 45.8962 16.3734 46.3221 16.8044C47.2534 17.7457 48.0007 19.0944 48.4964 19.7412C48.9449 20.2732 49.742 20.343 50.274 19.8945C50.806 19.4459 50.8758 18.6488 50.4273 18.1169Z" fill="#7400BD"/><path fill-rule="evenodd" clip-rule="evenodd" d="M62.6463 123.065C62.7308 123.06 62.8202 123.052 62.9192 123.037C63.5663 123.055 64.2255 122.911 64.8016 122.525C64.9972 122.393 65.1847 122.245 65.3463 122.074C65.7757 121.622 66.0591 121.086 66.3549 120.645C66.7526 120.177 67.4575 120.122 67.9233 120.52C68.3927 120.919 68.4455 121.621 68.0479 122.089C67.5481 122.568 66.9015 123.046 66.3119 123.616C65.9039 124.013 65.5622 124.447 65.136 124.805C64.5876 125.272 63.9631 125.549 63.3005 125.754C62.8681 125.8 62.4816 125.837 62.1596 125.757C60.9878 125.467 60.3796 124.858 60.3216 124.128C60.2824 123.596 60.3693 123.019 60.9138 122.375C61.1448 122.1 61.3993 121.761 61.7866 121.431L63.2166 120.065C63.7935 119.676 64.5815 119.831 64.9671 120.409C65.3565 120.988 65.2022 121.773 64.6254 122.161L62.8587 122.945C62.7847 122.987 62.7115 123.025 62.6463 123.065ZM62.3136 123.302L62.2631 123.361C62.2149 123.428 62.2599 123.551 62.2469 123.603C62.2746 123.588 62.311 123.569 62.3033 123.552C62.2654 123.48 62.3282 123.371 62.3136 123.302Z" fill="#7400BD"/></svg>