<svg width="267" height="213" viewBox="0 0 267 213" fill="none" xmlns="http://www.w3.org/2000/svg"><path fill-rule="evenodd" clip-rule="evenodd" d="M7.00061 94.0056C7.31821 93.7788 9.47215 92.7165 12.9191 91.451C24.4762 87.2066 52.8196 77.1865 57.2569 75.2575C58.8991 74.5639 60.7963 75.3366 61.4893 76.9786C62.1827 78.6204 61.4124 80.5166 59.7703 81.2101C55.8008 82.8365 33.0645 90.3994 19.6689 94.9603C26.2707 95.641 32.8006 96.6581 39.2378 98.0802C50.1574 100.494 60.7946 104.083 71.0934 108.948C87.8334 117.329 103.834 128.514 121.081 136.334C128.324 139.618 135.778 142.322 143.629 143.9C150.464 145.191 156.941 145.919 163.142 146.014C173.499 146.179 183.067 144.736 192.209 142.246C215.073 136.012 235.281 122.959 258.822 109.39C260.587 108.405 262.819 109.036 263.805 110.8C264.792 112.568 264.159 114.8 262.394 115.785C238.024 128.974 216.993 141.499 193.551 147.375C183.928 149.785 173.909 151.045 163.068 150.882C156.606 150.781 149.848 150.23 142.706 148.992C134.374 147.65 126.405 145.139 118.653 141.957C101.082 134.747 84.6756 124.044 67.6097 116.206C57.8971 111.471 47.8278 108.025 37.5147 105.53C34.305 104.753 31.0713 104.068 27.8157 103.468C30.7666 105.121 33.6956 106.78 36.6164 108.337C39.5855 109.91 47.1084 113.351 48.5114 114.722C49.492 115.681 49.6205 116.672 49.556 117.288C49.475 118.089 48.8526 120.13 45.8291 119.968C39.9458 119.701 25.8493 113.14 16.3122 107.084C13.0735 105.028 10.3815 102.955 8.57435 101.174L8.29456 101.071L7.79632 100.893L7.70998 100.885L6.33341 100.787L6.39811 100.475C6.02876 100.408 5.77391 100.434 5.77393 100.637L5.77446 100.746L6.33341 100.787C6.05354 102.045 5.78307 102.496 5.77446 100.746L5.68319 100.741C4.75323 100.68 4.26959 100.499 4.12233 100.439C2.19846 99.6185 2.02375 98.1288 2.01704 97.3838C2.01052 96.6345 2.12644 94.6513 4.53902 94.0436C4.71283 93.9995 5.17954 93.8961 5.87569 93.9181C6.16477 93.9238 6.55071 93.9494 7.00061 94.0056Z" fill="#7400BD"/></svg>