<svg width="133" height="143" viewBox="0 0 133 143" fill="none" xmlns="http://www.w3.org/2000/svg"><path fill-rule="evenodd" clip-rule="evenodd" d="M105.751 104.631C100.88 103.431 95.9094 102.681 90.9256 101.939C84.7272 101.015 78.4858 100.214 72.4198 98.7123C68.4926 97.7452 64.6722 96.4183 60.9352 94.7992C53.5186 91.4988 46.9023 86.8817 40.7835 81.5096C38.241 79.2755 35.7929 76.9153 33.3778 74.4925C27.4643 68.5565 21.9212 62.0945 16.8281 55.3643C11.6484 48.5237 6.8442 41.5267 2.38738 34.818C1.32042 33.101 1.84904 30.839 3.56715 29.7757C5.28413 28.7087 7.54134 29.2348 8.6083 30.9518C16.4887 44.3692 25.238 59.3589 36.8224 71.0596C39.1155 73.3748 41.5714 75.4985 44.1147 77.4741C50.0303 82.0572 56.5389 85.646 63.5855 88.0879C68.4812 89.8779 73.5561 90.862 78.6416 91.8549C86.6312 93.4162 94.7082 94.7246 102.579 96.7384C108.421 98.2324 114.112 100.193 119.534 103.112C122.531 104.713 124.794 105.835 126.414 106.582C128.417 107.187 129.736 107.736 130.178 107.991C131.336 108.667 131.493 109.607 131.554 109.911C131.73 110.834 131.444 111.592 130.846 112.233C130.555 112.544 129.959 113.059 128.824 113.055C128.621 113.053 128.169 112.999 127.463 112.793C126.622 112.552 125 111.979 122.455 110.912C115.124 109.248 101.675 108.4 89.7934 117.11C88.7169 118.12 87.0456 118.289 85.773 117.423C84.2973 116.421 83.9151 114.412 84.9129 112.938C84.8549 113.024 84.7471 113.211 84.7471 113.211C84.7471 113.211 85.3209 112.364 85.7372 112.078C92.3841 107.434 99.3574 105.338 105.751 104.631Z" fill="#7400BD"/><path fill-rule="evenodd" clip-rule="evenodd" d="M104.867 69.507C104.886 72.3609 106.047 76.5262 107.656 81.7288C107.883 82.4693 108.057 83.2406 108.219 84.0428C108.647 86.164 108.921 88.3584 109.619 90.6917C109.892 91.6096 110.197 92.5275 110.633 93.4184C111.053 94.2745 111.597 95.0767 112.16 95.8866C114.25 98.8717 117.074 101.448 119.773 104.514C121.786 106.805 123.607 109.397 125.909 111.765C127.24 112.952 129.284 112.841 130.472 111.51C131.659 110.183 131.544 108.139 130.213 106.951C127.872 105.146 125.57 103.45 123.842 101.328C120.961 97.7918 119.773 93.5996 117.984 90.0823C117.567 89.2686 117.066 88.5281 116.595 87.7876C115.357 85.8477 113.953 84.2627 113.12 82.4037C112.569 81.1619 112.214 79.8969 111.983 78.7013C111.3 75.1454 111.717 72.2028 112.156 70.2514C112.361 68.242 110.895 66.441 108.882 66.2366C106.873 66.0322 105.072 67.4977 104.867 69.507Z" fill="#7400BD"/></svg>