<svg width="133" height="115" viewBox="0 0 133 115" fill="none" xmlns="http://www.w3.org/2000/svg"><path fill-rule="evenodd" clip-rule="evenodd" d="M72.0175 89.7267C71.9475 90.2668 71.4885 90.6865 70.9282 90.6931C70.3138 90.7004 69.8093 90.2077 69.802 89.5934C69.8078 89.2392 69.99 88.6693 70.5277 88.0524C71.141 87.3489 72.2583 86.3965 73.5921 85.3667C74.8667 84.3826 76.3578 83.3451 77.736 82.3445C79.4155 81.1254 80.9381 79.9826 81.89 79.3311C82.3472 79.0182 82.6829 78.8063 82.8512 78.7168C83.3027 78.4777 83.6419 78.594 83.7456 78.6229C84.0351 78.7027 84.2176 78.8699 84.3595 79.0317C84.5976 79.3039 84.6861 79.67 84.6076 80.1145C84.5455 80.467 84.0982 81.0651 83.9383 81.4315C83.535 82.3481 82.6609 84.098 82.1616 85.7331C82.1308 85.8341 82.1019 85.9343 82.0749 86.0342C83.1209 85.4108 84.7771 84.5067 86.3985 84.0466C87.8669 83.6296 89.2973 83.552 90.3328 84.1279C90.9372 84.4567 91.2631 85.201 90.8028 86.2251C90.2598 87.4334 88.6341 89.3484 88.2632 89.72L85.5542 92.6484L80.4576 98.8184C79.994 99.3384 79.1954 99.3841 78.675 98.9205C78.155 98.4569 78.1093 97.6583 78.5729 97.1383L84.1528 91.3324L87.0422 88.5273C87.2944 88.2616 87.8884 86.5452 88.5433 85.7355C88.0956 85.801 87.6136 85.9757 87.1257 86.172C85.5884 86.7904 84.0606 87.8943 83.2514 88.5091C83.0158 88.677 82.7312 89.0379 82.45 89.2907C82.1527 89.5581 81.8483 89.7523 81.5946 89.8525C81.1696 90.0199 80.7762 90.0195 80.4366 89.909C80.0708 89.79 79.7078 89.559 79.4605 89.0667C79.051 88.2327 79.0183 87.0393 79.394 85.7409C79.7144 84.6351 80.2937 83.4264 80.8413 82.387C80.1968 82.8004 79.4957 83.2681 78.7828 83.7734C77.8599 84.4273 76.9309 85.1604 76.0458 85.8732C74.5019 87.1154 73.1303 88.3389 72.3748 89.2211C72.2287 89.3914 72.0772 89.6292 72.0175 89.7267ZM80.9028 87.2029C80.6896 87.1784 80.3777 87.1559 80.4845 87.3112C80.5865 87.4585 80.7367 87.3757 80.9028 87.2029Z" fill="#7400BD"/><path fill-rule="evenodd" clip-rule="evenodd" d="M65.5818 63.0323C65.6213 62.461 66.0953 62.008 66.6788 62.0011C67.2931 61.9938 67.7976 62.4853 67.8049 63.0985C67.8007 63.3608 67.6891 63.8327 67.3596 64.4074C66.9557 65.1142 66.2181 66.1412 65.3372 67.2856C65.0227 67.6905 64.6883 68.1148 64.3443 68.5393C65.406 68.3994 66.5583 68.351 67.7115 68.3874C68.7066 68.4181 69.702 68.5104 70.6291 68.6575C71.7118 68.8259 72.6974 69.0726 73.5047 69.3022C73.9645 69.4394 74.3149 69.6782 74.5178 70.0692C74.7424 70.5063 74.8377 71.2881 74.5062 72.2408C73.7957 74.2857 71.5187 77.6683 71.0731 78.0824C70.7278 78.4337 70.352 78.7764 69.9462 79.0635C69.6456 79.2758 69.328 79.4589 68.9891 79.5944C67.2648 80.3192 65.4046 80.1562 63.5874 79.5915C61.0324 78.7976 58.5733 77.1433 56.873 76.1298C56.2888 75.7511 56.1225 74.9662 56.5025 74.3832C56.7232 74.0411 57.0808 73.8441 57.4561 73.8126C57.4692 73.7855 57.4992 73.7388 57.5438 73.6689C57.5935 73.595 57.7039 73.4394 57.8564 73.2255C58.4168 72.4474 59.5945 70.9061 60.4903 70.016C60.8143 69.6959 61.1305 69.4608 61.3933 69.3111C61.9125 68.6338 62.4345 67.9295 62.9335 67.2409C63.9478 65.8442 64.8376 64.5068 65.3258 63.5985C65.4346 63.4005 65.5451 63.1253 65.5818 63.0323ZM71.6758 71.5146C71.0748 71.4408 70.4191 71.3753 69.7372 71.3101C68.6966 71.2106 67.5955 71.1157 66.5218 71.0937C65.0188 71.0576 63.5745 71.1018 62.4762 71.4426C62.2979 71.4949 62.0444 71.7448 61.7369 72.0338C61.3127 72.4284 60.8513 72.9045 60.4355 73.3568C60.1676 73.6917 59.9284 73.9838 59.7254 74.2253C59.5439 74.4396 59.3895 74.6189 59.2672 74.7515C60.6563 75.7725 62.3859 77.0247 64.2318 77.7356C65.5968 78.2594 67.0201 78.4931 68.3736 78.0104C68.6454 77.9069 68.8974 77.7573 69.1309 77.5771C69.395 77.3734 69.636 77.1391 69.8646 76.9011C70.1858 76.5386 70.6716 72.7878 71.6758 71.5146Z" fill="#7400BD"/><path fill-rule="evenodd" clip-rule="evenodd" d="M17.8931 95.9287C20.3054 92.887 22.789 89.8846 25.4689 87.036C26.6135 85.819 27.7908 84.6283 29.011 83.4818C31.0062 81.6067 33.1361 79.8901 35.1903 78.0742C36.0689 77.2962 36.9472 76.5182 37.7977 75.7098C41.7951 71.9172 45.5206 67.8655 49.4463 64.0815C52.106 61.5159 54.8474 59.0727 57.4426 56.5233C57.872 56.0824 57.8636 55.3766 57.4239 54.9499C56.9845 54.5193 56.2788 54.5276 55.8497 54.9686C53.3253 57.656 50.7784 60.3746 48.0547 62.9448C44.0121 66.7649 39.576 70.2195 35.4856 74.071C34.669 74.8444 33.8926 75.652 33.1119 76.4597C31.2849 78.3443 29.5506 80.3053 27.7551 82.2166C27.1141 82.8991 26.4712 83.5783 25.8102 84.2403C22.4808 87.5744 19.0983 90.8259 15.9684 94.2946C15.5173 94.8257 15.5827 95.6233 16.1137 96.074C16.6448 96.5248 17.442 96.4598 17.8931 95.9287Z" fill="#7400BD"/><path fill-rule="evenodd" clip-rule="evenodd" d="M41.7636 83.2205C40.7611 82.1147 39.4477 80.8656 38.1625 79.3748C37.9357 79.1117 37.7275 78.8265 37.5227 78.5358C36.9531 77.7287 36.4597 76.8745 35.8491 76.0564C35.592 75.7123 35.3372 75.3682 35.0369 75.0632C33.4716 73.458 31.5314 72.3394 29.8489 71.1946C28.5094 70.2849 27.2723 69.4279 25.9961 68.9417C25.4111 68.7558 24.7839 69.0795 24.5965 69.6641C24.409 70.2488 24.732 70.8736 25.317 71.0633C26.3514 71.3249 27.4651 71.7244 28.4997 72.4256C29.1429 72.8654 29.7147 73.4371 30.3121 74.0124C31.2415 74.9116 32.0498 75.9781 32.9897 76.9466C33.2822 77.2478 33.6054 77.5139 33.9223 77.7917C34.6889 78.4576 35.5036 79.0226 36.1958 79.7221C36.6314 80.1624 37.0193 80.6349 37.3759 81.1078C38.3528 82.4021 39.0863 83.6967 39.762 84.7593C40.1866 85.3116 40.9797 85.4156 41.532 84.9909C42.0846 84.5663 42.1882 83.7732 41.7636 83.2205Z" fill="#7400BD"/><path fill-rule="evenodd" clip-rule="evenodd" d="M37.3047 56.6574C37.9662 56.3371 38.6219 55.9514 39.2522 55.4965C40.0759 54.9004 40.8794 54.2352 41.598 53.49C42.4956 52.5536 43.3005 51.5451 43.9108 50.5158C44.2204 49.9914 44.4947 49.4752 44.6902 48.956C45.2216 47.5535 45.3528 46.256 44.8214 45.4524C44.5162 44.9932 43.9217 44.8498 43.0768 44.8907C42.4625 44.898 41.9575 44.4064 41.9502 43.7933C41.9429 43.1763 42.436 42.6728 43.0503 42.6655C44.6044 42.7088 45.633 43.225 46.2558 44.0237C47.1045 45.109 47.2121 46.8009 46.6256 48.7556C46.4326 49.3982 46.1788 50.0723 45.8719 50.7663C45.2484 52.1776 44.4 53.6495 43.3415 55.0005C42.2887 56.3398 41.0563 57.5616 39.7013 58.4648C39.0603 58.8928 38.3916 59.2556 37.703 59.5029C35.1882 60.4083 32.5538 60.2044 30.3161 58.3256C29.383 57.573 29.1132 56.7431 29.218 55.9281C29.3101 55.2057 29.7238 54.4719 30.3729 53.8278C31.3866 52.8284 32.9565 52.0923 34.2802 52.0264C35.0913 51.9898 35.8095 52.2242 36.3723 52.6804C37.1608 53.3151 37.6726 54.5433 37.3047 56.6574ZM34.9775 57.4757C34.7653 57.1774 34.6835 56.7888 34.7878 56.4096C35.0168 55.7165 35.1338 55.1828 35.0809 54.7553C35.052 54.5243 35.0219 54.3318 34.8791 54.2293C34.5006 53.9561 33.929 53.9861 33.3592 54.1394C32.5707 54.3532 31.7612 54.7832 31.2755 55.3521C31.0039 55.6716 30.8098 56.021 30.9314 56.359C30.9969 56.5433 31.1793 56.6762 31.4106 56.8277C32.5874 57.5735 33.7883 57.6981 34.9775 57.4757Z" fill="#7400BD"/><path fill-rule="evenodd" clip-rule="evenodd" d="M33.2213 35.7821L33.3028 35.6616C33.6267 35.2296 34.1877 35.0532 34.6988 35.2207C35.2099 35.3882 35.5576 35.8623 35.564 36.4022C35.5824 36.7144 35.533 36.9079 35.4983 37.0394C35.4046 37.3992 35.0228 37.693 34.7513 37.8582C34.1075 38.6604 33.4912 39.4738 32.885 40.2987C32.1665 41.2753 31.4455 42.2404 30.7364 43.2247C30.2602 43.886 29.8004 44.5626 29.3071 45.2164C28.7404 46.0176 27.9408 47.2459 27.3937 48.4635C27.0642 49.1964 26.8313 49.9204 26.8596 50.514C26.8669 51.1272 26.3742 51.6306 25.7598 51.6379C25.1455 51.6452 24.6406 51.1536 24.6333 50.5404C24.6545 49.6685 25.0111 48.6114 25.5653 47.5673C26.2515 46.2748 27.1934 44.9753 27.8657 44.1342C28.2475 43.6167 28.6228 43.0955 28.9841 42.5667C28.1659 43.1433 27.3259 43.6663 26.4662 44.12C25.3819 44.6922 24.254 45.1067 23.0581 45.3755C21.9202 45.632 20.7217 45.7774 19.4039 45.631C18.8371 45.5799 18.2698 45.5133 17.7048 45.4236C17.119 45.3342 16.5402 45.2138 15.971 45.0547C15.1669 44.8328 14.3968 44.5257 13.6512 44.1604C12.9102 43.7951 12.2073 43.3638 11.5317 42.8858C10.9824 42.4604 10.8846 41.6632 11.3136 41.1142C11.7421 40.5653 12.5362 40.4672 13.0855 40.8965C13.6148 41.3569 14.169 41.7784 14.7627 42.1455C15.3526 42.5126 15.9662 42.8332 16.616 43.0839C16.996 43.2259 17.3824 43.3486 17.7759 43.4519C18.3899 43.6105 19.0138 43.7342 19.6372 43.8386C20.6063 43.9853 21.5143 43.9937 22.3634 43.8139C22.9709 43.6871 23.5425 43.4605 24.0901 43.1918C26.0537 42.2196 27.5867 40.4928 29.2744 38.9222C30.4734 37.8088 31.7498 36.7792 33.0439 35.8845C33.1025 35.8452 33.1622 35.8098 33.2213 35.7821Z" fill="#7400BD"/><path fill-rule="evenodd" clip-rule="evenodd" d="M108.56 71.3832C109.992 70.3609 111.147 69.1552 111.654 67.9341C112.085 66.8952 111.885 65.8594 110.757 64.9848C109.603 64.0938 107.652 63.3838 104.696 62.8874C104.091 62.7778 103.689 62.1994 103.799 61.5922C103.908 60.9888 104.488 60.5881 105.092 60.6977C113.333 62.3003 114.715 65.7293 113.43 68.6909C112.953 69.7843 112.04 70.8691 110.88 71.8584C112.408 71.6257 114.416 71.6406 116.719 72.2107C119.57 72.9819 121.29 74.3909 121.996 76.1846C122.684 77.9279 122.454 80.1243 121.114 82.6095C119.702 85.211 116.443 87.8658 113.633 88.078C111.554 88.2384 109.596 87.2761 108.723 84.0724C108.461 83.1588 108.5 82.2526 108.711 81.366C108.74 81.2497 108.768 81.1372 108.801 81.0217C108.558 81.303 108.323 81.5622 108.111 81.7824C106.179 83.7958 104.383 85.7359 102.709 87.7766C101.06 89.7863 99.5341 91.8968 98.1065 94.2799C97.7375 94.8715 96.9578 95.0517 96.3671 94.6821C95.7764 94.3124 95.5958 93.535 95.9648 92.9434C97.2224 91.0077 98.5394 89.2552 99.9305 87.5906C102.018 85.0959 104.267 82.8027 106.724 80.4103C107.24 79.9041 107.88 79.189 108.505 78.4595C109.812 76.9326 111.067 75.3295 111.067 75.3295C111.308 75.0165 111.729 74.9007 112.094 75.0453C112.463 75.1945 112.686 75.5641 112.642 75.9598L112.46 76.8989C112.003 78.2348 111.058 79.6394 110.538 81.1051C110.25 81.9152 110.103 82.7507 110.353 83.5957C110.983 85.6147 112.129 86.3397 113.447 86.1826C115.632 85.916 118.024 83.637 119.019 81.5439C119.844 79.82 120.082 78.3542 119.572 77.1917C119.079 76.0637 117.864 75.3459 116.031 74.9041C113.597 74.2593 111.589 74.3541 110.374 74.6984C110.416 75.0275 110.327 75.3679 110.116 75.6434C109.818 76.0361 109.324 76.2289 108.839 76.1409C107.798 75.972 107.369 75.3925 107.206 74.9711C107.137 74.7862 107.104 74.5607 107.132 74.307C105.014 75.3696 102.758 76.0427 100.965 76.0471C99.1336 76.0485 97.7583 75.38 97.1466 74.0228C95.7026 70.8451 97.5975 66.975 100.766 66.436C102.834 66.0816 105.706 67.1702 108.56 71.3832ZM106.421 72.6771C105.059 70.4824 103.716 69.2789 102.461 68.8163C99.7503 67.8157 97.9487 70.8758 98.9266 73.2517C99.388 74.3544 100.858 74.3855 102.53 74.0613C103.769 73.8233 105.13 73.333 106.421 72.6771Z" fill="#7400BD"/><path fill-rule="evenodd" clip-rule="evenodd" d="M88.0078 44.0082C88.1465 43.4415 88.705 43.0762 89.2864 43.1815C89.8909 43.291 90.2933 43.8695 90.184 44.4729C90.0952 44.8958 89.7716 45.4447 89.1905 45.9626C88.1484 46.8948 86.1997 47.9723 85.5751 48.5686C84.6211 49.5011 83.7466 50.8752 83.1631 52.3764C82.6962 53.5774 82.4226 54.8566 82.3433 56.0102C82.8831 55.9277 83.7256 55.7942 83.8176 55.756C84.3297 55.5469 84.7993 55.2479 85.2551 54.915C86.0152 54.3629 86.7143 53.7057 87.4083 53.0985L88.0716 52.4661C88.2498 52.1182 88.4512 51.7941 88.6677 51.5746C89.2113 51.0147 89.8515 50.821 90.4854 50.9397C90.9707 51.0276 91.2726 51.2979 91.4598 51.6532C91.5774 51.8783 91.6799 52.1908 91.5848 52.6008C91.5649 52.6874 91.5244 52.9152 91.2992 53.1801C91.2822 53.2006 91.2467 53.2451 91.1879 53.3011C91.1534 53.334 91.0805 53.4031 90.9785 53.4944C90.7563 53.6932 90.3847 54.0178 90.0287 54.3257C89.896 54.8073 89.8016 55.331 89.7422 55.4575C89.2173 56.4833 88.7879 57.4129 88.4412 58.3809C88.1 59.3342 87.8246 60.3112 87.6155 61.457C87.5656 61.7301 87.4545 62.2117 87.4066 62.6969C87.4005 62.7585 87.3915 62.8235 87.3813 62.8883C88.0844 62.3689 89.989 62.2475 90.1754 62.1402C91.1268 61.5483 91.9325 60.8202 92.6646 60.02C94.513 57.9993 95.9056 55.5589 97.8234 53.5507C98.3229 53.0651 99.1227 53.0767 99.6084 53.5762C100.094 54.0757 100.084 54.8734 99.5841 55.3591C97.5516 57.1975 95.9914 59.49 94.0431 61.3633C93.1454 62.2275 92.179 63.0166 91.0502 63.6352C90.7975 63.7815 88.7995 64.7482 87.5873 64.9402C86.7945 65.067 86.2248 64.8109 85.9541 64.4405C85.7468 64.1678 85.6235 63.7339 85.5731 63.2309C85.5031 62.5206 85.5986 61.6364 85.632 61.2035C85.7257 59.9114 85.9096 58.7923 86.1787 57.7005C86.2284 57.4979 86.2818 57.2959 86.3391 57.0986C85.7819 57.4288 85.2065 57.7125 84.6003 57.9084C84.3871 57.9756 82.5864 58.3118 81.6483 58.1654C80.6666 58.0111 80.2356 57.4196 80.2677 56.81C80.334 55.2582 80.8246 53.4461 81.5176 51.7256C82.2201 49.9833 83.1308 48.3335 84.2073 47.2116C84.6774 46.7128 85.924 45.8765 86.9518 45.0514C87.388 44.7032 87.9078 44.1233 88.0078 44.0082ZM90.2624 53.6743C90.5106 53.6801 90.7808 53.6467 90.646 53.5125C90.5009 53.3726 90.3728 53.467 90.2624 53.6743Z" fill="#7400BD"/><path fill-rule="evenodd" clip-rule="evenodd" d="M69.6533 35.7641C70.2784 34.9406 70.7544 34.1214 71.0589 33.2673C71.4713 32.1113 71.5359 30.8962 71.2936 29.5354C71.2062 28.9277 71.6293 28.3616 72.2375 28.2758C72.846 28.1861 73.4105 28.6098 73.4979 29.2175C73.6903 30.9769 73.4701 32.5126 72.8648 33.9668L72.7955 34.1267C73.6687 33.9713 74.687 34.0382 76.1939 34.2877C77.0106 34.4787 78.3525 34.5768 79.2617 35.0943C79.8951 35.4559 80.4031 35.9399 80.6179 36.6452C81.1593 38.4207 80.5332 40.0946 79.2267 41.4453C78.7603 41.9252 78.2207 42.3683 77.6493 42.7704C76.1628 43.8102 74.4329 44.5041 73.1488 44.5262C71.3646 44.5871 70.1564 44.1056 69.1994 43.313C68.4241 42.6708 67.8369 41.7689 67.2851 40.6498C67.0359 40.6909 66.8199 40.6087 66.6617 40.5408C66.4512 40.4478 66.0069 40.1635 66.1093 39.3864C66.1658 38.9577 66.4495 38.4838 66.8642 38.0338C67.4302 37.4151 68.3118 36.8262 68.6778 36.532C69.0328 36.2474 69.3549 35.9922 69.6533 35.7641ZM69.2484 38.9125C69.2792 38.9651 69.3063 39.021 69.3293 39.08C69.7035 40.1669 70.0497 41.0683 70.6741 41.6871C71.2419 42.2524 72.0152 42.5728 73.1649 42.6282C74.3302 42.6629 76.0471 42.0216 77.2668 40.9334C78.3234 39.9882 79.0013 38.7039 78.4466 37.4668C78.412 37.39 78.3144 37.388 78.2426 37.3514C78.0699 37.2574 77.8581 37.2387 77.6467 37.2004C76.961 37.0762 76.2166 37.0746 75.7017 37.0048C74.3465 36.7358 73.578 36.6357 72.826 36.864C72.0529 37.0963 71.2995 37.5948 70.0538 38.4195C69.8762 38.5363 69.5749 38.709 69.2484 38.9125Z" fill="#7400BD"/><path fill-rule="evenodd" clip-rule="evenodd" d="M65.135 28.5098C64.1472 29.099 63.2059 29.5478 62.2187 29.8784C60.8946 30.3245 59.5 30.5265 57.8788 30.7306C57.389 30.7751 56.2472 30.9484 55.3476 30.856C54.6632 30.7869 54.0791 30.5909 53.7209 30.2595C53.2143 29.7954 52.9263 29.0965 52.9739 28.2429C53.0304 27.2301 53.5278 25.9641 53.6712 25.3434C53.9598 24.0082 54.6538 22.8601 55.5287 21.784C57.2794 19.6319 59.893 17.8164 61.7273 16.0205C62.1781 15.6004 62.8832 15.6263 63.3007 16.0782C63.7192 16.5264 63.6927 17.2309 63.2423 17.651C61.6156 19.0691 59.3325 20.3761 57.6533 22.0748C56.6275 23.1157 55.8679 24.3147 55.6492 25.7017C55.597 26.0999 55.4101 26.7833 55.3025 27.481C55.2423 27.8738 55.0551 28.6669 55.3163 28.53C55.3515 28.5129 55.2877 28.4543 55.2559 28.4329C55.234 28.4132 55.1912 28.3702 55.1912 28.3702C55.1912 28.3702 55.7931 28.3773 56.135 28.3334C56.7033 28.26 57.2483 28.1314 57.5349 28.0853C58.3896 27.954 59.1655 27.7928 59.9105 27.6417C60.6917 27.4814 61.4341 27.3141 62.1808 27.0849C63.123 26.797 64.0776 26.4565 65.119 25.9435L67.2053 24.9223C67.3831 24.8408 67.6132 24.761 67.8681 24.7209C68.4004 24.641 69.0351 24.6619 69.0351 24.6619C69.3584 24.6578 69.6541 24.8407 69.8026 25.1263C69.9512 25.4118 69.9261 25.7601 69.7394 26.0202L68.9938 26.9708L67.1771 29.009C65.8174 30.5735 64.3076 31.95 62.9038 33.4595C62.3365 34.0661 61.7943 34.7047 61.2816 35.3801C60.8344 35.9144 60.0383 35.9818 59.5037 35.5362C58.9691 35.0905 58.8986 34.2938 59.3458 33.7595C59.9738 33.0776 60.6317 32.4443 61.3098 31.8342C62.5692 30.7023 63.8834 29.6548 65.135 28.5098Z" fill="#7400BD"/><path fill-rule="evenodd" clip-rule="evenodd" d="M41.1216 13.4394C40.1397 14.2728 39.1291 15.0696 38.1916 15.8679C35.881 18.0322 33.2735 20.1192 30.5727 22.0678C27.8522 24.0325 25.0359 25.8465 22.2288 27.333C21.6039 27.6431 20.8465 27.3843 20.5382 26.7602C20.2296 26.1359 20.4867 25.379 21.1115 25.069C23.9047 23.7916 26.7526 22.2381 29.4594 20.4551C32.1695 18.6689 34.7338 16.6603 37.0411 14.6051C38.1025 13.5667 39.2818 12.5222 40.3686 11.406C41.0626 10.6969 41.7088 9.95566 42.2673 9.17889C42.3809 9.01917 43.2542 7.33128 43.6587 6.69514C44.3492 5.60521 45.5356 6.05532 45.6782 6.15561C45.8417 6.26755 46.0008 6.44532 46.1115 6.68878C47.5896 6.49797 49.3649 6.46682 50.9116 6.76663C53.0438 7.18425 54.7176 8.22823 55.0342 10.0415C55.1195 10.5077 55.0596 11.0612 54.8943 11.6427C54.6112 12.634 54.0173 13.7297 53.6461 14.3875C53.4023 14.8333 53.1122 15.1884 52.7977 15.5116C52.3944 15.9245 51.9377 16.269 51.4656 16.7009C50.6778 17.4322 49.8986 18.3885 48.9811 19.0806C48.4967 19.4436 47.9712 19.7286 47.4046 19.9121C46.9804 20.0508 46.5263 20.0783 46.0662 20.0498C45.5447 20.0141 45.0136 19.8866 44.5348 19.7841C43.9007 19.6497 42.708 19.3317 41.8522 18.8435C41.2518 18.4995 40.819 18.037 40.5894 17.5564C40.3592 17.0679 40.3945 15.8476 40.8042 14.4363C40.8981 14.1123 41.0052 13.779 41.1216 13.4394ZM43.0236 16.6139C43.1551 16.7514 43.4028 16.8354 43.6317 16.9435C44.1665 17.1893 44.7462 17.3688 45.0974 17.4638C45.4171 17.5492 45.7629 17.6588 46.1128 17.7222C46.3363 17.7627 46.561 17.8073 46.7722 17.7515C47.2416 17.6288 47.6653 17.3803 48.0626 17.076C48.8184 16.4996 49.4963 15.7758 50.175 15.2207C50.6396 14.8345 51.0888 14.5357 51.4857 14.1686C51.6962 13.9716 51.8943 13.7566 52.0625 13.4775C52.3106 13.0599 52.683 12.4493 52.9558 11.8089C53.1713 11.3031 53.3528 10.7834 53.2736 10.3771C53.0458 9.28935 51.876 8.88148 50.5761 8.67734C49.0338 8.43713 47.2361 8.58568 45.9092 8.87836C45.6322 9.63949 45.2848 10.3997 45.2446 10.4982C45.0639 10.8966 44.4301 12.3849 43.8643 13.8815C43.4518 14.9708 42.4107 16.6479 43.0165 16.6636C43.0476 16.6653 43.0418 16.6407 43.0236 16.6139C42.9931 16.5809 42.969 16.5452 42.9528 16.507C42.9626 16.5284 43.0024 16.5748 43.0236 16.6139Z" fill="#7400BD"/></svg>