<svg width="167" height="187" viewBox="0 0 167 187" fill="none" xmlns="http://www.w3.org/2000/svg"><path fill-rule="evenodd" clip-rule="evenodd" d="M79.5258 178.487C79.0823 179.811 77.8327 180.764 76.3595 180.764C74.5198 180.764 73.0234 179.268 73.0234 177.425C73.0312 176.904 73.4053 175.428 74.7782 173.754C77.5936 170.315 85.3417 162.776 86.4408 161.257C87.8871 159.253 89.4528 157.336 91.0842 155.468C97.2819 148.368 104.536 142.049 110.071 134.463L128.193 107.486C130.372 104.45 135.181 95.5425 140.241 90.7271C144.117 87.042 148.356 85.8056 151.997 87.5372C152.409 87.7324 153.929 88.6495 154.114 90.8694C154.16 91.4537 154.114 92.915 154.118 93.1113C154.187 97.1635 152.444 103.021 149.725 109.295C148.88 111.242 147.947 113.238 146.971 115.237C151.954 110.518 156.945 106.174 158.946 104.99C158.954 104.985 159.498 104.634 160.454 104.589C161.164 104.555 162.787 104.501 163.513 104.567C165.063 104.708 165.734 105.714 165.892 106.035C168.476 111.111 165.553 120.475 159.721 130.803C149.15 149.515 129.936 172.109 125.949 176.089C124.441 177.536 122.042 177.487 120.595 175.979C119.145 174.472 119.196 172.072 120.703 170.625C124.228 167.374 139.798 150.724 150.812 134.629C155.444 127.863 159.297 121.216 161.002 115.755C161.735 113.401 162.109 111.323 161.808 109.651L161.353 109.668L161.191 109.676C159.031 111.302 154.573 115.685 150.284 120.252C145.807 125.018 141.529 129.989 140.369 132.17C139.524 133.754 138.679 135.477 137.746 137.113C137.036 138.355 136.261 139.537 135.424 140.605C135.413 140.62 133.878 141.996 133.257 142.518C129.983 145.281 126.936 139.741 126.936 139.706C126.886 137.708 128.772 132.73 131.857 126.645C135.664 119.136 141.117 109.487 144.229 101.538C145.17 99.1439 145.942 96.9483 146.304 95.0558C145.29 95.7504 144.275 96.6926 143.28 97.7605C139.03 102.314 135.143 108.861 133.249 111.278C131.275 113.8 129.35 116.36 127.483 118.965C123.071 125.112 118.887 131.431 114.394 137.552C108.929 145.366 101.679 151.919 95.558 159.281C94.0963 161.043 92.7117 162.859 91.4275 164.748C90.3553 166.33 82.723 174.278 79.9616 177.87C79.8112 178.067 79.6338 178.328 79.5258 178.487Z" fill="#7400BD"/><path fill-rule="evenodd" clip-rule="evenodd" d="M54.476 171.961C56.7167 170.332 59.7018 167.751 62.656 165.109C67.2531 160.999 71.723 156.708 73.1538 154.763C74.627 152.712 76.2121 150.823 77.7934 148.949C81.3993 144.682 85.1827 140.661 89.0741 136.399C90.69 134.557 92.2173 132.65 93.6905 130.695C99.7686 122.614 104.944 113.838 111.516 106.086C112.916 104.534 115.315 104.411 116.865 105.811C118.419 107.212 118.543 109.608 117.139 111.16C110.216 118.374 104.574 126.655 98.1566 134.257C96.4905 136.228 94.7897 138.162 92.9886 140.015C89.6565 143.559 86.2703 146.814 83.239 150.405C81.2759 152.732 79.5096 155.225 77.8474 157.891C76.2816 160.489 70.7318 167.005 65.4058 172.436C61.1133 176.813 56.8324 180.347 54.8424 181.228C54.5801 181.337 53.1493 182.053 52.1273 182.309C51.2596 182.524 50.4766 182.504 49.8827 182.408C48.2899 182.149 47.2602 181.227 46.6277 180.007C46.2729 179.304 46.0106 178.382 45.9296 177.314C45.8062 175.691 46.2112 173.411 46.2227 172.228C46.2652 170.027 45.8409 166.574 46.1687 163.727C46.4001 161.712 46.9439 159.922 47.8734 158.616C56.3118 146.712 68.7649 138.936 78.6688 128.647C81.0175 126.204 83.1348 123.546 85.0709 120.721C87.6317 116.89 94.9864 105.703 98.2337 101.004C98.9471 99.9673 99.4909 99.223 99.7686 98.8813C100.918 97.4601 102.241 97.5234 102.495 97.5176C104.339 97.5176 105.835 99.014 105.835 100.857C105.835 101.824 105.423 102.694 104.767 103.302C104.559 103.552 104.026 104.214 103.54 104.851C100.1 109.376 92.3098 120.191 89.5986 123.89C87.3463 127.042 84.7778 129.892 82.1553 132.691C76.2391 138.999 69.7214 144.777 63.7243 151.062C60.2494 154.704 57.0214 158.567 54.3179 162.913C53.9399 163.511 54.0633 164.415 54.0633 165.347C54.0595 167.659 54.4143 170.177 54.476 171.961ZM53.7587 175.88C53.7162 176.445 53.8242 176.813 54.2523 176.725C54.422 176.69 54.1405 176.413 54.0788 176.282C54.0132 176.145 53.9014 176.011 53.7587 175.88Z" fill="#7400BD"/><path fill-rule="evenodd" clip-rule="evenodd" d="M70.5633 132.728C71.3469 132.926 73.2475 133.062 75.577 134.033C76.2097 134.296 76.8662 134.643 77.4486 135.121C78.428 135.922 78.9177 137.001 79.8919 137.94C80.2572 138.291 80.6172 138.642 81.0619 138.888C83.2802 140.114 85.885 140.152 87.6189 141.335C88.8287 142.16 89.3793 143.249 89.5672 143.876C90.3455 145.548 92.3335 146.275 94.0038 145.498C95.6768 144.721 96.4022 142.734 95.6265 141.062C94.9197 139.963 93.0006 138.765 90.687 136.96C88.8499 135.528 87.4998 133.009 85.0882 131.587C84.6409 131.322 84.1458 131.219 83.6429 131.09C82.3537 130.757 81.2314 130.77 80.0295 130.437C79.6192 130.323 79.2248 130.191 78.8754 129.982C76.2574 128.423 74.7379 126.569 74.0178 125.988C72.1569 125.034 69.8751 125.771 68.9221 127.631C67.9665 129.491 68.705 131.775 70.5633 132.728Z" fill="#7400BD"/><path fill-rule="evenodd" clip-rule="evenodd" d="M29.169 180.974C28.953 180.752 28.7178 180.542 28.4439 180.376C27.4913 179.803 26.3845 179.494 25.428 179.024C23.2297 178.009 20.935 177.22 18.9604 175.74C18.4166 175.333 17.9846 174.816 17.5411 174.298C16.469 173.043 15.7516 171.716 14.6911 170.454C14.3324 170.03 13.9622 169.62 13.5302 169.276C11.3165 167.518 8.82121 166.358 6.4995 164.865C4.93755 163.476 4.79873 161.08 6.18713 159.519C7.57553 157.957 9.97437 157.817 11.5325 159.206C12.9903 161.026 14.2823 162.909 15.9407 164.619C16.388 165.079 16.847 165.54 17.383 165.894C18.9643 166.939 20.7306 167.299 22.4006 168.189C23.0793 168.549 23.7504 168.905 24.3482 169.382C26.0374 170.741 27.2908 172.438 28.8489 173.891C29.331 174.341 29.786 174.836 30.3607 175.23C31.4521 175.984 32.6439 176.572 33.5309 177.364C34.2444 177.888 36.1573 179.895 35.7215 180.742C36.1457 181.298 36.3925 181.992 36.3925 182.744C36.3925 184.587 34.8962 186.084 33.0527 186.084C31.9998 185.934 31.0163 185.762 30.3838 184.908C30.0522 184.464 29.5971 183.969 29.439 183.231C29.2963 182.583 28.4748 181.124 29.1651 180.974L29.169 180.974ZM33.2223 179.409C33.1684 179.398 33.1144 179.396 33.0527 179.404L33.2223 179.409Z" fill="#7400BD"/><path fill-rule="evenodd" clip-rule="evenodd" d="M99.2457 74.3825C92.188 82.5197 86.9005 91.9797 80.4638 100.613C78.8941 102.717 77.1355 104.66 75.4038 106.625C71.9984 110.259 68.1456 113.495 64.3429 116.856C62.6884 118.317 61.0262 119.765 59.4565 121.31C55.8274 124.886 52.5377 128.743 49.5603 132.72C46.8838 136.429 44.6469 140.234 41.982 143.779C40.3313 145.971 38.5303 148.059 36.3513 149.946C31.9392 153.324 29.12 160.098 25.5565 164.642C24.3686 166.158 23.1075 167.365 21.4761 167.63C19.6674 167.991 18.4949 169.752 18.8536 171.56C19.2161 173.367 20.9786 174.541 22.7835 174.18C25.0281 173.644 26.9719 172.418 28.6534 170.594C32.6412 166.278 35.0246 158.072 39.7104 154.143C42.3561 152.191 44.5737 149.965 46.6678 147.641C49.649 144.332 52.3024 140.787 55.3453 137.349C58.0836 134.159 61.246 131.289 64.2928 128.247C66.3599 126.185 68.3654 124.049 70.34 121.885C73.7532 118.141 76.9388 114.265 79.7927 110.192C81.239 108.242 82.5618 106.212 84.0042 104.256C87.3132 99.7717 90.7726 95.3898 94.286 91.058C97.5604 87.0204 101.024 83.1749 104.765 79.5701C106.195 78.0471 106.122 75.6483 104.599 74.2167C103.075 72.7855 100.677 72.8595 99.2457 74.3825Z" fill="#7400BD"/><path fill-rule="evenodd" clip-rule="evenodd" d="M72.5676 88.7279C72.0778 88.4078 71.6073 87.2605 70.8013 86.5809C67.5269 83.8165 62.5287 80.6875 60.2571 78.5745C58.645 77.0746 58.1398 75.5077 58.1051 74.5701C58.1051 72.727 59.6015 71.2302 61.445 71.2302C63.0031 71.2302 64.3105 72.2958 64.6769 73.7374L64.6807 73.7417C66.7903 76.1922 72.6988 80.3358 75.6954 83.5357C78.1174 86.12 78.6881 88.677 77.886 90.1869C76.9334 92.1449 75.5257 93.8319 73.9676 95.4393C70.9478 98.5547 67.122 101.199 64.8003 104.396C62.656 107.354 60.3227 111.225 57.6192 115.395C56.0611 117.805 54.449 120.356 52.6132 122.818C49.6127 126.845 46.161 130.682 42.7402 134.3C39.6433 137.57 36.3998 140.434 33.3183 143.004C29.4693 146.215 25.7669 148.858 21.9411 150.094C20.5681 150.566 18.312 150.125 15.7435 148.743C10.6565 146.003 3.32498 139.405 2.13326 138.544C0.498037 137.238 0.235768 134.853 1.53932 133.221C2.84673 131.589 5.23017 131.324 6.86155 132.63C7.59817 133.282 10.8262 136.82 14.3165 140.014C16.1098 141.654 17.9379 143.226 19.5037 144.119C19.9087 144.349 20.5026 144.612 20.6221 144.664C23.4568 143.845 26.3724 142.268 29.1184 139.958C30.85 138.503 32.4621 136.739 34.0588 134.853C37.1171 131.241 39.8322 127.002 42.6283 122.799C43.8162 121.01 44.9654 119.202 46.1919 117.479C51.0088 110.715 55.8297 104.543 59.5706 100.214C62.359 97.0449 66.7479 94.6711 70.1572 91.5317C71.0828 90.6802 71.9081 89.7553 72.5676 88.7279Z" fill="#7400BD"/><path fill-rule="evenodd" clip-rule="evenodd" d="M47.3303 103.828C47.5231 104.023 47.7391 104.657 48.1711 105.187C48.5182 105.613 48.8305 106.128 49.4206 106.514C49.6173 106.645 49.8487 106.711 50.0955 106.753C50.9633 106.899 51.4839 106.703 52.4249 106.829C52.7489 106.872 53.0458 106.887 53.3158 107.075C54.7582 108.074 54.8854 109.925 55.9614 111.026C57.0799 112.167 58.2099 112.782 58.8848 113.578C59.7101 115.227 59.0391 117.234 57.3923 118.059C55.7416 118.883 53.7362 118.214 52.9109 116.565C52.8877 116.413 53.0806 116.256 52.9996 116.08C52.8453 115.736 52.7566 115.285 52.3979 115.005C51.4106 114.238 49.8911 114.757 48.6801 114C48.4371 113.849 48.306 113.604 48.1556 113.366C47.6581 112.586 47.8047 111.932 47.2532 111.28C46.9832 110.964 46.6245 110.745 46.2774 110.609C44.353 109.85 43.0572 110.055 43.0109 110.045C41.2947 108.851 40.8705 106.489 42.066 104.773C43.2423 103.081 45.5563 102.645 47.2648 103.781L47.2879 103.791L47.311 103.81L47.338 103.827L47.3303 103.828Z" fill="#7400BD"/><path fill-rule="evenodd" clip-rule="evenodd" d="M77.2967 1.26193C78.9666 0.336716 81.0994 0.798365 82.2255 2.39155C83.4288 4.09929 83.0239 6.46419 81.3154 7.6694C80.6713 8.10096 79.7958 8.48624 78.7738 8.6864C78.1606 8.80634 77.1733 8.91934 76.6025 8.97758C69.3866 16.1294 63.162 24.8925 58.5764 34.447C53.8173 44.359 50.8052 55.0871 50.0609 65.6096C50.0146 66.3829 49.6212 67.0929 48.9849 67.536C48.3524 67.9796 47.5502 68.1072 46.8059 67.8824C42.9569 66.7574 36.2579 64.1433 30.0255 62.7449C26.1226 61.8691 22.451 61.397 20.1563 62.3832C18.602 63.0569 17.5993 64.3639 16.8241 65.8283C15.3778 68.5654 14.8842 71.982 14.541 74.7808C13.8468 80.3097 13.6076 85.9277 13.4958 91.5661C13.3569 98.409 13.4958 105.284 13.947 112.055C23.3187 100.954 32.702 89.9726 42.4285 79.3255C46.5474 74.8205 50.7551 70.41 54.9859 66.0073C61.3185 59.4135 67.7398 52.8819 74.5854 46.7004C79.7958 41.934 84.2079 36.6222 89.4221 32.0644C91.7708 30.0107 94.2815 28.112 97.0698 26.4548C98.6665 25.5377 100.711 26.0911 101.628 27.6901C102.546 29.2891 101.991 31.332 100.39 32.2491C97.9106 33.6209 95.6699 35.2153 93.5641 36.9477C88.2574 41.3096 83.7335 46.4563 78.4267 51.0299C72.958 55.7832 67.655 60.6704 62.6028 65.7897C59.2166 69.2229 55.9385 72.7553 52.7336 76.3528C40.7085 89.8584 29.6861 104.225 18.5172 118.63C17.7188 119.658 16.234 122.166 14.8225 123.501C13.8468 124.426 12.7862 124.949 11.8644 125.174C11.2088 125.335 7.82265 125.365 6.93176 121.849C6.66565 120.803 6.31084 118.128 6.26071 117.663C5.5935 110.445 5.10752 103.071 5.25793 95.7059C5.4122 88.2918 6.19898 80.9083 7.49096 73.7013C8.13502 70.196 9.13391 65.9602 11.1664 62.6176C12.7746 59.9743 14.9343 57.8126 17.9156 56.7331C20.4957 55.7971 24.1942 55.9136 28.2939 56.7655C33.9632 57.9445 40.5272 60.3742 45.2323 62.0206C46.0962 51.8791 48.9155 41.6119 53.1462 31.956C57.8552 21.2032 64.346 11.2245 72.0747 3.09C72.4797 2.66307 73.1315 2.23034 74.0494 1.93685C74.7937 1.69812 76.9303 0.295836 77.2967 1.26193ZM10.3333 117.43C10.2215 117.391 10.1328 117.377 10.0788 117.39C9.86665 117.435 9.2766 117.438 9.4193 117.662C9.6507 118.033 9.97465 117.862 10.3333 117.43Z" fill="#7400BD"/></svg>