<svg width="184" height="160" viewBox="0 0 184 160" fill="none" xmlns="http://www.w3.org/2000/svg"><path fill-rule="evenodd" clip-rule="evenodd" d="M154.386 122.12C156.131 117.247 157.786 112.216 159.423 107.216C160.204 104.839 160.949 102.458 161.765 100.127C162.461 98.141 163.169 96.178 163.962 94.2704C164.21 93.7085 164.867 93.4533 165.428 93.7012C165.992 93.9508 166.246 94.6084 165.997 95.1703C164.305 98.8168 162.772 102.637 161.515 106.586C159.634 112.509 158.256 118.65 156.488 124.479C156.354 124.877 156.05 125.195 155.656 125.342C155.262 125.489 154.824 125.45 154.459 125.234C154.208 125.078 153.259 124.621 151.986 123.97C148.919 122.401 144.063 119.784 141.695 118.463C141.022 118.087 140.532 117.811 140.319 117.645C139.999 117.397 139.921 117.134 139.896 117.009C139.367 114.278 141.141 112.524 143.675 111.389C146.51 110.118 150.339 109.661 151.959 109.307L151.965 109.303C152.433 108.787 153.23 108.748 153.748 109.218C154.21 109.67 154.27 110.127 154.171 110.511C154.101 110.785 153.965 111.12 153.576 111.361C153.378 111.485 152.923 111.657 152.244 111.751C150.347 112.017 145.806 112.179 143.168 113.766C142.186 114.357 141.496 115.164 141.519 116.315C141.727 116.415 142.073 116.76 142.484 116.965C144.896 118.166 149.995 120.185 153.133 121.557C153.596 121.76 154.018 121.95 154.386 122.12ZM151.709 110.578C151.758 110.752 151.859 110.925 152.049 111.086C151.89 110.941 151.777 110.767 151.709 110.578Z" fill="#7400BD"/><path fill-rule="evenodd" clip-rule="evenodd" d="M132.461 111.024C133.634 110.516 135.388 109.974 136.841 109.252C137.582 108.884 138.256 108.484 138.76 108.012C139.181 107.622 139.587 107.123 139.992 106.58C140.814 105.474 141.608 104.164 142.216 103.179C143.291 101.684 143.854 100.344 143.721 99.1C143.62 98.1644 143.092 97.2591 141.983 96.3157C140.833 95.416 139.766 94.701 138.742 94.2322C134.478 92.2791 131.439 93.4774 129.671 95.6074C128.827 96.6292 128.286 97.9101 127.969 99.2568C127.145 102.733 128.127 106.624 130.78 107.883C131.341 108.131 131.997 107.876 132.246 107.314C132.494 106.752 132.241 106.094 131.68 105.846C129.742 105.051 129.08 102.152 129.698 99.6766C129.954 98.6485 130.488 97.708 131.198 96.9806C132.544 95.6034 134.629 95.3337 137.576 96.7356C138.451 97.1513 139.429 97.6572 140.461 98.376C141.191 98.8414 141.59 99.2545 141.586 99.8269C141.582 100.55 141.228 101.342 140.739 102.257C140.229 103.069 139.625 104.139 138.925 105.073C138.483 105.663 137.998 106.187 137.521 106.569C136.979 106.994 136.224 107.3 135.422 107.569C134.079 108.022 132.608 108.327 131.571 108.659C130.919 108.904 130.588 109.633 130.835 110.286C131.078 110.937 131.809 111.269 132.461 111.024Z" fill="#7400BD"/><path fill-rule="evenodd" clip-rule="evenodd" d="M129.71 72.2796C129.196 72.0108 128.972 71.3836 129.21 70.8446C129.526 70.1773 129.789 69.8223 129.95 69.6869C130.426 69.2768 130.862 69.3121 131.175 69.4426C131.424 69.5465 131.748 69.7487 131.881 70.2304C131.947 70.4635 131.976 70.9784 131.892 71.6837C131.613 74.0512 130.38 79.3574 129.791 81.0056C128.315 85.8499 126.633 90.5889 124.692 95.2366C124.046 96.7833 123.385 98.3258 122.654 99.8368C121.928 101.346 121.116 102.81 120.333 104.295C120.162 104.653 119.821 104.899 119.428 104.949C115.403 105.288 113.141 103.891 112.107 102.022C111.232 100.435 111.22 98.4411 112.003 96.6023C113.418 93.2863 117.365 90.5403 123.016 92.5337C123.814 90.8227 124.606 89.1089 125.349 87.3701C126.321 85.0848 127.251 82.7815 128.114 80.4393C128.555 79.0495 129.376 74.9912 129.692 72.4642L129.71 72.2796ZM121.956 94.7872C117.872 93.1422 114.756 94.8953 113.617 97.3287C112.876 98.911 112.945 100.777 114.197 101.884C115.075 102.663 116.496 102.978 118.459 102.735C118.923 101.629 119.375 100.521 119.849 99.4196C120.218 98.565 120.591 97.7127 120.981 96.8685C121.305 96.1738 121.629 95.4795 121.956 94.7872Z" fill="#7400BD"/><path fill-rule="evenodd" clip-rule="evenodd" d="M97.9876 97.4855C98.0657 97.2611 98.1722 96.9439 98.2248 96.6724C98.4366 95.5925 98.6409 94.1576 98.8734 92.6685C99.2353 90.3811 99.7948 88.0187 101.287 86.4658C102.279 85.4332 103.641 84.7166 105.52 84.6161C106.094 84.5858 106.716 84.6385 107.394 84.7463C110.43 85.4605 111.475 87.1235 111.377 89.2817C111.352 89.9004 111.22 90.5517 111.033 91.2405C110.882 91.813 110.69 92.4078 110.483 93.0195C109.522 95.8326 107.931 98.907 107.421 100.575C107.182 101.23 106.458 101.569 105.804 101.332C105.15 101.096 104.809 100.37 105.047 99.7157C105.651 98.2926 107.315 95.9321 108.448 93.4724C108.864 92.57 109.211 91.6522 109.367 90.7846C109.544 89.8034 109.437 88.9192 108.998 88.2707C108.646 87.7511 107.971 87.5413 106.971 87.4589C106.301 87.3515 105.707 87.3403 105.173 87.3842C103.651 87.5096 102.644 88.2224 101.967 89.2961C101.358 90.2715 100.92 91.435 100.686 92.6223C100.192 95.1501 100.272 97.6608 99.8061 98.6943C99.5994 99.1524 99.2949 99.431 98.9789 99.6021C98.5853 99.8151 98.1123 99.8455 97.5262 99.6164C96.9654 99.3684 96.712 98.7111 96.9606 98.1489C97.1457 97.7302 97.5554 97.4808 97.9876 97.4855Z" fill="#7400BD"/><path fill-rule="evenodd" clip-rule="evenodd" d="M84.0155 121.25C85.2604 118.091 86.4121 114.895 87.7571 111.767C88.1623 110.831 88.6026 109.912 89.0536 108.997C90.1075 106.851 91.3044 104.793 92.3127 102.626C92.6808 101.832 93.0138 101.022 93.3356 100.208C94.0893 98.3028 94.7463 96.3686 95.4333 94.4429C96.0843 92.6366 96.4282 90.6761 96.844 88.7245C97.1112 87.4811 97.4285 86.2484 97.765 85.0486C98.1294 83.757 98.5623 82.5202 99.1116 81.3829C99.36 80.821 99.1066 80.1638 98.5423 79.9143C97.9814 79.6663 97.3248 79.9212 97.0763 80.4831C96.2542 82.5143 95.8388 84.8177 95.3631 87.143C95.1728 88.0696 94.9687 88.9985 94.7219 89.9095C94.3714 91.1983 93.9229 92.4417 93.3834 93.6142C92.5403 95.4641 91.6459 97.2866 90.8153 99.1463C90.4598 99.9408 90.111 100.739 89.7943 101.551C88.7259 104.263 87.9117 107.059 86.7997 109.755C86.3539 110.83 85.8445 111.877 85.3424 112.927C84.1672 115.385 82.9161 117.795 81.7052 120.229C81.4236 120.866 81.7133 121.612 82.3517 121.895C82.9867 122.175 83.7339 121.887 84.0155 121.25Z" fill="#7400BD"/><path fill-rule="evenodd" clip-rule="evenodd" d="M75.8789 88.9718C76.059 88.3928 76.2243 87.752 76.3664 87.0777C76.5506 86.1842 76.6733 85.2294 76.7502 84.283C76.9513 81.7583 76.8591 79.2486 75.6931 78.2427C75.2354 77.8282 75.2049 77.1245 75.6169 76.6695C76.0289 76.2145 76.735 76.1817 77.1892 76.5946C78.1885 77.558 78.707 79.323 78.7515 81.4254C78.7631 82.0002 78.7388 82.5988 78.6924 83.2091C79.8911 82.0144 81.5662 81.3921 83.3006 81.3987C85.5067 81.4067 87.7474 82.4332 89.0474 84.1566C90.2388 85.7633 89.6524 87.9767 88.0035 89.9895C87.51 90.5906 86.9452 91.1813 86.3577 91.7375C84.5873 93.4052 82.5245 94.6471 81.3535 94.7298C79.949 94.8451 78.7887 94.5033 77.7229 93.9478C77.2739 93.7139 76.8457 93.433 76.429 93.1261C74.9333 96.6044 74.0461 97.2567 73.891 96.2723C73.014 96.8443 72.9325 95.617 74.7427 91.7708C74.4159 91.4989 74.0888 91.2278 73.7464 90.9626C73.2149 90.5147 73.1457 89.7175 73.5962 89.185C74.043 88.6514 74.8405 88.5832 75.372 89.0311C75.4954 89.143 75.6147 89.2548 75.733 89.3686L75.8789 88.9718ZM77.3763 90.9739C77.8249 91.3898 78.2845 91.7714 78.7876 92.0832C79.4958 92.5224 80.2831 92.8208 81.2623 92.8093C82.3345 92.7781 84.3818 91.4762 85.8773 89.8388C86.6975 88.9377 87.3134 87.907 87.5484 86.9748C87.6757 86.458 87.6246 85.9822 87.2849 85.6156C86.3248 84.554 84.7838 84.1384 83.3245 84.1678C81.9498 84.1964 80.5704 84.6458 79.8731 85.8796C79.5615 86.4127 79.2726 86.9613 78.9959 87.5204C78.4297 88.6579 77.9197 89.8306 77.3763 90.9739Z" fill="#7400BD"/><path fill-rule="evenodd" clip-rule="evenodd" d="M51.3378 118.808C53.4326 115.805 55.1745 112.314 56.8304 108.645C57.1413 107.951 57.461 107.256 57.7891 106.562C59.0914 103.817 60.4832 101.06 61.5131 98.1675C62.0272 96.7186 62.4365 95.2398 62.8264 93.776C63.7753 90.1896 64.4606 86.6461 65.0553 83.3458C65.4093 81.8775 66.6931 79.2218 67.3078 76.9922C67.6858 75.6126 67.7782 74.364 67.4726 73.4909C67.2496 72.9175 66.6041 72.6321 66.0335 72.8546C65.4591 73.0759 65.1739 73.7211 65.3969 74.2945C65.6238 74.8304 65.5231 75.6208 65.3286 76.4996C64.8242 78.7658 63.6072 81.4708 63.3048 82.956C62.2442 87.0239 60.8052 91.4041 59.3545 95.8776C59.0791 96.7295 58.8286 97.5916 58.5737 98.4542C57.9767 100.472 57.4298 102.501 56.7243 104.469C56.42 105.319 56.1064 106.162 55.7485 106.981C55.5055 107.53 55.2425 108.068 54.9703 108.598C53.3242 111.806 51.4048 114.736 49.3239 117.287C48.9014 117.842 49.0146 118.635 49.571 119.055C50.124 119.474 50.9189 119.364 51.3378 118.808Z" fill="#7400BD"/><path fill-rule="evenodd" clip-rule="evenodd" d="M49.4412 100.795C51.0573 101.116 52.5748 101.175 54.053 101.332C54.3626 101.366 54.6621 101.423 54.9598 101.484C55.8292 101.663 56.6391 101.901 57.5042 102.033C57.868 102.088 58.23 102.137 58.6012 102.146C58.9644 102.155 59.3298 102.12 59.6909 102.085C61.1103 101.955 62.4946 101.59 63.9744 101.515C65.1178 101.456 66.2847 101.602 67.4978 101.691C68.1107 101.697 68.6153 101.204 68.6214 100.589C68.6312 99.9757 68.1375 99.4711 67.5212 99.463C66.3032 99.5284 65.1412 99.715 63.9909 99.7319C62.1954 99.7586 60.5027 99.3906 58.7796 99.368C58.4145 99.3639 58.0527 99.4004 57.6878 99.4339C56.8268 99.512 56.0065 99.7174 55.1285 99.7099C54.6161 99.7052 54.0994 99.6437 53.5839 99.5411C52.444 99.3154 51.3397 98.866 50.1684 98.3772C49.4984 98.1759 48.795 98.5556 48.5965 99.2239C48.3947 99.8903 48.7748 100.595 49.4412 100.795Z" fill="#7400BD"/><path fill-rule="evenodd" clip-rule="evenodd" d="M52.4931 86.2313C52.7086 85.0763 52.8689 83.9411 53.1977 82.835C53.3364 82.3591 53.5051 81.8918 53.7186 81.4469C54.0762 80.6954 54.5748 80.0636 54.9689 79.3342C55.1335 79.0287 55.2979 78.7236 55.424 78.4003C56.0085 76.8779 56.2138 75.25 56.8434 73.7307C57.256 72.7307 57.8424 71.8144 58.3556 70.8445C58.604 70.2826 58.3471 69.6238 57.7863 69.3758C57.2254 69.1278 56.5652 69.3812 56.3168 69.9431C55.9303 70.9985 55.6401 72.0745 55.1815 73.0832C54.4806 74.6304 53.4099 75.9551 52.7855 77.52C52.659 77.8348 52.5855 78.1632 52.5033 78.4921C52.3135 79.2743 52.2339 80.0458 52.0465 80.832C51.9774 81.1029 51.9078 81.3745 51.8086 81.6372C51.3087 82.949 50.6329 84.1725 50.0787 85.4927C49.873 86.1583 50.2516 86.8662 50.9166 87.0692C51.5815 87.2725 52.2874 86.8968 52.4931 86.2313Z" fill="#7400BD"/><path fill-rule="evenodd" clip-rule="evenodd" d="M52.6543 94.1385C52.6408 94.2072 52.6195 94.2745 52.5903 94.3405C52.3847 94.6624 52.1557 94.9706 51.747 95.1129C51.2118 95.303 50.3872 95.2319 49.4861 95.0954C48.5574 94.9547 47.6068 94.7967 46.9838 94.4605C46.2927 94.0875 46.0252 93.4526 46.0025 92.9412C45.9743 92.3279 46.2598 91.3864 47.6579 91.0473C48.0092 91.0158 48.2019 90.9518 48.4356 90.9763C48.641 90.9983 48.8331 90.993 49.153 91.0801L50.6721 91.3637L52.6843 91.8199C53.3224 92.1029 53.6085 92.8484 53.3268 93.4854C53.1904 93.794 52.9466 94.0211 52.6543 94.1385ZM48.7259 93.1716C48.6808 93.2259 48.6352 93.2909 48.5514 93.3564C48.4794 93.4047 48.4171 93.4981 48.4579 93.5394C48.6121 93.6961 48.6887 93.4179 48.7259 93.1716ZM50.5641 93.4202C50.5576 93.4253 50.5547 93.432 50.5551 93.4406L50.5641 93.4202ZM50.4469 93.3038L50.0578 93.0394C49.8728 92.9522 49.7729 92.873 49.6457 92.8556C49.5187 92.8378 49.3931 92.8928 49.1846 92.9258L49.0942 92.9584C49.2644 93.0884 49.4541 93.2031 49.6685 93.281C49.8173 93.3354 49.968 93.3759 50.1182 93.3892C50.2313 93.4004 50.3443 93.3546 50.4469 93.3038ZM48.7544 92.6588C48.7351 92.4736 48.6796 92.2939 48.5543 92.3769C48.5372 92.387 48.5306 92.4212 48.548 92.439C48.61 92.5086 48.6783 92.583 48.7544 92.6588Z" fill="#7400BD"/><path fill-rule="evenodd" clip-rule="evenodd" d="M43.5606 81.0414C44.484 81.0511 45.2721 81.1381 46.0276 80.9838C46.6358 80.8576 47.2363 80.6344 47.8382 80.1313C49.003 79.1848 50.2308 77.6382 50.9974 76.0092C51.5567 74.8109 51.882 73.5695 51.6848 72.375C51.4742 70.572 50.0089 68.5452 48.0557 67.2786C47.3248 66.8049 46.5109 66.4615 45.7076 66.2661C44.2383 65.9079 42.773 66.0271 41.5877 66.7146C41.0389 67.0404 40.5814 67.4837 40.2372 68.0429C39.6579 68.9907 39.364 70.2278 39.0236 71.1408C38.6936 71.9445 38.1766 72.8848 37.8847 73.8121C37.7289 74.3171 37.6253 74.8186 37.6414 75.3161C37.6579 76.0323 37.6581 77.0714 37.8328 77.9544C37.936 78.4648 38.1095 78.9214 38.3388 79.2897C38.4364 79.4505 38.5612 79.5879 38.6923 79.7205C38.9272 79.9618 39.2626 80.0996 39.4445 80.4132C39.7724 80.9305 40.4631 81.0849 40.9803 80.7544C41.4973 80.4243 41.6537 79.7369 41.3224 79.2177C41.2087 79.0552 41.0884 78.9076 40.9503 78.7812C40.6737 78.5294 40.2916 78.4208 40.0644 78.1146C39.8929 77.8823 39.7839 77.5567 39.707 77.206C39.557 76.5152 39.5165 75.758 39.466 75.2141C39.4364 74.8232 39.5307 74.4192 39.6911 74.0279C39.9945 73.2749 40.4854 72.5651 40.7943 71.9236C41.1361 71.2554 41.4552 70.3621 41.9254 69.6229C42.1309 69.301 42.3817 69.0294 42.7136 68.8797C43.4014 68.5639 44.1976 68.6895 45.0012 68.9225C45.5621 69.0844 46.122 69.3345 46.6634 69.6266C48.121 70.4119 49.4874 71.4988 49.8322 72.7409C50.0188 73.5588 49.871 74.4557 49.4685 75.2801C48.8224 76.6175 47.6083 77.7518 46.5839 78.4475C46.2795 78.6495 45.9857 78.7131 45.6962 78.7386C45.0856 78.7938 44.4687 78.6155 43.7342 78.5218C43.0387 78.4736 42.4355 78.9985 42.3893 79.6944C42.3395 80.3889 42.8652 80.9928 43.5606 81.0414Z" fill="#7400BD"/><path fill-rule="evenodd" clip-rule="evenodd" d="M32.14 67.2988C31.5695 67.6547 30.7949 68.0906 30.0921 68.6979C28.5931 69.99 26.8684 71.5923 25.0693 72.6763C23.834 73.4197 22.5674 73.9097 21.4344 74.088C19.7116 74.3603 18.2065 73.9686 17.1539 72.5725C16.3393 71.4871 16.1788 70.1713 16.5288 68.7026C16.8028 67.5583 17.383 66.3221 17.967 65.0584C18.4916 63.9292 18.9994 62.771 19.3464 61.7096C19.7799 60.3857 20.0394 59.2169 18.8803 58.6626C18.3349 58.3798 18.1221 57.7071 18.4053 57.1619C18.6885 56.6166 19.3605 56.4035 19.9059 56.6864C21.4183 57.5384 21.889 58.7915 21.6903 60.3376C21.4983 61.821 20.5665 63.6139 19.7358 65.4546C19.2616 66.4986 18.8556 67.5694 18.6249 68.5587C18.3947 69.5465 18.3648 70.4441 18.9495 71.0864C19.4731 71.6666 20.1775 71.666 20.9402 71.4955C21.801 71.3035 22.7092 70.8135 23.6768 70.2749C27.4347 68.1846 31.617 64.8576 32.8578 64.7981C33.4475 64.7708 33.8282 65.0066 34.0437 65.5109C34.2508 65.9963 34.0913 67.349 33.0435 69.9003L32.1548 72.1298C31.8858 72.7096 31.562 73.3179 31.2187 73.9323C30.7303 74.808 30.2022 75.6878 29.7347 76.4877C29.3543 77.0714 28.5726 77.2372 27.9864 76.8558C27.4036 76.4763 27.2393 75.6939 27.6197 75.1102C28.1492 74.3703 28.7481 73.5593 29.309 72.7485C29.6762 72.2134 30.0251 71.682 30.3221 71.1723L31.3186 69.1377C31.6774 68.3931 31.9497 67.7865 32.14 67.2988Z" fill="#7400BD"/><path fill-rule="evenodd" clip-rule="evenodd" d="M174.357 76.3313C174.652 75.3486 174.879 74.3682 175.233 73.4048C175.404 72.9516 175.588 72.4988 175.822 72.0743C176.222 71.3595 176.767 70.7838 177.188 70.0805C177.36 69.7871 177.522 69.4872 177.653 69.1726C178.209 67.8084 178.391 66.3383 178.962 64.9799C179.343 64.0813 179.886 63.2716 180.346 62.4124C180.596 61.848 180.342 61.1918 179.781 60.9438C179.217 60.6943 178.561 60.9481 178.311 61.5125C177.989 62.4326 177.755 63.3795 177.343 64.2641C176.726 65.6022 175.758 66.7246 175.127 68.056C174.979 68.3628 174.866 68.6845 174.768 69.0106C174.528 69.7935 174.469 70.5844 174.21 71.3616C174.053 71.8204 173.845 72.2623 173.621 72.6921C173.147 73.6025 172.578 74.4317 172.047 75.3098C171.765 75.9469 172.055 76.6936 172.693 76.9758C173.328 77.2565 174.075 76.9684 174.357 76.3313Z" fill="#7400BD"/><path fill-rule="evenodd" clip-rule="evenodd" d="M170.472 84.1553C170.531 84.3079 170.554 84.475 170.536 84.6475C170.348 85.3315 170.32 85.529 170.206 85.8148C170.137 85.9904 170.063 86.2042 169.894 86.569C169.846 86.7526 169.712 86.8653 169.623 86.999C169.208 87.6054 168.042 87.4856 167.031 86.9882C166.612 86.7819 166.32 86.4404 166.142 86.185C165.965 85.935 165.909 85.6718 165.9 85.464C165.887 85.0626 165.947 84.7093 166.173 84.4544C166.236 84.3975 166.322 84.2121 166.571 84.0985C166.84 83.9759 167.291 83.8906 167.836 83.65C167.993 83.5807 168.151 83.5001 168.286 83.3863C169.003 82.7942 169.483 82.0238 169.572 81.9177C170.134 81.505 170.924 81.6247 171.338 82.1859C171.752 82.7471 171.63 83.5371 171.072 83.9514C171.01 83.9775 170.779 84.0409 170.472 84.1553ZM168.653 85.4737C168.492 85.7338 168.398 85.9658 168.301 86.1182C168.288 86.1371 168.272 86.1631 168.285 86.1718C168.363 86.2251 168.409 86.064 168.426 86.0256C168.485 85.9403 168.58 85.7144 168.653 85.4737Z" fill="#7400BD"/><path fill-rule="evenodd" clip-rule="evenodd" d="M159.017 56.5189C158.676 56.3752 158.27 56.1675 158.11 55.9468C157.86 55.5975 157.703 55.0834 158.028 54.282C158.276 53.7212 158.937 53.4654 159.498 53.7134C159.9 53.8911 160.143 54.2768 160.159 54.6887C160.354 54.7623 160.562 54.8457 160.653 54.9156C160.993 55.1671 161.195 55.4839 161.201 55.8998C161.208 56.3974 161.039 57.0385 160.722 57.7072C160.236 58.7404 159.436 59.9013 159.111 60.5877C158.773 61.3155 158.458 62.0642 158.206 62.8349C157.958 63.6071 157.769 64.3969 157.61 65.1859C157.307 66.8524 157.258 68.0603 157.41 68.9002C157.478 69.2703 157.581 69.5241 157.769 69.6519C158.029 69.8271 158.371 69.6348 158.781 69.4792C159.538 69.1885 160.373 68.6168 161.248 67.9634C162.054 67.3602 162.873 66.6625 163.661 65.9773C165.057 64.7656 166.354 63.5866 167.067 62.7357C167.436 62.2928 168.689 59.3919 169.455 58.3093C169.747 57.8948 170.043 57.6546 170.249 57.5809C170.627 57.4404 170.932 57.5036 171.16 57.6465C171.382 57.7828 171.637 58.047 171.651 58.5971C171.663 59.1128 171.328 60.3944 170.319 62.8116L168.769 66.6782C168.759 66.7015 168.749 66.7248 168.739 66.7481L166.544 70.9395C166.197 71.5434 165.426 71.7516 164.821 71.4032C164.216 71.0547 164.009 70.2823 164.356 69.6784L165.297 68.199C165.131 68.3564 164.961 68.5112 164.788 68.6634C162.985 70.2535 160.898 71.5204 159.309 71.9296C157.821 72.3103 156.62 72.0305 155.896 71.0354C155.211 70.095 154.896 68.1581 155.79 64.7811C155.992 63.942 156.25 63.1103 156.523 62.2845C156.796 61.4565 157.08 60.6329 157.418 59.8391C157.669 59.2243 158.27 58.2368 158.706 57.2878C158.829 57.0188 158.945 56.7575 159.017 56.5189Z" fill="#7400BD"/><path fill-rule="evenodd" clip-rule="evenodd" d="M144.212 64.3488C146.384 65.18 148.232 65.2437 149.753 64.7972C150.583 64.5524 151.309 64.1681 151.949 63.6837C152.39 63.3537 152.784 62.9783 153.146 62.5688C153.99 61.6233 154.587 60.4644 154.879 59.1645C155.03 58.4906 155.087 57.7878 155.027 57.0744C154.968 56.3893 154.788 55.6993 154.501 55.0412C153.619 53.0292 151.788 51.2767 148.971 50.2379C148.444 50.047 147.884 49.855 147.281 49.7112C146.528 49.4789 145.728 49.4571 144.923 49.5329C143.835 49.6369 142.738 49.9621 141.765 50.2838C141.191 50.5051 140.906 51.1502 141.129 51.7236C141.348 52.2958 141.994 52.5812 142.568 52.3599C143.367 52.0012 144.265 51.6019 145.187 51.4335C145.737 51.3335 146.287 51.3009 146.819 51.4242C149.692 52.3845 151.258 54.1741 151.951 56.0589C152.12 56.5153 152.234 56.973 152.315 57.4295C152.404 57.9147 152.491 58.3854 152.476 58.8585C152.451 59.6692 152.332 60.4625 151.953 61.1377C151.698 61.5997 151.368 62.0225 150.946 62.3381C150.207 62.8839 149.239 63.1184 148.152 63.0404C147.264 62.9778 146.312 62.6334 145.272 62.0573C144.642 61.7653 143.888 62.0397 143.596 62.672C143.304 63.3047 143.579 64.0556 144.212 64.3488Z" fill="#7400BD"/><path fill-rule="evenodd" clip-rule="evenodd" d="M133.146 51.6915L132.03 53.0045C131.456 53.7967 130.917 54.4718 130.453 55.0926C129.353 56.5696 128.404 57.5436 127.128 57.9401C125.903 58.3172 124.399 58.1796 122.259 57.3745C121.626 57.0882 121.342 56.3384 121.631 55.7045C121.919 55.0703 122.668 54.7885 123.301 55.0745C125.152 56.0566 126.33 56.3589 127.367 55.7776C128.062 55.3883 128.703 54.7197 129.324 53.7741C129.672 53.2441 129.97 52.6177 130.324 51.9399L132.009 49.0079C132.089 48.8653 132.779 47.6273 133.086 47.1445C134.039 45.6358 135.764 47.6095 135.758 47.7476C135.606 49.3492 135.474 51.117 135.285 52.8892C135.155 54.1276 134.96 55.3517 134.787 56.5334C134.71 57.0713 134.657 57.6015 134.57 58.1129C134.505 58.5732 134.017 60.8604 133.845 61.8883C133.886 62.1015 133.862 62.3268 133.768 62.5395C133.491 63.0903 133.125 63.2019 133.03 63.2264C132.665 63.318 132.348 63.2823 132.082 63.0829C131.952 62.9854 131.541 62.7231 131.593 62.099C131.599 62.0182 131.619 61.8409 131.683 61.6009C131.912 60.6897 132.666 58.2515 132.774 57.777C132.941 56.8364 133.073 55.8338 133.126 54.807C133.177 53.7769 133.172 52.728 133.146 51.6915ZM132.017 61.2542C131.912 61.33 131.808 61.4499 131.733 61.6396C131.8 61.4869 131.9 61.3575 132.017 61.2542Z" fill="#7400BD"/><path fill-rule="evenodd" clip-rule="evenodd" d="M114.005 38.576C114.119 38.2892 114.334 37.7841 114.427 37.6499C114.723 37.228 115.104 36.9381 115.556 36.7655C116.023 36.5865 116.561 36.5248 117.049 36.4785C118.443 36.3389 120.374 37.1038 122.078 38.2369C123.782 39.3721 125.248 40.8531 125.687 42.1011C126.154 43.3339 125.797 45.3241 124.779 47.4458C124.374 48.2951 123.868 49.1728 123.287 50.0285C123.22 50.3618 123.014 50.6644 122.703 50.8539L122.693 50.8564C121.982 51.8073 121.18 52.7049 120.322 53.4725C119.404 54.2913 118.415 54.9546 117.439 55.407C115.375 56.3637 113.352 56.4478 111.78 55.2822C110.258 54.1844 110.437 51.8435 111.788 49.5323C112.734 47.9183 114.1 46.2957 115.482 45.4031C116.433 44.7868 117.394 44.5217 118.219 44.63C119.334 44.7685 120.187 45.2999 120.913 46.0042C121.338 46.4161 121.705 46.9022 122.046 47.4096C122.627 46.5615 123.107 45.7137 123.429 44.9194C123.778 44.0529 123.998 43.2904 123.833 42.7184C123.528 41.749 122.403 40.5919 121.09 39.7286C119.809 38.8866 118.337 38.3154 117.299 38.47C117.027 38.5126 116.728 38.5502 116.459 38.6431C116.375 38.6716 116.298 38.7111 116.239 38.7778C116.214 38.8629 116.002 39.5329 115.858 39.8216C115.702 40.1352 115.484 40.3424 115.298 40.4683C114.93 40.7099 114.533 40.7294 114.108 40.5562C113.547 40.3082 113.294 39.6509 113.542 39.0887C113.641 38.8644 113.804 38.6878 114.005 38.576ZM120.459 49.4242C120.125 48.758 119.77 48.0845 119.297 47.5419C118.927 47.1202 118.493 46.7654 117.887 46.6398C116.679 46.4055 115.027 47.8151 113.861 49.4127C113.157 50.3746 112.655 51.4528 112.536 52.3701C112.471 52.8708 112.552 53.3073 112.931 53.5272C113.975 54.1325 115.168 53.704 116.383 52.9793C116.972 52.6284 117.554 52.1792 118.139 51.6863C118.703 51.212 119.264 50.6961 119.8 50.1427C120.026 49.9089 120.245 49.6691 120.459 49.4242ZM114.972 38.505L115.008 38.5199C114.998 38.5148 114.987 38.5105 114.972 38.505Z" fill="#7400BD"/><path fill-rule="evenodd" clip-rule="evenodd" d="M91.7894 38.3053C92.1107 37.1494 92.051 36.1877 91.6877 35.3212C91.1859 34.1194 90.1338 33.1229 88.8661 32.0319C88.4121 31.6187 88.378 30.9137 88.7935 30.4603C89.2057 30.0049 89.9082 29.9706 90.3657 30.3854C91.8307 31.793 92.9704 33.1162 93.5139 34.6051C93.6134 34.8759 93.6939 35.1518 93.7541 35.4353C94.2125 34.9038 94.6902 34.4433 95.1858 34.0855C97.6606 32.2933 100.625 32.274 103.074 37.3515C103.776 38.7852 103.261 41.0947 102.042 43.3751C101.457 44.4692 100.76 45.5787 99.9831 46.5448C98.8548 47.9427 97.5746 49.0356 96.4235 49.5218C95.4794 49.9216 94.5858 49.9111 93.8141 49.5488C93.3985 49.3537 92.908 48.794 92.4804 48.0445C91.8797 46.9997 91.3311 45.5318 91.1145 45.1062C91.0954 45.0636 91.0804 45.0212 91.0627 44.9754L90.7787 45.5604L90.7343 45.6512C89.4324 48.9011 87.9633 50.8031 87.5312 50.3401C86.8945 50.3306 87.3125 47.9639 88.8402 44.8138L88.8775 44.7198C89.4924 43.1763 90.4847 40.5984 91.7894 38.3053ZM91.8697 43.379C92.468 43.1797 93.1366 43.4605 93.4081 44.0482C93.5477 44.381 93.8293 45.3177 94.1828 46.2254C94.3336 46.6189 94.4942 47.0091 94.6694 47.3185C94.7426 47.4487 94.8766 47.6416 94.8766 47.6416C94.8766 47.6416 94.8344 47.6225 94.8175 47.6129C95.2937 47.8808 95.9007 47.6048 96.5617 47.1874C97.57 46.5473 98.6267 45.4923 99.5061 44.2854C99.9262 43.7071 100.317 43.0994 100.622 42.4758C101.404 40.8881 101.797 39.2851 101.241 38.34C99.6039 35.5948 98.2192 35.2647 96.8436 36.3159C95.8786 37.0488 94.9503 38.2041 94.108 39.4893C93.2634 40.7702 92.4986 42.1567 91.8697 43.379Z" fill="#7400BD"/><path fill-rule="evenodd" clip-rule="evenodd" d="M84.0761 28.2335C84.3843 27.8511 84.9207 27.7062 85.3898 27.9137C85.9542 28.1632 86.2076 28.8204 85.9591 29.3823C85.5967 30.0971 84.9039 30.5005 83.8397 30.361C82.6955 30.2118 80.8536 29.2086 79.5622 29.478C79.1675 29.5599 78.9851 29.9153 78.9317 30.5225C78.8499 31.7185 79.0931 32.5513 79.4903 33.2266C79.9595 34.0252 80.723 34.5205 81.4431 35.1522C82.6943 36.2518 83.9201 37.5233 84.6318 39.4614C84.9589 40.3144 85.1153 41.0288 85.1954 41.6297C85.3531 42.8468 85.0837 43.6659 84.5627 44.2435C83.3438 45.5983 80.2233 45.4078 77.6959 44.2191C77.0855 43.883 76.864 43.1155 77.2011 42.5055C77.5347 41.894 78.3036 41.6714 78.9141 42.0075C79.9749 42.6887 81.2206 43.2187 82.2548 43.245C82.6724 43.2542 83.0621 43.2406 83.3039 43.0085C83.6419 42.6827 83.6473 42.0888 83.3457 41.2449C83.2388 40.943 83.0588 40.6348 82.8584 40.2869C82.2891 39.3238 81.5219 38.7223 80.7824 38.1441C80.4001 37.8452 80.01 37.5736 79.6523 37.2763C78.644 36.438 77.7781 35.5352 77.2578 34.3753C76.7784 33.304 76.5519 32.0042 76.9214 30.2434C77.241 28.5762 78.1128 27.9492 79.2164 27.7422C80.3215 27.5316 81.7907 27.8708 83.0391 28.128C83.3756 28.1966 83.836 28.2235 84.0761 28.2335Z" fill="#7400BD"/><path fill-rule="evenodd" clip-rule="evenodd" d="M71.5026 34.7577C73.991 31.2658 73.643 28.1235 71.6933 26.1621C69.5631 24.0177 65.7731 23.3575 62.5123 24.6955C61.938 24.9168 61.2925 24.6315 61.0697 24.0577C60.8502 23.4859 61.1356 22.8404 61.7062 22.6179C65.7965 21.13 70.2837 22.2828 72.9556 24.8902C75.5716 27.4425 76.584 31.4094 73.578 36.2534C72.6501 37.6939 71.4668 39.3879 69.9736 40.6194C68.8739 41.5235 67.6213 42.1727 66.2951 42.4445C65.803 42.5369 65.2923 42.519 64.7882 42.3619C64.036 42.1272 63.2821 41.6197 62.6796 41.3133C60.3864 40.1577 59.4901 38.6081 59.3714 37.0262C59.2867 35.854 59.6349 34.6468 60.2873 33.5432C61.38 31.7012 63.3006 30.2088 65.0891 29.8357C66.204 29.6029 67.2634 29.801 68.1485 30.4601C68.5612 30.7665 68.9405 31.1484 69.3052 31.5635C70.035 32.3926 70.6679 33.3838 71.2739 34.1687C71.4045 34.35 71.4794 34.5526 71.5026 34.7577ZM70.4409 36.1479C69.987 36.2209 69.5039 36.0355 69.2177 35.6337C68.7678 34.9439 68.3056 34.1011 67.7757 33.3347C67.4727 32.8946 67.1569 32.4741 66.7852 32.1512C66.1507 31.6025 65.238 31.7211 64.3676 32.1256C62.9686 32.7721 61.6071 34.1348 61.1897 35.6319C60.9694 36.4069 61.0448 37.2187 61.5137 37.9131C61.9043 38.4889 62.5915 38.9374 63.567 39.3062C63.9788 39.4621 64.4653 39.716 64.967 39.8974C65.2142 39.9868 65.4693 40.0583 65.7023 39.9892C66.8669 39.6726 67.8555 38.8577 68.7763 37.9673C69.3728 37.3906 69.9344 36.769 70.4409 36.1479Z" fill="#7400BD"/></svg>