<svg width="176" height="164" viewBox="0 0 176 164" fill="none" xmlns="http://www.w3.org/2000/svg"><path fill-rule="evenodd" clip-rule="evenodd" d="M85.0869 125.757C86.1748 122.865 87.4891 119.893 88.9445 116.924C91.336 112.036 94.0842 107.154 96.7726 102.682C99.0872 98.7678 101.708 95.0063 104.322 91.1756C106.839 87.4861 109.361 83.7489 111.81 79.9222C113.846 76.7394 115.785 73.475 117.594 70.0994C119.939 65.7232 121.895 61.1226 123.66 56.4171C126.156 49.779 128.129 42.9038 130.194 36.1383C131.618 31.474 133.128 26.8776 134.642 22.3783C135.212 20.8129 136.193 20.1797 136.922 19.8898C138.175 19.395 139.678 19.2142 141.152 20.5086C141.429 20.7556 142.121 21.3632 142.502 22.5547C142.825 23.5486 143.36 26.3527 143.392 26.5937C143.697 28.9396 143.905 31.1493 143.933 33.3695C143.959 35.6253 143.835 37.8825 143.469 40.2899C143.15 42.392 140.526 52.5667 139.131 61.5389C138.792 63.7187 138.536 65.826 138.399 67.7023C141.592 62.2147 144.485 56.5896 146.89 50.7956C149.82 43.7369 151.99 36.4301 153.211 28.871C153.6 26.8158 155.586 25.4673 157.641 25.8592C159.695 26.2511 161.043 28.235 160.65 30.287C158.887 38.2924 156.093 45.9421 152.585 53.328C149.161 60.5277 145.093 67.4793 140.568 74.1983C140.139 74.8487 139.827 76.2694 139.387 76.8043C138.286 78.1339 136.997 78.5332 135.397 77.4202C134.71 76.9484 134.036 76.1069 133.67 74.7839C133.277 73.348 133.206 71.0412 133.315 68.2273C133.567 61.4715 134.965 51.404 135.855 45.0537C134.76 48.1498 133.609 51.2317 132.391 54.2857C129.764 60.8793 126.762 67.2889 123.121 73.262C118.372 81.2111 112.672 88.3688 107.628 95.7689C105.467 98.9414 103.493 102.196 101.649 105.491C99.6078 109.183 97.5263 113.156 95.6546 117.172C93.7781 121.208 92.128 125.288 90.9282 129.168C90.5004 130.541 87.2929 131.511 87.2929 131.511C87.2929 131.511 87.7434 131.51 87.9318 131.475C86.1138 131.779 84.391 130.549 84.0872 128.731C83.8972 127.594 84.3086 126.493 85.0869 125.757Z" fill="#7400BD"/><path fill-rule="evenodd" clip-rule="evenodd" d="M80.1846 49.9197C82.6567 45.2415 85.125 41.0879 87.5971 37.7789C90.1348 34.3773 92.7728 31.882 95.3684 30.4127C100.679 27.416 104.829 28.5113 107.918 31.0374C112.006 34.3735 113.969 41.4813 113.946 46.2366C113.634 53.8265 111.871 60.8263 109.025 67.4212C104.956 76.8354 98.82 85.4088 92.7111 94.1711L87.277 101.792C83.2236 114.095 74.5616 122.637 66.9523 124.38C59.7789 126.023 52.8485 122.564 49.8211 110.847C49.6784 110.223 49.7053 109.567 49.8943 108.95L51.1477 104.596L51.572 104.735C54.9157 95.143 58.9498 85.4126 63.7243 76.1142C65.6334 72.4002 67.6813 68.7672 69.7986 65.2036C72.9842 59.8467 76.3588 54.6672 80.1846 49.9197ZM57.1834 110.261C58.0088 113.763 59.2892 116.146 61.1365 117.388C63.4621 118.958 66.4086 118.568 69.3397 116.991C74.5693 114.176 79.6563 107.905 82.6066 99.8096C82.6953 99.5589 82.8187 99.3236 82.9768 99.1115C82.9768 99.1115 88.4225 91.321 88.3993 91.3519C93.5943 82.5703 98.7275 73.9005 102.098 64.6638C104.239 58.79 105.65 52.681 105.646 46.0669C105.731 43.6912 105.157 40.2896 103.587 37.991C102.615 36.5679 101.076 35.8544 98.8394 36.969C96.9072 37.9254 94.9904 39.7188 93.0196 42.0714C90.5243 45.0487 87.9905 48.836 85.4104 53.113L85.0787 53.5874C79.8992 59.5035 75.2404 66.0791 71.3721 73.1831C65.5717 83.8352 61.3949 95.5055 57.9201 106.809L58.3443 106.948L57.1834 110.261Z" fill="#7400BD"/><path fill-rule="evenodd" clip-rule="evenodd" d="M59.6428 143.576C56.9841 141.141 53.6686 138.855 50.0244 136.538C48.6542 135.669 47.211 134.851 45.8466 133.871C42.8518 131.719 40.1819 129.106 36.9951 127.167C35.394 126.192 33.7294 125.338 32.037 124.666C27.6258 122.908 23.2104 122.068 19.3287 121.514C18.0084 121.284 16.7239 121.22 15.4567 121.082C13.6673 120.889 11.9462 120.631 10.2512 120.287C8.685 119.968 7.20491 119.42 5.75003 118.512C4.11729 117.656 2.09614 118.287 1.24018 119.92C0.384215 121.553 1.01506 123.574 2.6478 124.43C3.80442 124.925 4.93533 125.3 6.08927 125.554C8.94399 126.17 11.8323 125.987 14.8358 126.355C15.8823 126.485 16.9095 126.798 17.9667 127.131C21.0153 128.2 24.2152 129.896 27.6854 131.616C29.035 132.29 30.3933 133.017 31.8322 133.615C35.0355 134.946 38.4731 135.695 41.5599 137.313C43.1105 138.126 44.5656 139.086 45.9107 140.121C49.2918 142.734 51.9078 145.808 54.0087 148.643C55.4061 150.195 57.8054 150.323 59.357 148.925C60.9123 147.527 61.0413 145.131 59.6428 143.576Z" fill="#7400BD"/><path fill-rule="evenodd" clip-rule="evenodd" d="M28.6947 124.677C29.2424 123.293 31.6412 117.3 32.2467 116.185C34.6803 111.561 37.5612 107.203 39.9793 102.633C40.9898 100.724 41.8614 98.7529 42.6828 96.7705C45.8762 88.6792 48.8959 79.7356 52.66 71.2625C53.9366 68.3932 55.2671 65.5624 56.7944 62.8897C58.3872 60.0975 60.1998 57.4981 62.0626 55.0182C66.5247 49.3875 71.1373 43.8995 75.26 38.0142C77.0148 35.5112 78.6385 32.9118 80.1927 30.2816C85.3298 21.5925 89.6223 12.4522 93.1704 2.89925C93.9726 0.970914 96.194 0.056873 98.1223 0.862916C100.051 1.6651 100.965 3.88272 100.162 5.81491C97.4744 11.5459 94.4431 17.0378 91.2189 22.4256C88.9743 26.1781 86.6064 29.8381 84.2499 33.5173C82.6841 35.9547 81.0913 38.3806 79.5757 40.8489C75.7846 47.0272 72.1978 53.2866 68.4029 59.4573C66.8525 61.8407 65.4989 64.4054 64.0603 66.9816C61.9276 70.7882 59.7679 74.6872 57.7701 78.6827C54.3107 85.59 51.0557 92.5937 47.8431 99.0614L37.5728 118.846C36.9133 120.285 35.413 126.525 34.0362 128.688C32.9679 130.366 31.4985 130.806 30.4726 130.84C28.6292 130.84 27.1328 129.344 27.1328 127.5C27.1328 126.313 27.7537 125.267 28.6947 124.677Z" fill="#7400BD"/></svg>