<svg width="389" height="233" viewBox="0 0 389 233" fill="none" xmlns="http://www.w3.org/2000/svg"><path fill-rule="evenodd" clip-rule="evenodd" d="M355.232 129.19C353.952 128.785 353.205 127.436 353.56 126.126C353.925 124.78 355.312 123.985 356.657 124.347C356.611 124.336 356.52 124.316 356.52 124.316C356.52 124.316 357.016 124.441 357.238 124.559C360.985 126.544 365.435 129.56 369.815 131.814C371.641 132.755 373.445 133.566 375.18 134.073C381.021 135.74 383.213 130.547 382.955 124.926C382.856 122.745 382.402 120.458 381.569 118.348C380.326 115.203 378.263 112.448 375.564 110.975C369.658 107.851 363.27 106.269 356.663 105.369C353.591 104.95 350.474 104.711 347.331 104.512C344.192 104.314 341.028 104.162 337.861 104.048C327.957 103.691 318.035 103.599 308.856 102.233C306.245 101.841 303.74 100.963 301.47 99.654C299.23 98.3596 297.207 96.6756 295.557 94.6314C293.708 92.3941 292.9 90.2415 292.779 88.2232C292.579 84.8656 294.357 81.7622 297.315 79.07C303.031 73.8732 313.225 70.214 318.225 69.0438C319.427 68.7834 320.612 69.5475 320.872 70.7466C321.136 71.9483 320.372 73.1333 319.169 73.3937C314.576 74.3154 305.128 77.2648 299.79 81.8681C297.695 83.6725 296.197 85.6997 296.321 88.0208C296.399 89.3905 297.059 90.8106 298.329 92.3129C299.743 93.9485 301.446 95.288 303.329 96.2784C305.204 97.2604 307.262 97.8695 309.381 98.089C317.181 98.9015 325.476 98.619 333.839 98.6162C339.417 98.6162 345.027 98.6669 350.515 99.2406C360.112 100.245 369.308 102.69 377.447 107.685C380.748 109.667 383.18 113.181 384.688 117.144C386.124 120.925 386.727 125.1 386.301 128.688C385.526 135.257 381.595 139.85 374.131 138.004C372.131 137.518 370.034 136.708 367.912 135.738C363.517 133.732 359.026 131.001 355.232 129.19Z" fill="#7400BD"/><path fill-rule="evenodd" clip-rule="evenodd" d="M349.915 179.326C351.004 179.758 351.577 180.975 351.199 182.1C350.809 183.267 349.544 183.896 348.38 183.501C347.384 183.153 344.616 180.551 341.569 177.012C336.649 171.296 330.441 163.307 329.307 161.766C325.888 157.211 321.77 153.157 317.228 149.451C306.596 140.781 293.923 133.766 283.997 124.55C280.197 121.021 276.8 117.18 273.987 112.887C273.458 112.063 272.982 110.123 272.971 108.15C272.958 106.104 273.471 104.103 274.095 103.25C275.269 101.662 276.896 100.794 278.909 100.652C281.266 100.484 284.352 101.426 287.613 103.223C295.943 107.813 305.994 117.636 307.96 119.87C310.364 122.542 312.964 124.894 315.708 127.056C319.963 130.403 324.509 133.35 328.791 136.86C335.261 142.055 341.492 147.209 347.384 152.789C351.336 156.529 355.13 160.459 358.728 164.737C359.605 165.823 359.437 167.414 358.355 168.29C357.272 169.163 355.682 168.998 354.805 167.912C351.488 163.643 347.976 159.692 344.292 155.936C338.688 150.224 332.704 144.957 326.498 139.618C321.566 135.479 316.372 131.975 311.471 128.005C309.319 126.263 307.203 124.457 305.223 122.417C303.499 120.666 295.625 113.791 288.275 109.436C285.683 107.904 283.17 106.7 281.053 106.236C280.085 106.024 279.237 105.829 278.716 106.331C278.722 106.375 278.6 106.455 278.569 106.5C278.615 106.434 278.663 106.379 278.716 106.331C278.718 106.323 278.709 106.314 278.694 106.308C277.739 106.014 277.782 110.321 278.718 110.039L278.643 109.923C278.666 109.953 278.772 110.024 278.718 110.039C281.177 113.993 284.203 117.534 287.551 120.842C297.088 130.268 309.157 137.908 319.542 146.657C324.25 150.62 328.661 154.766 332.272 159.527C333.288 160.841 338.298 166.98 342.894 172.179C345.162 174.744 347.329 177.072 348.84 178.457C349.251 178.835 349.792 179.236 349.915 179.326Z" fill="#7400BD"/><path fill-rule="evenodd" clip-rule="evenodd" d="M303.528 200.463C315.373 200.452 326.927 194.901 329.754 186.771C331.177 182.668 330.542 177.889 326.634 172.603C325.557 171.143 324.251 169.615 322.639 168.065C318.913 164.335 314.713 161.294 310.227 158.643C306.011 156.151 301.576 153.964 296.999 152.022C294.027 150.758 290.996 149.605 287.972 148.458C276.801 144.213 265.7 140.026 257.242 131.604C255.375 129.713 254.373 127.726 254.154 125.837C253.89 123.574 254.726 121.518 256.139 120.207C258.672 117.867 262.937 118.303 266.305 123.509C266.602 123.971 266.768 124.479 266.905 124.995C267.383 126.803 267.496 128.746 268.28 130.468C268.808 131.576 270.14 132.046 271.248 131.519C272.356 130.988 272.826 129.659 272.299 128.551C271.561 127.08 271.47 125.381 270.997 123.826C270.713 122.899 270.341 122.007 269.767 121.188C264.294 113.305 257.465 113.843 253.63 117.556C251.501 119.62 250.261 122.746 250.638 126.231C250.915 128.796 252.057 131.578 254.511 134.22C259.875 140.104 266.372 144.373 273.393 147.904C279.682 151.064 286.331 153.753 292.982 156.339C302.717 160.12 312.416 163.783 320.239 170.634C323.652 173.801 325.7 176.782 326.514 179.577C327.57 183.204 326.446 186.381 324.088 188.889C319.832 193.413 311.68 195.798 303.644 195.413C302.25 195.381 301.093 196.485 301.061 197.879C301.029 199.271 302.133 200.431 303.528 200.463Z" fill="#7400BD"/><path fill-rule="evenodd" clip-rule="evenodd" d="M243.316 223.129C246.705 222.216 251.013 220.904 255.784 219.67C256.654 219.446 257.543 219.254 258.446 219.078C262.004 218.397 265.753 218.067 269.291 216.91C271.215 216.281 273.017 215.369 274.766 214.459C278.291 212.628 281.31 210.33 284.014 208.038C287.211 205.327 289.857 202.447 291.229 198.837C291.616 197.67 290.984 196.407 289.82 196.02C288.653 195.63 287.393 196.261 287.003 197.428C286.239 200.139 284.768 202.642 282.513 204.639C281.058 205.926 279.273 206.908 277.401 207.866C274.531 209.338 271.265 210.293 268.005 211.477C267.003 211.841 266.024 212.277 265.036 212.691C262.658 213.682 260.38 214.817 257.986 215.57C256.469 216.05 254.941 216.404 253.45 216.688C249.267 217.495 245.395 217.782 242.327 218.176C240.962 218.45 240.072 219.783 240.347 221.148C240.618 222.514 241.95 223.4 243.316 223.129Z" fill="#7400BD"/><path fill-rule="evenodd" clip-rule="evenodd" d="M231.618 124.572C235.804 131.013 239.921 137.523 243.376 144.377C244.103 145.815 244.774 147.283 245.406 148.768C247.929 154.716 249.684 160.906 251.708 166.996C252.789 170.256 253.996 173.463 255.024 176.73C256.942 182.804 258.794 188.898 259.772 195.19C260.744 201.432 260.896 207.797 260.751 214.195C260.751 215.421 261.746 216.42 262.976 216.42C264.206 216.42 265.201 215.421 265.201 214.195C265.053 207.598 264.219 201.118 263.303 194.667C261.928 184.946 260.41 175.222 257.206 165.912C256.568 164.057 255.798 162.248 255.018 160.446C253.199 156.257 251.067 152.23 248.993 148.14C248.259 146.691 247.522 145.243 246.824 143.775C243.343 136.442 239.881 129.085 235.946 121.976C235.229 120.779 233.678 120.392 232.481 121.11C231.288 121.827 230.901 123.378 231.618 124.572Z" fill="#7400BD"/><path fill-rule="evenodd" clip-rule="evenodd" d="M212.751 131.472C214.282 143.606 218.884 155.155 221.377 167.141C221.983 170.051 222.449 172.983 222.717 175.959C223.057 180.337 223.646 184.632 223.973 188.97C224.188 191.794 224.267 194.634 224.204 197.514C224.128 200.218 224.77 213.407 222.604 221.905C221.976 224.362 221.288 226.425 219.863 227.188C219.387 227.446 218.818 227.35 218.127 227.093C217.287 226.778 216.358 226.216 215.314 225.39C213.637 224.077 212.311 222.123 211.22 219.961C209.468 216.482 208.324 212.462 207.663 209.172C205.163 196.651 202.769 183.58 201.327 170.388C199.893 157.228 199.406 143.98 199.552 131.2C199.552 129.971 198.557 128.975 197.327 128.975C196.097 128.975 195.102 129.971 195.102 131.2C195.237 141.566 195.991 152.206 196.999 162.879C197.446 167.607 197.945 172.342 198.464 177.064C199.691 188.249 201.103 199.355 202.839 210.048C203.447 213.768 204.564 218.331 206.419 222.292C207.808 225.261 209.64 227.873 211.868 229.698C215.737 232.793 218.884 233.302 221.235 232.565C223.342 231.903 225.091 230.207 226.264 227.605C227.676 224.484 228.354 219.924 228.552 215.216C228.88 207.591 228.063 199.587 228.004 197.514C227.951 195.275 227.779 193.066 227.594 190.868C227.17 185.802 226.555 180.8 226.152 175.695C225.957 172.58 225.534 169.505 225.001 166.447C222.918 154.54 218.835 142.965 217.77 130.933C217.621 129.544 216.375 128.542 214.99 128.691C213.604 128.84 212.602 130.086 212.751 131.472Z" fill="#7400BD"/><path fill-rule="evenodd" clip-rule="evenodd" d="M184.52 179.988C187.092 179.264 189.708 178.421 192.492 177.898C193.636 177.684 194.806 177.522 195.986 177.459C197.927 177.36 199.828 177.624 201.792 177.614C202.612 177.611 203.436 177.608 204.252 177.518C208.128 177.095 211.861 175.925 215.627 175.706C218.245 175.551 220.804 175.832 223.274 175.977C224.501 175.977 225.499 174.979 225.499 173.749C225.499 172.522 224.501 171.524 223.274 171.524C220.695 171.669 218.047 172.069 215.309 172.155C211.381 172.278 207.354 171.629 203.32 172.026C202.52 172.106 201.743 172.294 200.963 172.469C199.104 172.886 197.362 173.498 195.527 173.924C194.879 174.073 194.231 174.212 193.573 174.291C190.161 174.704 186.821 174.718 183.617 175.019C182.245 175.27 181.336 176.583 181.584 177.955C181.835 179.327 183.148 180.236 184.52 179.988Z" fill="#7400BD"/><path fill-rule="evenodd" clip-rule="evenodd" d="M177.955 223.033C176.847 216.787 176.298 210.73 176.305 204.649C176.305 202.166 176.361 199.683 176.586 197.2C176.916 193.504 177.581 189.833 178.166 186.067C178.649 182.834 178.887 179.541 178.811 176.214C178.761 173.983 178.55 171.744 178.358 169.512C177.918 164.43 177.379 159.385 177.879 154.428C178.176 151.764 178.48 148.91 178.933 146.043C179.618 141.715 180.501 137.351 180.98 133.347C181.211 131.416 181.377 129.574 181.433 127.865C181.433 126.635 180.434 125.64 179.204 125.64C177.978 125.64 176.979 126.635 176.979 127.865C177.092 131.641 176.711 136.151 176.113 140.773C175.888 142.512 175.653 144.268 175.352 146C174.886 148.708 174.301 151.35 173.861 153.853C173.256 157.077 173.021 160.367 172.975 163.7C172.925 167.406 173.054 171.152 173.207 174.875C173.25 175.963 173.309 177.051 173.372 178.135C173.517 180.648 173.686 183.131 173.574 185.608C173.468 188.293 173.418 190.928 173.322 193.56C173.259 195.335 173.203 197.101 173.101 198.863C172.843 203.314 172.525 207.718 172.502 212.188C172.482 215.98 172.588 219.799 172.952 223.714C173.137 225.096 174.413 226.062 175.792 225.876C177.174 225.688 178.143 224.412 177.955 223.033Z" fill="#7400BD"/><path fill-rule="evenodd" clip-rule="evenodd" d="M143.009 211.393C145.393 207.99 148.627 203.315 149.232 202.155C150.545 199.582 151.804 196.597 152.915 193.535C154.033 190.473 155.002 187.339 155.838 184.512C158.394 175.69 159.793 166.75 160.576 157.733C161.766 144.091 161.568 130.29 162.038 116.483C162.104 115.091 163.287 114.013 164.679 114.079C166.071 114.148 167.149 115.329 167.08 116.721C166.233 130.578 166.002 144.441 164.494 158.12C163.476 167.348 161.892 176.49 159.098 185.49C158.06 188.932 156.78 192.798 155.395 196.494C154.433 199.05 153.428 201.53 152.36 203.719C151.613 205.279 146.65 212.937 144.593 216.088C144.213 216.67 143.932 217.096 143.796 217.301C142.503 219.259 140.232 217.205 140.222 217.189C138.519 213.945 138.192 205.722 138.754 195.853C139.184 188.354 140.004 179.856 140.966 172.004C142.193 161.998 143.614 153.045 143.985 148.515C144.176 146.405 146.405 130.317 146.455 121.938C145.221 124.206 144.143 126.679 143.178 129.265C139.786 138.338 137.643 148.74 134.522 156.847C133.232 160.365 123.525 177.753 115.146 189.756C111.962 194.319 108.95 198.111 106.645 200.151C104.992 201.612 103.481 202.231 102.417 202.244C101.187 202.244 100.191 201.245 100.191 200.015C100.191 198.819 101.137 197.84 102.324 197.79C102.486 197.694 103.66 196.98 104.483 196.197C107.323 193.499 111.073 188.549 114.855 183.004C122.384 171.967 130.051 158.603 131.202 155.601C134.178 147.447 136.188 137.032 139.372 127.89C140.86 123.621 142.596 119.62 144.798 116.218C145.701 114.819 146.706 114.423 147.344 114.34C148.465 114.191 150.23 115.031 150.72 117.848C151.821 124.186 149.427 146.379 149.265 148.918C148.934 153.504 147.79 162.597 146.458 172.701C145.436 180.458 144.272 188.813 143.598 196.213C143.046 202.277 142.708 207.66 143.009 211.393Z" fill="#7400BD"/><path fill-rule="evenodd" clip-rule="evenodd" d="M127.923 101.836C127.661 102.447 126.795 104.451 126.504 104.874C125.092 106.924 123.403 108.845 121.571 110.7C117.65 114.671 113.057 118.331 109.407 122.401C106.421 125.794 103.22 129.186 100.119 132.731C95.6223 137.862 91.2843 143.268 87.5844 148.991C83.5407 155.25 80.35 161.946 78.8655 169.303C78.4885 171.121 78.3298 173.968 78.5712 176.716C78.7762 179.083 79.1663 181.427 80.3765 182.621C81.6858 183.96 83.3622 183.967 85.1576 183.378C87.1745 182.717 89.317 181.407 91.4463 179.748C98.5683 174.193 105.482 165.057 107.277 162.022C110.194 156.834 113.804 152.007 116.958 146.932C118.278 144.812 119.488 142.633 120.572 140.395C124.14 132.932 127.827 126.961 130.769 120.305C132.608 116.152 134.135 111.728 135.167 106.474C135.464 105.112 136.81 104.246 138.169 104.543C139.531 104.841 140.398 106.187 140.1 107.546C138.767 113.13 136.936 117.802 134.797 122.18C131.583 128.76 127.688 134.645 123.832 142.025C123.032 143.572 122.159 145.077 121.253 146.568C119.127 150.063 116.75 153.422 114.522 156.867C113.06 159.119 111.691 161.42 110.435 163.774C108.421 167.649 99.6197 180.67 91.1024 186.298C85.7196 189.852 80.3963 190.394 76.4452 186.552C74.8118 184.902 73.7306 182.098 73.314 178.947C72.8081 175.099 73.1685 170.761 73.7835 168.172C75.6946 160.293 79.3978 153.187 84.0135 146.588C88.0176 140.858 92.7457 135.548 97.4309 130.343C100.579 126.852 103.68 123.383 106.639 119.981C110.22 115.782 114.76 111.97 118.608 107.853C120.215 106.134 121.69 104.358 122.907 102.474C123.095 102.183 123.303 101.353 123.601 100.625C123.961 99.736 124.431 98.9557 124.854 98.5292C125.459 97.9175 126.154 97.7025 126.792 97.6926C128.018 97.6926 129.017 98.6912 129.017 99.9211C129.017 100.735 128.577 101.449 127.923 101.836Z" fill="#7400BD"/><path fill-rule="evenodd" clip-rule="evenodd" d="M91.6231 128.501C93.0647 130.197 95.4122 132.306 98.0706 134.869C98.9368 135.705 99.8593 136.575 100.709 137.557C102.564 139.696 104.058 142.288 106.032 144.56C106.849 145.502 107.758 146.362 108.648 147.212C111.399 149.843 114.318 152.065 116.372 154.463C118.683 157.167 120.038 159.69 120.27 161.254C120.511 162.457 121.685 163.241 122.892 163C124.095 162.758 124.879 161.585 124.638 160.381C124.151 158.447 121.923 155.696 119.122 152.188C117.413 150.049 115.73 147.456 113.664 144.937C112.655 143.704 111.667 142.404 110.499 141.263C108.291 139.108 105.682 137.471 103.52 135.504C102.957 134.994 102.425 134.469 101.936 133.923C99.0823 130.746 96.9993 127.677 95.7296 125.568C94.9196 124.434 93.3424 124.169 92.2083 124.979C91.0742 125.789 90.813 127.37 91.6231 128.501Z" fill="#7400BD"/><path fill-rule="evenodd" clip-rule="evenodd" d="M68.8188 117.996C68.9478 117.163 69.0139 116.059 69.0668 114.759C69.2917 109.247 69.3247 100.565 71.8839 93.5288C73.3982 89.3627 75.8185 85.7918 79.4324 83.4939C81.3005 82.3333 85.1491 81.5695 89.9004 81.5398C94.245 81.5166 99.3931 82.0622 104.277 82.9681C104.452 82.9979 104.624 83.0475 104.786 83.1103C106.35 83.3914 109.392 83.8873 111.676 84.8098C113.399 85.5008 114.745 86.4729 115.403 87.5508C116.011 88.5097 115.909 89.7496 115.155 90.596C113.544 92.3319 111.865 93.9884 110.139 95.5953C106.208 99.2521 102.061 102.668 98.1366 106.338C94.7608 109.499 91.623 112.904 88.3398 116.164C86.8982 117.593 85.4368 119.001 83.9059 120.34C77.0551 126.55 70.2902 131.86 64.4511 138.198C60.9529 141.994 57.8052 146.173 55.1502 151.126C55.1568 151.632 55.0113 152.141 54.6972 152.588L52.515 156.066C52.5249 156.043 52.5547 155.977 52.5547 155.977C52.5547 155.977 52.2703 156.549 52.1546 156.694C51.6322 157.362 51.0106 157.587 50.5907 157.65C49.8765 157.756 49.1954 157.63 48.5969 157.098C48.3456 156.876 47.9886 156.529 47.8232 155.868C46.5106 150.693 45.2244 139.805 46.4511 130.712C47.4232 123.508 50.0683 117.477 55.0477 115.566C56.8761 114.852 59.3923 115.047 61.9217 115.685C64.5404 116.346 67.1855 117.434 68.8188 117.996ZM102.828 88.1889C98.4144 87.445 93.8086 87.0846 89.9037 87.0681C86.4089 87.0515 83.529 87.1772 82.1271 87.9872C78.3909 90.0967 76.3343 94.1206 75.0547 98.4884C72.9022 105.838 72.8923 114.177 72.2939 118.066C72.0492 119.646 71.6028 120.688 71.1366 121.144C70.8523 121.422 69.8868 121.888 68.4353 121.428C66.7127 120.886 63.0723 119.246 59.7824 118.694C58.4996 118.479 57.2795 118.419 56.3471 118.806C52.4621 120.423 50.9577 125.475 50.3791 131.179C49.774 137.13 50.3724 143.869 51.2685 149.017C54.2508 143.812 57.749 139.461 61.5679 135.487C67.6153 129.192 74.4893 123.858 81.5187 117.669C82.9603 116.353 84.3424 114.977 85.6848 113.566C88.8986 110.186 91.9173 106.625 95.2038 103.319C98.9864 99.5034 103 95.9292 106.789 92.1302C107.659 91.2639 108.512 90.3811 109.349 89.4817C108.958 89.3627 108.552 89.2569 108.142 89.1577C106.184 88.6882 104.154 88.4601 103.281 88.3146C103.126 88.2848 102.974 88.2418 102.828 88.1889Z" fill="#7400BD"/><path fill-rule="evenodd" clip-rule="evenodd" d="M23.0227 113.089C28.389 108.08 33.9008 103.441 39.6969 99.2588C42.223 97.437 44.792 95.678 47.4339 94.0578C54.0996 89.9612 61.1752 86.6978 67.9798 82.8756C70.0232 81.7283 72.007 80.4785 74.0074 79.2518C78.676 76.3819 83.2884 73.4226 87.9074 70.4171C90.1062 69.0185 95.0592 68.4234 98.2201 67.4149C99.6485 66.9586 100.789 66.4064 101.464 65.7452C102.713 64.5449 102.965 62.786 102.383 60.6864C101.639 58.0115 99.3211 54.5729 97.7308 51.7393C97.1125 50.6349 96.5603 49.7059 96.5768 49.038C96.5768 47.8113 95.5816 46.8127 94.3516 46.8127C93.1216 46.8127 92.1264 47.8113 92.1264 49.038C92.1562 50.1423 92.7579 51.7128 93.816 53.4355C95.1286 55.5813 97.086 58.1504 98.2366 60.4417C98.5772 61.1262 98.8582 61.7676 98.964 62.3594C99.0236 62.6868 99.1194 62.9876 98.9178 63.1993C98.5673 63.5563 97.9291 63.801 97.1687 64.0292C93.6969 65.0773 88.2579 65.4674 85.7781 66.8693C80.2895 69.9046 74.748 72.7613 69.2792 75.7602C67.8112 76.5637 66.3497 77.3704 64.9148 78.2268C62.7557 79.513 60.6528 80.8819 58.55 82.2573C54.8567 84.6677 51.2792 87.2169 47.6422 89.7231C46.0882 90.7944 44.5374 91.8723 42.9603 92.9138C39.029 95.506 35.0448 98.042 31.1432 100.77C27.2814 103.468 23.4526 106.262 19.7064 109.277C18.655 110.193 18.5459 111.787 19.4584 112.838C20.3743 113.89 21.968 114.002 23.0227 113.089Z" fill="#7400BD"/><path fill-rule="evenodd" clip-rule="evenodd" d="M92.2113 34.8544C91.4853 32.1238 90.9745 29.4523 90.6134 26.7632C90.2018 23.6987 89.9905 20.6142 89.9144 17.3862C89.9018 16.8928 89.7627 16.4171 89.7243 15.9165C89.6939 15.5408 89.7042 15.1612 89.7534 14.7673C89.9364 13.551 91.0719 12.7155 92.2882 12.8985C93.5012 13.081 94.3406 14.2137 94.1576 15.43L94.2731 17.3733C94.2194 20.4413 94.2817 23.383 94.5644 26.3044C94.8435 29.2052 95.3261 32.0864 96.0722 35.0608C96.2542 35.7402 96.0319 36.4624 95.5015 36.9209L94.6944 37.5518C92.8175 38.9144 90.507 39.7371 88.006 40.3371C83.1258 41.5054 77.4107 41.6887 73.1374 43.1121C66.9433 45.2128 60.9719 47.8552 54.9773 50.4741C50.9367 52.2401 46.9125 54.0521 42.8135 55.6722C38.3671 57.424 33.8324 58.9184 29.2509 60.2787C27.2531 60.8675 19.8763 62.7836 14.3432 63.3353C10.6469 63.702 7.6871 63.1731 6.69156 61.8297C4.37297 58.8327 3.37869 55.0452 3.13252 50.9256C2.63647 42.5956 5.41988 32.7897 6.27989 26.1249C6.495 24.7462 7.78733 23.8038 9.16415 24.0177C10.5405 24.2348 11.4839 25.5269 11.269 26.9023C10.2445 32.4623 7.61371 40.1982 6.99491 47.451C6.60095 52.0694 7.00019 56.4829 9.39319 59.812C9.57651 60.0603 10.0035 60.0443 10.5077 60.0934C11.938 60.2317 13.8772 59.9885 15.9326 59.5722C20.774 58.5953 26.1958 56.6058 27.8159 55.9936C32.1913 54.3582 36.4282 52.4211 40.7293 50.5906C45.0661 48.7455 49.4365 46.9655 53.8225 45.2381C59.7541 42.904 65.7552 40.7977 71.8946 39.0833C76.3243 37.8205 82.2002 38.0124 87.2073 36.89C89.0691 36.4714 90.7895 35.8375 92.2113 34.8544Z" fill="#7400BD"/><path fill-rule="evenodd" clip-rule="evenodd" d="M45.9721 29.463C46.9393 30.4631 47.9101 31.3041 48.6165 32.3867C48.9175 32.8624 49.1522 33.366 49.3013 33.8881C49.5923 34.8431 49.4188 35.7219 49.5279 36.6475C49.5956 37.023 49.623 37.3904 49.7361 37.7391C50.3207 39.4942 51.4749 40.9024 51.5912 42.6059C51.6645 43.7696 51.2705 44.8756 50.9583 45.9877C50.7755 47.2031 51.6186 48.3399 52.8331 48.5226C54.0475 48.7053 55.1878 47.867 55.3707 46.6515C55.421 45.2167 55.1543 43.8244 55.1448 42.3742C55.134 40.6572 55.4457 38.9992 55.2421 37.1881C55.2024 36.7643 55.1431 36.3334 54.9779 35.918C54.8526 35.5128 54.6389 35.1447 54.3847 34.7705C53.8307 33.9124 53.1838 33.2587 52.5489 32.3884C52.3418 32.1137 52.1567 31.8318 51.9975 31.5139C51.3139 30.0043 50.9175 28.3741 50.1779 26.686C49.4213 25.5245 47.8555 25.2007 46.6851 25.9632C45.5347 26.7307 45.1954 28.2964 45.9721 29.463Z" fill="#7400BD"/></svg>