<svg width="210" height="53" viewBox="0 0 210 53" fill="none" xmlns="http://www.w3.org/2000/svg"><path fill-rule="evenodd" clip-rule="evenodd" d="M9.41572 10.7498C7.521 16.4572 6.64307 21.4212 6.36341 25.696C6.10014 29.7203 6.45448 33.0941 7.23675 35.8969C8.32856 39.8093 10.2233 42.5522 12.5276 44.1029C14.4156 45.3685 16.4705 45.9144 18.3094 45.5559C20.3422 45.1566 22.0728 43.7905 22.8032 41.4364C23.0369 40.5359 23.9575 39.9922 24.8584 40.2274C25.7592 40.4626 26.3014 41.3812 26.0678 42.2817C24.0187 51.7714 11.4884 53.1692 4.7242 43.192C2.44214 39.8288 0.842095 35.0443 0.930618 28.8433C1.01056 23.2439 2.5655 16.446 6.00246 8.38746C6.2497 7.74933 6.80712 7.27968 7.47895 7.14654C10.1887 6.74144 12.7802 5.82238 15.4217 5.23157C16.6679 4.9529 17.9174 4.73594 19.1935 4.66578C19.9867 4.58381 20.6972 5.16453 20.7785 5.95586C20.8596 6.75105 20.2816 7.45966 19.488 7.54163C18.3901 7.70972 17.3296 8.00923 16.2734 8.35123C13.9835 9.09158 11.748 10.0638 9.41572 10.7498Z" fill="#0959C1"/><path fill-rule="evenodd" clip-rule="evenodd" d="M17.2308 21.6362C15.5512 20.8081 14.1677 20.2719 12.7763 19.9322C11.6067 19.6446 10.5018 19.5465 9.39682 19.6374C8.31617 19.7246 7.24818 20.001 6.17828 20.4586C4.88464 21.0107 3.67452 21.8142 2.16951 22.7772C1.30235 23.1131 0.873242 24.0929 1.21145 24.9597C1.54966 25.8265 2.52836 26.2552 3.39514 25.9193C4.50164 25.7397 5.4453 25.659 6.37603 25.5127C7.34729 25.3628 8.2184 25.2892 9.07871 25.1692C9.52392 25.1075 9.95626 25.0186 10.3962 24.9452C11.0574 24.8389 11.7001 24.6824 12.4226 24.6152C13.6443 24.4983 14.9024 24.3586 16.5058 24.4339C17.2778 24.6333 18.0674 24.1695 18.2672 23.396C18.4673 22.6263 18.0027 21.8356 17.2308 21.6362Z" fill="#0959C1"/><path fill-rule="evenodd" clip-rule="evenodd" d="M37.5294 45.6391C40.9113 45.8876 47.4666 46.2172 48.5825 46.2922C49.5131 46.3001 50.2621 47.0624 50.2543 47.9918C50.2463 48.9251 49.4844 49.6746 48.5538 49.6667C47.3423 49.7258 39.7908 50.2595 36.6892 50.3411C35.9902 50.3583 35.4782 50.3347 35.2328 50.3095C34.3029 50.2206 33.8682 49.7271 33.7086 49.5792C33.184 49.0849 32.6219 47.7842 32.4966 45.9628C32.3058 43.1842 32.8219 38.545 32.8065 37.5884C32.8838 34.8815 32.9666 32.1748 33.1142 29.4647C33.3322 25.4555 33.6191 21.4622 33.6616 17.4592C33.6919 14.617 33.6523 11.7896 33.3975 8.95655C33.2781 8.16489 33.8216 7.42903 34.6102 7.30845C35.3991 7.19173 36.1362 7.73408 36.2556 8.52188C37.0778 12.3857 37.572 16.2814 37.8571 20.2178C38.1098 23.7142 38.2204 27.2171 38.2581 30.7271C38.2829 33.0299 38.2425 35.3359 38.265 37.6347C38.2532 38.1591 38.0816 39.7467 37.8846 41.55C37.7329 42.9372 37.5436 44.4706 37.5294 45.6391ZM36.6706 45.5816C36.3546 45.2743 35.9987 45.0476 35.9162 45.4904C35.8908 45.6252 36.2792 45.5706 36.6706 45.5816Z" fill="#0959C1"/><path fill-rule="evenodd" clip-rule="evenodd" d="M66.0625 6.01411C63.9758 6.2548 59.709 6.34585 56.4597 7.39045C54.5952 7.98785 53.0831 8.97005 52.1472 10.2271C51.4649 11.1393 51.059 12.6052 50.8788 14.3007C50.6063 16.8747 50.8916 20.1015 50.8127 21.8595C50.7654 23.0663 50.798 24.2236 50.8805 25.3659C51.0617 27.8705 51.4968 30.2693 51.6868 32.8743C51.8535 34.6421 51.7097 36.5886 51.6814 38.4704C51.6445 40.9462 51.7728 43.3308 52.4809 45.2382C53.6162 48.2909 55.9041 50.609 61.1617 50.4685C63.8569 50.3718 65.7576 49.5047 67.2074 48.0862C69.0287 46.3082 70.1065 43.6523 71.3392 40.9167C71.7624 40.0873 71.4331 39.074 70.604 38.6504C69.7753 38.2268 68.759 38.5537 68.3358 39.3832C67.1046 41.5326 66.1077 43.6955 64.4755 45.0161C63.653 45.6802 62.6075 45.9837 61.2004 45.91C58.8637 45.8053 57.7553 44.9822 57.3324 43.594C56.8982 42.1749 57.0087 40.4325 57.0842 38.6205C57.1719 36.5231 57.2782 34.3526 57.1037 32.3764C56.8166 29.7668 56.3236 27.3714 56.0181 24.8696C55.9006 23.9044 55.7975 22.9239 55.7745 21.9016C55.7336 20.4048 55.3604 17.8485 55.2982 15.5377C55.2656 14.3341 55.1696 13.2032 55.5724 12.551C56.175 11.5726 57.4701 10.9897 58.8903 10.5197C61.6421 9.60582 64.8608 9.22434 66.5338 8.86444C67.3206 8.73613 67.8541 7.99241 67.7243 7.20452C67.594 6.41662 66.8496 5.88195 66.0625 6.01411Z" fill="#0959C1"/><path fill-rule="evenodd" clip-rule="evenodd" d="M67.351 21.2918C65.5657 21.2034 63.9653 21.2245 62.3297 21.4035C61.2156 21.5252 60.1393 21.6934 59.0826 22.0007C58.0584 22.3006 57.0722 22.7165 56.102 23.1903C54.6954 23.8765 53.4354 24.7336 51.9674 25.5233C51.0821 25.8089 50.5962 26.7612 50.883 27.6469C51.1697 28.5325 52.1213 29.0189 53.0066 28.7294C54.3582 28.5673 55.594 28.4236 56.861 28.1875C57.6985 28.0287 58.5083 27.8621 59.3132 27.6336C59.902 27.4651 60.4777 27.2579 61.0477 27.039C61.6142 26.8201 62.157 26.5663 62.7149 26.3165C64.3468 25.5783 65.8937 24.7738 67.7556 24.1532C68.5457 24.0404 69.0961 23.3084 68.9844 22.5206C68.8727 21.729 68.1411 21.179 67.351 21.2918Z" fill="#0959C1"/><path fill-rule="evenodd" clip-rule="evenodd" d="M83.2126 3.97124C82.489 4.65718 80.7984 6.22339 79.5017 7.54257C78.7762 8.27758 78.1857 8.96463 77.8757 9.40376C76.7594 11.0042 75.5041 15.1363 74.5963 20.1647C73.9949 23.4973 73.5151 27.2237 73.3043 30.7854C73.153 33.3463 73.1466 35.825 73.2859 38.0006C73.5174 41.6201 74.2101 44.4828 75.0996 45.9187C77.2469 49.255 82.3201 51.3989 85.8398 50.1281C88.1478 49.2985 90.114 47.2978 89.9192 43.2663C89.9271 42.3338 89.178 41.5715 88.2474 41.5636C87.3168 41.5557 86.5549 42.3051 86.547 43.2377C86.401 45.4894 85.1861 46.3528 83.7394 46.262C82.0348 46.1542 80.1852 44.9605 79.3955 43.4371C78.831 42.3819 78.7685 40.3002 78.6745 37.7421C78.5648 34.7568 78.6306 31.1889 78.8156 27.6171C79.002 24.0208 79.2569 20.4349 79.6679 17.4492C80.0526 14.6546 80.4342 12.4196 81.0189 11.3742C81.2762 10.9101 81.8723 10.1151 82.5458 9.28146C83.5838 7.98953 84.7688 6.60556 85.3162 5.95739C85.863 5.37302 85.8361 4.45986 85.2557 3.91009C84.6748 3.36523 83.7594 3.39178 83.2126 3.97124Z" fill="#0959C1"/><path fill-rule="evenodd" clip-rule="evenodd" d="M90.1972 9.36186C90.2005 9.29312 90.1881 9.16603 90.2151 9.12395C89.8887 9.99392 88.9165 10.4353 88.045 10.1105C87.1734 9.78575 86.7304 8.81405 87.0567 7.93879C87.182 7.17818 88.143 6.1496 89.7396 5.02595C90.7271 4.33085 91.9933 3.60107 93.4336 2.99445C94.0474 2.73519 94.7017 2.53447 95.3581 2.36021C96.0198 2.18599 96.6801 2.0594 97.3335 1.95916C100.507 1.46247 103.157 1.36325 103.427 1.35497C104.209 1.19764 104.972 1.70137 105.13 2.48554C105.288 3.26442 104.782 4.03236 104 4.18969C103.788 4.27252 102.021 5.22016 99.6553 6.31084C98.728 6.73669 97.7517 7.21501 96.7179 7.59235C95.8424 7.91815 94.9439 8.16444 94.0962 8.39527C93.1436 8.65693 92.2635 8.79755 91.5203 9.02397C91.0826 9.15249 90.7011 9.20743 90.4057 9.34245C90.3511 9.36843 90.2513 9.35703 90.1972 9.36186C90.1958 9.39887 90.1886 9.41993 90.1658 9.388C90.1505 9.36671 90.1664 9.35631 90.1972 9.36186Z" fill="#0959C1"/><path fill-rule="evenodd" clip-rule="evenodd" d="M98.1604 48.3194C97.8694 44.1172 97.7193 39.9902 97.5277 35.8576C97.3992 33.0902 97.3172 30.3443 97.1451 27.5871C96.9732 24.8458 96.7412 22.1039 96.5031 19.3514C96.148 15.2492 95.6821 11.1566 95.4293 6.96001C95.4372 6.02915 94.6877 5.27168 93.7571 5.26377C92.8265 5.25587 92.0647 6.00052 92.0568 6.93137C91.7271 11.1971 91.4177 15.3783 91.4118 19.5674C91.4076 22.3866 91.5056 25.196 91.7476 27.9909C91.9899 30.791 92.4026 33.5661 92.8549 36.3469C93.5268 40.4782 94.3969 44.5637 95.2987 48.7288C95.4112 49.5179 96.1435 50.0636 96.9332 49.9539C97.7229 49.839 98.2729 49.1085 98.1604 48.3194Z" fill="#0959C1"/><path fill-rule="evenodd" clip-rule="evenodd" d="M114.819 47.8599C115.128 48.4951 115.016 49.2809 114.486 49.8009C113.868 50.4514 113.204 50.3801 112.669 50.2098C112.347 50.1067 111.688 49.6962 111.467 48.6684C111.301 47.8918 111.296 45.6972 111.283 45.242L110.605 36.8863C110.515 32.2188 110.646 27.4568 110.472 22.7384C110.359 19.706 110.121 16.688 109.552 13.7365C109.404 12.9485 109.71 11.2425 110.739 9.43474C111.998 7.22391 114.245 4.74763 116.324 3.87436C117.699 3.29208 119.06 3.26119 120.293 3.78462C121.252 4.19001 122.209 4.94637 122.949 6.33339C123.93 8.18913 124.635 11.3924 124.809 14.6413C124.981 17.8323 124.683 21.0464 123.974 22.9881C123.578 24.0685 122.78 25.076 121.654 25.9034C120.834 26.5058 119.828 27.0256 118.867 27.4918L118.881 27.5035C120.411 28.9281 122.401 30.0866 123.584 31.7358C124.897 33.5712 125.811 35.7851 126.367 38.154C127.142 41.4427 127.286 44.9961 127.159 47.9995C127.153 48.7978 126.5 49.4402 125.702 49.4334C124.904 49.4266 124.262 48.7732 124.269 47.9749C124.21 45.6719 123.957 43.0279 123.349 40.4926C122.782 38.1236 121.884 35.8559 120.466 34.1198C119.341 32.7334 117.477 31.8961 116.059 30.7309C115.732 30.462 115.424 30.1739 115.141 29.8745C115.005 32.2338 114.855 34.589 114.77 36.9216L114.904 45.2728C114.891 45.5773 114.838 47.2584 114.819 47.8599ZM112.466 47.1342L112.448 47.1456L112.517 47.1076L112.466 47.1342ZM113.274 46.9135C113.04 46.9077 112.792 46.9557 112.536 47.0962C112.767 46.9786 113.021 46.9152 113.274 46.9135ZM118.166 8.88454C117.871 9.10573 117.474 9.56903 117.205 9.83671C116.906 10.1312 116.62 10.4527 116.354 10.786C115.729 11.5675 115.202 12.3999 114.922 13.0609L114.853 13.2377C115.303 16.3463 115.458 19.5025 115.426 22.6725C115.422 23.1353 115.413 23.598 115.401 24.0569C116.296 23.5785 117.337 23.0474 118.23 22.434C118.701 22.1102 119.168 21.8172 119.304 21.3902C119.785 19.8902 119.801 17.4335 119.592 15.0058C119.387 12.6283 118.944 10.268 118.191 8.9233L118.166 8.88454ZM118.246 8.82736C118.396 8.90962 118.569 8.98441 118.546 8.87622C118.512 8.72167 118.398 8.72837 118.246 8.82736Z" fill="#0959C1"/><path fill-rule="evenodd" clip-rule="evenodd" d="M132.694 47.8209C132.899 48.0982 133.017 48.4436 133.014 48.8181C133.006 49.748 132.244 50.4992 131.313 50.4913C130.895 50.5179 130.493 50.3294 130.076 49.9986C129.805 49.7811 129.446 49.1667 129.19 48.2001C128.538 45.732 128.079 39.2144 128.03 38.3917C127.953 35.6401 127.715 32.9086 127.617 30.1654C127.518 27.392 127.498 24.6193 127.536 21.8428C127.613 16.2209 128.007 10.6405 128.804 5.0161C128.864 4.22015 129.559 3.62333 130.355 3.68175C131.15 3.74446 131.747 4.43834 131.687 5.23428C131.65 9.88785 132.044 14.4503 132.388 19.0469C132.62 22.1443 132.907 25.2292 133.014 28.3342C133.13 31.6975 132.999 35.0587 132.864 38.4328C132.806 39.19 132.41 45.2053 132.67 47.5495L132.694 47.8209ZM132.172 47.3472L132.173 47.3472L132.172 47.3472ZM131.842 47.198C131.894 47.2157 131.945 47.2377 131.997 47.2553L132.136 47.3254C132.011 47.2468 131.877 47.1984 131.741 47.1714L131.842 47.198Z" fill="#0959C1"/><path fill-rule="evenodd" clip-rule="evenodd" d="M152.222 2.55817C151.024 3.25203 149.534 3.875 148.227 4.7586C147.206 5.4442 146.324 6.30207 145.651 7.36219C143.441 10.9418 141.722 18.6862 141.174 26.6019C140.944 29.9343 140.923 33.293 141.142 36.3457C141.435 40.4403 142.181 43.9962 143.144 46.3463C144.934 50.5074 148.301 51.8072 151.636 51.0435C155.613 50.1336 159.6 46.0851 159.389 41.023C159.397 40.0893 158.647 39.33 157.718 39.3221C156.785 39.3141 156.022 40.0606 156.014 40.9944C155.865 43.5403 154.036 45.4951 152.043 46.3338C150.409 47.0191 148.565 46.6465 147.85 44.5332C147.119 42.5078 146.798 39.4494 146.577 35.9763C146.393 33.1048 146.312 29.9603 146.362 26.822C146.465 19.6554 147.108 12.5375 148.837 9.1542C149.175 8.47259 149.665 7.91449 150.24 7.43535C151.386 6.47704 152.734 5.75514 153.794 4.98188C154.465 4.54756 154.654 3.65447 154.22 2.98586C153.786 2.31726 152.893 2.12385 152.222 2.55817Z" fill="#0959C1"/><path fill-rule="evenodd" clip-rule="evenodd" d="M159.54 7.8467C159.385 11.9876 159.23 16.1247 159.206 20.3052C159.195 23.0589 159.179 25.8125 159.283 28.5672C159.387 31.3141 159.579 34.0502 159.799 36.7788C160.131 40.9123 160.609 44.9814 160.856 49.0679C160.848 49.9973 161.597 50.7596 162.527 50.7675C163.46 50.7754 164.222 50.026 164.23 49.0966C164.501 45.7781 164.742 42.4594 164.84 39.0971C164.905 36.88 164.935 34.6665 164.881 32.4406C164.845 30.7858 164.751 29.1265 164.63 27.4709C164.509 25.8192 164.349 24.171 164.171 22.5226C163.63 17.5659 162.947 12.6619 162.429 7.74784C162.401 6.94924 161.732 6.32648 160.933 6.35441C160.138 6.38238 159.512 7.05196 159.54 7.8467Z" fill="#0959C1"/><path fill-rule="evenodd" clip-rule="evenodd" d="M171.12 13.1372C170.619 13.5881 169.869 13.709 169.228 13.3834C168.402 12.9599 168.072 11.9427 168.495 11.1171C168.567 10.8439 169.232 10.2093 170.518 9.49513C171.623 8.8797 173.378 7.98823 175.435 7.2999C176.046 7.09682 176.692 6.95193 177.337 6.83013C177.993 6.70458 178.646 6.62137 179.287 6.56124C182.352 6.26715 184.905 6.24641 185.387 6.28136C186.182 6.1994 186.891 6.77625 186.976 7.56762C187.058 8.36283 186.482 9.07531 185.69 9.15729C185.257 9.28475 183.123 10.3349 180.457 11.3961C179.868 11.6302 179.269 11.8565 178.642 12.0517C178.031 12.2394 177.413 12.4116 176.795 12.5375C175.794 12.7372 174.833 12.8371 173.96 12.9492C172.775 13.1011 171.83 13.1432 171.242 13.254C171.153 13.2725 171.026 13.2598 171.026 13.2598L171.12 13.1372Z" fill="#0959C1"/><path fill-rule="evenodd" clip-rule="evenodd" d="M181.695 50.3959C182.217 46.5821 182.589 42.7941 182.757 38.958C182.867 36.4211 182.935 33.8917 182.864 31.3533C182.792 28.8419 182.609 26.3334 182.387 23.8285C182.061 20.0885 181.56 16.3894 181.306 12.6307C181.314 11.7013 180.565 10.939 179.635 10.9311C178.706 10.9232 177.944 11.6727 177.936 12.6021C177.663 15.6621 177.437 18.6877 177.345 21.7493C177.282 23.7735 177.253 25.7904 177.297 27.8117C177.327 29.32 177.403 30.8248 177.502 32.3259C177.597 33.827 177.731 35.3169 177.865 36.8145C178.271 41.2957 178.719 45.7309 178.812 50.2326C178.766 51.0306 179.378 51.7107 180.172 51.756C180.97 51.8014 181.654 51.1901 181.695 50.3959Z" fill="#0959C1"/><path fill-rule="evenodd" clip-rule="evenodd" d="M200.42 21.4717C201.192 19.6247 201.899 17.615 202.295 16.8723C202.702 16.1251 203.036 15.4652 203.331 14.7726C203.618 14.0846 203.89 13.3872 204.16 12.5369L206.728 4.40294C206.912 3.626 207.691 3.14607 208.469 3.32876C209.243 3.51142 209.726 4.28938 209.542 5.06631L208.155 13.5254C207.973 14.5479 207.776 15.4081 207.538 16.2449C207.291 17.1186 206.979 17.9547 206.597 18.906C206.223 19.7972 205.637 22.4752 204.868 24.5076C204.339 25.9072 203.643 27.0366 203.044 27.6386C201.698 28.9895 200.244 29.0003 198.897 28.2058C197.555 27.3603 196.326 25.7743 195.485 23.58C194.579 21.2183 193.977 18.127 193.389 15.1655C192.812 12.2644 192.38 9.48967 191.305 7.96525C190.718 7.24664 190.823 6.18173 191.542 5.59006C192.264 5.00305 193.327 5.10938 193.915 5.82799C194.825 6.78567 195.607 8.23346 196.329 9.95878C197.509 12.7816 198.492 16.3951 199.593 19.4258C199.86 20.1556 200.132 20.8483 200.42 21.4717ZM199.8 23.1532C199.268 23.1765 198.942 23.3498 199.29 23.7281C199.462 23.915 199.63 23.6105 199.8 23.1532Z" fill="#0959C1"/><path fill-rule="evenodd" clip-rule="evenodd" d="M198.702 49.4814C199.215 47.1317 199.748 44.8424 200.146 42.4686C200.41 40.8999 200.662 39.3405 200.776 37.752C200.886 36.1728 200.884 34.588 200.816 33.0026C200.709 30.6013 200.374 28.2676 200.102 25.8742C200.109 24.9475 199.36 24.1858 198.43 24.1779C197.501 24.17 196.739 24.9189 196.731 25.8456C196.422 28.2016 195.982 30.4778 195.723 32.8342C195.548 34.3805 195.415 35.9317 195.371 37.4837C195.323 39.0496 195.402 40.6026 195.458 42.1647C195.546 44.538 195.727 46.8518 195.823 49.2299C195.754 50.0217 196.342 50.7264 197.136 50.7934C197.93 50.865 198.633 50.2778 198.702 49.4814Z" fill="#0959C1"/></svg>