<svg width="239" height="88" viewBox="0 0 239 88" fill="none" xmlns="http://www.w3.org/2000/svg"><path fill-rule="evenodd" clip-rule="evenodd" d="M10.7328 60.5582C11.2745 59.7907 11.5344 58.9418 11.6879 58.0646C12.0105 56.2259 11.853 54.2649 11.9327 52.3767L12.483 31.4829L12.614 24.3614C12.6208 24.0001 12.4883 22.8888 12.552 22.1896C12.6308 21.3202 12.96 20.6677 13.263 20.2844C14.2319 19.0586 15.3036 19.1558 15.8504 19.2316C16.6651 19.3447 17.523 19.7615 18.0014 20.9122C18.1003 21.1446 18.2112 21.5208 18.2251 22.0172C18.2337 22.3274 18.1311 22.9757 18.1396 23.2764L18.2182 25.6735L18.5508 32.9873C18.8045 37.5803 19.0773 42.3416 19.7788 46.9922C20.2334 50.0122 20.8582 52.9944 21.8165 55.8435C22.1594 56.8683 22.6203 58.2222 23.3646 59.2531C23.5822 59.5528 23.8081 59.8627 24.0976 60.0401C24.2741 59.5887 24.4961 58.9793 24.6427 58.4206C26.8954 49.8632 28.6041 28.16 29.1818 22.6388C29.2617 21.7124 30.0794 21.0259 31.0063 21.1059C31.9336 21.1859 32.6216 22.0023 32.5417 22.9287C32.2102 27.8235 31.4705 45.1917 29.9628 55.3799C29.3947 59.221 28.6036 62.1239 27.837 63.3291C27.1968 64.3405 26.379 64.7509 25.6904 64.8962C23.4544 65.3604 21.6532 64.5621 20.2138 63.138C18.7028 61.6458 17.6821 59.2675 17.0426 57.5029C16.8778 57.0506 16.7208 56.5895 16.5713 56.1243C16.5186 57.0768 16.429 58.0213 16.241 58.9336C15.903 60.5758 15.2919 62.1372 14.1473 63.5336C12.6059 65.4147 10.7047 65.5173 8.79809 64.3814C6.50046 63.0119 4.28673 59.164 4.10711 57.601C3.40297 51.4312 3.04773 45.5153 3.05124 39.5494C3.05413 33.6882 3.39698 27.7801 4.0567 21.5423C4.12521 20.7483 4.82628 20.1564 5.62086 20.225C6.41545 20.2935 7.00477 20.9967 6.93626 21.7907C6.52586 27.931 6.4223 33.7359 6.63074 39.482C6.84182 45.2998 7.37865 51.06 8.27604 57.0512C8.35215 57.553 8.94141 58.4323 9.59689 59.2508C9.89931 59.6244 10.3825 60.2566 10.7328 60.5582ZM10.7733 60.595C10.9731 60.7599 11.1225 60.8013 11.1559 60.5995C11.1786 60.4586 10.9533 60.4915 10.7733 60.595Z" fill="#0959C1"/><path fill-rule="evenodd" clip-rule="evenodd" d="M44.3706 24.4127C41.2167 28.464 39.9527 33.3926 39.3167 38.5516C38.2586 47.1358 38.9935 56.3938 38.0709 64.0612C37.9909 64.9875 37.1732 65.674 36.2463 65.5941C35.319 65.5141 34.631 64.6976 34.711 63.7713C34.9326 59.2241 34.4581 54.1645 34.2133 49.0009C33.9667 43.8039 33.9123 38.5091 34.8141 33.554C35.6639 28.8849 37.3997 24.5302 40.3664 20.7484C42.0729 18.653 44.5014 18.5006 47.0263 20.1946C49.8541 22.0908 52.8116 26.6933 53.1261 27.6775C54.5359 32.2368 55.1826 36.3875 55.2769 40.5192C55.4131 46.4923 54.446 52.3799 53.3205 59.3775C53.2228 60.169 52.5012 60.7304 51.7095 60.6335C50.9178 60.5367 50.3539 59.8166 50.452 59.0204C51.0405 52.2146 51.5398 46.4915 51.0272 40.7572C50.6955 37.0384 49.9179 33.3287 48.4027 29.2936C48.2814 28.9688 47.5649 28.0642 46.72 27.0724C46.0923 26.3373 45.0651 24.9202 44.3706 24.4127ZM44.3129 24.3696C44.0171 24.1679 43.7884 24.1529 43.6901 24.4539C43.6034 24.7226 43.9975 24.59 44.3129 24.3696Z" fill="#0959C1"/><path fill-rule="evenodd" clip-rule="evenodd" d="M37.4537 46.9945C37.1131 47.3413 36.6274 47.5374 36.107 47.4925C35.1797 47.4125 34.4917 46.5961 34.5716 45.6697C34.559 45.183 35.0425 44.3057 36.3275 43.6262C38.2957 42.5866 43.6501 41.1963 44.7789 40.8699C45.9563 40.5953 47.119 40.11 48.3264 39.6285C49.5234 39.1461 50.7424 38.6228 51.9693 38.0668C55.9071 36.2734 59.8563 34.1667 63.2417 32.3971C63.9126 31.9645 64.8076 32.1608 65.2391 32.8313C65.6707 33.5018 65.476 34.3992 64.8055 34.8271C62.9354 36.318 60.9443 38.0317 58.7758 39.6683C57.3668 40.7323 55.9117 41.7495 54.4039 42.6527C53.0761 43.4476 51.7169 44.1588 50.3394 44.6971C48.8088 45.2983 47.2557 45.6737 45.7462 45.9054C44.6761 46.013 39.6306 46.3824 37.6727 46.9515C37.6023 46.974 37.5005 46.989 37.4537 46.9945ZM37.8683 46.2922C37.8497 46.3478 37.8314 46.3985 37.8132 46.4493L37.7504 46.5868C37.8295 46.4698 37.8643 46.3442 37.8857 46.2223L37.8683 46.2922Z" fill="#0959C1"/><path fill-rule="evenodd" clip-rule="evenodd" d="M74.2878 18.8662C72.0263 18.452 69.7617 17.9661 67.3732 17.6839C66.5861 17.5874 65.8015 17.5293 65.0087 17.5132C64.2104 17.5015 63.4102 17.5277 62.6205 17.6167C61.5376 17.7375 60.4832 17.9417 59.4443 18.2187C57.8167 18.6497 56.309 19.21 54.8228 19.896C53.9271 20.1473 53.4049 21.0831 53.6579 21.9762C53.91 22.8741 54.8423 23.3974 55.7381 23.1414C57.5256 22.9195 59.3071 23.0303 61.1718 23.0103C62.3755 22.9999 63.588 22.995 64.8038 22.9237C66.0479 22.8454 67.2697 22.6651 68.5032 22.5239C70.4638 22.2931 72.3259 21.9919 74.2026 21.7539C75.0005 21.7751 75.6668 21.1469 75.6902 20.349C75.7133 19.5558 75.0852 18.8874 74.2878 18.8662Z" fill="#0959C1"/><path fill-rule="evenodd" clip-rule="evenodd" d="M64.5634 71.6571C65.5701 64.4779 66.2201 57.3203 66.5583 50.1214C66.6795 47.5416 66.7545 44.9673 66.7802 42.3888C66.7972 40.6761 66.7746 38.9647 66.7482 37.2531C66.6989 34.0491 66.6224 30.857 66.5876 27.6542C66.5532 24.4563 66.5131 21.2769 66.5993 18.075C66.6797 17.144 65.9916 16.3275 65.0648 16.2476C64.1375 16.1676 63.3198 16.8541 63.2394 17.7851C62.6209 22.0886 62.1267 26.3837 61.8086 30.7131C61.5978 33.5851 61.4413 36.4571 61.3673 39.3362C61.3124 41.4837 61.3104 43.6357 61.3318 45.785C61.3528 47.9248 61.4117 50.063 61.4748 52.2064C61.6625 58.603 61.8963 64.9751 61.6839 71.4039C61.6145 72.1979 62.2034 72.901 62.9984 72.9696C63.793 73.0382 64.4941 72.4511 64.5634 71.6571Z" fill="#0959C1"/><path fill-rule="evenodd" clip-rule="evenodd" d="M76.0291 37.3792C76.0304 37.3888 76.0363 37.394 76.0475 37.3997C76.5943 37.6755 76.4228 36.018 76.5168 35.0405C76.8095 31.9898 76.7655 27.9434 77.4661 24.8184C77.8366 23.1648 78.3829 21.731 79.2011 20.697C79.8987 19.8191 81.1568 19.0325 82.7444 18.5839C85.611 17.7741 89.488 17.7278 89.9431 17.6766C90.7298 17.5444 91.4757 18.0754 91.6074 18.8629C91.7388 19.6504 91.2074 20.395 90.4203 20.527C90.0517 20.6143 87.195 20.963 84.7565 21.7668C83.762 22.0905 82.8222 22.4379 82.4562 23.011C81.4812 24.5363 81.5919 27.1218 81.6255 29.7198C81.6679 32.9803 81.8105 36.2733 81.3519 38.3336C81.1848 39.081 80.9203 39.7153 80.5984 40.2398L80.0871 47.0666C79.9676 48.0325 78.2143 54.2997 77.7039 57.3554C78.1267 57.4443 78.6041 57.4759 79.097 57.4947C81.2168 57.5823 83.5471 57.3406 84.9787 57.5451C85.906 57.6251 86.594 58.4415 86.5136 59.3726C86.4337 60.2989 85.616 60.9855 84.6887 60.9055C83.0668 60.8608 80.3514 61.5502 78.069 61.558C76.5452 61.5694 75.1997 61.22 74.1854 60.604C73.8399 60.3932 73.522 60.0086 73.2801 59.4259C73.1392 59.0852 73.041 58.3625 73.0962 57.3626C73.252 54.5382 74.6944 47.6156 74.7441 46.6056L75.2798 39.0476C75.3277 38.4185 75.5944 37.8273 76.0291 37.3792C76.0153 37.3351 76.152 37.2564 76.1995 37.2177C76.1399 37.2697 76.0833 37.3219 76.0291 37.3792ZM77.6363 57.7829L77.633 57.8017C77.6063 57.9946 77.4537 58.2671 77.5672 58.2626C77.9168 58.2547 77.8475 58.0392 77.6363 57.7829Z" fill="#0959C1"/><path fill-rule="evenodd" clip-rule="evenodd" d="M91.1778 34.5753C89.648 34.7099 88.1629 34.8674 86.5879 35.1696C85.6049 35.3562 84.6309 35.5483 83.6765 35.8755C82.7492 36.1859 81.86 36.5997 80.9976 37.0347C79.6429 37.7225 78.482 38.5366 77.1969 39.1875C76.3016 39.4388 75.7794 40.3699 76.0319 41.2678C76.2845 42.1609 77.2168 42.6843 78.1126 42.433C79.3496 42.3445 80.5473 42.2335 81.827 42.0107C82.6224 41.8698 83.4061 41.7041 84.1905 41.4575C84.7563 41.2873 85.3108 41.0637 85.8536 40.8201C86.3968 40.5765 86.9124 40.302 87.4305 40.0134C89.0297 39.1181 90.4543 38.1554 92.002 37.3461C92.7668 37.1169 93.2024 36.3117 92.9748 35.5493C92.7475 34.7821 91.9422 34.346 91.1778 34.5753Z" fill="#0959C1"/><path fill-rule="evenodd" clip-rule="evenodd" d="M97.4914 46.6896C96.9174 51.7825 96.2975 56.8714 95.7031 61.9674C95.6228 62.8985 94.8051 63.585 93.8782 63.505C92.9509 63.425 92.2629 62.6086 92.3432 61.6775L94.4528 17.8392C94.4847 17.0801 94.8304 16.3719 95.4073 15.8788C95.9847 15.3858 96.7402 15.1558 97.4944 15.2399C106.217 16.3354 109.155 19.9552 109.358 23.7486C109.465 25.7673 108.773 28.055 107.394 30.3739C105.405 33.7211 102.022 37.2622 98.7099 40.2905C98.8904 40.825 99.4451 42.3823 100.035 43.3521C101.26 45.3577 102.646 47.2295 102.876 47.8827C103.435 49.4784 103.823 56.478 104.797 59.0618C104.813 59.1061 104.825 59.1643 104.837 59.2177C104.94 59.2504 105.005 59.2941 104.969 59.3481C105.407 59.6287 105.678 60.1378 105.63 60.6908C105.562 61.4848 104.861 62.0719 104.067 62.0034C103.436 61.9728 102.612 61.4446 102.049 60.2008C100.911 57.6981 100.065 50.778 99.4054 49.226C99.2356 48.8256 98.4005 47.9108 97.5466 46.7658L97.4914 46.6896ZM104.837 59.2177C104.677 59.1658 104.423 59.1392 104.315 59.125C104.508 59.1417 104.689 59.1954 104.85 59.2807C104.869 59.3585 104.89 59.4175 104.931 59.3877C104.949 59.375 104.962 59.3618 104.969 59.3481L104.865 59.2868L104.85 59.2807L104.837 59.2177ZM99.728 21.1274C99.4753 25.3339 99.1837 29.5322 98.8165 33.724C100.077 32.2757 101.244 30.7813 102.19 29.3154C103.399 27.4389 104.271 25.662 104.139 24.1031C104.075 23.35 103.591 22.7702 102.762 22.2653C101.989 21.794 100.987 21.417 99.728 21.1274Z" fill="#0959C1"/><path fill-rule="evenodd" clip-rule="evenodd" d="M138.755 17.8031C137.851 17.7489 135.625 17.5902 133.851 17.5372C132.843 17.512 131.97 17.5367 131.484 17.6043C128.964 17.9582 126.836 20.8554 125.903 24.3031C125.024 27.5461 125.377 31.1049 126.64 32.966C128.328 35.3877 130.656 37.936 132.701 40.6789C133.863 42.2362 134.916 43.8651 135.632 45.6125C136.653 48.1051 136.959 50.8694 135.578 54.1023C134.596 56.5222 132.801 58.3576 131.077 58.623C129.545 58.8575 128.8 57.4458 128.915 54.3559C128.995 53.4295 128.307 52.6131 127.38 52.5331C126.452 52.4531 125.635 53.1396 125.555 54.066C124.63 60.8713 128.099 63.0705 131.534 62.8527C134.503 62.666 138.108 60.1345 140.109 56.155C142.362 51.4594 142.148 47.3031 140.688 43.587C139.817 41.3691 138.463 39.3143 136.927 37.4057C134.801 34.7606 132.293 32.4205 130.484 30.1217C129.687 29.1293 129.674 27.0997 130.012 25.229C130.224 24.0522 130.562 22.9148 131.125 22.0777C131.422 21.6414 131.705 21.2279 132.143 21.1228C132.61 21.0107 133.559 20.9307 134.595 20.8677C136.186 20.7764 137.949 20.7238 138.722 20.6953C139.52 20.7023 140.175 20.0636 140.184 19.2644C140.193 18.47 139.552 17.8147 138.755 17.8031Z" fill="#0959C1"/><path fill-rule="evenodd" clip-rule="evenodd" d="M148.808 18.8449C148.98 24.0165 148.788 28.9996 148.544 33.9781C148.461 35.6613 148.368 37.3341 148.297 39.0088C148.225 40.6882 148.157 42.3631 148.117 44.0453C148.064 46.2833 148.052 48.525 148.03 50.7896C147.999 54.1486 148.02 57.5168 147.97 60.9741C147.89 61.9004 148.577 62.7169 149.505 62.7969C150.432 62.8769 151.25 62.1903 151.33 61.264C151.997 56.9505 152.715 52.7651 153.145 48.555C153.437 45.6947 153.634 42.8404 153.673 39.9868C153.712 37.1143 153.567 34.2496 153.348 31.3739C153.026 27.1273 152.438 22.896 151.684 18.5503C151.603 17.7576 150.893 17.1774 150.099 17.2613C149.306 17.3404 148.727 18.0475 148.808 18.8449Z" fill="#0959C1"/><path fill-rule="evenodd" clip-rule="evenodd" d="M159.356 18.2997C158.497 23.9394 157.086 29.7268 156.378 35.5319C156.063 38.114 155.959 40.6953 155.944 43.2272C156.018 44.9191 156.09 46.6061 156.206 48.297C156.38 50.7927 156.602 53.2689 156.731 55.7655C156.822 57.5303 156.904 59.2801 156.885 61.0546C156.805 61.9809 157.493 62.7973 158.42 62.8773C159.348 62.9574 160.165 62.2708 160.244 61.3444C160.641 58.8979 160.918 56.4648 161.067 54.0017C161.29 50.3927 161.253 46.7802 161.376 43.1626C161.303 40.7898 161.431 38.382 161.523 35.9473C161.749 30.1291 162.118 24.228 162.236 18.5482C162.305 17.7542 161.716 17.0511 160.921 16.9825C160.126 16.9139 159.425 17.5057 159.356 18.2997Z" fill="#0959C1"/><path fill-rule="evenodd" clip-rule="evenodd" d="M164.746 37.2547C163.297 36.9439 162.21 36.6311 160.946 36.5981C159.952 36.5695 159.007 36.9023 157.915 37.289C157.428 37.5993 156.88 37.9424 156.395 38.4053C155.946 38.8285 155.649 39.3694 155.189 39.7297C154.991 39.8841 154.998 40.2227 154.768 40.2695C153.84 40.1895 153.023 40.8761 152.943 41.8024C152.863 42.7288 153.55 43.55 154.478 43.63C155.291 43.9477 156.093 43.7408 157.022 43.5781C157.752 43.4506 158.432 43.1379 159.139 42.7942C159.619 42.5641 160.054 42.2827 160.473 42.1094C161.079 41.6474 161.595 41.3204 162.211 41.107C163.087 40.7969 163.874 40.4934 164.905 40.1395C165.699 40.0985 166.313 39.4135 166.268 38.6192C166.224 37.8202 165.545 37.2093 164.746 37.2547Z" fill="#0959C1"/><path fill-rule="evenodd" clip-rule="evenodd" d="M172.504 31.2675C171.564 34.029 170.892 36.8899 170.321 39.8071C168.919 46.9474 168.157 54.3573 166.269 61.289C166.088 62.0686 165.314 62.5541 164.535 62.3727C163.761 62.1915 163.273 61.4162 163.453 60.6366C164.797 53.6388 164.914 46.2447 165.83 39.0815C166.24 35.8456 166.833 32.6686 167.704 29.5916C167.975 28.6484 168.396 25.1326 169.053 23.118C169.597 21.4507 170.597 20.4847 171.28 20.1628C173.23 19.2454 175.359 19.9577 176.52 22.8814C177.666 25.7705 177.907 31.9956 177.962 32.7241C178.246 38.0006 178.628 44.4425 178.608 50.6641C178.596 54.9532 178.387 59.1253 177.927 62.752C177.847 63.6784 177.031 64.3698 176.104 64.2899C175.174 64.2096 174.488 63.3885 174.568 62.4621C174.728 58.9429 174.554 54.9235 174.287 50.8008C173.887 44.6715 173.222 38.348 172.647 33.1655C172.628 32.9543 172.585 32.2315 172.504 31.2675ZM173.361 25.1325C173.418 25.1135 173.47 25.0895 173.527 25.0658C173.746 24.9656 174.686 24.6468 174.295 24.4417C173.873 24.2243 173.577 24.5368 173.361 25.1325Z" fill="#0959C1"/><path fill-rule="evenodd" clip-rule="evenodd" d="M180.184 41.7648C179.23 42.0586 178.165 41.9668 176.987 41.927C175.835 41.88 174.652 41.7064 173.419 41.6238C172.562 41.5642 171.703 41.5282 170.859 41.5696C169.921 41.6173 169.006 41.7478 168.151 41.9598C165.642 42.5813 163.573 43.5693 162.378 45.3803C161.747 46.064 161.793 47.1345 162.479 47.7603C163.165 48.3909 164.233 48.345 164.863 47.6614C165.44 47.2206 166.173 47.2029 166.952 47.0845C167.774 46.9602 168.651 47.0358 169.59 47.0168C170.55 47.0044 171.55 47.0051 172.557 46.9348C173.644 46.8572 174.713 46.6971 175.757 46.4919C178.006 46.0527 180.009 45.4541 181.505 44.3357C182.218 43.9687 182.495 43.0974 182.131 42.3899C181.768 41.6776 180.897 41.3977 180.184 41.7648Z" fill="#0959C1"/><path fill-rule="evenodd" clip-rule="evenodd" d="M187.876 41.6268L185.302 64.241C185.223 65.1674 184.402 65.8537 183.476 65.7738C182.549 65.6939 181.859 64.8772 181.939 63.9508C182.429 55.2985 182.739 46.6403 183.301 37.9847C183.674 32.1935 184.19 26.4099 184.784 20.6473C184.881 19.8129 185.361 19.0687 186.08 18.6355C189.198 16.7571 192.306 16.4062 194.644 17.4175C196.975 18.4233 198.901 20.7607 199.225 24.9884C199.355 26.7994 199.151 28.6769 198.598 30.41C198.009 32.2591 197.06 33.9532 195.782 35.2666C194.888 36.1751 193.145 37.0389 191.933 38.1723C191.686 38.4034 191.367 38.5902 191.36 38.9181L191.362 38.9897C191.36 38.9657 191.358 38.9417 191.36 38.9181C191.359 38.8229 191.357 38.7083 191.287 38.7309C190.499 39.0486 192.73 40.3838 193.079 41.0186C193.797 42.3377 194.539 43.9301 195.153 45.583C195.767 47.2358 196.272 48.9317 196.535 50.4638C196.893 52.5611 196.916 54.4773 196.752 56.3392C196.509 59.0561 195.883 61.6257 195.546 64.4631C195.478 65.2571 194.775 65.8488 193.982 65.7804C193.189 65.7119 192.598 65.0087 192.667 64.2146C192.817 61.404 193.265 58.8334 193.329 56.1486C193.364 54.5708 193.251 52.9564 192.838 51.2114C192.534 49.9138 192.01 48.4877 191.397 47.1064C190.771 45.6858 190.039 44.3276 189.338 43.2004C189.057 42.7477 188.39 42.1997 187.876 41.6268ZM188.646 34.8509C189.802 33.7317 191.381 32.8252 192.191 31.9142C192.917 31.1054 193.398 30.0566 193.708 28.9501C194.02 27.8247 194.111 26.6184 193.989 25.4555C193.825 23.8415 193.434 22.7745 192.541 22.4022C191.81 22.1011 190.955 22.2654 190.032 22.6857L188.646 34.8509Z" fill="#0959C1"/><path fill-rule="evenodd" clip-rule="evenodd" d="M203.528 20.3911C203.007 26.0932 202.296 31.7505 201.657 37.4473C201.447 39.3434 201.242 41.235 201.07 43.1343C200.897 45.0336 200.742 46.9296 200.628 48.8339C200.477 51.373 200.388 53.9127 200.303 56.4575C200.182 60.2944 200.143 64.1051 200.061 67.9358C199.981 68.8621 200.667 69.6785 201.594 69.7584C202.52 69.8383 203.34 69.152 203.42 68.2256C204.115 63.4812 204.917 58.7746 205.488 54.0099C205.866 50.8381 206.187 47.6612 206.382 44.4735C206.582 41.2815 206.63 38.0859 206.663 34.8842C206.704 30.0691 206.574 25.2869 206.417 20.4785C206.444 19.6808 205.817 19.0125 205.02 18.9913C204.223 18.9654 203.555 19.5934 203.528 20.3911Z" fill="#0959C1"/><path fill-rule="evenodd" clip-rule="evenodd" d="M213.918 34.8817C213.985 34.1066 214.061 33.3274 214.145 32.549C214.421 30.0825 214.396 26.6235 215.007 23.7718C215.351 22.173 215.874 20.7468 216.677 19.678C217.213 18.9196 218.267 18.7439 219.027 19.2809C219.784 19.8223 219.962 20.8757 219.426 21.6341C218.76 22.6242 218.525 24.0371 218.377 25.5481C218.127 28.0597 218.25 30.8272 218.122 32.8922C217.55 41.623 218.412 50.2349 218.37 58.9163C218.358 61.1437 218.279 63.3748 218.116 65.6129C217.93 68.1109 215.626 68.1026 215.462 68.1027C215.244 68.1029 213.097 67.8938 212.865 65.6597L212.782 64.7622C212.696 64.4976 212.633 64.2018 212.58 63.8925C212.468 63.1971 212.478 62.3409 212.355 61.6732L210.895 54.2382C210.657 52.7512 210.442 51.2518 210.26 49.7553C210.143 48.7738 210.03 47.788 209.93 46.8032C209.706 48.9599 209.498 51.1275 209.337 53.2849C209.048 57.0786 208.883 60.8403 208.996 64.4545C209.04 65.2536 208.426 65.9339 207.632 65.9796C206.834 66.025 206.151 65.4137 206.11 64.6151C205.808 60.9036 205.777 57.025 205.884 53.106C206.044 47.3536 206.517 41.5282 206.863 36.0538L207.04 26.646L207.369 21.7176C207.483 20.3895 208.653 19.4095 209.976 19.5236C211.303 19.6381 212.282 20.8083 212.168 22.1317L212.168 22.1364L212.131 24.3616L213.353 31.3522C213.558 32.527 213.747 33.7051 213.918 34.8817Z" fill="#0959C1"/><path fill-rule="evenodd" clip-rule="evenodd" d="M232.741 44.5708C232.825 44.7591 232.903 44.9324 232.965 45.0948C233.225 45.7744 233.334 46.5647 233.362 47.4052C233.406 48.7469 233.154 50.2536 233.097 51.4057C232.96 53.8652 232.364 57.9515 231.071 61.1921C230.384 62.9137 229.462 64.3911 228.402 65.4234C226.226 67.545 223.422 68.2267 219.888 65.8648C219.435 65.5591 218.911 65.0044 218.592 64.0769C218.39 63.4929 218.228 62.5457 218.177 61.3842C218.025 57.9809 218.633 52.2005 218.74 51.1574C219.49 44.8464 219.91 37.3023 222.404 31.6893C224.423 27.1449 227.647 23.7424 233.155 22.9129C233.937 22.7614 234.696 23.2745 234.847 24.0589C234.998 24.8433 234.483 25.5988 233.7 25.7503C229.542 26.7247 227.342 29.568 226.053 33.1518C224.101 38.5734 224.214 45.6492 223.894 51.6021C223.815 52.6524 223.347 58.9638 223.681 61.8115C223.872 61.8899 224.05 61.9196 224.231 61.8733C225.165 61.6158 225.711 60.5058 226.276 59.3119C227.552 56.6126 228.287 53.1144 228.536 51.0122C228.649 50.084 228.918 48.9215 229.026 47.8119C229.073 47.3207 229.139 46.8455 229.022 46.445L227.699 43.4596C227.315 42.7932 227.361 41.9687 227.809 41.3503C228.263 40.7275 229.036 40.4324 229.784 40.5921C229.784 40.5921 231.012 40.9267 232.295 40.9612C232.912 40.9811 233.579 41.0957 233.947 40.7752C234.62 40.1333 235.69 40.159 236.335 40.8288C236.974 41.503 236.949 42.5722 236.276 43.2141C235.689 43.8253 234.802 44.2107 233.796 44.4238C233.454 44.4942 233.1 44.5447 232.741 44.5708Z" fill="#0959C1"/></svg>