<svg width="145" height="134" viewBox="0 0 145 134" fill="none" xmlns="http://www.w3.org/2000/svg"><path fill-rule="evenodd" clip-rule="evenodd" d="M27.3683 32.3982L27.4903 32.1035C28.5259 29.6259 30.0005 26.9764 30.9684 26.1211C32.2103 25.0226 33.4261 25.0307 34.2968 25.4469C34.8531 25.7175 35.5226 26.1658 35.8767 27.1829C37.0924 30.7731 37.5744 37.7602 37.6883 42.1094C37.7253 43.6349 37.7209 44.813 37.7231 45.3793C37.7234 45.5232 37.7238 45.6671 37.7238 45.6671L37.7242 45.6625C37.7368 45.775 37.7356 45.8863 37.7252 45.9967C37.6379 46.9211 36.8125 47.6042 35.8881 47.5169C35.8605 47.5143 34.5137 47.2805 34.3411 45.7655C34.3065 45.4931 34.2436 44.9303 34.1543 44.1563C33.8875 41.8203 33.3849 37.4993 32.5979 33.7872C32.019 35.2406 31.5517 36.5932 31.5152 37.0445C31.3054 39.0803 31.2377 40.6144 31.1602 41.317C30.7178 45.3122 26.9489 43.9867 26.2861 43.1678C25.868 42.6365 25.3677 41.6984 24.8775 40.5153C24.861 42.4162 24.9438 44.3172 25.1286 46.2927C25.2433 47.0831 24.6958 47.8156 23.9067 47.9314C23.1172 48.0471 22.3828 47.4999 22.268 46.7095C21.8429 44.5675 21.5353 42.5014 21.3555 40.415C21.1732 38.3097 21.1439 36.1957 21.2474 33.9875C21.2764 33.4055 21.3602 30.6294 21.4357 29.4904C21.6409 26.3916 25.7225 28.0714 25.8794 28.4342C26.2469 29.2948 26.775 30.7646 27.3683 32.3982ZM26.1485 39.8511C25.7409 40.207 25.235 40.7254 25.8007 40.7788C26.0867 40.8058 26.1559 40.4364 26.1485 39.8511ZM33.9668 30.2275C34.3729 30.187 34.6991 30.0832 34.4495 29.8323C34.2891 29.6687 34.1293 29.867 33.9668 30.2275Z" fill="#0959C1"/><path fill-rule="evenodd" clip-rule="evenodd" d="M41.5709 27.1848C41.2755 28.5443 40.3993 30.7492 39.6718 33.344C39.4708 34.0488 39.296 34.7701 39.1613 35.5091C39.0266 36.2481 38.9232 36.9993 38.8809 37.7424C38.8262 38.8137 38.8582 39.8515 38.9606 40.8309C39.1772 42.9116 39.585 44.6391 40.2694 45.7941C40.6094 46.666 41.5849 47.0968 42.4518 46.761C43.3188 46.4252 43.75 45.4451 43.4142 44.5782C43.2129 43.6126 43.5611 42.3323 43.8169 40.802C43.9531 39.9982 44.1342 39.1615 44.2677 38.2878C44.3541 37.716 44.4226 37.1378 44.4681 36.5575C44.5592 35.3457 44.5893 34.1421 44.6145 32.9891C44.662 30.6179 44.5928 28.5975 44.4562 27.3411C44.4991 26.5424 43.8858 25.8628 43.0917 25.8203C42.293 25.7774 41.6138 26.3861 41.5709 27.1848Z" fill="#0959C1"/><path fill-rule="evenodd" clip-rule="evenodd" d="M54.8543 27.2259C54.3947 28.8019 53.8811 30.2615 53.455 31.8267C53.1762 32.863 52.8904 33.8754 52.7304 34.9322C52.5708 35.9843 52.5124 37.046 52.5137 38.1134C52.5114 39.7604 52.7206 41.33 52.8617 42.9812C52.774 43.9103 53.4575 44.7311 54.3819 44.8183C55.311 44.906 56.1313 44.2271 56.219 43.2981C56.6593 41.7295 57.2092 40.278 57.5764 38.6979C57.8175 37.6673 58.0131 36.6279 58.1033 35.5738C58.1998 34.5018 58.1603 33.4447 58.1226 32.3693C58.0651 30.7166 57.8873 29.1593 57.7287 27.4971C57.8037 26.7015 57.2206 25.9968 56.4296 25.9222C55.634 25.8471 54.9293 26.4302 54.8543 27.2259Z" fill="#0959C1"/><path fill-rule="evenodd" clip-rule="evenodd" d="M65.6057 25.2292C64.0608 24.8329 62.6623 24.7055 61.1968 24.6971C59.9588 24.687 58.7562 24.7452 57.5201 24.9116C56.8058 25.0066 56.1 25.2091 55.3531 25.3057C54.8683 25.427 54.3494 25.5172 53.7897 25.5479C52.6565 25.608 51.5489 25.6427 50.5364 25.7513C49.6073 25.6636 48.7869 26.3426 48.6993 27.2716C48.612 28.196 49.2905 29.021 50.2195 29.1087C51.3568 29.448 52.5707 30.008 53.8398 30.3273C54.5422 30.5049 55.2369 30.5194 55.8985 30.5401C56.5649 30.5102 57.222 30.4794 57.8631 30.3729C58.2783 30.3007 58.6872 30.1955 59.0879 30.0801C59.9851 29.8168 60.831 29.5069 61.7128 29.2096C62.9305 28.7955 64.0706 28.3185 65.4586 28.1154C66.2531 28.1532 66.9328 27.5399 66.9753 26.7458C67.0135 25.9467 66.4002 25.2671 65.6057 25.2292Z" fill="#0959C1"/><path fill-rule="evenodd" clip-rule="evenodd" d="M68.6839 27.0115C68.147 28.6684 67.5611 30.2557 67.0755 31.9592C66.7572 33.0706 66.4397 34.1729 66.2534 35.3107C66.0668 36.4531 65.9904 37.6059 65.9706 38.7501C65.9397 40.5522 66.1359 42.2597 66.2596 43.9975C66.1719 44.9265 66.8554 45.7474 67.7798 45.8346C68.7089 45.9223 69.5293 45.2434 69.617 44.3143C70.0555 42.6667 70.6268 41.0874 71.03 39.3715C71.2818 38.277 71.5031 37.161 71.6191 36.0305C71.7405 34.8912 71.7315 33.7582 71.7283 32.6118C71.7289 30.8347 71.6096 29.1483 71.5466 27.407C71.6539 26.6144 71.101 25.8847 70.313 25.7779C69.5208 25.666 68.7911 26.2189 68.6839 27.0115Z" fill="#0959C1"/><path fill-rule="evenodd" clip-rule="evenodd" d="M87.986 39.4662C87.9879 39.6427 87.9894 39.8238 87.9913 40.0003C87.9848 40.6586 87.9177 41.3204 87.8088 41.983C87.6299 43.0426 87.7064 44.3954 87.4118 45.5509C87.1887 46.4393 86.749 47.2144 86.1621 47.8783C84.9126 49.2684 83.1645 49.5999 81.2924 49.1309C80.114 48.8341 78.863 48.1267 77.8124 47.262C76.6113 46.2716 75.6848 45.0753 75.2792 44.211C74.9828 43.5659 74.7956 42.894 74.7549 42.1941C74.6995 41.1588 74.9228 40.0709 75.0621 39.0865C75.4109 36.9153 76.3443 34.0059 77.8222 31.6212C78.9165 29.8591 80.2177 28.3625 81.6864 27.5499C82.18 27.2856 82.6236 27.1094 83.1001 27.0754C83.7029 27.0303 84.3197 27.1813 85.1573 27.2047C85.9546 27.1639 86.6347 27.7756 86.6805 28.5687C86.7212 29.366 86.1091 30.0507 85.3164 30.0919C84.7615 30.1694 84.2944 30.1532 83.8648 30.1823C83.7338 30.1931 83.6312 30.2484 83.5158 30.3396C82.3945 31.2082 81.6529 32.8225 81.0495 34.4963C80.4157 36.2461 80.0814 38.1171 80.0384 39.5561C80.0134 40.1152 79.9428 40.7163 79.9429 41.3056C79.9393 41.4909 79.9596 41.6691 80.0469 41.8258C80.2629 42.2406 80.8702 42.7388 81.4943 43.206C81.7846 43.4236 82.2532 43.8669 82.5579 44.0303C82.6476 43.867 82.6851 43.6664 82.7317 43.4666C82.9167 42.5886 83.0169 41.6746 83.2357 40.9296L83.8747 37.1572C83.9272 36.6007 84.2075 36.089 84.6487 35.7408C85.0849 35.3969 85.6513 35.2462 86.2052 35.3263L90.3967 36.1951C91.3211 36.2823 92.0046 37.1032 91.9169 38.0322C91.8297 38.9566 91.0042 39.6397 90.0798 39.5525L87.986 39.4662ZM82.6022 44.053C82.7483 44.1271 82.8466 44.1178 82.8559 43.9702C82.858 43.8497 82.7335 43.9401 82.6022 44.053Z" fill="#0959C1"/><path fill-rule="evenodd" clip-rule="evenodd" d="M94.0685 32.3399L92.2541 43.8479C92.2158 44.647 91.5402 45.2654 90.7457 45.2275C89.9462 45.1938 89.3279 44.5183 89.3662 43.7192C89.2912 42.0556 89.242 40.413 89.2272 38.7504C89.206 36.2706 89.2617 33.812 89.3062 31.3244C89.3352 30.6729 89.2099 28.805 89.5282 27.6936C89.8291 26.6687 90.4938 26.0169 91.1723 25.6122C92.6655 24.737 94.0497 24.9186 95.2864 25.5318C96.1728 25.9728 96.9947 26.802 97.6389 27.7444C98.08 28.38 98.4185 29.0709 98.6876 29.5139C99.8928 31.6414 100.555 33.9126 100.685 36.2774C100.858 39.4119 100.234 42.6243 99.6928 45.6589C99.6051 46.5879 98.7848 47.2668 97.8558 47.1792C96.9314 47.0919 96.2478 46.2711 96.3355 45.342C96.3655 42.5654 96.3819 39.6391 95.8644 36.8618C95.5687 35.2748 95.0523 33.7645 94.1001 32.3986L94.0685 32.3399ZM93.2266 30.3952C93.0668 30.1713 92.8939 30.0854 92.7172 30.2868C92.5614 30.4623 92.8855 30.4697 93.2266 30.3952ZM94.0593 30.0283C94.4051 29.8057 94.7583 29.505 94.4496 29.383C94.1548 29.2624 94.0642 29.5833 94.0593 30.0283Z" fill="#0959C1"/><path fill-rule="evenodd" clip-rule="evenodd" d="M104.982 34.6426C104.08 34.5667 103.12 34.4111 101.951 34.3611C101.313 34.3334 100.685 34.2974 100.031 34.347C99.7227 34.3689 99.4164 34.4189 99.1222 34.4886C98.6571 34.5978 98.2375 34.767 97.8108 34.9124C96.9955 35.1927 96.3931 35.5767 95.7448 35.7104C94.8204 35.6232 93.9954 36.3016 93.9077 37.2307C93.8205 38.1551 94.5036 38.9806 95.428 39.0678C96.3673 39.4395 97.4584 39.7281 98.8136 39.8235C99.4956 39.8739 100.213 39.8396 100.914 39.6876C101.606 39.5348 102.236 39.2555 102.862 38.9666C103.948 38.4659 104.783 37.9276 105.597 37.4707C106.379 37.2986 106.873 36.5286 106.701 35.7513C106.533 34.9699 105.763 34.475 104.982 34.6426Z" fill="#0959C1"/><path fill-rule="evenodd" clip-rule="evenodd" d="M104.274 28.4729C105.572 28.9759 106.767 29.4367 108.106 29.809C108.961 30.0428 109.798 30.2656 110.68 30.3628C111.534 30.4527 112.399 30.4368 113.259 30.3741C114.581 30.2762 115.788 29.9771 117.108 29.8093C118.037 29.897 118.857 29.2135 118.945 28.2891C119.032 27.36 118.354 26.5378 117.425 26.4501C116.124 26.0271 114.932 25.57 113.599 25.2887C112.758 25.1119 111.906 24.9865 111.05 24.961C110.194 24.9354 109.363 25.0421 108.506 25.1259C107.195 25.2555 106.003 25.4924 104.683 25.6115C103.896 25.4954 103.162 26.0479 103.05 26.8355C102.938 27.6277 103.487 28.3569 104.274 28.4729Z" fill="#0959C1"/><path fill-rule="evenodd" clip-rule="evenodd" d="M111.701 43.3676C111.853 41.9018 112.1 40.5655 112.259 39.1281C112.365 38.2008 112.497 37.2991 112.515 36.3682C112.527 35.4552 112.455 34.5436 112.365 33.6303C112.215 32.2195 111.898 30.9088 111.746 29.4654C111.834 28.541 111.151 27.7155 110.226 27.6283C109.297 27.5406 108.476 28.2241 108.389 29.1485C107.938 30.6326 107.498 32.0063 107.267 33.5111C107.119 34.4902 107.049 35.4812 107.104 36.4701C107.155 37.4585 107.352 38.4191 107.571 39.3956C107.906 40.861 108.354 42.2072 108.824 43.6668C108.907 44.4588 109.618 45.0363 110.41 44.9533C111.206 44.8753 111.779 44.1638 111.701 43.3676Z" fill="#0959C1"/><path fill-rule="evenodd" clip-rule="evenodd" d="M120.661 41.0795C121.157 41.1355 121.884 41.1066 122.328 41.1207C123.364 41.1582 124.33 41.1518 125.002 41.3035C125.931 41.3911 126.61 42.2161 126.522 43.1406C126.435 44.0696 125.614 44.7485 124.685 44.6608C124.28 44.6782 123.767 44.848 123.189 44.9744C122.162 45.193 121.045 45.3752 120.047 45.3785C118.607 45.3911 117.468 44.7779 116.632 43.9473C116.01 43.3132 115.657 42.2358 115.555 40.9548C115.447 39.6407 115.753 37.9714 115.803 37.0481C115.906 36.204 116.026 35.4219 116.205 34.6638C116.463 33.5932 116.8 32.5809 117.119 31.4603C117.266 30.9869 117.41 29.7524 117.736 29.0082C118.032 28.3308 118.347 27.7898 118.753 27.5265C119.573 26.9914 120.634 26.5659 121.859 26.4708C123.154 26.3712 124.546 26.465 125.657 26.5976C126.455 26.5936 127.104 27.2372 127.108 28.0366C127.112 28.8304 126.47 29.4844 125.672 29.4879C124.755 29.6103 123.617 29.823 122.593 30.1532C122.377 30.2257 122.179 30.3137 122.006 30.4181L121.985 30.4485C121.924 30.5077 121.929 30.499 121.864 30.5531L121.646 30.6996C121.623 31.2311 121.915 32.1681 121.884 32.4482L121.244 37.5615C121.171 38.1347 120.995 39.0228 120.846 39.909C120.795 40.2104 120.578 40.6864 120.534 40.9561L120.603 41.0136C120.615 41.0287 120.632 41.0442 120.645 41.0593L120.661 41.0795ZM120.534 40.9561C120.478 40.909 120.427 40.8624 120.402 40.8276C120.349 40.753 120.217 40.6291 120.168 40.7034C120.028 40.9037 120.204 41.0084 120.524 41.0618C120.527 41.1317 120.56 41.1673 120.641 41.1471C120.684 41.1372 120.686 41.1142 120.661 41.0795L120.638 41.0773L120.524 41.0618C120.522 41.0292 120.526 40.9924 120.534 40.9561ZM122.006 30.4181C122.028 30.383 122.017 30.3495 121.944 30.338C121.744 30.2959 121.661 30.4411 121.648 30.672C121.588 30.722 121.532 30.7724 121.481 30.8232C121.516 30.7941 121.576 30.7487 121.646 30.6996L121.647 30.6858L121.648 30.672C121.754 30.5799 121.873 30.4983 122.006 30.4181Z" fill="#0959C1"/><path fill-rule="evenodd" clip-rule="evenodd" d="M125.582 33.6263C124.887 33.1663 124.252 32.8141 123.35 32.4413C122.841 32.2354 122.332 32.0714 121.77 32.0323C121.221 31.9944 120.67 32.077 120.158 32.2421C119.219 32.5526 118.551 32.9443 117.836 33.4429C116.93 33.6543 116.366 34.5616 116.573 35.4674C116.785 36.3736 117.692 36.9372 118.598 36.7303C119.164 36.8255 119.579 37.0967 120.201 37.2436C120.519 37.3199 120.806 37.4213 121.137 37.4526C121.344 37.4721 121.553 37.4732 121.76 37.4463C122.338 37.3709 122.826 37.1664 123.363 37.0269C124.029 36.8531 124.471 36.5978 125.054 36.4673C125.833 36.6151 126.592 36.0974 126.74 35.3133C126.884 34.5287 126.366 33.7699 125.582 33.6263Z" fill="#0959C1"/><path fill-rule="evenodd" clip-rule="evenodd" d="M25.8489 64.018C25.2783 64.5148 24.6718 64.8387 23.9705 65.1101C23.5432 65.2737 23.077 65.3561 22.6141 65.359C21.9602 65.3606 21.3412 65.2668 20.7125 65.0597C19.8003 64.7631 19.1025 64.4028 18.2633 63.9958C17.4686 63.9268 16.8821 63.2212 16.9535 62.4265C17.025 61.6317 17.7279 61.0445 18.5224 61.1174C19.211 60.9204 19.7533 60.68 20.4658 60.4901C21.0325 60.3369 21.5181 60.081 22.088 59.9763C22.3895 59.9201 22.6952 59.9325 22.9984 59.9086C23.3127 59.8821 23.5914 60.035 23.9059 59.9805C24.1736 59.9559 24.3757 59.7465 24.656 59.7995C25.0411 59.8704 25.6406 60.4258 25.8259 60.0382C25.8573 59.9703 25.7768 60.2037 25.7165 60.1878C25.5566 60.1506 25.4752 60.2999 25.3693 60.4139C26.0936 59.9775 27.0446 60.1472 27.574 60.8333C28.1405 61.5723 28.0007 62.6301 27.2617 63.1965C26.9211 63.7757 24.9503 63.2032 25.2456 64.0024C25.2645 64.0529 25.3304 64.0936 25.3741 64.0713C25.5284 63.9877 25.7252 64.1057 25.8489 64.018L25.88 63.9942C25.8706 64.0049 25.8572 64.0152 25.8489 64.018Z" fill="#0959C1"/><path fill-rule="evenodd" clip-rule="evenodd" d="M26.3454 70.8947C26.5816 70.0458 26.7024 69.3136 26.782 68.3479C26.8249 67.8414 26.8519 67.3649 26.8024 66.8582C26.7807 66.6353 26.7339 66.4171 26.6675 66.2082C26.5676 65.895 26.3956 65.6402 26.2636 65.3467C26.0267 64.8233 25.6405 64.5242 25.5032 63.998C25.6248 63.0779 24.975 62.2278 24.0525 62.1059C23.1297 61.9839 22.2813 62.636 22.1597 63.5561C21.7455 64.2776 21.6115 64.944 21.429 65.8041C21.3288 66.2749 21.3146 66.7331 21.3527 67.2263C21.3781 67.5457 21.4579 67.8683 21.5674 68.1749C21.6751 68.4771 21.811 68.7472 21.9729 69.0206C22.4761 69.8753 23.0528 70.4276 23.4726 71.2232C23.5628 72.0153 24.2795 72.5862 25.0721 72.4949C25.8647 72.4036 26.4367 71.687 26.3454 70.8947Z" fill="#0959C1"/><path fill-rule="evenodd" clip-rule="evenodd" d="M34.9376 69.7794C35.4358 68.765 35.6205 67.8212 35.782 66.6903C35.8701 66.0538 35.8838 65.4355 35.8327 64.7926C35.8146 64.5061 35.7594 64.2268 35.6831 63.9566C35.5752 63.5623 35.4005 63.2191 35.2496 62.8471C35.0041 62.2225 34.6125 61.7947 34.4836 61.1655C34.6057 60.2415 33.9574 59.3956 33.0333 59.2735C32.1092 59.1514 31.2634 59.7998 31.1412 60.7238C30.7236 61.5528 30.572 62.337 30.4182 63.2889C30.3289 63.8132 30.313 64.3272 30.3529 64.8726C30.3785 65.2241 30.4562 65.5744 30.5546 65.9195C30.6478 66.2439 30.7845 66.542 30.9195 66.8519C31.318 67.7728 31.876 68.4547 32.0684 69.4203C31.9719 70.2117 32.532 70.9379 33.3234 71.0345C34.1143 71.135 34.841 70.5709 34.9376 69.7794Z" fill="#0959C1"/><path fill-rule="evenodd" clip-rule="evenodd" d="M35.8168 60.0838C35.2941 59.3466 35.4415 58.3218 36.1627 57.769C36.9018 57.2025 37.9635 57.3428 38.53 58.0818C38.8413 58.299 38.9334 58.7833 39.1964 59.3662C39.538 60.1115 39.6616 61.296 39.7953 61.7978C39.8699 62.3838 40.0954 62.9177 40.1632 63.4948C40.2383 64.1368 40.2215 64.7788 40.1845 65.422C40.1011 66.9313 39.8667 68.2806 39.3755 69.788C39.3305 70.5823 38.6492 71.1964 37.851 71.1509C37.0563 71.1099 36.4426 70.4247 36.4876 69.6305C36.2415 68.5257 35.7535 67.677 35.4045 66.6547C35.1523 65.9292 34.8852 65.2258 34.7852 64.4685C34.6715 63.5733 34.7855 62.6801 34.8988 61.7629C34.9635 61.5154 35.0736 61.1058 35.2107 60.6438C35.2968 60.3552 35.7555 59.9117 35.5088 59.8711C35.4538 59.8638 35.6414 59.8366 35.6436 59.8809C35.6503 59.9818 35.7572 60.0199 35.8168 60.0838Z" fill="#0959C1"/><path fill-rule="evenodd" clip-rule="evenodd" d="M31.8947 65.7961C32.5641 66.2407 32.9885 66.4808 33.6737 66.7754C34.0788 66.949 34.4449 67.0853 34.8821 67.1071C35.2682 67.1221 35.6521 67.0329 36.0187 66.8933C36.6427 66.6517 36.9684 66.3066 37.5908 65.9568C38.5233 65.924 39.2506 65.1439 39.2217 64.2118C39.1884 63.2832 38.4088 62.5521 37.4802 62.5854C36.8104 62.2648 36.4158 61.9806 35.7431 61.8037C35.3915 61.7092 35.0312 61.6496 34.6727 61.6982C34.2044 61.7604 33.8676 62.008 33.4259 62.2016C32.925 62.4195 32.6714 62.674 32.1432 62.9163C31.3482 62.8473 30.6459 63.4386 30.5768 64.2336C30.5078 65.0287 31.0996 65.7271 31.8947 65.7961Z" fill="#0959C1"/><path fill-rule="evenodd" clip-rule="evenodd" d="M48.8542 66.6395C49.074 66.7325 49.2835 66.8122 49.5135 66.8586C50.8518 67.1155 52.1373 67.1373 53.3752 67.549C54.2953 67.6706 54.9476 68.517 54.8255 69.441C54.7034 70.3651 53.8536 71.013 52.9334 70.8914C52.4043 70.9295 51.9345 71.1234 51.4091 71.2541C50.7389 71.4215 50.0806 71.5586 49.3804 71.6501C48.6521 71.7419 47.9314 71.6547 47.1696 71.546C45.0107 70.9886 43.6739 69.3276 43.4691 66.972C43.3721 65.859 43.5434 64.5933 43.8955 63.3516C44.3847 61.6479 45.1596 60.1139 45.3834 59.1473C45.4165 58.3515 46.0905 57.7323 46.8863 57.7655C47.6826 57.7947 48.3056 58.4692 48.272 59.2689C48.422 60.253 48.4166 61.9286 48.4532 63.7099C48.4738 64.7648 48.1651 66.8285 48.8542 66.6395C48.7635 66.5995 48.6728 66.5595 48.5781 66.519C48.7082 66.5642 49.0319 66.5669 48.9174 66.6158L48.8542 66.6395Z" fill="#0959C1"/><path fill-rule="evenodd" clip-rule="evenodd" d="M52.7033 57.5235C51.9564 56.6967 51.3089 56.207 50.4177 55.6851C50.0091 55.4471 49.5759 55.3338 49.113 55.2646C48.6466 55.191 48.1583 55.2225 47.6974 55.3496C47.3612 55.4413 47.0523 55.5084 46.7508 55.7006C46.0827 56.1244 45.5321 56.4158 44.9743 57.0942C44.1395 57.508 43.7938 58.5186 44.2037 59.3529C44.6136 60.1873 45.6241 60.5328 46.4624 60.1235C46.985 60.1045 47.2993 60.3902 47.7662 60.4599C47.9505 60.4882 48.0859 60.6141 48.2679 60.6302C48.4301 60.6436 48.5892 60.6806 48.7478 60.6616C49.7157 60.5734 50.4511 60.0945 51.5187 60.1596C52.2436 60.4874 53.1024 60.1648 53.4268 59.4355C53.7552 58.7067 53.432 57.8519 52.7033 57.5235Z" fill="#0959C1"/><path fill-rule="evenodd" clip-rule="evenodd" d="M50.2766 61.2543C49.6386 60.9659 49.2924 60.8001 48.6212 60.6114C48.2544 60.5109 47.9427 60.4177 47.5695 60.4564C47.2366 60.4924 46.9335 60.6365 46.6504 60.8111C46.1093 61.1517 45.9257 61.5115 45.4494 61.9366C44.5341 62.1117 43.9331 62.9965 44.1121 63.9124C44.2877 64.8238 45.1725 65.4248 46.0878 65.2497C46.7101 65.476 47.044 65.7042 47.7036 65.7993C48.0216 65.8454 48.3521 65.857 48.6613 65.7578C49.0873 65.6221 49.3372 65.3351 49.6895 65.0616C50.1174 64.73 50.2633 64.4732 50.6747 64.1155C51.4651 64.0079 52.0178 63.2768 51.9063 62.4859C51.7987 61.6955 51.0675 61.1427 50.2766 61.2543Z" fill="#0959C1"/><path fill-rule="evenodd" clip-rule="evenodd" d="M65.7574 69.0941C65.9103 69.3904 65.9767 69.7352 65.9299 70.0891C65.8083 71.0093 64.962 71.6616 64.0379 71.5395C63.4314 71.5273 63.0021 71.1425 62.6018 70.6295C62.1152 70.0131 62.1397 67.9199 62.1012 67.4547C62.0198 66.4957 61.9823 65.5386 61.971 64.5649C61.9599 63.1351 62.0392 61.7173 62.1097 60.3063C62.2266 59.4215 62.7952 58.6605 63.6076 58.2957C65.0759 57.5696 67.6331 56.9593 69.5135 57.4438C71.4946 57.9537 73.0284 59.3047 73.1308 61.9508C73.1522 63.4539 72.7943 64.4669 72.148 65.2096C71.8087 65.5969 71.3937 65.9221 70.8992 66.2129C71.2125 66.7784 71.5351 67.4251 71.7825 68.066C72.2639 69.2978 72.5352 70.4539 72.3933 71.0433C72.2888 71.8337 71.5626 72.3939 70.7723 72.2894C69.978 72.1844 69.4222 71.4548 69.5267 70.6645C69.5251 70.6763 69.5186 70.6954 69.5042 70.7135C69.5208 70.7397 69.5216 70.7638 69.4886 70.7715C69.4634 70.7802 69.4878 70.7474 69.5042 70.7135C69.4737 70.6415 69.3598 70.5344 69.3196 70.4451C69.0698 69.944 68.6374 69.3707 68.2256 68.8241C67.8512 68.3266 67.4602 67.8948 67.1962 67.6519C67.2171 67.5546 67.1565 67.4986 67.0558 67.4733L66.6774 67.5514L66.6747 67.451C66.4163 67.4688 66.1369 67.5239 66.0211 67.5526C65.982 67.7275 65.6066 68.3581 65.5294 68.76C65.5987 68.8411 65.6631 68.9296 65.7151 69.0205C65.7429 69.0522 65.7594 69.0784 65.7574 69.0941ZM65.5217 68.8189C65.4988 68.9919 65.5432 69.1098 65.7105 69.1159C65.7425 69.1162 65.7553 69.1099 65.7574 69.0941L65.7151 69.0205C65.6629 68.9616 65.5773 68.8823 65.5217 68.8189ZM65.1113 68.4126C65.1593 68.4429 65.2034 68.4728 65.2514 68.5031L65.3198 68.5602C65.2314 68.4725 65.1275 68.4107 65.0142 68.3598L65.1113 68.4126ZM67.1962 67.6519C67.1942 67.6676 67.1921 67.6834 67.1855 67.7025C67.162 67.7594 67.1322 67.5915 67.0926 67.5582C67.1248 67.5865 67.1605 67.6192 67.1962 67.6519ZM67.8541 62.4017C67.9125 62.6255 68.0829 62.88 68.1233 62.7253C68.1794 62.5127 68.0635 62.4214 67.8541 62.4017ZM67.7744 62.3992C67.55 62.4015 67.2411 62.4687 66.929 62.5595L66.8912 62.7545L67.0846 62.6841C67.2703 62.5806 67.542 62.4925 67.7744 62.3992ZM67.8627 62.3668C68.1296 62.2541 68.3129 62.1383 68.1791 62.0006C68.0731 61.8945 67.7407 62.2907 67.8247 62.3818L67.8459 62.3726L67.8356 62.2992C67.8379 62.3115 67.8409 62.3199 67.8472 62.3327L67.8627 62.3668L67.8459 62.3726L67.8512 62.3933L67.8507 62.3972L67.8664 62.3993C67.8821 62.4014 67.8763 62.3846 67.8627 62.3668Z" fill="#0959C1"/><path fill-rule="evenodd" clip-rule="evenodd" d="M72.0417 59.4918C71.7492 60.3733 71.4642 61.1678 71.217 62.0994C71.0523 62.7097 70.9361 63.2865 70.8535 63.9117C70.7844 64.4347 70.7477 64.954 70.7874 65.4714C70.8278 66.0128 70.9758 66.5285 71.0996 67.0449C71.2647 67.4909 71.3729 67.9132 71.5964 68.3109C71.785 68.6399 72.0031 68.8968 72.177 69.2158C72.2868 69.4144 72.5411 69.488 72.5794 69.7131C72.4572 70.6371 73.109 71.4874 74.0292 71.609C74.9533 71.7312 75.7996 71.0788 75.9218 70.1548C76.0925 69.8013 76.0811 69.4637 76.1541 69.0932C76.3208 68.1951 76.1025 67.334 76.2206 66.3494C76.164 65.7178 76.2296 65.0703 76.1555 64.4204C76.0803 63.7783 75.8911 63.1812 75.7386 62.5489C75.4903 61.4918 75.1852 60.5914 74.9305 59.5815C74.9558 58.7847 74.3278 58.1175 73.531 58.0922C72.7341 58.067 72.0631 58.6944 72.0417 59.4918Z" fill="#0959C1"/><path fill-rule="evenodd" clip-rule="evenodd" d="M79.6623 66.983C79.3528 66.782 79.0207 66.5701 78.6957 66.3351C77.5268 65.4925 76.4259 64.5588 75.9928 63.5974C75.5132 62.5338 75.2195 61.4867 75.8334 60.4436C76.1337 59.9272 76.4866 59.2857 77.314 58.8069L79.9661 57.297C80.5744 56.7812 81.4885 56.858 81.9998 57.4697C82.5155 58.078 82.4387 58.992 81.831 59.5038L80.4087 61.2443C80.9524 61.5802 81.6635 61.8303 82.2579 62.1769C83.2241 62.7366 83.9864 63.4175 84.4059 63.997C85.502 65.8143 85.5361 67.4031 84.4737 68.691C84.0172 69.2388 83.4719 69.8229 82.7098 70.1703C81.1694 70.8669 79.3015 71.1962 78.3316 70.876C77.4076 70.7539 76.7592 69.908 76.8813 68.9839C77.0029 68.0638 77.8493 67.4115 78.7733 67.5336C78.8703 67.5264 78.9191 67.3688 79.0499 67.3181C79.2107 67.2513 79.4389 67.1295 79.6623 66.983ZM80.1482 67.2112L80.1721 67.2424C80.1931 67.2652 80.193 67.3571 80.2163 67.3322C80.2545 67.2853 80.2193 67.2486 80.1482 67.2112ZM79.9663 66.7711C80.3353 66.4918 80.5874 66.189 80.3157 66.0651C80.0474 65.9456 79.9032 66.3707 79.9663 66.7711ZM80.1223 61.5946L79.8891 61.8758C79.8276 61.9477 79.7436 62.0686 79.8068 62.105C80.0376 62.2355 80.1297 61.8716 80.1223 61.5946ZM80.0801 61.0968C80.0748 61.0761 80.0674 61.0712 80.0452 61.0883C80.0274 61.1019 80.0476 61.1005 80.0801 61.0968Z" fill="#0959C1"/><path fill-rule="evenodd" clip-rule="evenodd" d="M90.5481 58.5618C90.1492 59.6734 89.5711 60.9292 89.121 62.4581C88.9889 62.9127 88.8849 63.3671 88.822 63.8429C88.7552 64.3181 88.7272 64.8026 88.7529 65.2741C88.7977 65.9642 88.9033 66.6182 89.0844 67.2463C89.4273 68.4359 89.7938 69.4165 90.364 70.248C90.6678 71.1283 91.6302 71.5956 92.51 71.2958C93.3903 70.992 93.8576 70.0296 93.5538 69.1493C93.5048 68.4306 93.7873 67.7158 93.9239 66.8336C93.9996 66.3515 94.1146 65.8746 94.1625 65.3608C94.1949 65.025 94.2081 64.6827 94.1972 64.3412C94.1773 63.6144 94.0818 62.9137 93.9943 62.214C93.8363 60.8968 93.6004 59.8054 93.4263 58.8222C93.4993 58.0276 92.9119 57.3259 92.1174 57.2529C91.3228 57.1799 90.6172 57.7668 90.5481 58.5618Z" fill="#0959C1"/><path fill-rule="evenodd" clip-rule="evenodd" d="M96.2667 67.4383C96.4745 66.9256 94.9018 66.8978 94.4772 66.4776C93.9182 65.9236 93.483 65.342 93.4324 64.6351C93.3881 63.7891 93.4008 62.7546 94.1261 61.8382C94.5862 61.2629 95.149 60.6371 95.8679 60.132C96.8513 59.4418 97.8829 58.9619 98.249 58.6742C98.7508 58.0564 99.6602 57.9565 100.282 58.4588C100.904 58.9571 101 59.8699 100.502 60.4883C100.34 60.807 99.4605 61.799 98.8427 62.6895C98.8849 62.7031 98.9232 62.7162 98.9486 62.7356C99.5896 63.2444 100.247 63.7473 100.812 64.3461C101.658 65.246 102.278 66.1802 102.944 66.8963C103.712 67.4139 103.917 68.4652 103.395 69.2364C102.873 70.0076 101.822 70.2088 101.051 69.6868L96.2667 67.4383ZM96.2667 67.4383L96.2607 67.4534C96.2332 67.5098 96.1568 67.3917 96.1122 67.3658L96.2667 67.4383ZM98.4889 63.2469C98.1716 63.8011 98.083 64.2295 98.5284 64.2804C98.7683 64.3121 98.6718 63.8312 98.6097 63.635C98.5823 63.5393 98.5405 63.4018 98.4889 63.2469ZM98.2407 62.582C98.0573 62.1537 97.8488 61.854 97.7038 62.195C97.5997 62.4373 97.9041 62.5255 98.2407 62.582Z" fill="#0959C1"/><path fill-rule="evenodd" clip-rule="evenodd" d="M114.099 58.4579L114.151 58.4607C117.04 58.4864 118.721 60.8091 119.227 63.4605C119.69 65.8942 118.664 68.5673 116.757 70.2837C116.255 70.6895 115.494 71.029 114.537 71.1546C113.621 71.2776 112.432 71.2244 111.314 70.9326C110.328 70.6743 109.386 70.2938 108.699 69.7989C107.636 69.0382 106.942 68.1424 106.803 67.1958C106.583 65.4344 106.823 63.8018 107.654 62.3912C108.731 60.5652 110.449 59.0717 112.205 58.1956C112.82 57.7847 113.631 57.9119 114.099 58.4579ZM111.469 65.704C111.5 65.8321 111.535 65.9608 111.582 66.091C111.542 65.9657 111.529 65.8279 111.469 65.704ZM112.934 61.4926C112.435 62.0868 112.004 62.7741 111.672 63.5023C111.368 64.1663 111.293 64.8846 111.451 65.6256C111.701 65.7346 112.369 65.6749 112.727 65.7222C112.97 65.7583 113.333 65.8583 113.59 65.8842C113.544 65.9301 113.498 65.9721 113.467 65.996C113.52 65.959 113.572 65.9259 113.618 65.8839L113.59 65.8842L113.695 65.7821C113.753 65.7378 113.745 65.7406 113.808 65.7131L113.825 65.7112C114.328 65.2296 114.623 64.5445 114.633 63.8656C114.642 63.0067 114.594 62.0361 113.709 61.8031C113.418 61.7646 113.153 61.6535 112.934 61.4926ZM113.825 65.7112L113.724 65.802L113.618 65.8839C113.795 65.9033 113.91 65.8786 113.874 65.7578C113.867 65.7248 113.849 65.7104 113.825 65.7112ZM111.407 65.5997C111.387 65.5332 111.404 65.3754 111.377 65.4318C111.335 65.5063 111.352 65.5605 111.407 65.5997Z" fill="#0959C1"/><path fill-rule="evenodd" clip-rule="evenodd" d="M121.61 59.5147C121.677 59.8596 121.77 60.272 121.777 60.6411L121.669 63.2193L121.196 67.7618C121.288 68.5541 120.717 69.2708 119.925 69.3622C119.133 69.4535 118.416 68.8827 118.324 68.0905L117.186 63.7791L116.567 60.9847C116.452 60.0693 116.287 59.3754 116.267 58.8326C116.238 57.9045 116.427 57.1694 116.803 56.595C117.353 55.7595 118.25 54.7858 120.509 54.6762L122.695 54.637C123.003 54.6977 123.447 54.7884 123.936 54.9611C124.181 55.0494 124.565 55.3802 124.764 55.4225C124.697 55.5056 124.619 55.6074 124.568 55.6326C125.307 55.0662 126.365 55.2059 126.931 55.9449C127.498 56.684 127.357 57.7457 126.619 58.3082C126.311 58.6676 125.776 58.781 125.161 58.9518C124.373 59.1677 123.168 59.0485 122.6 59.1414L121.61 59.5147ZM121.572 59.5297L121.244 59.6543C121.045 59.708 120.725 59.7338 120.78 59.8611C120.929 60.1889 121.311 59.8993 121.572 59.5297ZM121.606 59.4861C121.839 59.1449 121.962 58.7571 121.714 58.7283C121.47 58.7 121.514 59.0338 121.606 59.4861ZM124.764 55.4225C124.841 55.3246 124.903 55.2449 124.891 55.3392C124.884 55.4184 124.833 55.4397 124.764 55.4225Z" fill="#0959C1"/><path fill-rule="evenodd" clip-rule="evenodd" d="M123.595 63.5795C122.859 64.1224 121.814 63.9803 121.254 63.2501C120.688 62.5111 120.828 61.4494 121.567 60.8829C121.85 60.2562 122.585 60.0493 123.666 59.468C123.993 59.2952 124.334 59.1963 124.739 59.1297C124.985 59.0901 125.244 59.0963 125.49 59.1448C125.88 59.2164 126.19 59.3535 126.529 59.5103C127.009 59.7257 127.267 59.9519 127.611 60.1334C127.784 60.2202 127.805 60.363 127.923 60.4106C128.708 60.2823 129.453 60.8169 129.577 61.6055C129.705 62.3945 129.171 63.1361 128.382 63.2639C127.977 63.5705 127.393 63.8173 126.405 64.2029C126.051 64.3441 125.722 64.5007 125.317 64.5392C125.025 64.5647 124.737 64.5027 124.469 64.4432C124.158 64.3741 124.008 64.1502 123.757 64.0771C123.584 64.0262 123.561 63.5989 123.556 63.7263C123.551 63.7898 123.552 63.6299 123.595 63.5795Z" fill="#0959C1"/><path fill-rule="evenodd" clip-rule="evenodd" d="M29.304 102.901C29.5233 102.095 30.3144 101.559 31.1638 101.679C32.0856 101.81 32.7262 102.663 32.5954 103.584C32.5735 104.122 32.3009 104.619 31.966 105.116C31.5231 105.773 30.7497 106.321 30.308 106.667C28.9476 107.71 27.0244 108.119 25.0814 108.092C23.1771 108.066 21.3134 107.426 19.9467 106.583C17.84 105.189 16.4516 103.083 15.8526 100.695C15.486 99.2374 15.4224 97.6679 15.6642 96.137C16.2627 92.3536 18.4943 88.7737 21.8783 87.1766C22.6818 86.8159 24.1779 85.5242 25.3429 85.2007C26.1919 84.9687 26.9536 84.9406 27.5733 85.3106L29.5328 86.7544C30.2114 87.1751 30.4186 88.0694 29.9959 88.7473C29.5771 89.4258 28.685 89.6329 28.0064 89.2122L26.5655 88.4953C26.5662 88.4907 26.5643 88.4764 26.5555 88.4563C26.5038 88.355 26.4322 88.3401 26.3405 88.3835L26.5655 88.4953C26.5565 88.5317 26.4425 88.4591 26.3316 88.3916L26.3405 88.3835L26.2277 88.3299L26.2815 88.361L26.3316 88.3916C26.0457 88.5437 25.6089 89.2667 25.2939 89.5698C24.7588 90.0814 24.2457 90.5209 23.8724 90.7687C21.9514 92.0049 21.0923 94.4023 20.923 96.7332C20.842 97.8544 20.972 98.9775 21.3253 100.001C21.645 100.93 22.0981 101.817 22.8997 102.438C23.5575 102.978 24.499 103.408 25.4931 103.577C26.4611 103.738 27.4637 103.847 28.2327 103.44C28.4211 103.344 29.0447 103.221 29.2601 103.073C29.2611 102.984 29.2274 102.838 29.2831 102.884L29.304 102.901L29.2898 102.946L29.2645 103.069L29.2601 103.073C29.2619 103.087 29.2599 103.101 29.2586 103.11L29.2645 103.069C29.3384 103.014 29.3653 102.961 29.304 102.901Z" fill="#0959C1"/><path fill-rule="evenodd" clip-rule="evenodd" d="M38.8299 85.7046C39.6889 84.8817 40.9592 84.6108 42.3467 84.7185C44.3063 84.8745 46.4445 86.0993 47.3559 87.07C49.3978 89.3012 50.9543 93.9123 50.8833 98.2172C50.8301 101.411 49.7789 104.354 47.927 106.258C45.5675 108.509 42.7351 108.67 40.1203 107.326C37.3648 105.906 34.898 102.726 34.194 99.8292C33.6031 97.2306 33.7215 94.6716 34.5005 92.3051C35.2582 90.006 36.5348 87.8841 38.1967 86.1411C38.3697 85.9354 38.5926 85.7884 38.8299 85.7046ZM39.667 89.1419C38.9275 90.4094 38.399 91.8056 38.1161 93.2508C37.7729 94.9835 37.8849 96.795 38.5186 98.5724C38.9931 99.9652 40.2369 101.359 41.585 102.237C42.4175 102.778 43.3611 103.166 44.0788 102.408C44.693 101.804 45.0415 100.937 45.2893 99.9848C45.5669 98.9055 45.7038 97.7216 45.691 96.5259C45.6655 93.9136 45.1574 91.2515 44.0695 89.7998C43.8187 89.4587 43.2945 89.0458 42.6966 88.7682C42.2807 88.5775 41.8502 88.3801 41.4405 88.3643C41.3052 88.3592 41.1566 88.2018 41.0787 88.3129C40.7754 88.8339 40.2286 89.1276 39.667 89.1419Z" fill="#0959C1"/><path fill-rule="evenodd" clip-rule="evenodd" d="M65.6535 83.9695C65.5149 83.6866 65.4603 83.3593 65.5087 83.0183C65.6389 82.1014 66.4959 81.4569 67.4177 81.5878C67.8743 81.6291 68.8295 82.1266 69.0764 83.5624C69.3041 84.8873 69.1852 88.3252 69.2077 88.8783C69.3168 92.1606 69.832 95.2655 69.9421 98.4586C69.9945 99.9232 69.9485 101.397 69.7848 102.906C69.7181 103.513 69.7361 104.864 69.5748 105.781C69.4656 106.386 69.2628 106.884 69.06 107.245C68.7317 107.833 67.995 108.561 66.6521 108.577C65.9431 108.589 64.1973 107.885 64.063 107.791C63.4321 107.363 62.8556 106.825 62.3398 106.216C61.6842 105.441 61.1379 104.527 60.6806 103.588C60.0949 102.349 59.5952 101.051 59.1662 99.7208C58.4989 97.6331 57.9945 95.4652 57.3138 93.3897L57.7286 97.4204C57.8354 99.1042 57.9395 100.67 57.9882 102.27C58.0226 103.342 58.0327 104.42 58.0027 105.563C58.0216 106.36 57.3875 107.022 56.5883 107.04C55.793 107.059 55.1292 106.424 55.1103 105.627C55.0334 104.554 54.9175 103.536 54.7844 102.53C54.5818 100.974 54.3301 99.462 54.0636 97.8355L53.182 93.3155C53.0643 92.5843 52.3911 89.7719 52.4243 88.0328C52.4499 86.7297 52.974 85.8029 53.4849 85.2973C54.5373 84.2622 55.7743 84.1981 57.0585 84.7047C58.7689 85.3847 60.7963 88.5397 61.2069 89.3971C61.5987 90.2236 61.9528 91.0682 62.2726 91.9361C63.2583 94.6002 63.9524 97.4297 65.0414 100.024C65.0893 99.4947 65.1213 98.9681 65.1457 98.4404C65.2845 95.2451 65.077 92.1086 65.2581 88.8347C65.2819 88.4479 66.2196 85.7843 66.1243 84.5675L66.0508 84.5101L65.9723 84.4331C65.7729 84.2779 65.4088 83.9959 65.6535 83.9695ZM64.7988 104.332C64.6663 104.417 64.5695 104.497 64.5247 104.566C64.4838 104.636 64.3193 104.781 64.4157 104.814C64.6599 104.9 64.765 104.68 64.7988 104.332ZM55.6335 89.1041C55.464 88.9014 55.2858 88.8432 55.1179 89.0403C54.9871 89.1956 55.4753 89.0957 55.6258 89.103L55.6335 89.1041ZM56.5119 88.8011L56.6043 88.7249C56.7637 88.5877 57.2958 88.1791 57.0008 88.0949C56.6461 87.9929 56.5134 88.2983 56.5119 88.8011ZM66.2186 84.642C66.3237 84.7227 66.4435 84.7821 66.5615 84.827L66.4549 84.7836C66.4087 84.7536 66.3618 84.7281 66.3111 84.7021L66.2186 84.642ZM66.1211 84.5623C66.0934 84.1824 65.9597 83.9472 65.6694 83.9671L65.6535 83.9695C65.7341 84.1408 65.8401 84.2968 65.9723 84.4331C66.0249 84.4735 66.0635 84.5025 66.0806 84.519L66.1211 84.5623Z" fill="#0959C1"/><path fill-rule="evenodd" clip-rule="evenodd" d="M75.5848 81.7298L80.9131 81.5321C81.7054 81.48 82.3965 82.0858 82.4473 82.878C82.5012 83.6753 81.8981 84.3652 81.102 84.4167L75.8085 85.8744L75.7494 85.8801L75.7514 88.9592C75.5991 90.169 75.7129 91.365 75.7868 92.5694C75.9084 94.6689 76.0992 96.7736 76.088 98.906C76.0805 100.574 75.9372 102.212 75.4997 103.871C75.3689 104.792 74.5164 105.433 73.5946 105.302C72.6728 105.171 72.0284 104.318 72.1592 103.396C72.2041 101.739 71.8484 100.194 71.5169 98.6143C71.1449 96.8552 70.666 95.1374 70.4338 93.3794C70.2108 91.665 70.2579 89.9372 70.5216 88.2167C70.675 87.5193 70.7697 86.1132 71.0258 84.9933C71.2302 84.101 71.4799 83.328 71.8242 82.8458C72.2254 82.2917 72.6681 81.8281 73.3136 81.6612C73.9869 81.4888 75.4553 82.3131 75.5848 81.7298ZM75.2423 85.7846C74.8621 85.6978 74.4578 85.6169 74.4935 85.9133C74.5346 86.2529 74.905 86.0799 75.2423 85.7846ZM75.5848 81.7298L75.4088 81.7377C75.4628 81.7407 75.6004 81.6474 75.5905 81.7165L75.5848 81.7298Z" fill="#0959C1"/><path fill-rule="evenodd" clip-rule="evenodd" d="M74.3311 94.9228C74.0551 95.6357 73.3145 96.0899 72.526 95.978C71.6081 95.8476 70.9637 94.9947 71.0945 94.0732C70.9534 93.616 71.4454 93.3803 71.6979 92.8333C71.9485 92.3002 73.9421 92.052 73.5537 91.5033C73.524 91.4662 73.4656 91.4673 73.4394 91.4871C73.8153 91.2209 74.1415 90.9757 74.5437 90.7978C74.93 90.6223 75.349 90.5173 75.7633 90.4727C76.2914 90.4208 76.7658 90.4458 77.2914 90.5204C78.0945 90.6391 78.7011 90.8004 79.5215 91.0156C80.3109 90.9021 81.0448 91.4528 81.1585 92.2398C81.2677 93.0309 80.7171 93.7612 79.9277 93.8748C79.3661 94.2181 78.9919 94.5269 78.4495 94.8447C77.9624 95.1281 77.5762 95.4399 77.0601 95.6533C76.7585 95.7797 76.4418 95.8758 76.1151 95.9328C75.7687 95.9917 75.4475 95.9273 75.0853 95.9605C74.9259 95.9614 74.714 96.0582 74.4175 96.0115C74.208 95.9817 73.8234 95.5981 73.8124 95.8127C73.8096 95.8594 73.8014 95.6984 73.8408 95.6946C73.9666 95.6842 73.9426 95.4975 74.0361 95.4684C74.2969 95.3833 74.3098 95.1548 74.3311 94.9228Z" fill="#0959C1"/><path fill-rule="evenodd" clip-rule="evenodd" d="M87.3664 102.613L87.3817 102.615C88.2948 102.834 89.1665 102.962 90.0502 102.923C90.9733 102.881 91.8917 102.762 92.8432 102.464C93.6991 102.102 94.6915 102.501 95.0558 103.357C95.4201 104.212 95.0228 105.204 94.1663 105.571C93.0025 106.214 91.8383 106.641 90.6385 106.936C89.3775 107.251 88.0955 107.304 86.7256 107.236C86.3287 107.213 84.7807 107.059 83.9226 106.726C82.8553 106.306 82.3989 105.442 82.1699 104.757C81.9366 104.018 81.9527 103.029 82.1445 101.951C82.3805 100.645 83.0066 99.1361 83.1636 98.3312C83.7484 96.2379 84.1624 94.0875 84.6128 91.9282C85.0767 89.7002 85.5685 87.4951 86.0959 85.2856C86.3692 84.154 86.6584 83.0481 86.9754 81.9368C87.1101 81.1522 87.8612 80.6243 88.6458 80.7639C89.431 80.8988 89.9577 81.6504 89.823 82.4351C89.495 86.3603 89.5777 90.3486 89.2445 94.3108C89.0981 96.0808 88.8121 97.8217 88.4983 99.5398C88.351 100.139 87.9945 101.09 87.6335 102.073C87.5763 102.229 87.4714 102.421 87.3664 102.613ZM87.0231 103.307C86.9633 103.482 86.9774 103.601 87.1356 103.61C87.1819 103.611 87.0838 103.536 87.0738 103.497C87.0651 103.449 87.0476 103.381 87.0231 103.307ZM86.7205 102.592C86.4961 102.174 86.2261 101.859 86.0639 102.235C85.9491 102.496 86.335 102.57 86.7205 102.592Z" fill="#0959C1"/><path fill-rule="evenodd" clip-rule="evenodd" d="M99.0258 82.5046C98.5186 84.5713 98.0505 86.5825 97.6996 88.6713C97.3616 90.6962 97.1589 92.7262 96.8413 94.7446C96.8193 96.2409 96.4994 98.1931 96.5169 99.9583C96.5274 100.952 96.5993 101.869 96.8037 102.674L97.3765 105.044C97.2463 105.961 97.8862 106.818 98.808 106.949C99.7298 107.08 100.583 106.435 100.713 105.518C100.83 105.13 100.868 104.595 100.918 104.019C100.976 103.336 100.965 102.62 100.968 102.137L102.288 95.1934C102.322 93.9386 102.382 92.6922 102.348 91.4322C102.269 88.5397 101.95 85.7212 101.899 82.8186C101.985 82.0269 101.414 81.3114 100.618 81.2265C99.8254 81.1422 99.111 81.713 99.0258 82.5046Z" fill="#0959C1"/><path fill-rule="evenodd" clip-rule="evenodd" d="M109.713 81.8245C108.912 82.0492 108.307 82.1185 107.732 82.3141C107.156 82.5097 106.659 82.8622 106.071 83.3944C104.055 85.3033 102.561 88.5178 101.775 91.9784C101.423 93.522 101.236 95.117 101.235 96.6304C101.234 98.4164 101.522 100.084 101.915 101.47C102.802 104.096 104.66 105.455 107.017 105.578C109.641 105.711 112.75 104.394 114.15 102.826C114.837 102.2 114.887 101.135 114.262 100.445C113.633 99.7583 112.568 99.7058 111.88 100.337C111.212 100.825 110.088 101.051 108.992 101.139C108.115 101.208 107.139 101.13 106.976 100.172C106.752 99.1763 106.725 97.9974 106.694 96.738C106.65 94.9737 106.683 93.0701 106.972 91.2544C107.302 89.1439 107.749 87.1439 108.756 85.7733C108.941 85.5128 109.077 85.3206 109.303 85.207C109.734 84.9862 110.213 84.8145 110.794 84.5021C111.535 84.2077 111.893 83.3607 111.593 82.6225C111.294 81.8844 110.455 81.5256 109.713 81.8245Z" fill="#0959C1"/><path fill-rule="evenodd" clip-rule="evenodd" d="M114.44 81.3094C114.378 81.169 114.458 80.9359 114.318 80.9349C114.28 80.9341 114.285 80.7845 114.291 80.823C114.317 80.9441 114.449 80.615 114.586 80.5546C115.165 80.2795 115.674 79.7078 116.288 79.3249C117.255 78.7243 118.217 78.3015 118.635 78.0929L120.789 77.374L123.652 76.9909C124.399 76.7161 125.231 77.0928 125.509 77.8421C125.788 78.5867 125.41 79.4213 124.663 79.7007L122.116 81.5201L121.215 82.4169C121 82.5886 120.681 82.9239 120.221 83.2628C119.852 83.5302 119.423 83.8171 118.948 84.0411C117.891 84.5396 116.724 84.9286 115.688 84.9742C114.183 85.0379 112.923 84.9342 112.232 84.0277C112.009 83.7375 111.714 83.5169 111.602 83.1251C111.116 82.3322 111.365 81.2912 112.16 80.8072C112.935 80.3342 113.941 80.5569 114.44 81.3094Z" fill="#0959C1"/><path fill-rule="evenodd" clip-rule="evenodd" d="M122.993 103.446C123.771 101.333 124.352 99.211 124.764 96.9709C125.025 95.5415 125.241 94.1009 125.32 92.6409C125.4 91.2281 125.365 89.8082 125.301 88.3984C125.204 86.2837 124.926 84.2465 124.941 82.1711C125.072 81.2496 124.432 80.3925 123.51 80.2617C122.588 80.1308 121.731 80.7753 121.601 81.6968C121.105 83.4079 120.697 85.1079 120.4 86.8989C120.211 88.0378 120.056 89.1815 119.976 90.3453C119.918 91.1925 119.907 92.0417 119.915 92.8889C119.919 93.7309 119.968 94.5651 120.012 95.4033C120.148 97.9232 120.362 100.356 120.17 102.834C120.001 103.613 120.498 104.384 121.274 104.551C122.054 104.723 122.824 104.226 122.993 103.446Z" fill="#0959C1"/></svg>