<svg width="215" height="70" viewBox="0 0 215 70" fill="none" xmlns="http://www.w3.org/2000/svg"><path fill-rule="evenodd" clip-rule="evenodd" d="M2.63837 15.3465C2.18431 19.8946 1.7563 24.4142 1.47883 28.9723C1.2944 31.9986 1.1211 35.0168 1.0783 38.0477C1.03592 41.066 1.09605 44.0836 1.19377 47.1025C1.34049 51.6328 1.66491 56.1272 1.80147 60.6614C1.77057 61.5931 2.50086 62.3744 3.43087 62.4052C4.36089 62.436 5.14134 61.7049 5.17223 60.7732C5.53802 57.134 5.89545 53.5196 6.13199 49.8677C6.28881 47.4471 6.41847 45.0255 6.47418 42.6015C6.51552 40.7877 6.50921 38.9722 6.47868 37.156C6.44801 35.344 6.37836 33.5348 6.29673 31.7211C6.05153 26.2882 5.69437 20.8893 5.52744 15.4423C5.5539 14.6443 4.9282 13.9753 4.13105 13.9489C3.33348 13.9224 2.66484 14.5485 2.63837 15.3465Z" fill="#0959C1"/><path fill-rule="evenodd" clip-rule="evenodd" d="M4.48377 15.6189C4.50451 15.5736 4.53013 15.495 4.55993 15.4793C3.88016 16.1134 2.81227 16.078 2.17642 15.4002C1.5407 14.7183 1.57604 13.6529 2.25553 13.0146C2.64677 12.442 4.08997 11.7036 6.15526 10.9983C6.83302 10.7656 7.57023 10.5559 8.3654 10.415C8.90517 10.3199 9.4664 10.2716 10.025 10.2525C10.589 10.2336 11.1404 10.256 11.6864 10.2992C13.9319 10.4657 15.7783 10.849 16.4866 10.8558C17.2682 10.6977 18.0318 11.204 18.1909 11.983C18.3497 12.7662 17.8444 13.5274 17.0623 13.6897C16.4505 13.9622 14.919 14.5011 12.9384 15.0377C12.0998 15.265 11.2202 15.5161 10.2998 15.6487C9.52235 15.7609 8.7372 15.7893 7.99729 15.8024C7.15573 15.8163 6.41008 15.7246 5.74468 15.7235C5.33943 15.7226 5.01047 15.6657 4.72024 15.6895C4.64476 15.6954 4.53725 15.6333 4.48377 15.6189ZM4.48377 15.6189C4.4718 15.652 4.46082 15.6683 4.45301 15.6388C4.44716 15.6135 4.46009 15.614 4.48377 15.6189Z" fill="#0959C1"/><path fill-rule="evenodd" clip-rule="evenodd" d="M16.7922 32.8228C15.7608 32.5711 13.9574 31.9258 11.8151 31.5076C11.2345 31.3963 10.6464 31.3224 10.046 31.29C9.4302 31.257 8.81133 31.2658 8.21808 31.3465C7.30147 31.4666 6.44766 31.6725 5.69262 31.9779C3.72664 32.7785 2.30674 33.7477 1.90479 35.1356C1.46151 35.9532 1.7654 36.9796 2.58351 37.4208C3.4019 37.8662 4.42587 37.5614 4.86957 36.7438C4.95339 36.6504 5.11662 36.798 5.24668 36.7479C5.54288 36.6323 5.89411 36.7359 6.28891 36.6988C6.91921 36.6361 7.60552 36.7383 8.35503 36.7381C8.84273 36.7375 9.34578 36.7291 9.85116 36.6873C10.7472 36.6208 11.625 36.4827 12.4786 36.373C14.2923 36.1403 15.7963 35.8765 16.6965 35.7098C17.4936 35.7362 18.1623 35.1101 18.1887 34.3121C18.2151 33.5183 17.5894 32.8493 16.7922 32.8228Z" fill="#0959C1"/><path fill-rule="evenodd" clip-rule="evenodd" d="M28.8172 32.5157C28.8383 32.37 28.8584 32.2076 28.8682 32.0615C29.1043 28.6146 28.5296 21.3514 28.8505 16.87C29.0308 14.3581 29.6545 12.551 30.3934 11.9147C31.2976 11.1458 32.3346 10.6616 33.4902 10.4113C35.3834 10.0015 37.5809 10.2416 39.4648 9.74783C40.226 9.50957 41.0375 9.93382 41.2758 10.6946C41.5139 11.4595 41.0897 12.2694 40.3286 12.5077C38.4812 13.1867 36.2506 13.1755 34.3847 13.7703C33.8927 13.9254 33.4475 14.1574 33.0698 14.5004C33.0571 14.5669 32.9913 14.9119 32.9599 15.166C32.8451 16.1033 32.8917 17.3721 32.9726 18.8052C33.2264 23.2973 34.0633 29.214 34.035 32.2621C34.0242 33.4078 33.799 34.3079 33.5293 34.9347L33.4259 42.3553C33.3005 44.8732 33.519 47.8584 33.3313 50.6419C33.2417 51.969 33.0677 53.2556 32.7625 54.4375C33.3516 54.5323 33.9585 54.5818 34.5767 54.5939C38.3245 54.6763 42.3791 53.8028 45.7275 54.0728C46.6579 54.1037 47.3878 54.8849 47.3571 55.8124C47.3262 56.744 46.5461 57.4752 45.6157 57.4444C42.289 57.493 38.3775 58.777 34.6726 59.018C32.7319 59.146 30.854 58.9666 29.105 58.3941C28.3167 58.138 27.6347 57.4671 27.4438 56.2478C27.3348 55.5499 27.8631 53.6686 27.9018 53.4733C28.0941 52.5177 28.1388 51.486 28.1588 50.416C28.2105 47.6447 27.9361 44.6827 27.9778 42.1746L28.2745 34.0495C28.2886 33.4727 28.4868 32.9439 28.8172 32.5157ZM32.2535 55.3826C32.1023 55.6787 32.0244 55.948 32.2438 55.9804C32.549 56.0198 32.4307 55.7022 32.2535 55.3826Z" fill="#0959C1"/><path fill-rule="evenodd" clip-rule="evenodd" d="M46.0798 28.0093C44.0757 27.9931 42.3459 28.0402 40.6442 28.2724C39.3817 28.4438 38.1883 28.6887 37.0366 29.098C35.8896 29.5075 34.7967 30.0609 33.7386 30.7411C32.2925 31.6676 30.9951 32.8166 29.5049 34.1265C28.7141 34.6148 28.47 35.6565 28.9603 36.4465C29.4507 37.2365 30.4908 37.4801 31.2815 36.9919C32.6408 36.4514 33.8772 36.07 35.0957 35.6253C35.9347 35.3227 36.7431 35.0609 37.5367 34.7526C38.1316 34.5214 38.7109 34.2687 39.2916 34.0119C39.8756 33.7552 40.4396 33.4728 41.03 33.1996C42.7356 32.4071 44.4365 31.5894 46.5524 30.8607C47.3396 30.732 47.8724 29.9885 47.7421 29.2021C47.6115 28.4114 46.8666 27.8807 46.0798 28.0093Z" fill="#0959C1"/><path fill-rule="evenodd" clip-rule="evenodd" d="M56.6032 17.6561C56.5813 18.1907 56.5644 18.7381 56.5279 19.1969C56.2389 22.8387 56.3999 26.9262 56.3861 27.1808L55.6058 39.5478L54.384 57.3458C54.3577 58.1396 53.6886 58.7658 52.8914 58.7393C52.0943 58.7129 51.4686 58.0438 51.4949 57.25L51.4546 39.4102L51.4954 27.0187C51.4988 26.726 51.0463 21.4536 51.3868 17.4287C51.5745 15.2098 52.0994 13.32 52.7739 12.3009C53.5031 11.2 54.4788 10.6845 55.5071 10.5638C56.5716 10.436 58.1572 10.7897 59.8131 12.8188C61.2042 14.5714 62.3596 16.4709 63.3047 18.4806C64.216 20.4139 64.9363 22.4412 65.5564 24.4903C66.0519 26.1714 66.4437 28.3174 66.7164 30.7147C67.3071 35.9081 67.4622 42.3167 67.8318 47.302C68.0435 50.149 68.2588 52.4983 68.7747 53.7409C69.1629 54.5861 68.7916 55.5902 67.9461 55.9762C67.1004 56.3664 66.0985 55.9944 65.7099 55.1492C65.0826 53.9112 64.5608 51.6856 64.1276 48.9191C63.0445 41.9904 62.4468 31.3594 60.5837 26.082C59.979 24.2886 59.27 22.5251 58.431 20.8327C57.8885 19.7356 57.289 18.6701 56.6032 17.6561ZM56.7647 15.8127C57.1642 15.6963 57.5104 15.5238 57.2419 15.3351C56.9982 15.168 56.8534 15.3849 56.7647 15.8127Z" fill="#0959C1"/><path fill-rule="evenodd" clip-rule="evenodd" d="M77.9746 30.6157C75.5059 30.7973 72.7661 30.8821 69.9201 31.252C69.0148 31.3726 68.1139 31.5225 67.2182 31.7312C66.3137 31.9396 65.4178 32.1944 64.5545 32.5087C63.3519 32.954 62.2091 33.4891 61.1324 34.0975C59.3553 35.1051 57.7985 36.2413 56.4714 37.5524C55.7256 38.1091 55.5726 39.1664 56.1296 39.9126C56.6868 40.6547 57.744 40.811 58.4894 40.2544C59.6391 39.6233 60.9107 39.2179 62.2572 38.7732C63.4844 38.3664 64.7678 38.0702 66.0712 37.7035C66.927 37.46 67.7851 37.1999 68.6404 36.9229C69.9621 36.4941 71.2547 36.0225 72.5446 35.5802C74.689 34.8482 76.6894 34.1074 78.5553 33.4498C79.3369 33.2875 79.8411 32.5263 79.6805 31.743C79.5204 30.9598 78.7557 30.4576 77.9746 30.6157Z" fill="#0959C1"/><path fill-rule="evenodd" clip-rule="evenodd" d="M81.6174 50.1737C81.8222 50.0885 82.6859 49.7115 83.2274 49.3112C83.4713 49.131 83.7058 48.9213 83.9448 48.7034C84.4373 48.2555 84.894 47.7269 85.3064 47.1717C86.0786 46.135 86.6773 44.9544 86.4981 43.8903C86.2677 42.423 85.7309 41.0793 85.0978 39.7659C83.7098 36.8967 81.6432 34.2727 79.7141 31.5779C77.4936 28.4761 75.4758 25.289 74.4538 21.8129C73.7699 19.3685 73.6767 14.5723 74.7686 12.2705C75.3693 11.0064 76.2349 10.2446 77.2615 10.0862C78.175 9.94502 79.5634 10.2294 81.0872 11.8652C81.2228 11.7985 81.3621 11.7362 81.5051 11.6741C82.0547 11.433 82.6471 11.2017 83.2961 10.9932C84.0412 10.7084 84.8776 11.0791 85.1623 11.8247C85.4471 12.5702 85.0735 13.4069 84.3283 13.6917C83.802 13.9252 83.3249 14.1729 82.8849 14.426C82.4032 14.6986 81.982 14.9899 81.602 15.2868C80.8974 15.7737 79.9363 15.6331 79.3996 14.967C78.9229 14.4326 78.5098 14.0634 78.1481 13.8339C78.1129 14.1255 78.1349 14.5737 78.1069 14.874C77.9389 16.6752 78.3041 19.0421 78.8122 20.3681C79.7554 22.9172 81.4425 25.1523 83.1752 27.4139C85.0667 29.8816 87.0849 32.3242 88.6401 34.9438C90.1635 37.5122 91.2366 40.2539 91.5577 43.2341C91.6993 44.7404 91.3536 46.3601 90.5162 47.8757C89.5724 49.5843 88.1091 51.2088 86.5278 52.34C84.8372 53.5512 83.0642 54.2578 81.7222 54.2259C80.5357 54.1991 79.5423 53.8232 78.8745 52.9854C78.3716 52.676 77.8601 52.2575 77.3754 51.6642C76.8109 50.9763 76.2291 50.0703 75.6895 48.8729C75.2597 48.0473 75.5813 47.029 76.4065 46.6005C77.2317 46.172 78.2509 46.4902 78.6806 47.3159C79.0756 47.9814 79.4744 48.5049 79.8527 48.9274C80.2318 49.3498 80.5973 49.6045 80.9463 49.7248C81.2011 49.8253 81.4297 49.9793 81.6174 50.1737ZM78.0289 13.7588C77.9673 13.7233 77.9069 13.692 77.8484 13.665C77.8187 13.6515 77.7669 13.6246 77.7602 13.6495C77.7342 13.7532 77.8739 13.7788 78.0289 13.7588ZM78.164 13.734C78.3313 13.6936 78.4649 13.6143 78.3668 13.5567C78.254 13.4902 78.1947 13.5761 78.164 13.734Z" fill="#0959C1"/><path fill-rule="evenodd" clip-rule="evenodd" d="M98.0227 8.83C97.5728 13.4159 96.8719 18.0561 96.4385 22.7262C96.1432 25.9034 96.0078 29.0777 95.9919 32.2183C96.0471 33.8722 96.1941 35.5291 96.477 37.1781C96.9036 39.6641 97.5534 42.1282 98.1902 44.5919C99.1023 48.1146 100.061 51.5886 100.176 55.1517C100.145 56.0834 100.874 56.8646 101.804 56.8955C102.734 56.9263 103.515 56.1952 103.546 55.2635C103.797 52.8209 103.717 50.3715 103.473 47.8915C103.204 45.1681 102.759 42.4389 102.314 39.718C101.894 37.1486 101.452 34.5951 101.4 32.0379C101.247 29.7868 101.211 27.5103 101.166 25.2168C101.058 19.7718 101.069 14.2888 100.911 8.9258C100.938 8.12781 100.312 7.45879 99.5149 7.43235C98.7178 7.40592 98.0492 8.03202 98.0227 8.83Z" fill="#0959C1"/><path fill-rule="evenodd" clip-rule="evenodd" d="M115.054 24.6247C118.542 28.8435 120.591 34.5955 120.739 40.3346C120.95 48.5143 117.334 56.5001 109.521 60.0722C108.703 60.4508 107.748 60.3773 106.995 59.8839C106.242 59.3904 105.797 58.5434 105.819 57.6407C106.22 48.9417 104.246 34.1245 105.469 22.4624C106.124 16.2062 107.704 10.8338 110.792 7.55254L110.612 7.55077C111.213 6.97261 112.241 6.90215 112.94 7.39378L112.94 7.20553C117.997 11.125 120.197 14.9203 119.462 18.493C119.056 20.4704 117.672 22.5199 115.054 24.6247ZM110.951 27.3746C110.725 27.5051 110.493 27.6355 110.257 27.7657C109.886 27.9583 109.478 28.0452 109.074 28.0234C109.18 36.4882 110.393 45.7467 110.854 52.9057C114.072 49.7584 115.397 45.1012 115.328 40.448C115.258 35.6985 113.772 30.8435 110.951 27.3746ZM111.96 10.8704C110.514 13.2775 109.759 16.4647 109.384 20.0618C109.656 20.1168 109.921 20.2177 110.165 20.3721C110.781 20.7397 111.375 21.1442 111.944 21.5897C113.98 20.2686 115.182 18.9951 115.55 17.5811C115.875 16.3329 115.425 15.08 114.48 13.7228C113.837 12.8022 112.992 11.854 111.96 10.8704Z" fill="#0959C1"/><path fill-rule="evenodd" clip-rule="evenodd" d="M133.34 57.272L133.36 56.9046C133.504 54.5713 133.148 48.75 133.119 47.7536C133.118 44.0018 132.903 40.1426 132.857 36.2263C132.816 32.6572 132.877 29.0497 132.891 25.449C132.913 19.9372 132.995 14.4859 132.882 9.21634C132.817 8.42369 133.41 7.72396 134.205 7.65832C134.999 7.59266 135.698 8.18884 135.763 8.9815C136.417 13.5078 137.058 18.1716 137.523 22.9216C137.826 26.0267 138.082 29.1512 138.215 32.2716C138.303 34.3658 138.339 36.454 138.304 38.5274C138.25 41.7127 138.016 44.8461 137.794 47.9086C137.696 48.9343 137.319 54.9781 136.851 57.3549C136.687 58.186 136.475 58.7478 136.307 58.9681C135.807 59.6165 135.254 59.8282 134.758 59.7741C133.828 59.7433 133.098 58.9662 133.129 58.0345C133.138 57.7588 133.213 57.4978 133.34 57.272ZM134.449 56.4471C134.223 56.4856 133.998 56.5702 133.798 56.7434C133.988 56.5992 134.209 56.4977 134.449 56.4471Z" fill="#0959C1"/><path fill-rule="evenodd" clip-rule="evenodd" d="M145.462 58.3411C145.72 58.4082 146.042 58.4816 146.308 58.503C147.495 58.6009 148.933 58.544 150.378 58.3912C153.365 58.0762 156.362 57.4604 157.258 57.1053C158.104 56.7151 159.106 57.0871 159.494 57.9323C159.882 58.7775 159.511 59.7815 158.665 60.1675C157.376 60.8442 151.995 62.5771 147.842 62.9999C146.356 63.1513 145.013 63.0859 143.993 62.868C142.956 62.6412 142.189 62.1599 141.641 61.6189C141.089 61.0694 140.565 59.7262 140.482 57.8873C140.349 54.9593 141.046 50.1224 141.055 49.0059C141.218 45.3935 141.279 41.786 141.43 38.1857C141.784 29.7278 142.259 21.3242 142.618 12.8331C142.616 12.0383 143.262 11.3864 144.06 11.3836C144.857 11.3849 145.506 12.0296 145.508 12.8285C145.869 20.1181 146.306 27.3474 146.519 34.6153C146.591 37.0393 146.635 39.4667 146.63 41.8965C146.625 44.3222 146.548 46.7539 146.48 49.1858C146.411 50.3463 145.298 55.7383 145.462 58.3411ZM145.484 58.6011L145.485 58.6053C145.492 58.6725 145.446 58.8006 145.499 58.7856C145.6 58.7597 145.565 58.6874 145.484 58.6011Z" fill="#0959C1"/><path fill-rule="evenodd" clip-rule="evenodd" d="M164.967 12.5798C164.509 17.1737 164.191 21.7263 164.066 26.2978C163.982 29.3441 163.931 32.3747 164.009 35.4097C164.088 38.4279 164.269 41.437 164.469 44.4466C164.767 48.9485 165.202 53.4131 165.338 57.9389C165.307 58.8664 166.037 59.6477 166.967 59.6785C167.897 59.7094 168.678 58.9782 168.708 58.0507C169.077 54.3781 169.362 50.7363 169.492 47.06C169.578 44.6244 169.62 42.1916 169.581 39.7519C169.553 37.9358 169.472 36.1221 169.37 34.3034C169.266 32.4973 169.126 30.6942 168.977 28.8824C168.536 23.4932 168.023 18.131 167.856 12.6756C167.882 11.8776 167.257 11.2086 166.459 11.1822C165.662 11.1557 164.993 11.7818 164.967 12.5798Z" fill="#0959C1"/><path fill-rule="evenodd" clip-rule="evenodd" d="M190.484 10.5205C188.786 10.3847 187.225 10.2994 185.601 10.3334C184.542 10.3568 183.513 10.3771 182.479 10.5185C181.483 10.6528 180.514 10.8799 179.54 11.1111C178.094 11.4521 176.747 11.9512 175.217 12.1807C174.286 12.1498 173.506 12.8768 173.475 13.8085C173.444 14.7401 174.174 15.5172 175.106 15.5481C176.484 15.8656 177.77 16.063 179.13 16.1458C180.019 16.2004 180.898 16.1919 181.783 16.1083C182.425 16.0501 183.061 15.9332 183.693 15.7869C184.308 15.6441 184.908 15.4633 185.517 15.2576C187.276 14.676 188.919 13.9609 190.799 13.3959C191.592 13.3093 192.164 12.5963 192.077 11.8029C191.99 11.0096 191.277 10.438 190.484 10.5205Z" fill="#0959C1"/><path fill-rule="evenodd" clip-rule="evenodd" d="M185.055 52.2561C185.68 48.3076 186.27 44.3788 186.695 40.3986C186.979 37.7563 187.238 35.1215 187.36 32.4655C187.481 29.8219 187.485 27.1787 187.434 24.5337C187.357 20.5577 187.07 16.6166 186.913 12.6463C186.943 11.7188 186.212 10.9375 185.285 10.9068C184.353 10.8759 183.572 11.607 183.541 12.5345C183.193 15.7059 182.817 18.8471 182.536 22.0248C182.349 24.1308 182.179 26.2332 182.072 28.3418C181.994 29.9202 181.959 31.5 181.94 33.0762C181.925 34.6567 181.94 36.234 181.967 37.8117C182.047 42.5658 182.209 47.2765 182.173 52.0225C182.109 52.8192 182.701 53.5164 183.497 53.5805C184.294 53.6445 184.991 53.0528 185.055 52.2561Z" fill="#0959C1"/><path fill-rule="evenodd" clip-rule="evenodd" d="M200.697 10.394C200.797 12.3255 201.026 14.6125 201.412 17.0888C201.633 18.4931 201.849 19.9391 202.182 21.368C202.508 22.7674 202.919 24.1361 203.31 25.454C203.96 27.6589 204.69 29.6238 204.862 31.3736C204.831 32.3053 205.562 33.0866 206.49 33.1173C207.421 33.1482 208.202 32.4171 208.233 31.4854C208.518 29.8344 208.578 27.9166 208.43 25.7953C208.352 24.6258 208.204 23.4122 207.965 22.1871C207.793 21.3198 207.562 20.4506 207.302 19.5929C207.042 18.7436 206.739 17.9096 206.423 17.0919C205.379 14.3846 204.231 11.9333 203.535 9.84818C203.385 9.06527 202.624 8.55069 201.841 8.70457C201.058 8.85428 200.544 9.61098 200.697 10.394Z" fill="#0959C1"/><path fill-rule="evenodd" clip-rule="evenodd" d="M211.288 8.42914C210.151 12.2101 208.294 15.8417 206.466 19.4031C205.164 21.9364 203.861 24.4111 202.769 26.8258C201.988 28.5482 201.342 30.2457 200.827 31.8933C199.981 35.0942 199.581 38.565 199.581 42.1243C199.577 47.0303 200.234 52.0543 200.351 56.7217C200.32 57.6492 201.047 58.4304 201.979 58.4613C202.911 58.4922 203.688 57.7609 203.719 56.8334C204.194 51.4662 204.239 45.5579 204.858 40.0031C205.114 37.707 205.427 35.4713 206.052 33.3841C206.702 30.8083 207.787 28.1047 208.91 25.2769C210.001 22.5317 211.128 19.6874 212.098 16.7876C212.952 14.2437 213.669 11.6784 214.106 9.09141C214.287 8.31527 213.802 7.538 213.026 7.35333C212.25 7.17284 211.473 7.65313 211.288 8.42914Z" fill="#0959C1"/></svg>