<svg width="182" height="152" viewBox="0 0 182 152" fill="none" xmlns="http://www.w3.org/2000/svg"><path fill-rule="evenodd" clip-rule="evenodd" d="M177.466 138.897C171.283 140.938 165.772 142.129 160.199 142.789C154.561 143.46 148.872 143.549 142.377 143.363C120.306 142.843 102.187 138.655 88.1451 128.982C80.8482 123.957 74.747 117.385 69.6909 109.039C65.2866 101.773 61.6189 93.2075 58.8768 83.0645C56.3006 73.9666 54.9276 64.19 51.9464 55.0805C50.5541 50.8343 48.8456 46.727 46.5779 42.8704C43.1917 37.1509 39.3544 32.5384 35.2123 28.4503C29.0339 22.3568 22.2501 17.4549 15.7516 11.3344C14.3015 9.8843 11.9489 9.8843 10.4988 11.3344C9.0525 12.7807 9.0525 15.1332 10.4988 16.5833C16.5614 23.0201 22.9674 28.2729 28.7292 34.6556C32.1154 38.4043 35.2393 42.5695 37.9004 47.6912C39.6436 51.0118 40.8662 54.5329 41.8805 58.1389C44.4336 67.2522 45.4518 76.9401 47.6578 86.0149C50.5811 97.4306 54.4648 107.157 59.4399 115.283C65.4794 125.156 73.0153 132.773 81.8741 138.435C97.7443 148.574 117.996 152.457 142.377 151.883C149.296 151.686 155.344 151.243 161.294 150.182C167.257 149.118 173.115 147.475 179.637 144.879C181.287 144.278 182.14 142.449 181.542 140.799C180.94 139.148 179.112 138.296 177.466 138.897Z" fill="#0959C1"/><path fill-rule="evenodd" clip-rule="evenodd" d="M13.8699 14.8878C15.0809 19.5968 16.7509 25.5862 18.2704 31.4792C20.7464 41.1094 22.7519 50.4503 22.532 54.0987C22.532 56.1466 20.8698 57.8088 18.8219 57.8088C16.774 57.8088 15.108 56.1466 15.108 54.0987C14.9151 50.8244 11.7758 42.8372 8.70587 34.4527C5.83265 26.6082 2.88231 18.5285 1.43221 13.5534C0.599167 10.6917 0.336921 8.52815 0.379344 7.47913C0.464191 5.23068 1.48234 3.89239 2.24596 3.11334C3.34896 1.99105 5.08833 1.00375 7.66073 0.961331C10.2678 0.918907 15.5322 2.40758 21.8494 5.43893C27.6537 8.22345 34.6188 12.2035 41.4104 16.4227C53.8751 24.1631 65.6804 32.6787 68.9585 35.7872C70.3007 36.921 70.4703 38.9304 69.3365 40.2725C68.2026 41.6108 66.1933 41.7804 64.8512 40.6466C61.0601 37.7888 46.6053 30.2335 32.8216 23.4844C25.8487 20.0673 19.0572 16.901 13.8699 14.8878ZM9.06842 12.9633C8.3935 12.6586 7.87286 12.5121 7.82658 12.9402C7.74559 13.7192 8.37036 13.4647 9.06842 12.9633ZM12.4661 9.46533C13.0832 8.56287 13.3724 7.73366 12.2926 7.80308C11.8645 7.83007 12.1576 8.58986 12.4661 9.46533Z" fill="#0959C1"/></svg>