<svg width="121" height="486" viewBox="0 0 121 486" fill="none" xmlns="http://www.w3.org/2000/svg"><path fill-rule="evenodd" clip-rule="evenodd" d="M4.67658 13.9029C6.1344 19.4179 8.17075 23.3147 10.5349 26.24C13.5778 30.0064 17.1414 32.1947 20.7242 34.0845C25.6145 36.6626 30.6089 38.5717 33.9758 44.6494C34.9168 46.329 35.4336 47.4902 35.7036 48.6954C35.9928 49.9743 36.0275 51.2906 36.0622 53.2498C36.0622 54.1476 36.7911 54.8761 37.6859 54.8761C38.5845 54.8761 39.3134 54.1476 39.3134 53.2498C39.352 50.9952 39.3404 49.4803 39.055 47.9985C38.7696 46.5072 38.2104 45.0486 37.1151 42.9506C34.0683 37.1652 29.8106 34.4169 25.2597 32.0138C23.0884 30.8688 20.8592 29.7997 18.6763 28.4514C16.7789 27.2771 14.9006 25.9052 13.1651 23.9939C10.8665 21.4647 8.77624 18.0735 7.10244 13.1694C6.89804 12.4995 6.19228 12.1203 5.52121 12.3228C4.85015 12.5253 4.47217 13.2334 4.67658 13.9029Z" fill="#0959C1"/><path fill-rule="evenodd" clip-rule="evenodd" d="M14.4505 9.98011C20.6404 12.6987 25.4227 15.737 29.1443 18.9507C32.2528 21.6365 34.5668 24.4719 36.256 27.4593C40.8724 35.6154 40.7182 44.9597 38.6163 54.9669C38.4196 55.8432 38.9711 56.7125 39.8505 56.9072C40.7259 57.102 41.5936 56.5486 41.7903 55.6727C44.3396 44.7738 44.7252 34.451 39.6692 25.5271C37.7678 22.1706 35.0836 19.012 31.4622 16.1465C27.3896 12.9243 22.1021 10.0885 15.3953 7.6287C14.7474 7.36761 14.0069 7.68231 13.7485 8.331C13.4863 8.98008 13.8025 9.71901 14.4505 9.98011Z" fill="#0959C1"/><path fill-rule="evenodd" clip-rule="evenodd" d="M50.8964 1.09037C50.3488 1.64419 49.8435 2.22385 49.3537 2.82356C47.5218 5.06428 46.0177 7.55145 44.0238 9.59355C42.62 11.1783 40.7881 12.7618 39.338 14.549C38.2041 15.9474 37.2939 17.4623 36.8195 19.0968C36.4802 20.2758 36.3182 21.5045 36.2719 22.7513C36.2063 24.4348 36.3375 26.1448 36.3876 27.7704C36.3876 28.6679 37.1165 29.3964 38.0112 29.3964C38.9099 29.3964 39.6388 28.6679 39.6388 27.7704C39.6851 26.2181 39.6542 24.5809 39.8008 22.9793C39.8856 22.0267 40.0476 21.0907 40.3523 20.2013C40.6415 19.3378 41.1313 18.5491 41.6983 17.7886C42.566 16.6231 43.6497 15.5617 44.6795 14.5031C45.4624 13.6943 46.2105 12.8829 46.8739 12.0888C47.3675 11.4733 47.8381 10.8404 48.27 10.1759C49.8436 7.75546 51.0391 5.07123 52.8132 2.74797C53.2683 2.21845 53.2104 1.41742 52.6821 0.960018C52.1537 0.502617 51.3515 0.561237 50.8964 1.09037Z" fill="#0959C1"/><path fill-rule="evenodd" clip-rule="evenodd" d="M33.7272 21.8711C32.9212 19.7657 31.9185 17.2261 31.4209 14.6988C31.2744 13.9611 31.178 13.2283 31.1548 12.5028C31.1317 11.8287 31.1587 11.1611 31.3322 10.5113C31.8182 8.56403 32.9173 6.88484 33.6231 5.03249C33.9818 4.08413 34.2633 3.10416 34.3713 2.05051C34.4986 1.16232 33.8815 0.337382 32.9944 0.209341C32.1036 0.0816852 31.2783 0.699134 31.151 1.58771C31.0121 2.33899 30.7306 3.01892 30.4221 3.68265C29.5196 5.62526 28.2778 7.39315 27.6221 9.46225C27.3136 10.4997 27.1747 11.5722 27.2249 12.6571C27.2711 13.6471 27.4486 14.6506 27.7532 15.6306C28.5901 18.3083 30.2138 20.8352 31.4402 22.961C31.7411 23.5923 32.497 23.8611 33.1295 23.5603C33.762 23.2595 34.028 22.5024 33.7272 21.8711Z" fill="#0959C1"/><path fill-rule="evenodd" clip-rule="evenodd" d="M0.352171 16.8739C1.81385 19.1374 2.99784 22.1853 4.73335 24.6092C5.61653 25.8379 6.66554 26.8723 7.81483 27.681C9.03354 28.4743 10.3217 29.0289 11.6561 29.4304C14.3134 30.2287 17.1441 30.393 19.678 31.6603C20.4686 32.0865 21.4559 31.7915 21.884 31.0016C22.3082 30.2118 22.0151 29.2245 21.2245 28.7979C18.6058 27.2761 15.6285 26.8133 12.8362 25.824C11.8528 25.4762 10.8963 25.0546 10.0054 24.4318C9.14926 23.878 8.41263 23.1082 7.69529 22.2771C5.78238 20.0599 4.10857 17.3533 2.37692 15.3528C1.95655 14.7932 1.16208 14.6794 0.602864 15.0994C0.043646 15.519 -0.0682069 16.3143 0.352171 16.8739Z" fill="#0959C1"/><path fill-rule="evenodd" clip-rule="evenodd" d="M52.3092 35.161C52.7681 33.7472 53.4623 32.5856 54.2606 31.5115C55.5449 29.7737 57.1647 28.3305 58.8424 26.7477C59.4826 26.1114 59.9917 25.4018 60.5933 24.7588C60.7669 24.5737 60.952 24.3952 61.1603 24.2351C62.4291 23.2304 63.7828 22.3847 65.0825 21.4325C65.688 20.9893 66.282 20.5254 66.8528 20.0209C67.8632 19.1185 68.7657 18.0783 69.5949 16.9641C70.7287 15.4423 71.7353 13.7959 72.7998 12.2926C73.3397 11.5745 73.1931 10.5544 72.4758 10.016C71.7585 9.47758 70.7364 9.62298 70.2003 10.3411C69.0703 11.7623 67.9866 13.3238 66.7949 14.7635C66.066 15.6436 65.2946 16.4713 64.4269 17.1728L58.7576 21.1262C58.368 21.4336 58.0171 21.7665 57.7008 22.1247C57.1377 22.7611 56.6904 23.4781 56.1041 24.1179C54.4535 26.0196 52.8491 27.7632 51.6651 29.8049C50.8436 31.2168 50.1995 32.7418 49.8524 34.5255C49.6789 35.2027 50.0877 35.895 50.7626 36.0704C51.4414 36.2459 52.1318 35.8383 52.3092 35.161Z" fill="#0959C1"/><path fill-rule="evenodd" clip-rule="evenodd" d="M41.7138 239.874C40.7573 243.179 39.2918 245.782 37.564 247.995C35.061 251.205 31.9873 253.561 29.1526 256.084C26.6188 258.342 24.2778 260.738 22.9511 264.274C21.7902 267.375 21.9059 269.287 22.8508 270.694C23.8959 272.251 25.6623 273.221 27.2166 274.401C29.2799 275.963 31.0501 277.788 31.6208 280.643C31.9795 282.44 31.914 284.149 31.617 285.811C31.0115 289.186 29.2992 292.328 28.9598 295.714C28.3543 301.751 27.7719 313.293 30.4562 321.789C32.184 327.266 35.277 331.489 41.1314 331.165C46.1258 330.891 49.4772 327.304 52.5548 322.819C57.0826 316.208 60.9277 307.643 66.8554 302.27C71.3445 298.207 76.9521 295.843 84.758 297.15C88.5992 297.793 91.0945 299.954 92.7799 302.915C94.4113 305.776 95.2443 309.444 95.8498 313.065C96.4399 316.594 96.8101 320.069 97.728 322.503C99.3092 326.702 101.704 331.088 102.73 335.584C103.49 338.901 103.54 342.28 102.202 345.697C101.912 346.437 101.523 347.097 101.068 347.71C100.297 348.751 99.3246 349.634 98.4376 350.571C97.782 351.258 97.161 351.968 96.8641 352.905C96.2702 354.775 96.8487 356.892 96.6443 358.829C96.517 360.02 96.1776 361.158 95.4525 362.203C93.9986 364.297 92.0355 365.74 89.8179 366.854C85.5062 369.022 80.103 369.758 76.5279 372.901C76.1577 373.229 75.9918 373.488 75.9764 373.781C75.9494 374.321 76.0882 374.857 76.1268 375.447C76.1769 376.241 76.1229 377.09 75.7527 378.046C75.1626 379.581 73.5814 380.954 72.6211 382.458C72.4051 382.802 72.2161 383.149 72.2123 383.546C72.2007 385.22 72.8486 386.284 73.8437 387.04C75.7026 388.444 78.4331 389.026 80.7239 390.041C82.8258 390.97 84.6037 392.22 85.5679 394.194C85.9458 394.962 86.1426 395.76 86.2197 396.574C86.3393 397.885 86.1194 399.25 85.969 400.604C85.861 401.56 85.7723 402.513 86.1271 403.412C86.428 404.171 86.9679 404.773 87.5811 405.305C88.7767 406.343 90.246 407.141 91.4532 408.009C91.9815 408.394 92.4906 408.811 92.965 409.258C93.4471 409.717 93.8983 410.207 94.3033 410.735C95.8613 412.745 96.5479 414.742 96.7446 416.748C96.976 419.054 96.5286 421.38 96.0195 423.756C95.603 425.726 95.1402 427.739 95.1864 429.834C95.2096 430.948 95.4024 432.024 95.6647 433.089C96.3704 435.919 97.5351 438.654 97.9169 441.562C98.0481 442.572 98.507 443.49 99.0817 444.373C100.752 446.919 103.297 449.217 104.419 451.878C106.228 456.171 107.964 460.521 109.178 465.003C110.004 468.045 110.594 471.15 110.814 474.336C110.926 475.971 111.786 477.24 112.919 478.316C114.94 480.24 117.798 481.582 119.942 482.898C120.706 483.364 120.949 484.363 120.482 485.13C120.016 485.898 119.013 486.141 118.245 485.674C115.924 484.259 112.858 482.766 110.663 480.695C108.928 479.052 107.709 477.062 107.532 474.567C107.32 471.597 106.756 468.709 105.981 465.878C104.793 461.539 103.096 457.336 101.334 453.186C100.277 450.698 97.8283 448.604 96.2625 446.224C95.3947 444.905 94.7622 443.517 94.5578 442.001C94.1914 439.225 93.0422 436.618 92.3595 433.918C92.0317 432.61 91.8003 431.28 91.7694 429.911C91.6769 425.985 93.1617 422.305 93.3468 418.696C93.4432 416.744 93.0846 414.808 91.5689 412.86C91.2681 412.475 90.9364 412.116 90.5816 411.781C90.219 411.437 89.8295 411.121 89.4246 410.832C88.1364 409.906 86.5745 409.042 85.3018 407.939C84.2567 407.037 83.3927 405.984 82.8798 404.696C82.5751 403.925 82.4324 403.134 82.3977 402.328C82.336 401.044 82.5751 399.717 82.6986 398.413C82.7834 397.495 82.8335 396.585 82.417 395.741C81.638 394.156 79.9256 393.473 78.1593 392.798C75.8915 391.938 73.4734 391.194 71.7109 389.863C69.8906 388.494 68.6487 386.585 68.6603 383.527C68.6641 382.462 69.0305 381.475 69.6206 380.549C70.4536 379.238 71.9076 378.104 72.4205 376.766C72.7483 375.91 72.5015 375.215 72.436 374.556C72.3704 373.893 72.3781 373.249 72.5671 372.589C72.7831 371.833 73.2189 371.043 74.156 370.213C77.9471 366.866 83.6203 365.933 88.1904 363.626C89.8642 362.778 91.3722 361.721 92.4675 360.136C92.8261 359.615 92.965 359.041 93.0267 358.451C93.2504 356.275 92.7182 353.904 93.3854 351.802C93.6283 351.023 93.9909 350.328 94.4306 349.684C95.171 348.605 96.1506 347.69 97.0762 346.73C97.755 346.028 98.4145 345.303 98.7808 344.362C99.826 341.674 99.7334 339.017 99.1318 336.414C98.1329 332.075 95.7803 327.867 94.2454 323.818C92.6642 319.649 92.5639 312.545 90.57 307.084C89.44 303.989 87.6544 301.45 84.1371 300.867C77.7119 299.801 73.0955 301.731 69.4085 305.082C63.6929 310.273 60.0754 318.6 55.7173 324.982C51.9147 330.548 47.5335 334.666 41.3474 335.017C33.5454 335.457 29.0639 330.254 26.7537 322.962C23.8998 313.96 24.4359 301.725 25.0722 295.325C25.4193 291.84 27.1433 288.596 27.7642 285.122C27.9763 283.929 28.038 282.701 27.7796 281.412C27.3245 279.14 25.5312 278.003 23.8536 276.8C22.2376 275.638 20.6525 274.462 19.5919 272.881C18.1225 270.692 17.4631 267.72 19.2718 262.894C20.8415 258.709 23.5412 255.821 26.5455 253.152C29.2105 250.783 32.1222 248.599 34.4786 245.586C36.1254 243.485 37.483 240.962 38.2659 237.642C38.4742 236.761 39.2609 236.138 40.1672 236.138C42.0686 236.139 43.0829 234.561 43.8504 232.76C45.0305 229.994 45.4894 226.526 45.9214 224.32C46.2184 222.779 46.6426 221.694 47.009 221.267C47.6762 220.481 48.6249 219.902 49.8243 219.537C52.4006 218.757 56.4462 219.036 60.4224 218.971C63.5888 218.919 66.7474 218.731 68.6063 216.88C71.2442 214.252 74.4299 210.271 76.2811 206.122C77.4728 203.453 78.14 200.722 77.5345 198.288C77.3725 197.627 76.8904 197.112 76.47 196.569C75.9957 195.963 75.5406 195.35 75.2166 194.687C74.9505 194.147 74.7693 193.577 74.6998 192.959C74.0056 186.672 76.0728 180.404 76.1422 174.115C76.1615 172.69 76.0651 171.263 75.7835 169.834C75.583 168.818 75.2822 167.815 74.8811 166.854C74.48 165.9 73.9864 164.986 73.3963 164.142C71.5759 161.534 67.8543 158.868 66.2614 155.712C65.359 153.921 65.0273 151.996 65.6907 149.887C66.0378 148.788 66.5854 147.81 67.2719 146.913C68.4212 145.414 69.9754 144.146 71.4371 142.812C72.6327 141.722 73.7781 140.596 74.3836 139.114C74.7538 138.205 73.8359 137.695 72.9489 137.302C71.6955 136.746 70.1258 136.499 69.2041 136.885C68.7066 137.093 68.2283 137.342 67.7578 137.609C66.5006 138.324 65.3011 139.155 64.0168 139.805C63.1491 140.243 61.861 140.918 60.6809 141.079C59.8748 141.189 59.1034 141.094 58.4247 140.748C57.2908 140.173 56.2148 139.266 55.216 138.176C53.2992 136.078 51.6485 133.269 50.2601 131.386C49.1031 129.818 47.977 128.23 46.8701 126.629C44.3016 122.926 41.8256 119.159 39.2609 115.454C36.9122 112.059 34.5018 108.728 32.5503 105.152C31.212 102.699 30.082 100.133 29.3223 97.3585C28.5779 94.6403 28.1961 91.8685 28.0534 89.0767C27.8452 84.9794 28.1614 80.8392 28.6011 76.7708C28.8479 74.4854 28.9328 71.9747 29.303 69.565C29.5691 67.8187 29.9779 66.1237 30.6683 64.5845C31.671 62.3535 33.0247 60.2766 34.5481 58.2989C36.7348 55.4655 39.2648 52.8356 41.5248 50.2188C43.1446 48.3399 44.9919 46.6992 46.5847 44.8546C47.5566 43.7258 48.4359 42.5182 49.0723 41.1032C49.6276 39.8629 50.0519 38.5868 50.399 37.2886C51.8645 31.7504 51.9725 25.8428 54.1939 20.5036C54.8804 18.8603 55.671 17.1992 56.5774 15.608C57.4991 13.9932 58.5443 12.4501 59.7128 11.0679C60.785 9.80367 62.0693 8.75659 63.2301 7.58802C63.6698 7.1418 64.094 6.67669 64.4719 6.16529C64.8846 5.60145 65.6791 5.47958 66.246 5.8934C66.8091 6.30722 66.9287 7.10092 66.516 7.66515C66.0686 8.27913 65.5672 8.84105 65.0389 9.37751C63.9359 10.5044 62.7017 11.5083 61.6836 12.7263C60.6191 13.9955 59.6781 15.4124 58.8451 16.8926C57.9966 18.3936 57.2639 19.9606 56.6275 21.5094C54.4793 26.7518 54.4446 32.5472 53.0369 37.9809C52.6628 39.4244 52.1962 40.8433 51.583 42.2244C51.0276 43.4809 50.318 44.6051 49.5158 45.6533C47.7687 47.9315 45.5627 49.8324 43.6653 52.0565C41.4515 54.6463 38.9717 57.2472 36.8351 60.0506C35.4621 61.8536 34.2357 63.7415 33.3371 65.7728C32.7586 67.0794 32.4308 68.5207 32.2148 70.0008C31.8677 72.3696 31.8021 74.8367 31.5707 77.0828C31.1696 80.9958 30.8804 84.9767 31.1041 88.9139C31.2468 91.4832 31.6093 94.0333 32.3112 96.5316C33.017 99.0639 34.066 101.402 35.304 103.637C37.2246 107.106 39.5964 110.329 41.8989 113.62C44.4828 117.311 46.9781 121.064 49.5621 124.754C50.6612 126.322 51.7758 127.88 52.9174 129.416C54.0821 130.981 55.4319 133.214 56.9746 135.095C57.8886 136.209 58.8644 137.204 59.9442 137.745C60.1795 137.865 60.461 137.702 60.7425 137.604C61.3866 137.383 62.0114 137.027 62.4819 136.787C63.7122 136.156 64.8615 135.346 66.0686 134.652C66.6548 134.314 67.2564 134.001 67.8812 133.737C69.7633 132.94 73.2651 133.337 75.502 134.777C77.5113 136.071 78.5488 138.045 77.5962 140.414C77.1797 141.448 76.5896 142.371 75.8915 143.223C74.6921 144.685 73.1533 145.926 71.7533 147.237C70.5963 148.324 69.5203 149.447 69.0614 150.936C68.5716 152.529 69.1848 153.908 70.1027 155.194C71.9037 157.707 74.8155 159.897 76.3505 162.071C77.091 163.122 77.7157 164.261 78.2171 165.453C78.7185 166.637 79.0964 167.873 79.3471 169.126C79.6826 170.803 79.806 172.477 79.7945 174.15C79.7482 180.288 77.6926 186.409 78.3945 192.543C78.4639 193.152 78.8843 193.607 79.2661 194.094C79.7019 194.654 80.1493 195.213 80.5041 195.814C80.7933 196.305 81.0209 196.823 81.1598 197.381C81.9619 200.56 81.2716 204.158 79.7251 207.653C77.6965 212.244 74.21 216.666 71.306 219.58C70.0448 220.846 68.3903 221.662 66.5006 222.149C62.5629 223.163 57.476 222.665 53.5962 222.87C52.5703 222.924 51.6485 223.026 50.8926 223.267C50.5687 223.371 50.2794 223.487 50.0712 223.675C49.994 223.994 49.6508 225.494 49.431 226.717C48.8949 229.691 48.0965 233.566 46.4305 236.242C45.2773 238.094 43.7346 239.426 41.7138 239.874Z" fill="#0959C1"/></svg>