<svg width="281" height="217" viewBox="0 0 281 217" fill="none" xmlns="http://www.w3.org/2000/svg"><path fill-rule="evenodd" clip-rule="evenodd" d="M154.27 165.909C150.436 169.665 146.618 173.329 143.055 177.39C140.656 180.125 138.354 182.925 136.387 185.971C134.385 189.064 132.7 192.354 131.331 195.76C129.252 200.943 127.979 206.304 127.154 211.904C126.618 213.882 127.783 215.922 129.761 216.462C131.736 217.002 133.78 215.834 134.32 213.859C135.623 210.739 137.239 207.9 138.863 204.985C140.413 202.204 142.145 199.578 143.799 196.855C144.902 195.042 145.971 193.21 147.023 191.363C148.639 188.536 150.163 185.694 151.779 182.859C154.282 178.474 156.665 174.155 159.257 169.858C160.348 168.481 160.117 166.48 158.74 165.388C157.363 164.301 155.358 164.532 154.27 165.909Z" fill="#0959C1"/><path fill-rule="evenodd" clip-rule="evenodd" d="M90.1079 150.431C85.4375 151.723 81.1643 152.907 76.9914 154.481C74.0488 155.595 71.2142 156.783 68.5415 158.314C65.8496 159.857 63.3273 161.685 60.9439 163.752C57.5153 166.726 54.538 170.154 51.3948 173.98C49.883 175.365 49.7827 177.717 51.1672 179.225C52.5518 180.737 54.9005 180.837 56.4123 179.453C60.1764 176.876 63.8942 174.987 67.4963 172.858C69.9491 171.411 72.3596 170.015 74.716 168.507C77.111 166.972 79.3632 165.291 81.7621 163.66C85.3063 161.245 88.7581 158.746 92.6919 156.247C94.2962 155.534 95.0213 153.652 94.3078 152.047C93.5943 150.439 91.7122 149.718 90.1079 150.431Z" fill="#0959C1"/><path fill-rule="evenodd" clip-rule="evenodd" d="M55.4518 80.0365C49.3583 79.9632 43.5386 78.6828 37.5376 77.6685C35.4781 77.3214 33.4225 76.9975 31.3476 76.7738C29.2149 76.5462 27.0706 76.392 24.934 76.3958C21.9682 76.3997 19.0333 76.6233 16.1138 77.1016C11.6516 77.8305 7.36686 79.0376 3.10138 80.9737C1.14219 81.5753 0.0391797 83.6502 0.64082 85.6094C1.24246 87.5686 3.32122 88.6716 5.28041 88.07C8.68585 87.4953 11.9679 87.584 15.3077 87.6496C18.7286 87.719 22.0916 88.1085 25.5086 88.3631C27.3868 88.4981 29.2689 88.5674 31.1548 88.6099C34.0936 88.6716 37.0092 88.633 39.948 88.498C45.4476 88.2512 50.7891 87.6573 56.1538 86.3614C57.897 86.1686 59.1581 84.5951 58.9652 82.848C58.7724 81.1048 57.1989 79.8437 55.4518 80.0365Z" fill="#0959C1"/><path fill-rule="evenodd" clip-rule="evenodd" d="M77.0802 24.3883C73.7442 21.9185 70.5663 19.503 67.4655 17.0996C65.6028 15.6595 63.794 14.246 62.2089 12.5248C60.6585 10.8452 59.1236 9.07074 58.0745 6.65646C57.3688 4.53799 55.0779 3.39142 52.9567 4.09757C50.8394 4.80373 49.694 7.09689 50.3998 9.21537C51.6416 14.2476 53.9286 18.2018 57.068 21.3681C58.923 23.2386 61.1059 24.7771 63.4469 26.1103C66.5322 27.8686 69.8991 29.169 73.2737 30.7464C75.0285 31.7974 77.3039 31.2258 78.3568 29.4714C79.4058 27.7166 78.835 25.4389 77.0802 24.3883Z" fill="#0959C1"/><path fill-rule="evenodd" clip-rule="evenodd" d="M214.531 34.9184C216.81 31.1489 219.436 28.4126 221.939 25.534C222.834 24.5019 223.721 23.5166 224.547 22.4672C225.407 21.3734 226.236 20.2646 226.976 19.1053C228.029 17.4597 228.935 15.7731 229.768 14.0025C231.064 11.2554 232.094 8.528 232.966 5.44845C233.88 3.61615 233.139 1.3843 231.303 0.467952C229.471 -0.448392 227.238 0.295556 226.324 2.12824C224.207 4.95827 221.77 7.05939 219.56 9.56622C218.017 11.316 216.521 13.1005 215.225 15.0678C213.875 17.1137 212.784 19.312 211.796 21.6708C210.381 25.0573 209.32 28.5468 208.584 32.653C207.959 34.294 208.784 36.1341 210.423 36.7592C212.066 37.3844 213.906 36.5594 214.531 34.9184Z" fill="#0959C1"/><path fill-rule="evenodd" clip-rule="evenodd" d="M249.217 53.3541C252.213 52.5249 254.975 51.9773 257.856 51.1365C259.753 50.5812 261.608 50.0836 263.405 49.3085C265.191 48.5344 266.876 47.5703 268.519 46.5178C271.068 44.8856 273.213 42.9924 275.716 41.135C277.582 40.2873 278.408 38.0848 277.559 36.2193C276.711 34.3543 274.509 33.5281 272.646 34.3758C269.576 35.0454 266.714 35.4414 263.803 36.3389C261.893 36.9263 260.031 37.632 258.272 38.5541C256.483 39.4902 254.882 40.6603 253.247 41.8748C250.775 43.7125 248.627 45.6512 246.208 47.7438C244.662 48.573 244.08 50.504 244.909 52.0505C245.738 53.6009 247.666 54.1833 249.217 53.3541Z" fill="#0959C1"/><path fill-rule="evenodd" clip-rule="evenodd" d="M254.794 101.563C256.783 103.531 258.741 105.169 260.815 106.501C262.343 107.492 263.9 108.313 265.516 108.924C267.18 109.553 268.893 109.958 270.624 110.193C273.168 110.548 275.708 110.518 278.355 110.41C279.282 110.482 280.094 109.788 280.167 108.852C280.239 107.929 279.544 107.118 278.617 107.046C277.17 106.748 275.803 106.37 274.408 106.004C273.04 105.64 271.715 105.223 270.375 104.79C269.676 104.579 268.983 104.339 268.277 104.113C267.243 103.789 266.196 103.465 265.141 103.111C262.352 102.166 259.513 101.074 256.57 99.2736C255.939 98.7818 255.032 98.8967 254.542 99.5296C254.052 100.163 254.163 101.071 254.794 101.563Z" fill="#0959C1"/></svg>