<svg width="126" height="52" viewBox="0 0 126 52" fill="none" xmlns="http://www.w3.org/2000/svg"><path fill-rule="evenodd" clip-rule="evenodd" d="M3.65341 43.3148C3.78469 43.5413 3.96071 43.6837 4.13569 43.8091C4.78845 44.2719 5.58657 44.4189 6.31651 44.7895C7.94009 45.6179 9.83583 45.9712 11.5035 45.4225C12.8367 44.9836 13.8859 43.8115 14.5762 41.8543C15.1973 40.142 15.1949 38.6117 14.7953 37.2538C14.3438 35.7171 13.3387 34.4226 12.1079 33.3115C9.37961 30.7167 5.61944 28.4973 3.32797 25.0185C1.79664 22.695 0.814665 19.8833 1.0206 16.2151C1.28135 12.1578 3.67998 9.42359 6.80838 8.02233C10.0644 6.56353 13.9854 6.53848 16.3269 7.67803C16.9111 7.96607 17.4642 8.3385 17.9745 8.79931C18.8721 9.60896 19.6681 10.6545 20.4969 11.548C21.0664 12.1029 21.0752 13.0187 20.5164 13.5915C19.9579 14.1602 19.042 14.1684 18.4726 13.6092C17.7405 12.9545 17.0278 12.1856 16.2644 11.5474C15.8635 11.2111 15.4416 10.9339 14.9878 10.7579C13.347 10.1285 10.7302 10.4941 8.61927 11.6554C6.96983 12.5647 5.68415 14.1065 5.71375 16.3367C5.726 18.7743 6.49247 20.591 7.58051 22.0859C8.57867 23.4608 9.87327 24.5473 11.1788 25.5832C12.7852 26.8565 14.4239 28.0454 15.8121 29.3241C17.7469 31.1743 19.2445 33.3659 19.8686 35.8758C20.4475 38.207 20.353 40.8127 19.1418 43.6527C17.5907 47.2085 15.2603 49.0323 12.7133 49.6491C9.96642 50.3181 6.9353 49.6436 4.44621 48.0908C3.60515 47.5617 2.68719 47.2393 1.9511 46.6015C1.33862 46.0756 0.779863 45.4191 0.441922 44.4097C0.245389 43.9067 0.302734 43.3395 0.59676 42.8816L0.618303 42.8522C1.12536 42.0709 2.17046 41.8483 2.951 42.3553C3.3076 42.5893 3.54804 42.9318 3.65341 43.3148Z" fill="#0959C1"/><path fill-rule="evenodd" clip-rule="evenodd" d="M26.275 46.7585C26.6547 42.6944 26.6623 38.3239 26.9484 34.0762C27.0676 32.3059 27.2393 30.5661 27.5133 28.8743C27.8395 26.8272 28.3638 24.8211 28.748 22.7748C28.9259 21.8278 29.0678 20.876 29.1646 19.9108C29.3157 18.336 29.2438 16.7962 29.3818 15.2805C29.4506 14.527 29.5908 13.7829 29.8984 13.0454C30.4702 11.6419 30.9374 10.8897 31.7144 11.3373C32.9557 12.0543 34.0035 13.769 34.6563 15.8088C35.9273 19.5106 36.4039 23.5487 36.5937 27.6845C36.8888 34.1194 36.4836 40.769 36.6244 46.8457C36.6112 47.7781 37.3558 48.5432 38.2865 48.5563C39.2168 48.5695 39.9831 47.8258 39.9963 46.8934C40.3115 40.7681 41.3057 34.1056 41.4002 27.6084C41.4682 22.9548 41.0385 18.3959 39.8028 14.1733C39.0904 11.8783 37.9745 9.88711 36.6906 8.47004C35.2568 6.88976 33.5838 5.98434 31.9971 5.8008C29.5128 5.51554 26.6954 6.69226 25.0335 11.141C24.6795 12.1025 24.4671 13.0576 24.3695 14.0227C24.1852 15.8429 24.4085 17.6773 24.3253 19.5753C24.2923 20.4099 24.217 21.2355 24.116 22.0564C23.8577 24.1596 23.4684 26.2397 23.2745 28.3438C23.1117 30.1728 23.055 32.0541 23.07 33.9619C23.1037 38.2015 23.4497 42.5388 23.3888 46.599C23.3453 47.3953 23.9571 48.078 24.7534 48.1231C25.5502 48.1641 26.2315 47.5549 26.275 46.7585Z" fill="#0959C1"/><path fill-rule="evenodd" clip-rule="evenodd" d="M26.533 31.9203C26.2387 32.4376 25.6798 32.7815 25.0441 32.7725C24.1134 32.7593 23.3688 31.9942 23.382 31.0618C23.2563 30.2419 23.8392 29.432 24.874 28.6497C26.0982 27.726 28.7033 27.0168 29.3006 26.7497C30.5713 26.2802 31.7585 25.784 32.9726 25.4791C34.2923 25.1459 35.6026 24.9652 36.9166 24.882C39.5163 24.7154 42.0516 24.9293 44.9277 25.5041C45.7245 25.5493 46.3337 26.2319 46.2877 27.0282C46.2417 27.8245 45.5578 28.4338 44.7615 28.3886C43.2206 28.5321 41.8546 28.8138 40.4847 29.1081C39.2924 29.3625 38.1783 29.6985 37.0241 30.0213C36.2597 30.2352 35.5043 30.4789 34.7139 30.6712C33.4302 30.9794 32.0908 31.1809 30.6903 31.5002C30.3427 31.5588 29.3922 31.6302 28.3581 31.7342C27.7472 31.7934 27.1111 31.7801 26.6518 31.9432C26.628 31.9513 26.5875 31.9338 26.5601 31.925C26.5732 31.8997 26.5834 31.8405 26.598 31.7941L26.5387 31.9119L26.5361 31.9161L26.5318 31.9161L26.533 31.9203ZM26.5601 31.925C26.5536 31.9376 26.5451 31.9417 26.5334 31.9246L26.533 31.9203L26.5361 31.9161L26.5382 31.9162L26.5601 31.925ZM26.7148 31.4481C26.7 31.503 26.6857 31.5579 26.671 31.6086L26.6203 31.7435L26.6247 31.7351C26.7357 31.618 26.7358 31.4611 26.7384 31.3086L26.7148 31.4481Z" fill="#0959C1"/><path fill-rule="evenodd" clip-rule="evenodd" d="M51.4972 12.1216L51.5174 12.3084C51.6462 13.8448 51.7646 15.3894 51.819 16.9417C51.8809 18.7018 51.8941 20.4697 51.909 22.2334C51.9238 23.9674 51.9028 25.6924 51.9849 27.4104C52.0805 31.4092 52.6021 35.3208 52.8033 39.2872C52.8924 41.0434 52.9168 42.7987 52.8356 44.578C52.8561 45.3752 52.2258 46.0361 51.4281 46.0587C50.6308 46.0814 49.9666 45.4488 49.9461 44.6516C49.8376 43.5394 49.6733 42.4476 49.4989 41.3557C48.7747 36.8096 47.6323 32.4018 46.9761 27.8228C46.6893 25.2625 46.4805 22.6737 46.4312 20.0745C46.3833 17.56 46.496 15.0478 46.4389 12.5544C46.4386 12.0373 46.1686 11.4612 46.0833 10.9343C46.024 10.5689 45.9764 10.2164 45.9977 9.8818C46.057 9.04754 46.32 8.46206 46.7576 8.06554C47.1428 7.71914 47.6019 7.38649 48.2331 7.32336C48.6903 7.27897 50.1705 7.6136 50.1705 7.6136C50.1705 7.6136 50.0518 7.62041 50.0027 7.61547L52.4225 7.72604C53.9119 7.61995 55.6118 6.63085 57.152 6.28808C57.7916 6.14877 58.4025 6.05568 58.9867 6.10634C59.917 6.11951 60.662 6.88884 60.6488 7.81701C60.6356 8.74942 59.8693 9.49313 58.939 9.47996C58.4944 9.50758 58.0614 9.75579 57.5889 9.98225C56.6354 10.4393 55.6593 11.0317 54.702 11.4548C54.1355 11.7053 53.5664 11.8711 53.0163 11.9862L51.4972 12.1216Z" fill="#0959C1"/><path fill-rule="evenodd" clip-rule="evenodd" d="M62.757 23.7111C61.5905 23.135 60.4103 22.864 59.0484 22.709C58.2226 22.6168 57.395 22.6263 56.561 22.7883C55.7734 22.9382 55.0092 23.2326 54.3081 23.6169C53.2024 24.2244 52.3436 24.9711 51.4535 25.7385C50.6153 26.1421 50.2632 27.1502 50.6676 27.9868C51.0716 28.8277 52.0806 29.1811 52.9189 28.7733C53.6106 28.6601 54.2572 28.6523 54.9925 28.544C55.6415 28.4515 56.2787 28.4223 56.9325 28.2917C57.296 28.2163 57.6515 28.1069 58.0037 27.9932C58.3614 27.8795 58.6871 27.7188 59.0344 27.5881C60.1583 27.1631 61.1038 26.6424 62.2301 26.5523C63.0144 26.6991 63.7691 26.1798 63.9146 25.3934C64.06 24.6112 63.5412 23.8578 62.757 23.7111Z" fill="#0959C1"/><path fill-rule="evenodd" clip-rule="evenodd" d="M64.5407 39.5606L64.2992 32.1854C64.1481 28.9912 63.9255 25.8172 63.8811 22.6373C63.8361 19.4064 63.9657 16.1823 64.2415 12.9263C64.369 11.6183 64.3313 9.5194 64.7605 7.82559C65.0388 6.7316 65.4544 5.76248 66.102 5.08067C66.4971 4.66235 67.4482 4.10355 68.8198 3.81351C71.2234 3.30492 75.216 3.07738 76.3077 2.83001C77.0743 2.60771 77.8751 3.05144 78.0948 3.82183C78.3146 4.58798 77.8705 5.38712 77.104 5.60518C76.2741 5.89441 73.7072 6.37948 71.4772 6.94139C70.3558 7.22226 68.5445 7.33229 68.8564 7.81996C68.9025 7.88844 68.9767 7.79622 69.0317 7.71222C69.0482 7.68702 69.0655 7.66186 69.0841 7.63669C69.0711 7.65346 69.0529 7.68285 69.0317 7.71222C68.7984 8.0862 68.8103 8.62472 68.7698 9.17523C68.6651 10.5811 68.8438 12.1225 68.8433 13.1484C68.827 15.0176 68.8949 16.871 68.9701 18.7203C69.0765 21.35 69.2663 23.964 69.4242 26.5903C69.5306 28.3552 69.5971 30.1281 69.6817 31.9055C69.7118 33.0463 69.7103 34.195 69.6728 35.3476C69.6189 37.0043 69.5063 38.6644 69.4231 40.325C69.415 40.4732 69.3979 40.9393 69.1101 41.5329L68.8207 42.152C69.2932 42.2222 69.787 42.2546 70.2908 42.2702C72.477 42.3266 74.787 42.0753 76.6461 42.2076C77.5764 42.2208 78.3214 42.9859 78.3082 43.9183C78.2951 44.8464 77.5287 45.5902 76.5984 45.577C74.4343 45.6693 71.7202 46.3473 69.2407 46.4097C67.8473 46.4451 66.5316 46.2527 65.3578 45.8334C64.5494 45.5379 64.0519 44.895 63.7921 43.9926C63.5416 43.1243 64.1159 41.1528 64.5233 40.014C64.4951 39.844 64.4738 39.6445 64.5407 39.5606ZM64.5528 39.9339L64.6617 39.6344C64.6771 39.5965 64.7237 39.542 64.6962 39.5331C64.6195 39.5066 64.5696 39.5229 64.5407 39.5606L64.5528 39.9339L64.5233 40.014C64.5408 40.1244 64.5624 40.218 64.5635 40.2562L64.5528 39.9339Z" fill="#0959C1"/><path fill-rule="evenodd" clip-rule="evenodd" d="M77.7323 24.1731C76.9685 23.6918 76.1484 23.1672 75.0078 22.7102C74.663 22.5739 74.3168 22.5055 73.9457 22.4536C73.5637 22.4015 73.1707 22.4044 72.7983 22.4755C72.3691 22.5499 71.9685 22.6418 71.6023 22.8486C70.5004 23.4604 69.5835 23.9348 69.1005 24.9962C68.4334 25.6439 68.4183 26.7119 69.0667 27.3824C69.7156 28.0486 70.7837 28.0637 71.4512 27.4161C71.8157 27.2644 72.0964 27.6838 72.5152 27.711C72.7169 27.7223 72.889 27.8392 73.1 27.8464C73.3148 27.8537 73.535 27.8738 73.7541 27.8472C74.3124 27.7873 74.7973 27.5822 75.3256 27.4794C76.0789 27.3333 76.6045 27.1245 77.1771 27.0097C77.9601 27.1607 78.7202 26.65 78.8732 25.868C79.0263 25.0859 78.5153 24.3241 77.7323 24.1731Z" fill="#0959C1"/><path fill-rule="evenodd" clip-rule="evenodd" d="M105.945 3.05555C104.084 2.498 102.443 2.30703 100.797 2.29305C98.4527 2.25988 96.2317 2.72233 93.5598 2.95478C91.9142 3.32291 90.6353 3.26758 89.5374 3.29864C88.0461 3.35209 86.7945 3.44623 85.6068 4.07247C84.5761 4.62637 83.5105 5.41274 82.5069 7.02945C81.9115 7.74795 82.0095 8.81181 82.7249 9.40906C83.4402 10.0063 84.5044 9.90952 85.0998 9.19103C85.862 8.50285 86.5231 8.25119 87.136 8.10143C87.5259 8.01376 87.8942 8.12153 88.2973 8.16451C88.8526 8.20965 89.4254 8.3389 90.0796 8.4134C91.3137 8.55202 92.741 8.55364 94.5009 8.30828C95.9612 7.94685 97.2805 7.59264 98.5565 7.21928C99.8089 6.85491 100.974 6.45202 102.272 6.22809C103.286 6.04672 104.318 5.89367 105.505 5.91048C106.294 6.03347 107.033 5.49402 107.154 4.70357C107.275 3.91313 106.733 3.17854 105.945 3.05555Z" fill="#0959C1"/><path fill-rule="evenodd" clip-rule="evenodd" d="M94.6346 46.2761C95.8317 41.1751 96.4572 36.0475 96.6299 30.8534C96.6926 29.005 96.6851 27.1602 96.612 25.3145C96.5637 24.0932 96.4685 22.876 96.3602 21.6632C96.1603 19.3949 95.9077 17.1444 95.6726 14.885C95.4376 12.6301 95.1743 10.4026 95.018 8.14884C95.0312 7.21513 94.2863 6.45104 93.3556 6.43787C92.4249 6.4247 91.6586 7.1674 91.6454 8.10111C91.3008 11.9335 91.0875 15.7632 91.0576 19.6325C91.0442 21.403 91.0628 23.174 91.1326 24.9457C91.2012 26.6988 91.3282 28.4482 91.4406 30.1974C91.5744 32.289 91.7288 34.367 91.8159 36.458C91.9468 39.5805 92.0153 42.6791 91.7797 45.8242C91.6547 46.613 92.1929 47.3511 92.9805 47.4778C93.7696 47.5999 94.5097 47.0603 94.6346 46.2761Z" fill="#0959C1"/><path fill-rule="evenodd" clip-rule="evenodd" d="M109.531 5.51529C110.382 7.39253 110.937 9.26135 111.585 11.1612C112.02 12.439 112.427 13.708 112.912 14.9697C113.12 15.5152 113.354 16.0484 113.606 16.5776C113.99 17.38 114.432 18.1451 114.856 18.9396L117.406 22.8714C117.393 23.7995 118.138 24.5689 119.068 24.5821C119.999 24.5953 120.765 23.8473 120.778 22.9191C120.878 22.3694 120.722 21.5703 120.51 20.6389C120.218 19.3503 119.636 17.8415 119.405 16.9946C118.998 15.8231 118.683 14.6402 118.21 13.5144C117.723 12.3502 117.132 11.2481 116.497 10.1667C115.192 7.9481 113.695 5.93877 111.959 3.94725C111.526 3.27559 110.63 3.0849 109.96 3.51628C109.29 3.9519 109.098 4.84362 109.531 5.51529Z" fill="#0959C1"/><path fill-rule="evenodd" clip-rule="evenodd" d="M122.907 2.72482C120.706 7.26141 118.512 11.6847 116.775 16.346C115.606 19.4895 114.705 22.7314 113.95 26.0792C113.563 28.4828 113.36 31.3424 113.398 34.3093C113.451 38.4007 113.883 42.6581 114.067 46.1373C114.054 47.0677 114.799 47.834 115.729 47.8472C116.66 47.8604 117.426 47.1154 117.439 46.185C117.718 42.7455 117.995 38.5264 118.344 34.488C118.574 31.8271 118.817 29.2562 119.304 27.1185C119.645 25.1442 120.089 23.2232 120.545 21.3119C121.013 19.3535 121.5 17.4237 122.034 15.4946C123.119 11.5799 124.306 7.72808 125.586 3.81142C125.886 3.07405 125.529 2.22816 124.79 1.92956C124.051 1.63095 123.207 1.98745 122.907 2.72482Z" fill="#0959C1"/></svg>