<svg width="100" height="85" viewBox="0 0 100 85" fill="none" xmlns="http://www.w3.org/2000/svg"><path fill-rule="evenodd" clip-rule="evenodd" d="M13.6116 76.5281C13.1546 75.8091 12.8912 74.8234 12.8154 73.7715C12.7068 72.2412 13.0109 70.5768 13.4097 69.6351C15.0267 65.8396 18.9605 65.3263 22.1776 66.7382C25.5262 68.2069 27.7912 71.7313 26.1208 75.2617C25.1429 77.303 21.9077 79.7263 18.6339 80.6408C16.0484 81.3616 13.51 81.1139 11.9405 79.685C9.37429 77.2983 7.56045 73.4684 7.05125 69.5178C6.53633 65.4966 7.31835 61.4016 9.73235 58.6901C10.143 58.1995 10.8726 58.1351 11.3601 58.5462C11.8506 58.955 11.9162 59.6842 11.5055 60.1747C9.69206 62.4839 9.37612 65.8382 9.97143 69.0605C10.4976 71.9091 11.7823 74.6738 13.6116 76.5281ZM18.6336 76.8638L18.7273 76.8275C20.5874 76.0754 22.3766 74.8968 22.9466 73.7286C23.7685 72.0662 22.3581 70.5594 20.7855 69.8275C19.2038 69.0963 17.1862 69.063 16.341 70.9226C16.019 71.6292 15.8029 72.991 15.9618 74.1002C15.9976 74.355 16.047 74.596 16.1376 74.8018C16.1783 74.8863 16.1651 75.008 16.258 75.0211C16.3918 75.0431 16.5463 75.0097 16.7303 74.9452C17.4991 74.6601 18.3527 75.0533 18.6377 75.8208C18.7672 76.1719 18.7583 76.5392 18.6336 76.8638Z" fill="#0959C1"/><path fill-rule="evenodd" clip-rule="evenodd" d="M23.1511 59.0883C22.0773 57.62 22.1246 55.7299 22.9234 53.968C23.9818 51.6332 26.44 49.6738 28.5769 49.4576C30.4487 49.2702 32.0398 49.7673 33.421 50.6489C35.245 51.8142 36.6697 53.7375 37.86 55.603C38.4205 56.494 38.9923 57.8418 39.1922 59.1556C39.3607 60.2583 39.2527 61.3371 38.8354 62.2107C38.0812 63.7273 35.9009 65.2514 33.4314 65.9709C30.9653 66.6887 28.3288 66.6233 26.9053 65.6805C24.9809 64.385 23.7205 62.1002 23.238 59.6052C23.2073 59.4326 23.1772 59.261 23.1511 59.0883ZM25.8744 58.7229L25.9379 58.9822C26.3842 60.6408 27.238 62.19 28.5938 62.9756C28.9047 63.1577 29.3376 63.1633 29.8135 63.1552C30.6161 63.1475 31.5239 62.9481 32.3997 62.6565C33.2715 62.366 34.1061 61.964 34.7632 61.4962C35.1375 61.23 35.4569 60.9622 35.6061 60.6504C35.7888 60.2747 35.7017 59.7828 35.5932 59.3074C35.4397 58.6158 35.1532 57.9411 34.8665 57.4683C34.1076 56.2252 33.2545 54.9233 32.1656 53.9722C31.2673 53.1863 30.2061 52.6376 28.8582 52.7337C27.8655 52.8043 26.8126 53.662 26.1137 54.6631C25.8966 54.9752 25.6962 55.309 25.5527 55.6471C25.5278 56.2273 25.5565 56.8393 25.6381 57.4567C25.9147 57.8342 25.9877 58.3015 25.8744 58.7229Z" fill="#0959C1"/><path fill-rule="evenodd" clip-rule="evenodd" d="M38.2414 38.0263C38.2623 39.9354 38.156 41.8185 38.0976 43.7195C38.055 45.0031 38.0116 46.2794 38.0322 47.5629C38.0663 49.7355 38.2656 51.9011 38.528 54.0666C38.6552 54.983 38.5771 57.2563 38.8888 58.7215C39.0456 59.4616 39.2892 60.0617 39.6005 60.4339C40.1005 61.0822 41.0318 61.2037 41.6793 60.7044C42.3298 60.2027 42.449 59.2711 41.949 58.6228C41.9083 58.5636 41.9392 58.4648 41.9214 58.3596C41.8634 58.0318 41.8545 57.6413 41.8439 57.236C41.8173 55.9069 41.9312 54.4188 41.8793 53.7137C41.7169 51.8358 41.7102 49.9577 41.6282 48.0831C41.5735 46.8059 41.4852 45.5356 41.3757 44.2632C41.192 42.0988 40.906 39.966 40.5451 37.8181C40.4848 37.1841 39.923 36.7145 39.2891 36.7703C38.6524 36.8289 38.1814 37.3927 38.2414 38.0263Z" fill="#0959C1"/><path fill-rule="evenodd" clip-rule="evenodd" d="M30.9787 48.2619C30.7134 48.1704 30.4715 48.0019 30.287 47.7628C29.3739 46.7113 29.2204 45.6661 29.316 44.8175C29.4631 43.5367 30.4169 42.5757 31.5539 42.124C32.4783 41.7565 33.5371 41.822 34.4293 42.2717C35.4293 42.7726 36.2943 43.8438 36.3624 45.751C36.3408 46.7714 35.6011 47.9404 34.2465 48.4006C33.575 48.6287 32.8102 48.7485 32.1676 48.6415C31.7212 48.5679 31.3145 48.4447 30.9787 48.2619ZM32.7975 45.8459C32.7729 45.9403 32.7542 46.0297 32.7439 46.1112C32.8285 46.2588 32.8863 46.4158 32.9173 46.576C32.9284 46.5777 32.9392 46.5791 32.9498 46.5802C33.3079 46.5899 32.9911 46.0969 32.7975 45.8459ZM32.4381 45.3925L32.4381 45.3988L32.4444 45.3944L32.4381 45.3925ZM33.0494 45.1052L33.013 45.197C33.076 45.1587 33.1025 45.1173 33.0604 45.0753L33.0494 45.1052Z" fill="#0959C1"/><path fill-rule="evenodd" clip-rule="evenodd" d="M44.5627 51.8116C44.2322 51.1114 44.1 50.4726 44.1681 49.8663C44.2652 49.0132 44.7557 48.1211 45.9322 47.152C46.2725 46.8735 47.2485 45.9981 47.9796 45.7903C48.6867 45.5894 49.3248 45.7412 49.8604 46.12C52.1221 47.7329 52.6393 49.7424 52.1866 51.4668C51.7506 53.1308 50.2778 54.6566 48.2515 55.3762C47.7628 55.5319 46.1903 55.6527 45.3477 55.1663C44.5319 54.6957 43.9987 54.0233 44.2206 53.01L44.5627 51.8116ZM48.3305 49.3779C48.1755 49.5559 48.0352 49.7401 47.9663 49.7898C47.7974 49.9118 47.6485 50.0218 47.5346 50.133L47.4596 50.7747C47.5853 51.0514 47.7879 51.3456 48.0286 51.6831C48.3694 51.3672 48.6114 50.9926 48.7094 50.5892C48.806 50.184 48.6776 49.7775 48.3305 49.3779ZM48.4782 49.2158C48.773 49.3075 49.018 49.3158 48.9202 49.0815C48.8424 48.9048 48.6628 49.0257 48.4782 49.2158Z" fill="#0959C1"/><path fill-rule="evenodd" clip-rule="evenodd" d="M62.4596 38.9113C63.3046 38.3713 64.5772 36.8132 64.9401 36.507C65.0825 36.3885 65.2025 36.2599 65.2992 36.1201C65.7515 35.4688 66.0481 34.7419 66.5717 34.1262C67.0796 33.4838 68.0162 33.3722 68.6571 33.8812C69.3011 34.3879 69.4086 35.3229 68.9008 35.9653C68.478 36.5412 68.2861 37.2146 67.9297 37.8134C67.7004 38.1982 67.4147 38.5539 67.0635 38.888C66.5254 39.3965 64.8765 41.0285 63.637 41.7705C62.8571 42.237 62.1128 42.3644 61.6034 42.3102C61.1831 42.2641 60.4975 41.9435 59.8777 41.2219C59.1219 40.3491 58.1844 38.6724 57.9541 38.2412C57.6114 37.5505 57.2706 36.8622 56.9774 36.1536C55.8362 33.4233 55.0032 30.6191 53.7174 27.8971C53.4051 27.3406 53.6065 26.6354 54.1651 26.324C54.7208 26.0152 55.4258 26.2158 55.7378 26.7719C56.5904 28.0669 57.3524 29.3772 58.075 30.7184C58.8157 32.0958 59.5307 33.4711 60.2484 34.8628C60.5491 35.436 60.8301 36.0214 61.1405 36.5945C61.2675 36.8539 61.7081 38.2524 62.141 38.877L62.2407 38.8863C62.2828 38.8904 62.3249 38.8944 62.367 38.8985L62.4596 38.9113C62.3882 38.9576 62.3203 38.9958 62.2552 39.0251C62.4022 39.1841 62.5438 39.2351 62.6671 39.1044C62.7746 38.9913 62.6365 38.9386 62.4596 38.9113ZM62.141 38.877C62.1041 38.8733 62.0725 38.8704 62.0504 38.867C61.9587 38.8554 61.6783 38.7633 61.721 38.8882C61.8069 39.1259 62.0012 39.1441 62.2552 39.0251L62.2338 38.9973C62.2119 38.9752 62.1928 38.9505 62.174 38.9261L62.141 38.877Z" fill="#0959C1"/><path fill-rule="evenodd" clip-rule="evenodd" d="M68.7238 18.4713C68.993 18.2963 69.2643 18.2313 69.5839 18.2668L69.6368 18.2786C70.7167 18.1695 71.9011 18.5244 73.0537 19.2612C74.2494 20.0223 75.417 21.2268 76.3472 22.591C77.4862 24.2637 78.2325 26.1851 78.3328 27.8055C78.4062 28.9617 78.1506 29.9944 77.6059 30.8227C75.5835 33.8209 72.9651 34.5179 70.5969 33.8847C67.3426 33.0183 64.4488 29.3164 64.3666 25.5216C64.3645 25.121 64.3732 24.7533 64.3937 24.4136C63.939 23.4829 64.1116 22.4562 64.7389 21.4635C65.5458 20.1857 67.3495 19.0134 68.6401 18.527L68.7238 18.4713ZM67.2598 24.7072C67.2704 24.9104 67.2873 25.1282 67.3081 25.3635C67.4831 27.3588 68.8504 29.2265 70.4848 30.1144C71.8448 30.8549 73.4417 30.6647 74.6439 28.8385C74.8719 28.5025 74.8424 28.0348 74.7609 27.5313C74.6005 26.5465 74.1223 25.4654 73.4907 24.4822C72.852 23.4897 72.0662 22.5845 71.2336 22.01C70.7619 21.6889 70.312 21.4213 69.8686 21.4841C69.5658 21.5272 69.1319 21.7225 68.6948 21.9768C68.2611 22.229 67.8192 22.5338 67.4932 22.8816C67.4046 23.0761 67.3422 23.2858 67.3056 23.5162C67.4587 23.9042 67.438 24.3384 67.2598 24.7072Z" fill="#0959C1"/><path fill-rule="evenodd" clip-rule="evenodd" d="M76.5653 18.0585C77.0478 18.059 77.541 17.8019 78.0628 17.5817C78.9507 17.2047 79.8583 16.7459 80.7272 16.4328C81.3597 16.2046 81.9784 16.0533 82.5679 16.0093C85.2055 15.8362 86.7824 16.9462 87.4562 18.3947C88.3259 20.2614 87.722 23.1792 85.0255 25.2148C84.7598 25.4134 84.4905 25.5821 84.2111 25.7187C83.4647 26.0834 82.6451 26.1383 81.9769 26.6234C81.3295 27.1227 80.3954 27.0039 79.8951 26.3552C79.3951 25.7069 79.5174 24.7729 80.1649 24.2736C80.4219 24.0638 80.6947 23.8997 80.9748 23.7514C81.6426 23.3985 82.4218 23.2783 83.0631 22.7395C84.03 21.9344 84.5511 20.9808 84.4727 20.1719C84.4139 19.5841 83.7753 19.4507 82.8569 19.5419C82.2927 19.5932 81.6995 19.8787 81.0781 20.1529C80.2645 20.5125 79.4302 20.9085 78.6171 21.1551C77.5676 21.474 76.5451 21.5817 75.6068 21.3376C75.0136 21.1809 74.3452 20.7373 73.9525 19.9249C73.5142 19.0093 73.3323 17.6554 73.4264 17.1333C73.7752 15.2805 74.2123 14.1233 74.9785 13.2538C75.7238 12.4078 76.7521 11.7833 78.402 11.1314C78.9788 10.8625 79.6681 11.1121 79.9385 11.6901C80.2089 12.2681 79.9569 12.9582 79.3804 13.2275C78.2861 13.823 77.5821 14.287 77.1307 14.9395C76.7193 15.5363 76.6179 16.308 76.5323 17.4728C76.4153 17.5041 76.4627 17.8055 76.5653 18.0585ZM76.5799 18.0965C76.6723 18.3047 76.804 18.4628 76.9064 18.3809C77.0511 18.2654 76.805 18.161 76.5799 18.0965ZM76.5323 17.4728L76.5448 17.47C76.5716 17.4668 76.5308 17.5149 76.5299 17.5326L76.5323 17.4728Z" fill="#0959C1"/><path fill-rule="evenodd" clip-rule="evenodd" d="M84.6176 10.0922C84.6366 10.0917 84.6495 10.0959 84.6622 10.0997C85.1518 10.2672 85.667 10.0827 86.2014 9.96086C87.1001 9.75581 88.0262 9.49794 88.9209 9.43287C89.5493 9.38895 90.1688 9.428 90.7684 9.59291C91.32 9.74612 91.779 10.0067 92.171 10.3571C92.5584 10.7017 92.8774 11.1341 93.1904 11.5526C94.57 13.4426 94.5863 14.9037 93.9814 16.1529C93.361 17.4325 91.7798 18.5461 90.0051 19.8256C89.3576 20.3249 88.4263 20.2035 87.9263 19.5551C87.4263 18.9067 87.5455 17.9752 88.193 17.4759C89.2318 16.6188 90.2385 15.9096 90.8175 15.1383C91.1365 14.7121 90.9871 14.2847 90.4693 13.6511L89.8879 12.9983C89.1959 12.8272 88.4668 13.107 87.7324 13.2788C86.9334 13.4679 86.1334 13.6367 85.3685 13.6364C84.7072 13.6378 84.0662 13.5453 83.461 13.2848C82.1671 12.7184 81.5883 11.9365 81.4354 11.1129C81.3234 10.5004 81.3659 9.82281 81.7145 9.14439C82.0127 8.56477 82.4784 7.93727 83.0853 7.37279C84.4209 6.13005 86.2513 5.06181 86.8349 4.84601C87.4185 4.57961 88.104 4.83701 88.3674 5.41851C88.631 6.00032 88.3753 6.68548 87.7948 6.94952C87.3737 7.18027 86.1473 8.21711 85.2492 9.30079C85.0649 9.52281 84.7868 9.83804 84.6176 10.0922ZM84.5671 10.1721C84.459 10.3539 84.4309 10.488 84.5831 10.4958C84.6052 10.4992 84.6018 10.4507 84.5987 10.4278C84.5892 10.3713 84.583 10.2621 84.5671 10.1721ZM84.5519 10.083C84.5361 10.0182 84.5095 9.99002 84.4736 10.0445C84.4558 10.0719 84.4993 10.0778 84.5519 10.083Z" fill="#0959C1"/></svg>