<svg width="376" height="311" viewBox="0 0 376 311" fill="none" xmlns="http://www.w3.org/2000/svg"><path fill-rule="evenodd" clip-rule="evenodd" d="M157.912 1.63276C157.912 2.46119 157.241 3.13311 156.413 3.13354C154.39 3.1346 152.368 3.13898 150.347 3.14691C149.518 3.15015 148.844 2.48122 148.841 1.6528C148.838 0.824374 149.506 0.150175 150.335 0.146928C152.36 0.138992 154.385 0.134606 156.411 0.133545C157.24 0.133111 157.911 0.804332 157.912 1.63276ZM160.983 1.63613C160.985 0.80771 161.659 0.137917 162.487 0.140111C164.512 0.145472 166.537 0.153931 168.563 0.165266C169.391 0.169901 170.059 0.845222 170.054 1.67364C170.05 2.50205 169.375 3.16985 168.546 3.16522C166.523 3.1539 164.501 3.14545 162.479 3.1401C161.651 3.13791 160.981 2.46456 160.983 1.63613ZM145.77 1.67027C145.776 2.49868 145.11 3.17529 144.281 3.18154C142.259 3.19678 140.237 3.2158 138.216 3.23881C137.388 3.24824 136.709 2.58436 136.699 1.75599C136.69 0.927614 137.354 0.248439 138.182 0.239007C140.207 0.215951 142.233 0.196898 144.259 0.181625C145.087 0.17538 145.764 0.841871 145.77 1.67027ZM173.125 1.69512C173.132 0.86672 173.809 0.200759 174.638 0.207653C176.663 0.224503 178.687 0.244003 180.712 0.265928C181.541 0.274897 182.205 0.953702 182.196 1.78208C182.187 2.61046 181.508 3.27472 180.68 3.26575C178.657 3.24385 176.635 3.22438 174.613 3.20755C173.784 3.20065 173.118 2.52352 173.125 1.69512ZM133.628 1.7971C133.641 2.62543 132.98 3.3073 132.152 3.32011C130.13 3.35137 128.108 3.38686 126.088 3.4268C125.259 3.44317 124.575 2.785 124.558 1.95673C124.542 1.12847 125.2 0.443754 126.028 0.427383C128.053 0.387356 130.079 0.351792 132.105 0.320466C132.933 0.307659 133.615 0.96877 133.628 1.7971ZM185.267 1.81895C185.278 0.990596 185.958 0.327886 186.787 0.338748C188.811 0.365296 190.836 0.394046 192.86 0.424775C193.689 0.437348 194.35 1.11904 194.337 1.94737C194.325 2.7757 193.643 3.437 192.815 3.42443C190.792 3.39373 188.77 3.36501 186.747 3.33849C185.919 3.32763 185.256 2.64731 185.267 1.81895ZM197.408 1.99692C197.422 1.16861 198.105 0.508571 198.933 0.522673C200.958 0.557137 202.982 0.593358 205.006 0.631113C205.834 0.646563 206.493 1.33054 206.478 2.15883C206.462 2.98711 205.778 3.64604 204.95 3.63059C202.928 3.59286 200.905 3.55667 198.882 3.52224C198.054 3.50814 197.394 2.82523 197.408 1.99692ZM121.488 2.02427C121.508 2.85245 120.853 3.54014 120.025 3.56027C118.003 3.60939 115.983 3.66319 113.963 3.72191C113.135 3.74598 112.444 3.0942 112.42 2.26613C112.396 1.43805 113.048 0.747245 113.876 0.723173C115.901 0.664317 117.926 0.610385 119.952 0.561151C120.78 0.541025 121.468 1.19608 121.488 2.02427ZM209.548 2.21838C209.565 1.39012 210.25 0.73215 211.078 0.748766C213.102 0.789375 215.126 0.831296 217.15 0.874306C217.978 0.891909 218.635 1.5776 218.618 2.40584C218.6 3.23408 217.914 3.89123 217.086 3.87363C215.064 3.83064 213.041 3.78875 211.018 3.74816C210.19 3.73155 209.532 3.04664 209.548 2.21838ZM73.2348 1.08569C73.5731 0.817452 74.0105 0.707943 74.4352 0.785166C74.7028 0.833827 74.9558 0.915881 75.1532 0.986314C75.3272 1.04838 75.4826 1.13927 75.6159 1.25168C75.7603 1.25427 75.9067 1.27792 76.0512 1.32466C76.0799 1.33395 76.1034 1.34098 76.1224 1.34621C76.1287 1.34795 76.1342 1.34942 76.1391 1.35065C77.496 1.35075 78.8634 1.35426 80.2396 1.36146C81.068 1.36579 81.7361 2.04087 81.7317 2.86929C81.7274 3.6977 81.0523 4.36575 80.2239 4.36142C78.833 4.35414 77.4511 4.35065 76.0798 4.35065C75.9043 4.35065 75.7354 4.32938 75.5829 4.29955C75.5712 4.64341 75.5609 4.98755 75.5519 5.33198C75.5303 6.16013 74.8414 6.81393 74.0132 6.79229C73.1851 6.77065 72.5313 6.08177 72.5529 5.25362C72.5796 4.23055 72.6176 3.20791 72.6687 2.18605C72.6903 1.75489 72.8966 1.35393 73.2348 1.08569ZM109.351 2.3629C109.379 3.19085 108.731 3.8849 107.903 3.91311C105.882 3.98197 103.862 4.05597 101.843 4.13534C101.015 4.16789 100.318 3.52322 100.285 2.69543C100.253 1.86764 100.898 1.1702 101.725 1.13766C103.75 1.05808 105.775 0.983883 107.801 0.914854C108.629 0.886644 109.323 1.53496 109.351 2.3629ZM221.688 2.4727C221.706 1.64448 222.393 0.987996 223.221 1.0064C225.245 1.05139 227.268 1.09724 229.292 1.14374C230.12 1.16277 230.776 1.8496 230.757 2.67781C230.738 3.50601 230.051 4.16198 229.223 4.14295C227.2 4.09646 225.177 4.05063 223.154 4.00566C222.326 3.98725 221.67 3.30092 221.688 2.4727ZM233.827 2.74931C233.847 1.92111 234.534 1.26551 235.362 1.28499C237.386 1.33259 239.409 1.38061 241.432 1.42883C242.26 1.44857 242.916 2.13595 242.896 2.96414C242.876 3.79234 242.189 4.44772 241.361 4.42797C239.338 4.37976 237.315 4.33175 235.292 4.28416C234.463 4.26468 233.808 3.57751 233.827 2.74931ZM97.2168 2.82436C97.2538 3.65195 96.613 4.35291 95.7854 4.38998C94.776 4.43519 93.7668 4.48181 92.7579 4.52985C92.7229 4.53152 92.6879 4.53196 92.6528 4.53117C91.2677 4.49998 89.8865 4.4732 88.5106 4.45055C87.6823 4.43692 87.0219 3.75438 87.0355 2.92607C87.0492 2.09775 87.7317 1.43732 88.56 1.45096C89.9243 1.47342 91.294 1.49992 92.6678 1.53075C93.662 1.48345 94.6565 1.43754 95.6511 1.39298C96.4787 1.35591 97.1797 1.99676 97.2168 2.82436ZM245.966 3.03759C245.986 2.2094 246.674 1.55409 247.502 1.57391C249.525 1.62235 251.548 1.67076 253.571 1.71892C254.399 1.73864 255.054 2.42601 255.035 3.2542C255.015 4.0824 254.328 4.73779 253.499 4.71807C251.477 4.6699 249.454 4.62149 247.43 4.57305C246.602 4.55323 245.947 3.86578 245.966 3.03759ZM258.105 3.3269C258.124 2.4987 258.811 1.84307 259.639 1.86251C261.663 1.91001 263.686 1.95704 265.709 2.00337C266.537 2.02234 267.193 2.70912 267.174 3.53733C267.155 4.36554 266.468 5.02156 265.64 5.00258C263.617 4.95624 261.593 4.9092 259.569 4.86169C258.741 4.84225 258.085 4.1551 258.105 3.3269ZM270.244 3.60658C270.263 2.77836 270.949 2.1218 271.777 2.14012C273.801 2.18489 275.824 2.22873 277.845 2.27142C278.674 2.28891 279.331 2.97451 279.313 3.80275C279.296 4.63099 278.61 5.28824 277.782 5.27075C275.759 5.22804 273.735 5.18418 271.711 5.13939C270.883 5.12107 270.226 4.4348 270.244 3.60658ZM282.384 3.86579C282.4 3.03753 283.085 2.37944 283.913 2.3959C285.937 2.43613 287.959 2.47497 289.981 2.51221C290.809 2.52747 291.468 3.21129 291.453 4.03958C291.437 4.86787 290.754 5.52696 289.925 5.5117C287.902 5.47444 285.878 5.43556 283.854 5.39531C283.025 5.37885 282.367 4.69406 282.384 3.86579ZM294.524 4.09368C294.538 3.26536 295.221 2.60512 296.049 2.61898C298.073 2.65284 300.095 2.68486 302.117 2.7148C302.945 2.72707 303.607 3.40852 303.594 4.23686C303.582 5.06519 302.901 5.72674 302.072 5.71447C300.049 5.6845 298.024 5.65245 295.999 5.61856C295.17 5.6047 294.51 4.92199 294.524 4.09368ZM306.665 4.27917C306.676 3.45081 307.356 2.78779 308.184 2.79828C310.208 2.82391 312.23 2.84723 314.251 2.86801C315.079 2.87653 315.744 3.55497 315.735 4.38336C315.727 5.21174 315.048 5.87637 314.22 5.86785C312.196 5.84704 310.172 5.8237 308.146 5.79804C307.318 5.78755 306.655 5.10753 306.665 4.27917ZM318.806 4.41103C318.812 3.58263 319.489 2.91622 320.317 2.92257C322.341 2.93809 324.363 2.95082 326.385 2.96054C327.213 2.96453 327.881 3.63932 327.877 4.46774C327.874 5.29616 327.199 5.96449 326.37 5.96051C324.346 5.95077 322.321 5.93802 320.294 5.92248C319.466 5.91613 318.799 5.23943 318.806 4.41103ZM330.949 4.47789C330.951 3.64946 331.623 2.97904 332.452 2.98046C333.463 2.98219 334.473 2.98311 335.483 2.98319C335.713 2.98321 335.931 3.03488 336.125 3.12722C336.293 3.0621 336.476 3.02639 336.667 3.02639C337.176 3.02639 337.567 3.23803 337.813 3.42353C338.056 3.60723 338.238 3.82456 338.368 4.00416C338.627 4.36247 338.842 4.79936 339.017 5.20392C339.346 5.96414 338.996 6.84727 338.236 7.17644C337.476 7.50562 336.593 7.15619 336.264 6.39597C336.194 6.23441 336.129 6.09789 336.07 5.9862C336.05 5.94817 336.032 5.91495 336.015 5.88614C335.85 5.94887 335.67 5.98321 335.483 5.98319C334.471 5.98311 333.459 5.98219 332.447 5.98046C331.618 5.97903 330.948 5.30631 330.949 4.47789ZM338.272 7.51635C339.057 7.25167 339.908 7.67347 340.173 8.45848C340.289 8.80194 340.391 9.09165 340.48 9.31984C340.57 9.5479 340.619 9.63591 340.622 9.64344L340.623 9.64472C341.172 10.4682 341.684 11.3398 342.162 12.2466C342.548 12.9794 342.267 13.8867 341.534 14.2729C340.801 14.6592 339.894 14.3782 339.508 13.6453C339.072 12.8182 338.612 12.0365 338.126 11.309C337.942 11.0333 337.797 10.6929 337.69 10.4203C337.571 10.1192 337.449 9.77097 337.33 9.41698C337.065 8.63198 337.487 7.78104 338.272 7.51635ZM73.9966 9.86082C74.825 9.85216 75.5035 10.5167 75.5122 11.3451C75.5332 13.3498 75.5835 15.361 75.6492 17.3784C75.6762 18.2064 75.0269 18.8995 74.1989 18.9265C73.3709 18.9535 72.6778 18.3042 72.6508 17.4762C72.5846 15.4443 72.5336 13.4098 72.5124 11.3764C72.5037 10.548 73.1682 9.86948 73.9966 9.86082ZM342.612 16.7962C343.391 16.515 344.251 16.9188 344.532 17.6981C345.194 19.5327 345.766 21.4269 346.26 23.3119C346.47 24.1132 345.991 24.9332 345.19 25.1433C344.389 25.3535 343.569 24.8742 343.358 24.0729C342.882 22.2581 342.336 20.4516 341.71 18.7162C341.429 17.937 341.833 17.0773 342.612 16.7962ZM74.3184 21.9926C75.1461 21.9589 75.8444 22.6026 75.8781 23.4303L75.8992 23.9457C75.9746 25.7951 76.0502 27.6494 76.115 29.5026C76.144 30.3305 75.4963 31.0252 74.6683 31.0541C73.8404 31.0831 73.1458 30.4354 73.1168 29.6075C73.0524 27.7643 72.9771 25.9194 72.9017 24.0693L72.8806 23.5524C72.8469 22.7246 73.4906 22.0263 74.3184 21.9926ZM345.791 27.8185C346.604 27.6604 347.392 28.1915 347.55 29.0047C347.74 29.9836 347.911 30.9416 348.066 31.868C348.216 32.767 348.337 33.678 348.433 34.5975C348.52 35.4214 347.922 36.1594 347.098 36.2458C346.274 36.3323 345.536 35.7345 345.45 34.9106C345.359 34.0447 345.246 33.1945 345.107 32.362C344.956 31.4595 344.789 30.5278 344.605 29.5771C344.447 28.7639 344.978 27.9765 345.791 27.8185ZM74.7525 34.1214C75.5808 34.1088 76.2626 34.7701 76.2752 35.5984C76.2907 36.6174 76.2994 37.6364 76.2994 38.6552C76.2994 39.3399 76.3189 40.0333 76.3487 40.7383C76.3838 41.566 75.7412 42.2654 74.9135 42.3004C74.0858 42.3355 73.3865 41.6929 73.3514 40.8652C73.3205 40.1338 73.2994 39.3956 73.2994 38.6552C73.2994 37.6534 73.2908 36.6497 73.2755 35.6441C73.2629 34.8158 73.9242 34.134 74.7525 34.1214ZM347.224 38.5711C348.053 38.553 348.739 39.2097 348.757 40.0379C348.796 41.8203 348.782 43.624 348.746 45.428C348.729 46.2562 348.044 46.9142 347.216 46.8976C346.388 46.881 345.73 46.196 345.746 45.3678C345.782 43.5864 345.795 41.8283 345.758 40.1035C345.739 39.2752 346.396 38.5892 347.224 38.5711ZM75.0074 43.5921C75.8351 43.5576 76.5341 44.2006 76.5686 45.0284C76.5984 45.7443 76.6188 46.469 76.6195 47.1984C76.6264 47.2279 76.6408 47.2778 76.6689 47.356C76.7484 47.5772 76.7728 47.8048 76.7491 48.0238C76.9714 48.2489 77.1247 48.5459 77.1686 48.8839C77.2029 49.1476 77.2132 49.5423 77.0433 49.9612C76.8562 50.422 76.5131 50.7596 76.1065 50.9629C75.5091 51.2616 74.8095 51.3314 74.2763 51.3497C73.7118 51.3691 73.2094 51.074 72.9379 50.6218C72.6334 51.0176 72.1381 51.2526 71.6044 51.2012C71.0934 51.152 70.7379 51.1212 70.5107 51.1212C69.4252 51.1212 68.3403 51.1407 67.2522 51.1701C66.4241 51.1925 65.7346 50.5393 65.7122 49.7112C65.6898 48.8831 66.343 48.1936 67.1711 48.1712C68.2767 48.1413 69.39 48.1212 70.5107 48.1212C70.9128 48.1212 71.4277 48.1704 71.8917 48.215C72.3844 48.2624 72.7983 48.543 73.0349 48.9372C73.2364 48.6749 73.5231 48.4805 73.8553 48.3965C73.852 48.3879 73.8488 48.3793 73.8457 48.3707C73.7533 48.1134 73.6195 47.6975 73.6195 47.2374C73.6195 46.5491 73.6004 45.8552 73.5712 45.1532C73.5367 44.3255 74.1797 43.6266 75.0074 43.5921ZM52.321 48.2676C52.5769 48.2703 52.9238 48.2791 53.3094 48.291C53.9083 48.3095 54.4143 48.6765 54.6389 49.1915C54.8998 48.6959 55.4291 48.3672 56.026 48.3907L56.085 48.3931C56.4148 48.4061 56.7043 48.4175 56.9261 48.4258C56.982 48.4279 57.0331 48.4298 57.0792 48.4314C57.1298 48.4332 57.1743 48.4348 57.2121 48.436C57.2944 48.4387 57.3213 48.439 57.3171 48.439C58.4019 48.439 59.4867 48.4195 60.5755 48.39C61.4036 48.3675 62.0932 49.0206 62.1156 49.8487C62.1381 50.6769 61.485 51.3664 60.6569 51.3889C59.5506 51.4189 58.4372 51.439 57.3171 51.439C57.1896 51.439 56.6758 51.4187 56.0689 51.3948L55.9079 51.3884C55.3138 51.365 54.814 50.9991 54.5913 50.4883C54.3325 50.9798 53.8096 51.3078 53.217 51.2896C53.1706 51.2881 53.1251 51.2868 53.0806 51.2854C53.0692 51.4114 53.0604 51.5517 53.055 51.7073C53.0264 52.5353 52.332 53.1832 51.5041 53.1546C50.6761 53.126 50.0282 52.4316 50.0568 51.6037C50.0845 50.8023 50.1912 49.8713 50.5723 49.1093C50.8089 48.636 51.2102 48.4518 51.2818 48.4189L51.2865 48.4168C51.4152 48.3572 51.5241 48.3292 51.5702 48.3181C51.6711 48.2937 51.755 48.2845 51.786 48.2812C51.8618 48.2732 51.9333 48.2705 51.9772 48.2691C52.0753 48.2662 52.1961 48.2663 52.321 48.2676ZM347.145 49.2243C347.973 49.2481 348.625 49.9387 348.602 50.7668C348.55 52.5488 348.506 54.3149 348.496 56.0584C348.492 56.8868 347.816 57.5546 346.988 57.55C346.16 57.5454 345.492 56.8701 345.496 56.0417C345.506 54.2617 345.552 52.4668 345.603 50.6807C345.627 49.8526 346.317 49.2006 347.145 49.2243ZM51.6359 53.9989C52.4605 53.9192 53.1936 54.5229 53.2734 55.3475C53.3437 56.0746 53.4139 56.8244 53.4139 57.4086C53.4139 58.2822 53.4276 59.1501 53.4527 60.0138C53.4767 60.8419 52.8249 61.5327 51.9969 61.5567C51.1688 61.5807 50.478 60.9289 50.454 60.1009C50.4281 59.2106 50.4139 58.3137 50.4139 57.4086C50.4139 56.9985 50.3616 56.4045 50.2873 55.6364C50.2075 54.8118 50.8113 54.0787 51.6359 53.9989ZM347.026 59.8782C347.853 59.8338 348.56 60.4685 348.604 61.2957C348.651 62.1709 348.715 63.0335 348.8 63.882C348.892 64.808 348.91 65.9141 348.926 67.0105L348.927 67.0555C348.94 67.8839 348.279 68.5657 347.45 68.5784C346.622 68.5912 345.94 67.93 345.927 67.1017C345.91 65.9495 345.893 64.9665 345.815 64.1799C345.725 63.2802 345.658 62.3715 345.609 61.4564C345.564 60.6292 346.199 59.9226 347.026 59.8782ZM52.1223 63.8517C52.9486 63.7924 53.6666 64.4141 53.7258 65.2404C53.8514 66.9905 54.0039 68.7345 54.1629 70.4925C54.2374 71.3176 53.6291 72.0469 52.804 72.1215C51.9789 72.1961 51.2496 71.5877 51.175 70.7626C51.0158 69.001 50.8612 67.2342 50.7335 65.4552C50.6743 64.6289 51.296 63.9109 52.1223 63.8517ZM347.582 71.6895C348.391 71.5081 349.193 72.0163 349.374 72.8246C349.593 73.7989 349.899 74.5169 350.28 74.9937C350.779 75.6172 351.453 76.0643 352.317 76.4098C353.086 76.7175 353.46 77.5905 353.152 78.3596C352.844 79.1288 351.971 79.5029 351.202 79.1951C350.006 78.7167 348.848 78.0053 347.938 76.8684L347.937 76.8672C347.158 75.8924 346.716 74.6799 346.447 73.4815C346.266 72.6732 346.774 71.8709 347.582 71.6895ZM53.0141 74.41C53.8396 74.341 54.5648 74.9542 54.6338 75.7798C54.7074 76.6597 54.7773 77.5457 54.8409 78.4387C54.9274 79.6467 55.0087 80.8851 55.0818 82.1462C55.1297 82.9732 54.4981 83.6825 53.6711 83.7304C52.8441 83.7784 52.1348 83.1468 52.0868 82.3197C52.0146 81.0737 51.9342 79.8489 51.8485 78.653C51.786 77.7747 51.7171 76.9006 51.6443 76.0297C51.5753 75.2042 52.1886 74.479 53.0141 74.41ZM356.691 78.9092C356.879 78.1023 357.686 77.6006 358.493 77.7884C359.684 78.0658 360.935 78.4659 362.023 79.1912C363.04 79.8692 363.448 80.9903 363.658 81.8578C363.853 82.6629 363.359 83.4738 362.554 83.6689C361.749 83.864 360.938 83.3695 360.743 82.5643C360.666 82.2471 360.583 82.0261 360.503 81.8774C360.427 81.7356 360.372 81.6959 360.36 81.6875C359.711 81.2556 358.867 80.9559 357.812 80.7103C357.005 80.5224 356.504 79.716 356.691 78.9092ZM362.5 84.8722C363.308 84.6868 364.113 85.1911 364.298 85.9985C364.409 86.4804 364.534 86.7838 364.651 86.9704C364.756 87.0157 364.886 87.0714 365.038 87.1364C365.484 87.3265 366.107 87.5897 366.824 87.8924C367.587 88.2145 367.945 89.0943 367.623 89.8576C367.301 90.6208 366.421 90.9785 365.658 90.6564C364.941 90.3539 364.313 90.0885 363.861 89.8959C363.636 89.7998 363.451 89.7201 363.318 89.6622C363.253 89.6338 363.195 89.6077 363.148 89.5863C363.126 89.5763 363.096 89.5623 363.066 89.5471C363.052 89.5403 363.023 89.5258 362.989 89.5068C362.978 89.5004 362.959 89.4897 362.936 89.4754C362.926 89.4692 362.915 89.4623 362.903 89.4547C362.888 89.4451 362.775 89.374 362.657 89.2559C361.908 88.5064 361.567 87.5113 361.374 86.6698C361.189 85.8623 361.693 85.0575 362.5 84.8722ZM53.8554 88.1178C54.6836 88.0988 55.3704 88.7548 55.3894 89.583C55.4462 92.0591 55.4534 94.5643 55.3901 97.0459C55.369 97.8741 54.6805 98.5284 53.8524 98.5072C53.0242 98.4861 52.37 97.7977 52.3911 96.9695C52.4529 94.5442 52.4461 92.0881 52.3902 89.6519C52.3712 88.8236 53.0272 88.1368 53.8554 88.1178ZM369.924 90.8274C370.249 90.0655 371.13 89.7116 371.892 90.0368C373.135 90.5675 374.244 91.0466 374.538 91.2084C375.026 91.4772 375.325 91.9947 375.314 92.5521C375.303 93.1095 374.984 93.6147 374.485 93.864C374.165 94.0243 373.839 94.3887 373.536 95.2002C373.246 95.9764 372.382 96.3707 371.606 96.081C370.83 95.7913 370.435 94.9273 370.725 94.1512C370.865 93.7769 371.036 93.3937 371.25 93.025C371.079 92.9516 370.9 92.875 370.715 92.7959C369.953 92.4707 369.599 91.5893 369.924 90.8274ZM371.271 98.6841C372.072 98.8968 372.548 99.7183 372.336 100.519C372.051 101.59 371.607 102.798 370.727 103.679C370.045 104.361 369.269 104.779 368.493 105.045C367.71 105.314 366.856 104.896 366.588 104.113C366.319 103.329 366.737 102.476 367.52 102.207C367.957 102.058 368.309 101.854 368.603 101.56L368.604 101.559C368.905 101.258 369.185 100.695 369.436 99.7487C369.649 98.9481 370.47 98.4714 371.271 98.6841ZM365.631 104.016C365.756 104.835 365.194 105.6 364.375 105.725C363.779 105.816 363.318 105.938 362.947 106.124L362.946 106.124C362.058 106.569 361.208 107.18 360.332 107.904C359.694 108.432 358.748 108.343 358.22 107.705C357.692 107.066 357.782 106.121 358.42 105.593C359.379 104.8 360.428 104.03 361.605 103.441L362.267 104.765L361.604 103.442L361.605 103.441C362.378 103.054 363.19 102.871 363.922 102.76C364.741 102.635 365.506 103.197 365.631 104.016ZM53.6038 102.892C54.4284 102.971 55.0326 103.704 54.9533 104.528C54.8313 105.798 54.683 107.048 54.5051 108.269C54.3171 109.558 54.1044 110.845 53.8914 112.12C53.7548 112.937 52.9817 113.488 52.1646 113.352C51.3475 113.215 50.7959 112.442 50.9324 111.625C51.1454 110.351 51.3533 109.092 51.5364 107.837C51.7066 106.669 51.8492 105.468 51.9671 104.241C52.0464 103.417 52.7791 102.812 53.6038 102.892ZM355.23 110.407C355.669 111.11 355.456 112.035 354.754 112.475C353.652 113.164 352.425 113.729 351.027 114.009L351.026 114.009C350.091 114.196 349.089 114.313 348.131 114.422C347.308 114.515 346.565 113.924 346.471 113.101C346.377 112.278 346.969 111.534 347.792 111.441C348.766 111.33 349.646 111.226 350.438 111.068M355.23 110.407C354.79 109.705 353.865 109.492 353.163 109.931ZM353.163 109.931C352.287 110.48 351.397 110.875 350.439 111.067ZM343.88 113.454C344.173 114.229 343.784 115.095 343.009 115.389C342.256 115.674 341.628 116.039 341.126 116.514L341.123 116.516C340.998 116.634 340.775 116.985 340.594 117.79C340.413 118.598 339.61 119.106 338.802 118.925C337.993 118.743 337.486 117.94 337.667 117.132C337.891 116.136 338.283 115.07 339.066 114.333C339.923 113.523 340.92 112.973 341.945 112.584C342.72 112.29 343.586 112.68 343.88 113.454ZM51.4381 118.031C52.2619 118.118 52.8587 118.857 52.7712 119.681C52.6384 120.931 52.5464 122.176 52.5148 123.418C52.48 124.773 52.484 126.123 52.5161 127.472C52.5358 128.301 51.8804 128.988 51.0522 129.008C50.224 129.027 49.5367 128.372 49.517 127.544C49.4839 126.153 49.4795 124.753 49.5158 123.341C49.5498 122.003 49.6485 120.677 49.788 119.364C49.8755 118.54 50.6143 117.943 51.4381 118.031ZM338.775 120.52C339.604 120.513 340.281 121.18 340.287 122.008C340.299 123.451 340.377 124.993 340.459 126.516C340.503 127.343 339.868 128.05 339.041 128.094C338.214 128.138 337.507 127.504 337.463 126.677C337.381 125.16 337.299 123.552 337.287 122.032C337.281 121.203 337.947 120.527 338.775 120.52ZM339.139 129.672C339.968 129.669 340.642 130.338 340.645 131.167C340.648 132.088 340.613 132.969 340.492 133.7C340.344 134.587 340.107 135.455 339.811 136.301C339.538 137.083 338.682 137.495 337.9 137.221C337.118 136.948 336.706 136.092 336.979 135.31C337.229 134.596 337.418 133.896 337.532 133.207C337.612 132.729 337.648 132.05 337.645 131.178C337.642 130.349 338.311 129.675 339.139 129.672ZM51.3548 134.257C52.181 134.196 52.9 134.817 52.9608 135.643C53.0043 136.236 53.0493 136.835 53.0945 137.436C53.1527 138.21 53.2112 138.988 53.2672 139.762C53.2957 140.145 53.3518 140.6 53.4187 141.142C53.4363 141.284 53.4546 141.433 53.4734 141.588C53.573 142.41 52.9871 143.158 52.1647 143.258C51.3423 143.357 50.5948 142.771 50.4952 141.949C50.4792 141.817 50.4627 141.684 50.4463 141.551C50.3781 140.999 50.3097 140.446 50.2753 139.981L50.2751 139.979C50.2189 139.204 50.1613 138.437 50.1037 137.67C50.0586 137.07 50.0134 136.469 49.9688 135.863C49.9081 135.037 50.5286 134.318 51.3548 134.257ZM337.06 138.899C337.784 139.303 338.043 140.217 337.639 140.94C337.175 141.772 336.664 142.638 336.168 143.478C335.825 144.059 335.49 144.628 335.181 145.166C334.769 145.884 333.852 146.133 333.134 145.72C332.415 145.308 332.167 144.391 332.579 143.673C332.933 143.056 333.28 142.468 333.624 141.886C334.095 141.089 334.558 140.305 335.019 139.478C335.423 138.755 336.337 138.496 337.06 138.899ZM43.6191 143.994C44.592 143.875 45.5919 143.822 46.6119 143.88L46.5261 145.378L46.6106 143.88L46.6119 143.88C46.9665 143.901 47.3187 143.939 47.668 144C48.0707 144.07 48.4079 144.294 48.629 144.602C48.2638 144.723 47.9448 144.983 47.7587 145.354C47.4996 145.869 47.5663 146.464 47.8811 146.902C47.6542 146.977 47.4059 146.999 47.154 146.955C46.9291 146.916 46.6923 146.89 46.4416 146.876L46.4404 146.876C45.6353 146.829 44.818 146.87 43.9813 146.972C43.1589 147.072 42.4111 146.486 42.3111 145.664C42.2111 144.841 42.7967 144.094 43.6191 143.994ZM49.9607 148.266C49.7594 148.222 49.564 148.135 49.3879 148.005C49.2927 147.934 49.2058 147.868 49.1374 147.816L49.1221 147.804C49.0856 147.777 49.0571 147.755 49.0335 147.737L49.0066 147.717L48.9994 147.712L48.9985 147.711L48.997 147.71C48.8082 147.577 48.6183 147.463 48.4263 147.367C48.2018 147.254 48.018 147.093 47.8811 146.902M49.9607 148.266C50.1007 148.455 50.2872 148.613 50.5136 148.722C50.676 148.801 50.9668 148.928 51.3111 148.964C51.6675 149.001 52.4765 148.951 52.9399 148.165C53.3899 147.404 53.5786 146.527 53.6556 145.722C53.7346 144.897 53.13 144.165 52.3054 144.086C51.5473 144.013 50.867 144.518 50.7009 145.241C50.4001 145.03 50.0907 144.846 49.7722 144.686C49.4026 144.5 48.9929 144.482 48.629 144.602M50.6857 145.315L49.8629 146.484L50.685 145.32C50.6783 145.358 50.673 145.397 50.6693 145.436C50.6494 145.644 50.6214 145.827 50.5876 145.986C50.2601 146.123 49.9795 146.375 49.8134 146.72C49.6753 147.006 49.6365 147.315 49.6833 147.607C49.7214 147.845 49.8163 148.071 49.9607 148.266M51.4866 145.906C51.4011 145.791 51.2977 145.686 51.1768 145.596C51.1166 145.552 51.06 145.509 51.0064 145.468C50.9829 145.45 50.96 145.433 50.9376 145.416L50.9286 145.409C50.868 145.363 50.7898 145.304 50.7274 145.26M39.9134 146.245C40.1121 147.049 39.6212 147.862 38.817 148.061C37.9221 148.282 37.0008 148.503 36.0738 148.68C35.6725 148.757 35.2218 148.78 34.8469 148.794C34.4753 148.808 34.1302 148.685 33.8599 148.471C33.646 148.692 33.3623 148.85 33.0357 148.906C32.9874 148.915 32.9442 148.923 32.9057 148.932C32.8791 149.134 32.8664 149.424 32.8751 149.812C32.8935 150.641 32.237 151.327 31.4088 151.345C30.5806 151.364 29.8942 150.707 29.8758 149.879C29.8637 149.336 29.8793 148.757 29.9801 148.239C30.069 147.782 29.787 146.248 33 146M33 146C33 146 34.3323 145.811 34.735 145.796C35.1146 145.782 35.358 145.762 35.5093 145.733L35.5122 145.733C36.3545 145.572 37.2093 145.368 38.0975 145.149C38.9017 144.95 39.7148 145.441 39.9134 146.245M332.253 147.377C333.029 147.668 333.422 148.532 333.132 149.308C332.863 150.025 332.668 150.711 332.558 151.371C332.397 152.335 332.388 153.291 332.475 154.263C332.549 155.088 331.94 155.817 331.115 155.89C330.29 155.964 329.561 155.355 329.487 154.53C329.383 153.364 329.387 152.147 329.599 150.877C329.748 149.986 330.002 149.11 330.322 148.256C330.613 147.48 331.477 147.087 332.253 147.377ZM31.6292 152.742C32.4572 152.718 33.1485 153.369 33.1732 154.197C33.1994 155.077 33.178 156.192 32.7849 157.042L32.784 157.043C32.4247 157.818 32.0016 158.536 31.5372 159.211C31.0677 159.894 30.1338 160.067 29.4513 159.597C28.7687 159.127 28.5961 158.193 29.0657 157.511C29.448 156.955 29.7831 156.383 30.062 155.782M31.6292 152.742C30.8011 152.767 30.1498 153.458 30.1745 154.286ZM30.1745 154.286C30.2017 155.197 30.1246 155.644 30.0628 155.78ZM331.922 159.369C332.737 159.221 333.518 159.762 333.665 160.577C333.869 161.698 334.021 162.876 334.021 164.106C334.021 165.036 333.967 165.955 333.873 166.863C333.788 167.687 333.051 168.286 332.227 168.201C331.403 168.116 330.804 167.379 330.889 166.555C330.974 165.735 331.021 164.919 331.021 164.106C331.021 163.12 330.899 162.134 330.714 161.113C330.566 160.298 331.107 159.517 331.922 159.369ZM28.4257 160.706C29.0125 161.291 29.0143 162.241 28.4296 162.827C27.9818 163.277 27.5502 163.697 27.1274 164.109C26.4917 164.728 25.8761 165.328 25.2558 165.977C24.6836 166.576 23.7341 166.598 23.1351 166.026C22.536 165.454 22.5142 164.504 23.0863 163.905C23.7287 163.233 24.4295 162.549 25.105 161.89C25.5209 161.485 25.9271 161.089 26.3043 160.71C26.889 160.123 27.8388 160.121 28.4257 160.706ZM22.1572 167.181C22.8662 167.609 23.0936 168.531 22.6651 169.24C22.3224 169.807 22.0259 170.398 21.785 171.021C21.488 171.791 21.3829 172.621 21.3981 173.547C21.4117 174.375 20.7513 175.058 19.9229 175.072C19.0946 175.085 18.4121 174.425 18.3985 173.596C18.3791 172.418 18.5091 171.177 18.9863 169.941C19.2967 169.137 19.6738 168.39 20.0976 167.689C20.5261 166.98 21.4482 166.752 22.1572 167.181ZM331.821 170.381C332.629 170.561 333.138 171.363 332.958 172.172C332.766 173.032 332.562 173.889 332.36 174.734L332.355 174.757C332.155 175.597 331.957 176.425 331.772 177.252C331.591 178.06 330.789 178.569 329.981 178.388C329.172 178.207 328.664 177.405 328.844 176.596C329.037 175.738 329.241 174.882 329.442 174.038C329.644 173.19 329.844 172.354 330.03 171.519C330.21 170.71 331.012 170.201 331.821 170.381ZM20.5007 178.333C21.3288 178.311 22.0177 178.965 22.0394 179.793C22.0701 180.968 21.9585 182.209 21.5047 183.447C21.0999 184.549 20.3843 185.274 19.5488 185.742C18.826 186.147 17.9119 185.889 17.507 185.167C17.1022 184.444 17.3599 183.53 18.0826 183.125C18.3619 182.968 18.5557 182.774 18.6881 182.414C18.9712 181.642 19.0649 180.806 19.0404 179.872C19.0187 179.043 19.6725 178.354 20.5007 178.333ZM329.571 180.567C330.395 180.653 330.993 181.391 330.907 182.215C330.822 183.035 330.774 183.85 330.774 184.662C330.774 185.164 330.607 185.693 330.462 186.09C330.299 186.536 330.079 187.035 329.837 187.544C329.482 188.293 328.588 188.612 327.839 188.257C327.091 187.902 326.772 187.007 327.127 186.259C327.352 185.785 327.527 185.381 327.644 185.062C327.702 184.903 327.739 184.783 327.759 184.698C327.768 184.664 327.772 184.642 327.774 184.631C327.775 183.711 327.83 182.802 327.924 181.904C328.009 181.08 328.747 180.482 329.571 180.567ZM16.3602 185.04C16.6271 185.824 16.2077 186.676 15.4234 186.943C14.936 187.109 14.6491 187.3 14.459 187.542C14.0506 188.065 13.7715 188.813 13.6075 189.832C13.4759 190.649 12.7061 191.206 11.8882 191.074C11.0703 190.942 10.514 190.173 10.6457 189.355C10.8501 188.085 11.25 186.776 12.0961 185.693L12.0974 185.692C12.7736 184.829 13.6523 184.377 14.4569 184.103C15.2412 183.836 16.0933 184.256 16.3602 185.04ZM326.985 189.816C327.722 190.193 328.015 191.097 327.637 191.834C327.181 192.728 326.863 193.401 326.732 193.795C326.499 194.492 326.312 195.215 326.163 195.96C326 196.773 325.21 197.299 324.398 197.137C323.585 196.974 323.059 196.183 323.222 195.371C323.392 194.52 323.609 193.676 323.886 192.846C324.101 192.203 324.525 191.332 324.966 190.469C325.343 189.731 326.247 189.439 326.985 189.816ZM11.9331 194.536C12.761 194.566 13.4073 195.262 13.3767 196.09C13.3322 197.292 13.2145 198.553 12.8497 199.679C12.3168 201.325 11.4043 202.733 10.4111 203.985C9.89625 204.634 8.95276 204.743 8.30372 204.228C7.65469 203.713 7.54589 202.77 8.06072 202.121C8.93892 201.014 9.61628 199.926 9.99572 198.755C10.2298 198.032 10.337 197.106 10.3787 195.979C10.4093 195.151 11.1052 194.505 11.9331 194.536ZM324.222 198.987C325.049 199.023 325.691 199.723 325.655 200.551C325.586 202.115 325.593 203.707 325.6 205.331C325.604 206.16 324.935 206.835 324.107 206.838C323.279 206.842 322.604 206.174 322.6 205.345C322.593 203.732 322.586 202.068 322.658 200.42C322.694 199.592 323.394 198.95 324.222 198.987ZM4.34953 208.596C5.0681 209.009 5.31642 209.925 4.90416 210.644C4.27615 211.739 3.89289 212.87 3.86302 214.147C3.82826 215.621 4.05062 216.359 4.25492 216.703C4.67832 217.415 4.44432 218.335 3.73226 218.759C3.0202 219.182 2.09973 218.948 1.67634 218.236C1.05012 217.183 0.823765 215.777 0.863841 214.076M4.34953 208.596C3.63097 208.184 2.71425 208.432 2.302 209.151ZM324.112 208.693C324.94 208.729 325.582 209.429 325.546 210.257C325.509 211.101 325.45 211.944 325.358 212.777L325.358 212.778C325.302 213.273 325.248 214 325.188 214.86C325.129 215.686 324.412 216.309 323.585 216.251C322.759 216.192 322.137 215.475 322.195 214.649C322.254 213.808 322.312 213.014 322.376 212.446C322.46 211.694 322.514 210.92 322.548 210.126C322.585 209.299 323.285 208.657 324.112 208.693ZM2.302 209.151C1.48166 210.581 0.90785 212.198 0.863841 214.076ZM13.4675 218.6C13.2037 218.501 12.9557 218.454 12.7148 218.458C11.9508 218.467 10.9842 218.727 9.77445 219.1C8.98287 219.345 8.14311 218.901 7.8988 218.109C7.65449 217.318 8.09814 216.478 8.88972 216.234C10.0379 215.879 11.4105 215.474 12.6761 215.458L12.6955 216.958M13.4675 218.6C13.8843 218.758 14.3274 218.717 14.6933 218.526ZM15.4893 217.353C16.0433 217.063 16.7431 217.142 17.2206 217.597C17.5894 217.949 17.9254 218.309 18.2217 218.638L18.2228 218.639C19.274 219.808 20.035 221.084 20.5691 222.422C20.8762 223.191 20.5014 224.064 19.732 224.371C18.9626 224.678 18.0899 224.304 17.7828 223.534C17.3717 222.504 16.7928 221.535 15.9921 220.645C15.72 220.343 15.4408 220.046 15.1497 219.768C14.7999 219.434 14.6467 218.972 14.6933 218.526M323.511 217.554C324.333 217.656 324.917 218.405 324.815 219.227C324.744 219.799 324.658 220.353 324.546 220.801C324.491 221.02 324.416 221.271 324.309 221.504C324.237 221.659 324.003 222.154 323.457 222.428L323.454 222.43C322.815 222.749 322.111 222.854 321.521 222.896C320.837 222.945 320.227 222.527 320.004 221.913C319.807 222.478 319.28 222.893 318.646 222.917C318.19 222.935 317.877 222.983 317.67 223.051C317.255 223.19 316.56 223.543 315.616 224.129C314.912 224.566 313.987 224.349 313.55 223.646C313.113 222.942 313.33 222.017 314.034 221.58C315.012 220.973 315.954 220.461 316.72 220.205L316.723 220.204C317.327 220.004 317.969 219.941 318.53 219.92C319.198 219.894 319.781 220.309 319.997 220.905C320.189 220.357 320.692 219.948 321.307 219.904C321.454 219.893 321.578 219.879 321.682 219.863C321.734 219.607 321.787 219.269 321.838 218.858C321.94 218.036 322.689 217.452 323.511 217.554ZM311.632 225.025C312.135 225.684 312.009 226.625 311.35 227.128C309.976 228.177 308.562 229.322 307.248 230.446C306.619 230.984 305.672 230.91 305.133 230.281C304.595 229.651 304.669 228.705 305.298 228.166C306.653 227.007 308.11 225.827 309.53 224.744C310.188 224.241 311.129 224.367 311.632 225.025ZM245.426 230.703C244.393 230.703 243.482 230.763 242.681 230.875C241.86 230.989 241.103 230.417 240.988 229.596C240.874 228.776 241.446 228.018 242.267 227.904C243.226 227.77 244.277 227.703 245.426 227.703H247.726C248.554 227.703 249.226 228.374 249.226 229.203C249.226 230.031 248.554 230.703 247.726 230.703H245.426ZM250.825 229.203C250.825 228.374 251.496 227.703 252.325 227.703H254.624C255.165 227.703 255.664 227.994 255.93 228.465C256.559 229.577 257.056 230.701 257.447 231.83C257.718 232.613 257.304 233.468 256.521 233.739C255.738 234.01 254.884 233.596 254.613 232.813C254.367 232.104 254.074 231.4 253.724 230.703H252.325C251.496 230.703 250.825 230.031 250.825 229.203ZM20.203 229.252C21.0295 229.308 21.6537 230.024 21.5971 230.851C21.503 232.225 21.3275 233.586 21.1372 234.884M20.203 229.252C19.3765 229.195 18.6607 229.819 18.6041 230.646ZM238.203 230.643C238.805 231.212 238.833 232.161 238.264 232.763C237.307 233.777 236.859 235.234 236.811 237.23C236.791 238.058 236.104 238.713 235.276 238.693C234.447 238.673 233.792 237.986 233.812 237.158C233.868 234.801 234.405 232.48 236.083 230.704C236.651 230.101 237.601 230.074 238.203 230.643ZM18.6041 230.646C18.5177 231.908 18.3547 233.181 18.1687 234.45ZM303.38 231.865C303.972 232.445 303.982 233.395 303.403 233.987C302.614 234.792 302.106 235.399 301.875 235.768C301.374 236.57 300.97 237.371 300.646 238.167C300.333 238.934 299.458 239.303 298.691 238.99C297.923 238.678 297.555 237.803 297.867 237.035C298.255 236.083 298.737 235.129 299.331 234.177C299.745 233.516 300.448 232.716 301.259 231.888C301.838 231.296 302.788 231.286 303.38 231.865ZM18.1687 234.45L18.1686 234.451ZM18.1686 234.451C18.1112 234.844 18.0474 235.208 17.9775 235.608ZM17.9775 235.608C17.9152 235.964 17.8479 236.347 17.776 236.804ZM20.9189 236.205C20.8545 236.577 20.7902 236.949 20.7396 237.27C20.6109 238.089 19.8431 238.648 19.0247 238.519C18.2063 238.39 17.6473 237.623 17.776 236.804M20.9189 236.205C21.0004 235.734 21.0822 235.261 21.1372 234.884ZM257.18 237.538C258.007 237.485 258.72 238.113 258.773 238.939C258.895 240.848 258.884 242.777 258.874 244.649C258.871 245.064 258.869 245.477 258.868 245.886C258.866 246.714 258.193 247.384 257.365 247.382C256.537 247.381 255.866 246.708 255.868 245.879C255.869 245.447 255.871 245.019 255.874 244.594C255.884 242.727 255.894 240.925 255.779 239.131C255.726 238.304 256.354 237.591 257.18 237.538ZM17.8553 242.248C17.6095 241.457 18.0516 240.616 18.8427 240.371C19.6338 240.125 20.4744 240.567 20.7202 241.358C20.8835 241.884 21.1429 242.293 21.5352 242.609C21.8531 242.865 22.1777 243.042 22.5122 243.163C23.2912 243.445 23.694 244.305 23.4119 245.084C23.1299 245.863 22.2698 246.266 21.4908 245.984C20.8509 245.752 20.2341 245.414 19.6527 244.945C18.7249 244.197 18.1658 243.247 17.8553 242.248ZM235.625 241.588C236.442 241.454 237.214 242.007 237.349 242.825C237.464 243.521 237.593 244.251 237.724 244.995C237.939 246.211 238.16 247.466 238.338 248.677C238.459 249.497 237.892 250.259 237.072 250.379C236.253 250.5 235.49 249.933 235.37 249.113C235.196 247.93 234.991 246.769 234.783 245.596C234.65 244.843 234.516 244.085 234.389 243.312C234.254 242.495 234.808 241.723 235.625 241.588ZM298.068 241.845C298.894 241.915 299.506 242.641 299.436 243.466C299.289 245.207 299.328 246.908 299.368 248.628C299.372 248.823 299.377 249.019 299.381 249.214C299.399 250.043 298.742 250.729 297.914 250.747C297.086 250.765 296.4 250.108 296.382 249.28C296.377 249.086 296.373 248.89 296.368 248.692C296.328 246.991 296.285 245.126 296.447 243.213C296.517 242.387 297.243 241.775 298.068 241.845ZM26.5645 243.128C27.0786 243.04 27.6017 243.225 27.9459 243.617C28.1147 243.809 28.3311 244.05 28.5684 244.314C28.9155 244.7 29.3074 245.136 29.6607 245.543C30.2037 246.169 30.1367 247.116 29.511 247.659C28.8854 248.202 27.938 248.135 27.395 247.51C27.025 247.083 26.7036 246.727 26.3942 246.383C26.3447 246.328 26.2954 246.273 26.2463 246.219C25.9565 246.262 25.6625 246.301 25.3673 246.332C24.5434 246.418 23.8056 245.82 23.7194 244.996C23.6331 244.172 24.2312 243.435 25.0551 243.348C25.5345 243.298 26.0323 243.219 26.5645 243.128ZM30.8324 249.37C31.5834 249.021 32.4757 249.346 32.8252 250.097C33.2673 251.047 33.5904 252.101 33.5945 253.197C33.5968 253.96 33.4898 254.682 33.3429 255.352C33.1654 256.161 32.3654 256.673 31.5563 256.495C30.7471 256.318 30.2351 255.518 30.4127 254.709C30.5289 254.179 30.5959 253.687 30.5945 253.208C30.5925 252.686 30.4347 252.07 30.1054 251.363C29.7558 250.612 30.0813 249.72 30.8324 249.37ZM257.51 251.232C258.331 251.118 259.088 251.691 259.202 252.512C259.349 253.574 259.558 254.621 259.854 255.656C260.024 256.251 260.299 256.814 260.67 257.364C261.133 258.051 260.952 258.983 260.265 259.446C259.579 259.91 258.646 259.728 258.183 259.042C257.665 258.273 257.239 257.426 256.969 256.48C256.629 255.291 256.393 254.103 256.23 252.923C256.117 252.103 256.69 251.345 257.51 251.232ZM237.322 253.285C238.149 253.332 238.781 254.04 238.735 254.867C238.672 255.967 238.514 257.055 238.214 258.102M237.322 253.285C236.495 253.238 235.786 253.871 235.739 254.698ZM297.857 253.669C298.666 253.851 299.173 254.654 298.99 255.462C298.744 256.556 298.354 257.627 297.744 258.644C296.962 259.948 295.931 260.795 294.787 261.349C294.041 261.71 293.144 261.399 292.783 260.653C292.422 259.907 292.734 259.01 293.479 258.649C294.148 258.325 294.717 257.859 295.171 257.101C295.59 256.403 295.875 255.641 296.064 254.802C296.246 253.993 297.049 253.486 297.857 253.669ZM235.739 254.698C235.688 255.602 235.563 256.443 235.347 257.218ZM235.347 257.218C235.343 257.224 235.339 257.232 235.334 257.24C235.293 257.305 235.223 257.404 235.114 257.539C234.896 257.81 234.578 258.157 234.165 258.573C233.582 259.161 233.585 260.111 234.173 260.695C234.761 261.278 235.711 261.275 236.294 260.687C236.742 260.236 237.141 259.806 237.451 259.421C237.717 259.09 238.068 258.616 238.214 258.104M31.2353 257.124C32.0439 257.304 32.5537 258.105 32.3738 258.914C32.2555 259.445 32.1868 259.938 32.1868 260.415C32.1868 260.817 32.2759 261.028 32.3546 261.15C32.4389 261.28 32.5866 261.424 32.8727 261.575C33.605 261.962 33.8849 262.87 33.4977 263.602C33.1106 264.335 32.203 264.615 31.4706 264.228C30.8649 263.907 30.2703 263.452 29.835 262.778C29.3942 262.096 29.1868 261.299 29.1868 260.415C29.1868 259.652 29.2966 258.931 29.4454 258.262C29.6252 257.454 30.4266 256.944 31.2353 257.124ZM289.369 261.001C289.523 261.815 288.988 262.599 288.174 262.753C287.192 262.939 286.396 263.199 285.751 263.629L285.75 263.63C285.26 263.956 284.738 264.568 284.226 265.537C283.839 266.27 282.932 266.55 282.199 266.163C281.467 265.777 281.186 264.869 281.573 264.137C282.207 262.935 283.02 261.844 284.086 261.134M261.571 260.636C262.098 259.997 263.043 259.905 263.683 260.432C264.063 260.745 264.475 261.073 264.899 261.41C265.731 262.073 266.612 262.774 267.402 263.482C268.019 264.036 268.07 264.984 267.517 265.601C266.964 266.217 266.015 266.269 265.399 265.716C264.668 265.061 263.919 264.465 263.136 263.842C262.694 263.491 262.242 263.132 261.776 262.748C261.136 262.221 261.045 261.276 261.571 260.636ZM232.68 262.023C233.223 262.649 233.156 263.596 232.53 264.139C231.287 265.218 229.957 266.337 228.693 267.389C228.056 267.919 227.11 267.832 226.58 267.195C226.05 266.558 226.137 265.612 226.774 265.082C228.031 264.037 229.343 262.933 230.563 261.874C231.189 261.331 232.137 261.398 232.68 262.023ZM36.6886 263.987C37.0491 263.241 37.9459 262.928 38.6918 263.289C39.8707 263.858 40.963 264.787 41.4854 266.354C41.6128 266.736 41.6951 267.124 41.7588 267.461C41.8216 267.795 41.7687 268.124 41.6284 268.406C41.8398 268.577 42.0073 268.808 42.1021 269.084C42.1711 269.285 42.2413 269.415 42.3069 269.503L42.3078 269.504C42.5729 269.858 42.9697 270.192 43.5267 270.572C44.2109 271.039 44.3869 271.973 43.9197 272.657C43.4526 273.341 42.5193 273.517 41.8351 273.05C41.189 272.609 40.4693 272.053 39.9073 271.303L41.096 270.412L39.9081 271.304L39.9073 271.303C39.6018 270.896 39.4031 270.462 39.2646 270.058C39.1291 269.663 39.1677 269.251 39.3397 268.904C39.0732 268.688 38.879 268.38 38.8106 268.017C38.7546 267.719 38.7017 267.49 38.6393 267.303C38.4372 266.696 38.0423 266.307 37.3866 265.99C36.6407 265.63 36.3282 264.733 36.6886 263.987ZM268.714 266.912C269.453 266.538 270.356 266.834 270.729 267.573C271.142 268.389 271.45 269.277 271.612 270.25C271.802 271.395 271.893 272.513 271.921 273.598C271.943 274.426 271.289 275.115 270.461 275.136C269.633 275.158 268.944 274.504 268.922 273.676C268.897 272.705 268.816 271.728 268.652 270.742C268.544 270.091 268.338 269.493 268.052 268.927C267.678 268.188 267.975 267.285 268.714 266.912ZM225.038 268.462C225.567 269.1 225.479 270.045 224.841 270.574C223.927 271.331 223.29 271.869 223.012 272.13C222.45 272.657 221.914 273.225 221.398 273.828C220.859 274.457 219.912 274.531 219.283 273.992C218.653 273.454 218.58 272.507 219.118 271.877C219.697 271.202 220.308 270.553 220.959 269.942C221.32 269.603 222.041 268.998 222.926 268.264C223.564 267.735 224.51 267.824 225.038 268.462ZM281.223 269.459C282.034 269.627 282.556 270.421 282.388 271.232C281.978 273.21 281.685 275.347 281.477 277.432C281.395 278.256 280.66 278.858 279.836 278.776C279.012 278.694 278.41 277.959 278.492 277.135C278.707 274.981 279.013 272.734 279.45 270.624C279.618 269.813 280.412 269.292 281.223 269.459ZM90.5118 271.763C90.5912 270.938 91.324 270.334 92.1486 270.413C93.6392 270.557 95.1305 270.939 96.5192 271.737C97.5176 272.311 98.3036 273.103 98.9419 273.989C99.4261 274.662 99.2737 275.599 98.6015 276.083C97.9293 276.567 96.9919 276.415 96.5077 275.743C96.0559 275.116 95.5706 274.653 95.0246 274.338C94.0913 273.802 93.0364 273.512 91.8612 273.399C91.0366 273.32 90.4325 272.587 90.5118 271.763ZM83.896 271.091C84.7145 270.964 85.4816 271.524 85.6095 272.342C85.7373 273.161 85.1774 273.928 84.3588 274.056C82.9893 274.269 81.5769 274.47 80.2353 274.51C79.0051 274.547 77.9828 274.77 77.1259 275.124C76.36 275.439 75.4832 275.074 75.1675 274.308C74.8518 273.542 75.2168 272.666 75.9827 272.35C77.2129 271.843 78.5978 271.558 80.1461 271.511C81.2806 271.478 82.5279 271.305 83.896 271.091ZM176.189 275.618C176.531 275.608 176.888 275.612 177.26 275.631C178.087 275.673 178.792 275.037 178.834 274.209C178.876 273.382 178.239 272.677 177.412 272.635C176.378 272.583 175.371 272.62 174.415 272.776C173.689 272.894 173.156 273.521 173.156 274.256C173.156 274.673 173.186 275.585 173.223 276.718C173.233 277.04 173.244 277.38 173.256 277.732C173.282 278.56 173.974 279.21 174.802 279.184C175.63 279.158 176.28 278.465 176.254 277.637C176.242 277.257 176.23 276.897 176.219 276.563C176.208 276.219 176.198 275.902 176.189 275.618ZM45.1544 273.173C45.843 272.712 46.7746 272.897 47.2352 273.586C47.7714 274.388 48.0775 275.345 48.0368 276.484C47.9754 278.234 47.321 279.679 46.4521 280.908C45.9738 281.584 45.0377 281.745 44.3613 281.267C43.685 280.788 43.5244 279.852 44.0027 279.176C44.6341 278.283 45.0031 277.393 45.0386 276.379L45.0387 276.378C45.0566 275.88 44.9339 275.541 44.7416 275.254C44.281 274.565 44.4658 273.634 45.1544 273.173ZM181.182 274.66C181.396 273.859 182.218 273.384 183.019 273.598C184.735 274.057 186.505 274.651 188.273 275.32C189.048 275.614 189.438 276.48 189.145 277.254C188.852 278.029 187.986 278.419 187.211 278.126C185.51 277.482 183.838 276.923 182.243 276.496C181.443 276.282 180.968 275.46 181.182 274.66ZM218.114 275.638C218.811 276.085 219.015 277.013 218.568 277.71C217.693 279.077 216.866 280.503 216.032 281.954C215.619 282.672 214.702 282.92 213.984 282.507C213.265 282.094 213.018 281.177 213.431 280.459C214.265 279.009 215.124 277.526 216.041 276.093C216.488 275.395 217.416 275.192 218.114 275.638ZM191.343 278.173C191.68 277.416 192.566 277.075 193.323 277.411C195.018 278.165 196.675 278.945 198.245 279.701C198.991 280.061 199.305 280.957 198.946 281.704C198.586 282.45 197.689 282.764 196.943 282.404C195.389 281.655 193.761 280.889 192.105 280.153C191.348 279.816 191.007 278.93 191.343 278.173ZM72.1787 277.639C72.9404 277.965 73.294 278.847 72.9683 279.608C72.1386 281.549 71.6735 283.9 71.399 286.413C71.3091 287.236 70.5685 287.831 69.745 287.741C68.9215 287.651 68.3268 286.91 68.4168 286.087C68.7047 283.451 69.2116 280.764 70.2098 278.429C70.5355 277.667 71.417 277.314 72.1787 277.639ZM99.5026 278.322C100.283 278.043 101.141 278.45 101.419 279.231C101.546 279.587 101.67 279.941 101.793 280.292C102.262 281.629 102.716 282.926 103.274 284.164C103.614 284.919 103.278 285.807 102.523 286.148C101.768 286.488 100.879 286.152 100.539 285.397C99.922 284.028 99.4124 282.572 98.94 281.222C98.8226 280.887 98.7075 280.558 98.5936 280.238C98.3153 279.458 98.7223 278.6 99.5026 278.322ZM270.218 278.44C271.044 278.514 271.653 279.242 271.58 280.067C271.377 282.348 271.252 284.259 271.563 285.955C271.713 286.77 271.173 287.551 270.359 287.701C269.544 287.85 268.762 287.311 268.612 286.496C268.217 284.34 268.393 282.034 268.592 279.801C268.665 278.976 269.393 278.367 270.218 278.44ZM147.153 284.1C145.09 283.952 142.987 283.905 140.935 283.978C140.107 284.008 139.412 283.361 139.383 282.533C139.353 281.705 140 281.01 140.828 280.98C142.995 280.903 145.206 280.952 147.368 281.108C148.195 281.167 148.816 281.885 148.757 282.711C148.697 283.538 147.979 284.159 147.153 284.1ZM136.013 282.867C136.164 283.682 135.626 284.464 134.812 284.615C133.773 284.808 132.79 285.042 131.876 285.321C130.845 285.635 129.889 286.023 128.987 286.459C128.242 286.82 127.345 286.508 126.984 285.762C126.623 285.017 126.935 284.12 127.681 283.759C128.704 283.263 129.804 282.816 131.001 282.452C132.038 282.135 133.132 281.875 134.265 281.665C135.08 281.514 135.862 282.052 136.013 282.867ZM152.117 283.125C152.264 282.31 153.044 281.768 153.859 281.915C154.979 282.118 156.058 282.349 157.076 282.605M201.082 282.755C201.444 282.011 202.342 281.701 203.087 282.064C203.955 282.487 204.758 282.874 205.486 283.213C206.003 283.452 206.53 283.724 207.054 284.004C207.785 284.395 208.06 285.303 207.67 286.034C207.279 286.765 206.371 287.04 205.64 286.65C205.135 286.38 204.665 286.138 204.224 285.934L204.221 285.933C203.468 285.582 202.646 285.186 201.773 284.761C201.028 284.398 200.719 283.5 201.082 282.755ZM279.617 282.193C280.445 282.221 281.093 282.915 281.065 283.743C281.022 285.004 281.007 286.089 281.007 286.902C281.007 287.452 280.876 288.341 280.668 289.247C280.484 290.055 279.679 290.559 278.872 290.375C278.064 290.19 277.559 289.385 277.744 288.578C277.934 287.747 278.007 287.116 278.007 286.902C278.007 286.055 278.022 284.937 278.066 283.641C278.095 282.813 278.789 282.165 279.617 282.193ZM173.379 284.539C173.386 283.711 174.063 283.045 174.891 283.052C175.72 283.059 176.385 283.736 176.379 284.564C176.371 285.478 176.346 286.316 176.291 286.968C176.264 287.29 176.227 287.606 176.171 287.878C176.143 288.013 176.104 288.173 176.044 288.334C175.997 288.46 175.883 288.742 175.633 288.996C175.33 289.303 174.981 289.391 174.913 289.408L174.908 289.41C174.786 289.441 174.681 289.453 174.621 289.459C174.494 289.471 174.367 289.472 174.269 289.47C174.061 289.467 173.801 289.451 173.52 289.429C172.949 289.383 172.182 289.301 171.324 289.199C170.501 289.102 169.913 288.356 170.01 287.534C170.108 286.711 170.854 286.123 171.676 286.22C172.305 286.295 172.867 286.356 173.325 286.4C173.355 285.899 173.373 285.266 173.379 284.539ZM212.979 284.255C213.682 284.693 213.897 285.618 213.459 286.321C213.001 287.056 212.529 287.781 212.038 288.483C211.63 289.067 210.868 289.283 210.214 289.001C209.669 288.765 209.135 288.508 208.617 288.246C207.879 287.871 207.584 286.968 207.959 286.229C208.334 285.49 209.237 285.196 209.976 285.571C210.078 285.623 210.18 285.674 210.282 285.724C210.494 285.4 210.704 285.07 210.913 284.735C211.351 284.032 212.276 283.817 212.979 284.255ZM40.8198 284.532C41.4647 285.052 41.5659 285.996 41.0459 286.641C40.3141 287.549 39.8275 288.441 39.6484 289.426C39.5413 290.017 39.5987 290.552 39.7739 291.083C40.0334 291.87 39.6059 292.718 38.8191 292.978C38.0324 293.237 37.1843 292.81 36.9248 292.023C36.6113 291.072 36.4902 290.028 36.6967 288.89C36.9952 287.247 37.7891 285.901 38.7105 284.758C39.2305 284.113 40.1749 284.012 40.8198 284.532ZM159.548 285.233C159.878 284.473 160.762 284.126 161.522 284.457C161.951 284.643 162.36 284.8 162.767 284.917L162.772 284.918C162.772 284.918 162.793 284.924 162.846 284.936C162.897 284.947 162.962 284.961 163.045 284.977C163.209 285.01 163.423 285.049 163.68 285.093C164.194 285.181 164.858 285.286 165.61 285.4C166.429 285.523 166.993 286.287 166.87 287.106C166.747 287.925 165.983 288.49 165.164 288.366C163.709 288.147 162.393 287.931 161.937 287.8C161.364 287.635 160.826 287.426 160.324 287.207C159.564 286.876 159.217 285.992 159.548 285.233ZM123.89 287.751C124.358 288.434 124.184 289.368 123.5 289.836C121.587 291.146 119.587 292.494 117.295 293.239C116.507 293.495 115.661 293.064 115.405 292.276C115.149 291.489 115.58 290.642 116.367 290.386C118.187 289.794 119.849 288.7 121.805 287.361C122.489 286.893 123.422 287.067 123.89 287.751ZM103.799 288.203C104.361 287.594 105.31 287.556 105.918 288.117C106.456 288.613 107.063 289.033 107.765 289.361C108.815 289.852 109.77 290.203 110.647 290.439C111.447 290.655 111.92 291.478 111.705 292.278C111.489 293.078 110.666 293.551 109.866 293.336C108.799 293.048 107.68 292.633 106.495 292.079C105.496 291.613 104.634 291.014 103.884 290.322C103.275 289.761 103.237 288.812 103.799 288.203ZM272.075 290.577C272.599 289.936 273.544 289.841 274.186 290.366C274.785 290.856 275.522 291.337 276.428 291.801C276.452 291.776 276.479 291.746 276.509 291.709C277.031 291.066 277.976 290.967 278.619 291.489C279.262 292.011 279.36 292.956 278.838 293.599C278.494 294.024 278.012 294.471 277.365 294.704C276.661 294.957 275.917 294.9 275.232 294.558C274.092 293.988 273.115 293.366 272.287 292.688C271.645 292.164 271.551 291.219 272.075 290.577ZM69.52 292.187C70.3478 292.22 70.9921 292.918 70.9591 293.745C70.9058 295.086 70.8465 296.38 70.7394 297.538L70.7393 297.54C70.7261 297.681 70.7127 297.829 70.6987 297.984C70.6473 298.553 70.5884 299.206 70.5049 299.872C70.4017 300.694 69.6517 301.276 68.8297 301.173C68.0077 301.07 67.4251 300.32 67.5283 299.498C67.6046 298.89 67.6573 298.306 67.7082 297.743C67.7229 297.581 67.7374 297.42 67.7523 297.26C67.8513 296.19 67.9081 294.968 67.9615 293.626C67.9945 292.798 68.6922 292.154 69.52 292.187ZM40.0322 294.435C40.6895 293.931 41.6311 294.055 42.1354 294.712C42.6504 295.383 43.1986 296.135 43.6213 296.956C44.2018 298.084 44.7073 299.34 45.1849 300.528C45.2622 300.72 45.3387 300.91 45.4147 301.097C45.7258 301.865 45.3555 302.74 44.5877 303.051C43.8199 303.362 42.9453 302.992 42.6342 302.224C42.553 302.023 42.4731 301.825 42.3942 301.629C41.9121 300.432 41.4653 299.323 40.9541 298.33C40.6614 297.761 40.2522 297.186 39.7553 296.538C39.251 295.881 39.375 294.939 40.0322 294.435ZM68.521 302.775C69.2409 303.185 69.4921 304.101 69.0821 304.821C68.6018 305.664 67.9437 306.448 67.0373 307.019C66.3635 307.443 65.6555 307.705 64.9626 307.873C64.1575 308.068 63.3466 307.574 63.1515 306.769C62.9564 305.964 63.4509 305.153 64.2561 304.958C64.7098 304.848 65.0992 304.694 65.4379 304.481C65.8395 304.228 66.1822 303.851 66.4753 303.336C66.8852 302.617 67.8012 302.365 68.521 302.775ZM62.5958 306.678C62.6404 307.506 62.0059 308.212 61.1787 308.257C60.5938 308.288 60.0794 308.331 59.6124 308.417L59.6107 308.417C59.1769 308.496 58.7354 308.618 58.2722 308.771C57.4856 309.031 56.6372 308.604 56.3772 307.817C56.1172 307.031 56.5441 306.182 57.3307 305.922C57.8797 305.741 58.4609 305.577 59.0713 305.466M56.2294 307.963C56.502 308.745 56.0889 309.6 55.3066 309.873C54.7699 310.06 54.2016 310.235 53.6054 310.366" fill="#0959C1"/></svg>