<svg width="116" height="45" viewBox="0 0 116 45" fill="none" xmlns="http://www.w3.org/2000/svg"><path fill-rule="evenodd" clip-rule="evenodd" d="M10.1387 40.0519L11.7241 39.8051C13.8441 39.4816 16.7887 39.4329 19.3629 38.9499C20.3752 38.7602 21.3269 38.5126 22.1121 38.1124C22.8373 37.7278 23.7363 38.0027 24.1201 38.7257C24.504 39.4491 24.2291 40.348 23.5078 40.7323C22.5062 41.2875 21.2896 41.6806 19.9814 41.9706C17.3913 42.545 14.4115 42.6869 12.2759 43.0803L7.25508 43.9912C6.31573 44.1495 5.42304 43.5169 5.26477 42.5775C5.21101 42.2584 5.34286 41.3465 5.97998 40.1836C6.94358 38.4282 9.02057 35.2725 10.468 32.7446C11.1203 31.6022 11.7143 30.6706 11.7501 30.1401C11.9054 28.2531 11.7759 26.6026 11.3627 25.2877C11.0452 24.2852 10.6159 23.4783 9.96919 23.0057C8.45968 21.8924 6.29787 22.6411 3.60929 25.2772C3.17104 25.7402 2.43911 25.7598 1.97789 25.3205C1.51288 24.8818 1.49502 24.1492 1.93321 23.6858C5.69846 19.4083 9.26431 19.0077 11.6614 20.5375C13.9098 21.9742 15.3861 25.5133 15.245 30.3398C15.2048 31.2156 14.4818 32.9601 13.3675 34.8886C12.3862 36.5851 11.1308 38.4889 10.1387 40.0519Z" fill="#0959C1"/><path fill-rule="evenodd" clip-rule="evenodd" d="M33.2115 15.1053C33.2026 16.6313 32.8841 18.0832 32.4613 19.5201C32.0294 20.9954 31.4119 22.4143 30.8124 23.847C30.3136 25.0414 29.8271 26.2392 29.3619 27.4248C28.5942 29.3911 27.9292 31.3405 27.5608 33.2623C27.2119 35.0912 27.129 36.8972 27.4892 38.6868C27.6253 39.4942 28.3936 40.0391 29.1999 39.9032C30.0099 39.7667 30.5536 39.0008 30.4176 38.1935C29.9982 35.1936 31.1975 32.2608 32.472 29.1942C32.9898 27.9497 33.5363 26.6898 34.011 25.3985C34.3351 24.5136 34.6218 23.6151 34.8598 22.7063C35.5313 20.1691 35.8748 17.5887 35.521 14.9548C35.4801 14.3179 34.9294 13.8342 34.2911 13.876C33.6566 13.9168 33.1706 14.468 33.2115 15.1053Z" fill="#0959C1"/><path fill-rule="evenodd" clip-rule="evenodd" d="M22.801 16.899C23.5026 16.4206 24.2929 16.2132 25.0001 16.2555C26.6556 16.3556 28.5655 17.8716 28.3797 21.5042C28.2446 23.2791 26.7045 25.3274 24.8739 25.8827C23.4674 26.3093 21.9217 26.0953 20.7731 24.5942C20.1542 23.7528 19.8994 22.8211 20.0662 21.7914C20.2785 20.4982 21.1622 19.0575 21.5493 17.8037C21.6741 17.2211 22.2195 16.8366 22.801 16.899ZM23.0817 22.1864C23.1078 22.295 23.1635 22.3932 23.2485 22.4798C23.4774 22.724 23.7496 22.5526 23.9795 22.4082C24.4146 22.1355 24.824 21.6871 24.8641 21.2286C24.9206 20.6817 24.9116 20.2343 24.7982 19.8857C24.7636 19.7735 24.7346 19.6708 24.6751 19.5963C24.6552 19.5707 24.6798 19.5083 24.6504 19.5195C24.2249 19.6863 23.9321 20.2233 23.8409 21.0052C23.7986 21.5204 23.5 21.9532 23.0817 22.1864Z" fill="#0959C1"/><path fill-rule="evenodd" clip-rule="evenodd" d="M37.564 30.1398C37.6733 30.1156 37.7797 30.0968 37.8868 30.0827C38.9848 29.9372 40.0545 30.3675 40.7708 31.1835C41.4677 31.977 41.8756 33.2837 41.2489 35.1348C41.0397 35.7274 40.504 36.3777 39.6612 36.8306C38.7464 37.3207 37.4251 37.6493 36.3925 37.6254C34.3429 37.5777 33.2685 36.3773 33.5431 35.0588C33.6096 34.757 33.8209 34.1308 34.172 33.4291C34.7196 32.3387 35.4968 30.9856 35.7366 30.5518C35.9859 29.9657 36.6675 29.6937 37.2535 29.9453C37.3713 29.9943 37.4725 30.061 37.564 30.1398ZM38.123 33.3415C38.1189 33.3171 38.1013 33.3056 38.067 33.311C38.0366 33.3161 38.0568 33.3436 38.0923 33.3689C37.9908 33.4627 37.8581 33.6493 37.771 33.8752L37.8568 33.8506C37.8826 33.8411 37.9084 33.8321 37.938 33.822C37.9639 33.7203 38.0002 33.5878 38.0522 33.5951C38.0214 33.6672 37.9836 33.7443 37.9526 33.816L37.938 33.822L37.9132 33.9071L37.9526 33.816C38.0918 33.7597 38.1626 33.6927 38.0824 33.6111C38.069 33.6017 38.0602 33.5961 38.0522 33.5951C38.0857 33.5151 38.1162 33.4408 38.1231 33.3888L38.1185 33.3845L38.0923 33.3689L38.123 33.3419L38.123 33.3415ZM38.1231 33.3888C38.1706 33.4156 38.2281 33.4317 38.2347 33.4009C38.2584 33.2866 38.2061 33.2778 38.123 33.3415L38.1259 33.359L38.1231 33.3888Z" fill="#0959C1"/><path fill-rule="evenodd" clip-rule="evenodd" d="M61.6755 29.3967C62.0407 29.4051 62.4517 29.3609 62.8871 29.2993C64.973 29.005 67.4455 28.2196 68.9736 28.0043C69.7837 27.8679 70.5482 28.4133 70.6842 29.2207C70.8203 30.0281 70.2767 30.794 69.4666 30.9304C67.9448 31.2295 65.5121 32.1583 63.4322 32.5576C62.11 32.8117 60.9037 32.8249 60.0087 32.5728C59.4786 32.4212 58.8386 31.9416 58.6092 30.9055C58.3516 29.7474 58.7687 26.6058 58.7955 26.3471C58.9566 24.9589 58.9928 23.5722 59.0456 22.191C59.1339 19.9988 59.2088 17.8207 59.4136 15.6468C59.5656 14.0423 59.8065 12.4542 60.2082 10.8686C60.3293 10.2412 60.9325 9.82867 61.5587 9.94727C62.1887 10.0656 62.5998 10.6714 62.4824 11.2982C62.17 13.715 62.2975 16.0961 62.4048 18.497C62.4823 20.1645 62.5756 21.8324 62.5532 23.5101C62.539 24.5865 62.4545 25.6637 62.3353 26.7437C62.3218 26.8727 61.7829 28.409 61.6755 29.3967ZM61.6548 29.6223C61.6385 30.013 61.7205 30.2675 61.9783 30.219C62.3689 30.1461 62.0427 29.8589 61.6548 29.6223Z" fill="#0959C1"/><path fill-rule="evenodd" clip-rule="evenodd" d="M72.732 13.9215C73.0026 12.1621 73.3434 11.1903 73.937 10.5349C74.597 9.8097 75.6587 9.37936 77.7674 8.9885C82.2099 8.1739 84.6972 10.3318 85.8194 13.3482C86.8688 16.1641 86.5572 19.9086 85.3956 22.6015C84.6815 24.2589 83.618 25.5144 82.456 26.1388C76.0238 29.397 71.7388 26.2494 70.7359 21.8753C70.1579 19.3496 70.7164 16.3043 72.732 13.9215ZM74.504 16.0357C73.5155 17.6665 73.3161 19.5242 73.7681 21.0923C74.4915 23.599 77.1112 25.0103 80.7687 22.9716C81.5555 22.5582 82.0904 21.4853 82.4796 20.2671C83.062 18.454 83.218 16.2462 82.6148 14.4998C82.0593 12.8976 80.7566 11.8041 78.4453 12.1063C78.4355 12.5359 78.1832 12.9425 77.7652 13.1306C76.9202 13.5475 76.2154 14.0531 75.6342 14.6192L75.5989 14.8281C75.505 15.431 75.0587 15.8926 74.504 16.0357Z" fill="#0959C1"/><path fill-rule="evenodd" clip-rule="evenodd" d="M98.5824 22.2475C98.6825 21.2635 98.3395 20.62 97.7584 20.1422C96.4362 19.0497 94.36 18.5422 92.6945 17.6632C91.0115 16.7735 89.6706 15.5934 89.1223 13.871C88.7481 12.625 88.4279 10.3997 88.912 8.69973C89.3507 7.14861 90.2935 5.94279 92.0221 5.73367C92.509 5.67588 92.9954 5.63774 93.4889 5.61873C94.5499 5.57881 95.6148 5.60863 96.6768 5.5748C97.3135 5.52384 97.8707 5.99902 97.9192 6.63538C97.9717 7.27147 97.4985 7.82912 96.8619 7.88046C95.8131 8.0161 94.7576 8.08871 93.7137 8.22979C93.2969 8.28632 92.8867 8.35857 92.4794 8.44793C91.8416 8.5855 91.8326 9.27535 91.7984 9.90805C91.7468 10.9481 92.0334 12.0915 92.301 12.775C92.4847 13.2615 92.8644 13.5882 93.2789 13.8896C93.826 14.2819 94.4753 14.5836 95.1472 14.8811C96.8838 15.6476 98.7466 16.3514 100.022 17.4447C101.475 18.6861 102.372 20.3442 101.932 22.9296C101.776 23.8371 101.223 24.6174 100.23 25.1101C99.3241 25.5588 97.9478 25.793 96.4647 25.7186C94.6583 25.6284 92.6993 25.1438 91.4142 24.3872C90.2769 23.7188 89.5914 22.8304 89.4576 21.8967C89.3215 21.0889 89.8653 20.3234 90.6753 20.1869C91.4815 20.0511 92.246 20.5962 92.3821 21.4039C92.3792 21.3864 92.377 21.3504 92.377 21.3504C92.377 21.3504 92.4378 21.4098 92.4745 21.4415C92.5581 21.5198 92.6667 21.584 92.7798 21.6514C93.288 21.9518 93.9785 22.1506 94.714 22.2915C95.8095 22.5027 97.0085 22.5393 97.9526 22.363C98.1384 22.3282 98.4069 22.297 98.5824 22.2475ZM98.5973 22.2431C98.7276 22.2043 98.8013 22.1543 98.7348 22.0846C98.6736 22.0229 98.6288 22.1282 98.5973 22.2431Z" fill="#0959C1"/><path fill-rule="evenodd" clip-rule="evenodd" d="M106.564 19.3167C107.163 19.5264 108.007 19.2453 108.736 18.8793C109.385 18.554 110.047 18.1436 110.048 17.5459C110.054 16.7212 109.715 16.1021 109.235 15.5786C108.487 14.7567 107.413 14.1636 106.378 13.543C104.994 12.7112 103.65 11.8598 102.732 10.8458C101.907 9.89328 101.092 7.91312 101.113 6.15744C101.134 4.5864 101.702 3.22538 102.935 2.6035C103.762 2.19435 104.67 1.98859 105.62 1.96497C106.788 1.93476 107.998 2.12753 109.061 2.26096C109.698 2.30611 110.178 2.85952 110.133 3.49604C110.088 4.13295 109.535 4.61288 108.898 4.56773C107.945 4.55191 106.858 4.48357 105.833 4.62031C105.301 4.6915 104.799 4.8476 104.361 5.12671C104.248 5.19818 104.282 5.35547 104.255 5.49235C104.202 5.80476 104.257 6.15644 104.328 6.51011C104.481 7.29946 104.85 8.0954 105.248 8.48741C105.996 9.2586 107.119 9.81686 108.213 10.4613C109.572 11.262 110.902 12.1456 111.857 13.242C112.876 14.4134 113.523 15.8149 113.459 17.6192C113.383 19.3297 112.025 20.9682 110.13 21.8158C108.402 22.5883 106.377 22.7086 105.081 22.0255C104.643 21.7915 104.291 21.4675 104.037 21.0523C103.746 20.58 103.593 19.9726 103.455 19.4561C103.405 19.3441 103.369 19.2234 103.348 19.0968C103.212 18.289 103.755 17.5235 104.565 17.387L104.603 17.3802C105.335 17.2667 106.04 17.7139 106.254 18.426C106.328 18.6591 106.493 19.1272 106.564 19.3167ZM105.054 20.3138L105.055 20.3141L105.058 20.3131L105.054 20.3138Z" fill="#0959C1"/></svg>