<svg width="67" height="201" viewBox="0 0 67 201" fill="none" xmlns="http://www.w3.org/2000/svg"><path fill-rule="evenodd" clip-rule="evenodd" d="M33.1123 153.013C33.174 152.839 33.3707 152.284 33.4517 151.944C33.6137 151.273 33.7834 150.625 34.034 150.124C34.655 148.878 35.6577 147.771 36.834 146.788C38.3034 145.561 40.0504 144.536 41.408 143.598C42.8157 142.63 46.2211 141.481 48.9786 140.066C49.8657 139.607 50.6794 139.125 51.2656 138.589C51.5163 138.361 51.7477 138.161 51.7901 137.894C52.1102 135.947 50.7913 135.056 49.6111 134.123C48.1147 132.939 46.6608 131.735 45.9974 130.089C45.5655 129.005 45.415 127.728 45.8084 126.143C46.2326 124.45 47.2817 123.143 48.6971 122.09C49.9004 121.191 51.3852 120.482 52.8198 119.784C54.0308 119.197 55.2148 118.654 55.9823 117.882C56.3371 117.527 56.3526 117.003 56.3834 116.471C56.4413 115.526 56.3564 114.523 56.3757 113.628C56.395 112.726 56.4528 111.831 56.584 110.944C56.7228 110.015 56.9388 109.097 57.2666 108.194C57.9029 106.436 59.1371 104.851 60.0665 103.161C60.3674 102.614 60.6296 102.058 60.78 101.46C60.8417 101.214 60.8301 100.928 60.8108 100.639C60.7646 99.9371 60.6219 99.2121 60.5486 98.6143C60.3326 96.8364 60.2247 94.8734 60.217 92.9103C60.2131 90.955 60.3056 88.9997 60.4946 87.2217L61.4935 78.4092C61.5282 78.012 61.6092 77.6302 61.7249 77.2561C61.8984 76.6891 62.1761 76.1492 62.3343 75.5784C62.5541 74.7801 62.6428 73.7388 62.6543 72.6975C62.6621 71.6061 62.5772 70.5108 62.4268 69.6507C62.369 69.3268 62.261 69.0915 62.0951 68.9141C61.6979 68.4899 61.1695 68.2392 60.6875 67.923C59.8506 67.3715 59.0908 66.7197 58.5855 65.6938C58.2654 65.042 58.0649 64.371 57.9454 63.6768C57.7564 62.5583 57.795 61.3859 57.7525 60.2212C57.7255 59.392 57.6677 58.5628 57.282 57.7838C57.12 57.4521 56.8886 57.1475 56.6341 56.8544C55.8088 55.9018 54.7636 55.0494 54.0347 54.1161C53.4215 53.3293 53.0166 52.4539 52.735 51.5283C52.2414 49.9008 52.2259 48.0843 51.4893 46.5917C50.5174 44.6094 48.6971 42.8431 47.5671 40.8299C46.9616 39.75 46.5258 38.6123 46.3985 37.3782C46.1748 35.2185 46.3484 33.1744 46.9153 31.2422C47.4784 29.3216 48.4271 27.509 49.7654 25.8159C50.0006 25.5112 50.259 25.2335 50.5328 24.9674C51.4199 24.0997 52.492 23.4209 53.3058 22.503C53.6837 22.0788 53.865 21.4926 53.9962 20.8717C54.2623 19.6182 54.2854 18.2337 54.4551 17.1808C54.8369 14.8321 55.4154 12.8999 55.5966 10.8405C55.7008 9.62947 55.6622 8.36833 55.3267 6.92594C55.2418 6.57884 55.3036 6.21246 55.4964 5.91164C56.287 4.70064 56.9735 3.68251 57.7603 2.70677C58.2963 2.03957 58.8748 1.39164 59.5574 0.720582C60.0511 0.226929 60.8533 0.226929 61.3469 0.720582C61.8444 1.21809 61.8444 2.02029 61.3469 2.51394C60.5949 3.27756 59.9855 4.00647 59.4147 4.78166C58.9365 5.42958 58.4891 6.10836 58.007 6.86041C58.3271 8.37993 58.3773 9.74134 58.2809 11.0565C58.1266 13.1815 57.5674 15.1792 57.2165 17.6051C57.0236 18.9048 57.0275 20.6788 56.6148 22.1636C56.3795 23.0159 56.0093 23.7834 55.4771 24.4005C54.7212 25.2798 53.7609 25.9779 52.9008 26.7685C52.6116 27.0346 52.3378 27.3161 52.0948 27.6285C51.0265 29.0208 50.2706 30.5056 49.8348 32.0791C49.4028 33.641 49.2949 35.2917 49.4993 37.0311C49.5957 37.8371 49.9119 38.566 50.3169 39.2602C51.5047 41.3119 53.3829 43.113 54.4127 45.1301C55.2418 46.7692 55.3498 48.7515 55.9206 50.5371C56.0865 51.0694 56.314 51.5784 56.6727 52.0297C57.3784 52.9128 58.3927 53.7034 59.1949 54.5982C59.6539 55.115 60.0511 55.6626 60.3519 56.2527C60.6759 56.889 60.8841 57.5524 61.0153 58.2234C61.2428 59.365 61.2274 60.5452 61.2737 61.706C61.3045 62.5391 61.3624 63.3605 61.7442 64.1126C62.0141 64.6487 62.5117 64.8724 62.959 65.1423C63.5877 65.528 64.2009 65.9252 64.7099 66.4613C65.3 67.0783 65.7667 67.8689 65.9788 69.0067C66.1755 70.0518 66.295 71.3824 66.2989 72.7052C66.3027 74.0975 66.1678 75.4782 65.8824 76.5465L65.1805 78.7139L64.2587 87.5997C64.1006 89.2503 64.0312 91.0668 64.0543 92.8833C64.0736 94.6921 64.1854 96.497 64.3976 98.1361C64.494 98.9267 64.6868 99.914 64.7061 100.828C64.7176 101.383 64.6714 101.919 64.5518 102.405C64.3937 103.034 64.1661 103.64 63.8923 104.226C63.04 106.046 61.6092 107.666 60.9458 109.521C60.7106 110.177 60.5602 110.84 60.4599 111.515C60.3558 112.24 60.3134 112.973 60.2979 113.709C60.2709 115.144 60.4368 116.822 60.0935 118.214C59.8621 119.147 59.4379 119.98 58.7591 120.663C57.8875 121.531 56.6727 122.252 55.3344 122.923C53.8882 123.644 52.2799 124.304 51.0342 125.229C50.367 125.727 49.8039 126.294 49.6034 127.092C49.129 128.974 50.4287 129.799 51.5934 130.721C53.0242 131.863 54.4628 133.047 55.184 134.69C55.6506 135.75 55.8627 136.996 55.6043 138.531C55.4038 139.722 54.6209 140.879 53.3443 141.878C50.6678 143.969 45.3958 145.492 43.5677 146.742C42.2873 147.617 40.6366 148.562 39.2559 149.704C38.4962 150.332 37.8136 151.015 37.4125 151.813C37.2081 152.218 37.1386 152.789 36.9921 153.325C36.8224 153.95 36.6026 154.548 36.294 155.045C35.7773 155.866 35.0445 156.464 33.9646 156.676C31.1917 157.228 27.8402 156.048 24.3461 154.247C20.5396 152.287 16.5016 149.619 12.8069 148.909C10.4197 148.45 8.22522 148.982 6.48586 151.578C3.62422 155.839 3.77077 160.595 5.08589 165.365C7.20706 173.048 12.2824 180.788 14.5231 187.013C14.9088 188.089 15.1441 189.423 15.2636 190.843C15.5143 193.839 15.2752 197.256 15.3138 199.053C15.3369 199.952 14.6273 200.7 13.7287 200.719C12.8339 200.743 12.0857 200.033 12.0626 199.134C12.0202 197.596 12.1783 194.85 12.0433 192.223C11.9623 190.719 11.7965 189.257 11.3915 188.154C8.67258 180.757 2.06228 171.251 0.855143 162.184C0.272787 157.814 0.882134 153.541 3.50081 149.588C6.22747 145.473 9.70233 144.624 13.4857 145.33C17.4851 146.074 21.9164 148.836 26.0392 150.934C28.6309 152.253 31.0451 153.371 33.1123 153.013Z" fill="#0959C1"/></svg>