<svg width="98" height="94" viewBox="0 0 98 94" fill="none" xmlns="http://www.w3.org/2000/svg"><path fill-rule="evenodd" clip-rule="evenodd" d="M26.0766 67.814C24.8621 66.4599 24.7211 64.5745 25.3406 62.7418C26.1614 60.3133 28.4124 58.119 30.5172 57.6913C32.3611 57.3186 33.9938 57.6548 35.4558 58.3946C37.3867 59.3727 38.9957 61.1446 40.3657 62.8824C41.0121 63.7132 41.7152 64.9975 42.0448 66.2849C42.3222 67.3653 42.322 68.4495 41.9938 69.3603C41.3943 70.9445 39.3764 72.6779 36.9907 73.6396C34.6083 74.5992 31.9784 74.7964 30.4681 73.9999C28.4244 72.9024 26.9429 70.7543 26.2146 68.3197C26.1668 68.1511 26.1198 67.9833 26.0766 67.814ZM28.75 67.1795L28.8391 67.4312C29.4481 69.0371 30.4519 70.4937 31.8792 71.1405C32.2066 71.2907 32.6379 71.2532 33.1107 71.1979C33.9085 71.1104 34.792 70.8215 35.6344 70.4442C36.473 70.0684 37.2634 69.5854 37.8707 69.0545C38.2166 68.7524 38.5079 68.4542 38.6253 68.1291C38.7697 67.7371 38.6341 67.2563 38.4788 66.794C38.2573 66.1212 37.905 65.4783 37.5727 65.0363C36.6938 63.875 35.7155 62.6643 34.5373 61.8264C33.5653 61.1338 32.4548 60.6933 31.1231 60.9231C30.1423 61.0921 29.18 62.0504 28.5842 63.116C28.3992 63.4482 28.2331 63.8002 28.1239 64.1509C28.1569 64.7308 28.2463 65.3369 28.389 65.9431C28.7017 66.2912 28.8208 66.7489 28.75 67.1795Z" fill="#0959C1"/><path fill-rule="evenodd" clip-rule="evenodd" d="M11.5487 69.255C11.8035 68.7138 12.2214 67.8887 12.481 67.6099C12.983 67.0778 15.8311 64.3886 17.7374 63.5528C19.376 62.835 20.6798 63.2534 21.3861 64.155C21.7743 64.6503 22.0913 65.6294 21.9608 66.9884C21.8137 68.5527 21.1536 70.9468 20.3142 73.2794L20.262 73.424C21.1615 73.3289 22.0365 73.4066 22.7862 73.6951C25.7571 74.8437 26.6262 76.8224 26.4937 78.9494C26.3355 81.467 24.3376 84.4036 22.889 86.0973C22.3044 86.8015 21.2547 86.8975 20.55 86.3107C19.8454 85.7242 19.7514 84.6758 20.336 83.9712C21.2176 82.8854 22.4367 81.1883 22.8675 79.549C23.1367 78.5332 22.8979 77.5758 21.522 77.0789C20.9723 76.8802 20.2868 77.0666 19.6426 77.3062C19.1548 77.4891 18.6827 77.7368 18.3101 78.014C17.9066 78.8199 17.5243 79.4789 17.2066 79.9087C16.6003 80.7308 15.9339 81.0587 15.5352 81.1424C14.8971 81.2754 14.4067 81.11 14.0314 80.8363C13.7017 80.5971 13.0327 80.0469 13.2728 78.9169C13.2868 78.8439 13.3212 78.6686 13.4427 78.4304C13.4667 78.3805 13.5243 78.2756 13.6079 78.1359C13.9331 77.5851 14.7911 76.2488 14.9179 76.1001C14.9736 76.0321 15.0361 75.9636 15.1021 75.8957C16.1691 73.6548 17.4023 70.294 17.9205 67.8862C16.7664 68.7254 15.6317 69.7841 15.2711 70.1492C15.1675 70.3687 14.4963 71.7721 14.3135 71.9869C13.8508 72.5316 13.3288 72.6639 12.9633 72.6898C12.4252 72.7279 11.1272 72.6808 10.9012 70.9349C10.8123 70.2774 11.0763 69.6531 11.5487 69.255ZM14.5808 70.2749L14.6124 70.4328C14.6049 70.3771 14.5943 70.3247 14.5808 70.2749ZM14.5386 70.1149L14.5696 70.2175L14.5637 70.1995L14.5386 70.1149ZM18.2772 66.431C18.3073 66.2246 18.2859 66.0916 18.145 66.1113C18.0009 66.1317 18.1615 66.3083 18.2772 66.431Z" fill="#0959C1"/><path fill-rule="evenodd" clip-rule="evenodd" d="M39.0014 45.3547C39.2122 47.2523 39.2937 49.1366 39.4248 51.034C39.5101 52.3154 39.5939 53.5898 39.7421 54.8648C39.9923 57.0232 40.406 59.1582 40.8827 61.2869C41.1004 62.1861 41.2489 64.4559 41.7048 65.8828C41.9345 66.6036 42.2366 67.1765 42.5834 67.5158C43.1454 68.1112 44.0842 68.1394 44.6788 67.5782C45.2761 67.0143 45.3021 66.0754 44.7401 65.48C44.6936 65.4252 44.7145 65.3238 44.6864 65.2209C44.5961 64.9005 44.5483 64.5128 44.4974 64.1106C44.3388 62.7907 44.304 61.2988 44.1822 60.6023C43.8338 58.7499 43.6402 56.8817 43.3721 55.0246C43.1906 53.7592 42.9763 52.504 42.7407 51.2488C42.3426 49.1134 41.8458 47.0197 41.2729 44.9183C41.1499 44.2935 40.5441 43.8821 39.9189 44.0007C39.2912 44.1223 38.8786 44.7303 39.0014 45.3547Z" fill="#0959C1"/><path fill-rule="evenodd" clip-rule="evenodd" d="M32.7926 56.262C32.5195 56.1973 32.262 56.0538 32.0547 55.8342C31.0414 54.8788 30.7848 53.854 30.7955 53.0001C30.8143 51.7111 31.6677 50.6599 32.7542 50.0973C33.6375 49.6396 34.6975 49.5995 35.63 49.9581C36.6749 50.3571 37.6421 51.3369 37.8997 53.2278C37.9798 54.2453 37.3601 55.4821 36.058 56.0748C35.4125 56.3686 34.6634 56.5639 34.0134 56.5214C33.5619 56.4926 33.1449 56.4104 32.7926 56.262ZM34.3619 53.677C34.3469 53.7734 34.3372 53.8642 34.3351 53.9463C34.4339 54.0847 34.5071 54.2352 34.5538 54.3916C34.565 54.3921 34.5759 54.3924 34.5866 54.3925C34.9439 54.3665 34.5795 53.9075 34.3619 53.677ZM33.9592 53.2616L33.9598 53.2679L33.9657 53.2629L33.9592 53.2616ZM34.5389 52.9149L34.5118 53.0099C34.5707 52.9655 34.593 52.9216 34.5469 52.884L34.5389 52.9149Z" fill="#0959C1"/><path fill-rule="evenodd" clip-rule="evenodd" d="M46.6617 58.4428C46.2631 57.779 46.068 57.1565 46.0755 56.5464C46.0872 55.6879 46.4865 54.7514 47.5607 53.67C47.8717 53.359 48.7557 52.3908 49.4625 52.1114C50.1461 51.8411 50.7961 51.9286 51.3668 52.2522C53.7777 53.6321 54.4923 55.5802 54.2135 57.3411C53.9452 59.0401 52.6316 60.705 50.6869 61.6226C50.2161 61.8262 48.6635 62.1028 47.7766 61.7027C46.918 61.3156 46.3205 60.6996 46.4405 59.6693L46.6617 58.4428ZM50.1686 55.6463C50.0321 55.8388 49.9108 56.036 49.8472 56.0923C49.6913 56.2305 49.554 56.3548 49.4518 56.4768L49.4411 57.1228C49.5936 57.3855 49.8245 57.6582 50.0976 57.97C50.4053 57.6217 50.6088 57.2249 50.6662 56.8138C50.722 56.401 50.5538 56.0093 50.1686 55.6463ZM50.2995 55.4702C50.6019 55.5321 50.8466 55.516 50.7259 55.2926C50.6309 55.1245 50.4643 55.2627 50.2995 55.4702Z" fill="#0959C1"/><path fill-rule="evenodd" clip-rule="evenodd" d="M63.184 43.8258C63.971 43.2043 65.0823 41.5274 65.4129 41.1866C65.5428 41.0545 65.6494 40.9146 65.7317 40.7659C66.117 40.0728 66.3397 39.32 66.7995 38.6553C67.2409 37.9655 68.1618 37.7612 68.8502 38.204C69.5414 38.644 69.7414 39.5637 69.3 40.2535C68.9366 40.8686 68.8127 41.5577 68.5176 42.189C68.3278 42.5947 68.0789 42.9771 67.7627 43.3445C67.2779 43.904 65.7995 45.6919 64.64 46.5536C63.9104 47.0954 63.1825 47.2963 62.6702 47.2929C62.2474 47.2889 61.5333 47.0381 60.8448 46.3818C60.0058 45.5885 58.9062 44.0135 58.6342 43.6073C58.2244 42.9541 57.8168 42.3031 57.4546 41.6273C56.0474 39.0241 54.9394 36.3166 53.3891 33.7361C53.0231 33.2134 53.1533 32.4917 53.6781 32.1263C54.2004 31.7637 54.9218 31.8931 55.2876 32.4155C56.2648 33.6192 57.1534 34.8472 58.0059 36.1098C58.88 37.4067 59.7282 38.704 60.5809 40.0174C60.9371 40.5578 61.275 41.1124 61.6408 41.6517C61.7931 41.8972 62.3706 43.2449 62.8635 43.8233L62.9637 43.8227C63.006 43.8225 63.0482 43.8224 63.0905 43.8222L63.184 43.8258C63.1175 43.879 63.0538 43.9237 62.9919 43.9593C63.1539 44.1029 63.2999 44.1396 63.4096 43.9973C63.5054 43.874 63.3627 43.8353 63.184 43.8258ZM62.8635 43.8233C62.8264 43.8233 62.7947 43.8236 62.7724 43.8224C62.68 43.82 62.3918 43.7563 62.4467 43.8763C62.5558 44.1042 62.751 44.103 62.9919 43.9593L62.9678 43.9338C62.9439 43.914 62.9224 43.8913 62.9012 43.8689L62.8635 43.8233Z" fill="#0959C1"/><path fill-rule="evenodd" clip-rule="evenodd" d="M67.3835 22.8637C67.634 22.6627 67.8975 22.5711 68.219 22.5746L68.2729 22.581C69.3365 22.3651 70.5504 22.6003 71.7706 23.2188C73.0361 23.8571 74.3177 24.9395 75.3791 26.2043C76.6788 27.7554 77.6127 29.593 77.8737 31.1955C78.0617 32.3385 77.9102 33.3916 77.4506 34.27C75.7366 37.4546 73.2005 38.4086 70.781 38.0142C67.4566 37.4759 64.2089 34.0803 63.7495 30.3125C63.7075 29.9141 63.6796 29.5474 63.6663 29.2074C63.1212 28.3266 63.1907 27.2877 63.7162 26.2375C64.3919 24.8858 66.07 23.5398 67.3058 22.9275L67.3835 22.8637ZM66.5473 29.2143C66.5781 29.4155 66.6166 29.6305 66.6607 29.8625C67.0334 31.8305 68.5797 33.5529 70.2943 34.2737C71.7213 34.8753 73.2914 34.5271 74.3059 32.5904C74.4992 32.2334 74.4234 31.7709 74.2922 31.278C74.0346 30.314 73.4512 29.2859 72.7249 28.3704C71.9906 27.4464 71.1187 26.6239 70.233 26.1351C69.7317 25.8625 69.2574 25.641 68.8225 25.7477C68.5255 25.8207 68.1131 26.0582 67.7036 26.3547C67.297 26.6488 66.8876 26.996 66.5979 27.3745C66.5291 27.5769 66.4879 27.7918 66.4744 28.0246C66.6653 28.3955 66.688 28.8296 66.5473 29.2143Z" fill="#0959C1"/><path fill-rule="evenodd" clip-rule="evenodd" d="M75.1448 21.6728C75.625 21.6252 76.0901 21.3203 76.5874 21.0493C77.4334 20.5859 78.2908 20.039 79.1243 19.641C79.731 19.351 80.3315 19.1389 80.9137 19.0364C83.521 18.6017 85.2005 19.5493 86.0151 20.9235C87.0662 22.6944 86.7557 25.6579 84.2751 27.9517C84.0305 28.1758 83.7793 28.3704 83.5149 28.5341C82.8085 28.9713 81.9984 29.1075 81.3818 29.6567C80.7873 30.2179 79.846 30.1926 79.2837 29.597C78.7216 29.0016 78.7504 28.0601 79.3449 27.4989C79.5798 27.2645 79.8349 27.074 80.0989 26.8986C80.7283 26.481 81.4916 26.2839 82.0761 25.6839C82.9581 24.7867 83.3817 23.7859 83.2233 22.9888C83.1063 22.4098 82.4576 22.3406 81.5528 22.5227C80.9964 22.63 80.4347 22.973 79.8437 23.3077C79.0698 23.7464 78.279 24.2235 77.4946 24.5498C76.482 24.9716 75.4752 25.1805 74.5173 25.0309C73.9114 24.934 73.2023 24.5592 72.7307 23.7899C72.2035 22.9224 71.8877 21.5934 71.9294 21.0645C72.0921 19.1861 72.4119 17.9912 73.0878 17.0498C73.7453 16.1338 74.7063 15.4101 76.2832 14.5973C76.8303 14.2723 77.541 14.4521 77.8676 15.0003C78.1941 15.5486 78.0121 16.2603 77.4653 16.5856C76.4356 17.287 75.7813 17.8188 75.3971 18.5129C75.047 19.1478 75.023 19.9257 75.0537 21.0932C74.9403 21.136 75.0175 21.4312 75.1448 21.6728ZM75.1631 21.7091C75.2758 21.9071 75.4225 22.0513 75.5163 21.9596C75.6488 21.8303 75.3935 21.7509 75.1631 21.7091ZM75.0537 21.0932L75.0658 21.0892C75.0922 21.0834 75.0564 21.1352 75.0572 21.153L75.0537 21.0932Z" fill="#0959C1"/><path fill-rule="evenodd" clip-rule="evenodd" d="M82.3656 12.9447C82.3845 12.9423 82.3978 12.9452 82.4108 12.9477C82.9146 13.0656 83.4089 12.8308 83.9285 12.6564C84.8023 12.3629 85.6982 12.0142 86.5819 11.8604C87.2029 11.7542 87.8232 11.7314 88.4362 11.8358C89.0003 11.9334 89.483 12.147 89.9079 12.4567C90.3277 12.761 90.6881 13.1595 91.0413 13.5448C92.602 15.2881 92.7636 16.7404 92.286 18.0436C91.796 19.3785 90.3335 20.644 88.6949 22.0937C88.1003 22.655 87.1616 22.6268 86.5995 22.0314C86.0375 21.436 86.0634 20.4972 86.658 19.9359C87.6063 18.9797 88.5375 18.1739 89.0368 17.3488C89.3119 16.893 89.1207 16.4826 88.5424 15.9037L87.899 15.3119C87.1934 15.2105 86.4957 15.5615 85.7821 15.8056C85.0058 16.0732 84.2266 16.3208 83.4654 16.3965C82.8076 16.4638 82.1605 16.4355 81.5325 16.2366C80.1886 15.8017 79.5349 15.0812 79.3008 14.277C79.1284 13.6786 79.1033 13.0002 79.3826 12.2904C79.6217 11.684 80.0226 11.0133 80.5704 10.3912C81.7756 9.02176 83.4907 7.77669 84.05 7.50389C84.6041 7.18075 85.3118 7.36866 85.6318 7.92107C85.9519 8.47376 85.7657 9.18096 85.2144 9.50145C84.8183 9.77295 83.7012 10.9267 82.9153 12.0944C82.754 12.3336 82.5087 12.6749 82.3656 12.9447ZM82.3234 13.0292C82.2338 13.2208 82.2193 13.3571 82.3714 13.3498C82.3938 13.3509 82.3856 13.303 82.3802 13.2805C82.3652 13.2252 82.3481 13.1172 82.3234 13.0292ZM82.2994 12.942C82.2772 12.8792 82.248 12.8538 82.2176 12.9115C82.2026 12.9406 82.2465 12.9421 82.2994 12.942Z" fill="#0959C1"/></svg>