<svg width="123" height="248" viewBox="0 0 123 248" fill="none" xmlns="http://www.w3.org/2000/svg"><path fill-rule="evenodd" clip-rule="evenodd" d="M54.8398 235.688C55.5726 236.363 56.0316 237.332 56.0316 238.407C56.0316 240.456 54.3693 242.12 52.3215 242.12C52.0245 242.127 50.3121 241.95 48.9044 240.155C47.8863 238.855 45.661 235.492 45.3177 234.85C40.1035 225.02 36.297 212.464 36.5554 200.435C36.7405 191.87 39.0583 183.6 44.1067 176.562C50.5551 167.644 59.9268 161.626 69.9387 156.371C78.8245 151.707 88.2039 147.65 95.979 142.072C102.026 137.731 107.09 132.453 109.686 124.734C110.391 122.678 110.48 120.229 110.364 117.786C110.222 114.796 109.755 111.806 109.331 109.296C107.9 100.687 105.112 94.053 101.579 88.5537C96.2682 80.2796 89.3995 74.4576 83.0899 68.4416C75.7083 61.4063 69.044 54.1384 65.6154 43.4554C64.1421 38.8444 63.7333 32.8453 64.1074 26.6029C64.6165 18.0342 66.4561 9.00997 68.2109 2.91875C68.6544 1.2195 70.3938 0.200567 72.0946 0.64447C73.7916 1.08837 74.8097 2.8285 74.3662 4.52775C73.0125 10.3062 71.7166 18.8298 71.6318 26.8663C71.5778 32.0401 72.0329 36.9963 73.4329 40.7484C76.7882 49.778 82.955 55.6147 89.5422 61.3816C96.7002 67.6514 104.363 73.795 110.476 82.6179C114.954 89.0778 118.556 96.9536 120.592 107.249C121.271 110.751 122.011 115.057 122.108 119.222C122.185 122.497 121.83 125.69 120.932 128.483C117.519 138.793 111.032 146.089 102.925 151.823C94.6523 157.678 84.6558 161.862 75.1144 166.553C66.4716 170.802 58.145 175.38 52.3947 182.779C47.2345 189.353 45.5414 197.626 45.8654 205.972C46.2125 214.918 48.7772 223.959 52.2636 231.378C52.5066 231.9 54.8977 235.712 54.8977 235.712L54.8398 235.688Z" fill="#0959C1"/><path fill-rule="evenodd" clip-rule="evenodd" d="M50.7661 232.779C51.0438 231.537 51.3099 230.26 51.6339 229.352C52.6135 226.593 53.5699 224.036 54.4415 222.462C56.1385 219.468 57.9742 216.578 59.9874 213.81C67.5889 203.362 77.0262 194.362 83.1814 183.374C84.0993 181.542 86.3284 180.798 88.1642 181.714C89.9961 182.63 90.7404 184.862 89.8226 186.695C88.4766 189.8 86.9069 192.79 85.1714 195.721C78.7925 206.51 70.2655 216.3 64.7427 227.893C63.2579 230.807 61.7847 237.505 59.6288 241.529C58.3946 243.831 56.8828 245.516 55.4096 246.473C52.8295 248.147 50.3496 248.139 47.9353 246.847C46.894 246.289 45.7679 245.375 44.7806 244.13C44.0864 243.256 43.5002 242.036 42.8291 241.392C34.0822 232.687 24.9651 223.865 16.6231 214.423C10.977 208.032 5.72418 201.39 1.02677 194.449C-0.02996 193.047 0.251574 191.05 1.65154 189.993C3.05537 188.936 5.05314 189.216 6.10987 190.618C11.2971 196.813 17.0628 202.583 23.029 208.238C32.0343 216.772 41.5294 224.876 50.7661 232.779ZM52.4515 235.53C53.0146 236.53 53.5699 237.269 54.0597 236.705C54.8388 235.814 53.836 235.473 52.4515 235.53ZM49.8174 236.029C49.4163 236.167 49.0577 236.336 48.7761 236.527C48.7144 236.571 48.4676 236.589 48.5447 236.648C49.0692 237.034 49.478 236.722 49.8174 236.029Z" fill="#0959C1"/></svg>