<svg width="142" height="76" viewBox="0 0 142 76" fill="none" xmlns="http://www.w3.org/2000/svg"><path fill-rule="evenodd" clip-rule="evenodd" d="M11.1471 52.5634C11.8224 55.1526 12.5328 57.7726 13.4712 60.3439C13.8817 61.4768 14.3681 62.5815 14.842 63.6853C15.9567 66.2831 17.1292 68.8235 18.0962 71.3596C18.3629 72.1342 19.2102 72.5456 19.9833 72.2794C20.7564 72.0132 21.1707 71.1674 20.9041 70.3928C19.9296 67.2548 18.8261 64.0262 17.5216 60.8537C17.0157 59.6211 16.4629 58.4066 15.8972 57.202C15.0445 55.377 14.1283 53.6163 13.335 51.8101C13.1272 51.2065 12.4662 50.886 11.8645 51.0931C11.2592 51.3016 10.9393 51.9599 11.1471 52.5634Z" fill="#0959C1"/><path fill-rule="evenodd" clip-rule="evenodd" d="M9.17564 51.3595C8.59458 52.7576 8.30073 54.2689 8.15008 55.8316C8.0981 56.3632 8.10043 56.8968 8.0673 57.4219C8.02508 58.1307 7.99345 58.8263 7.79324 59.4927C7.64532 59.9837 7.46643 60.4743 7.13741 60.9243C6.605 61.5462 6.67707 62.4837 7.29824 63.0166C7.91941 63.5494 8.85771 63.4773 9.39015 62.8558C10.6953 61.5181 11.2993 59.9148 11.5423 58.1949C11.6677 57.3111 11.7056 56.3942 11.6549 55.4841C11.5845 54.2653 11.2941 53.1047 11.4169 51.9341C11.5744 51.3163 11.201 50.6855 10.5815 50.5269C9.96586 50.3681 9.33313 50.7412 9.17564 51.3595Z" fill="#0959C1"/><path fill-rule="evenodd" clip-rule="evenodd" d="M24.2865 49.0699C23.7931 49.343 23.0777 50.1081 22.9192 50.2402C22.1093 50.9205 21.572 51.362 21.3789 51.9384C21.1829 52.5182 21.3167 53.1676 21.6141 54.1616C21.8181 54.766 21.4939 55.4237 20.8915 55.6287C20.2853 55.8346 19.6274 55.5113 19.4233 54.9065C18.8065 53.2928 18.6844 52.2038 18.9393 51.2145C19.183 50.2639 19.8398 49.3757 21.057 48.1841C21.4111 47.8386 22.8986 46.591 23.9781 46.2552C24.7554 46.0133 25.434 46.1716 25.9351 46.5016C26.758 47.0434 27.451 48.0256 27.9838 49.1702C28.6132 50.5124 29.0108 52.0935 29.2538 53.1311C29.5891 54.6142 29.4499 56.3659 29.0253 58.1416C28.4925 60.3731 27.5093 62.647 26.8868 64.3812C26.6454 65.0305 26.3774 65.7921 26.124 66.525C27.2703 66.0516 28.3984 65.5016 29.1609 65.2522L31.1514 64.2335C31.7475 63.939 35.9076 62.6942 35.0041 61.9892C34.9925 61.9793 34.9821 61.9727 34.9694 61.9714C35.1308 61.3859 35.6485 60.9348 36.2883 60.8858C37.1032 60.8239 37.8194 61.435 37.8804 62.2519C37.9363 62.8526 37.62 63.6753 36.8019 64.4269C35.6437 65.4934 33.2398 66.7094 32.6067 67.0506C32.0972 67.3239 31.6157 67.6549 31.1052 67.9257C30.819 68.0777 30.5259 68.2096 30.2176 68.3211C29.191 68.6921 27.4992 69.6544 26.009 70.1834C25.0023 70.541 24.0476 70.694 23.3151 70.6044C22.9279 70.5578 21.7522 70.2705 21.8268 68.7931C21.828 68.7376 21.8429 68.615 21.8839 68.4378C21.9046 68.3441 21.9599 68.1493 22.0386 67.8803C22.3312 66.894 23.0148 64.733 23.5482 63.1903C24.133 61.5483 25.0292 59.3891 25.5695 57.286C25.8814 56.0593 26.1089 54.8601 25.9148 53.8228C25.7582 52.9414 25.5068 51.5955 25.0471 50.4379C24.8337 49.9012 24.6226 49.3828 24.2865 49.0699ZM34.9694 61.9714C34.9267 62.1317 34.9082 62.3032 34.9201 62.4798C34.9154 62.3477 34.8539 61.932 34.9694 61.9714ZM24.3036 49.0603C24.5012 49.184 24.8129 49.3312 24.7663 49.1368C24.717 48.9225 24.5341 48.9361 24.3036 49.0603Z" fill="#0959C1"/><path fill-rule="evenodd" clip-rule="evenodd" d="M43.2835 48.0213C43.3105 47.5674 43.3896 47.1366 43.5252 46.7367C43.9033 45.6176 45.1068 44.7186 46.7152 44.4577C48.442 44.1772 50.4972 44.5971 51.3123 45.2376C52.5924 46.2416 53.5017 47.4521 54.1763 48.7811C55.102 50.6084 55.5799 52.6499 56.1689 54.5255C56.4297 55.3019 56.007 56.1432 55.2301 56.4021C54.4532 56.661 53.6124 56.2406 53.3554 55.4636C52.7532 53.7677 52.2699 51.9083 51.3661 50.2654C50.8673 49.3611 50.2272 48.5315 49.3172 47.8638C49.0587 47.6717 48.4734 47.707 47.9108 47.7344C47.5987 47.7499 47.0659 47.763 46.7972 47.8394C46.6531 48.3297 46.763 48.9049 46.899 49.5168C47.3644 51.5953 48.4415 53.9343 48.5878 55.6858C48.6445 56.4736 48.3214 56.8496 48.2266 56.9757C47.8048 57.5264 47.2776 57.7131 46.7225 57.6873C46.4624 57.6752 45.6459 57.62 45.1719 56.6867C45.0898 56.5248 44.8842 55.8629 44.7716 55.6054L43.9573 53.869C43.5872 53.1803 42.8651 52.0379 41.9735 51.2079C41.6402 50.8981 41.3048 50.6098 40.9308 50.4753L40.8672 50.4528C40.9593 50.8959 41.1043 51.3737 41.1093 51.4886C41.1574 52.7184 41.442 53.855 41.8926 54.9363C42.38 56.0945 43.0292 57.1926 43.7465 58.2723C44.1189 58.7895 44.0044 59.5131 43.4877 59.887C42.971 60.2609 42.2465 60.1449 41.8703 59.628C40.7811 58.2396 39.8159 56.8037 39.131 55.2406C38.6441 54.1389 38.3184 52.9714 38.1714 51.7144C38.138 51.3801 37.8166 49.7141 37.927 49.0372C38.0339 48.3652 38.4267 47.9896 38.7546 47.7772C39.9523 47.0036 41.2406 47.0577 42.4846 47.5914C42.7564 47.7063 43.023 47.8521 43.2835 48.0213ZM40.8075 50.129C41.0508 49.9231 41.2341 49.6904 40.9663 49.629C40.7892 49.5885 40.7681 49.8175 40.8075 50.129ZM46.7972 47.8397C46.6495 47.8801 46.5844 47.9389 46.6724 48.0269C46.727 48.083 46.7695 47.932 46.7972 47.8397Z" fill="#0959C1"/><path fill-rule="evenodd" clip-rule="evenodd" d="M78.3421 44.0531C78.5296 44.2185 78.6811 44.4332 78.7686 44.6873C79.0351 45.4615 78.6207 46.3074 77.8476 46.5736C77.4181 46.7476 76.6096 46.7331 75.9062 45.8867C75.3856 45.2632 74.528 43.3294 74.3468 43.0165C73.7074 41.8702 73.0987 40.7065 72.5775 39.5007C72.2317 38.698 71.8991 37.8858 71.6474 37.0482C71.0221 34.9479 70.7129 32.7942 70.4543 30.6215C70.3173 29.9985 70.7125 29.3816 71.3348 29.246C71.9569 29.1101 72.5745 29.5056 72.7116 30.129C73.106 31.3099 73.5737 32.4431 74.0304 33.6037C74.4503 34.6693 74.911 35.7111 75.3346 36.7754C75.9708 38.3625 76.5419 39.9736 77.2802 41.5137C77.3687 41.7117 77.5615 43.1129 77.8675 43.7764L77.8853 43.7808C77.9049 43.7904 77.9284 43.7991 77.9516 43.8074L78.0148 43.837C78.1922 43.8901 78.4061 43.9662 78.3421 44.0531ZM77.8778 43.7945C78.0004 44.0557 78.1458 44.1937 78.3042 44.0853C78.321 44.0746 78.3336 44.0638 78.3421 44.0531C78.2395 43.9681 78.1325 43.8944 78.0148 43.837C77.9606 43.8218 77.9146 43.8067 77.8778 43.7945ZM77.3149 43.6877C77.4118 43.6849 77.5116 43.6905 77.6032 43.7075C77.5064 43.687 77.4107 43.6816 77.3149 43.6877Z" fill="#0959C1"/><path fill-rule="evenodd" clip-rule="evenodd" d="M66.9091 31.3831C67.715 31.0938 69.4261 30.3297 71.058 29.8097C71.8779 29.5491 72.659 29.3417 73.1885 29.4461C74.2966 29.6319 75.1543 29.9313 75.8201 30.2658C76.7761 30.7442 77.1293 31.3907 76.8848 32.1495C76.3326 33.8509 74.3327 35.5886 71.8748 36.5173C71.0981 36.7847 70.6872 37.629 70.9538 38.4035C71.2204 39.1777 72.0641 39.5904 72.8408 39.3229C75.6716 38.4465 78.0614 36.6921 79.3475 34.8359C80.2715 33.5037 80.6242 32.0762 80.4301 30.7897C80.2427 29.5583 79.564 28.3689 78.1559 27.4779C77.1296 26.8308 75.6463 26.3377 73.6297 26.1314C72.856 26.076 71.8096 26.2589 70.7179 26.7131C68.909 27.4657 66.8719 28.7875 65.9694 29.27C65.3857 29.5293 65.1235 30.213 65.3851 30.7951C65.6432 31.3789 66.3254 31.6424 66.9091 31.3831Z" fill="#0959C1"/><path fill-rule="evenodd" clip-rule="evenodd" d="M80.2083 23.0491C80.7864 26.0312 81.0546 28.9307 81.6818 31.8184C81.9602 33.0889 82.3429 34.3424 82.7655 35.6053C83.0874 36.4929 83.3681 37.7819 83.908 38.7103C84.3251 39.4359 84.8676 40.0045 85.5517 40.3209C86.3145 40.6647 87.1431 40.7257 88.0146 40.4848C88.9121 40.2365 89.8927 39.6607 90.8087 39.1344C91.1458 38.9408 91.4674 38.7494 91.7787 38.6348C91.8764 38.5987 92.0498 38.5455 92.0498 38.5455C92.0498 38.5455 91.9977 38.5125 91.9687 38.4993C92.7042 38.8586 93.594 38.5523 93.9524 37.8162C94.3109 37.0805 94.0048 36.1915 93.2693 35.8325C92.57 35.4598 91.7371 35.4578 90.8214 35.7242C89.9983 35.9635 89.0625 36.5032 88.1479 36.927C87.8877 37.048 87.6257 37.1521 87.3735 37.225C87.2548 37.2594 87.1434 37.3149 87.044 37.263C86.9698 37.2254 86.9738 37.1184 86.9295 37.0373C86.844 36.8718 86.7764 36.6875 86.715 36.4973C86.4768 35.7937 86.3262 35.0245 86.1349 34.4451L82.4445 22.4598C82.281 21.8427 81.6481 21.4737 81.0311 21.6363C80.4141 21.799 80.0447 22.432 80.2083 23.0491Z" fill="#0959C1"/><path fill-rule="evenodd" clip-rule="evenodd" d="M81.3226 23.6758C82.4689 23.4394 83.6575 23.1953 84.8229 22.7064C85.6179 22.3735 86.3453 21.9036 87.0784 21.4978C87.8181 21.0873 88.5022 20.6576 89.1992 20.3482C89.9723 20.082 90.3831 19.2374 90.1165 18.4632C89.8498 17.6887 89.0063 17.2764 88.2332 17.5426C86.881 17.9037 85.392 18.4123 83.9719 19.1448C83.4627 19.4074 82.9778 19.7168 82.505 20.0378C81.7746 20.5345 81.1596 21.0819 80.4648 21.528C79.873 21.7639 79.5828 22.4373 79.8196 23.0301C80.0563 23.6228 80.7272 23.9131 81.3226 23.6758Z" fill="#0959C1"/><path fill-rule="evenodd" clip-rule="evenodd" d="M84.9171 31.9309C86.0861 31.7604 87.1858 31.6139 88.2612 31.2305C89.0241 30.9585 89.7221 30.5452 90.433 30.1813C91.123 29.8279 91.7803 29.4388 92.4828 29.1218C93.2559 28.8557 93.6667 28.011 93.4001 27.2368C93.1334 26.4623 92.2897 26.0496 91.5167 26.3158C90.1623 26.6708 88.8205 27.0618 87.528 27.6557C87.0455 27.8774 86.5901 28.1423 86.1326 28.4246C85.4532 28.8441 84.8686 29.3261 84.1641 29.744C83.5624 29.9512 83.2389 30.6108 83.4467 31.2143C83.6545 31.8178 84.3154 32.138 84.9171 31.9309Z" fill="#0959C1"/><path fill-rule="evenodd" clip-rule="evenodd" d="M93.3729 20.071C93.1697 18.6632 94.1099 17.4845 95.6641 16.869C97.2433 16.2433 99.3926 16.361 100.365 16.9342C100.863 17.2314 101.509 17.9467 102.115 18.9952C103.231 20.9346 104.385 24.1804 104.709 26.8273C104.887 28.2676 104.792 29.5561 104.446 30.4813C104.124 31.3464 103.583 31.9674 102.883 32.3508C98.7841 34.4952 95.6089 33.5895 93.6813 31.2491C92.0243 29.2442 91.2927 26.0058 91.8821 22.6238C91.9813 22.0826 92.2586 21.4548 92.7028 20.8614C92.9037 20.5919 93.1376 20.3234 93.3729 20.071ZM101.081 29.2615C101.069 29.2724 101.064 29.2829 101.079 29.2916C101.317 29.4362 101.252 28.7138 101.268 28.3239C101.307 27.3004 101.106 26.0415 100.79 24.7917C100.41 23.2724 99.8667 21.7655 99.3069 20.6848C99.0562 20.2054 98.8949 19.7963 98.6805 19.6593C98.4345 19.5017 97.9666 19.5286 97.5073 19.5807C97.3386 19.6 97.1367 19.6532 96.9418 19.7151C96.8978 19.8244 96.8357 19.9282 96.7543 20.0235C96.6924 20.1044 96.3856 20.4099 96.0083 20.8302L95.9823 20.8616C95.9679 20.8788 95.9499 20.8976 95.9355 20.9149L95.9051 20.9453C95.7056 21.1714 95.488 21.4279 95.2789 21.6973C94.9465 22.1295 94.6119 22.5914 94.5789 22.9813C94.3537 25.4189 94.9434 27.6885 96.1999 29.0514C97.2875 30.2317 98.9594 30.42 101.081 29.2615C101.103 29.2422 101.153 29.2221 101.181 29.2076L101.081 29.2615Z" fill="#0959C1"/><path fill-rule="evenodd" clip-rule="evenodd" d="M102.033 14.9772C102.392 16.3273 102.546 18.0905 102.965 19.9236C103.225 21.0563 103.593 22.1976 104.011 23.2817C104.862 25.4784 106.003 27.4189 107.385 28.6492C107.97 29.2224 108.909 29.2135 109.483 28.6285C110.056 28.0435 110.047 27.1038 109.462 26.5306C108.971 25.9942 108.599 25.2912 108.24 24.5208C107.819 23.6183 107.489 22.6023 107.152 21.5644C106.926 20.8718 106.726 20.1607 106.478 19.4749C105.745 17.4418 104.921 15.5566 104.188 14.1409C103.959 13.5456 103.286 13.2506 102.693 13.4808C102.099 13.7113 101.803 14.3816 102.033 14.9772Z" fill="#0959C1"/><path fill-rule="evenodd" clip-rule="evenodd" d="M104.12 15.922C105.3 14.1951 107.167 13.1604 108.72 13.1339C109.255 13.1246 109.709 13.3418 109.99 13.8388C110.308 14.3932 110.463 15.1752 110.426 16.2285C110.423 16.3994 110.285 16.565 110.141 16.7645C109.903 17.1038 109.601 17.4583 109.264 17.8071C108.007 19.1087 106.391 20.3859 105.666 21.1803C105.092 21.7653 105.102 22.7054 105.686 23.2786C106.271 23.8518 107.211 23.8429 107.784 23.2579C108.69 22.3952 110.844 20.9745 112.229 19.5465C113.255 18.4882 113.84 17.342 113.906 16.3988C114.103 12.5261 112.481 10.5756 110.539 9.97009C109.482 9.63876 108.253 9.67001 107.034 10.1349C105.145 10.8563 103.206 12.4976 102.118 14.7636C101.799 15.3158 101.986 16.0248 102.54 16.3438C103.091 16.664 103.8 16.4743 104.12 15.922Z" fill="#0959C1"/><path fill-rule="evenodd" clip-rule="evenodd" d="M118.957 21.8809C119.09 21.8171 119.18 21.771 119.203 21.7657C119.695 21.666 120.189 21.5375 120.681 21.3898C121.927 21.0163 123.168 20.5479 124.394 20.1744C125.167 19.9083 126.014 20.3197 126.281 21.0939C126.547 21.868 126.133 22.7139 125.36 22.9801C124.153 23.4445 122.944 24.0073 121.716 24.4681C121.138 24.6851 120.558 24.8729 119.972 25.0313C119.894 25.0519 118.911 25.3601 118.515 25.4655C117.461 25.7463 116.797 25.1086 116.738 25.0566C116.29 24.6321 115.946 23.9739 115.743 23.1501C115.515 22.2266 115.469 21.0136 115.469 19.9252C115.47 19.2889 115.508 18.7121 115.448 18.3474C115.343 17.5571 115.161 16.7545 114.946 15.9416C114.409 13.8855 113.7 11.8026 113.282 9.82857C113.1 9.21701 113.449 8.57409 114.064 8.39302C114.675 8.21319 115.318 8.5641 115.5 9.17603C116.209 11.0463 117.268 12.9602 118.055 14.9147C118.429 15.8472 118.713 16.7903 118.931 17.7177C119.051 18.362 119.042 19.5085 119.048 20.6765C119.051 21.0046 118.986 21.4783 118.957 21.8809ZM118.964 22.4452C118.995 22.618 119.07 22.706 119.216 22.6461C119.245 22.6346 119.169 22.6151 119.151 22.597C119.143 22.5869 119.07 22.5278 118.964 22.4452ZM118.48 22.0945C118.055 21.8203 117.602 21.6285 117.711 22.1239C117.754 22.3311 118.121 22.238 118.48 22.0945Z" fill="#0959C1"/><path fill-rule="evenodd" clip-rule="evenodd" d="M127.816 17.8105C129.566 17.2662 132.767 15.8655 133.505 15.6388C134.282 15.3713 135.125 15.7841 135.392 16.5582C135.658 17.3327 135.248 18.1773 134.471 18.4448C133.671 18.7509 130.01 20.674 128.384 21.2011C127.43 21.5104 126.714 21.3391 126.429 21.2083C126.122 21.0646 125.597 20.594 125.19 19.79C124.711 18.8384 124.166 17.1611 124.02 16.7592C123.772 16.015 123.516 15.2722 123.297 14.5183C122.803 12.8098 122.394 11.0905 121.814 9.41871C121.467 8.42117 121.104 7.43939 120.629 6.48616C120.299 5.9401 120.478 5.22789 121.021 4.89993C121.569 4.57072 122.282 4.7465 122.609 5.29419C123.523 6.57325 124.277 7.92306 124.946 9.33284C125.533 10.5629 126.052 11.8208 126.53 13.103C126.838 13.9272 127.103 14.7673 127.404 15.594C127.482 15.8334 127.587 17.0256 127.816 17.8105ZM127.916 18.1007C128.046 18.4186 128.209 18.5958 128.416 18.4751C128.654 18.3373 128.059 18.1708 127.94 18.1112L127.916 18.1007Z" fill="#0959C1"/><path fill-rule="evenodd" clip-rule="evenodd" d="M122.016 7.02481C123.219 6.8822 124.38 6.82966 125.558 6.55533C126.071 6.43562 126.568 6.24304 127.059 6.0577C128.214 5.6209 129.318 5.09594 130.45 4.60533C131.223 4.33915 131.638 3.49361 131.371 2.71909C131.104 1.94493 130.257 1.5335 129.484 1.79968C128.301 2.10747 127.113 2.36517 125.941 2.70578C125.445 2.85033 124.941 2.98848 124.461 3.1919C123.372 3.65415 122.411 4.27648 121.351 4.80968C120.741 4.99278 120.392 5.63821 120.574 6.25014C120.76 6.86081 121.406 7.20791 122.016 7.02481Z" fill="#0959C1"/><path fill-rule="evenodd" clip-rule="evenodd" d="M122.998 14.7555C123.96 14.1601 124.874 13.7341 125.776 13.286C126.173 13.0882 126.569 12.9115 126.948 12.7096C127.81 12.2513 128.644 11.7826 129.536 11.353C130.466 10.9042 131.42 10.4403 132.471 9.99773C133.248 9.73029 133.659 8.88567 133.392 8.11151C133.125 7.33698 132.282 6.92462 131.505 7.19206C129.822 7.65968 128.301 8.11043 126.876 8.74589C126.222 9.03762 125.574 9.3483 124.976 9.75534C123.731 10.6047 122.659 11.6973 121.502 12.9926C121.013 13.4071 120.954 14.1375 121.37 14.6228C121.782 15.1094 122.513 15.1688 122.998 14.7555Z" fill="#0959C1"/></svg>