<svg width="232" height="264" viewBox="0 0 232 264" fill="none" xmlns="http://www.w3.org/2000/svg"><path fill-rule="evenodd" clip-rule="evenodd" d="M67.0609 55.9243C69.2869 57.0231 73.9183 58.8435 74.8999 59.3757C75.6942 59.7925 76.0021 60.777 75.5849 61.5719C75.168 62.3664 74.1829 62.6724 73.3886 62.2556C72.3288 61.7176 67.093 59.837 65.0633 58.8291C64.3739 58.4871 63.938 58.134 63.7647 57.9358C63.2822 57.3828 63.2674 56.8261 63.3253 56.4268C63.7606 53.5329 66.795 46.7853 70.5526 39.5683C72.6123 35.6081 74.864 31.4863 76.9938 27.8082C79.9911 22.632 82.7174 18.3246 83.9566 16.3576C84.1784 15.9843 84.5411 15.7159 84.9621 15.6111C85.3833 15.506 85.8314 15.575 86.2016 15.7996C87.2423 16.4727 88.2859 17.098 89.3309 17.6925C91.8709 19.1371 94.4235 20.4238 97.001 21.8743C97.6214 22.1999 97.8619 22.9675 97.5369 23.5869C97.2119 24.2062 96.4435 24.4445 95.8231 24.1189C93.1592 22.8189 90.5285 21.681 87.904 20.3835C87.2638 20.0674 86.6253 19.7411 85.9869 19.4006C84.4981 22.0755 82.0342 26.6158 79.2808 31.6444C76.8402 36.0979 74.1529 40.923 71.9145 45.2801C69.649 49.6818 67.7825 53.5487 67.0609 55.9243Z" fill="#0959C1"/><path fill-rule="evenodd" clip-rule="evenodd" d="M78.9381 35.1922C79.7553 35.7486 80.4098 36.3968 81.1534 36.9878C81.6621 37.3923 82.1642 37.7884 82.6927 38.1411C84.1873 39.1399 85.7225 39.9417 87.2381 40.6116C88.0324 41.0284 89.0176 40.7224 89.4345 39.9279C89.8516 39.133 89.5437 38.1485 88.7494 37.7317C87.9698 37.2373 87.2502 36.6358 86.4703 36.0576C85.6797 35.4717 84.893 34.8218 83.9902 34.3298C82.7509 33.6548 81.4078 33.2409 79.9628 32.8732C79.3233 32.591 78.5754 32.8818 78.2917 33.5212C78.0079 34.1605 78.2987 34.91 78.9381 35.1922Z" fill="#0959C1"/><path fill-rule="evenodd" clip-rule="evenodd" d="M92.0657 65.0703C92.2349 65.5299 92.1963 66.0614 91.9118 66.5051C91.5179 67.1571 91.0237 67.3097 90.7949 67.3723C90.1589 67.5485 88.7504 67.4635 88.6884 65.6299C88.6697 65.1019 88.9075 63.5637 89.3977 61.3472C90.3707 56.9284 92.188 49.4986 94.3879 42.1921C95.1606 39.6204 96.0204 37.0802 96.8567 34.6762C98.418 30.1931 99.9742 26.2272 101.136 23.5484C101.386 22.8953 102.122 22.5703 102.775 22.8213C103.427 23.0718 103.752 23.8051 103.502 24.4586C102.586 27.1825 101.481 31.2261 100.241 35.7314C99.5691 38.1668 98.8818 40.7376 98.1441 43.299C96.0496 50.5596 93.8504 57.8011 92.7408 62.1422C92.4397 63.322 92.1955 64.4426 92.0657 65.0703Z" fill="#0959C1"/><path fill-rule="evenodd" clip-rule="evenodd" d="M99.8803 71.1155C100.127 70.9979 100.556 70.7729 100.823 70.5385C101.008 70.3764 101.183 70.1901 101.358 69.9913C101.706 69.5811 102.018 69.0999 102.262 68.5771C104.15 64.5569 104.892 60.4104 105.61 56.2656C106.121 53.3038 106.599 50.336 107.399 47.4095C108.259 44.2836 109.487 41.2123 111.387 38.2243C112.159 37.0356 113.533 35.2211 114.889 34.0246C115.786 33.2379 116.695 32.6974 117.462 32.5461C118.692 32.3078 119.627 32.5624 120.332 33.1287C120.948 33.6247 121.434 34.3754 121.68 35.3506C122.301 37.8098 121.524 41.9121 120.681 43.8491C120.425 44.5 119.686 44.8167 119.037 44.5584C118.386 44.2982 118.071 43.561 118.327 42.9101C118.747 41.7642 119.1 39.7324 119.058 37.946C119.044 37.2949 118.964 36.6796 118.803 36.1693C118.725 35.9232 118.633 35.7106 118.466 35.5921C118.388 35.5363 118.291 35.6228 118.163 35.6561C117.562 35.8074 116.945 36.595 116.294 37.3781C115.535 38.2966 114.853 39.335 114.42 40.0822C113.375 41.869 112.624 43.6887 112.005 45.5102C110.656 49.4897 110.072 53.5397 109.334 57.5737C108.559 61.8348 107.589 66.0644 105.572 70.1678C104.338 72.6615 102.049 74.4232 100.317 74.6933C99.1771 74.8722 98.1733 74.5798 97.4292 73.8136C96.8269 73.1928 96.3213 72.1623 96.3416 70.5314C96.3591 69.3706 96.6788 68.1697 97.1808 66.9875C97.7891 65.5536 98.6543 64.1373 99.3489 62.8559C99.7658 62.0614 100.748 61.7539 101.545 62.1723C102.34 62.5891 102.645 63.5721 102.228 64.3666C101.615 65.5769 100.836 66.9127 100.309 68.2631C100.007 69.0275 99.7935 69.7943 99.8031 70.537C99.8048 70.731 99.8448 70.9506 99.8803 71.1155Z" fill="#0959C1"/><path fill-rule="evenodd" clip-rule="evenodd" d="M128.347 37.1695C129.278 37.5384 130.395 38.2771 131.726 38.8404C132.594 39.2075 133.534 39.4598 134.398 39.7518C135.387 40.0861 136.308 40.3523 137.002 40.6451C137.796 41.0619 138.778 40.7544 139.195 39.9595C139.612 39.165 139.307 38.182 138.513 37.7652C137.55 37.1629 136.183 36.4066 134.676 35.7769C134.121 35.5451 133.552 35.3114 132.969 35.1675C131.43 34.7889 129.965 34.7283 128.869 34.6889C128.183 34.5446 127.509 34.9827 127.367 35.6686C127.223 36.3529 127.661 37.0252 128.347 37.1695Z" fill="#0959C1"/><path fill-rule="evenodd" clip-rule="evenodd" d="M128.528 36.5836C127.821 38.3411 126.949 40.0801 126.021 41.8267C123.852 45.911 121.29 49.9543 119.09 53.8507C117.876 56.1777 116.683 58.5074 115.533 60.8553C112.861 66.3054 110.33 71.8059 107.584 77.2557C107.167 78.0506 107.472 79.0336 108.27 79.452C109.064 79.8688 110.046 79.5613 110.463 78.7664C111.726 76.4653 112.968 74.1632 114.176 71.8461C116.981 66.4589 119.662 61.0317 122.546 55.6642C124.236 52.2029 126.227 48.6354 127.933 45.0043C129.112 42.4897 130.144 39.9511 130.918 37.4268C131.15 36.7663 130.802 36.0413 130.144 35.8092C129.485 35.577 128.76 35.9236 128.528 36.5836Z" fill="#0959C1"/><path fill-rule="evenodd" clip-rule="evenodd" d="M120.812 78.8016C122.073 79.4629 123.53 79.716 124.829 80.2068C125.267 80.3728 125.69 80.5543 126.092 80.7746C126.889 81.193 127.194 82.176 126.777 82.9709C126.36 83.7654 125.378 84.0729 124.58 83.6545C123.31 83.0171 121.778 82.8297 120.369 82.3436C119.931 82.1918 119.503 82.0135 119.091 81.8064C119.108 81.8155 119.155 81.8394 119.155 81.8394C119.155 81.8394 118.519 81.6274 118.186 81.4806C117.804 81.3128 117.494 81.0943 117.295 80.902C116.91 80.5303 116.752 80.0987 116.703 79.7056C116.676 79.4957 116.691 79.1013 116.884 78.6131C117.108 78.0386 117.852 76.804 117.992 76.5303L121.621 69.5865C123.717 65.5639 125.789 61.5385 127.997 57.5909C131.296 51.6846 134.791 45.907 138 39.9246C138.308 39.2965 139.071 39.0402 139.696 39.3495C140.324 39.66 140.58 40.4201 140.272 41.0486C137.926 46.2306 135.498 51.3432 132.94 56.4016C131.921 58.4205 130.879 60.4272 129.816 62.4246C128.225 65.4069 126.573 68.3585 124.978 71.3482L121.164 78.1946C121.12 78.2774 120.977 78.5215 120.812 78.8016Z" fill="#0959C1"/><path fill-rule="evenodd" clip-rule="evenodd" d="M137.521 39.4949C138.023 40.4962 138.541 41.3001 139.283 41.986C139.609 42.2875 140.004 42.506 140.395 42.7131C141.225 43.1532 142.118 43.4516 143.052 43.8148C143.846 44.2317 144.828 43.9242 145.246 43.1292C145.663 42.3343 145.357 41.3518 144.563 40.9349C144.016 40.5539 143.516 40.1686 142.99 39.817C142.501 39.4895 142.053 39.1228 141.543 38.835C140.866 38.4541 140.14 38.3157 139.431 37.8281C138.972 37.3015 138.169 37.2461 137.642 37.7064C137.116 38.1664 137.062 38.9679 137.521 39.4949Z" fill="#0959C1"/><path fill-rule="evenodd" clip-rule="evenodd" d="M128.649 61.3986C129.429 61.6879 129.944 62.2078 130.629 62.5428C131.147 62.7959 131.697 62.953 132.236 63.166C132.821 63.3966 133.414 63.5849 134.023 63.8117C134.821 64.2301 135.803 63.9225 136.22 63.128C136.637 62.3331 136.332 61.3502 135.535 60.9318C134.731 60.3851 133.987 59.8222 133.154 59.3886C132.764 59.186 132.366 58.9877 131.938 58.8928C130.948 58.6735 129.995 58.7069 128.904 58.8761C128.209 58.806 127.584 59.3128 127.515 60.009C127.445 60.7056 127.951 61.327 128.649 61.3986Z" fill="#0959C1"/><path fill-rule="evenodd" clip-rule="evenodd" d="M148.516 38.388C151.082 34.0842 152.624 32.7465 153.141 33.354C153.937 33.4355 153.713 35.4642 151.629 40.0217C151.192 41.0218 150.672 42.097 150.068 43.2242L150.048 43.2619C149.481 44.367 149.018 45.5219 148.609 46.6978C147.966 48.548 147.459 50.4522 146.933 52.3225L143.054 67.0067C142.686 68.416 142.276 69.8237 141.848 71.2322C143.967 66.2572 146.042 61.2587 148.272 56.331C149.872 52.7952 151.555 49.2986 153.385 45.8715C153.806 45.0784 154.79 44.773 155.582 45.19C156.378 45.6087 156.682 46.592 156.265 47.3867C154.512 50.7728 152.911 54.228 151.381 57.7154C149.073 62.9887 146.934 68.337 144.729 73.652C143.422 76.8047 142.154 80.037 140.706 83.1698C139.714 85.3124 138.634 87.4073 137.411 89.4037C136.969 90.1235 136.101 90.4589 135.288 90.226C134.478 89.9947 133.92 89.2516 133.923 88.4072C133.92 88.214 133.972 87.8417 133.994 87.7085L134.185 85.7141C134.448 83.6506 134.867 81.6031 135.378 79.5696C136.518 75.0196 138.113 70.5332 139.261 66.028L139.564 64.8571L138.123 67.634L129.426 86.0048C129.139 86.6429 128.387 86.9253 127.751 86.6369C127.111 86.3464 126.83 85.5951 127.12 84.9587L135.329 66.2909L140.246 56.189C140.714 55.2733 141.147 54.342 141.567 53.4053C142.575 51.157 143.484 48.8683 144.467 46.6216L145.647 43.7089L146.251 42.5052C146.408 42.1754 146.574 41.851 146.747 41.5295L146.767 41.4918C147.351 40.3551 147.941 39.3161 148.516 38.388Z" fill="#0959C1"/><path fill-rule="evenodd" clip-rule="evenodd" d="M159.268 45.6287C160.198 47.274 161.349 48.2934 162.642 49.0561C163.447 49.5302 164.319 49.8562 165.244 50.1021C166.373 50.4025 167.588 50.5176 168.854 50.7884C169.801 50.964 170.548 51.3159 171.407 51.4836C171.883 51.5763 172.381 51.6494 172.93 51.6241C173.829 51.6451 174.572 50.9325 174.595 50.0367C174.615 49.139 173.904 48.3941 173.006 48.3731C172.73 48.3484 172.494 48.2639 172.263 48.1886C171.411 47.9107 170.682 47.4744 169.736 47.1844C168.529 46.8492 167.388 46.5511 166.28 46.31C165.278 46.0916 164.317 45.9491 163.397 45.5046C162.692 45.1643 161.972 44.7883 161.295 44.1048C160.872 43.5449 160.077 43.4328 159.519 43.8542C158.961 44.2756 158.848 45.0698 159.268 45.6287Z" fill="#0959C1"/><path fill-rule="evenodd" clip-rule="evenodd" d="M169.254 47.4307C168.052 49.6715 166.531 51.9857 165.275 54.3309C164.691 55.4156 164.176 56.5096 163.752 57.5987C163.027 59.4937 162.303 61.4943 161.535 63.4655C161.039 64.7341 160.531 65.9916 159.96 67.1851C157.751 72.0918 155.43 77.0075 153.079 81.8981C151.51 85.1621 149.938 88.4179 148.324 91.6278C147.907 92.4227 148.212 93.4057 149.006 93.8226C149.803 94.2409 150.786 93.9334 151.203 93.1385C153.372 89.1732 155.518 85.1543 157.574 81.0882C159.63 77.0221 161.595 72.9115 163.513 68.821C164.09 67.5166 164.621 66.153 165.092 64.762C165.779 62.7408 166.361 60.6736 166.975 58.7208C167.283 57.7263 167.679 56.7251 168.121 55.7205C169.195 53.2924 170.517 50.8653 171.534 48.5396C171.841 47.9115 171.578 47.1518 170.951 46.8468C170.321 46.5397 169.562 46.8022 169.254 47.4307Z" fill="#0959C1"/><path fill-rule="evenodd" clip-rule="evenodd" d="M178.215 51.9312C175.535 56.9948 172.667 61.9755 170.01 67.0664C168.863 69.259 167.796 71.4897 166.726 73.7118C164.518 78.5459 162.527 83.4041 160.379 88.2083C159.471 90.2427 158.541 92.269 157.537 94.2733C157.12 95.0682 157.428 96.0523 158.222 96.4691C159.017 96.8859 159.999 96.5789 160.416 95.7839C161.522 93.7737 162.562 91.7424 163.558 89.6903C165.853 84.9642 167.935 80.151 170.264 75.3824C171.125 73.5375 172.029 71.7088 172.902 69.8624C173.773 68.0115 174.621 66.1502 175.472 64.2874C177.185 60.5449 178.861 56.7947 180.498 53.0332C180.803 52.4031 180.536 51.6436 179.907 51.3407C179.276 51.0359 178.519 51.3011 178.215 51.9312Z" fill="#0959C1"/><path fill-rule="evenodd" clip-rule="evenodd" d="M177.402 70.9162C175.405 74.5533 173.381 78.1904 171.326 81.8104C168.391 86.9808 165.396 92.1117 162.379 97.1913C162.033 97.8 161.259 98.0143 160.652 97.6704C160.042 97.325 159.827 96.5505 160.173 95.9422C162.413 91.7925 164.623 87.6029 166.827 83.4018C170.13 77.1072 173.4 70.7854 176.578 64.4752L180.601 57.2805C180.864 56.7806 181.595 55.2663 182.213 54.3914C182.629 53.8032 183.079 53.4178 183.403 53.244C184.198 52.8158 184.832 52.9252 185.283 53.1068C185.693 53.2714 186.044 53.5464 186.302 53.9706C186.479 54.2604 186.644 54.6984 186.643 55.2782C186.644 56.0591 186.176 57.6687 185.897 58.4906C185.028 61.0405 184.207 63.5364 183.315 66.0322C182.718 67.7045 182.089 69.376 181.395 71.0635C178.602 77.8309 176.399 85.0232 173.613 91.9189C172.394 94.9378 171.063 97.8982 169.531 100.747C169.114 101.541 168.132 101.849 167.338 101.432C166.543 101.015 166.235 100.03 166.652 99.2359C168.073 96.4647 169.292 93.5859 170.417 90.66C172.922 84.1323 174.936 77.3622 177.402 70.9162ZM184.946 56.8363C185.049 56.8019 185.158 56.7558 185.268 56.6941C185.341 56.6546 185.63 56.5955 185.532 56.509C185.334 56.3368 185.132 56.5094 184.946 56.8363Z" fill="#0959C1"/><path fill-rule="evenodd" clip-rule="evenodd" d="M169.149 84.2024C169.839 85.1492 170.528 85.9717 171.433 86.6496C171.815 86.9359 172.254 87.143 172.687 87.3457C173.64 87.7913 174.64 88.1053 175.631 88.5066C176.428 88.925 177.41 88.6174 177.828 87.8225C178.245 87.028 177.94 86.045 177.142 85.6267C176.255 85.0426 175.399 84.4601 174.501 83.9243C174.141 83.7093 173.786 83.4831 173.403 83.3103C172.548 82.9244 171.673 82.7609 170.819 82.2957C170.292 81.8339 169.491 81.8873 169.03 82.4134C168.57 82.9394 168.622 83.7406 169.149 84.2024Z" fill="#0959C1"/><path fill-rule="evenodd" clip-rule="evenodd" d="M176.325 105L176.327 104.995C176.48 104.561 175.021 104.468 174.694 104.16C174.304 103.791 174.153 103.36 174.105 102.98C174.076 102.759 174.096 102.37 174.28 101.893C174.512 101.281 175.304 99.9901 175.455 99.689L179.154 92.4202C181.284 87.8409 183.351 83.2046 185.594 78.6472C188.954 71.8084 192.584 65.1026 196.161 58.4126C196.472 57.7856 197.234 57.5306 197.859 57.8412C198.486 58.1534 198.741 58.9144 198.431 59.5414C195.26 66.4137 192.274 73.4082 189.098 80.3135C186.979 84.9224 184.729 89.4638 182.57 94.0216C182.203 94.7837 181.816 95.5422 181.414 96.2952C180.505 97.9922 179.523 99.6662 178.612 101.346C178.558 101.447 178.376 101.759 178.176 102.098L181.631 104.266C181.832 104.376 183.008 104.966 183.345 105.318C184.063 106.071 183.965 106.849 183.684 107.364C183.267 108.159 182.285 108.466 181.49 108.049C181.282 107.94 181.108 107.792 180.97 107.618L180.094 107.195L176.325 105ZM180.695 106.12C180.636 106.303 180.606 106.494 180.623 106.694C180.612 106.503 180.633 106.308 180.695 106.12ZM176.325 105C176.309 105.028 176.263 104.962 176.245 104.953L176.325 105ZM177.374 101.816C177.249 101.484 177.085 101.24 176.938 101.513C176.843 101.693 177.105 101.772 177.374 101.816Z" fill="#0959C1"/><path fill-rule="evenodd" clip-rule="evenodd" d="M81.0793 62.7162C82.6674 60.8173 88.4757 53.8635 94.5779 46.4203C95.8015 44.9269 97.0438 43.4192 98.2841 41.9434C100.23 39.6228 102.162 37.3789 103.884 35.282C106.156 32.5156 108.102 30.0621 109.358 28.1751C109.72 27.5768 110.498 27.3838 111.099 27.7473C111.696 28.1088 111.887 28.888 111.525 29.4863C109.511 33.1112 105.563 38.8871 101.059 44.6597C99.3692 46.8227 97.5692 48.9565 95.824 51.0139C89.1797 58.835 83.1028 65.3844 83.1028 65.3844C82.5561 66.0035 81.6346 66.1179 80.9529 65.6485C80.2741 65.1806 80.0494 64.2772 80.4333 63.5456L80.574 63.2916C80.6984 63.0544 80.8741 62.8605 81.0793 62.7162Z" fill="#0959C1"/><path fill-rule="evenodd" clip-rule="evenodd" d="M111.01 30.8888C108.963 34.6899 106.659 38.5744 104.359 42.5697C102.878 45.144 101.382 47.7481 99.9292 50.3764C96.1917 57.1253 92.6192 63.9542 89.4121 70.2982C88.9952 71.0927 89.3002 72.0757 90.0945 72.4925C90.8889 72.9093 91.8739 72.6033 92.2909 71.8089C95.1555 66.5613 98.4077 61.0474 101.594 55.4116C102.923 53.063 104.264 50.7057 105.514 48.3156C108.393 42.8225 110.965 37.2666 113.29 31.9977C113.594 31.3682 113.334 30.61 112.703 30.3034C112.073 29.9968 111.314 30.2592 111.01 30.8888Z" fill="#0959C1"/><path fill-rule="evenodd" clip-rule="evenodd" d="M63.2012 68.5124C64.7594 68.6066 74.0736 72.333 87.0873 77.6999C98.3098 82.3272 112.205 88.2357 126.257 94.1879C131.88 96.5697 137.538 98.9321 143.043 101.264C151.272 104.708 163.293 110.083 175.607 115.652C197.524 125.565 220.348 136.125 224.234 137.906C225.048 138.284 226.016 137.93 226.393 137.115C226.771 136.301 226.417 135.334 225.603 134.956C221.732 133.138 199.02 122.314 177.164 112.241C164.851 106.567 152.805 101.143 144.567 97.6469C139.05 95.334 133.395 92.9501 127.743 90.6264C113.613 84.8163 99.5706 79.2167 88.246 74.8085C74.6946 69.5332 64.9382 66.0424 63.3265 65.9807C62.6273 65.9459 62.0319 66.4848 61.998 67.184C61.963 67.8826 62.502 68.4776 63.2012 68.5124Z" fill="#0959C1"/><path fill-rule="evenodd" clip-rule="evenodd" d="M142.274 97.8301C135.621 108.049 128.54 119.784 121.46 132.181C116.893 140.178 112.313 148.44 107.808 156.72C96.7066 177.12 85.9808 197.579 76.3294 214.055C75.872 214.827 76.128 215.826 76.9003 216.284C77.6715 216.741 78.6706 216.486 79.128 215.714C88.7775 199.619 99.6674 179.789 110.608 159.765C113.343 154.758 116.081 149.739 118.784 144.752C122.939 137.087 127.025 129.509 131.062 122.262C135.632 114.056 140.092 106.254 144.417 99.1834C144.791 98.5925 144.613 97.8088 144.023 97.4352C143.43 97.0614 142.647 97.2382 142.274 97.8301Z" fill="#0959C1"/><path fill-rule="evenodd" clip-rule="evenodd" d="M151.106 109.154C142.268 123.604 134.143 137.058 126.376 150.422C122.741 156.68 119.21 162.932 115.647 169.212C107.632 183.34 99.5679 197.673 90.6017 213.017C90.1443 213.789 90.3999 214.787 91.1716 215.245C91.9446 215.703 92.942 215.447 93.3994 214.675C104.363 196.408 114.172 179.668 123.801 162.794C127.747 155.877 131.651 148.931 135.615 141.862C141.292 131.739 147.05 121.345 153.286 110.446C153.643 109.844 153.444 109.066 152.842 108.709C152.24 108.353 151.463 108.552 151.106 109.154Z" fill="#0959C1"/><path fill-rule="evenodd" clip-rule="evenodd" d="M160.207 113.858L142.598 143C138.526 149.865 134.299 156.844 130.105 163.925C120.41 180.299 110.65 197.072 101.337 213.001C100.879 213.773 101.134 214.771 101.907 215.229C102.679 215.686 103.677 215.431 104.134 214.659C113.634 198.839 123.784 182.298 133.477 165.921C137.673 158.834 141.736 151.75 145.729 144.832C149.077 138.899 152.451 132.977 155.788 127.038C158.017 123.07 160.225 119.096 162.408 115.114C162.755 114.506 162.543 113.731 161.936 113.385C161.328 113.038 160.554 113.25 160.207 113.858Z" fill="#0959C1"/><path fill-rule="evenodd" clip-rule="evenodd" d="M102.326 177.78C102.414 177.795 102.586 177.773 102.706 177.792C103.22 177.872 103.91 177.882 104.734 177.901C106.163 177.935 107.935 177.854 109.821 177.846C110.544 177.842 111.284 177.862 112.023 177.889C117.207 178.075 122.385 178.357 122.983 178.539C123.849 178.773 124.362 179.667 124.128 180.533C123.894 181.4 123 181.913 122.134 181.679C121.744 181.59 119.269 181.772 116.18 181.802C114.168 181.823 111.913 181.863 109.784 181.722C107.873 181.595 106.081 181.316 104.623 181.049C102.542 180.667 101.089 180.148 100.663 179.697C100.137 179.235 100.086 178.433 100.549 177.908C100.991 177.404 101.749 177.336 102.272 177.742C102.271 177.762 102.288 177.773 102.318 177.779L102.337 177.794L102.326 177.78L102.318 177.779L102.272 177.742L102.276 177.725C102.288 177.699 102.307 177.753 102.326 177.78Z" fill="#0959C1"/><path fill-rule="evenodd" clip-rule="evenodd" d="M164.873 117.866C162.467 121.336 160.401 124.568 158.447 127.781C155.486 132.653 152.789 137.475 149.549 142.992C146.695 147.911 144.019 152.503 141.529 156.932C135.959 166.84 131.121 175.817 126.003 185.064C121.19 193.759 116.191 202.729 110.209 213.002C109.751 213.775 110.006 214.772 110.779 215.23C111.551 215.688 112.549 215.432 113.006 214.66C119.161 204.452 124.349 195.559 129.263 186.89C133.982 178.567 138.504 170.483 143.377 161.636C146.291 156.344 149.293 150.759 152.625 144.732C155.676 139.125 158.212 134.232 160.998 129.273C162.814 126.039 164.733 122.778 166.982 119.274C167.37 118.692 167.212 117.904 166.631 117.516C166.049 117.128 165.261 117.285 164.873 117.866Z" fill="#0959C1"/><path fill-rule="evenodd" clip-rule="evenodd" d="M136.582 176.686C137.989 179.705 138.077 183.704 137.237 188.04C134.91 200.034 125.863 214.736 125.863 214.736C125.396 215.503 124.394 215.747 123.628 215.28C122.862 214.814 122.618 213.812 123.084 213.045C123.084 213.044 129.815 201.784 132.768 191.171C133.658 187.973 134.204 184.838 134.066 182.118C133.967 180.158 133.516 178.43 132.457 177.142C132.103 176.706 131.96 176.137 132.068 175.586C132.175 175.035 132.522 174.562 133.013 174.291C140.323 170.249 144.495 169.994 151.612 161.017C153.41 158.748 155.399 155.934 157.693 152.389C161.138 147.063 165.271 140.117 170.353 130.863C171.934 128.01 172.225 122.719 170.303 119.801C169.176 118.091 167.188 117.448 164.184 118.781C163.549 119.075 162.795 118.798 162.502 118.164C162.208 117.529 162.484 116.775 163.119 116.481C167.731 114.255 170.788 115.607 172.628 118.214C175.213 121.875 175.118 128.664 173.208 132.386C168.298 141.864 164.333 149.011 160.937 154.451C158.616 158.17 156.56 161.101 154.694 163.459C147.692 172.308 143.363 173.24 136.582 176.686Z" fill="#0959C1"/><path fill-rule="evenodd" clip-rule="evenodd" d="M214.939 140.995C208.909 150.172 202.984 159.454 197.326 168.919C194.789 173.165 192.336 177.463 189.882 181.759C184.152 191.784 178.539 201.868 172.765 211.815C172.307 212.588 172.563 213.586 173.335 214.043C174.107 214.501 175.105 214.245 175.563 213.473C182.644 201.743 189.66 189.907 196.555 178.003C199.306 173.252 202.022 168.483 204.74 163.719C208.826 156.559 212.872 149.395 217.086 142.344C217.458 141.752 217.28 140.969 216.688 140.597C216.095 140.225 215.312 140.403 214.939 140.995Z" fill="#0959C1"/><path fill-rule="evenodd" clip-rule="evenodd" d="M132.162 210.876C132.385 210.892 132.648 210.891 132.826 210.908C133.59 210.979 134.358 210.96 134.791 210.979C135.918 211.027 136.835 211.03 137.659 211.007C139.95 210.943 141.546 210.702 144.679 210.729C145.577 210.729 146.305 211.458 146.305 212.356C146.305 213.254 145.575 213.982 144.678 213.981C141.596 214.005 140.031 214.27 137.779 214.369C136.887 214.408 135.893 214.422 134.673 214.389C133.917 214.369 132.295 214.425 131.102 214.114C130.079 213.847 129.311 213.296 128.906 212.6C128.465 211.84 128.42 210.932 128.731 209.98C129.063 208.963 129.943 207.843 130.299 207.191L135.788 196.774C136.731 195.071 137.732 193.4 138.764 191.747C141.124 187.963 143.642 184.269 145.946 180.458C149.674 174.367 153.219 168.167 156.872 162.032C158.444 159.391 160.051 156.772 161.672 154.16C165.635 147.828 168.242 143.63 170.838 139.357C173.396 135.148 175.94 130.868 179.736 124.391C180.079 123.782 180.853 123.566 181.462 123.909C182.072 124.252 182.288 125.026 181.945 125.636C178.361 132.257 175.966 136.637 173.537 140.938C171.072 145.304 168.574 149.583 164.79 156.048C161.659 161.309 158.655 166.643 155.574 171.933C153.511 175.473 151.402 178.988 149.26 182.482C146.911 186.288 144.352 189.977 141.943 193.752C140.93 195.342 139.942 196.946 139.012 198.582L133.391 208.908C133.183 209.276 132.791 209.797 132.435 210.359C132.348 210.498 132.244 210.704 132.162 210.876ZM131.918 210.85C131.878 210.77 131.816 210.62 131.768 210.683C131.7 210.773 131.775 210.822 131.918 210.85Z" fill="#0959C1"/><path fill-rule="evenodd" clip-rule="evenodd" d="M180.579 124.837L181.061 125.143C182.261 125.891 183.263 126.524 184.196 127.048C184.991 127.494 185.702 127.872 186.394 128.175C187.937 128.848 189.287 129.241 190.803 129.661C192.057 130.009 193.443 130.316 195.209 130.746C196.069 131.005 196.977 130.517 197.235 129.658C197.494 128.799 197.007 127.891 196.147 127.632C194.455 127.023 193.141 126.532 191.929 126.101C190.539 125.607 189.329 125.11 187.85 124.563C187.177 124.313 186.445 124.086 185.623 123.815C184.626 123.485 183.515 123.156 182.2 122.72L181.662 122.545C181.029 122.246 180.273 122.517 179.974 123.15C179.676 123.782 179.947 124.538 180.579 124.837Z" fill="#0959C1"/><path fill-rule="evenodd" clip-rule="evenodd" d="M147.55 183.79C149.323 184.068 150.762 184.438 152.179 184.677C153.273 184.862 154.328 185 155.432 185.038C157.745 185.118 160.237 184.8 163.682 183.963C164.562 183.788 165.135 182.931 164.96 182.051C164.785 181.171 163.928 180.598 163.048 180.773C161.309 181.025 159.846 181.108 158.532 181.155C156.996 181.21 155.674 181.124 154.359 181.072C153.71 181.047 153.067 181.049 152.403 181.052C150.952 181.058 149.453 181.119 147.651 181.256C146.953 181.229 146.362 181.773 146.334 182.472C146.306 183.171 146.851 183.762 147.55 183.79Z" fill="#0959C1"/><path fill-rule="evenodd" clip-rule="evenodd" d="M202.727 139.886C200.671 142.985 198.481 146.817 196.625 149.152C195.401 150.688 194.202 152.347 193.014 154.053C191.255 156.581 189.524 159.215 187.83 161.755C184.54 166.68 181.114 171.515 177.78 176.438C176.368 178.525 174.971 180.627 173.61 182.76C171.491 186.075 169.64 189.177 167.905 192.197C163.655 199.584 160.099 206.473 155.08 214.74C154.724 215.342 153.945 215.541 153.343 215.184C152.742 214.828 152.542 214.049 152.899 213.447C157.73 205.093 161.126 198.143 165.211 190.684C166.906 187.589 168.721 184.408 170.798 181.003C172.136 178.818 173.509 176.664 174.904 174.526C178.148 169.552 181.498 164.673 184.706 159.703C186.381 157.116 188.082 154.429 189.833 151.861C191.055 150.071 192.303 148.34 193.571 146.732C195.737 143.992 198.347 139.145 200.677 135.949C201.528 134.781 202.358 133.815 203.113 133.168C204.431 132.042 205.516 132.245 206.133 132.551C206.577 132.771 206.978 133.138 207.239 133.72C207.439 134.163 207.574 134.895 207.507 135.838C207.299 138.773 205.239 145.037 204.872 145.986C202.544 151.995 199.552 158.557 196.211 165.224C191.5 174.621 186.103 184.229 180.971 192.81C179.861 194.664 172.934 206.767 170.395 211.863C170.04 212.576 169.701 213.366 169.619 213.563C169.545 214.21 169.086 214.777 168.42 214.955C167.553 215.185 166.661 214.668 166.431 213.8C166.378 213.605 166.319 213.082 166.593 212.339C166.872 211.59 167.596 210.088 168.567 208.206C171.579 202.363 176.997 192.684 177.967 191.03C182.986 182.481 188.248 172.905 192.853 163.556C196.091 156.98 199.005 150.517 201.259 144.598C201.445 144.109 202.14 142.046 202.727 139.886Z" fill="#0959C1"/><path fill-rule="evenodd" clip-rule="evenodd" d="M170.324 184.37C171.584 184.634 172.801 185.2 174.184 185.565C175.144 185.818 176.157 185.986 177.217 185.987C179.472 185.988 181.91 185.285 184.563 183.301C185.307 182.799 185.502 181.786 185 181.043C184.499 180.299 183.487 180.103 182.743 180.605C181.135 181.566 179.681 181.896 178.349 182.032C177.362 182.132 176.441 182.072 175.544 182.016C173.752 181.904 172.097 181.759 170.51 181.842C169.813 181.79 169.205 182.315 169.153 183.013C169.102 183.71 169.626 184.319 170.324 184.37Z" fill="#0959C1"/><path fill-rule="evenodd" clip-rule="evenodd" d="M208.23 137.532C210.522 139.287 212.787 140.592 215.113 141.485C216.973 142.2 218.847 142.611 220.636 143.083C222.425 143.554 224.157 143.979 225.788 144.673C226.598 145.059 227.57 144.716 227.956 143.905C228.343 143.096 227.999 142.124 227.188 141.737C226.019 141.112 224.796 140.596 223.523 140.128C222.123 139.613 220.673 139.147 219.169 138.683C218.252 138.399 217.324 138.094 216.363 137.815C214.193 137.185 211.913 136.591 209.588 135.391C208.997 135.016 208.212 135.191 207.838 135.782C207.464 136.374 207.639 137.157 208.23 137.532Z" fill="#0959C1"/></svg>