<svg width="162" height="44" viewBox="0 0 162 44" fill="none" xmlns="http://www.w3.org/2000/svg"><path fill-rule="evenodd" clip-rule="evenodd" d="M7.49236 20.7109C6.80757 21.8212 6.03503 22.886 5.08775 23.8856C4.66532 24.3632 3.93372 24.4067 3.45632 23.9828C2.97887 23.5592 2.93458 22.8275 3.36079 22.3508C4.24194 21.2873 4.91337 20.1591 5.50397 18.992C6.43713 17.1389 7.14554 15.1838 8.01099 13.1827C8.26254 12.6077 8.52481 11.1989 8.90921 10.326C9.14947 9.78031 9.47306 9.38174 9.76694 9.13383C10.4053 8.60485 10.9696 8.72539 11.2866 8.80304C11.7809 8.9241 12.1992 9.25822 12.422 9.89363C12.4859 10.0738 12.5289 10.3621 12.4923 10.7321C12.4628 11.0428 12.2579 11.6821 12.2327 11.989L11.8366 15.9715C11.7544 16.7536 11.6571 17.5321 11.537 18.3062C11.0682 21.2746 10.3419 24.1885 9.98232 27.1853C9.85853 28.1524 9.90896 30.1604 9.69829 31.7545C9.6292 32.2656 9.5331 32.7427 9.40861 33.1651C10.6885 33.2456 11.9449 33.2313 13.1293 33.0071C13.9337 32.843 14.7184 33.3605 14.8823 34.1629C15.0464 34.9648 14.5288 35.7495 13.7244 35.9141C12.1642 36.2598 10.4828 36.3203 8.77591 36.2374C6.6403 36.1339 4.46685 35.7951 2.46326 35.5624C2.40504 35.5621 2.35109 35.5587 2.29748 35.5523L1.86931 35.495C0.965613 35.3866 0.322064 34.5668 0.430392 33.6638C0.53872 32.7609 1.35794 32.1165 2.26164 32.2249L2.50325 32.2508L3.416 32.0892C3.68248 32.0372 5.18061 31.9828 6.21692 31.8923C6.27207 31.5621 6.28867 31.1648 6.31463 30.7542C6.42271 29.2706 6.37599 27.62 6.46709 26.7635C6.60333 25.5955 6.78115 24.4372 6.98928 23.2852C7.14685 22.4251 7.31956 21.5684 7.49236 20.7109Z" fill="#0959C1"/><path fill-rule="evenodd" clip-rule="evenodd" d="M29.6039 24.0844L29.7196 23.0223C30.0527 20.4407 31.3024 19.6398 32.3682 19.4977C33.213 19.385 34.2722 19.7188 35.2558 20.5212C36.526 21.5569 37.7847 23.3358 38.2492 24.2884C38.6675 25.1399 38.9371 26.1958 39.075 27.3124C39.2533 28.7403 39.2371 30.2676 39.1971 31.4747C39.1799 31.91 39.1171 32.3356 39.0767 32.7374C39.0666 32.8539 39.0531 32.9665 39.0594 33.0756C39.0592 33.1102 39.0158 33.1481 39.0437 33.1747C39.0612 33.1904 39.0748 33.2068 39.0964 33.2207C39.7803 33.6717 39.9689 34.5928 39.5179 35.2763C39.0669 35.9598 38.1469 36.149 37.463 35.6979C36.817 35.2867 36.4698 34.7821 36.2582 34.2463C35.9391 33.442 36.1201 32.4515 36.128 31.4141C36.1314 30.3495 36.1104 29.003 35.9191 27.7487C35.8053 27.0137 35.6368 26.3137 35.346 25.7587C35.0555 25.2014 34.3572 24.2553 33.6046 23.535C33.4791 23.4159 33.3212 23.2423 33.1721 23.0928C33.1661 23.2078 33.1594 23.3278 33.1468 23.4335L32.525 30.2019C32.5122 30.341 32.4536 31.7688 32.3199 32.3331C32.1666 32.9952 31.8043 33.3608 31.6068 33.5173C30.8173 34.1408 30.1322 33.9914 29.6045 33.7269C29.2785 33.5631 28.9257 33.2663 28.7089 32.7424C28.6251 32.5338 28.5297 31.8403 28.5083 31.6625L27.9613 29.5841C27.5566 28.1655 27.1857 26.9511 26.6104 25.7894C26.2569 25.0769 25.8317 24.3796 25.2531 23.6661C25.2703 23.6845 25.3027 23.6736 25.3085 23.6572C25.3699 23.437 24.8471 23.5863 24.557 23.5434C24.2899 23.5036 24.1148 23.5059 24.0434 23.6802C23.7826 24.2996 23.7493 25.1284 23.6702 25.8841L23.2771 29.8731C23.2123 30.5102 23.18 31.1351 23.171 31.7614C23.1563 32.7575 23.1848 33.7503 23.1666 34.7763C23.1755 35.4143 22.6657 35.9405 22.0274 35.9509C21.3891 35.9614 20.8637 35.4516 20.8548 34.8135C20.7933 33.6105 20.6793 32.4565 20.6372 31.2857C20.6192 30.7561 20.617 30.224 20.6391 29.6833L20.7703 25.6756C20.8285 24.2843 20.9528 22.7629 21.5626 21.7916C22.1724 20.821 23.1772 20.1837 24.9407 20.3448C25.5555 20.4011 26.0448 20.4346 26.5027 20.5998C26.9495 20.761 27.3669 21.0376 27.7946 21.5193C28.5466 22.3747 29.1254 23.2163 29.6039 24.0844ZM32.9942 22.925C32.832 22.7871 32.7035 22.725 32.6676 22.8629C32.6383 22.9771 32.8132 22.9763 32.9942 22.925ZM33.1896 22.8498C33.3301 22.78 33.4186 22.6896 33.3256 22.6233C33.2431 22.566 33.2065 22.677 33.1896 22.8498Z" fill="#0959C1"/><path fill-rule="evenodd" clip-rule="evenodd" d="M50.5589 15.1324C50.241 16.7565 49.2046 19.7134 48.6682 22.7149C48.3062 24.7281 48.179 26.7569 48.4768 28.4226C48.9884 31.2931 50.6134 33.2444 53.8017 33.3393C54.6696 33.3563 55.7815 33.5284 56.7871 33.4851C57.4059 33.4584 57.9927 33.3706 58.5069 33.1757C58.9818 32.9961 59.4797 32.7333 59.9764 32.4091C60.8149 31.8601 61.6611 31.1362 62.4256 30.6909C63.1452 30.3004 63.4123 29.3991 63.0229 28.6791C62.6336 27.9596 61.7305 27.6916 61.0108 28.0821C60.1781 28.4997 59.2329 29.1919 58.3221 29.718C58.0211 29.8913 57.7252 30.0386 57.4394 30.1292C57.134 30.2274 56.7722 30.2012 56.4026 30.1789C55.5517 30.1278 54.6673 29.9595 53.9514 29.9112C52.9888 29.8542 52.4758 29.3152 52.2041 28.5549C51.9631 27.885 51.8782 27.0868 51.8425 26.224C51.7752 24.5843 51.9213 22.7431 52.1398 21.0089C52.4237 18.7526 52.7686 16.6873 52.8504 15.4332C52.9321 14.8002 52.4865 14.2191 51.8532 14.1362C51.2199 14.053 50.6406 14.4998 50.5589 15.1324Z" fill="#0959C1"/><path fill-rule="evenodd" clip-rule="evenodd" d="M51.8376 16.6531C52.6343 16.2652 53.4538 15.9755 54.2968 15.678C55.0927 15.3966 55.905 15.1835 56.7228 14.9312C57.2628 14.7641 57.7996 14.5838 58.3401 14.4055C60.4357 13.7106 62.5523 13.0665 64.6093 12.5491C65.4117 12.3854 65.9284 11.6011 65.7666 10.7988C65.6048 9.99655 64.8206 9.47822 64.0182 9.64198C62.0866 9.9398 60.0777 10.242 58.1131 10.7634C57.2656 10.9885 56.4133 11.2327 55.6108 11.5767C53.7541 12.3696 52.0927 13.464 50.571 14.7186C50.0384 15.0682 49.8874 15.7858 50.2386 16.3196C50.5897 16.8538 51.305 17.0031 51.8376 16.6531Z" fill="#0959C1"/><path fill-rule="evenodd" clip-rule="evenodd" d="M50.024 24.9225C51.4965 24.8837 53.1156 24.9359 54.7861 24.7803C55.9373 24.6735 57.0825 24.4406 58.2046 24.2923C59.3733 24.1376 60.4922 23.9734 61.5315 23.9531C62.3483 23.9888 63.0401 23.3535 63.0758 22.5355C63.1115 21.7175 62.4778 21.0243 61.661 20.9887C59.7926 20.8102 57.6201 20.7933 55.453 21.0905C54.653 21.2003 53.8618 21.3719 53.0926 21.573C51.8665 21.8927 50.7442 22.3093 49.6683 22.6371C49.0386 22.7355 48.6036 23.3272 48.7034 23.958C48.8033 24.5885 49.3943 25.0208 50.024 24.9225Z" fill="#0959C1"/><path fill-rule="evenodd" clip-rule="evenodd" d="M74.4833 9.55269C71.1152 9.50636 68.8345 10.903 67.3025 13.0126C64.8963 16.3259 64.9397 17.4899 64.993 18.9184C65.0102 19.3795 65.0285 19.8682 64.9657 20.4656C64.8509 22.2973 64.7618 24.7807 65.5884 26.6272C66.2849 28.1806 67.5339 29.3697 69.6683 29.7323C72.4014 30.1748 73.6418 29.4384 74.2869 28.4567C74.6385 27.9192 74.8551 27.2029 74.9107 26.2847C74.9349 25.8617 74.929 25.3754 74.9223 24.8296C74.9157 24.2863 74.9084 23.6841 74.9294 23.0266C74.933 22.9147 74.9582 22.7074 74.9893 22.4524C75.0493 21.9598 75.131 21.2892 75.12 20.7844C75.3615 20.7563 75.601 20.7248 75.8365 20.6937C76.5127 20.6046 77.1569 20.5198 77.7289 20.5339C78.5496 20.5697 79.2413 19.9344 79.2771 19.1164C79.3128 18.2984 78.6791 17.6052 77.8584 17.5694L73.4498 17.7482C72.1623 17.6703 71.3956 17.2484 70.9331 18.5696C70.7427 19.1136 70.5937 20.7649 71.3813 20.9149C71.569 20.9497 71.8883 21.0609 71.8883 21.0609C71.8883 21.0609 71.8882 21.6224 71.6646 22.3252C71.5835 22.5802 71.517 22.7892 71.5118 22.8773C71.4761 23.5302 71.4696 24.129 71.4638 24.6696C71.4602 24.9979 71.4569 25.3048 71.4474 25.5891C71.439 25.8702 71.3842 26.2407 71.353 26.4258C71.1988 26.4131 70.9803 26.3647 70.7484 26.3132C70.5871 26.2774 70.4193 26.2401 70.2621 26.2125C69.2695 26.046 68.8403 25.3552 68.6161 24.566C68.2614 23.3179 68.3218 21.2098 68.3218 20.6986C68.3218 20.1875 68.5 18.5 68.6199 17.4964C68.7398 16.4927 69.1761 15.4554 69.6913 14.6186C70.6547 13.0667 72.1943 12.0218 74.5444 11.8646C75.1821 11.8477 75.6879 11.3162 75.6694 10.6781C75.6548 10.0401 75.121 9.53576 74.4833 9.55269ZM71.403 26.428C71.5379 26.4335 71.6087 26.4018 71.5705 26.306C71.5427 26.2353 71.461 26.3371 71.403 26.428Z" fill="#0959C1"/><path fill-rule="evenodd" clip-rule="evenodd" d="M78.4748 9.84155C78.429 10.6271 78.3952 11.754 78.5398 13.0388C78.6146 13.7126 78.7461 14.4156 78.9439 15.0998C79.5611 17.2321 80.6419 19.1802 81.6123 20.1174C82.1689 20.7215 83.1051 20.7624 83.7083 20.2089C84.3154 19.656 84.3564 18.7166 83.7999 18.1129C83.5477 17.7873 83.3764 17.2915 83.1652 16.7356C82.9303 16.1034 82.7419 15.3783 82.5271 14.639C82.3899 14.1566 82.2687 13.6614 82.1079 13.19C81.6038 11.7393 81.0071 10.4633 80.7749 9.59418C80.7061 8.95962 80.1355 8.50001 79.5033 8.56814C78.8672 8.63648 78.406 9.20699 78.4748 9.84155Z" fill="#0959C1"/><path fill-rule="evenodd" clip-rule="evenodd" d="M86.1283 18.7042C86.1297 18.7614 86.131 18.8201 86.125 18.8697C85.8425 21.094 85.8854 26.39 85.7878 27.6515C85.7521 28.4695 85.0603 29.1048 84.2396 29.069C83.4228 29.0333 82.789 28.3401 82.8248 27.5221C82.8352 26.3992 82.4877 22.16 82.5341 19.5926C82.5498 18.7931 82.6134 18.1315 82.7052 17.7078C82.8178 17.163 83.0343 16.8026 83.2016 16.5949C83.7796 15.9114 84.3087 15.2882 84.843 14.7221C85.6769 13.8363 86.4784 13.0745 87.2284 12.1661C87.95 11.2885 88.6635 10.3307 89.3455 9.03365C89.5913 8.44488 90.2675 8.16674 90.8589 8.41299C91.4465 8.65908 91.7257 9.33718 91.48 9.92596C90.9658 11.5349 90.3748 12.7784 89.7041 13.9056C89.0458 15.0134 88.3238 15.9878 87.491 17.027C87.1072 17.5055 86.6847 17.9862 86.2485 18.5149C86.2541 18.5642 86.1969 18.6369 86.1283 18.7042ZM86.2485 18.5149C86.2457 18.492 86.2272 18.4738 86.1929 18.4634C86.1281 18.4459 86.1276 18.5448 86.1301 18.6622L85.967 18.8628C85.9954 18.8304 86.0637 18.7693 86.1283 18.7042L86.1301 18.6622L86.167 18.6156L86.2485 18.5149Z" fill="#0959C1"/><path fill-rule="evenodd" clip-rule="evenodd" d="M91.2396 26.9389C91.2395 26.852 91.2396 26.7628 91.2435 26.6723C91.2769 25.5554 91.3559 22.3308 91.3918 21.6866C91.5148 20.1088 91.5492 18.5253 91.6875 16.9482C91.7498 16.2306 91.8503 15.5208 91.951 14.8072C92.1867 13.1231 92.4788 11.4706 92.7721 9.79408C92.8192 9.15763 93.3766 8.68089 94.0153 8.73001C94.6502 8.77897 95.1277 9.33563 95.0767 9.97191C95.1111 11.6596 95.2007 13.3208 95.2313 15.0071C95.246 15.7308 95.2571 16.4513 95.2255 17.1737C95.1628 18.7877 94.973 20.393 94.8063 21.999C94.7208 22.6307 94.3855 25.7989 94.2566 26.8954C94.2389 27.0343 94.2215 27.1691 94.2003 27.3006C94.1572 29.2613 93.4883 30.433 92.7944 30.5876C91.8932 31.0671 90.9948 29.627 91.2396 26.9389Z" fill="#0959C1"/><path fill-rule="evenodd" clip-rule="evenodd" d="M94.011 21.0071C93.8101 21.6295 93.2157 22.068 92.5337 22.0382C91.713 22.0023 91.0793 21.3091 91.1151 20.4908C91.1244 19.7473 91.4871 19.1316 92.1035 18.6288C92.9961 17.9019 94.9437 17.5936 95.6997 17.2529C96.7942 16.7665 97.7693 16.447 98.5794 16.1052C99.012 15.9237 99.3782 15.7594 99.6225 15.4694C99.9482 15.0841 99.9081 14.499 99.7913 13.5493C99.6918 12.5555 99.4197 11.8044 99.0022 11.2858C98.5848 10.7669 98.0412 10.4873 97.437 10.5331C95.9845 10.6441 94.487 11.8739 93.8699 13.9817C93.7308 14.6045 93.1114 14.997 92.4883 14.8571C91.869 14.7177 91.4753 14.0987 91.6145 13.4759C92.1795 9.90737 94.6581 7.7797 97.0197 7.35937C99.7859 6.86831 102.712 8.55258 103.34 13.1607C103.563 15.4963 103.064 16.8353 102.233 17.7521C101.754 18.284 101.145 18.7018 100.39 19.0305C99.4727 19.4297 98.2945 19.7134 96.9399 20.2352C96.5788 20.3734 95.9786 20.5009 95.332 20.6336C94.9153 20.7177 94.2264 20.937 94.011 21.0071Z" fill="#0959C1"/><path fill-rule="evenodd" clip-rule="evenodd" d="M103.183 11.9975C104.824 12.2753 106.413 12.6493 108.069 12.8239C108.803 12.9011 109.54 12.9063 110.277 12.918C112.002 12.945 113.722 12.8801 115.445 12.8607C116.266 12.8966 116.957 12.2613 116.993 11.4433C117.029 10.6249 116.395 9.93207 115.574 9.89623C113.86 9.72678 112.151 9.51168 110.431 9.3883C109.696 9.33574 108.962 9.27661 108.224 9.28956C106.559 9.31914 104.942 9.55353 103.284 9.68687C102.649 9.65911 102.106 10.1542 102.078 10.7919C102.05 11.4296 102.548 11.9697 103.183 11.9975Z" fill="#0959C1"/><path fill-rule="evenodd" clip-rule="evenodd" d="M107.818 13.4539C107.911 14.4208 107.882 15.3518 107.848 16.2903C107.812 17.2121 107.696 18.1092 107.61 19.0176C107.556 19.6345 107.513 20.251 107.471 20.8672C107.303 23.3097 107.115 25.7381 107.114 28.162C107.078 28.98 107.712 29.6732 108.529 29.7088C109.349 29.7447 110.041 29.1094 110.077 28.2914C110.239 26.5231 110.57 24.7734 110.806 22.9986C110.968 21.77 111.137 20.5336 111.134 19.2896C111.13 17.1667 110.762 15.0761 110.078 12.9643C109.943 12.3408 109.324 11.9439 108.7 12.0788C108.077 12.2137 107.683 12.83 107.818 13.4539Z" fill="#0959C1"/><path fill-rule="evenodd" clip-rule="evenodd" d="M116.956 12.3403C116.837 14.0051 116.588 15.633 116.412 17.2964C116.29 18.4005 116.18 19.5048 116.108 20.6154C115.935 23.429 115.916 26.2501 115.898 29.0669C115.862 29.8849 116.495 30.5781 117.312 30.6138C118.133 30.6496 118.825 30.0143 118.861 29.1963C119.055 26.8562 119.369 24.5282 119.572 22.1861C119.659 21.1704 119.75 20.1537 119.759 19.1357C119.775 16.8291 119.542 14.5599 119.271 12.2766C119.253 11.6384 118.719 11.1349 118.081 11.1526C117.443 11.1703 116.938 11.7026 116.956 12.3403Z" fill="#0959C1"/><path fill-rule="evenodd" clip-rule="evenodd" d="M125.569 14.877C125.275 15.8682 125.043 17.0147 124.851 18.2223C124.213 22.1567 123.958 26.6652 123.656 28.7965C123.598 29.432 123.033 29.8992 122.398 29.8398C121.76 29.7799 121.295 29.2157 121.353 28.5801C121.475 26.0588 121.138 20.3297 121.766 15.9563C121.993 14.3792 122.371 12.9716 122.865 11.8996C123.228 11.1117 123.684 10.4869 124.178 10.0333C124.649 9.60682 125.145 9.46407 125.616 9.46996C126.048 9.4757 126.502 9.60439 126.931 9.94546C127.315 10.2541 127.791 10.9307 128.127 11.814C128.584 13.0056 128.926 14.6387 128.997 14.8731C129.617 17.0199 130.256 19.8102 130.605 22.5119C130.854 24.4143 130.966 26.2714 130.859 27.8383C130.823 28.6563 130.131 29.2916 129.315 29.2559C128.494 29.2201 127.86 28.5269 127.896 27.7089C127.933 25.9822 127.635 23.88 127.22 21.7951C126.792 19.6721 126.227 17.5709 125.679 15.8971C125.651 15.8175 125.623 15.3951 125.569 14.877ZM125.184 12.9903C125.041 12.6539 124.847 12.4783 124.594 12.6344C124.324 12.7983 124.886 12.9321 125.184 12.9903Z" fill="#0959C1"/><path fill-rule="evenodd" clip-rule="evenodd" d="M122.755 22.493C123.527 22.8387 124.215 23.1872 124.987 23.449C125.5 23.6236 126.023 23.7599 126.553 23.8409C127.891 24.0453 129.233 23.9873 130.625 23.9392C131.445 23.9751 132.137 23.3398 132.173 22.5218C132.209 21.7038 131.575 21.0106 130.754 20.9747C129.998 20.8684 129.284 20.704 128.552 20.577C127.816 20.4488 127.091 20.2662 126.341 20.2052C125.31 20.1208 124.316 20.2461 123.232 20.2301C122.609 20.0978 121.997 20.4977 121.861 21.1218C121.73 21.7464 122.132 22.3608 122.755 22.493Z" fill="#0959C1"/><path fill-rule="evenodd" clip-rule="evenodd" d="M142.453 22.7691C142.577 21.4423 142.681 19.8614 142.757 18.2797C142.919 14.9336 143.019 11.5768 142.627 10.6598C142.293 9.91217 142.628 9.03394 143.377 8.70026C144.125 8.3662 145.002 8.70213 145.336 9.4498C145.763 10.3637 146.014 13.3679 146.007 16.6984C146 21.1147 145.593 26.1042 145.181 27.2169C144.962 27.8134 144.531 28.152 143.938 28.2867C143.692 28.342 143.23 28.4091 142.662 28.0677C142.606 28.0328 142.478 27.95 142.315 27.7866C142.282 27.7504 142.208 27.6707 142.113 27.56C141.779 27.1702 140.972 26.1923 140.862 26.0562C140.416 25.4955 139.827 25.1876 139.322 24.7205C139.129 24.5429 138.945 24.3511 138.765 24.1402C138.123 23.3656 137.548 22.558 137.025 21.7272C136.635 21.1157 136.272 20.4922 135.913 19.8662C135.973 22.8232 135.679 25.8546 135.615 27.7634C135.614 28.4015 135.097 28.9205 134.46 28.922C133.823 28.9232 133.301 28.4059 133.302 27.7674C133.219 25.6139 133.344 21.9582 132.906 18.7123C132.644 16.7699 132.216 14.9785 131.222 13.9596C130.606 13.3142 130.735 12.7354 130.745 12.61C130.78 12.1421 131.004 11.8064 131.278 11.54C131.528 11.3 131.895 11.1076 132.424 11.0995C132.552 11.0973 132.895 11.1138 133.324 11.3626C133.519 11.4774 134.196 11.9894 134.461 12.2052C134.785 12.468 135.272 12.8946 135.709 13.3136C136.065 13.6565 136.382 14.0046 136.582 14.2728C137.882 16.0621 138.876 17.977 140.042 19.8145C140.49 20.522 140.961 21.2208 141.504 21.8857C141.789 22.2414 142.121 22.5049 142.453 22.7691Z" fill="#0959C1"/><path fill-rule="evenodd" clip-rule="evenodd" d="M157.609 22.0216C157.714 21.832 157.606 21.6443 157.483 21.4548C157.139 20.9271 156.551 20.4366 155.886 19.9347C154.387 18.7992 152.464 17.7547 151.036 16.8686C149.773 16.085 148.852 15.3418 148.515 14.8395C147.433 13.1887 147.861 11.3316 149.407 9.88588C151.008 8.39162 153.671 7.43898 155.018 7.72052C155.289 7.77832 155.841 7.97533 156.469 8.26758C157.452 8.72552 158.687 9.37045 159.11 9.58465C159.693 9.84482 159.956 10.5296 159.695 11.1123C159.434 11.695 158.751 11.9566 158.168 11.6964C157.792 11.5507 156.779 11.1455 155.863 10.8121C155.312 10.6109 154.807 10.4371 154.584 10.4127C154.069 10.3547 153.312 10.805 152.596 11.2964C152.186 11.5784 151.816 11.922 151.53 12.2797C151.366 12.483 151.142 12.6689 151.292 12.8669C151.39 12.9959 151.637 13.0916 151.911 13.2657C152.614 13.7102 153.568 14.2279 154.573 14.8215C156.883 16.189 159.382 17.9283 160.413 19.6132C161.36 21.164 161.442 22.7279 160.18 24.2227C159.896 24.5562 159.273 25.0115 158.366 25.3653C156.842 25.9608 154.375 26.5043 152.516 26.4667C150.105 26.4182 148.666 25.264 148.771 23.6484C148.807 22.83 149.502 22.1949 150.319 22.2306C150.978 22.2593 151.518 22.7126 151.685 23.3136C151.804 23.3327 151.969 23.3553 152.096 23.3624C152.608 23.3902 153.201 23.3261 153.819 23.2265C154.928 23.0472 156.085 22.7136 156.934 22.3642C157.174 22.2651 157.482 22.0936 157.609 22.0216Z" fill="#0959C1"/></svg>