<svg width="129" height="79" viewBox="0 0 129 79" fill="none" xmlns="http://www.w3.org/2000/svg"><path fill-rule="evenodd" clip-rule="evenodd" d="M10.098 31.9581C12.1413 32.2575 14.1404 32.7028 15.4394 33.3956C17.3416 34.4102 18.1367 35.858 17.3779 37.7172C17.0816 38.4805 16.2227 38.8604 15.4605 38.5646C14.6947 38.2674 14.3168 37.4075 14.613 36.6442C14.6492 36.5404 14.5793 36.4752 14.5046 36.4119C14.3765 36.305 14.2156 36.2186 14.0384 36.1316C13.3782 35.8076 12.497 35.5943 11.5308 35.4191C9.14567 34.9878 6.28626 34.8937 4.45326 34.788C3.28386 34.7205 2.4432 34.5949 2.13993 34.481C1.22321 34.1355 1.06058 33.4779 0.997114 33.1298C0.896649 32.6105 0.989571 32.0194 1.56708 31.5014C1.69965 31.3836 1.9244 31.2309 2.24333 31.1127C2.53702 31.0062 3.19636 30.8955 3.48748 30.8169C3.7959 30.7364 4.0659 30.6377 4.32665 30.5308C4.80294 30.3375 5.25021 30.1123 5.77745 29.873C7.38077 29.1528 9.25309 28.6243 10.7894 27.6824C11.57 27.206 12.2624 26.6158 12.6875 25.723C13.5108 24.0705 14.7699 21.583 14.9573 19.4478C15.0483 18.3819 14.8913 17.3902 13.8088 16.9283C13.4367 16.7677 13.0416 16.5706 12.6256 16.4592C12.3968 16.3985 12.1643 16.3261 11.9284 16.4008C11.5735 16.5159 11.0607 16.75 10.5221 17.0184C9.68187 17.4353 8.79008 17.9211 8.24928 18.206C7.69895 18.5261 6.99096 18.3357 6.67185 17.7829C6.35274 17.23 6.54083 16.5216 7.09475 16.2029C7.70786 15.817 8.78757 15.124 9.71415 14.5912C10.2147 14.3035 10.682 14.0696 11.0262 13.9289C11.616 13.6882 12.2277 13.6575 12.8389 13.7243C13.5261 13.7978 14.2162 14.0557 14.8399 14.2713C16.7996 14.9565 17.7105 16.3724 18.0256 18.087C18.5357 20.8763 16.9526 24.7956 15.8956 27.2208C15.1691 28.7943 14.0264 29.9051 12.6597 30.7406C11.8667 31.2276 10.9901 31.6101 10.098 31.9581Z" fill="#0959C1"/><path fill-rule="evenodd" clip-rule="evenodd" d="M18.1669 35.2004C19.2156 34.7366 20.3612 34.4283 21.4814 34.0257C21.881 33.8808 22.2783 33.7206 22.6596 33.5269C24.1991 32.7579 25.7585 31.2661 27.0563 29.585C28.3454 27.9155 29.3999 26.0511 29.7118 24.3415C29.9142 23.3189 29.3988 22.4296 28.6185 21.85C27.7162 21.1797 26.5049 20.8151 25.4053 21.1007C24.8945 21.2338 24.3964 21.4724 23.919 21.7645C23.0568 22.2912 22.2415 22.9425 21.458 23.4583C20.9411 23.8307 20.2181 23.711 19.8446 23.1917C19.4749 22.6734 19.594 21.9506 20.111 21.5778C21.0159 20.877 21.9602 19.9896 22.9794 19.3248C23.5093 18.9828 24.0624 18.7088 24.6305 18.5135C26.5171 17.8735 28.6922 18.2808 30.3515 19.3459C32.1962 20.5301 33.3156 22.5493 33.009 24.8848C32.6833 27.0887 31.5263 29.5901 29.8975 31.7509C28.3566 33.8026 26.4 35.5291 24.5213 36.5218C24.8146 36.6294 25.1015 36.7432 25.3858 36.8635C27.1418 37.6046 28.7556 38.5523 30.5265 39.2764C31.2887 39.5722 31.6666 40.432 31.3704 41.1954C31.0741 41.9587 30.2151 42.3385 29.4529 42.0427C27.6464 41.3784 25.9924 40.4916 24.2027 39.8053C23.5257 39.5455 22.8314 39.3199 22.0937 39.1528C21.6412 39.0503 21.0325 38.9664 20.4196 38.8935C19.0832 38.734 17.7236 38.6449 17.7236 38.6449C16.8335 38.572 16.1559 37.8238 16.1672 36.9313C16.1819 36.0406 16.8827 35.3114 17.7732 35.266C17.7732 35.266 17.8904 35.2946 17.9965 35.2981L17.9993 35.2698L18.1309 35.2824C18.1647 35.2699 18.1821 35.2464 18.1687 35.2065L18.1669 35.2004ZM18.1669 35.2004L18.0681 35.2415C18.0969 35.2312 18.1502 35.1795 18.1669 35.2004Z" fill="#0959C1"/><path fill-rule="evenodd" clip-rule="evenodd" d="M53.4929 27.167C52.5276 29.2812 51.5592 31.3821 50.7825 33.586C50.4389 34.5568 50.1684 35.5523 49.8803 36.5396C49.2231 38.83 48.6293 41.1277 47.8607 43.3641C47.5645 44.1274 47.9424 44.9872 48.7046 45.283C49.4704 45.5802 50.3293 45.2004 50.6255 44.4371C51.7697 41.7767 52.8353 39.0628 53.6838 36.2687C54.0185 35.172 54.3005 34.0615 54.5638 32.9461C54.9615 31.2711 55.2619 29.6014 55.6719 27.9374C55.8847 27.3357 55.5703 26.6751 54.9665 26.4614C54.3663 26.2492 53.7058 26.565 53.4929 27.167Z" fill="#0959C1"/><path fill-rule="evenodd" clip-rule="evenodd" d="M53.7307 32.4256L56.8098 31.8467C57.5945 31.7434 59.2241 31.7019 60.575 31.2908C60.936 31.1814 61.2837 31.0636 61.5421 30.8669C61.7107 30.7416 61.8333 30.5749 61.7843 30.3176C61.4048 28.3426 59.8622 27.3393 58.1671 27.2619C56.3465 27.1775 54.3695 28.0187 53.2313 29.7898C52.9032 30.3368 52.1895 30.5128 51.6428 30.184C51.0962 29.8548 50.921 29.1443 51.2491 28.5973C52.7459 25.9237 55.5629 24.5493 58.2113 24.5152C61.2177 24.4756 63.9931 26.1824 64.8611 29.638C65.2835 31.3425 64.6523 32.553 63.5646 33.4476C62.9585 33.9434 62.1218 34.2979 61.2389 34.5581C62.0104 34.8728 62.7255 35.2368 63.3375 35.6638C65.0239 36.8403 66.0327 38.4406 65.8117 40.6517C65.5202 43.4708 64.0594 45.2416 62.0628 46.2291C59.4676 47.5117 55.8478 47.3728 53.0183 46.4133C52.3534 46.1863 49.53 45.3391 48.2889 44.3797C47.2236 43.5538 46.9555 42.5495 47.3091 41.6811C47.6053 40.9178 48.4643 40.538 49.2301 40.8352C49.7514 41.0375 50.092 41.5031 50.1635 42.0223C50.3777 42.1418 50.7916 42.3653 51.1234 42.5016C52.258 42.9679 53.583 43.3059 53.9892 43.4317C55.7309 43.9753 57.8593 44.1514 59.6194 43.6348C61.081 43.205 62.2324 42.1998 62.3848 40.3361C62.4833 39.144 61.5168 38.5538 60.4323 38.0543C58.0143 36.9405 54.6973 36.5331 52.9628 35.9071C52.919 35.8922 52.8756 35.8762 52.8326 35.8591L52.9628 35.9071C53.4657 36.0824 53.8577 36.0745 54.1613 35.9532L53.7928 36.0286C53.4742 36.0605 52.7061 35.8224 52.5135 35.7005C52.0153 35.3851 51.8695 34.9934 51.8218 34.8818C51.5461 34.2279 51.694 33.6975 51.931 33.2893C52.1317 32.9427 52.5543 32.3762 53.5423 32.4101C53.5791 32.4111 53.6409 32.4119 53.7307 32.4256Z" fill="#0959C1"/><path fill-rule="evenodd" clip-rule="evenodd" d="M66.7979 30.732C66.4549 32.0207 66.0211 33.2664 65.5667 34.5226C65.1328 35.726 64.6395 36.901 64.1707 38.0983C63.8572 38.8955 63.5612 39.701 63.2612 40.5059C62.1224 43.5895 60.9665 46.6746 59.8832 49.7432C59.5869 50.5065 59.9647 51.3663 60.7305 51.6636C61.4928 51.9594 62.3518 51.5795 62.648 50.8162C63.7686 48.1952 65.0277 45.601 66.1273 42.9383C66.6058 41.7799 67.0777 40.6173 67.4495 39.4246C68.2952 36.7126 68.7962 33.94 69.0753 31.1318C69.1868 30.5032 68.7659 29.9034 68.1384 29.7935C67.5073 29.6822 66.9094 30.1034 66.7979 30.732Z" fill="#0959C1"/><path fill-rule="evenodd" clip-rule="evenodd" d="M68.9498 50.2509C70.0623 50.8167 72.7907 51.1309 73.4649 51.4191C74.2271 51.7149 74.605 52.5747 74.3088 53.338C74.0124 54.1017 73.1534 54.4815 72.3912 54.1857C71.4659 53.8622 68.8736 53.3468 67.3862 52.6595C66.4391 52.222 65.8574 51.5995 65.6116 51.0817C65.4748 50.7945 65.3737 50.2663 65.5422 49.5763C65.775 48.6353 66.8611 46.5937 67.0875 46.1384C67.6719 45.0269 68.1961 43.8999 68.7673 42.8011C70.1168 40.2085 71.5251 37.6883 72.9041 34.9984C73.1565 34.4121 73.837 34.1405 74.422 34.3919C75.007 34.6433 75.2803 35.3248 75.0279 35.9111C74.1669 38.3855 73.3976 40.7834 72.4353 43.1246C71.7848 44.7048 71.0179 46.2332 70.2386 47.7829C70.1005 48.0321 69.1121 49.1291 68.7786 49.8498C68.8334 49.9646 68.9091 50.1213 68.9498 50.2509ZM68.7786 49.8498C68.7482 49.7896 68.7256 49.7415 68.7121 49.7123C68.6878 49.647 68.6328 49.4155 68.5675 49.4986C68.3943 49.721 68.4629 49.9172 68.689 50.0914C68.6389 50.2846 68.6715 50.4246 68.8347 50.4731C68.9903 50.5198 68.9972 50.4058 68.9498 50.2509L68.8501 50.1986C68.7899 50.162 68.7964 50.1666 68.7308 50.1225L68.7125 50.0099C68.7242 49.9797 68.7359 49.9495 68.7476 49.9193L68.7786 49.8498Z" fill="#0959C1"/><path fill-rule="evenodd" clip-rule="evenodd" d="M82.6221 53.1758C82.8693 53.3065 83.1456 53.4261 83.4346 53.5341C84.9266 54.0921 86.7121 54.4693 87.5993 54.848C88.3615 55.1438 88.7394 56.0037 88.4432 56.767C88.1468 57.5306 87.288 57.9101 86.5257 57.6143C85.477 57.2466 83.225 56.9629 81.6069 56.3461C80.3168 55.8542 79.403 55.0747 79.0055 54.2337C78.924 54.0597 78.7362 53.4031 79.0922 52.5389C79.3886 51.8286 80.3161 50.1528 80.388 49.9569C80.8816 48.7064 81.3529 47.4496 81.8946 46.2243C82.2595 45.4012 82.6583 44.5975 83.0683 43.7969C84.0963 41.7877 85.2071 39.8421 86.4055 37.9161C86.7032 37.3515 87.4037 37.1348 87.9668 37.4319C88.5336 37.7305 88.7502 38.4301 88.4525 38.9947C88.1023 39.8012 87.7768 40.6077 87.4492 41.4201C86.6617 43.3745 85.9816 45.3507 85.2415 47.3218C84.7487 48.6343 84.2014 49.9273 83.703 51.2434C83.6407 51.3934 83.0614 52.3745 82.6221 53.1758ZM82.1483 52.9149C82.1421 52.8882 82.1377 52.8678 82.1345 52.8546C82.1227 52.8318 82.1098 52.7796 82.0911 52.7959C82.0443 52.8311 82.0817 52.8734 82.1483 52.9149Z" fill="#0959C1"/><path fill-rule="evenodd" clip-rule="evenodd" d="M94.4056 41.0889C93.4198 43.32 92.3027 45.4629 91.3453 47.7059C90.9145 48.7094 90.5479 49.7391 90.1745 50.7654C89.2951 53.1698 88.4903 55.5956 87.6546 58.0153C87.3583 58.779 87.736 59.6388 88.5019 59.936C89.2641 60.2319 90.1231 59.852 90.4194 59.0883C91.4354 56.737 92.4994 54.4112 93.4691 52.0403C93.8851 51.0218 94.3051 50.0034 94.6523 48.9595C95.4322 46.6195 95.9846 44.2367 96.5938 41.8462C96.7994 41.2418 96.4801 40.583 95.8782 40.375C95.2764 40.1667 94.6148 40.4858 94.4056 41.0889Z" fill="#0959C1"/><path fill-rule="evenodd" clip-rule="evenodd" d="M101.982 44.3932C101.67 43.9947 101.568 43.4453 101.765 42.9387C102.061 42.1754 102.92 41.7956 103.682 42.0914C108.099 43.7264 110.016 48.7215 109.634 53.6063C109.232 58.7352 106.227 63.4724 101.75 64.1889C99.7524 64.4871 97.749 63.4878 96.2519 61.7278C94.3367 59.4782 93.3199 56.0968 93.79 54.0329C94.5477 50.9078 95.649 48.6032 97.2956 46.9826C98.5276 45.7696 100.054 44.9073 101.982 44.3932ZM104.598 46.2782C102.257 46.7234 100.563 47.5602 99.3481 48.9317C98.1349 50.2989 97.4515 52.1985 97.013 54.7033C96.8123 55.7961 97.4775 57.3761 98.3784 58.6788C98.8026 59.2915 99.3006 59.8418 99.8586 60.2267C100.286 60.5213 100.739 60.7293 101.222 60.6574C102.701 60.4488 103.855 59.4582 104.696 58.1442C105.575 56.7748 106.125 55.0595 106.31 53.304C106.576 50.7304 106.118 48.0197 104.598 46.2782Z" fill="#0959C1"/><path fill-rule="evenodd" clip-rule="evenodd" d="M119.085 61.2558L119.405 60.3447C120.077 58.399 120.708 56.4437 121.377 54.4848C122.075 52.4515 122.508 50.2917 123.095 48.2147C123.367 47.2468 123.67 46.2962 124.042 45.3806C124.338 44.6173 125.197 44.2375 125.963 44.5347C126.725 44.8305 127.103 45.6903 126.807 46.4536C126.503 47.2793 126.258 48.1337 126.041 49.0026C125.496 51.1532 125.102 53.3825 124.441 55.4921C123.712 57.8058 123.044 60.1149 122.283 62.4063C121.953 63.4045 121.601 64.3972 121.229 65.3887C121.172 65.5339 120.668 67.1635 120.382 67.7738C119.918 68.7673 119.076 68.9532 118.822 68.9788C118.193 69.0418 117.443 68.8233 116.909 67.9482C116.453 67.1955 116.12 64.8011 116.072 64.5638L115.18 59.4944C115.104 59.7326 115.029 59.9709 114.949 60.208C114.18 62.4763 113.269 64.6754 112.308 66.95C112.077 67.545 111.407 67.8413 110.811 67.6096C110.217 67.3794 109.919 66.7078 110.15 66.1128C110.952 63.8456 111.703 61.6531 112.32 59.4039C112.719 57.9384 113.056 56.4513 113.306 54.9014C113.527 53.5649 113.384 52.2378 113.507 50.9402C113.575 50.2308 113.718 49.5321 113.967 48.8388C114.454 47.5092 115.614 47.697 115.734 47.7076C115.926 47.7246 117.405 48.1219 117.201 49.6717C117.181 49.8187 117.072 50.5067 117.049 50.6595C117.08 51.038 117.152 51.3979 117.233 51.7537C117.39 52.4364 117.594 53.1032 117.754 53.8103L119.085 61.2558Z" fill="#0959C1"/></svg>