<svg width="246" height="87" viewBox="0 0 246 87" fill="none" xmlns="http://www.w3.org/2000/svg"><path fill-rule="evenodd" clip-rule="evenodd" d="M10.7367 62.5582C11.2784 61.7907 11.5383 60.9418 11.6918 60.0646C12.0144 58.2259 11.8569 56.2649 11.9366 54.3767L12.4869 33.4829L12.6179 26.3614C12.6247 26.0001 12.4923 24.8888 12.5559 24.1896C12.6347 23.3202 12.9639 22.6677 13.2669 22.2844C14.2358 21.0586 15.3075 21.1558 15.8543 21.2316C16.669 21.3447 17.5269 21.7615 18.0053 22.9122C18.1042 23.1446 18.2151 23.5208 18.229 24.0172C18.2376 24.3274 18.135 24.9757 18.1435 25.2764L18.2221 27.6735L18.5547 34.9873C18.8084 39.5803 19.0812 44.3416 19.7828 48.9922C20.2373 52.0122 20.8621 54.9944 21.8204 57.8435C22.1633 58.8683 22.6242 60.2222 23.3685 61.253C23.5861 61.5528 23.812 61.8627 24.1015 62.0401C24.278 61.5887 24.5 60.9793 24.6466 60.4205C26.8993 51.8632 28.608 30.16 29.1857 24.6388C29.2656 23.7124 30.0833 23.0259 31.0102 23.1059C31.9375 23.1859 32.6255 24.0023 32.5456 24.9287C32.2141 29.8235 31.4744 47.1917 29.9667 57.3799C29.3986 61.221 28.6075 64.1239 27.8409 65.3291C27.2007 66.3405 26.3829 66.7509 25.6943 66.8962C23.4583 67.3604 21.6571 66.5621 20.2177 65.138C18.7067 63.6458 17.686 61.2675 17.0465 59.5029C16.8817 59.0506 16.7247 58.5895 16.5752 58.1243C16.5225 59.0768 16.433 60.0213 16.2449 60.9336C15.9069 62.5758 15.2958 64.1372 14.1512 65.5336C12.6098 67.4147 10.7086 67.5173 8.802 66.3814C6.50436 65.0119 4.29064 61.164 4.11102 59.601C3.40687 53.4312 3.05164 47.5153 3.05515 41.5494C3.05804 35.6882 3.40088 29.7801 4.06061 23.5423C4.12912 22.7483 4.83018 22.1564 5.62477 22.225C6.41936 22.2935 7.00868 22.9967 6.94017 23.7907C6.52977 29.931 6.42621 35.7359 6.63464 41.482C6.84572 47.2998 7.38256 53.06 8.27995 59.0512C8.35606 59.553 8.94532 60.4323 9.60079 61.2508C9.90322 61.6244 10.3864 62.2566 10.7367 62.5582ZM10.7772 62.595C10.977 62.7599 11.1264 62.8013 11.1598 62.5995C11.1825 62.4586 10.9573 62.4915 10.7772 62.595Z" fill="#0959C1"/><path fill-rule="evenodd" clip-rule="evenodd" d="M44.3745 26.4129C41.2206 30.4643 39.9566 35.3929 39.3206 40.5519C38.2625 49.1361 38.9974 58.394 38.0748 66.0614C37.9948 66.9878 37.1771 67.6743 36.2502 67.5943C35.3229 67.5143 34.6349 66.6979 34.7149 65.7715C34.9365 61.2243 34.462 56.1647 34.2172 51.0012C33.9706 45.8041 33.9162 40.5094 34.818 35.5543C35.6678 30.8851 37.4036 26.5305 40.3703 22.7487C42.0768 20.6532 44.5053 20.5009 47.0302 22.1948C49.858 24.0911 52.8155 28.6935 53.13 29.6777C54.5398 34.2371 55.1865 38.3878 55.2808 42.5194C55.417 48.4926 54.4499 54.3801 53.3244 61.3777C53.2267 62.1692 52.5051 62.7307 51.7134 62.6338C50.9217 62.5369 50.3578 61.8169 50.4559 61.0206C51.0444 54.2148 51.5437 48.4917 51.0311 42.7574C50.6994 39.0386 49.9218 35.329 48.4066 31.2938C48.2853 30.9691 47.5688 30.0645 46.7239 29.0726C46.0962 28.3375 45.069 26.9204 44.3745 26.4129ZM44.3168 26.3699C44.021 26.1682 43.7923 26.1532 43.694 26.4542C43.6074 26.7229 44.0014 26.5903 44.3168 26.3699Z" fill="#0959C1"/><path fill-rule="evenodd" clip-rule="evenodd" d="M34.7079 49.2276C34.4008 49.5772 33.9657 49.7777 33.5019 49.7377C32.6755 49.6664 32.0693 48.857 32.1492 47.9307C32.1425 47.4444 32.582 46.5634 33.7346 45.8724C35.5 44.8153 40.2894 43.3763 41.2994 43.0396C42.3522 42.7543 43.394 42.2585 44.4755 41.7662C45.5478 41.273 46.6401 40.7388 47.7397 40.1718C51.2691 38.3432 54.8117 36.2014 57.8481 34.4016C58.4507 33.9632 59.2472 34.151 59.6259 34.8169C60.0046 35.4829 59.8225 36.3814 59.2204 36.8151C57.5383 38.3222 55.7462 40.0532 53.7966 41.7086C52.5297 42.7849 51.2223 43.8149 49.8688 44.7313C48.677 45.538 47.4578 46.2613 46.224 46.8119C44.8531 47.4269 43.4641 47.8165 42.1153 48.062C41.1598 48.1796 36.6555 48.5957 34.9037 49.1825C34.8406 49.2057 34.7496 49.2216 34.7079 49.2276ZM35.0843 48.522C35.0671 48.5776 35.0504 48.6285 35.0336 48.6795L34.9764 48.8174C35.048 48.6998 35.0802 48.574 35.1005 48.4519L35.0843 48.522Z" fill="#0959C1"/><path fill-rule="evenodd" clip-rule="evenodd" d="M74.2917 20.8662C72.0302 20.452 69.7656 19.9661 67.3771 19.6839C66.59 19.5874 65.8054 19.5293 65.0126 19.5132C64.2144 19.5015 63.4141 19.5277 62.6244 19.6167C61.5415 19.7375 60.4871 19.9417 59.4483 20.2187C57.8206 20.6497 56.3129 21.21 54.8267 21.896C53.931 22.1473 53.4088 23.0831 53.6618 23.9762C53.9139 24.8741 54.8462 25.3974 55.742 25.1414C57.5295 24.9195 59.311 25.0303 61.1757 25.0103C62.3794 24.9999 63.5919 24.995 64.8077 24.9237C66.0518 24.8454 67.2736 24.6651 68.5071 24.5239C70.4677 24.2931 72.3298 23.9919 74.2065 23.7539C75.0044 23.7751 75.6707 23.1469 75.6941 22.349C75.7172 21.5558 75.0891 20.8874 74.2917 20.8662Z" fill="#0959C1"/><path fill-rule="evenodd" clip-rule="evenodd" d="M65.5159 62.6635C66.3983 56.9247 66.9249 51.1972 67.1394 45.4314C67.2164 43.3651 67.2472 41.3025 67.2287 39.2356C67.2164 37.8627 67.1646 36.4902 67.109 35.1175C67.0049 32.5478 66.8739 29.9873 66.7844 27.4189C66.6954 24.8543 66.6009 22.3046 66.6322 19.739C66.6965 18.9939 65.9955 18.3275 65.0687 18.2476C64.1414 18.1676 63.3366 18.704 63.2723 19.4491C62.7283 22.8888 62.3083 26.3239 62.0648 29.7895C61.9034 32.0886 61.7962 34.3885 61.7716 36.6956C61.7535 38.4164 61.7884 40.1417 61.8465 41.8653C61.9041 43.5812 61.9995 45.2965 62.0991 47.0161C62.3959 52.1478 62.7385 57.2606 62.6363 62.4112C62.5806 63.0465 63.1807 63.6204 63.9757 63.689C64.7703 63.7575 65.4603 63.2988 65.5159 62.6635Z" fill="#0959C1"/><path fill-rule="evenodd" clip-rule="evenodd" d="M75.2635 39.8987C75.2648 39.9083 75.2706 39.9135 75.2819 39.9193C75.8286 40.195 75.6572 38.5375 75.7512 37.56C76.0438 34.5093 75.9999 30.463 76.7004 27.3379C77.071 25.6843 77.6172 24.2506 78.4355 23.2165C79.1331 22.3387 80.3912 21.5521 81.9788 21.1034C84.8454 20.2937 88.7224 20.2473 89.1775 20.1961C89.9642 20.064 90.7101 20.5949 90.8418 21.3824C90.9732 22.1699 90.4418 22.9145 89.6547 23.0466C89.286 23.1338 86.4294 23.4825 83.9909 24.2863C82.9964 24.61 82.0566 24.9574 81.6905 25.5305C80.7155 27.0558 80.8263 29.6414 80.8598 32.2393C80.9022 35.4998 81.0449 38.7928 80.5862 40.8531C80.4192 41.6005 80.1546 42.2348 79.8327 42.7594L79.3215 49.5862C79.202 50.552 77.4487 56.8192 76.9382 59.8749C77.3611 59.9638 77.8385 59.9955 78.3313 60.0142C80.4512 60.1019 82.7815 59.8601 84.213 60.0646C85.1403 60.1446 85.8284 60.961 85.748 61.8921C85.6681 62.8185 84.8504 63.505 83.9231 63.425C82.3011 63.3803 79.5858 64.0697 77.3034 64.0775C75.7796 64.0889 74.4341 63.7395 73.4198 63.1235C73.0743 62.9127 72.7564 62.5282 72.5145 61.9454C72.3736 61.6047 72.2754 60.8821 72.3305 59.8821C72.4864 57.0577 73.9287 50.1351 73.9784 49.1252L74.5141 41.5672C74.5621 40.938 74.8288 40.3469 75.2635 39.8987C75.2497 39.8546 75.3863 39.776 75.4338 39.7372C75.3743 39.7892 75.3176 39.8415 75.2635 39.8987ZM76.8707 60.3024L76.8674 60.3212C76.8406 60.5141 76.688 60.7866 76.8015 60.7821C77.1512 60.7742 77.0819 60.5587 76.8707 60.3024Z" fill="#0959C1"/><path fill-rule="evenodd" clip-rule="evenodd" d="M89.1817 36.5755C87.6519 36.7101 86.1668 36.8677 84.5919 37.1699C83.6088 37.3564 82.6348 37.5486 81.6804 37.8757C80.7531 38.1862 79.8639 38.5999 79.0015 39.035C77.6468 39.7228 76.4859 40.5368 75.2008 41.1878C74.3055 41.4391 73.7833 42.3701 74.0358 43.268C74.2884 44.1612 75.2207 44.6845 76.1165 44.4332C77.3535 44.3447 78.5512 44.2338 79.8309 44.0109C80.6263 43.87 81.41 43.7043 82.1944 43.4578C82.7602 43.2875 83.3147 43.064 83.8575 42.8204C84.4007 42.5768 84.9163 42.3022 85.4344 42.0136C87.0336 41.1184 88.4582 40.1556 90.0059 39.3464C90.7707 39.1171 91.2063 38.312 90.9787 37.5495C90.7514 36.7823 89.9461 36.3462 89.1817 36.5755Z" fill="#0959C1"/><path fill-rule="evenodd" clip-rule="evenodd" d="M97.4953 48.6896C96.9213 53.7825 96.3014 58.8714 95.707 63.9674C95.6267 64.8985 94.809 65.585 93.8821 65.505C92.9548 65.425 92.2668 64.6086 92.3471 63.6775L94.4567 19.8392C94.4886 19.0801 94.8343 18.3719 95.4112 17.8788C95.9886 17.3858 96.7442 17.1558 97.4983 17.2399C106.221 18.3354 109.159 21.9552 109.362 25.7486C109.469 27.7673 108.776 30.055 107.398 32.3739C105.409 35.7211 102.026 39.2622 98.7138 42.2905C98.8943 42.825 99.449 44.3823 100.038 45.3521C101.264 47.3577 102.649 49.2295 102.88 49.8827C103.439 51.4784 103.827 58.478 104.801 61.0618C104.817 61.1061 104.829 61.1643 104.841 61.2177C104.944 61.2504 105.009 61.2941 104.973 61.3481C105.411 61.6287 105.682 62.1378 105.634 62.6908C105.566 63.4848 104.865 64.0719 104.071 64.0034C103.44 63.9728 102.616 63.4446 102.052 62.2008C100.915 59.6981 100.069 52.778 99.4093 51.226C99.2395 50.8256 98.4044 49.9108 97.5505 48.7658L97.4953 48.6896ZM104.841 61.2177C104.681 61.1658 104.427 61.1392 104.319 61.125C104.512 61.1417 104.692 61.1954 104.854 61.2807C104.873 61.3585 104.894 61.4175 104.935 61.3877C104.953 61.375 104.966 61.3618 104.973 61.3481L104.869 61.2868L104.854 61.2807L104.841 61.2177ZM99.7319 23.1274C99.4792 27.3339 99.1876 31.5322 98.8204 35.724C100.081 34.2757 101.248 32.7813 102.193 31.3154C103.403 29.4389 104.275 27.662 104.143 26.1031C104.079 25.35 103.595 24.7702 102.766 24.2653C101.993 23.794 100.991 23.417 99.7319 23.1274Z" fill="#0959C1"/><path fill-rule="evenodd" clip-rule="evenodd" d="M138.759 19.8031C137.855 19.7489 135.629 19.5902 133.855 19.5372C132.847 19.512 131.974 19.5367 131.488 19.6043C128.968 19.9582 126.84 22.8554 125.907 26.3031C125.028 29.5461 125.381 33.1049 126.644 34.966C128.332 37.3877 130.659 39.936 132.704 42.6789C133.867 44.2362 134.92 45.8651 135.636 47.6125C136.657 50.1051 136.963 52.8694 135.582 56.1023C134.6 58.5222 132.805 60.3576 131.081 60.623C129.549 60.8575 128.804 59.4458 128.919 56.3559C128.998 55.4295 128.311 54.6131 127.384 54.5331C126.456 54.4531 125.639 55.1396 125.559 56.066C124.633 62.8713 128.103 65.0705 131.538 64.8527C134.507 64.666 138.112 62.1345 140.112 58.155C142.366 53.4594 142.152 49.3031 140.692 45.587C139.821 43.3691 138.467 41.3143 136.931 39.4057C134.805 36.7606 132.297 34.4205 130.488 32.1217C129.691 31.1293 129.678 29.0997 130.016 27.229C130.228 26.0522 130.566 24.9148 131.129 24.0777C131.426 23.6414 131.709 23.2279 132.147 23.1228C132.614 23.0107 133.563 22.9307 134.598 22.8677C136.19 22.7764 137.953 22.7238 138.726 22.6953C139.524 22.7023 140.179 22.0636 140.188 21.2644C140.197 20.47 139.556 19.8147 138.759 19.8031Z" fill="#0959C1"/><path fill-rule="evenodd" clip-rule="evenodd" d="M148.812 20.8449C148.984 26.0165 148.792 30.9996 148.548 35.9781C148.465 37.6613 148.372 39.3341 148.301 41.0088C148.229 42.6882 148.161 44.3631 148.121 46.0453C148.068 48.2833 148.056 50.525 148.034 52.7896C148.003 56.1486 148.024 59.5168 147.974 62.9741C147.894 63.9004 148.581 64.7169 149.509 64.7969C150.436 64.8769 151.254 64.1903 151.334 63.264C152.001 58.9505 152.719 54.7651 153.149 50.555C153.441 47.6947 153.638 44.8404 153.676 41.9868C153.716 39.1143 153.571 36.2496 153.352 33.3739C153.03 29.1273 152.442 24.896 151.688 20.5503C151.607 19.7576 150.897 19.1774 150.103 19.2613C149.31 19.3404 148.731 20.0475 148.812 20.8449Z" fill="#0959C1"/><path fill-rule="evenodd" clip-rule="evenodd" d="M159.36 20.2997C158.501 25.9394 157.09 31.7268 156.382 37.5319C156.067 40.114 155.963 42.6953 155.948 45.2272C156.022 46.9191 156.093 48.6061 156.21 50.297C156.384 52.7927 156.606 55.2689 156.735 57.7655C156.826 59.5303 156.907 61.2801 156.889 63.0546C156.809 63.9809 157.497 64.7973 158.424 64.8773C159.352 64.9574 160.168 64.2708 160.248 63.3444C160.644 60.8979 160.922 58.4648 161.071 56.0017C161.294 52.3927 161.257 48.7802 161.38 45.1626C161.307 42.7898 161.435 40.382 161.527 37.9473C161.753 32.1291 162.121 26.228 162.24 20.5482C162.309 19.7542 161.719 19.0511 160.924 18.9825C160.13 18.9139 159.429 19.5057 159.36 20.2997Z" fill="#0959C1"/><path fill-rule="evenodd" clip-rule="evenodd" d="M164.75 39.2547C163.301 38.9439 162.214 38.6311 160.949 38.5981C159.956 38.5695 159.011 38.9023 157.919 39.289C157.432 39.5993 156.884 39.9424 156.399 40.4053C155.95 40.8285 155.653 41.3694 155.193 41.7297C154.995 41.8841 155.002 42.2227 154.771 42.2695C153.844 42.1895 153.027 42.8761 152.947 43.8024C152.867 44.7288 153.554 45.55 154.481 45.63C155.295 45.9477 156.097 45.7408 157.026 45.5781C157.756 45.4506 158.436 45.1379 159.143 44.7942C159.622 44.5641 160.057 44.2827 160.477 44.1094C161.083 43.6474 161.599 43.3204 162.215 43.107C163.091 42.7969 163.878 42.4934 164.909 42.1395C165.703 42.0985 166.317 41.4135 166.272 40.6192C166.228 39.8202 165.549 39.2093 164.75 39.2547Z" fill="#0959C1"/><path fill-rule="evenodd" clip-rule="evenodd" d="M174.711 32.9975C173.771 35.759 173.099 38.6199 172.528 41.537C171.126 48.6774 170.364 56.0873 168.476 63.019C168.295 63.7985 167.521 64.2841 166.742 64.1026C165.968 63.9215 165.48 63.1461 165.66 62.3666C167.004 55.3688 167.121 47.9747 168.037 40.8115C168.447 37.5756 169.04 34.3986 169.911 31.3216C170.182 30.3784 170.603 26.8625 171.26 24.848C171.804 23.1807 172.804 22.2147 173.487 21.8928C175.437 20.9754 177.566 21.6876 178.727 24.6113C179.873 27.5005 180.114 33.7256 180.169 34.4541C180.453 39.7306 180.835 46.1725 180.815 52.3941C180.803 56.6832 180.594 60.8553 180.134 64.482C180.054 65.4083 179.238 66.0998 178.311 66.0198C177.381 65.9395 176.695 65.1185 176.775 64.1921C176.935 60.6729 176.761 56.6535 176.494 52.5308C176.094 46.4015 175.429 40.0779 174.854 34.8954C174.835 34.6842 174.792 33.9615 174.711 32.9975ZM175.568 26.8625C175.625 26.8435 175.677 26.8195 175.734 26.7958C175.953 26.6956 176.893 26.3768 176.502 26.1717C176.08 25.9543 175.784 26.2668 175.568 26.8625Z" fill="#0959C1"/><path fill-rule="evenodd" clip-rule="evenodd" d="M182.391 43.4947C181.437 43.7885 180.372 43.6967 179.194 43.657C178.042 43.61 176.859 43.4364 175.626 43.3538C174.769 43.2942 173.91 43.2582 173.066 43.2996C172.128 43.3473 171.213 43.4778 170.358 43.6897C167.849 44.3113 165.78 45.2993 164.585 47.1103C163.954 47.7939 164 48.8645 164.686 49.4903C165.372 50.1209 166.44 50.075 167.07 49.3913C167.647 48.9506 168.38 48.9329 169.159 48.8144C169.981 48.6902 170.858 48.7658 171.797 48.7468C172.757 48.7344 173.757 48.735 174.764 48.6648C175.851 48.5872 176.92 48.427 177.964 48.2219C180.213 47.7827 182.216 47.1841 183.712 46.0657C184.425 45.6987 184.702 44.8274 184.338 44.1199C183.975 43.4076 183.104 43.1277 182.391 43.4947Z" fill="#0959C1"/><path fill-rule="evenodd" clip-rule="evenodd" d="M187.88 43.6268L185.306 66.241C185.226 67.1674 184.406 67.8537 183.48 67.7738C182.553 67.6939 181.863 66.8772 181.943 65.9508C182.433 57.2985 182.743 48.6403 183.304 39.9847C183.678 34.1935 184.194 28.4099 184.788 22.6473C184.885 21.8129 185.365 21.0687 186.084 20.6355C189.202 18.7571 192.309 18.4062 194.648 19.4175C196.979 20.4233 198.905 22.7607 199.229 26.9884C199.359 28.7994 199.155 30.6769 198.602 32.41C198.013 34.2591 197.064 35.9532 195.786 37.2666C194.892 38.1751 193.149 39.0389 191.937 40.1723C191.69 40.4034 191.371 40.5902 191.364 40.9181L191.366 40.9897C191.364 40.9657 191.361 40.9417 191.364 40.9181C191.363 40.8228 191.361 40.7083 191.291 40.7309C190.503 41.0486 192.734 42.3838 193.083 43.0186C193.801 44.3377 194.543 45.9301 195.157 47.583C195.771 49.2358 196.276 50.9317 196.539 52.4638C196.896 54.5611 196.92 56.4773 196.755 58.3392C196.513 61.0561 195.887 63.6257 195.55 66.4631C195.481 67.2571 194.779 67.8488 193.986 67.7804C193.193 67.7119 192.602 67.0087 192.67 66.2146C192.82 63.404 193.269 60.8334 193.333 58.1486C193.368 56.5708 193.255 54.9564 192.842 53.2114C192.538 51.9138 192.014 50.4877 191.401 49.1064C190.775 47.6858 190.043 46.3276 189.342 45.2004C189.061 44.7477 188.394 44.1997 187.88 43.6268ZM188.649 36.8509C189.806 35.7317 191.385 34.8252 192.195 33.9142C192.921 33.1054 193.402 32.0566 193.712 30.9501C194.023 29.8247 194.115 28.6184 193.992 27.4555C193.829 25.8415 193.438 24.7745 192.545 24.4022C191.814 24.1011 190.959 24.2654 190.036 24.6857L188.649 36.8509Z" fill="#0959C1"/><path fill-rule="evenodd" clip-rule="evenodd" d="M203.739 19.5624C203.218 25.2646 202.507 30.9219 201.868 36.6187C201.658 38.5148 201.453 40.4064 201.281 42.3057C201.108 44.2049 200.953 46.1009 200.839 48.0053C200.688 50.5443 200.599 53.0841 200.514 55.6289C200.393 59.4658 200.354 63.2765 200.272 67.1072C200.192 68.0335 200.878 68.8498 201.805 68.9298C202.731 69.0097 203.551 68.3234 203.631 67.397C204.326 62.6526 205.128 57.946 205.699 53.1813C206.077 50.0095 206.398 46.8326 206.593 43.6449C206.793 40.4528 206.841 37.2573 206.874 34.0556C206.915 29.2405 206.785 24.4583 206.628 19.6499C206.655 18.8522 206.028 18.1838 205.231 18.1627C204.434 18.1368 203.766 18.7648 203.739 19.5624Z" fill="#0959C1"/><path fill-rule="evenodd" clip-rule="evenodd" d="M218.465 35.8126C218.532 35.0375 218.608 34.2583 218.692 33.4799C218.968 31.0134 218.942 27.5544 219.554 24.7027C219.898 23.1039 220.421 21.6777 221.223 20.6089C221.76 19.8505 222.813 19.6748 223.574 20.2118C224.331 20.7532 224.509 21.8066 223.972 22.565C223.307 23.5551 223.071 24.968 222.924 26.479C222.674 28.9906 222.797 31.7581 222.669 33.8231C222.096 42.5539 222.959 51.1658 222.917 59.8472C222.905 62.0746 222.826 64.3057 222.663 66.5438C222.476 69.0418 220.173 69.0335 220.009 69.0336C219.791 69.0338 217.643 68.8247 217.412 66.5906L217.329 65.6931C217.243 65.4285 217.18 65.1327 217.127 64.8234C217.014 64.128 217.025 63.2718 216.902 62.6041L215.441 55.1691C215.204 53.6821 214.989 52.1827 214.807 50.6862C214.689 49.7047 214.577 48.7189 214.477 47.7342C214.253 49.8908 214.045 52.0584 213.884 54.2158C213.594 58.0096 213.43 61.7712 213.542 65.3854C213.587 66.1845 212.973 66.8648 212.179 66.9105C211.38 66.9559 210.697 66.3446 210.657 65.546C210.355 61.8345 210.324 57.9559 210.431 54.0369C210.591 48.2845 211.064 42.4591 211.41 36.9847L211.587 27.5769L211.916 22.6485C212.03 21.3204 213.2 20.3404 214.522 20.4545C215.85 20.569 216.829 21.7392 216.715 23.0626L216.715 23.0673L216.678 25.2925L217.9 32.2831C218.105 33.4579 218.294 34.636 218.465 35.8126Z" fill="#0959C1"/><path fill-rule="evenodd" clip-rule="evenodd" d="M239.377 43.7412C239.462 43.9295 239.54 44.1028 239.601 44.2652C239.862 44.9448 239.971 45.7351 239.999 46.5756C240.043 47.9174 239.791 49.424 239.734 50.5762C239.597 53.0356 239.001 57.122 237.708 60.3625C237.021 62.0841 236.099 63.5615 235.039 64.5938C232.863 66.7154 230.059 67.3972 226.525 65.0353C226.072 64.7295 225.548 64.1748 225.229 63.2473C225.027 62.6633 224.865 61.7161 224.813 60.5546C224.661 57.1513 225.269 51.3709 225.376 50.3278C226.127 44.0169 226.546 36.4727 229.04 30.8597C231.06 26.3153 234.284 22.9128 239.791 22.0834C240.574 21.9318 241.333 22.4449 241.484 23.2293C241.635 24.0137 241.12 24.7692 240.337 24.9207C236.179 25.8951 233.979 28.7384 232.69 32.3222C230.738 37.7438 230.85 44.8196 230.53 50.7725C230.452 51.8228 229.983 58.1343 230.318 60.9819C230.509 61.0603 230.687 61.09 230.867 61.0437C231.802 60.7862 232.348 59.6763 232.913 58.4823C234.189 55.783 234.924 52.2848 235.172 50.1826C235.286 49.2544 235.554 48.092 235.663 46.9823C235.709 46.4912 235.776 46.016 235.659 45.6154L234.336 42.63C233.952 41.9636 233.998 41.1391 234.446 40.5207C234.899 39.898 235.673 39.6028 236.42 39.7625C236.42 39.7625 237.649 40.0971 238.932 40.1316C239.548 40.1515 240.215 40.2662 240.584 39.9456C241.257 39.3037 242.327 39.3294 242.971 39.9992C243.611 40.6734 243.586 41.7426 242.913 42.3845C242.326 42.9957 241.439 43.3811 240.433 43.5942C240.09 43.6646 239.737 43.7151 239.377 43.7412Z" fill="#0959C1"/></svg>