<svg width="240" height="418" viewBox="0 0 240 418" fill="none" xmlns="http://www.w3.org/2000/svg"><path fill-rule="evenodd" clip-rule="evenodd" d="M11.4548 63.2356C16.05 54.6461 21.1825 45.9694 26.4269 37.2544C29.8517 31.5624 33.3259 25.8623 36.8773 20.2568C39.869 15.5406 42.8782 10.8736 45.9399 6.32315C49.0842 1.65 52.2285 -2.92527 55.4707 -7.2942C56.1334 -8.13193 55.9907 -9.34845 55.1519 -10.0099C54.3132 -10.671 53.099 -10.5285 52.4362 -9.69117C47.1728 -3.38652 41.9539 3.29656 37.0301 10.343C33.8352 14.9161 30.7539 19.6304 27.8116 24.4371C24.8793 29.2298 22.0862 34.1164 19.4409 39.0386C15.3935 46.5716 11.7296 54.196 8.29153 61.6598C7.85424 62.5328 8.21182 63.5945 9.08603 64.0289C9.95646 64.4641 11.0175 64.1086 11.4548 63.2356Z" fill="#0959C1"/><path fill-rule="evenodd" clip-rule="evenodd" d="M109.148 14.2242C109.349 13.3727 110.112 12.739 111.026 12.739C112.094 12.739 112.958 13.6052 112.958 14.6724C112.97 15.0573 112.453 16.4607 111.126 18.497C108.365 22.7309 102.152 31.3532 94.5158 41.3362C88.9507 48.6118 82.645 56.6225 76.4936 64.2571C73.6706 67.7621 70.8513 71.1633 68.1709 74.3929C58.1899 86.4106 50.06 95.9624 48.6909 97.836C48.1355 98.6374 47.0363 98.838 46.2341 98.283C45.4319 97.7276 45.2314 96.6262 45.7868 95.8247C47.3642 93.434 58.3364 78.7224 70.9593 62.5093C75.3867 56.825 80.061 50.9948 84.5463 45.405C89.4944 39.2328 94.2497 33.3872 98.2414 28.411C103.101 22.3548 106.865 17.6378 108.496 15.2458C108.797 14.8046 109.086 14.3253 109.148 14.2242Z" fill="#0959C1"/><path fill-rule="evenodd" clip-rule="evenodd" d="M28.8602 39.8856C34.086 41.0426 39.3928 42.7634 44.6649 44.7577C48.0857 46.0504 51.4642 47.4909 54.7771 49.0282C58.9731 50.9766 63.0381 53.1012 66.8369 55.4457C70.8401 57.9174 74.5811 60.5388 77.8052 63.4961C78.5573 64.2508 79.7837 64.2508 80.5358 63.4961C81.2917 62.7417 81.2917 61.5164 80.5358 60.7621C76.7717 56.6798 72.2825 52.8764 67.2187 49.5932C64.0331 47.5272 60.6238 45.6679 57.0795 44.0454C53.593 42.4499 49.9755 41.0834 46.3078 39.9588C40.7002 38.2391 34.9923 37.1084 29.4657 36.4045C28.5015 36.2375 27.5875 36.8816 27.4217 37.8423C27.252 38.803 27.8961 39.7186 28.8602 39.8856Z" fill="#0959C1"/><path fill-rule="evenodd" clip-rule="evenodd" d="M161.808 78.7533C151.937 82.1801 142.07 85.3594 132.523 89.2063C126.038 91.8183 119.702 94.741 113.606 98.2349C104.79 103.312 95.842 109.19 89.2123 116.648C84.4854 121.965 80.9438 128.087 79.3199 135.218C78.469 139.025 77.3043 142.776 77.6051 146.371C77.8361 149.076 78.8052 151.718 81.1359 154.258C83.3993 156.724 86.9294 158.611 91.4028 159.87C98.0144 161.732 106.808 162.325 116.157 162.035C136.365 161.408 159.208 156.795 167.779 153.708C170.465 152.731 173.381 151.323 176.287 149.751C180.503 147.465 184.697 144.842 188.086 142.796C189.009 142.256 189.315 141.07 188.775 140.15C188.234 139.23 187.047 138.922 186.128 139.463C182.742 141.402 178.548 143.894 174.335 146.051C171.597 147.454 168.852 148.711 166.328 149.563C157.947 152.419 135.668 156.38 116.023 156.75C107.283 156.915 99.0683 156.391 92.8925 154.621C89.5648 153.667 86.86 152.396 85.1776 150.553C83.8042 149.052 83.2158 147.502 83.0773 145.905C82.8182 142.837 83.9359 139.656 84.6548 136.405C86.0099 130.162 89.1136 124.824 93.1763 120.122C99.357 112.971 107.741 107.276 116.008 102.318C121.846 98.7969 127.932 95.8337 134.164 93.1541C143.561 89.1144 153.284 85.7163 163.006 82.0773C163.925 81.7469 164.402 80.7338 164.07 79.8161C163.738 78.8987 162.727 78.4229 161.808 78.7533Z" fill="#0959C1"/><path fill-rule="evenodd" clip-rule="evenodd" d="M118.587 342.545C118.321 349.752 118.124 354.312 117.441 358.699C116.643 363.836 115.197 368.736 112.189 377.319C111.88 378.244 110.881 378.744 109.956 378.436C109.03 378.128 108.529 377.127 108.837 376.201C111.483 367.851 112.748 363.096 113.373 358.127C113.982 353.258 113.97 348.19 114.044 339.38C114.063 338.658 114.41 337.985 114.992 337.557C115.575 337.129 116.319 336.995 117.013 337.193C125.247 339.444 133.284 342.145 141.395 344.601C144.831 345.64 148.275 346.641 151.762 347.529C153.918 348.097 178.951 353.997 193.491 357.817C197.895 358.973 201.351 359.956 202.982 360.522C204.143 360.926 204.783 361.387 204.968 361.574C205.281 361.892 205.651 362.41 205.863 363.208C206.122 364.192 206.222 366.21 206.114 368.766C205.801 376.088 204.162 388.432 203.877 390.278C202.932 396.29 200.487 402.284 199.01 408.165C198.393 410.623 197.949 413.058 197.914 415.468C197.914 416.533 197.047 417.401 195.978 417.401C194.914 417.401 194.046 416.533 194.046 415.468C194.008 412.759 194.409 410.007 195.022 407.225C196.299 401.439 198.551 395.524 199.311 389.626C199.577 387.581 201.239 372.312 200.992 366.09C200.981 365.81 201.011 365.478 201.023 365.196L150.385 352.769C146.833 351.805 143.32 350.738 139.829 349.606C132.745 347.309 125.737 344.777 118.587 342.545ZM201.031 365.045C201.035 364.743 201 364.535 200.838 364.581C200.606 364.646 200.822 364.865 201.031 365.045Z" fill="#0959C1"/><path fill-rule="evenodd" clip-rule="evenodd" d="M154.408 395.889C156.008 391.267 158.338 386.254 160.384 380.958C161.694 377.571 162.885 374.077 163.868 370.602C164.551 368.185 165.111 365.768 165.51 363.39C166.171 359.467 166.399 355.667 166.099 352.113C166.067 351.046 165.173 350.206 164.109 350.238C163.041 350.271 162.204 351.163 162.236 352.229C162.153 356.244 161.131 360.48 159.91 364.875C158.835 368.746 157.519 372.709 156.218 376.65C155.624 378.447 155.069 380.248 154.525 382.029C153.149 386.54 151.919 390.908 151.014 394.914C150.741 395.852 151.288 396.831 152.222 397.1C153.16 397.369 154.139 396.826 154.408 395.889Z" fill="#0959C1"/><path fill-rule="evenodd" clip-rule="evenodd" d="M172.179 275.414C170.922 276.04 169.387 276.611 167.617 277.086C158.357 279.57 142.313 279.824 131.156 274.948C125.625 272.532 121.283 268.854 119.173 263.803C117.368 259.486 117.167 254.095 119.505 247.451C123.057 237.418 130.018 229.17 138.981 222.972C151.284 214.46 167.339 209.773 182.97 209.352C211.509 208.583 238.51 221.926 239.663 250.822C239.713 251.796 238.961 252.626 237.985 252.675C237.014 252.724 236.184 251.973 236.134 250.999C234.541 224.534 209.296 213.309 183.143 214.406C168.534 215.02 153.594 219.484 142.116 227.487C134.133 233.052 127.812 240.314 124.619 249.268C122.798 254.338 122.752 258.453 124.106 261.764C125.683 265.616 129.089 268.296 133.269 270.184C143.381 274.748 157.979 274.698 166.452 272.581C168.245 272.133 169.749 271.608 170.829 270.985C171.134 270.81 171.4 270.634 171.616 270.445C171.709 270.362 171.832 270.215 171.87 270.168C171.944 268.977 172.939 268.043 174.142 268.058C175.369 268.075 176.356 269.074 176.356 270.302V270.361L176.352 270.382V270.502V270.523C176.294 272.35 176.421 274.176 176.668 275.993C177.806 284.398 181.223 292.61 181.15 299.899C181.15 300.966 180.282 301.833 179.214 301.833C178.149 301.833 177.281 300.966 177.281 299.899C177.208 292.769 173.629 284.821 172.349 276.623C172.283 276.221 172.229 275.818 172.179 275.414ZM171.867 270.302V270.299V270.302Z" fill="#0959C1"/></svg>