<svg width="395" height="103" viewBox="0 0 395 103" fill="none" xmlns="http://www.w3.org/2000/svg"><g clip-path="url(#clip0)"><path d="M242.227 41.6608C240.498 42.4842 238.687 43.2252 236.711 43.8838C237.369 42.3195 238.028 40.7551 238.604 39.2731C240.745 34.0037 243.462 27.4994 244.45 26.182C245.603 25.3587 245.932 23.7943 245.273 22.5593C245.109 22.1476 244.779 21.9006 244.45 21.6536C244.532 20.9126 244.615 20.2539 244.615 19.5129C244.615 19.2659 244.615 18.9366 244.532 18.6896C244.532 18.5249 244.615 18.2779 244.615 18.1133C244.615 15.1492 243.297 12.6792 241.074 11.3619C238.604 9.87985 235.311 10.0445 232.182 11.7735C226.995 14.6552 224.031 20.5833 221.643 25.2763L221.232 26.0997C218.021 32.3571 217.691 36.9678 220.161 39.7671C221.396 41.1668 223.125 41.8255 225.184 41.8255C226.584 41.8255 228.066 41.4962 229.63 40.9198C230.453 40.5905 231.277 40.1788 232.1 39.7671C231.277 41.8255 230.289 44.0485 229.383 46.3539C221.89 48.7416 214.48 51.5409 209.623 57.222C205.671 61.8327 205.424 69.1604 209.046 72.8655C209.705 73.5241 211.434 75.0061 214.069 75.0061C215.962 75.0061 218.432 74.2651 221.314 71.8775C225.349 68.5841 229.712 60.1037 233.664 51.0469C237.452 49.8119 241.404 48.5769 244.779 46.9302C246.179 46.1892 246.838 44.5425 246.097 43.0605C245.356 41.5785 243.627 40.9198 242.227 41.6608ZM217.691 67.3491C216.95 68.0077 214.316 69.9014 213.163 68.7488C211.928 67.5137 211.763 63.5617 214.069 60.8447C216.95 57.469 221.396 55.246 226.254 53.4346C223.29 59.7743 220.244 65.2907 217.691 67.3491ZM227.654 35.4858C225.678 36.2268 224.608 35.9798 224.525 35.8151C224.278 35.5681 223.867 33.5097 226.419 28.5697L226.831 27.7464C228.889 23.712 231.441 18.6896 235.064 16.6312C235.97 16.1372 236.793 15.8902 237.369 15.8902C237.781 15.8902 238.028 15.9726 238.275 16.0549C238.851 16.3842 238.934 17.2076 238.934 17.7016C238.934 17.7016 238.934 17.7839 238.934 17.8663C238.851 18.1956 238.769 18.9366 238.934 19.7599C238.522 27.8287 232.182 33.7567 227.654 35.4858ZM211.846 88.0973C210.858 88.1796 209.376 88.4266 207.482 88.756C201.225 89.8263 182.782 92.955 179.653 88.0149C181.464 87.4386 183.111 86.8623 184.675 86.2859C193.979 82.8279 195.297 81.0989 195.873 79.6169C197.52 75.3355 195.955 73.2771 194.885 72.4538C190.933 69.3251 183.77 74.0181 181.629 75.5002C177.924 78.1348 175.372 81.0165 174.219 83.8159C173.313 84.0629 172.325 84.3922 171.337 84.7216C162.363 87.4386 155.365 89.003 152.4 89.4146C152.565 88.5089 152.977 87.0269 153.224 86.1213C154.377 82.0045 156.6 74.4298 148.531 71.4658C140.956 68.7488 133.793 70.3954 127.536 71.8775C127.453 71.8775 127.371 71.9598 127.289 71.9598C128.524 68.9958 129.759 66.4434 130.829 64.7144C131.652 63.397 131.241 61.5857 129.923 60.7623C128.606 59.939 126.795 60.3507 125.971 61.668C124.078 64.7967 122.019 69.7368 119.796 75.2532C119.302 75.6648 118.89 76.1588 118.726 76.8998C118.643 77.3115 118.643 77.7232 118.643 78.1348C116.585 83.3219 114.444 88.7559 112.386 92.7903C112.221 93.1197 112.139 93.449 111.974 93.7783C111.316 94.2723 110.986 95.0957 110.986 96.0014C110.986 97.5657 112.304 98.883 113.868 98.883C115.597 98.883 116.832 97.8127 117.491 95.672C117.491 95.5897 117.573 95.5073 117.573 95.425C119.714 91.226 121.855 85.8743 123.913 80.6049C124.654 80.2755 125.395 79.7815 126.136 79.2875C126.959 78.7935 128.359 77.8055 128.853 77.7232C134.699 76.4058 140.709 75.0061 146.637 77.1468C149.107 78.0525 149.272 79.2875 147.707 84.7216C146.719 88.0973 145.484 92.214 148.695 94.7663C149.766 95.5897 151.001 96.5777 166.727 92.2963C169.197 91.6376 171.667 90.8966 174.054 90.1556C176.195 95.3427 182.699 96.8247 189.945 96.8247C196.367 96.8247 203.365 95.672 208.388 94.7663C210.117 94.5193 211.599 94.2723 212.34 94.19C213.904 94.0253 215.057 92.6257 214.892 91.0613C214.81 89.0853 213.41 87.9326 211.846 88.0973ZM190.521 77.2292C189.863 77.7232 188.216 78.6289 185.499 79.7815C187.31 78.4642 189.204 77.5585 190.521 77.2292ZM98.2246 48.8239C98.06 48.9062 97.8953 49.0709 97.7306 49.1532C97.1543 49.3179 96.5779 49.6472 96.1663 50.1412C94.7666 51.9526 95.5899 53.5169 96.2486 54.2579C96.9073 54.9166 97.4836 55.1636 98.1423 55.1636C99.3773 55.1636 100.612 54.2579 101.683 53.3523C102.341 52.8583 103.329 52.1173 103.659 51.8703C104.976 51.1292 106.211 50.3882 107.446 49.5649C108.352 51.3763 110.163 53.5169 114.28 54.0933C119.714 54.7519 125.807 55.5753 131.735 52.6936C133.134 51.9526 133.793 50.3059 133.052 48.8239C132.311 47.4242 130.664 46.7655 129.182 47.5065C124.819 49.6472 120.043 49.0709 115.021 48.4122C113.045 48.1652 112.715 47.4242 112.633 47.0949C112.551 46.8479 112.468 46.5185 112.386 46.1892C112.962 45.7775 113.539 45.2835 114.115 44.7895C116.173 43.0605 122.431 36.3914 128.441 28.8167C140.133 14.0789 140.297 9.13884 140.38 7.49216C140.462 5.1868 139.556 3.78712 138.733 2.96378C137.992 2.3051 137.086 1.89343 136.016 1.97577C131.652 2.3051 122.76 13.6672 122.678 13.8319C115.762 23.0533 108.187 34.6624 106.87 43.0605C104.976 44.3778 103 45.6129 100.777 46.8479C100.201 47.2595 99.3773 47.9182 98.2246 48.8239ZM100.777 53.7639L98.4716 52.0349L100.777 53.7639ZM127.371 17.3723C128.359 16.0549 131.405 12.5969 133.875 10.2092C132.805 12.7615 130.417 17.0429 124.983 24.0413C122.019 27.911 118.89 31.5337 116.338 34.4154C118.726 29.8047 122.349 24.0413 127.371 17.3723ZM168.044 56.0693C169.608 56.0693 170.926 54.7519 170.926 53.1876C170.926 51.1292 173.89 44.2132 177.43 37.1324C178.171 37.3794 178.83 37.2148 179.818 36.5561L179.9 36.4738L179.982 36.3914C180.476 36.0621 181.053 35.6504 181.794 35.0741L182.699 34.4154C184.181 33.3451 185.581 32.1924 187.063 31.1221C187.557 30.7104 188.298 30.134 189.204 29.393C196.614 23.218 199.578 21.9006 200.731 21.9006C200.978 24.3707 196.285 32.1101 194.062 35.8974C191.18 40.7551 189.533 43.5545 189.286 45.6129C188.38 52.5289 192.003 54.8343 193.65 55.5753C194.638 55.987 195.708 56.234 196.861 56.234C200.401 56.234 204.436 54.1756 207.317 50.6352C208.305 49.4002 208.141 47.5889 206.906 46.6009C205.671 45.6129 203.859 45.7775 202.871 47.0125C200.648 49.7296 197.437 50.9646 195.955 50.3059C194.72 49.8119 194.885 47.4242 195.05 46.3539C195.214 45.2835 197.437 41.5785 199.084 38.8615C204.024 30.628 207.482 24.453 206.412 20.2539C206.082 18.8543 205.177 17.7016 204.024 16.9606C199.331 14.1612 192.662 19.1836 185.746 24.947C184.922 25.6057 184.264 26.182 183.852 26.5113C183.523 26.7583 183.111 27.0877 182.782 27.3347C185.169 22.971 187.31 19.5953 188.216 18.7719C189.451 17.8663 189.78 16.0549 188.874 14.8199C187.969 13.5025 186.157 13.1732 184.84 14.0789C181.958 16.0549 175.948 27.5817 173.56 32.4394C170.514 38.5321 165.409 49.3179 165.409 53.2699C165.162 54.7519 166.397 56.0693 168.044 56.0693ZM168.456 6.09248C169.361 6.09248 170.185 5.6808 170.679 5.02213C171.09 4.52813 171.337 3.86945 171.337 3.21078C171.337 1.64643 170.02 0.329085 168.456 0.329085C167.55 0.329085 166.727 0.740756 166.233 1.39943C165.821 1.89343 165.574 2.55211 165.574 3.21078C165.574 4.77513 166.891 6.09248 168.456 6.09248ZM151.989 55.3283C153.553 55.3283 154.871 54.0109 154.871 52.4466C154.871 50.8822 153.553 49.5649 151.989 49.5649C151.083 49.5649 149.436 49.4826 149.025 48.6592C147.131 45.2835 154.623 32.8511 158.246 26.923C160.14 23.8766 161.704 21.1596 162.528 19.3483C162.857 18.6896 162.939 17.9486 163.022 17.3723C163.022 17.2899 163.022 17.2899 163.022 17.2076C163.845 16.6312 164.257 15.5609 164.092 14.4906C163.845 12.9262 162.445 11.8559 160.881 12.0205C157.999 12.4322 157.505 15.3139 157.341 16.3842C157.341 16.6312 157.258 16.9606 157.258 17.0429C156.6 18.6073 155.035 21.0773 153.306 23.959C145.978 35.9798 140.709 45.6129 144.002 51.4586C144.908 53.2699 147.131 55.3283 151.989 55.3283ZM63.4796 5.51614C63.4796 7.08048 64.797 8.39783 66.3613 8.39783C67.9257 8.39783 69.243 7.08048 69.243 5.51614V5.35147V5.1868C69.3253 3.62245 68.0903 2.22277 66.526 2.14044C64.9616 2.0581 63.5619 3.29311 63.4796 4.85746V5.02213C63.4796 5.1868 63.4796 5.1868 63.4796 5.4338V5.51614ZM392.075 18.6073C391.252 18.1133 390.264 18.0309 389.276 18.2779C385.9 19.2659 382.03 25.688 372.068 44.6249C370.174 48.2476 368.445 51.4586 367.128 53.7639C367.293 50.4706 367.54 46.5185 367.704 43.1428C368.692 27.664 369.022 20.0069 367.21 16.9606C366.716 16.0549 365.728 15.5609 364.74 15.5609H364.246C363.752 15.5609 363.258 15.7256 362.847 15.9726C355.519 20.1716 351.567 36.1444 346.297 60.1037C343.416 73.0301 339.546 90.732 336.006 92.7903C334.606 93.6137 334.112 95.3427 334.935 96.7424C335.759 98.142 337.488 98.636 338.887 97.8127C344.404 94.684 347.45 81.9222 351.896 61.421C354.695 48.5769 358.4 31.7807 362.764 24.3707C362.847 29.4754 362.353 37.4618 361.941 42.8958C360.953 57.8806 360.87 61.8327 362.517 63.7264C363.176 64.4674 364.164 64.879 365.152 64.7967C366.716 64.632 367.951 63.7264 370.751 59.0333C372.233 56.728 374.456 52.4466 377.09 47.5065C380.219 41.5785 385.488 31.6984 388.782 26.7583C388.699 28.9814 388.205 32.5217 387.135 38.2028L387.053 38.6145C386.723 40.3435 386.312 42.7312 385.735 45.6129C383.265 59.6097 377.337 92.461 372.068 98.4714C370.998 99.7064 371.162 101.518 372.315 102.506C372.891 103 373.55 103.247 374.209 103.247C375.032 103.247 375.773 102.917 376.349 102.259C382.195 95.5897 387.135 70.0661 391.334 46.6009C391.828 43.7192 392.24 41.3315 392.569 39.6848L392.651 39.2731C395.78 24.1237 394.71 20.1716 392.075 18.6073ZM116.585 66.2787C116.091 64.7967 114.444 63.9734 112.88 64.5497C106.623 66.7727 84.5572 63.891 66.773 61.668C54.5052 60.1037 42.9784 58.6217 36.3094 58.6217C34.745 58.6217 33.4277 59.939 33.4277 61.5033C33.4277 63.0677 34.745 64.385 36.3094 64.385C42.6491 64.385 54.0112 65.8671 66.032 67.3491C71.96 68.0901 77.8881 68.8311 83.5691 69.4898C79.8641 75.5825 75.9121 86.2036 75.9121 89.9086C75.9121 91.473 77.2294 92.7903 78.7938 92.7903C80.3581 92.7903 81.6755 91.473 81.6755 89.9086C81.6755 86.3683 87.7682 72.0421 90.0735 70.1484C95.6723 70.7248 100.777 71.0541 105.058 71.0541C109.175 71.0541 112.551 70.7248 114.691 69.9838C116.256 69.4074 117.079 67.7607 116.585 66.2787ZM289.075 14.4082C287.099 13.5849 283.641 13.0909 279.113 15.6432C279.36 14.8199 279.607 14.0789 279.771 13.6672C280.43 12.8439 280.595 11.7735 280.183 10.7032C279.607 9.22117 277.878 8.48017 276.396 9.13884C274.749 9.79751 274.255 10.8679 272.114 18.9366C271.95 19.6776 271.703 20.5833 271.62 20.748C271.373 21.4066 271.126 22.0653 270.879 22.6416C270.468 23.1356 270.221 23.7943 270.221 24.3707C264.787 39.1908 260.752 51.5409 257.623 62.903C256.882 65.7024 255.812 68.3371 254.659 71.1364C253.589 73.7711 252.519 76.4882 251.613 79.3699C251.366 80.3579 250.954 81.9222 250.625 83.4866C250.46 84.0629 250.296 84.8862 250.213 85.4626L250.131 85.5449C249.061 86.1213 248.402 87.4386 248.649 88.6736C249.637 93.3667 252.189 94.931 254.165 95.425C254.742 95.5897 255.318 95.672 255.894 95.672C262.234 95.672 270.138 87.8503 274.502 82.8279C284.382 71.4658 295.497 51.7879 296.568 35.3211C297.391 24.1237 294.674 16.7136 289.075 14.4082ZM290.969 34.9094C290.063 49.4002 279.936 68.0901 270.303 79.0405C263.799 86.5329 257.788 90.4026 255.73 89.9086C255.483 89.8263 255.236 89.5793 255.071 89.3323C255.483 88.5913 255.73 87.8503 255.812 87.3563C255.977 86.6153 256.224 85.7096 256.388 84.7216C256.718 83.3219 257.047 81.7575 257.212 81.0165C257.953 78.4642 258.941 75.9942 260.011 73.3595C261.164 70.5601 262.317 67.5961 263.222 64.4674C266.351 53.0229 270.385 40.6728 275.984 25.688C280.265 20.995 284.382 18.7719 286.852 19.7599C289.24 20.6656 291.545 25.194 290.969 34.9094ZM36.8034 22.8886C36.8034 20.1716 34.004 20.0069 33.4277 19.9246C33.016 19.9246 32.6866 20.0069 32.3573 20.0893C30.4636 20.1716 26.6763 20.3363 24.7002 20.4186C23.1359 20.4186 21.5715 20.4186 20.0072 20.4186C22.0655 17.5369 23.6299 15.3962 24.6179 14.0789C25.9353 12.3499 29.558 9.55051 32.3573 7.73916C32.3573 7.73916 32.3573 7.73916 32.3573 7.82149C32.275 9.38584 33.51 10.7855 35.1567 10.7855C35.6507 10.7855 36.8034 10.8679 37.709 9.87985C37.956 9.63284 38.3677 9.13884 38.45 8.39783C39.3557 6.58648 41.0847 2.46977 38.0384 0.576088C35.8977 -0.823592 32.8513 0.164417 27.5819 3.95179C24.3709 6.25714 21.0775 9.0565 20.0072 10.5385C18.4428 12.5969 15.8905 16.1372 13.1735 20.0069C9.8801 19.6776 6.66906 19.2659 3.78737 18.8543C2.22302 18.6073 0.741007 19.6776 0.494005 21.3243C0.247002 22.8886 1.31735 24.3707 2.96403 24.6177C5.02238 24.947 7.16307 25.194 9.38609 25.441C6.17506 30.0517 3.1287 34.4154 1.56435 36.7208C1.07034 37.4618 0.741007 37.9558 0.576339 38.1205C0.247002 38.5321 0 39.1085 0 39.7671C0 41.3315 1.31735 42.6488 2.88169 42.6488C4.36371 42.6488 4.85771 41.9902 6.25739 39.9318C10.0448 34.4978 13.2558 29.8047 15.9728 26.0173C18.1958 26.182 20.4189 26.2643 22.7242 26.2643C23.3829 26.2643 24.0416 26.2643 24.7002 26.2643C26.0176 26.2643 28.4053 26.182 30.299 26.0997C31.287 26.0173 32.275 26.0173 32.9337 25.935C34.004 25.8527 36.8034 25.688 36.8034 22.8886ZM339.546 59.3627C340.781 58.0453 341.193 56.728 340.616 55.4106C340.04 54.0109 338.805 53.5993 337.817 53.4346C342.592 26.676 341.851 15.2316 335.841 12.9262C334.853 12.5145 333.289 12.2675 331.395 13.1732C325.384 15.9726 318.386 29.887 308.012 59.5273C307.436 61.174 306.942 62.656 306.777 62.9854L306.695 63.2324C304.554 68.3371 302.496 73.1125 299.943 77.8055C299.696 78.2995 299.367 78.8758 298.955 79.6169C298.132 81.0165 297.144 82.7456 296.403 84.2276C295.25 86.5329 294.098 88.6736 295.991 90.3203C296.897 91.1436 298.461 91.3906 299.861 90.3203C300.602 89.744 301.014 88.7559 300.931 87.8503C301.59 86.4506 303.072 83.8982 303.813 82.4986C304.225 81.7575 304.554 81.1812 304.883 80.6872C307.6 75.7472 309.659 70.8071 311.882 65.5377L311.964 65.2907C312.211 64.7967 312.54 63.644 313.364 61.421C313.446 61.2563 313.446 61.0917 313.528 60.927C313.94 61.5857 314.516 62.0797 315.34 62.3267C318.468 63.15 322.667 64.2204 326.949 64.2204C327.937 64.2204 328.925 64.138 329.913 64.0557C329.501 66.1964 329.09 68.2548 328.678 69.9014C328.184 72.3715 327.772 74.1828 327.608 75.2532C327.031 78.2995 324.643 86.8623 323.491 88.9206C322.667 89.4146 322.091 90.3203 322.091 91.3906C322.091 92.955 323.408 94.2723 324.973 94.2723C327.772 94.2723 329.09 91.3906 330.983 85.3802C332.136 81.6752 333.124 77.6408 333.371 76.2412C333.536 75.2531 333.947 73.4418 334.441 71.0541C335.1 67.8431 335.759 64.7967 336.335 61.915C337.405 61.2563 338.476 60.433 339.546 59.3627ZM334.277 39.1085C333.536 45.3659 332.383 51.9526 331.23 57.8807C327.113 59.1157 321.926 58.0453 316.904 56.8103C316.328 56.6456 315.669 56.728 315.175 56.8926C317.316 50.9646 320.28 42.8135 323.491 35.4034C329.995 20.6656 333.206 18.6896 333.947 18.4426C334.277 18.9366 336.335 22.23 334.277 39.1085ZM48.0008 46.0245C48.9888 46.0245 49.9768 45.9422 51.1295 45.6952C52.6938 45.3659 53.6819 43.8838 53.4349 42.3195C53.1055 40.7551 51.6235 39.7671 50.0592 40.0141C48.3301 40.3435 47.5068 40.2611 47.2598 40.1788C46.7658 36.7208 56.7282 23.465 60.8449 19.2659C61.9976 18.1133 61.9153 16.3019 60.8449 15.2316C59.6922 14.0789 57.8809 14.1612 56.8106 15.2316C56.0695 16.0549 51.7058 20.995 47.9185 26.3467C42.2374 34.4978 40.4261 39.6848 42.2374 43.0605C43.2254 45.0365 45.1191 46.0245 48.0008 46.0245ZM59.1982 48.6592C59.1982 49.8119 59.8569 50.8822 60.9273 51.3763C62.3269 52.0349 63.3973 52.1173 71.96 47.4242C72.8657 46.9302 74.0184 46.2715 75.0887 45.6952C75.4181 47.5889 76.0767 49.2356 77.2294 50.5529C78.5468 52.0349 80.2758 52.7759 82.4165 52.7759C85.0512 52.7759 88.2622 51.6233 91.9672 49.2356C93.2846 48.4122 93.6962 46.6009 92.8729 45.2835C92.0496 43.9662 90.2382 43.5545 88.9209 44.3779C84.7218 47.0125 82.1695 47.4242 81.5108 46.6832C80.9345 46.1069 80.6051 44.6249 80.7698 42.3195C80.7698 42.3195 80.8521 42.3195 80.8521 42.2372C90.9792 33.9214 104.4 21.489 104.4 9.71518C104.4 9.55051 104.4 9.46818 104.4 9.30351C104.482 8.23316 104.647 5.35147 102.012 4.11646C98.8833 2.55211 93.7786 2.63444 87.0272 11.6912C82.9105 17.2076 79.1231 24.947 76.8177 32.2747C76.1591 34.3331 75.5827 36.6384 75.2534 38.9438C71.713 41.0845 64.7146 44.9542 62.4916 45.7775C62.4093 45.7775 62.2446 45.7775 62.1623 45.7775C60.5156 45.7775 59.1982 47.0949 59.1982 48.6592ZM91.5556 15.1492C94.5196 11.1972 96.9896 9.38584 98.554 9.13884C98.554 9.30351 98.554 9.55051 98.554 9.71518C98.554 15.6432 93.2022 23.465 82.5811 33.0157C84.6395 26.676 88.0152 19.9246 91.5556 15.1492Z" fill="#6E0023"/></g><defs><clipPath id="clip0"><rect width="394.628" height="103" fill="#fff"/></clipPath></defs></svg>