<svg width="512" height="123" viewBox="0 0 512 123" fill="none" xmlns="http://www.w3.org/2000/svg"><path fill-rule="evenodd" clip-rule="evenodd" d="M12.2026 70.9501C11.758 71.8475 11.0995 72.6219 10.2851 73.2048C9.47066 73.7878 8.52539 74.1615 7.53252 74.293C2.97217 74.6623 1.35558 72.1176 0.816717 70.9102C0.274573 69.9215 0.0303538 68.797 0.113584 67.6725C0.196814 66.548 0.603931 65.4717 1.28573 64.5736C1.94644 63.7041 2.74539 62.949 3.65072 62.3383C4.82823 61.52 6.78409 60.4623 7.64227 59.7837C9.41715 58.3725 11.0849 56.8315 12.6317 55.1735C16.7829 50.7428 20.3654 45.8931 24.9157 41.7818C27.2508 39.5964 33.298 33.639 40.4429 26.8135C48.426 19.1896 57.8461 10.5479 65.5598 5.38881C68.4849 3.29712 71.7165 1.67122 75.1395 0.568992C77.3662 -0.135868 79.7727 -0.0118459 81.9152 0.918229C82.6142 1.27393 83.2273 1.77799 83.7114 2.39515C84.3331 3.20335 84.8061 4.11559 85.1084 5.0894C85.2824 5.8726 85.3727 6.67208 85.3778 7.47437C85.3967 8.44262 85.3332 9.41075 85.1882 10.3683L84.5695 12.8829C83.1925 17.7227 75.4389 30.4258 68.7131 43.2786C65.284 49.6003 62.361 56.1837 59.9716 62.967C59.7193 63.8859 59.6149 64.8392 59.6622 65.791C60.3308 65.4916 61.0493 65.1524 61.7079 64.7931C63.1635 64.0812 64.8423 63.9767 66.375 64.5025C67.9077 65.0284 69.1687 66.1416 69.8806 67.5972C70.5925 69.0528 70.6971 70.7316 70.1712 72.2643C69.6454 73.797 68.5322 75.058 67.0765 75.7699C62.9153 77.5561 59.792 78.3445 57.5367 78.3545C53.9244 78.3545 51.5494 77.1869 50.0326 75.251C49.1226 73.9954 48.4946 72.5581 48.1915 71.0373C47.8884 69.5165 47.9173 67.9482 48.2763 66.4397C49.3241 60.7816 53.9144 51.7907 59.2531 42.3706C66.5876 29.398 75.2193 15.5972 76.7361 10.6078L77.1652 9.02108V8.39241C76.1528 8.68791 75.1732 9.0858 74.2414 9.5799C70.1102 11.7054 65.0209 15.5673 59.8219 20.1077C53.8346 25.3366 47.6077 31.3838 42.5385 36.6327C37.4692 41.8816 33.278 46.6116 31.4719 48.4876C27.4803 52.7486 24.4068 57.6483 20.8144 62.2086C19.0889 64.431 17.2046 66.5254 15.1764 68.4753C14.6575 69.0242 13.2903 70.1019 12.2026 70.9501ZM7.37286 62.1787C6.89472 62.0889 6.40404 62.0889 5.9259 62.1787C6.40666 62.1238 6.8921 62.1238 7.37286 62.1787V62.1787Z" fill="#6E0023"/><path fill-rule="evenodd" clip-rule="evenodd" d="M71.4181 33.4395C72.4983 32.6783 73.7999 32.2959 75.1202 32.3518C76.188 32.6013 76.8466 32.6013 77.116 32.741C77.9642 33.23 78.6927 33.4096 79.0419 33.8386C80.2294 35.2656 81.2074 36.3334 81.1575 37.6207C81.1076 38.908 81.4169 40.6742 80.1596 41.9416C79.6606 42.4405 79.1617 43.8076 77.3455 44.1469C76.9243 44.3379 76.4704 44.4463 76.0083 44.4662C75.5793 44.4662 74.6512 44.4662 73.2542 44.3165C73.7316 44.4542 74.2244 44.5313 74.7211 44.546C74.217 44.6396 73.6961 44.5586 73.2442 44.3165L71.1786 44.1469C69.1828 43.9573 66.5983 43.6779 63.5048 43.5382C61.3593 43.4384 58.9744 43.4783 56.4298 43.4783H45.7623C43.557 43.4783 41.3017 43.4184 39.0066 43.5581C35.5639 43.7677 32.221 44.2866 28.7184 44.556C27.9203 44.4853 27.144 44.258 26.4338 43.8872C25.7235 43.5164 25.0933 43.0094 24.579 42.395C24.0647 41.7807 23.6765 41.071 23.4365 40.3067C23.1965 39.5423 23.1093 38.7381 23.1801 37.94C23.2509 37.142 23.4781 36.3657 23.8489 35.6554C24.2197 34.9452 24.7267 34.3149 25.3411 33.8006C25.9554 33.2864 26.6651 32.8981 27.4295 32.6581C28.1939 32.4181 28.998 32.3309 29.7961 32.4017C32.5004 33.1301 35.065 33.9783 37.7792 34.3975C40.4821 34.8253 43.2076 35.0953 45.9419 35.2058C49.5842 35.4054 53.0669 35.3954 56.2801 35.3256C58.7648 35.2657 61.0799 35.1859 63.1655 34.9563C65.6132 34.6544 68.0419 34.2146 70.4401 33.6391L71.4181 33.4395Z" fill="#6E0023"/><path fill-rule="evenodd" clip-rule="evenodd" d="M114.477 40.6343C116.224 39.2546 118.107 38.0544 120.095 37.0519C123.089 36.054 125.753 36.0541 128.078 38.6286C129.149 39.715 129.893 41.0809 130.224 42.5702C130.686 45.6971 130.24 48.8911 128.936 51.7708C126.94 56.7602 122.949 62.9971 118.079 68.8846C115.292 72.3221 112.243 75.5383 108.958 78.5042C98.0915 88.074 86.486 90.7583 80.7382 79.3325C79.3811 76.6581 78.962 72.9959 79.5906 68.6451C80.8579 59.8237 86.5758 47.6894 93.6708 36.3235C100.766 24.9575 109.338 14.5196 116.682 9.25075C119.765 6.85879 123.458 5.3822 127.34 4.98975C128.313 4.99167 129.276 5.19174 130.17 5.57774C131.064 5.96373 131.87 6.52759 132.539 7.235C133.481 8.30261 134.282 9.48644 134.924 10.7576C136.116 11.5534 136.991 12.7426 137.396 14.1178C137.801 15.4929 137.71 16.9667 137.139 18.2816C135.293 21.9439 132.728 22.4329 130.972 22.2732C129.435 22.2333 127.969 21.613 126.871 20.5369C126.104 19.778 125.494 18.8761 125.074 17.8825C124.975 17.6529 124.835 17.3037 124.695 16.8846C122.789 17.6885 121.005 18.7568 119.396 20.0578C113.21 24.728 106.374 32.4017 100.676 40.8339C94.9781 49.2661 90.3179 58.6563 88.3222 66.1404C87.2544 70.132 86.7954 73.4449 87.913 75.6503C89.34 78.3945 91.5154 79.0331 93.9702 78.2947C96.9639 77.3866 100.147 75.1114 103.281 72.2375C106.423 69.3083 109.264 66.0724 111.763 62.5779C114.06 59.383 116.039 55.9705 117.67 52.3895C116.884 52.6184 116.073 52.7525 115.255 52.7887C113.714 52.7753 112.235 52.1796 111.115 51.1212C109.994 50.0628 109.315 48.62 109.214 47.082C109.113 45.5441 109.598 44.0248 110.57 42.829C111.542 41.6332 112.931 40.8492 114.457 40.6343H114.477ZM127.11 11.6955C126.573 12.1723 126.171 12.7812 125.943 13.4618C126.219 12.7999 126.615 12.1945 127.11 11.6756V11.6955Z" fill="#6E0023"/><path fill-rule="evenodd" clip-rule="evenodd" d="M137.22 85.5491C138.607 86.6268 134.047 89.9997 132.68 91.0475C131.46 92.0401 129.941 92.5921 128.369 92.6142C127.425 92.6394 126.489 92.4356 125.641 92.0203C124.793 91.6049 124.058 90.9904 123.499 90.2292C122.57 89.0394 122.124 87.5424 122.252 86.0381C122.538 84.7567 122.984 83.5163 123.579 82.3459C126.066 77.2175 128.818 72.2214 131.822 67.3776C134.815 62.3881 138.029 57.6182 141.172 53.2574C144.525 48.4975 151.58 24.4184 161.02 11.1565C167.267 2.36508 174.741 -1.87593 182.604 2.00586C189.819 5.54836 189.869 13.1623 184.6 21.8439C181.082 27.2226 176.968 32.1869 172.336 36.6425C173.93 39.1193 174.634 42.065 174.332 44.9949C174.072 49.216 172.196 54.3252 169.761 59.6439C166.897 65.9107 163.255 72.5367 161.259 78.045C160.561 79.9809 161.399 82.4856 160.641 83.3238C161.091 83.4152 161.549 83.462 162.008 83.4635C164.562 83.6132 167.995 83.0245 172.735 81.827C174.323 81.4829 175.983 81.7838 177.349 82.6634C178.715 83.5429 179.676 84.9291 180.02 86.5171C180.364 88.105 180.063 89.7646 179.183 91.1307C178.304 92.4969 176.918 93.4576 175.33 93.8017C167.107 95.2985 161.579 95.2486 158.056 94.2407C152.947 92.7738 150.492 89.84 149.744 85.9982C149.27 82.561 149.754 79.0598 151.141 75.8796C152.957 71.1695 156.24 65.5714 159.333 59.9133C161.718 55.5725 163.994 51.2417 165.121 47.3798C165.668 45.9079 165.893 44.3358 165.78 42.7696C161.359 46.6414 157.637 49.3956 156.21 49.9943C155.941 50.1041 153.546 51.1918 152.219 51.6209C151.425 54.0603 150.403 56.4192 149.165 58.666C146.401 62.9868 143.587 67.7268 140.992 72.6364C139.934 74.6322 138.917 76.628 137.949 78.6237C138.546 79.7152 138.796 80.9629 138.666 82.2002C138.536 83.4376 138.032 84.6058 137.22 85.5491V85.5491ZM165.67 31.9325C168.961 28.7311 172.032 25.3105 174.861 21.6942C177.495 18.2415 179.581 14.8786 180.149 12.0346C180.379 10.8571 180.209 9.82928 179.052 9.27046C176.936 8.27257 174.97 8.75159 173.124 10.0588C169.961 12.2841 167.137 16.4054 164.582 21.1952C162.623 24.9166 160.858 28.737 159.294 32.6411C161.311 31.8125 163.52 31.567 165.67 31.9325Z" fill="#6E0023"/><path fill-rule="evenodd" clip-rule="evenodd" d="M198.998 47.2002C198.998 46.5216 198.998 45.8231 198.998 45.0946C199.358 39.7559 201.673 32.9404 202.471 30.1263C202.965 28.2625 203.606 26.4407 204.387 24.6778C205.579 22.1682 206.96 19.753 208.518 17.4531C209.795 15.3875 214.096 12.2441 219.006 9.88909C223.347 7.81348 228.147 6.5761 231.49 6.70582C233.516 6.78833 235.464 7.50771 237.058 8.76153C238.894 10.1785 239.962 12.3339 240.131 15.3875C240.131 16.2057 240.74 18.4709 240.391 19.379C240.569 20.9326 240.132 22.4942 239.173 23.7299C236.659 26.6437 234.184 26.514 232.996 26.2246C231.2 25.8055 229.005 24.9572 228.177 22.0135C227.93 21.2265 227.822 20.4026 227.857 19.5786V19.409C225.383 19.7782 221.7 19.4589 219.515 20.5366C217.938 21.315 216.521 21.9237 216.032 22.5923C214.829 24.1584 213.71 25.7873 212.679 27.472C211.785 29.0508 211.069 30.7243 210.544 32.4614C210.115 33.8884 209.227 36.3831 208.448 39.1772C212.44 37.4508 215.044 38.3789 216.571 39.6761C217.886 40.8249 218.696 42.4452 218.826 44.1866C218.969 46.6195 218.415 49.0426 217.23 51.1718C215.394 54.5746 212.121 57.1591 208.568 57.2689C206.595 57.3149 204.663 56.7003 203.08 55.5226C200.013 60.7474 198.075 66.5569 197.392 72.5765C196.923 77.2366 197.262 81.5575 200.325 82.9646C201.502 83.3294 202.761 83.3294 203.938 82.9646C206.676 82.3111 209.291 81.2193 211.681 79.7314C213.137 79.0195 214.816 78.915 216.349 79.4408C217.881 79.9667 219.142 81.0799 219.854 82.5355C220.566 83.9911 220.671 85.6699 220.145 87.2025C219.619 88.7352 218.506 89.9963 217.05 90.7082C207.45 94.6997 200.804 94.6997 196.464 92.5144C191.714 90.1593 188.91 85.6089 188.331 79.452C187.463 69.8523 192.103 56.1213 198.998 47.2002ZM209.805 47.7391C209.22 48.1501 208.664 48.6002 208.139 49.0862C208.214 49.1061 208.293 49.1061 208.368 49.0862C208.867 49.0862 209.217 48.5873 209.556 48.1582C209.66 48.0318 209.744 47.8905 209.805 47.7391V47.7391ZM231.27 14.6989C230.549 15.0452 229.938 15.5839 229.504 16.2556C229.984 15.6249 230.584 15.0958 231.27 14.6989V14.6989Z" fill="#6E0023"/><path fill-rule="evenodd" clip-rule="evenodd" d="M242.078 52.7086C241.957 52.5191 241.847 52.3225 241.749 52.1198C238.945 46.7013 239.624 39.1472 242.428 32.162C245.182 25.3963 249.972 19.4489 254.891 16.8943C256.887 15.7867 259.092 14.0603 261.348 12.7132C263.407 11.4404 265.695 10.5828 268.083 10.1885C272.424 9.52992 276.665 11.0367 280.407 17.3134C281.126 18.5009 281.335 21.3748 281.335 23.3906C281.401 23.7837 281.401 24.185 281.335 24.5781C281.365 24.2461 281.365 23.9121 281.335 23.5802V23.3906V23.191V23.3507V23.5802C281.34 24.1199 281.317 24.6595 281.265 25.1968C281.197 25.7131 281.056 26.2171 280.846 26.6936C280.407 27.873 279.562 28.8569 278.461 29.4678C277.812 29.8908 277.085 30.1794 276.322 30.3165C275.559 30.4537 274.777 30.4365 274.021 30.2661C272.963 30.1264 270.029 29.2681 269.191 24.9972C269.158 24.4954 269.158 23.9921 269.191 23.4904C269.209 23.2208 269.252 22.9535 269.321 22.6921C269.397 22.279 269.504 21.8722 269.64 21.4747C269.557 21.3004 269.45 21.139 269.321 20.9956C269.231 20.8958 269.321 20.6763 269.241 20.6664C268.853 20.5818 268.451 20.5818 268.063 20.6664C264.95 21.5146 261.697 23.8397 258.913 25.0371C255.43 26.6337 252.117 30.775 250.081 35.3752C248.515 38.9377 247.597 42.8195 248.205 46.0527C249.199 45.236 250.288 44.5424 251.448 43.987C256.159 41.7218 258.514 44.1467 259.072 45.1147C259.378 45.6314 259.574 46.2051 259.65 46.8006C259.725 47.3961 259.678 48.0007 259.511 48.5773C258.79 50.4452 257.563 52.0759 255.969 53.2874C254.178 54.745 252.045 55.7236 249.772 56.1313C246.377 60.6482 243.852 65.7581 242.328 71.1994C241.69 73.4516 241.381 75.7842 241.41 78.1248C241.291 79.5269 241.732 80.9192 242.637 81.9966C242.867 82.2161 243.246 82.0664 243.635 82.1163C245.006 82.118 246.364 81.8431 247.627 81.3081C249.19 80.9521 250.831 81.2254 252.194 82.0687C253.558 82.9121 254.535 84.2579 254.915 85.8157C255.295 87.3734 255.047 89.0181 254.225 90.3947C253.403 91.7712 252.072 92.7691 250.52 93.173C243.705 94.3505 239.164 93.173 236.301 90.7082C234.936 89.5305 233.824 88.0887 233.032 86.4697C232.239 84.8508 231.783 83.0882 231.69 81.2881C231.022 73.2252 235.901 61.1008 242.078 52.7086Z" fill="#6E0023"/><path fill-rule="evenodd" clip-rule="evenodd" d="M274.504 71.3195C274.504 71.1498 274.504 70.9802 274.504 70.8106C274.405 65.7014 276.071 59.3748 278.646 52.6889C283.565 39.9359 291.937 25.7459 296.039 17.2239C296.746 16.2837 297.505 15.3841 298.314 14.5296C299.172 13.6707 300.285 13.1138 301.487 12.943C302.799 12.7242 304.146 12.9402 305.324 13.5582C306.501 14.1761 307.444 15.1621 308.01 16.3658C308.575 17.5696 308.731 18.9251 308.454 20.2258C308.177 21.5265 307.483 22.7011 306.477 23.5705C306.557 23.6803 306.287 23.9896 306.068 24.1193C305.16 25.7459 304.072 27.5421 302.974 29.478C306.457 25.686 309.73 22.9219 312.474 21.6246C315.777 20.0479 318.651 20.2276 320.936 21.7244C323.401 23.331 324.569 26.155 324.159 29.8472C323.71 33.8388 321.006 39.3372 318.811 43.4085C320.647 41.0436 322.573 38.7384 324.598 36.5431C329.09 31.5158 334.327 27.208 340.126 23.7701C341.044 23.2312 344.117 21.4051 346.253 21.2554C347.076 21.1878 347.905 21.2971 348.683 21.5759C349.461 21.8548 350.17 22.2966 350.763 22.872C351.632 23.7464 352.169 24.8971 352.28 26.1251C352.244 28.1128 351.99 30.0906 351.521 32.0227C347.869 46.2326 335.715 60.652 328.68 75.5605C325.985 81.2485 324.159 87.0163 324.299 92.8939C324.299 94.5136 323.656 96.0669 322.51 97.2122C321.365 98.3575 319.812 99.001 318.192 99.001C316.572 99.001 315.019 98.3575 313.874 97.2122C312.728 96.0669 312.085 94.5136 312.085 92.8939C312.264 85.2301 314.789 77.7858 318.601 70.5312C325.257 57.8879 335.964 45.8534 341.044 33.7091C337.342 36.2271 333.931 39.1489 330.875 42.4206C324.519 49.1265 319.2 57.0497 314.34 64.3742C313.592 65.5018 308.612 71.1698 304.102 76.9576C302.764 79.7209 301.237 82.3884 299.531 84.9407C299.172 85.4696 297.685 88.8025 296.997 90.1197C295.001 94.0414 290.441 91.9957 290.161 91.7263C288.884 90.4889 287.986 87.7348 289.642 84.0326C290.94 81.1388 293.993 76.8079 297.216 72.5968C297.546 71.9382 297.865 71.2596 298.214 70.601C302.046 62.2287 304.98 53.0282 308.812 44.9852C309.54 43.4585 312.664 38.5588 314.679 33.769C315.263 32.2234 315.701 30.6264 315.987 28.999C314.907 29.561 313.902 30.2548 312.993 31.0647C309.001 34.5074 304.271 40.4348 299.581 47.1406C294.063 55.0439 288.605 64.0349 284.304 71.5689C284.185 73.3457 283.802 75.0947 283.166 76.758C281.918 79.734 280.394 82.587 278.616 85.28C277.228 87.2695 276.17 89.4698 275.482 91.7962C275.482 91.7463 275.482 91.4968 275.482 91.4968C275.273 92.5711 274.91 93.6097 274.405 94.5803C273.735 95.5733 272.722 96.284 271.561 96.5761C270.708 96.816 269.806 96.8102 268.956 96.5595C268.107 96.3088 267.346 95.8234 266.761 95.1591C266.079 94.4409 265.591 93.5618 265.341 92.6037C265.092 91.6457 265.089 90.64 265.334 89.6807C265.773 87.5651 267.609 84.2721 267.968 83.4738C268.936 81.4481 271.261 76.9875 274.504 71.3195Z" fill="#6E0023"/><path fill-rule="evenodd" clip-rule="evenodd" d="M360.794 56.2012C361.756 52.7602 362.909 49.3754 364.247 46.0627C369.027 34.088 376.76 21.9537 383.586 18.3114C387.388 16.2058 390.152 16.0362 391.948 16.2458C395.142 16.615 396.938 18.5708 398.006 20.9957C399.323 23.8496 398.385 28.909 397.686 31.3937C397.593 31.8833 397.439 32.3593 397.227 32.8107C396.678 34.7136 395.569 36.407 394.044 37.6704C387.488 45.4639 383.167 36.8222 385.382 29.6274C380.393 33.619 375.294 41.8715 371.771 49.8846C370.836 51.9916 370.013 54.1468 369.306 56.341C371.305 56.7416 373.221 57.4771 374.974 58.5164C378.337 60.6119 379.904 63.6255 379.535 66.4995C379.265 68.605 377.948 71.1097 374.326 73.2452C368.927 76.4185 365.135 75.8996 362.88 74.3329C361.119 73.0139 359.944 71.0584 359.607 68.8844C359.422 67.8604 359.332 66.8215 359.337 65.781C354.218 70.1018 350.865 79.5518 350.286 87.5349C349.997 91.7061 350.346 95.5181 352.282 97.2943C352.681 97.6735 353.28 97.2943 353.949 97.0348C355.592 96.4246 357.121 95.5407 358.469 94.4204C359.825 93.5932 361.45 93.3268 362.999 93.6776C364.548 94.0284 365.899 94.9688 366.766 96.2994C367.633 97.63 367.948 99.2461 367.644 100.805C367.339 102.364 366.439 103.742 365.135 104.649C357.441 109.079 351.863 109.159 348.171 107.253C345.427 105.867 343.294 103.514 342.184 100.647C337.793 89.7702 344.519 65.1024 355.875 58.0972C357.383 57.1655 359.051 56.5226 360.794 56.2012V56.2012ZM367.54 64.1844C367.457 65.0238 367.457 65.8695 367.54 66.709C367.566 66.9316 367.609 67.1518 367.67 67.3676C368.579 67.0906 369.456 66.7159 370.284 66.25C370.446 66.1389 370.594 66.0082 370.723 65.8608C370.364 65.4549 369.935 65.1169 369.456 64.8629C368.836 64.5988 368.195 64.3884 367.54 64.2342V64.1844Z" fill="#6E0023"/><path fill-rule="evenodd" clip-rule="evenodd" d="M421.009 25.4963C421.268 26.0152 419.652 26.8834 418.794 28.2305C417.027 30.9847 414.712 34.8466 412.317 39.5566C411.06 42.0214 409.803 44.7157 408.535 47.5397C406.16 52.8784 403.795 58.746 401.55 64.6436C398.676 72.1078 395.912 79.6119 393.777 86.3876C393.058 88.7027 392.429 90.9279 391.891 93.0235C390.114 100.009 389.266 105.278 389.436 107.253C389.469 108.075 389.336 108.896 389.044 109.665C388.752 110.434 388.308 111.137 387.738 111.73C387.168 112.324 386.485 112.796 385.728 113.119C384.971 113.441 384.156 113.607 383.334 113.607C382.511 113.607 381.697 113.441 380.94 113.119C380.183 112.796 379.499 112.324 378.929 111.73C378.359 111.137 377.915 110.434 377.623 109.665C377.332 108.896 377.198 108.075 377.232 107.253C377.461 104.379 380.604 96.2766 384.815 85.7389C387.18 79.8114 389.665 72.9859 392.33 66.0805C395.433 58.0974 398.756 49.9047 401.54 42.5902C403.885 36.4432 405.831 30.9149 407.527 26.624C408.628 23.5977 409.984 20.67 411.579 17.8724C412.147 17.0567 412.861 16.3531 413.684 15.7969C414.973 14.9593 416.53 14.6391 418.044 14.9003C419.559 15.1615 420.918 15.9849 421.852 17.2057C422.785 18.4265 423.223 19.9547 423.078 21.4845C422.932 23.0143 422.215 24.4329 421.069 25.4564L421.009 25.4963Z" fill="#6E0023"/><path fill-rule="evenodd" clip-rule="evenodd" d="M448.023 18.4113C448.16 16.8919 448.861 15.4789 449.988 14.4503C451.114 13.4216 452.585 12.8518 454.11 12.853C455.093 12.8217 456.068 13.0429 456.942 13.4953C457.815 13.9478 458.558 14.6164 459.1 15.4375C459.567 16.0427 459.904 16.7382 460.09 17.4801C460.275 18.2221 460.305 18.9944 460.178 19.7484C460.089 20.3145 459.952 20.872 459.768 21.4149C458.849 24.0877 457.78 26.7063 456.565 29.2583C454.649 32.6212 452.574 36.2435 450.827 39.7262C449.61 42.141 448.502 44.4961 447.654 46.7114C446.107 50.8327 444.491 55.6924 442.894 60.8814C439.561 71.7883 436.039 84.232 431.209 94.9094C427.736 102.583 423.635 109.399 418.645 114.268C418.229 114.703 417.718 115.034 417.151 115.237C416.585 115.439 415.979 115.507 415.382 115.436C414.69 115.378 414.025 115.14 413.453 114.747C412.88 114.353 412.421 113.817 412.119 113.191C411.761 112.367 411.539 111.491 411.461 110.596C411.031 107.293 410.712 98.9409 410.702 97.5239C410.636 93.4306 410.789 89.3367 411.161 85.2598C411.428 82.3392 412.007 79.4556 412.888 76.658C416.22 65.6813 410.044 40.265 410.562 28.7594C410.752 24.5982 412.029 21.6644 413.436 19.978C414.492 18.8375 415.944 18.1426 417.494 18.0349C419.045 17.9271 420.578 18.4147 421.782 19.3982C422.985 20.3817 423.769 21.7871 423.972 23.328C424.175 24.869 423.784 26.4295 422.876 27.6916C424.393 28.6895 421.879 32.6811 421.879 36.6028C421.948 45.7235 423.006 57.768 422.637 67.3377C422.447 72.0877 421.968 76.3188 420.841 79.4022C420.123 81.617 419.641 83.9016 419.404 86.2178C419.003 89.983 418.81 93.7674 418.825 97.5538C418.825 98.0228 418.825 99.3201 418.935 100.937C421.931 95.9268 424.431 90.6362 426.399 85.1401C429.393 77.157 431.867 68.5652 433.963 60.622C435.619 54.3851 437.016 48.5275 438.523 43.6578C439.282 41.1132 440.31 38.379 441.437 35.565C442.964 31.7431 444.73 27.8114 446.427 24.1391C447.062 22.2602 447.595 20.3481 448.023 18.4113V18.4113Z" fill="#6E0023"/><path fill-rule="evenodd" clip-rule="evenodd" d="M502.445 24.7079C502.395 24.7079 502.565 24.9075 502.445 24.9674C502.198 25.1841 501.934 25.381 501.656 25.5561C500.208 26.362 498.671 26.9982 497.076 27.4521C494.677 27.9909 492.237 28.3247 489.782 28.45C486.821 28.7591 483.84 28.8125 480.87 28.6096C478.897 28.3212 476.956 27.8468 475.073 27.1927C474.251 27.1594 473.43 27.2926 472.661 27.5843C471.892 27.876 471.189 28.3201 470.596 28.89C470.002 29.4599 469.53 30.1438 469.208 30.9008C468.885 31.6577 468.719 32.472 468.719 33.2947C468.719 34.1175 468.885 34.9318 469.208 35.6887C469.53 36.4456 470.002 37.1296 470.596 37.6995C471.189 38.2694 471.892 38.7135 472.661 39.0052C473.43 39.2969 474.251 39.4301 475.073 39.3968C476.48 39.0176 478.276 38.3291 480.721 37.7404C481.926 37.4686 483.145 37.262 484.373 37.1217C486.429 36.8522 488.604 36.6626 490.769 36.473C492.935 36.2834 495.2 36.0639 497.226 35.994C498.11 35.9489 498.996 35.9489 499.88 35.994C502.443 36.1814 505.019 36.0945 507.564 35.7346C509.033 35.0518 510.17 33.8134 510.726 32.292C511.282 30.7705 511.21 29.0906 510.528 27.6217C509.845 26.1529 508.606 25.0155 507.085 24.4597C505.564 23.9039 503.884 23.9752 502.415 24.658L502.445 24.7079Z" fill="#6E0023"/><path fill-rule="evenodd" clip-rule="evenodd" d="M457.542 110.896C458.832 111.452 459.89 112.435 460.54 113.68C461.189 114.925 461.389 116.356 461.107 117.732C460.825 119.107 460.077 120.344 458.989 121.232C457.902 122.121 456.542 122.608 455.137 122.611C450.926 122.212 448.152 120.615 446.845 117.422C445.745 114.496 445.588 111.3 446.396 108.281C447.394 104.14 449.569 98.7513 452.453 92.5644C457.073 82.6453 463.43 70.6108 469.517 59.7837C471.922 55.4728 474.257 51.3416 476.303 47.5296C482.14 36.6327 486.431 28.6795 487.01 27.9909C487.566 27.3894 488.238 26.9059 488.984 26.5692C489.731 26.2325 490.538 26.0495 491.357 26.0311C492.176 26.0127 492.99 26.1591 493.751 26.4619C494.513 26.7646 495.205 27.2175 495.788 27.7934C496.37 28.3692 496.831 29.0565 497.143 29.8141C497.454 30.5717 497.61 31.3843 497.601 32.2035C497.592 33.0226 497.418 33.8316 497.09 34.5822C496.762 35.3329 496.287 36.0098 495.692 36.5728C490.775 42.3654 486.254 48.483 482.16 54.8841C478.169 61.0311 473.978 68.2957 470.076 75.5504C466.332 82.3292 463 89.3271 460.097 96.506C458.933 99.5025 457.992 102.581 457.283 105.717C456.864 107.662 457.472 109.608 457.542 110.896Z" fill="#6E0023"/></svg>