<svg width="510" height="188" viewBox="0 0 510 188" fill="none" xmlns="http://www.w3.org/2000/svg"><path fill-rule="evenodd" clip-rule="evenodd" d="M78.0674 55.43C78.3003 54.0839 79.0319 52.875 80.1166 52.0445C81.2012 51.214 82.5592 50.8227 83.9194 50.9489C85.2797 51.0751 86.5424 51.7094 87.4558 52.7253C88.3692 53.7412 88.866 55.064 88.8473 56.43C88.1773 61 85.6474 63.97 81.5374 64.25C77.4274 64.53 72.2373 62.64 70.9973 58.86C70.6874 58.0386 70.5282 57.1679 70.5273 56.29C70.8395 52.3819 71.4175 48.4995 72.2573 44.67C72.7573 42.06 73.2573 39.28 73.7173 36.58C74.0373 34.69 74.3274 32.86 74.5674 31.14C74.9306 28.118 75.529 25.1289 76.3573 22.2C77.4973 18.9 80.3573 18.72 81.4473 18.56C82.9773 18.34 84.3273 19.26 85.8473 20.96C86.3773 21.54 86.8473 23.09 87.3673 25.96C87.391 27.299 86.9209 28.5998 86.0466 29.6143C85.1724 30.6287 83.9551 31.2858 82.6273 31.46C82.3198 31.9584 82.0587 32.4839 81.8473 33.03C81.2573 34.59 80.6873 36.27 80.1973 38.03C79.4963 40.576 78.9256 43.156 78.4873 45.76C78.0677 48.1734 77.8104 50.6122 77.7173 53.06C77.6972 53.9643 77.7642 54.8685 77.9174 55.76C77.9357 55.8203 77.9626 55.8775 77.9973 55.93V55.84C77.9808 55.7365 77.9505 55.6355 77.9073 55.54C77.9073 55.54 77.9674 55.45 78.0674 55.43ZM77.9773 56.1C77.9618 56.2061 77.9618 56.3139 77.9773 56.42C77.9673 56.31 77.9773 56.2 77.9773 56.1V56.1Z" fill="#6E0023"/><path fill-rule="evenodd" clip-rule="evenodd" d="M92.9792 34.6101C89.9792 35.2101 85.9793 36.4301 81.4193 37.2301C79.9198 37.4829 78.4074 37.6531 76.8893 37.7401C74.6462 37.9049 72.3949 37.9249 70.1493 37.8001C68.1953 37.6646 66.2555 37.3703 64.3492 36.9201C61.8933 36.3323 59.5895 35.2316 57.5892 33.6901C56.3229 33.129 54.8903 33.0719 53.5835 33.5307C52.2766 33.9894 51.194 34.9294 50.5562 36.1589C49.9185 37.3884 49.7738 38.8149 50.1516 40.1474C50.5294 41.48 51.4011 42.6182 52.5892 43.3301C54.1913 43.87 55.848 44.2322 57.5293 44.4101C60.713 44.6046 63.9055 44.6046 67.0892 44.4101C69.9692 44.2901 72.9892 44.2301 75.9992 44.1801C78.3892 44.1801 80.7592 44.1801 82.9992 44.2701C86.4383 44.5115 89.8628 44.9287 93.2593 45.5201C94.702 45.4843 96.0715 44.8768 97.0664 43.8313C98.0613 42.7858 98.6001 41.3879 98.5643 39.9451C98.5285 38.5023 97.921 37.1329 96.8755 36.138C95.8299 35.1431 94.432 34.6043 92.9892 34.6401L92.9792 34.6101Z" fill="#6E0023"/><path fill-rule="evenodd" clip-rule="evenodd" d="M112.808 30.4001C111.796 31.9566 110.989 33.6371 110.408 35.4001C109.722 37.6858 109.244 40.0286 108.978 42.4001C108.739 44.3037 108.635 46.2218 108.668 48.1401C108.755 50.931 109.11 53.707 109.728 56.43C109.728 57.8728 109.155 59.2565 108.134 60.2767C107.114 61.2969 105.73 61.87 104.288 61.87C102.845 61.87 101.461 61.2969 100.441 60.2767C99.4208 59.2565 98.8477 57.8728 98.8477 56.43C99.1777 54.79 100.258 51.4801 101.388 47.2601C101.878 45.4301 102.298 43.45 102.668 41.43C103.118 38.93 103.548 36.4301 103.808 34.0301C104.148 30.7701 104.338 28.03 104.728 25.93C104.95 24.7952 105.406 23.7191 106.067 22.7704C106.728 21.8217 107.58 21.0212 108.568 20.42C109.278 19.9 110.148 20.0401 110.948 19.8401C112.236 19.8281 113.486 20.2735 114.476 21.097C115.467 21.9204 116.133 23.0686 116.356 24.337C116.579 25.6055 116.345 26.912 115.695 28.0241C115.046 29.1362 114.022 29.9816 112.808 30.41V30.4001ZM111.898 30.6301C111.623 30.677 111.346 30.7037 111.068 30.7101C111.346 30.7641 111.635 30.7363 111.898 30.6301V30.6301ZM113.058 30.0001C113.261 29.8749 113.471 29.7613 113.688 29.66C113.898 29.56 114.068 28.9601 114.068 28.9601C113.816 29.084 113.591 29.2574 113.408 29.47L113.058 30.0001Z" fill="#6E0023"/><path fill-rule="evenodd" clip-rule="evenodd" d="M123.679 25.72C123.679 24.85 123.679 24.08 123.759 23.62C123.928 22.7267 124.372 21.9086 125.029 21.2801C125.729 20.1301 127.029 20.15 127.789 19.79C129.349 19.11 130.729 20.12 132.549 21.34C132.989 21.64 133.149 22.34 133.649 23.08C133.949 24.0416 134.176 25.0244 134.329 26.02C134.334 26.8491 134.148 27.6682 133.786 28.4139C133.423 29.1596 132.894 29.8118 132.239 30.32C131.649 31.27 131.079 32.03 131.079 32.04C130.679 33.6 130.229 35.09 129.989 36.65C129.632 38.9893 129.468 41.3539 129.499 43.72C129.534 45.3175 129.674 46.9109 129.919 48.49C130.249 50.93 130.829 53.18 131.349 55.64C131.349 57.0828 130.776 58.4665 129.755 59.4867C128.735 60.5069 127.352 61.08 125.909 61.08C124.466 61.08 123.082 60.5069 122.062 59.4867C121.042 58.4665 120.469 57.0828 120.469 55.64C121.009 53.09 121.599 50.77 122.099 48.26C122.419 46.62 122.709 45.02 122.909 43.36C123.219 40.91 123.439 38.45 123.589 35.96C123.689 34.3 123.649 32.65 123.729 30.96C123.729 30.96 123.729 29.33 123.729 27.58C123.585 27.0861 123.511 26.5745 123.509 26.06C123.509 25.89 123.589 25.69 123.679 25.71V25.72Z" fill="#6E0023"/><path fill-rule="evenodd" clip-rule="evenodd" d="M131.008 34.6101C128.687 35.4336 126.302 36.0658 123.878 36.5001C122.258 36.6833 120.624 36.7168 118.998 36.6001C117.345 36.5156 115.701 36.3083 114.078 35.9801C111.398 35.4001 109.078 34.5101 106.518 33.8501C105.075 33.8501 103.692 34.4233 102.672 35.4435C101.651 36.4637 101.078 37.8473 101.078 39.2901C101.078 40.7329 101.651 42.1166 102.672 43.1368C103.692 44.157 105.075 44.7301 106.518 44.7301C108.884 43.9889 111.301 43.4175 113.748 43.0201C115.382 42.8449 117.028 42.8048 118.668 42.9001C120.347 42.951 122.019 43.1349 123.668 43.4501C126.348 43.9901 128.668 44.8501 131.328 45.4501C132.043 45.4317 132.746 45.2728 133.399 44.9824C134.052 44.6921 134.642 44.276 135.134 43.7578C135.626 43.2397 136.011 42.6296 136.268 41.9626C136.524 41.2955 136.647 40.5845 136.628 39.8701C136.61 39.1557 136.451 38.452 136.161 37.799C135.87 37.146 135.454 36.5566 134.936 36.0645C134.418 35.5723 133.808 35.1871 133.141 34.9307C132.474 34.6743 131.763 34.5517 131.048 34.5701L131.008 34.6101Z" fill="#6E0023"/><path fill-rule="evenodd" clip-rule="evenodd" d="M155.906 55.4201C156.601 54.5235 157.559 53.8666 158.645 53.5411C159.732 53.2156 160.893 53.2379 161.966 53.6048C163.039 53.9717 163.971 54.665 164.631 55.5875C165.291 56.5101 165.646 57.6158 165.646 58.7501C165.366 61.1501 164.646 63.0201 162.796 64.0601C161.692 64.7764 160.428 65.2092 159.116 65.3201C157.735 65.3355 156.354 65.2452 154.986 65.0501C148.636 64.4301 144.606 61.0501 142.516 55.8101C141.784 53.9739 141.257 52.0622 140.946 50.1101C140.539 47.3667 140.406 44.5898 140.546 41.8201C140.886 33.0901 144.156 24.8201 148.006 22.6701C149.344 21.9144 150.826 21.4509 152.356 21.3101C156.066 20.7301 161.106 21.7201 163.926 21.3901C165.369 21.3901 166.753 21.9632 167.773 22.9834C168.793 24.0036 169.366 25.3873 169.366 26.8301C169.366 28.2729 168.793 29.6565 167.773 30.6767C166.753 31.6969 165.369 32.2701 163.926 32.2701C161.626 32.0001 158.186 30.7001 154.926 29.9201C154.108 29.6847 153.266 29.5372 152.416 29.4801C152.116 29.4801 151.816 29.3401 151.576 29.4801C148.486 30.9801 146.576 38.4801 146.946 45.2001C147.051 47.7188 147.7 50.1851 148.846 52.4301C149.488 53.5926 150.436 54.5573 151.586 55.22C152.661 55.7171 153.869 55.8505 155.026 55.6001L155.906 55.4201ZM154.786 58.3001C154.761 58.449 154.761 58.6011 154.786 58.7501C154.766 58.6001 154.776 58.4501 154.786 58.3001V58.3001Z" fill="#6E0023"/><path fill-rule="evenodd" clip-rule="evenodd" d="M169.787 37.0001C167.558 37.8086 165.28 38.4765 162.967 39.0001C161.443 39.2482 159.9 39.352 158.357 39.3101C156.808 39.3118 155.262 39.178 153.737 38.91C151.287 38.46 149.187 37.64 146.737 36.97C145.294 36.97 143.91 37.5432 142.89 38.5634C141.87 39.5836 141.297 40.9673 141.297 42.41C141.297 43.8528 141.87 45.2365 142.89 46.2567C143.91 47.2769 145.294 47.8501 146.737 47.8501C149.005 47.1011 151.312 46.4735 153.647 45.97C155.181 45.7232 156.733 45.6062 158.287 45.6201C159.84 45.5948 161.393 45.7053 162.927 45.9501C165.417 46.3701 167.527 47.2001 169.927 47.8301C170.658 47.8408 171.384 47.704 172.061 47.4279C172.738 47.1518 173.352 46.7421 173.868 46.2231C174.383 45.7041 174.788 45.0867 175.059 44.4075C175.33 43.7284 175.462 43.0016 175.445 42.2706C175.429 41.5395 175.266 40.8193 174.965 40.1528C174.664 39.4863 174.232 38.8873 173.695 38.3916C173.157 37.8958 172.525 37.5136 171.837 37.2677C171.148 37.0217 170.417 36.9171 169.687 36.9601L169.787 37.0001Z" fill="#6E0023"/><path fill-rule="evenodd" clip-rule="evenodd" d="M226.748 39C226.888 39.23 227.018 39.47 227.138 39.7C229.578 44.42 230.298 50.84 229.218 54.94C228.074 59.5735 225.159 63.5734 221.098 66.08C219.079 67.3258 216.826 68.1458 214.479 68.4898C212.132 68.8337 209.739 68.6942 207.448 68.08C191.378 64.01 187.018 45.79 192.128 29.08C196.608 14.35 208.318 1.28999 225.228 0.359991C225.958 0.317546 226.69 0.422899 227.378 0.669744C228.067 0.916589 228.699 1.29989 229.236 1.79664C229.774 2.29338 230.205 2.8934 230.505 3.5608C230.805 4.22819 230.967 4.94924 230.982 5.68079C230.997 6.41234 230.864 7.13932 230.591 7.8183C230.318 8.49729 229.912 9.11431 229.395 9.63239C228.878 10.1505 228.262 10.559 227.584 10.8335C226.906 11.108 226.179 11.2428 225.448 11.23C212.808 11.07 203.628 20.74 199.838 31.6C195.598 43.71 197.618 57.67 209.348 60.82C210.643 61.1431 211.992 61.1971 213.309 60.9786C214.627 60.7602 215.885 60.274 217.008 59.55C219.271 58.0591 220.858 55.7394 221.428 53.09C221.8 50.4243 221.416 47.7075 220.318 45.25C219.558 43.44 218.618 41.63 216.858 41.68L213.788 41.77C212.704 41.7343 211.668 41.3189 210.86 40.5964C210.052 39.874 209.524 38.8905 209.368 37.8179C209.212 36.7454 209.438 35.6522 210.006 34.7294C210.575 33.8066 211.449 33.113 212.478 32.77C212.478 32.77 219.938 30.32 227.478 28.6C231.067 27.7178 234.728 27.1622 238.418 26.94C239.151 26.9085 239.883 27.0258 240.57 27.2847C241.257 27.5437 241.884 27.939 242.414 28.4468C242.944 28.9546 243.366 29.5643 243.654 30.2394C243.942 30.9145 244.091 31.641 244.091 32.375C244.091 33.109 243.942 33.8355 243.654 34.5106C243.366 35.1857 242.944 35.7954 242.414 36.3032C241.884 36.811 241.257 37.2063 240.57 37.4653C239.883 37.7242 239.151 37.8415 238.418 37.81C235.4 37.8115 232.388 38.0792 229.418 38.61L226.748 39Z" fill="#6E0023"/><path fill-rule="evenodd" clip-rule="evenodd" d="M273.767 54.4001C274.38 53.3814 275.311 52.5919 276.416 52.1522C277.521 51.7126 278.739 51.6472 279.885 51.9659C281.031 52.2846 282.04 52.97 282.759 53.9171C283.478 54.8642 283.867 56.0209 283.867 57.2101C283.789 58.4435 283.392 59.6354 282.713 60.6683C282.034 61.7012 281.098 62.5393 279.997 63.1001C275.997 65.3101 265.997 67.6401 258.707 64.1001C252.987 61.3701 248.047 55.5501 249.957 43.0401C250.957 35.2201 252.237 24.6401 255.227 16.9001C257.137 11.9001 259.847 8.08009 263.427 6.07009C267.847 3.46009 275.427 4.73009 281.577 4.01009C282.678 3.9821 283.728 3.53923 284.517 2.7701C285.002 2.22019 285.594 1.77414 286.256 1.45882C286.919 1.14351 287.638 0.965425 288.371 0.935264C289.104 0.905102 289.835 1.02352 290.522 1.28335C291.208 1.54318 291.834 1.93907 292.363 2.44723C292.892 2.95538 293.313 3.56526 293.6 4.24026C293.887 4.91525 294.035 5.64138 294.035 6.37496C294.034 7.10854 293.885 7.83446 293.597 8.50899C293.308 9.18353 292.887 9.79275 292.357 10.3001C290.43 12.1366 287.987 13.3404 285.357 13.7501C282.067 14.2701 278.207 13.8501 274.437 13.4001C271.767 13.0901 269.167 12.5501 267.257 13.4001C264.317 14.8501 262.517 18.5401 261.157 22.8501C259.067 29.5401 258.357 37.7101 257.637 43.9301C257.137 49.4201 258.117 52.8501 260.257 54.7401C261.684 55.8447 263.453 56.4143 265.257 56.3501C268.215 56.452 271.148 55.7798 273.767 54.4001V54.4001Z" fill="#6E0023"/><path fill-rule="evenodd" clip-rule="evenodd" d="M286.998 38.3301C285.058 38.2101 282.538 38.0401 281.248 38.0101C279.068 38.1401 276.748 38.0101 274.348 38.0101C271.119 38.0148 267.894 38.2085 264.688 38.5901C261.521 39.0206 258.446 39.97 255.588 41.4001C254.906 41.6651 254.179 41.79 253.448 41.7674C252.717 41.7449 251.998 41.5752 251.335 41.2687C250.671 40.9622 250.076 40.5251 249.585 39.9834C249.094 39.4418 248.717 38.8067 248.477 38.1162C248.237 37.4257 248.139 36.6939 248.188 35.9645C248.237 35.2351 248.433 34.5231 248.763 33.871C249.094 33.2189 249.552 32.64 250.111 32.1691C250.671 31.6982 251.319 31.3448 252.018 31.1301C256.062 30.4372 260.172 30.2124 264.268 30.4601C267.908 30.5501 271.658 30.6801 275.198 30.4601C276.878 30.3246 278.548 30.0807 280.198 29.73C281.898 29.26 286.608 27.0301 287.708 27.6301C287.969 27.5929 288.233 27.5762 288.498 27.5801C294.688 28.6901 294.258 34.0401 294.108 34.3901C293.958 34.7401 293.188 38.4901 289.238 38.3901C288.878 38.3901 288.238 38.39 287.528 38.3C287.684 38.3103 287.841 38.3103 287.998 38.3C287.998 38.3 288.098 38.4 288.218 38.42C287.809 38.4337 287.4 38.4036 286.998 38.3301V38.3301Z" fill="#6E0023"/><path fill-rule="evenodd" clip-rule="evenodd" d="M317.988 12.1001L317.918 12.3001C316.918 15.4801 314.668 22.9501 313.838 25.2401C312.838 28.7001 311.558 32.2401 310.418 35.8901C309.331 39.3038 308.423 42.7718 307.698 46.2801C306.819 50.6691 306.57 55.1608 306.958 59.6201C306.958 61.0629 306.385 62.4466 305.365 63.4668C304.345 64.487 302.961 65.0601 301.518 65.0601C300.075 65.0601 298.692 64.487 297.672 63.4668C296.651 62.4466 296.078 61.0629 296.078 59.6201C296.35 56.9223 296.822 54.2483 297.488 51.6201C298.248 48.6201 299.188 45.7301 300.198 42.7601C300.838 40.8801 301.468 38.9901 302.108 37.1001C302.898 34.7801 303.698 32.4701 304.388 30.1801C305.078 27.8901 305.638 25.5401 306.128 23.3001C306.618 21.0601 307.268 13.4101 307.598 10.1901C307.658 9.49008 307.718 8.99008 307.748 8.75008C308.638 0.520081 318.348 8.52008 318.508 9.75008C318.508 10.2153 318.451 10.6788 318.338 11.1301C318.438 11.2001 318.268 11.4901 318.098 11.8501L317.988 12.1001ZM314.748 14.9701C314.214 15.1381 313.658 15.2258 313.098 15.2301C312.581 15.2318 312.066 15.1612 311.568 15.0201C312.589 15.4348 313.733 15.4276 314.748 15.0001V14.9701ZM308.228 12.2701C308.402 12.7471 308.668 13.1852 309.011 13.5593C309.354 13.9334 309.768 14.2361 310.228 14.4501C309.372 13.923 308.68 13.1682 308.228 12.2701V12.2701ZM317.568 12.8401L317.488 12.9601V12.9001L317.568 12.8401ZM308.078 11.9501C307.785 11.2782 307.631 10.5533 307.628 9.82009C307.534 10.5765 307.692 11.3428 308.078 12.0001V11.9501Z" fill="#6E0023"/><path fill-rule="evenodd" clip-rule="evenodd" d="M309.56 10.3499C308.56 7.9499 316.03 4.4499 320.33 2.3499C323.014 0.852122 326.141 0.349303 329.16 0.929922C337.59 2.63992 341.4 6.04991 342.61 9.47991C343.041 10.8246 343.196 12.2428 343.063 13.6489C342.931 15.0549 342.515 16.4194 341.84 17.6599C339.74 21.9599 334.67 26.6599 328.63 30.9099C320.22 36.7799 309.89 41.3699 303.06 41.7399C302.327 41.7714 301.594 41.6541 300.908 41.3952C300.221 41.1362 299.593 40.7409 299.063 40.2331C298.533 39.7254 298.112 39.1156 297.823 38.4405C297.535 37.7654 297.387 37.0389 297.387 36.3049C297.387 35.5709 297.535 34.8445 297.823 34.1694C298.112 33.4943 298.533 32.8845 299.063 32.3767C299.593 31.8689 300.221 31.4737 300.908 31.2147C301.594 30.9558 302.327 30.8385 303.06 30.8699C308.53 31.1699 317.18 28.2999 324.27 24.1299C327.143 22.4617 329.799 20.4466 332.18 18.1299C333.36 17.0213 334.356 15.7318 335.13 14.3099C335.382 13.9699 335.547 13.5742 335.614 13.1564C335.68 12.7386 335.644 12.311 335.51 11.9099C334.64 10.2599 332.03 9.59992 327.75 8.98992C325.84 8.75992 324.36 10.2199 322.91 11.5599C320.36 13.9299 318.33 16.8899 316.76 18.4399C315.363 19.8663 313.483 20.7188 311.49 20.8299C310.225 20.8203 309.003 20.3699 308.034 19.5564C307.065 18.7429 306.409 17.617 306.181 16.3726C305.952 15.1282 306.165 13.8431 306.781 12.7384C307.398 11.6337 308.381 10.7785 309.56 10.3199V10.3499Z" fill="#6E0023"/><path fill-rule="evenodd" clip-rule="evenodd" d="M337.309 55.7001C338.889 55.7801 340.069 54.9 341.309 54.17C342.909 53.17 344.429 52.1701 346.059 51.3701C347.565 50.6898 349.18 50.2802 350.828 50.16C352.271 50.16 353.655 50.7332 354.675 51.7534C355.695 52.7736 356.269 54.1573 356.269 55.6C356.269 57.0428 355.695 58.4265 354.675 59.4467C353.655 60.4669 352.271 61.04 350.828 61.04C349.128 60.86 347.619 61.5701 346.039 62.2101C344.089 63.102 342.009 63.6791 339.879 63.92C338.369 64.0634 336.846 63.9416 335.379 63.5601C334.223 63.3137 333.145 62.7911 332.236 62.037C331.327 61.283 330.614 60.3198 330.159 59.23C328.559 55.61 329.878 48.6201 329.958 42.3301C329.958 40.0001 329.719 37.85 328.569 36.6C328.469 36.5 328.309 36.77 328.159 36.73C327.809 36.65 327.439 36.8801 326.969 36.9301C325.567 36.8699 324.244 36.271 323.273 35.2584C322.303 34.2457 321.762 32.8975 321.762 31.4951C321.762 30.0926 322.303 28.7444 323.273 27.7318C324.244 26.7191 325.567 26.1202 326.969 26.0601C332.249 26.6801 335.189 28.7201 336.719 31.9901C338.859 36.5201 337.539 44.0901 336.839 50.5901C336.72 51.8373 336.72 53.0929 336.839 54.3401C336.809 54.8501 337.259 55.3601 337.309 55.7001Z" fill="#6E0023"/><path fill-rule="evenodd" clip-rule="evenodd" d="M362.698 12.3499C361.778 11.5789 361.14 10.5253 360.881 9.3532C360.622 8.18115 360.758 6.95649 361.268 5.86993C363.178 2.69993 365.118 1.8699 365.978 1.7199C367.638 1.5399 369.168 1.5699 370.388 2.7199C371.22 3.32299 371.851 4.1629 372.198 5.12994C372.648 6.98112 372.702 8.9063 372.358 10.78C371.948 13.48 371.068 17.3799 370.248 21.9199C369.628 25.3099 369.068 29.0499 368.558 32.8099C368.048 36.5699 367.648 40.2599 367.348 43.7199C366.978 47.9799 366.838 51.7199 366.748 54.5799C366.748 55.6399 366.748 56.7399 366.748 57.4299C367.059 58.5956 366.974 59.8316 366.506 60.9434C366.037 62.0553 365.213 62.9799 364.162 63.572C363.11 64.164 361.892 64.3898 360.699 64.2138C359.505 64.0378 358.404 63.4701 357.568 62.5999C357.044 62.0795 356.634 61.4543 356.367 60.7651C356.1 60.0759 355.981 59.3381 356.018 58.5999C356.175 56.8647 356.442 55.1412 356.818 53.4399C357.408 50.6199 358.308 46.8499 359.168 42.5699C359.848 39.1599 360.538 35.4699 361.098 31.7699C361.658 28.0699 362.098 24.3299 362.388 20.9299C362.678 17.5299 362.738 14.6999 362.698 12.3499Z" fill="#6E0023"/><path fill-rule="evenodd" clip-rule="evenodd" d="M367.759 17C367.698 16.6063 367.733 16.2037 367.86 15.8261C367.987 15.4485 368.202 15.1069 368.489 14.83C370.06 13.6105 371.76 12.5675 373.559 11.72C380.069 8.39998 385.119 8.33003 388.419 11.28C393.859 16.16 394.419 26.73 390.579 36.53C387.671 43.8834 382.392 50.056 375.579 54.07C369.629 57.57 362.109 59.4 353.069 59.07C351.626 59.07 350.242 59.6431 349.222 60.6633C348.202 61.6835 347.629 63.0672 347.629 64.51C347.629 65.9528 348.202 67.3365 349.222 68.3567C350.242 69.3769 351.626 69.95 353.069 69.95C366.799 69.41 377.229 64.67 384.809 57.95C390.55 52.8709 394.961 46.4648 397.659 39.29C402.659 26.07 400.809 12.38 393.809 5.53003C388.619 0.470034 380.609 -1.46999 369.539 3.13001C365.849 4.63001 362.669 6.19002 360.469 8.33002C359.317 9.48136 358.406 10.8508 357.79 12.3584C357.173 13.866 356.864 15.4813 356.879 17.11C356.854 17.8432 356.978 18.5739 357.243 19.2581C357.508 19.9422 357.908 20.5657 358.42 21.0911C358.933 21.6164 359.546 22.0327 360.223 22.315C360.9 22.5973 361.627 22.7397 362.361 22.7336C363.094 22.7275 363.819 22.5731 364.492 22.2797C365.164 21.9862 365.77 21.5598 366.274 21.0261C366.777 20.4923 367.167 19.8622 367.421 19.1738C367.674 18.4853 367.786 17.7527 367.749 17.02L367.759 17Z" fill="#6E0023"/><path fill-rule="evenodd" clip-rule="evenodd" d="M20.0968 86.5301C19.1077 87.4743 18.2011 88.5013 17.3868 89.6C16.3247 91.0771 15.3976 92.6467 14.6168 94.29C14.0178 95.6003 13.5294 96.9583 13.1569 98.35C12.7674 99.8318 12.5724 101.358 12.5768 102.89C12.5887 102.99 12.6157 103.088 12.6569 103.18C12.6569 103.18 12.8069 103.18 12.7969 103.12C12.8283 103.853 12.711 104.586 12.452 105.272C12.1931 105.959 11.7978 106.587 11.29 107.117C10.7822 107.647 10.1725 108.068 9.49743 108.357C8.82233 108.645 8.09584 108.793 7.36181 108.793C6.62779 108.793 5.90141 108.645 5.22631 108.357C4.55122 108.068 3.94138 107.647 3.43359 107.117C2.9258 106.587 2.53055 105.959 2.2716 105.272C2.01265 104.586 1.89541 103.853 1.92688 103.12C2.30688 100.98 4.20679 97.12 6.83679 92.98C7.24679 92.32 7.61681 91.62 7.98681 90.92C8.72681 89.53 9.49682 88.15 10.1168 86.76C11.3068 84.1 12.1869 81.76 12.9269 80.05C13.3267 79.1101 13.9104 78.2597 14.6437 77.5487C15.377 76.8377 16.245 76.2805 17.1968 75.91C18.0568 75.5 18.8968 75.91 19.6468 75.91C21.4768 75.91 22.4868 77.4601 23.7168 79.6501C23.8622 80.1862 23.9527 80.7356 23.9868 81.29C23.994 82.467 23.6185 83.6145 22.9169 84.5596C22.2153 85.5047 21.2255 86.1963 20.0968 86.5301ZM20.6769 85.9601C20.8995 85.8294 21.1299 85.7125 21.3668 85.61C21.5618 85.4431 21.7304 85.2476 21.8668 85.0301C21.5575 85.2034 21.269 85.4114 21.0068 85.6501L20.6769 85.9601ZM13.3169 82.7801C13.3523 83.0123 13.4303 83.2361 13.5469 83.44L13.4668 83.24C13.4668 83.15 13.4068 83.07 13.3768 82.99L13.3169 82.7801ZM13.1569 82.0201C13.1569 81.8101 13.1568 81.59 13.1068 81.37C13.0794 81.5812 13.0965 81.7958 13.1569 82V82.0201Z" fill="#6E0023"/><path fill-rule="evenodd" clip-rule="evenodd" d="M19.9589 62.0001C20.4542 61.2452 21.1294 60.6253 21.9235 60.1959C22.7177 59.7665 23.6062 59.5411 24.509 59.54C25.279 61.31 25.189 60.15 25.399 60.73C25.489 61 25.619 60.6401 25.689 60.8401C25.829 61.2401 26.1389 60.7101 26.2189 60.9901C26.2989 61.2701 26.559 60.8901 26.599 61.1301C26.639 61.3701 26.8189 61.1301 26.8389 61.2401C26.8389 61.6801 27.379 61.18 27.369 61.54C27.359 61.9 27.679 61.5401 27.649 61.7501C27.619 61.9601 27.819 61.7501 27.799 61.8801C27.729 62.2601 28.3089 61.9401 28.1989 62.2801C28.0889 62.6201 28.849 62.4701 28.629 62.8701C28.509 63.1001 28.949 63.0101 28.809 63.2101C28.669 63.4101 29.049 63.3401 28.929 63.4901C28.629 63.8801 29.409 63.8001 29.139 64.2101C28.989 64.4401 28.3489 69.9401 26.6989 69.2101C26.7889 69.2901 26.959 69.5301 26.909 69.3701C26.859 69.2101 27.079 69.54 27.039 69.42C26.929 69.05 27.3589 69.42 27.5789 69.6C26.5532 70.5753 25.1878 71.1124 23.7725 71.0973C22.3573 71.0822 21.0037 70.5161 19.999 69.5192C18.9943 68.5223 18.4177 67.1732 18.3916 65.7581C18.3654 64.343 18.8918 62.9734 19.859 61.9401C19.8969 61.9511 19.9313 61.9718 19.9589 62.0001V62.0001ZM27.5789 69.6201L27.669 69.5301C27.739 69.7001 27.6889 69.6901 27.5789 69.6201ZM26.509 69.11C26.589 69.24 26.679 69.4101 26.649 69.2601V69.2001C26.598 69.1773 26.5508 69.147 26.509 69.11V69.11ZM26.369 69.0101C26.279 68.9201 26.169 68.8101 26.059 68.6801C25.949 68.5501 26.379 69.34 26.369 69.05V69.0101ZM23.4689 61.3701C23.3389 61.3701 23.129 61.3701 23.129 61.4501C23.129 61.9401 22.5389 61.4501 22.5789 61.7701C22.5789 61.9401 22.359 61.77 22.389 61.92C22.4853 61.9079 22.5827 61.9079 22.679 61.92C22.9918 61.9305 23.2964 61.8194 23.529 61.61C23.619 61.5 23.509 61.3801 23.509 61.3701H23.4689Z" fill="#6E0023"/><path fill-rule="evenodd" clip-rule="evenodd" d="M35.5099 95.7599C35.1899 94.9999 35.3999 93.5099 34.9999 92.4799C33.6799 89.0799 32.7899 85.4799 33.8399 82.3099C34.5099 80.3099 36.0199 78.3899 38.8399 76.5799C39.9199 75.8499 41.1799 74.7699 42.4999 74.0199C43.5377 73.4903 44.6623 73.1515 45.82 73.0199C48.03 72.6199 50.0699 73.4699 52.2499 75.2099C53.1407 76.1182 53.685 77.31 53.7881 78.5781C53.8912 79.8461 53.5466 81.1102 52.8142 82.1505C52.0819 83.1908 51.0081 83.9415 49.7796 84.2721C48.551 84.6027 47.2454 84.4922 46.0899 83.9599C45.2499 84.3099 43.7099 84.2799 42.9799 84.5599C42.2499 84.8399 41.4499 84.9498 41.2699 85.4698C40.6899 87.1398 41.6699 89.0699 42.2699 90.8599C43.3999 93.9999 43.9099 96.8599 43.0399 99.1699C42.2799 101.17 40.5199 102.96 36.5099 104.1C34.7699 104.64 32.5099 104.99 30.4199 105.5C29.4686 105.729 28.546 106.064 27.6699 106.5C27.5999 106.5 27.6699 106.63 27.6699 106.65C27.6699 106.67 27.4399 106.79 27.3299 106.87C26.8195 107.166 26.2711 107.392 25.6998 107.54C25.0453 107.709 24.3751 107.809 23.6998 107.84C22.2929 107.815 20.9503 107.246 19.954 106.252C18.9576 105.259 18.3851 103.918 18.3566 102.511C18.3281 101.104 18.846 99.7407 19.8013 98.7075C20.7566 97.6743 22.0751 97.0515 23.4799 96.9698C23.7239 96.8774 23.9746 96.8039 24.2299 96.7499C25.4939 96.4505 26.7825 96.2664 28.0799 96.1999C30.3399 96.0999 32.8399 96.1999 34.7799 96.0299C35.0311 95.9626 35.2754 95.8722 35.5099 95.7599ZM22.9299 97.1399C22.6311 97.2518 22.3486 97.4031 22.0899 97.5899C22.3663 97.4151 22.6574 97.2645 22.9599 97.1399H22.9299ZM44.6099 82.9098L44.4899 82.7898C44.5333 82.8403 44.5838 82.8841 44.6399 82.9199L44.6099 82.9098Z" fill="#6E0023"/><path fill-rule="evenodd" clip-rule="evenodd" d="M76.5088 78.1099C76.6918 78.8688 76.7591 79.6509 76.7087 80.4299C76.5099 81.9991 76.1065 83.5355 75.5088 84.9999C75.0871 86.032 74.596 87.0343 74.0388 87.9999C73.1688 89.4899 72.1788 90.9399 71.1888 92.3499C70.6588 93.1099 70.1387 93.8499 69.5887 94.5599C66.5287 98.5599 64.4087 102.42 63.8487 106.28C63.8173 107.013 63.9346 107.745 64.1936 108.432C64.4525 109.119 64.8478 109.746 65.3556 110.276C65.8634 110.806 66.4731 111.228 67.1482 111.516C67.8233 111.805 68.5498 111.953 69.2838 111.953C70.0178 111.953 70.7442 111.805 71.4193 111.516C72.0944 111.228 72.7042 110.806 73.212 110.276C73.7198 109.746 74.1151 109.119 74.374 108.432C74.633 107.745 74.7502 107.013 74.7187 106.28C74.5751 105.796 74.4978 105.295 74.4888 104.79C74.6682 103.001 75.1236 101.25 75.8387 99.5999C76.2812 98.5722 76.782 97.5705 77.3387 96.5999C78.2187 95.0999 79.1987 93.5999 80.1987 92.1899C81.0087 91.0299 81.8088 89.8999 82.6088 88.7899C84.99 85.7139 86.6323 82.1317 87.4088 78.32C87.4506 77.589 87.3444 76.8571 87.0967 76.1682C86.8489 75.4793 86.4646 74.8475 85.9668 74.3106C85.469 73.7737 84.868 73.3429 84.1997 73.0438C83.5314 72.7448 82.8098 72.5837 82.0778 72.5703C81.3458 72.5568 80.6185 72.6912 79.9397 72.9655C79.2609 73.2397 78.6445 73.6482 78.1273 74.1664C77.6101 74.6846 77.2028 75.3019 76.9298 75.9812C76.6569 76.6605 76.5239 77.388 76.5388 78.1199L76.5088 78.1099Z" fill="#6E0023"/><path fill-rule="evenodd" clip-rule="evenodd" d="M90.4481 96.26C90.8481 95.67 91.2382 95.04 91.6182 94.4C94.6182 89.23 96.6182 82.85 98.8882 79.3C100.139 77.1126 101.504 74.993 102.978 72.95C103.466 72.3966 104.06 71.9463 104.725 71.6252C105.389 71.3041 106.111 71.1187 106.848 71.08C107.576 71.0207 108.308 71.1147 108.997 71.3558C109.686 71.597 110.316 71.9799 110.848 72.48C111.43 73.0076 111.894 73.6514 112.211 74.3697C112.528 75.088 112.69 75.8649 112.688 76.65C112.688 77.6586 112.407 78.6471 111.877 79.5053C111.348 80.3636 110.59 81.0576 109.688 81.51C108.688 82.65 106.978 84.51 106.688 84.91C104.598 87.42 102.218 91.65 99.6882 95.7C98.5682 97.49 97.4482 99.28 96.2582 100.86C93.9082 103.99 91.2581 106.4 88.3481 107.43C87.6627 107.703 86.9151 107.781 86.188 107.656C85.4609 107.531 84.7826 107.207 84.2282 106.72C83.3157 105.898 82.7182 104.785 82.5382 103.57C82.3922 102.128 82.3653 100.676 82.4581 99.23C82.2681 96.82 77.6482 88.85 79.1682 86.01C78.1364 85.4036 77.3332 84.4738 76.8833 83.3648C76.4334 82.2557 76.3619 81.0293 76.6797 79.8754C76.9975 78.7215 77.6869 77.7047 78.6412 76.9823C79.5955 76.26 80.7613 75.8725 81.9581 75.88C83.6537 76.0159 85.2647 76.6777 86.5662 77.773C87.8676 78.8683 88.7947 80.3425 89.2181 81.99C90.4281 85.79 90.5581 92.14 90.4481 96.26ZM102.338 78.96C101.999 78.2373 101.825 77.4483 101.828 76.65C101.742 77.4677 101.921 78.2914 102.338 79V78.96Z" fill="#6E0023"/><path fill-rule="evenodd" clip-rule="evenodd" d="M134.866 72.1302C135.316 72.0602 135.766 72.0101 136.226 71.9801C137.028 71.9588 137.825 72.1165 138.559 72.4417C139.292 72.7669 139.944 73.2515 140.466 73.8601C142.215 74.8171 143.668 76.2352 144.666 77.9602C146.521 81.4109 147.095 85.4068 146.286 89.2401C144.626 98.6401 136.926 109.61 129.086 111.38C122.876 113.01 118.786 111.31 116.276 108.38C113.766 105.45 112.906 101.09 113.516 96.0702C114.576 87.4502 120.516 77.6301 129.406 73.6801C129.917 73.1315 130.537 72.6953 131.225 72.3991C131.914 72.103 132.657 71.9535 133.406 71.9602C133.876 72.0002 134.376 72.0702 134.866 72.1302ZM135.356 82.8701C129.356 83.2701 124.716 88.2701 122.506 93.4801C120.866 97.3401 120.136 101.39 121.956 103.6C122.956 104.78 124.706 104.85 127.206 104.19C131.576 102.91 135.206 96.9502 136.766 91.3402C137.586 88.3402 137.766 85.3402 136.366 83.4402C136.117 83.1258 135.754 82.9213 135.356 82.8701V82.8701Z" fill="#6E0023"/><path fill-rule="evenodd" clip-rule="evenodd" d="M152.569 83.3401C151.957 82.3214 151.696 81.13 151.826 79.9486C151.956 78.7672 152.47 77.6611 153.289 76.8001C154.163 75.9913 155.18 75.3536 156.289 74.9201C158.469 74.5801 160.069 74.6101 161.109 75.6301C161.699 76.2101 162.499 76.6301 162.799 77.5701C163.17 78.503 163.331 79.5057 163.272 80.5078C163.214 81.5098 162.936 82.4868 162.459 83.3701C161.549 85.1401 159.799 87.8401 157.979 91.0801C157.099 92.6601 156.269 94.3901 155.489 96.0801C154.709 97.7701 154.019 99.6201 153.409 101.3C152.129 104.91 151.319 107.93 150.889 109.3C150.266 110.6 149.152 111.598 147.792 112.077C146.433 112.555 144.939 112.473 143.639 111.85C142.34 111.227 141.341 110.113 140.863 108.753C140.384 107.394 140.466 105.9 141.089 104.6C141.909 103.39 143.859 100.88 145.969 97.6C146.969 96.11 147.969 94.5101 148.789 92.8101C149.842 90.7675 150.764 88.6599 151.549 86.5001C151.941 85.4643 152.282 84.4097 152.569 83.3401V83.3401ZM161.119 84.3401C161.141 84.3227 161.162 84.3025 161.179 84.2801L161.119 84.3401ZM153.219 80.1301C153.241 79.9541 153.241 79.776 153.219 79.6C153.219 79.6 153.199 79.8201 153.219 80.1401V80.1301Z" fill="#6E0023"/><path fill-rule="evenodd" clip-rule="evenodd" d="M166.307 98.2299C166.897 97.3199 167.467 96.35 168.007 95.34C170.239 90.8952 172.241 86.3393 174.007 81.69C174.207 81.17 176.267 74.4899 177.517 72.5399C178.224 71.4922 179.252 70.7025 180.447 70.2899C182.677 69.2899 184.597 70.0999 186.447 71.9099C187.027 72.4699 187.827 73.91 188.057 76.65C188.058 77.5679 187.826 78.4711 187.384 79.2754C186.941 80.0797 186.303 80.7589 185.527 81.25C184.54 82.7843 183.448 84.2479 182.257 85.63C180.697 88.39 178.817 91.6299 176.897 94.9799C175.657 97.1399 174.427 99.32 173.157 101.33C171.707 103.723 170.033 105.973 168.157 108.05C167.61 108.706 166.859 109.16 166.024 109.341C165.189 109.522 164.317 109.42 163.547 109.05C162.717 108.73 161.437 107.59 160.397 105.4C158.397 101.19 155.397 90.28 153.717 85.59C153.567 85.18 153.127 84.77 153.197 84.59C152.59 83.419 152.428 82.0671 152.743 80.7861C153.058 79.505 153.828 78.3821 154.909 77.6262C155.99 76.8704 157.309 76.5332 158.621 76.6773C159.932 76.8215 161.146 77.4372 162.037 78.4099C162.958 79.7311 163.573 81.2411 163.837 82.83C164.507 86.33 165.297 93.2199 166.307 98.2299ZM177.137 76.88V76.65C177.127 76.7263 177.127 76.8036 177.137 76.88V76.88Z" fill="#6E0023"/><path fill-rule="evenodd" clip-rule="evenodd" d="M224.317 80.55C219.317 81.12 213.397 83.8101 208.317 87.3301C205.103 89.449 202.264 92.0884 199.917 95.1401C198.879 96.4994 198.148 98.0684 197.777 99.7383C197.406 101.408 197.402 103.139 197.767 104.81C198.537 108.18 201.397 111.48 207.587 114.48C208.268 114.745 208.996 114.87 209.727 114.847C210.457 114.825 211.176 114.655 211.84 114.349C212.503 114.042 213.099 113.605 213.59 113.063C214.08 112.522 214.457 111.887 214.697 111.196C214.937 110.506 215.036 109.774 214.987 109.044C214.937 108.315 214.742 107.603 214.411 106.951C214.081 106.299 213.622 105.72 213.063 105.249C212.504 104.778 211.856 104.425 211.157 104.21C209.708 104.025 208.303 103.585 207.007 102.91C206.507 102.58 205.947 102.45 205.797 102.02C205.227 100.33 206.527 98.4601 208.287 96.7501C209.595 95.5202 211.07 94.48 212.667 93.66C213.754 93.1012 214.889 92.6394 216.057 92.2801C218.71 91.4062 221.521 91.1162 224.297 91.4301C225.74 91.4301 227.124 90.8569 228.144 89.8367C229.164 88.8165 229.737 87.4328 229.737 85.9901C229.737 84.5473 229.164 83.1636 228.144 82.1434C227.124 81.1232 225.74 80.55 224.297 80.55H224.317Z" fill="#6E0023"/><path fill-rule="evenodd" clip-rule="evenodd" d="M239.789 89.07C240.325 88.8963 240.885 88.8085 241.449 88.81C246.449 89.26 249.369 91.1899 250.799 94.0399C252.211 96.9639 252.444 100.319 251.449 103.41C249.829 108.75 245.529 114.18 241.239 115.66C239.724 116.278 238.054 116.409 236.461 116.034C234.867 115.66 233.43 114.798 232.349 113.57C229.753 111.082 227.73 108.059 226.419 104.71C225.851 103.09 225.728 101.347 226.064 99.6635C226.4 97.98 227.182 96.4177 228.329 95.14C229.362 93.8305 230.496 92.6035 231.719 91.4699C232.822 90.5132 234.067 89.7338 235.409 89.1599C236.823 88.6663 238.357 88.6348 239.789 89.07V89.07ZM237.119 99.3499C236.293 99.9337 235.502 100.565 234.749 101.24C234.529 101.43 234.229 101.5 234.189 101.73C234.109 102.313 234.174 102.908 234.379 103.46C235.195 105.312 236.333 107.005 237.739 108.46C238.569 109.3 239.439 108.33 240.239 107.46C241.227 106.323 241.978 105.001 242.449 103.57C242.879 102.457 243.027 101.254 242.879 100.07C242.108 100.368 241.295 100.544 240.469 100.59C239.244 100.57 238.062 100.133 237.119 99.3499V99.3499ZM238.459 98.8C238.242 98.8529 238.028 98.9197 237.819 99C238.044 98.9499 238.264 98.883 238.479 98.8H238.459ZM236.459 91.56C235.93 92.0888 235.556 92.753 235.379 93.4799C235.621 92.7697 236.006 92.1163 236.509 91.56H236.459Z" fill="#6E0023"/><path fill-rule="evenodd" clip-rule="evenodd" d="M256.329 89.7C257.129 84.2 259.569 83.07 261.919 83.89C263.659 83.58 265.369 84.46 266.319 87.53L266.629 87.26C269.939 84.46 273.439 83.87 276.739 86.4C279.939 88.72 280.739 92.13 280.669 95.99C280.579 99.31 279.419 103.09 279.559 106.09C279.593 106.237 279.654 106.376 279.739 106.5V106.42C279.865 106.412 279.992 106.412 280.119 106.42C281.113 106.566 282.124 106.566 283.119 106.42C284.562 106.42 285.945 106.993 286.965 108.013C287.986 109.034 288.559 110.417 288.559 111.86C288.559 113.303 287.986 114.686 286.965 115.707C285.945 116.727 284.562 117.3 283.119 117.3C275.519 116.78 272.329 114.07 271.059 110.91C269.869 107.91 270.319 103.97 271.489 99.85C272.058 98.1783 272.453 96.4526 272.669 94.7C272.821 93.9323 272.666 93.1356 272.239 92.48C272.039 92.62 271.619 92.67 271.389 92.86C270.185 93.9685 269.148 95.2451 268.309 96.65C266.639 99.26 265.369 102.07 264.659 103.41L263.659 108.31V108.46C263.451 109.561 262.814 110.534 261.888 111.165C260.963 111.796 259.824 112.033 258.724 111.825C257.623 111.617 256.65 110.98 256.019 110.054C255.388 109.129 255.151 107.991 255.359 106.89V106.75L255.429 105.47C255.371 104.136 255.401 102.8 255.519 101.47C255.699 98.77 256.169 96.01 256.519 93.47C256.519 93.58 256.459 93.71 256.459 93.71V93.2C256.285 92.6673 256.197 92.1103 256.199 91.55L256.259 90.82C256.237 90.4452 256.26 90.0691 256.329 89.7V89.7Z" fill="#6E0023"/><path fill-rule="evenodd" clip-rule="evenodd" d="M304.509 82.7198C309.729 82.3598 310.829 85.1599 309.999 88.0099C310.999 90.9199 309.999 93.8899 304.549 93.5699H304.389C304.114 93.5614 303.84 93.5381 303.569 93.4999H303.399L301.399 93.3899C301.399 93.3899 301.809 93.1099 301.979 93.0299C301.03 93.417 300.152 93.9575 299.379 94.6299C298.929 95.0699 298.309 95.4799 298.079 96.0099C299.029 95.9099 300.569 97.4698 302.079 97.8498C305.699 98.7798 309.329 99.9799 311.399 102.13C313.939 104.77 315.169 109.13 310.729 117.03C310.067 118.1 309.188 119.02 308.149 119.73C306.54 120.808 304.777 121.634 302.919 122.18C302.109 122.417 301.283 122.598 300.449 122.72C298.949 122.98 297.449 123.02 295.939 123.15C294.496 123.15 293.112 122.577 292.092 121.557C291.072 120.536 290.499 119.153 290.499 117.71C290.499 116.267 291.072 114.883 292.092 113.863C293.112 112.843 294.496 112.27 295.939 112.27L300.629 112.64C301.429 112.52 302.909 111.25 303.419 112.02C303.419 112.09 303.419 112.17 303.419 112.24C304.468 111.023 305.275 109.618 305.799 108.1C305.889 107.7 306.049 107.39 305.859 107.16C304.941 106.362 303.819 105.835 302.619 105.64C300.719 105.1 298.679 104.73 296.959 104.25C293.549 103.31 291.279 101.49 290.399 99.1299C289.959 97.8962 289.772 96.5865 289.849 95.279C289.926 93.9716 290.266 92.6931 290.849 91.5199C292.099 88.5199 294.789 86.0899 296.949 84.5199C298.069 83.6899 301.259 83.1199 303.189 82.8699C303.614 82.7674 304.051 82.7203 304.489 82.7298L304.509 82.7198Z" fill="#6E0023"/><path fill-rule="evenodd" clip-rule="evenodd" d="M323.357 105.6C323.681 105.502 323.985 105.35 324.257 105.15C325.885 103.691 327.239 101.954 328.257 100.02C329.754 97.4449 330.451 94.4824 330.257 91.5101C330.257 90.0673 330.831 88.6836 331.851 87.6634C332.871 86.6432 334.255 86.0701 335.697 86.0701C337.14 86.0701 338.524 86.6432 339.544 87.6634C340.564 88.6836 341.137 90.0673 341.137 91.5101C340.547 97.6101 336.197 104.58 331.357 108.94C330.124 110.105 328.785 111.153 327.357 112.07C323.487 114.39 320.008 114.07 317.658 111.95C315.948 110.38 314.497 107.01 314.877 100.75C314.911 99.8141 315.011 98.8817 315.178 97.9601C315.608 94.9601 316.617 92.27 317.007 89.29C317.386 87.9262 318.281 86.7636 319.502 86.0489C320.724 85.3341 322.176 85.1236 323.55 85.462C324.924 85.8003 326.113 86.6609 326.863 87.8611C327.613 89.0613 327.866 90.5065 327.568 91.8901C326.568 94.4901 325.217 96.7801 324.137 99.3201C323.774 100.106 323.48 100.923 323.257 101.76C323.131 103.039 323.165 104.329 323.357 105.6V105.6Z" fill="#6E0023"/><path fill-rule="evenodd" clip-rule="evenodd" d="M332.508 93.59C331.762 92.6298 331.364 91.4454 331.378 90.2299C331.394 88.788 331.98 87.4111 333.009 86.4008C334.038 85.3906 335.426 84.8293 336.868 84.84C338.938 85.31 340.708 85.59 341.498 87.26C341.738 87.76 342.208 88.17 342.308 88.81C342.709 90.2465 342.681 91.769 342.228 93.19C341.648 94.74 340.568 96.81 339.498 99.3C338.985 100.508 338.547 101.747 338.188 103.01C337.839 104.214 337.591 105.445 337.448 106.69C337.299 108.151 337.477 109.626 337.968 111.01C337.968 111.01 338.118 111.01 338.118 111.01C338.118 111.01 338.218 110.82 338.118 110.75C338.018 110.68 337.998 110.25 337.878 110.06L337.788 109.96C337.825 109.986 337.856 110.02 337.878 110.06C338.862 111.121 339.384 112.529 339.33 113.975C339.275 115.421 338.649 116.786 337.588 117.77C336.527 118.754 335.119 119.276 333.673 119.222C332.227 119.167 330.862 118.541 329.878 117.48C328.808 115.77 327.668 113.77 328.078 110.99C328.544 108.539 329.213 106.13 330.078 103.79C330.787 101.774 331.384 99.7212 331.868 97.64C332.195 96.3105 332.409 94.9557 332.508 93.59V93.59ZM335.998 95.6599C336.247 95.7505 336.517 95.7713 336.778 95.7199C336.527 95.7191 336.276 95.699 336.028 95.6599H335.998ZM332.528 92.6599C332.528 92.2799 332.528 91.9466 332.528 91.6599C332.528 91.5399 332.368 91.38 332.368 91.38C332.289 91.7424 332.289 92.1175 332.368 92.4799L332.528 92.6599Z" fill="#6E0023"/><path fill-rule="evenodd" clip-rule="evenodd" d="M366.59 88.7799C367.522 89.3255 368.323 90.0698 368.935 90.9599C369.546 91.8501 369.955 92.8641 370.13 93.9299C370.876 92.6492 371.725 91.4317 372.67 90.2899C375.61 86.8299 379.03 85.8199 382.05 86.7599C382.801 87.0306 383.481 87.4683 384.039 88.0399C384.597 88.6115 385.018 89.3021 385.27 90.0599C386.14 92.2599 385.89 98.2599 385.87 99.3899C385.87 101.45 385.65 103.32 385.54 104.98C385.5 105.646 385.5 106.314 385.54 106.98C386.51 107.077 387.485 107.11 388.46 107.08C389.903 107.08 391.286 107.653 392.307 108.673C393.327 109.693 393.9 111.077 393.9 112.52C393.9 113.963 393.327 115.346 392.307 116.367C391.286 117.387 389.903 117.96 388.46 117.96C381.9 117.7 378.78 115.78 377.21 113.5C375.954 111.637 375.347 109.413 375.48 107.17C375.54 105.17 376.09 102.55 376.41 99.5399C375.951 99.9972 375.548 100.508 375.21 101.06C372.1 106.5 369.51 112.94 368.21 114.84C367.959 115.247 367.629 115.599 367.239 115.876C366.849 116.152 366.407 116.348 365.94 116.45C365.141 116.65 364.298 116.573 363.55 116.23C363.034 116.028 362.576 115.702 362.215 115.282C361.854 114.862 361.602 114.36 361.48 113.82C361.406 113.593 361.359 113.358 361.34 113.12C361.34 112.99 361.34 112.7 361.34 112.3C361.286 110.153 361.417 108.005 361.73 105.88C362.264 103.34 362.658 100.773 362.91 98.1899C362.97 97.1899 362.3 96.0699 362.42 95.4399C362.11 95.5928 361.818 95.7807 361.55 95.9999C360.48 96.7399 353.41 113 353.33 113.32C353.147 114.573 352.479 115.704 351.47 116.47C350.762 117.05 349.885 117.384 348.97 117.422C348.056 117.46 347.154 117.199 346.4 116.68C345.86 116.38 345.393 115.963 345.035 115.46C344.677 114.956 344.436 114.379 344.33 113.77C344.242 113.363 344.205 112.946 344.22 112.53C344.226 112.286 344.246 112.042 344.28 111.8C343.82 111.55 344.52 109.42 344.63 107.5C344.68 107.5 350.29 82.6899 366.59 88.7799Z" fill="#6E0023"/><path fill-rule="evenodd" clip-rule="evenodd" d="M394.429 91.1599C394.846 95.2948 394.762 99.4651 394.179 103.58C393.829 106.08 393.319 108.58 392.729 111.16C392.139 113.74 391.499 116.28 390.789 118.8C389.229 124.36 387.669 129.73 387.129 135.06C387.129 136.503 387.702 137.886 388.722 138.907C389.742 139.927 391.126 140.5 392.569 140.5C394.012 140.5 395.395 139.927 396.416 138.907C397.436 137.886 398.009 136.503 398.009 135.06C397.627 131.777 397.567 128.465 397.829 125.17C398.001 122.862 398.301 120.565 398.729 118.29C399.409 114.77 400.269 111.29 401.239 107.9C402.929 102 404.729 96.4999 405.309 91.2399C405.314 90.5255 405.179 89.8171 404.91 89.1551C404.642 88.493 404.245 87.8904 403.744 87.3816C403.242 86.8727 402.646 86.4675 401.988 86.1893C401.33 85.9111 400.623 85.7652 399.909 85.7599C399.195 85.7547 398.486 85.8902 397.824 86.1587C397.162 86.4272 396.559 86.8235 396.051 87.325C395.542 87.8264 395.137 88.4231 394.858 89.0811C394.58 89.7391 394.434 90.4455 394.429 91.1599V91.1599Z" fill="#6E0023"/><path fill-rule="evenodd" clip-rule="evenodd" d="M404.716 96.9101C404.716 96.5301 404.486 96.1701 404.636 95.9101C404.994 95.0795 405.63 94.4002 406.436 93.9901C408.086 93.2501 410.116 92.7901 411.356 93.9201C412.916 95.5001 413.156 98.6601 412.656 101.59C412.176 104.34 411.036 107.07 409.046 107.81C407.377 108.266 405.607 108.199 403.976 107.62C401.848 106.897 399.8 105.955 397.866 104.81C397.199 104.463 396.466 104.257 395.716 104.207C394.965 104.157 394.212 104.264 393.504 104.52C392.796 104.775 392.15 105.175 391.604 105.694C391.059 106.213 390.628 106.839 390.337 107.533C390.046 108.227 389.902 108.974 389.915 109.726C389.927 110.479 390.096 111.22 390.41 111.904C390.724 112.588 391.176 113.2 391.738 113.7C392.301 114.2 392.96 114.578 393.676 114.81C397.176 115.93 400.676 117.06 404.156 117.11C406.954 117.25 409.742 116.686 412.266 115.47C416.266 113.61 419.156 108.47 419.986 102.71C420.776 97.2501 419.776 91.5601 416.986 88.5401C413.986 84.8801 408.316 84.0501 403.406 85.3801C400.779 86.0554 398.437 87.5533 396.723 89.6548C395.008 91.7563 394.011 94.3512 393.876 97.0601C393.856 97.7929 393.984 98.5224 394.252 99.2046C394.52 99.8868 394.924 100.508 395.439 101.03C395.953 101.552 396.568 101.965 397.246 102.244C397.924 102.523 398.651 102.662 399.384 102.652C400.117 102.643 400.841 102.485 401.512 102.189C402.182 101.893 402.786 101.464 403.287 100.929C403.788 100.394 404.175 99.7624 404.426 99.0735C404.677 98.3847 404.786 97.6522 404.746 96.9201L404.716 96.9101Z" fill="#6E0023"/><path fill-rule="evenodd" clip-rule="evenodd" d="M428.007 59.6901C429.007 47.9301 439.007 54.1301 438.757 59.9301C438.757 60.0701 438.757 60.2101 438.757 60.3601C438.779 60.9344 438.708 61.5085 438.547 62.0601C438.357 64.2201 438.097 66.3001 437.777 68.3601C437.197 72.0501 436.477 75.6401 435.777 79.4601C435.567 80.8701 433.777 88.1101 432.567 96.5701C432.087 99.8701 431.717 103.36 431.567 106.73C431.427 109.05 431.417 111.3 431.477 113.41C431.627 115.242 432.07 117.038 432.787 118.73C433.876 117.878 435.249 117.472 436.627 117.596C438.005 117.72 439.283 118.364 440.203 119.397C441.123 120.43 441.615 121.774 441.578 123.157C441.542 124.54 440.98 125.857 440.007 126.84C435.307 130.98 431.657 131.62 429.297 130.84C426.937 130.06 424.367 127.94 423.517 123.84C422.717 119.95 423.027 113.72 423.837 106.95C424.097 104.76 424.367 102.5 424.657 100.26C425.157 96.3801 425.737 92.5701 426.207 89.2601C426.977 83.7501 427.517 79.5201 427.617 78.4901C427.837 74.7101 428.117 71.1701 428.207 67.4901C428.207 65.6001 428.207 63.7001 428.097 61.7301C428.016 61.4026 427.969 61.0674 427.957 60.7301V60.1001V59.7901C427.957 59.7706 427.961 59.7513 427.97 59.7339C427.978 59.7165 427.991 59.7015 428.007 59.6901V59.6901Z" fill="#6E0023"/><path fill-rule="evenodd" clip-rule="evenodd" d="M447.357 86.79H447.147L436.667 85.6C434.142 85.5051 431.625 85.2681 429.127 84.8901C426.717 84.6001 424.387 84.3101 422.027 84.1201C419.177 83.9177 416.314 84.0216 413.487 84.4301C412.044 84.4301 410.66 83.8569 409.64 82.8367C408.62 81.8165 408.047 80.4328 408.047 78.9901C408.047 77.5473 408.62 76.1636 409.64 75.1434C410.66 74.1232 412.044 73.55 413.487 73.55C418.487 74.16 422.667 75.6801 427.147 76.8901C428.147 77.1501 429.147 77.3601 430.237 77.5301C432.363 77.8639 434.515 78.0111 436.667 77.97L447.147 76.7601H447.297C447.976 76.4836 448.704 76.3475 449.437 76.36L449.777 76.41C464.037 74.41 474.967 77.9901 469.427 81.9501C475.187 85.9501 464.127 89.1601 449.697 87.1801H449.297C448.663 87.1594 448.035 87.0414 447.437 86.8301L447.357 86.79Z" fill="#6E0023"/><path fill-rule="evenodd" clip-rule="evenodd" d="M444.509 99.4098C444.893 101.077 445.167 102.767 445.329 104.47C445.414 105.642 445.414 106.818 445.329 107.99C445.194 109.799 444.916 111.594 444.499 113.36C443.809 116.29 442.839 118.95 442.259 121.9C442.227 122.633 442.345 123.365 442.604 124.052C442.863 124.739 443.258 125.366 443.766 125.896C444.273 126.426 444.883 126.848 445.558 127.136C446.233 127.424 446.96 127.573 447.694 127.573C448.428 127.573 449.154 127.424 449.829 127.136C450.505 126.848 451.114 126.426 451.622 125.896C452.13 125.366 452.525 124.739 452.784 124.052C453.043 123.365 453.16 122.633 453.129 121.9C452.717 120.277 452.423 118.626 452.249 116.96C452.134 115.8 452.104 114.634 452.159 113.47C452.281 111.671 452.549 109.885 452.959 108.13C453.659 105.28 454.669 102.68 455.359 99.7498C455.381 99.0355 455.263 98.3237 455.01 97.6551C454.757 96.9866 454.375 96.3744 453.886 95.8534C453.396 95.3325 452.809 94.913 452.158 94.619C451.506 94.325 450.803 94.1622 450.089 94.1399C449.374 94.1175 448.663 94.2361 447.994 94.4889C447.326 94.7416 446.713 95.1236 446.193 95.613C445.672 96.1024 445.252 96.6895 444.958 97.341C444.664 97.9924 444.501 98.6954 444.479 99.4098H444.509Z" fill="#6E0023"/><path fill-rule="evenodd" clip-rule="evenodd" d="M450.25 70.1099C449.056 69.6666 448.055 68.8182 447.422 67.7125C446.789 66.6068 446.564 65.314 446.787 64.0596C447.009 62.8051 447.665 61.6686 448.64 60.8482C449.614 60.0277 450.846 59.5753 452.12 59.57C454.32 59.33 457.86 60.49 458.66 65.57C458.665 66.2842 458.529 66.9925 458.26 67.6541C457.991 68.3156 457.593 68.9174 457.09 69.4248C456.588 69.9322 455.99 70.3353 455.33 70.6107C454.671 70.8862 453.964 71.0287 453.25 71.03C452.181 71.0288 451.136 70.7084 450.25 70.1099V70.1099Z" fill="#6E0023"/><path fill-rule="evenodd" clip-rule="evenodd" d="M475.847 90.6499C475.278 89.3734 475.223 87.927 475.692 86.6107C476.161 85.2944 477.119 84.2092 478.367 83.5799C481.137 82.3999 483.057 82.9099 484.267 83.7699C485.15 84.2992 485.871 85.0618 486.349 85.9739C486.827 86.886 487.044 87.9123 486.977 88.9399C486.874 90.2668 486.564 91.5694 486.057 92.7999C484.777 95.9899 482.147 100.68 481.727 101.49C480.047 104.74 478.587 109.36 477.067 113.93C476.092 117.072 474.917 120.149 473.547 123.14C472.571 125.279 471.257 127.248 469.657 128.97C469.065 129.562 468.303 129.954 467.477 130.09C466.562 130.218 465.631 130.075 464.797 129.68C463.798 129.133 462.999 128.282 462.517 127.25C461.827 125.681 461.323 124.036 461.017 122.35C459.547 115.69 458.277 104.25 457.897 101.73C457.647 100.19 457.017 94.2899 456.747 91.8699V91.7699C456.679 91.4408 456.642 91.106 456.637 90.7699C456.65 90.6561 456.681 90.5449 456.727 90.4399C456.957 87.4399 459.247 86.8599 461.667 87.2499C464.287 86.4799 467.037 86.8199 467.437 90.2499C467.471 90.334 467.498 90.421 467.517 90.5099C467.517 90.7432 467.517 90.9732 467.517 91.1999V91.3799C467.457 93.6899 467.297 99.2899 467.347 100.77C467.457 102.77 467.457 110.77 468.017 117.09C470.237 110.66 471.317 102.71 473.327 97.6599C473.507 96.9999 475.007 93.4499 475.847 90.6499ZM482.117 93.7099C482.524 93.6491 482.916 93.5062 483.267 93.2899C482.902 93.4765 482.516 93.6176 482.117 93.7099V93.7099Z" fill="#6E0023"/><path fill-rule="evenodd" clip-rule="evenodd" d="M486.68 111.77C484.81 103.82 491.84 91.94 497.03 87.71C500.34 85 503.68 85.27 505.64 86.16C507.6 87.05 509.17 88.93 509.44 92.87C509.444 93.8517 509.182 94.8162 508.682 95.6612C508.183 96.5062 507.464 97.2003 506.602 97.6698C505.74 98.1393 504.766 98.3668 503.785 98.3281C502.805 98.2894 501.852 97.986 501.03 97.45C498.852 99.4416 497.056 101.814 495.73 104.45C495.163 105.564 494.724 106.738 494.42 107.95C495.771 107.852 497.127 108.064 498.383 108.571C499.64 109.077 500.764 109.863 501.67 110.87C502.275 111.403 502.673 112.133 502.793 112.93C502.914 113.727 502.75 114.542 502.33 115.23C501.929 116.016 501.263 116.636 500.45 116.98C499.588 117.314 498.688 117.539 497.77 117.65C495.725 117.943 493.642 117.813 491.65 117.27C491.26 117.69 490.88 118.14 490.51 118.6C488.4 121.28 486.82 124.93 487.67 127.19C487.836 127.693 488.142 128.138 488.554 128.471C488.965 128.804 489.464 129.012 489.99 129.07C491.66 129.34 493.51 128.79 495.26 128.42C497.048 128.01 498.862 127.726 500.69 127.57C502.133 127.57 503.516 128.143 504.536 129.163C505.557 130.184 506.13 131.567 506.13 133.01C506.13 134.453 505.557 135.837 504.536 136.857C503.516 137.877 502.133 138.45 500.69 138.45C498.5 138.31 495.56 138.87 492.75 138.85C490.071 138.969 487.407 138.39 485.02 137.17C483.647 136.401 482.447 135.357 481.494 134.105C480.541 132.853 479.855 131.418 479.48 129.89C478.03 125 481.44 116.44 486.68 111.77ZM498.57 93.08V92.91C498.565 92.9666 498.565 93.0235 498.57 93.08V93.08Z" fill="#6E0023"/><path fill-rule="evenodd" clip-rule="evenodd" d="M444.118 176.41C423.438 176.89 399.258 175.41 374.418 172.9C356.978 171.13 339.218 168.9 322.138 166.43C303.538 163.75 285.758 160.82 269.988 158.27C251.868 155.27 233.598 152.83 215.298 150.68C194.008 148.19 172.648 146.14 151.298 143.98C129.948 141.82 108.668 139.51 87.5282 136.88C68.9682 134.51 50.0881 129.19 31.4581 126.01C23.1383 124.519 14.7177 123.66 6.26819 123.44C4.82541 123.44 3.44171 124.013 2.42151 125.033C1.40131 126.053 0.828125 127.437 0.828125 128.88C0.828125 130.323 1.40131 131.706 2.42151 132.727C3.44171 133.747 4.82541 134.32 6.26819 134.32C14.1855 134.264 22.0954 134.815 29.9282 135.97C48.7482 138.57 67.9281 143.34 86.5981 145.16C108.508 147.35 130.508 149 152.508 150.91C167.118 152.16 181.738 153.5 196.328 155.01C220.638 157.51 244.878 160.56 268.888 164.61C284.648 167.37 302.458 170.42 321.018 173.47C338.148 176.27 355.918 179.07 373.398 181.37C398.578 184.7 423.118 187.07 444.168 187.29C444.883 187.285 445.589 187.139 446.247 186.861C446.905 186.582 447.502 186.177 448.003 185.668C448.505 185.159 448.901 184.557 449.169 183.895C449.438 183.233 449.573 182.524 449.568 181.81C449.563 181.096 449.417 180.389 449.139 179.731C448.861 179.073 448.455 178.476 447.947 177.975C447.438 177.474 446.835 177.077 446.173 176.809C445.511 176.54 444.803 176.405 444.088 176.41H444.118Z" fill="#6E0023"/><path fill-rule="evenodd" clip-rule="evenodd" d="M144.406 131.36H143.336L113.336 129.36C109.106 129.22 104.866 129.09 100.636 129.09C94.2663 129.09 87.9063 129.27 81.5363 129.54C71.5897 129.96 61.6663 130.523 51.7663 131.23C44.2563 131.77 36.7663 132.44 29.3663 132.98C21.9663 133.52 14.2863 133.98 6.78632 134.29C5.34354 134.263 3.97038 133.665 2.96894 132.626C1.96749 131.587 1.41971 130.193 1.44623 128.75C1.47275 127.307 2.07134 125.934 3.1103 124.933C4.14925 123.931 5.54349 123.383 6.98627 123.41C20.9263 124.3 35.0563 124.69 49.3163 124.48C54.4163 124.4 59.5163 124.2 64.6263 123.98C72.3063 123.66 79.973 123.297 87.6263 122.89C96.1963 122.46 104.756 121.94 113.306 121.74L143.306 120.87C144.571 120.725 145.844 120.671 147.116 120.71C148.395 120.87 149.598 121.402 150.576 122.24C151.212 122.784 151.72 123.461 152.066 124.223C152.412 124.985 152.586 125.813 152.576 126.65C152.577 127.609 152.324 128.551 151.842 129.381C151.361 130.21 150.67 130.898 149.837 131.374C149.005 131.85 148.061 132.098 147.102 132.092C146.143 132.086 145.203 131.827 144.376 131.34L144.406 131.36ZM141.886 127.99C141.781 127.558 141.728 127.115 141.726 126.67C141.7 127.119 141.755 127.57 141.886 128V127.99Z" fill="#6E0023"/><path fill-rule="evenodd" clip-rule="evenodd" d="M138.507 171.12C138.06 171.114 137.615 171.064 137.177 170.97C130.887 169.03 124.387 167.37 117.957 165.52C115.127 164.7 112.327 163.86 109.557 162.92C101.887 160.49 94.2572 157.92 86.5572 155.63C78.8572 153.34 71.1172 151.14 63.3572 149.07C58.1772 147.69 52.9839 146.39 47.7772 145.17C42.5572 143.95 37.3171 142.9 32.0771 141.82C27.1371 140.82 22.2072 138.09 17.1472 136.6C15.576 136.125 13.9379 135.909 12.2972 135.96C10.8945 135.883 9.57594 135.266 8.61778 134.239C7.65962 133.211 7.13616 131.853 7.15684 130.448C7.17752 129.044 7.74075 127.701 8.72874 126.703C9.71672 125.704 11.0527 125.126 12.4571 125.09C15.243 125.302 17.974 125.978 20.5372 127.09C25.1972 129.03 29.5372 132.21 34.1472 133.64C40.5972 135.55 46.9971 137.64 53.4571 139.54C59.9171 141.44 66.3572 143.3 72.8172 145.13C80.5672 147.33 88.3171 149.51 96.0971 151.59C101.287 152.98 106.497 154.25 111.697 155.59C114.417 156.25 117.157 156.8 119.927 157.31C126.287 158.49 132.697 159.42 138.927 160.64C140.444 160.62 141.957 160.798 143.427 161.17C145.287 162.03 146.427 163.66 146.617 166.46C146.615 167.902 146.041 169.284 145.021 170.304C144.001 171.323 142.619 171.897 141.177 171.9C140.234 171.881 139.312 171.612 138.507 171.12V171.12ZM135.977 167.94C135.833 167.439 135.759 166.921 135.757 166.4C135.714 166.92 135.775 167.444 135.937 167.94H135.977Z" fill="#6E0023"/></svg>