<svg width="398" height="174" viewBox="0 0 398 174" fill="none" xmlns="http://www.w3.org/2000/svg"><g clip-path="url(#clip0)"><path d="M85.4916 1.33585C83.3208 0.918397 77.6434 0.166981 75.9736 0.250472L52.7632 0C41.158 0.250472 29.3023 3.67359 19.7844 10.2694C10.2665 16.7816 3.08628 26.383 0.748537 38.8232C-1.25524 49.2595 0.748537 57.6086 5.09005 64.7053C11.4353 75.0581 22.7901 82.5723 33.6439 89.9194C37.6514 92.6746 42.8278 96.0143 47.7538 98.8529C48.5887 99.3539 49.4236 99.7713 50.175 100.189C42.4104 99.0199 34.3118 97.1831 26.2967 96.0977C22.6231 95.5968 19.033 95.2628 15.4429 95.1793C12.9382 95.1793 10.9344 97.1831 10.9344 99.6878C10.9344 102.193 12.9382 104.196 15.4429 104.196C18.699 104.113 22.0387 104.28 25.3783 104.614C33.4769 105.365 41.659 106.868 49.4236 107.703C51.0099 107.87 52.5962 108.287 54.1826 108.788C56.8543 109.623 59.526 110.792 62.1142 111.544C62.1142 111.544 65.3703 112.545 66.4557 112.545C69.4614 112.462 70.3797 110.458 70.2963 108.872C70.2963 107.035 69.2944 104.697 67.3741 102.109C65.7043 99.8548 63.283 97.3501 60.9453 94.6784C59.4425 91.6727 57.4387 88.5001 56.8543 86.1624C56.4368 84.3256 56.6873 80.5685 56.4368 78.3142C56.2698 76.394 55.6019 75.0581 55.0175 74.4737C54.3495 73.8057 53.5146 73.5553 52.5962 73.5553C51.8448 73.5553 50.9264 73.8057 49.841 74.8076C45.8335 78.7317 46.084 83.6576 48.7557 88.8341C49.841 91.0048 51.4274 93.2591 53.1807 95.5133C52.2623 95.0124 51.3439 94.5114 50.4255 94.0105C45.583 91.2553 40.5736 87.9992 36.6495 85.3274C26.4637 78.3977 15.5264 71.468 9.68204 61.7831C6.09194 55.7718 4.50562 48.6751 6.34241 39.825C8.59666 29.2217 15.0254 21.1231 23.458 15.6962C31.974 10.1859 42.5774 7.59765 52.7632 7.76463L75.9736 8.9335C77.226 8.9335 81.15 9.68492 83.1538 10.1024C83.7383 10.3528 84.4062 10.5198 85.0741 10.5198C89.8331 10.5198 89.9166 6.17831 89.8331 5.59387C89.7496 5.3434 89.0817 2.00378 85.4916 1.33585ZM84.5732 1.50283C84.7401 1.50283 84.9906 1.41934 85.1576 1.50283C84.9906 1.41934 84.7401 1.50283 84.5732 1.50283ZM140.762 157.547C139.594 157.547 138.675 158.465 138.675 159.634C138.675 161.387 137.005 162.723 135.586 163.224C134.083 163.809 132.58 163.725 131.996 163.057C127.571 158.131 127.487 144.856 128.823 137.342C129.157 135.589 129.324 133.418 129.408 131.247C129.658 126.989 129.992 122.147 131.745 119.559C132.246 118.891 132.58 118.223 132.914 117.722C134 115.969 134.334 115.384 135.753 115.301C136.003 116.219 136.755 116.887 137.757 116.887C139.093 116.887 139.76 116.136 139.927 115.718C140.345 114.967 140.345 114.132 139.927 113.297C139.427 112.378 137.84 111.043 136.337 111.043C132.163 111.043 130.744 113.297 129.408 115.551C129.074 116.052 128.74 116.636 128.322 117.221C125.901 120.727 125.567 126.154 125.233 130.997C125.066 133.084 124.983 135.088 124.649 136.674C123.229 144.606 123.062 159.551 128.823 165.896C129.992 167.148 131.662 167.816 133.582 167.816C134.668 167.816 135.836 167.566 137.005 167.148C140.512 165.812 142.766 162.89 142.766 159.634C142.85 158.465 141.931 157.547 140.762 157.547ZM121.727 87.9992C120.725 87.4982 119.472 87.9157 118.971 89.001C118.303 90.4204 117.969 92.2572 117.635 93.927C117.468 94.9289 117.302 95.9308 117.051 96.6822C116.55 98.4355 115.715 99.4374 114.713 99.6044C112.96 100.022 110.121 98.4355 108.451 96.6822C107.867 95.7638 107.032 90.6709 107.7 77.1454C108.118 67.7944 109.119 58.36 109.704 55.8553C110.873 50.9293 115.632 46.0868 117.385 46.0868H117.468C117.635 46.0868 118.47 46.9218 118.47 50.2614C118.47 51.4302 119.389 52.3486 120.558 52.3486C121.727 52.3486 122.645 51.4302 122.645 50.2614C122.561 43.8326 120.057 42.1628 117.969 41.9958C114.797 41.6618 111.791 44.5005 110.288 46.2538C108.034 48.842 106.281 52.0982 105.613 54.9369C104.861 58.1095 103.86 68.4623 103.526 77.4793C102.691 96.5987 104.611 98.6025 105.446 99.5209C107.116 101.274 110.539 103.862 114.129 103.862C114.63 103.862 115.131 103.779 115.632 103.695C117.385 103.278 119.806 101.942 121.059 97.9345C121.393 96.9327 121.56 95.7638 121.81 94.6784C122.06 93.2591 122.311 91.7562 122.812 90.7543C123.229 89.669 122.812 88.5001 121.727 87.9992ZM132.163 103.779C133.833 103.779 135.586 103.111 137.005 102.527C137.757 102.193 138.926 101.775 139.427 101.775C140.261 102.443 141.43 102.36 142.182 101.608C143.017 100.773 143.017 99.4374 142.182 98.686C140.345 96.8492 137.59 97.851 135.502 98.686C134.25 99.1869 132.664 99.7713 131.912 99.6044C131.912 98.185 132.664 94.6784 132.998 92.9251C133.415 90.7543 133.666 89.669 133.666 88.9176C133.666 81.7374 134.584 74.4737 135.502 67.4605C136.337 60.8647 137.256 54.1019 137.339 47.3392C137.339 46.1703 136.421 45.2519 135.252 45.2519C134.083 45.2519 133.165 46.1703 133.165 47.3392C133.081 53.8515 132.163 60.5307 131.328 67.043C130.41 74.2232 129.491 81.6539 129.491 89.001C129.491 89.4185 129.157 90.9213 128.907 92.1737C127.571 99.0199 127.32 101.191 128.656 102.443C129.658 103.445 130.91 103.779 132.163 103.779ZM195.95 106.618C197.119 106.618 198.037 105.616 198.037 104.53C197.953 97.5171 201.126 89.7525 204.215 82.1548C204.633 81.1529 205.05 80.151 205.468 79.0657C208.139 78.9822 210.811 78.8987 213.399 78.7317C214.485 78.6482 215.654 78.6482 216.739 78.5647C216.655 80.7355 216.655 82.4053 216.655 83.5741C216.655 84.576 216.655 85.4944 216.655 86.4963C216.572 89.8359 216.572 93.2591 217.073 96.5152C217.24 97.3501 217.323 99.3539 217.407 102.443C217.407 102.527 217.407 102.61 217.407 102.694C217.574 104.781 219.16 104.864 219.494 104.864C219.995 104.864 221.414 104.697 221.581 102.694V102.61C221.581 102.527 221.581 102.443 221.581 102.36C221.581 102.276 221.581 102.193 221.581 102.109C221.498 100.022 221.414 97.2666 221.164 95.9308C220.663 93.0086 220.746 89.7525 220.83 86.6633C220.83 85.6614 220.83 84.6595 220.83 83.6576C220.83 82.5723 220.913 80.7355 220.997 78.4812C221.164 78.4812 221.247 78.4812 221.414 78.4812C222.583 78.4812 223.502 77.4793 223.418 76.3105C223.418 75.1416 222.5 74.3067 221.331 74.3067C221.331 74.3067 221.331 74.3067 221.247 74.3067C221.164 74.3067 221.164 74.3067 221.08 74.3067C221.665 54.2689 221.331 42.7472 218.325 39.825C216.906 38.4057 214.735 39.4076 213.984 40.159C213.984 40.159 213.984 40.159 213.9 40.2425C209.141 44.918 207.221 56.3562 206.052 63.1189L205.969 63.7869C205.384 67.4605 204.048 71.2175 202.545 75.1416C201.544 75.3086 200.792 76.1435 200.792 77.2289C200.792 77.7298 200.959 78.1473 201.21 78.4812C200.876 79.2326 200.625 79.984 200.291 80.7355C197.035 88.6671 193.695 96.9327 193.779 104.781C193.862 105.699 194.781 106.618 195.95 106.618ZM210.143 64.2878L210.227 63.6199C211.062 58.5269 212.815 48.4246 216.071 43.9996C217.574 49.176 217.156 65.7906 216.906 74.3902C215.654 74.4737 214.401 74.5572 213.149 74.5572C211.145 74.6407 209.141 74.8076 207.054 74.8076C208.473 71.301 209.559 67.7109 210.143 64.2878ZM150.364 103.695C151.533 103.695 152.451 102.777 152.451 101.608C152.451 91.8397 153.536 81.7374 154.538 71.9689C155.373 63.7869 156.292 55.2708 156.542 47.0052C156.542 45.8364 155.707 44.918 154.538 44.8345C153.453 44.751 152.451 45.6694 152.368 46.8383C152.117 55.0203 151.199 63.4529 150.364 71.5515C149.362 81.4034 148.277 91.5892 148.277 101.608C148.277 102.777 149.195 103.695 150.364 103.695ZM161.385 106.952C162.553 106.952 163.472 106.033 163.472 104.864C163.388 97.0996 164.557 89.168 165.643 81.4869C166.728 74.0562 167.813 66.4586 167.813 58.9444C167.813 58.5269 168.064 56.5232 168.398 54.1854C168.899 56.4397 169.149 58.7774 169.483 61.1987C169.901 64.7053 170.318 68.3788 171.487 71.802C171.57 72.0524 171.821 72.8039 172.071 73.7223C174.159 80.652 174.159 80.7355 175.494 81.0694C176.162 81.2364 176.997 81.0694 177.498 80.5685C179.669 78.3977 183.176 66.7925 185.012 60.3637C185.012 67.043 184.678 73.9727 184.428 80.652C184.178 87.9992 183.844 95.5968 183.844 102.944C183.844 104.113 184.762 105.031 185.931 105.031C187.1 105.031 188.018 104.113 188.018 102.944C188.018 95.6803 188.269 88.0826 188.603 80.819C188.853 73.5553 189.187 66.0411 189.187 58.7774C189.187 58.026 189.354 56.6067 189.604 55.1038C190.439 49.0925 190.773 44.6675 188.603 42.4967C188.102 41.9958 187.183 41.7453 186.515 41.9958C185.096 42.4133 184.845 42.4967 182.591 53.434C182.424 54.2689 182.257 54.8534 182.257 55.1038C181.005 60.0298 178.417 68.6293 176.58 73.7223C176.496 73.3048 176.329 72.9708 176.246 72.6369C175.912 71.635 175.745 70.8001 175.578 70.5496C174.576 67.5439 174.159 64.2043 173.741 60.7812C173.157 56.1057 172.572 51.3468 170.402 46.9218C170.402 46.8383 170.402 46.7548 170.318 46.7548C170.068 45.8364 169.65 43.8326 167.73 43.8326C165.893 43.8326 165.643 45.3354 165.309 47.4227C165.142 48.5916 164.891 50.0944 164.641 51.6807C164.557 52.3486 163.806 57.859 163.806 58.9444C163.806 66.2081 162.72 73.3048 161.635 80.9024C160.466 88.7506 159.297 96.7657 159.381 104.948C159.297 106.033 160.216 106.952 161.385 106.952ZM268.503 107.703C269.672 107.703 270.59 106.785 270.59 105.616C270.59 104.447 269.672 103.528 268.503 103.528C267.334 103.528 265.664 103.862 263.661 104.28C261.824 104.697 258.234 105.449 256.564 105.282C256.647 101.191 257.733 87.9157 257.983 86.5798C258.568 84.4091 258.902 80.2345 259.319 75.0581C259.486 75.0581 259.653 75.0581 259.82 75.0581C263.076 75.0581 266.082 74.5572 269.088 74.1397C272.093 73.7223 274.848 73.2213 277.938 73.2213C279.106 73.2213 280.025 72.3029 280.025 71.134C280.025 69.9652 279.106 69.0468 277.938 69.0468C274.598 69.0468 271.509 69.5477 268.503 69.9652C265.581 70.3826 262.826 70.8001 259.904 70.8001C259.904 70.8001 259.82 70.8001 259.737 70.8001C260.321 62.952 261.323 50.0944 262.659 48.3411C263.577 47.5897 267.585 47.1722 274.598 47.0887C275.349 47.0887 275.934 47.0887 276.351 47.0887C277.52 47.0887 278.438 46.0868 278.355 44.918C278.272 43.7491 277.353 42.8307 276.184 42.9142C275.767 42.9142 275.182 42.9142 274.514 42.9142C266.666 42.9142 261.74 43.3317 259.653 45.3354C257.482 47.5062 256.647 55.1038 255.479 70.6331C254.978 76.9784 254.56 83.0732 253.976 85.4109C253.642 86.6633 252.974 96.0143 252.89 96.4317C252.055 107.119 252.222 107.285 253.057 108.037C253.976 108.955 255.312 109.289 257.065 109.289C259.069 109.289 261.49 108.788 264.496 108.204C266.082 108.037 267.752 107.703 268.503 107.703ZM276.017 138.01C275.767 138.01 275.516 138.01 275.433 138.01C273.346 138.01 271.091 137.843 268.837 137.676C267.585 137.593 266.416 137.509 265.247 137.426C265.414 123.566 266.082 115.802 267.251 114.048C268.503 113.547 273.346 113.881 275.182 114.048C276.435 114.132 277.437 114.215 278.021 114.215C279.19 114.215 280.108 113.213 280.108 112.128C280.108 110.959 279.19 110.041 278.021 110.041C277.604 110.041 276.602 109.957 275.6 109.874C270.173 109.456 266.249 109.289 264.496 110.959C262.575 112.879 261.323 118.473 261.156 138.344C260.989 138.678 260.905 139.012 260.905 139.346C260.905 139.68 260.989 140.097 261.156 140.348C261.156 145.023 261.156 150.367 261.239 156.628C261.239 158.799 261.323 160.553 261.323 161.721C261.323 162.055 261.323 162.389 261.323 162.89C261.156 167.9 261.323 170.571 262.742 171.907C263.744 172.826 265.915 173.16 268.086 173.16C270.841 173.16 273.68 172.659 274.347 172.408C275.767 171.824 275.934 170.738 275.934 170.321C275.934 169.653 275.6 168.651 274.598 168.15C273.763 167.733 272.678 167.983 272.093 168.651C270.423 168.985 266.917 169.069 265.664 168.818C265.33 167.566 265.414 164.143 265.497 162.974C265.497 162.473 265.497 161.972 265.497 161.721C265.497 160.553 265.497 158.799 265.414 156.545C265.33 151.035 265.33 146.025 265.33 141.517C266.416 141.6 267.418 141.684 268.587 141.767C270.841 141.934 273.179 142.185 275.516 142.185C275.683 142.185 275.85 142.185 276.184 142.185C278.522 142.101 279.691 142.185 280.275 142.185C280.609 142.435 281.027 142.519 281.444 142.519C281.945 142.519 282.53 142.352 282.947 141.934C283.615 141.266 283.782 140.348 283.448 139.513C282.613 137.927 281.11 137.927 276.017 138.01ZM254.477 130.245C251.721 130.245 248.716 130.412 245.794 130.663C242.788 130.83 239.949 131.08 237.612 130.997C236.443 130.997 235.524 131.915 235.524 133.084C235.524 134.253 236.443 135.171 237.612 135.171C237.779 135.171 237.946 135.171 238.196 135.171C239.782 135.171 241.536 135.088 243.456 135.004C243.456 135.088 243.456 135.171 243.456 135.255C243.456 135.756 243.623 136.173 243.873 136.507C243.873 136.925 243.873 137.426 243.79 137.76C243.79 138.094 243.79 138.344 243.79 138.511C243.79 140.849 243.957 143.437 244.207 146.109C244.792 153.456 245.376 161.721 241.703 166.564C241.202 167.232 240.367 167.733 240.033 167.816C232.769 160.636 232.018 128.242 237.445 119.392C239.114 116.636 241.87 113.464 245.376 114.132C247.547 114.549 248.966 116.219 249.3 117.054C248.966 117.805 249.05 118.807 249.718 119.392C250.553 120.227 251.888 120.227 252.64 119.392C253.558 118.473 253.725 117.137 253.224 115.718C252.306 113.13 249.133 110.291 245.293 109.874C242.287 109.54 237.862 110.542 233.854 117.137C230.264 123.065 229.429 135.589 229.763 144.439C230.014 150.45 231.266 164.978 237.111 170.738C237.862 171.49 238.864 171.907 239.949 171.907C240.033 171.907 240.116 171.907 240.283 171.907C242.287 171.74 244.124 170.321 245.042 169.069C249.718 162.89 249.05 153.79 248.465 145.775C248.298 143.186 248.048 140.682 248.048 138.511C248.048 138.428 248.048 138.261 248.048 138.01C248.131 136.674 248.131 135.589 247.797 134.67C250.135 134.503 252.556 134.42 254.644 134.42C255.813 134.42 256.731 133.502 256.731 132.333C256.731 131.164 255.646 130.245 254.477 130.245ZM174.493 135.505C174.493 134.336 173.574 133.418 172.405 133.418H169.567C169.817 127.49 170.068 121.312 170.235 115.301C170.235 114.132 169.316 113.213 168.231 113.13C167.062 113.046 166.144 114.048 166.06 115.134C165.893 121.228 165.643 127.407 165.392 133.335H155.373C155.624 127.073 155.874 120.727 155.958 114.382C155.958 113.213 155.039 112.295 153.954 112.211C153.954 112.211 153.954 112.211 153.87 112.211C152.702 112.211 151.783 113.13 151.783 114.215C151.616 120.561 151.366 126.989 151.199 133.251C147.358 133.251 143.434 133.251 139.594 133.251C138.425 133.251 137.506 134.169 137.506 135.338C137.506 136.507 138.425 137.426 139.594 137.426C142.098 137.426 144.603 137.426 147.108 137.426C148.444 137.426 149.779 137.426 151.115 137.426C150.781 146.61 150.447 156.128 150.447 165.562C150.447 166.731 151.366 167.649 152.535 167.649C153.703 167.649 154.622 166.731 154.622 165.562C154.622 156.128 154.956 146.693 155.29 137.426H165.225C164.891 145.691 164.557 154.124 164.557 162.473C164.557 163.642 165.476 164.56 166.644 164.56C167.813 164.56 168.732 163.642 168.732 162.473C168.732 154.124 169.066 145.608 169.4 137.426H172.405C173.574 137.593 174.493 136.674 174.493 135.505ZM392.988 61.2821C386.726 50.1779 375.121 42.0793 362.848 35.567C361.345 34.7321 359.675 33.9807 358.089 33.3128C352.077 30.7246 345.732 28.9713 340.222 26.0491C339.554 25.7151 336.715 24.9637 334.962 25.0472C332.791 25.1307 331.455 26.2996 330.787 27.218C330.119 28.0529 329.869 29.1382 329.952 30.3906C330.036 31.2255 330.286 32.4779 331.706 33.8972C333.208 35.4 335.546 35.6505 337.299 34.5651C338.552 35.1496 339.888 35.6505 341.14 36.1515C347.068 38.3222 353.497 39.825 359.341 42.5802C370.612 48.0071 381.633 54.7699 387.561 64.5383C391.318 70.7166 393.071 78.0638 391.735 87.0808C390.066 97.6841 383.637 104.196 375.288 108.287C362.096 114.8 344.313 115.217 331.539 115.217C330.954 115.217 328.95 115.468 326.863 115.551C328.449 114.132 330.203 112.629 332.123 111.21C333.626 110.458 335.045 109.79 336.548 109.039C338.719 107.953 340.806 106.785 342.81 105.532C343.478 105.115 344.313 104.363 345.148 103.612C346.4 102.276 347.569 100.773 347.569 100.773C348.571 99.5209 348.487 97.7676 347.318 96.5987C346.233 95.4298 344.48 95.2628 343.144 96.1812L340.055 98.352C337.8 99.7713 335.379 101.441 333.041 103.194C328.366 105.365 323.356 107.369 318.848 109.54C318.264 109.79 314.173 111.126 312.837 111.877C309.247 113.965 310.582 117.137 311.668 118.306C315.091 121.98 331.121 130.997 337.55 135.004C337.884 135.255 338.301 135.505 338.635 135.672C339.47 136.841 340.806 137.509 342.309 137.509C344.814 137.426 345.899 136.09 346.4 135.171C346.984 134.169 347.903 131.915 345.648 129.661C345.231 129.244 344.062 128.325 342.142 127.24C339.303 125.653 334.544 123.149 329.869 120.644C330.787 120.561 331.455 120.477 331.706 120.477C345.231 120.477 363.849 119.726 377.792 112.879C387.728 108.037 395.242 100.272 397.413 87.7487C399.166 77.3958 397.162 68.7128 392.988 61.2821ZM342.142 128.492C341.056 128.492 340.055 128.91 339.303 129.494C339.888 128.993 340.806 128.492 342.142 128.492ZM231.934 44.5005C232.936 44.3335 236.276 43.9996 239.866 43.8326C239.448 52.6826 238.53 61.7831 237.612 70.5496C236.443 81.9878 235.19 93.8435 235.19 105.282C235.19 106.451 236.109 107.369 237.278 107.369C238.446 107.369 239.365 106.451 239.365 105.282C239.365 94.094 240.617 82.3218 241.786 71.0505C242.704 62.0336 243.706 52.7661 244.04 43.5821C246.629 43.4151 249.05 43.3317 250.553 43.3317C251.721 43.3317 252.64 42.3298 252.556 41.2444C252.556 40.0755 251.638 39.1571 250.469 39.1571C250.469 39.1571 250.469 39.1571 250.386 39.1571C248.799 39.1571 245.627 39.3241 242.204 39.4911C242.12 39.4911 242.12 39.4911 242.037 39.4911C241.87 39.4911 241.703 39.4911 241.536 39.5746C240.701 39.6581 239.866 39.6581 239.031 39.7416C236.61 39.9085 234.606 40.0755 233.187 40.2425C230.849 40.493 228.845 40.66 228.845 42.7472C228.845 43.9161 229.763 44.8345 230.932 44.8345C231.266 44.751 231.6 44.6675 231.934 44.5005ZM195.866 143.771C195.866 143.27 195.866 142.686 195.866 142.185C195.95 138.845 196.033 135.338 195.783 131.999C195.699 131.414 195.783 130.078 195.783 128.659C196.033 120.727 195.95 114.633 192.861 112.879C192.276 112.545 191.525 112.545 190.94 112.796C190.022 113.213 189.604 113.631 187.684 119.308C186.849 121.813 185.931 124.735 185.764 125.57C184.595 130.579 183.259 136.591 181.673 142.853C181.339 142.769 181.005 142.602 180.754 142.519C179.753 141.934 178.5 142.352 177.916 143.353C177.331 144.355 177.749 145.608 178.751 146.192C179.335 146.526 179.919 146.693 180.671 146.944C178.5 154.792 175.995 162.64 173.073 169.069C172.572 170.154 173.073 171.323 174.075 171.824C174.326 171.991 174.66 171.991 174.91 171.991C175.661 171.991 176.496 171.573 176.83 170.738C179.92 163.976 182.508 155.71 184.762 147.528C186.599 147.695 188.686 147.695 190.773 147.611C191.107 147.611 191.358 147.611 191.692 147.611C191.692 151.369 192.109 155.126 192.443 158.716C192.777 162.389 193.195 165.896 193.195 169.403C193.195 170.571 194.113 171.49 195.282 171.49C196.451 171.49 197.369 170.571 197.369 169.403C197.369 165.645 197.035 161.888 196.618 158.298C196.284 154.959 195.95 151.452 195.866 147.945H195.95C196.701 147.945 197.453 147.528 197.786 146.944C198.204 146.276 198.204 145.524 197.786 144.856C197.369 144.188 196.952 143.938 195.866 143.771ZM191.775 142.101C191.775 142.519 191.775 143.019 191.775 143.437C191.441 143.437 191.107 143.437 190.773 143.437C189.521 143.437 187.684 143.437 185.931 143.353C187.517 137.259 188.853 131.331 189.938 126.488C190.105 125.653 190.94 123.065 191.692 120.727C191.859 123.566 191.775 126.989 191.692 128.492C191.608 130.162 191.608 131.414 191.692 132.249C191.859 135.505 191.775 138.845 191.775 142.101ZM225.923 110.041C225.505 109.54 224.837 109.289 224.253 109.289C223.084 109.289 222.166 110.208 222.166 111.377C222.166 111.794 222.333 112.295 222.583 112.629C222.667 113.714 222.667 117.889 220.746 133.251C220.329 136.424 220.579 141.266 220.83 146.526C220.997 149.198 221.08 152.036 221.164 154.792C220.913 153.873 220.663 153.038 220.329 152.12C218.91 147.528 217.824 142.853 216.822 138.344C215.987 134.67 215.153 130.913 214.067 127.24C213.733 125.987 213.566 124.735 213.316 123.399C213.065 121.729 212.815 119.976 212.23 118.223L212.147 117.972C211.896 116.636 211.562 114.8 209.642 114.967C209.058 115.05 208.139 115.384 207.889 116.469C207.304 117.137 207.054 118.306 206.72 119.559C206.47 120.811 206.052 122.481 205.718 124.568C204.967 128.325 204.299 132.333 204.132 133.669C202.963 144.021 202.963 154.792 203.046 165.312V169.403C203.046 170.571 203.965 171.49 205.134 171.49C206.303 171.49 207.221 170.571 207.221 169.403V165.312C207.221 154.959 207.137 144.272 208.306 134.169C208.473 133.001 209.058 129.661 209.642 126.321C209.809 126.989 209.893 127.657 210.06 128.325C211.062 131.915 211.896 135.672 212.731 139.262C213.817 143.854 214.902 148.613 216.321 153.372C217.574 157.463 218.826 161.721 219.578 165.478C219.661 166.063 219.995 167.649 221.665 167.9C221.748 167.9 221.832 167.9 221.915 167.9C222.75 167.9 223.502 167.399 223.836 166.731C225.756 162.974 225.338 154.875 224.921 146.359C224.671 141.35 224.42 136.674 224.754 133.836C227.593 111.877 226.758 110.959 225.923 110.041Z" fill="#6E0023"/></g><defs><clipPath id="clip0"><rect width="398" height="173.16" fill="#fff"/></clipPath></defs></svg>