<svg width="450" height="154" viewBox="0 0 450 154" fill="none" xmlns="http://www.w3.org/2000/svg"><g clip-path="url(#clip0)"><path fill-rule="evenodd" clip-rule="evenodd" d="M9.06231 3.08909C9.23757 -0.465653 12.1293 -0.465653 14.583 0.488058C16.4232 0.314656 18.0005 0.834872 18.1758 2.82899C18.1758 2.9157 18.2634 3.00239 18.2634 3.08909C18.2634 3.52259 18.2634 3.95609 18.0882 4.30289C17.8253 6.12362 17.2995 10.1119 16.949 11.3257C16.5108 12.8863 15.985 14.3602 15.4593 15.8341C14.2325 19.0421 12.8304 22.1633 11.6036 25.3712C10.3768 29.3595 8.36128 35.5153 7.13446 42.2779C6.08291 47.9135 5.4695 53.9826 5.99528 59.2713C6.52106 64.3867 8.01076 68.7217 11.5159 70.6291C12.7428 71.3227 14.2325 71.4095 16.0727 71.2361C18.6139 71.2361 20.717 73.3169 20.717 75.8312C20.717 78.3455 18.6139 80.4264 16.0727 80.4264C6.69632 79.7328 1.96433 74.3573 0.562254 66.034C-0.0511523 62.6527 -0.138782 58.8378 0.124107 54.8496C0.386995 51.3815 0.737508 47.7401 1.35091 44.272C1.96432 40.7173 2.66536 37.1626 3.36639 33.9546C4.24269 29.9664 5.03135 26.4117 5.73239 23.7239C6.43342 20.3426 7.57261 17.048 8.36127 13.7533C8.71179 12.4528 8.88705 11.0656 9.06231 9.76507C9.14994 8.72466 9.06231 5.16992 9.06231 3.6093V3.52259C9.06231 3.43589 9.06231 3.3492 9.06231 3.2625C9.06231 3.1758 9.06231 3.17579 9.06231 3.08909Z" fill="#6E0023"/><path fill-rule="evenodd" clip-rule="evenodd" d="M43.3653 13.7859C42.9632 14.3549 42.6415 15.0052 42.2394 15.7367C41.6765 17.0373 41.1135 18.5817 40.631 20.1261C39.1835 25.0031 38.3793 30.4491 38.3793 31.6684C38.8618 45.1615 34.3583 59.061 32.9911 72.8792C32.6695 76.1306 32.589 79.3006 32.7499 82.552C32.7499 85.0718 30.7394 87.1851 28.2464 87.2664C25.6729 87.2664 23.582 85.2343 23.582 82.7145C23.6625 79.0568 24.0645 75.399 24.7079 71.8225C27.0401 58.4107 32.2674 44.9989 32.6695 31.7496C32.6695 29.555 35.0016 16.387 38.7814 10.941C40.9527 7.77093 43.6065 6.79553 46.3408 8.17736C46.9037 8.50249 48.0296 9.64047 48.5121 11.9164C49.2359 15.249 49.7184 22.4833 50.0401 31.0994C50.2814 35.7326 50.3618 40.7721 50.5226 45.8117C51.0052 61.5808 50.8443 77.2685 49.7184 81.1701C49.638 81.5766 49.5576 84.0964 49.4772 85.3156C49.9597 86.0472 50.201 86.9413 50.201 87.8354C50.201 90.3552 48.11 92.4686 45.617 92.4686C43.6065 92.3873 41.5156 91.5745 40.7114 88.6482C40.4702 87.7541 40.3093 86.3723 40.3897 84.9092C40.5506 82.3081 41.2744 79.2193 41.5156 78.4878C42.6415 75.4803 43.6065 64.3444 44.0891 52.0706C44.3303 47.1123 44.4107 41.9914 44.4107 37.1144C44.4107 27.9293 44.0086 19.5571 43.4457 14.9239C43.6065 14.5175 43.5261 14.1111 43.3653 13.7859ZM46.9842 83.3648C46.5821 83.2835 46.18 83.2022 45.7779 83.2022C46.18 83.2022 46.6625 83.2835 46.9842 83.3648Z" fill="#6E0023"/><path fill-rule="evenodd" clip-rule="evenodd" d="M53.7397 45.9741C51.3271 46.5431 49.0754 47.2747 46.5824 47.6811C44.974 47.9249 43.446 47.9249 41.8376 47.9249C40.2292 47.9249 38.6208 47.8436 37.0928 47.5998C34.5998 47.2747 32.3481 46.5431 29.9355 45.9741C27.3621 45.9741 25.3516 48.0062 25.3516 50.6073C25.3516 53.2084 27.4425 55.2405 29.9355 55.2405C32.3481 54.6715 34.5998 54.0212 37.0928 53.6148C38.7012 53.3709 40.2292 53.2897 41.8376 53.2897C43.446 53.2897 45.0544 53.3709 46.5824 53.5335C49.0754 53.8586 51.2467 54.5902 53.7397 55.1592C56.3132 55.1592 58.3236 53.1271 58.3236 50.526C58.3236 48.0062 56.2327 45.9741 53.7397 45.9741Z" fill="#6E0023"/><path fill-rule="evenodd" clip-rule="evenodd" d="M64.2758 97.183C64.8388 97.9145 65.1605 98.8899 65.1605 99.8653C65.1605 102.385 63.0695 104.499 60.5765 104.499C58.4856 104.336 56.3947 103.523 55.7513 100.841C55.5101 99.9466 55.2688 98.4835 55.5101 96.8579C55.8318 94.5819 56.4751 91.8183 56.7164 91.0867C58.1639 85.3969 59.8528 79.5444 61.059 73.4481C62.2653 67.5957 63.2304 61.5807 64.0346 55.5657C64.6779 50.77 65.1605 45.9742 65.3213 41.1785C65.643 33.7817 65.4017 26.5474 64.9996 19.6383C64.9996 17.1185 67.0905 15.0864 69.664 15.0864C72.2374 15.0864 74.2479 17.1998 74.2479 19.7196C73.8458 24.5153 73.2024 29.4736 72.4787 34.4319C71.9157 38.2523 71.3528 42.1539 70.7898 46.0555C69.9856 51.8267 69.1814 57.6791 68.2968 63.4502C67.573 68.3273 66.9297 73.2043 66.2863 77.9187C65.643 82.877 65.08 87.7541 64.5171 92.4685C64.3563 93.1188 64.2758 95.7199 64.2758 97.183ZM61.622 95.3135C61.3003 95.2322 60.8982 95.1509 60.5765 95.1509C60.8982 95.2322 61.2199 95.2322 61.622 95.3135Z" fill="#6E0023"/><path fill-rule="evenodd" clip-rule="evenodd" d="M70.6274 67.1894C70.4665 68.0022 69.984 68.7338 69.4211 69.3028C67.5714 71.091 64.6763 71.091 62.9071 69.3028C62.4246 68.6525 60.3336 65.4824 63.1483 62.3124C64.8371 60.3615 69.5819 56.2974 70.6274 54.9155C72.6379 52.2332 74.6484 49.2257 76.1763 45.893C77.7043 42.5604 78.7498 39.0652 79.4735 35.7326C80.1169 31.6684 79.7952 28.5796 78.7498 26.3849C77.7847 24.2716 76.0155 23.2962 74.5679 23.3775C74.4071 23.3775 74.3267 23.6213 74.3267 23.6213C74.3267 23.6213 74.5679 23.6213 74.7288 23.6213C74.8896 23.6213 74.8896 23.8651 74.8896 24.0277C74.97 26.5475 72.9595 28.7422 70.3861 28.7422C67.8127 28.8234 65.7218 26.7913 65.6413 24.2716C65.8826 20.3699 67.491 17.7689 69.984 16.5496C71.1099 15.9806 72.3966 15.4929 73.7637 15.4929C75.9351 15.4929 78.2672 16.0619 80.3582 17.7689C82.6099 19.6384 84.7008 22.6459 85.2638 27.1978C85.5854 29.7989 85.6659 32.8876 84.8617 36.6267C84.1379 40.2845 82.9316 44.1048 81.484 47.8438C80.0365 51.6642 78.5085 55.4032 76.6588 58.5733C75.6938 60.2803 72.2358 64.7509 70.6274 67.1894ZM69.5015 62.8813C69.5015 62.8 69.5015 62.8 69.5015 62.8813V62.8813Z" fill="#6E0023"/><path fill-rule="evenodd" clip-rule="evenodd" d="M78.508 57.1914C77.7842 57.7604 76.8192 58.0855 75.7737 58.0855C73.2003 58.0855 71.1094 56.0534 71.1094 53.5336C71.4311 50.0384 72.8786 48.3315 74.487 47.7625C75.6129 47.3561 76.8192 46.9497 78.1863 47.3561C79.2318 47.6812 80.5989 48.2502 81.7248 49.3069C83.6549 51.0951 85.3437 53.7775 85.5849 55.7283C85.6653 56.6224 84.6199 62.231 83.5744 69.384C83.0115 73.2856 82.6898 77.6749 82.529 81.9017C82.4486 83.6899 82.4486 85.4782 82.529 87.1038C82.6898 89.9488 84.1374 92.6311 84.7807 94.6632C86.55 93.2001 89.2842 93.2814 90.973 94.9883C92.8227 96.7766 92.8227 99.7028 90.973 101.491C86.0674 105.555 82.6094 105.474 80.4381 103.848C78.9905 102.792 77.4625 100.922 76.98 97.8333C76.4975 95.0696 76.4975 91.168 76.7388 86.7787C76.8996 83.5273 77.1409 79.9509 77.4625 76.4557C77.7842 72.8792 78.1059 69.3027 78.2667 66.2139C78.508 61.5807 78.6688 58.0855 78.508 57.1914ZM80.4381 53.5336C80.4381 53.5336 80.4381 53.4524 80.4381 53.3711V53.5336Z" fill="#6E0023"/><path fill-rule="evenodd" clip-rule="evenodd" d="M121.615 68.1649C121.696 68.7338 121.857 69.3841 121.937 69.9531C123.304 79.2194 122.259 93.7692 119.283 103.361C118.077 107.1 116.629 110.107 114.941 111.977C113.413 113.602 111.724 114.415 109.955 114.578C107.944 114.659 105.692 113.928 103.36 111.489C97.4895 105.555 94.6748 94.2569 93.7901 81.7392C93.2272 74.2611 93.3881 66.2953 93.7901 58.8985C94.3531 49.9573 95.3985 41.8289 96.6853 36.0578C98.2132 28.9048 103.119 26.2225 108.105 26.4663C112.287 26.6289 116.951 29.3112 120.329 33.9444C120.892 34.676 122.259 37.3583 122.902 39.2279C123.224 40.2845 123.304 41.2599 123.304 41.9915C123.224 43.5359 122.5 44.5926 121.776 45.3241C120.972 46.137 119.766 46.6247 118.318 46.7059C115.745 46.6247 113.734 44.5113 113.815 41.9915V41.7476C113.252 41.1786 113.252 39.1466 113.01 38.7402C111.563 36.3829 109.633 34.5947 107.542 34.4321C105.853 34.2695 104.406 35.4075 103.762 37.7647C102.315 43.1295 100.706 50.8514 99.8216 59.3049C99.0979 66.4579 98.7762 74.0986 99.1783 81.3328C99.8216 92.3874 102.073 102.467 107.22 107.669C108.024 108.482 108.748 109.051 109.472 109.051C110.115 109.132 110.517 108.563 111 107.994C112.85 105.718 114.136 101.41 114.941 96.3703C116.147 88.8922 116.147 80.0323 115.101 73.2857C114.78 71.4162 114.458 69.7093 114.056 68.3274C112.126 68.1649 111 67.4333 110.357 66.6205C109.231 65.2386 108.829 63.5317 109.472 61.906C110.115 60.1991 111.885 58.4921 114.297 58.5734C115.343 58.5734 116.629 58.8172 117.836 59.8739C120.731 59.5488 123.706 58.9798 126.762 58.736C127.969 58.6547 129.094 58.5734 130.22 58.4921C132.794 58.4921 134.804 60.5242 134.804 63.1253C134.804 65.6451 132.713 67.7584 130.22 67.7584L121.615 68.1649ZM116.951 37.6022C117.353 37.4396 117.836 37.4396 118.318 37.4396C117.836 37.3583 117.434 37.4396 116.951 37.6022Z" fill="#6E0023"/><path fill-rule="evenodd" clip-rule="evenodd" d="M186.917 38.5776C186.434 37.846 186.193 37.0332 186.193 36.0578C186.193 33.6193 188.203 31.6685 190.616 31.6685C191.903 31.831 193.35 32.0749 194.315 33.538C194.717 34.1883 195.441 35.7327 195.361 38.0086C195.2 43.5359 192.626 57.4354 192.224 59.0611C191.661 62.2311 191.34 65.4012 191.259 68.6526C191.179 72.5542 191.259 76.4558 191.42 80.3574C191.581 84.4216 191.742 88.4858 191.42 92.4687C191.34 94.2569 191.501 103.198 191.983 107.669C192.948 108.969 193.109 110.676 192.385 112.221C190.455 115.472 187.962 115.228 186.675 114.659C185.871 114.334 184.665 113.846 184.102 112.383C183.941 111.896 183.539 110.92 183.539 109.376C183.539 105.23 184.987 93.8505 185.308 91.8184C185.63 89.705 185.871 87.5917 186.032 85.397C186.273 81.0077 186.113 76.4558 186.113 72.0665C186.032 67.4333 186.032 62.7188 186.756 58.167C186.917 56.6226 187.48 43.7797 186.917 38.5776ZM185.147 107.344C184.906 107.587 184.665 107.913 184.504 108.319C184.665 107.994 184.906 107.669 185.147 107.344ZM189.812 40.4471C190.053 40.5284 190.375 40.5284 190.616 40.5284C190.294 40.5284 190.053 40.5284 189.812 40.4471Z" fill="#6E0023"/><path fill-rule="evenodd" clip-rule="evenodd" d="M203.562 35.001C203.402 35.0823 203.241 35.1635 203.08 35.2448C202.356 35.8951 201.713 36.7079 201.069 37.6833C199.461 39.9593 198.094 42.7229 198.255 44.186C198.335 46.6245 196.405 48.6566 193.912 48.7379C191.499 48.8192 189.409 46.8684 189.328 44.4299C189.328 42.9668 189.891 40.6908 191.097 38.3336C192.947 34.8384 195.923 30.8555 198.818 28.986C201.311 27.3603 203.723 26.8726 205.734 27.6854C207.101 28.2544 208.468 29.2298 209.353 31.2619C210.398 33.5379 210.961 36.2202 211.202 38.9026C211.444 42.6416 211.041 46.5433 210.157 49.8759C209.674 51.8267 209.031 53.6962 208.307 55.5658C207.262 58.3294 206.055 60.9305 204.849 63.4503C204.769 63.6941 204.125 64.5882 203.321 65.8075C204.286 66.6203 205.09 68.0022 205.653 69.6279C206.538 71.9851 207.02 75.1551 207.342 78.0814C208.227 84.3402 208.79 90.5991 209.755 96.8579C210.398 100.922 211.122 104.905 212.167 108.888C212.73 111.001 214.741 117.016 215.786 119.699C216.349 120.43 216.671 121.324 216.671 122.381C216.59 124.901 215.143 125.957 214.58 126.283C213.615 126.852 212.569 127.177 211.444 126.852C210.881 126.689 210.157 126.526 209.513 125.957C209.272 125.795 208.307 124.819 207.664 122.787C206.86 119.942 205.171 112.952 204.769 110.595C204.206 107.343 203.804 104.092 203.482 100.922C202.758 93.5253 202.517 86.2097 201.954 78.8129C201.713 76.2931 201.472 73.5295 200.748 71.4974C200.587 71.0097 200.426 70.6032 200.185 70.1968C199.059 71.5786 198.013 72.8792 197.209 73.6107C196.164 74.6674 195.118 74.9926 194.636 74.9926C193.751 75.0739 193.108 74.7487 192.545 74.1797C191.902 73.5295 191.499 72.5541 191.66 71.3348C191.821 70.1968 192.706 68.7337 193.108 68.3273C194.797 66.6203 196.244 65.5637 197.611 65.076C198.898 63.2877 200.024 61.7433 200.185 61.4182C201.23 58.9797 202.356 56.3786 203.321 53.6962C203.884 51.9893 204.367 50.2823 204.688 48.6566C205.09 46.2994 205.332 43.6983 205.09 41.016C204.93 38.9026 204.447 36.7892 203.562 35.001ZM208.227 120.837C208.066 121.243 207.905 121.731 207.986 122.381C207.905 121.812 208.066 121.324 208.227 120.837Z" fill="#6E0023"/><path fill-rule="evenodd" clip-rule="evenodd" d="M227.767 125.876C228.009 125.47 228.572 124.576 228.893 124.088C229.617 122.869 230.341 121.731 230.984 120.918C232.673 119.211 235.488 119.13 237.257 120.918C239.026 122.625 239.026 125.47 237.257 127.177C236.051 128.233 234.925 130.672 233.316 132.054C231.788 133.354 230.1 134.248 228.169 134.086C225.998 134.005 223.988 133.192 222.46 131.322C220.127 128.64 218.439 123.356 217.715 116.447C217.313 112.302 217.072 107.587 216.991 102.548C216.911 95.9638 216.991 88.8108 217.232 81.983C217.474 75.8867 217.795 70.0343 218.037 64.9134C218.519 56.6225 218.921 50.1198 219.323 47.6C219.806 44.1048 220.53 38.8214 222.54 35.57C224.148 33.0502 226.481 31.6684 229.697 31.5058C230.502 31.4245 231.788 31.3433 232.834 31.4245C233.799 31.5058 234.683 31.831 235.407 32.1561C237.257 33.0502 238.302 34.6759 238.463 37.1957C238.463 39.6342 236.533 41.6663 234.04 41.6663C232.512 41.6663 231.225 40.9347 230.421 39.7968L229.697 39.7155C228.652 39.6342 228.33 40.7722 227.928 41.8288C226.963 44.1048 226.481 46.8684 225.998 48.9005C225.516 50.8513 224.711 55.2407 223.988 61.1744C223.505 64.9134 223.103 69.2215 222.781 73.7734C222.218 81.8205 221.977 90.7616 222.299 99.0526C222.62 107.994 223.746 116.203 225.516 121.731C225.998 123.275 226.641 124.494 227.285 125.47C227.446 125.551 227.606 125.714 227.767 125.876ZM228.089 126.12C228.169 126.201 228.25 126.201 228.25 126.201C228.25 126.201 228.169 126.12 228.089 126.12ZM229.697 37.4395C229.697 37.3582 229.697 37.277 229.697 37.1957C229.697 37.277 229.697 37.3582 229.697 37.4395Z" fill="#6E0023"/><path fill-rule="evenodd" clip-rule="evenodd" d="M235.168 72.8792C233.238 73.5294 231.79 74.261 230.021 74.83C228.976 75.1551 227.85 75.3177 226.804 75.399C225.759 75.4802 224.714 75.4802 223.668 75.3177C222.221 75.0738 221.014 74.261 219.486 73.5294C217.074 73.2043 214.822 74.83 214.5 77.2685C214.179 79.707 215.867 81.9016 218.28 82.3081C220.451 81.9829 222.06 81.4952 223.909 81.0888C224.633 80.9262 225.276 80.8449 226 80.7637C226.965 80.6011 228.011 80.5198 229.056 80.5198C229.941 80.5198 230.745 80.6011 231.63 80.6824C232.916 80.9262 233.962 81.4139 235.329 81.8204C237.742 81.8204 239.752 79.7883 239.672 77.3498C239.591 74.83 237.581 72.8792 235.168 72.8792Z" fill="#6E0023"/><path fill-rule="evenodd" clip-rule="evenodd" d="M254.63 46.0555C254.228 46.2993 253.746 46.6245 253.424 46.9496C251.896 48.4127 250.368 50.4448 249.484 52.8833C248.599 55.1593 248.036 57.7604 248.438 60.3614C248.84 62.8812 249.484 65.2384 250.368 67.4331C254.47 77.6749 261.949 85.2342 264.361 96.2888C265.487 101.41 265.728 107.262 264.12 114.415C262.109 124.007 256.882 126.933 252.62 126.445C250.127 126.12 247.473 124.494 245.302 121.649C242.728 118.235 240.798 112.871 240.477 106.043C240.477 103.604 242.487 101.572 244.9 101.572C247.312 101.572 249.323 103.523 249.323 106.043C249.001 111.977 250.207 116.691 252.54 118.804C253.022 119.292 253.505 119.78 254.067 119.617C254.791 119.455 255.435 118.967 256.078 118.154C256.963 116.935 257.767 115.228 258.41 113.033C260.662 104.498 260.019 97.9958 257.767 92.3872C253.665 81.7391 245.141 74.0171 242.567 61.4994C240.235 51.9079 246.508 41.7475 251.735 38.5774C254.389 36.9517 257.043 37.033 259.054 38.0084C261.144 38.9838 263.155 41.5036 263.557 46.5432C263.637 48.9817 261.707 51.0138 259.214 51.0951C256.802 51.1764 254.711 49.2256 254.711 46.787C254.711 46.4619 254.711 46.2181 254.63 46.0555Z" fill="#6E0023"/><path fill-rule="evenodd" clip-rule="evenodd" d="M273.689 90.3552C269.507 83.3648 267.336 66.4578 268.059 62.3936C268.622 58.8171 268.542 52.6396 270.07 48.0877C271.115 45.0802 272.885 42.8042 275.378 41.4224C277.629 40.1219 280.122 40.447 282.535 41.7475C284.706 42.8855 286.636 44.9989 287.843 46.7871C288.808 48.2502 289.21 49.5508 289.29 50.2823C289.451 51.1765 289.21 51.908 289.049 52.3957C288.406 54.3465 286.958 55.3219 284.706 55.4032C282.535 55.4032 280.685 53.7775 280.364 51.6642C279.961 51.2577 279.64 49.8759 278.996 49.3069C278.836 49.1444 278.514 48.9005 278.353 48.7379C277.308 49.4695 276.745 50.7701 276.343 52.2332C275.136 56.1348 274.895 60.8492 274.252 63.6129C273.769 65.8888 274.171 73.0418 275.458 79.4632C276.021 82.2269 276.745 84.8279 277.71 86.7787C278.675 86.1285 279.64 85.6408 280.444 85.3156C282.937 84.4215 284.787 85.2343 285.51 86.1285C286.073 86.7787 286.395 87.7541 286.073 88.9734C285.913 89.7862 285.269 90.9242 283.902 92.3873C282.052 94.2568 280.203 94.7445 278.514 94.4194C278.192 94.3381 277.871 94.2569 277.549 94.0943C276.664 95.2323 275.94 96.5328 275.297 98.1585C274.171 101.247 274.01 107.831 274.654 114.496C275.136 119.861 276.182 125.307 277.629 129.209C277.871 129.94 278.433 130.591 278.836 131.078C279.157 130.103 279.559 129.29 279.801 128.884C279.881 126.526 281.811 124.576 284.224 124.576C286.636 124.576 288.647 126.526 288.647 129.046C288.566 130.266 288.325 131.403 287.843 132.379C287.521 132.948 286.878 133.923 286.797 134.086C286.717 134.899 286.395 135.793 285.752 136.443C285.35 136.931 284.465 137.419 283.902 137.988C281.168 140.589 278.594 140.832 276.423 139.857C274.573 139.044 272.563 136.931 271.276 133.436C267.818 123.925 267.496 102.792 270.392 96.2076C271.115 93.8504 272.322 91.8996 273.689 90.3552ZM281.811 47.6C282.615 46.9497 283.58 46.5433 284.706 46.5433C283.42 46.462 282.454 46.8684 281.811 47.6Z" fill="#6E0023"/><path fill-rule="evenodd" clip-rule="evenodd" d="M299.825 50.8512C300.147 59.5486 299.825 68.246 298.86 77.0246C298.297 82.1455 297.493 87.2663 296.608 92.3059C295.724 97.4268 294.839 102.548 293.954 107.669C293.391 110.757 292.828 113.846 292.346 116.935C291.059 124.25 290.014 131.566 289.531 138.963C289.531 141.401 291.542 143.433 293.954 143.433C296.367 143.433 298.377 141.483 298.377 138.963C297.895 130.265 297.975 121.568 298.86 112.871C299.342 107.75 300.147 102.71 300.951 97.5894C301.755 92.4685 302.72 87.3476 303.605 82.308C304.168 79.2193 304.731 76.1305 305.294 73.123C306.661 65.8074 307.947 58.5732 308.591 51.1764C308.671 48.7378 306.741 46.7057 304.248 46.6245C301.916 46.4619 299.905 48.4127 299.825 50.8512Z" fill="#6E0023"/><path fill-rule="evenodd" clip-rule="evenodd" d="M310.602 53.3711C310.763 53.8588 310.28 54.7529 310.28 55.3219C310.28 57.7604 308.35 59.7925 305.938 59.7925C303.525 59.7925 301.515 57.8417 301.434 55.4032C301.515 52.8834 301.997 50.0385 303.445 48.2502C304.812 46.462 306.742 45.0802 309.717 45.2427C315.105 45.4866 318.483 47.3561 320.333 50.1198C322.182 52.8834 322.745 56.6225 321.941 61.0118C320.815 67.2706 317.036 74.9926 313.015 81.6578C312.452 82.552 311.969 83.4461 311.406 84.2589C312.452 84.9092 313.417 86.0472 314.221 87.6728C315.91 90.9242 314.784 109.863 315.588 123.844C315.749 127.014 316.151 129.94 316.633 132.216C316.714 132.541 316.875 132.948 316.955 133.354C318.644 131.81 321.378 131.81 323.067 133.517C324.836 135.224 324.836 138.069 323.067 139.776C320.091 142.539 317.598 143.19 315.749 142.946C313.98 142.702 312.371 141.97 311.165 140.263C310.2 138.963 309.315 136.849 308.913 134.086C307.787 127.177 308.672 115.228 309.315 105.149C309.556 100.516 309.798 96.2889 309.717 93.2814C309.717 91.6558 309.717 90.5178 309.396 89.9488C309.074 89.2172 308.833 88.7295 308.431 88.567C307.063 90.5991 305.696 92.3873 304.651 93.7691C303.364 95.3948 302.238 96.4515 301.595 96.8579C300.871 97.3456 300.228 97.4269 299.826 97.4269C299.182 97.4269 298.619 97.183 298.137 96.8579C297.735 96.5328 297.252 95.8825 297.172 94.9071C297.172 94.582 297.252 93.7691 297.735 92.7937C298.7 90.6803 301.675 86.1285 304.812 84.2589C304.892 84.1776 305.053 84.1776 305.133 84.0964C306.259 82.3894 307.385 80.4386 308.431 78.4878C310.763 74.1797 312.934 69.384 314.14 64.9947C314.864 62.5562 315.266 60.1989 315.266 58.0856C315.266 56.2973 314.864 54.8342 313.738 54.0214C313.015 53.5337 311.969 53.3711 310.602 53.3711Z" fill="#6E0023"/><path fill-rule="evenodd" clip-rule="evenodd" d="M327.891 54.3465C327.649 53.7775 327.489 53.1273 327.489 52.477C327.569 50.0385 329.58 48.0877 331.992 48.169C332.957 48.2502 336.013 48.9818 336.576 52.6396C336.978 55.0781 336.898 61.3369 336.978 61.9059C337.139 63.7754 337.219 65.7262 337.219 67.6771C337.139 71.8225 336.576 76.0493 336.496 80.0322C336.335 85.0718 336.496 90.1114 336.898 95.0697C337.219 99.8654 337.702 104.58 338.104 109.294C338.747 115.634 339.31 121.975 339.391 128.315C340.275 124.088 340.999 120.105 341.321 119.13C343.975 111.408 346.468 99.5403 348.156 87.429C349.765 75.5616 350.569 63.5316 350.328 55.1593C350.328 52.7208 352.338 50.6887 354.751 50.6887C357.163 50.6887 359.174 52.6395 359.174 55.1593C358.933 63.8567 357.163 76.2931 354.831 88.4857C352.499 100.841 349.524 113.033 346.387 120.918C345.744 122.706 343.492 135.468 341.562 140.182C341.08 141.32 340.517 142.133 340.034 142.621C339.31 143.271 338.587 143.515 337.863 143.515C337.219 143.515 336.174 143.352 335.531 142.052C335.45 141.808 335.209 141.239 335.128 140.426C334.726 138.069 334.244 132.054 334.244 131.078C334.244 127.746 334.083 124.332 333.842 120.999C333.44 115.553 332.716 110.188 331.992 104.824C330.866 96.6141 329.74 88.3231 329.58 79.9509C329.419 75.968 329.66 71.7412 329.499 67.6771C329.419 66.0514 329.258 64.507 329.017 62.9626C328.936 62.4749 325.88 55.0781 327.891 54.3465ZM330.303 56.7037C330.786 56.9476 331.349 57.0289 331.831 57.0289C331.349 57.0289 330.786 56.8663 330.303 56.7037Z" fill="#6E0023"/><path fill-rule="evenodd" clip-rule="evenodd" d="M382.498 55.8908C383.141 55.4844 383.865 55.3218 384.669 55.3218C387.082 55.4031 389.173 56.3785 390.7 58.7357C392.389 61.3368 393.435 66.3764 393.435 72.8791C393.435 83.1208 391.263 97.4267 388.931 109.701C386.76 120.999 384.347 130.591 382.659 133.923C381.935 135.305 380.648 138.069 378.959 139.125C377.592 140.019 375.984 140.345 374.295 139.45C371.158 137.906 368.665 134.492 366.816 129.859C364.644 124.25 363.438 116.528 363.117 108.319C362.795 101.247 363.036 93.769 363.921 86.7786C365.207 76.293 367.861 66.9453 371.4 61.6619C374.456 57.11 378.316 55.1592 382.498 55.8908ZM384.347 65.2384C383.463 65.401 382.498 65.2384 381.613 64.832C380.568 64.263 379.603 64.6694 378.718 65.5635C376.627 67.6769 374.858 71.1721 373.33 75.5614C371.319 81.4951 369.791 88.8107 369.068 96.2888C368.022 106.937 368.505 117.91 370.837 125.795C372.043 130.022 373.732 133.273 376.225 134.736C376.627 134.086 377.672 132.379 377.994 131.728C379.281 129.127 380.97 122.381 382.417 114.009C383.463 108.237 384.267 101.816 384.91 95.3946C386.036 84.0149 386.197 72.7165 384.669 66.3764C384.669 65.97 384.508 65.5635 384.347 65.2384Z" fill="#6E0023"/><path fill-rule="evenodd" clip-rule="evenodd" d="M410.082 63.4502C409.76 64.5069 409.439 65.97 409.358 66.2139C408.473 71.7412 407.267 77.1872 406.383 82.7145C405.98 85.0717 405.659 87.3476 405.418 89.7049C404.935 94.338 404.372 98.8899 403.97 103.523C403.568 108.156 403.166 112.708 402.925 117.341C402.522 126.526 402.764 135.711 403.327 144.897C403.327 147.335 401.316 149.286 398.904 149.286C396.491 149.286 394.48 147.335 394.48 144.897C394.963 137.012 396.008 129.209 396.893 121.324C397.456 116.122 398.019 110.92 398.582 105.799C399.145 100.272 399.547 94.6632 400.029 89.1359C400.271 83.5273 400.834 78 401.155 72.3914C401.316 70.0342 401.397 67.677 401.477 65.3197C401.477 64.6695 402.04 59.955 402.281 58.9796C402.683 57.5978 403.648 57.0288 404.05 56.7037C405.096 55.8908 406.222 55.8908 407.187 55.9721C407.75 56.0534 410.564 56.6224 411.047 60.6053C410.966 61.7433 410.645 62.6374 410.082 63.4502ZM402.12 61.4994C402.12 61.3368 402.04 61.1743 402.04 60.9304C402.04 61.1743 402.04 61.3368 402.12 61.4994Z" fill="#6E0023"/><path fill-rule="evenodd" clip-rule="evenodd" d="M416.677 62.475C417.159 70.6034 416.918 78.6505 415.953 86.6976C415.39 91.4933 414.586 96.2078 413.701 100.922C412.816 105.718 411.851 110.432 410.967 115.147C410.404 117.992 409.841 120.918 409.278 123.763C407.991 130.591 406.865 137.419 406.383 144.328C406.383 146.766 408.393 148.717 410.806 148.717C413.218 148.717 415.229 146.766 415.229 144.328C414.746 136.199 414.907 128.152 415.792 120.105C416.355 115.309 417.159 110.595 417.963 105.881C418.848 101.166 419.732 96.3703 420.698 91.6559C421.26 88.8109 421.823 85.8847 422.386 83.0398C423.753 76.212 424.96 69.4654 425.442 62.475C425.442 60.0365 423.512 58.0044 421.019 58.0044C418.767 58.0044 416.757 60.0365 416.677 62.475Z" fill="#6E0023"/><path fill-rule="evenodd" clip-rule="evenodd" d="M423.347 98.3209C425.036 95.7198 426.805 92.6311 428.333 89.1359C430.263 84.8278 431.711 80.0321 432.596 74.9925C433.319 70.5219 432.917 67.6769 431.631 66.1325C430.585 64.9133 428.896 65.8074 427.77 67.0267C426.966 67.9208 426.564 69.2213 426.645 70.6844C426.645 73.123 424.715 75.155 422.302 75.155C419.889 75.155 417.879 73.2042 417.798 70.7657C418.04 61.3368 427.208 55.8908 433.48 58.4919C437.501 60.1176 441.683 65.3197 439.029 76.293C436.938 85.5594 432.596 94.2567 428.414 100.434C429.138 101.085 429.781 101.897 430.424 102.954C432.435 106.287 433.319 110.432 433.641 114.903C434.285 123.519 432.596 133.517 433.641 140.751C433.963 142.783 434.365 144.328 434.767 145.465C434.767 145.547 434.847 145.628 434.847 145.709C435.169 145.465 435.571 145.222 435.812 144.815C436.777 143.515 437.662 141.808 438.547 140.019C439.753 137.5 440.718 134.817 441.361 132.541C442.085 130.184 444.659 128.965 446.991 129.696C449.323 130.428 450.61 132.948 449.805 135.305C447.393 141.808 442.246 150.668 438.145 152.862C434.124 154.976 428.253 154.163 427.127 141.401C426.403 134.004 428.655 123.844 428.333 115.065C428.173 111.489 427.61 108.238 426.001 105.474C425.76 105.067 425.519 104.824 425.277 104.498C422.543 107.75 420.05 109.701 418.522 110.107C416.994 110.513 415.788 110.107 414.903 109.213C413.536 107.831 413.215 105.962 413.938 104.092C414.743 101.979 417.075 99.6214 420.05 98.7273C421.096 98.4835 422.222 98.3209 423.347 98.3209Z" fill="#6E0023"/><path fill-rule="evenodd" clip-rule="evenodd" d="M140.434 76.0493C136.091 69.5466 133.84 53.9401 134.563 50.201C135.126 46.8684 135.046 41.1785 136.654 36.9518C137.7 34.1881 139.549 32.0748 142.123 30.7742C144.455 29.6362 147.109 29.8801 149.602 31.0994C151.854 32.1561 153.945 34.1068 155.151 35.7325C156.196 37.0331 156.598 38.3336 156.679 38.9839C156.84 39.7967 156.598 40.447 156.438 40.9347C155.794 42.7229 154.266 43.6171 151.934 43.6983C149.602 43.6983 147.752 42.2352 147.35 40.2031C146.948 39.7967 146.626 38.5775 145.903 38.0085C145.742 37.8459 145.42 37.6021 145.259 37.5208C144.214 38.171 143.651 39.3903 143.168 40.7721C141.882 44.3486 141.64 48.7379 140.917 51.339C140.354 53.4524 140.836 60.1177 142.203 65.9701C142.766 68.4899 143.57 70.9284 144.535 72.7166C145.581 72.0664 146.546 71.6599 147.431 71.4161C150.004 70.6032 151.934 71.3348 152.658 72.1476C153.221 72.7979 153.542 73.6107 153.221 74.7487C153.06 75.4803 152.417 76.537 150.969 77.9188C149.039 79.707 147.109 80.0322 145.42 79.7883C145.098 79.707 144.777 79.6257 144.375 79.5444C143.49 80.6011 142.686 81.8204 142.042 83.2835C140.836 86.1284 140.675 92.2247 141.319 98.4023C141.801 103.361 142.927 108.481 144.455 112.058C144.696 112.708 145.259 113.277 145.742 113.765C146.063 112.871 146.546 112.058 146.707 111.733C146.787 109.538 148.798 107.75 151.291 107.75C153.864 107.75 155.875 109.619 155.875 111.814C155.794 112.952 155.553 114.009 154.99 114.903C154.668 115.472 153.945 116.366 153.864 116.447C153.784 117.26 153.462 117.992 152.819 118.642C152.417 119.13 151.532 119.536 150.889 120.024C147.993 122.381 145.34 122.625 143.088 121.812C141.158 121.08 139.067 119.13 137.7 115.878C134.161 107.1 133.759 87.5103 136.735 81.414C137.78 79.3006 139.067 77.5124 140.434 76.0493ZM148.878 36.4641C149.682 35.8138 150.728 35.4887 151.934 35.4887C150.567 35.4074 149.602 35.8138 148.878 36.4641Z" fill="#6E0023"/></g><defs><clipPath id="clip0"><rect width="450" height="153.791" fill="#fff"/></clipPath></defs></svg>