<svg width="512" height="474" viewBox="0 0 512 474" fill="none" xmlns="http://www.w3.org/2000/svg"><path fill-rule="evenodd" clip-rule="evenodd" d="M328.133 457.581C330.007 457.076 332 457.285 333.729 458.168C335.458 459.051 336.801 460.545 337.498 462.364C338.196 464.182 338.198 466.196 337.506 468.016C336.814 469.836 335.475 471.335 333.748 472.222C331.887 473.002 329.886 473.389 327.869 473.359C323.542 473.442 314.657 473.01 302.602 472.264C289.39 471.434 272.347 470.165 253.297 468.946C237.831 467.959 221.093 467.046 204.059 466.1C173.259 464.375 141.65 462.699 115.433 461.289C104.5 460.708 94.5001 460.153 85.8877 459.771C71.3383 459.124 60.7523 458.817 56.3016 458.626C47.6149 458.361 33.7343 454.877 22.1162 454.479C17.9876 454.346 14.247 454.611 11.5386 456.071C9.66997 456.962 7.52739 457.077 5.57513 456.391C3.62288 455.705 2.01826 454.274 1.10904 452.408C0.199815 450.542 0.0592252 448.391 0.717768 446.422C1.37631 444.452 2.78091 442.823 4.62716 441.886C9.49899 439.705 15.9562 439.074 23.0906 439.796C34.7004 440.974 48.3911 445.346 57.0861 446.183C61.2148 446.54 70.4547 447.419 83.2701 448.373C94.1781 449.203 107.638 450.032 122.608 450.97C152.252 452.778 187.775 454.819 221.011 456.337C234.718 456.959 248.029 457.506 260.39 457.822C285.815 458.477 307.119 458.436 319.29 458.137C323.542 458.062 327.778 456.188 328.133 457.581Z" fill="#6E0023"/><path fill-rule="evenodd" clip-rule="evenodd" d="M39.0362 396.569C39.9693 394.081 42.5703 387.196 43.0658 385.785C44.0889 382.875 45.3054 380.037 46.7073 377.291C49.5891 371.609 52.9911 366.424 55.716 360.369C61.8265 345.395 68.358 330.273 74.7079 315.068C81.0578 299.862 87.6472 284.798 93.6503 269.775C98.9845 256.445 103.699 243.18 108.596 230.389C109.475 228.525 111.044 227.081 112.969 226.364C114.894 225.648 117.022 225.716 118.897 226.555C120.772 227.393 122.247 228.935 123.005 230.852C123.764 232.768 123.746 234.906 122.956 236.81C117.993 246.598 112.75 256.552 107.737 266.814C104.484 273.45 101.33 280.244 98.2331 287.096C92.5108 299.763 87.0031 312.687 81.6193 325.628C76.2356 338.568 71.083 351.7 66.079 364.616C63.833 371.02 60.7695 376.578 58.3997 382.642C57.5113 384.936 56.791 387.293 56.2445 389.693C55.7573 391.899 53.9737 401.306 52.38 404.848C51.7107 406.394 50.6148 407.716 49.2219 408.657C47.8289 409.597 46.1971 410.118 44.5191 410.157C42.9555 410.159 41.427 409.692 40.1292 408.816C38.8315 407.94 37.8235 406.695 37.2346 405.24C36.6457 403.785 36.5025 402.186 36.8235 400.649C37.1444 399.112 37.9149 397.706 39.0362 396.611V396.569Z" fill="#6E0023"/><path fill-rule="evenodd" clip-rule="evenodd" d="M121.295 227.676C122.993 227.369 124.714 227.203 126.439 227.179C134.539 227.652 140.154 231.6 143.515 237.871C147.124 244.607 148.222 254.047 146.975 262.45C145.571 274.703 138.817 290.854 129.346 306.54C123.967 315.46 117.893 323.937 111.179 331.891C107.662 336.038 103.996 339.846 100.387 343.396C88.8763 354.703 76.7298 361.92 65.7062 362.583C64.6333 362.653 63.5574 362.502 62.5452 362.137C61.533 361.773 60.606 361.204 59.8215 360.465C59.0369 359.726 58.4116 358.834 57.9841 357.843C57.5566 356.852 57.3359 355.783 57.3359 354.703C57.3359 353.623 57.5566 352.554 57.9841 351.563C58.4116 350.572 59.0369 349.679 59.8215 348.941C60.606 348.202 61.533 347.633 62.5452 347.269C63.5574 346.904 64.6333 346.752 65.7062 346.822C74.4508 347.328 84.6981 341.845 94.4748 333.276C100.484 327.843 105.941 321.824 110.767 315.308C124.292 297.44 134.49 276.138 136.051 261.289C136.397 256.312 135.811 250.92 133.895 246.648C132.5 243.545 130.081 241.389 126.406 241.604C125.308 241.671 123.648 242.575 122.178 243.006C120.586 243.455 118.935 243.656 117.282 243.603C115.327 243.479 113.47 242.696 112.013 241.38C109.875 239.671 108.471 236.843 109.536 232.098C109.887 230.937 110.5 229.874 111.326 228.989C112.153 228.105 113.171 227.424 114.302 226.999C115.432 226.574 116.646 226.416 117.847 226.538C119.048 226.66 120.205 227.058 121.229 227.701L121.295 227.676ZM124.936 235.209C124.87 235.697 124.756 236.177 124.598 236.644C124.784 236.187 124.89 235.702 124.911 235.209H124.936Z" fill="#6E0023"/><path fill-rule="evenodd" clip-rule="evenodd" d="M107.743 398.519C108.973 398.824 110.243 398.942 111.508 398.867C117.726 398.867 124.72 396.785 128.981 396.553C130.973 396.683 132.842 397.569 134.207 399.033C135.573 400.497 136.332 402.427 136.332 404.433C136.332 406.439 135.573 408.37 134.207 409.833C132.842 411.297 130.973 412.184 128.981 412.314C123.721 412.032 114.217 413.707 107.082 412.098C102.078 410.97 97.8753 408.78 95.4229 404.549C94.4434 402.963 94.0571 401.078 94.3329 399.232C94.6549 396.951 96.2734 392.596 98.9653 386.714C104.63 374.412 115.051 354.495 125.232 335.283C137.139 312.836 148.518 291.318 151.655 284.682C154.859 277.432 159.037 268.091 163.117 260.468C165.017 256.763 167.227 253.228 169.722 249.899C170.986 248.282 173.504 246.88 176.931 246.1C181.745 245.005 189.565 245.337 193.347 245.619C193.729 245.64 194.109 245.685 194.486 245.752H194.627C194.718 245.762 194.808 245.787 194.891 245.826C200.423 246.954 200.324 251.741 198.631 255.739C198.524 258.327 197.475 260.559 194.751 261.115C194.453 261.352 194.09 261.492 193.71 261.513C193.001 261.472 192.301 261.335 191.629 261.106H191.415C188.565 260.569 185.687 260.206 182.794 260.02C181.555 259.962 179.747 260.02 179.028 260.02C176.456 263.145 174.139 266.474 172.101 269.974C168.253 276.37 164.52 283.661 161.506 289.476C157.485 297.772 139.856 329.161 125.67 357.125C118.387 371.484 112.012 384.931 108.725 393.624C108.217 395.214 107.888 396.855 107.743 398.519Z" fill="#6E0023"/><path fill-rule="evenodd" clip-rule="evenodd" d="M164.238 305.379C163.594 305.901 163.355 306.557 162.587 306.98C161.5 307.617 160.33 308.098 159.11 308.406C157.572 308.678 156.015 308.827 154.453 308.854C152.711 308.954 150.993 309.07 149.325 309.136C148.571 309.216 147.813 309.246 147.055 309.228C144.511 309.02 142.81 309.41 140.449 309.601C139.555 310.118 138.771 310.807 138.142 311.628C137.513 312.449 137.051 313.387 136.782 314.388C136.514 315.388 136.444 316.432 136.577 317.46C136.711 318.487 137.044 319.478 137.559 320.377C138.073 321.275 138.759 322.062 139.576 322.694C140.394 323.326 141.327 323.79 142.323 324.06C143.319 324.33 144.358 324.4 145.381 324.266C146.404 324.132 147.391 323.797 148.285 323.28C148.516 322.915 148.219 322.45 148.524 322.127C149.003 321.604 149.127 320.916 149.788 320.551C150.89 320.001 152.076 319.639 153.297 319.481C154.781 319.255 156.28 319.149 157.781 319.165C158.869 319.124 159.958 319.188 161.034 319.356C163.578 319.854 165.369 320.385 167.566 320.808C169.533 320.301 171.229 319.048 172.298 317.313C173.366 315.577 173.724 313.493 173.297 311.498C172.87 309.503 171.691 307.752 170.007 306.611C168.323 305.47 166.264 305.028 164.263 305.379H164.238Z" fill="#6E0023"/><path fill-rule="evenodd" clip-rule="evenodd" d="M219.25 249.087C218.672 253.093 216.88 258.021 214.42 263.305C211.216 270.182 207.195 277.581 203.479 284.508C200.597 289.883 197.847 294.943 196.047 299.439C191.233 310.621 186.535 322.144 181.58 333.699C176.717 344.997 171.746 356.337 166.387 367.395C163.521 373.326 160.549 379.166 157.403 384.815C152.605 393.508 147.395 401.762 142.11 409.776C141.13 411.583 140.891 413.704 141.445 415.686C141.998 417.668 143.3 419.355 145.073 420.387C146.846 421.419 148.951 421.714 150.937 421.21C152.924 420.706 154.637 419.443 155.71 417.689C159.393 410.282 162.844 402.642 166.288 394.844C168.426 389.991 170.524 385.089 172.687 380.178C175.866 372.919 179.12 365.636 182.315 358.303C190.3 339.962 198.153 321.488 205.849 303.736C208.474 298.062 212.587 291.293 216.979 284.508C221.372 277.722 226.063 270.795 229.473 264.541C231.663 260.674 233.4 256.565 234.65 252.297C234.86 251.281 234.869 250.234 234.676 249.214C234.482 248.195 234.091 247.224 233.525 246.357C232.958 245.49 232.227 244.743 231.373 244.159C230.519 243.576 229.559 243.167 228.548 242.956C227.537 242.745 226.494 242.737 225.48 242.931C224.465 243.125 223.499 243.518 222.635 244.087C221.772 244.656 221.029 245.391 220.448 246.249C219.867 247.106 219.46 248.071 219.25 249.087Z" fill="#6E0023"/><path fill-rule="evenodd" clip-rule="evenodd" d="M228.942 243.562C229.099 243.172 231.089 243.686 231.75 243.719L240.098 244.118C242.525 244.234 242.938 244.433 243.525 244.707C244.034 244.942 244.523 245.219 244.986 245.536C249.941 248.738 253.054 253.002 254.267 258.128C255.589 263.753 254.92 270.571 251.922 277.747C249.263 284.383 244.813 291.318 239.66 298.029C232.699 307.115 224.857 315.484 216.251 323.015L211.75 326.333L205.83 330.895C206.907 333.617 207.766 336.422 208.398 339.282C209.546 345.636 208.736 353.384 206.812 361.596C205.222 367.95 203.293 374.214 201.032 380.36C197.614 389.975 193.906 399.133 191.272 405.877C191.503 406.001 191.759 406.258 192.015 406.374C192.197 406.457 192.389 406.519 192.585 406.557C193.601 405.279 194.987 404.35 196.552 403.899C198.117 403.447 199.782 403.495 201.319 404.036C202.855 404.578 204.186 405.585 205.127 406.919C206.068 408.254 206.574 409.849 206.573 411.484C206.583 413.913 205.731 416.266 204.17 418.121C203.054 419.437 201.638 420.461 200.041 421.107C196.598 422.281 192.866 422.281 189.422 421.107C181.116 418.336 174.089 410.447 178.382 401.729C182.569 392.812 189.943 378.892 194.484 365.18C197.366 356.428 199.108 347.826 198.002 341.123C197.424 338.416 196.595 335.769 195.525 333.218C193.855 333.272 192.187 333.085 190.57 332.662C189.543 332.374 188.605 331.833 187.84 331.086C187.076 330.34 186.51 329.413 186.194 328.39C185.877 327.334 185.85 326.211 186.116 325.141C186.382 324.07 186.931 323.092 187.705 322.309C190.042 319.597 192.511 318.875 194.691 318.991C196.923 319.14 199.019 320.126 200.562 321.754L204.897 318.436L209.389 315.117C217.383 308.057 224.582 300.137 230.858 291.501C234.9 285.989 238.141 279.928 240.486 273.5C241.68 270.261 242.109 266.788 241.741 263.355C241.608 262.46 241.293 261.603 240.816 260.837C240.338 260.07 239.709 259.411 238.967 258.9L231.766 259.24L230.544 259.315C230.197 259.356 229.817 259.373 229.421 259.381H229.669H230.148H230.544C233.071 259.091 234.425 257.979 235.036 256.486C234.383 257.312 233.572 257.998 232.649 258.502C231.727 259.007 230.714 259.32 229.669 259.423L228.711 259.481C227.607 259.544 226.506 259.309 225.524 258.8C223.992 258.181 222.723 257.046 221.932 255.59C220.396 253.259 220.553 250.787 221.593 248.232C221.833 247.651 223.005 244.74 227.505 243.794C227.629 243.794 227.91 243.753 228.331 243.695L228.942 243.562ZM190.818 411.07C190.806 411.213 190.806 411.357 190.818 411.501C190.81 411.36 190.81 411.211 190.818 411.07Z" fill="#6E0023"/><path fill-rule="evenodd" clip-rule="evenodd" d="M292.694 261.463C287.534 273.516 281.134 284.599 275.354 296.221C272.984 301.007 270.845 305.926 268.748 310.945C265.924 318.096 257.502 336.661 249.038 356.843C244.711 367.138 240.268 377.789 236.71 387.536C231.185 402.691 227.453 415.242 227.626 418.892C227.497 420.894 226.614 422.771 225.157 424.143C223.701 425.514 221.779 426.278 219.782 426.278C217.785 426.278 215.863 425.514 214.406 424.143C212.95 422.771 212.067 420.894 211.938 418.892C212.086 416.578 213.44 411.667 216.132 405.114C219.295 397.424 224.216 386.988 229.344 375.508C234.348 364.35 239.509 352.206 244.298 341.215C250.962 325.935 256.593 312.737 258.823 307.013C261.118 300.883 263.777 294.968 266.254 289.037C268.732 283.106 271.159 277.307 273.446 271.351C275.354 266.374 277.063 261.397 278.632 256.237C279.194 254.362 279.862 251.89 280.325 250.812C280.781 249.761 281.461 248.824 282.317 248.065C283.173 247.307 284.184 246.747 285.279 246.424C288.202 245.337 290.977 246.109 293.644 248.971C294.205 249.568 295.295 251.235 295.692 254.777C295.77 256.052 295.539 257.328 295.016 258.493C294.494 259.658 293.697 260.677 292.694 261.463V261.463ZM280.143 255.847V255.499C280.134 255.615 280.134 255.731 280.143 255.847V255.847Z" fill="#6E0023"/><path fill-rule="evenodd" clip-rule="evenodd" d="M344.962 269.759C346.044 270.477 346.933 271.454 347.547 272.602C348.161 273.75 348.481 275.034 348.48 276.337C348.158 288.141 338.084 318.154 324.674 348.664C317.82 364.151 310.388 379.846 302.701 393.152C293.263 409.585 283.585 422.468 275.278 427.76C270.027 431.078 265.064 431.816 260.712 430.132C257.029 428.697 254.321 425.446 252.992 420.41C251.662 415.375 251.728 408.067 252.81 399.821C255.89 376.628 266.624 345.13 269.102 338.676C274.436 324.093 286.36 293.882 300.48 274.512C309.29 262.434 319.472 254.819 329.38 254.545C335.334 254.371 338.835 256.511 341.23 259.199C343.36 261.53 344.491 265.147 344.962 269.759ZM329.496 269.22H329.38C326.077 269.12 322.774 270.829 319.546 273.458C314.591 277.44 309.736 283.305 305.244 290.049C293.486 307.644 283.932 330.696 279.151 342.55C277.029 348.017 268.614 371.916 264.535 392.77C262.81 401.63 261.827 409.9 262.644 415.757C262.777 416.988 263.097 418.191 263.594 419.324C263.817 419.788 264.032 420.22 264.42 420.377C265.609 420.833 266.897 420.377 268.276 419.697C270.852 418.395 273.544 416.006 276.376 412.862C284.452 403.911 293.18 389.212 301.297 372.596C305.756 363.471 310.042 353.807 313.857 344.143C323.699 319.257 330.933 294.62 332.444 281.463C331.747 280.949 331.155 280.304 330.701 279.564C330.123 278.618 326.986 272.413 329.587 272.928V272.098L329.537 270.439L329.496 269.22ZM337.44 267.32C336.387 267.277 335.339 267.487 334.384 267.934C335.354 267.535 336.392 267.332 337.44 267.337V267.32Z" fill="#6E0023"/><path fill-rule="evenodd" clip-rule="evenodd" d="M372.795 265.943C372.536 264.848 372.337 263.741 372.201 262.624C372.17 260.976 372.615 259.354 373.481 257.954C374.43 256.195 376.098 255.067 378.361 254.279C380.362 253.725 382.5 253.989 384.309 255.013C386.117 256.038 387.449 257.739 388.014 259.746C388.224 260.498 388.319 261.279 388.294 262.06C389.12 262.89 388.203 266.025 387.923 267.245C386.831 271.7 385.349 276.05 383.497 280.244C379.566 289.369 374.282 298.576 370.467 306.424C366.875 314.429 363.241 322.799 359.732 331.418C354.629 343.861 349.592 356.71 344.439 369.501C340.996 378.062 337.454 386.557 333.994 394.935C331.624 400.692 329.296 406.374 326.95 411.957C323.061 421.231 319.197 430.149 315.019 438.502C313.945 440.256 312.233 441.519 310.246 442.023C308.259 442.527 306.155 442.231 304.382 441.2C302.609 440.168 301.307 438.481 300.753 436.499C300.2 434.517 300.438 432.396 301.419 430.588C309.093 418.852 316.029 406.645 322.186 394.039C329.263 379.398 335.513 363.769 341.682 348.415C348.098 332.438 354.068 316.577 360.252 301.961C362.895 295.076 366.643 287.145 369.467 279.132C371.011 274.858 372.126 270.439 372.795 265.943V265.943ZM384.24 268.771C383.718 269.065 383.164 269.296 382.588 269.46C383.175 269.331 383.735 269.098 384.24 268.771V268.771Z" fill="#6E0023"/><path fill-rule="evenodd" clip-rule="evenodd" d="M375.935 262.823C378.164 261.347 381.715 259.165 383.515 258.726C387.465 257.655 391.577 257.329 395.645 257.763C398.738 258.129 401.715 259.162 404.373 260.791C412.325 265.768 417.585 274.064 419.534 283.396C421.421 292.102 420.495 301.186 416.891 309.327C408.304 329.004 398.568 348.705 388.007 367.71C377.272 387.154 365.63 405.868 352.856 422.816C347.777 429.958 334.937 441.43 325.606 443.944C323.748 444.495 321.799 444.671 319.873 444.46C317.947 444.249 316.081 443.657 314.385 442.716C310.149 440.335 306.482 434.529 307.06 422.6C307.261 420.507 308.281 418.579 309.896 417.241C311.511 415.903 313.589 415.265 315.673 415.466C317.756 415.667 319.675 416.692 321.007 418.315C322.339 419.937 322.974 422.025 322.774 424.118C322.552 425.934 322.477 427.765 322.551 429.593C323.649 429.394 325.425 429.676 326.729 429.045C333.192 425.729 338.981 421.227 343.797 415.773C356.834 398.98 368.577 381.212 378.924 362.625C389.26 343.922 398.604 324.683 406.916 304.989C409.284 299.008 409.652 292.417 407.965 286.208C406.38 280.401 402.812 275.341 397.594 272.579C396.25 271.977 394.772 271.739 393.308 271.89C391.361 272.032 389.445 272.457 387.619 273.151C387.743 273.11 388.04 273.043 388.04 273.043C388.04 273.043 385.736 274.835 384.473 275.839C384.638 276.038 384.473 276.129 384.134 276.113L383.788 276.395C383.293 276.834 382.736 277.197 382.136 277.473C381.298 277.929 380.375 278.205 379.426 278.283C378.476 278.362 377.521 278.241 376.62 277.929C375.6 277.657 374.649 277.171 373.829 276.504C373.01 275.836 372.34 275.002 371.864 274.055C371.104 272.761 370.155 270.165 371.938 266.54C372.291 265.776 372.817 265.105 373.474 264.582L374.003 264.076C374.514 263.652 375.067 263.283 375.654 262.973L375.935 262.823Z" fill="#6E0023"/><path fill-rule="evenodd" clip-rule="evenodd" d="M498.458 34.2787C491.39 32.4372 474.475 30.0398 469.949 29.6997L402.15 25.4027C381.881 23.81 361.506 22.0846 341.066 20.5085C320.756 18.9821 300.389 17.547 280.023 16.6262C269.167 16.1368 258.311 15.7967 247.463 15.6723C231.155 15.4898 214.904 15.8548 198.695 16.4272C196.716 16.2972 194.861 15.4104 193.505 13.9468C192.149 12.4832 191.395 10.5525 191.395 8.54658C191.395 6.54069 192.149 4.60997 193.505 3.14636C194.861 1.68276 196.716 0.79597 198.695 0.666016C215.093 1.25498 231.491 2.32508 247.89 3.42836C258.784 4.14729 269.691 4.88282 280.613 5.63493C301.056 7.00642 321.467 8.48852 341.845 10.0812C362.222 11.6739 382.589 13.2196 402.945 14.7183C411.882 15.3156 420.844 15.7718 429.822 15.9958C443.375 16.3193 456.929 16.2115 470.457 16.394C475.516 16.394 494.735 17.771 502.295 19.2393C506.649 20.0688 508.969 22.2837 509.674 23.1547C510.585 24.354 511.132 25.7948 511.249 27.3023C511.527 29.4591 510.871 31.6823 508.854 33.8308C507.48 35.1875 505.659 35.9834 503.741 36.066C501.822 36.1487 499.941 35.5123 498.458 34.2787V34.2787ZM496.318 24.8137C496.724 23.9548 497.28 23.1765 497.958 22.5159C497.248 23.1483 496.688 23.9335 496.318 24.8137V24.8137Z" fill="#6E0023"/><path fill-rule="evenodd" clip-rule="evenodd" d="M101.211 213.417C100.559 214.721 99.5628 215.817 98.3325 216.583C97.1022 217.348 95.6861 217.754 94.2416 217.755C91.6261 217.614 89.6091 216.735 88.2726 214.943C87.4527 213.798 85.5915 211.625 86.6328 208C86.7842 207.286 87.062 206.606 87.4527 205.992C87.5677 205.765 87.7021 205.549 87.8544 205.345C88.0758 205.047 88.535 204.408 89.1827 203.545C92.3476 199.397 100.342 189.144 100.957 187.892C104.663 180.102 109.115 172.031 113.707 164.059C118.298 156.087 123.021 148.174 127.834 141.148C133.573 132.578 143.953 113.225 154.809 94.196C161.303 82.823 168.018 71.6161 174.086 62.7649C180.752 53.0428 187.147 46.2323 192.075 44.1004C194.396 43.1459 196.849 42.5583 199.347 42.3584C205.907 41.6699 213.409 43.8599 219.411 41.8358C220.411 41.5216 221.462 41.4141 222.504 41.5196C223.546 41.6252 224.556 41.9416 225.474 42.4501C226.392 42.9586 227.2 43.6487 227.849 44.4795C228.498 45.3103 228.976 46.2647 229.253 47.2859C229.53 48.3072 229.602 49.3744 229.463 50.4242C229.324 51.4739 228.978 52.4847 228.446 53.3964C227.913 54.3081 227.204 55.102 226.362 55.731C225.52 56.36 224.561 56.8112 223.543 57.0577C221.1 57.6181 218.593 57.8441 216.09 57.7297C212.343 57.5638 208.424 56.8006 204.57 56.278C201.807 55.9047 199.093 55.4485 196.65 56.278C191.411 58.1195 184.351 67.12 176.693 78.4846C161.008 101.861 144.552 135.142 136.517 147.128C126.956 161.526 119.068 176.991 113.01 193.217C112.46 194.694 104.868 207.236 101.818 212.297L101.211 213.417Z" fill="#6E0023"/><path fill-rule="evenodd" clip-rule="evenodd" d="M127.614 119.878C129.508 120.227 131.369 120.592 133.304 120.857C134.944 121.089 136.584 121.264 138.281 121.363C144.48 121.761 150.695 121.894 156.902 121.861C160.342 121.898 163.782 121.757 167.208 121.438C170.726 121.048 173.989 120.202 177.457 119.538C178.523 119.468 179.591 119.62 180.596 119.984C181.601 120.349 182.522 120.918 183.301 121.656C184.08 122.395 184.701 123.288 185.125 124.279C185.55 125.27 185.769 126.339 185.769 127.419C185.769 128.499 185.55 129.568 185.125 130.559C184.701 131.55 184.08 132.442 183.301 133.181C182.522 133.92 181.601 134.489 180.596 134.853C179.591 135.217 178.523 135.369 177.457 135.299C173.062 134.528 168.897 133.441 164.453 132.91C160.165 132.404 155.836 132.371 151.523 132.263C146.366 132.13 141.2 131.931 136.059 132.305C132.575 132.553 129.254 133.275 125.802 133.806C125.942 133.808 126.081 133.833 126.212 133.881C126.212 133.881 123.482 134.32 122.293 134.378C120.399 134.47 119.112 133.192 117.759 132.379C115.816 131.226 115.299 128.879 114.84 125.502C114.92 124.043 115.4 122.635 116.225 121.435C117.05 120.235 118.189 119.291 119.514 118.707C120.839 118.124 122.298 117.925 123.728 118.131C125.158 118.338 126.504 118.943 127.614 119.878ZM130.386 125.055C130.423 125.488 130.423 125.924 130.386 126.357C130.511 125.933 130.517 125.482 130.402 125.055H130.386ZM125.327 119.497L125.212 119.439C124.671 119.324 124.113 119.324 123.572 119.439C123.572 119.439 124.63 119.447 125.343 119.497H125.327Z" fill="#6E0023"/><path fill-rule="evenodd" clip-rule="evenodd" d="M147.054 210.488C147.464 209.791 147.956 208.937 148.12 208.622C153.039 199.14 159.065 190.621 164.354 181.562C166.506 177.866 168.47 174.062 170.241 170.165C171.208 167.991 173.75 163.528 177.333 157.589C183.122 147.95 191.788 134.146 200.873 119.646C206.129 111.251 211.532 102.641 216.591 94.4365C219.002 90.5045 221.306 86.6555 223.47 82.9723C230.423 71.1515 236.064 61.2302 239.229 55.8963C240.397 53.8368 241.753 51.8927 243.28 50.0896C244.063 49.3981 244.975 48.8719 245.962 48.5419C246.95 48.2119 247.992 48.0848 249.029 48.1681C250.065 48.2513 251.075 48.5432 251.998 49.0266C252.922 49.5101 253.74 50.1753 254.406 50.9832C255.072 51.7911 255.572 52.7255 255.876 53.7315C256.18 54.7374 256.282 55.7947 256.176 56.8412C256.071 57.8877 255.76 58.9023 255.262 59.8256C254.763 60.7488 254.088 61.562 253.274 62.2174C252.676 62.6736 242.615 76.1121 230.399 93.6982C225.479 100.816 220.322 108.63 215.23 116.552C198.725 142.135 182.884 168.348 180.228 174.619C178.383 179.198 176.21 183.578 174.045 187.958C170.922 194.296 167.699 200.559 164.764 207.037C163.6 209.609 162.542 212.214 161.533 214.885C160.959 216.37 159.369 220.194 157.737 222.127C156.891 223.093 155.854 223.87 154.693 224.407C153.532 224.944 152.274 225.23 150.997 225.246C149.284 225.248 147.617 224.678 146.256 223.626C144.894 222.573 143.913 221.097 143.464 219.423C143.015 217.75 143.123 215.974 143.772 214.369C144.421 212.765 145.574 211.421 147.054 210.546V210.488ZM150.751 209.41H150.997C150.916 209.397 150.833 209.397 150.751 209.41Z" fill="#6E0023"/><path fill-rule="evenodd" clip-rule="evenodd" d="M194.067 212.885C197.568 212.056 201.282 210.554 204.816 209.377C208.14 208.203 211.598 207.462 215.106 207.17C217.085 207.3 218.94 208.187 220.296 209.65C221.652 211.114 222.406 213.045 222.406 215.051C222.406 217.056 221.652 218.987 220.296 220.451C218.94 221.914 217.085 222.801 215.106 222.931C208.621 222.583 198.855 226.739 191.517 226.598C188.024 226.523 184.884 225.893 182.326 224.233C181.026 223.369 180.04 222.1 179.515 220.619C178.99 219.138 178.955 217.524 179.415 216.021C180.432 212.238 184.687 203.122 185.286 202.359C191.681 193.665 197.921 184.416 203.873 174.76C217.541 152.595 230.111 128.621 243.361 106.738C245.952 102.192 249.789 95.1248 253.708 87.4848C259.39 76.4437 265.302 64.4155 268.967 57.7709C270.064 55.7155 271.326 53.7541 272.739 51.9061C273.418 51.0695 274.26 50.3823 275.212 49.8869C276.163 49.3915 277.205 49.0984 278.273 49.0256C279.341 48.9528 280.413 49.1019 281.422 49.4636C282.431 49.8253 283.356 50.3921 284.14 51.1289C284.925 51.8658 285.552 52.7573 285.983 53.7485C286.414 54.7397 286.64 55.8097 286.647 56.8926C286.655 57.9755 286.443 59.0485 286.025 60.0455C285.607 61.0425 284.992 61.9425 284.217 62.6901C284.537 63.2956 282.66 64.4404 281.7 65.834C277.494 71.9809 270.484 83.1132 264.129 93.5073C259.587 100.973 255.438 108.016 252.56 112.487C239.261 134.345 226.257 158.07 212.852 180.409C206.866 190.364 200.872 200.119 194.559 209.211C194.325 210.425 194.161 211.652 194.067 212.885V212.885Z" fill="#6E0023"/><path fill-rule="evenodd" clip-rule="evenodd" d="M283.036 226.365C281.137 226.67 279.219 226.845 277.297 226.888C271.475 226.623 264.711 231.227 258.233 232.521C253.699 233.425 249.288 233.392 245.172 231.26C245.379 231.349 245.593 231.421 245.812 231.475C245.812 231.475 240.654 229.46 239.752 227.228C239.02 225.572 238.947 223.695 239.547 221.985C243.278 210.11 247.657 198.454 252.666 187.07C263.719 160.965 276.837 135.216 286.25 108.895C290.678 95.1913 298.213 83.1797 304.001 70.156C305.338 67.1531 306.51 64.0672 307.568 60.915C308.519 58.1029 309.446 52.5201 310.093 50.8527C310.794 49.0606 312.114 47.5868 313.808 46.7051C315.23 45.9336 316.859 45.6429 318.457 45.8755C320.359 46.0414 322.556 47.0286 324.311 49.9319C324.696 50.5541 325.311 52.1136 325.598 55.0502C325.658 56.288 325.428 57.5226 324.928 58.654C324.428 59.7853 323.672 60.7816 322.72 61.562C322.138 63.3206 321.474 65.1954 320.99 66.2903C315.915 77.9038 308.806 88.1154 302.788 99.0403C300.342 103.413 298.202 107.953 296.384 112.628C286.857 139.132 273.181 164.889 262.317 191.276C258.316 200.929 254.832 210.793 251.879 220.824C253.031 220.794 254.173 220.59 255.265 220.219C258.996 219.14 262.702 216.9 266.351 215.241C269.777 213.55 273.488 212.526 277.288 212.222C279.199 212.122 283.2 210.637 285.102 210.438C286.942 210.26 288.79 210.666 290.391 211.6C292.069 212.574 293.327 214.148 293.916 216.013C294.556 217.672 294.99 220.667 292.104 224.391C291 225.658 289.524 226.534 287.892 226.889C286.259 227.244 284.558 227.061 283.036 226.365V226.365ZM279.625 214.918C279.84 214.59 280.073 214.274 280.322 213.972C280.056 214.26 279.822 214.577 279.625 214.918V214.918Z" fill="#6E0023"/><path fill-rule="evenodd" clip-rule="evenodd" d="M358.889 51.3257C357.512 56.3526 353.634 68.5385 347.984 83.8434C345.525 90.5792 342.597 97.8625 339.555 105.411C332.061 124.109 323.977 144.615 317.18 162.185C313.589 171.517 310.276 179.97 307.89 187.071C305.381 194.536 303.897 200.575 303.61 204.657C303.541 205.735 303.691 206.815 304.051 207.832C304.411 208.849 304.974 209.78 305.704 210.568C306.434 211.357 307.316 211.985 308.296 212.414C309.275 212.844 310.332 213.065 311.399 213.065C312.467 213.065 313.523 212.844 314.503 212.414C315.483 211.985 316.365 211.357 317.095 210.568C317.825 209.78 318.387 208.849 318.748 207.832C319.108 206.815 319.258 205.735 319.189 204.657C318.828 199.008 320.689 188.348 324.469 175.366C327.175 166.1 330.922 155.822 334.915 145.212C338.908 134.603 343.352 123.512 347.722 113.043C350.829 105.577 353.855 98.3934 356.872 91.8152C364.629 74.9093 371.45 61.7944 373.623 56.4522C373.985 55.465 374.148 54.4145 374.103 53.3626C374.057 52.3107 373.804 51.2786 373.359 50.327C372.914 49.3754 372.285 48.5236 371.509 47.8215C370.733 47.1195 369.827 46.5815 368.843 46.2391C367.859 45.8967 366.817 45.7568 365.778 45.8278C364.74 45.8987 363.726 46.179 362.797 46.6522C361.867 47.1253 361.04 47.7818 360.365 48.583C359.69 49.3841 359.18 50.3138 358.865 51.3174L358.889 51.3257Z" fill="#6E0023"/><path fill-rule="evenodd" clip-rule="evenodd" d="M316.656 223.28C319.255 216.95 321.854 209.899 324.765 203.188C326.712 198.461 329.023 193.896 331.677 189.534C336.391 181.546 340.901 171.285 345.099 159.97C350.346 145.868 355.29 130.264 360.038 115.673C363.563 104.806 366.901 94.4614 370.459 85.7098C372.919 79.1814 377.387 72.6613 380.601 65.801C382.307 62.4472 383.241 58.7463 383.332 54.9756C383.354 53.9162 383.587 52.8721 384.016 51.9056C384.445 50.939 385.063 50.0698 385.831 49.3497C386.599 48.6295 387.503 48.0732 388.488 47.7138C389.474 47.3545 390.521 47.1994 391.566 47.2579C392.612 47.3164 393.636 47.5872 394.576 48.0542C395.516 48.5212 396.354 49.1749 397.039 49.9763C397.724 50.7777 398.243 51.7105 398.564 52.719C398.886 53.7275 399.004 54.7912 398.91 55.8466C398.365 60.431 396.975 64.8712 394.811 68.9367C390.875 76.4771 384.668 83.3291 381.167 90.4548C376.904 99.9114 372.591 111.293 368.491 123.313C362.645 140.442 357.012 158.759 350.961 174.271C348.258 181.487 345.097 188.52 341.499 195.324C339.539 199.328 337.912 203.49 336.637 207.767C334.473 214.661 332.833 221.869 331.021 228.414C331.021 228.34 331.136 228.091 331.136 228.091C330.817 229.308 330.425 230.505 329.963 231.675C329.4 232.797 328.606 233.784 327.635 234.57C326.198 235.749 324.401 236.388 322.551 236.378C321.057 236.377 319.595 235.943 318.338 235.126C317.081 234.309 316.082 233.145 315.46 231.771C314.837 230.398 314.618 228.872 314.827 227.376C315.036 225.879 315.665 224.475 316.639 223.329L316.656 223.28Z" fill="#6E0023"/><path fill-rule="evenodd" clip-rule="evenodd" d="M370.95 184.109C372.335 180.476 373.704 176.834 374.992 173.159C377.55 165.743 382.117 154.536 387.094 141.844C392.94 126.913 399.393 110.048 404.558 95.2245C409.478 81.1224 413.052 69.0527 413.331 62.9391C413.491 60.849 414.465 58.9088 416.039 57.5452C417.613 56.1817 419.657 55.5065 421.723 55.6682C423.789 55.8299 425.707 56.8152 427.054 58.4075C428.402 59.9997 429.07 62.0684 428.91 64.1585C428.36 69.3431 425.63 78.1859 421.53 88.8537C416.554 101.852 409.568 117.78 402.992 133.051C395.482 150.471 388.504 167.021 384.954 176.768C382.15 184.598 378.886 192.247 376.107 200.102C374.289 205.109 372.796 210.229 371.638 215.432L367.44 231.55C366.883 233.402 366.054 235.158 364.98 236.76C364.29 237.529 363.378 238.06 362.374 238.279C361.37 238.498 360.323 238.393 359.38 237.979C358.446 237.614 356.027 236.602 356.035 232.894C356.035 216.959 357.749 200.542 360.315 184.051C362.562 169.642 365.513 155.233 368.391 141.106C370.351 131.475 372.22 121.977 374.008 112.744C376.09 101.396 380.748 88.3145 383.232 75.7885C384.246 71.0393 384.72 66.188 384.642 61.3298C384.771 59.3281 385.647 57.4509 387.094 56.0792C388.54 54.7075 390.449 53.9442 392.431 53.9442C394.414 53.9442 396.322 54.7075 397.769 56.0792C399.216 57.4509 400.092 59.3281 400.221 61.3298C399.942 67.3568 398.984 73.3321 397.367 79.1398C394.088 91.4501 388.742 104.208 385.995 115.382C383.83 124.507 381.436 133.939 379.214 143.528C376.115 156.834 373.237 170.472 370.95 184.109Z" fill="#6E0023"/><path fill-rule="evenodd" clip-rule="evenodd" d="M429.994 141.322C430.887 140.749 432.962 139.43 434.339 138.642C436.444 137.321 438.798 136.456 441.251 136.104C444.736 135.814 447.868 136.701 450.27 139.654C450.988 140.504 451.507 141.505 451.791 142.585C452.075 143.665 452.116 144.795 451.91 145.893C451.697 147.236 451.09 150.521 450.959 150.986C447.179 162.898 442.76 178.36 437.397 193.715C434.161 203.351 430.327 212.771 425.919 221.919C420.327 233.159 413.767 242.84 405.962 249.261C403.028 251.58 399.315 252.648 395.614 252.239C393.993 252.032 392.456 251.393 391.159 250.387C389.862 249.382 388.853 248.045 388.235 246.515C386.956 243.495 386.333 239.198 386.521 233.856C386.874 223.388 390.244 208.257 395.229 191.376C401.87 168.879 411.537 143.263 420.442 121.579C429.1 100.467 437.135 83.0802 441.956 76.0209C446.162 69.7579 455.977 61.9188 463.274 60.8156C466.29 60.3368 469.376 60.9226 472.015 62.4746C475.606 64.5319 478.828 68.9699 479.099 77.7132C479.093 80.5467 478.536 83.3514 477.459 85.967C477.099 86.8403 476.591 87.6432 475.958 88.3395C475.204 89.2523 474.24 89.9641 473.151 90.4124C472.062 90.8607 470.88 91.032 469.711 90.9111C468.194 90.9111 461.06 89.4096 462.553 81.2138C462.698 80.5291 462.936 79.8677 463.258 79.2478C463.258 78.9575 463.807 78.3021 463.824 77.7132C463.842 77.0877 463.823 76.4616 463.766 75.8384C461.504 76.678 459.351 77.7921 457.354 79.1565C455.554 80.5105 453.924 82.0816 452.5 83.8351C447.409 90.6456 438.299 108.049 429.092 129.211C422.483 144.399 415.907 161.504 410.357 177.913C403.428 198.385 398.205 217.788 397.082 231.044C396.697 235.54 396.713 239.198 397.566 241.712C398.144 241.604 398.7 241.394 399.206 241.09C407.979 233.699 414.784 221.446 420.097 207.734C426.656 190.87 431.043 171.865 434.79 156.386C433.852 156.7 432.875 156.881 431.888 156.925C429.986 156.929 428.148 156.23 426.719 154.96C425.291 153.69 424.37 151.936 424.129 150.027C423.889 148.119 424.345 146.187 425.413 144.594C426.48 143.002 428.086 141.859 429.928 141.38L429.994 141.322ZM478.025 82.7982C478.033 83.3923 477.972 83.9853 477.844 84.5651C477.994 83.989 478.054 83.393 478.025 82.7982V82.7982ZM477 78.9575C477.26 79.4147 477.472 79.8985 477.631 80.4008C477.48 79.8952 477.268 79.4103 477 78.9575V78.9575ZM471.769 75.1333C470.827 74.9026 469.847 74.8856 468.899 75.0835C469.85 74.9221 470.823 74.9389 471.769 75.1333V75.1333Z" fill="#6E0023"/></svg>