<svg width="510" height="299" viewBox="0 0 510 299" fill="none" xmlns="http://www.w3.org/2000/svg"><path fill-rule="evenodd" clip-rule="evenodd" d="M397.998 279.34C400.267 278.731 402.681 278.982 404.775 280.047C406.869 281.111 408.495 282.913 409.34 285.105C410.184 287.297 410.187 289.725 409.349 291.919C408.51 294.113 406.889 295.92 404.798 296.99C402.544 297.929 400.12 298.396 397.678 298.36C392.438 298.46 381.678 297.94 367.078 297.04C351.078 296.04 330.438 294.51 307.368 293.04C288.638 291.85 268.368 290.75 247.738 289.61C210.438 287.53 172.158 285.51 140.408 283.81C127.168 283.11 115.058 282.44 104.628 281.98C87.0082 281.2 74.1882 280.83 68.7982 280.6C58.2782 280.28 41.4683 276.08 27.3983 275.6C22.3983 275.44 17.8682 275.76 14.5882 277.52C12.3253 278.593 9.73055 278.732 7.36629 277.905C5.00202 277.078 3.05876 275.353 1.95765 273.104C0.856545 270.854 0.686285 268.261 1.48381 265.887C2.28133 263.513 3.98236 261.549 6.21824 260.42C12.1182 257.79 19.9383 257.03 28.5783 257.9C42.6383 259.32 59.2182 264.59 69.7482 265.6C74.7482 266.03 85.9383 267.09 101.458 268.24C114.668 269.24 130.968 270.24 149.098 271.37C184.998 273.55 228.018 276.01 268.268 277.84C284.868 278.59 300.988 279.25 315.958 279.63C346.748 280.42 372.548 280.37 387.288 280.01C392.438 279.92 397.568 277.66 397.998 279.34Z" fill="#6E0023"/><path fill-rule="evenodd" clip-rule="evenodd" d="M47.89 205.79C49.02 202.79 52.17 194.49 52.77 192.79C54.009 189.282 55.4824 185.861 57.18 182.55C60.67 175.7 64.79 169.45 68.09 162.15C75.49 144.1 83.4 125.87 91.09 107.54C98.78 89.21 106.76 71.05 114.03 52.94C120.49 36.87 126.2 20.88 132.13 5.45999C133.194 3.21333 135.095 1.47206 137.426 0.60834C139.757 -0.25538 142.334 -0.173021 144.605 0.837832C146.876 1.84869 148.662 3.70783 149.58 6.01789C150.499 8.32794 150.477 10.9056 149.52 13.2C143.51 25 137.16 37 131.09 49.37C127.15 57.37 123.33 65.56 119.58 73.82C112.65 89.09 105.98 104.67 99.46 120.27C92.94 135.87 86.7 151.7 80.64 167.27C77.92 174.99 74.21 181.69 71.34 189C70.2642 191.766 69.3919 194.607 68.73 197.5C68.14 200.16 65.98 211.5 64.05 215.77C63.2394 217.634 61.9123 219.227 60.2253 220.361C58.5384 221.495 56.5622 222.123 54.53 222.17C52.6365 222.172 50.7854 221.61 49.2137 220.553C47.6421 219.497 46.4215 217.996 45.7082 216.242C44.995 214.488 44.8216 212.561 45.2103 210.708C45.599 208.855 46.5321 207.16 47.89 205.84V205.79Z" fill="#6E0023"/><path fill-rule="evenodd" clip-rule="evenodd" d="M147.511 2.19001C149.568 1.81985 151.652 1.61917 153.741 1.59C163.551 2.16 170.351 6.92002 174.421 14.48C178.791 22.6 180.121 33.98 178.611 44.11C176.911 58.88 168.731 78.35 157.261 97.26C150.748 108.013 143.392 118.231 135.261 127.82C131.001 132.82 126.561 137.41 122.191 141.69C108.251 155.32 93.5415 164.02 80.1915 164.82C78.8921 164.904 77.5892 164.721 76.3633 164.282C75.1375 163.843 74.0149 163.157 73.0648 162.266C72.1147 161.376 71.3573 160.3 70.8396 159.105C70.3219 157.91 70.0547 156.622 70.0547 155.32C70.0547 154.018 70.3219 152.73 70.8396 151.535C71.3573 150.34 72.1147 149.264 73.0648 148.374C74.0149 147.483 75.1375 146.797 76.3633 146.358C77.5892 145.919 78.8921 145.736 80.1915 145.82C90.7815 146.43 103.191 139.82 115.031 129.49C122.308 122.94 128.917 115.685 134.761 107.83C151.141 86.29 163.491 60.61 165.381 42.71C165.801 36.71 165.091 30.21 162.771 25.06C161.081 21.32 158.151 18.72 153.701 18.98C152.371 19.06 150.361 20.15 148.581 20.67C146.653 21.2108 144.653 21.4536 142.651 21.39C140.284 21.2402 138.036 20.2959 136.271 18.71C133.681 16.65 131.981 13.24 133.271 7.52C133.697 6.12104 134.439 4.83887 135.439 3.7729C136.44 2.70692 137.673 1.8858 139.043 1.37324C140.412 0.860678 141.881 0.670453 143.336 0.817299C144.791 0.964145 146.192 1.44412 147.431 2.22001L147.511 2.19001ZM151.921 11.27C151.841 11.8586 151.704 12.438 151.511 13C151.737 12.4495 151.865 11.8642 151.891 11.27H151.921Z" fill="#6E0023"/><path fill-rule="evenodd" clip-rule="evenodd" d="M131.099 208.14C132.589 208.509 134.127 208.65 135.659 208.56C143.189 208.56 151.659 206.05 156.819 205.77C159.232 205.927 161.495 206.996 163.149 208.76C164.802 210.524 165.722 212.852 165.722 215.27C165.722 217.688 164.802 220.016 163.149 221.78C161.495 223.544 159.232 224.613 156.819 224.77C150.449 224.43 138.939 226.45 130.299 224.51C124.239 223.15 119.149 220.51 116.179 215.41C114.993 213.497 114.525 211.226 114.859 209C115.249 206.25 117.209 201 120.469 193.91C127.329 179.08 139.949 155.07 152.279 131.91C166.699 104.85 180.479 78.91 184.279 70.91C188.159 62.17 193.219 50.91 198.159 41.72C200.46 37.2545 203.137 32.9925 206.159 28.98C207.689 27.03 210.739 25.34 214.889 24.4C220.719 23.08 230.189 23.48 234.769 23.82C235.232 23.8457 235.693 23.8991 236.149 23.98H236.319C236.43 23.9919 236.538 24.0223 236.639 24.07C243.339 25.43 243.219 31.2 241.169 36.02C241.039 39.14 239.769 41.83 236.469 42.5C236.109 42.7867 235.669 42.9545 235.209 42.98C234.351 42.9309 233.503 42.7661 232.689 42.49H232.429C228.979 41.8426 225.492 41.4051 221.989 41.18C220.489 41.11 218.299 41.18 217.429 41.18C214.314 44.9474 211.508 48.9605 209.039 53.18C204.379 60.89 199.859 69.68 196.209 76.69C191.339 86.69 169.989 124.53 152.809 158.24C143.989 175.55 136.269 191.76 132.289 202.24C131.674 204.156 131.275 206.135 131.099 208.14Z" fill="#6E0023"/><path fill-rule="evenodd" clip-rule="evenodd" d="M199.511 95.86C198.731 96.49 198.441 97.28 197.511 97.79C196.196 98.5586 194.779 99.1376 193.301 99.51C191.438 99.8368 189.553 100.017 187.662 100.05C185.552 100.17 183.471 100.31 181.451 100.39C180.538 100.486 179.62 100.523 178.701 100.5C175.621 100.25 173.561 100.72 170.701 100.95C169.619 101.573 168.669 102.403 167.907 103.393C167.146 104.383 166.586 105.514 166.261 106.72C165.936 107.926 165.852 109.185 166.013 110.424C166.175 111.662 166.578 112.857 167.201 113.94C167.825 115.023 168.655 115.972 169.645 116.734C170.635 117.496 171.765 118.055 172.972 118.38C174.178 118.705 175.436 118.79 176.675 118.628C177.914 118.467 179.109 118.063 180.191 117.44C180.471 117 180.111 116.44 180.481 116.05C181.061 115.42 181.211 114.59 182.011 114.15C183.347 113.487 184.783 113.051 186.261 112.86C188.058 112.588 189.874 112.46 191.691 112.48C193.009 112.43 194.329 112.507 195.631 112.71C198.711 113.31 200.882 113.95 203.542 114.46C205.924 113.849 207.978 112.338 209.272 110.246C210.566 108.154 211 105.642 210.482 103.237C209.965 100.832 208.537 98.7208 206.497 97.3455C204.458 95.9702 201.965 95.4379 199.542 95.86H199.511Z" fill="#6E0023"/><path fill-rule="evenodd" clip-rule="evenodd" d="M266.131 28C265.431 32.83 263.261 38.7701 260.281 45.1401C256.401 53.4301 251.531 62.35 247.031 70.7001C243.541 77.1801 240.211 83.2801 238.031 88.7001C232.201 102.18 226.511 116.07 220.511 130C214.621 143.62 208.601 157.29 202.111 170.62C198.641 177.77 195.041 184.81 191.231 191.62C185.421 202.1 179.111 212.05 172.711 221.71C171.524 223.889 171.234 226.446 171.905 228.835C172.575 231.225 174.152 233.258 176.299 234.502C178.447 235.746 180.995 236.102 183.401 235.495C185.807 234.887 187.881 233.364 189.181 231.25C193.641 222.32 197.821 213.11 201.991 203.71C204.581 197.86 207.121 191.95 209.741 186.03C213.591 177.28 217.531 168.5 221.401 159.66C231.071 137.55 240.581 115.28 249.901 93.88C253.081 87.04 258.061 78.8801 263.381 70.7001C268.701 62.5201 274.381 54.17 278.511 46.63C281.163 41.9682 283.267 37.0153 284.781 31.87C285.035 30.6455 285.045 29.3828 284.811 28.1542C284.578 26.9256 284.104 25.7551 283.418 24.7095C282.732 23.6639 281.846 22.7637 280.812 22.0603C279.778 21.357 278.615 20.8641 277.391 20.61C276.166 20.3559 274.904 20.3455 273.675 20.5794C272.446 20.8132 271.276 21.2868 270.23 21.973C269.185 22.6593 268.284 23.5447 267.581 24.5788C266.878 25.6129 266.385 26.7755 266.131 28Z" fill="#6E0023"/><path fill-rule="evenodd" clip-rule="evenodd" d="M277.879 21.34C278.069 20.87 280.479 21.49 281.279 21.53L291.389 22.01C294.329 22.15 294.829 22.39 295.539 22.72C296.156 23.0034 296.748 23.3379 297.309 23.72C303.309 27.58 307.079 32.72 308.549 38.9C310.149 45.68 309.339 53.9 305.709 62.55C302.489 70.55 297.099 78.91 290.859 87C282.429 97.9531 272.932 108.043 262.509 117.12L257.059 121.12L249.889 126.62C251.193 129.902 252.233 133.283 252.999 136.73C254.389 144.39 253.409 153.73 251.079 163.63C249.153 171.29 246.816 178.841 244.079 186.25C239.939 197.84 235.449 208.88 232.259 217.01C232.539 217.16 232.849 217.47 233.159 217.61C233.38 217.71 233.611 217.784 233.849 217.83C235.08 216.29 236.758 215.17 238.653 214.626C240.548 214.081 242.565 214.139 244.426 214.792C246.286 215.444 247.898 216.658 249.038 218.267C250.178 219.875 250.79 221.799 250.789 223.77C250.801 226.698 249.77 229.534 247.879 231.77C246.528 233.357 244.812 234.592 242.879 235.37C238.709 236.786 234.189 236.786 230.019 235.37C219.959 232.03 211.449 222.52 216.649 212.01C221.719 201.26 230.649 184.48 236.149 167.95C239.639 157.4 241.749 147.03 240.409 138.95C239.709 135.686 238.705 132.496 237.409 129.42C235.387 129.485 233.367 129.259 231.409 128.75C230.165 128.403 229.029 127.75 228.103 126.85C227.177 125.951 226.491 124.833 226.109 123.6C225.725 122.327 225.693 120.973 226.015 119.683C226.337 118.393 227.002 117.214 227.939 116.27C230.769 113 233.759 112.13 236.399 112.27C239.103 112.449 241.641 113.637 243.509 115.6L248.759 111.6L254.199 107.6C263.88 99.0886 272.599 89.5416 280.199 79.13C285.094 72.4855 289.02 65.1791 291.859 57.43C293.305 53.5258 293.825 49.3394 293.379 45.2C293.218 44.1221 292.837 43.0889 292.259 42.1649C291.68 41.241 290.918 40.4461 290.019 39.83L281.299 40.24L279.819 40.33C279.399 40.38 278.939 40.4 278.459 40.41H278.759H279.339H279.819C282.879 40.06 284.519 38.72 285.259 36.92C284.468 37.9158 283.485 38.7424 282.369 39.3506C281.252 39.9587 280.024 40.336 278.759 40.46L277.599 40.53C276.262 40.6066 274.929 40.3234 273.739 39.71C271.884 38.9628 270.347 37.5949 269.389 35.84C267.529 33.03 267.719 30.05 268.979 26.97C269.269 26.27 270.689 22.76 276.139 21.62C276.289 21.62 276.629 21.57 277.139 21.5L277.879 21.34ZM231.709 223.27C231.694 223.443 231.694 223.617 231.709 223.79C231.699 223.62 231.699 223.44 231.709 223.27Z" fill="#6E0023"/><path fill-rule="evenodd" clip-rule="evenodd" d="M355.081 42.9199C348.831 57.4499 341.081 70.8099 334.081 84.8199C331.211 90.5899 328.621 96.5199 326.081 102.57C322.661 111.19 312.461 133.57 302.211 157.9C296.971 170.31 291.591 183.15 287.281 194.9C280.591 213.17 276.071 228.3 276.281 232.7C276.125 235.113 275.056 237.376 273.291 239.029C271.527 240.683 269.199 241.603 266.781 241.603C264.363 241.603 262.036 240.683 260.271 239.029C258.507 237.376 257.438 235.113 257.281 232.7C257.461 229.91 259.101 223.99 262.361 216.09C266.191 206.82 272.151 194.24 278.361 180.4C284.421 166.95 290.671 152.31 296.471 139.06C304.541 120.64 311.361 104.73 314.061 97.83C316.841 90.44 320.061 83.3099 323.061 76.1599C326.061 69.0099 329.001 62.0199 331.771 54.8399C334.081 48.8399 336.151 42.8399 338.051 36.6199C338.731 34.3599 339.541 31.3799 340.101 30.0799C340.654 28.8131 341.477 27.6828 342.514 26.7688C343.551 25.8548 344.775 25.1793 346.101 24.7899C349.641 23.4799 353.001 24.4099 356.231 27.8599C356.911 28.5799 358.231 30.5899 358.711 34.8599C358.806 36.3972 358.526 37.9346 357.893 39.3389C357.261 40.7433 356.296 41.9724 355.081 42.9199V42.9199ZM339.881 36.1499V35.7299C339.871 35.8697 339.871 36.0101 339.881 36.1499V36.1499Z" fill="#6E0023"/><path fill-rule="evenodd" clip-rule="evenodd" d="M418.379 52.92C419.69 53.7859 420.765 54.9637 421.509 56.3477C422.252 57.7318 422.64 59.2788 422.639 60.85C422.249 75.08 410.049 111.26 393.809 148.04C385.509 166.71 376.509 185.63 367.199 201.67C355.769 221.48 344.049 237.01 333.989 243.39C327.629 247.39 321.619 248.28 316.349 246.25C311.889 244.52 308.609 240.6 306.999 234.53C305.389 228.46 305.469 219.65 306.779 209.71C310.509 181.75 323.509 143.78 326.509 136C332.969 118.42 347.409 82 364.509 58.65C375.179 44.09 387.509 34.91 399.509 34.58C406.719 34.37 410.959 36.95 413.859 40.19C416.439 43 417.809 47.36 418.379 52.92ZM399.649 52.27H399.509C395.509 52.15 391.509 54.21 387.599 57.38C381.599 62.18 375.719 69.25 370.279 77.38C356.039 98.59 344.469 126.38 338.679 140.67C336.109 147.26 325.919 176.07 320.979 201.21C318.889 211.89 317.699 221.86 318.689 228.92C318.849 230.404 319.237 231.854 319.839 233.22C320.109 233.78 320.369 234.3 320.839 234.49C322.279 235.04 323.839 234.49 325.509 233.67C328.629 232.1 331.889 229.22 335.319 225.43C345.099 214.64 355.669 196.92 365.499 176.89C370.899 165.89 376.089 154.24 380.709 142.59C392.629 112.59 401.389 82.89 403.219 67.03C402.375 66.4093 401.658 65.6318 401.109 64.74C400.409 63.6 396.609 56.12 399.759 56.74V55.74L399.699 53.74L399.649 52.27ZM409.269 49.98C407.994 49.9281 406.725 50.1818 405.569 50.72C406.743 50.2393 408 49.9947 409.269 50V49.98Z" fill="#6E0023"/><path fill-rule="evenodd" clip-rule="evenodd" d="M452.08 48.32C451.766 47.0012 451.526 45.6658 451.36 44.32C451.324 42.3332 451.862 40.3781 452.91 38.69C454.06 36.57 456.08 35.2101 458.82 34.2601C461.244 33.5923 463.834 33.9104 466.024 35.1451C468.214 36.3797 469.827 38.4306 470.51 40.85C470.765 41.7573 470.88 42.6982 470.85 43.6401C471.85 44.6401 470.74 48.4201 470.4 49.8901C469.078 55.2608 467.284 60.5044 465.04 65.56C460.28 76.56 453.88 87.66 449.26 97.12C444.91 106.77 440.51 116.86 436.26 127.25C430.08 142.25 423.98 157.74 417.74 173.16C413.57 183.48 409.28 193.72 405.09 203.82C402.22 210.76 399.4 217.61 396.56 224.34C391.85 235.52 387.17 246.27 382.11 256.34C380.811 258.454 378.737 259.977 376.331 260.585C373.924 261.192 371.376 260.836 369.229 259.592C367.081 258.348 365.505 256.315 364.834 253.925C364.164 251.536 364.453 248.979 365.64 246.8C374.935 232.652 383.334 217.937 390.79 202.74C399.36 185.09 406.93 166.25 414.4 147.74C422.17 128.48 429.4 109.36 436.89 91.74C440.09 83.44 444.63 73.88 448.05 64.22C449.92 59.0674 451.27 53.741 452.08 48.32V48.32ZM465.94 51.7301C465.309 52.0846 464.637 52.3632 463.94 52.56C464.651 52.4045 465.328 52.1234 465.94 51.7301V51.7301Z" fill="#6E0023"/><path fill-rule="evenodd" clip-rule="evenodd" d="M455.889 44.56C458.589 42.78 462.889 40.15 465.069 39.62C469.852 38.3296 474.833 37.9363 479.759 38.46C483.504 38.9009 487.11 40.1459 490.329 42.1099C499.959 48.1099 506.329 58.1099 508.689 69.3599C510.975 79.8551 509.854 90.8056 505.489 100.62C495.089 124.34 483.299 148.09 470.509 171C457.509 194.44 443.409 217 427.939 237.43C421.789 246.04 406.239 259.87 394.939 262.9C392.689 263.565 390.329 263.776 387.996 263.522C385.663 263.268 383.404 262.554 381.349 261.42C376.219 258.55 371.779 251.55 372.479 237.17C372.722 234.646 373.957 232.323 375.913 230.71C377.869 229.097 380.386 228.327 382.909 228.57C385.433 228.813 387.757 230.048 389.369 232.004C390.982 233.96 391.752 236.476 391.509 239C391.24 241.189 391.15 243.396 391.239 245.6C392.569 245.36 394.719 245.7 396.299 244.94C404.126 240.942 411.137 235.515 416.969 228.94C432.757 208.696 446.978 187.277 459.509 164.87C472.027 142.324 483.342 119.132 493.409 95.39C496.277 88.1808 496.722 80.2347 494.679 72.75C492.759 65.75 488.439 59.65 482.119 56.32C480.492 55.5942 478.702 55.308 476.929 55.49C474.571 55.6614 472.251 56.1734 470.039 57.01C470.189 56.96 470.549 56.88 470.549 56.88C470.549 56.88 467.759 59.04 466.229 60.25C466.429 60.49 466.229 60.6 465.819 60.58L465.399 60.92C464.8 61.4495 464.126 61.8876 463.399 62.22C462.385 62.7693 461.267 63.1018 460.117 63.1965C458.967 63.2911 457.81 63.1459 456.719 62.77C455.484 62.4418 454.332 61.8561 453.34 61.0512C452.347 60.2464 451.536 59.2406 450.959 58.1C450.039 56.54 448.889 53.41 451.049 49.04C451.476 48.1188 452.113 47.3106 452.909 46.68L453.549 46.07C454.169 45.5592 454.839 45.1135 455.549 44.74L455.889 44.56Z" fill="#6E0023"/></svg>