<svg width="320" height="197" viewBox="0 0 320 197" fill="none" xmlns="http://www.w3.org/2000/svg"><path fill-rule="evenodd" clip-rule="evenodd" d="M87.8419 2.79634C86.5353 4.85372 85.5323 7.08882 84.8639 9.43261C84.5155 10.6105 84.1588 11.8217 83.7855 13.1075C83.5532 13.8955 83.3043 14.6836 83.0389 15.4799C82.4085 17.4044 81.7863 19.3953 81.1641 21.3364C80.7743 22.5392 80.3927 23.7172 79.978 24.8536C78.8398 27.7349 77.9354 30.7032 77.2737 33.7297C77.2476 34.338 77.3448 34.9453 77.5596 35.5151C77.7744 36.0848 78.1023 36.6052 78.5235 37.0449C78.9448 37.4846 79.4507 37.8345 80.0107 38.0735C80.5707 38.3125 81.1732 38.4357 81.7821 38.4357C82.391 38.4357 82.9937 38.3125 83.5537 38.0735C84.1137 37.8345 84.6195 37.4846 85.0407 37.0449C85.462 36.6052 85.7899 36.0848 86.0047 35.5151C86.2195 34.9453 86.3168 34.338 86.2907 33.7297C85.7548 31.0491 85.6179 28.3042 85.8842 25.5836C86.1184 23.6845 86.5237 21.8104 87.0953 19.9843C87.5136 18.6164 88.0293 17.2802 88.6382 15.9859C89.0412 15.1266 89.5013 14.2952 90.0153 13.4973C91.1501 11.7559 92.6122 10.2515 94.3205 9.06761C94.7502 8.64586 95.0912 8.14242 95.3233 7.58689C95.5554 7.03136 95.674 6.43498 95.6721 5.83291C95.6702 5.23085 95.5479 4.63525 95.3123 4.08119C95.0767 3.52714 94.7325 3.02583 94.3002 2.6068C93.8679 2.18777 93.3561 1.8595 92.7949 1.6413C92.2338 1.42309 91.6347 1.31936 91.0329 1.33625C90.431 1.35314 89.8387 1.49029 89.2907 1.73962C88.7427 1.98895 88.2501 2.34544 87.8419 2.78806V2.79634Z" fill="#6E0023"/><path fill-rule="evenodd" clip-rule="evenodd" d="M106.752 11.8797C105.825 13.4707 104.994 15.1162 104.264 16.8071C102.995 19.7519 102.115 22.8046 101.609 24.1734C101.136 25.8324 100.514 27.4915 100.025 29.2501C99.7194 30.3421 99.4731 31.4498 99.2866 32.5682C98.8635 35.0918 98.8635 37.6681 99.2866 40.1917C99.2367 41.3539 98.7398 42.452 97.8998 43.2568C97.0597 44.0616 95.9413 44.5109 94.778 44.5109C93.6147 44.5109 92.4963 44.0616 91.6562 43.2568C90.8162 42.452 90.3194 41.3539 90.2695 40.1917C90.5893 38.1557 91.1145 36.1574 91.8373 34.2273C92.617 32.1784 93.4963 30.2372 94.4254 28.2298C95.2549 26.355 95.9518 24.4471 96.6154 22.6055C96.9472 21.4359 97.7104 19.1547 98.2744 16.5914C99.0542 12.9332 99.5934 8.90995 100.075 6.91078C100.388 5.61359 101.16 4.47343 102.248 3.70046C102.774 3.36458 103.37 3.15191 103.99 3.07831C105.425 2.62207 106.578 3.4765 107.93 4.52172C108.386 4.88671 108.834 5.90704 109.216 7.83985C109.22 8.67529 108.991 9.49529 108.556 10.2086C108.121 10.9218 107.497 11.5004 106.752 11.8797ZM107.657 10.3865L108.071 9.87219C107.97 9.95044 107.881 10.0426 107.806 10.146L107.657 10.3865ZM100.191 8.32927C100.182 8.20221 100.182 8.07475 100.191 7.94769C100.164 8.0738 100.167 8.20445 100.199 8.32927H100.191Z" fill="#6E0023"/><path fill-rule="evenodd" clip-rule="evenodd" d="M101.555 15.0651C101.976 14.4339 102.55 13.919 103.223 13.5681C103.895 13.2173 104.646 13.0417 105.404 13.0576C106.466 13.4143 107.121 13.3314 107.37 13.5471C107.619 13.7628 108.075 13.8374 108.25 14.0863C108.905 15.0154 109.768 15.4633 109.776 16.2845C109.776 16.7242 110.191 22.0913 105.628 21.9254C105.205 21.9254 104.691 21.8673 104.11 21.8258C104.278 21.9384 104.482 21.9856 104.683 21.9585C104.757 21.9585 104.849 22.0249 104.973 22.0664H105.23C105.147 22.0961 105.056 22.0961 104.973 22.0664C104.564 22.035 104.162 21.9456 103.778 21.8009C102.507 21.6894 101.229 21.6672 99.9543 21.7346C98.2884 21.8647 96.6432 22.1876 95.0517 22.6968C93.6553 23.4027 92.2112 24.0097 90.7298 24.5135C89.2211 25.0759 87.6844 25.5604 86.1259 25.9652C84.9291 25.9652 83.7813 25.4898 82.935 24.6435C82.0888 23.7972 81.6133 22.6494 81.6133 21.4525C81.6133 20.2557 82.0888 19.1079 82.935 18.2616C83.7813 17.4153 84.9291 16.9399 86.1259 16.9399C87.785 17.4127 88.938 17.9519 90.398 17.9602C91.3691 17.9493 92.3365 17.8381 93.2848 17.6284C94.1143 17.338 96.4869 16.9979 98.8593 16.2513C99.5479 16.0171 100.221 15.74 100.875 15.4218L101.555 15.0651ZM102.277 14.6752C102.824 14.3766 103.289 14.0946 103.679 13.8457C103.796 13.7665 103.9 13.6684 103.986 13.5554C103.827 13.5677 103.672 13.6099 103.53 13.6798C103.173 14.0116 102.758 14.0365 102.609 14.2688C102.522 14.4199 102.41 14.5547 102.277 14.6669V14.6752Z" fill="#6E0023"/><path fill-rule="evenodd" clip-rule="evenodd" d="M127.764 10.1378C128.588 10.118 129.408 10.2588 130.178 10.5525C131.789 11.1014 133.139 12.2273 133.969 13.7131C135.078 16.0346 135.457 18.6376 135.056 21.1789C134.674 23.8459 133.903 26.4424 132.766 28.8852C129.539 35.8948 123.517 41.1374 116.441 37.3299C111.19 34.7998 110.394 28.0308 112.293 21.6683C113.39 17.9077 115.516 14.5287 118.432 11.913C120.132 10.506 122.228 9.66499 124.429 9.50732C125.563 9.57866 126.683 9.79043 127.764 10.1378ZM128.229 19.2626C127.784 19.3652 127.332 19.4318 126.877 19.4617C126.581 19.4582 126.286 19.4249 125.997 19.3622L125.906 19.4368C125.533 19.7272 125.176 20.0756 124.77 20.4489C124.07 20.9958 123.223 21.3232 122.337 21.3896C121.452 21.456 120.566 21.2586 119.792 20.8222C119.135 21.7412 118.579 22.7286 118.133 23.767C116.69 27.1266 116.109 31.0669 118.896 32.643C122.77 34.609 125.682 31.1582 127.283 27.3174C128.203 25.0756 128.633 22.663 128.544 20.2415C128.508 19.9046 128.401 19.5793 128.229 19.2875V19.2626Z" fill="#6E0023"/><path fill-rule="evenodd" clip-rule="evenodd" d="M155.574 30.9673C156.188 29.9884 156.653 29.3082 156.744 29.0676C158.486 24.9946 161 20.7225 162.65 16.2513C163.625 13.7964 164.088 11.1684 164.011 8.52836L163.862 5.30148C163.862 4.10465 164.337 2.95682 165.183 2.11053C166.029 1.26424 167.177 0.788818 168.374 0.788818C169.571 0.788818 170.719 1.26424 171.565 2.11053C172.411 2.95682 172.887 4.10465 172.887 5.30148L172.729 8.52836C172.583 11.3753 171.967 14.1784 170.904 16.8237C168.797 22.1742 165.214 27.1514 162.684 31.8963C162.219 32.7756 158.934 41.4774 156.827 43.6923C156.462 44.1293 156.007 44.4828 155.493 44.729C154.979 44.9751 154.419 45.1081 153.849 45.1191C153.403 45.1166 152.962 45.0209 152.555 44.8381C152.148 44.6552 151.783 44.3893 151.485 44.0573C150.05 42.5144 149.37 40.3161 149.37 37.6533C149.37 34.9905 150.075 31.6641 150.597 28.5284C149.66 30.793 148.897 33.124 147.918 35.3306C147.207 36.961 146.323 38.5101 145.28 39.9511C144.865 40.5235 142.791 43.0535 141.282 43.7006C140.592 44.0215 139.818 44.1142 139.072 43.965C138.326 43.8158 137.647 43.4326 137.134 42.871C136.651 42.3476 136.343 41.6864 136.255 40.9797C136.215 40.2696 136.215 39.5579 136.255 38.8478C136.153 35.8254 136.247 32.7995 136.537 29.7893C136.967 25.3594 137.623 20.9544 138.503 16.5914C138.893 14.5508 139.905 10.0962 140.353 8.15508C141.672 2.49766 149.411 8.25461 149.428 8.47859C149.428 9.12896 149.286 9.77157 149.013 10.3616L148.938 10.6105C148.316 12.4189 146.931 16.5665 146.375 18.4828C145.371 21.917 144.434 25.2684 143.745 28.6612C143.463 30.0382 143.206 31.4235 143.007 32.8088C144.591 29.4907 145.678 25.8905 147.569 22.6802C148.084 21.7926 148.291 19.8515 148.689 18.7233C148.847 18.1935 149.108 17.7004 149.458 17.273C149.809 16.8457 150.241 16.4927 150.73 16.2347C151.321 15.9548 151.99 15.8845 152.626 16.0352C153.262 16.186 153.828 16.5489 154.231 17.0643C155.666 18.5657 156.346 20.7059 156.421 23.2775C156.364 25.8606 156.081 28.4337 155.574 30.9673V30.9673Z" fill="#6E0023"/><path fill-rule="evenodd" clip-rule="evenodd" d="M203.494 5.37611C203.923 4.93192 204.439 4.58109 205.01 4.34557C205.581 4.11005 206.194 3.99492 206.812 4.00738C209.89 4.90328 210.238 7.04348 209.724 8.98458C209.856 9.72131 209.736 10.4812 209.382 11.1408C209.028 11.8004 208.461 12.321 207.774 12.6179C207.617 12.7838 207.5 12.8668 207.442 12.8585H207.276C207.077 12.9249 206.87 12.9912 206.646 13.0493C205.733 13.0358 204.845 12.7467 204.099 12.2198C203.319 12.1129 202.531 12.0574 201.743 12.0538C200.853 12.0552 199.963 12.1162 199.081 12.2363C198.201 12.3549 197.329 12.521 196.468 12.7341C195.098 13.0622 193.758 13.5034 192.461 14.053C191.333 14.5962 190.272 15.27 189.3 16.0605C189.043 16.2973 188.829 16.5783 188.67 16.89C188.67 16.89 188.911 16.9315 188.952 16.89C188.55 17.3463 188.059 17.7165 187.51 17.9784C186.961 18.2403 186.365 18.3885 185.757 18.4141C185.15 18.4397 184.543 18.3422 183.974 18.1274C183.405 17.9125 182.885 17.5849 182.446 17.1641C182.006 16.7433 181.657 16.2381 181.418 15.6787C181.179 15.1194 181.055 14.5175 181.055 13.9092C181.054 13.3009 181.177 12.6988 181.415 12.139C181.653 11.5793 182.002 11.0735 182.44 10.6519C183.475 9.86573 184.661 9.30099 185.924 8.99286C187.451 8.70253 189.3 8.51173 191.457 8.23798C193.116 8.0389 194.775 7.71538 196.434 7.40845C197.763 7.16139 199.079 6.84576 200.375 6.4628C201.544 6.03144 202.581 5.68304 203.494 5.37611Z" fill="#6E0023"/><path fill-rule="evenodd" clip-rule="evenodd" d="M195.203 15.2558C194.526 14.4381 194.164 13.4054 194.183 12.3441C194.188 11.7523 194.31 11.1673 194.542 10.6228C194.774 10.0783 195.112 9.58497 195.535 9.1711C195.958 8.75723 196.459 8.43096 197.008 8.21104C197.558 7.99112 198.145 7.88187 198.737 7.88954C199.612 7.92336 200.466 8.16809 201.225 8.60292C201.914 9.16701 202.719 9.59838 203.059 10.486C203.316 10.9465 203.498 11.4449 203.598 11.9626C203.744 13.5843 203.457 15.2156 202.768 16.6909C201.848 18.6901 200.28 21.3114 198.529 24.4304C197.277 26.7365 196.041 29.3164 194.871 31.8962C193.934 33.9618 193.104 36.0439 192.432 37.9933C191.522 40.5573 190.932 43.2235 190.674 45.9319C190.678 45.9993 190.698 46.0647 190.732 46.1227C190.732 46.1227 190.815 46.0398 190.807 45.99C190.807 47.1868 190.331 48.3346 189.485 49.1809C188.639 50.0272 187.491 50.5027 186.294 50.5027C185.097 50.5027 183.949 50.0272 183.103 49.1809C182.257 48.3346 181.781 47.1868 181.781 45.99C181.853 45.263 182.012 44.5472 182.254 43.8581C183.125 41.6764 185.315 38.1924 187.754 34.0115C188.583 32.6262 189.338 31.1414 190.085 29.615C191.322 27.1869 192.43 24.6948 193.403 22.1492C194.227 19.9159 194.83 17.607 195.203 15.2558ZM197.941 16.8485C198.165 16.9224 198.404 16.9423 198.637 16.9066C198.404 16.9036 198.171 16.8842 197.941 16.8485V16.8485ZM195.311 14.4014C195.318 14.0841 195.29 13.767 195.228 13.4557C195.162 13.6676 195.145 13.8916 195.178 14.111L195.311 14.4014Z" fill="#6E0023"/><path fill-rule="evenodd" clip-rule="evenodd" d="M218.721 12.7008C219.144 12.4022 219.551 12.1119 220.007 11.8713C220.601 11.4485 221.286 11.1725 222.007 11.0658C222.728 10.9591 223.464 11.0248 224.155 11.2574C224.836 11.4913 225.465 11.8578 226.005 12.3358C226.446 12.8019 226.862 13.292 227.249 13.8041C228.44 15.2162 229.19 16.9469 229.406 18.7813C229.928 22.929 228.402 28.7357 225.764 33.9286C223.441 38.4744 220.397 42.5143 217.344 44.4305C214.764 46.0398 212.168 46.3384 209.812 45.119C205.357 42.9705 204.627 37.1306 206.353 30.6768C207.262 27.4065 208.578 24.263 210.268 21.3197C210.164 20.4153 210.336 19.5004 210.763 18.6961C211.189 17.8918 211.85 17.2359 212.657 16.8153C213.039 16.6494 213.404 16.4752 213.744 16.2927L213.877 16.1434C215.092 14.749 216.595 13.6341 218.282 12.875C218.423 12.8052 218.57 12.7469 218.721 12.7008V12.7008ZM223.06 22.0082C222.206 22.4333 221.274 22.6789 220.322 22.7299C220.125 22.7287 219.928 22.7149 219.733 22.6884C218.836 23.4754 217.87 24.1805 216.846 24.7954C216.707 24.8702 216.563 24.9366 216.415 24.9945C215.222 26.5541 214.175 28.2202 213.288 29.9717C211.977 32.5516 211.023 35.231 211.04 37.4873C211.04 38.7316 211.28 39.8432 212.276 40.3907C213.271 40.9382 214.466 40.1833 215.594 39.1629C217.831 37.006 219.599 34.4108 220.787 31.5395C222.078 28.6995 222.835 25.6454 223.018 22.5308C223.06 22.3649 223.06 22.1824 223.06 22.0082Z" fill="#6E0023"/><path fill-rule="evenodd" clip-rule="evenodd" d="M73.9815 76.2929C75.2325 74.786 76.3825 73.1982 77.424 71.5396C78.1346 70.3963 78.7854 69.2168 79.3735 68.0058C80.2372 66.1892 80.9906 64.3221 81.6298 62.4148C82.059 61.1551 82.4081 59.8695 82.675 58.5657C82.9682 57.033 83.1429 55.4799 83.1976 53.9204C83.2434 52.5289 83.1264 51.137 82.8492 49.7727C82.8701 48.5758 83.3656 47.4364 84.2266 46.6048C85.0877 45.7733 86.2439 45.3179 87.4407 45.3388C88.6375 45.3597 89.777 45.8552 90.6085 46.7163C91.4401 47.5774 91.8954 48.7335 91.8745 49.9303C91.0857 53.1663 89.9741 56.3149 88.5564 59.3289C87.7849 61.1373 87.0384 63.0369 86.3001 64.9614C85.371 67.3588 84.4419 69.7479 83.6953 71.9876C82.7248 74.8744 82.0363 77.4211 81.4141 79.3124C81.012 80.5402 80.4926 81.7264 79.8629 82.8545C79.5261 83.3391 79.0872 83.744 78.5771 84.0407C77.7475 84.7458 76.8599 84.5965 76.188 84.7209C75.1944 84.7183 74.2295 84.3877 73.4429 83.7806C72.6563 83.1735 72.0921 82.3238 71.8378 81.3633C71.5835 80.4028 71.6533 79.3852 72.0364 78.4684C72.4195 77.5516 73.0945 76.7869 73.9566 76.2929H73.9815ZM73.8571 76.4422L73.658 76.5334C73.4189 76.7372 73.2045 76.9682 73.0192 77.2219C73.3209 76.9903 73.6013 76.7321 73.8571 76.4505V76.4422ZM75.3917 75.7703C75.6653 75.7195 75.943 75.6945 76.2212 75.6956C75.9427 75.655 75.6585 75.6806 75.3917 75.7703V75.7703Z" fill="#6E0023"/><path fill-rule="evenodd" clip-rule="evenodd" d="M102.146 64.4556C100.971 66.1087 99.6466 67.6498 98.1889 69.0595C95.5758 71.4735 92.8633 72.2201 90.6235 71.5481C88.251 70.8845 86.4758 68.5618 85.4223 65.3266C84.0038 61.1209 83.9043 55.057 83.9789 51.8799C83.9925 51.1617 84.0424 50.4446 84.1283 49.7314C84.1762 49.3334 84.2911 48.9463 84.4683 48.5867C84.7508 47.8651 85.2455 47.2462 85.8869 46.8115C87.2225 45.6501 88.6742 45.8409 89.9516 46.1395C90.4245 46.2474 92.7637 47.0271 93.0955 50.3867C93.1061 50.7411 93.0699 51.0954 92.9877 51.4403C93.0955 51.573 92.772 52.1288 92.6724 52.726C92.2411 55.2146 91.4945 60.0591 92.1664 63.5515C92.2391 64.1054 92.387 64.6468 92.6061 65.1608C92.6352 65.2101 92.6575 65.2631 92.6724 65.3183C93.0208 65.0695 93.8587 65.0861 94.3813 64.663C96.1579 63.1252 97.7303 61.3661 99.0599 59.4287C101.434 56.021 103.542 52.435 105.364 48.7028C105.701 48.0371 106.166 47.445 106.733 46.9608C107.285 46.5801 107.959 46.4175 108.624 46.5045C109.086 46.5467 109.527 46.7122 109.902 46.9837C110.277 47.2552 110.572 47.6226 110.756 48.0475C111.586 49.7729 111.586 52.7675 110.756 56.434C110.242 58.8563 109.437 61.6186 108.616 64.4888C106.957 70.2375 105.016 76.3594 104.883 80.0841C105.771 80.5573 106.474 81.3134 106.883 82.2324C107.292 83.1513 107.382 84.1804 107.139 85.1563C106.896 86.1321 106.333 86.9989 105.542 87.6189C104.75 88.2389 103.774 88.5766 102.768 88.5785C100.279 88.396 98.5372 87.4835 97.5335 85.7664C96.7862 84.5445 96.4061 83.1335 96.4385 81.7016C96.5547 78.0102 99.5161 71.1417 102.146 64.4556ZM104.95 81.3449C104.964 81.3924 104.987 81.4373 105.016 81.4777L104.95 81.3449ZM90.4493 54.6008C89.8916 54.8562 89.2874 54.9945 88.6741 55.0072C88.4189 55.0074 88.1639 54.9908 87.9109 54.9575C88.7783 55.1353 89.6805 55.0094 90.4659 54.6008H90.4493ZM84.2444 51.714C84.3377 52.2494 84.5521 52.7565 84.8713 53.1964C85.1904 53.6364 85.6059 53.9975 86.086 54.2524C85.1972 53.6481 84.5507 52.749 84.2609 51.714H84.2444ZM84.1366 51.2578C84.1001 51.0356 84.0806 50.811 84.0785 50.5858C84.0697 50.8123 84.095 51.0388 84.1532 51.2578H84.1366Z" fill="#6E0023"/><path fill-rule="evenodd" clip-rule="evenodd" d="M123.414 86.9773C123.81 87.6693 124.019 88.4528 124.02 89.2502C124.02 90.4448 123.545 91.5906 122.7 92.4353C121.856 93.28 120.71 93.7546 119.515 93.7546C117.541 93.4808 115.857 92.925 115.21 91.0337C114.809 90.1625 114.644 89.2016 114.729 88.2465C114.963 87.094 115.262 85.9557 115.625 84.8371C116.382 82.0826 117.305 79.3762 118.387 76.7326C118.827 75.6376 119.217 74.5426 119.648 73.4144C120.328 71.6226 121.008 69.8225 121.647 68.0059C122.286 66.1892 122.867 64.4306 123.356 62.6222C123.858 60.7146 124.227 58.7743 124.459 56.8154C124.754 54.0375 124.695 51.2335 124.285 48.4703C124.264 47.8621 124.366 47.2558 124.585 46.688C124.804 46.1201 125.136 45.6025 125.56 45.1663C125.985 44.73 126.493 44.3841 127.055 44.1494C127.616 43.9146 128.22 43.7959 128.828 43.8004C129.437 43.8049 130.038 43.9325 130.596 44.1754C131.154 44.4184 131.658 44.7717 132.075 45.2142C132.493 45.6567 132.818 46.1791 133.028 46.7501C133.239 47.3211 133.332 47.9288 133.302 48.5367C132.663 53.3812 131.013 57.8275 129.229 62.4148C128.4 64.5135 127.67 66.6537 126.915 68.7939C126.16 70.9341 125.455 72.9416 124.874 75.0984C124.378 76.907 123.99 78.7435 123.713 80.5982C123.478 82.3691 123.367 84.1541 123.381 85.9404L123.414 86.9773ZM120.096 84.779C119.896 84.7232 119.687 84.7091 119.482 84.7375C119.698 84.7263 119.914 84.7291 120.129 84.7459L120.096 84.779Z" fill="#6E0023"/><path fill-rule="evenodd" clip-rule="evenodd" d="M156.55 47.309C156.974 46.8798 157.481 46.5409 158.04 46.3128C158.599 46.0846 159.198 45.9721 159.802 45.9818C160.374 46.1477 160.714 46.1145 160.839 46.1726C161.602 46.4961 162.141 46.4878 162.34 46.6786C162.747 47.0685 163.219 47.168 163.402 47.5081C163.584 47.8482 163.875 47.9478 163.958 48.2298C164.356 49.5405 165.077 50.594 164.464 51.6724C164.099 52.2945 164.107 53.3315 163.153 53.7877C162.863 53.937 162.655 54.3684 162.149 54.4679C161.688 54.7848 161.129 54.9261 160.573 54.8661C160.258 54.8246 159.627 54.7334 158.665 54.5675L158.408 54.5177C158.735 54.7802 159.152 54.9026 159.569 54.8578C159.636 54.8578 159.843 54.7831 159.876 54.9325C159.909 55.0818 159.76 54.9905 159.669 55.0154C158.849 55.0008 158.049 54.7627 157.355 54.3269C156.215 54.1099 155.062 53.9659 153.904 53.8955C152.345 53.8274 150.783 53.8856 149.233 54.0697C147.705 54.2418 146.195 54.55 144.721 54.9905C143.852 55.2665 143.017 55.6394 142.232 56.1021C141.834 57.068 141.114 57.866 140.193 58.3599C139.273 58.8538 138.209 59.013 137.184 58.8104C136.159 58.6077 135.237 58.0559 134.573 57.2488C133.91 56.4418 133.547 55.4296 133.547 54.385C133.713 53.7711 133.547 53.1241 133.937 52.5849C134.642 51.5894 135.596 49.7562 138.259 49.4161C139.918 49.2087 142.116 49.2004 144.779 49.1506C146.031 49.1506 147.35 49.0096 148.669 48.8686C150.267 48.7141 151.857 48.4788 153.431 48.1635C154.485 47.9333 155.526 47.6481 156.55 47.309ZM141.842 56.3427L141.013 56.8653C140.931 56.9479 140.874 57.0511 140.847 57.1639C140.847 57.1639 141.452 57.0063 141.56 56.8072C141.644 56.6465 141.738 56.4914 141.842 56.3427V56.3427ZM142.506 55.2062C142.621 54.9455 142.648 54.6539 142.581 54.3767C142.581 54.6549 142.556 54.9325 142.506 55.2062V55.2062ZM157.927 46.8611L158.134 46.7947C158.631 46.6377 159.119 46.4521 159.594 46.2389C159.157 46.3252 158.727 46.4444 158.308 46.5957C158.189 46.6952 158.062 46.784 157.927 46.8611V46.8611Z" fill="#6E0023"/><path fill-rule="evenodd" clip-rule="evenodd" d="M145.445 54.1112C145.445 53.7628 145.362 53.4227 145.312 53.0826C145.179 52.3277 145.959 50.8678 146.216 50.3534C146.839 49.1506 148.016 49.0096 148.705 48.6944C149.118 48.5785 149.546 48.5281 149.974 48.545C151.235 48.3543 152.289 49.1921 153.583 50.5276C154.026 51.2881 154.292 52.1387 154.362 53.0162C154.364 53.6182 154.252 54.2151 154.031 54.7749C153.802 55.8307 153.485 56.8656 153.085 57.869C152.048 60.4489 150.596 62.8462 149.302 65.4261C148.177 67.5652 147.359 69.8523 146.872 72.2199C146.512 74.4406 145.956 76.6252 145.213 78.7484C144.626 80.6533 144.158 82.5925 143.811 84.5551C143.61 85.8959 143.63 87.2605 143.869 88.595C143.895 89.2033 143.798 89.8106 143.583 90.3803C143.368 90.9501 143.04 91.4705 142.619 91.9102C142.198 92.3499 141.692 92.6998 141.132 92.9388C140.572 93.1778 139.969 93.301 139.36 93.301C138.751 93.301 138.149 93.1778 137.589 92.9388C137.029 92.6998 136.523 92.3499 136.102 91.9102C135.68 91.4705 135.353 90.9501 135.138 90.3803C134.923 89.8106 134.826 89.2033 134.852 88.595C135.057 87.0819 135.438 85.598 135.988 84.1735C137.075 81.4692 138.709 78.8811 140.053 76.1519C140.804 74.6407 141.361 73.041 141.712 71.3904C142.203 68.8757 142.919 66.4103 143.852 64.0241C144.35 62.5586 144.776 61.0683 145.13 59.553C145.549 57.7826 145.675 55.9555 145.503 54.1444V54.02V53.9121C145.405 53.6472 145.377 53.3617 145.42 53.0826C145.425 53.3609 145.453 53.6384 145.503 53.9121L145.445 54.1112ZM149.062 57.5206C149.518 57.6618 150.007 57.6618 150.464 57.5206C150.266 57.5543 150.066 57.571 149.866 57.5704C149.597 57.5747 149.328 57.5581 149.062 57.5206V57.5206ZM147.734 57.0727C147.905 57.1901 148.097 57.2745 148.299 57.3215L148.108 57.2469L147.909 57.1639L147.734 57.0727ZM152.77 56.4837C152.668 56.5764 152.56 56.6623 152.446 56.7408C152.56 56.6728 152.661 56.5858 152.745 56.4837H152.77ZM146.133 55.6127C146.31 56.0033 146.599 56.3326 146.963 56.5583C146.633 56.2875 146.345 55.9688 146.109 55.6127H146.133ZM153.649 55.5048C153.598 55.5909 153.543 55.674 153.483 55.7537L153.533 55.7039L153.608 55.5878L153.649 55.5048ZM145.486 54.1776C145.519 54.5344 145.648 54.8757 145.86 55.1647C145.681 54.8551 145.544 54.5232 145.453 54.1776H145.486Z" fill="#6E0023"/><path fill-rule="evenodd" clip-rule="evenodd" d="M168.195 51.1333C168.499 52.8023 168.635 54.4974 168.602 56.1934C168.576 58.0226 168.412 59.8472 168.112 61.6518C167.663 64.0904 167.031 66.4918 166.221 68.8356C165.424 71.2051 164.471 73.5191 163.368 75.7622C161.624 79.0857 159.665 82.2918 157.503 85.3598C157.232 85.8959 157.072 86.4804 157.03 87.0792C156.989 87.6781 157.067 88.2792 157.261 88.8474C157.455 89.4156 157.76 89.9394 158.158 90.3882C158.557 90.837 159.041 91.2018 159.582 91.4612C160.124 91.7205 160.711 91.8693 161.311 91.8987C161.911 91.9281 162.51 91.8376 163.074 91.6325C163.638 91.4274 164.156 91.1118 164.596 90.7042C165.037 90.2966 165.392 89.8052 165.64 89.2587C166.536 86.4134 167.391 82.8878 168.502 79.0139C169.124 76.8405 169.838 74.6008 170.576 72.3777C171.497 69.5821 172.409 66.7534 173.355 64.0823C174.45 60.9882 175.537 58.1429 176.292 55.4801C176.681 54.0632 176.991 52.6259 177.221 51.1748C177.221 49.9779 176.745 48.8301 175.899 47.9838C175.053 47.1376 173.905 46.6621 172.708 46.6621C171.511 46.6621 170.363 47.1376 169.517 47.9838C168.671 48.8301 168.195 49.9779 168.195 51.1748V51.1333Z" fill="#6E0023"/><path fill-rule="evenodd" clip-rule="evenodd" d="M196.79 70.536C197.398 73.5185 197.332 76.5989 196.599 79.553C194.542 88.4622 187.864 97.5124 179.262 94.327C176.043 93.1989 174.451 89.6153 174.99 84.3726C175.463 79.7853 177.479 73.7712 180.083 67.8649C182.327 62.5705 185.121 57.5269 188.42 52.8172C190.08 50.3907 192.241 48.3484 194.758 46.8279C195.89 46.2372 197.156 45.9513 198.433 45.9984C200.49 46.0648 202.307 47.1763 203.758 49.5903C204.696 51.1415 205.417 53.6882 205.658 57.4792C205.67 58.134 205.539 58.7836 205.274 59.3826C205.009 59.9815 204.616 60.5153 204.123 60.9466C205.181 61.2257 206.102 61.8799 206.714 62.7872C207.326 63.6946 207.587 64.7934 207.449 65.879C207.311 66.9646 206.783 67.9631 205.964 68.6886C205.144 69.414 204.089 69.8171 202.995 69.8226C200.907 69.84 198.827 70.0791 196.79 70.536V70.536ZM189.988 72.1121H189.913C187.933 72.9411 185.82 73.4075 183.675 73.4891C181.668 78.0433 180.307 82.5394 180.133 85.9321C180.058 86.7958 180.134 87.666 180.357 88.5037C180.388 88.6835 180.462 88.8531 180.574 88.9977C180.685 89.1423 180.83 89.2575 180.996 89.3332C184.571 90.5278 187.143 87.6742 188.802 84.298C190.391 80.9923 191.039 77.3131 190.676 73.6634C190.567 73.1111 190.386 72.5756 190.137 72.0706L189.988 72.1121ZM196.409 55.5878C195.489 55.9922 194.647 56.5536 193.92 57.2469C191.858 59.5924 189.996 62.1064 188.354 64.7625L189.001 64.5219C192.259 63.3196 195.582 62.3032 198.955 61.4775C198.275 61.0906 197.707 60.5327 197.309 59.859C196.91 59.1854 196.694 58.4194 196.682 57.6368C196.682 56.9447 196.59 56.2557 196.409 55.5878V55.5878Z" fill="#6E0023"/><path fill-rule="evenodd" clip-rule="evenodd" d="M225.464 56.2351C224.975 56.6913 224.427 57.2222 224.004 57.7033C221.905 60.0592 219.856 62.7469 219.749 62.8796C218.962 64.1167 218.282 65.4182 217.716 66.7701C216.837 68.9236 216.073 71.1222 215.427 73.3566C214.97 74.8995 214.539 76.4508 214.141 77.9854C213.486 80.5653 212.847 83.0207 212.067 85.2853C211.288 87.5845 210.17 89.7543 208.749 91.7225C208.347 92.1787 207.856 92.549 207.307 92.8109C206.758 93.0728 206.162 93.221 205.554 93.2466C204.946 93.2722 204.34 93.1746 203.771 92.9598C203.202 92.745 202.682 92.4174 202.242 91.9966C201.803 91.5758 201.454 91.0705 201.215 90.5112C200.976 89.9518 200.852 89.3499 200.852 88.7416C200.851 88.1334 200.974 87.5313 201.212 86.9715C201.45 86.4118 201.799 85.9059 202.237 85.4844C204.817 83.2002 206.849 80.3651 208.185 77.1891C209.396 74.5346 210.4 71.6644 211.354 68.8937C212.279 65.8898 213.407 62.952 214.73 60.1007C214.846 59.8269 218.878 51.4072 220.711 48.96C221.228 48.2877 221.912 47.7619 222.695 47.4346C223.477 47.1073 224.332 46.9897 225.174 47.0936C225.571 47.1505 225.958 47.2593 226.327 47.4171C227.588 47.7572 228.716 48.9849 229.189 51.7058C229.207 52.7802 228.843 53.8262 228.16 54.6562C227.478 55.4862 226.522 56.0459 225.464 56.2351V56.2351ZM220.379 53.1741C220.244 52.7614 220.171 52.3308 220.163 51.8966C220.106 52.3344 220.181 52.7793 220.379 53.1741Z" fill="#6E0023"/><path fill-rule="evenodd" clip-rule="evenodd" d="M226.203 58.5744C225.543 59.0857 224.754 59.4038 223.924 59.4935C223.094 59.5832 222.256 59.4409 221.502 59.0824C220.748 58.7239 220.108 58.1633 219.654 57.4629C219.199 56.7625 218.948 55.9498 218.928 55.1152C219.335 51.5316 220.512 49.8228 221.865 49.1758C223.217 48.5287 224.643 48.0144 226.228 48.6615C227.245 49.0242 228.179 49.5884 228.974 50.3205C230.459 51.8054 231.869 53.8129 232.159 55.2977C232.584 57.4914 232.564 59.748 232.101 61.934C231.739 63.7546 231.279 65.5545 230.724 67.326C229.969 69.8146 229.065 72.3032 228.235 74.7918C227.401 77.2903 226.872 79.8807 226.659 82.5064C226.659 83.3359 226.386 88.7279 226.104 90.9677C225.976 91.9759 225.562 92.9262 224.909 93.7051C223.897 95.1319 222.42 95.0656 221.4 95.1485C220.206 95.2398 219.019 94.5346 217.792 92.9254C217.328 91.9681 217.062 90.9269 217.012 89.8644C217.008 89.1902 217.155 88.5237 217.442 87.9137C217.729 87.3037 218.149 86.7656 218.671 86.3389C219.31 84.3812 219.957 82.1912 220.065 81.7184C220.571 79.0473 222.039 75.7955 223.383 72.2451C224.536 69.4539 225.433 66.5634 226.062 63.6096C226.444 61.9574 226.492 60.2454 226.203 58.5744V58.5744ZM217.908 88.7113C217.792 88.9187 217.709 89.0929 217.709 89.0929C217.768 89.0059 217.821 88.9143 217.866 88.8192L217.908 88.7113Z" fill="#6E0023"/><path fill-rule="evenodd" clip-rule="evenodd" d="M229.595 65.3595C227.753 65.965 226.202 66.6784 224.285 67.2342C223.132 67.5378 221.96 67.7623 220.777 67.9061C219.59 68.0869 218.393 68.1977 217.193 68.238C215.161 68.238 213.419 68.1301 211.386 68.1965C210.807 68.3746 210.269 68.6678 209.805 69.0584C209.341 69.4491 208.961 69.9292 208.687 70.4702C208.413 71.0111 208.25 71.6017 208.209 72.2068C208.169 72.8118 208.25 73.4189 208.449 73.9917C208.649 74.5645 208.961 75.0913 209.368 75.5406C209.776 75.99 210.269 76.3526 210.82 76.6069C211.37 76.8611 211.967 77.0018 212.573 77.0205C213.179 77.0392 213.782 76.9356 214.348 76.7158C215.581 75.6388 216.937 74.7115 218.388 73.9534C219.379 73.5289 220.422 73.236 221.49 73.0824C222.562 72.9059 223.652 72.8696 224.733 72.9746C226.404 73.2725 228.039 73.7452 229.611 74.3848C230.204 74.381 230.79 74.2605 231.336 74.0302C231.882 73.7999 232.377 73.4643 232.794 73.0425C233.21 72.6208 233.539 72.1212 233.762 71.5722C233.986 71.0233 234.098 70.4357 234.095 69.8431C234.091 69.2505 233.97 68.6644 233.74 68.1184C233.51 67.5723 233.174 67.077 232.752 66.6607C232.331 66.2443 231.831 65.9151 231.282 65.6919C230.733 65.4686 230.146 65.3557 229.553 65.3595H229.595Z" fill="#6E0023"/><path fill-rule="evenodd" clip-rule="evenodd" d="M252.721 49.9054C253.081 49.1099 253.665 48.4366 254.402 47.9681C255.139 47.4995 255.996 47.2561 256.869 47.2675C257.981 47.6076 258.603 47.5661 258.868 47.7403C259.515 48.1717 260.121 48.18 260.353 48.5284C260.585 48.8768 260.892 48.8934 261 49.1588C261.365 50.0464 262.087 50.6022 261.946 51.382C261.805 52.1617 262.186 53.2069 261.448 53.9286C261.241 54.1277 261.216 54.4844 260.934 54.6669C260.652 54.8494 260.378 55.4965 259.665 55.6458C259.356 55.8011 259.026 55.9101 258.686 55.9693C258.163 55.9693 257.168 55.9693 256.156 55.9195C256.314 55.9668 256.48 55.9837 256.645 55.9693C256.753 55.9693 257.035 55.9112 257.085 56.1186C257.085 56.1932 256.977 56.2513 256.852 56.2845C256.202 56.2848 255.559 56.1433 254.969 55.8697C254.214 55.8697 253.567 55.82 253.236 55.82C252.547 55.9361 251.801 56.0273 251.029 56.1932C249.967 56.4172 248.847 56.691 247.711 57.0228C246.881 57.2716 246.052 57.5288 245.222 57.8523C243.151 58.7477 241.03 59.5205 238.868 60.1667C237.671 60.1667 236.524 59.6913 235.677 58.845C234.831 57.9987 234.355 56.8509 234.355 55.654C234.355 54.4572 234.831 53.3094 235.677 52.4631C236.524 51.6168 237.671 51.1414 238.868 51.1414C239.613 51.4225 240.382 51.6336 241.166 51.7718C243.601 52.214 246.106 52.0834 248.482 51.3903C249.677 51.0833 250.772 50.6437 251.759 50.3202C251.966 50.2289 252.29 50.0962 252.721 49.9054ZM255.782 48.1882C255.782 48.1882 255.733 48.1882 255.716 48.1882C255.475 48.4205 255.177 48.4205 255.044 48.603C254.917 48.7777 254.769 48.9364 254.604 49.0759L254.762 48.9929C255.131 48.7858 255.473 48.5352 255.782 48.2463V48.1882Z" fill="#6E0023"/><path fill-rule="evenodd" clip-rule="evenodd" d="M245.517 54.2937C245.803 55.791 245.887 57.3199 245.766 58.8395C245.622 60.5279 245.299 62.1963 244.804 63.8167C244.155 65.7808 243.368 67.6964 242.448 69.5488C241.519 71.4982 240.515 73.4144 239.528 75.2975C238.906 76.5086 238.275 77.6865 237.67 78.8811C236.033 81.9275 234.912 85.2238 234.352 88.6364C234.326 89.2447 234.423 89.852 234.638 90.4218C234.853 90.9915 235.18 91.5119 235.602 91.9516C236.023 92.3913 236.529 92.7412 237.089 92.9802C237.649 93.2192 238.251 93.3425 238.86 93.3425C239.469 93.3425 240.072 93.2192 240.632 92.9802C241.192 92.7412 241.698 92.3913 242.119 91.9516C242.54 91.5119 242.868 90.9915 243.083 90.4218C243.298 89.852 243.395 89.2447 243.369 88.6364C243.131 87.4712 243.026 86.2831 243.054 85.0943C243.141 83.1015 243.47 81.1266 244.032 79.2129C244.672 77.2514 245.445 75.3362 246.347 73.4808C247.268 71.5314 248.263 69.6152 249.234 67.7155L251.084 64.1403C252.717 61.117 253.875 57.8603 254.518 54.4845C254.539 53.2876 254.083 52.1315 253.252 51.2705C252.42 50.4094 251.281 49.9139 250.084 49.893C248.887 49.8721 247.731 50.3275 246.87 51.159C246.009 51.9905 245.513 53.13 245.492 54.3269L245.517 54.2937Z" fill="#6E0023"/><path fill-rule="evenodd" clip-rule="evenodd" d="M263.22 64.9036C262.698 63.2855 262.698 61.5445 263.22 59.9264C264.166 56.2765 268.031 49.8891 271.565 46.7119C273.05 45.3024 274.961 44.4269 276.998 44.2233C279.968 44.0243 283.693 46.0732 284.257 54.3519C284.26 55.4268 283.88 56.4676 283.184 57.2871C282.489 58.1065 281.523 58.6506 280.462 58.8217C279.401 58.9927 278.314 58.7793 277.396 58.22C276.478 57.6606 275.79 56.792 275.456 55.7705C273.266 57.7862 269.881 59.8518 269.093 61.6602C270.14 61.5086 271.207 61.5654 272.232 61.8273C273.257 62.0893 274.22 62.5512 275.066 63.1865C277.305 64.7294 277.928 66.2392 278.027 67.1434C278.11 67.7794 278.002 68.4257 277.717 69.0002C277.432 69.5748 276.983 70.0517 276.426 70.3703C275.447 71.009 273.398 71.3408 271.109 70.9012C269.482 70.5914 267.935 69.9535 266.563 69.0264C265.3 70.4718 264.257 72.0958 263.469 73.846C261.958 77.0061 261.089 80.4348 260.914 83.9331C260.814 84.9352 261.011 85.9445 261.478 86.8365C262.307 88.031 263.684 87.2927 265.037 86.7369C269.043 85.0779 273.149 81.3035 275.182 80.1007C276.232 79.6352 277.421 79.5879 278.505 79.9685C279.589 80.349 280.487 81.1287 281.016 82.1487C281.545 83.1686 281.665 84.3519 281.352 85.4573C281.038 86.5626 280.315 87.5069 279.329 88.0974C276.501 89.3666 269.931 93.8543 264.771 94.3852C261.113 94.7668 257.894 93.8792 255.92 90.3869C255.021 88.664 254.613 86.7267 254.742 84.7875C254.9 79.9928 257.131 73.1741 260.433 68.313C261.245 67.0856 262.178 65.9433 263.22 64.9036V64.9036Z" fill="#6E0023"/><path fill-rule="evenodd" clip-rule="evenodd" d="M86.5704 99.4621C86.8408 101.475 86.9656 103.504 86.9437 105.534C86.9206 107.642 86.757 109.745 86.4542 111.83C86.0457 114.3 85.5114 116.748 84.8533 119.163C84.1896 121.652 83.4596 124.141 82.713 126.505C82.2402 128.031 81.7508 129.508 81.2696 130.976C79.9941 134.62 79.0719 138.379 78.5156 142.2C78.5156 143.396 78.9911 144.544 79.8374 145.391C80.6837 146.237 81.8314 146.712 83.0282 146.712C84.2251 146.712 85.3729 146.237 86.2192 145.391C87.0655 144.544 87.541 143.396 87.541 142.2C87.0321 138.144 87.0935 134.036 87.7234 129.997C88.1529 127.518 88.7066 125.063 89.3825 122.639C90.0212 120.151 90.7346 117.704 91.4646 115.248C91.9126 113.738 92.3689 112.245 92.8417 110.752C94.0476 107.136 94.9766 103.434 95.6206 99.6778C95.6567 99.0727 95.5705 98.4666 95.3671 97.8956C95.1638 97.3246 94.8475 96.8004 94.4372 96.3543C94.0268 95.9082 93.5308 95.5493 92.9787 95.2991C92.4266 95.0489 91.8298 94.9125 91.2238 94.898C90.6179 94.8835 90.0152 94.9912 89.4518 95.2148C88.8883 95.4383 88.3758 95.773 87.9446 96.199C87.5134 96.6249 87.1724 97.1334 86.942 97.694C86.7116 98.2547 86.5965 98.856 86.6036 99.4621H86.5704Z" fill="#6E0023"/><path fill-rule="evenodd" clip-rule="evenodd" d="M91.8681 104.505V104.655C91.8901 105.851 91.4358 107.008 90.605 107.87C89.7743 108.732 88.6352 109.228 87.4384 109.25C86.2416 109.272 85.085 108.818 84.2231 107.987C83.3613 107.156 82.8647 106.017 82.8427 104.82C83.3819 95.7536 91.8266 93.8374 99.9975 100.167C103.202 102.622 105.797 105.785 107.579 109.408C109.511 113.133 110.044 117.427 109.081 121.511C107.852 126.666 105.941 131.634 103.399 136.285C100.89 141.204 97.3909 145.55 93.1207 149.051C91.6856 150.221 84.8254 151.896 81.0427 151.54C79.5874 151.498 78.2007 150.912 77.1575 149.896C76.1143 148.881 75.4907 147.51 75.4102 146.056C75.4108 145.13 75.6963 144.227 76.228 143.469C76.7598 142.71 77.5119 142.134 78.3824 141.818C79.2529 141.502 80.1997 141.461 81.0941 141.701C81.9885 141.942 82.7872 142.452 83.382 143.161C85.0372 143.358 86.7114 143.33 88.3592 143.079L89.1887 142.929L88.9813 143.087C92.8737 140.655 96.1569 137.363 98.579 133.464C101.041 129.366 102.854 124.911 103.954 120.258C104.784 116.218 103.249 112.444 100.819 109.574C98.8821 107.334 96.3861 105.648 93.5853 104.688C93.0258 104.538 92.4465 104.476 91.8681 104.505V104.505ZM84.4023 145.418C84.4356 145.635 84.4523 145.854 84.4521 146.073C84.4669 145.853 84.4472 145.632 84.394 145.418H84.4023ZM82.4529 143.004L82.3367 142.937C82.3699 142.964 82.4061 142.986 82.4446 143.004H82.4529Z" fill="#6E0023"/><path fill-rule="evenodd" clip-rule="evenodd" d="M121.803 104.721C121.977 106.214 121.446 111.299 119.912 117.413C119.19 120.275 118.211 123.311 117.133 126.305C116.054 129.3 114.852 132.245 113.566 134.908C110.953 140.349 108.248 144.472 106.979 145.534C106.541 145.956 106.192 146.461 105.954 147.021C105.716 147.581 105.593 148.183 105.594 148.791C105.594 149.4 105.718 150.001 105.957 150.561C106.196 151.12 106.545 151.625 106.985 152.046C107.424 152.467 107.944 152.795 108.513 153.009C109.082 153.224 109.689 153.322 110.296 153.296C110.904 153.271 111.5 153.122 112.049 152.86C112.598 152.599 113.089 152.228 113.491 151.772C114.625 150.086 115.516 148.248 116.137 146.314C117.083 143.568 118.078 139.926 119.364 135.92C120.409 132.668 121.637 129.225 122.865 125.849C123.877 123.07 124.914 120.366 125.934 117.886C128.589 111.473 130.621 106.421 130.828 104.738C130.828 103.541 130.353 102.393 129.507 101.547C128.66 100.7 127.513 100.225 126.316 100.225C125.119 100.225 123.971 100.7 123.125 101.547C122.278 102.393 121.803 103.541 121.803 104.738V104.721Z" fill="#6E0023"/><path fill-rule="evenodd" clip-rule="evenodd" d="M128.369 112.768C128.304 113.931 127.791 115.025 126.938 115.819C126.085 116.614 124.958 117.047 123.792 117.029C122.627 117.011 121.514 116.542 120.686 115.722C119.858 114.901 119.38 113.792 119.352 112.627C119.448 110.289 120.461 108.084 122.172 106.488C124.855 104.039 128.209 102.45 131.803 101.926C135.171 101.536 138.232 102.199 139.999 104.281C140.94 105.331 141.541 106.641 141.724 108.039L141.674 110.528C141.492 117.902 137.991 122.257 134.15 124.904C133.466 125.389 132.751 125.83 132.01 126.223L132.068 126.405C132.997 129.367 132.657 134.087 132.574 136.036C132.525 138.682 132.574 140.441 133.213 141.577C133.263 141.66 133.396 141.577 133.479 141.577C133.713 141.646 133.956 141.682 134.2 141.685C136.097 141.84 138.004 141.795 139.891 141.552C141.088 141.552 142.235 142.028 143.082 142.874C143.928 143.72 144.403 144.868 144.403 146.065C144.403 147.262 143.928 148.41 143.082 149.256C142.235 150.102 141.088 150.578 139.891 150.578C133.951 150.13 130.418 149.325 128.476 147.459C126.345 145.401 125.158 142.009 126.179 135.455C126.519 133.625 126.733 131.774 126.817 129.914C126.754 129.36 126.612 128.818 126.394 128.305C125.93 128.421 125.565 128.496 125.183 128.554C124.636 128.653 124.238 128.686 124.055 128.703C121.475 128.861 121.152 126.214 121.152 126.048C121.147 125.542 121.256 125.041 121.469 124.581C121.683 124.122 121.997 123.716 122.388 123.394C123.508 122.415 126.096 122.05 126.9 122.033C127.367 122.022 127.832 122.072 128.286 122.183C130.203 121.422 131.909 120.213 133.263 118.657C134.839 116.783 135.809 114.128 135.702 110.553L135.652 109.192C135.552 108.786 135.154 108.778 134.822 108.736C133.786 108.737 132.766 109.003 131.861 109.508C130.301 110.196 129.522 112.992 128.369 112.768Z" fill="#6E0023"/><path fill-rule="evenodd" clip-rule="evenodd" d="M170.097 111.681C171.517 113.673 172.524 115.93 173.058 118.317C174.349 124.489 174.089 130.885 172.304 136.932C169.923 144.688 164.987 149.956 157.82 147.965C151.325 146.306 147.866 143.079 146.207 139.404C144.257 135.124 144.879 129.972 146.837 124.937C150.014 116.733 157.007 109.275 161.296 107.459C162.322 106.99 163.452 106.794 164.577 106.888C165.701 106.983 166.782 107.365 167.716 107.998C168.948 108.88 169.799 110.196 170.097 111.681V111.681ZM163.751 117.737C163.159 118.066 162.499 118.256 161.822 118.294C161.146 118.331 160.469 118.214 159.844 117.952L159.628 118.135C155.945 121.395 152.005 126.43 150.86 131.474C150.246 134.12 150.404 136.749 152.022 138.848C153.39 140.632 155.721 141.984 159.147 142.88C163.37 143.917 165.642 140.034 166.729 135.414C168.09 129.607 167.509 122.141 164.904 118.16C164.503 118.071 164.115 117.929 163.751 117.737Z" fill="#6E0023"/><path fill-rule="evenodd" clip-rule="evenodd" d="M207.005 100.549C207.536 96.3429 208.366 94.6257 209.204 94.8165C210.033 94.6257 210.863 96.3346 211.394 100.549C211.838 103.633 212.024 106.749 211.949 109.864V109.914C212.198 117.687 208.399 124.53 207.18 132.104C206.727 134.786 206.82 137.531 207.453 140.175C207.574 140.645 207.73 141.105 207.918 141.552C208.092 141.378 208.266 141.196 208.416 141.013C209.244 140.149 210.382 139.648 211.579 139.623C212.776 139.597 213.934 140.048 214.799 140.876C215.664 141.705 216.164 142.843 216.189 144.04C216.215 145.237 215.764 146.395 214.936 147.26C210.257 151.681 206.566 151.648 204.152 150.122C202.26 148.91 200.411 146.098 199.78 141.635C199.647 140.698 199.564 139.777 199.523 138.873C198.657 140.046 197.682 141.135 196.611 142.125C193.351 145.078 189.577 146.38 185.305 145.012C178.528 142.971 177.233 135.256 178.378 127.119C179.179 122.34 180.33 117.627 181.821 113.016C181.744 112.364 181.812 111.702 182.02 111.078C182.228 110.455 182.571 109.884 183.024 109.408C183.797 108.576 184.835 108.037 185.96 107.882C187.089 107.741 188.229 108.038 189.146 108.711C189.889 109.23 190.454 109.966 190.763 110.818C191.112 111.716 191.165 112.701 190.912 113.63C190.591 114.667 190.214 115.686 189.784 116.683C188.291 120.275 185.379 126.878 184.873 132.552C184.6 135.563 184.683 138.4 187.262 139.421C190.199 140.516 192.679 138.674 194.82 136.144C198.776 131.474 201.456 124.265 203.024 120.565C203.853 118.566 204.973 116.418 205.736 114.236C205.869 113.838 206.002 113.406 206.101 113.033C206.278 112.013 206.383 110.982 206.416 109.947V109.897C206.359 106.77 206.556 103.644 207.005 100.549V100.549ZM188.424 116.492C188.892 116.288 189.306 115.979 189.635 115.588C189.283 115.953 188.874 116.259 188.424 116.492Z" fill="#6E0023"/><path fill-rule="evenodd" clip-rule="evenodd" d="M242.197 134.203C242.618 136.854 242.595 139.556 242.13 142.199C241.243 146.986 238.945 151.324 234.897 153.257C232.85 154.016 230.666 154.335 228.487 154.192C226.309 154.049 224.185 153.448 222.255 152.428C221.48 151.94 220.854 151.248 220.446 150.428C218.165 145.791 218.248 138.815 219.526 131.656C221.359 121.328 225.789 110.544 229.862 105.94C231.252 104.178 233.262 103.01 235.482 102.676C237.703 102.342 239.967 102.865 241.815 104.14C242.58 104.667 243.2 105.378 243.619 106.207C244.038 107.036 244.242 107.957 244.213 108.885C244.213 110.735 243.043 113.58 238.215 113.796C237.557 113.789 236.909 113.636 236.317 113.349C235.725 113.063 235.203 112.649 234.789 112.137C231.687 115.522 228.203 121.95 226.071 128.802C223.889 135.829 223.001 143.261 225.075 147.998C225.606 147.459 226.734 148.612 227.174 148.72C228.926 149.289 230.827 149.197 232.516 148.462C234.063 147.554 235.199 146.083 235.685 144.356C236.611 141.353 236.688 138.152 235.909 135.107C235.862 134.91 235.804 134.716 235.735 134.526C234.392 134.455 233.058 134.274 231.745 133.987C230.665 133.748 229.701 133.145 229.015 132.278C228.703 131.856 228.484 131.372 228.373 130.859C228.261 130.345 228.26 129.814 228.369 129.3C228.502 128.571 228.855 127.899 229.381 127.376C231.463 125.393 233.42 124.746 235.121 124.887C236.436 124.997 237.683 125.516 238.688 126.372C239.592 126.131 240.753 125.8 241.848 125.426C242.456 125.225 243.043 124.964 243.599 124.646C244.649 124.181 245.838 124.134 246.922 124.514C248.006 124.895 248.904 125.675 249.433 126.694C249.962 127.714 250.082 128.898 249.769 130.003C249.455 131.108 248.732 132.053 247.746 132.643C246.6 133.153 245.405 133.545 244.179 133.813C243.541 133.954 242.852 134.087 242.197 134.203Z" fill="#6E0023"/><path fill-rule="evenodd" clip-rule="evenodd" d="M255.029 108.803C254.871 108.338 254.793 107.85 254.797 107.359C254.799 106.164 255.275 105.018 256.121 104.174C256.967 103.329 258.114 102.855 259.309 102.855C261.109 103.087 262.569 103.552 263.349 104.995C263.966 105.904 264.288 106.982 264.27 108.081C264.198 109.212 263.972 110.329 263.598 111.399C262.461 114.535 260.172 118.865 259.766 119.835C259.259 121.204 258.695 122.589 258.181 124.049C257.459 126.082 256.754 128.197 256.107 130.387C255.039 133.892 254.191 137.46 253.569 141.071C252.854 145.739 252.759 150.481 253.287 155.173C253.313 155.782 253.216 156.389 253.001 156.959C252.786 157.529 252.458 158.049 252.037 158.489C251.616 158.928 251.11 159.278 250.55 159.517C249.99 159.756 249.387 159.88 248.778 159.88C248.169 159.88 247.567 159.756 247.007 159.517C246.447 159.278 245.941 158.928 245.52 158.489C245.099 158.049 244.771 157.529 244.556 156.959C244.341 156.389 244.244 155.782 244.27 155.173C244.589 152.507 245.079 149.863 245.738 147.26C246.476 144.315 247.397 141.362 248.31 138.35C248.899 136.426 249.446 134.477 249.969 132.544C250.69 130.113 251.429 127.708 252.076 125.352C252.748 122.863 253.287 120.433 253.826 118.143C254.042 117.098 253.486 110.296 255.029 108.803ZM258.579 111.822C258.811 111.888 259.053 111.908 259.293 111.88C259.052 111.868 258.814 111.834 258.579 111.781V111.822Z" fill="#6E0023"/><path fill-rule="evenodd" clip-rule="evenodd" d="M275.29 98.6571C277.778 98.0432 280.267 102.481 279.728 107.558C279.786 107.873 279.844 108.205 279.894 108.553C279.91 109.376 279.694 110.187 279.271 110.893C279.006 112.784 278.649 115.148 278.309 117.205C278.126 118.719 277.829 120.216 277.422 121.685C276.683 123.974 275.646 126.438 274.717 129.035C273.851 131.393 273.123 133.8 272.536 136.243C271.859 139.255 271.691 142.359 272.038 145.426C272.104 145.891 272.336 146.571 272.419 147.085C272.469 147.717 272.401 148.353 272.22 148.96C271.938 150.511 270.727 151.158 269.732 151.756C268.736 152.353 266.928 152.776 264.041 150.503C263.25 149.664 262.809 148.554 262.809 147.4C262.809 146.247 263.25 145.137 264.041 144.298C264.291 142.74 264.66 141.204 265.144 139.702C265.783 137.687 266.571 135.663 267.392 133.58C267.907 132.286 268.404 130.976 268.886 129.673C270.122 126.355 271.25 123.037 272.096 120.109C272.361 118.582 271.864 114.003 271.457 110.843C271.083 110.185 270.883 109.443 270.876 108.686C270.915 108.31 270.965 107.953 271.026 107.616C270.462 102.531 272.776 98.0598 275.29 98.6571ZM270.437 144.082L270.594 144.24C270.548 144.181 270.495 144.128 270.437 144.082V144.082Z" fill="#6E0023"/><path fill-rule="evenodd" clip-rule="evenodd" d="M275.295 128.172C273.487 128.662 271.753 129.367 271.239 129.425C269.446 129.821 267.632 130.118 265.806 130.312C264.022 130.561 262.272 130.744 260.505 131.034C258.199 131.416 256.075 131.98 253.727 132.502C252.531 132.502 251.383 132.027 250.537 131.181C249.69 130.334 249.215 129.186 249.215 127.99C249.215 126.793 249.69 125.645 250.537 124.799C251.383 123.952 252.531 123.477 253.727 123.477C255.768 123.95 257.593 124.489 259.592 124.854C260.394 125.015 261.206 125.123 262.023 125.177C264.612 125.364 267.209 124.953 269.613 123.975C270.161 123.684 272.209 121.735 273.761 120.582C274.463 120.131 275.225 119.782 276.025 119.545C276.855 119.188 277.626 119.545 278.249 119.595C278.871 119.644 279.211 120.084 279.692 120.267C280.762 120.69 280.961 121.859 281.558 122.971C281.716 123.253 281.608 123.601 281.716 123.958C281.754 125.154 281.316 126.317 280.498 127.191C279.68 128.065 278.549 128.579 277.353 128.62C276.641 128.632 275.937 128.479 275.295 128.172V128.172ZM276.747 128.106C276.442 128.043 276.129 128.02 275.818 128.039L275.909 128.089C276.181 128.175 276.472 128.181 276.747 128.106V128.106ZM272.857 125.136C272.788 124.848 272.749 124.553 272.74 124.257C272.68 124.555 272.721 124.864 272.857 125.136V125.136Z" fill="#6E0023"/><path fill-rule="evenodd" clip-rule="evenodd" d="M314.275 101.569C314.524 101.531 314.777 101.514 315.029 101.519C315.735 101.693 316.241 101.61 316.531 101.793C317.053 102.141 317.593 102.208 317.85 102.556C318.762 103.775 319.7 104.638 319.509 105.833C319.368 106.554 319.608 107.442 318.986 108.147C318.779 108.379 318.721 108.761 318.406 108.977C318.09 109.192 317.875 109.707 317.319 109.881C316.572 110.121 315.593 110.669 314.988 110.528C314.382 110.387 313.727 110.246 313.105 110.105C312.812 109.978 312.534 109.819 312.275 109.632C312.431 109.792 312.607 109.931 312.798 110.047L313.063 110.105L313.387 110.237C313.513 110.265 313.635 110.307 313.752 110.362C314.122 110.465 314.504 110.518 314.888 110.519C314.503 110.593 314.103 110.538 313.752 110.362L313.553 110.304L313.379 110.237C313.172 110.213 312.972 110.148 312.79 110.047C311.504 109.748 310.21 109.466 308.833 109.283C307.509 109.093 306.172 109.009 304.834 109.035C302.896 109.084 300.972 109.385 299.111 109.931C297.936 110.332 296.804 110.852 295.734 111.482C294.518 112.228 293.224 112.843 291.877 113.315C290.528 113.794 289.14 114.158 287.729 114.402C287.121 114.428 286.514 114.331 285.944 114.116C285.374 113.901 284.854 113.573 284.414 113.152C283.975 112.731 283.625 112.225 283.386 111.665C283.147 111.105 283.023 110.502 283.023 109.893C283.023 109.284 283.147 108.682 283.386 108.122C283.625 107.562 283.975 107.056 284.414 106.635C284.854 106.213 285.374 105.885 285.944 105.671C286.514 105.456 287.121 105.359 287.729 105.385C288.639 105.651 289.573 105.826 290.517 105.907C291.458 105.96 292.402 105.898 293.329 105.725C294.374 105.426 295.411 105.202 296.489 104.978C298.007 104.663 299.542 104.373 301.102 104.149C302.661 103.925 304.121 103.726 305.631 103.477C306.643 103.311 307.622 103.128 308.625 102.921C310.144 102.597 311.587 102.266 313.039 101.95C313.189 101.88 313.345 101.819 313.503 101.768C313.737 101.632 314.004 101.564 314.275 101.569V101.569ZM311.131 108.396C311.244 108.709 311.453 108.979 311.728 109.167C311.502 108.932 311.302 108.674 311.131 108.396V108.396ZM310.459 106.131C310.371 106.635 310.468 107.153 310.732 107.591C310.56 107.123 310.468 106.63 310.459 106.131V106.131ZM311.064 103.767C310.966 103.883 310.896 104.019 310.857 104.165L310.931 104.016C310.931 103.958 310.998 103.892 311.031 103.825L311.064 103.767ZM311.894 102.705C311.758 102.797 311.642 102.916 311.554 103.054L311.645 102.954L311.794 102.797L311.894 102.705ZM313.271 101.876L314.93 101.511C314.704 101.533 314.476 101.533 314.25 101.511C313.993 101.552 313.74 101.616 313.495 101.702V101.702L313.271 101.876Z" fill="#6E0023"/><path fill-rule="evenodd" clip-rule="evenodd" d="M286.668 151.88C288.018 149.136 289.128 146.28 289.986 143.344C290.932 140.25 291.562 137.43 291.935 136.318C292.765 133.398 293.794 130.47 294.648 127.467C295.491 124.581 296.161 121.648 296.655 118.682C297.215 114.905 297.282 111.071 296.855 107.276C296.837 106.668 296.942 106.063 297.164 105.497C297.386 104.93 297.721 104.415 298.147 103.981C298.573 103.547 299.083 103.204 299.645 102.972C300.208 102.74 300.811 102.625 301.419 102.632C302.028 102.639 302.628 102.769 303.185 103.015C303.741 103.26 304.243 103.615 304.658 104.059C305.074 104.503 305.396 105.026 305.605 105.597C305.813 106.169 305.904 106.777 305.872 107.384C305.442 110.679 304.723 113.929 303.723 117.098C303.167 118.881 302.57 120.623 301.956 122.39C301.342 124.157 300.778 125.833 300.214 127.558C299.103 130.968 298.099 134.385 297.195 137.745C296.996 138.624 296.656 140.549 296.365 142.871C295.768 147.434 295.088 153.216 294.15 156.078C293.818 157.206 293.15 158.207 292.236 158.947C291.322 159.688 290.205 160.134 289.032 160.225C288.045 160.225 287.084 159.901 286.298 159.303C285.513 158.705 284.945 157.865 284.682 156.913C284.419 155.961 284.476 154.949 284.844 154.032C285.212 153.116 285.87 152.345 286.718 151.839L286.668 151.88Z" fill="#6E0023"/><path fill-rule="evenodd" clip-rule="evenodd" d="M9.94526 185.46C9.07339 185.94 8.06751 186.119 7.08361 185.969C6.09971 185.819 5.19283 185.348 4.50357 184.63C3.85669 184.022 3.41256 183.229 3.23153 182.359C3.05049 181.49 3.14124 180.585 3.49146 179.769C3.82566 178.94 4.37453 178.215 5.08157 177.669C5.78862 177.122 6.62844 176.773 7.51478 176.658C9.48907 176.327 14.9806 176.501 16.424 176.534C21.0445 176.625 26.7599 177.546 32.0025 177.596C33.9176 177.66 35.8335 177.495 37.7097 177.106C44.8848 175.492 52.2136 174.657 59.568 174.618C76.1587 174.286 93.8526 176.576 109.191 176.791C122.192 176.846 135.166 176.764 148.112 176.542C166.304 176.21 184.471 175.713 202.654 175.257C214.782 174.95 226.918 174.585 239.079 174.427C242.928 174.361 246.802 174.186 250.692 173.954C266.313 172.992 282.165 171.009 297.827 170.702C298.731 170.702 300.78 170.387 302.431 170.387C303.753 170.357 305.066 170.614 306.28 171.142C307.134 171.523 307.86 172.141 308.372 172.924C308.884 173.707 309.16 174.62 309.166 175.555C309.2 176.75 308.759 177.91 307.94 178.78C307.12 179.651 305.99 180.162 304.795 180.201C304.028 180.227 303.267 180.052 302.588 179.695C301.759 180.524 298.698 179.437 297.827 179.421C293.978 179.338 290.12 179.354 286.213 179.421C270.452 179.769 254.533 181.13 239.046 180.831C226.055 180.682 213.09 180.64 200.124 180.79C184.969 180.955 169.83 181.312 154.674 181.619C139.518 181.926 124.355 182.283 109.157 182.341C96.0342 182.523 81.1359 181.171 66.7269 181.345C57.2453 181.461 47.9877 182.258 39.6343 184.597C37.1567 185.237 34.6111 185.577 32.0524 185.609C26.7931 185.767 21.0278 185.078 16.3908 185.169C15.4866 185.211 11.6043 185.385 9.94526 185.46ZM12.2597 181.171C12.2541 180.647 12.1408 180.13 11.9267 179.652C11.7127 179.174 11.4024 178.745 11.0154 178.392C11.7425 179.144 12.1828 180.128 12.2597 181.171ZM300.199 176.376V176.26V176.376ZM300.199 176.269C300.191 176.119 300.191 175.97 300.199 175.821C300.181 175.969 300.176 176.119 300.182 176.269H300.199Z" fill="#6E0023"/><path fill-rule="evenodd" clip-rule="evenodd" d="M72.6644 158.251C73.516 157.422 74.6611 156.962 75.8499 156.974C80.4372 157.206 80.7524 160.798 80.6445 161.818C80.6314 162.554 80.4282 163.273 80.0546 163.907C79.681 164.541 79.1499 165.067 78.5127 165.435C77.7935 165.842 77.0275 166.159 76.2315 166.38C72.4654 167.5 62.2289 169.699 59.4251 170.288C52.8386 171.772 45.8457 174.303 38.8029 176.833C34.0663 178.492 29.3131 180.225 24.6345 181.544C23.3073 181.909 21.9966 182.258 20.6776 182.565C25.041 183.452 33.1206 184.489 41.8971 185.41C57.5172 187.069 75.377 188.123 79.5081 187.973C80.7049 187.973 81.8527 188.449 82.699 189.295C83.5453 190.141 84.0208 191.289 84.0208 192.486C84.0208 193.683 83.5453 194.831 82.699 195.677C81.8527 196.523 80.7049 196.999 79.5081 196.999C75.2609 196.849 57.0444 194.178 41.0758 191.623C28.4918 189.607 17.3097 187.617 15.1861 186.455C13.8712 185.892 12.467 185.566 11.0384 185.493C8.55604 185.266 6.05948 185.239 3.57265 185.41C2.9473 185.463 2.32368 185.289 1.81586 184.921C1.30804 184.552 0.949954 184.013 0.806995 183.402C0.664036 182.79 0.745732 182.148 1.03726 181.593C1.3288 181.037 1.81064 180.605 2.39467 180.375C3.45242 179.958 4.5325 179.601 5.62987 179.305C6.50238 179.055 7.4022 178.913 8.30925 178.882C13.3119 178.749 18.2677 177.879 23.0169 176.302C34.6801 172.643 46.5176 166.215 57.4591 163.029C60.0141 162.274 68.691 159.694 72.6644 158.251ZM74.4812 165.792C74.8936 165.948 75.3346 166.016 75.7752 165.991C75.3364 165.988 74.9003 165.921 74.4812 165.792Z" fill="#6E0023"/></svg>