<svg width="446" height="510" viewBox="0 0 446 510" fill="none" xmlns="http://www.w3.org/2000/svg"><path fill-rule="evenodd" clip-rule="evenodd" d="M273.43 8.48622C279.096 0.517341 282.223 -1.48328 282.66 1.00489C284.341 2.34985 282.273 10.0497 273.665 24.6425L273.06 25.7689C268.756 33.7883 259.005 51.071 252.449 67.3282C248.296 77.6003 245.118 87.284 246.447 93.2859C246.732 93.4036 247.186 93.5885 247.472 93.6726C248.649 94.0088 249.843 94.1937 250.616 94.3619C254.344 94.9468 258.162 94.4023 261.577 92.7983C267.916 90.2093 273.85 85.6364 278.81 82.0555C279.445 81.611 280.163 81.2977 280.921 81.1339C281.679 80.9702 282.462 80.9592 283.225 81.1016C283.987 81.2441 284.713 81.5371 285.361 81.9636C286.009 82.39 286.565 82.9414 286.997 83.5854C287.882 84.8954 288.218 86.4994 287.936 88.0545C287.653 89.6096 286.773 90.9924 285.484 91.9073C279.751 95.7909 272.825 100.633 265.579 103.339C260.125 105.607 254.118 106.192 248.33 105.021C245.636 104.522 243.038 103.603 240.63 102.297C238.731 101.158 237.314 99.3644 236.645 97.2535C235.957 94.4273 235.78 91.5006 236.124 88.6122C229.769 95.7909 222.439 101.171 214.168 102.852C207.544 104.23 202.752 102.852 199.491 100.263C193.691 95.7572 192.278 86.8133 195.641 78.5082C197.786 72.9386 201.878 68.3358 207.158 65.5535C212.439 62.7712 218.549 61.998 224.356 63.3774C226.375 63.643 228.316 64.3294 230.054 65.3922C231.791 66.455 233.287 67.8705 234.443 69.5474C235.215 70.709 235.784 71.9939 236.124 73.3469C241.453 65.6806 245.909 57.2746 249.574 50.6171C253.407 42.9004 257.408 35.5703 260.686 29.7198C263.091 25.231 264.604 22.541 265.259 21.4314L266.285 19.7502C268.417 15.8431 270.804 12.0803 273.43 8.48622V8.48622ZM225.23 85.8214C224.966 85.0545 224.852 84.244 224.894 83.4341C225.317 81.026 225.317 78.5625 224.894 76.1545C224.591 75.1626 223.616 74.7759 222.019 74.4733C218.727 73.5802 215.223 73.913 212.159 75.4097C209.094 76.9065 206.678 79.4653 205.358 82.6103C204.064 85.6196 203.677 88.8811 205.022 91.1171C206.199 92.9833 208.67 93.4876 212.301 92.7983C217.171 91.7073 221.645 89.293 225.23 85.8214V85.8214Z" fill="#6E0023"/><path fill-rule="evenodd" clip-rule="evenodd" d="M184.16 122.606C182.176 126.288 180.091 130.104 177.872 133.954C175.653 137.804 173.534 141.553 171.298 145.37C170.122 147.421 168.911 149.455 167.684 151.472C165.818 154.599 163.952 157.676 162.254 160.803C160.377 164.174 158.693 167.648 157.21 171.21C156.718 172.708 156.835 174.34 157.537 175.753C158.238 177.165 159.468 178.245 160.959 178.758C161.699 179.001 162.479 179.094 163.254 179.032C164.03 178.97 164.786 178.754 165.477 178.397C166.169 178.041 166.782 177.55 167.282 176.954C167.782 176.358 168.159 175.668 168.39 174.925C170.061 168.213 172.521 161.724 175.72 155.591C177.759 151.86 180.004 148.245 182.445 144.764C186.261 139.233 190.38 134.072 194.045 129.012C194.887 127.676 195.171 126.064 194.838 124.521C194.505 122.978 193.581 121.626 192.263 120.757C191.611 120.343 190.883 120.062 190.121 119.931C189.359 119.799 188.579 119.82 187.826 119.992C187.072 120.164 186.361 120.484 185.731 120.932C185.102 121.381 184.568 121.95 184.16 122.606V122.606Z" fill="#6E0023"/><path fill-rule="evenodd" clip-rule="evenodd" d="M183.029 134.122C182.746 133.872 182.487 133.597 182.256 133.298C181.292 132.046 180.854 130.467 181.037 128.897C181.219 127.328 182.006 125.891 183.231 124.892C187.736 121.53 204.162 110.955 214.871 109.98C216.682 109.696 218.532 109.785 220.307 110.242C222.082 110.699 223.745 111.514 225.194 112.636C226.581 113.912 227.672 115.476 228.389 117.219C229.107 118.962 229.433 120.841 229.346 122.724C229.436 124.241 229.225 125.761 228.724 127.196C228.229 128.399 227.573 129.531 226.774 130.558C221.973 136.729 215.795 141.691 208.735 145.05C209.511 147.06 210.146 149.121 210.634 151.22C211.811 156.095 211.929 160.668 214.131 163.997C215.678 166.317 218.654 167.225 224.219 167.544C225.754 167.733 227.156 168.509 228.132 169.709C229.108 170.909 229.581 172.44 229.453 173.981C229.325 175.522 228.605 176.954 227.444 177.976C226.283 178.998 224.772 179.532 223.227 179.464C212.702 178.254 207.793 174.572 205.053 169.948C202.918 166.351 202.144 161.929 201.405 156.986C201.037 153.936 200.332 150.937 199.303 148.042C196.907 148.476 194.447 148.42 192.073 147.88C189.698 147.34 187.457 146.326 185.484 144.899C183.802 143.734 182.618 141.981 182.164 139.987C181.709 137.993 182.018 135.9 183.029 134.122ZM191.62 137.955L191.519 138.09C191.911 138.34 192.328 138.549 192.763 138.712C192.427 138.409 192.091 138.106 191.721 137.821L191.62 137.955ZM204.313 137.098L205.339 136.593C210.705 133.854 215.356 129.899 218.923 125.044C219.199 124.659 219.447 124.255 219.662 123.833C219.763 123.615 219.662 123.413 219.662 123.026C219.699 122.165 219.483 121.312 219.04 120.572C218.671 120.067 217.981 120.235 217.359 120.235C215.743 120.331 214.15 120.671 212.635 121.244C206.994 123.394 201.65 126.252 196.731 129.751V129.751C199.604 131.815 202.159 134.291 204.313 137.098V137.098Z" fill="#6E0023"/><path fill-rule="evenodd" clip-rule="evenodd" d="M211.494 206.296C212.03 207.374 212.464 208.499 212.789 209.658C213.586 212.888 213.635 216.257 212.933 219.508C212.231 222.759 210.796 225.808 208.737 228.421C206.527 231.373 203.677 233.786 200.402 235.481C197.127 237.175 193.51 238.107 189.824 238.205C185.148 238.282 180.526 237.196 176.374 235.044C163.328 228.874 163.412 209.944 173.449 199.907C180.644 192.678 192.984 189.585 209.107 200.748C209.959 201.38 210.628 202.227 211.047 203.201C211.466 204.175 211.621 205.243 211.494 206.296ZM192.278 204.985C187.235 203.539 183.149 204.564 180.224 207.237C174.374 212.584 173.062 223.242 180.224 226.924C183.761 228.792 187.82 229.425 191.757 228.723C195.472 227.919 198.725 225.692 200.819 222.52C201.819 221.157 202.491 219.582 202.783 217.917C203.075 216.251 202.978 214.541 202.5 212.92C201.609 210.314 199.138 208.431 195.271 207.322C194.044 206.892 192.992 206.071 192.278 204.985Z" fill="#6E0023"/><path fill-rule="evenodd" clip-rule="evenodd" d="M221.513 275.545C219.516 277.118 217.397 278.529 215.175 279.765C211.199 282.13 206.654 283.368 202.028 283.346C193.269 283.06 188.679 279.563 186.527 275.612C183.165 269.476 186.006 259.809 193.033 251.605C193.559 251.02 194.198 250.549 194.911 250.218C195.624 249.888 196.397 249.705 197.182 249.682C197.968 249.658 198.75 249.794 199.482 250.081C200.214 250.368 200.879 250.801 201.439 251.352C202.567 252.446 203.223 253.935 203.271 255.504C203.318 257.074 202.751 258.6 201.692 259.758C198.329 263.121 195.589 266.635 195.622 269.846C195.622 272.334 198.094 273.309 202.717 273.746C206.47 273.826 210.147 272.681 213.191 270.484C216.682 268.149 219.814 265.317 222.488 262.078C222.639 261.86 223.346 260.818 223.598 260.549C224.178 259.95 224.91 259.52 225.716 259.305C226.364 259.108 227.048 259.064 227.716 259.174C228.383 259.285 229.016 259.548 229.566 259.943C230.114 260.305 230.578 260.78 230.926 261.337C231.275 261.894 231.499 262.52 231.583 263.171C232.214 266.752 232.316 270.405 231.886 274.015C231.433 276.547 231.388 279.135 231.751 281.681C232.222 283.547 234.055 284.556 237.434 285.884C238.869 286.541 239.988 287.737 240.548 289.213C241.109 290.688 241.065 292.325 240.426 293.769C240.123 294.483 239.681 295.128 239.125 295.669C238.569 296.209 237.911 296.634 237.19 296.917C236.468 297.2 235.697 297.337 234.922 297.319C234.147 297.301 233.384 297.129 232.676 296.812C224.825 292.844 222.118 288.524 221.362 283.934C220.96 281.148 221.011 278.315 221.513 275.545V275.545Z" fill="#6E0023"/><path fill-rule="evenodd" clip-rule="evenodd" d="M356.684 94.8664C348.666 106.066 339.986 116.778 330.692 126.944C324.557 133.813 317.999 140.293 311.056 146.345C303.255 153.069 295.471 158.113 289.083 160.265C286.477 161.139 284.241 161.475 282.526 160.517C281.624 159.831 280.992 158.849 280.744 157.743C280.458 157.02 280.03 156.361 279.486 155.805C278.941 155.249 278.291 154.808 277.574 154.507C276.856 154.207 276.086 154.052 275.308 154.054C274.53 154.055 273.76 154.212 273.044 154.515C271.595 155.141 270.451 156.312 269.859 157.776C269.268 159.239 269.276 160.876 269.883 162.333C272.371 167.814 275.986 170.739 280.424 171.714C284.863 172.689 290.932 171.495 297.371 167.931C304.103 163.925 310.402 159.232 316.167 153.927C319.849 150.665 323.598 147.202 327.33 143.588C334.357 136.863 341.267 129.818 347.252 123.413C357.171 112.788 364.636 104.046 366.233 101.911C367.159 100.613 367.535 99.0015 367.28 97.4276C367.025 95.8536 366.16 94.4438 364.871 93.5046C364.246 93.0497 363.538 92.7237 362.786 92.5457C362.034 92.3678 361.254 92.3415 360.492 92.4682C359.73 92.595 359 92.8724 358.346 93.2841C357.693 93.6959 357.127 94.2337 356.684 94.8664V94.8664Z" fill="#6E0023"/><path fill-rule="evenodd" clip-rule="evenodd" d="M378.281 160.803C370.75 167.191 357.687 183.634 342.472 198.949C337.41 204.139 332.049 209.028 326.417 213.593C312.53 224.604 298.458 232.422 287.581 227.042C286.873 226.724 286.109 226.55 285.333 226.529C284.557 226.508 283.785 226.642 283.061 226.922C282.337 227.201 281.675 227.622 281.115 228.16C280.555 228.697 280.107 229.34 279.797 230.051C279.15 231.491 279.096 233.127 279.647 234.606C280.197 236.085 281.308 237.287 282.739 237.953C294.272 242.778 308.075 238.306 321.995 228.488C327.742 224.319 333.248 219.829 338.488 215.038C341.951 211.945 345.397 208.768 348.793 205.556C364.109 191.081 377.912 175.967 385.578 170.15C386.807 169.154 387.596 167.717 387.779 166.146C387.961 164.575 387.521 162.995 386.553 161.744C386.075 161.135 385.48 160.627 384.804 160.25C384.128 159.873 383.383 159.633 382.614 159.546C381.845 159.458 381.065 159.524 380.322 159.74C379.578 159.956 378.884 160.317 378.281 160.803V160.803Z" fill="#6E0023"/><path fill-rule="evenodd" clip-rule="evenodd" d="M402.594 235.045C397.399 239.937 384.37 254.698 368.684 269.61C361.078 276.961 353.057 283.871 344.66 290.306C333.514 298.712 322.485 304.932 313.76 306.378C309.91 307.017 306.665 306.496 304.513 303.823C304.008 303.235 303.391 302.753 302.698 302.407C302.005 302.06 301.25 301.855 300.477 301.803C299.704 301.752 298.928 301.855 298.195 302.106C297.462 302.357 296.787 302.752 296.208 303.268C295.042 304.322 294.332 305.789 294.228 307.358C294.124 308.927 294.636 310.475 295.653 311.674C302.681 319.357 313.844 319.441 326.94 312.901C334.802 308.729 342.249 303.821 349.182 298.241C353.654 294.795 358.194 291.062 362.632 287.263C371.139 280.084 379.444 272.569 386.909 265.727C397.651 255.774 406.326 247.368 410.311 243.989C411.472 242.93 412.176 241.46 412.273 239.891C412.371 238.322 411.854 236.777 410.832 235.583C410.328 235.004 409.714 234.531 409.027 234.19C408.339 233.85 407.591 233.649 406.825 233.599C406.059 233.549 405.291 233.651 404.565 233.899C403.839 234.147 403.169 234.537 402.594 235.045V235.045Z" fill="#6E0023"/><path fill-rule="evenodd" clip-rule="evenodd" d="M422.25 310.766C417.206 316.045 402.345 334.471 384.86 350.829C379.288 356.108 373.38 361.022 367.174 365.539C358.079 372.045 349.017 376.753 341.25 377.711C338.828 378.169 336.324 377.88 334.069 376.883C331.814 375.887 329.916 374.229 328.624 372.13C328.185 371.49 327.623 370.944 326.971 370.524C326.319 370.104 325.589 369.818 324.825 369.684C324.061 369.549 323.278 369.568 322.522 369.74C321.765 369.912 321.051 370.233 320.42 370.684C319.126 371.618 318.253 373.025 317.992 374.6C317.731 376.174 318.102 377.788 319.024 379.09C328.742 392.237 344.242 390.858 361.222 380.636C367.643 376.66 373.778 372.239 379.581 367.405C383.381 364.312 387.197 361.067 390.946 357.772C409.002 341.868 425.058 324.468 430.454 319.407C431.563 318.296 432.195 316.797 432.217 315.228C432.239 313.659 431.649 312.143 430.572 311.001C430.045 310.433 429.41 309.975 428.704 309.656C427.998 309.336 427.235 309.159 426.46 309.138C425.686 309.116 424.914 309.248 424.191 309.528C423.468 309.807 422.808 310.228 422.25 310.766V310.766Z" fill="#6E0023"/><path fill-rule="evenodd" clip-rule="evenodd" d="M434.723 391.884C426.09 403.179 416.788 413.947 406.866 424.129C400.325 430.918 393.32 437.243 385.901 443.06C377.495 449.448 369.308 454.105 362.718 455.097C360.87 455.513 358.933 455.206 357.304 454.24C355.874 452.997 354.918 451.298 354.597 449.431C354.363 448.691 353.984 448.005 353.483 447.412C352.981 446.818 352.368 446.33 351.677 445.976C350.986 445.621 350.232 445.406 349.458 445.345C348.684 445.283 347.905 445.375 347.167 445.615C345.673 446.125 344.44 447.204 343.738 448.617C343.036 450.031 342.921 451.665 343.417 453.164C345.956 460.107 349.957 463.856 354.883 465.302C359.947 466.527 365.275 466.018 370.014 463.856C377.454 460.503 384.4 456.148 390.659 450.911C394.61 447.801 398.645 444.371 402.68 440.824C410.127 434.25 417.491 427.223 423.897 420.767C433.715 410.881 441.381 402.442 443.953 399.382C444.931 398.142 445.385 396.568 445.218 394.998C445.052 393.427 444.278 391.984 443.062 390.976C442.461 390.473 441.765 390.097 441.016 389.87C440.266 389.643 439.478 389.57 438.7 389.654C437.921 389.739 437.167 389.98 436.484 390.363C435.801 390.746 435.202 391.264 434.723 391.884V391.884Z" fill="#6E0023"/><path fill-rule="evenodd" clip-rule="evenodd" d="M122.004 153.439C116.715 154.464 111.335 154.942 105.949 154.868C100.515 154.751 95.114 153.989 89.8597 152.599C85.5685 151.4 81.3618 149.917 77.2675 148.16C71.2993 145.672 65.2469 142.646 58.4717 139.637C57.7446 139.363 56.9705 139.237 56.1943 139.265C55.4181 139.294 54.6552 139.476 53.9499 139.801C53.2446 140.126 52.6109 140.588 52.0855 141.16C51.5602 141.732 51.1536 142.403 50.8895 143.134C50.3455 144.615 50.4033 146.251 51.0507 147.69C51.698 149.129 52.8834 150.258 54.3527 150.833C62.9773 153.591 70.6604 156.112 78.0409 158.483C83.5721 160.248 88.9351 161.845 94.5167 163.106C103.986 165.316 113.739 166.058 123.433 165.309C124.946 165.049 126.302 164.217 127.219 162.986C128.136 161.755 128.546 160.219 128.362 158.695C128.179 157.17 127.416 155.775 126.233 154.797C125.05 153.819 123.536 153.333 122.004 153.439V153.439Z" fill="#6E0023"/><path fill-rule="evenodd" clip-rule="evenodd" d="M130.444 200.143C122.2 202.695 113.636 204.071 105.007 204.228C96.2484 204.354 87.509 203.365 78.9994 201.286C72.1125 199.564 65.3679 197.316 58.825 194.561C48.9211 190.292 39.2618 185.476 29.8915 180.137C29.1996 179.787 28.4451 179.579 27.6719 179.525C26.8987 179.47 26.1223 179.57 25.3882 179.819C24.6541 180.068 23.977 180.461 23.3964 180.974C22.8158 181.488 22.3433 182.112 22.0066 182.81C21.3064 184.226 21.1908 185.86 21.6845 187.36C22.1783 188.86 23.242 190.106 24.6461 190.829C36.7417 196.509 49.159 201.477 61.8343 205.708C70.3674 208.583 79.0993 210.831 87.9601 212.433C103.021 215.323 118.517 215.059 133.47 211.659C134.987 211.238 136.278 210.236 137.061 208.871C137.845 207.505 138.059 205.885 137.656 204.363C137.463 203.611 137.122 202.904 136.654 202.284C136.186 201.664 135.6 201.143 134.929 200.75C134.259 200.358 133.517 200.102 132.747 199.998C131.978 199.894 131.195 199.943 130.444 200.143V200.143Z" fill="#6E0023"/><path fill-rule="evenodd" clip-rule="evenodd" d="M138.983 262.768C123.448 268.45 107.813 268.4 92.447 264.869C82.9134 262.575 73.6237 259.366 64.7072 255.286C50.8373 249.116 37.5222 241.349 24.5601 234.742C23.8589 234.412 23.0991 234.225 22.3249 234.191C21.5507 234.157 20.7775 234.278 20.0502 234.545C19.3229 234.813 18.656 235.222 18.0882 235.749C17.5203 236.276 17.0629 236.911 16.7425 237.617C16.0777 239.05 16.003 240.687 16.5345 242.175C17.0661 243.663 18.1613 244.882 19.5837 245.569C33.0333 251.47 47.0041 258.044 61.1598 263.86C70.6358 267.883 80.3759 271.254 90.3118 273.948C107.477 278.369 124.911 279.597 142.681 274.133C144.173 273.616 145.402 272.532 146.101 271.116C146.799 269.7 146.912 268.066 146.413 266.567C146.179 265.827 145.8 265.141 145.298 264.549C144.797 263.956 144.183 263.469 143.491 263.116C142.8 262.762 142.046 262.55 141.272 262.49C140.498 262.43 139.72 262.525 138.983 262.768V262.768Z" fill="#6E0023"/><path fill-rule="evenodd" clip-rule="evenodd" d="M134.864 320.265C127.484 338.64 109.074 340.187 88.9337 335.395C77.4132 332.498 66.2408 328.361 55.6123 323.055C36.3289 313.708 19.0126 302.024 8.94219 295.433C8.28233 295.028 7.54857 294.757 6.78333 294.637C6.01809 294.517 5.23666 294.551 4.4844 294.735C3.73215 294.92 3.02398 295.252 2.40107 295.712C1.77815 296.173 1.25284 296.752 0.855625 297.417C0.0460416 298.773 -0.201332 300.392 0.166173 301.928C0.533678 303.464 1.48702 304.795 2.8227 305.638C8.43791 308.9 16.2723 313.405 25.2835 318.298C35.7574 323.963 47.9125 329.982 60.2861 335.21C74.6435 341.263 89.3036 346.138 102.451 347.332C121.515 349.013 137.352 343.297 145.674 324.972C146.293 323.519 146.317 321.881 145.742 320.41C145.167 318.939 144.038 317.752 142.598 317.104C141.883 316.796 141.115 316.633 140.337 316.626C139.559 316.618 138.787 316.766 138.067 317.06C137.347 317.355 136.693 317.79 136.143 318.34C135.593 318.89 135.158 319.544 134.864 320.265Z" fill="#6E0023"/><path fill-rule="evenodd" clip-rule="evenodd" d="M139.803 411.285C126.555 420.178 107.726 419.338 88.2409 414.126C77.3418 411.098 66.7269 407.126 56.5167 402.257C41.1004 394.771 26.1899 386.285 11.8808 376.854C11.2156 376.455 10.4777 376.193 9.71013 376.082C8.94255 375.971 8.16057 376.013 7.40966 376.207C6.65876 376.401 5.95397 376.743 5.33618 377.212C4.71839 377.68 4.19993 378.268 3.81105 378.939C3.01071 380.3 2.77723 381.921 3.1609 383.452C3.54457 384.984 4.51472 386.303 5.86217 387.126C11.9817 390.589 19.3117 394.574 27.4487 398.726C37.6872 403.972 49.153 409.335 60.8878 414.176C73.5602 419.646 86.7513 423.826 100.261 426.651C117.527 429.879 133.549 428.971 146.074 421.406C147.395 420.544 148.327 419.2 148.67 417.66C149.012 416.121 148.738 414.508 147.907 413.168C147.506 412.504 146.976 411.926 146.349 411.471C145.721 411.015 145.008 410.69 144.253 410.514C143.497 410.338 142.714 410.316 141.95 410.449C141.186 410.581 140.456 410.865 139.803 411.285V411.285Z" fill="#6E0023"/><path fill-rule="evenodd" clip-rule="evenodd" d="M188.998 465.772C175.549 476.683 159.745 480.584 143.606 479.894C133.506 479.343 123.523 477.461 113.916 474.296C98.9364 469.555 84.5958 462.292 71.7514 455.349C71.059 454.998 70.3032 454.789 69.5287 454.734C68.7542 454.68 67.9765 454.781 67.2417 455.031C66.5069 455.282 65.8297 455.677 65.25 456.194C64.6703 456.71 64.2 457.338 63.8666 458.039C63.1676 459.457 63.0543 461.092 63.5514 462.593C64.0484 464.093 65.1157 465.338 66.5228 466.058C80.9514 472.96 95.8981 478.722 111.226 483.291C121.59 486.401 132.25 488.419 143.034 489.309C161.696 490.587 179.886 487.191 196.076 475.456C197.333 474.487 198.159 473.063 198.376 471.49C198.593 469.918 198.184 468.324 197.236 467.05C196.784 466.419 196.211 465.884 195.55 465.477C194.889 465.07 194.153 464.799 193.386 464.68C192.619 464.561 191.835 464.596 191.082 464.784C190.328 464.971 189.62 465.307 188.998 465.772V465.772Z" fill="#6E0023"/><path fill-rule="evenodd" clip-rule="evenodd" d="M214.855 336.169C208.387 337.521 201.696 337.388 195.286 335.782C188.561 334 183.686 330.049 182.442 324.568C181.719 322.066 181.587 319.431 182.057 316.869C182.526 314.308 183.585 311.89 185.148 309.807C188.393 306 193.008 303.626 197.993 303.2C209.156 301.738 224.118 307.353 231.112 318.516C231.931 319.865 232.189 321.481 231.83 323.017C231.472 324.554 230.526 325.889 229.196 326.737C228.505 327.17 227.732 327.456 226.926 327.578C222.286 344.188 214.603 370.078 202.599 386.672C195.286 396.843 186.207 403.568 175.397 404.005C172.278 404.316 169.136 404.316 166.016 404.005C164.149 403.714 162.363 403.038 160.771 402.021C158.387 400.417 156.44 398.245 155.105 395.7C153.84 393.305 153.042 390.692 152.752 388C151.07 374.55 157.392 366.867 166.571 362.967C177.432 358.36 193.353 359.958 204.734 364.648C208.765 355.401 212.147 345.885 214.855 336.169V336.169ZM199.287 375.307C190.646 371.558 178.81 369.793 170.539 373.02C165.377 375.055 162.015 379.409 162.721 386.89C162.829 388.31 163.206 389.696 163.831 390.976C164.369 392.093 165.178 393.059 166.184 393.783C167.167 394.318 168.278 394.574 169.395 394.523C171.396 394.607 173.447 394.422 175.128 394.405C185.199 394.187 193.016 385.983 199.287 375.307V375.307ZM218.218 321.189C214.173 317.321 208.956 314.907 203.389 314.33C199.321 313.893 195.404 314.33 193.403 316.7C192.841 317.525 192.473 318.466 192.327 319.453C192.181 320.441 192.262 321.448 192.562 322.4C192.738 322.917 193.025 323.39 193.402 323.785C193.78 324.18 194.239 324.487 194.748 324.686C196.538 325.632 198.468 326.285 200.464 326.619C204.707 327.493 209.088 327.441 213.308 326.468C214.064 326.22 214.758 325.813 215.343 325.274C216.13 324.515 216.814 323.656 217.377 322.719C217.612 322.282 217.898 321.727 218.218 321.189Z" fill="#6E0023"/><path fill-rule="evenodd" clip-rule="evenodd" d="M210.179 416.9L219.207 400.458C225.243 388.908 230.976 377.392 237.079 365.993C241.164 358.327 245.401 350.728 249.974 343.23C250.386 342.573 250.925 342.004 251.559 341.558C252.193 341.112 252.91 340.796 253.668 340.63C254.426 340.464 255.209 340.451 255.972 340.592C256.734 340.732 257.462 341.023 258.111 341.448C259.413 342.336 260.317 343.697 260.631 345.242C260.945 346.787 260.644 348.393 259.792 349.719C255.068 356.848 250.68 364.077 246.46 371.407C240.357 381.981 234.691 392.691 228.622 403.434C230.637 402.817 232.784 402.769 234.824 403.294C236.865 403.819 238.722 404.897 240.189 406.409C247.233 413.655 245.72 423.642 242.459 433.746C240.918 437.971 239.644 442.289 238.642 446.674C238.114 448.655 238.208 450.75 238.911 452.676C239.619 453.951 240.74 454.947 242.089 455.5C245.135 456.859 248.395 457.678 251.722 457.921C253.294 458.144 254.712 458.982 255.666 460.251C256.62 461.52 257.03 463.116 256.808 464.688C256.585 466.26 255.746 467.679 254.477 468.632C253.208 469.586 251.612 469.997 250.041 469.774C236.877 467.655 231.077 462.696 228.807 457.165C227.301 453.122 227.078 448.713 228.168 444.539C229.433 439.736 230.988 435.014 232.825 430.4C234.13 427.166 235.006 423.774 235.431 420.313C235.62 419.016 235.529 417.693 235.164 416.435C234.798 415.176 234.167 414.01 233.313 413.016C232.388 412.024 231.077 412.294 229.665 412.781C225.984 414.341 222.655 416.628 219.88 419.506C219.359 420.01 218.838 420.531 218.333 421.069L214.282 428.029C213.071 430.316 212.5 431.392 211.827 432.434C211.155 433.477 210.415 434.418 208.851 436.435C208.364 437.058 207.355 438.655 207.036 438.941C206.344 439.554 205.481 439.941 204.563 440.049C203.645 440.157 202.716 439.981 201.901 439.545C201.086 439.11 200.424 438.434 200.005 437.611C199.585 436.787 199.428 435.855 199.554 434.939C200.044 432.148 201.066 429.477 202.564 427.071C204.763 423.44 207.314 420.033 210.179 416.9V416.9Z" fill="#6E0023"/><path fill-rule="evenodd" clip-rule="evenodd" d="M285.551 415.656C283.18 421.792 273.564 437.293 265.225 453.147C262.888 457.585 260.652 462.057 258.635 466.344C256.441 470.913 254.56 475.626 253.003 480.449C249.993 490.284 250.868 498.253 255.626 502.775C258.17 505.063 261.216 506.722 264.519 507.617C268.498 508.667 272.542 509.453 276.624 509.971C278.174 510.124 279.723 509.667 280.942 508.696C282.16 507.725 282.952 506.317 283.149 504.772C283.346 503.226 282.932 501.665 281.997 500.419C281.061 499.174 279.676 498.343 278.137 498.102C274.501 497.972 270.878 497.595 267.293 496.975C265.531 496.697 263.861 496.006 262.418 494.958C260.972 493.747 260.736 491.696 260.854 489.242C261.224 483.156 264.116 475.221 268.201 467.05C277.733 448.002 293.049 427.71 296.378 420.346C296.994 418.891 297.013 417.253 296.431 415.784C295.849 414.315 294.713 413.134 293.268 412.495C292.554 412.19 291.787 412.029 291.011 412.023C290.235 412.017 289.465 412.165 288.747 412.459C288.029 412.754 287.377 413.188 286.828 413.736C286.279 414.285 285.845 414.938 285.551 415.656V415.656Z" fill="#6E0023"/><path fill-rule="evenodd" clip-rule="evenodd" d="M304.565 460.964C300.043 461.351 295.722 461.754 291.469 461.922C287.155 462.147 282.831 462.102 278.523 461.788C275.124 461.474 271.753 460.913 268.436 460.107C263.51 458.872 258.701 457.212 254.062 455.147C253.325 454.903 252.546 454.807 251.772 454.864C250.997 454.921 250.241 455.13 249.548 455.48C248.854 455.83 248.236 456.313 247.73 456.902C247.224 457.492 246.839 458.175 246.597 458.913C246.098 460.409 246.208 462.042 246.904 463.458C247.599 464.873 248.824 465.959 250.313 466.478C255.725 467.869 261.224 468.903 266.772 469.572C269.865 469.975 272.925 470.278 275.985 470.581L282.087 471.219C289.367 471.993 296.764 472.531 304.767 472.901C306.298 472.799 307.732 472.113 308.772 470.985C309.812 469.856 310.379 468.371 310.355 466.836C310.332 465.301 309.719 463.835 308.645 462.739C307.57 461.643 306.116 461.001 304.582 460.947L304.565 460.964Z" fill="#6E0023"/></svg>