<svg width="510" height="351" viewBox="0 0 510 351" fill="none" xmlns="http://www.w3.org/2000/svg"><path fill-rule="evenodd" clip-rule="evenodd" d="M85.0344 173.395C87.647 173.02 90.2341 172.471 92.7801 171.753C102.467 169.151 113.212 164.722 118.346 163.042C120.475 162.425 122.752 162.719 124.674 163.857C126.596 164.996 128.008 166.887 128.597 169.114C129.187 171.341 128.907 173.721 127.818 175.732C126.729 177.743 124.922 179.219 122.792 179.836C115.523 181.681 97.6498 187.642 86.0754 188.325C79.9882 188.694 75.1714 187.55 72.4719 185.317C71.6623 184.698 70.9918 183.902 70.5072 182.984C70.0226 182.066 69.7357 181.048 69.6665 180.002C69.6155 178.161 69.8722 176.325 70.4252 174.576C72.1896 168.32 77.9592 154.055 79.3707 148.297C81.7703 137.556 84.7521 127.019 87.8045 116.5C94.8621 92.3061 102.749 68.4075 109.612 44.1767C110.293 41.9743 111.783 40.1448 113.753 39.091C115.724 38.0372 118.014 37.8452 120.119 38.5574C122.225 39.2695 123.974 40.8274 124.982 42.8883C125.989 44.9493 126.173 47.3445 125.492 49.547C117.464 73.3902 107.848 96.6429 100.173 120.615C96.9264 130.728 94.1093 140.977 91.7215 151.36C90.7158 156.029 87.2222 166.161 85.0344 173.395Z" fill="#6E0023"/><path fill-rule="evenodd" clip-rule="evenodd" d="M179.836 42.7742H180.189C181.282 42.7742 182.365 42.9995 183.375 43.4372C184.386 43.875 185.304 44.5166 186.077 45.3254C186.851 46.1343 187.464 47.0945 187.883 48.1513C188.301 49.2081 188.517 50.3408 188.517 51.4847C188.093 70.3413 185.342 89.0617 180.33 107.18C175.353 125.015 168.772 142.317 160.674 158.853C157.622 165.257 153.334 174.023 147.565 179.688C142.483 184.671 136.379 187.513 129.109 186.276C127.087 185.973 125.14 185.265 123.375 184.191C121.455 182.965 120.002 181.08 119.264 178.858C117.834 173.732 117.58 168.326 118.523 163.079C119.635 156.457 121.258 149.94 123.375 143.591C127.98 128.458 132.603 113.473 137.402 98.4883C140.613 88.5044 143.895 78.5205 147.371 68.5182C148.624 64.8273 159.033 46.9449 164.891 41.9991C166.495 40.4368 168.538 39.4594 170.717 39.2132C172.896 38.9671 175.092 39.4653 176.977 40.6335L179.836 42.7742ZM171.737 63.3509C167.891 67.8907 162.174 72.5782 161.574 74.1653C156.899 86.3637 152.452 98.5252 148.2 110.761C143.948 122.996 139.837 135.397 135.708 147.817C133.69 153.44 132.126 159.231 131.032 165.127C130.499 167.811 130.415 170.571 130.785 173.284H131.103C132.547 173.446 134.007 173.239 135.359 172.684C136.711 172.128 137.914 171.239 138.866 170.092C143.507 165.46 146.63 158.152 149.012 152.911C156.319 136.973 162.105 120.32 166.285 103.194C169.406 90.1426 171.251 76.7928 171.79 63.3509H171.737Z" fill="#6E0023"/><path fill-rule="evenodd" clip-rule="evenodd" d="M187.916 156.878C188.975 155.697 191.921 155.18 193.968 152.56C196.408 149.314 198.541 145.829 200.337 142.152C202.234 138.329 203.896 134.384 205.313 130.341C206.771 125.716 207.556 120.889 207.642 116.02C207.642 111.942 207.642 107.752 205.331 105.87C202.155 103.36 199.138 102.179 196.862 99.614C195.423 97.9335 194.319 95.9698 193.615 93.8377C192.59 90.2987 192.36 86.5597 192.945 82.9127C194.041 76.514 195.671 70.2279 197.814 64.126C199.949 57.1317 202.172 47.7938 206.107 40.4489C208.15 36.498 210.97 33.0449 214.382 30.3173C216.061 29.115 218.016 28.4017 220.046 28.2504C222.369 28.1165 224.7 28.2964 226.98 28.7856C234.231 30.0959 237.866 35.4846 238.907 42.9218C240.195 52.149 235.872 65.8053 234.02 70.6035C233.581 71.6517 232.948 72.5991 232.159 73.3917C231.37 74.1844 230.439 74.8066 229.42 75.223C228.401 75.6395 227.314 75.8419 226.22 75.8187C225.126 75.7955 224.047 75.5472 223.045 75.088C222.043 74.6287 221.137 73.9675 220.379 73.1421C219.622 72.3167 219.027 71.3433 218.629 70.2774C218.23 69.2115 218.037 68.074 218.059 66.9299C218.081 65.7858 218.319 64.6574 218.758 63.6093C220.674 59.303 222.118 54.7836 223.063 50.1375C223.433 48.0337 222.022 45.1363 223.063 44.1213L222.463 44.0106L221.863 43.9183C219.92 45.7982 218.344 48.0544 217.223 50.5619C214.675 56.47 212.488 62.5415 210.677 68.7396C208.915 73.3253 207.43 78.0219 206.23 82.8019C205.548 84.9603 205.39 87.2628 205.772 89.5009C205.936 90.1364 206.266 90.7115 206.724 91.1618C208.489 92.7858 210.8 93.6347 213.059 95.4802C217.311 98.8758 219.675 105.132 220.222 112.311C220.662 119.92 219.802 127.55 217.681 134.844C215.931 140.446 213.772 145.9 211.224 151.157C209.467 154.825 207.419 158.331 205.101 161.64C196.05 174.373 186.046 174.927 180.047 170.996C174.877 167.6 170.784 158.779 172.319 145.27L175.265 130.507C175.682 128.236 176.944 126.231 178.774 124.933C180.603 123.635 182.851 123.151 185.022 123.586C187.194 124.022 189.111 125.342 190.351 127.256C191.592 129.17 192.055 131.521 191.639 133.792L188.004 147.706C187.418 150.483 187.34 153.351 187.775 156.159C187.805 156.402 187.852 156.642 187.916 156.878V156.878Z" fill="#6E0023"/><path fill-rule="evenodd" clip-rule="evenodd" d="M285.005 71.1572C286.605 64.5658 287.784 57.8706 288.534 51.1156C289.141 45.652 288.599 40.1157 286.946 34.8941C285.748 31.6286 283.811 28.7156 281.3 26.4051C279.352 24.5725 277 23.2728 274.454 22.6219C271.36 21.8941 268.134 22.0723 265.13 23.1369C262.127 24.2015 259.462 26.1113 257.428 28.6565C250.882 36.0383 246.983 50.0268 245.518 57.4086C243.542 67.1526 244.23 73.5563 246.03 78.8712C248.571 86.253 254.111 91.2173 257.604 102.714C258.954 108.223 259.224 113.961 258.398 119.582C257.659 125.594 256.274 131.5 254.27 137.187C253.144 140.993 251.016 144.389 248.13 146.987C247.389 147.678 246.445 148.084 245.453 148.138C244.462 148.192 243.483 147.89 242.678 147.282C238.672 144.182 238.09 136.615 241.689 127.148C242.348 125.001 242.186 122.67 241.238 120.644C240.29 118.618 238.629 117.055 236.603 116.282C234.577 115.509 232.344 115.586 230.372 116.497C228.399 117.408 226.84 119.082 226.022 121.169C219.917 140.251 225.863 154.387 234.067 160.108C244.018 167.047 260.039 164.925 267.132 141.838C269.672 133.71 271.156 125.263 271.543 116.721C271.903 110.671 271.252 104.601 269.62 98.7836C266.197 87.1019 260.586 82.1746 258.169 74.5159C257.04 71.0096 257.022 66.802 258.487 60.4721C259.769 54.6519 261.742 49.0226 264.362 43.7154C265.257 41.9891 266.366 40.3943 267.661 38.9726C268.055 38.4453 268.578 38.0397 269.174 37.7991C269.771 37.5586 270.419 37.4922 271.049 37.6069L272.619 40.1167C273.331 43.1387 273.415 46.2851 272.866 49.344C271.884 55.3104 270.511 61.199 268.755 66.968C268.493 68.0792 268.443 69.2334 268.608 70.3648C268.773 71.4962 269.149 72.5826 269.715 73.5619C270.281 74.5413 271.026 75.3944 271.907 76.0727C272.789 76.7509 273.789 77.2409 274.851 77.5148C275.914 77.7887 277.017 77.841 278.099 77.6687C279.181 77.4965 280.219 77.1032 281.156 76.5111C282.092 75.919 282.908 75.1398 283.556 74.218C284.204 73.2963 284.673 72.2499 284.935 71.1388L285.005 71.1572Z" fill="#6E0023"/><path fill-rule="evenodd" clip-rule="evenodd" d="M290.99 93.7639C290.449 92.3956 290.133 90.942 290.054 89.464C289.631 81.5654 291.501 68.7396 294.659 56.2459C297.871 43.5123 302.546 31.24 307.222 24.6887C317.191 10.6633 327.901 10.7925 334.217 15.0739C340.534 19.3553 344.557 29.9298 341.275 43.6046C340.68 45.8315 339.265 47.7203 337.339 48.8555C335.413 49.9907 333.135 50.2792 331.006 49.6576C328.877 49.036 327.071 47.5552 325.986 45.541C324.9 43.5268 324.625 41.1441 325.219 38.9171C326.108 36.2985 326.381 33.494 326.013 30.7418C325.925 30.3409 325.813 29.9464 325.677 29.5607C324.813 31.0001 321.496 31.4061 319.167 34.3219C315.109 39.5999 311.139 49.7499 308.157 60.1582C306.446 66.0551 305.091 72.0585 304.099 78.1329C306.1 76.5138 308.391 75.3302 310.836 74.6519C313.282 73.9736 315.832 73.8144 318.338 74.1836C320.885 74.4923 323.246 75.7316 325.005 77.6829C326.764 79.6343 327.809 82.1726 327.954 84.8503C328.124 87.8172 327.619 90.7839 326.482 93.5074C325.344 96.2309 323.605 98.6335 321.408 100.518C317.261 103.803 308.228 104.91 301.223 102.585C299.998 105.016 298.891 107.511 297.906 110.059C295.232 116.741 293.583 123.822 293.019 131.042C292.789 135.047 292.807 138.534 294.536 140.38C294.966 140.915 295.527 141.317 296.159 141.543C296.318 141.543 296.353 141.321 296.494 141.247C296.792 141.048 297.075 140.826 297.341 140.583C298.273 139.725 299.102 138.752 299.811 137.686C303.02 132.908 305.342 127.544 306.657 121.87C307.151 119.616 308.481 117.66 310.353 116.431C311.281 115.823 312.314 115.411 313.393 115.221C314.472 115.03 315.577 115.063 316.644 115.319C317.711 115.574 318.719 116.047 319.611 116.711C320.504 117.374 321.262 118.215 321.844 119.185C322.426 120.154 322.819 121.235 323.001 122.364C323.184 123.493 323.152 124.648 322.907 125.764C321.047 132.429 318.214 138.753 314.509 144.514C311.768 149.056 307.999 152.821 303.534 155.476C297.324 158.65 290.425 158.761 283.738 151.01C280.58 147.319 278.639 141.782 278.621 134.641C278.621 125.948 281.232 114.857 285.555 104.615C287.136 100.877 288.951 97.2515 290.99 93.7639V93.7639ZM314.632 87.2494C312.617 87.8327 310.812 89.0271 309.445 90.682C310.936 90.9379 312.466 90.6991 313.821 89.9992C314.491 89.4271 314.438 88.0983 314.668 87.1756L314.632 87.2494Z" fill="#6E0023"/><path fill-rule="evenodd" clip-rule="evenodd" d="M345.103 138.756C352.602 135.25 362.112 121.095 363.647 117.09C365.674 111.612 367.066 105.9 367.793 100.075C368.482 94.4099 368.464 88.689 366.788 84.3337C364.723 79.1295 361.495 75.8077 358.883 72.4306C355.924 68.9627 353.72 64.8634 352.426 60.4167C351.261 55.5084 351.261 50.3768 352.426 45.4685C354.028 36.6559 356.5 28.0408 359.801 19.7614C362.853 12.5457 367.052 6.51106 372.028 3.15235C375.098 0.85652 378.858 -0.198946 382.614 0.18117C386.99 0.697896 390.484 3.53991 392.883 8.30117C397.506 17.5284 396.271 38.1052 395.512 42.3866C395.288 43.5075 394.856 44.5713 394.239 45.5174C393.623 46.4634 392.834 47.2731 391.918 47.9003C391.002 48.5275 389.977 48.9599 388.902 49.1728C387.826 49.3856 386.721 49.3749 385.649 49.141C384.578 48.9071 383.56 48.4548 382.656 47.8098C381.751 47.1648 380.977 46.3397 380.378 45.3818C379.778 44.4239 379.365 43.3518 379.161 42.2267C378.958 41.1017 378.968 39.9458 379.191 38.8249C380.135 33.4777 380.49 28.0351 380.25 22.6034C380.195 20.6187 379.941 18.6456 379.491 16.7164C376.521 19.2007 374.202 22.4327 372.751 26.1097C369.654 33.3236 367.289 40.8573 365.694 48.5873C364.582 53.3671 364.829 56.6335 366.1 59.3463C369.17 65.9346 375.239 70.419 378.662 79.4064C380.619 85.1894 381.371 91.343 380.868 97.4549C380.341 105.824 378.689 114.075 375.963 121.962C374.286 126.834 364.265 142.742 355.072 149.792C346.691 156.232 338.751 155.9 333.635 148.149C330.723 143.794 329.471 137.759 329.453 131.061C329.453 119.526 333.388 105.686 335.364 98.599C336.035 96.3965 337.516 94.5633 339.48 93.5025C341.444 92.4417 343.73 92.2404 345.836 92.9427C347.941 93.6451 349.694 95.1936 350.708 97.2476C351.722 99.3017 351.915 101.693 351.243 103.895C348.409 111.603 346.305 119.583 344.962 127.72C344.256 131.817 343.921 135.822 345.103 138.756Z" fill="#6E0023"/><path fill-rule="evenodd" clip-rule="evenodd" d="M60.8276 224.163C59.4337 233.391 57.8811 242.618 55.9226 251.845C53.9641 261.072 51.8645 270.3 49.359 279.324C47.3476 286.613 45.0539 293.829 42.7073 300.99C39.1785 311.915 35.2263 322.618 31.6446 333.359C31.0199 335.576 31.2628 337.962 32.32 339.992C33.3772 342.021 35.162 343.529 37.2818 344.182C39.4016 344.836 41.6827 344.582 43.6234 343.476C45.564 342.37 47.0053 340.503 47.63 338.286C51.0705 323.652 54.3876 308.759 58.3751 293.995C60.7571 285.156 63.4389 276.408 66.0149 267.624C69.9495 254.263 73.9371 241.012 77.1483 227.633C77.5928 225.369 77.1594 223.014 75.9434 221.084C75.3413 220.129 74.5652 219.307 73.6594 218.665C72.7536 218.023 71.7358 217.575 70.6641 217.344C68.4999 216.88 66.2477 217.333 64.403 218.605C62.5583 219.877 61.2722 221.863 60.8276 224.127V224.163Z" fill="#6E0023"/><path fill-rule="evenodd" clip-rule="evenodd" d="M77.2376 318.078C78.6233 316.201 79.8401 314.193 80.8723 312.081C85.9361 288.533 93.3818 265.945 99.2572 242.692C100.686 237.026 101.992 231.342 103.174 225.603C103.404 224.456 103.851 223.368 104.491 222.406C105.131 221.443 105.95 220.625 106.898 220.001C107.847 219.377 108.906 218.959 110.012 218.772C111.119 218.585 112.25 218.633 113.338 218.913C114.427 219.193 115.45 219.7 116.347 220.403C117.244 221.106 117.996 221.99 118.559 223.004C119.122 224.017 119.484 225.139 119.624 226.302C119.763 227.465 119.678 228.646 119.371 229.774C113.32 253.026 104.886 275.356 97.9869 298.351C96.2931 303.936 94.7345 309.583 93.3112 315.292C92.4996 318.632 85.7596 337.013 80.9605 342.291C79.8698 343.732 78.3702 344.775 76.6773 345.269C74.9844 345.763 73.1853 345.683 71.5386 345.04C69.7367 344.225 68.3073 342.71 67.5511 340.814C66.2646 336.895 65.4583 332.821 65.1515 328.69C62.0462 302.281 60.3524 236.823 60.1406 225.345C60.2393 223.101 61.1608 220.984 62.7134 219.433C64.266 217.882 66.3304 217.017 68.4774 217.017C70.6244 217.017 72.6887 217.882 74.2414 219.433C75.794 220.984 76.7154 223.101 76.8141 225.345C76.6024 235.476 75.7379 288.44 77.2376 318.078Z" fill="#6E0023"/><path fill-rule="evenodd" clip-rule="evenodd" d="M29.8596 227.042C28.9068 235.568 27.5306 244.648 25.5897 253.967C23.8254 262.77 21.6375 271.831 19.0615 280.763C16.9972 287.905 14.6329 294.936 12.198 301.838C8.31631 312.819 4.11708 323.301 0.429493 333.082C-0.272427 335.284 -0.109096 337.688 0.883569 339.765C1.87623 341.841 3.61692 343.42 5.72268 344.155C7.82844 344.889 10.1268 344.718 12.1121 343.68C14.0974 342.641 15.6071 340.821 16.3091 338.618C19.9437 325.276 23.7372 310.42 28.007 295.398C29.6303 289.64 31.4123 283.901 33.1414 278.18C35.8409 269.359 38.5404 260.648 40.8871 252.159C43.0044 244.463 44.9099 237.008 46.3743 229.866C46.5527 228.737 46.5168 227.582 46.2684 226.467C46.02 225.352 45.5641 224.299 44.9268 223.369C44.2895 222.438 43.4832 221.648 42.5539 221.044C41.6246 220.439 40.5906 220.032 39.5109 219.845C38.4311 219.659 37.3268 219.696 36.261 219.956C35.1952 220.216 34.1887 220.693 33.299 221.359C32.4094 222.026 31.654 222.869 31.076 223.841C30.4979 224.813 30.1086 225.895 29.9302 227.024L29.8596 227.042Z" fill="#6E0023"/><path fill-rule="evenodd" clip-rule="evenodd" d="M161.358 317.432C162.106 317.627 162.867 317.763 163.634 317.838C166.515 318.028 169.407 317.798 172.227 317.156C183.89 314.904 196.752 309.276 204.339 308.833C205.46 308.758 206.584 308.921 207.643 309.312C208.703 309.703 209.676 310.314 210.504 311.107C211.333 311.901 211.999 312.861 212.464 313.931C212.929 315 213.183 316.157 213.21 317.332C213.238 318.506 213.038 319.675 212.623 320.767C212.209 321.859 211.587 322.852 210.797 323.687C210.006 324.521 209.063 325.181 208.023 325.625C206.983 326.069 205.868 326.289 204.745 326.272C196.329 326.272 180.767 332.565 168.433 332.879C160.07 333.082 152.871 331.033 148.249 325.22C147.138 323.903 146.512 322.215 146.484 320.459C146.721 318.338 147.262 316.266 148.09 314.314C150.807 308.371 153.383 302.392 155.747 296.32C158.112 290.249 160.441 283.937 162.805 277.718C169.474 258.876 178.102 236.14 191.829 219.845C201.869 207.905 214.625 199.416 231.246 197.404C233.448 197.201 235.636 197.921 237.33 199.406C239.025 200.891 240.085 203.019 240.28 205.321C240.474 207.624 239.785 209.913 238.366 211.685C236.946 213.457 234.912 214.567 232.71 214.77C220.218 215.582 210.391 221.543 202.522 230.124C189.324 244.519 181.172 265.409 174.521 282.48L161.358 317.432Z" fill="#6E0023"/><path fill-rule="evenodd" clip-rule="evenodd" d="M212.582 246.272C209.053 248.117 205.771 250.129 202.278 251.808C198.784 253.488 195.344 255.315 191.691 256.717C188.797 257.796 185.853 258.72 182.869 259.485C178.388 260.666 173.888 261.331 169.301 262.235C168.172 262.485 167.105 262.977 166.167 263.681C165.23 264.385 164.442 265.285 163.855 266.324C163.267 267.363 162.893 268.518 162.755 269.717C162.617 270.915 162.719 272.13 163.054 273.286C163.389 274.441 163.95 275.51 164.701 276.427C165.452 277.343 166.377 278.086 167.418 278.609C168.458 279.132 169.591 279.422 170.744 279.463C171.898 279.503 173.046 279.293 174.118 278.844C178.546 276.851 182.763 274.655 187.157 272.68C190.05 271.388 192.962 270.133 195.979 268.989C199.684 267.642 203.477 266.59 207.271 265.465C211.064 264.339 214.858 263.379 218.686 262.29C219.705 261.871 220.634 261.246 221.422 260.451C222.209 259.656 222.839 258.707 223.276 257.657C223.712 256.608 223.947 255.478 223.966 254.334C223.986 253.189 223.789 252.052 223.389 250.987C222.988 249.922 222.39 248.95 221.63 248.126C220.87 247.303 219.962 246.644 218.959 246.187C217.955 245.73 216.876 245.485 215.782 245.464C214.687 245.444 213.6 245.65 212.582 246.069V246.272Z" fill="#6E0023"/><path fill-rule="evenodd" clip-rule="evenodd" d="M256.695 295.195C248.367 300.731 239.474 301.451 230.599 294.493C229.138 293.3 228.055 291.673 227.494 289.824C226.766 287.113 226.48 284.293 226.647 281.483C227.07 267.402 234.393 237.008 248.314 216.671C260.223 199.305 276.72 189.358 296.958 197.294C298.309 197.831 299.503 198.726 300.423 199.893C301.343 201.059 301.957 202.455 302.205 203.945C302.452 205.434 302.324 206.966 301.835 208.388C301.345 209.81 300.509 211.075 299.411 212.057C299.093 213.22 298.634 214.825 298.458 215.619L297.24 222.059C296.726 224.765 296.03 227.429 295.158 230.032C293.959 233.723 292.494 237.248 291.153 240.643C290.43 242.489 289.389 244.962 288.171 247.877C281.29 270.263 272.186 297.705 261.494 318.004C254.436 331.292 246.655 341.626 238.557 346.738C235.764 348.62 232.634 349.887 229.358 350.462C226.081 351.036 222.728 350.906 219.501 350.078C215.702 349.244 212.318 347.003 209.973 343.767C208.773 341.986 207.933 339.967 207.506 337.835C207.078 335.702 207.071 333.501 207.486 331.365C208.474 325.054 212.973 317.432 218.39 311.619C221.841 307.711 226.052 304.622 230.74 302.558C232.83 301.804 235.12 301.95 237.107 302.962C239.094 303.974 240.615 305.771 241.336 307.956C242.056 310.141 241.917 312.537 240.949 314.615C239.982 316.693 238.264 318.284 236.175 319.038C233.475 319.961 229.964 323.19 227.159 326.752C225.581 328.645 224.301 330.788 223.365 333.1C223.259 333.432 223.136 333.931 223.048 334.3L223.4 334.447C226.929 335.481 230.458 333.912 233.775 331.126C239.156 326.66 244.238 319.407 249.037 310.696C251.701 305.843 254.26 300.639 256.695 295.195ZM285.86 212.039C275.697 210.359 267.404 217.077 260.77 226.267C250.184 241.031 243.567 262.143 241.362 275.762C240.797 279.232 241.662 282.775 241.362 284.362C246.832 286.798 252.072 282.11 256.995 276.316C264.67 267.273 271.198 254.318 275.468 244.814C279.773 231.416 283.284 219.623 285.86 212.039V212.039Z" fill="#6E0023"/><path fill-rule="evenodd" clip-rule="evenodd" d="M306.481 198.087C306.64 208.514 307.222 218.886 307.487 229.312C307.663 236.214 307.84 243.116 307.698 250.018C307.469 261.515 306.481 272.939 305.828 284.399C305.927 286.642 306.848 288.759 308.401 290.31C309.954 291.861 312.018 292.727 314.165 292.727C316.312 292.727 318.376 291.861 319.929 290.31C321.482 288.759 322.403 286.642 322.502 284.399C321.955 275.781 321.196 267.218 320.737 258.563C320.473 252.842 320.261 247.121 320.314 241.4C320.314 234.277 320.773 227.153 321.231 220.03C321.69 212.906 322.378 205.875 323.084 198.789C323.129 197.645 322.958 196.503 322.582 195.428C322.205 194.353 321.629 193.366 320.888 192.524C320.147 191.682 319.254 191 318.261 190.519C317.268 190.038 316.194 189.765 315.1 189.718C314.006 189.671 312.915 189.849 311.887 190.243C310.859 190.638 309.916 191.239 309.111 192.015C308.305 192.79 307.654 193.724 307.194 194.763C306.733 195.802 306.473 196.925 306.428 198.069L306.481 198.087Z" fill="#6E0023"/><path fill-rule="evenodd" clip-rule="evenodd" d="M354.104 183.933C349.393 196.851 344.382 209.603 338.948 222.207C333.513 234.812 327.814 247.398 321.727 259.725C316.822 269.635 311.67 279.379 306.465 289.086C298.578 303.85 290.427 318.226 282.646 332.823C281.722 334.871 281.595 337.214 282.292 339.358C282.988 341.502 284.454 343.278 286.38 344.313C288.306 345.348 290.54 345.559 292.612 344.903C294.684 344.247 296.431 342.774 297.484 340.796C304.26 325.737 311.141 310.66 318.304 295.656C322.304 287.278 326.368 278.912 330.496 270.558C333.266 265.022 336.089 259.485 338.912 253.949C349.587 233.095 360.173 212.205 369.489 190.687C370.246 188.573 370.19 186.234 369.334 184.162C368.477 182.091 366.887 180.446 364.896 179.575C362.905 178.703 360.669 178.672 358.657 179.488C356.644 180.304 355.013 181.904 354.104 183.951V183.933Z" fill="#6E0023"/><path fill-rule="evenodd" clip-rule="evenodd" d="M378.416 186.24C376.337 199.235 373.389 212.061 369.594 224.625C366.136 236.104 362.26 247.441 357.967 258.637C355.126 266.166 352.003 273.585 349.039 281.114C347.575 284.639 346.322 288.219 345.14 291.836C340.676 305.419 337.782 319.518 332.507 332.768C332.081 333.851 331.867 335.013 331.879 336.184C331.892 337.355 332.129 338.512 332.577 339.585C333.025 340.658 333.676 341.626 334.489 342.43C335.302 343.235 336.262 343.861 337.311 344.269C338.361 344.678 339.478 344.862 340.597 344.81C341.715 344.758 342.812 344.47 343.822 343.966C344.833 343.461 345.736 342.748 346.477 341.871C347.219 340.993 347.784 339.969 348.139 338.858C352.55 324.907 354.403 310.235 358.126 296.025C358.99 292.704 359.89 289.437 361.107 286.208C364.442 277.368 367.724 268.547 371.147 259.818C376.44 246.494 381.733 233.262 386.232 219.679C389.557 209.853 392.402 199.856 394.754 189.728C395.192 187.461 394.751 185.106 393.528 183.18C392.306 181.254 390.402 179.915 388.235 179.458C386.068 179 383.817 179.461 381.975 180.74C380.134 182.019 378.854 184.011 378.416 186.277V186.24Z" fill="#6E0023"/><path fill-rule="evenodd" clip-rule="evenodd" d="M361.2 301.765C362.29 301.6 363.353 301.277 364.358 300.805C369.971 297.301 374.879 292.687 378.808 287.223C384.81 279.131 390.253 270.602 395.094 261.7C399.728 252.825 403.459 243.467 406.227 233.778C408.388 225.327 409.181 216.557 408.574 207.831C408.133 202.184 407.074 197.054 404.727 193.954C403.686 192.588 402.134 192.902 400.052 193.954C396.389 195.989 393.079 198.652 390.259 201.834C388.638 203.405 386.486 204.238 384.277 204.15C382.069 204.061 379.984 203.059 378.482 201.363C376.98 199.667 376.183 197.417 376.268 195.106C376.352 192.796 377.31 190.616 378.932 189.045C392.077 177.049 401.869 175.444 408.397 177.972C411.725 179.261 414.598 181.578 416.637 184.616C419.796 189.753 421.682 195.632 422.124 201.723C423.231 213.869 422.032 226.124 418.595 237.783C415.393 248.254 411.258 258.387 406.245 268.048C401.369 277.604 395.955 286.847 390.03 295.73C385.213 303.112 374.838 314.443 365.981 317.377C363.787 318.156 361.458 318.431 359.153 318.183C356.848 317.934 354.621 317.168 352.625 315.938C348.972 313.705 345.567 309.257 343.45 301.267C343.196 300.153 343.154 298.998 343.327 297.868C343.5 296.737 343.885 295.654 344.458 294.678C345.032 293.703 345.783 292.856 346.67 292.185C347.556 291.513 348.56 291.031 349.625 290.766C350.69 290.501 351.794 290.457 352.875 290.638C353.955 290.819 354.992 291.221 355.924 291.821C356.856 292.42 357.666 293.206 358.308 294.134C358.95 295.061 359.411 296.111 359.664 297.225C359.851 298.428 360.171 299.605 360.617 300.731C360.829 301.119 361.358 301.506 361.2 301.765Z" fill="#6E0023"/><path fill-rule="evenodd" clip-rule="evenodd" d="M501.378 166.456C492.697 167.361 484.228 169.372 475.6 171.033C472.071 171.697 468.542 172.325 465.013 172.694C457.311 173.377 449.567 173.377 441.864 172.694C439.719 172.818 437.702 173.803 436.234 175.444C434.765 177.085 433.958 179.255 433.981 181.502C434.004 183.749 434.854 185.901 436.356 187.509C437.857 189.116 439.893 190.057 442.041 190.133C449.575 189.377 456.862 187.66 464.325 186.295C469.089 185.427 473.871 184.726 478.67 184.228C486.383 183.481 494.14 183.351 501.872 183.84C502.965 183.813 504.043 183.56 505.043 183.096C506.043 182.633 506.946 181.968 507.701 181.139C508.455 180.31 509.046 179.335 509.44 178.267C509.834 177.2 510.023 176.062 509.997 174.918C509.97 173.774 509.728 172.647 509.285 171.6C508.842 170.554 508.206 169.61 507.414 168.821C506.622 168.031 505.689 167.413 504.668 167.001C503.648 166.589 502.559 166.391 501.466 166.419L501.378 166.456Z" fill="#6E0023"/><path fill-rule="evenodd" clip-rule="evenodd" d="M467.571 175.923C459.949 197.884 453.827 220.306 447.757 242.784C446.152 248.726 444.546 254.687 442.87 260.611C440.341 269.469 437.73 278.309 435.036 287.13C430.254 302.798 425.12 318.318 419.756 333.783C419.419 334.874 419.291 336.023 419.378 337.165C419.466 338.308 419.768 339.421 420.266 340.442C420.765 341.462 421.452 342.37 422.286 343.113C423.12 343.856 424.086 344.42 425.129 344.773C426.172 345.125 427.27 345.26 428.363 345.168C429.455 345.077 430.519 344.761 431.495 344.239C432.471 343.717 433.339 343 434.049 342.127C434.759 341.254 435.299 340.244 435.636 339.153C440.929 320.034 445.34 300.676 450.351 281.465C453.686 268.749 457.232 256.108 461.078 243.559C467.466 222.779 474.805 202.375 483.098 182.345C483.82 180.215 483.724 177.875 482.83 175.817C481.936 173.759 480.314 172.144 478.305 171.312C476.295 170.48 474.056 170.495 472.057 171.356C470.058 172.216 468.457 173.853 467.589 175.923H467.571Z" fill="#6E0023"/></svg>