<svg width="511" height="214" viewBox="0 0 511 214" fill="none" xmlns="http://www.w3.org/2000/svg"><path fill-rule="evenodd" clip-rule="evenodd" d="M463.777 12.5389C461.7 26.1386 460.254 40.0474 458.832 53.9562C457.855 63.1174 456.953 72.3157 455.84 81.477C453.998 96.7704 451.686 111.965 449.436 126.999C449.345 127.76 449.405 128.532 449.612 129.27C449.82 130.009 450.17 130.699 450.644 131.302C451.602 132.519 453.004 133.306 454.542 133.49C456.08 133.673 457.627 133.238 458.845 132.281C460.062 131.323 460.849 129.921 461.033 128.384C462.009 116.972 462.739 105.45 463.715 93.8898C464.358 86.274 465.051 78.6334 465.941 71.0299C467.053 61.5225 468.413 52.0646 469.984 42.6684C471.554 33.2723 473.346 23.8885 475.325 14.6284C475.602 13.0971 475.259 11.5184 474.372 10.2398C473.485 8.96106 472.127 8.08704 470.596 7.80996C469.064 7.53289 467.486 7.87547 466.207 8.76233C464.928 9.64918 464.054 11.0077 463.777 12.5389V12.5389Z" fill="#6E0023"/><path fill-rule="evenodd" clip-rule="evenodd" d="M61.723 114.833C58.5703 113.881 54.6635 112.274 50.9298 112.163C48.6698 112.04 46.4135 112.464 44.3525 113.399C36.1679 117.281 29.5164 127.085 24.1755 139.646C22.0366 144.715 20.0708 150.205 18.1792 155.83C16.9429 159.403 15.7932 163.025 14.6186 166.623C9.52494 182.176 5.07413 197.321 0.784045 205.37C0.0971023 206.762 -0.00878029 208.37 0.489714 209.84C0.988208 211.31 2.05024 212.521 3.44216 213.208C4.83408 213.895 6.44186 214.001 7.91183 213.503C9.38181 213.004 10.5936 211.942 11.2805 210.55C15.2368 201.896 18.6985 185.725 23.2977 169.244C24.2868 165.696 25.3624 162.123 26.5369 158.636C28.2726 153.441 30.2909 148.343 32.5826 143.368C37.0705 133.749 42.1889 125.923 48.7291 123.24C49.8146 122.985 50.9542 123.098 51.9683 123.562C54.1195 124.18 56.1966 125.218 57.9892 125.898C59.4648 126.39 61.0752 126.276 62.4664 125.58C63.8575 124.885 64.9154 123.665 65.4072 122.189C65.8991 120.714 65.7846 119.103 65.0891 117.712C64.3935 116.321 63.1738 115.263 61.6982 114.771L61.723 114.833Z" fill="#6E0023"/><path fill-rule="evenodd" clip-rule="evenodd" d="M52.0776 113.931C50.495 119.704 49.1227 125.503 47.8246 131.351C46.2668 138.311 44.9192 145.309 43.5592 152.306C42.6567 156.955 41.7789 161.616 40.8146 166.24C38.4037 177.837 35.7827 189.335 33.3966 200.857C33.2699 201.614 33.2935 202.388 33.4661 203.135C33.6386 203.883 33.9567 204.589 34.4021 205.214C34.8475 205.838 35.4116 206.369 36.0622 206.775C36.7127 207.182 37.4369 207.456 38.1935 207.583C38.9501 207.71 39.7242 207.686 40.4717 207.513C41.2191 207.341 41.9253 207.023 42.5498 206.577C43.1744 206.132 43.7051 205.568 44.1116 204.917C44.5181 204.267 44.7925 203.543 44.9192 202.786C45.9948 194.132 46.9344 185.317 48.2202 176.576C49.0856 170.802 50.0253 165.028 51.1998 159.267C52.671 152.133 54.4884 145.074 56.4665 138.076C58.4447 131.079 60.7319 124.254 63.2046 117.466C63.6735 115.991 63.537 114.39 62.8252 113.015C62.1134 111.64 60.8845 110.604 59.409 110.135C57.9335 109.666 56.3321 109.803 54.9572 110.514C53.5823 111.226 52.5464 112.455 52.0776 113.931V113.931Z" fill="#6E0023"/><path fill-rule="evenodd" clip-rule="evenodd" d="M50.4989 144.035C47.2597 145.457 44.07 146.928 40.806 148.338C37.5421 149.747 34.34 151.157 31.0266 152.405C28.3809 153.407 25.698 154.285 23.0028 155.15C18.8982 156.448 14.8183 157.561 10.7508 158.859C9.38667 159.503 8.32404 160.649 7.78485 162.057C7.24566 163.466 7.27162 165.028 7.85729 166.418C8.44296 167.808 9.54304 168.918 10.9278 169.516C12.3125 170.114 13.8747 170.154 15.2881 169.627C18.9971 167.662 22.5825 165.659 26.4151 163.903C28.8878 162.741 31.4841 161.641 34.1051 160.689C37.3814 159.514 40.7319 158.587 44.0947 157.647C47.4575 156.708 50.8574 155.941 54.2574 155.101C54.988 154.857 55.6634 154.472 56.2452 153.967C56.827 153.463 57.3038 152.849 57.6482 152.16C57.9926 151.471 58.198 150.721 58.2526 149.953C58.3071 149.185 58.2099 148.413 57.9664 147.683C57.7228 146.952 57.3378 146.276 56.8332 145.695C56.3286 145.113 55.7143 144.636 55.0255 144.292C54.3367 143.947 53.5868 143.742 52.8186 143.687C52.0504 143.633 51.279 143.73 50.5484 143.974L50.4989 144.035Z" fill="#6E0023"/><path fill-rule="evenodd" clip-rule="evenodd" d="M73.1814 134.38C73.7025 133.88 74.3154 133.485 74.9864 133.218C78.3122 131.981 81.7121 130.745 85.1491 129.694C87.5228 128.977 89.909 128.346 92.3075 127.852C94.4391 127.312 96.6389 127.091 98.8353 127.197C100.443 127.395 101.935 128.137 103.064 129.298C103.682 130.069 104.136 130.958 104.397 131.91C104.659 132.863 104.722 133.859 104.584 134.837C103.834 139.42 102.839 143.96 101.605 148.437C99.6513 155.941 96.5975 167.266 91.9489 176.749C88.3512 184.08 83.752 190.349 78.102 193.501C76.4717 194.442 74.6822 195.075 72.8228 195.368C70.8973 195.66 68.9325 195.555 67.0491 195.059C65.016 194.603 63.1418 193.611 61.6203 192.188C60.0987 190.764 58.9852 188.959 58.3948 186.961C57.0225 182.844 57.5665 177.528 57.8385 173.287C58.5614 160.153 60.3058 147.095 63.0558 134.231C65.2936 124.341 68.4215 115.105 72.5756 108.516C74.281 105.895 76.6247 103.751 79.3864 102.284C82.1481 100.818 85.2372 100.078 88.3636 100.133C95.2376 100.269 101.382 104.349 102.89 112.657C103.138 114.185 102.768 115.749 101.863 117.005C100.958 118.26 99.5906 119.105 98.0626 119.352C96.5346 119.6 94.9708 119.23 93.7153 118.325C92.4598 117.419 91.6154 116.052 91.3678 114.524C91.2863 113.662 90.8914 112.86 90.2579 112.27C89.6245 111.68 88.7964 111.342 87.9308 111.322C86.6955 111.246 85.4611 111.486 84.3447 112.021C83.2283 112.555 82.2668 113.366 81.5513 114.376C78.0402 119.519 75.2955 126.628 73.1814 134.38ZM93.2471 138.917C91.1577 139.486 89.1053 140.153 87.0654 140.92C84.4691 141.872 81.9099 142.935 79.3878 144.036C78.6775 144.324 77.9173 144.47 77.1507 144.464C76.3841 144.459 75.6261 144.302 74.92 144.004C74.2139 143.705 73.5736 143.27 73.0355 142.724C72.4975 142.178 72.0723 141.532 71.7843 140.821C71.7316 140.709 71.6861 140.593 71.6483 140.475C69.237 151.475 67.5846 162.629 66.703 173.856C66.2786 176.841 66.1832 179.863 66.4186 182.869C66.4458 183.693 66.7348 184.488 67.2439 185.137C67.753 185.786 68.4556 186.256 69.2498 186.479C69.9617 186.655 70.7021 186.685 71.4258 186.565C72.2077 186.433 72.9581 186.156 73.6388 185.749C77.8547 183.277 80.995 178.331 83.5295 172.731C87.6588 163.755 90.0697 153.036 91.6769 145.964C91.9118 145.272 92.6536 142.033 93.2471 138.917V138.917Z" fill="#6E0023"/><path fill-rule="evenodd" clip-rule="evenodd" d="M119.184 94.5821C117.008 101.852 115.043 109.109 113.126 116.391C111.396 122.956 109.788 129.521 108.181 136.111C107.105 140.475 105.943 144.839 104.892 149.241C102.791 156.992 99.3907 164.447 96.745 172.088C95.4853 175.649 94.4732 179.292 93.7159 182.992C93.6031 183.751 93.6407 184.524 93.8266 185.267C94.0125 186.011 94.3431 186.711 94.7994 187.327C95.2558 187.943 95.829 188.463 96.4863 188.857C97.1436 189.251 97.8721 189.513 98.6304 189.625C99.3886 189.738 100.162 189.701 100.905 189.515C101.649 189.329 102.349 188.998 102.965 188.542C103.581 188.086 104.101 187.512 104.495 186.855C104.889 186.198 105.15 185.469 105.263 184.711C105.604 181.491 106.183 178.301 106.994 175.166C109.034 167.155 112.038 159.341 113.633 151.293C114.684 146.768 115.71 142.255 116.922 137.804C118.134 133.354 119.506 128.903 120.915 124.501C123.734 115.723 126.899 107.069 130.25 98.3777C130.753 96.9136 130.654 95.3096 129.975 93.9185C129.295 92.5273 128.091 91.463 126.627 90.9597C125.163 90.4564 123.559 90.5553 122.168 91.2346C120.777 91.9139 119.712 93.1181 119.209 94.5821H119.184Z" fill="#6E0023"/><path fill-rule="evenodd" clip-rule="evenodd" d="M136.322 99.4409C135.642 99.7376 134.06 99.1936 132.959 99.4409C129.856 100.01 126.666 101.036 125.034 101.444C124.267 101.631 123.47 101.662 122.691 101.533C121.912 101.404 121.167 101.119 120.501 100.695C119.836 100.27 119.263 99.7155 118.817 99.0636C118.371 98.4118 118.062 97.6764 117.909 96.9019C117.755 96.1274 117.76 95.3298 117.922 94.5572C118.085 93.7846 118.403 93.0529 118.856 92.4064C119.31 91.7599 119.889 91.2118 120.56 90.7953C121.231 90.3788 121.979 90.1024 122.759 89.9829C126.623 89.182 130.54 88.6696 134.48 88.4499C137.214 88.2676 139.936 88.9417 142.269 90.3786C143.587 91.5012 144.634 92.9072 145.332 94.4915C146.03 96.0757 146.36 97.7973 146.299 99.5274C146.158 104.705 145.099 109.816 143.171 114.623C141.799 118.011 139.982 122.832 137.892 128.037C135.061 135.072 131.599 142.663 127.111 148.326C122.623 153.988 117.109 157.573 110.606 158.216C109.06 158.305 107.542 157.776 106.387 156.745C105.231 155.714 104.532 154.267 104.443 152.721C104.355 151.175 104.884 149.657 105.914 148.501C106.945 147.345 108.393 146.646 109.939 146.558C114.884 146.558 118.89 142.849 122.302 138.138C125.075 134.179 127.425 129.94 129.312 125.49C131.686 120.063 133.342 114.796 134.727 111.223C135.438 109.092 135.943 106.898 136.235 104.671C136.471 103.12 136.538 101.549 136.433 99.9849C136.411 99.8008 136.374 99.6189 136.322 99.4409V99.4409Z" fill="#6E0023"/><path fill-rule="evenodd" clip-rule="evenodd" d="M121.314 153.011C122.05 152.944 122.791 152.944 123.527 153.011C123.725 153.011 123.923 152.826 124.071 152.937C124.601 153.386 125.024 153.948 125.307 154.582C126.401 156.789 126.903 159.243 126.766 161.703C126.595 163.833 126.18 165.936 125.53 167.971C124.825 170.258 123.898 172.521 123.156 174.907C121.978 178.175 121.827 181.725 122.723 185.082C123.697 187.907 125.696 190.263 128.324 191.684C129.009 192.029 129.756 192.236 130.521 192.292C131.286 192.349 132.054 192.254 132.783 192.014C133.511 191.773 134.185 191.391 134.766 190.89C135.347 190.389 135.824 189.779 136.169 189.094C136.514 188.409 136.72 187.662 136.777 186.897C136.833 186.132 136.739 185.364 136.498 184.635C136.258 183.907 135.876 183.233 135.375 182.652C134.874 182.071 134.264 181.594 133.578 181.249C133.306 181.15 132.96 181.373 132.837 181.175C132.665 180.976 132.534 180.745 132.453 180.495C132.322 179.425 132.351 178.342 132.54 177.281C133.01 174.919 133.517 172.62 134.085 170.382C134.802 167.82 135.351 165.214 135.73 162.581C136.293 158.65 135.916 154.642 134.629 150.885C133.847 148.027 132.099 145.529 129.684 143.813C127.854 142.478 125.431 141.835 121.907 141.34C120.398 141.325 118.94 141.894 117.841 142.929C116.741 143.963 116.084 145.383 116.008 146.891C115.931 148.399 116.44 149.878 117.429 151.019C118.418 152.16 119.81 152.874 121.314 153.011V153.011Z" fill="#6E0023"/><path fill-rule="evenodd" clip-rule="evenodd" d="M158.221 86.5582C154.676 98.6206 151.746 110.856 149.443 123.216C148.8 126.455 148.145 129.706 147.44 132.945C146.377 137.775 145.256 142.597 144.077 147.411C141.988 155.941 139.664 164.373 137.154 172.78C136.775 174.282 137.009 175.873 137.803 177.202C138.597 178.532 139.887 179.492 141.388 179.871C142.89 180.249 144.481 180.016 145.81 179.222C147.14 178.428 148.1 177.138 148.479 175.636C150.667 165.189 152.188 154.618 154.215 144.122C155.513 137.211 156.985 130.324 158.678 123.5C161.487 112.252 165.018 101.197 169.249 90.4032C169.502 89.6791 169.609 88.9123 169.565 88.1467C169.521 87.3811 169.327 86.6316 168.993 85.9411C168.66 85.2505 168.194 84.6324 167.621 84.1221C167.049 83.6117 166.382 83.2191 165.658 82.9667C164.933 82.7142 164.167 82.6068 163.401 82.6507C162.635 82.6945 161.886 82.8888 161.195 83.2223C160.505 83.5558 159.887 84.022 159.376 84.5944C158.866 85.1668 158.473 85.8341 158.221 86.5582V86.5582Z" fill="#6E0023"/><path fill-rule="evenodd" clip-rule="evenodd" d="M205.089 92.8759C206.325 86.3481 203.914 80.6362 199.711 77.5454C195.507 74.4545 189.82 73.4778 183.638 77.1126C180.545 78.9756 177.966 81.5804 176.134 84.6914C173.886 88.6342 172.138 92.8411 170.929 97.2154C168.394 105.215 165.612 120.298 163.844 134.194C162.546 144.357 161.78 153.901 162.509 159.873C163.263 166.425 167.739 170.431 173.228 172.038C175.779 172.738 178.446 172.909 181.065 172.541C183.684 172.173 186.2 171.274 188.46 169.9C190.514 168.578 192.318 166.904 193.789 164.954C195.557 162.56 197.14 160.035 198.524 157.4C199.166 156.036 199.258 154.477 198.778 153.047C198.299 151.618 197.285 150.429 195.95 149.728C194.615 149.028 193.061 148.871 191.612 149.289C190.163 149.707 188.932 150.668 188.176 151.973C187.341 153.844 186.404 155.668 185.369 157.437C184.668 158.752 183.704 159.909 182.538 160.837C181.575 161.51 180.486 161.979 179.336 162.217C178.186 162.455 177 162.457 175.849 162.222C174.912 162.073 174.044 161.635 173.366 160.971C172.688 160.306 172.234 159.447 172.066 158.513C171.077 151.985 171.745 140.598 173.426 129.286C174.838 119.42 177.054 109.687 180.053 100.183C181.025 97.1916 182.266 94.295 183.762 91.5283C184.876 89.3415 186.592 87.5185 188.707 86.2739C190.389 85.4084 191.909 85.3714 192.923 86.2739C193.937 87.1764 194.085 88.7466 193.677 90.4527C193.349 91.9692 193.637 93.5539 194.478 94.8581C195.318 96.1623 196.642 97.0792 198.159 97.4071C199.675 97.735 201.26 97.447 202.564 96.6065C203.869 95.766 204.785 94.4419 205.113 92.9254L205.089 92.8759Z" fill="#6E0023"/><path fill-rule="evenodd" clip-rule="evenodd" d="M244.479 91.2809C245.048 88.425 245.567 85.5443 246.309 82.7502L247.471 76.6922C247.669 75.8267 248.04 73.6631 248.2 73.0821C249.523 68.1367 254.753 69.9789 255.42 70.461C256.082 70.9084 256.609 71.5289 256.942 72.2548C257.276 72.9808 257.404 73.7844 257.312 74.578C257.173 78.229 256.693 81.859 255.878 85.4207C254.234 93.0241 251.501 100.801 250.178 108.07C248.794 115.723 247.594 123.401 246.469 131.091C244.8 142.725 243.366 154.371 241.821 165.98C241.593 167.512 240.766 168.89 239.522 169.811C238.278 170.733 236.719 171.123 235.188 170.895C233.657 170.667 232.279 169.84 231.357 168.596C230.435 167.352 230.046 165.793 230.273 164.262L231.794 154.878C226.923 162.16 220.964 166.462 214.485 166.116C212.465 166.097 210.482 165.561 208.727 164.559C206.972 163.557 205.503 162.122 204.459 160.392C201.121 155.051 201.986 145.791 202.691 140.178C204.038 129.459 205.782 118.579 207.958 107.786C210.134 96.9928 212.742 86.2119 215.858 75.802C216.403 74.4297 217.447 73.3145 218.781 72.6802C220.114 72.046 221.638 71.9396 223.047 72.3825C224.455 72.8255 225.644 73.7849 226.375 75.0681C227.105 76.3514 227.323 77.8635 226.985 79.3008C223.696 89.3028 220.865 99.6262 218.491 110.048C216.117 120.471 214.152 131.066 212.582 141.55C212.149 144.493 211.345 148.808 211.852 152.517C212.112 154.507 212.68 156.436 215.054 156.609C217.428 156.782 219.381 155.372 221.236 153.382C224.265 150.18 226.911 145.432 229.26 140.104C234.094 129.088 237.605 115.699 240.139 106.723L240.251 106.191C241.363 101.357 242.971 96.3375 244.479 91.2809Z" fill="#6E0023"/><path fill-rule="evenodd" clip-rule="evenodd" d="M261.378 146.026C261.691 146.043 262.004 146.043 262.317 146.026C265.161 145.937 267.988 145.548 270.749 144.864C275.701 143.709 280.567 142.213 285.313 140.388C286.045 140.111 286.826 139.984 287.608 140.014C288.39 140.044 289.158 140.23 289.867 140.563C290.576 140.895 291.211 141.366 291.734 141.949C292.257 142.531 292.658 143.212 292.913 143.952C293.168 144.692 293.272 145.476 293.218 146.257C293.165 147.038 292.955 147.801 292.601 148.499C292.248 149.197 291.757 149.818 291.16 150.323C290.562 150.828 289.869 151.209 289.121 151.441C285.004 152.677 274.013 155.583 265.717 155.929C259.338 156.189 254.331 154.557 252.39 151.701C251.512 149.975 251.292 147.989 251.772 146.113C252.686 141.612 255.913 130.856 256.173 128.94C256.954 122.837 258.073 116.782 259.523 110.803C261.501 102.148 263.739 93.4941 265.235 84.8398C266.306 78.8975 266.778 72.8629 266.645 66.8264C266.608 66.0366 266.732 65.2477 267.01 64.5073C267.287 63.7669 267.711 63.0904 268.257 62.5187C268.803 61.9469 269.46 61.4919 270.186 61.1809C270.913 60.87 271.696 60.7097 272.486 60.7097C273.277 60.7097 274.059 60.87 274.786 61.1809C275.513 61.4919 276.169 61.9469 276.715 62.5187C277.261 63.0904 277.686 63.7669 277.963 64.5073C278.24 65.2477 278.364 66.0366 278.328 66.8264C278.037 73.5917 277.084 80.3122 275.484 86.8921C273.469 95.633 270.663 104.312 268.375 113.041C266.867 118.633 265.715 124.315 264.926 130.053C264.728 131.821 262.416 140.772 261.378 146.026Z" fill="#6E0023"/><path fill-rule="evenodd" clip-rule="evenodd" d="M325.397 44.4735C322.776 46.2044 319.945 48.0342 316.829 49.6785C313.885 51.2942 310.833 52.7029 307.693 53.8944C305.176 54.7963 302.598 55.5153 299.978 56.0456C296.147 56.8206 292.252 57.2345 288.344 57.282C287.582 57.3631 286.843 57.5937 286.17 57.9604C285.497 58.3271 284.902 58.8228 284.421 59.4192C283.939 60.0156 283.58 60.701 283.363 61.4363C283.146 62.1717 283.077 62.9424 283.158 63.7047C283.239 64.467 283.47 65.2058 283.836 65.879C284.203 66.5522 284.699 67.1465 285.295 67.6281C285.891 68.1097 286.577 68.4691 287.312 68.6859C288.048 68.9026 288.818 68.9723 289.581 68.8911C293.941 67.9451 298.232 66.7059 302.426 65.1821L309.288 62.7095C310.808 62.1778 312.341 61.671 313.862 61.1764C319.655 59.3388 325.349 57.2053 330.924 54.7846C332.284 54.0452 333.296 52.7955 333.735 51.3104C334.174 49.8254 334.006 48.2266 333.266 46.8658C332.527 45.5051 331.277 44.4938 329.792 44.0544C328.307 43.615 326.709 43.7836 325.348 44.523L325.397 44.4735Z" fill="#6E0023"/><path fill-rule="evenodd" clip-rule="evenodd" d="M306.309 57.0717C304.841 61.8242 303.754 66.686 303.058 71.611C301.995 78.5221 301.5 85.4209 300.696 92.74C299.905 98.7362 299.151 104.708 298.224 110.654C297.556 114.858 296.802 119.024 296.035 123.203C294.255 132.995 292.326 142.762 290.966 152.69C290.885 153.453 290.955 154.225 291.172 154.961C291.389 155.697 291.749 156.383 292.231 156.98C293.205 158.185 294.618 158.955 296.159 159.119C296.922 159.2 297.694 159.13 298.43 158.913C299.166 158.696 299.852 158.336 300.449 157.854C301.655 156.88 302.424 155.467 302.588 153.926C303.218 143.875 304.096 133.947 305.333 124.032C305.951 119.086 306.631 114.042 307.41 109.06C308.189 104.077 309.091 99.0948 309.882 94.0876C311.119 86.991 311.959 80.2777 313.468 73.6015C314.415 69.3299 315.718 65.1448 317.362 61.0898C317.624 60.369 317.74 59.6037 317.706 58.8376C317.672 58.0716 317.487 57.3198 317.162 56.6253C316.837 55.9307 316.378 55.3069 315.813 54.7896C315.247 54.2722 314.584 53.8714 313.863 53.61C313.142 53.3486 312.377 53.2318 311.611 53.2661C310.845 53.3005 310.093 53.4854 309.399 53.8103C308.704 54.1352 308.08 54.5937 307.563 55.1597C307.046 55.7256 306.645 56.388 306.383 57.1088L306.309 57.0717Z" fill="#6E0023"/><path fill-rule="evenodd" clip-rule="evenodd" d="M358.583 125.305C358.422 125.713 358.237 126.096 358.064 126.541C355.998 131.395 353.065 135.832 349.409 139.634C347.884 141.209 346.051 142.452 344.024 143.286C341.996 144.12 339.819 144.527 337.627 144.481C332.299 144.27 329.208 141.365 327.502 137.124C325.152 131.314 326.475 121.744 326.488 117.195C326.606 107.103 327.695 97.0469 329.739 87.1641C332.583 72.5506 336.823 57.9372 340.372 44.2509C340.546 43.4812 340.874 42.7546 341.336 42.1149C341.798 41.4753 342.385 40.9358 343.062 40.5291C343.738 40.1223 344.49 39.8567 345.271 39.7481C346.053 39.6395 346.849 39.6903 347.61 39.8974C348.372 40.1045 349.083 40.4636 349.703 40.9531C350.322 41.4426 350.835 42.0523 351.212 42.7455C351.59 43.4387 351.823 44.2012 351.897 44.9868C351.972 45.7725 351.887 46.5651 351.647 47.317C347.814 60.7065 343.252 74.9862 340.112 89.3524C337.976 98.5369 336.734 107.907 336.403 117.331C336.341 120.211 335.488 125.367 335.76 129.966C335.796 131.228 336.017 132.477 336.415 133.675C336.504 134.054 336.711 134.396 337.007 134.649C337.302 134.903 337.671 135.055 338.06 135.084C340.619 135.233 342.733 133.514 344.748 131.079C347.827 127.37 350.448 121.955 352.698 115.909C358.781 99.6264 362.119 78.9178 363.726 71.1907L367.435 51.7431C367.732 49.8515 368.115 48.0341 368.387 46.1425C368.549 45.0695 368.648 43.9879 368.684 42.9033C368.684 42.7426 368.684 42.3346 368.684 42.2357C369.092 37.1915 374.692 38.1682 375.323 38.4525C376.069 38.7528 376.713 39.2629 377.176 39.9211C377.639 40.5793 377.901 41.3574 377.932 42.1615C378.359 45.8553 378.425 49.5819 378.129 53.2885C377.573 61.1887 375.719 68.9405 375.076 76.8778C374.124 89.031 373.036 101.604 371.515 114.067C370.489 122.474 369.277 130.807 367.806 138.905C367.498 140.423 366.599 141.756 365.308 142.612C364.016 143.468 362.438 143.775 360.92 143.467C359.401 143.159 358.068 142.26 357.212 140.968C356.357 139.677 356.049 138.099 356.358 136.58C357.174 132.748 357.915 129.051 358.583 125.305Z" fill="#6E0023"/><path fill-rule="evenodd" clip-rule="evenodd" d="M392.149 33.6803C391.065 37.2858 390.28 40.9742 389.8 44.7084C388.737 52.7322 388.811 60.8796 388.156 69.0518C387.204 78.4232 386.14 87.7575 384.447 96.9929C382.753 106.228 380.589 115.414 378.426 124.613C377.61 127.864 377.61 132.327 376.905 136.172C376.761 137.114 376.451 138.022 375.99 138.855C375.593 139.535 375.337 140.287 375.238 141.068C375.139 141.849 375.198 142.641 375.413 143.399C375.627 144.156 375.992 144.862 376.486 145.475C376.98 146.087 377.592 146.594 378.286 146.965C378.981 147.335 379.743 147.562 380.527 147.631C381.31 147.7 382.1 147.61 382.849 147.366C383.597 147.123 384.288 146.731 384.882 146.214C385.475 145.697 385.958 145.065 386.301 144.357C387.259 142.273 387.853 140.04 388.057 137.755C388.428 134.046 388.057 129.855 388.601 126.727C389.936 119.198 391.073 111.668 392.31 104.127C393.225 98.4807 394.119 92.8183 394.993 87.1394C395.87 81.477 396.798 75.8145 397.539 70.1027C398.504 63.2657 398.887 56.4165 399.95 49.6784C400.609 45.5173 401.698 41.4361 403.202 37.5005C403.708 36.0365 403.613 34.4311 402.936 33.0377C402.259 31.6442 401.056 30.5768 399.592 30.0702C398.128 29.5636 396.522 29.6593 395.129 30.3363C393.735 31.0134 392.668 32.2162 392.161 33.6803H392.149Z" fill="#6E0023"/><path fill-rule="evenodd" clip-rule="evenodd" d="M392.158 109.69L394.99 108.899C397.439 107.572 399.776 106.047 401.975 104.337C403.274 103.324 404.441 102.153 405.449 100.85C407.857 97.3854 409.505 93.45 410.283 89.3029C411.853 82.2187 411.952 74.8006 413.25 67.9514C413.617 65.7872 413.779 63.5933 413.733 61.3988C413.733 57.6898 413.386 53.9066 413.312 50.2718C413.293 46.9547 412.987 43.6454 412.397 40.3811C412.208 38.8842 411.651 37.4572 410.778 36.227C410.419 35.819 409.85 36.0045 409.17 36.1281C407.106 36.4866 404.621 37.7972 401.443 39.8371C400.794 40.276 400.063 40.5796 399.293 40.7297C398.524 40.8798 397.732 40.8734 396.965 40.7108C396.199 40.5482 395.472 40.2328 394.83 39.7833C394.188 39.3339 393.643 38.7597 393.227 38.095C392.812 37.4303 392.535 36.6887 392.412 35.9144C392.29 35.1402 392.324 34.3492 392.514 33.5887C392.704 32.8282 393.045 32.1137 393.517 31.4879C393.989 30.8621 394.583 30.3379 395.262 29.9464C407.81 22.615 415.043 24.4076 418.999 29.3159C422.09 33.1856 423.45 40.6284 423.277 50.3336C423.277 54.636 423.475 59.1857 423.203 63.5995C423.089 65.7024 422.817 67.7937 422.387 69.8553C420.656 77.9533 420.359 86.9415 417.862 95.0765C416.723 99.027 414.93 102.759 412.558 106.117C411.129 108.041 409.468 109.781 407.613 111.297C407.044 111.779 406.376 112.262 405.832 112.719C406.417 113.29 406.935 113.924 407.378 114.611C409.479 118.135 410.747 122.093 411.087 126.183C411.297 127.802 411.47 129.36 411.754 130.757C411.799 131.341 412.004 131.902 412.348 132.377C412.348 132.377 412.434 132.278 412.496 132.29C412.817 132.317 413.14 132.317 413.46 132.29C415.567 132.155 417.646 131.74 419.642 131.054C421.121 130.703 422.679 130.942 423.985 131.721C425.29 132.499 426.242 133.755 426.637 135.223C427.033 136.69 426.841 138.255 426.103 139.583C425.365 140.912 424.139 141.902 422.684 142.342C412.237 144.814 407.192 142.873 404.522 140.017C402.477 137.603 401.263 134.595 401.06 131.437C400.664 127.963 401.06 123.586 398.897 119.915C398.837 119.819 398.756 119.74 398.659 119.684C398.562 119.628 398.452 119.597 398.34 119.593C395.731 119.259 392.715 119.84 390.094 119.173C389.511 119.066 388.956 118.845 388.46 118.522C387.963 118.2 387.535 117.782 387.201 117.293C386.799 116.755 386.52 116.135 386.386 115.477C386.251 114.818 386.263 114.138 386.422 113.486C386.591 112.573 387.038 111.735 387.702 111.087C388.366 110.438 389.215 110.011 390.131 109.863C390.502 109.789 391.862 109.702 392.158 109.69Z" fill="#6E0023"/><path fill-rule="evenodd" clip-rule="evenodd" d="M465.77 10.4247C462.864 11.488 459.675 12.5265 456.658 13.8123C454.408 14.7151 452.24 15.8113 450.18 17.0886C443.578 21.3045 439.386 28.0919 436.84 35.955C433.551 46.13 432.908 58.0483 432.29 66.715C432.018 69.6204 431.622 72.4763 431.115 75.3694C429.879 82.3052 428.136 89.105 426.961 96.1027C425.836 102.482 425.527 109.084 424.649 115.563C424.31 118.098 423.827 120.612 423.203 123.092C423.04 123.841 423.027 124.615 423.164 125.369C423.301 126.124 423.585 126.844 424 127.489C424.415 128.133 424.953 128.69 425.583 129.126C426.213 129.563 426.923 129.872 427.672 130.034C428.421 130.196 429.195 130.209 429.95 130.073C430.704 129.936 431.424 129.652 432.069 129.237C432.713 128.822 433.27 128.284 433.707 127.654C434.143 127.024 434.452 126.314 434.614 125.565C435.13 122.627 435.485 119.664 435.677 116.688C436.11 110.296 436.036 103.83 436.741 97.5245C437.73 89.513 439.349 81.7117 440.375 73.7374C440.635 71.6727 440.882 69.608 441.055 67.5557C441.859 59.5566 442.551 48.4914 446.001 39.1942C448.004 33.7914 450.946 29.0563 455.731 26.3611C457.313 25.5116 458.968 24.8042 460.676 24.2469C463.581 23.2208 466.635 22.4295 469.442 21.6012C470.172 21.3576 470.848 20.9726 471.43 20.468C472.011 19.9634 472.488 19.3492 472.832 18.6603C473.177 17.9715 473.382 17.2216 473.437 16.4534C473.491 15.6852 473.394 14.9138 473.151 14.1832C472.907 13.4526 472.522 12.7771 472.018 12.1953C471.513 11.6135 470.899 11.1368 470.21 10.7923C469.521 10.4479 468.771 10.2426 468.003 10.188C467.235 10.1334 466.463 10.2306 465.733 10.4742L465.77 10.4247Z" fill="#6E0023"/><path fill-rule="evenodd" clip-rule="evenodd" d="M462.865 49.0109C457.919 54.7969 452.764 60.7931 447.373 66.6534C444.159 70.1563 440.903 73.6139 437.606 77.0262C432.488 82.3424 427.345 87.4979 422.869 93.0985C422.384 93.7211 422.029 94.4356 421.827 95.1988C421.625 95.962 421.58 96.7582 421.694 97.5394C421.808 98.3206 422.079 99.0706 422.491 99.7443C422.903 100.418 423.447 101.001 424.09 101.459C424.733 101.917 425.462 102.239 426.234 102.408C427.005 102.576 427.802 102.587 428.578 102.438C429.353 102.29 430.091 101.987 430.746 101.546C431.401 101.105 431.96 100.536 432.389 99.8737C436.364 93.3657 440.863 87.1925 445.84 81.4152C448.906 77.9287 452.244 74.6648 455.607 71.4503C460.812 66.505 466.215 61.8811 471.284 57.1707C471.816 56.6178 472.233 55.9657 472.513 55.2515C472.793 54.5372 472.929 53.7749 472.914 53.008C472.899 52.2411 472.733 51.4847 472.426 50.7819C472.119 50.0791 471.676 49.4437 471.123 48.9119C470.57 48.3802 469.918 47.9626 469.204 47.6829C468.49 47.4032 467.727 47.2669 466.961 47.2819C466.194 47.2968 465.437 47.4626 464.734 47.7699C464.032 48.0772 463.396 48.5198 462.865 49.0727V49.0109Z" fill="#6E0023"/><path fill-rule="evenodd" clip-rule="evenodd" d="M499.351 107.217C500.146 105.924 501.413 104.99 502.885 104.613C504.356 104.237 505.916 104.448 507.234 105.201C508.553 105.954 509.527 107.191 509.95 108.65C510.373 110.108 510.212 111.674 509.501 113.016C507.878 115.475 505.588 117.422 502.899 118.629C496.965 121.596 486.827 123.821 482.957 126.133C481.882 126.776 476.479 129.15 473.71 128.742C472.371 128.667 471.102 128.123 470.125 127.205C469.149 126.287 468.527 125.054 468.369 123.723C468.133 122.036 468.191 120.32 468.542 118.654C469.036 116.181 470.186 113.609 470.458 111.421L472.436 91.5778C473.277 79.9933 474.476 68.446 475.663 56.8863C477.419 39.5776 479.261 22.3801 481.053 5.10854C481.247 3.57235 482.043 2.17592 483.266 1.22647C483.871 0.756343 484.564 0.4101 485.303 0.207513C486.042 0.0049254 486.814 -0.0500408 487.575 0.0457503C488.336 0.141541 489.07 0.386217 489.736 0.765803C490.402 1.14539 490.987 1.65245 491.457 2.25805C491.927 2.86364 492.274 3.5559 492.476 4.2953C492.679 5.03471 492.734 5.80677 492.638 6.56742C490.091 23.7154 487.272 40.8015 484.985 57.9866C483.477 69.3856 482.265 80.8217 481.276 92.2825L479.854 112.385C479.679 113.84 479.39 115.279 478.989 116.688C482.982 114.586 490.116 112.262 495.593 109.678C497.163 108.886 498.461 106.599 499.351 107.217Z" fill="#6E0023"/></svg>