<svg width="511" height="462" viewBox="0 0 511 462" fill="none" xmlns="http://www.w3.org/2000/svg"><path fill-rule="evenodd" clip-rule="evenodd" d="M100.321 38.4941C98.1373 39.0833 95.7976 39.6206 93.5273 40.2272C91.8638 40.685 90.2361 41.2642 88.6573 41.9602C79.4547 46.2583 75.7112 50.175 74.7927 53.3119C73.8742 56.4488 75.226 59.655 78.3628 62.3932C81.9676 65.5301 88.0334 68.4417 92.2275 71.4746C93.4929 72.3233 94.4765 73.5301 95.0524 74.9408C95.4349 76.2732 95.2858 77.7021 94.6365 78.9268C92.6088 83.2942 86.7163 86.8297 82.5049 88.1122C80.4252 88.7014 78.3282 89.256 76.1791 89.7586C74.0301 90.2612 71.9505 90.6771 69.8361 91.0584C69.2956 91.1893 68.7861 91.4253 68.3368 91.7531C67.8875 92.0809 67.5071 92.4939 67.2175 92.9686C66.6324 93.9274 66.4523 95.0794 66.7166 96.171C66.9809 97.2627 67.668 98.2046 68.6267 98.7896C69.5855 99.3746 70.7374 99.5548 71.8291 99.2905C74.0128 98.6146 76.1965 97.8868 78.3802 97.0895C80.5639 96.2923 82.6782 95.4951 84.7579 94.6459C90.2518 92.4795 97.3575 86.9683 99.6451 81.0412C100.712 78.5682 100.811 75.7848 99.9224 73.2423C98.9903 70.896 97.3944 68.8723 95.3298 67.4192C90.6504 63.7277 83.0595 60.3656 80.8585 56.4141C80.3039 55.4263 80.8585 54.5251 82.1409 53.4332C84.9878 51.3852 88.1405 49.8001 91.4823 48.7366C92.7676 48.3024 94.0823 47.9607 95.4164 47.7141C97.6867 47.2462 99.9916 46.9515 102.158 46.5702C102.71 46.459 103.235 46.2386 103.7 45.9219C104.166 45.6053 104.564 45.1987 104.871 44.7262C105.177 44.2536 105.386 43.7246 105.486 43.1701C105.585 42.6156 105.572 42.0469 105.449 41.4974C105.325 40.9478 105.093 40.4284 104.766 39.9698C104.439 39.5112 104.024 39.1225 103.545 38.8266C103.065 38.5306 102.532 38.3335 101.975 38.2466C101.419 38.1598 100.85 38.185 100.304 38.3208L100.321 38.4941Z" fill="#6E0023"/><path fill-rule="evenodd" clip-rule="evenodd" d="M144.461 60.5562C141.356 69.6135 137.501 78.3961 132.936 86.8125C131.654 89.2303 129.932 91.3874 127.858 93.1728C126.912 93.9011 125.759 94.3079 124.565 94.334C122.198 94.4003 119.87 93.7213 117.91 92.393C114.34 89.9147 112.711 84.9927 112.711 78.7709C112.711 65.3569 119.903 45.0799 120.423 38.6675C120.458 38.0983 120.607 37.542 120.862 37.032C121.118 36.522 121.473 36.0689 121.908 35.7C122.343 35.331 122.848 35.0538 123.392 34.885C123.937 34.7162 124.511 34.6594 125.078 34.7179C125.645 34.7763 126.194 34.9489 126.693 35.2253C127.192 35.5016 127.63 35.8761 127.98 36.326C128.331 36.7759 128.587 37.292 128.732 37.8433C128.878 38.3946 128.911 38.9697 128.829 39.534C128.014 45.8771 119.678 65.5302 119.158 78.8749C118.967 84.0742 119.782 88.3029 124.479 88.5628C125.204 87.9876 125.866 87.337 126.454 86.6218C128.749 83.4482 130.728 80.0584 132.364 76.5006C136.088 68.7248 139.217 60.6775 141.723 52.4281L144.132 42.0296C144.251 40.7446 144.465 39.4702 144.773 38.2169C145.098 37.4324 145.722 36.8092 146.506 36.4838C147.089 36.216 147.745 36.1472 148.371 36.2881C148.997 36.429 149.56 36.7718 149.972 37.2636C150.765 38.1633 151.303 39.2581 151.532 40.4352C152.021 43.296 152.184 46.2031 152.017 49.1006C151.705 61.7521 148.69 82.6011 148.811 88.6495C148.811 89.771 148.366 90.8466 147.572 91.6397C146.779 92.4327 145.704 92.8782 144.582 92.8782C143.461 92.8782 142.385 92.4327 141.592 91.6397C140.799 90.8466 140.354 89.771 140.354 88.6495C140.44 84.0915 142.797 71.8559 144.461 60.5562Z" fill="#6E0023"/><path fill-rule="evenodd" clip-rule="evenodd" d="M202.729 32.463C190.84 37.1077 184.532 38.4075 180.199 42.4976C177.131 45.4265 174.844 49.6898 172.643 57.7487C171.603 60.8682 170.615 64.0744 169.593 67.2806C168.57 70.4868 167.53 73.7277 166.612 76.9859C165.314 81.4338 164.335 85.9686 163.683 90.5559C163.618 91.6774 164.002 92.7786 164.75 93.6171C165.497 94.4557 166.547 94.9629 167.669 95.0273C168.79 95.0916 169.892 94.7078 170.73 93.9603C171.569 93.2127 172.076 92.1627 172.14 91.0412C172.092 85.7123 172.55 80.3909 173.509 75.1488C174.099 71.9253 174.809 68.7191 175.641 65.5649C176.196 63.4159 176.837 61.3015 177.374 59.2044C179.558 52.7227 181.326 49.1179 184.029 46.9342C188.189 43.5721 194.168 43.4681 205.277 40.4872C205.824 40.3299 206.334 40.0637 206.775 39.7047C207.217 39.3456 207.582 38.9011 207.848 38.3977C208.114 37.8943 208.275 37.3424 208.322 36.7751C208.37 36.2078 208.302 35.6368 208.123 35.0963C207.945 34.5557 207.659 34.0568 207.283 33.6295C206.907 33.2021 206.448 32.8551 205.935 32.6092C205.421 32.3633 204.864 32.2236 204.295 32.1985C203.726 32.1733 203.158 32.2633 202.625 32.463H202.729Z" fill="#6E0023"/><path fill-rule="evenodd" clip-rule="evenodd" d="M195.798 55.4437C194.537 56.4869 193.205 57.4423 191.812 58.3033C190.422 59.1463 188.953 59.8543 187.428 60.4177C186.813 60.6321 186.181 60.7944 185.539 60.9029C184.892 61.0187 184.237 61.0824 183.58 61.0935C181.548 61.1067 179.517 61.0025 177.497 60.7816C176.929 60.8473 176.379 61.0277 175.883 61.312C175.386 61.5962 174.952 61.9782 174.607 62.4351C174.263 62.8919 174.014 63.414 173.877 63.9696C173.74 64.5253 173.717 65.103 173.81 65.6677C173.903 66.2325 174.109 66.7725 174.417 67.2551C174.724 67.7377 175.127 68.1529 175.599 68.4755C176.072 68.798 176.605 69.0213 177.167 69.1317C177.728 69.2421 178.307 69.2373 178.866 69.1177C180.599 68.4072 181.986 67.6966 183.58 67.038C184.617 66.5922 185.676 66.1988 186.752 65.8595C187.555 65.6089 188.371 65.4007 189.195 65.2356C190.045 65.045 190.929 64.889 191.726 64.7504C194.323 64.3352 196.897 63.7857 199.438 63.1039C200.43 62.6042 201.185 61.7344 201.541 60.6824C201.897 59.6305 201.824 58.4808 201.339 57.4816C200.855 56.4825 199.996 55.7142 198.95 55.3426C197.903 54.971 196.753 55.026 195.746 55.4957L195.798 55.4437Z" fill="#6E0023"/><path fill-rule="evenodd" clip-rule="evenodd" d="M244.771 29.8979C231.426 35.7384 223.818 40.5217 218.965 45.8423C216.392 48.685 214.338 51.9585 212.899 55.5129C211.974 57.7812 211.164 60.095 210.473 62.4452C209.554 65.4954 208.74 68.8575 207.613 72.6876C206.418 77.055 204.945 81.9423 203.073 87.6441C202.799 88.7335 202.97 89.8869 203.547 90.8505C204.124 91.8142 205.06 92.5092 206.149 92.7827C207.238 93.0562 208.392 92.8858 209.355 92.3088C210.319 91.7319 211.014 90.7958 211.288 89.7065C212.899 80.8678 213.645 73.8488 214.754 67.991C215.158 65.6544 215.685 63.3404 216.331 61.0587C216.925 58.8947 217.769 56.8068 218.844 54.8369C221.098 51.013 224.343 47.8692 228.237 45.7383C234.434 42.3657 240.992 39.7031 247.786 37.8008C248.78 37.3668 249.568 36.5678 249.99 35.569C250.411 34.5701 250.433 33.4476 250.05 32.4333C249.667 31.419 248.91 30.5904 247.934 30.1186C246.958 29.6467 245.838 29.5678 244.805 29.8979H244.771Z" fill="#6E0023"/><path fill-rule="evenodd" clip-rule="evenodd" d="M241.427 53.6931C239.885 54.9278 238.283 56.0846 236.626 57.1592C235.521 57.8615 234.362 58.4757 233.16 58.9963C232.564 59.245 231.95 59.4478 231.323 59.6029C230.703 59.76 230.071 59.8644 229.434 59.9148C227.475 60.0132 225.511 59.9669 223.559 59.7762C222.491 60.0101 221.554 60.6487 220.947 61.5579C220.339 62.4672 220.108 63.5765 220.301 64.6529C220.494 65.7293 221.096 66.6891 221.981 67.3309C222.867 67.9727 223.966 68.2466 225.049 68.095C226.782 67.3324 228.203 66.5872 229.763 65.842C230.803 65.3394 231.808 64.8715 232.865 64.4728C233.648 64.1713 234.447 63.911 235.257 63.6929C236.072 63.4503 236.869 63.2423 237.683 63.0517C240.11 62.4798 242.449 61.9599 245.084 61.3186C245.583 61.0751 246.03 60.7356 246.398 60.3194C246.767 59.9033 247.049 59.4186 247.23 58.8932C247.411 58.3677 247.487 57.8118 247.453 57.2571C247.42 56.7023 247.277 56.1597 247.033 55.6601C246.79 55.1606 246.45 54.7139 246.034 54.3455C245.618 53.9772 245.133 53.6944 244.608 53.5133C244.082 53.3323 243.526 53.2565 242.972 53.2903C242.417 53.3241 241.874 53.4669 241.375 53.7104L241.427 53.6931Z" fill="#6E0023"/><path fill-rule="evenodd" clip-rule="evenodd" d="M267.481 30.2447C266.51 36.0332 265.574 41.8563 264.413 47.6968C263.651 51.5442 262.836 55.409 261.883 59.2218C261.415 61.1282 260.895 63.0346 260.323 64.9063C259.751 66.778 259.145 68.6498 258.486 70.5042C256.493 76.1193 254.24 81.5265 251.987 86.9684C251.645 88.0371 251.741 89.198 252.254 90.1958C252.768 91.1936 253.657 91.9465 254.725 92.2889C255.794 92.6314 256.955 92.5353 257.953 92.0217C258.95 91.5082 259.703 90.6194 260.046 89.5507C261.103 84.906 262.039 80.2441 263.079 75.5474C263.755 72.4452 264.448 69.3603 265.228 66.2754C265.817 63.9704 266.475 61.6828 267.134 59.3431C267.793 57.0034 268.503 54.7851 269.214 52.5321C271.38 45.5998 273.616 38.9101 275.713 32.1337C275.841 31.5932 275.862 31.0326 275.774 30.484C275.686 29.9354 275.491 29.4096 275.2 28.9364C274.908 28.4633 274.527 28.0521 274.077 27.7265C273.626 27.4008 273.116 27.167 272.576 27.0385C272.035 26.9099 271.475 26.889 270.926 26.977C270.378 27.0651 269.852 27.2604 269.379 27.5516C268.906 27.8429 268.494 28.2246 268.169 28.6747C267.843 29.1249 267.609 29.6348 267.481 30.1753V30.2447Z" fill="#6E0023"/><path fill-rule="evenodd" clip-rule="evenodd" d="M318.637 30.5737C315.397 30.4351 312.52 30.0191 309.695 30.1751C307.303 30.2294 304.947 30.7597 302.762 31.7349C296.506 34.5078 289.071 44.6636 284.166 55.8593C282.578 59.4698 281.229 63.1808 280.128 66.9684C277.945 74.5939 277.494 81.5262 279.643 85.6856C280.933 88.6426 283.337 90.9717 286.333 92.1674C289.366 93.1683 292.65 93.101 295.639 91.9767C303.525 89.4984 311.948 81.5782 315.119 77.5922C315.445 77.137 315.677 76.6221 315.804 76.077C315.93 75.532 315.948 74.9673 315.856 74.4153C315.765 73.8633 315.565 73.3348 315.269 72.8599C314.973 72.3851 314.587 71.9732 314.131 71.6477C313.676 71.3223 313.161 71.0896 312.616 70.9631C312.071 70.8366 311.507 70.8188 310.955 70.9105C310.403 71.0022 309.874 71.2018 309.399 71.4978C308.924 71.7938 308.512 72.1803 308.187 72.6355C305.882 76.1017 299.695 83.4326 293.404 86.0322C291.797 86.8386 289.964 87.0769 288.205 86.7082C286.522 86.0932 285.144 84.851 284.357 83.242C281.688 78.0428 284.478 67.7309 289.123 58.2336C293.646 49.0137 300.093 40.5563 305.518 38.5459C306.882 38.0794 308.325 37.885 309.764 37.974C312.346 37.974 314.963 38.6846 317.91 39.0485C319.029 39.1427 320.139 38.7884 320.998 38.0637C321.856 37.3389 322.391 36.3029 322.485 35.1837C322.579 34.0645 322.225 32.9537 321.5 32.0956C320.775 31.2376 319.739 30.7026 318.62 30.6084L318.637 30.5737Z" fill="#6E0023"/><path fill-rule="evenodd" clip-rule="evenodd" d="M340.564 30.4005C338.831 37.5928 337.202 44.7504 335.365 51.8907C334.776 54.2651 334.152 56.6394 333.476 58.9964C332.8 61.3534 332.107 63.6931 331.327 66.0154C330.269 69.1003 329.108 72.1332 327.861 75.1661C326.127 79.7241 324.048 84.1434 322.037 88.6321C321.667 89.6916 321.733 90.8546 322.221 91.8654C322.708 92.8762 323.578 93.652 324.637 94.022C325.696 94.392 326.86 94.326 327.87 93.8384C328.881 93.3509 329.657 92.4818 330.027 91.4223C331.621 85.4259 332.99 79.4468 334.533 73.4676C335.03 71.4804 335.567 69.5046 336.145 67.5405C336.716 65.5648 337.323 63.6237 337.964 61.6827C339.264 57.8006 340.633 53.9531 342.037 50.1057C344.134 44.3518 346.352 38.6673 348.571 32.9135C348.904 31.8426 348.798 30.683 348.277 29.6901C347.755 28.6972 346.86 27.9522 345.789 27.619C344.718 27.2857 343.559 27.3915 342.566 27.9132C341.573 28.4348 340.828 29.3296 340.495 30.4005H340.564Z" fill="#6E0023"/><path fill-rule="evenodd" clip-rule="evenodd" d="M359.414 58.6672C359.275 58.3899 359.154 58.0953 359.015 57.8007C356.71 52.6014 359.154 42.0123 364.214 34.4907C368.114 28.7542 373.59 25.0801 379.084 25.4094C380.941 25.6019 382.724 26.2379 384.283 27.2638C386.737 29.0697 389.017 31.1004 391.094 33.3296C391.507 33.7017 391.843 34.1515 392.082 34.6534C392.322 35.1552 392.46 35.6993 392.489 36.2545C392.518 36.8097 392.437 37.3652 392.251 37.8893C392.065 38.4133 391.778 38.8956 391.406 39.3087C391.034 39.7218 390.584 40.0575 390.082 40.2967C389.581 40.536 389.036 40.674 388.481 40.703C387.926 40.732 387.371 40.6513 386.847 40.4656C386.322 40.2799 385.84 39.9928 385.427 39.6207C384.63 38.8408 383.157 36.8304 381.32 35.08C380.571 34.119 379.541 33.4161 378.373 33.0696C377.376 33.0209 376.379 33.179 375.446 33.5339C374.512 33.8888 373.662 34.4329 372.949 35.132C370.956 36.8393 369.269 38.8728 367.958 41.1458C365.185 45.7558 363.348 51.1457 364.006 54.6465C366.699 52.9018 369.717 51.7225 372.88 51.1803C374.026 50.9746 375.2 50.9746 376.346 51.1803C377.602 51.3894 378.79 51.8943 379.812 52.6534C382.585 54.7504 382.394 57.8526 379.639 60.6082C377.473 62.6212 374.77 63.9636 371.857 64.473C370.349 64.8079 368.789 64.8394 367.269 64.5657C365.748 64.292 364.298 63.7185 363.001 62.8786C360.621 66.3299 359.523 70.5053 359.899 74.6809C360.159 77.9391 361.32 80.8333 363.469 81.8905C364.046 82.0801 364.66 82.1334 365.261 82.0462C365.862 81.959 366.435 81.7337 366.935 81.3879C369.469 79.8488 371.634 77.7722 373.278 75.3048C373.631 74.8758 374.065 74.5205 374.555 74.2591C375.045 73.9978 375.582 73.8355 376.135 73.7816C376.687 73.7277 377.245 73.7832 377.777 73.9449C378.308 74.1066 378.802 74.3715 379.231 74.7242C379.66 75.077 380.016 75.5108 380.277 76.0009C380.538 76.491 380.701 77.0277 380.755 77.5805C380.809 78.1333 380.753 78.6913 380.591 79.2227C380.43 79.754 380.165 80.2483 379.812 80.6773C372.429 88.9788 366.069 90.4173 361.736 88.8575C360.172 88.2585 358.755 87.3291 357.582 86.1328C356.41 84.9364 355.51 83.5013 354.942 81.9252C353.611 77.993 353.323 73.7826 354.107 69.7058C354.891 65.6291 356.719 61.8255 359.414 58.6672ZM376.294 56.4142C376.035 56.2914 375.761 56.204 375.479 56.1543C374.935 56.0503 374.377 56.0503 373.833 56.1543C371.447 56.6079 369.174 57.5265 367.143 58.8579C367.778 59.1442 368.459 59.3144 369.154 59.3604C371.443 59.4695 373.7 58.7906 375.549 57.4367C375.846 57.1344 376.097 56.7898 376.294 56.4142V56.4142Z" fill="#6E0023"/><path fill-rule="evenodd" clip-rule="evenodd" d="M421.652 81.3705C422.23 80.11 422.672 78.7911 422.969 77.4364C424.113 72.7051 424.39 67.1765 425.205 64.0743C427.354 55.2703 429.849 46.4316 432.692 37.6969C435.483 28.9081 438.776 20.2864 442.553 11.874C442.784 11.3509 443.12 10.8803 443.538 10.4905C443.957 10.1008 444.45 9.79999 444.989 9.60642C445.527 9.41285 446.099 9.33049 446.67 9.36435C447.241 9.3982 447.799 9.54756 448.311 9.80338C448.822 10.0592 449.277 10.4161 449.647 10.8527C450.016 11.2892 450.293 11.7962 450.462 12.3429C450.63 12.8897 450.685 13.4648 450.625 14.0336C450.564 14.6024 450.389 15.1531 450.109 15.6521C445.827 23.4949 442.042 31.5985 438.775 39.9152C435.482 48.338 432.709 56.9341 430.109 65.4608C429.139 69.0656 428.81 75.8593 427.163 81.0585C426.463 83.8013 424.879 86.2373 422.657 87.9908C421.253 88.9787 419.191 88.9267 417.683 86.1538C415.95 82.9302 414.217 72.8264 413.87 71.076C411.44 61.1054 410.166 50.8879 410.075 40.6258C409.94 33.5369 410.899 26.4697 412.917 19.6729C413.318 18.6531 414.098 17.8285 415.094 17.3728C416.09 16.9171 417.225 16.8657 418.258 17.2296C419.291 17.5935 420.143 18.3443 420.634 19.3237C421.125 20.3032 421.216 21.4348 420.889 22.4804C418.3 29.926 417.044 37.77 417.181 45.6517C417.179 53.795 417.957 61.9197 419.503 69.9148C419.832 71.0933 420.595 77.367 421.652 81.3705Z" fill="#6E0023"/><path fill-rule="evenodd" clip-rule="evenodd" d="M454.893 82.8956C455.551 82.6703 456.868 82.8956 457.804 82.6183C459.667 81.9925 461.421 81.0804 463.004 79.9147C465.388 77.0971 467.355 73.9511 468.844 70.5734C471.214 65.2725 473.172 59.7972 474.702 54.1958C475.058 53.1317 475.822 52.2527 476.827 51.7522C477.831 51.2517 478.993 51.1706 480.057 51.5268C481.121 51.883 482 52.6474 482.501 53.6517C483.001 54.656 483.082 55.818 482.726 56.882C480.565 62.6925 477.987 68.3396 475.014 73.7796C472.961 77.5836 470.389 81.0834 467.371 84.178C463.842 86.6081 459.795 88.1807 455.551 88.7707C454.713 88.8658 453.864 88.7855 453.059 88.5349C452.253 88.2842 451.508 87.8688 450.872 87.3149C450.398 86.8338 450.033 86.2572 449.8 85.6237C449.567 84.9901 449.471 84.3141 449.52 83.6408C449.697 79.3043 450.242 74.9907 451.149 70.7467C452.019 66.5475 453.118 62.3993 454.442 58.3205C456.834 50.8856 459.832 43.5546 462.83 36.1891C467.215 25.4093 471.496 14.6296 473.471 3.57253C473.56 3.00605 473.764 2.46358 474.069 1.97812C474.374 1.49266 474.775 1.07435 475.247 0.748603C475.718 0.422857 476.252 0.196476 476.814 0.0832538C477.376 -0.0299688 477.955 -0.027685 478.517 0.0899707C479.078 0.207626 479.609 0.438183 480.078 0.767643C480.548 1.0971 480.945 1.51857 481.247 2.00642C481.548 2.49427 481.747 3.03832 481.831 3.60548C481.916 4.17263 481.884 4.75109 481.738 5.30561C477.215 24.0229 466.002 41.527 459.416 59.9496C458.014 63.7847 456.896 67.7179 456.071 71.7172C455.346 75.4008 454.952 79.1418 454.893 82.8956Z" fill="#6E0023"/><path fill-rule="evenodd" clip-rule="evenodd" d="M60.1856 153.137C59.8943 154.416 59.5297 155.678 59.0937 156.915C57.586 160.676 54.7957 171.941 49.7697 176.846C48.3394 178.488 46.3693 179.565 44.2148 179.883C42.0602 180.201 39.863 179.738 38.0195 178.579C37.3317 178.162 36.7327 177.614 36.2569 176.966C35.7811 176.318 35.4377 175.582 35.2465 174.801C34.4771 171.26 34.3305 167.612 34.8132 164.021C36.1477 148.059 43.184 121.093 44.3625 116.379C44.5082 115.843 44.758 115.341 45.0977 114.901C45.4374 114.462 45.8603 114.093 46.3423 113.817C46.8243 113.541 47.3558 113.363 47.9068 113.293C48.4577 113.222 49.0171 113.261 49.5531 113.406C50.0891 113.552 50.5912 113.802 51.0306 114.141C51.4701 114.481 51.8382 114.904 52.1142 115.386C52.3902 115.868 52.5686 116.4 52.6391 116.951C52.7096 117.502 52.671 118.061 52.5254 118.597C51.5029 122.063 46.4595 138.649 43.3747 153.155C41.8322 160.399 40.7404 167.123 41.0003 171.317C41.0003 172.201 41.7456 173.05 41.4336 173.414C43.8946 174.558 45.749 173.016 47.2914 170.867C50.8443 165.893 52.8893 157.851 54.2238 154.94C55.0037 153.207 55.7835 149.342 56.6674 147.106C57.0806 145.802 57.9397 144.686 59.0937 143.952C59.4678 143.757 59.8785 143.643 60.2994 143.617C60.7203 143.591 61.1419 143.653 61.5371 143.8C61.9324 143.947 62.2924 144.176 62.594 144.47C62.8955 144.765 63.1318 145.12 63.2878 145.512C64.9259 148.67 65.6407 152.226 65.3501 155.771C65.2115 160.225 64.293 165.061 64.5356 169.289C64.4816 170.563 64.7153 171.831 65.2194 173.002C65.7235 174.172 66.485 175.213 67.4472 176.049C68.2455 176.724 69.2369 177.13 70.2798 177.207C71.3226 177.285 72.3633 177.031 73.253 176.482C76.1126 174.905 78.8336 171.473 81.4332 167.158C90.9651 151.317 98.0881 123.536 99.0067 117.384C99.1997 116.278 99.8239 115.295 100.742 114.65C101.66 114.005 102.797 113.751 103.903 113.944C105.008 114.137 105.991 114.761 106.637 115.679C107.282 116.597 107.536 117.734 107.343 118.84C106.06 125.235 97.1176 154.038 86.4245 170.312C79.4921 180.936 71.3986 185.91 64.2063 180.173C62.0423 178.417 60.549 175.969 59.9776 173.241C59.0071 169.168 59.631 164.229 59.9776 159.376C60.2035 157.305 60.273 155.219 60.1856 153.137V153.137Z" fill="#6E0023"/><path fill-rule="evenodd" clip-rule="evenodd" d="M126.299 125.893L133.561 120.486C136.576 118.58 139.418 118.216 141.637 119.29C142.952 119.978 144.063 121 144.857 122.253C145.651 123.507 146.1 124.948 146.16 126.431C146.294 130.886 145.491 135.32 143.803 139.446C142.781 142.074 141.624 144.649 140.337 147.158C138.309 151.231 136.108 155.148 134.427 158.891C133.535 160.835 133.125 162.965 133.23 165.1C133.336 167.236 133.954 169.315 135.034 171.161C137.217 174.524 141.394 176.361 148.118 174.038C148.644 173.829 149.122 173.517 149.525 173.12C149.927 172.723 150.246 172.25 150.463 171.727C150.679 171.205 150.789 170.645 150.785 170.079C150.781 169.514 150.663 168.955 150.44 168.436C150.216 167.917 149.89 167.447 149.482 167.056C149.074 166.665 148.592 166.359 148.063 166.158C147.535 165.956 146.972 165.863 146.407 165.883C145.842 165.903 145.286 166.036 144.774 166.274C142.919 167.21 141.654 167.73 140.909 166.829C140.36 166.016 140.015 165.083 139.903 164.108C139.792 163.134 139.917 162.147 140.268 161.231C141.827 156.829 143.924 152.115 145.969 147.366C147.356 144.143 148.708 140.902 149.73 137.696C151.021 133.995 151.695 130.107 151.723 126.188C151.739 123.65 151.094 121.153 149.851 118.94C148.608 116.728 146.81 114.877 144.635 113.571C140.753 111.301 135.588 110.989 129.817 113.918L121.55 118.874C120.62 119.504 119.977 120.478 119.764 121.581C119.551 122.685 119.785 123.827 120.415 124.758C121.045 125.689 122.019 126.331 123.122 126.544C124.225 126.757 125.368 126.523 126.299 125.893V125.893Z" fill="#6E0023"/><path fill-rule="evenodd" clip-rule="evenodd" d="M148.536 120.451C138.066 127.504 128.366 135.636 119.594 144.715C116.653 147.753 113.876 150.947 111.275 154.281C108.508 157.677 106.254 161.461 104.585 165.512C102.852 169.654 103.164 172.444 104.065 174.42C104.67 175.52 105.55 176.443 106.62 177.1C107.689 177.756 108.912 178.122 110.166 178.163C117.982 179.082 133.32 171.976 137.895 168.025C138.702 167.243 139.165 166.173 139.183 165.05C139.201 163.927 138.772 162.843 137.99 162.037C137.209 161.23 136.139 160.767 135.016 160.749C133.893 160.731 132.809 161.16 132.003 161.941C126.753 166.628 120.507 170.06 113.736 171.976C112.581 172.3 111.379 172.417 110.183 172.323C109.798 172.335 109.42 172.219 109.109 171.993C108.346 171.161 108.658 169.671 109.473 167.297C110.905 163.72 112.893 160.391 115.365 157.435C117.899 154.349 120.656 151.453 123.614 148.77C132.556 140.659 142.395 133.594 152.938 127.713C153.426 127.434 153.853 127.061 154.195 126.615C154.537 126.169 154.787 125.659 154.93 125.116C155.072 124.572 155.105 124.006 155.027 123.449C154.948 122.893 154.759 122.358 154.471 121.875C154.183 121.392 153.802 120.972 153.35 120.638C152.897 120.305 152.383 120.065 151.837 119.932C151.291 119.8 150.724 119.777 150.169 119.867C149.614 119.956 149.083 120.154 148.605 120.451H148.536Z" fill="#6E0023"/><path fill-rule="evenodd" clip-rule="evenodd" d="M215.432 108.563C211.071 109.992 206.626 111.15 202.122 112.029C199.089 112.618 196.022 113.121 192.919 113.467C191.36 113.658 189.817 113.779 188.258 113.866C186.698 113.952 185.121 113.987 183.543 114.004C178.708 114.004 173.96 113.831 169.246 113.9C168.694 113.965 168.16 114.138 167.675 114.409C167.19 114.681 166.763 115.045 166.419 115.481C165.723 116.361 165.406 117.482 165.537 118.597C165.668 119.712 166.236 120.729 167.117 121.424C167.998 122.12 169.119 122.437 170.233 122.306C173.856 121.474 177.46 120.573 181.221 120.036C183.682 119.602 186.16 119.221 188.656 118.944C190.545 118.736 192.434 118.614 194.306 118.493C196.178 118.372 198.101 118.285 200.008 118.198C205.805 118.025 211.589 117.556 217.339 116.795C217.899 116.689 218.432 116.472 218.907 116.155C219.381 115.839 219.786 115.429 220.098 114.952C220.41 114.474 220.622 113.939 220.722 113.377C220.822 112.816 220.807 112.24 220.678 111.685C220.549 111.129 220.309 110.605 219.973 110.145C219.637 109.684 219.211 109.296 218.721 109.005C218.231 108.713 217.687 108.524 217.122 108.448C216.557 108.372 215.982 108.411 215.432 108.563V108.563Z" fill="#6E0023"/><path fill-rule="evenodd" clip-rule="evenodd" d="M189.729 104.715C185.95 115.963 181.306 128.06 177.597 140.157C176.089 145.079 174.755 149.983 173.663 154.853C172.918 158.233 172.242 161.578 171.808 164.923C171.251 167.553 171.618 170.296 172.848 172.687C173.462 173.699 174.339 174.526 175.386 175.078C176.433 175.631 177.611 175.888 178.793 175.824C185.448 175.98 197.163 167.383 201.08 161.37C201.643 160.398 201.797 159.242 201.508 158.156C201.219 157.07 200.51 156.144 199.538 155.581C198.566 155.018 197.41 154.864 196.324 155.154C195.239 155.443 194.312 156.152 193.749 157.124C190.737 162.322 186.282 166.536 180.924 169.255C180.209 169.601 179.442 169.829 178.654 169.931C178.307 169.931 177.961 170.052 177.736 169.827C177.025 169.117 176.904 167.73 177.077 165.598C177.379 162.381 177.882 159.186 178.585 156.032C179.698 151.27 181.122 146.587 182.848 142.011C187.181 130.192 193.004 118.649 197.614 107.783C197.844 107.257 197.964 106.69 197.968 106.117C197.971 105.543 197.858 104.975 197.635 104.447C197.413 103.918 197.085 103.44 196.671 103.043C196.258 102.645 195.768 102.336 195.231 102.133C194.695 101.931 194.123 101.84 193.55 101.865C192.977 101.891 192.415 102.033 191.898 102.283C191.382 102.532 190.922 102.884 190.546 103.317C190.17 103.751 189.886 104.256 189.711 104.802L189.729 104.715Z" fill="#6E0023"/><path fill-rule="evenodd" clip-rule="evenodd" d="M227.683 140.278C227.496 139.924 227.345 139.553 227.233 139.169C223.766 126.812 234.39 109.863 246.383 105.391C250.363 103.813 254.795 103.813 258.775 105.391C263.177 107.124 267.336 111.162 270.49 118.424C270.7 118.938 270.806 119.489 270.802 120.044C270.799 120.6 270.686 121.149 270.471 121.66C270.255 122.172 269.941 122.636 269.545 123.027C269.15 123.417 268.682 123.726 268.168 123.935C267.654 124.144 267.103 124.251 266.548 124.247C265.992 124.244 265.443 124.131 264.931 123.915C264.42 123.7 263.955 123.385 263.565 122.99C263.175 122.595 262.866 122.127 262.657 121.613C260.733 116.552 258.307 113.519 255.343 112.358C251.738 110.92 247.752 112.167 244.199 114.611C237.839 118.944 232.57 127.037 232.501 134.316C234.068 132.688 235.812 131.241 237.7 130.001C241.929 127.263 246.366 126.205 250.525 127.592C254.373 128.857 255.43 132.098 254.737 135.824C253.875 139.705 251.769 143.197 248.74 145.772C246.106 147.505 241.357 147.782 236.99 146.604C235.076 146.096 233.252 145.296 231.583 144.23C230.721 145.667 229.957 147.161 229.295 148.701C225.344 157.747 224.529 168.111 234.494 168.839C236.524 169.028 238.571 168.941 240.577 168.579C242.441 168.202 244.209 167.453 245.777 166.378C247.014 165.574 248.174 164.657 249.243 163.64C250.268 162.659 251.181 161.566 251.964 160.382C252.625 159.463 253.626 158.844 254.744 158.662C255.862 158.48 257.006 158.749 257.925 159.411C258.845 160.073 259.463 161.073 259.645 162.191C259.827 163.309 259.558 164.454 258.896 165.373C257.668 166.967 256.274 168.425 254.737 169.723C253.233 170.965 251.627 172.079 249.936 173.051C247.489 174.507 244.781 175.473 241.964 175.893C239.307 176.256 236.614 176.256 233.957 175.893C231.795 175.763 229.691 175.148 227.8 174.091C225.909 173.035 224.282 171.566 223.038 169.792C220.196 165.477 219.936 159.203 221.86 152.67C223.158 148.267 225.122 144.088 227.683 140.278V140.278ZM234.754 139.585C235.905 140.342 237.16 140.926 238.48 141.318C241.167 142.132 244.113 142.514 245.777 141.422C247.442 140.022 248.684 138.185 249.364 136.119C249.901 134.611 250.439 132.964 248.913 132.445C245.863 131.422 242.605 132.635 239.572 134.923C237.782 136.275 236.164 137.841 234.754 139.585V139.585Z" fill="#6E0023"/><path fill-rule="evenodd" clip-rule="evenodd" d="M287.755 106.483C285.588 113.415 283.578 121.734 281.256 130.365C280.562 132.964 279.817 135.564 279.037 138.216C278.257 140.867 277.408 143.415 276.49 145.928C275.207 149.394 273.803 152.704 272.33 155.876C270.138 160.662 267.534 165.249 264.549 169.584C263.976 170.55 263.811 171.703 264.089 172.79C264.367 173.877 265.065 174.809 266.03 175.382C266.996 175.954 268.149 176.119 269.236 175.841C270.323 175.563 271.255 174.865 271.828 173.9C274.352 168.527 276.484 162.978 278.205 157.297C279.366 153.831 280.51 150.035 281.671 146.275C282.451 143.866 283.301 141.439 284.15 139.03C285.415 135.391 286.732 131.769 288.049 128.25C290.579 121.318 293.248 114.958 295.623 109.464C296.018 108.414 295.98 107.249 295.517 106.227C295.054 105.205 294.203 104.409 293.153 104.013C292.103 103.618 290.939 103.656 289.916 104.119C288.894 104.583 288.098 105.433 287.703 106.483H287.755Z" fill="#6E0023"/><path fill-rule="evenodd" clip-rule="evenodd" d="M280.839 150.157C286.316 149.135 291.632 147.387 296.645 144.957C301.688 142.611 306.313 139.455 310.336 135.616C316.021 130.243 318.569 124.715 319.192 119.914C319.544 117.711 319.406 115.457 318.789 113.312C318.172 111.168 317.091 109.186 315.622 107.505C313.255 104.923 310.025 103.296 306.541 102.93C300.805 102.185 293.647 104.663 286.697 112.115C286.314 112.54 286.021 113.038 285.836 113.58C285.651 114.121 285.577 114.695 285.62 115.265C285.663 115.836 285.822 116.392 286.086 116.899C286.35 117.407 286.714 117.856 287.156 118.218C287.599 118.581 288.111 118.85 288.66 119.01C289.21 119.169 289.786 119.215 290.354 119.145C290.922 119.075 291.469 118.891 291.964 118.603C292.459 118.315 292.889 117.93 293.231 117.471C295.341 114.174 298.347 111.547 301.896 109.897C303.479 109.157 305.243 108.894 306.973 109.141C308.702 109.387 310.323 110.132 311.636 111.284C312.659 112.321 313.422 113.586 313.865 114.974C314.308 116.362 314.417 117.835 314.184 119.273C313.699 123.103 311.186 127.315 306.489 131.405C302.706 134.483 298.436 136.908 293.855 138.58C289.303 140.28 284.538 141.347 279.695 141.751C278.583 141.898 277.575 142.481 276.892 143.372C276.21 144.262 275.909 145.387 276.056 146.5C276.203 147.612 276.786 148.62 277.677 149.303C278.567 149.985 279.692 150.286 280.805 150.139L280.839 150.157Z" fill="#6E0023"/><path fill-rule="evenodd" clip-rule="evenodd" d="M311.378 176.291C310.528 171.75 309.246 167.088 307.911 162.27C307.478 160.763 307.045 159.238 306.646 157.712C306.248 156.187 305.866 154.662 305.537 153.12C305.121 151.057 304.757 148.995 304.428 146.915C303.908 143.692 303.509 140.59 303.024 137.522C302.705 136.447 301.971 135.542 300.985 135.007C299.998 134.473 298.84 134.352 297.764 134.671C296.689 134.991 295.784 135.724 295.249 136.711C294.715 137.697 294.594 138.855 294.913 139.931C296.421 143.397 298.033 146.863 299.419 150.676C299.853 151.872 300.251 153.102 300.598 154.333C300.944 155.563 301.239 156.829 301.482 158.076C301.984 160.607 302.314 163.154 302.574 165.685C302.938 169.463 303.083 173.259 303.007 177.054C303.057 177.606 303.215 178.142 303.473 178.633C303.73 179.124 304.082 179.559 304.507 179.914C304.933 180.269 305.424 180.536 305.954 180.701C306.483 180.866 307.039 180.925 307.591 180.875C308.143 180.825 308.679 180.667 309.17 180.409C309.661 180.152 310.096 179.8 310.451 179.375C310.806 178.949 311.073 178.458 311.238 177.928C311.403 177.399 311.462 176.843 311.412 176.291H311.378Z" fill="#6E0023"/><path fill-rule="evenodd" clip-rule="evenodd" d="M397.976 127.055L399.172 125.685C402.066 122.306 407.3 115.2 413.037 111.006C415.715 108.85 418.984 107.557 422.413 107.297C424.943 107.297 426.867 108.926 427.733 112.202C428.329 115.803 428.526 119.459 428.322 123.103C428.322 124.143 428.444 125.46 428.478 125.911C428.86 126.465 429.622 126.483 430.367 126.535C431.946 126.585 433.524 126.398 435.047 125.98C438.649 124.969 442.167 123.677 445.567 122.115C446.092 121.886 446.659 121.765 447.232 121.762C447.806 121.758 448.374 121.871 448.903 122.094C449.431 122.317 449.909 122.645 450.307 123.058C450.704 123.471 451.014 123.961 451.216 124.498C451.419 125.035 451.51 125.607 451.484 126.18C451.458 126.753 451.316 127.314 451.067 127.831C450.817 128.347 450.465 128.807 450.032 129.183C449.599 129.559 449.094 129.843 448.548 130.018C445.48 131.093 437.179 134.299 431.113 134.074C426.849 133.918 423.47 132.34 421.945 128.874C421.608 128.089 421.414 127.25 421.373 126.396C421.373 125.01 421.373 122.93 421.546 120.781C421.683 118.964 421.718 117.142 421.65 115.322C421.614 114.774 421.539 114.229 421.425 113.692C418.826 114.303 416.435 115.588 414.492 117.419C410.449 121.068 406.689 125.019 403.245 129.238L398.15 134.559C397.734 135.061 397.196 136.292 396.763 136.951C396.4 137.565 395.887 138.078 395.273 138.441C394.938 138.625 394.567 138.731 394.186 138.752C393.805 138.773 393.424 138.708 393.072 138.562C392.63 138.406 392.238 138.136 391.934 137.78C391.629 137.425 391.424 136.995 391.339 136.535C390.959 134.729 390.959 132.864 391.339 131.058C392.242 127.603 393.43 124.23 394.891 120.971C392.402 124.826 389.718 128.551 386.85 132.133C383.644 135.876 380.143 138.337 377.006 138.528C371.807 138.822 369.346 136.795 368.029 134.282C366.296 131.041 367.249 125.824 367.751 122.046C367.751 121.873 367.751 121.231 367.855 120.313C366.599 121.471 365.402 122.692 364.268 123.97C361.391 127.37 358.325 130.604 355.082 133.658C353.237 135.277 351.221 136.689 349.069 137.869C348.574 138.154 348.026 138.336 347.459 138.403C346.891 138.471 346.316 138.422 345.768 138.262C345.22 138.101 344.71 137.83 344.269 137.467C343.828 137.103 343.466 136.654 343.203 136.147C342.941 135.64 342.784 135.084 342.742 134.515C342.7 133.945 342.774 133.372 342.959 132.832C343.145 132.292 343.438 131.794 343.82 131.37C344.203 130.946 344.668 130.604 345.187 130.365C352.934 126.587 357.561 119.03 363.852 114.091C365.767 112.542 367.876 111.248 370.126 110.244C370.643 110.009 371.21 109.901 371.777 109.93C372.345 109.96 372.897 110.125 373.388 110.412C373.879 110.699 374.293 111.099 374.597 111.579C374.901 112.06 375.085 112.606 375.134 113.173C375.162 113.6 375.162 114.028 375.134 114.455C375.03 116.743 374.493 122.41 374.389 122.999C373.69 125.467 373.375 128.027 373.453 130.59C373.45 131.034 373.618 131.462 373.921 131.786C374.761 132.318 375.762 132.533 376.746 132.392C377.688 132.278 378.575 131.886 379.294 131.266C380.933 129.983 382.421 128.517 383.73 126.899C387.734 122.081 391.512 115.945 394.215 112.93C394.756 112.188 395.442 111.565 396.232 111.097C397.021 110.629 397.898 110.327 398.808 110.209C399.354 110.222 399.885 110.393 400.337 110.7C400.789 111.008 401.143 111.439 401.356 111.942C401.658 112.866 401.821 113.83 401.841 114.802C401.685 118.406 399.588 122.791 397.976 127.055Z" fill="#6E0023"/><path fill-rule="evenodd" clip-rule="evenodd" d="M355.395 147.47C354.75 150.81 353.888 154.104 352.812 157.331C352.136 159.636 351.443 162.063 350.819 164.454C350.196 166.846 349.797 168.683 349.433 170.624C348.934 172.929 348.817 175.3 349.086 177.643C349.392 179.624 350.386 181.434 351.894 182.755C353.991 184.679 357.578 185.546 363.505 184.783C364.06 184.663 364.584 184.432 365.047 184.105C365.51 183.778 365.903 183.362 366.202 182.88C366.5 182.398 366.699 181.861 366.787 181.301C366.874 180.741 366.847 180.169 366.709 179.619C366.571 179.069 366.323 178.553 365.981 178.101C365.64 177.648 365.21 177.269 364.719 176.986C364.228 176.704 363.684 176.522 363.122 176.453C362.559 176.384 361.988 176.429 361.443 176.586C360.045 177.289 358.529 177.73 356.972 177.886C356.279 177.886 355.672 177.885 355.239 177.539C354.771 176.903 354.438 176.179 354.26 175.41C354.081 174.641 354.06 173.844 354.199 173.068C354.462 170.689 355.045 168.357 355.932 166.135C358.48 159.203 362.674 152.479 363.644 149.359C363.812 148.288 363.563 147.193 362.947 146.301C362.331 145.408 361.396 144.787 360.334 144.564C359.273 144.342 358.167 144.535 357.244 145.105C356.322 145.675 355.654 146.577 355.377 147.626L355.395 147.47Z" fill="#6E0023"/><path fill-rule="evenodd" clip-rule="evenodd" d="M377.908 155.078C373.662 156.482 369.468 157.834 365.17 158.978C362.293 159.758 359.416 160.468 356.505 161.075C355.032 161.37 353.576 161.629 352.103 161.837C350.63 162.045 349.157 162.219 347.666 162.357C343.16 162.756 338.723 162.929 334.165 163.276C333.062 163.478 332.085 164.11 331.448 165.033C330.811 165.956 330.566 167.095 330.769 168.198C330.971 169.301 331.603 170.279 332.526 170.916C333.449 171.553 334.587 171.797 335.69 171.595C339.157 170.538 342.519 169.463 346.002 168.544C348.325 167.921 350.63 167.349 352.935 166.811C354.668 166.447 356.401 166.17 358.134 165.893C359.867 165.616 361.6 165.408 363.489 165.2C368.879 164.576 374.252 164.038 379.676 163.259C380.23 163.146 380.756 162.923 381.223 162.603C381.689 162.284 382.087 161.874 382.393 161.398C382.698 160.922 382.905 160.389 383 159.832C383.096 159.274 383.079 158.703 382.951 158.153C382.822 157.602 382.584 157.082 382.251 156.625C381.918 156.168 381.497 155.782 381.012 155.491C380.528 155.199 379.989 155.008 379.429 154.928C378.869 154.848 378.299 154.882 377.752 155.026L377.908 155.078Z" fill="#6E0023"/><path fill-rule="evenodd" clip-rule="evenodd" d="M409.972 166.014C407.424 165.823 405.033 167.539 402.797 169.602C397.754 174.212 393.854 181.213 392.641 182.842C392.318 183.313 391.9 183.711 391.413 184.009C390.926 184.308 390.382 184.501 389.816 184.575C389.302 184.628 388.783 184.569 388.293 184.404C387.803 184.239 387.354 183.971 386.977 183.618C386.599 183.265 386.302 182.835 386.104 182.358C385.906 181.88 385.813 181.366 385.83 180.849C385.997 179.615 386.311 178.404 386.766 177.244L389.66 170.312L393.317 161.092C394.669 157.73 395.917 154.558 396.991 151.318C397.684 149.203 398.291 147.054 398.828 144.784C399.131 143.729 399.831 142.833 400.783 142.285C401.734 141.737 402.861 141.58 403.925 141.848C404.989 142.116 405.908 142.787 406.487 143.72C407.065 144.652 407.259 145.774 407.026 146.846C406.35 149.359 405.587 151.716 404.738 154.021C403.664 156.881 402.485 159.671 401.272 162.583C404.244 160.342 407.983 159.369 411.67 159.879C412.53 160.03 413.338 160.395 414.019 160.94C414.701 161.485 415.234 162.193 415.57 162.998C416.182 164.525 416.499 166.154 416.506 167.799C416.592 170.399 416.298 173.605 416.384 176.465C416.377 177.587 416.517 178.706 416.8 179.792C416.974 180.347 417.112 180.884 417.597 181.075C422.552 182.761 427.963 182.495 432.727 180.329C436.494 178.792 440.066 176.814 443.368 174.437C443.432 173.657 443.542 172.881 443.698 172.114C444.815 167.411 446.886 162.988 449.781 159.116C453.75 153.917 458.949 151.092 463.489 153.293C464.028 153.505 464.519 153.824 464.932 154.231C465.344 154.638 465.671 155.123 465.891 155.659C466.111 156.195 466.22 156.77 466.213 157.349C466.205 157.928 466.081 158.5 465.846 159.03C464.668 162.895 458.03 168.839 456.973 169.81C454.789 171.837 452.138 174.177 449.192 176.465C449.232 176.673 449.296 176.877 449.382 177.071C450.318 179.099 452.432 179.983 455.049 180.399C459.549 180.879 464.097 180.586 468.498 179.532C482.467 176.777 498.376 169.879 502.744 168.18C503.271 167.961 503.838 167.85 504.409 167.855C504.981 167.86 505.545 167.981 506.069 168.21C506.592 168.44 507.064 168.773 507.455 169.19C507.846 169.606 508.148 170.098 508.344 170.635C508.54 171.172 508.625 171.743 508.594 172.313C508.563 172.884 508.416 173.442 508.163 173.955C507.91 174.467 507.556 174.923 507.122 175.295C506.688 175.667 506.183 175.947 505.638 176.118C500.352 177.851 478.966 185.979 463.316 187.002C454.2 187.574 446.956 185.563 444.252 180.069C441.255 182.114 438.062 183.856 434.72 185.269C428.464 187.816 421.878 188.735 415.656 186.36C414.532 185.893 413.54 185.154 412.769 184.211C411.998 183.268 411.472 182.149 411.237 180.953C410.371 177.73 410.648 173.12 410.579 169.324C410.461 168.207 410.258 167.1 409.972 166.014V166.014ZM460.769 157.869C460.238 157.77 459.692 157.786 459.169 157.918C458.645 158.05 458.156 158.293 457.736 158.631C455.558 160.275 453.781 162.39 452.536 164.818C451.819 166.071 451.193 167.374 450.665 168.718C451.687 167.834 452.64 166.985 453.524 166.187C454.408 165.39 459.659 160.988 460.769 157.869V157.869Z" fill="#6E0023"/><path fill-rule="evenodd" clip-rule="evenodd" d="M13.4073 314.193C15.7181 305.897 18.3754 297.688 21.3794 289.565C24.3603 281.42 27.6185 273.396 31.102 265.302C32.7137 261.646 34.3603 257.971 36.076 254.315C38.641 248.821 41.2752 243.361 43.9788 237.972C45.1747 235.597 46.4571 233.258 47.7915 230.918C49.8366 227.348 52.0029 223.812 54.0653 220.277C58.5886 212.634 63.4067 208.856 67.6874 209.878C71.9681 210.901 74.2557 216.811 74.221 225.476C73.9148 236.142 72.5035 246.747 70.0096 257.122C66.3702 273.118 61.067 288.89 57.1329 304.661C56.7651 306.384 57.0972 308.183 58.056 309.662C59.0148 311.141 60.5218 312.178 62.2455 312.546C63.9691 312.914 65.7683 312.582 67.2471 311.623C68.7259 310.664 69.7632 309.157 70.131 307.433C73.4758 288.664 78.4324 269.756 80.9454 250.727C82.1417 242.354 82.6749 233.899 82.5399 225.441C82.3492 211.767 76.4567 204.003 69.663 202.236C62.8693 200.468 54.1867 204.159 46.977 215.91L36.0413 233.726L21.7261 261.074C17.74 269.057 13.9908 277.145 10.4784 285.337C6.96602 293.528 3.71359 301.865 0.721144 310.345C0.194855 312.027 0.358367 313.85 1.17578 315.412C1.9932 316.973 3.39758 318.146 5.07986 318.672C6.76215 319.199 8.58455 319.035 10.1462 318.218C11.7079 317.4 12.881 315.996 13.4073 314.314V314.193Z" fill="#6E0023"/><path fill-rule="evenodd" clip-rule="evenodd" d="M92.2445 232.27C83.8564 234.921 75.0697 237.798 66.023 240.623C60.1999 242.356 54.342 244.297 48.4495 246.1C45.5033 247.001 42.5571 247.868 39.6109 248.699C36.6126 249.549 33.649 250.433 30.6855 251.143C21.5698 253.454 12.5804 256.236 3.75343 259.479C2.96824 259.858 2.26533 260.388 1.68492 261.039C1.10451 261.689 0.657987 262.448 0.370725 263.271C0.0834621 264.094 -0.038856 264.966 0.0107593 265.836C0.0603746 266.707 0.280984 267.559 0.659924 268.344C1.03886 269.129 1.56874 269.832 2.21932 270.412C2.86989 270.993 3.6284 271.439 4.45157 271.727C5.27473 272.014 6.14638 272.136 7.01681 272.087C7.88725 272.037 8.73943 271.816 9.52462 271.437C15.6327 267.758 21.9651 264.465 28.4845 261.576C32.8519 259.67 37.3405 257.885 41.9505 256.377C45.4167 255.233 48.8828 254.28 52.349 253.361C55.8151 252.443 59.4199 251.628 62.9728 250.952C74.0645 248.665 85.0522 247.001 95.3467 245.199C96.1945 244.993 96.9934 244.622 97.6978 244.107C98.4023 243.592 98.9984 242.944 99.4522 242.199C99.906 241.454 100.209 240.626 100.343 239.764C100.477 238.902 100.44 238.022 100.234 237.174C100.028 236.327 99.6571 235.528 99.1424 234.823C98.6276 234.119 97.9792 233.523 97.2341 233.069C96.489 232.615 95.6618 232.312 94.7997 232.178C93.9377 232.044 93.0576 232.081 92.2098 232.287L92.2445 232.27Z" fill="#6E0023"/><path fill-rule="evenodd" clip-rule="evenodd" d="M173.262 240.138C171.061 232.235 162.084 218.717 151.893 208.527C144.216 200.832 135.88 195.095 129.571 194.194C121.062 192.964 112.743 198.163 114.303 218.839C115.464 238.301 143.765 263.639 152.534 286.065C154.683 291.593 155.411 296.914 153.626 301.749C152.326 305.215 148.947 303.898 145.533 302.373C138.115 299.08 130.022 291.593 128.202 288.872C124.32 282.858 120.542 274.834 116.07 268.075C113.912 264.781 111.383 261.746 108.532 259.029C107.189 257.983 105.495 257.493 103.801 257.661C102.108 257.828 100.543 258.64 99.4304 259.928C98.318 261.216 97.7429 262.883 97.824 264.583C97.9051 266.283 98.6362 267.887 99.8662 269.063C102.902 271.661 105.572 274.657 107.804 277.971C111.928 283.777 115.585 290.224 119.242 295.181C122.084 299.063 136.122 310.674 146.711 312.719C148.536 313.195 150.439 313.286 152.3 312.988C154.162 312.689 155.941 312.008 157.526 310.986C159.66 309.435 161.225 307.224 161.98 304.695C164.215 297.954 163.21 290.692 160.143 283.101C151.477 261.628 124.424 237.105 123.557 218.371C123.333 214.818 123.619 211.252 124.407 207.781C124.874 206.048 125.394 204.887 126.33 204.315C127.266 203.743 127.907 204.315 128.878 204.61C130.511 205.223 132.056 206.05 133.471 207.071C144.788 214.818 158.306 233.864 160.403 243.31C160.613 244.156 160.988 244.953 161.507 245.655C162.025 246.356 162.677 246.949 163.424 247.399C164.172 247.849 165.001 248.147 165.864 248.276C166.726 248.406 167.606 248.364 168.453 248.154C169.299 247.943 170.096 247.568 170.798 247.049C171.5 246.531 172.092 245.879 172.542 245.132C172.992 244.384 173.29 243.555 173.419 242.693C173.549 241.83 173.507 240.95 173.297 240.103L173.262 240.138Z" fill="#6E0023"/><path fill-rule="evenodd" clip-rule="evenodd" d="M269.885 299.86C270.29 298.804 270.535 297.694 270.613 296.567C270.613 290.865 270.006 284.678 269.972 282.494C269.162 264.687 267.293 246.943 264.374 229.358C262.017 215.216 259.174 202.478 255.535 198.024C254.487 196.64 254.021 194.902 254.236 193.18C254.452 191.458 255.332 189.888 256.688 188.805C258.044 187.722 259.77 187.212 261.497 187.383C263.225 187.555 264.816 188.394 265.933 189.722C269.4 194.298 272.554 205.32 274.599 218.526C277.681 239.724 279.302 261.109 279.452 282.529C279.452 285.822 280.387 297.815 278.689 304.522C277.684 308.473 275.604 311.003 273.195 311.87C272.103 312.201 270.939 312.214 269.84 311.907C268.741 311.6 267.753 310.986 266.991 310.137C263.525 306.671 257.389 295.042 256.87 294.21C253.854 289.253 244.218 274.453 234.963 261.888C231.497 257.139 228.031 252.703 225.206 249.323V258.387C225.293 266.394 227.598 279.184 227.13 289.912C227.108 295.176 225.824 300.358 223.386 305.024C222.913 305.995 222.106 306.762 221.113 307.185C220.119 307.608 219.007 307.66 217.979 307.329C216.818 307.05 215.792 306.368 215.085 305.406C214.57 304.523 214.113 303.609 213.716 302.667C213.065 301.466 212.487 300.228 211.983 298.958C210.891 296.411 210.042 293.759 208.915 291.246C206.714 286.324 204.479 281.489 202.33 276.602C200.874 273.274 199.453 269.929 198.118 266.533C191.948 250.935 182.191 235.718 177.183 219.739C174.671 212.098 173.545 204.069 173.855 196.031C173.915 195.159 174.147 194.308 174.536 193.526C174.925 192.743 175.465 192.046 176.124 191.472C176.783 190.898 177.548 190.46 178.377 190.182C179.205 189.904 180.08 189.792 180.952 189.852C181.824 189.913 182.675 190.144 183.457 190.533C184.239 190.923 184.937 191.462 185.511 192.121C186.085 192.78 186.523 193.546 186.801 194.374C187.079 195.203 187.191 196.078 187.13 196.949C186.632 205.742 188.039 214.539 191.255 222.738C196.038 236.238 203.473 249.358 208.239 262.789L218.083 287.382V287.52C218.083 286.775 218.083 286.012 218.083 285.233C218.083 275.683 216.627 265.267 216.697 258.422L216.801 246.29C216.801 244.73 215.848 241.49 215.934 240.051C215.942 239.358 216.101 238.674 216.401 238.049C216.7 237.423 217.132 236.87 217.667 236.429C218.391 235.831 219.289 235.484 220.226 235.44C221.164 235.396 222.091 235.658 222.866 236.186C225.743 237.919 231.185 244.003 237.199 251.784C247.598 265.389 260.162 284.037 263.733 289.756C264.287 290.345 267.129 295.735 269.885 299.86Z" fill="#6E0023"/><path fill-rule="evenodd" clip-rule="evenodd" d="M317.108 317.901C314.266 299.842 306.051 263.5 304.318 233.777C303.486 219.722 304.145 207.209 307.368 199.255C309.379 194.61 314.578 192.963 320.28 192.53C329.271 192.028 338.236 193.898 346.276 197.955C349.534 199.844 352.671 201.871 355.756 203.968C363.243 209.064 370.383 214.592 377.939 219.566C379.442 220.485 381.249 220.77 382.962 220.357C384.675 219.945 386.153 218.868 387.073 217.365C387.992 215.862 388.277 214.055 387.864 212.343C387.451 210.63 386.375 209.151 384.872 208.232C377.003 203.847 369.465 198.995 361.648 194.506C358.182 192.53 354.716 190.606 351.111 188.856C341.172 184.547 330.295 182.859 319.517 183.951C310.575 185.061 303.036 188.769 300.124 196.17C296.433 204.835 295.514 218.578 295.861 234.072C296.537 264.106 302.169 301.194 304.024 319.548C304.137 320.412 304.42 321.246 304.856 322.002C305.293 322.757 305.873 323.42 306.565 323.951C307.257 324.482 308.047 324.871 308.89 325.097C309.732 325.323 310.611 325.381 311.476 325.267C312.341 325.153 313.175 324.87 313.93 324.434C314.686 323.998 315.348 323.417 315.879 322.725C316.41 322.033 316.799 321.243 317.025 320.401C317.251 319.558 317.309 318.679 317.195 317.815L317.108 317.901Z" fill="#6E0023"/><path fill-rule="evenodd" clip-rule="evenodd" d="M351.343 195.979C347.98 209.696 346.666 223.835 347.444 237.937C347.812 247.142 348.785 256.312 350.355 265.389C350.979 269.028 351.69 272.651 352.435 276.238C353.579 281.715 354.913 287.122 356.456 292.373C360.702 306.965 366.854 320.241 375.208 330.501C375.791 331.161 376.499 331.698 377.292 332.081C378.084 332.465 378.945 332.687 379.824 332.734C380.703 332.782 381.583 332.654 382.412 332.358C383.242 332.062 384.004 331.605 384.654 331.011C385.305 330.418 385.831 329.702 386.202 328.903C386.573 328.105 386.782 327.24 386.815 326.361C386.849 325.481 386.707 324.603 386.399 323.779C386.09 322.954 385.62 322.199 385.017 321.558C376.074 312.432 369.174 301.509 364.775 289.513C363.2 285.437 361.869 281.27 360.789 277.035C359.727 272.777 358.883 268.468 358.258 264.124C357.069 255.426 356.634 246.641 356.958 237.868C357.303 224.948 359.678 212.164 363.995 199.983C364.532 198.305 364.382 196.482 363.576 194.916C362.77 193.349 361.374 192.167 359.697 191.629C358.019 191.091 356.196 191.242 354.63 192.048C353.063 192.854 351.881 194.249 351.343 195.927V195.979Z" fill="#6E0023"/><path fill-rule="evenodd" clip-rule="evenodd" d="M360.783 247.365C352.813 249.276 344.561 249.716 336.433 248.665C333.369 248.284 330.326 247.745 327.317 247.053C325.29 246.568 323.279 245.996 321.269 245.32C318.219 244.384 315.22 243.344 312.187 242.322C307.473 240.71 302.846 239.133 297.993 237.902C297.129 237.788 296.25 237.846 295.407 238.072C294.565 238.298 293.775 238.687 293.083 239.218C292.391 239.75 291.81 240.412 291.374 241.167C290.938 241.923 290.655 242.757 290.541 243.621C290.427 244.486 290.485 245.365 290.711 246.208C290.937 247.05 291.326 247.84 291.857 248.532C292.388 249.224 293.051 249.805 293.806 250.241C294.561 250.677 295.395 250.96 296.26 251.074C301.355 251.078 306.443 251.413 311.494 252.079C314.96 252.547 318.427 253.101 321.893 253.812C325.359 254.523 328.825 255.545 332.291 256.377C337.614 257.826 343.012 258.983 348.461 259.843C353.22 260.503 358.03 260.718 362.828 260.484C363.691 260.355 364.519 260.056 365.267 259.606C366.014 259.156 366.665 258.564 367.183 257.862C367.702 257.16 368.077 256.363 368.287 255.517C368.497 254.67 368.538 253.791 368.409 252.928C368.279 252.065 367.981 251.237 367.531 250.49C367.081 249.742 366.488 249.091 365.786 248.573C365.085 248.055 364.288 247.68 363.441 247.47C362.595 247.259 361.715 247.218 360.852 247.348L360.783 247.365Z" fill="#6E0023"/><path fill-rule="evenodd" clip-rule="evenodd" d="M402.035 200.797C402.035 215.008 402.676 229.168 403.196 243.396C403.352 248.127 403.525 252.824 403.612 257.538C403.698 262.252 403.785 266.966 403.733 271.68C403.733 277.954 403.456 284.227 403.178 290.484C402.762 299.912 402.069 309.271 401.445 318.664C401.445 320.424 402.145 322.113 403.39 323.357C404.634 324.602 406.323 325.302 408.083 325.302C409.844 325.302 411.532 324.602 412.777 323.357C414.022 322.113 414.721 320.424 414.721 318.664C413.976 306.879 412.988 295.163 412.243 283.344C412.017 279.427 411.844 275.528 411.74 271.611C411.636 267.694 411.619 263.777 411.74 259.86C411.74 252.027 412.121 244.263 412.537 236.412C413.161 224.714 414.27 213.085 415.379 201.438C415.464 199.678 414.847 197.956 413.662 196.651C412.477 195.346 410.823 194.565 409.062 194.48C407.302 194.395 405.58 195.013 404.275 196.197C402.97 197.382 402.189 199.036 402.104 200.797H402.035Z" fill="#6E0023"/><path fill-rule="evenodd" clip-rule="evenodd" d="M486.662 317.104C477.722 306.031 469.469 294.421 461.949 282.339C457.356 275.008 452.971 267.555 448.812 260.051C446.004 254.973 443.387 249.843 440.718 244.765C435.519 234.003 431.776 221.785 426.317 210.572C423.874 205.39 420.9 200.477 417.443 195.91C416.259 194.714 414.664 194.013 412.983 193.949C411.301 193.884 409.658 194.46 408.385 195.561C407.112 196.662 406.305 198.206 406.127 199.879C405.949 201.552 406.413 203.231 407.426 204.575C411.963 209.286 415.856 214.578 419.003 220.312C424.202 229.636 428.379 239.705 433.561 248.509C437.304 255.597 441.186 262.72 444.947 269.964C450.562 280.779 456.108 291.697 462.174 302.356C466.541 310.05 471.082 317.607 476.039 324.886C477.087 326.301 478.654 327.243 480.396 327.503C482.138 327.763 483.912 327.32 485.328 326.272C486.744 325.224 487.685 323.657 487.945 321.915C488.205 320.172 487.762 318.398 486.714 316.983L486.662 317.104Z" fill="#6E0023"/><path fill-rule="evenodd" clip-rule="evenodd" d="M489.154 311.922C486.941 300.701 486.357 289.22 487.42 277.832C488.018 269.982 489.013 262.168 490.401 254.418C491.095 250.502 491.909 246.637 492.828 242.79C493.746 238.942 494.786 235.06 495.895 231.317C499.604 218.613 503.833 206.932 507.091 197.261C507.481 195.582 507.204 193.817 506.318 192.337C505.432 190.858 504.007 189.781 502.343 189.331C500.678 188.882 498.904 189.096 497.394 189.929C495.885 190.762 494.757 192.148 494.249 193.795C492.516 202.461 490.627 212.599 488.46 223.552C487.195 229.982 485.895 236.672 484.526 243.413C483.642 247.815 482.654 252.235 481.736 256.654C480.332 263.431 479.015 270.155 477.958 276.706C475.739 290.571 474.734 303.413 476.034 314.175C476.335 315.91 477.313 317.455 478.753 318.469C480.193 319.483 481.976 319.884 483.712 319.582C485.447 319.281 486.991 318.303 488.005 316.864C489.019 315.424 489.42 313.64 489.119 311.905L489.154 311.922Z" fill="#6E0023"/><path fill-rule="evenodd" clip-rule="evenodd" d="M111.932 332.823C116.253 345.274 119.688 358.015 122.21 370.951C123.145 375.665 123.977 380.408 124.705 385.18C125.19 388.351 125.589 391.557 125.97 394.764C126.542 399.599 127.062 404.434 127.617 409.287C128.449 416.67 129.35 423.983 130.615 431.279C130.836 432.124 131.221 432.916 131.748 433.612C132.275 434.308 132.934 434.893 133.687 435.334C134.44 435.775 135.273 436.063 136.137 436.182C137.002 436.301 137.881 436.249 138.726 436.028C139.57 435.807 140.363 435.422 141.058 434.895C141.754 434.368 142.339 433.709 142.78 432.956C143.221 432.203 143.509 431.37 143.628 430.506C143.748 429.641 143.695 428.762 143.474 427.917C140.828 420.469 138.561 412.892 136.681 405.214C135.433 400.015 134.306 394.815 133.405 389.616C132.712 385.647 132.175 381.661 131.672 377.693C131.17 373.724 130.702 369.669 130.251 365.648C129.06 353.397 127.208 341.218 124.705 329.166C124.22 327.473 123.082 326.041 121.542 325.186C120.001 324.331 118.184 324.123 116.49 324.608C114.797 325.093 113.365 326.231 112.51 327.772C111.655 329.312 111.447 331.13 111.932 332.823V332.823Z" fill="#6E0023"/><path fill-rule="evenodd" clip-rule="evenodd" d="M99.0913 334.348C117.737 331.202 136.68 330.19 155.555 331.333C174.619 332.719 193.059 336.93 209.281 345.457C221.273 351.818 228.344 365.665 229.696 379.876C231.152 394.347 226.941 409.339 216.074 417.536C203.301 426.843 183.146 431.401 161.447 433.463C129.957 436.496 95.0532 434.191 72.4712 433.706C71.5698 433.66 70.6685 433.798 69.8221 434.111C68.9756 434.424 68.2017 434.906 67.5474 435.528C66.8931 436.149 66.3721 436.898 66.0161 437.727C65.6601 438.556 65.4766 439.45 65.4766 440.352C65.4766 441.255 65.6601 442.148 66.0161 442.977C66.3721 443.807 66.8931 444.555 67.5474 445.177C68.2017 445.798 68.9756 446.28 69.8221 446.594C70.6685 446.907 71.5698 447.045 72.4712 446.999C95.3479 446.496 130.72 446.999 162.487 442.77C185.849 439.737 207.305 434.226 220.823 423.879C233.908 414.174 239.401 396.444 237.894 379.114C236.386 361.783 228.015 345.319 213.631 337.329C199.507 329.608 184.158 324.379 168.258 321.87C144.914 317.867 120.183 318.404 97.1155 321.177C96.2229 321.264 95.3572 321.531 94.5704 321.962C93.7836 322.392 93.0918 322.977 92.5368 323.682C91.9818 324.386 91.5748 325.195 91.3404 326.061C91.1061 326.927 91.0492 327.831 91.1731 328.719C91.297 329.608 91.5991 330.462 92.0614 331.23C92.5237 331.999 93.1365 332.666 93.8632 333.192C94.5898 333.718 95.4152 334.091 96.2898 334.29C97.1644 334.488 98.0701 334.508 98.9526 334.348H99.0913Z" fill="#6E0023"/><path fill-rule="evenodd" clip-rule="evenodd" d="M270.665 438.437C266.245 425.491 263.438 404.416 265.621 384.867C266.243 378.867 267.468 372.944 269.278 367.19C270.986 361.568 273.667 356.288 277.198 351.592C279.39 348.679 282.162 346.251 285.339 344.461C288.515 342.672 292.028 341.559 295.656 341.194C304.321 340.327 314.719 343.655 327.596 351.713C328.358 352.14 329.195 352.413 330.062 352.516C330.929 352.619 331.807 352.55 332.647 352.313C333.487 352.077 334.273 351.677 334.958 351.137C335.644 350.597 336.216 349.927 336.643 349.166C337.07 348.404 337.342 347.567 337.445 346.7C337.548 345.833 337.479 344.955 337.243 344.115C337.006 343.275 336.607 342.489 336.067 341.804C335.526 341.118 334.857 340.546 334.095 340.119C317.735 332.008 304.72 329.911 294.338 331.783C284.87 333.519 276.452 338.878 270.873 346.722C265.079 354.925 260.957 364.188 258.741 373.984C252.831 397.415 253.542 425.543 257.892 442.215C258.142 443.05 258.555 443.828 259.105 444.504C259.656 445.18 260.335 445.74 261.103 446.154C261.87 446.568 262.712 446.826 263.579 446.914C264.447 447.003 265.323 446.919 266.158 446.669C266.994 446.419 267.772 446.006 268.447 445.455C269.123 444.904 269.684 444.226 270.098 443.458C270.511 442.69 270.77 441.849 270.858 440.981C270.946 440.114 270.863 439.237 270.613 438.402L270.665 438.437Z" fill="#6E0023"/><path fill-rule="evenodd" clip-rule="evenodd" d="M324.251 324.556C324.147 338.733 324.373 352.91 324.459 367.138C324.459 371.852 324.459 376.583 324.459 381.315C324.459 386.046 324.355 390.743 324.165 395.457C323.939 401.765 323.541 408.039 323.125 414.33C322.501 423.81 321.704 433.186 321.063 442.631C321.062 443.503 321.234 444.366 321.568 445.171C321.901 445.977 322.39 446.708 323.007 447.325C323.623 447.941 324.355 448.43 325.16 448.764C325.965 449.097 326.828 449.269 327.7 449.269C328.572 449.269 329.435 449.097 330.24 448.764C331.046 448.43 331.777 447.941 332.394 447.325C333.01 446.708 333.499 445.977 333.833 445.171C334.166 444.366 334.338 443.503 334.338 442.631C333.61 430.881 332.761 419.165 332.362 407.363C332.223 403.446 332.16 399.529 332.171 395.613C332.183 391.696 332.275 387.779 332.449 383.862C332.778 376.029 333.315 368.265 333.956 360.396C334.892 348.646 336.21 336.983 337.527 325.319C337.555 323.603 336.919 321.942 335.752 320.683C334.585 319.424 332.976 318.665 331.263 318.565C329.549 318.464 327.863 319.029 326.556 320.143C325.25 321.256 324.424 322.831 324.251 324.539V324.556Z" fill="#6E0023"/><path fill-rule="evenodd" clip-rule="evenodd" d="M329.814 384.798C323.298 384.608 316.816 384.365 310.283 383.741C305.933 383.325 301.617 382.84 297.302 382.129C295.136 381.783 293.004 381.349 290.889 380.847C288.775 380.344 286.643 379.772 284.546 379.114C278.151 377.173 272.034 374.885 265.795 372.736C264.942 372.548 264.061 372.53 263.202 372.683C262.343 372.836 261.522 373.156 260.786 373.626C260.051 374.096 259.415 374.706 258.916 375.422C258.416 376.137 258.062 376.944 257.874 377.796C257.687 378.649 257.669 379.53 257.821 380.389C257.974 381.248 258.294 382.069 258.764 382.805C259.234 383.54 259.844 384.176 260.56 384.675C261.276 385.175 262.083 385.529 262.935 385.717C268.134 386.237 273.455 386.618 278.793 387.224C282.259 387.623 285.725 388.056 289.295 388.663C291.895 389.096 294.494 389.668 297.059 390.24C299.624 390.812 302.259 391.47 304.789 392.112C312.622 394.122 320.386 396.219 328.133 397.952C329.851 398.118 331.565 397.61 332.915 396.536C334.265 395.462 335.146 393.905 335.37 392.195C335.595 390.484 335.147 388.753 334.12 387.367C333.093 385.981 331.568 385.047 329.866 384.763L329.814 384.798Z" fill="#6E0023"/><path fill-rule="evenodd" clip-rule="evenodd" d="M412.727 380.067L413.299 379.755C413.936 379.285 414.517 378.744 415.032 378.143C418.059 374.466 420.663 370.46 422.796 366.202C431.86 349.426 441.514 325.232 446.904 320.154C447.455 319.571 448.151 319.144 448.922 318.919C449.693 318.693 450.509 318.677 451.288 318.872C451.919 319.014 452.515 319.28 453.042 319.655C453.568 320.03 454.015 320.506 454.356 321.055C455.126 322.98 455.785 324.948 456.332 326.948L460.266 336.324C461.635 339.131 462.83 341.974 463.94 344.833C466.435 351.298 468.394 357.849 470.872 364.452C477.804 383.221 487.648 402.164 495.135 421.349C498.533 429.849 501.313 438.583 503.454 447.484C503.631 448.337 503.639 449.217 503.476 450.074C503.314 450.93 502.984 451.746 502.506 452.475C502.028 453.204 501.411 453.832 500.691 454.322C499.97 454.813 499.16 455.157 498.307 455.335C497.453 455.512 496.573 455.52 495.717 455.357C494.86 455.194 494.044 454.865 493.315 454.387C492.586 453.909 491.958 453.292 491.468 452.571C490.977 451.851 490.633 451.041 490.456 450.187C488.837 441.809 486.607 433.561 483.783 425.508C477.094 406.011 468.012 386.704 461.756 367.658C459.85 361.939 458.29 356.289 456.418 350.691C455.26 347.079 453.907 343.532 452.363 340.067L448.897 331.402C442.709 341.956 433.888 363.811 426.072 376.462C423.912 380.371 421.01 383.821 417.528 386.618C416.013 387.694 414.186 388.242 412.329 388.178C409.642 388.056 404.911 385.422 399.538 380.933C388.429 371.661 372.884 354.694 366.09 348.559L366.246 350.292C368.95 378.715 377.078 449.65 377.164 454.728C377.077 456.432 376.339 458.037 375.102 459.213C373.865 460.388 372.224 461.043 370.518 461.043C368.812 461.043 367.171 460.388 365.934 459.213C364.697 458.037 363.959 456.432 363.872 454.728C363.958 449.719 358.256 379.287 356.402 351.09C356.073 345.89 355.848 342.216 355.83 340.397C355.767 339.297 355.92 338.196 356.281 337.156C356.529 336.562 356.896 336.026 357.36 335.58C357.824 335.135 358.374 334.789 358.977 334.565C359.58 334.341 360.222 334.243 360.864 334.277C361.507 334.311 362.135 334.477 362.711 334.764C362.918 334.868 363.317 335.076 363.854 335.405C365.587 336.514 369.781 339.409 370.249 339.807C375.05 343.707 388.984 359.668 400.544 370.604C403.443 373.458 406.554 376.089 409.85 378.472C410.707 379.171 411.681 379.711 412.727 380.067Z" fill="#6E0023"/><path fill-rule="evenodd" clip-rule="evenodd" d="M505.638 21.51C497.769 22.6379 490.046 24.6195 482.606 27.4198C480.197 28.2517 477.771 29.1529 475.31 29.8115C472.849 30.4701 470.439 31.1979 467.961 31.7525C462.772 32.9107 457.498 33.6525 452.19 33.9709C451.08 34.1386 450.082 34.7405 449.416 35.6441C448.75 36.5476 448.47 37.6788 448.637 38.7888C448.805 39.8988 449.407 40.8968 450.311 41.5631C451.214 42.2294 452.345 42.5094 453.455 42.3417C457.407 41.3538 461.254 40.054 465.136 38.6848L472.641 36.0159C474.374 35.444 475.951 34.8721 477.632 34.3695C480.127 33.6069 482.64 32.931 485.153 32.3245C491.958 30.6603 498.946 29.8683 505.95 29.9675C507.072 29.9192 508.128 29.4274 508.887 28.6002C509.646 27.773 510.045 26.6783 509.997 25.5568C509.949 24.4353 509.457 23.3788 508.63 22.6199C507.803 21.861 506.708 21.4618 505.586 21.51H505.638Z" fill="#6E0023"/><path fill-rule="evenodd" clip-rule="evenodd" d="M412.622 23.2604C410.282 31.3192 408.168 39.4474 405.846 47.5235C405.083 50.2098 404.286 52.8961 403.437 55.5477C402.588 58.1993 401.704 60.8683 400.751 63.4679C399.468 66.9341 398.047 70.4002 396.574 73.8664C394.355 78.979 391.895 83.9355 389.399 88.8922C389.162 89.4081 389.03 89.9666 389.014 90.5343C388.997 91.102 389.094 91.6673 389.301 92.1965C389.507 92.7256 389.818 93.2077 390.215 93.6141C390.612 94.0204 391.086 94.3427 391.61 94.5616C392.134 94.7806 392.697 94.8917 393.265 94.8884C393.833 94.8851 394.395 94.7674 394.916 94.5423C395.438 94.3173 395.908 93.9895 396.3 93.5785C396.692 93.1676 396.998 92.6819 397.198 92.1504C399.468 85.4607 401.426 78.7017 403.472 71.908C404.147 69.6723 404.841 67.4366 405.568 65.2183C406.296 62.9999 407.059 60.7816 407.839 58.5979C409.416 54.1959 411.062 49.8285 412.743 45.4785C415.256 38.9448 417.943 32.4977 420.594 26.068C420.811 25.5371 420.918 24.9675 420.908 24.3941C420.898 23.8206 420.771 23.2553 420.535 22.7323C420.3 22.2094 419.961 21.7398 419.538 21.3522C419.115 20.9645 418.618 20.6669 418.077 20.4774C417.535 20.288 416.961 20.2106 416.389 20.25C415.817 20.2894 415.259 20.4449 414.748 20.7068C414.238 20.9688 413.786 21.3318 413.421 21.7737C413.055 22.2157 412.784 22.7274 412.622 23.2778V23.2604Z" fill="#6E0023"/></svg>